<?xml version="1.0" encoding="UTF-8" standalone="no"?>
<!-- Generator: Adobe Illustrator 18.0.0, SVG Export Plug-In . SVG Version: 6.00 Build 0)  -->

<svg
   version="1.1"
   x="0px"
   y="0px"
   viewBox="0 0 212 218.17799"
   xml:space="preserve"
   id="svg234"
   sodipodi:docname="squirrel_clock.svg"
   width="212"
   height="218.17799"
   inkscape:version="1.1.1 (c3084ef, 2021-09-22)"
   xmlns:inkscape="http://www.inkscape.org/namespaces/inkscape"
   xmlns:sodipodi="http://sodipodi.sourceforge.net/DTD/sodipodi-0.dtd"
   xmlns:xlink="http://www.w3.org/1999/xlink"
   xmlns="http://www.w3.org/2000/svg"
   xmlns:svg="http://www.w3.org/2000/svg"
   xmlns:rdf="http://www.w3.org/1999/02/22-rdf-syntax-ns#"
   xmlns:cc="http://creativecommons.org/ns#"
   xmlns:dc="http://purl.org/dc/elements/1.1/"><defs
   id="defs238"><radialGradient
     id="SVGID_2_"
     cx="115.467"
     cy="107.4124"
     r="102.5037"
     gradientUnits="userSpaceOnUse"
     fx="115.467"
     fy="107.4124"
     fr="0"
     spreadMethod="pad">
		<stop
   offset="0.9413"
   style="stop-color:#42210B"
   id="stop1708" />
		<stop
   offset="0.9708"
   style="stop-color:#754C24"
   id="stop1710" />
		<stop
   offset="1"
   style="stop-color:#42210B"
   id="stop1712" />
	</radialGradient><linearGradient
     inkscape:collect="always"
     xlink:href="#linearGradient2069"
     id="linearGradient2077"
     x1="202.81"
     y1="467.85501"
     x2="564.1795"
     y2="467.85501"
     gradientUnits="userSpaceOnUse" /><linearGradient
     id="linearGradient2069"
     inkscape:swatch="solid"><stop
       style="stop-color:#d07839;stop-opacity:1;"
       offset="0"
       id="stop2067" /></linearGradient><linearGradient
     inkscape:collect="always"
     xlink:href="#linearGradient2069"
     id="linearGradient2083"
     x1="269.20129"
     y1="561.96002"
     x2="515.17871"
     y2="561.96002"
     gradientUnits="userSpaceOnUse" /><linearGradient
     inkscape:collect="always"
     xlink:href="#linearGradient2069"
     id="linearGradient2071"
     x1="162.51797"
     y1="416.035"
     x2="448.50153"
     y2="416.035"
     gradientUnits="userSpaceOnUse" /><linearGradient
     id="linearGradient2009"
     inkscape:swatch="solid"><stop
       style="stop-color:#74401b;stop-opacity:1;"
       offset="0"
       id="stop2007" /></linearGradient><radialGradient
     inkscape:collect="always"
     xlink:href="#SVGID_1_"
     id="radialGradient1827"
     gradientUnits="userSpaceOnUse"
     cx="115.4672"
     cy="107.4124"
     r="105.5036" /></defs><sodipodi:namedview
   id="namedview236"
   pagecolor="#ffffff"
   bordercolor="#666666"
   borderopacity="1.0"
   inkscape:pageshadow="2"
   inkscape:pageopacity="0.0"
   inkscape:pagecheckerboard="0"
   showgrid="false"
   inkscape:zoom="3.7079817"
   inkscape:cx="106.12242"
   inkscape:cy="109.089"
   inkscape:window-width="1920"
   inkscape:window-height="1035"
   inkscape:window-x="1440"
   inkscape:window-y="23"
   inkscape:window-maximized="1"
   inkscape:current-layer="Layer_1" />
<style
   type="text/css"
   id="style2">
	.st0{fill:url(#SVGID_1_);stroke:#000000;stroke-miterlimit:10;}
	.st1{fill:url(#SVGID_2_);stroke:#000000;stroke-width:0.25;stroke-miterlimit:10;}
	.st2{fill:none;stroke:#000000;stroke-linecap:round;stroke-miterlimit:10;}
	.st3{fill:#1A1A1A;}
</style>
<g
   id="Layer_1"
   transform="translate(-9.5,4.778)">
	<radialGradient
   id="SVGID_1_"
   cx="115.4672"
   cy="107.4124"
   r="105.5036"
   gradientUnits="userSpaceOnUse">
		<stop
   offset="0.8865"
   style="stop-color:#42210B"
   id="stop4" />
		<stop
   offset="1"
   style="stop-color:#754C24"
   id="stop6" />
	</radialGradient>
	<ellipse
   style="fill:#ffffff;fill-opacity:1"
   id="path2041"
   cx="115.45879"
   cy="107.30299"
   rx="103.72807"
   ry="103.38517" /><path
   class="st0"
   d="M 221,107.4 C 221,165.7 173.8,212.9 115.5,212.9 57.2,212.9 10,165.7 10,107.4 10,49.1 57.2,1.9 115.5,1.9 173.8,1.9 221,49.1 221,107.4 Z m -12,0 c 0,-51.6 -41.9,-93.5 -93.5,-93.5 -51.6,0 -93.5,42 -93.5,93.5 0,51.5 41.9,93.5 93.5,93.5 51.5,0 93.5,-41.9 93.5,-93.5 z"
   id="path9"
   style="fill:url(#radialGradient1827)" />
	<radialGradient
   id="SVGID_2_-2"
   cx="115.467"
   cy="107.4124"
   r="102.5037"
   gradientUnits="userSpaceOnUse"
   xlink:href="#SVGID_1_">
		<stop
   offset="0.9413"
   style="stop-color:#42210B"
   id="stop11" />
		<stop
   offset="0.9708"
   style="stop-color:#754C24"
   id="stop13" />
		<stop
   offset="1"
   style="stop-color:#42210B"
   id="stop15" />
	</radialGradient>
	<path
   class="st1"
   d="M 115.5,209.9 C 59,209.9 13,163.9 13,107.4 13,50.9 58.9,4.9 115.5,4.9 c 56.6,0 102.5,46 102.5,102.5 0,56.5 -46,102.5 -102.5,102.5 z M 212,107.4 C 212,54.2 168.7,10.9 115.5,10.9 62.3,10.9 19,54.2 19,107.4 c 0,53.2 43.3,96.5 96.5,96.5 53.2,0 96.5,-43.3 96.5,-96.5 z"
   id="path18"
   style="fill:url(#SVGID_2_-2);fill-opacity:1" />
	<g
   id="_x35__min">
		<line
   class="st2"
   x1="115.5"
   y1="13.9"
   x2="115.5"
   y2="18.9"
   id="line20" />
		<line
   class="st2"
   x1="68.699997"
   y1="26.4"
   x2="71.199997"
   y2="30.799999"
   id="line22" />
		<line
   class="st2"
   x1="34.5"
   y1="60.700001"
   x2="38.799999"
   y2="63.200001"
   id="line24" />
		<line
   class="st2"
   x1="22"
   y1="107.4"
   x2="27"
   y2="107.4"
   id="line26" />
		<line
   class="st2"
   x1="34.5"
   y1="154.2"
   x2="38.799999"
   y2="151.7"
   id="line28" />
		<line
   class="st2"
   x1="68.699997"
   y1="188.39999"
   x2="71.199997"
   y2="184.10001"
   id="line30" />
		<line
   class="st2"
   x1="115.5"
   y1="200.89999"
   x2="115.5"
   y2="195.89999"
   id="line32" />
		<line
   class="st2"
   x1="162.2"
   y1="188.39999"
   x2="159.7"
   y2="184.10001"
   id="line34" />
		<line
   class="st2"
   x1="196.39999"
   y1="154.2"
   x2="192.10001"
   y2="151.7"
   id="line36" />
		<line
   class="st2"
   x1="209"
   y1="107.4"
   x2="204"
   y2="107.4"
   id="line38" />
		<line
   class="st2"
   x1="196.39999"
   y1="60.700001"
   x2="192.10001"
   y2="63.200001"
   id="line40" />
		<line
   class="st2"
   x1="162.2"
   y1="26.4"
   x2="159.7"
   y2="30.799999"
   id="line42" />
	</g>
	<g
   id="_x31__min">
		<line
   class="st2"
   x1="105.7"
   y1="14.4"
   x2="106"
   y2="16.9"
   id="line45" />
		<line
   class="st2"
   x1="96"
   y1="16"
   x2="96.5"
   y2="18.4"
   id="line47" />
		<line
   class="st2"
   x1="86.599998"
   y1="18.5"
   x2="87.300003"
   y2="20.9"
   id="line49" />
		<line
   class="st2"
   x1="77.400002"
   y1="22"
   x2="78.5"
   y2="24.299999"
   id="line51" />
		<line
   class="st2"
   x1="60.5"
   y1="31.799999"
   x2="62"
   y2="33.799999"
   id="line53" />
		<line
   class="st2"
   x1="52.900002"
   y1="37.900002"
   x2="54.599998"
   y2="39.799999"
   id="line55" />
		<line
   class="st2"
   x1="46"
   y1="44.799999"
   x2="47.799999"
   y2="46.5"
   id="line57" />
		<line
   class="st2"
   x1="39.799999"
   y1="52.5"
   x2="41.799999"
   y2="53.900002"
   id="line59" />
		<line
   class="st2"
   x1="30"
   y1="69.400002"
   x2="32.299999"
   y2="70.400002"
   id="line61" />
		<line
   class="st2"
   x1="26.5"
   y1="78.5"
   x2="28.9"
   y2="79.300003"
   id="line63" />
		<line
   class="st2"
   x1="24"
   y1="88"
   x2="26.5"
   y2="88.5"
   id="line65" />
		<line
   class="st2"
   x1="22.5"
   y1="97.599998"
   x2="25"
   y2="97.900002"
   id="line67" />
		<line
   class="st2"
   x1="22.5"
   y1="117.2"
   x2="25"
   y2="116.9"
   id="line69" />
		<line
   class="st2"
   x1="24"
   y1="126.9"
   x2="26.5"
   y2="126.3"
   id="line71" />
		<line
   class="st2"
   x1="26.5"
   y1="136.3"
   x2="28.9"
   y2="135.5"
   id="line73" />
		<line
   class="st2"
   x1="30"
   y1="145.39999"
   x2="32.299999"
   y2="144.39999"
   id="line75" />
		<line
   class="st2"
   x1="39.799999"
   y1="162.39999"
   x2="41.799999"
   y2="160.89999"
   id="line77" />
		<line
   class="st2"
   x1="46"
   y1="170"
   x2="47.799999"
   y2="168.3"
   id="line79" />
		<line
   class="st2"
   x1="52.900002"
   y1="176.89999"
   x2="54.599998"
   y2="175"
   id="line81" />
		<line
   class="st2"
   x1="60.5"
   y1="183.10001"
   x2="62"
   y2="181"
   id="line83" />
		<line
   class="st2"
   x1="77.400002"
   y1="192.8"
   x2="78.5"
   y2="190.5"
   id="line85" />
		<line
   class="st2"
   x1="86.599998"
   y1="196.3"
   x2="87.300003"
   y2="194"
   id="line87" />
		<line
   class="st2"
   x1="96"
   y1="198.89999"
   x2="96.5"
   y2="196.39999"
   id="line89" />
		<line
   class="st2"
   x1="105.7"
   y1="200.39999"
   x2="106"
   y2="197.89999"
   id="line91" />
		<line
   class="st2"
   x1="125.2"
   y1="200.39999"
   x2="125"
   y2="197.89999"
   id="line93" />
		<line
   class="st2"
   x1="134.89999"
   y1="198.89999"
   x2="134.39999"
   y2="196.39999"
   id="line95" />
		<line
   class="st2"
   x1="144.39999"
   y1="196.3"
   x2="143.60001"
   y2="194"
   id="line97" />
		<line
   class="st2"
   x1="153.5"
   y1="192.8"
   x2="152.5"
   y2="190.5"
   id="line99" />
		<line
   class="st2"
   x1="170.39999"
   y1="183.10001"
   x2="169"
   y2="181"
   id="line101" />
		<line
   class="st2"
   x1="178"
   y1="176.89999"
   x2="176.39999"
   y2="175"
   id="line103" />
		<line
   class="st2"
   x1="185"
   y1="170"
   x2="183.10001"
   y2="168.3"
   id="line105" />
		<line
   class="st2"
   x1="191.10001"
   y1="162.39999"
   x2="189.10001"
   y2="160.89999"
   id="line107" />
		<line
   class="st2"
   x1="200.89999"
   y1="145.39999"
   x2="198.60001"
   y2="144.39999"
   id="line109" />
		<line
   class="st2"
   x1="204.39999"
   y1="136.3"
   x2="202"
   y2="135.5"
   id="line111" />
		<line
   class="st2"
   x1="206.89999"
   y1="126.9"
   x2="204.5"
   y2="126.3"
   id="line113" />
		<line
   class="st2"
   x1="208.5"
   y1="117.2"
   x2="206"
   y2="116.9"
   id="line115" />
		<line
   class="st2"
   x1="208.5"
   y1="97.599998"
   x2="206"
   y2="97.900002"
   id="line117" />
		<line
   class="st2"
   x1="206.89999"
   y1="88"
   x2="204.5"
   y2="88.5"
   id="line119" />
		<line
   class="st2"
   x1="204.39999"
   y1="78.5"
   x2="202"
   y2="79.300003"
   id="line121" />
		<line
   class="st2"
   x1="200.89999"
   y1="69.400002"
   x2="198.60001"
   y2="70.400002"
   id="line123" />
		<line
   class="st2"
   x1="191.10001"
   y1="52.5"
   x2="189.10001"
   y2="53.900002"
   id="line125" />
		<line
   class="st2"
   x1="185"
   y1="44.799999"
   x2="183.10001"
   y2="46.5"
   id="line127" />
		<line
   class="st2"
   x1="178"
   y1="37.900002"
   x2="176.39999"
   y2="39.799999"
   id="line129" />
		<line
   class="st2"
   x1="170.39999"
   y1="31.799999"
   x2="169"
   y2="33.799999"
   id="line131" />
		<line
   class="st2"
   x1="153.5"
   y1="22"
   x2="152.5"
   y2="24.299999"
   id="line133" />
		<line
   class="st2"
   x1="144.39999"
   y1="18.5"
   x2="143.60001"
   y2="20.9"
   id="line135" />
		<line
   class="st2"
   x1="134.89999"
   y1="16"
   x2="134.39999"
   y2="18.4"
   id="line137" />
		<line
   class="st2"
   x1="125.2"
   y1="14.4"
   x2="125"
   y2="16.9"
   id="line139" />
	</g>
	<g
   id="g148">
		<path
   d="m 107.5,35.6 c 0,0.1 0,0.1 -0.1,0.1 -0.2,0 -0.8,0 -2.1,0 -0.9,0 -1.6,0 -1.7,0 -0.1,0 -0.1,-0.1 -0.1,-0.1 v -0.4 c 0,-0.1 0,-0.1 0.1,-0.1 h 0.6 c 0.3,0 0.6,-0.2 0.9,-0.5 1,-0.9 2.8,-3.7 3.6,-4.7 -0.6,-0.8 -3,-4.4 -3.3,-4.8 -0.1,-0.1 -0.4,-0.2 -0.7,-0.2 H 104 c -0.1,0 -0.1,-0.1 -0.1,-0.1 v -0.4 c 0,-0.1 0,-0.1 0.1,-0.1 0.2,0 0.9,0 2.3,0 1.6,0 2.3,0 2.4,0 0.1,0 0.1,0.1 0.1,0.1 v 0.4 c 0,0.1 0,0.1 -0.1,0.1 h -0.6 c -0.7,0 -0.7,0.4 -0.5,0.8 0.1,0.2 1.6,2.7 2,3.2 0.4,-0.6 2.3,-3 2.4,-3.3 0.2,-0.3 0.1,-0.7 -0.3,-0.7 h -0.3 c -0.1,0 -0.1,-0.1 -0.1,-0.1 v -0.4 c 0,-0.1 0,-0.1 0.1,-0.1 0.2,0 0.8,0 1.7,0 0.9,0 1.5,0 1.6,0 0.1,0 0.1,0.1 0.1,0.1 v 0.4 c 0,0.1 0,0.1 -0.1,0.1 H 114 c -0.4,0 -0.5,0.1 -0.7,0.2 -0.3,0.2 -2.8,3.5 -3.5,4.3 0.2,0.3 3.3,5.1 3.5,5.3 0.4,0.3 0.8,0.4 1.1,0.4 h 0.5 c 0.1,0 0.1,0 0.1,0.1 v 0.4 c 0,0.1 0,0.1 -0.1,0.1 -0.1,0 -0.7,0 -2,0 -1.3,0 -2.1,0 -2.3,0 -0.1,0 -0.1,0 -0.1,-0.1 v -0.4 c 0,-0.1 0,-0.1 0.1,-0.1 h 0.6 c 0.3,0 0.5,-0.1 0.4,-0.3 -0.1,-0.2 -2.3,-3.8 -2.6,-4.3 -0.6,0.9 -2.5,3.6 -2.6,3.9 -0.2,0.4 -0.1,0.7 0.3,0.7 h 0.6 c 0.1,0 0.1,0 0.1,0.1 v 0.4 z"
   id="path142" />
		<path
   d="m 117.3,29 c 0,-0.4 0,-3.3 -0.1,-3.5 0,-0.4 -0.2,-0.5 -0.8,-0.5 h -0.9 c -0.1,0 -0.1,0 -0.1,-0.1 v -0.4 c 0,-0.1 0,-0.1 0.1,-0.1 0.2,0 1,0 2.5,0 1.4,0 1.9,0 2.2,0 0.1,0 0.1,0 0.1,0.1 v 0.4 c 0,0.1 0,0.1 -0.1,0.1 h -0.8 c -0.3,0 -0.6,0.1 -0.6,0.4 0,0.2 0,3.7 0,3.9 v 1.2 c 0,0.2 0,3.9 0,4 0,0.5 0.2,0.6 0.8,0.6 h 0.7 c 0.1,0 0.1,0 0.1,0.1 v 0.4 c 0,0.1 0,0.1 -0.1,0.1 -0.2,0 -0.8,0 -2.2,0 -1.5,0 -2.2,0 -2.4,0 -0.1,0 -0.1,0 -0.1,-0.1 v -0.4 c 0,-0.1 0,-0.1 0.1,-0.1 h 0.9 c 0.3,0 0.7,0 0.7,-0.5 0,-0.2 0.1,-3.7 0.1,-4.5 V 29 Z"
   id="path144" />
		<path
   d="m 123.4,29 c 0,-0.4 0,-3.3 -0.1,-3.5 0,-0.4 -0.2,-0.5 -0.8,-0.5 h -0.9 c -0.1,0 -0.1,0 -0.1,-0.1 v -0.4 c 0,-0.1 0,-0.1 0.1,-0.1 0.2,0 1,0 2.5,0 1.4,0 1.9,0 2.2,0 0.1,0 0.1,0 0.1,0.1 v 0.4 c 0,0.1 0,0.1 -0.1,0.1 h -0.8 c -0.3,0 -0.6,0.1 -0.6,0.4 0,0.2 0,3.7 0,3.9 v 1.2 c 0,0.2 0,3.9 0,4 0,0.5 0.2,0.6 0.8,0.6 h 0.7 c 0.1,0 0.1,0 0.1,0.1 v 0.4 c 0,0.1 0,0.1 -0.1,0.1 -0.2,0 -0.8,0 -2.2,0 -1.5,0 -2.2,0 -2.4,0 -0.1,0 -0.1,0 -0.1,-0.1 v -0.4 c 0,-0.1 0,-0.1 0.1,-0.1 h 0.9 c 0.3,0 0.7,0 0.7,-0.5 0,-0.2 0.1,-3.7 0.1,-4.5 V 29 Z"
   id="path146" />
	</g>
	<g
   id="g156">
		<path
   d="m 72.7,49.2 c 0,0.1 0.1,0.1 0,0.2 -0.1,0.1 -0.7,0.4 -1.8,1 -0.8,0.5 -1.3,0.8 -1.5,0.9 -0.1,0 -0.1,0 -0.2,-0.1 L 69,50.9 c 0,-0.1 0,-0.1 0,-0.1 l 0.5,-0.3 c 0.2,-0.1 0.4,-0.5 0.6,-0.9 0.4,-1.2 0.6,-4.6 0.8,-5.9 -0.9,-0.4 -4.8,-2.4 -5.3,-2.5 -0.2,-0.1 -0.5,0 -0.7,0.2 l -0.6,0.4 c -0.1,0 -0.1,0 -0.1,-0.1 L 64,41.3 c 0,-0.1 0,-0.1 0,-0.2 0.1,-0.1 0.8,-0.4 2,-1.1 1.4,-0.8 1.9,-1.2 2.1,-1.3 0.1,-0.1 0.1,0 0.2,0 l 0.2,0.3 c 0,0.1 0.1,0.1 -0.1,0.2 l -0.5,0.3 c -0.6,0.4 -0.4,0.7 0,0.9 0.2,0.1 2.8,1.5 3.4,1.8 0.1,-0.7 0.4,-3.8 0.4,-4.1 0,-0.4 -0.2,-0.6 -0.6,-0.4 L 70.7,38 c -0.1,0 -0.1,0 -0.2,-0.1 l -0.2,-0.3 c 0,-0.1 0,-0.1 0,-0.2 0.2,-0.1 0.7,-0.4 1.5,-0.8 0.8,-0.4 1.2,-0.8 1.4,-0.8 0.1,-0.1 0.1,0 0.2,0 l 0.2,0.3 c 0.1,0.1 0.1,0.1 0,0.2 L 73,36.6 c -0.3,0.2 -0.4,0.4 -0.5,0.5 -0.2,0.3 -0.7,4.4 -0.8,5.4 0.3,0.2 5.4,2.8 5.6,2.8 0.5,0.1 0.9,0 1.1,-0.2 L 79,45 c 0.1,-0.1 0.1,0 0.2,0 l 0.2,0.3 c 0,0.1 0.1,0.1 0,0.2 -0.1,0.1 -0.6,0.3 -1.8,1 -1.1,0.6 -1.8,1.1 -1.9,1.2 -0.1,0.1 -0.1,0 -0.2,0 l -0.2,-0.3 c 0,-0.1 0,-0.1 0,-0.1 L 75.8,47 c 0.3,-0.2 0.4,-0.3 0.2,-0.5 -0.2,-0.2 -3.9,-2.2 -4.4,-2.4 -0.1,1.1 -0.4,4.4 -0.3,4.7 0.1,0.5 0.3,0.7 0.6,0.5 L 72.4,49 c 0.1,-0.1 0.1,0 0.2,0 z"
   id="path150" />
		<path
   d="M 77.8,38.6 C 77.6,38.3 76.1,35.8 76,35.6 75.8,35.3 75.6,35.2 75,35.5 L 74.2,36 c -0.1,0 -0.1,0 -0.2,0 l -0.2,-0.4 c 0,-0.1 0,-0.1 0,-0.1 0.2,-0.1 0.9,-0.5 2.2,-1.2 1.2,-0.7 1.7,-1 1.8,-1.1 0.1,0 0.1,0 0.2,0 l 0.2,0.3 c 0,0.1 0,0.1 -0.1,0.2 L 77.6,34 c -0.3,0.2 -0.4,0.4 -0.3,0.7 0.1,0.1 1.8,3.2 1.9,3.4 l 0.6,1.1 c 0.1,0.1 2,3.3 2.1,3.5 0.2,0.4 0.5,0.4 0.9,0.1 l 0.6,-0.3 c 0.1,0 0.1,0 0.2,0 l 0.2,0.4 c 0,0.1 0,0.1 -0.1,0.2 -0.2,0.1 -0.7,0.4 -2,1.1 -1.3,0.8 -1.9,1.1 -2,1.2 -0.1,0 -0.1,0 -0.2,0 L 79.3,45 c 0,-0.1 0,-0.1 0.1,-0.1 l 0.8,-0.4 c 0.3,-0.2 0.5,-0.4 0.4,-0.8 -0.1,-0.2 -1.8,-3.2 -2.2,-4 z"
   id="path152" />
		<path
   d="m 83.1,35.5 c -0.2,-0.3 -1.7,-2.8 -1.8,-3 -0.2,-0.3 -0.4,-0.4 -1,-0.1 l -0.8,0.5 c -0.1,0 -0.1,0 -0.2,0 l -0.2,-0.4 c 0,-0.1 0,-0.1 0,-0.1 0.2,-0.1 0.9,-0.5 2.2,-1.2 1.2,-0.7 1.7,-1 1.8,-1.1 0.1,0 0.1,0 0.2,0 l 0.2,0.3 c 0,0.1 0,0.1 -0.1,0.2 L 82.9,31 c -0.3,0.2 -0.4,0.4 -0.3,0.7 0.1,0.1 1.8,3.2 1.9,3.4 l 0.6,1.1 c 0.1,0.1 2,3.3 2.1,3.5 0.2,0.4 0.5,0.4 0.9,0.1 l 0.6,-0.3 c 0.1,0 0.1,0 0.2,0 l 0.2,0.4 c 0,0.1 0,0.1 -0.1,0.2 -0.2,0.1 -0.7,0.4 -2,1.1 -1.3,0.8 -1.9,1.1 -2,1.2 -0.1,0 -0.1,0 -0.2,0 L 84.6,42 c 0,-0.1 0,-0.1 0.1,-0.1 l 0.8,-0.4 c 0.3,-0.2 0.5,-0.4 0.4,-0.8 -0.1,-0.2 -1.8,-3.2 -2.2,-4 z"
   id="path154" />
	</g>
	<g
   id="g164">
		<path
   d="m 49.3,78.4 c 0.1,0 0.1,0.1 0.1,0.2 -0.1,0.1 -0.4,0.7 -1.1,1.8 -0.5,0.8 -0.8,1.4 -0.8,1.5 0,0.1 -0.1,0.1 -0.2,0 L 47,81.7 c -0.1,0 -0.1,-0.1 0,-0.1 l 0.3,-0.5 c 0.1,-0.2 0.1,-0.6 0.1,-1 -0.3,-1.3 -1.8,-4.3 -2.2,-5.5 -1,0.1 -5.3,0.4 -5.8,0.5 -0.2,0.1 -0.4,0.2 -0.6,0.5 l -0.4,0.6 c 0,0.1 -0.1,0 -0.2,0 L 37.9,76 c -0.1,0 -0.1,-0.1 -0.1,-0.1 0.1,-0.1 0.5,-0.8 1.2,-1.9 0.8,-1.4 1.1,-2 1.2,-2.1 0.1,-0.1 0.1,-0.1 0.2,-0.1 l 0.3,0.2 c 0.1,0 0.1,0.1 0.1,0.2 l -0.3,0.5 c -0.4,0.6 0,0.8 0.4,0.8 0.3,0 3.2,0 3.8,-0.1 -0.3,-0.7 -1.5,-3.5 -1.7,-3.8 -0.2,-0.3 -0.5,-0.4 -0.7,0 L 42,69.7 c 0,0.1 -0.1,0.1 -0.2,0 l -0.3,-0.2 c -0.1,0 -0.1,-0.1 0,-0.2 0.1,-0.2 0.5,-0.7 0.9,-1.5 0.4,-0.8 0.7,-1.3 0.8,-1.4 0.1,-0.1 0.1,-0.1 0.2,-0.1 l 0.3,0.2 c 0.1,0.1 0.1,0.1 0.1,0.2 l -0.3,0.6 c -0.2,0.3 -0.2,0.5 -0.2,0.7 0,0.4 1.6,4.2 2,5.1 0.4,0 6.1,-0.3 6.3,-0.4 0.5,-0.2 0.8,-0.4 0.9,-0.7 l 0.3,-0.5 c 0.1,-0.1 0.1,-0.1 0.2,-0.1 l 0.3,0.2 c 0.1,0 0.1,0.1 0,0.2 -0.1,0.1 -0.4,0.6 -1.1,1.7 -0.6,1.1 -1,1.9 -1.1,2 -0.1,0.1 -0.1,0.1 -0.2,0.1 l -0.3,-0.2 c -0.1,0 -0.1,-0.1 0,-0.1 l 0.3,-0.5 c 0.2,-0.3 0.2,-0.5 -0.1,-0.5 -0.3,0 -4.5,0.1 -5,0.1 0.5,1 1.9,4 2.1,4.2 0.3,0.4 0.6,0.4 0.8,0.1 L 49,78.2 c 0.1,-0.1 0.1,-0.1 0.1,-0.1 z"
   id="path158" />
		<path
   d="M 48.4,66.6 C 48.1,66.4 45.5,65 45.3,64.9 45,64.7 44.7,64.8 44.4,65.3 L 44,66.2 c 0,0.1 -0.1,0.1 -0.1,0.1 L 43.5,66 c -0.1,0 -0.1,-0.1 0,-0.1 0.1,-0.2 0.5,-0.8 1.3,-2.1 0.7,-1.2 0.9,-1.7 1,-1.9 0,-0.1 0.1,-0.1 0.2,0 l 0.3,0.2 c 0.1,0 0.1,0.1 0,0.2 L 46,62.8 c -0.2,0.3 -0.2,0.5 0.1,0.7 0.1,0.1 3.2,1.9 3.3,2 l 1.1,0.6 c 0.1,0.1 3.4,1.9 3.5,2 0.4,0.2 0.6,0.1 0.9,-0.4 l 0.3,-0.6 C 55.2,67 55.3,67 55.4,67 l 0.4,0.2 c 0.1,0 0.1,0.1 0,0.2 -0.1,0.2 -0.5,0.7 -1.2,1.9 -0.8,1.3 -1.1,1.9 -1.2,2.1 0,0.1 -0.1,0.1 -0.1,0.1 l -0.4,-0.2 c -0.1,0 -0.1,-0.1 0,-0.2 l 0.4,-0.8 c 0.2,-0.3 0.3,-0.6 0,-0.9 -0.2,-0.1 -3.2,-1.9 -3.9,-2.3 z"
   id="path160" />
		<path
   d="m 51.5,61.4 c -0.3,-0.2 -2.9,-1.6 -3.1,-1.7 -0.3,-0.2 -0.6,-0.1 -0.9,0.4 L 47,60.9 C 47,61 46.9,61 46.9,61 l -0.4,-0.2 c -0.1,0 -0.1,-0.1 0,-0.1 0.1,-0.2 0.5,-0.8 1.3,-2.1 0.7,-1.2 0.9,-1.7 1,-1.9 0,-0.1 0.1,-0.1 0.2,0 l 0.3,0.2 c 0.1,0 0.1,0.1 0,0.2 L 49,57.5 c -0.2,0.3 -0.2,0.5 0.1,0.7 0.1,0.1 3.2,1.9 3.3,2 l 1.1,0.6 c 0.1,0.1 3.4,1.9 3.5,2 0.4,0.2 0.6,0.1 0.9,-0.4 l 0.3,-0.6 c 0,-0.1 0.1,-0.1 0.2,-0.1 l 0.4,0.2 c 0.1,0 0.1,0.1 0,0.2 -0.1,0.2 -0.5,0.7 -1.2,1.9 -0.8,1.3 -1.1,1.9 -1.2,2.1 0,0.1 -0.1,0.1 -0.1,0.1 L 56,66 c -0.1,0 -0.1,-0.1 0,-0.2 L 56.4,65 c 0.2,-0.3 0.3,-0.6 0,-0.9 -0.2,-0.1 -3.2,-1.9 -3.9,-2.3 z"
   id="path162" />
	</g>
	<g
   id="g170">
		<path
   d="m 37,113.7 c -0.4,0 -3.3,0 -3.5,0.1 -0.4,0 -0.5,0.2 -0.5,0.8 v 0.9 c 0,0.1 0,0.1 -0.1,0.1 h -0.4 c -0.1,0 -0.1,0 -0.1,-0.1 0,-0.2 0,-1 0,-2.5 0,-1.4 0,-1.9 0,-2.2 0,-0.1 0,-0.1 0.1,-0.1 h 0.4 c 0.1,0 0.1,0 0.1,0.1 v 0.8 c 0,0.3 0.1,0.6 0.4,0.6 0.2,0 3.7,0 3.9,0 h 1.2 c 0.2,0 3.9,0 4,0 0.5,0 0.6,-0.2 0.6,-0.8 v -0.7 c 0,-0.1 0,-0.1 0.1,-0.1 h 0.4 c 0.1,0 0.1,0 0.1,0.1 0,0.2 0,0.8 0,2.2 0,1.5 0,2.2 0,2.4 0,0.1 0,0.1 -0.1,0.1 h -0.4 c -0.1,0 -0.1,0 -0.1,-0.1 v -0.9 c 0,-0.3 0,-0.7 -0.5,-0.7 -0.2,0 -3.7,-0.1 -4.5,-0.1 H 37 Z"
   id="path166" />
		<path
   d="m 43.6,106.4 c 0.1,0 0.1,0 0.1,0.1 0,0.2 0,0.8 0,2.1 0,0.9 0,1.6 0,1.7 0,0.1 -0.1,0.1 -0.1,0.1 h -0.4 c -0.1,0 -0.1,0 -0.1,-0.1 v -0.6 c 0,-0.3 -0.2,-0.6 -0.5,-0.9 -0.9,-1 -3.7,-2.8 -4.7,-3.6 -0.8,0.6 -4.4,3 -4.8,3.3 -0.1,0.1 -0.2,0.4 -0.2,0.7 v 0.7 c 0,0.1 -0.1,0.1 -0.1,0.1 h -0.4 c -0.1,0 -0.1,0 -0.1,-0.1 0,-0.2 0,-0.9 0,-2.3 0,-1.6 0,-2.3 0,-2.4 0,-0.1 0.1,-0.1 0.1,-0.1 h 0.4 c 0.1,0 0.1,0 0.1,0.1 v 0.6 c 0,0.7 0.4,0.7 0.8,0.5 0.2,-0.1 2.7,-1.6 3.2,-2 -0.6,-0.4 -3,-2.3 -3.3,-2.4 -0.3,-0.2 -0.7,-0.1 -0.7,0.3 v 0.3 c 0,0.1 -0.1,0.1 -0.1,0.1 h -0.4 c -0.1,0 -0.1,0 -0.1,-0.1 0,-0.2 0,-0.8 0,-1.7 0,-0.9 0,-1.5 0,-1.6 0,-0.1 0.1,-0.1 0.1,-0.1 h 0.4 c 0.1,0 0.1,0 0.1,0.1 v 0.7 c 0,0.4 0.1,0.5 0.2,0.7 0.2,0.3 3.5,2.8 4.3,3.5 0.3,-0.2 5.1,-3.3 5.3,-3.5 0.3,-0.4 0.4,-0.8 0.4,-1.1 V 99 c 0,-0.1 0,-0.1 0.1,-0.1 h 0.4 c 0.1,0 0.1,0 0.1,0.1 0,0.1 0,0.7 0,2 0,1.3 0,2.1 0,2.3 0,0.1 0,0.1 -0.1,0.1 h -0.4 c -0.1,0 -0.1,0 -0.1,-0.1 v -0.6 c 0,-0.3 -0.1,-0.5 -0.3,-0.4 -0.2,0.1 -3.8,2.3 -4.3,2.6 0.9,0.6 3.6,2.5 3.9,2.6 0.4,0.2 0.7,0.1 0.7,-0.3 v -0.6 c 0,-0.1 0,-0.1 0.1,-0.1 h 0.4 z"
   id="path168" />
	</g>
	<g
   id="g180">
		<path
   d="m 44.1,131.1 c 0.1,0 0.1,0 0.2,0 0.1,0.1 0.3,0.6 0.9,1.7 0.7,1.2 1.1,1.8 1.1,1.9 0.1,0.1 0,0.2 0,0.2 l -0.3,0.2 c -0.1,0 -0.1,0.1 -0.2,0 l -0.4,-0.7 c -0.2,-0.4 -0.5,-0.5 -0.7,-0.4 -0.1,0.1 -0.3,0.2 -0.4,0.3 -0.5,0.4 -1.8,1.8 -2.4,2.5 -0.4,0.5 -2.4,2.7 -3,3.5 v 0 c 0.8,-0.1 4.3,-0.7 4.7,-0.7 0.5,-0.1 2.4,-0.5 3.1,-0.6 0.4,-0.1 0.7,-0.2 0.9,-0.3 0.2,-0.1 0.3,-0.3 0.1,-0.6 l -0.2,-0.4 c 0,-0.1 0,-0.1 0.1,-0.1 l 0.3,-0.2 c 0.1,0 0.1,0 0.1,0 0.1,0.1 0.4,0.8 0.9,1.7 0.6,1 0.8,1.3 0.9,1.5 0,0.1 0,0.1 0,0.2 l -0.3,0.2 c -0.1,0 -0.1,0 -0.2,0 l -0.2,-0.4 c -0.3,-0.5 -0.6,-0.6 -1.1,-0.7 -0.7,-0.1 -4.1,0.4 -4.9,0.5 -0.6,0.1 -6,0.9 -6.2,0.9 -0.1,0 -0.3,0 -0.3,-0.1 -0.1,-0.1 0,-0.2 0.2,-0.4 1,-1.2 3.5,-4.1 3.9,-4.6 l 0.4,-0.4 c 0.8,-0.9 2.4,-2.7 2.7,-3.1 0.2,-0.3 0.3,-0.5 0.1,-0.8 l -0.2,-0.4 c 0,-0.1 0,-0.1 0.1,-0.1 z"
   id="path172" />
		<path
   d="m 46.7,144.7 c 0.3,-0.2 2.8,-1.7 3,-1.8 0.3,-0.2 0.4,-0.4 0.1,-1 l -0.5,-0.8 c 0,-0.1 0,-0.1 0,-0.2 l 0.4,-0.2 c 0.1,0 0.1,0 0.1,0 0.1,0.2 0.5,0.9 1.2,2.2 0.7,1.2 1,1.7 1.1,1.8 0,0.1 0,0.1 0,0.2 l -0.3,0.2 c -0.1,0 -0.1,0 -0.2,-0.1 l -0.4,-0.7 C 51,144 50.8,143.9 50.5,144 c -0.1,0.1 -3.2,1.8 -3.4,1.9 l -1.1,0.6 c -0.1,0.1 -3.3,2 -3.5,2.1 -0.4,0.2 -0.4,0.5 -0.1,0.9 l 0.3,0.6 c 0,0.1 0,0.1 0,0.2 l -0.4,0.2 c -0.1,0 -0.1,0 -0.2,-0.1 -0.1,-0.2 -0.4,-0.7 -1.1,-2 -0.8,-1.3 -1.1,-1.9 -1.2,-2 0,-0.1 0,-0.1 0,-0.2 l 0.4,-0.2 c 0.1,0 0.1,0 0.1,0.1 l 0.4,0.8 c 0.2,0.3 0.4,0.5 0.8,0.4 0.2,-0.1 3.2,-1.8 4,-2.2 z"
   id="path174" />
		<path
   d="m 49.8,150 c 0.3,-0.2 2.8,-1.7 3,-1.8 0.3,-0.2 0.4,-0.4 0.1,-1 l -0.5,-0.8 c 0,-0.1 0,-0.1 0,-0.2 l 0.4,-0.2 c 0.1,0 0.1,0 0.1,0 0.1,0.2 0.5,0.9 1.2,2.2 0.7,1.2 1,1.7 1.1,1.8 0,0.1 0,0.1 0,0.2 l -0.3,0.2 c -0.1,0 -0.1,0 -0.2,-0.1 l -0.4,-0.7 c -0.2,-0.3 -0.4,-0.4 -0.7,-0.3 -0.1,0.1 -3.2,1.8 -3.4,1.9 l -1.1,0.6 c -0.1,0.1 -3.3,2 -3.5,2.1 -0.4,0.2 -0.4,0.5 -0.1,0.9 l 0.3,0.6 c 0,0.1 0,0.1 0,0.2 l -0.4,0.2 c -0.1,0 -0.1,0 -0.2,-0.1 -0.1,-0.2 -0.4,-0.7 -1.1,-2 -0.8,-1.3 -1.1,-1.9 -1.2,-2 0,-0.1 0,-0.1 0,-0.2 l 0.4,-0.2 c 0.1,0 0.1,0 0.1,0.1 l 0.4,0.8 c 0.2,0.3 0.4,0.5 0.8,0.4 0.2,-0.1 3.2,-1.8 4,-2.2 z"
   id="path176" />
		<path
   d="m 52.8,155.3 c 0.3,-0.2 2.8,-1.7 3,-1.8 0.3,-0.2 0.4,-0.4 0.1,-1 l -0.5,-0.8 c 0,-0.1 0,-0.1 0,-0.2 l 0.4,-0.2 c 0.1,0 0.1,0 0.1,0 0.1,0.2 0.5,0.9 1.2,2.2 0.7,1.2 1,1.7 1.1,1.8 0,0.1 0,0.1 0,0.2 l -0.3,0.2 c -0.1,0 -0.1,0 -0.2,-0.1 l -0.4,-0.7 c -0.2,-0.3 -0.4,-0.4 -0.7,-0.3 -0.1,0.1 -3.2,1.8 -3.4,1.9 l -1.1,0.6 c -0.1,0.1 -3.3,2 -3.5,2.1 -0.4,0.2 -0.4,0.5 -0.1,0.9 l 0.3,0.6 c 0,0.1 0,0.1 0,0.2 l -0.4,0.2 c -0.1,0 -0.1,0 -0.2,-0.1 -0.1,-0.2 -0.4,-0.7 -1.1,-2 -0.8,-1.3 -1.1,-1.9 -1.2,-2 0,-0.1 0,-0.1 0,-0.2 l 0.4,-0.2 c 0.1,0 0.1,0 0.1,0.1 l 0.4,0.8 c 0.2,0.3 0.4,0.5 0.8,0.4 0.2,-0.1 3.2,-1.8 4,-2.2 z"
   id="path178" />
	</g>
	<g
   id="g188">
		<path
   d="m 66.1,164.1 c 0,-0.1 0.1,-0.1 0.2,0 0.1,0.1 0.6,0.4 1.7,1 1.2,0.7 1.8,1 1.9,1.1 0.1,0.1 0.1,0.1 0.1,0.2 l -0.2,0.3 c 0,0.1 -0.1,0.1 -0.2,0.1 l -0.7,-0.4 c -0.4,-0.2 -0.7,-0.2 -0.8,0 -0.1,0.1 -0.1,0.3 -0.2,0.5 -0.2,0.5 -0.6,2.5 -0.8,3.4 -0.1,0.6 -0.7,3.5 -0.9,4.5 v 0 c 0.7,-0.5 3.4,-2.7 3.7,-3 0.4,-0.3 1.8,-1.6 2.4,-2.1 0.3,-0.3 0.5,-0.5 0.6,-0.7 0.1,-0.2 0.1,-0.4 -0.3,-0.6 l -0.4,-0.2 c -0.1,0 0,-0.1 0,-0.2 l 0.2,-0.3 c 0,-0.1 0.1,-0.1 0.1,0 0.1,0.1 0.7,0.5 1.6,1 1,0.6 1.4,0.7 1.5,0.8 0.1,0 0.1,0.1 0,0.2 l -0.2,0.3 c 0,0.1 -0.1,0.1 -0.2,0 l -0.4,-0.2 c -0.5,-0.3 -0.8,-0.2 -1.3,0 -0.6,0.2 -3.4,2.4 -3.9,2.9 -0.4,0.4 -4.8,3.7 -4.9,3.8 -0.1,0.1 -0.2,0.1 -0.3,0.1 -0.1,-0.1 -0.1,-0.2 -0.1,-0.5 0.3,-1.5 1,-5.3 1.1,-5.9 l 0.1,-0.6 c 0.2,-1.2 0.7,-3.6 0.8,-4.1 0,-0.4 0,-0.6 -0.3,-0.8 l -0.4,-0.2 c -0.1,0 0,-0.1 0,-0.1 z"
   id="path182" />
		<path
   d="m 75.1,174.6 c 0.2,-0.3 1.6,-2.9 1.7,-3.1 0.2,-0.3 0.1,-0.6 -0.4,-0.9 l -0.8,-0.5 c -0.1,0 -0.1,-0.1 -0.1,-0.1 l 0.2,-0.4 c 0,-0.1 0.1,-0.1 0.1,0 0.2,0.1 0.8,0.5 2.1,1.3 1.2,0.7 1.7,0.9 1.9,1 0.1,0 0.1,0.1 0,0.2 l -0.2,0.3 c 0,0.1 -0.1,0.1 -0.2,0 L 78.7,172 c -0.3,-0.2 -0.5,-0.2 -0.7,0.1 -0.1,0.1 -1.9,3.2 -2,3.3 l -0.6,1.1 c -0.1,0.1 -1.9,3.4 -2,3.5 -0.2,0.4 -0.1,0.6 0.4,0.9 l 0.6,0.3 c 0.1,0 0.1,0.1 0.1,0.2 l -0.2,0.4 c 0,0.1 -0.1,0.1 -0.2,0 -0.2,-0.1 -0.7,-0.5 -1.9,-1.2 -1.3,-0.8 -1.9,-1.1 -2.1,-1.2 -0.1,0 -0.1,-0.1 -0.1,-0.1 l 0.2,-0.4 c 0,-0.1 0.1,-0.1 0.2,0 l 0.8,0.4 c 0.3,0.2 0.6,0.3 0.9,0 0.1,-0.2 1.9,-3.2 2.3,-3.9 z"
   id="path184" />
		<path
   d="m 80.4,177.6 c 0.2,-0.3 1.6,-2.9 1.7,-3.1 0.2,-0.3 0.1,-0.6 -0.4,-0.9 l -0.8,-0.5 c -0.1,0 -0.1,-0.1 -0.1,-0.1 l 0.2,-0.4 c 0,-0.1 0.1,-0.1 0.1,0 0.2,0.1 0.8,0.5 2.1,1.3 1.2,0.7 1.7,0.9 1.9,1 0.1,0 0.1,0.1 0,0.2 l -0.2,0.3 c 0,0.1 -0.1,0.1 -0.2,0 L 84,175 c -0.3,-0.2 -0.5,-0.2 -0.7,0.1 -0.1,0.1 -1.9,3.2 -2,3.3 l -0.6,1.1 c -0.1,0.1 -1.9,3.4 -2,3.5 -0.2,0.4 -0.1,0.6 0.4,0.9 l 0.6,0.3 c 0.1,0 0.1,0.1 0.1,0.2 l -0.2,0.4 c 0,0.1 -0.1,0.1 -0.2,0 -0.2,-0.1 -0.7,-0.5 -1.9,-1.2 -1.3,-0.8 -1.9,-1.1 -2.1,-1.2 -0.1,0 -0.1,-0.1 -0.1,-0.1 l 0.2,-0.4 c 0,-0.1 0.1,-0.1 0.2,0 l 0.8,0.4 c 0.3,0.2 0.6,0.3 0.9,0 0.1,-0.2 1.9,-3.2 2.3,-3.9 z"
   id="path186" />
	</g>
	<g
   id="g194">
		<path
   d="m 107.5,178.9 c 0,-0.1 0,-0.1 0.1,-0.1 0.2,0 0.7,0 1.9,0 1.3,0 2.1,0 2.2,0 0.1,0 0.2,0 0.2,0.1 v 0.4 c 0,0.1 0,0.1 -0.1,0.1 H 111 c -0.4,0 -0.7,0.1 -0.7,0.4 0,0.1 0,0.3 0.1,0.5 0.1,0.6 0.7,2.5 1,3.4 0.2,0.6 1.1,3.4 1.5,4.3 v 0 c 0.3,-0.8 1.6,-4 1.7,-4.4 0.2,-0.4 0.8,-2.3 1,-3 0.1,-0.4 0.2,-0.7 0.2,-0.9 0,-0.2 -0.1,-0.4 -0.5,-0.4 h -0.4 c -0.1,0 -0.1,0 -0.1,-0.1 v -0.4 c 0,-0.1 0,-0.1 0.1,-0.1 0.1,0 0.9,0 1.9,0 1.2,0 1.6,0 1.7,0 0.1,0 0.1,0 0.1,0.1 v 0.4 c 0,0.1 0,0.1 -0.1,0.1 h -0.4 c -0.5,0 -0.8,0.3 -1.1,0.6 -0.4,0.5 -1.7,3.8 -2,4.5 -0.2,0.5 -2.3,5.6 -2.3,5.8 -0.1,0.1 -0.1,0.2 -0.2,0.2 -0.1,0 -0.2,-0.2 -0.3,-0.4 -0.5,-1.5 -1.8,-5.1 -2,-5.7 l -0.2,-0.5 c -0.4,-1.1 -1.1,-3.5 -1.3,-3.9 -0.2,-0.4 -0.3,-0.5 -0.7,-0.5 h -0.4 c -0.1,0 -0.1,0 -0.1,-0.1 z"
   id="path190" />
		<path
   d="m 120.6,183.5 c 0,-0.4 0,-3.3 -0.1,-3.5 0,-0.4 -0.2,-0.5 -0.8,-0.5 h -0.9 c -0.1,0 -0.1,0 -0.1,-0.1 V 179 c 0,-0.1 0,-0.1 0.1,-0.1 0.2,0 1,0 2.5,0 1.4,0 1.9,0 2.2,0 0.1,0 0.1,0 0.1,0.1 v 0.4 c 0,0.1 0,0.1 -0.1,0.1 h -0.8 c -0.3,0 -0.6,0.1 -0.6,0.4 0,0.2 0,3.7 0,3.9 v 1.2 c 0,0.2 0,3.9 0,4 0,0.5 0.2,0.6 0.8,0.6 h 0.7 c 0.1,0 0.1,0 0.1,0.1 v 0.4 c 0,0.1 0,0.1 -0.1,0.1 -0.2,0 -0.8,0 -2.2,0 -1.5,0 -2.2,0 -2.4,0 -0.1,0 -0.1,0 -0.1,-0.1 v -0.4 c 0,-0.1 0,-0.1 0.1,-0.1 h 0.9 c 0.3,0 0.7,0 0.7,-0.5 0,-0.2 0.1,-3.7 0.1,-4.5 v -1.1 z"
   id="path192" />
	</g>
	<g
   id="g198">
		<path
   d="m 148.3,173.8 c 0,-0.1 0,-0.1 0,-0.2 0.1,-0.1 0.6,-0.3 1.7,-0.9 1.2,-0.7 1.8,-1.1 1.9,-1.1 0.1,-0.1 0.2,0 0.2,0 l 0.2,0.3 c 0,0.1 0.1,0.1 0,0.2 l -0.7,0.4 c -0.4,0.2 -0.5,0.5 -0.4,0.7 0.1,0.1 0.2,0.3 0.3,0.4 0.4,0.5 1.8,1.8 2.5,2.4 0.5,0.4 2.7,2.4 3.5,3 v 0 c -0.1,-0.8 -0.7,-4.3 -0.7,-4.7 -0.1,-0.5 -0.5,-2.4 -0.6,-3.1 -0.1,-0.4 -0.1,-0.7 -0.3,-0.9 -0.1,-0.2 -0.3,-0.3 -0.6,-0.1 l -0.4,0.2 c -0.1,0 -0.1,0 -0.1,-0.1 l -0.2,-0.3 c 0,-0.1 0,-0.1 0,-0.1 0.1,-0.1 0.8,-0.4 1.7,-0.9 1,-0.6 1.3,-0.8 1.5,-0.9 0.1,0 0.1,0 0.2,0 l 0.2,0.3 c 0,0.1 0,0.1 0,0.2 l -0.4,0.2 c -0.5,0.3 -0.6,0.6 -0.7,1.1 -0.1,0.7 0.4,4.1 0.5,4.9 0.1,0.6 0.9,6 0.9,6.2 0,0.1 0,0.3 -0.1,0.3 -0.1,0.1 -0.2,0 -0.4,-0.2 -1.2,-1 -4.1,-3.5 -4.6,-3.9 l -0.4,-0.4 c -0.9,-0.8 -2.7,-2.4 -3.1,-2.7 -0.3,-0.2 -0.5,-0.3 -0.8,-0.1 l -0.4,0.2 c -0.1,0 -0.1,0 -0.1,-0.1 z"
   id="path196" />
	</g>
	<g
   id="g204">
		<path
   d="m 180.9,151.7 c -0.3,-0.2 -2.9,-1.6 -3.1,-1.7 -0.3,-0.2 -0.6,-0.1 -0.9,0.4 l -0.5,0.8 c 0,0.1 -0.1,0.1 -0.1,0.1 l -0.4,-0.2 c -0.1,0 -0.1,-0.1 0,-0.1 0.1,-0.2 0.5,-0.8 1.3,-2.1 0.7,-1.2 0.9,-1.7 1,-1.9 0,-0.1 0.1,-0.1 0.2,0 l 0.3,0.2 c 0.1,0 0.1,0.1 0,0.2 l -0.4,0.7 c -0.2,0.3 -0.2,0.5 0.1,0.7 0.1,0.1 3.2,1.9 3.3,2 l 1.1,0.6 c 0.1,0.1 3.4,1.9 3.5,2 0.4,0.2 0.6,0.1 0.9,-0.4 l 0.3,-0.6 c 0,-0.1 0.1,-0.1 0.2,-0.1 l 0.4,0.2 c 0.1,0 0.1,0.1 0,0.2 -0.1,0.2 -0.5,0.7 -1.2,1.9 -0.8,1.3 -1.1,1.9 -1.2,2.1 0,0.1 -0.1,0.1 -0.1,0.1 l -0.4,-0.2 c -0.1,0 -0.1,-0.1 0,-0.2 l 0.4,-0.8 c 0.2,-0.3 0.3,-0.6 0,-0.9 -0.2,-0.1 -3.2,-1.9 -3.9,-2.3 z"
   id="path200" />
		<path
   d="m 179,145.9 c -0.1,0 -0.1,-0.1 0,-0.2 0.1,-0.1 0.4,-0.6 1,-1.7 0.7,-1.2 1,-1.8 1.1,-1.9 0.1,-0.1 0.1,-0.1 0.2,-0.1 l 0.3,0.2 c 0.1,0 0.1,0.1 0.1,0.2 l -0.4,0.7 c -0.2,0.4 -0.2,0.7 0,0.8 0.1,0.1 0.3,0.1 0.5,0.2 0.5,0.2 2.5,0.6 3.4,0.8 0.6,0.1 3.5,0.7 4.5,0.9 v 0 c -0.5,-0.7 -2.7,-3.4 -3,-3.7 -0.3,-0.4 -1.6,-1.8 -2.1,-2.4 -0.3,-0.3 -0.5,-0.5 -0.7,-0.7 -0.2,-0.1 -0.4,-0.1 -0.6,0.3 l -0.2,0.4 c 0,0.1 -0.1,0 -0.2,0 l -0.3,-0.2 c -0.1,0 -0.1,-0.1 0,-0.1 0.1,-0.1 0.5,-0.7 1,-1.6 0.6,-1 0.7,-1.4 0.8,-1.5 0,-0.1 0.1,-0.1 0.2,0 l 0.3,0.2 c 0.1,0 0.1,0.1 0,0.2 l -0.2,0.4 c -0.3,0.5 -0.2,0.8 0,1.3 0.2,0.6 2.4,3.4 2.9,3.9 0.4,0.4 3.7,4.8 3.8,4.9 0.1,0.1 0.1,0.2 0.1,0.3 -0.1,0.1 -0.2,0.1 -0.5,0.1 -1.5,-0.3 -5.3,-1 -5.9,-1.1 l -0.6,-0.1 c -1.2,-0.2 -3.6,-0.7 -4.1,-0.8 -0.4,0 -0.6,0 -0.8,0.3 l -0.2,0.4 c 0,0.1 -0.1,0 -0.1,0 z"
   id="path202" />
	</g>
	<g
   id="g212">
		<path
   d="m 193.9,100.6 c 0.4,0 3.3,0 3.5,-0.1 0.4,0 0.5,-0.2 0.5,-0.8 v -0.9 c 0,-0.1 0,-0.1 0.1,-0.1 h 0.4 c 0.1,0 0.1,0 0.1,0.1 0,0.2 0,1 0,2.5 0,1.4 0,1.9 0,2.2 0,0.1 0,0.1 -0.1,0.1 H 198 c -0.1,0 -0.1,0 -0.1,-0.1 v -0.8 c 0,-0.3 -0.1,-0.6 -0.4,-0.6 -0.2,0 -3.7,0 -3.9,0 h -1.2 c -0.2,0 -3.9,0 -4,0 -0.5,0 -0.6,0.2 -0.6,0.8 v 0.7 c 0,0.1 0,0.1 -0.1,0.1 h -0.4 c -0.1,0 -0.1,0 -0.1,-0.1 0,-0.2 0,-0.8 0,-2.2 0,-1.5 0,-2.2 0,-2.4 0,-0.1 0,-0.1 0.1,-0.1 h 0.4 c 0.1,0 0.1,0 0.1,0.1 v 0.9 c 0,0.3 0,0.7 0.5,0.7 0.2,0 3.7,0.1 4.5,0.1 h 1.1 z"
   id="path206" />
		<path
   d="m 193.9,106.7 c 0.4,0 3.3,0 3.5,-0.1 0.4,0 0.5,-0.2 0.5,-0.8 v -0.9 c 0,-0.1 0,-0.1 0.1,-0.1 h 0.4 c 0.1,0 0.1,0 0.1,0.1 0,0.2 0,1 0,2.5 0,1.4 0,1.9 0,2.2 0,0.1 0,0.1 -0.1,0.1 H 198 c -0.1,0 -0.1,0 -0.1,-0.1 v -0.8 c 0,-0.3 -0.1,-0.6 -0.4,-0.6 -0.2,0 -3.7,0 -3.9,0 h -1.2 c -0.2,0 -3.9,0 -4,0 -0.5,0 -0.6,0.2 -0.6,0.8 v 0.7 c 0,0.1 0,0.1 -0.1,0.1 h -0.4 c -0.1,0 -0.1,0 -0.1,-0.1 0,-0.2 0,-0.8 0,-2.2 0,-1.5 0,-2.2 0,-2.4 0,-0.1 0,-0.1 0.1,-0.1 h 0.4 c 0.1,0 0.1,0 0.1,0.1 v 0.9 c 0,0.3 0,0.7 0.5,0.7 0.2,0 3.7,0.1 4.5,0.1 h 1.1 z"
   id="path208" />
		<path
   d="m 193.9,112.8 c 0.4,0 3.3,0 3.5,-0.1 0.4,0 0.5,-0.2 0.5,-0.8 V 111 c 0,-0.1 0,-0.1 0.1,-0.1 h 0.4 c 0.1,0 0.1,0 0.1,0.1 0,0.2 0,1 0,2.5 0,1.4 0,1.9 0,2.2 0,0.1 0,0.1 -0.1,0.1 H 198 c -0.1,0 -0.1,0 -0.1,-0.1 v -0.8 c 0,-0.3 -0.1,-0.6 -0.4,-0.6 -0.2,0 -3.7,0 -3.9,0 h -1.2 c -0.2,0 -3.9,0 -4,0 -0.5,0 -0.6,0.2 -0.6,0.8 v 0.7 c 0,0.1 0,0.1 -0.1,0.1 h -0.4 c -0.1,0 -0.1,0 -0.1,-0.1 0,-0.2 0,-0.8 0,-2.2 0,-1.5 0,-2.2 0,-2.4 0,-0.1 0,-0.1 0.1,-0.1 h 0.4 c 0.1,0 0.1,0 0.1,0.1 v 0.9 c 0,0.3 0,0.7 0.5,0.7 0.2,0 3.7,0.1 4.5,0.1 h 1.1 z"
   id="path210" />
	</g>
	<g
   id="g218">
		<path
   d="m 181.5,64.9 c 0.3,-0.2 2.8,-1.7 3,-1.8 0.3,-0.2 0.4,-0.4 0.1,-1 l -0.5,-0.8 c 0,-0.1 0,-0.1 0,-0.2 l 0.4,-0.2 c 0.1,0 0.1,0 0.1,0 0.1,0.2 0.5,0.9 1.2,2.2 0.7,1.2 1,1.7 1.1,1.8 0,0.1 0,0.1 0,0.2 l -0.3,0.2 c -0.1,0 -0.1,0 -0.2,-0.1 L 186,64.5 c -0.2,-0.3 -0.4,-0.4 -0.7,-0.3 -0.1,0.1 -3.2,1.8 -3.4,1.9 l -1.1,0.6 c -0.1,0.1 -3.3,2 -3.5,2.1 -0.4,0.2 -0.4,0.5 -0.1,0.9 l 0.3,0.6 c 0,0.1 0,0.1 0,0.2 l -0.4,0.2 c -0.1,0 -0.1,0 -0.2,-0.1 -0.1,-0.2 -0.4,-0.7 -1.1,-2 -0.8,-1.3 -1.1,-1.9 -1.2,-2 0,-0.1 0,-0.1 0,-0.2 l 0.4,-0.2 c 0.1,0 0.1,0 0.1,0.1 l 0.4,0.8 c 0.2,0.3 0.4,0.5 0.8,0.4 0.2,-0.1 3.2,-1.8 4,-2.2 z"
   id="path214" />
		<path
   d="m 184.6,70.2 c 0.3,-0.2 2.8,-1.7 3,-1.8 0.3,-0.2 0.4,-0.4 0.1,-1 l -0.5,-0.8 c 0,-0.1 0,-0.1 0,-0.2 l 0.4,-0.2 c 0.1,0 0.1,0 0.1,0 0.1,0.2 0.5,0.9 1.2,2.2 0.7,1.2 1,1.7 1.1,1.8 0,0.1 0,0.1 0,0.2 l -0.3,0.2 c -0.1,0 -0.1,0 -0.2,-0.1 l -0.4,-0.7 c -0.2,-0.3 -0.4,-0.4 -0.7,-0.3 -0.1,0.1 -3.2,1.8 -3.4,1.9 l -1.1,0.6 c -0.1,0.1 -3.3,2 -3.5,2.1 -0.4,0.2 -0.4,0.5 -0.1,0.9 l 0.3,0.6 c 0,0.1 0,0.1 0,0.2 l -0.4,0.2 c -0.1,0 -0.1,0 -0.2,-0.1 -0.1,-0.2 -0.4,-0.7 -1.1,-2 -0.8,-1.3 -1.1,-1.9 -1.2,-2 0,-0.1 0,-0.1 0,-0.2 l 0.4,-0.2 c 0.1,0 0.1,0 0.1,0.1 l 0.4,0.8 c 0.2,0.3 0.4,0.5 0.8,0.4 0.2,-0.1 3.2,-1.8 4,-2.2 z"
   id="path216" />
	</g>
	<g
   id="g222">
		<path
   d="m 154.1,39.1 c 0.2,-0.3 1.6,-2.9 1.7,-3.1 0.2,-0.3 0.1,-0.6 -0.4,-0.9 l -0.8,-0.5 c -0.1,0 -0.1,-0.1 -0.1,-0.1 l 0.2,-0.4 c 0,-0.1 0.1,-0.1 0.1,0 0.2,0.1 0.8,0.5 2.1,1.3 1.2,0.7 1.7,0.9 1.9,1 0.1,0 0.1,0.1 0,0.2 l -0.2,0.3 c 0,0.1 -0.1,0.1 -0.2,0 l -0.7,-0.4 c -0.3,-0.2 -0.5,-0.2 -0.7,0.1 -0.1,0.1 -1.9,3.2 -2,3.3 l -0.6,1.1 c -0.1,0.1 -1.9,3.4 -2,3.5 -0.2,0.4 -0.1,0.6 0.4,0.9 l 0.6,0.3 c 0.1,0 0.1,0.1 0.1,0.2 l -0.2,0.4 c 0,0.1 -0.1,0.1 -0.2,0 -0.2,-0.1 -0.7,-0.5 -1.9,-1.2 -1.3,-0.8 -1.9,-1.1 -2.1,-1.2 -0.1,0 -0.1,-0.1 -0.1,-0.1 l 0.2,-0.4 c 0,-0.1 0.1,-0.1 0.2,0 l 0.8,0.4 c 0.3,0.2 0.6,0.3 0.9,0 0.1,-0.2 1.9,-3.2 2.3,-3.9 z"
   id="path220" />
	</g>
	<path
   class="st3"
   d="m 115.5,111.4 c -2.2,0 -4,-1.8 -4,-4 0,-2.2 1.8,-4 4,-4 2.2,0 4,1.8 4,4 0,2.2 -1.8,4 -4,4 z m 0,-2 c 1.1,0 2,-0.9 2,-2 0,-1.1 -0.9,-2 -2,-2 -1.1,0 -2,0.9 -2,2 0,1.1 0.9,2 2,2 z"
   id="path224" />
	<path
   class="st3"
   d="m 145.7,92.2 c 0.1,-0.1 0.2,-0.2 0.2,-0.4 0,0 0.1,-0.1 0.1,-0.1 0.2,0 0.4,0 0.4,-0.2 0.1,-0.2 0.1,-0.3 0,-0.5 0,0 0,-0.1 0,-0.1 0.2,0 0.3,-0.2 0.3,-0.4 0,-0.2 -0.1,-0.3 -0.3,-0.4 0,0 0,0 0,0 1.7,0.3 4.5,0.8 7.5,-5 -6.5,-0.3 -7.5,2.1 -8,3.7 0,0 -0.1,-0.1 -0.1,-0.1 -0.2,-0.1 -0.5,0 -0.6,0.2 0,0 0,0 0,0 0,0 0,0 0,0 0,0 0,0 0,-0.1 0,-0.2 -0.2,-0.4 -0.4,-0.4 -0.2,0 -0.4,0.2 -0.4,0.4 0,0 0,0 0,0 0,0 0,0 0,0 0,0 0,-0.1 0,-0.1 -0.1,-0.2 -0.4,-0.3 -0.6,-0.2 -0.2,0.1 -0.3,0.4 -0.2,0.6 0,0 0,0 0,0 0,0 0,0 0,0 0,0 0,0 -0.1,-0.1 -0.2,-0.1 -0.5,0 -0.6,0.2 -0.1,0.2 0,0.5 0.2,0.6 0,0 0,0 0,0 0,0 0,0 0,0 0,0 0,0 -0.1,0 -0.2,0 -0.4,0.2 -0.4,0.4 0,0.2 0.2,0.4 0.4,0.4 0,0 0,0 0,0 0,0 0,0 0,0 -0.1,0.1 -0.2,0.2 -0.2,0.3 -11.2,3.4 -21.3,10.7 -25.1,14.8 -0.4,0.2 -0.7,0.4 -0.7,0.4 0.1,0 0.3,-0.1 0.4,-0.1 -0.1,0.1 -0.2,0.2 -0.3,0.3 0,0 0.2,-0.1 0.7,-0.4 5.6,-1.3 17,-6.4 25.6,-14.5 0,0 0,0 0,0 -0.1,0.2 0,0.4 0.2,0.5 0.2,0.1 0.3,0.1 0.5,0 0,0 0.1,0 0.1,0 0,0.2 0.2,0.3 0.4,0.3 0.2,0 0.3,-0.1 0.4,-0.2 0,0 0.1,0 0.1,0 0.3,0.3 0.5,0.3 0.6,0.2 z"
   id="path226" />
	<path
   class="st3"
   d="m 67.043085,104.64229 c -0.282843,0 -0.424264,0.14142 -0.565686,0.28284 -0.07071,0.0707 -0.141421,0 -0.212132,0.0707 -0.141421,-0.14142 -0.494974,-0.21213 -0.636396,-0.0707 -0.212132,0.0707 -0.353553,0.35355 -0.282842,0.56568 -0.07071,0.0707 -0.07071,0.0707 -0.141422,0.14142 -0.212132,-0.0707 -0.565685,0 -0.636396,0.21214 -0.141421,0.14142 -0.07071,0.49497 0.07071,0.63639 0,0 0,0 0,0 -1.909189,-1.3435 -5.16188,-3.60624 -13.081476,0.6364 7.919596,4.24264 10.960155,2.33345 12.798633,0.91924 0,0 0,0.14142 0.07071,0.21213 0.141421,0.28284 0.565685,0.28284 0.848528,0.14142 0,0 0,0 0,0 0,0 0,0 0,0 0,0 0,0 -0.07071,0.0707 -0.141421,0.28285 -0.07071,0.49498 0.212132,0.6364 0.282843,0.14142 0.636396,0.0707 0.848528,-0.14142 0,0 0,0 0,0 0,0 0,0 0,0 0,0 -0.07071,0.0707 0,0.14142 0,0.28284 0.212132,0.49497 0.636396,0.49497 0.282843,0 0.636397,-0.21213 0.636397,-0.49497 0,0 0,0 0,0 0,0 0,0 0,0 0,0 0.07071,0.0707 0.07071,0.0707 0.141422,0.28284 0.565686,0.28284 0.848528,0.14142 0.282843,-0.14142 0.424264,-0.42426 0.212132,-0.6364 0,0 0,0 0,0 0,0 0,0 0,0 0,0 0.07071,0.0707 0.07071,0.0707 0.282843,0.14142 0.636396,0.0707 0.848528,-0.14142 0.212132,-0.21213 0.07071,-0.49497 -0.212132,-0.63639 0,0 0,0 0,0 0,0 0,0 0,0 0.141422,0 0.353554,-0.0707 0.494975,-0.21214 16.546299,3.2527 34.64823,1.69706 42.49712,-0.35355 0.7071,0 1.13137,0 1.13137,0 -0.21214,-0.0707 -0.35356,-0.0707 -0.56569,-0.14142 0.21213,-0.0707 0.35355,-0.0707 0.56569,-0.14142 0,0 -0.42427,0 -1.13137,0 -7.9196,-1.9799 -26.162953,-3.53554 -42.850673,-0.28284 0,0 0,0 0,0 0.282842,-0.14143 0.282842,-0.42427 0.212132,-0.6364 -0.141422,-0.14142 -0.424264,-0.28284 -0.636397,-0.21213 0,0 -0.07071,-0.0707 -0.07071,-0.0707 0.07071,-0.21214 0,-0.42427 -0.282843,-0.56569 -0.212132,-0.0707 -0.494975,-0.0707 -0.636396,0.0707 -0.07071,-0.0707 -0.141421,0 -0.212132,-0.0707 -0.353553,-0.6364 -0.565685,-0.70711 -0.848528,-0.70711 z"
   id="path228" />
<g
   id="g468"
   transform="matrix(0.2,0,0,0.2,19.873997,-48.738)"><path
     id="path3584"
     style="fill:url(#linearGradient2077);fill-opacity:1;stroke:#000000;stroke-width:4;stroke-linecap:round;stroke-linejoin:round"
     d="m 562.13,467.85 c -1.39,78.87 -54.33,113.15 -55.2,79.85 -1.08,-42.12 -19.22,-151.36 -90.42,-117.86 -85.15,40.06 -8.39,284.07 -33.04,284.07 -98.62,0 -178.66,-110.23 -178.66,-246.06 0,-135.82 80.04,-246.05 178.66,-246.05 98.62,0 181.02,111.96 178.66,246.05 z" /><path
     id="path3604"
     style="fill:#000000;fill-opacity:0.31373"
     d="m 513.88,299.06 c 22.87,41.39 34.22,93.29 35.24,147.78 0.95,50.34 -12.76,97.88 -38.18,111.35 11.87,3.8 49.8,-11.48 51.18,-90.35 1.15,-64.81 -17.52,-124.45 -48.24,-168.78 z m -86.1,103.5 c -7.31,0.14 -15.38,2.1 -24.28,6.28 -85.15,40.06 -8.38,284.07 -33.03,284.07 -50.79,0 -96.65,-29.24 -129.19,-76.16 32.65,59.02 84.2,97.16 142.19,97.16 24.65,0 -52.12,-244.01 33.03,-284.07 26.4,-12.41 45.51,-5.21 59.16,10.91 -10.18,-21.96 -25.48,-38.61 -47.88,-38.19 z" /><path
     id="path2385"
     style="fill:url(#linearGradient2083);fill-opacity:1;stroke:#000000;stroke-width:2.9774;stroke-linecap:round;stroke-linejoin:round"
     d="m 513.69,561.96 a 121.5,121.5 0 1 1 -243,0 121.5,121.5 0 1 1 243,0 z"
     transform="matrix(1.3428,0,0,1.344,-220.24,-146.06)" /><path
     id="path3276"
     style="fill:#000000;fill-opacity:0.31373"
     d="m 306.4,445.94 c -17.36,0 -34.07,2.74 -49.77,7.77 14.12,-3.3 29.01,-5.08 44.4,-5.08 42.22,0 80.72,13.28 109.69,35.07 -28.28,-23.58 -64.66,-37.76 -104.32,-37.76 z m 154.51,110.72 c 2.14,8.72 3.28,17.72 3.28,26.96 0,74.52 -73.1,134.99 -163.16,134.99 -75.31,0 -138.73,-42.28 -157.49,-99.71 5,85.65 76.04,153.64 162.86,153.64 90.06,0 163.16,-73.16 163.16,-163.3 0,-18.39 -3.04,-36.08 -8.65,-52.58 z" /><path
     id="path3236"
     style="fill:#000000;fill-opacity:0.31373"
     d="m 306.4,445.94 c -27.82,0 -54.03,6.97 -76.96,19.28 10.86,37.97 42.59,73.08 80.07,73.08 36.48,0 67.57,-33.26 79.22,-70.06 -24.17,-14.17 -52.31,-22.3 -82.33,-22.3 z" /><path
     id="path3573"
     style="fill:url(#linearGradient2071);fill-opacity:1;fill-rule:evenodd;stroke:#000000;stroke-width:4;stroke-linejoin:round"
     d="m 418.19,309.92 c -19.81,0 -60.05,10.54 -67.09,37.87 -0.11,0.21 -0.32,0.97 -0.55,2.14 -12.74,-7.79 -27.72,-12.32 -43.73,-12.32 -16.72,0 -32.26,4.94 -45.35,13.36 -0.27,-1.71 -0.6,-2.91 -0.73,-3.18 -7.04,-27.33 -47.28,-37.84 -67.1,-37.85 -3.15,0 -5.76,0.27 -7.67,0.77 -10.63,1.48 -22.27,5.73 -21.42,8.05 7.8,-1.33 11.74,0.19 11.62,1.45 -0.24,2.36 -4.94,2.99 -3.43,11.5 2.85,-4.13 6.82,-5.55 9.94,-6.21 3.2,20.09 17.2,55.16 43.4,56.98 2.25,0.16 4.35,0.15 6.33,0.11 -6.18,11.72 -9.69,25.07 -9.69,39.24 0,46.47 37.67,100.32 84.1,100.32 46.42,0 84.14,-53.85 84.14,-100.32 0,-14.16 -3.52,-27.48 -9.7,-39.19 1.43,-0.01 2.94,-0.05 4.5,-0.16 26.11,-1.81 40.11,-36.68 43.37,-56.79 2.98,0.73 6.54,2.23 9.15,6.02 1.51,-8.51 -3.19,-9.14 -3.43,-11.5 -0.12,-1.26 3.82,-2.78 11.62,-1.45 0.81,-2.2 -9.58,-6.13 -19.72,-7.8 -1.93,-0.68 -4.89,-1.04 -8.56,-1.04 z" /><path
     id="path3619"
     style="fill:#000000;fill-opacity:0.31373"
     d="m 338.89,559.29 c -13.94,-13.95 -38.75,-14.66 -53.51,-1.55 -10.39,9.11 -14.53,23.1 -15.89,36.35 -0.96,9.55 -0.39,19.8 4.51,28.31 4.92,6.32 13.49,7.65 21.01,8.03 14.99,0.67 30.83,-2.95 42.81,-12.44 14.44,-12.39 17.81,-35.46 7.21,-51.27 -1.73,-2.7 -3.82,-5.19 -6.14,-7.43 z" /><path
     id="path3242"
     style="fill:#000000;fill-opacity:0.31373"
     d="m 440.04,422.84 a 49.105,49.105 0 1 1 -98.21,0 49.105,49.105 0 1 1 98.21,0 z"
     transform="matrix(0.62838,0,0,0.62894,12.882,321.6)" /><path
     id="path2383"
     style="fill:#dc9a6a;fill-opacity:1;stroke:#000000;stroke-width:4;stroke-linecap:round;stroke-linejoin:round"
     d="m 333.89,549.29 c -13.94,-13.95 -38.75,-14.66 -53.51,-1.55 -10.39,9.11 -14.53,23.1 -15.89,36.35 -0.96,9.55 -0.39,19.8 4.51,28.31 4.92,6.32 13.49,7.65 21.01,8.03 14.99,0.67 30.83,-2.95 42.81,-12.44 14.44,-12.39 17.81,-35.46 7.21,-51.27 -1.73,-2.7 -3.82,-5.19 -6.14,-7.43 z" /><path
     id="path3250"
     style="fill:#000000;fill-opacity:0.31373"
     d="m 302.45,538.52 c 2.97,0.71 5.85,1.8 8.54,3.32 2.61,1.41 5.08,3.1 7.29,5.07 13.33,11.4 16.08,32.7 6.35,47.26 -8.29,11.39 -21.46,18.52 -34.93,21.64 -5.46,1.23 -11.68,2.08 -17,0.06 4.92,3.38 11.43,4.27 17.3,4.56 14.99,0.67 30.83,-2.95 42.82,-12.44 14.44,-12.39 17.81,-35.46 7.21,-51.27 -1.73,-2.71 -3.82,-5.19 -6.14,-7.44 -8.15,-8.16 -20.03,-11.78 -31.44,-10.76 z" /><path
     id="path3239"
     style="fill:url(#linearGradient2009);fill-rule:evenodd;stroke:#000000;stroke-width:4"
     d="m 334.26,545.78 c 2.75,-8.54 16.62,-16.43 20.73,-13.46 4.11,2.98 4.43,10.06 3.7,11.11 -0.72,1.04 -8.14,-2.17 -12.82,1.7 -4.67,3.86 -7.02,7.16 -7.02,7.16 z" /><path
     id="path3263"
     style="fill:#000000;fill-opacity:0.31373;fill-rule:evenodd"
     d="m 357.82,536.03 c 0.09,0.93 -0.04,1.7 -0.29,2 -0.71,0.85 -7.82,0.02 -12.38,3.55 -4.55,3.53 -6.85,6.23 -6.85,6.23 l -3.64,-3.06 c -0.14,0.35 -0.29,0.69 -0.4,1.03 l 4.59,6.52 c 0,0 2.35,-3.31 7.02,-7.18 4.68,-3.86 12.1,-0.65 12.82,-1.7 0.5,-0.71 0.5,-4.27 -0.87,-7.39 z" /><path
     id="path3201"
     style="fill:url(#linearGradient2009);stroke:#000000;stroke-width:4;stroke-linecap:round;stroke-linejoin:round"
     d="m 337.46,545.83 c -13.69,-13.56 -36.38,-17.06 -52.34,-6.89 -3.61,1.99 -2.52,6.98 -2.48,6.9 6.03,-4.77 12.28,0.48 20.49,6.37 10.05,7.21 21.1,18.27 29.21,29.02 5.68,7.52 9.74,14.91 6.49,20.08 0.17,0.05 4.89,1.38 7.05,-3.02 10.88,-20.51 4.73,-40.21 -8.42,-52.46 z" /><path
     id="path3269"
     style="fill:#000000;fill-opacity:0.31373"
     d="m 336.38,544.32 c 4.34,11.26 3.77,21.91 -1.74,32.19 -1.25,2.34 -3.17,1.58 -4.78,1.55 0.85,1.05 1.68,2.12 2.48,3.17 5.67,7.53 9.74,14.92 6.49,20.08 0.17,0.05 4.89,1.39 7.05,-3.01 9.96,-18.8 5.59,-39.25 -9.5,-53.98 z" /><path
     id="path3159"
     style="fill:url(#linearGradient2069);stroke:#000000;stroke-width:6.3628;stroke-linecap:round;stroke-linejoin:round"
     d="m 440.04,422.84 a 49.105,49.105 0 1 1 -98.21,0 49.105,49.105 0 1 1 98.21,0 z"
     transform="matrix(0.54419,-0.31419,0.31447,0.54467,-92.27,473.78)" /><path
     id="path3244"
     style="fill:#000000;fill-opacity:0.31373"
     d="m 440.04,422.84 a 49.105,49.105 0 1 1 -98.21,0 49.105,49.105 0 1 1 98.21,0 z"
     transform="matrix(0.62838,0,0,0.62894,128.64,322.08)" /><path
     id="path3161"
     style="fill:url(#linearGradient2069);stroke:#000000;stroke-width:6.3628;stroke-linecap:round;stroke-linejoin:round"
     d="m 440.04,422.84 a 49.105,49.105 0 1 1 -98.21,0 49.105,49.105 0 1 1 98.21,0 z"
     transform="matrix(0.44433,0.44433,-0.44472,0.44472,383.65,219.51)" /><path
     id="path3163"
     style="fill:url(#linearGradient2069);stroke:#000000;stroke-width:4;stroke-linecap:round;stroke-linejoin:round"
     d="m 385.46,679.47 c -40.83,0 -73.98,33.18 -73.98,74.04 0,8.45 1.42,16.55 4.03,24.11 h 139.86 c 2.61,-7.56 4.03,-15.66 4.03,-24.11 0,-40.86 -33.11,-74.04 -73.94,-74.04 z" /><path
     id="path3165"
     style="fill:url(#linearGradient2069);stroke:#000000;stroke-width:4;stroke-linecap:round;stroke-linejoin:round"
     d="m 237.5,679.47 c -40.83,0 -73.94,33.18 -73.94,74.04 0,8.45 1.42,16.55 4.03,24.11 h 139.86 c 2.61,-7.56 4.03,-15.66 4.03,-24.11 0,-40.86 -33.15,-74.04 -73.98,-74.04 z" /><path
     id="path3177"
     style="fill:#ffffff;stroke:#000000;stroke-width:1.3742;stroke-linecap:round;stroke-linejoin:round"
     d="m 371.42,413.4 a 9.445,9.445 0 1 1 -18.89,0 9.445,9.445 0 1 1 18.89,0 z"
     transform="matrix(2.9095,0,0,2.9121,-776.76,-788.78)" /><path
     id="path3179"
     style="fill:#ffffff;stroke:#000000;stroke-width:1.3742;stroke-linecap:round;stroke-linejoin:round"
     d="m 371.42,413.4 a 9.445,9.445 0 1 1 -18.89,0 9.445,9.445 0 1 1 18.89,0 z"
     transform="matrix(2.9095,0,0,2.9121,-715.9,-788.78)" /><path
     id="path3181"
     style="fill:#000000"
     d="m 377.08,426.93 a 6.61,6.61 0 1 1 -13.22,0 6.61,6.61 0 1 1 13.22,0 z"
     transform="matrix(1.3428,0,0,1.344,-210.97,-155.37)" /><path
     id="path3183"
     style="fill:#000000"
     d="m 377.08,426.93 a 6.61,6.61 0 1 1 -13.22,0 6.61,6.61 0 1 1 13.22,0 z"
     transform="matrix(1.3428,0,0,1.344,-170.37,-155.37)" /><path
     id="path3192"
     style="fill:#000000;fill-rule:evenodd"
     d="m 292.63,467.85 c 4.48,-4.79 23.51,-5.83 27.49,0.59 3.98,6.43 -5.97,19.75 -13.75,19.15 -7.74,-0.6 -17.94,-15.27 -13.74,-19.74 z" /><path
     id="path3216"
     style="fill:#74401b;fill-opacity:1;fill-rule:evenodd;stroke:#000000;stroke-width:4;stroke-linejoin:round"
     d="m 242.58,370.21 c -2.95,-42.72 -46.91,-52.45 -49.03,-47.38 -2.11,5.08 8.03,62.19 49.03,47.38 z" /><path
     id="path3218"
     style="fill:url(#linearGradient2009);fill-opacity:1;fill-rule:evenodd;stroke:#000000;stroke-width:4;stroke-linejoin:round"
     d="m 367.86,370.21 c 2.95,-42.72 46.91,-52.45 49.03,-47.38 2.11,5.08 -8.04,62.19 -49.03,47.38 z" /><path
     id="path3220"
     style="fill:url(#linearGradient2009);stroke:#000000;stroke-width:2.9774;stroke-linecap:round;stroke-linejoin:round"
     d="m 354,671.86 a 17.5,17.5 0 1 1 -35,0 17.5,17.5 0 1 1 35,0 z"
     transform="matrix(1.1318,0,0,1.344,-169.71,-146.73)" /><path
     id="path3224"
     style="fill:url(#linearGradient2009);stroke:#000000;stroke-width:2.9774;stroke-linecap:round;stroke-linejoin:round"
     d="m 354,671.86 a 17.5,17.5 0 1 1 -35,0 17.5,17.5 0 1 1 35,0 z"
     transform="matrix(1.1318,0,0,1.344,-120.03,-146.73)" /><path
     id="path3222"
     style="fill:url(#linearGradient2009);stroke:#000000;stroke-width:2.9774;stroke-linecap:round;stroke-linejoin:round"
     d="m 354,671.86 a 17.5,17.5 0 1 1 -35,0 17.5,17.5 0 1 1 35,0 z"
     transform="matrix(1.1318,0,0,1.344,-143.53,-146.73)" /><path
     id="path3226"
     style="fill:url(#linearGradient2009);stroke:#000000;stroke-width:2.9774;stroke-linecap:round;stroke-linejoin:round"
     d="m 354,671.86 a 17.5,17.5 0 1 1 -35,0 17.5,17.5 0 1 1 35,0 z"
     transform="matrix(1.1318,0,0,1.344,-17.301,-146.73)" /><path
     id="path3228"
     style="fill:url(#linearGradient2009);stroke:#000000;stroke-width:2.9774;stroke-linecap:round;stroke-linejoin:round"
     d="m 354,671.86 a 17.5,17.5 0 1 1 -35,0 17.5,17.5 0 1 1 35,0 z"
     transform="matrix(1.1318,0,0,1.344,32.384,-146.73)" /><path
     id="path3230"
     style="fill:url(#linearGradient2009);stroke:#000000;stroke-width:2.9774;stroke-linecap:round;stroke-linejoin:round"
     d="m 354,671.86 a 17.5,17.5 0 1 1 -35,0 17.5,17.5 0 1 1 35,0 z"
     transform="matrix(1.1318,0,0,1.344,8.884,-146.73)" /><path
     id="path3246"
     style="fill:#000000;fill-opacity:0.31373"
     d="m 384.33,389.24 c 1.53,6.34 2.35,12.98 2.35,19.78 0,46.47 -37.71,100.3 -84.14,100.3 -33.84,0 -62.99,-28.61 -76.33,-62.12 10.33,38.69 42.51,74.97 80.61,74.97 46.43,0 84.14,-53.87 84.14,-100.34 0,-11.56 -2.36,-22.56 -6.59,-32.59 z" /><path
     id="path3264"
     style="fill:url(#linearGradient2009);stroke:#000000;stroke-width:5.6703;stroke-linecap:round;stroke-linejoin:round"
     d="m 354,671.86 a 17.5,17.5 0 1 1 -35,0 17.5,17.5 0 1 1 35,0 z"
     transform="matrix(0.30327,-0.52574,0.59834,0.34576,-246.2,542.47)" /><path
     id="path3266"
     style="fill:url(#linearGradient2009);stroke:#000000;stroke-width:5.6703;stroke-linecap:round;stroke-linejoin:round"
     d="m 354,671.86 a 17.5,17.5 0 1 1 -35,0 17.5,17.5 0 1 1 35,0 z"
     transform="matrix(0.30327,-0.52574,0.59834,0.34576,-232.89,519.39)" /><path
     id="path3268"
     style="fill:url(#linearGradient2009);stroke:#000000;stroke-width:5.6703;stroke-linecap:round;stroke-linejoin:round"
     d="m 354,671.86 a 17.5,17.5 0 1 1 -35,0 17.5,17.5 0 1 1 35,0 z"
     transform="matrix(0.30327,-0.52574,0.59834,0.34576,-233.83,534.2)" /><path
     id="path3270"
     style="fill:url(#linearGradient2009);stroke:#000000;stroke-width:5.6703;stroke-linecap:round;stroke-linejoin:round"
     d="m 354,671.86 a 17.5,17.5 0 1 1 -35,0 17.5,17.5 0 1 1 35,0 z"
     transform="matrix(-0.15686,-0.58632,-0.66744,0.17912,862.79,673.94)" /><path
     id="path3272"
     style="fill:url(#linearGradient2009);stroke:#000000;stroke-width:5.6703;stroke-linecap:round;stroke-linejoin:round"
     d="m 354,671.86 a 17.5,17.5 0 1 1 -35,0 17.5,17.5 0 1 1 35,0 z"
     transform="matrix(-0.15686,-0.58632,-0.66744,0.17912,855.91,648.2)" /><path
     id="path3274"
     style="fill:url(#linearGradient2009);stroke:#000000;stroke-width:5.6703;stroke-linecap:round;stroke-linejoin:round"
     d="m 354,671.86 a 17.5,17.5 0 1 1 -35,0 17.5,17.5 0 1 1 35,0 z"
     transform="matrix(-0.15686,-0.58632,-0.66744,0.17912,852.99,662.75)" /></g></g>
<g
   id="Layer_2"
   transform="translate(-9.5,4.778)">
</g>
<metadata
   id="metadata232"><rdf:RDF><cc:Work><dc:format>image/svg+xml</dc:format><dc:type
         rdf:resource="http://purl.org/dc/dcmitype/StillImage" /><cc:license
         rdf:resource="http://creativecommons.org/licenses/publicdomain/" /><dc:publisher><cc:Agent
           rdf:about="http://openclipart.org/"><dc:title>Openclipart</dc:title></cc:Agent></dc:publisher></cc:Work><cc:License
       rdf:about="http://creativecommons.org/licenses/publicdomain/"><cc:permits
         rdf:resource="http://creativecommons.org/ns#Reproduction" /><cc:permits
         rdf:resource="http://creativecommons.org/ns#Distribution" /><cc:permits
         rdf:resource="http://creativecommons.org/ns#DerivativeWorks" /></cc:License></rdf:RDF></metadata></svg>
