<svg width="1752" height="1182" viewBox="0 0 1752 1182" fill="none" xmlns="http://www.w3.org/2000/svg">
<g clip-path="url(#clip0_601_109)">
<path d="M733.576 1078.37L735.048 1079.42L736.237 1078.06C739.244 1074.62 742.95 1071.87 747.108 1069.98C751.264 1068.1 755.775 1067.12 760.34 1067.12C768.864 1067.13 777.035 1070.53 783.063 1076.55C789.09 1082.58 792.483 1090.75 792.501 1099.27C792.483 1107.8 789.09 1115.97 783.063 1121.99C777.035 1128.02 768.866 1131.41 760.342 1131.43C751.819 1131.41 743.649 1128.02 737.622 1121.99C731.595 1115.97 728.201 1107.8 728.184 1099.27C728.189 1096.21 728.633 1093.17 729.502 1090.24L729.909 1088.86L728.74 1088.04L712.586 1076.6L711.063 1075.52L709.882 1076.97C703.548 1084.72 694.519 1090.15 684.245 1091.87L682.575 1092.15V1093.85V1114.5V1116.11L684.145 1116.46C698.57 1119.63 709.396 1132.49 709.398 1147.84C709.381 1156.36 705.987 1164.53 699.959 1170.56C693.932 1176.59 685.763 1179.98 677.24 1180C668.718 1179.98 660.55 1176.59 654.525 1170.56C648.499 1164.53 645.106 1156.36 645.089 1147.84C645.09 1132.49 655.932 1119.54 670.33 1116.46L671.911 1116.12V1114.5V1093.85V1092.15L670.243 1091.87C650.34 1088.53 635.125 1071.21 635.125 1050.39C635.125 1029.66 650.192 1012.42 669.945 1009.05L671.609 1008.76V1007.07V987.424V985.832L670.057 985.475C655.768 982.19 645.082 969.412 645.081 954.16C645.098 945.636 648.491 937.466 654.519 931.438C660.546 925.411 668.716 922.017 677.239 922C685.759 922.015 693.926 925.404 699.954 931.424C705.982 937.445 709.38 945.607 709.406 954.126C709.392 961.501 706.85 968.648 702.202 974.374C697.554 980.101 691.081 984.06 683.866 985.59L682.281 985.926V987.547V1006.87V1008.57L683.961 1008.84C694.441 1010.54 703.641 1016.08 710.037 1024.01L711.212 1025.47L712.743 1024.39L728.766 1013.14L729.937 1012.32L729.537 1010.94C728.668 1007.96 728.193 1004.97 728.192 1001.81C728.209 993.28 731.602 985.109 737.63 979.081C743.657 973.054 751.827 969.66 760.351 969.643C768.874 969.66 777.044 973.054 783.071 979.081C789.098 985.108 792.492 993.278 792.509 1001.8C792.492 1010.32 789.098 1018.49 783.071 1024.52C777.043 1030.55 768.873 1033.94 760.348 1033.96C755.795 1033.96 751.295 1032.98 747.147 1031.1C742.999 1029.22 739.298 1026.48 736.292 1023.06L735.108 1021.72L733.64 1022.75L717.625 1033.99L716.375 1034.86L716.893 1036.3C718.521 1040.82 719.358 1045.58 719.37 1050.38C719.37 1055.4 718.434 1060.2 716.804 1064.69L716.284 1066.13L717.529 1067.01L733.576 1078.37ZM778.897 1001.82C778.897 991.585 770.577 983.254 760.342 983.254C750.107 983.254 741.787 991.585 741.787 1001.82C741.787 1012.05 750.109 1020.37 760.342 1020.37C770.576 1020.37 778.897 1012.05 778.897 1001.82ZM677.247 935.603C667.006 935.603 658.684 943.924 658.684 954.158C658.684 964.393 667.015 972.713 677.247 972.713C687.481 972.713 695.803 964.392 695.803 954.158C695.803 943.925 687.49 935.603 677.247 935.603ZM677.239 1166.41C687.473 1166.41 695.794 1158.09 695.794 1147.86C695.794 1137.63 687.482 1129.3 677.239 1129.3C666.998 1129.3 658.676 1137.62 658.676 1147.86C658.676 1158.09 667.007 1166.41 677.239 1166.41ZM652.142 1050.41C652.142 1064.25 663.386 1075.5 677.231 1075.5C691.067 1075.5 702.32 1064.25 702.32 1050.41C702.32 1036.57 691.067 1025.32 677.231 1025.32C663.395 1025.32 652.142 1036.57 652.142 1050.41ZM741.779 1099.28C741.779 1109.51 750.099 1117.85 760.334 1117.85C770.569 1117.85 778.889 1109.51 778.889 1099.28C778.889 1089.05 770.568 1080.73 760.334 1080.73C750.101 1080.73 741.779 1089.05 741.779 1099.28Z" fill="black" stroke="white" stroke-width="4"/>
</g>
<path d="M1031 1050.5C1031 1067.9 993.389 1082 947 1082C900.611 1082 863 1067.9 863 1050.5" stroke="#888888" stroke-width="12"/>
<path d="M1031 1113.5C1031 1130.9 993.389 1145 947 1145C900.611 1145 863 1130.9 863 1113.5" stroke="#888888" stroke-width="12"/>
<path d="M947 1020C993.392 1020 1031 1005.9 1031 988.5C1031 971.103 993.392 957 947 957C900.608 957 863 971.103 863 988.5C863 1005.9 900.608 1020 947 1020Z" stroke="#888888" stroke-width="12"/>
<path d="M863 987.5V1113.5V987.5Z" fill="white"/>
<path d="M863 987.5V1113.5" stroke="#888888" stroke-width="12"/>
<path d="M1031 987.5V1113.5V987.5Z" fill="white"/>
<path d="M1031 987.5V1113.5" stroke="#888888" stroke-width="12"/>
<g clip-path="url(#clip1_601_109)">
<path d="M58.4063 962.005L43.0225 969.69V1104.58L58.4063 1112.22L58.4988 1112.11V962.111L58.4063 962.005Z" fill="#8C3123"/>
<path d="M140.738 1092.64L58.4062 1112.22V962.005L140.738 981.156V1092.64Z" fill="#E05243"/>
<path d="M103.575 1061.99L138.497 1066.43L138.716 1065.93L138.913 1008.72L138.497 1008.27L103.575 1012.65V1061.99Z" fill="#8C3123"/>
<path d="M138.497 1092.86L218.587 1112.26L218.713 1112.06L218.711 962.139L218.584 962.005L138.497 981.376V1092.86Z" fill="#8C3123"/>
<path d="M173.429 1061.99L138.497 1066.43V1008.27L173.429 1012.65V1061.99Z" fill="#E05243"/>
<path d="M173.429 988.789L138.497 995.149L103.575 988.789L138.453 979.657L173.429 988.789Z" fill="#5E1F18"/>
<path d="M173.429 1085.79L138.497 1079.39L103.575 1085.79L138.455 1095.51L173.429 1085.79Z" fill="#F2B0A9"/>
<path d="M103.575 988.79L138.497 980.156L138.78 980.069V922.233L138.497 922L103.575 939.446V988.79Z" fill="#8C3123"/>
<path d="M173.429 988.79L138.497 980.156V922L173.429 939.446V988.79Z" fill="#E05243"/>
<path d="M138.497 1152.57L103.571 1135.13V1085.79L138.497 1094.42L139.011 1095L138.871 1151.57L138.497 1152.57Z" fill="#8C3123"/>
<path d="M138.497 1152.57L173.426 1135.13V1085.79L138.497 1094.42V1152.57ZM218.587 962.005L233.978 969.69V1104.58L218.587 1112.26V962.005Z" fill="#E05243"/>
</g>
<path d="M336.727 1130.2L295.932 1059.54C294.363 1056.83 293.537 1053.74 293.537 1050.61C293.537 1047.47 294.363 1044.39 295.932 1041.67L336.727 971.012C338.295 968.295 340.552 966.038 343.269 964.47C345.986 962.901 349.068 962.075 352.205 962.076H433.796C436.933 962.076 440.015 962.902 442.732 964.47C445.448 966.039 447.704 968.295 449.273 971.012L490.068 1041.67C491.637 1044.39 492.463 1047.47 492.463 1050.61C492.463 1053.75 491.637 1056.83 490.068 1059.54L449.273 1130.2C447.704 1132.92 445.448 1135.18 442.731 1136.75C440.014 1138.31 436.933 1139.14 433.796 1139.14H352.205C349.068 1139.14 345.986 1138.31 343.269 1136.74C340.552 1135.18 338.295 1132.92 336.727 1130.2Z" fill="url(#paint0_linear_601_109)"/>
<path opacity="0.07" d="M481.668 1074.82L432.192 1025.35L423.088 1027.23L400.393 1004.54L393.131 1018.12L389.193 1033.83L395.858 1040.5L383.056 1043.11L365.501 1025.56L353.581 1037.02L375.529 1058.97L352.264 1077.46L414.728 1139.93L445.159 1139.63L481.668 1074.82Z" fill="black"/>
<path d="M426.443 1039.57C431.013 1039.57 434.717 1035.87 434.717 1031.3C434.717 1026.73 431.013 1023.03 426.443 1023.03C421.874 1023.03 418.169 1026.73 418.169 1031.3C418.169 1035.87 421.874 1039.57 426.443 1039.57Z" fill="white"/>
<path d="M359.556 1039.57C364.126 1039.57 367.83 1035.87 367.83 1031.3C367.83 1026.73 364.126 1023.03 359.556 1023.03C354.987 1023.03 351.282 1026.73 351.282 1031.3C351.282 1035.87 354.987 1039.57 359.556 1039.57Z" fill="white"/>
<path d="M393 1097.5C397.571 1097.5 401.276 1093.8 401.276 1089.23C401.276 1084.66 397.571 1080.95 393 1080.95C388.43 1080.95 384.725 1084.66 384.725 1089.23C384.725 1093.8 388.43 1097.5 393 1097.5Z" fill="white"/>
<path d="M393 1063.98C400.384 1063.98 406.369 1057.99 406.369 1050.61C406.369 1043.22 400.384 1037.24 393 1037.24C385.617 1037.24 379.632 1043.22 379.632 1050.61C379.632 1057.99 385.617 1063.98 393 1063.98Z" fill="white"/>
<path d="M359.556 1080.42C365.357 1080.42 370.059 1075.72 370.059 1069.92C370.059 1064.12 365.357 1059.41 359.556 1059.41C353.756 1059.41 349.054 1064.12 349.054 1069.92C349.054 1075.72 353.756 1080.42 359.556 1080.42Z" fill="white"/>
<path d="M426.443 1080.42C432.244 1080.42 436.946 1075.72 436.946 1069.92C436.946 1064.12 432.244 1059.41 426.443 1059.41C420.643 1059.41 415.941 1064.12 415.941 1069.92C415.941 1075.72 420.643 1080.42 426.443 1080.42Z" fill="white"/>
<path d="M393 1022.49C398.802 1022.49 403.505 1017.79 403.505 1011.99C403.505 1006.19 398.802 1001.49 393 1001.49C387.199 1001.49 382.496 1006.19 382.496 1011.99C382.496 1017.79 387.199 1022.49 393 1022.49Z" fill="white"/>
<path d="M465.024 164.106L473.038 168.733L562.322 14.0937L554.308 9.46642L465.024 164.106Z" fill="#E535AB"/>
<path d="M641.756 151.751H463.188V161.006H641.756V151.751Z" fill="#E535AB"/>
<path d="M466.722 156.951L556.039 208.52L560.666 200.505L471.349 148.936L466.722 156.951Z" fill="#E535AB"/>
<path d="M544.312 22.5492L633.629 74.1179L638.256 66.1035L548.939 14.5348L544.312 22.5492Z" fill="#E535AB"/>
<path d="M466.747 66.0684L471.374 74.0828L560.691 22.514L556.064 14.4996L466.747 66.0684Z" fill="#E535AB"/>
<path d="M542.698 14.0956L631.982 168.735L639.996 164.108L550.713 9.46838L542.698 14.0956Z" fill="#E535AB"/>
<path d="M479.523 59.9314H470.269V163.069H479.523V59.9314Z" fill="#E535AB"/>
<path d="M634.731 59.9314H625.477V163.069H634.731V59.9314Z" fill="#E535AB"/>
<path d="M550.422 197.602L554.464 204.602L632.145 159.751L628.103 152.751L550.422 197.602Z" fill="#E535AB"/>
<path d="M646.996 166.079C641.644 175.39 629.714 178.567 620.404 173.215C611.093 167.863 607.916 155.933 613.268 146.623C618.62 137.312 630.55 134.135 639.86 139.487C649.226 144.894 652.404 156.769 646.996 166.079Z" fill="#E535AB"/>
<path d="M491.677 76.3775C486.325 85.6878 474.394 88.8655 465.084 83.5135C455.774 78.1615 452.596 66.231 457.948 56.9208C463.3 47.6105 475.231 44.4328 484.541 49.7848C493.851 55.1925 497.029 67.0673 491.677 76.3775Z" fill="#E535AB"/>
<path d="M458.004 166.079C452.652 156.769 455.829 144.894 465.14 139.487C474.45 134.135 486.325 137.312 491.732 146.623C497.084 155.933 493.907 167.808 484.596 173.215C475.23 178.567 463.356 175.39 458.004 166.079Z" fill="#E535AB"/>
<path d="M613.323 76.3775C607.971 67.0673 611.149 55.1925 620.459 49.7848C629.77 44.4328 641.644 47.6105 647.052 56.9208C652.404 66.231 649.226 78.1058 639.916 83.5135C630.606 88.8655 618.675 85.6878 613.323 76.3775Z" fill="#E535AB"/>
<path d="M552.5 220.659C541.74 220.659 533.043 211.962 533.043 201.202C533.043 190.442 541.74 181.745 552.5 181.745C563.26 181.745 571.957 190.442 571.957 201.202C571.957 211.906 563.26 220.659 552.5 220.659Z" fill="#E535AB"/>
<path d="M552.5 41.2551C541.74 41.2551 533.043 32.5581 533.043 21.7983C533.043 11.0386 541.74 2.34155 552.5 2.34155C563.26 2.34155 571.957 11.0386 571.957 21.7983C571.957 32.5581 563.26 41.2551 552.5 41.2551Z" fill="#E535AB"/>
<path d="M1318.28 99.9062H1335.42V146.342C1335.42 151.876 1334.26 156.563 1331.95 160.404C1329.64 164.213 1326.4 167.094 1322.24 169.047C1318.07 171 1313.17 171.977 1307.54 171.977C1301.97 171.977 1297.07 171 1292.84 169.047C1288.64 167.094 1285.35 164.213 1282.98 160.404C1280.63 156.563 1279.46 151.876 1279.46 146.342V99.9062H1296.65V146.342C1296.65 149.271 1297.07 151.664 1297.92 153.52C1298.77 155.342 1300 156.677 1301.63 157.523C1303.26 158.37 1305.23 158.793 1307.54 158.793C1309.88 158.793 1311.85 158.37 1313.45 157.523C1315.04 156.677 1316.25 155.342 1317.06 153.52C1317.87 151.664 1318.28 149.271 1318.28 146.342V99.9062ZM1373.12 156.156C1373.12 155.245 1372.81 154.464 1372.19 153.812C1371.6 153.129 1370.56 152.51 1369.06 151.957C1367.57 151.371 1365.47 150.785 1362.76 150.199C1360.19 149.646 1357.77 148.913 1355.49 148.002C1353.24 147.09 1351.27 145.984 1349.58 144.682C1347.89 143.38 1346.55 141.833 1345.58 140.043C1344.63 138.253 1344.16 136.202 1344.16 133.891C1344.16 131.645 1344.63 129.529 1345.58 127.543C1346.55 125.525 1347.97 123.751 1349.82 122.221C1351.71 120.658 1354.01 119.438 1356.71 118.559C1359.41 117.647 1362.49 117.191 1365.94 117.191C1370.69 117.191 1374.79 117.924 1378.24 119.389C1381.69 120.821 1384.35 122.839 1386.2 125.443C1388.09 128.015 1389.03 130.993 1389.03 134.379H1372.58C1372.58 133.044 1372.35 131.905 1371.89 130.961C1371.47 130.017 1370.77 129.301 1369.79 128.812C1368.82 128.292 1367.52 128.031 1365.89 128.031C1364.75 128.031 1363.71 128.243 1362.76 128.666C1361.85 129.089 1361.12 129.675 1360.57 130.424C1360.01 131.173 1359.74 132.051 1359.74 133.061C1359.74 133.777 1359.9 134.428 1360.22 135.014C1360.58 135.567 1361.12 136.088 1361.84 136.576C1362.55 137.032 1363.46 137.455 1364.57 137.846C1365.68 138.204 1367.01 138.529 1368.57 138.822C1372.12 139.473 1375.44 140.401 1378.54 141.605C1381.63 142.81 1384.13 144.519 1386.05 146.732C1388.01 148.946 1388.98 151.924 1388.98 155.668C1388.98 158.012 1388.45 160.176 1387.37 162.162C1386.3 164.115 1384.75 165.84 1382.73 167.338C1380.72 168.803 1378.29 169.942 1375.46 170.756C1372.63 171.57 1369.44 171.977 1365.89 171.977C1360.84 171.977 1356.58 171.081 1353.1 169.291C1349.61 167.468 1346.98 165.189 1345.19 162.455C1343.43 159.688 1342.55 156.889 1342.55 154.057H1357.88C1357.95 155.684 1358.34 157.019 1359.05 158.061C1359.8 159.102 1360.79 159.867 1362.03 160.355C1363.27 160.844 1364.7 161.088 1366.33 161.088C1367.83 161.088 1369.06 160.876 1370.04 160.453C1371.05 160.03 1371.81 159.46 1372.33 158.744C1372.85 157.995 1373.12 157.133 1373.12 156.156ZM1422.29 171.977C1417.99 171.977 1414.15 171.309 1410.76 169.975C1407.38 168.607 1404.51 166.736 1402.17 164.359C1399.86 161.983 1398.08 159.249 1396.85 156.156C1395.64 153.064 1395.04 149.792 1395.04 146.342V144.486C1395.04 140.613 1395.58 137.032 1396.65 133.744C1397.72 130.424 1399.32 127.527 1401.44 125.053C1403.55 122.579 1406.2 120.658 1409.39 119.291C1412.58 117.891 1416.3 117.191 1420.53 117.191C1424.27 117.191 1427.62 117.794 1430.59 118.998C1433.55 120.202 1436.05 121.928 1438.11 124.174C1440.19 126.42 1441.77 129.138 1442.84 132.328C1443.95 135.518 1444.5 139.099 1444.5 143.07V149.76H1401.34V139.457H1428.44V138.188C1428.47 136.43 1428.16 134.932 1427.51 133.695C1426.89 132.458 1425.98 131.514 1424.78 130.863C1423.57 130.212 1422.11 129.887 1420.38 129.887C1418.59 129.887 1417.11 130.277 1415.94 131.059C1414.8 131.84 1413.9 132.914 1413.25 134.281C1412.63 135.616 1412.19 137.162 1411.93 138.92C1411.67 140.678 1411.54 142.533 1411.54 144.486V146.342C1411.54 148.295 1411.8 150.069 1412.32 151.664C1412.88 153.259 1413.66 154.626 1414.67 155.766C1415.71 156.872 1416.95 157.735 1418.38 158.354C1419.84 158.972 1421.5 159.281 1423.36 159.281C1425.61 159.281 1427.82 158.858 1430 158.012C1432.18 157.165 1434.05 155.766 1435.62 153.812L1443.09 162.699C1442.01 164.229 1440.48 165.71 1438.5 167.143C1436.54 168.575 1434.2 169.747 1431.46 170.658C1428.73 171.537 1425.67 171.977 1422.29 171.977ZM1467.79 131.254V171H1451.34V118.168H1466.72L1467.79 131.254ZM1483.42 117.777L1483.12 133.061C1482.47 132.995 1481.6 132.914 1480.49 132.816C1479.38 132.719 1478.45 132.67 1477.71 132.67C1475.78 132.67 1474.12 132.898 1472.72 133.354C1471.36 133.777 1470.22 134.428 1469.31 135.307C1468.43 136.153 1467.78 137.227 1467.35 138.529C1466.96 139.831 1466.78 141.345 1466.82 143.07L1463.84 141.117C1463.84 137.569 1464.18 134.346 1464.86 131.449C1465.58 128.52 1466.59 125.997 1467.89 123.881C1469.19 121.732 1470.77 120.089 1472.63 118.949C1474.48 117.777 1476.57 117.191 1478.88 117.191C1479.69 117.191 1480.49 117.24 1481.27 117.338C1482.08 117.436 1482.8 117.582 1483.42 117.777ZM1516.77 156.156C1516.77 155.245 1516.46 154.464 1515.84 153.812C1515.25 153.129 1514.21 152.51 1512.71 151.957C1511.22 151.371 1509.12 150.785 1506.42 150.199C1503.84 149.646 1501.42 148.913 1499.14 148.002C1496.89 147.09 1494.93 145.984 1493.23 144.682C1491.54 143.38 1490.21 141.833 1489.23 140.043C1488.28 138.253 1487.81 136.202 1487.81 133.891C1487.81 131.645 1488.28 129.529 1489.23 127.543C1490.21 125.525 1491.62 123.751 1493.48 122.221C1495.36 120.658 1497.66 119.438 1500.36 118.559C1503.06 117.647 1506.14 117.191 1509.59 117.191C1514.34 117.191 1518.44 117.924 1521.89 119.389C1525.35 120.821 1528 122.839 1529.85 125.443C1531.74 128.015 1532.69 130.993 1532.69 134.379H1516.23C1516.23 133.044 1516 131.905 1515.55 130.961C1515.12 130.017 1514.42 129.301 1513.45 128.812C1512.47 128.292 1511.17 128.031 1509.54 128.031C1508.4 128.031 1507.36 128.243 1506.42 128.666C1505.5 129.089 1504.77 129.675 1504.22 130.424C1503.67 131.173 1503.39 132.051 1503.39 133.061C1503.39 133.777 1503.55 134.428 1503.88 135.014C1504.24 135.567 1504.77 136.088 1505.49 136.576C1506.2 137.032 1507.12 137.455 1508.22 137.846C1509.33 138.204 1510.66 138.529 1512.23 138.822C1515.77 139.473 1519.1 140.401 1522.19 141.605C1525.28 142.81 1527.79 144.519 1529.71 146.732C1531.66 148.946 1532.64 151.924 1532.64 155.668C1532.64 158.012 1532.1 160.176 1531.03 162.162C1529.95 164.115 1528.4 165.84 1526.39 167.338C1524.37 168.803 1521.94 169.942 1519.11 170.756C1516.28 171.57 1513.09 171.977 1509.54 171.977C1504.5 171.977 1500.23 171.081 1496.75 169.291C1493.26 167.468 1490.63 165.189 1488.84 162.455C1487.08 159.688 1486.2 156.889 1486.2 154.057H1501.53C1501.6 155.684 1501.99 157.019 1502.71 158.061C1503.45 159.102 1504.45 159.867 1505.68 160.355C1506.92 160.844 1508.35 161.088 1509.98 161.088C1511.48 161.088 1512.71 160.876 1513.69 160.453C1514.7 160.03 1515.47 159.46 1515.99 158.744C1516.51 157.995 1516.77 157.133 1516.77 156.156Z" fill="#888888"/>
<path d="M1153.61 606H1137.84L1137.94 592.816H1153.61C1156.87 592.816 1159.62 592.035 1161.87 590.473C1164.14 588.91 1165.87 586.583 1167.04 583.49C1168.25 580.365 1168.85 576.524 1168.85 571.967V568.891C1168.85 565.473 1168.51 562.478 1167.82 559.906C1167.17 557.302 1166.19 555.137 1164.89 553.412C1163.59 551.654 1161.96 550.336 1160.01 549.457C1158.09 548.578 1155.88 548.139 1153.37 548.139H1137.55V534.906H1153.37C1158.19 534.906 1162.6 535.736 1166.6 537.396C1170.64 539.024 1174.12 541.368 1177.05 544.428C1180.01 547.455 1182.29 551.052 1183.89 555.219C1185.51 559.353 1186.33 563.943 1186.33 568.988V571.967C1186.33 576.98 1185.51 581.57 1183.89 585.736C1182.29 589.903 1180.03 593.5 1177.1 596.527C1174.17 599.555 1170.7 601.898 1166.7 603.559C1162.73 605.186 1158.37 606 1153.61 606ZM1147.66 534.906V606H1130.52V534.906H1147.66ZM1221.92 592.719V570.941C1221.92 569.444 1221.71 568.158 1221.29 567.084C1220.87 566.01 1220.2 565.18 1219.29 564.594C1218.38 563.975 1217.15 563.666 1215.62 563.666C1214.39 563.666 1213.33 563.878 1212.45 564.301C1211.57 564.724 1210.9 565.359 1210.45 566.205C1209.99 567.051 1209.77 568.126 1209.77 569.428H1193.31C1193.31 566.986 1193.85 564.724 1194.92 562.641C1196.03 560.525 1197.59 558.686 1199.61 557.123C1201.66 555.561 1204.1 554.356 1206.93 553.51C1209.8 552.631 1212.99 552.191 1216.5 552.191C1220.7 552.191 1224.45 552.891 1227.73 554.291C1231.05 555.691 1233.68 557.79 1235.6 560.59C1237.52 563.357 1238.48 566.84 1238.48 571.039V592.67C1238.48 596.12 1238.67 598.741 1239.06 600.531C1239.45 602.289 1240.01 603.835 1240.72 605.17V606H1224.22C1223.44 604.372 1222.85 602.387 1222.46 600.043C1222.1 597.667 1221.92 595.225 1221.92 592.719ZM1223.93 573.725L1224.02 582.514H1216.75C1215.22 582.514 1213.92 582.725 1212.84 583.148C1211.8 583.572 1210.95 584.158 1210.3 584.906C1209.68 585.622 1209.23 586.436 1208.94 587.348C1208.68 588.259 1208.54 589.219 1208.54 590.229C1208.54 591.205 1208.77 592.084 1209.23 592.865C1209.72 593.614 1210.37 594.2 1211.18 594.623C1212 595.046 1212.91 595.258 1213.92 595.258C1215.74 595.258 1217.29 594.916 1218.55 594.232C1219.86 593.516 1220.85 592.654 1221.53 591.645C1222.22 590.635 1222.56 589.691 1222.56 588.812L1226.17 595.551C1225.52 596.853 1224.77 598.171 1223.93 599.506C1223.11 600.84 1222.09 602.077 1220.85 603.217C1219.65 604.324 1218.16 605.235 1216.41 605.951C1214.65 606.635 1212.52 606.977 1210.01 606.977C1206.75 606.977 1203.76 606.309 1201.03 604.975C1198.32 603.64 1196.16 601.785 1194.53 599.408C1192.9 596.999 1192.09 594.232 1192.09 591.107C1192.09 588.373 1192.58 585.932 1193.55 583.783C1194.56 581.635 1196.08 579.812 1198.1 578.314C1200.11 576.817 1202.69 575.678 1205.81 574.896C1208.94 574.115 1212.61 573.725 1216.85 573.725H1223.93ZM1275.44 553.168V564.594H1243.6V553.168H1275.44ZM1250.29 540.033H1266.75V588.764C1266.75 590.163 1266.91 591.254 1267.24 592.035C1267.56 592.784 1268.12 593.321 1268.9 593.646C1269.71 593.939 1270.78 594.086 1272.12 594.086C1273.06 594.086 1273.84 594.07 1274.46 594.037C1275.08 593.972 1275.67 593.891 1276.22 593.793V605.561C1274.82 606.016 1273.36 606.358 1271.83 606.586C1270.3 606.846 1268.67 606.977 1266.94 606.977C1263.43 606.977 1260.42 606.423 1257.91 605.316C1255.44 604.21 1253.55 602.468 1252.25 600.092C1250.94 597.715 1250.29 594.623 1250.29 590.814V540.033ZM1309.42 592.719V570.941C1309.42 569.444 1309.21 568.158 1308.79 567.084C1308.37 566.01 1307.7 565.18 1306.79 564.594C1305.88 563.975 1304.65 563.666 1303.12 563.666C1301.89 563.666 1300.83 563.878 1299.95 564.301C1299.07 564.724 1298.4 565.359 1297.95 566.205C1297.49 567.051 1297.27 568.126 1297.27 569.428H1280.81C1280.81 566.986 1281.35 564.724 1282.42 562.641C1283.53 560.525 1285.09 558.686 1287.11 557.123C1289.16 555.561 1291.6 554.356 1294.43 553.51C1297.3 552.631 1300.49 552.191 1304 552.191C1308.2 552.191 1311.95 552.891 1315.23 554.291C1318.55 555.691 1321.18 557.79 1323.1 560.59C1325.02 563.357 1325.98 566.84 1325.98 571.039V592.67C1325.98 596.12 1326.17 598.741 1326.56 600.531C1326.95 602.289 1327.51 603.835 1328.22 605.17V606H1311.72C1310.94 604.372 1310.35 602.387 1309.96 600.043C1309.6 597.667 1309.42 595.225 1309.42 592.719ZM1311.43 573.725L1311.52 582.514H1304.25C1302.72 582.514 1301.42 582.725 1300.34 583.148C1299.3 583.572 1298.45 584.158 1297.8 584.906C1297.18 585.622 1296.73 586.436 1296.44 587.348C1296.18 588.259 1296.04 589.219 1296.04 590.229C1296.04 591.205 1296.27 592.084 1296.73 592.865C1297.22 593.614 1297.87 594.2 1298.68 594.623C1299.5 595.046 1300.41 595.258 1301.42 595.258C1303.24 595.258 1304.79 594.916 1306.05 594.232C1307.36 593.516 1308.35 592.654 1309.03 591.645C1309.72 590.635 1310.06 589.691 1310.06 588.812L1313.67 595.551C1313.02 596.853 1312.27 598.171 1311.43 599.506C1310.61 600.84 1309.59 602.077 1308.35 603.217C1307.15 604.324 1305.66 605.235 1303.91 605.951C1302.15 606.635 1300.02 606.977 1297.51 606.977C1294.25 606.977 1291.26 606.309 1288.53 604.975C1285.82 603.64 1283.66 601.785 1282.03 599.408C1280.4 596.999 1279.59 594.232 1279.59 591.107C1279.59 588.373 1280.08 585.932 1281.05 583.783C1282.06 581.635 1283.58 579.812 1285.6 578.314C1287.61 576.817 1290.19 575.678 1293.31 574.896C1296.44 574.115 1300.11 573.725 1304.35 573.725H1311.43ZM1389.16 581.879H1371.48V568.646H1389.16C1391.57 568.646 1393.52 568.24 1395.02 567.426C1396.52 566.612 1397.61 565.489 1398.29 564.057C1399.01 562.592 1399.37 560.948 1399.37 559.125C1399.37 557.172 1399.01 555.365 1398.29 553.705C1397.61 552.045 1396.52 550.71 1395.02 549.701C1393.52 548.66 1391.57 548.139 1389.16 548.139H1377.93V606H1360.79V534.906H1389.16C1394.86 534.906 1399.76 535.948 1403.86 538.031C1407.99 540.115 1411.17 542.979 1413.38 546.625C1415.59 550.238 1416.7 554.372 1416.7 559.027C1416.7 563.617 1415.59 567.621 1413.38 571.039C1411.17 574.457 1407.99 577.126 1403.86 579.047C1399.76 580.935 1394.86 581.879 1389.16 581.879ZM1442.53 553.168V606H1426.03V553.168H1442.53ZM1425.05 539.545C1425.05 537.201 1425.9 535.281 1427.59 533.783C1429.28 532.286 1431.48 531.537 1434.18 531.537C1436.88 531.537 1439.08 532.286 1440.77 533.783C1442.46 535.281 1443.31 537.201 1443.31 539.545C1443.31 541.889 1442.46 543.809 1440.77 545.307C1439.08 546.804 1436.88 547.553 1434.18 547.553C1431.48 547.553 1429.28 546.804 1427.59 545.307C1425.9 543.809 1425.05 541.889 1425.05 539.545ZM1469.29 563.324V626.312H1452.83V553.168H1468.16L1469.29 563.324ZM1501.71 578.949V579.975C1501.71 583.816 1501.27 587.38 1500.39 590.668C1499.51 593.956 1498.21 596.82 1496.48 599.262C1494.76 601.703 1492.61 603.607 1490.04 604.975C1487.5 606.309 1484.55 606.977 1481.2 606.977C1478.04 606.977 1475.33 606.277 1473.05 604.877C1470.77 603.477 1468.86 601.54 1467.33 599.066C1465.8 596.592 1464.57 593.76 1463.62 590.57C1462.68 587.38 1461.93 584.011 1461.38 580.463V579.145C1461.93 575.336 1462.68 571.804 1463.62 568.549C1464.57 565.261 1465.8 562.396 1467.33 559.955C1468.86 557.514 1470.75 555.609 1473 554.242C1475.28 552.875 1477.99 552.191 1481.15 552.191C1484.51 552.191 1487.45 552.826 1489.99 554.096C1492.56 555.365 1494.71 557.188 1496.44 559.564C1498.19 561.908 1499.51 564.724 1500.39 568.012C1501.27 571.299 1501.71 574.945 1501.71 578.949ZM1485.25 579.975V578.949C1485.25 576.898 1485.11 575.027 1484.81 573.334C1484.52 571.609 1484.05 570.111 1483.4 568.842C1482.78 567.572 1481.95 566.596 1480.91 565.912C1479.87 565.229 1478.58 564.887 1477.05 564.887C1475.29 564.887 1473.81 565.163 1472.61 565.717C1471.44 566.238 1470.49 567.051 1469.78 568.158C1469.09 569.232 1468.6 570.583 1468.31 572.211C1468.05 573.806 1467.94 575.678 1467.97 577.826V581.83C1467.9 584.304 1468.15 586.485 1468.7 588.373C1469.25 590.229 1470.21 591.677 1471.58 592.719C1472.95 593.76 1474.8 594.281 1477.15 594.281C1478.71 594.281 1480.01 593.923 1481.05 593.207C1482.1 592.458 1482.93 591.433 1483.54 590.131C1484.16 588.796 1484.6 587.266 1484.86 585.541C1485.12 583.816 1485.25 581.96 1485.25 579.975ZM1534.62 606.977C1530.32 606.977 1526.48 606.309 1523.1 604.975C1519.71 603.607 1516.85 601.736 1514.5 599.359C1512.19 596.983 1510.42 594.249 1509.18 591.156C1507.98 588.064 1507.37 584.792 1507.37 581.342V579.486C1507.37 575.613 1507.91 572.032 1508.98 568.744C1510.06 565.424 1511.65 562.527 1513.77 560.053C1515.89 557.579 1518.54 555.658 1521.73 554.291C1524.92 552.891 1528.63 552.191 1532.86 552.191C1536.6 552.191 1539.96 552.794 1542.92 553.998C1545.88 555.202 1548.39 556.928 1550.44 559.174C1552.52 561.42 1554.1 564.138 1555.18 567.328C1556.28 570.518 1556.84 574.099 1556.84 578.07V584.76H1513.67V574.457H1540.77V573.188C1540.8 571.43 1540.49 569.932 1539.84 568.695C1539.23 567.458 1538.31 566.514 1537.11 565.863C1535.9 565.212 1534.44 564.887 1532.71 564.887C1530.92 564.887 1529.44 565.277 1528.27 566.059C1527.13 566.84 1526.24 567.914 1525.59 569.281C1524.97 570.616 1524.53 572.162 1524.27 573.92C1524.01 575.678 1523.88 577.533 1523.88 579.486V581.342C1523.88 583.295 1524.14 585.069 1524.66 586.664C1525.21 588.259 1525.99 589.626 1527 590.766C1528.04 591.872 1529.28 592.735 1530.71 593.354C1532.18 593.972 1533.84 594.281 1535.69 594.281C1537.94 594.281 1540.15 593.858 1542.33 593.012C1544.51 592.165 1546.39 590.766 1547.95 588.812L1555.42 597.699C1554.35 599.229 1552.82 600.71 1550.83 602.143C1548.88 603.575 1546.53 604.747 1543.8 605.658C1541.06 606.537 1538 606.977 1534.62 606.977ZM1580.91 531V606H1564.4V531H1580.91ZM1608.45 553.168V606H1591.94V553.168H1608.45ZM1590.97 539.545C1590.97 537.201 1591.81 535.281 1593.51 533.783C1595.2 532.286 1597.4 531.537 1600.1 531.537C1602.8 531.537 1605 532.286 1606.69 533.783C1608.38 535.281 1609.23 537.201 1609.23 539.545C1609.23 541.889 1608.38 543.809 1606.69 545.307C1605 546.804 1602.8 547.553 1600.1 547.553C1597.4 547.553 1595.2 546.804 1593.51 545.307C1591.81 543.809 1590.97 541.889 1590.97 539.545ZM1634.77 564.447V606H1618.31V553.168H1633.74L1634.77 564.447ZM1632.81 577.777L1628.96 577.875C1628.96 573.839 1629.44 570.242 1630.42 567.084C1631.4 563.894 1632.78 561.192 1634.57 558.979C1636.36 556.765 1638.49 555.089 1640.97 553.949C1643.47 552.777 1646.26 552.191 1649.32 552.191C1651.76 552.191 1653.99 552.549 1656.01 553.266C1658.06 553.982 1659.81 555.137 1661.28 556.732C1662.78 558.327 1663.92 560.443 1664.7 563.08C1665.51 565.684 1665.92 568.907 1665.92 572.748V606H1649.37V572.699C1649.37 570.583 1649.07 568.972 1648.49 567.865C1647.9 566.726 1647.05 565.945 1645.95 565.521C1644.84 565.098 1643.49 564.887 1641.89 564.887C1640.2 564.887 1638.77 565.212 1637.6 565.863C1636.43 566.514 1635.48 567.426 1634.77 568.598C1634.08 569.737 1633.58 571.088 1633.25 572.65C1632.96 574.213 1632.81 575.922 1632.81 577.777ZM1700.63 606.977C1696.34 606.977 1692.5 606.309 1689.11 604.975C1685.73 603.607 1682.86 601.736 1680.52 599.359C1678.21 596.983 1676.43 594.249 1675.2 591.156C1673.99 588.064 1673.39 584.792 1673.39 581.342V579.486C1673.39 575.613 1673.93 572.032 1675 568.744C1676.07 565.424 1677.67 562.527 1679.79 560.053C1681.9 557.579 1684.55 555.658 1687.74 554.291C1690.93 552.891 1694.65 552.191 1698.88 552.191C1702.62 552.191 1705.97 552.794 1708.94 553.998C1711.9 555.202 1714.4 556.928 1716.46 559.174C1718.54 561.42 1720.12 564.138 1721.19 567.328C1722.3 570.518 1722.85 574.099 1722.85 578.07V584.76H1679.69V574.457H1706.79V573.188C1706.82 571.43 1706.51 569.932 1705.86 568.695C1705.24 567.458 1704.33 566.514 1703.12 565.863C1701.92 565.212 1700.46 564.887 1698.73 564.887C1696.94 564.887 1695.46 565.277 1694.29 566.059C1693.15 566.84 1692.25 567.914 1691.6 569.281C1690.98 570.616 1690.54 572.162 1690.28 573.92C1690.02 575.678 1689.89 577.533 1689.89 579.486V581.342C1689.89 583.295 1690.15 585.069 1690.67 586.664C1691.23 588.259 1692.01 589.626 1693.02 590.766C1694.06 591.872 1695.3 592.735 1696.73 593.354C1698.19 593.972 1699.85 594.281 1701.71 594.281C1703.96 594.281 1706.17 593.858 1708.35 593.012C1710.53 592.165 1712.4 590.766 1713.96 588.812L1721.44 597.699C1720.36 599.229 1718.83 600.71 1716.85 602.143C1714.89 603.575 1712.55 604.747 1709.81 605.658C1707.08 606.537 1704.02 606.977 1700.63 606.977Z" fill="#888888"/>
<path d="M1330.52 1071H1314.74L1314.84 1057.82H1330.52C1333.77 1057.82 1336.52 1057.04 1338.77 1055.47C1341.05 1053.91 1342.77 1051.58 1343.94 1048.49C1345.15 1045.37 1345.75 1041.52 1345.75 1036.97V1033.89C1345.75 1030.47 1345.41 1027.48 1344.72 1024.91C1344.07 1022.3 1343.1 1020.14 1341.79 1018.41C1340.49 1016.65 1338.87 1015.34 1336.91 1014.46C1334.99 1013.58 1332.78 1013.14 1330.27 1013.14H1314.45V999.906H1330.27C1335.09 999.906 1339.5 1000.74 1343.5 1002.4C1347.54 1004.02 1351.02 1006.37 1353.95 1009.43C1356.92 1012.46 1359.19 1016.05 1360.79 1020.22C1362.42 1024.35 1363.23 1028.94 1363.23 1033.99V1036.97C1363.23 1041.98 1362.42 1046.57 1360.79 1050.74C1359.19 1054.9 1356.93 1058.5 1354 1061.53C1351.07 1064.55 1347.61 1066.9 1343.6 1068.56C1339.63 1070.19 1335.27 1071 1330.52 1071ZM1324.56 999.906V1071H1307.42V999.906H1324.56ZM1398.83 1057.72V1035.94C1398.83 1034.44 1398.61 1033.16 1398.19 1032.08C1397.77 1031.01 1397.1 1030.18 1396.19 1029.59C1395.28 1028.98 1394.06 1028.67 1392.53 1028.67C1391.29 1028.67 1390.23 1028.88 1389.35 1029.3C1388.47 1029.72 1387.81 1030.36 1387.35 1031.21C1386.9 1032.05 1386.67 1033.13 1386.67 1034.43H1370.21C1370.21 1031.99 1370.75 1029.72 1371.82 1027.64C1372.93 1025.52 1374.49 1023.69 1376.51 1022.12C1378.56 1020.56 1381 1019.36 1383.84 1018.51C1386.7 1017.63 1389.89 1017.19 1393.41 1017.19C1397.61 1017.19 1401.35 1017.89 1404.64 1019.29C1407.96 1020.69 1410.58 1022.79 1412.5 1025.59C1414.42 1028.36 1415.38 1031.84 1415.38 1036.04V1057.67C1415.38 1061.12 1415.57 1063.74 1415.96 1065.53C1416.36 1067.29 1416.91 1068.84 1417.62 1070.17V1071H1401.12C1400.34 1069.37 1399.75 1067.39 1399.36 1065.04C1399.01 1062.67 1398.83 1060.23 1398.83 1057.72ZM1400.83 1038.72L1400.93 1047.51H1393.65C1392.12 1047.51 1390.82 1047.73 1389.74 1048.15C1388.7 1048.57 1387.86 1049.16 1387.21 1049.91C1386.59 1050.62 1386.13 1051.44 1385.84 1052.35C1385.58 1053.26 1385.45 1054.22 1385.45 1055.23C1385.45 1056.21 1385.68 1057.08 1386.13 1057.87C1386.62 1058.61 1387.27 1059.2 1388.08 1059.62C1388.9 1060.05 1389.81 1060.26 1390.82 1060.26C1392.64 1060.26 1394.19 1059.92 1395.46 1059.23C1396.76 1058.52 1397.75 1057.65 1398.44 1056.64C1399.12 1055.64 1399.46 1054.69 1399.46 1053.81L1403.07 1060.55C1402.42 1061.85 1401.67 1063.17 1400.83 1064.51C1400.01 1065.84 1398.99 1067.08 1397.75 1068.22C1396.55 1069.32 1395.07 1070.24 1393.31 1070.95C1391.55 1071.63 1389.42 1071.98 1386.91 1071.98C1383.66 1071.98 1380.66 1071.31 1377.93 1069.97C1375.23 1068.64 1373.06 1066.78 1371.43 1064.41C1369.81 1062 1368.99 1059.23 1368.99 1056.11C1368.99 1053.37 1369.48 1050.93 1370.46 1048.78C1371.47 1046.63 1372.98 1044.81 1375 1043.31C1377.02 1041.82 1379.59 1040.68 1382.71 1039.9C1385.84 1039.12 1389.52 1038.72 1393.75 1038.72H1400.83ZM1452.34 1018.17V1029.59H1420.51V1018.17H1452.34ZM1427.2 1005.03H1443.65V1053.76C1443.65 1055.16 1443.81 1056.25 1444.14 1057.04C1444.46 1057.78 1445.02 1058.32 1445.8 1058.65C1446.61 1058.94 1447.69 1059.09 1449.02 1059.09C1449.97 1059.09 1450.75 1059.07 1451.37 1059.04C1451.98 1058.97 1452.57 1058.89 1453.12 1058.79V1070.56C1451.72 1071.02 1450.26 1071.36 1448.73 1071.59C1447.2 1071.85 1445.57 1071.98 1443.85 1071.98C1440.33 1071.98 1437.32 1071.42 1434.81 1070.32C1432.34 1069.21 1430.45 1067.47 1429.15 1065.09C1427.85 1062.72 1427.2 1059.62 1427.2 1055.81V1005.03ZM1486.33 1057.72V1035.94C1486.33 1034.44 1486.11 1033.16 1485.69 1032.08C1485.27 1031.01 1484.6 1030.18 1483.69 1029.59C1482.78 1028.98 1481.56 1028.67 1480.03 1028.67C1478.79 1028.67 1477.73 1028.88 1476.85 1029.3C1475.97 1029.72 1475.31 1030.36 1474.85 1031.21C1474.4 1032.05 1474.17 1033.13 1474.17 1034.43H1457.71C1457.71 1031.99 1458.25 1029.72 1459.32 1027.64C1460.43 1025.52 1461.99 1023.69 1464.01 1022.12C1466.06 1020.56 1468.5 1019.36 1471.34 1018.51C1474.2 1017.63 1477.39 1017.19 1480.91 1017.19C1485.11 1017.19 1488.85 1017.89 1492.14 1019.29C1495.46 1020.69 1498.08 1022.79 1500 1025.59C1501.92 1028.36 1502.88 1031.84 1502.88 1036.04V1057.67C1502.88 1061.12 1503.07 1063.74 1503.46 1065.53C1503.86 1067.29 1504.41 1068.84 1505.12 1070.17V1071H1488.62C1487.84 1069.37 1487.25 1067.39 1486.86 1065.04C1486.51 1062.67 1486.33 1060.23 1486.33 1057.72ZM1488.33 1038.72L1488.43 1047.51H1481.15C1479.62 1047.51 1478.32 1047.73 1477.24 1048.15C1476.2 1048.57 1475.36 1049.16 1474.71 1049.91C1474.09 1050.62 1473.63 1051.44 1473.34 1052.35C1473.08 1053.26 1472.95 1054.22 1472.95 1055.23C1472.95 1056.21 1473.18 1057.08 1473.63 1057.87C1474.12 1058.61 1474.77 1059.2 1475.58 1059.62C1476.4 1060.05 1477.31 1060.26 1478.32 1060.26C1480.14 1060.26 1481.69 1059.92 1482.96 1059.23C1484.26 1058.52 1485.25 1057.65 1485.94 1056.64C1486.62 1055.64 1486.96 1054.69 1486.96 1053.81L1490.57 1060.55C1489.92 1061.85 1489.17 1063.17 1488.33 1064.51C1487.51 1065.84 1486.49 1067.08 1485.25 1068.22C1484.05 1069.32 1482.57 1070.24 1480.81 1070.95C1479.05 1071.63 1476.92 1071.98 1474.41 1071.98C1471.16 1071.98 1468.16 1071.31 1465.43 1069.97C1462.73 1068.64 1460.56 1066.78 1458.93 1064.41C1457.31 1062 1456.49 1059.23 1456.49 1056.11C1456.49 1053.37 1456.98 1050.93 1457.96 1048.78C1458.97 1046.63 1460.48 1044.81 1462.5 1043.31C1464.52 1041.82 1467.09 1040.68 1470.21 1039.9C1473.34 1039.12 1477.02 1038.72 1481.25 1038.72H1488.33Z" fill="#888888"/>
<rect x="396.513" y="441.648" width="117.366" height="310.569" transform="rotate(-90 396.513 441.648)" fill="#2FA4DA"/>
<path d="M516.329 362.596L499.337 411.893H489.063L510.469 355.018L517.032 355.018L516.329 362.596ZM530.548 411.893L513.516 362.596L512.774 355.018L519.376 355.018L540.86 411.893L530.548 411.893ZM529.727 390.799L529.727 398.573H498.79L498.79 390.799L529.727 390.799ZM568.829 390.682H554.024L554.024 382.909H568.829C571.407 382.909 573.49 382.492 575.079 381.659C576.667 380.825 577.826 379.68 578.555 378.221C579.311 376.737 579.688 375.044 579.688 373.143C579.688 371.346 579.311 369.667 578.555 368.104C577.826 366.515 576.667 365.239 575.079 364.276C573.49 363.312 571.407 362.831 568.829 362.831H557.032L557.032 411.893H547.227L547.227 355.018H568.829C573.23 355.018 576.967 355.799 580.04 357.362C583.139 358.898 585.495 361.034 587.11 363.768C588.725 366.476 589.532 369.575 589.532 373.065C589.532 376.737 588.725 379.888 587.11 382.518C585.495 385.148 583.139 387.167 580.04 388.573C576.967 389.979 573.23 390.682 568.829 390.682ZM608.79 355.018L608.79 411.893H598.985L598.985 355.018H608.79Z" fill="white"/>
<rect x="396.513" y="849.859" width="117.366" height="310.569" transform="rotate(-90 396.513 849.859)" fill="#2FA4DA"/>
<path d="M481.837 763.229L481.837 820.104H472.032L472.032 763.229H481.837ZM505.04 788.112L505.04 795.886H479.337L479.337 788.112H505.04ZM508.282 763.229L508.282 771.042H479.337L479.337 763.229H508.282ZM525.235 760.104L525.235 820.104H515.782L515.782 760.104H525.235ZM545.626 777.839L545.626 820.104H536.173L536.173 777.839H545.626ZM535.548 766.745C535.548 765.313 536.016 764.128 536.954 763.19C537.917 762.227 539.245 761.745 540.938 761.745C542.605 761.745 543.92 762.227 544.883 763.19C545.847 764.128 546.329 765.313 546.329 766.745C546.329 768.151 545.847 769.323 544.883 770.261C543.92 771.198 542.605 771.667 540.938 771.667C539.245 771.667 537.917 771.198 536.954 770.261C536.016 769.323 535.548 768.151 535.548 766.745ZM565.274 786.862L565.274 820.104H555.86L555.86 777.839H564.727L565.274 786.862ZM563.594 797.409L560.548 797.37C560.574 794.375 560.99 791.628 561.798 789.128C562.631 786.628 563.777 784.479 565.235 782.683C566.719 780.886 568.49 779.506 570.548 778.542C572.605 777.552 574.897 777.058 577.423 777.058C579.454 777.058 581.29 777.344 582.93 777.917C584.597 778.464 586.016 779.362 587.188 780.612C588.386 781.862 589.298 783.49 589.923 785.495C590.548 787.474 590.86 789.909 590.86 792.8L590.86 820.104H581.407L581.407 792.761C581.407 790.729 581.107 789.128 580.508 787.956C579.936 786.758 579.089 785.912 577.969 785.417C576.876 784.896 575.508 784.636 573.868 784.636C572.253 784.636 570.808 784.974 569.532 785.651C568.256 786.328 567.175 787.253 566.29 788.425C565.43 789.597 564.766 790.951 564.298 792.487C563.829 794.024 563.594 795.664 563.594 797.409ZM609.962 760.104L609.962 820.104H600.508L600.508 760.104H609.962ZM636.212 777.839L617.813 798.229L607.735 808.542L605.274 800.573L612.891 791.159L624.844 777.839L636.212 777.839ZM626.876 820.104L613.165 800.261L619.102 793.659L637.774 820.104H626.876Z" fill="white"/>
<rect x="104" y="645.367" width="117.366" height="391" transform="rotate(-90 104 645.367)" fill="#2FA4DA"/>
<path d="M166.531 594.401H151.726L151.726 586.627H166.531C169.109 586.627 171.192 586.211 172.781 585.377C174.37 584.544 175.528 583.398 176.258 581.94C177.013 580.455 177.39 578.763 177.39 576.862C177.39 575.065 177.013 573.385 176.258 571.823C175.528 570.234 174.37 568.958 172.781 567.994C171.192 567.031 169.109 566.549 166.531 566.549H154.734L154.734 615.612H144.929L144.929 558.737H166.531C170.932 558.737 174.669 559.518 177.742 561.08C180.841 562.617 183.198 564.752 184.812 567.487C186.427 570.195 187.234 573.294 187.234 576.783C187.234 580.455 186.427 583.606 184.812 586.237C183.198 588.867 180.841 590.885 177.742 592.291C174.669 593.698 170.932 594.401 166.531 594.401ZM192.742 594.948L192.742 594.049C192.742 591.002 193.185 588.177 194.07 585.573C194.955 582.942 196.232 580.664 197.898 578.737C199.591 576.783 201.648 575.273 204.07 574.205C206.518 573.112 209.278 572.565 212.351 572.565C215.45 572.565 218.211 573.112 220.633 574.205C223.08 575.273 225.151 576.783 226.844 578.737C228.536 580.664 229.825 582.942 230.711 585.573C231.596 588.177 232.039 591.002 232.039 594.049L232.039 594.948C232.039 597.994 231.596 600.82 230.711 603.424C229.825 606.028 228.536 608.307 226.844 610.26C225.151 612.187 223.094 613.698 220.672 614.791C218.25 615.859 215.502 616.393 212.429 616.393C209.33 616.393 206.557 615.859 204.109 614.791C201.687 613.698 199.63 612.187 197.937 610.26C196.245 608.307 194.955 606.028 194.07 603.424C193.185 600.82 192.742 597.994 192.742 594.948ZM202.156 594.049L202.156 594.948C202.156 596.849 202.351 598.645 202.742 600.338C203.133 602.031 203.745 603.515 204.578 604.791C205.411 606.067 206.479 607.07 207.781 607.799C209.083 608.528 210.633 608.893 212.429 608.893C214.174 608.893 215.685 608.528 216.961 607.799C218.263 607.07 219.33 606.067 220.164 604.791C220.997 603.515 221.609 602.031 222 600.338C222.416 598.645 222.625 596.849 222.625 594.948L222.625 594.049C222.625 592.174 222.416 590.403 222 588.737C221.609 587.044 220.984 585.546 220.125 584.244C219.291 582.942 218.224 581.927 216.922 581.198C215.646 580.442 214.122 580.065 212.351 580.065C210.58 580.065 209.044 580.442 207.742 581.198C206.466 581.927 205.411 582.942 204.578 584.244C203.745 585.546 203.133 587.044 202.742 588.737C202.351 590.403 202.156 592.174 202.156 594.049ZM263.64 604.166C263.64 603.229 263.406 602.382 262.937 601.627C262.469 600.846 261.57 600.143 260.242 599.518C258.94 598.893 257.013 598.32 254.461 597.799C252.221 597.304 250.164 596.718 248.289 596.041C246.44 595.338 244.851 594.492 243.523 593.502C242.195 592.513 241.166 591.341 240.437 589.987C239.708 588.632 239.344 587.07 239.344 585.299C239.344 583.58 239.721 581.953 240.476 580.416C241.232 578.88 242.312 577.526 243.719 576.354C245.125 575.182 246.83 574.257 248.836 573.58C250.867 572.903 253.133 572.565 255.633 572.565C259.174 572.565 262.208 573.164 264.734 574.362C267.286 575.533 269.239 577.135 270.594 579.166C271.948 581.171 272.625 583.437 272.625 585.963H263.211C263.211 584.843 262.924 583.802 262.351 582.838C261.804 581.849 260.971 581.054 259.851 580.455C258.732 579.83 257.325 579.518 255.633 579.518C254.018 579.518 252.677 579.778 251.609 580.299C250.567 580.794 249.786 581.445 249.265 582.252C248.771 583.059 248.523 583.945 248.523 584.908C248.523 585.612 248.653 586.25 248.914 586.823C249.2 587.369 249.669 587.877 250.32 588.346C250.971 588.789 251.857 589.205 252.976 589.596C254.122 589.987 255.554 590.364 257.273 590.729C260.502 591.406 263.276 592.278 265.594 593.346C267.937 594.388 269.734 595.742 270.984 597.408C272.234 599.049 272.859 601.132 272.859 603.658C272.859 605.533 272.455 607.252 271.648 608.815C270.867 610.351 269.721 611.692 268.211 612.838C266.7 613.958 264.89 614.83 262.781 615.455C260.698 616.08 258.354 616.393 255.75 616.393C251.922 616.393 248.679 615.716 246.023 614.362C243.367 612.981 241.349 611.224 239.969 609.088C238.614 606.927 237.937 604.687 237.937 602.369H247.039C247.143 604.114 247.625 605.507 248.484 606.549C249.37 607.565 250.463 608.307 251.765 608.776C253.094 609.218 254.461 609.44 255.867 609.44C257.56 609.44 258.979 609.218 260.125 608.776C261.271 608.307 262.143 607.682 262.742 606.901C263.341 606.093 263.64 605.182 263.64 604.166ZM300.476 573.346L300.476 580.221H276.648L276.648 573.346H300.476ZM283.523 562.994H292.937L292.937 603.932C292.937 605.234 293.12 606.237 293.484 606.94C293.875 607.617 294.409 608.073 295.086 608.307C295.763 608.541 296.557 608.658 297.469 608.658C298.12 608.658 298.745 608.619 299.344 608.541C299.942 608.463 300.424 608.385 300.789 608.307L300.828 615.494C300.047 615.729 299.135 615.937 298.094 616.119C297.078 616.302 295.906 616.393 294.578 616.393C292.416 616.393 290.502 616.015 288.836 615.26C287.169 614.479 285.867 613.216 284.929 611.471C283.992 609.726 283.523 607.408 283.523 604.518L283.523 562.994ZM334.812 573.346L343.367 573.346L343.367 614.44C343.367 618.242 342.56 621.471 340.945 624.127C339.33 626.783 337.078 628.802 334.187 630.182C331.297 631.588 327.95 632.291 324.148 632.291C322.534 632.291 320.737 632.057 318.758 631.588C316.804 631.119 314.903 630.364 313.054 629.323C311.232 628.307 309.708 626.966 308.484 625.299L312.898 619.752C314.409 621.549 316.075 622.864 317.898 623.698C319.721 624.531 321.635 624.948 323.64 624.948C325.802 624.948 327.638 624.544 329.148 623.737C330.685 622.955 331.87 621.796 332.703 620.26C333.536 618.724 333.953 616.849 333.953 614.635L333.953 582.916L334.812 573.346ZM306.101 594.948L306.101 594.127C306.101 590.924 306.492 588.007 307.273 585.377C308.054 582.721 309.174 580.442 310.633 578.541C312.091 576.614 313.862 575.143 315.945 574.127C318.028 573.086 320.385 572.565 323.015 572.565C325.75 572.565 328.08 573.059 330.008 574.049C331.961 575.039 333.588 576.458 334.89 578.307C336.192 580.13 337.208 582.317 337.937 584.869C338.692 587.395 339.252 590.208 339.617 593.307L339.617 595.924C339.278 598.945 338.705 601.705 337.898 604.205C337.091 606.705 336.023 608.867 334.695 610.69C333.367 612.513 331.726 613.919 329.773 614.908C327.846 615.898 325.567 616.393 322.937 616.393C320.359 616.393 318.028 615.859 315.945 614.791C313.888 613.724 312.117 612.226 310.633 610.299C309.174 608.372 308.054 606.106 307.273 603.502C306.492 600.872 306.101 598.02 306.101 594.948ZM315.515 594.127L315.515 594.948C315.515 596.875 315.698 598.671 316.062 600.338C316.453 602.005 317.039 603.476 317.82 604.752C318.627 606.002 319.643 606.992 320.867 607.721C322.117 608.424 323.588 608.776 325.281 608.776C327.495 608.776 329.304 608.307 330.711 607.369C332.143 606.432 333.237 605.169 333.992 603.58C334.773 601.966 335.32 600.169 335.633 598.19L335.633 591.119C335.476 589.583 335.151 588.151 334.656 586.823C334.187 585.494 333.549 584.336 332.742 583.346C331.935 582.33 330.919 581.549 329.695 581.002C328.471 580.429 327.026 580.143 325.359 580.143C323.666 580.143 322.195 580.507 320.945 581.237C319.695 581.966 318.666 582.968 317.859 584.244C317.078 585.52 316.492 587.005 316.101 588.698C315.711 590.39 315.515 592.2 315.515 594.127ZM362.586 581.393L362.586 615.612L353.172 615.612L353.172 573.346H362.156L362.586 581.393ZM375.515 573.073L375.437 581.823C374.864 581.718 374.239 581.64 373.562 581.588C372.911 581.536 372.26 581.51 371.609 581.51C369.995 581.51 368.575 581.744 367.351 582.213C366.127 582.656 365.099 583.307 364.265 584.166C363.458 585 362.833 586.015 362.39 587.213C361.948 588.411 361.687 589.752 361.609 591.237L359.461 591.393C359.461 588.737 359.721 586.276 360.242 584.01C360.763 581.744 361.544 579.752 362.586 578.033C363.653 576.315 364.982 574.974 366.57 574.01C368.185 573.046 370.047 572.565 372.156 572.565C372.729 572.565 373.341 572.617 373.992 572.721C374.669 572.825 375.177 572.942 375.515 573.073ZM399.265 616.393C396.14 616.393 393.315 615.885 390.789 614.869C388.289 613.828 386.153 612.382 384.383 610.533C382.638 608.684 381.297 606.51 380.359 604.01C379.422 601.51 378.953 598.815 378.953 595.924L378.953 594.362C378.953 591.054 379.435 588.059 380.398 585.377C381.362 582.695 382.703 580.403 384.422 578.502C386.14 576.575 388.172 575.104 390.515 574.088C392.859 573.073 395.398 572.565 398.133 572.565C401.153 572.565 403.797 573.073 406.062 574.088C408.328 575.104 410.203 576.536 411.687 578.385C413.198 580.208 414.317 582.382 415.047 584.908C415.802 587.434 416.179 590.221 416.179 593.268L416.179 597.291H383.523L383.523 590.533H406.883L406.883 589.791C406.83 588.099 406.492 586.51 405.867 585.026C405.268 583.541 404.344 582.343 403.094 581.432C401.844 580.52 400.177 580.065 398.094 580.065C396.531 580.065 395.138 580.403 393.914 581.08C392.716 581.731 391.713 582.682 390.906 583.932C390.099 585.182 389.474 586.692 389.031 588.463C388.614 590.208 388.406 592.174 388.406 594.362L388.406 595.924C388.406 597.773 388.653 599.492 389.148 601.08C389.669 602.643 390.424 604.01 391.414 605.182C392.403 606.354 393.601 607.278 395.008 607.955C396.414 608.606 398.015 608.932 399.812 608.932C402.078 608.932 404.096 608.476 405.867 607.565C407.638 606.653 409.174 605.364 410.476 603.698L415.437 608.502C414.526 609.83 413.341 611.106 411.883 612.33C410.424 613.528 408.64 614.505 406.531 615.26C404.448 616.015 402.026 616.393 399.265 616.393ZM447.234 604.166C447.234 603.229 447 602.382 446.531 601.627C446.062 600.846 445.164 600.143 443.836 599.518C442.534 598.893 440.607 598.32 438.054 597.799C435.815 597.304 433.758 596.718 431.883 596.041C430.034 595.338 428.445 594.492 427.117 593.502C425.789 592.513 424.76 591.341 424.031 589.987C423.302 588.632 422.937 587.07 422.937 585.299C422.937 583.58 423.315 581.953 424.07 580.416C424.825 578.88 425.906 577.526 427.312 576.354C428.719 575.182 430.424 574.257 432.429 573.58C434.461 572.903 436.726 572.565 439.226 572.565C442.768 572.565 445.802 573.164 448.328 574.362C450.88 575.533 452.833 577.135 454.187 579.166C455.541 581.171 456.219 583.437 456.219 585.963H446.804C446.804 584.843 446.518 583.802 445.945 582.838C445.398 581.849 444.565 581.054 443.445 580.455C442.325 579.83 440.919 579.518 439.226 579.518C437.612 579.518 436.271 579.778 435.203 580.299C434.161 580.794 433.38 581.445 432.859 582.252C432.364 583.059 432.117 583.945 432.117 584.908C432.117 585.612 432.247 586.25 432.508 586.823C432.794 587.369 433.263 587.877 433.914 588.346C434.565 588.789 435.45 589.205 436.57 589.596C437.716 589.987 439.148 590.364 440.867 590.729C444.096 591.406 446.87 592.278 449.187 593.346C451.531 594.388 453.328 595.742 454.578 597.408C455.828 599.049 456.453 601.132 456.453 603.658C456.453 605.533 456.049 607.252 455.242 608.815C454.461 610.351 453.315 611.692 451.804 612.838C450.294 613.958 448.484 614.83 446.375 615.455C444.291 616.08 441.948 616.393 439.344 616.393C435.515 616.393 432.273 615.716 429.617 614.362C426.961 612.981 424.942 611.224 423.562 609.088C422.208 606.927 421.531 604.687 421.531 602.369H430.633C430.737 604.114 431.219 605.507 432.078 606.549C432.963 607.565 434.057 608.307 435.359 608.776C436.687 609.218 438.054 609.44 439.461 609.44C441.153 609.44 442.573 609.218 443.719 608.776C444.864 608.307 445.737 607.682 446.336 606.901C446.935 606.093 447.234 605.182 447.234 604.166Z" fill="white"/>
<rect x="614" y="645.367" width="117.366" height="267" transform="rotate(-90 614 645.367)" fill="#2FA4DA"/>
<path d="M659.687 558.737L659.687 615.612H649.883L649.883 558.737H659.687ZM693.867 558.737L670.82 586.119L657.695 600.026L655.976 590.299L665.351 578.737L681.914 558.737H693.867ZM683.32 615.612L664.609 588.658L671.367 581.979L694.961 615.612H683.32ZM723.32 607.135L723.32 586.979C723.32 585.468 723.047 584.166 722.5 583.073C721.953 581.979 721.12 581.132 720 580.533C718.906 579.934 717.526 579.635 715.859 579.635C714.323 579.635 712.995 579.895 711.875 580.416C710.755 580.937 709.883 581.64 709.258 582.526C708.633 583.411 708.32 584.414 708.32 585.533H698.945C698.945 583.867 699.349 582.252 700.156 580.69C700.963 579.127 702.135 577.734 703.672 576.51C705.208 575.286 707.044 574.323 709.179 573.619C711.315 572.916 713.711 572.565 716.367 572.565C719.544 572.565 722.357 573.099 724.804 574.166C727.278 575.234 729.219 576.849 730.625 579.01C732.057 581.145 732.773 583.828 732.773 587.057L732.773 605.846C732.773 607.773 732.903 609.505 733.164 611.041C733.45 612.552 733.854 613.867 734.375 614.987L734.375 615.612H724.726C724.284 614.596 723.932 613.307 723.672 611.744C723.437 610.156 723.32 608.619 723.32 607.135ZM724.687 589.908L724.765 595.729H718.008C716.263 595.729 714.726 595.898 713.398 596.237C712.07 596.549 710.963 597.018 710.078 597.643C709.192 598.268 708.528 599.023 708.086 599.908C707.643 600.794 707.422 601.796 707.422 602.916C707.422 604.036 707.682 605.065 708.203 606.002C708.724 606.914 709.479 607.63 710.469 608.151C711.484 608.671 712.708 608.932 714.14 608.932C716.067 608.932 717.747 608.541 719.179 607.76C720.638 606.953 721.784 605.976 722.617 604.83C723.45 603.658 723.893 602.552 723.945 601.51L726.992 605.69C726.679 606.757 726.146 607.903 725.39 609.127C724.635 610.351 723.646 611.523 722.422 612.643C721.224 613.737 719.778 614.635 718.086 615.338C716.419 616.041 714.492 616.393 712.304 616.393C709.544 616.393 707.083 615.846 704.922 614.752C702.76 613.632 701.067 612.135 699.844 610.26C698.62 608.359 698.008 606.211 698.008 603.815C698.008 601.575 698.424 599.596 699.258 597.877C700.117 596.132 701.367 594.674 703.008 593.502C704.674 592.33 706.705 591.445 709.101 590.846C711.497 590.221 714.232 589.908 717.304 589.908H724.687ZM755.351 615.612H745.937L745.937 569.283C745.937 566.132 746.523 563.489 747.695 561.354C748.893 559.192 750.599 557.565 752.812 556.471C755.026 555.351 757.643 554.791 760.664 554.791C761.601 554.791 762.526 554.856 763.437 554.987C764.349 555.091 765.234 555.26 766.094 555.494L765.859 562.76C765.338 562.63 764.765 562.539 764.14 562.487C763.541 562.434 762.89 562.408 762.187 562.408C760.755 562.408 759.518 562.682 758.476 563.229C757.461 563.75 756.679 564.518 756.133 565.533C755.612 566.549 755.351 567.799 755.351 569.283L755.351 615.612ZM764.062 573.346L764.062 580.221H739.453L739.453 573.346H764.062ZM780.39 555.612L780.39 615.612H770.937L770.937 555.612H780.39ZM806.64 573.346L788.242 593.737L778.164 604.049L775.703 596.08L783.32 586.666L795.273 573.346H806.64ZM797.304 615.612L783.594 595.768L789.531 589.166L808.203 615.612H797.304ZM836.445 607.135L836.445 586.979C836.445 585.468 836.172 584.166 835.625 583.073C835.078 581.979 834.245 581.132 833.125 580.533C832.031 579.934 830.651 579.635 828.984 579.635C827.448 579.635 826.12 579.895 825 580.416C823.88 580.937 823.008 581.64 822.383 582.526C821.758 583.411 821.445 584.414 821.445 585.533H812.07C812.07 583.867 812.474 582.252 813.281 580.69C814.088 579.127 815.26 577.734 816.797 576.51C818.333 575.286 820.169 574.323 822.304 573.619C824.44 572.916 826.836 572.565 829.492 572.565C832.669 572.565 835.482 573.099 837.929 574.166C840.403 575.234 842.344 576.849 843.75 579.01C845.182 581.145 845.898 583.828 845.898 587.057L845.898 605.846C845.898 607.773 846.028 609.505 846.289 611.041C846.575 612.552 846.979 613.867 847.5 614.987L847.5 615.612H837.851C837.409 614.596 837.057 613.307 836.797 611.744C836.562 610.156 836.445 608.619 836.445 607.135ZM837.812 589.908L837.89 595.729H831.133C829.388 595.729 827.851 595.898 826.523 596.237C825.195 596.549 824.088 597.018 823.203 597.643C822.317 598.268 821.653 599.023 821.211 599.908C820.768 600.794 820.547 601.796 820.547 602.916C820.547 604.036 820.807 605.065 821.328 606.002C821.849 606.914 822.604 607.63 823.594 608.151C824.609 608.671 825.833 608.932 827.265 608.932C829.192 608.932 830.872 608.541 832.304 607.76C833.763 606.953 834.909 605.976 835.742 604.83C836.575 603.658 837.018 602.552 837.07 601.51L840.117 605.69C839.804 606.757 839.271 607.903 838.515 609.127C837.76 610.351 836.771 611.523 835.547 612.643C834.349 613.737 832.903 614.635 831.211 615.338C829.544 616.041 827.617 616.393 825.429 616.393C822.669 616.393 820.208 615.846 818.047 614.752C815.885 613.632 814.192 612.135 812.969 610.26C811.745 608.359 811.133 606.211 811.133 603.815C811.133 601.575 811.549 599.596 812.383 597.877C813.242 596.132 814.492 594.674 816.133 593.502C817.799 592.33 819.83 591.445 822.226 590.846C824.622 590.221 827.357 589.908 830.429 589.908H837.812Z" fill="white"/>
<rect x="61" y="288" width="1012" height="598" stroke="#2FA4DA" stroke-width="6"/>
<path d="M550 239L584.641 299L515.359 299L550 239ZM544 331L544 293L556 293L556 331L544 331Z" fill="#2FA4DA"/>
<path d="M437 645L471.641 705L402.359 705L437 645ZM431 737L431 699L443 699L443 737L431 737Z" fill="#2FA4DA"/>
<path d="M437 443L471.641 503L402.359 503L437 443ZM431 535L431 497L443 497L443 535L431 535Z" fill="#2FA4DA"/>
<path d="M664 645L698.641 705L629.359 705L664 645ZM658 737L658 699L670 699L670 737L658 737Z" fill="#2FA4DA"/>
<path d="M664 443L698.641 503L629.359 503L664 443ZM658 535L658 497L670 497L670 535L658 535Z" fill="#2FA4DA"/>
<path d="M553 860L509.699 935L596.301 935L553 860ZM560.5 1009L560.5 927.5L545.5 927.5L545.5 1009L560.5 1009Z" fill="#888888"/>
<defs>
<linearGradient id="paint0_linear_601_109" x1="393.001" y1="962.077" x2="393.001" y2="1138.86" gradientUnits="userSpaceOnUse">
<stop stop-color="#4387FD"/>
<stop offset="1" stop-color="#4683EA"/>
</linearGradient>
<clipPath id="clip0_601_109">
<rect width="262" height="262" fill="white" transform="translate(584 920)"/>
</clipPath>
<clipPath id="clip1_601_109">
<rect width="191" height="231" fill="white" transform="translate(43 922)"/>
</clipPath>
</defs>
</svg>
