<svg width="1752" height="1182" viewBox="0 0 1752 1182" fill="none" xmlns="http://www.w3.org/2000/svg">
<g clip-path="url(#clip0_601_109)">
<path d="M733.576 1078.37L735.048 1079.42L736.237 1078.06C739.244 1074.62 742.95 1071.87 747.108 1069.98C751.265 1068.1 755.778 1067.12 760.343 1067.12C768.867 1067.13 777.036 1070.53 783.063 1076.55C789.09 1082.58 792.483 1090.75 792.501 1099.27C792.483 1107.8 789.09 1115.97 783.063 1121.99C777.035 1128.02 768.866 1131.41 760.342 1131.43C751.819 1131.41 743.649 1128.02 737.622 1121.99C731.595 1115.97 728.202 1107.8 728.184 1099.27C728.189 1096.21 728.632 1093.17 729.502 1090.24L729.909 1088.86L728.74 1088.04L712.586 1076.6L711.063 1075.52L709.882 1076.97C703.548 1084.72 694.519 1090.15 684.245 1091.87L682.575 1092.15V1093.85V1114.5V1116.11L684.145 1116.46C698.57 1119.63 709.396 1132.49 709.398 1147.84C709.381 1156.36 705.987 1164.53 699.959 1170.56C693.932 1176.59 685.763 1179.98 677.24 1180C668.718 1179.98 660.55 1176.59 654.525 1170.56C648.499 1164.53 645.106 1156.36 645.089 1147.84C645.09 1132.49 655.932 1119.54 670.33 1116.46L671.911 1116.12V1114.5V1093.85V1092.15L670.243 1091.87C650.34 1088.53 635.125 1071.21 635.125 1050.39C635.125 1029.66 650.192 1012.42 669.945 1009.05L671.609 1008.76V1007.07V987.424V985.832L670.057 985.475C655.768 982.19 645.082 969.413 645.081 954.161C645.098 945.636 648.491 937.466 654.519 931.438C660.546 925.411 668.716 922.017 677.239 922C685.759 922.015 693.926 925.404 699.954 931.424C705.982 937.445 709.38 945.608 709.406 954.128C709.392 961.502 706.849 968.648 702.202 974.374C697.554 980.101 691.081 984.06 683.866 985.59L682.281 985.926V987.547V1006.87V1008.57L683.961 1008.84C694.441 1010.54 703.641 1016.08 710.037 1024.01L711.212 1025.47L712.743 1024.39L728.766 1013.14L729.937 1012.32L729.537 1010.94C728.668 1007.96 728.193 1004.97 728.192 1001.81C728.209 993.28 731.602 985.109 737.63 979.081C743.657 973.054 751.827 969.66 760.351 969.643C768.874 969.66 777.044 973.054 783.071 979.081C789.098 985.108 792.492 993.278 792.509 1001.8C792.492 1010.32 789.098 1018.49 783.071 1024.52C777.043 1030.55 768.873 1033.94 760.348 1033.96C755.795 1033.96 751.295 1032.98 747.147 1031.1C742.999 1029.22 739.298 1026.48 736.292 1023.06L735.108 1021.72L733.64 1022.75L717.625 1033.99L716.375 1034.86L716.893 1036.3C718.521 1040.82 719.358 1045.58 719.37 1050.38C719.37 1055.4 718.434 1060.2 716.804 1064.69L716.284 1066.13L717.529 1067.01L733.576 1078.37ZM778.897 1001.82C778.897 991.585 770.577 983.254 760.342 983.254C750.107 983.254 741.787 991.585 741.787 1001.82C741.787 1012.05 750.109 1020.37 760.342 1020.37C770.576 1020.37 778.897 1012.05 778.897 1001.82ZM677.247 935.603C667.006 935.603 658.684 943.924 658.684 954.158C658.684 964.393 667.015 972.713 677.247 972.713C687.481 972.713 695.803 964.392 695.803 954.158C695.803 943.925 687.49 935.603 677.247 935.603ZM677.239 1166.41C687.473 1166.41 695.794 1158.09 695.794 1147.86C695.794 1137.63 687.482 1129.3 677.239 1129.3C666.998 1129.3 658.676 1137.62 658.676 1147.86C658.676 1158.09 667.007 1166.41 677.239 1166.41ZM652.142 1050.41C652.142 1064.25 663.386 1075.5 677.231 1075.5C691.067 1075.5 702.32 1064.25 702.32 1050.41C702.32 1036.57 691.067 1025.32 677.231 1025.32C663.395 1025.32 652.142 1036.57 652.142 1050.41ZM741.779 1099.28C741.779 1109.51 750.099 1117.85 760.334 1117.85C770.569 1117.85 778.889 1109.51 778.889 1099.28C778.889 1089.05 770.568 1080.73 760.334 1080.73C750.101 1080.73 741.779 1089.05 741.779 1099.28Z" fill="black" stroke="white" stroke-width="4"/>
</g>
<path d="M1031 1050.5C1031 1067.9 993.389 1082 947 1082C900.611 1082 863 1067.9 863 1050.5" stroke="#888888" stroke-width="12"/>
<path d="M1031 1113.5C1031 1130.9 993.389 1145 947 1145C900.611 1145 863 1130.9 863 1113.5" stroke="#888888" stroke-width="12"/>
<path d="M947 1020C993.392 1020 1031 1005.9 1031 988.5C1031 971.103 993.392 957 947 957C900.608 957 863 971.103 863 988.5C863 1005.9 900.608 1020 947 1020Z" stroke="#888888" stroke-width="12"/>
<path d="M863 987.5V1113.5Z" fill="white"/>
<path d="M863 987.5V1113.5" stroke="#888888" stroke-width="12"/>
<path d="M1031 987.5V1113.5Z" fill="white"/>
<path d="M1031 987.5V1113.5" stroke="#888888" stroke-width="12"/>
<g clip-path="url(#clip1_601_109)">
<path d="M58.4063 962.005L43.0225 969.69V1104.58L58.4063 1112.22L58.4988 1112.11V962.111L58.4063 962.005Z" fill="#8C3123"/>
<path d="M140.738 1092.64L58.4062 1112.22V962.005L140.738 981.156V1092.64Z" fill="#E05243"/>
<path d="M103.575 1061.99L138.497 1066.43L138.716 1065.93L138.913 1008.72L138.497 1008.27L103.575 1012.65V1061.99Z" fill="#8C3123"/>
<path d="M138.497 1092.86L218.587 1112.26L218.713 1112.06L218.711 962.139L218.584 962.005L138.497 981.376V1092.86Z" fill="#8C3123"/>
<path d="M173.429 1061.99L138.497 1066.43V1008.27L173.429 1012.65V1061.99Z" fill="#E05243"/>
<path d="M173.429 988.789L138.497 995.149L103.575 988.789L138.453 979.657L173.429 988.789Z" fill="#5E1F18"/>
<path d="M173.429 1085.79L138.497 1079.39L103.575 1085.79L138.455 1095.51L173.429 1085.79Z" fill="#F2B0A9"/>
<path d="M103.575 988.79L138.497 980.156L138.78 980.069V922.233L138.497 922L103.575 939.446V988.79Z" fill="#8C3123"/>
<path d="M173.429 988.79L138.497 980.156V922L173.429 939.446V988.79Z" fill="#E05243"/>
<path d="M138.497 1152.57L103.571 1135.13V1085.79L138.497 1094.42L139.011 1095L138.871 1151.57L138.497 1152.57Z" fill="#8C3123"/>
<path d="M138.497 1152.57L173.426 1135.13V1085.79L138.497 1094.42V1152.57ZM218.587 962.005L233.978 969.69V1104.58L218.587 1112.26V962.005Z" fill="#E05243"/>
</g>
<path d="M336.727 1130.2L295.932 1059.54C294.363 1056.83 293.537 1053.74 293.537 1050.61C293.537 1047.47 294.363 1044.39 295.932 1041.67L336.727 971.012C338.295 968.295 340.552 966.038 343.269 964.47C345.986 962.901 349.068 962.075 352.205 962.076H433.796C436.933 962.076 440.015 962.902 442.732 964.47C445.448 966.039 447.704 968.295 449.273 971.012L490.068 1041.67C491.637 1044.39 492.463 1047.47 492.463 1050.61C492.463 1053.75 491.637 1056.83 490.068 1059.54L449.273 1130.2C447.704 1132.92 445.448 1135.18 442.731 1136.75C440.014 1138.31 436.933 1139.14 433.796 1139.14H352.205C349.068 1139.14 345.986 1138.31 343.269 1136.74C340.552 1135.18 338.295 1132.92 336.727 1130.2Z" fill="url(#paint0_linear_601_109)"/>
<path opacity="0.07" d="M481.668 1074.82L432.192 1025.35L423.088 1027.23L400.393 1004.54L393.131 1018.12L389.193 1033.83L395.858 1040.5L383.056 1043.11L365.501 1025.56L353.581 1037.02L375.529 1058.97L352.264 1077.46L414.728 1139.93L445.159 1139.63L481.668 1074.82Z" fill="black"/>
<path d="M426.443 1039.57C431.013 1039.57 434.717 1035.87 434.717 1031.3C434.717 1026.73 431.013 1023.03 426.443 1023.03C421.874 1023.03 418.169 1026.73 418.169 1031.3C418.169 1035.87 421.874 1039.57 426.443 1039.57Z" fill="white"/>
<path d="M359.556 1039.57C364.126 1039.57 367.83 1035.87 367.83 1031.3C367.83 1026.73 364.126 1023.03 359.556 1023.03C354.987 1023.03 351.282 1026.73 351.282 1031.3C351.282 1035.87 354.987 1039.57 359.556 1039.57Z" fill="white"/>
<path d="M393 1097.5C397.571 1097.5 401.276 1093.8 401.276 1089.23C401.276 1084.66 397.571 1080.95 393 1080.95C388.43 1080.95 384.725 1084.66 384.725 1089.23C384.725 1093.8 388.43 1097.5 393 1097.5Z" fill="white"/>
<path d="M393 1063.98C400.384 1063.98 406.369 1057.99 406.369 1050.61C406.369 1043.22 400.384 1037.24 393 1037.24C385.617 1037.24 379.632 1043.22 379.632 1050.61C379.632 1057.99 385.617 1063.98 393 1063.98Z" fill="white"/>
<path d="M359.556 1080.42C365.357 1080.42 370.059 1075.72 370.059 1069.92C370.059 1064.12 365.357 1059.41 359.556 1059.41C353.756 1059.41 349.054 1064.12 349.054 1069.92C349.054 1075.72 353.756 1080.42 359.556 1080.42Z" fill="white"/>
<path d="M426.443 1080.42C432.244 1080.42 436.946 1075.72 436.946 1069.92C436.946 1064.12 432.244 1059.41 426.443 1059.41C420.643 1059.41 415.941 1064.12 415.941 1069.92C415.941 1075.72 420.643 1080.42 426.443 1080.42Z" fill="white"/>
<path d="M393 1022.49C398.802 1022.49 403.505 1017.79 403.505 1011.99C403.505 1006.19 398.802 1001.49 393 1001.49C387.199 1001.49 382.496 1006.19 382.496 1011.99C382.496 1017.79 387.199 1022.49 393 1022.49Z" fill="white"/>
<path d="M465.024 164.106L473.038 168.733L562.322 14.0937L554.308 9.46642L465.024 164.106Z" fill="#E535AB"/>
<path d="M641.756 151.751H463.188V161.006H641.756V151.751Z" fill="#E535AB"/>
<path d="M466.722 156.951L556.039 208.52L560.666 200.505L471.349 148.936L466.722 156.951Z" fill="#E535AB"/>
<path d="M544.312 22.5492L633.629 74.1179L638.256 66.1035L548.939 14.5348L544.312 22.5492Z" fill="#E535AB"/>
<path d="M466.747 66.0684L471.374 74.0828L560.691 22.514L556.064 14.4996L466.747 66.0684Z" fill="#E535AB"/>
<path d="M542.698 14.0956L631.982 168.735L639.996 164.108L550.713 9.46838L542.698 14.0956Z" fill="#E535AB"/>
<path d="M479.523 59.9314H470.269V163.069H479.523V59.9314Z" fill="#E535AB"/>
<path d="M634.731 59.9314H625.477V163.069H634.731V59.9314Z" fill="#E535AB"/>
<path d="M550.422 197.602L554.464 204.602L632.145 159.751L628.103 152.751L550.422 197.602Z" fill="#E535AB"/>
<path d="M646.996 166.079C641.644 175.39 629.714 178.567 620.404 173.215C611.093 167.863 607.916 155.933 613.268 146.623C618.62 137.312 630.55 134.135 639.86 139.487C649.226 144.894 652.404 156.769 646.996 166.079Z" fill="#E535AB"/>
<path d="M491.677 76.3775C486.325 85.6878 474.394 88.8655 465.084 83.5135C455.774 78.1615 452.596 66.231 457.948 56.9208C463.3 47.6105 475.231 44.4328 484.541 49.7848C493.851 55.1925 497.029 67.0673 491.677 76.3775Z" fill="#E535AB"/>
<path d="M458.004 166.079C452.652 156.769 455.829 144.894 465.14 139.487C474.45 134.135 486.325 137.312 491.732 146.623C497.084 155.933 493.907 167.808 484.596 173.215C475.23 178.567 463.356 175.39 458.004 166.079Z" fill="#E535AB"/>
<path d="M613.323 76.3775C607.971 67.0673 611.149 55.1925 620.459 49.7848C629.77 44.4328 641.644 47.6105 647.052 56.9208C652.404 66.231 649.226 78.1058 639.916 83.5135C630.606 88.8655 618.675 85.6878 613.323 76.3775Z" fill="#E535AB"/>
<path d="M552.5 220.659C541.74 220.659 533.043 211.962 533.043 201.202C533.043 190.442 541.74 181.745 552.5 181.745C563.26 181.745 571.957 190.442 571.957 201.202C571.957 211.906 563.26 220.659 552.5 220.659Z" fill="#E535AB"/>
<path d="M552.5 41.2551C541.74 41.2551 533.043 32.5581 533.043 21.7983C533.043 11.0386 541.74 2.34155 552.5 2.34155C563.26 2.34155 571.957 11.0386 571.957 21.7983C571.957 32.5581 563.26 41.2551 552.5 41.2551Z" fill="#E535AB"/>
<path d="M1130.49 157.816V171H1092.6V157.816H1130.49ZM1098.7 99.9062V171H1081.56V99.9062H1098.7ZM1125.61 128.129V140.873H1092.6V128.129H1125.61ZM1130.63 99.9062V113.139H1092.6V99.9062H1130.63ZM1150.7 118.168L1158.12 132.719L1165.79 118.168H1182.88L1169.01 143.9L1183.61 171H1166.38L1158.12 155.375L1149.92 171H1132.69L1147.29 143.9L1133.47 118.168H1150.7ZM1216.13 118.168V129.594H1184.3V118.168H1216.13ZM1190.99 105.033H1207.44V153.764C1207.44 155.163 1207.6 156.254 1207.93 157.035C1208.26 157.784 1208.81 158.321 1209.59 158.646C1210.4 158.939 1211.48 159.086 1212.81 159.086C1213.76 159.086 1214.54 159.07 1215.16 159.037C1215.77 158.972 1216.36 158.891 1216.91 158.793V170.561C1215.51 171.016 1214.05 171.358 1212.52 171.586C1210.99 171.846 1209.36 171.977 1207.64 171.977C1204.12 171.977 1201.11 171.423 1198.6 170.316C1196.13 169.21 1194.24 167.468 1192.94 165.092C1191.64 162.715 1190.99 159.623 1190.99 155.814V105.033ZM1248.26 171.977C1243.96 171.977 1240.12 171.309 1236.74 169.975C1233.35 168.607 1230.49 166.736 1228.14 164.359C1225.83 161.983 1224.06 159.249 1222.82 156.156C1221.62 153.064 1221.02 149.792 1221.02 146.342V144.486C1221.02 140.613 1221.55 137.032 1222.63 133.744C1223.7 130.424 1225.3 127.527 1227.41 125.053C1229.53 122.579 1232.18 120.658 1235.37 119.291C1238.56 117.891 1242.27 117.191 1246.5 117.191C1250.25 117.191 1253.6 117.794 1256.56 118.998C1259.52 120.202 1262.03 121.928 1264.08 124.174C1266.17 126.42 1267.74 129.138 1268.82 132.328C1269.93 135.518 1270.48 139.099 1270.48 143.07V149.76H1227.31V139.457H1254.41V138.188C1254.45 136.43 1254.14 134.932 1253.49 133.695C1252.87 132.458 1251.96 131.514 1250.75 130.863C1249.55 130.212 1248.08 129.887 1246.36 129.887C1244.57 129.887 1243.09 130.277 1241.91 131.059C1240.77 131.84 1239.88 132.914 1239.23 134.281C1238.61 135.616 1238.17 137.162 1237.91 138.92C1237.65 140.678 1237.52 142.533 1237.52 144.486V146.342C1237.52 148.295 1237.78 150.069 1238.3 151.664C1238.85 153.259 1239.64 154.626 1240.64 155.766C1241.69 156.872 1242.92 157.735 1244.36 158.354C1245.82 158.972 1247.48 159.281 1249.34 159.281C1251.58 159.281 1253.8 158.858 1255.98 158.012C1258.16 157.165 1260.03 155.766 1261.59 153.812L1269.06 162.699C1267.99 164.229 1266.46 165.71 1264.47 167.143C1262.52 168.575 1260.18 169.747 1257.44 170.658C1254.71 171.537 1251.65 171.977 1248.26 171.977ZM1293.77 131.254V171H1277.31V118.168H1292.7L1293.77 131.254ZM1309.39 117.777L1309.1 133.061C1308.45 132.995 1307.57 132.914 1306.46 132.816C1305.36 132.719 1304.43 132.67 1303.68 132.67C1301.76 132.67 1300.1 132.898 1298.7 133.354C1297.33 133.777 1296.19 134.428 1295.28 135.307C1294.4 136.153 1293.75 137.227 1293.33 138.529C1292.94 139.831 1292.76 141.345 1292.79 143.07L1289.81 141.117C1289.81 137.569 1290.16 134.346 1290.84 131.449C1291.56 128.52 1292.57 125.997 1293.87 123.881C1295.17 121.732 1296.75 120.089 1298.6 118.949C1300.46 117.777 1302.54 117.191 1304.85 117.191C1305.67 117.191 1306.46 117.24 1307.25 117.338C1308.06 117.436 1308.78 117.582 1309.39 117.777ZM1331.22 129.447V171H1314.77V118.168H1330.2L1331.22 129.447ZM1329.27 142.777L1325.41 142.875C1325.41 138.839 1325.9 135.242 1326.88 132.084C1327.85 128.894 1329.24 126.192 1331.03 123.979C1332.82 121.765 1334.95 120.089 1337.42 118.949C1339.93 117.777 1342.71 117.191 1345.77 117.191C1348.21 117.191 1350.44 117.549 1352.46 118.266C1354.51 118.982 1356.27 120.137 1357.73 121.732C1359.23 123.327 1360.37 125.443 1361.15 128.08C1361.97 130.684 1362.37 133.907 1362.37 137.748V171H1345.82V137.699C1345.82 135.583 1345.53 133.972 1344.94 132.865C1344.36 131.726 1343.51 130.945 1342.4 130.521C1341.3 130.098 1339.94 129.887 1338.35 129.887C1336.66 129.887 1335.22 130.212 1334.05 130.863C1332.88 131.514 1331.94 132.426 1331.22 133.598C1330.54 134.737 1330.03 136.088 1329.71 137.65C1329.41 139.213 1329.27 140.922 1329.27 142.777ZM1398.95 157.719V135.941C1398.95 134.444 1398.73 133.158 1398.31 132.084C1397.89 131.01 1397.22 130.18 1396.31 129.594C1395.4 128.975 1394.18 128.666 1392.65 128.666C1391.41 128.666 1390.35 128.878 1389.47 129.301C1388.59 129.724 1387.93 130.359 1387.47 131.205C1387.01 132.051 1386.79 133.126 1386.79 134.428H1370.33C1370.33 131.986 1370.87 129.724 1371.94 127.641C1373.05 125.525 1374.61 123.686 1376.63 122.123C1378.68 120.561 1381.12 119.356 1383.96 118.51C1386.82 117.631 1390.01 117.191 1393.53 117.191C1397.72 117.191 1401.47 117.891 1404.76 119.291C1408.08 120.691 1410.7 122.79 1412.62 125.59C1414.54 128.357 1415.5 131.84 1415.5 136.039V157.67C1415.5 161.12 1415.69 163.741 1416.08 165.531C1416.47 167.289 1417.03 168.835 1417.74 170.17V171H1401.24C1400.46 169.372 1399.87 167.387 1399.48 165.043C1399.12 162.667 1398.95 160.225 1398.95 157.719ZM1400.95 138.725L1401.04 147.514H1393.77C1392.24 147.514 1390.94 147.725 1389.86 148.148C1388.82 148.572 1387.98 149.158 1387.32 149.906C1386.71 150.622 1386.25 151.436 1385.96 152.348C1385.7 153.259 1385.57 154.219 1385.57 155.229C1385.57 156.205 1385.79 157.084 1386.25 157.865C1386.74 158.614 1387.39 159.2 1388.2 159.623C1389.02 160.046 1389.93 160.258 1390.94 160.258C1392.76 160.258 1394.31 159.916 1395.58 159.232C1396.88 158.516 1397.87 157.654 1398.55 156.645C1399.24 155.635 1399.58 154.691 1399.58 153.812L1403.19 160.551C1402.54 161.853 1401.79 163.171 1400.95 164.506C1400.13 165.84 1399.11 167.077 1397.87 168.217C1396.67 169.324 1395.19 170.235 1393.43 170.951C1391.67 171.635 1389.54 171.977 1387.03 171.977C1383.78 171.977 1380.78 171.309 1378.05 169.975C1375.35 168.64 1373.18 166.785 1371.55 164.408C1369.93 161.999 1369.11 159.232 1369.11 156.107C1369.11 153.373 1369.6 150.932 1370.58 148.783C1371.59 146.635 1373.1 144.812 1375.12 143.314C1377.14 141.817 1379.71 140.678 1382.83 139.896C1385.96 139.115 1389.64 138.725 1393.87 138.725H1400.95ZM1442.01 96V171H1425.51V96H1442.01ZM1516.43 99.9062H1533.56V146.342C1533.56 151.876 1532.41 156.563 1530.1 160.404C1527.79 164.213 1524.55 167.094 1520.38 169.047C1516.21 171 1511.32 171.977 1505.68 171.977C1500.12 171.977 1495.22 171 1490.99 169.047C1486.79 167.094 1483.5 164.213 1481.12 160.404C1478.78 156.563 1477.61 151.876 1477.61 146.342V99.9062H1494.79V146.342C1494.79 149.271 1495.22 151.664 1496.06 153.52C1496.91 155.342 1498.15 156.677 1499.78 157.523C1501.4 158.37 1503.37 158.793 1505.68 158.793C1508.03 158.793 1510 158.37 1511.59 157.523C1513.19 156.677 1514.39 155.342 1515.21 153.52C1516.02 151.664 1516.43 149.271 1516.43 146.342V99.9062ZM1571.26 156.156C1571.26 155.245 1570.95 154.464 1570.33 153.812C1569.75 153.129 1568.7 152.51 1567.21 151.957C1565.71 151.371 1563.61 150.785 1560.91 150.199C1558.34 149.646 1555.91 148.913 1553.63 148.002C1551.39 147.09 1549.42 145.984 1547.72 144.682C1546.03 143.38 1544.7 141.833 1543.72 140.043C1542.78 138.253 1542.3 136.202 1542.3 133.891C1542.3 131.645 1542.78 129.529 1543.72 127.543C1544.7 125.525 1546.11 123.751 1547.97 122.221C1549.86 120.658 1552.15 119.438 1554.85 118.559C1557.56 117.647 1560.63 117.191 1564.08 117.191C1568.83 117.191 1572.94 117.924 1576.39 119.389C1579.84 120.821 1582.49 122.839 1584.35 125.443C1586.23 128.015 1587.18 130.993 1587.18 134.379H1570.72C1570.72 133.044 1570.49 131.905 1570.04 130.961C1569.62 130.017 1568.92 129.301 1567.94 128.812C1566.96 128.292 1565.66 128.031 1564.03 128.031C1562.89 128.031 1561.85 128.243 1560.91 128.666C1560 129.089 1559.26 129.675 1558.71 130.424C1558.16 131.173 1557.88 132.051 1557.88 133.061C1557.88 133.777 1558.04 134.428 1558.37 135.014C1558.73 135.567 1559.26 136.088 1559.98 136.576C1560.7 137.032 1561.61 137.455 1562.71 137.846C1563.82 138.204 1565.16 138.529 1566.72 138.822C1570.27 139.473 1573.59 140.401 1576.68 141.605C1579.77 142.81 1582.28 144.519 1584.2 146.732C1586.15 148.946 1587.13 151.924 1587.13 155.668C1587.13 158.012 1586.59 160.176 1585.52 162.162C1584.44 164.115 1582.9 165.84 1580.88 167.338C1578.86 168.803 1576.44 169.942 1573.6 170.756C1570.77 171.57 1567.58 171.977 1564.03 171.977C1558.99 171.977 1554.72 171.081 1551.24 169.291C1547.76 167.468 1545.12 165.189 1543.33 162.455C1541.57 159.688 1540.69 156.889 1540.69 154.057H1556.03C1556.09 155.684 1556.48 157.019 1557.2 158.061C1557.95 159.102 1558.94 159.867 1560.18 160.355C1561.41 160.844 1562.85 161.088 1564.47 161.088C1565.97 161.088 1567.21 160.876 1568.18 160.453C1569.19 160.03 1569.96 159.46 1570.48 158.744C1571 157.995 1571.26 157.133 1571.26 156.156ZM1620.43 171.977C1616.13 171.977 1612.29 171.309 1608.91 169.975C1605.52 168.607 1602.66 166.736 1600.31 164.359C1598 161.983 1596.23 159.249 1594.99 156.156C1593.79 153.064 1593.18 149.792 1593.18 146.342V144.486C1593.18 140.613 1593.72 137.032 1594.79 133.744C1595.87 130.424 1597.46 127.527 1599.58 125.053C1601.7 122.579 1604.35 120.658 1607.54 119.291C1610.73 117.891 1614.44 117.191 1618.67 117.191C1622.42 117.191 1625.77 117.794 1628.73 118.998C1631.69 120.202 1634.2 121.928 1636.25 124.174C1638.33 126.42 1639.91 129.138 1640.99 132.328C1642.09 135.518 1642.65 139.099 1642.65 143.07V149.76H1599.48V139.457H1626.58V138.188C1626.61 136.43 1626.31 134.932 1625.65 133.695C1625.04 132.458 1624.12 131.514 1622.92 130.863C1621.72 130.212 1620.25 129.887 1618.53 129.887C1616.74 129.887 1615.25 130.277 1614.08 131.059C1612.94 131.84 1612.05 132.914 1611.4 134.281C1610.78 135.616 1610.34 137.162 1610.08 138.92C1609.82 140.678 1609.69 142.533 1609.69 144.486V146.342C1609.69 148.295 1609.95 150.069 1610.47 151.664C1611.02 153.259 1611.8 154.626 1612.81 155.766C1613.85 156.872 1615.09 157.735 1616.52 158.354C1617.99 158.972 1619.65 159.281 1621.5 159.281C1623.75 159.281 1625.96 158.858 1628.14 158.012C1630.33 157.165 1632.2 155.766 1633.76 153.812L1641.23 162.699C1640.16 164.229 1638.63 165.71 1636.64 167.143C1634.69 168.575 1632.34 169.747 1629.61 170.658C1626.88 171.537 1623.82 171.977 1620.43 171.977ZM1665.94 131.254V171H1649.48V118.168H1664.86L1665.94 131.254ZM1681.56 117.777L1681.27 133.061C1680.62 132.995 1679.74 132.914 1678.63 132.816C1677.53 132.719 1676.6 132.67 1675.85 132.67C1673.93 132.67 1672.27 132.898 1670.87 133.354C1669.5 133.777 1668.36 134.428 1667.45 135.307C1666.57 136.153 1665.92 137.227 1665.5 138.529C1665.11 139.831 1664.93 141.345 1664.96 143.07L1661.98 141.117C1661.98 137.569 1662.32 134.346 1663.01 131.449C1663.72 128.52 1664.73 125.997 1666.04 123.881C1667.34 121.732 1668.92 120.089 1670.77 118.949C1672.63 117.777 1674.71 117.191 1677.02 117.191C1677.84 117.191 1678.63 117.24 1679.41 117.338C1680.23 117.436 1680.94 117.582 1681.56 117.777ZM1714.91 156.156C1714.91 155.245 1714.6 154.464 1713.98 153.812C1713.4 153.129 1712.36 152.51 1710.86 151.957C1709.36 151.371 1707.26 150.785 1704.56 150.199C1701.99 149.646 1699.56 148.913 1697.29 148.002C1695.04 147.09 1693.07 145.984 1691.38 144.682C1689.68 143.38 1688.35 141.833 1687.37 140.043C1686.43 138.253 1685.96 136.202 1685.96 133.891C1685.96 131.645 1686.43 129.529 1687.37 127.543C1688.35 125.525 1689.77 123.751 1691.62 122.221C1693.51 120.658 1695.8 119.438 1698.51 118.559C1701.21 117.647 1704.28 117.191 1707.73 117.191C1712.49 117.191 1716.59 117.924 1720.04 119.389C1723.49 120.821 1726.14 122.839 1728 125.443C1729.89 128.015 1730.83 130.993 1730.83 134.379H1714.38C1714.38 133.044 1714.15 131.905 1713.69 130.961C1713.27 130.017 1712.57 129.301 1711.59 128.812C1710.62 128.292 1709.31 128.031 1707.69 128.031C1706.55 128.031 1705.5 128.243 1704.56 128.666C1703.65 129.089 1702.92 129.675 1702.36 130.424C1701.81 131.173 1701.53 132.051 1701.53 133.061C1701.53 133.777 1701.7 134.428 1702.02 135.014C1702.38 135.567 1702.92 136.088 1703.63 136.576C1704.35 137.032 1705.26 137.455 1706.37 137.846C1707.47 138.204 1708.81 138.529 1710.37 138.822C1713.92 139.473 1717.24 140.401 1720.33 141.605C1723.42 142.81 1725.93 144.519 1727.85 146.732C1729.8 148.946 1730.78 151.924 1730.78 155.668C1730.78 158.012 1730.24 160.176 1729.17 162.162C1728.1 164.115 1726.55 165.84 1724.53 167.338C1722.51 168.803 1720.09 169.942 1717.26 170.756C1714.42 171.57 1711.23 171.977 1707.69 171.977C1702.64 171.977 1698.38 171.081 1694.89 169.291C1691.41 167.468 1688.77 165.189 1686.98 162.455C1685.22 159.688 1684.35 156.889 1684.35 154.057H1699.68C1699.74 155.684 1700.13 157.019 1700.85 158.061C1701.6 159.102 1702.59 159.867 1703.83 160.355C1705.07 160.844 1706.5 161.088 1708.12 161.088C1709.62 161.088 1710.86 160.876 1711.84 160.453C1712.85 160.03 1713.61 159.46 1714.13 158.744C1714.65 157.995 1714.91 157.133 1714.91 156.156Z" fill="#888888"/>
<path d="M1185.3 542.816V556H1147.41V542.816H1185.3ZM1153.52 484.906V556H1136.38V484.906H1153.52ZM1180.42 513.129V525.873H1147.41V513.129H1180.42ZM1185.45 484.906V498.139H1147.41V484.906H1185.45ZM1209.33 544.721L1219.73 503.168H1237.06L1219.78 556H1209.52L1209.33 544.721ZM1203.17 503.168L1213.43 544.721L1213.33 556H1203.03L1185.79 503.168H1203.17ZM1266.85 556.977C1262.55 556.977 1258.71 556.309 1255.32 554.975C1251.94 553.607 1249.07 551.736 1246.73 549.359C1244.42 546.983 1242.64 544.249 1241.41 541.156C1240.2 538.064 1239.6 534.792 1239.6 531.342V529.486C1239.6 525.613 1240.14 522.032 1241.21 518.744C1242.29 515.424 1243.88 512.527 1246 510.053C1248.11 507.579 1250.76 505.658 1253.96 504.291C1257.15 502.891 1260.86 502.191 1265.09 502.191C1268.83 502.191 1272.18 502.794 1275.15 503.998C1278.11 505.202 1280.62 506.928 1282.67 509.174C1284.75 511.42 1286.33 514.138 1287.4 517.328C1288.51 520.518 1289.06 524.099 1289.06 528.07V534.76H1245.9V524.457H1273V523.188C1273.03 521.43 1272.72 519.932 1272.07 518.695C1271.45 517.458 1270.54 516.514 1269.34 515.863C1268.13 515.212 1266.67 514.887 1264.94 514.887C1263.15 514.887 1261.67 515.277 1260.5 516.059C1259.36 516.84 1258.46 517.914 1257.81 519.281C1257.19 520.616 1256.75 522.162 1256.49 523.92C1256.23 525.678 1256.1 527.533 1256.1 529.486V531.342C1256.1 533.295 1256.36 535.069 1256.88 536.664C1257.44 538.259 1258.22 539.626 1259.23 540.766C1260.27 541.872 1261.51 542.735 1262.94 543.354C1264.4 543.972 1266.06 544.281 1267.92 544.281C1270.17 544.281 1272.38 543.858 1274.56 543.012C1276.74 542.165 1278.61 540.766 1280.18 538.812L1287.65 547.699C1286.57 549.229 1285.04 550.71 1283.06 552.143C1281.1 553.575 1278.76 554.747 1276.03 555.658C1273.29 556.537 1270.23 556.977 1266.85 556.977ZM1311.91 514.447V556H1295.46V503.168H1310.89L1311.91 514.447ZM1309.96 527.777L1306.1 527.875C1306.1 523.839 1306.59 520.242 1307.57 517.084C1308.54 513.894 1309.93 511.192 1311.72 508.979C1313.51 506.765 1315.64 505.089 1318.12 503.949C1320.62 502.777 1323.4 502.191 1326.46 502.191C1328.91 502.191 1331.14 502.549 1333.15 503.266C1335.21 503.982 1336.96 505.137 1338.43 506.732C1339.93 508.327 1341.06 510.443 1341.85 513.08C1342.66 515.684 1343.07 518.907 1343.07 522.748V556H1326.51V522.699C1326.51 520.583 1326.22 518.972 1325.63 517.865C1325.05 516.726 1324.2 515.945 1323.1 515.521C1321.99 515.098 1320.64 514.887 1319.04 514.887C1317.35 514.887 1315.92 515.212 1314.75 515.863C1313.57 516.514 1312.63 517.426 1311.91 518.598C1311.23 519.737 1310.73 521.088 1310.4 522.65C1310.11 524.213 1309.96 525.922 1309.96 527.777ZM1380.03 503.168V514.594H1348.19V503.168H1380.03ZM1354.88 490.033H1371.34V538.764C1371.34 540.163 1371.5 541.254 1371.83 542.035C1372.15 542.784 1372.71 543.321 1373.49 543.646C1374.3 543.939 1375.37 544.086 1376.71 544.086C1377.65 544.086 1378.43 544.07 1379.05 544.037C1379.67 543.972 1380.26 543.891 1380.81 543.793V555.561C1379.41 556.016 1377.95 556.358 1376.42 556.586C1374.89 556.846 1373.26 556.977 1371.53 556.977C1368.02 556.977 1365.01 556.423 1362.5 555.316C1360.03 554.21 1358.14 552.468 1356.84 550.092C1355.53 547.715 1354.88 544.623 1354.88 540.814V490.033ZM1418.7 518.988V531.732H1389.36V518.988H1418.7ZM1455.47 556H1439.7L1439.79 542.816H1455.47C1458.72 542.816 1461.47 542.035 1463.72 540.473C1466 538.91 1467.72 536.583 1468.9 533.49C1470.1 530.365 1470.7 526.524 1470.7 521.967V518.891C1470.7 515.473 1470.36 512.478 1469.68 509.906C1469.03 507.302 1468.05 505.137 1466.75 503.412C1465.45 501.654 1463.82 500.336 1461.87 499.457C1459.94 498.578 1457.73 498.139 1455.22 498.139H1439.4V484.906H1455.22C1460.04 484.906 1464.45 485.736 1468.46 487.396C1472.49 489.024 1475.98 491.368 1478.91 494.428C1481.87 497.455 1484.15 501.052 1485.74 505.219C1487.37 509.353 1488.18 513.943 1488.18 518.988V521.967C1488.18 526.98 1487.37 531.57 1485.74 535.736C1484.15 539.903 1481.88 543.5 1478.96 546.527C1476.03 549.555 1472.56 551.898 1468.55 553.559C1464.58 555.186 1460.22 556 1455.47 556ZM1449.51 484.906V556H1432.37V484.906H1449.51ZM1512.94 516.254V556H1496.48V503.168H1511.87L1512.94 516.254ZM1528.56 502.777L1528.27 518.061C1527.62 517.995 1526.74 517.914 1525.63 517.816C1524.53 517.719 1523.6 517.67 1522.85 517.67C1520.93 517.67 1519.27 517.898 1517.87 518.354C1516.5 518.777 1515.36 519.428 1514.45 520.307C1513.57 521.153 1512.92 522.227 1512.5 523.529C1512.11 524.831 1511.93 526.345 1511.96 528.07L1508.98 526.117C1508.98 522.569 1509.33 519.346 1510.01 516.449C1510.73 513.52 1511.74 510.997 1513.04 508.881C1514.34 506.732 1515.92 505.089 1517.77 503.949C1519.63 502.777 1521.71 502.191 1524.02 502.191C1524.84 502.191 1525.63 502.24 1526.42 502.338C1527.23 502.436 1527.95 502.582 1528.56 502.777ZM1551.61 503.168V556H1535.11V503.168H1551.61ZM1534.13 489.545C1534.13 487.201 1534.98 485.281 1536.67 483.783C1538.36 482.286 1540.56 481.537 1543.26 481.537C1545.96 481.537 1548.16 482.286 1549.85 483.783C1551.55 485.281 1552.39 487.201 1552.39 489.545C1552.39 491.889 1551.55 493.809 1549.85 495.307C1548.16 496.804 1545.96 497.553 1543.26 497.553C1540.56 497.553 1538.36 496.804 1536.67 495.307C1534.98 493.809 1534.13 491.889 1534.13 489.545ZM1580.81 544.721L1591.21 503.168H1608.54L1591.26 556H1581.01L1580.81 544.721ZM1574.66 503.168L1584.91 544.721L1584.81 556H1574.51L1557.28 503.168H1574.66ZM1638.33 556.977C1634.03 556.977 1630.19 556.309 1626.81 554.975C1623.42 553.607 1620.56 551.736 1618.21 549.359C1615.9 546.983 1614.13 544.249 1612.89 541.156C1611.69 538.064 1611.08 534.792 1611.08 531.342V529.486C1611.08 525.613 1611.62 522.032 1612.7 518.744C1613.77 515.424 1615.36 512.527 1617.48 510.053C1619.6 507.579 1622.25 505.658 1625.44 504.291C1628.63 502.891 1632.34 502.191 1636.57 502.191C1640.32 502.191 1643.67 502.794 1646.63 503.998C1649.59 505.202 1652.1 506.928 1654.15 509.174C1656.23 511.42 1657.81 514.138 1658.89 517.328C1659.99 520.518 1660.55 524.099 1660.55 528.07V534.76H1617.38V524.457H1644.48V523.188C1644.51 521.43 1644.21 519.932 1643.55 518.695C1642.94 517.458 1642.02 516.514 1640.82 515.863C1639.62 515.212 1638.15 514.887 1636.43 514.887C1634.64 514.887 1633.15 515.277 1631.98 516.059C1630.84 516.84 1629.95 517.914 1629.3 519.281C1628.68 520.616 1628.24 522.162 1627.98 523.92C1627.72 525.678 1627.59 527.533 1627.59 529.486V531.342C1627.59 533.295 1627.85 535.069 1628.37 536.664C1628.92 538.259 1629.7 539.626 1630.71 540.766C1631.75 541.872 1632.99 542.735 1634.42 543.354C1635.89 543.972 1637.55 544.281 1639.4 544.281C1641.65 544.281 1643.86 543.858 1646.04 543.012C1648.23 542.165 1650.1 540.766 1651.66 538.812L1659.13 547.699C1658.06 549.229 1656.53 550.71 1654.54 552.143C1652.59 553.575 1650.24 554.747 1647.51 555.658C1644.78 556.537 1641.72 556.977 1638.33 556.977ZM1683.4 514.447V556H1666.94V503.168H1682.37L1683.4 514.447ZM1681.45 527.777L1677.59 527.875C1677.59 523.839 1678.08 520.242 1679.05 517.084C1680.03 513.894 1681.41 511.192 1683.2 508.979C1684.99 506.765 1687.13 505.089 1689.6 503.949C1692.11 502.777 1694.89 502.191 1697.95 502.191C1700.39 502.191 1702.62 502.549 1704.64 503.266C1706.69 503.982 1708.45 505.137 1709.91 506.732C1711.41 508.327 1712.55 510.443 1713.33 513.08C1714.14 515.684 1714.55 518.907 1714.55 522.748V556H1698V522.699C1698 520.583 1697.71 518.972 1697.12 517.865C1696.53 516.726 1695.69 515.945 1694.58 515.521C1693.47 515.098 1692.12 514.887 1690.53 514.887C1688.83 514.887 1687.4 515.212 1686.23 515.863C1685.06 516.514 1684.11 517.426 1683.4 518.598C1682.71 519.737 1682.21 521.088 1681.88 522.65C1681.59 524.213 1681.45 525.922 1681.45 527.777ZM1143.95 601.906H1157.91L1173.78 651.369L1189.65 601.906H1203.61L1179.44 673H1168.12L1143.95 601.906ZM1135.45 601.906H1149.9L1152.59 656.398V673H1135.45V601.906ZM1197.66 601.906H1212.16V673H1194.97V656.398L1197.66 601.906ZM1239.75 620.168V673H1223.24V620.168H1239.75ZM1222.27 606.545C1222.27 604.201 1223.11 602.281 1224.8 600.783C1226.5 599.286 1228.69 598.537 1231.4 598.537C1234.1 598.537 1236.3 599.286 1237.99 600.783C1239.68 602.281 1240.53 604.201 1240.53 606.545C1240.53 608.889 1239.68 610.809 1237.99 612.307C1236.3 613.804 1234.1 614.553 1231.4 614.553C1228.69 614.553 1226.5 613.804 1224.8 612.307C1223.11 610.809 1222.27 608.889 1222.27 606.545ZM1272.22 661.281C1273.75 661.281 1275.05 661.005 1276.12 660.451C1277.23 659.865 1278.06 659.051 1278.61 658.01C1279.2 656.936 1279.48 655.65 1279.44 654.152H1294.92C1294.95 658.124 1293.98 661.607 1291.99 664.602C1290.04 667.564 1287.37 669.875 1283.98 671.535C1280.63 673.163 1276.84 673.977 1272.61 673.977C1268.47 673.977 1264.86 673.309 1261.77 671.975C1258.68 670.607 1256.09 668.719 1254 666.311C1251.95 663.869 1250.41 661.021 1249.37 657.766C1248.36 654.51 1247.85 650.979 1247.85 647.17V646.047C1247.85 642.238 1248.36 638.706 1249.37 635.451C1250.41 632.163 1251.95 629.315 1254 626.906C1256.09 624.465 1258.66 622.577 1261.72 621.242C1264.81 619.875 1268.41 619.191 1272.51 619.191C1276.9 619.191 1280.78 620.021 1284.13 621.682C1287.52 623.342 1290.17 625.751 1292.09 628.908C1294.01 632.066 1294.95 635.891 1294.92 640.383H1279.44C1279.48 638.788 1279.23 637.355 1278.71 636.086C1278.19 634.816 1277.38 633.807 1276.27 633.059C1275.2 632.277 1273.81 631.887 1272.12 631.887C1270.43 631.887 1269.06 632.261 1268.02 633.01C1266.98 633.758 1266.18 634.8 1265.62 636.135C1265.1 637.437 1264.75 638.934 1264.55 640.627C1264.39 642.32 1264.31 644.126 1264.31 646.047V647.17C1264.31 649.123 1264.39 650.962 1264.55 652.688C1264.75 654.38 1265.12 655.878 1265.67 657.18C1266.23 658.449 1267.02 659.458 1268.07 660.207C1269.11 660.923 1270.49 661.281 1272.22 661.281ZM1318.55 633.254V673H1302.1V620.168H1317.48L1318.55 633.254ZM1334.18 619.777L1333.89 635.061C1333.24 634.995 1332.36 634.914 1331.25 634.816C1330.14 634.719 1329.22 634.67 1328.47 634.67C1326.55 634.67 1324.89 634.898 1323.49 635.354C1322.12 635.777 1320.98 636.428 1320.07 637.307C1319.19 638.153 1318.54 639.227 1318.12 640.529C1317.72 641.831 1317.55 643.345 1317.58 645.07L1314.6 643.117C1314.6 639.569 1314.94 636.346 1315.62 633.449C1316.34 630.52 1317.35 627.997 1318.65 625.881C1319.95 623.732 1321.53 622.089 1323.39 620.949C1325.24 619.777 1327.33 619.191 1329.64 619.191C1330.45 619.191 1331.25 619.24 1332.03 619.338C1332.85 619.436 1333.56 619.582 1334.18 619.777ZM1336.04 647.121V646.096C1336.04 642.222 1336.59 638.658 1337.7 635.402C1338.8 632.115 1340.43 629.266 1342.58 626.857C1344.73 624.449 1347.38 622.577 1350.54 621.242C1353.69 619.875 1357.34 619.191 1361.47 619.191C1365.64 619.191 1369.3 619.875 1372.46 621.242C1375.65 622.577 1378.32 624.449 1380.47 626.857C1382.62 629.266 1384.24 632.115 1385.35 635.402C1386.46 638.658 1387.01 642.222 1387.01 646.096V647.121C1387.01 650.962 1386.46 654.527 1385.35 657.814C1384.24 661.07 1382.62 663.918 1380.47 666.359C1378.32 668.768 1375.67 670.64 1372.51 671.975C1369.35 673.309 1365.71 673.977 1361.57 673.977C1357.44 673.977 1353.78 673.309 1350.59 671.975C1347.4 670.64 1344.73 668.768 1342.58 666.359C1340.43 663.918 1338.8 661.07 1337.7 657.814C1336.59 654.527 1336.04 650.962 1336.04 647.121ZM1352.49 646.096V647.121C1352.49 649.107 1352.64 650.962 1352.93 652.688C1353.22 654.413 1353.71 655.926 1354.39 657.229C1355.08 658.498 1356.01 659.491 1357.18 660.207C1358.35 660.923 1359.81 661.281 1361.57 661.281C1363.3 661.281 1364.73 660.923 1365.87 660.207C1367.04 659.491 1367.97 658.498 1368.65 657.229C1369.34 655.926 1369.82 654.413 1370.12 652.688C1370.41 650.962 1370.56 649.107 1370.56 647.121V646.096C1370.56 644.175 1370.41 642.368 1370.12 640.676C1369.82 638.951 1369.34 637.437 1368.65 636.135C1367.97 634.8 1367.04 633.758 1365.87 633.01C1364.7 632.261 1363.23 631.887 1361.47 631.887C1359.75 631.887 1358.3 632.261 1357.13 633.01C1355.99 633.758 1355.08 634.8 1354.39 636.135C1353.71 637.437 1353.22 638.951 1352.93 640.676C1352.64 642.368 1352.49 644.175 1352.49 646.096ZM1422.02 658.156C1422.02 657.245 1421.71 656.464 1421.09 655.812C1420.51 655.129 1419.47 654.51 1417.97 653.957C1416.47 653.371 1414.37 652.785 1411.67 652.199C1409.1 651.646 1406.67 650.913 1404.39 650.002C1402.15 649.09 1400.18 647.984 1398.49 646.682C1396.79 645.38 1395.46 643.833 1394.48 642.043C1393.54 640.253 1393.07 638.202 1393.07 635.891C1393.07 633.645 1393.54 631.529 1394.48 629.543C1395.46 627.525 1396.88 625.751 1398.73 624.221C1400.62 622.658 1402.91 621.438 1405.62 620.559C1408.32 619.647 1411.39 619.191 1414.84 619.191C1419.6 619.191 1423.7 619.924 1427.15 621.389C1430.6 622.821 1433.25 624.839 1435.11 627.443C1437 630.015 1437.94 632.993 1437.94 636.379H1421.48C1421.48 635.044 1421.26 633.905 1420.8 632.961C1420.38 632.017 1419.68 631.301 1418.7 630.812C1417.72 630.292 1416.42 630.031 1414.79 630.031C1413.66 630.031 1412.61 630.243 1411.67 630.666C1410.76 631.089 1410.03 631.675 1409.47 632.424C1408.92 633.173 1408.64 634.051 1408.64 635.061C1408.64 635.777 1408.81 636.428 1409.13 637.014C1409.49 637.567 1410.03 638.088 1410.74 638.576C1411.46 639.032 1412.37 639.455 1413.48 639.846C1414.58 640.204 1415.92 640.529 1417.48 640.822C1421.03 641.473 1424.35 642.401 1427.44 643.605C1430.53 644.81 1433.04 646.519 1434.96 648.732C1436.91 650.946 1437.89 653.924 1437.89 657.668C1437.89 660.012 1437.35 662.176 1436.28 664.162C1435.21 666.115 1433.66 667.84 1431.64 669.338C1429.62 670.803 1427.2 671.942 1424.37 672.756C1421.53 673.57 1418.34 673.977 1414.79 673.977C1409.75 673.977 1405.49 673.081 1402 671.291C1398.52 669.468 1395.88 667.189 1394.09 664.455C1392.33 661.688 1391.46 658.889 1391.46 656.057H1406.79C1406.85 657.684 1407.24 659.019 1407.96 660.061C1408.71 661.102 1409.7 661.867 1410.94 662.355C1412.17 662.844 1413.61 663.088 1415.23 663.088C1416.73 663.088 1417.97 662.876 1418.95 662.453C1419.95 662.03 1420.72 661.46 1421.24 660.744C1421.76 659.995 1422.02 659.133 1422.02 658.156ZM1471.19 673.977C1466.89 673.977 1463.05 673.309 1459.67 671.975C1456.28 670.607 1453.42 668.736 1451.07 666.359C1448.76 663.983 1446.99 661.249 1445.75 658.156C1444.55 655.064 1443.95 651.792 1443.95 648.342V646.486C1443.95 642.613 1444.48 639.032 1445.56 635.744C1446.63 632.424 1448.23 629.527 1450.34 627.053C1452.46 624.579 1455.11 622.658 1458.3 621.291C1461.49 619.891 1465.2 619.191 1469.43 619.191C1473.18 619.191 1476.53 619.794 1479.49 620.998C1482.45 622.202 1484.96 623.928 1487.01 626.174C1489.1 628.42 1490.67 631.138 1491.75 634.328C1492.85 637.518 1493.41 641.099 1493.41 645.07V651.76H1450.24V641.457H1477.34V640.188C1477.38 638.43 1477.07 636.932 1476.42 635.695C1475.8 634.458 1474.89 633.514 1473.68 632.863C1472.48 632.212 1471.01 631.887 1469.29 631.887C1467.5 631.887 1466.02 632.277 1464.84 633.059C1463.7 633.84 1462.81 634.914 1462.16 636.281C1461.54 637.616 1461.1 639.162 1460.84 640.92C1460.58 642.678 1460.45 644.533 1460.45 646.486V648.342C1460.45 650.295 1460.71 652.069 1461.23 653.664C1461.78 655.259 1462.57 656.626 1463.57 657.766C1464.62 658.872 1465.85 659.735 1467.29 660.354C1468.75 660.972 1470.41 661.281 1472.27 661.281C1474.51 661.281 1476.73 660.858 1478.91 660.012C1481.09 659.165 1482.96 657.766 1484.52 655.812L1491.99 664.699C1490.92 666.229 1489.39 667.71 1487.4 669.143C1485.45 670.575 1483.11 671.747 1480.37 672.658C1477.64 673.537 1474.58 673.977 1471.19 673.977ZM1516.7 633.254V673H1500.24V620.168H1515.62L1516.7 633.254ZM1532.32 619.777L1532.03 635.061C1531.38 634.995 1530.5 634.914 1529.39 634.816C1528.29 634.719 1527.36 634.67 1526.61 634.67C1524.69 634.67 1523.03 634.898 1521.63 635.354C1520.26 635.777 1519.12 636.428 1518.21 637.307C1517.33 638.153 1516.68 639.227 1516.26 640.529C1515.87 641.831 1515.69 643.345 1515.72 645.07L1512.74 643.117C1512.74 639.569 1513.09 636.346 1513.77 633.449C1514.49 630.52 1515.49 627.997 1516.8 625.881C1518.1 623.732 1519.68 622.089 1521.53 620.949C1523.39 619.777 1525.47 619.191 1527.78 619.191C1528.6 619.191 1529.39 619.24 1530.18 619.338C1530.99 619.436 1531.71 619.582 1532.32 619.777ZM1557.91 661.721L1568.31 620.168H1585.64L1568.36 673H1558.11L1557.91 661.721ZM1551.76 620.168L1562.01 661.721L1561.91 673H1551.61L1534.38 620.168H1551.76ZM1607.91 620.168V673H1591.41V620.168H1607.91ZM1590.43 606.545C1590.43 604.201 1591.28 602.281 1592.97 600.783C1594.66 599.286 1596.86 598.537 1599.56 598.537C1602.26 598.537 1604.46 599.286 1606.15 600.783C1607.85 602.281 1608.69 604.201 1608.69 606.545C1608.69 608.889 1607.85 610.809 1606.15 612.307C1604.46 613.804 1602.26 614.553 1599.56 614.553C1596.86 614.553 1594.66 613.804 1592.97 612.307C1591.28 610.809 1590.43 608.889 1590.43 606.545ZM1640.38 661.281C1641.91 661.281 1643.21 661.005 1644.29 660.451C1645.39 659.865 1646.22 659.051 1646.78 658.01C1647.36 656.936 1647.64 655.65 1647.61 654.152H1663.09C1663.12 658.124 1662.14 661.607 1660.16 664.602C1658.2 667.564 1655.53 669.875 1652.15 671.535C1648.8 673.163 1645 673.977 1640.77 673.977C1636.64 673.977 1633.02 673.309 1629.93 671.975C1626.84 670.607 1624.25 668.719 1622.17 666.311C1620.12 663.869 1618.57 661.021 1617.53 657.766C1616.52 654.51 1616.02 650.979 1616.02 647.17V646.047C1616.02 642.238 1616.52 638.706 1617.53 635.451C1618.57 632.163 1620.12 629.315 1622.17 626.906C1624.25 624.465 1626.82 622.577 1629.88 621.242C1632.98 619.875 1636.57 619.191 1640.67 619.191C1645.07 619.191 1648.94 620.021 1652.29 621.682C1655.68 623.342 1658.33 625.751 1660.25 628.908C1662.17 632.066 1663.12 635.891 1663.09 640.383H1647.61C1647.64 638.788 1647.4 637.355 1646.88 636.086C1646.35 634.816 1645.54 633.807 1644.43 633.059C1643.36 632.277 1641.98 631.887 1640.28 631.887C1638.59 631.887 1637.22 632.261 1636.18 633.01C1635.14 633.758 1634.34 634.8 1633.79 636.135C1633.27 637.437 1632.91 638.934 1632.71 640.627C1632.55 642.32 1632.47 644.126 1632.47 646.047V647.17C1632.47 649.123 1632.55 650.962 1632.71 652.688C1632.91 654.38 1633.28 655.878 1633.84 657.18C1634.39 658.449 1635.19 659.458 1636.23 660.207C1637.27 660.923 1638.66 661.281 1640.38 661.281ZM1695.7 673.977C1691.41 673.977 1687.57 673.309 1684.18 671.975C1680.79 670.607 1677.93 668.736 1675.59 666.359C1673.27 663.983 1671.5 661.249 1670.26 658.156C1669.06 655.064 1668.46 651.792 1668.46 648.342V646.486C1668.46 642.613 1668.99 639.032 1670.07 635.744C1671.14 632.424 1672.74 629.527 1674.85 627.053C1676.97 624.579 1679.62 622.658 1682.81 621.291C1686 619.891 1689.71 619.191 1693.95 619.191C1697.69 619.191 1701.04 619.794 1704 620.998C1706.97 622.202 1709.47 623.928 1711.52 626.174C1713.61 628.42 1715.19 631.138 1716.26 634.328C1717.37 637.518 1717.92 641.099 1717.92 645.07V651.76H1674.76V641.457H1701.86V640.188C1701.89 638.43 1701.58 636.932 1700.93 635.695C1700.31 634.458 1699.4 633.514 1698.19 632.863C1696.99 632.212 1695.52 631.887 1693.8 631.887C1692.01 631.887 1690.53 632.277 1689.36 633.059C1688.22 633.84 1687.32 634.914 1686.67 636.281C1686.05 637.616 1685.61 639.162 1685.35 640.92C1685.09 642.678 1684.96 644.533 1684.96 646.486V648.342C1684.96 650.295 1685.22 652.069 1685.74 653.664C1686.3 655.259 1687.08 656.626 1688.09 657.766C1689.13 658.872 1690.36 659.735 1691.8 660.354C1693.26 660.972 1694.92 661.281 1696.78 661.281C1699.02 661.281 1701.24 660.858 1703.42 660.012C1705.6 659.165 1707.47 657.766 1709.03 655.812L1716.5 664.699C1715.43 666.229 1713.9 667.71 1711.91 669.143C1709.96 670.575 1707.62 671.747 1704.88 672.658C1702.15 673.537 1699.09 673.977 1695.7 673.977Z" fill="#888888"/>
<path d="M1178.35 1060.82V1074H1140.46V1060.82H1178.35ZM1146.56 1002.91V1074H1129.42V1002.91H1146.56ZM1173.46 1031.13V1043.87H1140.46V1031.13H1173.46ZM1178.49 1002.91V1016.14H1140.46V1002.91H1178.49ZM1198.56 1021.17L1205.98 1035.72L1213.65 1021.17H1230.74L1216.87 1046.9L1231.47 1074H1214.23L1205.98 1058.38L1197.78 1074H1180.54L1195.14 1046.9L1181.32 1021.17H1198.56ZM1263.99 1021.17V1032.59H1232.15V1021.17H1263.99ZM1238.84 1008.03H1255.3V1056.76C1255.3 1058.16 1255.46 1059.25 1255.79 1060.04C1256.11 1060.78 1256.67 1061.32 1257.45 1061.65C1258.26 1061.94 1259.34 1062.09 1260.67 1062.09C1261.61 1062.09 1262.4 1062.07 1263.01 1062.04C1263.63 1061.97 1264.22 1061.89 1264.77 1061.79V1073.56C1263.37 1074.02 1261.91 1074.36 1260.38 1074.59C1258.85 1074.85 1257.22 1074.98 1255.49 1074.98C1251.98 1074.98 1248.97 1074.42 1246.46 1073.32C1243.99 1072.21 1242.1 1070.47 1240.8 1068.09C1239.49 1065.72 1238.84 1062.62 1238.84 1058.81V1008.03ZM1296.12 1074.98C1291.82 1074.98 1287.98 1074.31 1284.6 1072.97C1281.21 1071.61 1278.35 1069.74 1276 1067.36C1273.69 1064.98 1271.92 1062.25 1270.68 1059.16C1269.48 1056.06 1268.87 1052.79 1268.87 1049.34V1047.49C1268.87 1043.61 1269.41 1040.03 1270.48 1036.74C1271.56 1033.42 1273.15 1030.53 1275.27 1028.05C1277.39 1025.58 1280.04 1023.66 1283.23 1022.29C1286.42 1020.89 1290.13 1020.19 1294.36 1020.19C1298.1 1020.19 1301.46 1020.79 1304.42 1022C1307.38 1023.2 1309.89 1024.93 1311.94 1027.17C1314.02 1029.42 1315.6 1032.14 1316.68 1035.33C1317.78 1038.52 1318.34 1042.1 1318.34 1046.07V1052.76H1275.17V1042.46H1302.27V1041.19C1302.3 1039.43 1301.99 1037.93 1301.34 1036.7C1300.73 1035.46 1299.81 1034.51 1298.61 1033.86C1297.4 1033.21 1295.94 1032.89 1294.21 1032.89C1292.42 1032.89 1290.94 1033.28 1289.77 1034.06C1288.63 1034.84 1287.74 1035.91 1287.09 1037.28C1286.47 1038.62 1286.03 1040.16 1285.77 1041.92C1285.51 1043.68 1285.38 1045.53 1285.38 1047.49V1049.34C1285.38 1051.29 1285.64 1053.07 1286.16 1054.66C1286.71 1056.26 1287.49 1057.63 1288.5 1058.77C1289.54 1059.87 1290.78 1060.74 1292.21 1061.35C1293.68 1061.97 1295.34 1062.28 1297.19 1062.28C1299.44 1062.28 1301.65 1061.86 1303.83 1061.01C1306.01 1060.17 1307.89 1058.77 1309.45 1056.81L1316.92 1065.7C1315.85 1067.23 1314.32 1068.71 1312.33 1070.14C1310.38 1071.57 1308.03 1072.75 1305.3 1073.66C1302.56 1074.54 1299.5 1074.98 1296.12 1074.98ZM1341.63 1034.25V1074H1325.17V1021.17H1340.55L1341.63 1034.25ZM1357.25 1020.78L1356.96 1036.06C1356.31 1036 1355.43 1035.91 1354.32 1035.82C1353.22 1035.72 1352.29 1035.67 1351.54 1035.67C1349.62 1035.67 1347.96 1035.9 1346.56 1036.35C1345.19 1036.78 1344.05 1037.43 1343.14 1038.31C1342.26 1039.15 1341.61 1040.23 1341.19 1041.53C1340.8 1042.83 1340.62 1044.35 1340.65 1046.07L1337.67 1044.12C1337.67 1040.57 1338.01 1037.35 1338.7 1034.45C1339.41 1031.52 1340.42 1029 1341.72 1026.88C1343.03 1024.73 1344.61 1023.09 1346.46 1021.95C1348.32 1020.78 1350.4 1020.19 1352.71 1020.19C1353.52 1020.19 1354.32 1020.24 1355.1 1020.34C1355.92 1020.44 1356.63 1020.58 1357.25 1020.78ZM1379.08 1032.45V1074H1362.62V1021.17H1378.05L1379.08 1032.45ZM1377.12 1045.78L1373.27 1045.88C1373.27 1041.84 1373.76 1038.24 1374.73 1035.08C1375.71 1031.89 1377.09 1029.19 1378.88 1026.98C1380.67 1024.76 1382.81 1023.09 1385.28 1021.95C1387.79 1020.78 1390.57 1020.19 1393.63 1020.19C1396.07 1020.19 1398.3 1020.55 1400.32 1021.27C1402.37 1021.98 1404.13 1023.14 1405.59 1024.73C1407.09 1026.33 1408.23 1028.44 1409.01 1031.08C1409.82 1033.68 1410.23 1036.91 1410.23 1040.75V1074H1393.68V1040.7C1393.68 1038.58 1393.38 1036.97 1392.8 1035.87C1392.21 1034.73 1391.37 1033.94 1390.26 1033.52C1389.15 1033.1 1387.8 1032.89 1386.21 1032.89C1384.51 1032.89 1383.08 1033.21 1381.91 1033.86C1380.74 1034.51 1379.79 1035.43 1379.08 1036.6C1378.39 1037.74 1377.89 1039.09 1377.56 1040.65C1377.27 1042.21 1377.12 1043.92 1377.12 1045.78ZM1446.8 1060.72V1038.94C1446.8 1037.44 1446.59 1036.16 1446.17 1035.08C1445.74 1034.01 1445.08 1033.18 1444.17 1032.59C1443.25 1031.98 1442.03 1031.67 1440.5 1031.67C1439.27 1031.67 1438.21 1031.88 1437.33 1032.3C1436.45 1032.72 1435.78 1033.36 1435.33 1034.21C1434.87 1035.05 1434.64 1036.13 1434.64 1037.43H1418.19C1418.19 1034.99 1418.73 1032.72 1419.8 1030.64C1420.91 1028.52 1422.47 1026.69 1424.49 1025.12C1426.54 1023.56 1428.98 1022.36 1431.81 1021.51C1434.68 1020.63 1437.87 1020.19 1441.38 1020.19C1445.58 1020.19 1449.33 1020.89 1452.61 1022.29C1455.93 1023.69 1458.55 1025.79 1460.47 1028.59C1462.4 1031.36 1463.36 1034.84 1463.36 1039.04V1060.67C1463.36 1064.12 1463.55 1066.74 1463.94 1068.53C1464.33 1070.29 1464.89 1071.84 1465.6 1073.17V1074H1449.1C1448.32 1072.37 1447.73 1070.39 1447.34 1068.04C1446.98 1065.67 1446.8 1063.23 1446.8 1060.72ZM1448.8 1041.72L1448.9 1050.51H1441.63C1440.1 1050.51 1438.79 1050.73 1437.72 1051.15C1436.68 1051.57 1435.83 1052.16 1435.18 1052.91C1434.56 1053.62 1434.11 1054.44 1433.81 1055.35C1433.55 1056.26 1433.42 1057.22 1433.42 1058.23C1433.42 1059.21 1433.65 1060.08 1434.11 1060.87C1434.6 1061.61 1435.25 1062.2 1436.06 1062.62C1436.87 1063.05 1437.79 1063.26 1438.79 1063.26C1440.62 1063.26 1442.16 1062.92 1443.43 1062.23C1444.74 1061.52 1445.73 1060.65 1446.41 1059.64C1447.1 1058.64 1447.44 1057.69 1447.44 1056.81L1451.05 1063.55C1450.4 1064.85 1449.65 1066.17 1448.8 1067.51C1447.99 1068.84 1446.97 1070.08 1445.73 1071.22C1444.52 1072.32 1443.04 1073.24 1441.29 1073.95C1439.53 1074.63 1437.4 1074.98 1434.89 1074.98C1431.63 1074.98 1428.64 1074.31 1425.9 1072.97C1423.2 1071.64 1421.04 1069.78 1419.41 1067.41C1417.78 1065 1416.97 1062.23 1416.97 1059.11C1416.97 1056.37 1417.46 1053.93 1418.43 1051.78C1419.44 1049.63 1420.96 1047.81 1422.97 1046.31C1424.99 1044.82 1427.56 1043.68 1430.69 1042.9C1433.81 1042.12 1437.49 1041.72 1441.72 1041.72H1448.8ZM1489.87 999V1074H1473.37V999H1489.87ZM1548.8 1074H1533.03L1533.13 1060.82H1548.8C1552.06 1060.82 1554.81 1060.04 1557.06 1058.47C1559.34 1056.91 1561.06 1054.58 1562.23 1051.49C1563.44 1048.37 1564.04 1044.52 1564.04 1039.97V1036.89C1564.04 1033.47 1563.7 1030.48 1563.01 1027.91C1562.36 1025.3 1561.39 1023.14 1560.08 1021.41C1558.78 1019.65 1557.15 1018.34 1555.2 1017.46C1553.28 1016.58 1551.07 1016.14 1548.56 1016.14H1532.74V1002.91H1548.56C1553.38 1002.91 1557.79 1003.74 1561.79 1005.4C1565.83 1007.02 1569.31 1009.37 1572.24 1012.43C1575.2 1015.46 1577.48 1019.05 1579.08 1023.22C1580.71 1027.35 1581.52 1031.94 1581.52 1036.99V1039.97C1581.52 1044.98 1580.71 1049.57 1579.08 1053.74C1577.48 1057.9 1575.22 1061.5 1572.29 1064.53C1569.36 1067.55 1565.89 1069.9 1561.89 1071.56C1557.92 1073.19 1553.56 1074 1548.8 1074ZM1542.85 1002.91V1074H1525.71V1002.91H1542.85ZM1617.12 1060.72V1038.94C1617.12 1037.44 1616.9 1036.16 1616.48 1035.08C1616.06 1034.01 1615.39 1033.18 1614.48 1032.59C1613.57 1031.98 1612.35 1031.67 1610.82 1031.67C1609.58 1031.67 1608.52 1031.88 1607.64 1032.3C1606.76 1032.72 1606.1 1033.36 1605.64 1034.21C1605.18 1035.05 1604.96 1036.13 1604.96 1037.43H1588.5C1588.5 1034.99 1589.04 1032.72 1590.11 1030.64C1591.22 1028.52 1592.78 1026.69 1594.8 1025.12C1596.85 1023.56 1599.29 1022.36 1602.12 1021.51C1604.99 1020.63 1608.18 1020.19 1611.7 1020.19C1615.89 1020.19 1619.64 1020.89 1622.93 1022.29C1626.25 1023.69 1628.87 1025.79 1630.79 1028.59C1632.71 1031.36 1633.67 1034.84 1633.67 1039.04V1060.67C1633.67 1064.12 1633.86 1066.74 1634.25 1068.53C1634.64 1070.29 1635.2 1071.84 1635.91 1073.17V1074H1619.41C1618.63 1072.37 1618.04 1070.39 1617.65 1068.04C1617.29 1065.67 1617.12 1063.23 1617.12 1060.72ZM1619.12 1041.72L1619.21 1050.51H1611.94C1610.41 1050.51 1609.11 1050.73 1608.03 1051.15C1606.99 1051.57 1606.15 1052.16 1605.49 1052.91C1604.88 1053.62 1604.42 1054.44 1604.13 1055.35C1603.87 1056.26 1603.74 1057.22 1603.74 1058.23C1603.74 1059.21 1603.96 1060.08 1604.42 1060.87C1604.91 1061.61 1605.56 1062.2 1606.37 1062.62C1607.19 1063.05 1608.1 1063.26 1609.11 1063.26C1610.93 1063.26 1612.48 1062.92 1613.75 1062.23C1615.05 1061.52 1616.04 1060.65 1616.72 1059.64C1617.41 1058.64 1617.75 1057.69 1617.75 1056.81L1621.36 1063.55C1620.71 1064.85 1619.96 1066.17 1619.12 1067.51C1618.3 1068.84 1617.28 1070.08 1616.04 1071.22C1614.84 1072.32 1613.36 1073.24 1611.6 1073.95C1609.84 1074.63 1607.71 1074.98 1605.2 1074.98C1601.95 1074.98 1598.95 1074.31 1596.22 1072.97C1593.51 1071.64 1591.35 1069.78 1589.72 1067.41C1588.1 1065 1587.28 1062.23 1587.28 1059.11C1587.28 1056.37 1587.77 1053.93 1588.75 1051.78C1589.76 1049.63 1591.27 1047.81 1593.29 1046.31C1595.31 1044.82 1597.88 1043.68 1601 1042.9C1604.13 1042.12 1607.81 1041.72 1612.04 1041.72H1619.12ZM1670.63 1021.17V1032.59H1638.79V1021.17H1670.63ZM1645.48 1008.03H1661.94V1056.76C1661.94 1058.16 1662.1 1059.25 1662.43 1060.04C1662.75 1060.78 1663.31 1061.32 1664.09 1061.65C1664.9 1061.94 1665.98 1062.09 1667.31 1062.09C1668.25 1062.09 1669.04 1062.07 1669.65 1062.04C1670.27 1061.97 1670.86 1061.89 1671.41 1061.79V1073.56C1670.01 1074.02 1668.55 1074.36 1667.02 1074.59C1665.49 1074.85 1663.86 1074.98 1662.13 1074.98C1658.62 1074.98 1655.61 1074.42 1653.1 1073.32C1650.63 1072.21 1648.74 1070.47 1647.44 1068.09C1646.14 1065.72 1645.48 1062.62 1645.48 1058.81V1008.03ZM1704.62 1060.72V1038.94C1704.62 1037.44 1704.4 1036.16 1703.98 1035.08C1703.56 1034.01 1702.89 1033.18 1701.98 1032.59C1701.07 1031.98 1699.85 1031.67 1698.32 1031.67C1697.08 1031.67 1696.02 1031.88 1695.14 1032.3C1694.26 1032.72 1693.6 1033.36 1693.14 1034.21C1692.68 1035.05 1692.46 1036.13 1692.46 1037.43H1676C1676 1034.99 1676.54 1032.72 1677.61 1030.64C1678.72 1028.52 1680.28 1026.69 1682.3 1025.12C1684.35 1023.56 1686.79 1022.36 1689.62 1021.51C1692.49 1020.63 1695.68 1020.19 1699.2 1020.19C1703.39 1020.19 1707.14 1020.89 1710.43 1022.29C1713.75 1023.69 1716.37 1025.79 1718.29 1028.59C1720.21 1031.36 1721.17 1034.84 1721.17 1039.04V1060.67C1721.17 1064.12 1721.36 1066.74 1721.75 1068.53C1722.14 1070.29 1722.7 1071.84 1723.41 1073.17V1074H1706.91C1706.13 1072.37 1705.54 1070.39 1705.15 1068.04C1704.79 1065.67 1704.62 1063.23 1704.62 1060.72ZM1706.62 1041.72L1706.71 1050.51H1699.44C1697.91 1050.51 1696.61 1050.73 1695.53 1051.15C1694.49 1051.57 1693.65 1052.16 1692.99 1052.91C1692.38 1053.62 1691.92 1054.44 1691.63 1055.35C1691.37 1056.26 1691.24 1057.22 1691.24 1058.23C1691.24 1059.21 1691.46 1060.08 1691.92 1060.87C1692.41 1061.61 1693.06 1062.2 1693.87 1062.62C1694.69 1063.05 1695.6 1063.26 1696.61 1063.26C1698.43 1063.26 1699.98 1062.92 1701.25 1062.23C1702.55 1061.52 1703.54 1060.65 1704.22 1059.64C1704.91 1058.64 1705.25 1057.69 1705.25 1056.81L1708.86 1063.55C1708.21 1064.85 1707.46 1066.17 1706.62 1067.51C1705.8 1068.84 1704.78 1070.08 1703.54 1071.22C1702.34 1072.32 1700.86 1073.24 1699.1 1073.95C1697.34 1074.63 1695.21 1074.98 1692.7 1074.98C1689.45 1074.98 1686.45 1074.31 1683.72 1072.97C1681.01 1071.64 1678.85 1069.78 1677.22 1067.41C1675.6 1065 1674.78 1062.23 1674.78 1059.11C1674.78 1056.37 1675.27 1053.93 1676.25 1051.78C1677.26 1049.63 1678.77 1047.81 1680.79 1046.31C1682.81 1044.82 1685.38 1043.68 1688.5 1042.9C1691.63 1042.12 1695.31 1041.72 1699.54 1041.72H1706.62Z" fill="#888888"/>
<rect x="396.513" y="441.648" width="117.366" height="310.569" transform="rotate(-90 396.513 441.648)" fill="#2FA4DA"/>
<path d="M516.329 362.596L499.337 411.893H489.063L510.469 355.018L517.032 355.018L516.329 362.596ZM530.548 411.893L513.516 362.596L512.774 355.018L519.376 355.018L540.86 411.893L530.548 411.893ZM529.727 390.799L529.727 398.573H498.79L498.79 390.799L529.727 390.799ZM568.829 390.682H554.024L554.024 382.909H568.829C571.407 382.909 573.49 382.492 575.079 381.659C576.667 380.825 577.826 379.68 578.555 378.221C579.311 376.737 579.688 375.044 579.688 373.143C579.688 371.346 579.311 369.667 578.555 368.104C577.826 366.515 576.667 365.239 575.079 364.276C573.49 363.312 571.407 362.831 568.829 362.831H557.032L557.032 411.893H547.227L547.227 355.018H568.829C573.23 355.018 576.967 355.799 580.04 357.362C583.139 358.898 585.495 361.034 587.11 363.768C588.725 366.476 589.532 369.575 589.532 373.065C589.532 376.737 588.725 379.888 587.11 382.518C585.495 385.148 583.139 387.167 580.04 388.573C576.967 389.979 573.23 390.682 568.829 390.682ZM608.79 355.018L608.79 411.893H598.985L598.985 355.018H608.79Z" fill="white"/>
<rect x="396.513" y="829.859" width="117.366" height="310.569" transform="rotate(-90 396.513 829.859)" fill="#2FA4DA"/>
<path d="M481.837 743.229L481.837 800.104H472.032L472.032 743.229H481.837ZM505.04 768.112L505.04 775.886H479.337L479.337 768.112H505.04ZM508.282 743.229L508.282 751.042H479.337L479.337 743.229H508.282ZM525.235 740.104L525.235 800.104H515.782L515.782 740.104H525.235ZM545.626 757.839L545.626 800.104H536.173L536.173 757.839H545.626ZM535.548 746.745C535.548 745.313 536.016 744.128 536.954 743.19C537.917 742.227 539.245 741.745 540.938 741.745C542.605 741.745 543.92 742.227 544.883 743.19C545.847 744.128 546.329 745.313 546.329 746.745C546.329 748.151 545.847 749.323 544.883 750.261C543.92 751.198 542.605 751.667 540.938 751.667C539.245 751.667 537.917 751.198 536.954 750.261C536.016 749.323 535.548 748.151 535.548 746.745ZM565.274 766.862L565.274 800.104H555.86L555.86 757.839H564.727L565.274 766.862ZM563.594 777.409L560.548 777.37C560.574 774.375 560.99 771.628 561.798 769.128C562.631 766.628 563.777 764.479 565.235 762.683C566.719 760.886 568.49 759.506 570.548 758.542C572.605 757.552 574.897 757.058 577.423 757.058C579.454 757.058 581.29 757.344 582.93 757.917C584.597 758.464 586.016 759.362 587.188 760.612C588.386 761.862 589.298 763.49 589.923 765.495C590.548 767.474 590.86 769.909 590.86 772.8L590.86 800.104H581.407L581.407 772.761C581.407 770.729 581.107 769.128 580.508 767.956C579.936 766.758 579.089 765.912 577.969 765.417C576.876 764.896 575.508 764.636 573.868 764.636C572.253 764.636 570.808 764.974 569.532 765.651C568.256 766.328 567.175 767.253 566.29 768.425C565.43 769.597 564.766 770.951 564.298 772.487C563.829 774.024 563.594 775.664 563.594 777.409ZM609.962 740.104L609.962 800.104H600.508L600.508 740.104H609.962ZM636.212 757.839L617.813 778.229L607.735 788.542L605.274 780.573L612.891 771.159L624.844 757.839L636.212 757.839ZM626.876 800.104L613.165 780.261L619.102 773.659L637.774 800.104H626.876Z" fill="white"/>
<rect x="584.299" y="638.463" width="117.366" height="435.158" transform="rotate(-90 584.299 638.463)" fill="#2FA4DA"/>
<path d="M655.511 608.708H643.362L643.44 600.934H655.511C659.026 600.934 661.969 600.166 664.339 598.63C666.735 597.093 668.532 594.893 669.729 592.028C670.953 589.163 671.565 585.752 671.565 581.794L671.565 578.708C671.565 575.635 671.214 572.913 670.511 570.544C669.834 568.174 668.818 566.182 667.464 564.567C666.136 562.953 664.495 561.729 662.542 560.895C660.615 560.062 658.388 559.645 655.862 559.645H643.128L643.128 551.833H655.862C659.638 551.833 663.089 552.471 666.214 553.747C669.339 554.997 672.034 556.807 674.3 559.177C676.591 561.546 678.349 564.385 679.573 567.692C680.797 570.999 681.409 574.697 681.409 578.786L681.409 581.794C681.409 585.882 680.797 589.58 679.573 592.887C678.349 596.195 676.591 599.033 674.3 601.403C672.008 603.747 669.274 605.557 666.097 606.833C662.946 608.083 659.417 608.708 655.511 608.708ZM648.792 551.833L648.792 608.708H638.987L638.987 551.833H648.792ZM714.143 600.231L714.143 580.075C714.143 578.565 713.87 577.262 713.323 576.169C712.776 575.075 711.943 574.229 710.823 573.63C709.729 573.031 708.349 572.731 706.683 572.731C705.146 572.731 703.818 572.992 702.698 573.512C701.578 574.033 700.706 574.736 700.081 575.622C699.456 576.507 699.143 577.51 699.143 578.63H689.768C689.768 576.963 690.172 575.348 690.979 573.786C691.787 572.223 692.959 570.83 694.495 569.606C696.032 568.382 697.867 567.419 700.003 566.716C702.138 566.012 704.534 565.661 707.19 565.661C710.367 565.661 713.18 566.195 715.628 567.262C718.102 568.33 720.042 569.945 721.448 572.106C722.88 574.242 723.597 576.924 723.597 580.153L723.597 598.942C723.597 600.869 723.727 602.601 723.987 604.137C724.274 605.648 724.677 606.963 725.198 608.083L725.198 608.708H715.55C715.107 607.692 714.755 606.403 714.495 604.841C714.261 603.252 714.143 601.716 714.143 600.231ZM715.511 583.005L715.589 588.825H708.831C707.086 588.825 705.55 588.994 704.222 589.333C702.893 589.645 701.787 590.114 700.901 590.739C700.016 591.364 699.352 592.119 698.909 593.005C698.466 593.89 698.245 594.893 698.245 596.012C698.245 597.132 698.505 598.161 699.026 599.098C699.547 600.01 700.302 600.726 701.292 601.247C702.308 601.768 703.532 602.028 704.964 602.028C706.891 602.028 708.571 601.637 710.003 600.856C711.461 600.049 712.607 599.072 713.44 597.927C714.274 596.755 714.716 595.648 714.768 594.606L717.815 598.786C717.503 599.854 716.969 600.999 716.214 602.223C715.459 603.447 714.469 604.619 713.245 605.739C712.047 606.833 710.602 607.731 708.909 608.434C707.242 609.137 705.315 609.489 703.128 609.489C700.367 609.489 697.907 608.942 695.745 607.848C693.584 606.729 691.891 605.231 690.667 603.356C689.443 601.455 688.831 599.307 688.831 596.911C688.831 594.671 689.248 592.692 690.081 590.973C690.94 589.229 692.19 587.77 693.831 586.598C695.498 585.427 697.529 584.541 699.925 583.942C702.321 583.317 705.055 583.005 708.128 583.005H715.511ZM752.815 566.442L752.815 573.317H728.987L728.987 566.442H752.815ZM735.862 556.091H745.276L745.276 597.028C745.276 598.33 745.459 599.333 745.823 600.036C746.214 600.713 746.748 601.169 747.425 601.403C748.102 601.637 748.896 601.755 749.808 601.755C750.459 601.755 751.084 601.716 751.683 601.637C752.282 601.559 752.763 601.481 753.128 601.403L753.167 608.591C752.386 608.825 751.474 609.033 750.433 609.216C749.417 609.398 748.245 609.489 746.917 609.489C744.755 609.489 742.841 609.111 741.175 608.356C739.508 607.575 738.206 606.312 737.268 604.567C736.331 602.822 735.862 600.505 735.862 597.614L735.862 556.091ZM783.909 600.231L783.909 580.075C783.909 578.565 783.636 577.262 783.089 576.169C782.542 575.075 781.709 574.229 780.589 573.63C779.495 573.031 778.115 572.731 776.448 572.731C774.912 572.731 773.584 572.992 772.464 573.512C771.344 574.033 770.472 574.736 769.847 575.622C769.222 576.507 768.909 577.51 768.909 578.63H759.534C759.534 576.963 759.938 575.348 760.745 573.786C761.552 572.223 762.724 570.83 764.261 569.606C765.797 568.382 767.633 567.419 769.768 566.716C771.904 566.012 774.3 565.661 776.956 565.661C780.133 565.661 782.946 566.195 785.393 567.262C787.867 568.33 789.808 569.945 791.214 572.106C792.646 574.242 793.362 576.924 793.362 580.153L793.362 598.942C793.362 600.869 793.492 602.601 793.753 604.137C794.039 605.648 794.443 606.963 794.964 608.083L794.964 608.708H785.315C784.873 607.692 784.521 606.403 784.261 604.841C784.026 603.252 783.909 601.716 783.909 600.231ZM785.276 583.005L785.354 588.825H778.597C776.852 588.825 775.315 588.994 773.987 589.333C772.659 589.645 771.552 590.114 770.667 590.739C769.782 591.364 769.117 592.119 768.675 593.005C768.232 593.89 768.011 594.893 768.011 596.012C768.011 597.132 768.271 598.161 768.792 599.098C769.313 600.01 770.068 600.726 771.058 601.247C772.073 601.768 773.297 602.028 774.729 602.028C776.657 602.028 778.336 601.637 779.768 600.856C781.227 600.049 782.373 599.072 783.206 597.927C784.039 596.755 784.482 595.648 784.534 594.606L787.581 598.786C787.268 599.854 786.735 600.999 785.979 602.223C785.224 603.447 784.235 604.619 783.011 605.739C781.813 606.833 780.367 607.731 778.675 608.434C777.008 609.137 775.081 609.489 772.893 609.489C770.133 609.489 767.672 608.942 765.511 607.848C763.349 606.729 761.657 605.231 760.433 603.356C759.209 601.455 758.597 599.307 758.597 596.911C758.597 594.671 759.013 592.692 759.847 590.973C760.706 589.229 761.956 587.77 763.597 586.598C765.263 585.427 767.295 584.541 769.69 583.942C772.086 583.317 774.821 583.005 777.893 583.005H785.276ZM803.245 548.708H812.659L812.659 599.684L811.761 608.708H803.245L803.245 548.708ZM840.237 587.184L840.237 588.005C840.237 591.13 839.886 594.007 839.183 596.637C838.505 599.242 837.464 601.507 836.058 603.434C834.677 605.361 832.959 606.859 830.901 607.927C828.87 608.968 826.513 609.489 823.831 609.489C821.201 609.489 818.909 608.994 816.956 608.005C815.003 607.015 813.362 605.609 812.034 603.786C810.732 601.963 809.677 599.788 808.87 597.262C808.063 594.736 807.49 591.95 807.151 588.903L807.151 586.286C807.49 583.213 808.063 580.427 808.87 577.927C809.677 575.4 810.732 573.226 812.034 571.403C813.362 569.554 814.99 568.135 816.917 567.145C818.87 566.156 821.149 565.661 823.753 565.661C826.461 565.661 828.844 566.182 830.901 567.223C832.985 568.265 834.716 569.749 836.097 571.677C837.477 573.578 838.505 575.843 839.183 578.473C839.886 581.104 840.237 584.007 840.237 587.184ZM830.823 588.005L830.823 587.184C830.823 585.283 830.667 583.499 830.354 581.833C830.042 580.14 829.521 578.656 828.792 577.38C828.089 576.104 827.125 575.101 825.901 574.372C824.703 573.617 823.206 573.239 821.409 573.239C819.742 573.239 818.31 573.525 817.112 574.098C815.914 574.671 814.912 575.453 814.104 576.442C813.297 577.432 812.659 578.578 812.19 579.88C811.748 581.182 811.448 582.588 811.292 584.098L811.292 591.169C811.526 593.122 812.021 594.919 812.776 596.559C813.558 598.174 814.651 599.476 816.058 600.466C817.464 601.429 819.274 601.911 821.487 601.911C823.232 601.911 824.703 601.559 825.901 600.856C827.099 600.153 828.05 599.177 828.753 597.927C829.482 596.65 830.003 595.166 830.315 593.473C830.654 591.781 830.823 589.958 830.823 588.005ZM872.034 600.231L872.034 580.075C872.034 578.565 871.761 577.262 871.214 576.169C870.667 575.075 869.834 574.229 868.714 573.63C867.62 573.031 866.24 572.731 864.573 572.731C863.037 572.731 861.709 572.992 860.589 573.512C859.469 574.033 858.597 574.736 857.972 575.622C857.347 576.507 857.034 577.51 857.034 578.63H847.659C847.659 576.963 848.063 575.348 848.87 573.786C849.677 572.223 850.849 570.83 852.386 569.606C853.922 568.382 855.758 567.419 857.893 566.716C860.029 566.012 862.425 565.661 865.081 565.661C868.258 565.661 871.071 566.195 873.518 567.262C875.992 568.33 877.933 569.945 879.339 572.106C880.771 574.242 881.487 576.924 881.487 580.153L881.487 598.942C881.487 600.869 881.617 602.601 881.878 604.137C882.164 605.648 882.568 606.963 883.089 608.083L883.089 608.708H873.44C872.998 607.692 872.646 606.403 872.386 604.841C872.151 603.252 872.034 601.716 872.034 600.231ZM873.401 583.005L873.479 588.825H866.722C864.977 588.825 863.44 588.994 862.112 589.333C860.784 589.645 859.677 590.114 858.792 590.739C857.907 591.364 857.242 592.119 856.8 593.005C856.357 593.89 856.136 594.893 856.136 596.012C856.136 597.132 856.396 598.161 856.917 599.098C857.438 600.01 858.193 600.726 859.183 601.247C860.198 601.768 861.422 602.028 862.854 602.028C864.782 602.028 866.461 601.637 867.893 600.856C869.352 600.049 870.498 599.072 871.331 597.927C872.164 596.755 872.607 595.648 872.659 594.606L875.706 598.786C875.393 599.854 874.86 600.999 874.104 602.223C873.349 603.447 872.36 604.619 871.136 605.739C869.938 606.833 868.492 607.731 866.8 608.434C865.133 609.137 863.206 609.489 861.018 609.489C858.258 609.489 855.797 608.942 853.636 607.848C851.474 606.729 849.782 605.231 848.558 603.356C847.334 601.455 846.722 599.307 846.722 596.911C846.722 594.671 847.138 592.692 847.972 590.973C848.831 589.229 850.081 587.77 851.722 586.598C853.388 585.427 855.42 584.541 857.815 583.942C860.211 583.317 862.946 583.005 866.018 583.005H873.401ZM915.042 597.262C915.042 596.325 914.808 595.479 914.339 594.723C913.87 593.942 912.972 593.239 911.643 592.614C910.341 591.989 908.414 591.416 905.862 590.895C903.623 590.4 901.565 589.815 899.69 589.137C897.841 588.434 896.253 587.588 894.925 586.598C893.597 585.609 892.568 584.437 891.839 583.083C891.11 581.729 890.745 580.166 890.745 578.395C890.745 576.677 891.123 575.049 891.878 573.512C892.633 571.976 893.714 570.622 895.12 569.45C896.526 568.278 898.232 567.354 900.237 566.677C902.268 565.999 904.534 565.661 907.034 565.661C910.576 565.661 913.61 566.26 916.136 567.458C918.688 568.63 920.641 570.231 921.995 572.262C923.349 574.268 924.026 576.533 924.026 579.059H914.612C914.612 577.94 914.326 576.898 913.753 575.934C913.206 574.945 912.373 574.15 911.253 573.552C910.133 572.927 908.727 572.614 907.034 572.614C905.42 572.614 904.078 572.874 903.011 573.395C901.969 573.89 901.188 574.541 900.667 575.348C900.172 576.156 899.925 577.041 899.925 578.005C899.925 578.708 900.055 579.346 900.315 579.919C900.602 580.466 901.071 580.973 901.722 581.442C902.373 581.885 903.258 582.302 904.378 582.692C905.524 583.083 906.956 583.46 908.675 583.825C911.904 584.502 914.677 585.374 916.995 586.442C919.339 587.484 921.136 588.838 922.386 590.505C923.636 592.145 924.261 594.229 924.261 596.755C924.261 598.63 923.857 600.348 923.05 601.911C922.268 603.447 921.123 604.788 919.612 605.934C918.102 607.054 916.292 607.927 914.183 608.552C912.099 609.177 909.755 609.489 907.151 609.489C903.323 609.489 900.081 608.812 897.425 607.458C894.768 606.078 892.75 604.32 891.37 602.184C890.016 600.023 889.339 597.783 889.339 595.466H898.44C898.545 597.21 899.026 598.604 899.886 599.645C900.771 600.661 901.865 601.403 903.167 601.872C904.495 602.315 905.862 602.536 907.268 602.536C908.961 602.536 910.38 602.315 911.526 601.872C912.672 601.403 913.545 600.778 914.143 599.997C914.742 599.19 915.042 598.278 915.042 597.262ZM951.136 609.489C948.011 609.489 945.185 608.981 942.659 607.966C940.159 606.924 938.024 605.479 936.253 603.63C934.508 601.781 933.167 599.606 932.229 597.106C931.292 594.606 930.823 591.911 930.823 589.02L930.823 587.458C930.823 584.15 931.305 581.156 932.268 578.473C933.232 575.791 934.573 573.499 936.292 571.598C938.011 569.671 940.042 568.2 942.386 567.184C944.729 566.169 947.268 565.661 950.003 565.661C953.024 565.661 955.667 566.169 957.933 567.184C960.198 568.2 962.073 569.632 963.558 571.481C965.068 573.304 966.188 575.479 966.917 578.005C967.672 580.531 968.05 583.317 968.05 586.364L968.05 590.387H935.393L935.393 583.63H958.753L958.753 582.887C958.701 581.195 958.362 579.606 957.737 578.122C957.138 576.637 956.214 575.44 954.964 574.528C953.714 573.617 952.047 573.161 949.964 573.161C948.401 573.161 947.008 573.499 945.784 574.177C944.586 574.828 943.584 575.778 942.776 577.028C941.969 578.278 941.344 579.788 940.901 581.559C940.485 583.304 940.276 585.27 940.276 587.458L940.276 589.02C940.276 590.869 940.524 592.588 941.018 594.177C941.539 595.739 942.295 597.106 943.284 598.278C944.274 599.45 945.472 600.374 946.878 601.052C948.284 601.703 949.886 602.028 951.683 602.028C953.948 602.028 955.966 601.572 957.737 600.661C959.508 599.749 961.045 598.46 962.347 596.794L967.308 601.598C966.396 602.927 965.211 604.203 963.753 605.427C962.295 606.624 960.511 607.601 958.401 608.356C956.318 609.111 953.896 609.489 951.136 609.489Z" fill="white"/>
<rect x="104" y="638.463" width="117.366" height="328.626" transform="rotate(-90 104 638.463)" fill="#2FA4DA"/>
<path d="M180.5 551.833L180.5 608.708H170.696L170.696 551.833H180.5ZM214.68 551.833L191.633 579.216L178.508 593.122L176.789 583.395L186.164 571.833L202.727 551.833H214.68ZM204.133 608.708L185.422 581.755L192.18 575.075L215.774 608.708H204.133ZM244.133 600.231L244.133 580.075C244.133 578.565 243.86 577.262 243.313 576.169C242.766 575.075 241.933 574.229 240.813 573.63C239.719 573.031 238.339 572.731 236.672 572.731C235.136 572.731 233.808 572.992 232.688 573.512C231.568 574.033 230.696 574.736 230.071 575.622C229.446 576.507 229.133 577.51 229.133 578.63H219.758C219.758 576.963 220.162 575.348 220.969 573.786C221.776 572.223 222.948 570.83 224.485 569.606C226.021 568.382 227.857 567.419 229.992 566.716C232.128 566.012 234.524 565.661 237.18 565.661C240.357 565.661 243.17 566.195 245.617 567.262C248.091 568.33 250.032 569.945 251.438 572.106C252.87 574.242 253.586 576.924 253.586 580.153L253.586 598.942C253.586 600.869 253.716 602.601 253.977 604.137C254.263 605.648 254.667 606.963 255.188 608.083L255.188 608.708H245.539C245.097 607.692 244.745 606.403 244.485 604.841C244.25 603.252 244.133 601.716 244.133 600.231ZM245.5 583.005L245.578 588.825H238.821C237.076 588.825 235.539 588.994 234.211 589.333C232.883 589.645 231.776 590.114 230.891 590.739C230.006 591.364 229.341 592.119 228.899 593.005C228.456 593.89 228.235 594.893 228.235 596.012C228.235 597.132 228.495 598.161 229.016 599.098C229.537 600.01 230.292 600.726 231.282 601.247C232.297 601.768 233.521 602.028 234.953 602.028C236.881 602.028 238.56 601.637 239.992 600.856C241.451 600.049 242.597 599.072 243.43 597.927C244.263 596.755 244.706 595.648 244.758 594.606L247.805 598.786C247.492 599.854 246.959 600.999 246.203 602.223C245.448 603.447 244.459 604.619 243.235 605.739C242.037 606.833 240.591 607.731 238.899 608.434C237.232 609.137 235.305 609.489 233.117 609.489C230.357 609.489 227.896 608.942 225.735 607.848C223.573 606.729 221.881 605.231 220.657 603.356C219.433 601.455 218.821 599.307 218.821 596.911C218.821 594.671 219.237 592.692 220.071 590.973C220.93 589.229 222.18 587.77 223.821 586.598C225.487 585.427 227.519 584.541 229.914 583.942C232.31 583.317 235.045 583.005 238.117 583.005H245.5ZM276.164 608.708H266.75L266.75 562.38C266.75 559.229 267.336 556.585 268.508 554.45C269.706 552.288 271.412 550.661 273.625 549.567C275.839 548.447 278.456 547.887 281.477 547.887C282.414 547.887 283.339 547.953 284.25 548.083C285.162 548.187 286.047 548.356 286.907 548.591L286.672 555.856C286.151 555.726 285.578 555.635 284.953 555.583C284.354 555.531 283.703 555.505 283 555.505C281.568 555.505 280.331 555.778 279.289 556.325C278.274 556.846 277.492 557.614 276.946 558.63C276.425 559.645 276.164 560.895 276.164 562.38L276.164 608.708ZM284.875 566.442L284.875 573.317H260.266L260.266 566.442H284.875ZM301.203 548.708L301.203 608.708H291.75L291.75 548.708H301.203ZM327.453 566.442L309.055 586.833L298.977 597.145L296.516 589.177L304.133 579.762L316.086 566.442H327.453ZM318.117 608.708L304.407 588.864L310.344 582.262L329.016 608.708H318.117ZM357.258 600.231L357.258 580.075C357.258 578.565 356.985 577.262 356.438 576.169C355.891 575.075 355.058 574.229 353.938 573.63C352.844 573.031 351.464 572.731 349.797 572.731C348.261 572.731 346.933 572.992 345.813 573.512C344.693 574.033 343.821 574.736 343.196 575.622C342.571 576.507 342.258 577.51 342.258 578.63L332.883 578.63C332.883 576.963 333.287 575.348 334.094 573.786C334.901 572.223 336.073 570.83 337.61 569.606C339.146 568.382 340.982 567.419 343.117 566.716C345.253 566.012 347.649 565.661 350.305 565.661C353.482 565.661 356.295 566.195 358.742 567.262C361.216 568.33 363.157 569.945 364.563 572.106C365.995 574.242 366.711 576.924 366.711 580.153L366.711 598.942C366.711 600.869 366.841 602.601 367.102 604.137C367.388 605.648 367.792 606.963 368.313 608.083L368.313 608.708H358.664C358.222 607.692 357.87 606.403 357.61 604.841C357.375 603.252 357.258 601.716 357.258 600.231ZM358.625 583.005L358.703 588.825L351.946 588.825C350.201 588.825 348.664 588.994 347.336 589.333C346.008 589.645 344.901 590.114 344.016 590.739C343.131 591.364 342.466 592.119 342.024 593.005C341.581 593.89 341.36 594.893 341.36 596.012C341.36 597.132 341.62 598.161 342.141 599.098C342.662 600.01 343.417 600.726 344.407 601.247C345.422 601.768 346.646 602.028 348.078 602.028C350.006 602.028 351.685 601.637 353.117 600.856C354.576 600.049 355.722 599.072 356.555 597.927C357.388 596.755 357.831 595.648 357.883 594.606L360.93 598.786C360.617 599.854 360.084 600.999 359.328 602.223C358.573 603.447 357.584 604.619 356.36 605.739C355.162 606.833 353.716 607.731 352.024 608.434C350.357 609.137 348.43 609.489 346.242 609.489C343.482 609.489 341.021 608.942 338.86 607.848C336.698 606.729 335.006 605.231 333.782 603.356C332.558 601.455 331.946 599.307 331.946 596.911C331.946 594.671 332.362 592.692 333.196 590.973C334.055 589.229 335.305 587.77 336.946 586.598C338.612 585.427 340.644 584.541 343.039 583.942C345.435 583.317 348.17 583.005 351.242 583.005H358.625Z" fill="white"/>
<path d="M895.771 643.879L847.434 693.513L914.587 710.557L895.771 643.879ZM705.276 778.982C731.325 778.982 767.759 774.742 802.152 762.805C836.458 750.898 869.578 731.03 887.703 699.18L877.274 693.244C861.194 721.499 831.214 740.016 798.218 751.468C765.31 762.89 730.241 766.982 705.276 766.982V778.982Z" fill="#2FA4DA"/>
<path d="M397.416 772.982L334.401 801.777L340.971 732.807L397.416 772.982ZM342.566 773.761C310.506 767.857 275.319 756.273 248.006 735.79C220.483 715.15 200.921 685.397 200.921 643.879H212.921C212.921 680.977 230.151 707.401 255.205 726.19C280.47 745.136 313.649 756.234 344.739 761.96L342.566 773.761Z" fill="#2FA4DA"/>
<path d="M206.921 512.971L255.258 463.336L188.105 446.293L206.921 512.971ZM397.416 377.868C371.367 377.868 334.933 382.108 300.54 394.045C266.234 405.951 233.115 425.82 214.989 457.67L225.418 463.605C241.498 435.35 271.478 416.834 304.474 405.382C337.382 393.96 372.452 389.868 397.416 389.868V377.868Z" fill="#2FA4DA"/>
<path d="M707.082 380.257L770.239 351.774L763.327 420.711L707.082 380.257ZM761.949 379.753C794.228 386.008 829.676 398.314 857.185 420.09C884.903 442.031 904.479 473.565 904.479 517.485H892.479C892.479 477.711 874.977 449.479 849.737 429.499C824.289 409.355 790.901 397.587 759.666 391.534L761.949 379.753Z" fill="#2FA4DA"/>
<path d="M520.5 447.5L477.95 502.176L546.576 511.688L520.5 447.5ZM438.303 569.492C449.123 568.945 465.055 567.117 480.464 557.792C496.041 548.364 510.428 531.679 518.85 502.655L507.325 499.311C499.641 525.793 486.955 539.836 474.25 547.525C461.377 555.317 447.819 556.995 437.697 557.508L438.303 569.492Z" fill="#2FA4DA"/>
<path d="M438 591.5L506.407 580.521L481.712 645.252L438 591.5ZM492.544 606.361C510.95 623.557 525.084 653.999 526.498 707.341L514.502 707.659C513.137 656.174 499.576 629.353 484.352 615.13L492.544 606.361Z" fill="#2FA4DA"/>
<rect x="61" y="288" width="1012" height="598" stroke="#2FA4DA" stroke-width="6"/>
<path d="M452 324L486.641 264L417.359 264L452 324ZM446 232L446 270L458 270L458 232L446 232Z" fill="#2FA4DA"/>
<path d="M652 232L686.641 292L617.359 292L652 232ZM646 324L646 286L658 286L658 324L646 324Z" fill="#2FA4DA"/>
<path d="M499 839L455.699 914L542.301 914L499 839ZM506.5 988L506.5 906.5L491.5 906.5L491.5 988L506.5 988Z" fill="#888888"/>
<path d="M593 988L549.699 913L636.301 913L593 988ZM600.5 839L600.5 920.5L585.5 920.5L585.5 839L600.5 839Z" fill="#888888"/>
<defs>
<linearGradient id="paint0_linear_601_109" x1="393.001" y1="962.077" x2="393.001" y2="1138.86" gradientUnits="userSpaceOnUse">
<stop stop-color="#4387FD"/>
<stop offset="1" stop-color="#4683EA"/>
</linearGradient>
<clipPath id="clip0_601_109">
<rect width="262" height="262" fill="white" transform="translate(584 920)"/>
</clipPath>
<clipPath id="clip1_601_109">
<rect width="191" height="231" fill="white" transform="translate(43 922)"/>
</clipPath>
</defs>
</svg>
