<svg width="1663" height="165" viewBox="0 0 1663 165" fill="none" xmlns="http://www.w3.org/2000/svg">
<rect x="415" y="141.366" width="117.366" height="310.569" transform="rotate(-90 415 141.366)" fill="#2FA4DA"/>
<path d="M511.886 62.4561C511.886 61.7236 511.772 61.0726 511.544 60.5029C511.333 59.9333 510.95 59.4124 510.397 58.9404C509.844 58.4684 509.062 58.0127 508.053 57.5732C507.06 57.1175 505.791 56.6536 504.245 56.1816C502.552 55.6608 500.989 55.083 499.557 54.4482C498.141 53.7972 496.904 53.0485 495.846 52.2021C494.788 51.3395 493.966 50.3548 493.38 49.248C492.794 48.125 492.501 46.8311 492.501 45.3662C492.501 43.9176 492.803 42.5993 493.405 41.4111C494.023 40.223 494.894 39.1976 496.017 38.335C497.156 37.4561 498.499 36.7806 500.045 36.3086C501.592 35.8203 503.301 35.5762 505.172 35.5762C507.809 35.5762 510.08 36.0645 511.984 37.041C513.904 38.0176 515.377 39.3278 516.403 40.9717C517.444 42.6156 517.965 44.4303 517.965 46.416H511.886C511.886 45.2441 511.634 44.2106 511.129 43.3154C510.641 42.404 509.892 41.6878 508.883 41.167C507.89 40.6462 506.629 40.3857 505.099 40.3857C503.65 40.3857 502.446 40.6055 501.486 41.0449C500.525 41.4844 499.809 42.0785 499.337 42.8271C498.865 43.5758 498.629 44.4222 498.629 45.3662C498.629 46.0335 498.784 46.6439 499.093 47.1973C499.402 47.7344 499.874 48.2389 500.509 48.7109C501.144 49.1667 501.942 49.598 502.902 50.0049C503.862 50.4118 504.993 50.8024 506.295 51.1768C508.265 51.7627 509.982 52.4137 511.447 53.1299C512.912 53.8298 514.132 54.6273 515.109 55.5225C516.085 56.4176 516.818 57.4349 517.306 58.5742C517.794 59.6973 518.039 60.9749 518.039 62.4072C518.039 63.9046 517.737 65.2555 517.135 66.46C516.533 67.6481 515.67 68.6654 514.547 69.5117C513.441 70.3418 512.106 70.9847 510.543 71.4404C508.997 71.8799 507.272 72.0996 505.368 72.0996C503.659 72.0996 501.974 71.8717 500.314 71.416C498.67 70.9603 497.173 70.2686 495.822 69.3408C494.471 68.3968 493.397 67.2249 492.599 65.8252C491.802 64.4092 491.403 62.7572 491.403 60.8691H497.531C497.531 62.0247 497.726 63.0094 498.117 63.8232C498.524 64.637 499.085 65.3044 499.801 65.8252C500.517 66.3298 501.347 66.7041 502.291 66.9482C503.252 67.1924 504.277 67.3145 505.368 67.3145C506.8 67.3145 507.996 67.111 508.956 66.7041C509.933 66.2972 510.665 65.7275 511.154 64.9951C511.642 64.2627 511.886 63.4163 511.886 62.4561ZM534.982 45.1953L534.982 49.4922H520.089L520.089 45.1953H534.982ZM524.386 38.7256H530.27L530.27 64.3115C530.27 65.1253 530.384 65.752 530.612 66.1914C530.856 66.6146 531.19 66.8994 531.613 67.0459C532.036 67.1924 532.532 67.2656 533.102 67.2656C533.509 67.2656 533.9 67.2412 534.274 67.1924C534.648 67.1436 534.949 67.0947 535.177 67.0459L535.202 71.5381C534.713 71.6846 534.144 71.8148 533.493 71.9287C532.858 72.0426 532.125 72.0996 531.295 72.0996C529.944 72.0996 528.748 71.8636 527.706 71.3916C526.665 70.9033 525.851 70.1139 525.265 69.0234C524.679 67.9329 524.386 66.4844 524.386 64.6777L524.386 38.7256ZM545.431 50.2246L545.431 71.6113H539.547L539.547 45.1953H545.163L545.431 50.2246ZM553.512 45.0244L553.463 50.4932C553.105 50.4281 552.715 50.3792 552.291 50.3467C551.885 50.3141 551.478 50.2979 551.071 50.2979C550.062 50.2979 549.175 50.4443 548.41 50.7373C547.645 51.014 547.002 51.4209 546.481 51.958C545.976 52.4788 545.586 53.1136 545.309 53.8623C545.032 54.611 544.87 55.4492 544.821 56.377L543.478 56.4746C543.478 54.8145 543.641 53.2764 543.966 51.8604C544.292 50.4443 544.78 49.1992 545.431 48.125C546.098 47.0508 546.928 46.2126 547.921 45.6104C548.93 45.0081 550.094 44.707 551.413 44.707C551.771 44.707 552.153 44.7396 552.56 44.8047C552.983 44.8698 553.301 44.943 553.512 45.0244ZM568.356 72.0996C566.403 72.0996 564.637 71.7822 563.058 71.1475C561.496 70.4964 560.161 69.5931 559.054 68.4375C557.964 67.2819 557.125 65.9229 556.539 64.3604C555.954 62.7979 555.661 61.1133 555.661 59.3066L555.661 58.3301C555.661 56.263 555.962 54.3913 556.564 52.7148C557.166 51.0384 558.004 49.6061 559.079 48.418C560.153 47.2135 561.422 46.2939 562.887 45.6592C564.352 45.0244 565.939 44.707 567.648 44.707C569.536 44.707 571.188 45.0244 572.604 45.6592C574.02 46.2939 575.192 47.1891 576.12 48.3447C577.064 49.484 577.763 50.8431 578.219 52.4219C578.691 54.0007 578.927 55.7422 578.927 57.6465L578.927 60.1611L558.517 60.1611L558.517 55.9375L573.117 55.9375L573.117 55.4736C573.084 54.4157 572.872 53.4229 572.482 52.4951C572.108 51.5674 571.53 50.8187 570.748 50.249C569.967 49.6794 568.926 49.3945 567.623 49.3945C566.647 49.3945 565.776 49.6061 565.011 50.0293C564.262 50.4362 563.636 51.0303 563.131 51.8115C562.627 52.5928 562.236 53.5368 561.959 54.6436C561.699 55.734 561.569 56.9629 561.569 58.3301L561.569 59.3066C561.569 60.4622 561.723 61.5365 562.033 62.5293C562.358 63.5059 562.83 64.3604 563.449 65.0928C564.067 65.8252 564.816 66.403 565.695 66.8262C566.574 67.2331 567.575 67.4365 568.698 67.4365C570.114 67.4365 571.375 67.1517 572.482 66.582C573.589 66.0124 574.549 65.2067 575.363 64.165L578.463 67.168C577.894 67.998 577.153 68.7956 576.242 69.5605C575.33 70.3092 574.215 70.9196 572.897 71.3916C571.595 71.8636 570.081 72.0996 568.356 72.0996ZM598.41 66.3135L598.41 53.7158C598.41 52.7718 598.239 51.958 597.897 51.2744C597.555 50.5908 597.034 50.0618 596.334 49.6875C595.651 49.3132 594.788 49.126 593.747 49.126C592.786 49.126 591.956 49.2887 591.256 49.6143C590.556 49.9398 590.011 50.3792 589.621 50.9326C589.23 51.486 589.035 52.1126 589.035 52.8125H583.175C583.175 51.7708 583.428 50.7617 583.932 49.7852C584.437 48.8086 585.169 47.9378 586.129 47.1729C587.09 46.4079 588.237 45.8057 589.572 45.3662C590.906 44.9268 592.404 44.707 594.064 44.707C596.05 44.707 597.807 45.0407 599.337 45.708C600.884 46.3753 602.096 47.3844 602.975 48.7354C603.87 50.07 604.318 51.7464 604.318 53.7646L604.318 65.5078C604.318 66.7122 604.399 67.7946 604.562 68.7549C604.741 69.6989 604.993 70.5208 605.319 71.2207L605.319 71.6113H599.289C599.012 70.9766 598.792 70.1709 598.629 69.1943C598.483 68.2015 598.41 67.2412 598.41 66.3135ZM599.264 55.5469L599.313 59.1846H595.089C593.999 59.1846 593.039 59.2904 592.208 59.502C591.378 59.6973 590.687 59.9902 590.133 60.3809C589.58 60.7715 589.165 61.2435 588.888 61.7969C588.611 62.3503 588.473 62.9769 588.473 63.6768C588.473 64.3766 588.636 65.0195 588.961 65.6055C589.287 66.1751 589.759 66.6227 590.377 66.9482C591.012 67.2738 591.777 67.4365 592.672 67.4365C593.877 67.4365 594.927 67.1924 595.822 66.7041C596.733 66.1995 597.449 65.5892 597.97 64.873C598.491 64.1406 598.768 63.4489 598.8 62.7979L600.705 65.4102C600.509 66.0775 600.176 66.7936 599.704 67.5586C599.232 68.3236 598.613 69.056 597.848 69.7559C597.099 70.4395 596.196 71.001 595.138 71.4404C594.096 71.8799 592.892 72.0996 591.525 72.0996C589.8 72.0996 588.261 71.7578 586.911 71.0742C585.56 70.3743 584.502 69.4385 583.737 68.2666C582.972 67.0785 582.589 65.7357 582.589 64.2383C582.589 62.8385 582.85 61.6016 583.371 60.5273C583.908 59.4368 584.689 58.5254 585.714 57.793C586.756 57.0605 588.025 56.5072 589.523 56.1328C591.02 55.7422 592.729 55.5469 594.65 55.5469H599.264ZM616.354 50.5664L616.354 71.6113H610.47L610.47 45.1953H616.012L616.354 50.5664ZM615.402 57.4268L613.4 57.4023C613.4 55.5794 613.628 53.8949 614.083 52.3486C614.539 50.8024 615.206 49.4596 616.085 48.3203C616.964 47.1647 618.055 46.2777 619.357 45.6592C620.675 45.0244 622.197 44.707 623.922 44.707C625.127 44.707 626.225 44.8861 627.218 45.2441C628.227 45.5859 629.098 46.1312 629.831 46.8799C630.579 47.6286 631.149 48.5889 631.539 49.7607C631.946 50.9326 632.15 52.3486 632.15 54.0088L632.15 71.6113H626.266L626.266 54.5215C626.266 53.2357 626.071 52.2266 625.68 51.4941C625.306 50.7617 624.761 50.2409 624.044 49.9316C623.345 49.6061 622.506 49.4434 621.53 49.4434C620.423 49.4434 619.479 49.6549 618.698 50.0781C617.933 50.5013 617.306 51.0791 616.818 51.8115C616.33 52.5439 615.971 53.3903 615.744 54.3506C615.516 55.3109 615.402 56.3363 615.402 57.4268ZM631.784 55.8643L629.025 56.4746C629.025 54.8796 629.245 53.374 629.684 51.958C630.14 50.5257 630.799 49.2725 631.662 48.1982C632.54 47.1077 633.623 46.2533 634.909 45.6348C636.194 45.0163 637.667 44.707 639.328 44.707C640.678 44.707 641.883 44.8942 642.941 45.2686C644.015 45.6266 644.927 46.1963 645.675 46.9775C646.424 47.7588 646.994 48.776 647.384 50.0293C647.775 51.2663 647.97 52.7637 647.97 54.5215L647.97 71.6113H642.062L642.062 54.4971C642.062 53.1624 641.867 52.1289 641.476 51.3965C641.102 50.6641 640.565 50.1595 639.865 49.8828C639.165 49.5898 638.327 49.4434 637.35 49.4434C636.439 49.4434 635.633 49.6143 634.933 49.9561C634.249 50.2816 633.672 50.7454 633.2 51.3477C632.728 51.9336 632.37 52.609 632.125 53.374C631.898 54.139 631.784 54.9691 631.784 55.8643ZM462.057 117.354H452.804L452.804 112.496H462.057C463.668 112.496 464.97 112.236 465.963 111.715C466.956 111.194 467.68 110.478 468.136 109.566C468.608 108.639 468.844 107.581 468.844 106.393C468.844 105.27 468.608 104.22 468.136 103.243C467.68 102.25 466.956 101.453 465.963 100.851C464.97 100.248 463.668 99.9473 462.057 99.9473H454.684L454.684 130.611H448.556L448.556 95.0645H462.057C464.808 95.0645 467.143 95.5527 469.064 96.5293C471.001 97.4896 472.474 98.8242 473.483 100.533C474.492 102.226 474.997 104.163 474.997 106.344C474.997 108.639 474.492 110.608 473.483 112.252C472.474 113.896 471.001 115.157 469.064 116.036C467.143 116.915 464.808 117.354 462.057 117.354ZM485.812 109.225L485.812 130.611H479.928L479.928 104.195H485.543L485.812 109.225ZM493.893 104.024L493.844 109.493C493.486 109.428 493.095 109.379 492.672 109.347C492.265 109.314 491.859 109.298 491.452 109.298C490.442 109.298 489.555 109.444 488.79 109.737C488.025 110.014 487.383 110.421 486.862 110.958C486.357 111.479 485.967 112.114 485.69 112.862C485.413 113.611 485.25 114.449 485.202 115.377L483.859 115.475C483.859 113.814 484.022 112.276 484.347 110.86C484.673 109.444 485.161 108.199 485.812 107.125C486.479 106.051 487.309 105.213 488.302 104.61C489.311 104.008 490.475 103.707 491.793 103.707C492.151 103.707 492.534 103.74 492.941 103.805C493.364 103.87 493.681 103.943 493.893 104.024ZM495.822 117.696L495.822 117.135C495.822 115.23 496.098 113.465 496.652 111.837C497.205 110.193 498.003 108.769 499.044 107.564C500.102 106.344 501.388 105.4 502.902 104.732C504.432 104.049 506.157 103.707 508.078 103.707C510.014 103.707 511.74 104.049 513.253 104.732C514.783 105.4 516.077 106.344 517.135 107.564C518.193 108.769 518.999 110.193 519.552 111.837C520.106 113.465 520.382 115.23 520.382 117.135L520.382 117.696C520.382 119.601 520.106 121.367 519.552 122.994C518.999 124.622 518.193 126.046 517.135 127.267C516.077 128.471 514.791 129.415 513.278 130.099C511.764 130.766 510.047 131.1 508.126 131.1C506.19 131.1 504.456 130.766 502.926 130.099C501.413 129.415 500.127 128.471 499.069 127.267C498.011 126.046 497.205 124.622 496.652 122.994C496.098 121.367 495.822 119.601 495.822 117.696ZM501.706 117.135L501.706 117.696C501.706 118.884 501.828 120.007 502.072 121.065C502.316 122.123 502.698 123.051 503.219 123.849C503.74 124.646 504.407 125.273 505.221 125.729C506.035 126.184 507.003 126.412 508.126 126.412C509.217 126.412 510.161 126.184 510.958 125.729C511.772 125.273 512.44 124.646 512.96 123.849C513.481 123.051 513.864 122.123 514.108 121.065C514.368 120.007 514.498 118.884 514.498 117.696L514.498 117.135C514.498 115.963 514.368 114.856 514.108 113.814C513.864 112.757 513.473 111.821 512.936 111.007C512.415 110.193 511.748 109.558 510.934 109.103C510.136 108.631 509.184 108.395 508.078 108.395C506.971 108.395 506.011 108.631 505.197 109.103C504.399 109.558 503.74 110.193 503.219 111.007C502.698 111.821 502.316 112.757 502.072 113.814C501.828 114.856 501.706 115.963 501.706 117.135ZM536.105 126.412C537.065 126.412 537.928 126.225 538.693 125.851C539.474 125.46 540.101 124.923 540.573 124.239C541.061 123.556 541.33 122.766 541.378 121.871H546.92C546.888 123.58 546.383 125.134 545.407 126.534C544.43 127.934 543.136 129.049 541.525 129.879C539.914 130.693 538.131 131.1 536.178 131.1C534.16 131.1 532.402 130.758 530.905 130.074C529.407 129.374 528.162 128.414 527.169 127.193C526.177 125.973 525.428 124.565 524.923 122.97C524.435 121.375 524.191 119.666 524.191 117.843L524.191 116.988C524.191 115.165 524.435 113.456 524.923 111.861C525.428 110.25 526.177 108.834 527.169 107.613C528.162 106.393 529.407 105.44 530.905 104.757C532.402 104.057 534.152 103.707 536.154 103.707C538.27 103.707 540.125 104.13 541.72 104.977C543.315 105.807 544.568 106.97 545.48 108.468C546.408 109.949 546.888 111.674 546.92 113.644H541.378C541.33 112.667 541.085 111.788 540.646 111.007C540.223 110.209 539.621 109.575 538.839 109.103C538.074 108.631 537.155 108.395 536.081 108.395C534.892 108.395 533.908 108.639 533.126 109.127C532.345 109.599 531.735 110.25 531.295 111.08C530.856 111.894 530.539 112.813 530.343 113.839C530.164 114.848 530.075 115.898 530.075 116.988L530.075 117.843C530.075 118.933 530.164 119.991 530.343 121.017C530.522 122.042 530.831 122.962 531.271 123.775C531.727 124.573 532.345 125.216 533.126 125.704C533.908 126.176 534.9 126.412 536.105 126.412ZM563.082 131.1C561.129 131.1 559.363 130.782 557.785 130.147C556.222 129.496 554.887 128.593 553.781 127.438C552.69 126.282 551.852 124.923 551.266 123.36C550.68 121.798 550.387 120.113 550.387 118.307L550.387 117.33C550.387 115.263 550.688 113.391 551.29 111.715C551.893 110.038 552.731 108.606 553.805 107.418C554.879 106.214 556.149 105.294 557.614 104.659C559.079 104.024 560.665 103.707 562.374 103.707C564.262 103.707 565.914 104.024 567.331 104.659C568.747 105.294 569.918 106.189 570.846 107.345C571.79 108.484 572.49 109.843 572.946 111.422C573.418 113.001 573.654 114.742 573.654 116.646L573.654 119.161L553.244 119.161L553.244 114.938L567.843 114.938L567.843 114.474C567.811 113.416 567.599 112.423 567.208 111.495C566.834 110.567 566.256 109.819 565.475 109.249C564.694 108.679 563.652 108.395 562.35 108.395C561.373 108.395 560.503 108.606 559.738 109.029C558.989 109.436 558.362 110.03 557.858 110.812C557.353 111.593 556.963 112.537 556.686 113.644C556.426 114.734 556.295 115.963 556.295 117.33L556.295 118.307C556.295 119.462 556.45 120.536 556.759 121.529C557.085 122.506 557.557 123.36 558.175 124.093C558.794 124.825 559.542 125.403 560.421 125.826C561.3 126.233 562.301 126.437 563.424 126.437C564.84 126.437 566.102 126.152 567.208 125.582C568.315 125.012 569.275 124.207 570.089 123.165L573.19 126.168C572.62 126.998 571.88 127.796 570.968 128.561C570.057 129.309 568.942 129.92 567.623 130.392C566.321 130.864 564.808 131.1 563.082 131.1ZM593.063 123.458C593.063 122.872 592.916 122.343 592.623 121.871C592.331 121.383 591.769 120.943 590.939 120.553C590.125 120.162 588.921 119.804 587.326 119.479C585.926 119.169 584.64 118.803 583.468 118.38C582.313 117.94 581.32 117.411 580.49 116.793C579.66 116.174 579.017 115.442 578.561 114.596C578.105 113.749 577.877 112.773 577.877 111.666C577.877 110.592 578.113 109.575 578.585 108.614C579.057 107.654 579.733 106.808 580.612 106.075C581.491 105.343 582.557 104.765 583.81 104.342C585.08 103.919 586.496 103.707 588.058 103.707C590.272 103.707 592.168 104.081 593.747 104.83C595.342 105.563 596.562 106.563 597.409 107.833C598.255 109.086 598.678 110.502 598.678 112.081H592.794C592.794 111.381 592.615 110.73 592.257 110.128C591.915 109.509 591.395 109.013 590.695 108.639C589.995 108.248 589.116 108.053 588.058 108.053C587.049 108.053 586.211 108.215 585.543 108.541C584.892 108.85 584.404 109.257 584.079 109.762C583.769 110.266 583.615 110.82 583.615 111.422C583.615 111.861 583.696 112.26 583.859 112.618C584.038 112.96 584.331 113.277 584.738 113.57C585.145 113.847 585.698 114.107 586.398 114.352C587.114 114.596 588.009 114.832 589.083 115.06C591.102 115.483 592.835 116.028 594.284 116.695C595.748 117.346 596.872 118.193 597.653 119.234C598.434 120.26 598.825 121.562 598.825 123.141C598.825 124.313 598.572 125.387 598.068 126.363C597.58 127.324 596.863 128.162 595.919 128.878C594.975 129.578 593.844 130.123 592.526 130.514C591.224 130.904 589.759 131.1 588.131 131.1C585.739 131.1 583.712 130.676 582.052 129.83C580.392 128.967 579.131 127.869 578.268 126.534C577.422 125.183 576.998 123.784 576.998 122.335H582.687C582.752 123.425 583.053 124.296 583.59 124.947C584.144 125.582 584.827 126.046 585.641 126.339C586.471 126.616 587.326 126.754 588.205 126.754C589.262 126.754 590.15 126.616 590.866 126.339C591.582 126.046 592.127 125.655 592.501 125.167C592.876 124.662 593.063 124.093 593.063 123.458ZM618.795 123.458C618.795 122.872 618.649 122.343 618.356 121.871C618.063 121.383 617.501 120.943 616.671 120.553C615.858 120.162 614.653 119.804 613.058 119.479C611.658 119.169 610.373 118.803 609.201 118.38C608.045 117.94 607.052 117.411 606.222 116.793C605.392 116.174 604.749 115.442 604.293 114.596C603.838 113.749 603.61 112.773 603.61 111.666C603.61 110.592 603.846 109.575 604.318 108.614C604.79 107.654 605.465 106.808 606.344 106.075C607.223 105.343 608.289 104.765 609.542 104.342C610.812 103.919 612.228 103.707 613.79 103.707C616.004 103.707 617.9 104.081 619.479 104.83C621.074 105.563 622.295 106.563 623.141 107.833C623.987 109.086 624.411 110.502 624.411 112.081H618.527C618.527 111.381 618.348 110.73 617.99 110.128C617.648 109.509 617.127 109.013 616.427 108.639C615.727 108.248 614.848 108.053 613.79 108.053C612.781 108.053 611.943 108.215 611.276 108.541C610.625 108.85 610.136 109.257 609.811 109.762C609.502 110.266 609.347 110.82 609.347 111.422C609.347 111.861 609.428 112.26 609.591 112.618C609.77 112.96 610.063 113.277 610.47 113.57C610.877 113.847 611.43 114.107 612.13 114.352C612.846 114.596 613.742 114.832 614.816 115.06C616.834 115.483 618.567 116.028 620.016 116.695C621.481 117.346 622.604 118.193 623.385 119.234C624.166 120.26 624.557 121.562 624.557 123.141C624.557 124.313 624.305 125.387 623.8 126.363C623.312 127.324 622.596 128.162 621.652 128.878C620.708 129.578 619.577 130.123 618.258 130.514C616.956 130.904 615.491 131.1 613.864 131.1C611.471 131.1 609.445 130.676 607.785 129.83C606.124 128.967 604.863 127.869 604 126.534C603.154 125.183 602.731 123.784 602.731 122.335H608.419C608.484 123.425 608.786 124.296 609.323 124.947C609.876 125.582 610.56 126.046 611.373 126.339C612.204 126.616 613.058 126.754 613.937 126.754C614.995 126.754 615.882 126.616 616.598 126.339C617.314 126.046 617.859 125.655 618.234 125.167C618.608 124.662 618.795 124.093 618.795 123.458ZM636.007 104.195L636.007 130.611H630.099L630.099 104.195H636.007ZM629.708 97.2617C629.708 96.3665 630.001 95.626 630.587 95.04C631.19 94.4378 632.02 94.1367 633.078 94.1367C634.119 94.1367 634.941 94.4378 635.543 95.04C636.146 95.626 636.447 96.3665 636.447 97.2617C636.447 98.1406 636.146 98.873 635.543 99.459C634.941 100.045 634.119 100.338 633.078 100.338C632.02 100.338 631.19 100.045 630.587 99.459C630.001 98.873 629.708 98.1406 629.708 97.2617ZM648.288 109.835L648.288 130.611H642.404L642.404 104.195H647.946L648.288 109.835ZM647.238 116.427L645.333 116.402C645.35 114.531 645.61 112.813 646.115 111.251C646.636 109.688 647.352 108.346 648.263 107.223C649.191 106.1 650.298 105.237 651.583 104.635C652.869 104.016 654.302 103.707 655.88 103.707C657.15 103.707 658.297 103.886 659.323 104.244C660.364 104.586 661.251 105.147 661.984 105.929C662.733 106.71 663.302 107.727 663.693 108.98C664.083 110.217 664.279 111.739 664.279 113.546L664.279 130.611H658.371L658.371 113.521C658.371 112.252 658.183 111.251 657.809 110.519C657.451 109.77 656.922 109.241 656.222 108.932C655.539 108.606 654.684 108.443 653.659 108.443C652.65 108.443 651.746 108.655 650.949 109.078C650.151 109.501 649.476 110.079 648.922 110.812C648.385 111.544 647.97 112.39 647.677 113.351C647.384 114.311 647.238 115.336 647.238 116.427ZM687.204 104.195H692.55L692.55 129.879C692.55 132.255 692.046 134.273 691.037 135.934C690.027 137.594 688.62 138.855 686.813 139.718C685.006 140.597 682.915 141.036 680.539 141.036C679.529 141.036 678.406 140.89 677.169 140.597C675.949 140.304 674.761 139.832 673.605 139.181C672.466 138.546 671.513 137.708 670.748 136.666L673.507 133.199C674.451 134.322 675.493 135.144 676.632 135.665C677.772 136.186 678.968 136.446 680.221 136.446C681.572 136.446 682.72 136.194 683.664 135.689C684.624 135.201 685.364 134.477 685.885 133.517C686.406 132.556 686.666 131.384 686.666 130.001L686.666 110.177L687.204 104.195ZM669.259 117.696L669.259 117.184C669.259 115.182 669.503 113.359 669.992 111.715C670.48 110.055 671.18 108.631 672.091 107.442C673.003 106.238 674.109 105.318 675.412 104.684C676.714 104.033 678.187 103.707 679.831 103.707C681.539 103.707 682.996 104.016 684.201 104.635C685.421 105.253 686.439 106.14 687.252 107.296C688.066 108.435 688.701 109.802 689.157 111.397C689.629 112.976 689.979 114.734 690.206 116.671L690.206 118.307C689.995 120.195 689.637 121.92 689.132 123.482C688.628 125.045 687.96 126.396 687.13 127.535C686.3 128.674 685.275 129.553 684.054 130.172C682.85 130.79 681.426 131.1 679.782 131.1C678.17 131.1 676.714 130.766 675.412 130.099C674.126 129.431 673.019 128.495 672.091 127.291C671.18 126.087 670.48 124.671 669.992 123.043C669.503 121.399 669.259 119.617 669.259 117.696ZM675.143 117.184L675.143 117.696C675.143 118.901 675.257 120.024 675.485 121.065C675.729 122.107 676.095 123.027 676.583 123.824C677.088 124.605 677.723 125.224 678.488 125.68C679.269 126.119 680.189 126.339 681.247 126.339C682.63 126.339 683.761 126.046 684.64 125.46C685.535 124.874 686.219 124.085 686.691 123.092C687.179 122.083 687.521 120.96 687.716 119.723L687.716 115.304C687.619 114.343 687.415 113.448 687.106 112.618C686.813 111.788 686.414 111.064 685.91 110.445C685.405 109.811 684.77 109.322 684.005 108.98C683.24 108.622 682.337 108.443 681.295 108.443C680.237 108.443 679.318 108.671 678.537 109.127C677.755 109.583 677.112 110.209 676.608 111.007C676.12 111.804 675.753 112.732 675.509 113.79C675.265 114.848 675.143 115.979 675.143 117.184Z" fill="white"/>
<rect x="809" y="141.367" width="117.366" height="299" transform="rotate(-90 809 141.367)" fill="#2FA4DA"/>
<path d="M833.891 101.611H826.298L826.347 96.7529H833.891C836.088 96.7529 837.927 96.2728 839.408 95.3125C840.906 94.3522 842.029 92.9769 842.777 91.1865C843.542 89.3962 843.925 87.264 843.925 84.79L843.925 82.8613C843.925 80.9408 843.705 79.2399 843.266 77.7588C842.842 76.2777 842.208 75.0326 841.361 74.0234C840.531 73.0143 839.506 72.2493 838.285 71.7285C837.081 71.2077 835.689 70.9473 834.11 70.9473H826.151L826.151 66.0645H834.11C836.47 66.0645 838.627 66.4632 840.58 67.2607C842.533 68.042 844.218 69.1732 845.634 70.6543C847.066 72.1354 848.165 73.9095 848.93 75.9766C849.695 78.0436 850.077 80.3548 850.077 82.9102L850.077 84.79C850.077 87.3454 849.695 89.6566 848.93 91.7236C848.165 93.7907 847.066 95.5648 845.634 97.0459C844.201 98.5107 842.493 99.6419 840.507 100.439C838.537 101.221 836.332 101.611 833.891 101.611ZM829.691 66.0645L829.691 101.611H823.563L823.563 66.0645H829.691ZM870.536 96.3135L870.536 83.7158C870.536 82.7718 870.365 81.958 870.023 81.2744C869.682 80.5908 869.161 80.0618 868.461 79.6875C867.777 79.3132 866.915 79.126 865.873 79.126C864.913 79.126 864.083 79.2887 863.383 79.6143C862.683 79.9398 862.138 80.3792 861.747 80.9326C861.356 81.486 861.161 82.1126 861.161 82.8125H855.302C855.302 81.7708 855.554 80.7617 856.059 79.7852C856.563 78.8086 857.296 77.9378 858.256 77.1729C859.216 76.4079 860.364 75.8057 861.698 75.3662C863.033 74.9268 864.53 74.707 866.19 74.707C868.176 74.707 869.934 75.0407 871.464 75.708C873.01 76.3753 874.223 77.3844 875.102 78.7354C875.997 80.07 876.444 81.7464 876.444 83.7646L876.444 95.5078C876.444 96.7122 876.526 97.7946 876.688 98.7549C876.868 99.6989 877.12 100.521 877.445 101.221L877.445 101.611H871.415C871.138 100.977 870.919 100.171 870.756 99.1943C870.609 98.2015 870.536 97.2412 870.536 96.3135ZM871.391 85.5469L871.439 89.1846H867.216C866.125 89.1846 865.165 89.2904 864.335 89.502C863.505 89.6973 862.813 89.9902 862.26 90.3809C861.706 90.7715 861.291 91.2435 861.015 91.7969C860.738 92.3503 860.6 92.9769 860.6 93.6768C860.6 94.3766 860.762 95.0195 861.088 95.6055C861.413 96.1751 861.885 96.6227 862.504 96.9482C863.139 97.2738 863.904 97.4365 864.799 97.4365C866.003 97.4365 867.053 97.1924 867.948 96.7041C868.86 96.1995 869.576 95.5892 870.097 94.873C870.618 94.1406 870.894 93.4489 870.927 92.7979L872.831 95.4102C872.636 96.0775 872.302 96.7936 871.83 97.5586C871.358 98.3236 870.74 99.056 869.975 99.7559C869.226 100.439 868.323 101.001 867.265 101.44C866.223 101.88 865.019 102.1 863.651 102.1C861.926 102.1 860.388 101.758 859.037 101.074C857.686 100.374 856.628 99.4385 855.863 98.2666C855.098 97.0785 854.716 95.7357 854.716 94.2383C854.716 92.8385 854.976 91.6016 855.497 90.5273C856.034 89.4368 856.815 88.5254 857.841 87.793C858.882 87.0605 860.152 86.5072 861.649 86.1328C863.147 85.7422 864.856 85.5469 866.776 85.5469H871.391ZM894.706 75.1953L894.706 79.4922H879.813L879.813 75.1953H894.706ZM884.11 68.7256H889.994L889.994 94.3115C889.994 95.1253 890.108 95.752 890.336 96.1914C890.58 96.6146 890.914 96.8994 891.337 97.0459C891.76 97.1924 892.257 97.2656 892.826 97.2656C893.233 97.2656 893.624 97.2412 893.998 97.1924C894.372 97.1436 894.674 97.0947 894.901 97.0459L894.926 101.538C894.438 101.685 893.868 101.815 893.217 101.929C892.582 102.043 891.85 102.1 891.02 102.1C889.669 102.1 888.472 101.864 887.431 101.392C886.389 100.903 885.575 100.114 884.989 99.0234C884.403 97.9329 884.11 96.4844 884.11 94.6777L884.11 68.7256ZM914.14 96.3135L914.14 83.7158C914.14 82.7718 913.969 81.958 913.627 81.2744C913.285 80.5908 912.764 80.0618 912.064 79.6875C911.381 79.3132 910.518 79.126 909.477 79.126C908.516 79.126 907.686 79.2887 906.986 79.6143C906.286 79.9398 905.741 80.3792 905.351 80.9326C904.96 81.486 904.765 82.1126 904.765 82.8125H898.905C898.905 81.7708 899.158 80.7617 899.662 79.7852C900.167 78.8086 900.899 77.9378 901.859 77.1729C902.82 76.4079 903.967 75.8057 905.302 75.3662C906.636 74.9268 908.134 74.707 909.794 74.707C911.78 74.707 913.537 75.0407 915.067 75.708C916.614 76.3753 917.826 77.3844 918.705 78.7354C919.6 80.07 920.048 81.7464 920.048 83.7646L920.048 95.5078C920.048 96.7122 920.129 97.7946 920.292 98.7549C920.471 99.6989 920.723 100.521 921.049 101.221L921.049 101.611H915.019C914.742 100.977 914.522 100.171 914.359 99.1943C914.213 98.2015 914.14 97.2412 914.14 96.3135ZM914.994 85.5469L915.043 89.1846H910.819C909.729 89.1846 908.769 89.2904 907.938 89.502C907.108 89.6973 906.417 89.9902 905.863 90.3809C905.31 90.7715 904.895 91.2435 904.618 91.7969C904.341 92.3503 904.203 92.9769 904.203 93.6768C904.203 94.3766 904.366 95.0195 904.691 95.6055C905.017 96.1751 905.489 96.6227 906.107 96.9482C906.742 97.2738 907.507 97.4365 908.402 97.4365C909.607 97.4365 910.657 97.1924 911.552 96.7041C912.463 96.1995 913.179 95.5892 913.7 94.873C914.221 94.1406 914.498 93.4489 914.53 92.7979L916.435 95.4102C916.239 96.0775 915.906 96.7936 915.434 97.5586C914.962 98.3236 914.343 99.056 913.578 99.7559C912.829 100.439 911.926 101.001 910.868 101.44C909.826 101.88 908.622 102.1 907.255 102.1C905.53 102.1 903.992 101.758 902.641 101.074C901.29 100.374 900.232 99.4385 899.467 98.2666C898.702 97.0785 898.319 95.7357 898.319 94.2383C898.319 92.8385 898.58 91.6016 899.101 90.5273C899.638 89.4368 900.419 88.5254 901.444 87.793C902.486 87.0605 903.756 86.5072 905.253 86.1328C906.75 85.7422 908.459 85.5469 910.38 85.5469H914.994ZM957.938 92.4561C957.938 91.7236 957.825 91.0726 957.597 90.5029C957.385 89.9333 957.003 89.4124 956.449 88.9404C955.896 88.4684 955.115 88.0127 954.105 87.5732C953.113 87.1175 951.843 86.6536 950.297 86.1816C948.604 85.6608 947.042 85.083 945.609 84.4482C944.193 83.7972 942.956 83.0485 941.898 82.2021C940.84 81.3395 940.019 80.3548 939.433 79.248C938.847 78.125 938.554 76.8311 938.554 75.3662C938.554 73.9176 938.855 72.5993 939.457 71.4111C940.076 70.223 940.946 69.1976 942.069 68.335C943.209 67.4561 944.551 66.7806 946.098 66.3086C947.644 65.8203 949.353 65.5762 951.225 65.5762C953.861 65.5762 956.132 66.0645 958.036 67.041C959.957 68.0176 961.43 69.3278 962.455 70.9717C963.497 72.6156 964.018 74.4303 964.018 76.416L957.938 76.416C957.938 75.2441 957.686 74.2106 957.182 73.3154C956.693 72.404 955.945 71.6878 954.936 71.167C953.943 70.6462 952.681 70.3857 951.151 70.3857C949.703 70.3857 948.498 70.6055 947.538 71.0449C946.578 71.4844 945.862 72.0785 945.39 72.8271C944.918 73.5758 944.682 74.4222 944.682 75.3662C944.682 76.0335 944.836 76.6439 945.146 77.1973C945.455 77.7344 945.927 78.2389 946.562 78.7109C947.196 79.1667 947.994 79.598 948.954 80.0049C949.914 80.4118 951.046 80.8024 952.348 81.1768C954.317 81.7627 956.034 82.4137 957.499 83.1299C958.964 83.8298 960.185 84.6273 961.161 85.5225C962.138 86.4176 962.87 87.4349 963.358 88.5742C963.847 89.6973 964.091 90.9749 964.091 92.4072C964.091 93.9046 963.79 95.2555 963.188 96.46C962.585 97.6481 961.723 98.6654 960.6 99.5117C959.493 100.342 958.158 100.985 956.596 101.44C955.049 101.88 953.324 102.1 951.42 102.1C949.711 102.1 948.026 101.872 946.366 101.416C944.722 100.96 943.225 100.269 941.874 99.3408C940.523 98.3968 939.449 97.2249 938.651 95.8252C937.854 94.4092 937.455 92.7572 937.455 90.8691H943.583C943.583 92.0247 943.778 93.0094 944.169 93.8232C944.576 94.637 945.137 95.3044 945.854 95.8252C946.57 96.3298 947.4 96.7041 948.344 96.9482C949.304 97.1924 950.329 97.3145 951.42 97.3145C952.852 97.3145 954.049 97.111 955.009 96.7041C955.985 96.2972 956.718 95.7275 957.206 94.9951C957.694 94.2627 957.938 93.4163 957.938 92.4561ZM981.034 75.1953L981.034 79.4922H966.142L966.142 75.1953H981.034ZM970.438 68.7256H976.322L976.322 94.3115C976.322 95.1253 976.436 95.752 976.664 96.1914C976.908 96.6146 977.242 96.8994 977.665 97.0459C978.088 97.1924 978.585 97.2656 979.154 97.2656C979.561 97.2656 979.952 97.2412 980.326 97.1924C980.701 97.1436 981.002 97.0947 981.229 97.0459L981.254 101.538C980.766 101.685 980.196 101.815 979.545 101.929C978.91 102.043 978.178 102.1 977.348 102.1C975.997 102.1 974.8 101.864 973.759 101.392C972.717 100.903 971.903 100.114 971.317 99.0234C970.731 97.9329 970.438 96.4844 970.438 94.6777L970.438 68.7256ZM991.483 80.2246L991.483 101.611H985.6L985.6 75.1953L991.215 75.1953L991.483 80.2246ZM999.564 75.0244L999.516 80.4932C999.158 80.4281 998.767 80.3792 998.344 80.3467C997.937 80.3141 997.53 80.2979 997.123 80.2979C996.114 80.2979 995.227 80.4443 994.462 80.7373C993.697 81.014 993.054 81.4209 992.533 81.958C992.029 82.4788 991.638 83.1136 991.361 83.8623C991.085 84.611 990.922 85.4492 990.873 86.377L989.53 86.4746C989.53 84.8145 989.693 83.2764 990.019 81.8604C990.344 80.4443 990.832 79.1992 991.483 78.125C992.151 77.0508 992.981 76.2126 993.974 75.6104C994.983 75.0081 996.146 74.707 997.465 74.707C997.823 74.707 998.205 74.7396 998.612 74.8047C999.035 74.8698 999.353 74.943 999.564 75.0244ZM1014.41 102.1C1012.46 102.1 1010.69 101.782 1009.11 101.147C1007.55 100.496 1006.21 99.5931 1005.11 98.4375C1004.02 97.2819 1003.18 95.9229 1002.59 94.3604C1002.01 92.7979 1001.71 91.1133 1001.71 89.3066L1001.71 88.3301C1001.71 86.263 1002.01 84.3913 1002.62 82.7148C1003.22 81.0384 1004.06 79.6061 1005.13 78.418C1006.21 77.2135 1007.47 76.2939 1008.94 75.6592C1010.4 75.0244 1011.99 74.707 1013.7 74.707C1015.59 74.707 1017.24 75.0244 1018.66 75.6592C1020.07 76.2939 1021.24 77.1891 1022.17 78.3447C1023.12 79.484 1023.82 80.8431 1024.27 82.4219C1024.74 84.0007 1024.98 85.7422 1024.98 87.6465L1024.98 90.1611H1004.57L1004.57 85.9375H1019.17L1019.17 85.4736C1019.14 84.4157 1018.92 83.4229 1018.53 82.4951C1018.16 81.5674 1017.58 80.8187 1016.8 80.249C1016.02 79.6794 1014.98 79.3945 1013.68 79.3945C1012.7 79.3945 1011.83 79.6061 1011.06 80.0293C1010.31 80.4362 1009.69 81.0303 1009.18 81.8115C1008.68 82.5928 1008.29 83.5368 1008.01 84.6436C1007.75 85.734 1007.62 86.9629 1007.62 88.3301L1007.62 89.3066C1007.62 90.4622 1007.78 91.5365 1008.08 92.5293C1008.41 93.5059 1008.88 94.3604 1009.5 95.0928C1010.12 95.8252 1010.87 96.403 1011.75 96.8262C1012.63 97.2331 1013.63 97.4365 1014.75 97.4365C1016.17 97.4365 1017.43 97.1517 1018.53 96.582C1019.64 96.0124 1020.6 95.2067 1021.42 94.165L1024.52 97.168C1023.95 97.998 1023.21 98.7956 1022.29 99.5605C1021.38 100.309 1020.27 100.92 1018.95 101.392C1017.65 101.864 1016.13 102.1 1014.41 102.1ZM1044.46 96.3135L1044.46 83.7158C1044.46 82.7718 1044.29 81.958 1043.95 81.2744C1043.61 80.5908 1043.09 80.0618 1042.39 79.6875C1041.7 79.3132 1040.84 79.126 1039.8 79.126C1038.84 79.126 1038.01 79.2887 1037.31 79.6143C1036.61 79.9398 1036.06 80.3792 1035.67 80.9326C1035.28 81.486 1035.09 82.1126 1035.09 82.8125H1029.23C1029.23 81.7708 1029.48 80.7617 1029.98 79.7852C1030.49 78.8086 1031.22 77.9378 1032.18 77.1729C1033.14 76.4079 1034.29 75.8057 1035.62 75.3662C1036.96 74.9268 1038.46 74.707 1040.12 74.707C1042.1 74.707 1043.86 75.0407 1045.39 75.708C1046.94 76.3753 1048.15 77.3844 1049.03 78.7354C1049.92 80.07 1050.37 81.7464 1050.37 83.7646L1050.37 95.5078C1050.37 96.7122 1050.45 97.7946 1050.61 98.7549C1050.79 99.6989 1051.05 100.521 1051.37 101.221L1051.37 101.611H1045.34C1045.06 100.977 1044.84 100.171 1044.68 99.1943C1044.54 98.2015 1044.46 97.2412 1044.46 96.3135ZM1045.32 85.5469L1045.37 89.1846H1041.14C1040.05 89.1846 1039.09 89.2904 1038.26 89.502C1037.43 89.6973 1036.74 89.9902 1036.19 90.3809C1035.63 90.7715 1035.22 91.2435 1034.94 91.7969C1034.66 92.3503 1034.53 92.9769 1034.53 93.6768C1034.53 94.3766 1034.69 95.0195 1035.01 95.6055C1035.34 96.1751 1035.81 96.6227 1036.43 96.9482C1037.06 97.2738 1037.83 97.4365 1038.72 97.4365C1039.93 97.4365 1040.98 97.1924 1041.87 96.7041C1042.79 96.1995 1043.5 95.5892 1044.02 94.873C1044.54 94.1406 1044.82 93.4489 1044.85 92.7979L1046.76 95.4102C1046.56 96.0775 1046.23 96.7936 1045.76 97.5586C1045.28 98.3236 1044.67 99.056 1043.9 99.7559C1043.15 100.439 1042.25 101.001 1041.19 101.44C1040.15 101.88 1038.94 102.1 1037.58 102.1C1035.85 102.1 1034.31 101.758 1032.96 101.074C1031.61 100.374 1030.55 99.4385 1029.79 98.2666C1029.02 97.0785 1028.64 95.7357 1028.64 94.2383C1028.64 92.8385 1028.9 91.6016 1029.42 90.5273C1029.96 89.4368 1030.74 88.5254 1031.77 87.793C1032.81 87.0605 1034.08 86.5072 1035.58 86.1328C1037.07 85.7422 1038.78 85.5469 1040.7 85.5469H1045.32ZM1062.41 80.5664L1062.41 101.611L1056.52 101.611L1056.52 75.1953H1062.06L1062.41 80.5664ZM1061.45 87.4268L1059.45 87.4023C1059.45 85.5794 1059.68 83.8949 1060.14 82.3486C1060.59 80.8024 1061.26 79.4596 1062.14 78.3203C1063.02 77.1647 1064.11 76.2777 1065.41 75.6592C1066.73 75.0244 1068.25 74.707 1069.97 74.707C1071.18 74.707 1072.28 74.8861 1073.27 75.2441C1074.28 75.5859 1075.15 76.1312 1075.88 76.8799C1076.63 77.6286 1077.2 78.5889 1077.59 79.7607C1078 80.9326 1078.2 82.3486 1078.2 84.0088L1078.2 101.611H1072.32L1072.32 84.5215C1072.32 83.2357 1072.12 82.2266 1071.73 81.4941C1071.36 80.7617 1070.81 80.2409 1070.1 79.9316C1069.4 79.6061 1068.56 79.4434 1067.58 79.4434C1066.48 79.4434 1065.53 79.6549 1064.75 80.0781C1063.99 80.5013 1063.36 81.0791 1062.87 81.8115C1062.38 82.5439 1062.02 83.3903 1061.8 84.3506C1061.57 85.3109 1061.45 86.3363 1061.45 87.4268ZM1077.84 85.8643L1075.08 86.4746C1075.08 84.8796 1075.3 83.374 1075.74 81.958C1076.19 80.5257 1076.85 79.2725 1077.71 78.1982C1078.59 77.1077 1079.68 76.2533 1080.96 75.6348C1082.25 75.0163 1083.72 74.707 1085.38 74.707C1086.73 74.707 1087.94 74.8942 1088.99 75.2686C1090.07 75.6266 1090.98 76.1963 1091.73 76.9775C1092.48 77.7588 1093.05 78.776 1093.44 80.0293C1093.83 81.2663 1094.02 82.7637 1094.02 84.5215L1094.02 101.611H1088.11L1088.11 84.4971C1088.11 83.1624 1087.92 82.1289 1087.53 81.3965C1087.15 80.6641 1086.62 80.1595 1085.92 79.8828C1085.22 79.5898 1084.38 79.4434 1083.4 79.4434C1082.49 79.4434 1081.69 79.6143 1080.99 79.9561C1080.3 80.2816 1079.72 80.7454 1079.25 81.3477C1078.78 81.9336 1078.42 82.609 1078.18 83.374C1077.95 84.139 1077.84 84.9691 1077.84 85.8643Z" fill="white"/>
<rect y="141.367" width="117.366" height="328.626" transform="rotate(-90 0 141.367)" fill="#CCCCCC"/>
<path d="M35.6263 36.0645L48.1995 36.0645C50.9013 36.0645 53.2044 36.4714 55.1087 37.2852C57.013 38.099 58.4697 39.3034 59.4788 40.8984C60.5042 42.4772 61.0169 44.4303 61.0169 46.7578C61.0169 48.5319 60.6914 50.0944 60.0403 51.4453C59.3893 52.7962 58.4697 53.9355 57.2815 54.8633C56.0934 55.7747 54.6774 56.4827 53.0335 56.9873L51.178 57.8906H39.8743L39.8255 53.0322H48.2972C49.762 53.0322 50.9827 52.7718 51.9593 52.251C52.9358 51.7301 53.6683 51.0221 54.1565 50.127C54.6611 49.2155 54.9134 48.1901 54.9134 47.0508C54.9134 45.8138 54.6692 44.7396 54.181 43.8281C53.7089 42.9004 52.9765 42.1924 51.9837 41.7041C50.9909 41.1995 49.7295 40.9473 48.1995 40.9473H41.7542L41.7542 71.6113H35.6263L35.6263 36.0645ZM55.9144 71.6113L47.5647 55.6445L53.9856 55.6201L62.4573 71.2939L62.4573 71.6113H55.9144ZM81.427 66.3135L81.427 53.7158C81.427 52.7718 81.2562 51.958 80.9144 51.2744C80.5726 50.5908 80.0517 50.0618 79.3519 49.6875C78.6683 49.3132 77.8056 49.126 76.764 49.126C75.8037 49.126 74.9736 49.2887 74.2737 49.6143C73.5739 49.9398 73.0286 50.3792 72.638 50.9326C72.2474 51.486 72.052 52.1126 72.052 52.8125H66.1927C66.1927 51.7708 66.445 50.7617 66.9495 49.7852C67.4541 48.8086 68.1865 47.9378 69.1468 47.1729C70.1071 46.4079 71.2545 45.8057 72.5892 45.3662C73.9238 44.9268 75.4212 44.707 77.0813 44.707C79.067 44.707 80.8248 45.0407 82.3548 45.708C83.901 46.3753 85.1136 47.3844 85.9925 48.7354C86.8877 50.07 87.3353 51.7464 87.3353 53.7646L87.3353 65.5078C87.3353 66.7122 87.4166 67.7946 87.5794 68.7549C87.7584 69.6989 88.0107 70.5208 88.3362 71.2207L88.3362 71.6113H82.306C82.0293 70.9766 81.8095 70.1709 81.6468 69.1943C81.5003 68.2015 81.427 67.2412 81.427 66.3135ZM82.2815 55.5469L82.3304 59.1846H78.1067C77.0162 59.1846 76.056 59.2904 75.2259 59.502C74.3958 59.6973 73.7041 59.9902 73.1507 60.3809C72.5973 60.7715 72.1823 61.2435 71.9056 61.7969C71.6289 62.3503 71.4905 62.9769 71.4905 63.6768C71.4905 64.3766 71.6533 65.0195 71.9788 65.6055C72.3043 66.1751 72.7763 66.6227 73.3948 66.9482C74.0296 67.2738 74.7946 67.4365 75.6897 67.4365C76.8942 67.4365 77.944 67.1924 78.8392 66.7041C79.7506 66.1995 80.4668 65.5892 80.9876 64.873C81.5084 64.1406 81.7851 63.4489 81.8177 62.7979L83.722 65.4102C83.5267 66.0775 83.193 66.7936 82.721 67.5586C82.249 68.3236 81.6305 69.056 80.8655 69.7559C80.1168 70.4395 79.2135 71.001 78.1556 71.4404C77.1139 71.8799 75.9095 72.0996 74.5423 72.0996C72.817 72.0996 71.2789 71.7578 69.928 71.0742C68.5771 70.3743 67.5192 69.4385 66.7542 68.2666C65.9892 67.0785 65.6067 65.7357 65.6067 64.2383C65.6067 62.8385 65.8672 61.6016 66.388 60.5273C66.9251 59.4368 67.7063 58.5254 68.7317 57.793C69.7734 57.0605 71.0429 56.5072 72.5403 56.1328C74.0377 55.7422 75.7467 55.5469 77.6673 55.5469H82.2815ZM100.665 65.752L106.769 45.1953H110.529L109.503 51.3477L103.351 71.6113H99.9817L100.665 65.752ZM97.0765 45.1953L101.837 65.8496L102.228 71.6113H98.4681L91.3147 45.1953H97.0765ZM116.242 65.6055L120.856 45.1953H126.593L119.464 71.6113H115.704L116.242 65.6055ZM111.163 45.1953L117.194 65.5078L117.95 71.6113H114.581L108.356 51.3232L107.33 45.1953H111.163ZM162.335 62.4561C162.335 61.7236 162.221 61.0726 161.993 60.5029C161.782 59.9333 161.399 59.4124 160.846 58.9404C160.293 58.4684 159.511 58.0127 158.502 57.5732C157.509 57.1175 156.24 56.6536 154.694 56.1816C153.001 55.6608 151.438 55.083 150.006 54.4482C148.59 53.7972 147.353 53.0485 146.295 52.2021C145.237 51.3395 144.415 50.3548 143.829 49.248C143.243 48.125 142.95 46.8311 142.95 45.3662C142.95 43.9176 143.252 42.5993 143.854 41.4111C144.472 40.223 145.343 39.1976 146.466 38.335C147.605 37.4561 148.948 36.7806 150.494 36.3086C152.041 35.8203 153.75 35.5762 155.621 35.5762C158.258 35.5762 160.529 36.0645 162.433 37.041C164.353 38.0176 165.826 39.3278 166.852 40.9717C167.894 42.6156 168.414 44.4303 168.414 46.416H162.335C162.335 45.2441 162.083 44.2106 161.578 43.3154C161.09 42.404 160.341 41.6878 159.332 41.167C158.339 40.6462 157.078 40.3857 155.548 40.3857C154.1 40.3857 152.895 40.6055 151.935 41.0449C150.975 41.4844 150.258 42.0785 149.786 42.8271C149.314 43.5758 149.078 44.4222 149.078 45.3662C149.078 46.0335 149.233 46.6439 149.542 47.1973C149.852 47.7344 150.324 48.2389 150.958 48.7109C151.593 49.1667 152.391 49.598 153.351 50.0049C154.311 50.4118 155.442 50.8024 156.744 51.1768C158.714 51.7627 160.431 52.4137 161.896 53.1299C163.361 53.8298 164.581 54.6273 165.558 55.5225C166.534 56.4176 167.267 57.4349 167.755 58.5742C168.243 59.6973 168.488 60.9749 168.488 62.4072C168.488 63.9046 168.186 65.2555 167.584 66.46C166.982 67.6481 166.119 68.6654 164.996 69.5117C163.89 70.3418 162.555 70.9847 160.992 71.4404C159.446 71.8799 157.721 72.0996 155.817 72.0996C154.108 72.0996 152.423 71.8717 150.763 71.416C149.119 70.9603 147.622 70.2686 146.271 69.3408C144.92 68.3968 143.846 67.2249 143.048 65.8252C142.251 64.4092 141.852 62.7572 141.852 60.8691H147.98C147.98 62.0247 148.175 63.0094 148.566 63.8232C148.973 64.637 149.534 65.3044 150.25 65.8252C150.966 66.3298 151.797 66.7041 152.741 66.9482C153.701 67.1924 154.726 67.3145 155.817 67.3145C157.249 67.3145 158.445 67.111 159.406 66.7041C160.382 66.2972 161.115 65.7275 161.603 64.9951C162.091 64.2627 162.335 63.4163 162.335 62.4561ZM172.199 58.6963L172.199 58.1348C172.199 56.2305 172.475 54.4645 173.029 52.8369C173.582 51.193 174.38 49.7689 175.421 48.5645C176.479 47.3438 177.765 46.3997 179.279 45.7324C180.809 45.0488 182.534 44.707 184.454 44.707C186.391 44.707 188.117 45.0488 189.63 45.7324C191.16 46.3997 192.454 47.3438 193.512 48.5645C194.57 49.7689 195.376 51.193 195.929 52.8369C196.482 54.4645 196.759 56.2305 196.759 58.1348L196.759 58.6963C196.759 60.6006 196.482 62.3665 195.929 63.9941C195.376 65.6217 194.57 67.0459 193.512 68.2666C192.454 69.471 191.168 70.415 189.655 71.0986C188.141 71.766 186.424 72.0996 184.503 72.0996C182.566 72.0996 180.833 71.766 179.303 71.0986C177.789 70.415 176.504 69.471 175.446 68.2666C174.388 67.0459 173.582 65.6217 173.029 63.9941C172.475 62.3665 172.199 60.6006 172.199 58.6963ZM178.082 58.1348L178.082 58.6963C178.082 59.8844 178.204 61.0075 178.449 62.0654C178.693 63.1234 179.075 64.0511 179.596 64.8486C180.117 65.6462 180.784 66.2728 181.598 66.7285C182.412 67.1842 183.38 67.4121 184.503 67.4121C185.594 67.4121 186.538 67.1842 187.335 66.7285C188.149 66.2728 188.816 65.6462 189.337 64.8486C189.858 64.0511 190.241 63.1234 190.485 62.0654C190.745 61.0075 190.875 59.8844 190.875 58.6963L190.875 58.1348C190.875 56.9629 190.745 55.8561 190.485 54.8145C190.241 53.7565 189.85 52.8206 189.313 52.0068C188.792 51.193 188.125 50.5583 187.311 50.1025C186.513 49.6305 185.561 49.3945 184.454 49.3945C183.348 49.3945 182.387 49.6305 181.574 50.1025C180.776 50.5583 180.117 51.193 179.596 52.0068C179.075 52.8206 178.693 53.7565 178.449 54.8145C178.204 55.8561 178.082 56.9629 178.082 58.1348ZM217.584 65.3857L217.584 45.1953H223.492L223.492 71.6113H217.926L217.584 65.3857ZM218.414 59.8926L220.392 59.8438C220.392 61.6178 220.197 63.2536 219.806 64.751C219.415 66.2321 218.813 67.526 217.999 68.6328C217.186 69.7233 216.144 70.5778 214.874 71.1963C213.605 71.7985 212.083 72.0996 210.309 72.0996C209.023 72.0996 207.843 71.9124 206.769 71.5381C205.695 71.1637 204.767 70.5859 203.986 69.8047C203.221 69.0234 202.627 68.0062 202.203 66.7529C201.78 65.4997 201.569 64.0023 201.569 62.2607L201.569 45.1953L207.452 45.1953L207.452 62.3096C207.452 63.2699 207.566 64.0755 207.794 64.7266C208.022 65.3613 208.331 65.874 208.722 66.2646C209.113 66.6553 209.568 66.932 210.089 67.0947C210.61 67.2575 211.163 67.3389 211.749 67.3389C213.426 67.3389 214.744 67.0133 215.704 66.3623C216.681 65.695 217.373 64.7998 217.78 63.6768C218.203 62.5537 218.414 61.2923 218.414 59.8926ZM235.431 50.2246L235.431 71.6113H229.547L229.547 45.1953H235.162L235.431 50.2246ZM243.512 45.0244L243.463 50.4932C243.105 50.4281 242.714 50.3792 242.291 50.3467C241.884 50.3141 241.478 50.2979 241.071 50.2979C240.061 50.2979 239.174 50.4443 238.409 50.7373C237.644 51.014 237.002 51.4209 236.481 51.958C235.976 52.4788 235.586 53.1136 235.309 53.8623C235.032 54.611 234.869 55.4492 234.821 56.377L233.478 56.4746C233.478 54.8145 233.641 53.2764 233.966 51.8604C234.292 50.4443 234.78 49.1992 235.431 48.125C236.098 47.0508 236.928 46.2126 237.921 45.6104C238.93 45.0081 240.094 44.707 241.412 44.707C241.77 44.707 242.153 44.7396 242.56 44.8047C242.983 44.8698 243.3 44.943 243.512 45.0244ZM257.501 67.4121C258.462 67.4121 259.324 67.2249 260.089 66.8506C260.87 66.46 261.497 65.9229 261.969 65.2393C262.457 64.5557 262.726 63.7663 262.775 62.8711L268.317 62.8711C268.284 64.5801 267.78 66.1344 266.803 67.5342C265.826 68.9339 264.533 70.0488 262.921 70.8789C261.31 71.6927 259.528 72.0996 257.575 72.0996C255.556 72.0996 253.798 71.7578 252.301 71.0742C250.804 70.3743 249.559 69.4141 248.566 68.1934C247.573 66.9727 246.824 65.5648 246.32 63.9697C245.831 62.3747 245.587 60.6657 245.587 58.8428L245.587 57.9883C245.587 56.1654 245.831 54.4564 246.32 52.8613C246.824 51.25 247.573 49.834 248.566 48.6133C249.559 47.3926 250.804 46.4404 252.301 45.7568C253.798 45.057 255.548 44.707 257.55 44.707C259.666 44.707 261.521 45.1302 263.117 45.9766C264.712 46.8066 265.965 47.9704 266.876 49.4678C267.804 50.9489 268.284 52.6742 268.317 54.6436H262.775C262.726 53.667 262.482 52.7881 262.042 52.0068C261.619 51.2093 261.017 50.5745 260.236 50.1025C259.471 49.6305 258.551 49.3945 257.477 49.3945C256.289 49.3945 255.304 49.6387 254.523 50.127C253.742 50.599 253.131 51.25 252.692 52.0801C252.252 52.8939 251.935 53.8135 251.74 54.8389C251.561 55.848 251.471 56.8978 251.471 57.9883L251.471 58.8428C251.471 59.9333 251.561 60.9912 251.74 62.0166C251.919 63.042 252.228 63.9616 252.667 64.7754C253.123 65.5729 253.742 66.2158 254.523 66.7041C255.304 67.1761 256.297 67.4121 257.501 67.4121ZM284.479 72.0996C282.526 72.0996 280.76 71.7822 279.181 71.1475C277.618 70.4964 276.284 69.5931 275.177 68.4375C274.087 67.2819 273.248 65.9229 272.662 64.3604C272.076 62.7979 271.784 61.1133 271.784 59.3066L271.784 58.3301C271.784 56.263 272.085 54.3913 272.687 52.7148C273.289 51.0384 274.127 49.6061 275.201 48.418C276.276 47.2135 277.545 46.2939 279.01 45.6592C280.475 45.0244 282.062 44.707 283.771 44.707C285.659 44.707 287.311 45.0244 288.727 45.6592C290.143 46.2939 291.315 47.1891 292.242 48.3447C293.187 49.484 293.886 50.8431 294.342 52.4219C294.814 54.0007 295.05 55.7422 295.05 57.6465L295.05 60.1611L274.64 60.1611L274.64 55.9375H289.24L289.24 55.4736C289.207 54.4157 288.995 53.4229 288.605 52.4951C288.23 51.5674 287.653 50.8187 286.871 50.249C286.09 49.6794 285.048 49.3945 283.746 49.3945C282.77 49.3945 281.899 49.6061 281.134 50.0293C280.385 50.4362 279.759 51.0303 279.254 51.8115C278.75 52.5928 278.359 53.5368 278.082 54.6436C277.822 55.734 277.692 56.9629 277.692 58.3301L277.692 59.3066C277.692 60.4622 277.846 61.5365 278.156 62.5293C278.481 63.5059 278.953 64.3604 279.572 65.0928C280.19 65.8252 280.939 66.403 281.818 66.8262C282.697 67.2331 283.698 67.4365 284.821 67.4365C286.237 67.4365 287.498 67.1517 288.605 66.582C289.712 66.0124 290.672 65.2067 291.486 64.165L294.586 67.168C294.017 67.998 293.276 68.7956 292.365 69.5605C291.453 70.3092 290.338 70.9196 289.02 71.3916C287.718 71.8636 286.204 72.0996 284.479 72.0996ZM126.642 130.611H119.049L119.098 125.753H126.642C128.839 125.753 130.678 125.273 132.159 124.313C133.657 123.352 134.78 121.977 135.529 120.187C136.294 118.396 136.676 116.264 136.676 113.79L136.676 111.861C136.676 109.941 136.456 108.24 136.017 106.759C135.594 105.278 134.959 104.033 134.113 103.023C133.283 102.014 132.257 101.249 131.036 100.729C129.832 100.208 128.44 99.9473 126.862 99.9473H118.903L118.903 95.0645H126.862C129.222 95.0645 131.378 95.4632 133.331 96.2607C135.284 97.042 136.969 98.1732 138.385 99.6543C139.817 101.135 140.916 102.91 141.681 104.977C142.446 107.044 142.828 109.355 142.828 111.91L142.828 113.79C142.828 116.345 142.446 118.657 141.681 120.724C140.916 122.791 139.817 124.565 138.385 126.046C136.953 127.511 135.244 128.642 133.258 129.439C131.289 130.221 129.083 130.611 126.642 130.611ZM122.443 95.0645L122.443 130.611H116.315L116.315 95.0645H122.443ZM163.287 125.313L163.287 112.716C163.287 111.772 163.117 110.958 162.775 110.274C162.433 109.591 161.912 109.062 161.212 108.688C160.529 108.313 159.666 108.126 158.624 108.126C157.664 108.126 156.834 108.289 156.134 108.614C155.434 108.94 154.889 109.379 154.498 109.933C154.108 110.486 153.912 111.113 153.912 111.813H148.053C148.053 110.771 148.305 109.762 148.81 108.785C149.314 107.809 150.047 106.938 151.007 106.173C151.967 105.408 153.115 104.806 154.45 104.366C155.784 103.927 157.282 103.707 158.942 103.707C160.927 103.707 162.685 104.041 164.215 104.708C165.761 105.375 166.974 106.384 167.853 107.735C168.748 109.07 169.196 110.746 169.196 112.765L169.196 124.508C169.196 125.712 169.277 126.795 169.44 127.755C169.619 128.699 169.871 129.521 170.197 130.221L170.197 130.611H164.166C163.89 129.977 163.67 129.171 163.507 128.194C163.361 127.201 163.287 126.241 163.287 125.313ZM164.142 114.547L164.191 118.185H159.967C158.877 118.185 157.916 118.29 157.086 118.502C156.256 118.697 155.564 118.99 155.011 119.381C154.458 119.771 154.043 120.243 153.766 120.797C153.489 121.35 153.351 121.977 153.351 122.677C153.351 123.377 153.514 124.02 153.839 124.605C154.165 125.175 154.637 125.623 155.255 125.948C155.89 126.274 156.655 126.437 157.55 126.437C158.755 126.437 159.804 126.192 160.7 125.704C161.611 125.2 162.327 124.589 162.848 123.873C163.369 123.141 163.645 122.449 163.678 121.798L165.582 124.41C165.387 125.077 165.053 125.794 164.581 126.559C164.109 127.324 163.491 128.056 162.726 128.756C161.977 129.439 161.074 130.001 160.016 130.44C158.974 130.88 157.77 131.1 156.403 131.1C154.677 131.1 153.139 130.758 151.788 130.074C150.437 129.374 149.38 128.438 148.615 127.267C147.85 126.078 147.467 124.736 147.467 123.238C147.467 121.839 147.728 120.602 148.248 119.527C148.785 118.437 149.567 117.525 150.592 116.793C151.634 116.061 152.903 115.507 154.401 115.133C155.898 114.742 157.607 114.547 159.528 114.547H164.142ZM187.457 104.195L187.457 108.492H172.565L172.565 104.195H187.457ZM176.862 97.7256H182.745L182.745 123.312C182.745 124.125 182.859 124.752 183.087 125.191C183.331 125.615 183.665 125.899 184.088 126.046C184.511 126.192 185.008 126.266 185.577 126.266C185.984 126.266 186.375 126.241 186.749 126.192C187.124 126.144 187.425 126.095 187.653 126.046L187.677 130.538C187.189 130.685 186.619 130.815 185.968 130.929C185.333 131.043 184.601 131.1 183.771 131.1C182.42 131.1 181.224 130.864 180.182 130.392C179.14 129.903 178.326 129.114 177.741 128.023C177.155 126.933 176.862 125.484 176.862 123.678L176.862 97.7256ZM206.891 125.313L206.891 112.716C206.891 111.772 206.72 110.958 206.378 110.274C206.036 109.591 205.516 109.062 204.816 108.688C204.132 108.313 203.269 108.126 202.228 108.126C201.268 108.126 200.437 108.289 199.738 108.614C199.038 108.94 198.492 109.379 198.102 109.933C197.711 110.486 197.516 111.113 197.516 111.813L191.657 111.813C191.657 110.771 191.909 109.762 192.413 108.785C192.918 107.809 193.65 106.938 194.611 106.173C195.571 105.408 196.718 104.806 198.053 104.366C199.388 103.927 200.885 103.707 202.545 103.707C204.531 103.707 206.289 104.041 207.819 104.708C209.365 105.375 210.577 106.384 211.456 107.735C212.352 109.07 212.799 110.746 212.799 112.765L212.799 124.508C212.799 125.712 212.881 126.795 213.043 127.755C213.222 128.699 213.475 129.521 213.8 130.221L213.8 130.611H207.77C207.493 129.977 207.273 129.171 207.111 128.194C206.964 127.201 206.891 126.241 206.891 125.313ZM207.745 114.547L207.794 118.185H203.571C202.48 118.185 201.52 118.29 200.69 118.502C199.86 118.697 199.168 118.99 198.615 119.381C198.061 119.771 197.646 120.243 197.369 120.797C197.093 121.35 196.954 121.977 196.954 122.677C196.954 123.377 197.117 124.02 197.443 124.605C197.768 125.175 198.24 125.623 198.859 125.948C199.493 126.274 200.258 126.437 201.154 126.437C202.358 126.437 203.408 126.192 204.303 125.704C205.214 125.2 205.931 124.589 206.451 123.873C206.972 123.141 207.249 122.449 207.282 121.798L209.186 124.41C208.991 125.077 208.657 125.794 208.185 126.559C207.713 127.324 207.094 128.056 206.329 128.756C205.581 129.439 204.677 130.001 203.619 130.44C202.578 130.88 201.373 131.1 200.006 131.1C198.281 131.1 196.743 130.758 195.392 130.074C194.041 129.374 192.983 128.438 192.218 127.267C191.453 126.078 191.071 124.736 191.071 123.238C191.071 121.839 191.331 120.602 191.852 119.527C192.389 118.437 193.17 117.525 194.196 116.793C195.237 116.061 196.507 115.507 198.004 115.133C199.502 114.742 201.211 114.547 203.131 114.547H207.745Z" fill="#666666"/>
<path d="M807 84L757 55.1325V112.868L807 84ZM725 89H762V79H725V89Z" fill="#2FA4DA"/>
<path d="M414 84L364 55.1325V112.868L414 84ZM332 89H369V79H332V89Z" fill="#2FA4DA"/>
<path d="M1191 84L1141 55.1325V112.868L1191 84ZM1109 89H1146V79H1109V89Z" fill="#2FA4DA"/>
<g clip-path="url(#clip0_951_32)">
<path fill-rule="evenodd" clip-rule="evenodd" d="M1249.17 31.6858C1230.57 31.8646 1215.54 47.0079 1215.44 65.7016C1231.59 61.5205 1243.47 48.8479 1249.17 31.6858ZM1249.5 100.105C1235.36 100.105 1223.24 91.4575 1218.09 79.1424C1240.56 73.6503 1255.95 56.0034 1262.63 34.3201C1274.93 39.4838 1283.56 51.6763 1283.56 65.8947C1283.56 84.7885 1268.31 100.105 1249.5 100.105ZM1297.18 66.4503C1297.19 66.2656 1297.19 66.0802 1297.19 65.8947C1297.19 39.4432 1275.84 18 1249.5 18C1223.16 18 1201.81 39.4432 1201.81 65.8947C1201.81 66.0781 1201.81 66.2615 1201.82 66.4448C1201.81 66.5023 1201.81 66.5598 1201.81 66.6173C1201.78 72.3496 1201.79 80.9864 1201.8 89.1387C1201.81 93.0251 1201.81 96.806 1201.81 100.105C1201.81 103.884 1204.86 106.947 1208.62 106.947H1218.73C1204.03 114.353 1195 127.017 1195 141.158C1195 144.937 1198.05 148 1201.81 148C1205.57 148 1208.62 144.937 1208.62 141.158C1208.62 129.322 1221.78 113.789 1249.5 113.789C1277.22 113.789 1290.38 129.322 1290.38 141.158C1290.38 144.937 1293.42 148 1297.19 148C1300.95 148 1304 144.937 1304 141.158C1304 127.017 1294.97 114.353 1280.27 106.947H1290.38C1294.14 106.947 1297.19 103.884 1297.19 100.105C1297.19 96.8039 1297.19 93.0244 1297.2 89.1346V89.1244C1297.21 80.9761 1297.22 72.3462 1297.19 66.6173C1297.19 66.5612 1297.19 66.5057 1297.18 66.4503Z" fill="#D07839"/>
</g>
<defs>
<clipPath id="clip0_951_32">
<rect width="109" height="130" fill="white" transform="translate(1195 18)"/>
</clipPath>
</defs>
</svg>
