<svg width="1663" height="165" viewBox="0 0 1663 165" fill="none" xmlns="http://www.w3.org/2000/svg">
<rect x="415" y="141.366" width="117.366" height="310.569" transform="rotate(-90 415 141.366)" fill="#2FA4DA"/>
<path d="M522.677 55.5469H513.62L513.571 51.0791H521.481C522.816 51.0791 523.947 50.8838 524.874 50.4932C525.818 50.0863 526.535 49.5085 527.023 48.7598C527.511 47.9948 527.755 47.0752 527.755 46.001C527.755 44.8128 527.527 43.8444 527.072 43.0957C526.616 42.347 525.916 41.8018 524.972 41.46C524.044 41.1182 522.856 40.9473 521.408 40.9473H515.475L515.475 71.6113H509.347L509.347 36.0645H521.408C523.361 36.0645 525.102 36.2516 526.632 36.626C528.178 37.0003 529.489 37.5863 530.563 38.3838C531.653 39.165 532.475 40.1579 533.029 41.3623C533.598 42.5667 533.883 43.999 533.883 45.6592C533.883 47.124 533.533 48.4668 532.833 49.6875C532.134 50.8919 531.1 51.8766 529.733 52.6416C528.366 53.4066 526.665 53.8623 524.63 54.0088L522.677 55.5469ZM522.409 71.6113H511.691L514.45 66.7529H522.409C523.792 66.7529 524.948 66.5251 525.875 66.0693C526.803 65.5973 527.495 64.9544 527.951 64.1406C528.423 63.3105 528.659 62.3421 528.659 61.2354C528.659 60.0798 528.455 59.0788 528.048 58.2324C527.641 57.3698 526.998 56.7106 526.12 56.2549C525.241 55.7829 524.093 55.5469 522.677 55.5469H515.792L515.841 51.0791H524.801L526.193 52.7637C528.146 52.8288 529.749 53.2601 531.002 54.0576C532.272 54.8551 533.216 55.8887 533.834 57.1582C534.453 58.4277 534.762 59.7949 534.762 61.2598C534.762 63.5221 534.266 65.4183 533.273 66.9482C532.296 68.4782 530.888 69.6419 529.049 70.4395C527.21 71.2207 524.997 71.6113 522.409 71.6113ZM555.246 66.3135L555.246 53.7158C555.246 52.7718 555.075 51.958 554.733 51.2744C554.391 50.5908 553.87 50.0618 553.17 49.6875C552.487 49.3132 551.624 49.126 550.582 49.126C549.622 49.126 548.792 49.2887 548.092 49.6143C547.392 49.9398 546.847 50.3792 546.456 50.9326C546.066 51.486 545.871 52.1126 545.871 52.8125H540.011C540.011 51.7708 540.263 50.7617 540.768 49.7852C541.273 48.8086 542.005 47.9378 542.965 47.1729C543.926 46.4079 545.073 45.8057 546.408 45.3662C547.742 44.9268 549.24 44.707 550.9 44.707C552.886 44.707 554.643 45.0407 556.173 45.708C557.72 46.3753 558.932 47.3844 559.811 48.7354C560.706 50.07 561.154 51.7464 561.154 53.7646L561.154 65.5078C561.154 66.7122 561.235 67.7946 561.398 68.7549C561.577 69.6989 561.829 70.5208 562.155 71.2207L562.155 71.6113H556.124C555.848 70.9766 555.628 70.1709 555.465 69.1943C555.319 68.2015 555.246 67.2412 555.246 66.3135ZM556.1 55.5469L556.149 59.1846H551.925C550.835 59.1846 549.874 59.2904 549.044 59.502C548.214 59.6973 547.523 59.9902 546.969 60.3809C546.416 60.7715 546.001 61.2435 545.724 61.7969C545.447 62.3503 545.309 62.9769 545.309 63.6768C545.309 64.3766 545.472 65.0195 545.797 65.6055C546.123 66.1751 546.595 66.6227 547.213 66.9482C547.848 67.2738 548.613 67.4365 549.508 67.4365C550.713 67.4365 551.762 67.1924 552.658 66.7041C553.569 66.1995 554.285 65.5892 554.806 64.873C555.327 64.1406 555.604 63.4489 555.636 62.7979L557.54 65.4102C557.345 66.0775 557.011 66.7936 556.539 67.5586C556.067 68.3236 555.449 69.056 554.684 69.7559C553.935 70.4395 553.032 71.001 551.974 71.4404C550.932 71.8799 549.728 72.0996 548.361 72.0996C546.636 72.0996 545.097 71.7578 543.747 71.0742C542.396 70.3743 541.338 69.4385 540.573 68.2666C539.808 67.0785 539.425 65.7357 539.425 64.2383C539.425 62.8385 539.686 61.6016 540.206 60.5273C540.744 59.4368 541.525 58.5254 542.55 57.793C543.592 57.0605 544.861 56.5072 546.359 56.1328C547.856 55.7422 549.565 55.5469 551.486 55.5469H556.1ZM579.415 45.1953L579.415 49.4922H564.523L564.523 45.1953H579.415ZM568.82 38.7256H574.704L574.704 64.3115C574.704 65.1253 574.817 65.752 575.045 66.1914C575.289 66.6146 575.623 66.8994 576.046 67.0459C576.47 67.1924 576.966 67.2656 577.536 67.2656C577.942 67.2656 578.333 67.2412 578.707 67.1924C579.082 67.1436 579.383 67.0947 579.611 67.0459L579.635 71.5381C579.147 71.6846 578.577 71.8148 577.926 71.9287C577.291 72.0426 576.559 72.0996 575.729 72.0996C574.378 72.0996 573.182 71.8636 572.14 71.3916C571.098 70.9033 570.285 70.1139 569.699 69.0234C569.113 67.9329 568.82 66.4844 568.82 64.6777L568.82 38.7256ZM594.747 67.4121C595.708 67.4121 596.57 67.2249 597.335 66.8506C598.117 66.46 598.743 65.9229 599.215 65.2393C599.704 64.5557 599.972 63.7663 600.021 62.8711H605.563C605.53 64.5801 605.026 66.1344 604.049 67.5342C603.073 68.9339 601.779 70.0488 600.167 70.8789C598.556 71.6927 596.774 72.0996 594.821 72.0996C592.803 72.0996 591.045 71.7578 589.547 71.0742C588.05 70.3743 586.805 69.4141 585.812 68.1934C584.819 66.9727 584.07 65.5648 583.566 63.9697C583.078 62.3747 582.833 60.6657 582.833 58.8428L582.833 57.9883C582.833 56.1654 583.078 54.4564 583.566 52.8613C584.07 51.25 584.819 49.834 585.812 48.6133C586.805 47.3926 588.05 46.4404 589.547 45.7568C591.045 45.057 592.794 44.707 594.796 44.707C596.912 44.707 598.768 45.1302 600.363 45.9766C601.958 46.8066 603.211 47.9704 604.122 49.4678C605.05 50.9489 605.53 52.6742 605.563 54.6436L600.021 54.6436C599.972 53.667 599.728 52.7881 599.289 52.0068C598.865 51.2093 598.263 50.5745 597.482 50.1025C596.717 49.6305 595.797 49.3945 594.723 49.3945C593.535 49.3945 592.55 49.6387 591.769 50.127C590.988 50.599 590.377 51.25 589.938 52.0801C589.498 52.8939 589.181 53.8135 588.986 54.8389C588.807 55.848 588.717 56.8978 588.717 57.9883L588.717 58.8428C588.717 59.9333 588.807 60.9912 588.986 62.0166C589.165 63.042 589.474 63.9616 589.914 64.7754C590.369 65.5729 590.988 66.2158 591.769 66.7041C592.55 67.1761 593.543 67.4121 594.747 67.4121ZM615.89 34.1113L615.89 71.6113H610.031L610.031 34.1113H615.89ZM614.865 57.4268L612.96 57.4023C612.977 55.5794 613.229 53.8949 613.717 52.3486C614.222 50.8024 614.922 49.4596 615.817 48.3203C616.728 47.1647 617.819 46.2777 619.088 45.6592C620.358 45.0244 621.766 44.707 623.312 44.707C624.614 44.707 625.786 44.8861 626.828 45.2441C627.886 45.6022 628.797 46.18 629.562 46.9775C630.327 47.7588 630.905 48.7842 631.295 50.0537C631.702 51.307 631.906 52.8369 631.906 54.6436L631.906 71.6113H625.997L625.997 54.5947C625.997 53.3252 625.81 52.3161 625.436 51.5674C625.078 50.8187 624.549 50.2816 623.849 49.9561C623.149 49.6143 622.295 49.4434 621.286 49.4434C620.228 49.4434 619.292 49.6549 618.478 50.0781C617.68 50.5013 617.013 51.0791 616.476 51.8115C615.939 52.5439 615.532 53.3903 615.255 54.3506C614.995 55.3109 614.865 56.3363 614.865 57.4268ZM462.057 117.354H452.804L452.804 112.496H462.057C463.668 112.496 464.97 112.236 465.963 111.715C466.956 111.194 467.68 110.478 468.136 109.566C468.608 108.639 468.844 107.581 468.844 106.393C468.844 105.27 468.608 104.22 468.136 103.243C467.68 102.25 466.956 101.453 465.963 100.851C464.97 100.248 463.668 99.9473 462.057 99.9473H454.684L454.684 130.611H448.556L448.556 95.0645H462.057C464.808 95.0645 467.143 95.5527 469.064 96.5293C471.001 97.4896 472.474 98.8242 473.483 100.533C474.492 102.226 474.997 104.163 474.997 106.344C474.997 108.639 474.492 110.608 473.483 112.252C472.474 113.896 471.001 115.157 469.064 116.036C467.143 116.915 464.808 117.354 462.057 117.354ZM485.812 109.225L485.812 130.611H479.928L479.928 104.195H485.543L485.812 109.225ZM493.893 104.024L493.844 109.493C493.486 109.428 493.095 109.379 492.672 109.347C492.265 109.314 491.859 109.298 491.452 109.298C490.442 109.298 489.555 109.444 488.79 109.737C488.025 110.014 487.383 110.421 486.862 110.958C486.357 111.479 485.967 112.114 485.69 112.862C485.413 113.611 485.25 114.449 485.202 115.377L483.859 115.475C483.859 113.814 484.022 112.276 484.347 110.86C484.673 109.444 485.161 108.199 485.812 107.125C486.479 106.051 487.309 105.213 488.302 104.61C489.311 104.008 490.475 103.707 491.793 103.707C492.151 103.707 492.534 103.74 492.941 103.805C493.364 103.87 493.681 103.943 493.893 104.024ZM495.822 117.696L495.822 117.135C495.822 115.23 496.098 113.465 496.652 111.837C497.205 110.193 498.003 108.769 499.044 107.564C500.102 106.344 501.388 105.4 502.902 104.732C504.432 104.049 506.157 103.707 508.078 103.707C510.014 103.707 511.74 104.049 513.253 104.732C514.783 105.4 516.077 106.344 517.135 107.564C518.193 108.769 518.999 110.193 519.552 111.837C520.106 113.465 520.382 115.23 520.382 117.135L520.382 117.696C520.382 119.601 520.106 121.367 519.552 122.994C518.999 124.622 518.193 126.046 517.135 127.267C516.077 128.471 514.791 129.415 513.278 130.099C511.764 130.766 510.047 131.1 508.126 131.1C506.19 131.1 504.456 130.766 502.926 130.099C501.413 129.415 500.127 128.471 499.069 127.267C498.011 126.046 497.205 124.622 496.652 122.994C496.098 121.367 495.822 119.601 495.822 117.696ZM501.706 117.135L501.706 117.696C501.706 118.884 501.828 120.007 502.072 121.065C502.316 122.123 502.698 123.051 503.219 123.849C503.74 124.646 504.407 125.273 505.221 125.729C506.035 126.184 507.003 126.412 508.126 126.412C509.217 126.412 510.161 126.184 510.958 125.729C511.772 125.273 512.44 124.646 512.96 123.849C513.481 123.051 513.864 122.123 514.108 121.065C514.368 120.007 514.498 118.884 514.498 117.696L514.498 117.135C514.498 115.963 514.368 114.856 514.108 113.814C513.864 112.757 513.473 111.821 512.936 111.007C512.415 110.193 511.748 109.558 510.934 109.103C510.136 108.631 509.184 108.395 508.078 108.395C506.971 108.395 506.011 108.631 505.197 109.103C504.399 109.558 503.74 110.193 503.219 111.007C502.698 111.821 502.316 112.757 502.072 113.814C501.828 114.856 501.706 115.963 501.706 117.135ZM536.105 126.412C537.065 126.412 537.928 126.225 538.693 125.851C539.474 125.46 540.101 124.923 540.573 124.239C541.061 123.556 541.33 122.766 541.378 121.871H546.92C546.888 123.58 546.383 125.134 545.407 126.534C544.43 127.934 543.136 129.049 541.525 129.879C539.914 130.693 538.131 131.1 536.178 131.1C534.16 131.1 532.402 130.758 530.905 130.074C529.407 129.374 528.162 128.414 527.169 127.193C526.177 125.973 525.428 124.565 524.923 122.97C524.435 121.375 524.191 119.666 524.191 117.843L524.191 116.988C524.191 115.165 524.435 113.456 524.923 111.861C525.428 110.25 526.177 108.834 527.169 107.613C528.162 106.393 529.407 105.44 530.905 104.757C532.402 104.057 534.152 103.707 536.154 103.707C538.27 103.707 540.125 104.13 541.72 104.977C543.315 105.807 544.568 106.97 545.48 108.468C546.408 109.949 546.888 111.674 546.92 113.644H541.378C541.33 112.667 541.085 111.788 540.646 111.007C540.223 110.209 539.621 109.575 538.839 109.103C538.074 108.631 537.155 108.395 536.081 108.395C534.892 108.395 533.908 108.639 533.126 109.127C532.345 109.599 531.735 110.25 531.295 111.08C530.856 111.894 530.539 112.813 530.343 113.839C530.164 114.848 530.075 115.898 530.075 116.988L530.075 117.843C530.075 118.933 530.164 119.991 530.343 121.017C530.522 122.042 530.831 122.962 531.271 123.775C531.727 124.573 532.345 125.216 533.126 125.704C533.908 126.176 534.9 126.412 536.105 126.412ZM563.082 131.1C561.129 131.1 559.363 130.782 557.785 130.147C556.222 129.496 554.887 128.593 553.781 127.438C552.69 126.282 551.852 124.923 551.266 123.36C550.68 121.798 550.387 120.113 550.387 118.307L550.387 117.33C550.387 115.263 550.688 113.391 551.29 111.715C551.893 110.038 552.731 108.606 553.805 107.418C554.879 106.214 556.149 105.294 557.614 104.659C559.079 104.024 560.665 103.707 562.374 103.707C564.262 103.707 565.914 104.024 567.331 104.659C568.747 105.294 569.918 106.189 570.846 107.345C571.79 108.484 572.49 109.843 572.946 111.422C573.418 113.001 573.654 114.742 573.654 116.646L573.654 119.161L553.244 119.161L553.244 114.938L567.843 114.938L567.843 114.474C567.811 113.416 567.599 112.423 567.208 111.495C566.834 110.567 566.256 109.819 565.475 109.249C564.694 108.679 563.652 108.395 562.35 108.395C561.373 108.395 560.503 108.606 559.738 109.029C558.989 109.436 558.362 110.03 557.858 110.812C557.353 111.593 556.963 112.537 556.686 113.644C556.426 114.734 556.295 115.963 556.295 117.33L556.295 118.307C556.295 119.462 556.45 120.536 556.759 121.529C557.085 122.506 557.557 123.36 558.175 124.093C558.794 124.825 559.542 125.403 560.421 125.826C561.3 126.233 562.301 126.437 563.424 126.437C564.84 126.437 566.102 126.152 567.208 125.582C568.315 125.012 569.275 124.207 570.089 123.165L573.19 126.168C572.62 126.998 571.88 127.796 570.968 128.561C570.057 129.309 568.942 129.92 567.623 130.392C566.321 130.864 564.808 131.1 563.082 131.1ZM593.063 123.458C593.063 122.872 592.916 122.343 592.623 121.871C592.331 121.383 591.769 120.943 590.939 120.553C590.125 120.162 588.921 119.804 587.326 119.479C585.926 119.169 584.64 118.803 583.468 118.38C582.313 117.94 581.32 117.411 580.49 116.793C579.66 116.174 579.017 115.442 578.561 114.596C578.105 113.749 577.877 112.773 577.877 111.666C577.877 110.592 578.113 109.575 578.585 108.614C579.057 107.654 579.733 106.808 580.612 106.075C581.491 105.343 582.557 104.765 583.81 104.342C585.08 103.919 586.496 103.707 588.058 103.707C590.272 103.707 592.168 104.081 593.747 104.83C595.342 105.563 596.562 106.563 597.409 107.833C598.255 109.086 598.678 110.502 598.678 112.081H592.794C592.794 111.381 592.615 110.73 592.257 110.128C591.915 109.509 591.395 109.013 590.695 108.639C589.995 108.248 589.116 108.053 588.058 108.053C587.049 108.053 586.211 108.215 585.543 108.541C584.892 108.85 584.404 109.257 584.079 109.762C583.769 110.266 583.615 110.82 583.615 111.422C583.615 111.861 583.696 112.26 583.859 112.618C584.038 112.96 584.331 113.277 584.738 113.57C585.145 113.847 585.698 114.107 586.398 114.352C587.114 114.596 588.009 114.832 589.083 115.06C591.102 115.483 592.835 116.028 594.284 116.695C595.748 117.346 596.872 118.193 597.653 119.234C598.434 120.26 598.825 121.562 598.825 123.141C598.825 124.313 598.572 125.387 598.068 126.363C597.58 127.324 596.863 128.162 595.919 128.878C594.975 129.578 593.844 130.123 592.526 130.514C591.224 130.904 589.759 131.1 588.131 131.1C585.739 131.1 583.712 130.676 582.052 129.83C580.392 128.967 579.131 127.869 578.268 126.534C577.422 125.183 576.998 123.784 576.998 122.335H582.687C582.752 123.425 583.053 124.296 583.59 124.947C584.144 125.582 584.827 126.046 585.641 126.339C586.471 126.616 587.326 126.754 588.205 126.754C589.262 126.754 590.15 126.616 590.866 126.339C591.582 126.046 592.127 125.655 592.501 125.167C592.876 124.662 593.063 124.093 593.063 123.458ZM618.795 123.458C618.795 122.872 618.649 122.343 618.356 121.871C618.063 121.383 617.501 120.943 616.671 120.553C615.858 120.162 614.653 119.804 613.058 119.479C611.658 119.169 610.373 118.803 609.201 118.38C608.045 117.94 607.052 117.411 606.222 116.793C605.392 116.174 604.749 115.442 604.293 114.596C603.838 113.749 603.61 112.773 603.61 111.666C603.61 110.592 603.846 109.575 604.318 108.614C604.79 107.654 605.465 106.808 606.344 106.075C607.223 105.343 608.289 104.765 609.542 104.342C610.812 103.919 612.228 103.707 613.79 103.707C616.004 103.707 617.9 104.081 619.479 104.83C621.074 105.563 622.295 106.563 623.141 107.833C623.987 109.086 624.411 110.502 624.411 112.081H618.527C618.527 111.381 618.348 110.73 617.99 110.128C617.648 109.509 617.127 109.013 616.427 108.639C615.727 108.248 614.848 108.053 613.79 108.053C612.781 108.053 611.943 108.215 611.276 108.541C610.625 108.85 610.136 109.257 609.811 109.762C609.502 110.266 609.347 110.82 609.347 111.422C609.347 111.861 609.428 112.26 609.591 112.618C609.77 112.96 610.063 113.277 610.47 113.57C610.877 113.847 611.43 114.107 612.13 114.352C612.846 114.596 613.742 114.832 614.816 115.06C616.834 115.483 618.567 116.028 620.016 116.695C621.481 117.346 622.604 118.193 623.385 119.234C624.166 120.26 624.557 121.562 624.557 123.141C624.557 124.313 624.305 125.387 623.8 126.363C623.312 127.324 622.596 128.162 621.652 128.878C620.708 129.578 619.577 130.123 618.258 130.514C616.956 130.904 615.491 131.1 613.864 131.1C611.471 131.1 609.445 130.676 607.785 129.83C606.124 128.967 604.863 127.869 604 126.534C603.154 125.183 602.731 123.784 602.731 122.335H608.419C608.484 123.425 608.786 124.296 609.323 124.947C609.876 125.582 610.56 126.046 611.373 126.339C612.204 126.616 613.058 126.754 613.937 126.754C614.995 126.754 615.882 126.616 616.598 126.339C617.314 126.046 617.859 125.655 618.234 125.167C618.608 124.662 618.795 124.093 618.795 123.458ZM636.007 104.195L636.007 130.611H630.099L630.099 104.195H636.007ZM629.708 97.2617C629.708 96.3665 630.001 95.626 630.587 95.04C631.19 94.4378 632.02 94.1367 633.078 94.1367C634.119 94.1367 634.941 94.4378 635.543 95.04C636.146 95.626 636.447 96.3665 636.447 97.2617C636.447 98.1406 636.146 98.873 635.543 99.459C634.941 100.045 634.119 100.338 633.078 100.338C632.02 100.338 631.19 100.045 630.587 99.459C630.001 98.873 629.708 98.1406 629.708 97.2617ZM648.288 109.835L648.288 130.611H642.404L642.404 104.195H647.946L648.288 109.835ZM647.238 116.427L645.333 116.402C645.35 114.531 645.61 112.813 646.115 111.251C646.636 109.688 647.352 108.346 648.263 107.223C649.191 106.1 650.298 105.237 651.583 104.635C652.869 104.016 654.302 103.707 655.88 103.707C657.15 103.707 658.297 103.886 659.323 104.244C660.364 104.586 661.251 105.147 661.984 105.929C662.733 106.71 663.302 107.727 663.693 108.98C664.083 110.217 664.279 111.739 664.279 113.546L664.279 130.611H658.371L658.371 113.521C658.371 112.252 658.183 111.251 657.809 110.519C657.451 109.77 656.922 109.241 656.222 108.932C655.539 108.606 654.684 108.443 653.659 108.443C652.65 108.443 651.746 108.655 650.949 109.078C650.151 109.501 649.476 110.079 648.922 110.812C648.385 111.544 647.97 112.39 647.677 113.351C647.384 114.311 647.238 115.336 647.238 116.427ZM687.204 104.195H692.55L692.55 129.879C692.55 132.255 692.046 134.273 691.037 135.934C690.027 137.594 688.62 138.855 686.813 139.718C685.006 140.597 682.915 141.036 680.539 141.036C679.529 141.036 678.406 140.89 677.169 140.597C675.949 140.304 674.761 139.832 673.605 139.181C672.466 138.546 671.513 137.708 670.748 136.666L673.507 133.199C674.451 134.322 675.493 135.144 676.632 135.665C677.772 136.186 678.968 136.446 680.221 136.446C681.572 136.446 682.72 136.194 683.664 135.689C684.624 135.201 685.364 134.477 685.885 133.517C686.406 132.556 686.666 131.384 686.666 130.001L686.666 110.177L687.204 104.195ZM669.259 117.696L669.259 117.184C669.259 115.182 669.503 113.359 669.992 111.715C670.48 110.055 671.18 108.631 672.091 107.442C673.003 106.238 674.109 105.318 675.412 104.684C676.714 104.033 678.187 103.707 679.831 103.707C681.539 103.707 682.996 104.016 684.201 104.635C685.421 105.253 686.439 106.14 687.252 107.296C688.066 108.435 688.701 109.802 689.157 111.397C689.629 112.976 689.979 114.734 690.206 116.671L690.206 118.307C689.995 120.195 689.637 121.92 689.132 123.482C688.628 125.045 687.96 126.396 687.13 127.535C686.3 128.674 685.275 129.553 684.054 130.172C682.85 130.79 681.426 131.1 679.782 131.1C678.17 131.1 676.714 130.766 675.412 130.099C674.126 129.431 673.019 128.495 672.091 127.291C671.18 126.087 670.48 124.671 669.992 123.043C669.503 121.399 669.259 119.617 669.259 117.696ZM675.143 117.184L675.143 117.696C675.143 118.901 675.257 120.024 675.485 121.065C675.729 122.107 676.095 123.027 676.583 123.824C677.088 124.605 677.723 125.224 678.488 125.68C679.269 126.119 680.189 126.339 681.247 126.339C682.63 126.339 683.761 126.046 684.64 125.46C685.535 124.874 686.219 124.085 686.691 123.092C687.179 122.083 687.521 120.96 687.716 119.723L687.716 115.304C687.619 114.343 687.415 113.448 687.106 112.618C686.813 111.788 686.414 111.064 685.91 110.445C685.405 109.811 684.77 109.322 684.005 108.98C683.24 108.622 682.337 108.443 681.295 108.443C680.237 108.443 679.318 108.671 678.537 109.127C677.755 109.583 677.112 110.209 676.608 111.007C676.12 111.804 675.753 112.732 675.509 113.79C675.265 114.848 675.143 115.979 675.143 117.184Z" fill="white"/>
<rect x="809" y="141.367" width="117.366" height="299" transform="rotate(-90 809 141.367)" fill="#2FA4DA"/>
<path d="M861.43 101.611H853.837L853.886 96.7529H861.43C863.627 96.7529 865.466 96.2728 866.947 95.3125C868.445 94.3522 869.568 92.9769 870.316 91.1865C871.081 89.3962 871.464 87.264 871.464 84.79L871.464 82.8613C871.464 80.9408 871.244 79.2399 870.805 77.7588C870.382 76.2777 869.747 75.0326 868.9 74.0234C868.07 73.0143 867.045 72.2493 865.824 71.7285C864.62 71.2077 863.228 70.9473 861.649 70.9473H853.69L853.69 66.0645H861.649C864.009 66.0645 866.166 66.4632 868.119 67.2607C870.072 68.042 871.757 69.1732 873.173 70.6543C874.605 72.1354 875.704 73.9095 876.469 75.9766C877.234 78.0436 877.616 80.3548 877.616 82.9102L877.616 84.79C877.616 87.3454 877.234 89.6566 876.469 91.7236C875.704 93.7907 874.605 95.5648 873.173 97.0459C871.741 98.5107 870.032 99.6419 868.046 100.439C866.076 101.221 863.871 101.611 861.43 101.611ZM857.23 66.0645L857.23 101.611H851.103L851.103 66.0645H857.23ZM898.075 96.3135L898.075 83.7158C898.075 82.7718 897.904 81.958 897.563 81.2744C897.221 80.5908 896.7 80.0618 896 79.6875C895.316 79.3132 894.454 79.126 893.412 79.126C892.452 79.126 891.622 79.2887 890.922 79.6143C890.222 79.9398 889.677 80.3792 889.286 80.9326C888.896 81.486 888.7 82.1126 888.7 82.8125H882.841C882.841 81.7708 883.093 80.7617 883.598 79.7852C884.102 78.8086 884.835 77.9378 885.795 77.1729C886.755 76.4079 887.903 75.8057 889.237 75.3662C890.572 74.9268 892.069 74.707 893.729 74.707C895.715 74.707 897.473 75.0407 899.003 75.708C900.549 76.3753 901.762 77.3844 902.641 78.7354C903.536 80.07 903.983 81.7464 903.983 83.7646L903.983 95.5078C903.983 96.7122 904.065 97.7946 904.228 98.7549C904.407 99.6989 904.659 100.521 904.984 101.221L904.984 101.611H898.954C898.677 100.977 898.458 100.171 898.295 99.1943C898.148 98.2015 898.075 97.2412 898.075 96.3135ZM898.93 85.5469L898.979 89.1846H894.755C893.664 89.1846 892.704 89.2904 891.874 89.502C891.044 89.6973 890.352 89.9902 889.799 90.3809C889.245 90.7715 888.83 91.2435 888.554 91.7969C888.277 92.3503 888.139 92.9769 888.139 93.6768C888.139 94.3766 888.301 95.0195 888.627 95.6055C888.952 96.1751 889.424 96.6227 890.043 96.9482C890.678 97.2738 891.443 97.4365 892.338 97.4365C893.542 97.4365 894.592 97.1924 895.487 96.7041C896.399 96.1995 897.115 95.5892 897.636 94.873C898.157 94.1406 898.433 93.4489 898.466 92.7979L900.37 95.4102C900.175 96.0775 899.841 96.7936 899.369 97.5586C898.897 98.3236 898.279 99.056 897.514 99.7559C896.765 100.439 895.862 101.001 894.804 101.44C893.762 101.88 892.558 102.1 891.19 102.1C889.465 102.1 887.927 101.758 886.576 101.074C885.225 100.374 884.167 99.4385 883.402 98.2666C882.637 97.0785 882.255 95.7357 882.255 94.2383C882.255 92.8385 882.515 91.6016 883.036 90.5273C883.573 89.4368 884.354 88.5254 885.38 87.793C886.422 87.0605 887.691 86.5072 889.188 86.1328C890.686 85.7422 892.395 85.5469 894.315 85.5469H898.93ZM922.245 75.1953L922.245 79.4922H907.353L907.353 75.1953H922.245ZM911.649 68.7256H917.533L917.533 94.3115C917.533 95.1253 917.647 95.752 917.875 96.1914C918.119 96.6146 918.453 96.8994 918.876 97.0459C919.299 97.1924 919.796 97.2656 920.365 97.2656C920.772 97.2656 921.163 97.2412 921.537 97.1924C921.911 97.1436 922.213 97.0947 922.44 97.0459L922.465 101.538C921.977 101.685 921.407 101.815 920.756 101.929C920.121 102.043 919.389 102.1 918.559 102.1C917.208 102.1 916.011 101.864 914.97 101.392C913.928 100.903 913.114 100.114 912.528 99.0234C911.942 97.9329 911.649 96.4844 911.649 94.6777L911.649 68.7256ZM941.679 96.3135L941.679 83.7158C941.679 82.7718 941.508 81.958 941.166 81.2744C940.824 80.5908 940.303 80.0618 939.604 79.6875C938.92 79.3132 938.057 79.126 937.016 79.126C936.055 79.126 935.225 79.2887 934.525 79.6143C933.826 79.9398 933.28 80.3792 932.89 80.9326C932.499 81.486 932.304 82.1126 932.304 82.8125H926.444C926.444 81.7708 926.697 80.7617 927.201 79.7852C927.706 78.8086 928.438 77.9378 929.398 77.1729C930.359 76.4079 931.506 75.8057 932.841 75.3662C934.175 74.9268 935.673 74.707 937.333 74.707C939.319 74.707 941.076 75.0407 942.606 75.708C944.153 76.3753 945.365 77.3844 946.244 78.7354C947.139 80.07 947.587 81.7464 947.587 83.7646L947.587 95.5078C947.587 96.7122 947.668 97.7946 947.831 98.7549C948.01 99.6989 948.262 100.521 948.588 101.221L948.588 101.611L942.558 101.611C942.281 100.977 942.061 100.171 941.898 99.1943C941.752 98.2015 941.679 97.2412 941.679 96.3135ZM942.533 85.5469L942.582 89.1846H938.358C937.268 89.1846 936.308 89.2904 935.478 89.502C934.647 89.6973 933.956 89.9902 933.402 90.3809C932.849 90.7715 932.434 91.2435 932.157 91.7969C931.881 92.3503 931.742 92.9769 931.742 93.6768C931.742 94.3766 931.905 95.0195 932.23 95.6055C932.556 96.1751 933.028 96.6227 933.646 96.9482C934.281 97.2738 935.046 97.4365 935.941 97.4365C937.146 97.4365 938.196 97.1924 939.091 96.7041C940.002 96.1995 940.718 95.5892 941.239 94.873C941.76 94.1406 942.037 93.4489 942.069 92.7979L943.974 95.4102C943.778 96.0775 943.445 96.7936 942.973 97.5586C942.501 98.3236 941.882 99.056 941.117 99.7559C940.368 100.439 939.465 101.001 938.407 101.44C937.366 101.88 936.161 102.1 934.794 102.1C933.069 102.1 931.531 101.758 930.18 101.074C928.829 100.374 927.771 99.4385 927.006 98.2666C926.241 97.0785 925.858 95.7357 925.858 94.2383C925.858 92.8385 926.119 91.6016 926.64 90.5273C927.177 89.4368 927.958 88.5254 928.983 87.793C930.025 87.0605 931.295 86.5072 932.792 86.1328C934.289 85.7422 935.998 85.5469 937.919 85.5469H942.533ZM989.042 96.7529L989.042 101.611H971.195L971.195 96.7529H989.042ZM972.904 66.0645L972.904 101.611H966.776L966.776 66.0645H972.904ZM1008.08 96.3135L1008.08 83.7158C1008.08 82.7718 1007.91 81.958 1007.57 81.2744C1007.23 80.5908 1006.71 80.0618 1006.01 79.6875C1005.33 79.3132 1004.46 79.126 1003.42 79.126C1002.46 79.126 1001.63 79.2887 1000.93 79.6143C1000.23 79.9398 999.687 80.3792 999.296 80.9326C998.905 81.486 998.71 82.1126 998.71 82.8125H992.851C992.851 81.7708 993.103 80.7617 993.607 79.7852C994.112 78.8086 994.844 77.9378 995.805 77.1729C996.765 76.4079 997.912 75.8057 999.247 75.3662C1000.58 74.9268 1002.08 74.707 1003.74 74.707C1005.72 74.707 1007.48 75.0407 1009.01 75.708C1010.56 76.3753 1011.77 77.3844 1012.65 78.7354C1013.55 80.07 1013.99 81.7464 1013.99 83.7646L1013.99 95.5078C1013.99 96.7122 1014.07 97.7946 1014.24 98.7549C1014.42 99.6989 1014.67 100.521 1014.99 101.221L1014.99 101.611H1008.96C1008.69 100.977 1008.47 100.171 1008.3 99.1943C1008.16 98.2015 1008.08 97.2412 1008.08 96.3135ZM1008.94 85.5469L1008.99 89.1846H1004.76C1003.67 89.1846 1002.71 89.2904 1001.88 89.502C1001.05 89.6973 1000.36 89.9902 999.809 90.3809C999.255 90.7715 998.84 91.2435 998.563 91.7969C998.287 92.3503 998.148 92.9769 998.148 93.6768C998.148 94.3766 998.311 95.0195 998.637 95.6055C998.962 96.1751 999.434 96.6227 1000.05 96.9482C1000.69 97.2738 1001.45 97.4365 1002.35 97.4365C1003.55 97.4365 1004.6 97.1924 1005.5 96.7041C1006.41 96.1995 1007.12 95.5892 1007.65 94.873C1008.17 94.1406 1008.44 93.4489 1008.48 92.7979L1010.38 95.4102C1010.18 96.0775 1009.85 96.7936 1009.38 97.5586C1008.91 98.3236 1008.29 99.056 1007.52 99.7559C1006.77 100.439 1005.87 101.001 1004.81 101.44C1003.77 101.88 1002.57 102.1 1001.2 102.1C999.475 102.1 997.937 101.758 996.586 101.074C995.235 100.374 994.177 99.4385 993.412 98.2666C992.647 97.0785 992.265 95.7357 992.265 94.2383C992.265 92.8385 992.525 91.6016 993.046 90.5273C993.583 89.4368 994.364 88.5254 995.39 87.793C996.431 87.0605 997.701 86.5072 999.198 86.1328C1000.7 85.7422 1002.4 85.5469 1004.33 85.5469H1008.94ZM1026.08 64.1113L1026.08 101.611H1020.17L1020.17 64.1113H1026.08ZM1042.48 75.1953L1030.99 87.9395L1024.69 94.3848L1023.15 89.4043L1027.91 83.5205L1035.38 75.1953H1042.48ZM1036.65 101.611L1028.08 89.209L1031.79 85.083L1043.46 101.611H1036.65ZM1057.38 102.1C1055.42 102.1 1053.66 101.782 1052.08 101.147C1050.52 100.496 1049.18 99.5931 1048.08 98.4375C1046.98 97.2819 1046.15 95.9229 1045.56 94.3604C1044.97 92.7979 1044.68 91.1133 1044.68 89.3066L1044.68 88.3301C1044.68 86.263 1044.98 84.3913 1045.58 82.7148C1046.19 81.0384 1047.03 79.6061 1048.1 78.418C1049.17 77.2135 1050.44 76.2939 1051.91 75.6592C1053.37 75.0244 1054.96 74.707 1056.67 74.707C1058.56 74.707 1060.21 75.0244 1061.63 75.6592C1063.04 76.2939 1064.21 77.1891 1065.14 78.3447C1066.08 79.484 1066.78 80.8431 1067.24 82.4219C1067.71 84.0007 1067.95 85.7422 1067.95 87.6465L1067.95 90.1611H1047.54L1047.54 85.9375H1062.14L1062.14 85.4736C1062.11 84.4157 1061.89 83.4229 1061.5 82.4951C1061.13 81.5674 1060.55 80.8187 1059.77 80.249C1058.99 79.6794 1057.95 79.3945 1056.64 79.3945C1055.67 79.3945 1054.8 79.6061 1054.03 80.0293C1053.28 80.4362 1052.66 81.0303 1052.15 81.8115C1051.65 82.5928 1051.26 83.5368 1050.98 84.6436C1050.72 85.734 1050.59 86.9629 1050.59 88.3301L1050.59 89.3066C1050.59 90.4622 1050.74 91.5365 1051.05 92.5293C1051.38 93.5059 1051.85 94.3604 1052.47 95.0928C1053.09 95.8252 1053.84 96.403 1054.72 96.8262C1055.59 97.2331 1056.6 97.4365 1057.72 97.4365C1059.13 97.4365 1060.4 97.1517 1061.5 96.582C1062.61 96.0124 1063.57 95.2067 1064.38 94.165L1067.48 97.168C1066.91 97.998 1066.17 98.7956 1065.26 99.5605C1064.35 100.309 1063.24 100.92 1061.92 101.392C1060.62 101.864 1059.1 102.1 1057.38 102.1Z" fill="white"/>
<rect y="141.367" width="117.366" height="328.626" transform="rotate(-90 0 141.367)" fill="#CCCCCC"/>
<path d="M35.6263 36.0645L48.1995 36.0645C50.9013 36.0645 53.2044 36.4714 55.1087 37.2852C57.013 38.099 58.4697 39.3034 59.4788 40.8984C60.5042 42.4772 61.0169 44.4303 61.0169 46.7578C61.0169 48.5319 60.6914 50.0944 60.0403 51.4453C59.3893 52.7962 58.4697 53.9355 57.2815 54.8633C56.0934 55.7747 54.6774 56.4827 53.0335 56.9873L51.178 57.8906H39.8743L39.8255 53.0322H48.2972C49.762 53.0322 50.9827 52.7718 51.9593 52.251C52.9358 51.7301 53.6683 51.0221 54.1565 50.127C54.6611 49.2155 54.9134 48.1901 54.9134 47.0508C54.9134 45.8138 54.6692 44.7396 54.181 43.8281C53.7089 42.9004 52.9765 42.1924 51.9837 41.7041C50.9909 41.1995 49.7295 40.9473 48.1995 40.9473H41.7542L41.7542 71.6113H35.6263L35.6263 36.0645ZM55.9144 71.6113L47.5647 55.6445L53.9856 55.6201L62.4573 71.2939L62.4573 71.6113H55.9144ZM81.427 66.3135L81.427 53.7158C81.427 52.7718 81.2562 51.958 80.9144 51.2744C80.5726 50.5908 80.0517 50.0618 79.3519 49.6875C78.6683 49.3132 77.8056 49.126 76.764 49.126C75.8037 49.126 74.9736 49.2887 74.2737 49.6143C73.5739 49.9398 73.0286 50.3792 72.638 50.9326C72.2474 51.486 72.052 52.1126 72.052 52.8125H66.1927C66.1927 51.7708 66.445 50.7617 66.9495 49.7852C67.4541 48.8086 68.1865 47.9378 69.1468 47.1729C70.1071 46.4079 71.2545 45.8057 72.5892 45.3662C73.9238 44.9268 75.4212 44.707 77.0813 44.707C79.067 44.707 80.8248 45.0407 82.3548 45.708C83.901 46.3753 85.1136 47.3844 85.9925 48.7354C86.8877 50.07 87.3353 51.7464 87.3353 53.7646L87.3353 65.5078C87.3353 66.7122 87.4166 67.7946 87.5794 68.7549C87.7584 69.6989 88.0107 70.5208 88.3362 71.2207L88.3362 71.6113H82.306C82.0293 70.9766 81.8095 70.1709 81.6468 69.1943C81.5003 68.2015 81.427 67.2412 81.427 66.3135ZM82.2815 55.5469L82.3304 59.1846H78.1067C77.0162 59.1846 76.056 59.2904 75.2259 59.502C74.3958 59.6973 73.7041 59.9902 73.1507 60.3809C72.5973 60.7715 72.1823 61.2435 71.9056 61.7969C71.6289 62.3503 71.4905 62.9769 71.4905 63.6768C71.4905 64.3766 71.6533 65.0195 71.9788 65.6055C72.3043 66.1751 72.7763 66.6227 73.3948 66.9482C74.0296 67.2738 74.7946 67.4365 75.6897 67.4365C76.8942 67.4365 77.944 67.1924 78.8392 66.7041C79.7506 66.1995 80.4668 65.5892 80.9876 64.873C81.5084 64.1406 81.7851 63.4489 81.8177 62.7979L83.722 65.4102C83.5267 66.0775 83.193 66.7936 82.721 67.5586C82.249 68.3236 81.6305 69.056 80.8655 69.7559C80.1168 70.4395 79.2135 71.001 78.1556 71.4404C77.1139 71.8799 75.9095 72.0996 74.5423 72.0996C72.817 72.0996 71.2789 71.7578 69.928 71.0742C68.5771 70.3743 67.5192 69.4385 66.7542 68.2666C65.9892 67.0785 65.6067 65.7357 65.6067 64.2383C65.6067 62.8385 65.8672 61.6016 66.388 60.5273C66.9251 59.4368 67.7063 58.5254 68.7317 57.793C69.7734 57.0605 71.0429 56.5072 72.5403 56.1328C74.0377 55.7422 75.7467 55.5469 77.6673 55.5469H82.2815ZM100.665 65.752L106.769 45.1953H110.529L109.503 51.3477L103.351 71.6113H99.9817L100.665 65.752ZM97.0765 45.1953L101.837 65.8496L102.228 71.6113H98.4681L91.3147 45.1953H97.0765ZM116.242 65.6055L120.856 45.1953H126.593L119.464 71.6113H115.704L116.242 65.6055ZM111.163 45.1953L117.194 65.5078L117.95 71.6113H114.581L108.356 51.3232L107.33 45.1953H111.163ZM162.335 62.4561C162.335 61.7236 162.221 61.0726 161.993 60.5029C161.782 59.9333 161.399 59.4124 160.846 58.9404C160.293 58.4684 159.511 58.0127 158.502 57.5732C157.509 57.1175 156.24 56.6536 154.694 56.1816C153.001 55.6608 151.438 55.083 150.006 54.4482C148.59 53.7972 147.353 53.0485 146.295 52.2021C145.237 51.3395 144.415 50.3548 143.829 49.248C143.243 48.125 142.95 46.8311 142.95 45.3662C142.95 43.9176 143.252 42.5993 143.854 41.4111C144.472 40.223 145.343 39.1976 146.466 38.335C147.605 37.4561 148.948 36.7806 150.494 36.3086C152.041 35.8203 153.75 35.5762 155.621 35.5762C158.258 35.5762 160.529 36.0645 162.433 37.041C164.353 38.0176 165.826 39.3278 166.852 40.9717C167.894 42.6156 168.414 44.4303 168.414 46.416H162.335C162.335 45.2441 162.083 44.2106 161.578 43.3154C161.09 42.404 160.341 41.6878 159.332 41.167C158.339 40.6462 157.078 40.3857 155.548 40.3857C154.1 40.3857 152.895 40.6055 151.935 41.0449C150.975 41.4844 150.258 42.0785 149.786 42.8271C149.314 43.5758 149.078 44.4222 149.078 45.3662C149.078 46.0335 149.233 46.6439 149.542 47.1973C149.852 47.7344 150.324 48.2389 150.958 48.7109C151.593 49.1667 152.391 49.598 153.351 50.0049C154.311 50.4118 155.442 50.8024 156.744 51.1768C158.714 51.7627 160.431 52.4137 161.896 53.1299C163.361 53.8298 164.581 54.6273 165.558 55.5225C166.534 56.4176 167.267 57.4349 167.755 58.5742C168.243 59.6973 168.488 60.9749 168.488 62.4072C168.488 63.9046 168.186 65.2555 167.584 66.46C166.982 67.6481 166.119 68.6654 164.996 69.5117C163.89 70.3418 162.555 70.9847 160.992 71.4404C159.446 71.8799 157.721 72.0996 155.817 72.0996C154.108 72.0996 152.423 71.8717 150.763 71.416C149.119 70.9603 147.622 70.2686 146.271 69.3408C144.92 68.3968 143.846 67.2249 143.048 65.8252C142.251 64.4092 141.852 62.7572 141.852 60.8691H147.98C147.98 62.0247 148.175 63.0094 148.566 63.8232C148.973 64.637 149.534 65.3044 150.25 65.8252C150.966 66.3298 151.797 66.7041 152.741 66.9482C153.701 67.1924 154.726 67.3145 155.817 67.3145C157.249 67.3145 158.445 67.111 159.406 66.7041C160.382 66.2972 161.115 65.7275 161.603 64.9951C162.091 64.2627 162.335 63.4163 162.335 62.4561ZM172.199 58.6963L172.199 58.1348C172.199 56.2305 172.475 54.4645 173.029 52.8369C173.582 51.193 174.38 49.7689 175.421 48.5645C176.479 47.3438 177.765 46.3997 179.279 45.7324C180.809 45.0488 182.534 44.707 184.454 44.707C186.391 44.707 188.117 45.0488 189.63 45.7324C191.16 46.3997 192.454 47.3438 193.512 48.5645C194.57 49.7689 195.376 51.193 195.929 52.8369C196.482 54.4645 196.759 56.2305 196.759 58.1348L196.759 58.6963C196.759 60.6006 196.482 62.3665 195.929 63.9941C195.376 65.6217 194.57 67.0459 193.512 68.2666C192.454 69.471 191.168 70.415 189.655 71.0986C188.141 71.766 186.424 72.0996 184.503 72.0996C182.566 72.0996 180.833 71.766 179.303 71.0986C177.789 70.415 176.504 69.471 175.446 68.2666C174.388 67.0459 173.582 65.6217 173.029 63.9941C172.475 62.3665 172.199 60.6006 172.199 58.6963ZM178.082 58.1348L178.082 58.6963C178.082 59.8844 178.204 61.0075 178.449 62.0654C178.693 63.1234 179.075 64.0511 179.596 64.8486C180.117 65.6462 180.784 66.2728 181.598 66.7285C182.412 67.1842 183.38 67.4121 184.503 67.4121C185.594 67.4121 186.538 67.1842 187.335 66.7285C188.149 66.2728 188.816 65.6462 189.337 64.8486C189.858 64.0511 190.241 63.1234 190.485 62.0654C190.745 61.0075 190.875 59.8844 190.875 58.6963L190.875 58.1348C190.875 56.9629 190.745 55.8561 190.485 54.8145C190.241 53.7565 189.85 52.8206 189.313 52.0068C188.792 51.193 188.125 50.5583 187.311 50.1025C186.513 49.6305 185.561 49.3945 184.454 49.3945C183.348 49.3945 182.387 49.6305 181.574 50.1025C180.776 50.5583 180.117 51.193 179.596 52.0068C179.075 52.8206 178.693 53.7565 178.449 54.8145C178.204 55.8561 178.082 56.9629 178.082 58.1348ZM217.584 65.3857L217.584 45.1953H223.492L223.492 71.6113H217.926L217.584 65.3857ZM218.414 59.8926L220.392 59.8438C220.392 61.6178 220.197 63.2536 219.806 64.751C219.415 66.2321 218.813 67.526 217.999 68.6328C217.186 69.7233 216.144 70.5778 214.874 71.1963C213.605 71.7985 212.083 72.0996 210.309 72.0996C209.023 72.0996 207.843 71.9124 206.769 71.5381C205.695 71.1637 204.767 70.5859 203.986 69.8047C203.221 69.0234 202.627 68.0062 202.203 66.7529C201.78 65.4997 201.569 64.0023 201.569 62.2607L201.569 45.1953L207.452 45.1953L207.452 62.3096C207.452 63.2699 207.566 64.0755 207.794 64.7266C208.022 65.3613 208.331 65.874 208.722 66.2646C209.113 66.6553 209.568 66.932 210.089 67.0947C210.61 67.2575 211.163 67.3389 211.749 67.3389C213.426 67.3389 214.744 67.0133 215.704 66.3623C216.681 65.695 217.373 64.7998 217.78 63.6768C218.203 62.5537 218.414 61.2923 218.414 59.8926ZM235.431 50.2246L235.431 71.6113H229.547L229.547 45.1953H235.162L235.431 50.2246ZM243.512 45.0244L243.463 50.4932C243.105 50.4281 242.714 50.3792 242.291 50.3467C241.884 50.3141 241.478 50.2979 241.071 50.2979C240.061 50.2979 239.174 50.4443 238.409 50.7373C237.644 51.014 237.002 51.4209 236.481 51.958C235.976 52.4788 235.586 53.1136 235.309 53.8623C235.032 54.611 234.869 55.4492 234.821 56.377L233.478 56.4746C233.478 54.8145 233.641 53.2764 233.966 51.8604C234.292 50.4443 234.78 49.1992 235.431 48.125C236.098 47.0508 236.928 46.2126 237.921 45.6104C238.93 45.0081 240.094 44.707 241.412 44.707C241.77 44.707 242.153 44.7396 242.56 44.8047C242.983 44.8698 243.3 44.943 243.512 45.0244ZM257.501 67.4121C258.462 67.4121 259.324 67.2249 260.089 66.8506C260.87 66.46 261.497 65.9229 261.969 65.2393C262.457 64.5557 262.726 63.7663 262.775 62.8711L268.317 62.8711C268.284 64.5801 267.78 66.1344 266.803 67.5342C265.826 68.9339 264.533 70.0488 262.921 70.8789C261.31 71.6927 259.528 72.0996 257.575 72.0996C255.556 72.0996 253.798 71.7578 252.301 71.0742C250.804 70.3743 249.559 69.4141 248.566 68.1934C247.573 66.9727 246.824 65.5648 246.32 63.9697C245.831 62.3747 245.587 60.6657 245.587 58.8428L245.587 57.9883C245.587 56.1654 245.831 54.4564 246.32 52.8613C246.824 51.25 247.573 49.834 248.566 48.6133C249.559 47.3926 250.804 46.4404 252.301 45.7568C253.798 45.057 255.548 44.707 257.55 44.707C259.666 44.707 261.521 45.1302 263.117 45.9766C264.712 46.8066 265.965 47.9704 266.876 49.4678C267.804 50.9489 268.284 52.6742 268.317 54.6436H262.775C262.726 53.667 262.482 52.7881 262.042 52.0068C261.619 51.2093 261.017 50.5745 260.236 50.1025C259.471 49.6305 258.551 49.3945 257.477 49.3945C256.289 49.3945 255.304 49.6387 254.523 50.127C253.742 50.599 253.131 51.25 252.692 52.0801C252.252 52.8939 251.935 53.8135 251.74 54.8389C251.561 55.848 251.471 56.8978 251.471 57.9883L251.471 58.8428C251.471 59.9333 251.561 60.9912 251.74 62.0166C251.919 63.042 252.228 63.9616 252.667 64.7754C253.123 65.5729 253.742 66.2158 254.523 66.7041C255.304 67.1761 256.297 67.4121 257.501 67.4121ZM284.479 72.0996C282.526 72.0996 280.76 71.7822 279.181 71.1475C277.618 70.4964 276.284 69.5931 275.177 68.4375C274.087 67.2819 273.248 65.9229 272.662 64.3604C272.076 62.7979 271.784 61.1133 271.784 59.3066L271.784 58.3301C271.784 56.263 272.085 54.3913 272.687 52.7148C273.289 51.0384 274.127 49.6061 275.201 48.418C276.276 47.2135 277.545 46.2939 279.01 45.6592C280.475 45.0244 282.062 44.707 283.771 44.707C285.659 44.707 287.311 45.0244 288.727 45.6592C290.143 46.2939 291.315 47.1891 292.242 48.3447C293.187 49.484 293.886 50.8431 294.342 52.4219C294.814 54.0007 295.05 55.7422 295.05 57.6465L295.05 60.1611L274.64 60.1611L274.64 55.9375H289.24L289.24 55.4736C289.207 54.4157 288.995 53.4229 288.605 52.4951C288.23 51.5674 287.653 50.8187 286.871 50.249C286.09 49.6794 285.048 49.3945 283.746 49.3945C282.77 49.3945 281.899 49.6061 281.134 50.0293C280.385 50.4362 279.759 51.0303 279.254 51.8115C278.75 52.5928 278.359 53.5368 278.082 54.6436C277.822 55.734 277.692 56.9629 277.692 58.3301L277.692 59.3066C277.692 60.4622 277.846 61.5365 278.156 62.5293C278.481 63.5059 278.953 64.3604 279.572 65.0928C280.19 65.8252 280.939 66.403 281.818 66.8262C282.697 67.2331 283.698 67.4365 284.821 67.4365C286.237 67.4365 287.498 67.1517 288.605 66.582C289.712 66.0124 290.672 65.2067 291.486 64.165L294.586 67.168C294.017 67.998 293.276 68.7956 292.365 69.5605C291.453 70.3092 290.338 70.9196 289.02 71.3916C287.718 71.8636 286.204 72.0996 284.479 72.0996ZM126.642 130.611H119.049L119.098 125.753H126.642C128.839 125.753 130.678 125.273 132.159 124.313C133.657 123.352 134.78 121.977 135.529 120.187C136.294 118.396 136.676 116.264 136.676 113.79L136.676 111.861C136.676 109.941 136.456 108.24 136.017 106.759C135.594 105.278 134.959 104.033 134.113 103.023C133.283 102.014 132.257 101.249 131.036 100.729C129.832 100.208 128.44 99.9473 126.862 99.9473H118.903L118.903 95.0645H126.862C129.222 95.0645 131.378 95.4632 133.331 96.2607C135.284 97.042 136.969 98.1732 138.385 99.6543C139.817 101.135 140.916 102.91 141.681 104.977C142.446 107.044 142.828 109.355 142.828 111.91L142.828 113.79C142.828 116.345 142.446 118.657 141.681 120.724C140.916 122.791 139.817 124.565 138.385 126.046C136.953 127.511 135.244 128.642 133.258 129.439C131.289 130.221 129.083 130.611 126.642 130.611ZM122.443 95.0645L122.443 130.611H116.315L116.315 95.0645H122.443ZM163.287 125.313L163.287 112.716C163.287 111.772 163.117 110.958 162.775 110.274C162.433 109.591 161.912 109.062 161.212 108.688C160.529 108.313 159.666 108.126 158.624 108.126C157.664 108.126 156.834 108.289 156.134 108.614C155.434 108.94 154.889 109.379 154.498 109.933C154.108 110.486 153.912 111.113 153.912 111.813H148.053C148.053 110.771 148.305 109.762 148.81 108.785C149.314 107.809 150.047 106.938 151.007 106.173C151.967 105.408 153.115 104.806 154.45 104.366C155.784 103.927 157.282 103.707 158.942 103.707C160.927 103.707 162.685 104.041 164.215 104.708C165.761 105.375 166.974 106.384 167.853 107.735C168.748 109.07 169.196 110.746 169.196 112.765L169.196 124.508C169.196 125.712 169.277 126.795 169.44 127.755C169.619 128.699 169.871 129.521 170.197 130.221L170.197 130.611H164.166C163.89 129.977 163.67 129.171 163.507 128.194C163.361 127.201 163.287 126.241 163.287 125.313ZM164.142 114.547L164.191 118.185H159.967C158.877 118.185 157.916 118.29 157.086 118.502C156.256 118.697 155.564 118.99 155.011 119.381C154.458 119.771 154.043 120.243 153.766 120.797C153.489 121.35 153.351 121.977 153.351 122.677C153.351 123.377 153.514 124.02 153.839 124.605C154.165 125.175 154.637 125.623 155.255 125.948C155.89 126.274 156.655 126.437 157.55 126.437C158.755 126.437 159.804 126.192 160.7 125.704C161.611 125.2 162.327 124.589 162.848 123.873C163.369 123.141 163.645 122.449 163.678 121.798L165.582 124.41C165.387 125.077 165.053 125.794 164.581 126.559C164.109 127.324 163.491 128.056 162.726 128.756C161.977 129.439 161.074 130.001 160.016 130.44C158.974 130.88 157.77 131.1 156.403 131.1C154.677 131.1 153.139 130.758 151.788 130.074C150.437 129.374 149.38 128.438 148.615 127.267C147.85 126.078 147.467 124.736 147.467 123.238C147.467 121.839 147.728 120.602 148.248 119.527C148.785 118.437 149.567 117.525 150.592 116.793C151.634 116.061 152.903 115.507 154.401 115.133C155.898 114.742 157.607 114.547 159.528 114.547H164.142ZM187.457 104.195L187.457 108.492H172.565L172.565 104.195H187.457ZM176.862 97.7256H182.745L182.745 123.312C182.745 124.125 182.859 124.752 183.087 125.191C183.331 125.615 183.665 125.899 184.088 126.046C184.511 126.192 185.008 126.266 185.577 126.266C185.984 126.266 186.375 126.241 186.749 126.192C187.124 126.144 187.425 126.095 187.653 126.046L187.677 130.538C187.189 130.685 186.619 130.815 185.968 130.929C185.333 131.043 184.601 131.1 183.771 131.1C182.42 131.1 181.224 130.864 180.182 130.392C179.14 129.903 178.326 129.114 177.741 128.023C177.155 126.933 176.862 125.484 176.862 123.678L176.862 97.7256ZM206.891 125.313L206.891 112.716C206.891 111.772 206.72 110.958 206.378 110.274C206.036 109.591 205.516 109.062 204.816 108.688C204.132 108.313 203.269 108.126 202.228 108.126C201.268 108.126 200.437 108.289 199.738 108.614C199.038 108.94 198.492 109.379 198.102 109.933C197.711 110.486 197.516 111.113 197.516 111.813L191.657 111.813C191.657 110.771 191.909 109.762 192.413 108.785C192.918 107.809 193.65 106.938 194.611 106.173C195.571 105.408 196.718 104.806 198.053 104.366C199.388 103.927 200.885 103.707 202.545 103.707C204.531 103.707 206.289 104.041 207.819 104.708C209.365 105.375 210.577 106.384 211.456 107.735C212.352 109.07 212.799 110.746 212.799 112.765L212.799 124.508C212.799 125.712 212.881 126.795 213.043 127.755C213.222 128.699 213.475 129.521 213.8 130.221L213.8 130.611H207.77C207.493 129.977 207.273 129.171 207.111 128.194C206.964 127.201 206.891 126.241 206.891 125.313ZM207.745 114.547L207.794 118.185H203.571C202.48 118.185 201.52 118.29 200.69 118.502C199.86 118.697 199.168 118.99 198.615 119.381C198.061 119.771 197.646 120.243 197.369 120.797C197.093 121.35 196.954 121.977 196.954 122.677C196.954 123.377 197.117 124.02 197.443 124.605C197.768 125.175 198.24 125.623 198.859 125.948C199.493 126.274 200.258 126.437 201.154 126.437C202.358 126.437 203.408 126.192 204.303 125.704C205.214 125.2 205.931 124.589 206.451 123.873C206.972 123.141 207.249 122.449 207.282 121.798L209.186 124.41C208.991 125.077 208.657 125.794 208.185 126.559C207.713 127.324 207.094 128.056 206.329 128.756C205.581 129.439 204.677 130.001 203.619 130.44C202.578 130.88 201.373 131.1 200.006 131.1C198.281 131.1 196.743 130.758 195.392 130.074C194.041 129.374 192.983 128.438 192.218 127.267C191.453 126.078 191.071 124.736 191.071 123.238C191.071 121.839 191.331 120.602 191.852 119.527C192.389 118.437 193.17 117.525 194.196 116.793C195.237 116.061 196.507 115.507 198.004 115.133C199.502 114.742 201.211 114.547 203.131 114.547H207.745Z" fill="#666666"/>
<path d="M807 84L757 55.1325V112.868L807 84ZM725 89H762V79H725V89Z" fill="#2FA4DA"/>
<path d="M414 84L364 55.1325V112.868L414 84ZM332 89H369V79H332V89Z" fill="#2FA4DA"/>
<path d="M1191 84L1141 55.1325V112.868L1191 84ZM1109 89H1146V79H1109V89Z" fill="#2FA4DA"/>
<g clip-path="url(#clip0_951_32)">
<path fill-rule="evenodd" clip-rule="evenodd" d="M1249.17 31.6858C1230.57 31.8646 1215.54 47.0079 1215.44 65.7016C1231.59 61.5205 1243.47 48.8479 1249.17 31.6858ZM1249.5 100.105C1235.36 100.105 1223.24 91.4575 1218.09 79.1424C1240.56 73.6503 1255.95 56.0034 1262.63 34.3201C1274.93 39.4838 1283.56 51.6763 1283.56 65.8947C1283.56 84.7885 1268.31 100.105 1249.5 100.105ZM1297.18 66.4503C1297.19 66.2656 1297.19 66.0802 1297.19 65.8947C1297.19 39.4432 1275.84 18 1249.5 18C1223.16 18 1201.81 39.4432 1201.81 65.8947C1201.81 66.0781 1201.81 66.2615 1201.82 66.4448C1201.81 66.5023 1201.81 66.5598 1201.81 66.6173C1201.78 72.3496 1201.79 80.9864 1201.8 89.1387C1201.81 93.0251 1201.81 96.806 1201.81 100.105C1201.81 103.884 1204.86 106.947 1208.62 106.947H1218.73C1204.03 114.353 1195 127.017 1195 141.158C1195 144.937 1198.05 148 1201.81 148C1205.57 148 1208.62 144.937 1208.62 141.158C1208.62 129.322 1221.78 113.789 1249.5 113.789C1277.22 113.789 1290.38 129.322 1290.38 141.158C1290.38 144.937 1293.42 148 1297.19 148C1300.95 148 1304 144.937 1304 141.158C1304 127.017 1294.97 114.353 1280.27 106.947H1290.38C1294.14 106.947 1297.19 103.884 1297.19 100.105C1297.19 96.8039 1297.19 93.0244 1297.2 89.1346V89.1244C1297.21 80.9761 1297.22 72.3462 1297.19 66.6173C1297.19 66.5612 1297.19 66.5057 1297.18 66.4503Z" fill="#D07839"/>
</g>
<defs>
<clipPath id="clip0_951_32">
<rect width="109" height="130" fill="white" transform="translate(1195 18)"/>
</clipPath>
</defs>
</svg>
