<svg width="285" height="297" viewBox="0 0 285 297" fill="none" xmlns="http://www.w3.org/2000/svg">
<g clip-path="url(#clip0_314_643)">
<path d="M241.423 18.0897C222.698 9.51709 202.93 3.43542 182.625 0C179.846 4.96711 177.332 10.0776 175.093 15.3101C153.464 12.0509 131.468 12.0509 109.839 15.3101C107.599 10.0781 105.085 4.96771 102.307 0C81.9891 3.46443 62.2085 9.56054 43.4649 18.1345C6.25391 73.188 -3.83339 126.874 1.21026 179.798C23.0019 195.899 47.393 208.143 73.3233 216C79.162 208.147 84.3286 199.816 88.7681 191.096C80.3358 187.947 72.1972 184.061 64.4465 179.484C66.4863 178.005 68.4814 176.481 70.4092 175.001C92.9621 185.607 117.577 191.106 142.5 191.106C167.422 191.106 192.037 185.607 214.59 175.001C216.541 176.593 218.536 178.117 220.553 179.484C212.787 184.069 204.634 187.961 196.187 191.118C200.621 199.835 205.788 208.159 211.631 216C237.584 208.175 261.994 195.936 283.789 179.821C289.707 118.446 273.68 65.2528 241.423 18.0897ZM95.1567 147.25C81.1017 147.25 69.4901 134.496 69.4901 118.804C69.4901 103.113 80.6982 90.2466 95.1119 90.2466C109.526 90.2466 121.047 103.113 120.801 118.804C120.554 134.496 109.481 147.25 95.1567 147.25ZM189.843 147.25C175.765 147.25 164.199 134.496 164.199 118.804C164.199 103.113 175.407 90.2466 189.843 90.2466C204.279 90.2466 215.711 103.113 215.465 118.804C215.218 134.496 204.167 147.25 189.843 147.25Z" fill="#5865F2"/>
<path d="M187.394 195.513C167.563 175.668 132.269 174.657 111.272 193.308C96.4912 206.267 90.6017 226.169 88.667 245.018C87.3013 258.604 88.1122 273.186 95.0829 285.292C102.082 294.282 114.274 296.175 124.971 296.715C146.296 297.668 168.83 292.518 185.872 279.018C206.414 261.392 211.208 228.573 196.129 206.082C193.668 202.241 190.695 198.699 187.394 195.513V195.513Z" fill="black" fill-opacity="0.31373"/>
<path d="M180.281 181.287C160.451 161.442 125.156 160.432 104.159 179.082C89.3783 192.042 83.4888 211.944 81.5541 230.793C80.1884 244.379 80.9993 258.96 87.97 271.066C94.9691 280.057 107.161 281.949 117.858 282.49C139.183 283.443 161.717 278.293 178.759 264.793C199.301 247.167 204.095 214.348 189.016 191.857C186.555 188.016 183.582 184.474 180.281 181.287V181.287Z" fill="#DC9A6A" stroke="black" stroke-width="4" stroke-linecap="round" stroke-linejoin="round"/>
<path d="M135.555 165.965C139.78 166.976 143.877 168.526 147.704 170.688C151.417 172.694 154.931 175.098 158.075 177.901C177.038 194.118 180.95 224.419 167.108 245.132C155.315 261.335 136.58 271.478 117.417 275.917C109.65 277.667 100.802 278.876 93.2335 276.002C100.233 280.811 109.494 282.077 117.844 282.489C139.169 283.442 161.702 278.293 178.759 264.792C199.301 247.167 204.095 214.348 189.016 191.857C186.555 188.001 183.582 184.473 180.281 181.272C168.687 169.664 151.787 164.514 135.555 165.965V165.965Z" fill="black" fill-opacity="0.31373"/>
<path fill-rule="evenodd" clip-rule="evenodd" d="M180.808 176.294C184.72 164.145 204.451 152.921 210.298 157.146C216.145 161.385 216.6 171.457 215.561 172.951C214.537 174.43 203.982 169.864 197.324 175.369C190.68 180.86 187.337 185.555 187.337 185.555L180.808 176.294Z" fill="url(#paint0_linear_314_643)" stroke="black" stroke-width="4"/>
<path fill-rule="evenodd" clip-rule="evenodd" d="M214.324 162.423C214.452 163.746 214.267 164.842 213.911 165.269C212.901 166.478 202.787 165.297 196.3 170.319C189.827 175.34 186.555 179.181 186.555 179.181L181.377 174.828C181.178 175.326 180.964 175.81 180.808 176.294L187.337 185.569C187.337 185.569 190.68 180.86 197.324 175.355C203.982 169.863 214.537 174.43 215.561 172.936C216.273 171.926 216.273 166.862 214.324 162.423V162.423Z" fill="black" fill-opacity="0.31373"/>
<path d="M185.36 176.365C165.885 157.075 133.606 152.096 110.902 166.564C105.766 169.395 107.317 176.493 107.374 176.379C115.952 169.594 124.843 177.062 136.523 185.441C150.82 195.698 166.539 211.432 178.076 226.725C186.157 237.422 191.932 247.935 187.309 255.29C187.551 255.361 194.265 257.253 197.338 250.994C212.816 221.817 204.067 193.792 185.36 176.365V176.365Z" fill="url(#paint1_linear_314_643)" stroke="black" stroke-width="4" stroke-linecap="round" stroke-linejoin="round"/>
<path d="M183.824 174.217C189.998 190.235 189.187 205.386 181.348 220.01C179.57 223.339 176.839 222.257 174.548 222.215C175.758 223.708 176.938 225.231 178.076 226.724C186.142 237.436 191.932 247.949 187.309 255.29C187.551 255.361 194.265 257.267 197.338 251.008C211.507 224.263 205.29 195.171 183.824 174.217V174.217Z" fill="black" fill-opacity="0.31373"/>
</g>
<defs>
<linearGradient id="paint0_linear_314_643" x1="-306.154" y1="-1345.42" x2="-270.962" y2="-1345.42" gradientUnits="userSpaceOnUse">
<stop stop-color="#74401B"/>
</linearGradient>
<linearGradient id="paint1_linear_314_643" x1="-379.851" y1="-1343.45" x2="-281.661" y2="-1343.45" gradientUnits="userSpaceOnUse">
<stop stop-color="#74401B"/>
</linearGradient>
<clipPath id="clip0_314_643">
<rect width="285" height="297" fill="white"/>
</clipPath>
</defs>
</svg>
