<?xml version="1.0" encoding="UTF-8" standalone="no"?>
<!-- Generator: Adobe Illustrator 23.0.1, SVG Export Plug-In . SVG Version: 6.00 Build 0)  -->

<svg
   version="1.1"
   id="Layer_1"
   x="0px"
   y="0px"
   viewBox="0 0 531.78949 427.45621"
   xml:space="preserve"
   sodipodi:docname="slack_sqrl.svg.2022_02_08_17_49_49.0.svg"
   width="531.78949"
   height="427.45621"
   inkscape:version="1.1.1 (c3084ef, 2021-09-22)"
   xmlns:inkscape="http://www.inkscape.org/namespaces/inkscape"
   xmlns:sodipodi="http://sodipodi.sourceforge.net/DTD/sodipodi-0.dtd"
   xmlns:xlink="http://www.w3.org/1999/xlink"
   xmlns="http://www.w3.org/2000/svg"
   xmlns:svg="http://www.w3.org/2000/svg"><defs
   id="defs1268">
	
	
	
	
	
<linearGradient
   inkscape:collect="always"
   xlink:href="#linearGradient2069"
   id="linearGradient2071"
   x1="162.51797"
   y1="416.035"
   x2="448.50153"
   y2="416.035"
   gradientUnits="userSpaceOnUse"
   gradientTransform="matrix(0.75,0,0,0.75,155.0325,108.9675)" /><linearGradient
   id="linearGradient2069"
   inkscape:swatch="solid"><stop
     style="stop-color:#d07839;stop-opacity:1;"
     offset="0"
     id="stop2067" /></linearGradient><linearGradient
   id="linearGradient2009"
   inkscape:swatch="solid"
   gradientTransform="matrix(0.75,0,0,0.75,155.0325,108.9675)"><stop
     style="stop-color:#74401b;stop-opacity:1;"
     offset="0"
     id="stop2007" /></linearGradient></defs><sodipodi:namedview
   id="namedview1266"
   pagecolor="#ffffff"
   bordercolor="#666666"
   borderopacity="1.0"
   inkscape:pageshadow="2"
   inkscape:pageopacity="0.0"
   inkscape:pagecheckerboard="0"
   showgrid="false"
   inkscape:zoom="0.79166667"
   inkscape:cx="425.05263"
   inkscape:cy="226.73684"
   inkscape:window-width="1440"
   inkscape:window-height="855"
   inkscape:window-x="0"
   inkscape:window-y="23"
   inkscape:window-maximized="1"
   inkscape:current-layer="Layer_1" />
<style
   type="text/css"
   id="style1225">
	.st0{fill:#FFFFFF;}
	.st1{fill:#E01E5A;}
	.st2{fill:#36C5F0;}
	.st3{fill:#2EB67D;}
	.st4{fill:#ECB22E;}
</style>
<g
   id="g1243"
   transform="translate(-16.421053,-168.7543)">
		<path
   class="st1"
   d="m 159.51,409.5 c 0,14.91 -12.09,27 -27,27 -14.91,0 -27,-12.09 -27,-27 0,-14.91 12.09,-27 27,-27 h 27 z"
   id="path1239" />
		<path
   class="st1"
   d="m 173.01,409.5 c 0,-14.91 12.09,-27 27,-27 14.91,0 27,12.09 27,27 V 477 c 0,14.91 -12.09,27 -27,27 -14.91,0 -27,-12.09 -27,-27 z"
   id="path1241" />
	</g><g
   id="g1249"
   transform="translate(-16.421053,-168.7543)">
		<path
   class="st2"
   d="m 200.01,301.5 c -14.91,0 -27,-12.09 -27,-27 0,-14.91 12.09,-27 27,-27 14.91,0 27,12.09 27,27 v 27 z"
   id="path1245" />
		<path
   class="st2"
   d="m 200.01,315 c 14.91,0 27,12.09 27,27 0,14.91 -12.09,27 -27,27 h -67.5 c -14.91,0 -27,-12.09 -27,-27 0,-14.91 12.09,-27 27,-27 z"
   id="path1247" />
	</g><g
   id="g1255"
   transform="translate(-16.421053,-168.7543)">
		<path
   class="st3"
   d="m 308.01,342 c 0,-14.91 12.09,-27 27,-27 14.91,0 27,12.09 27,27 0,14.91 -12.09,27 -27,27 h -27 z"
   id="path1251" />
		<path
   class="st3"
   d="m 294.51,342 c 0,14.91 -12.09,27 -27,27 -14.91,0 -27,-12.09 -27,-27 v -67.5 c 0,-14.91 12.09,-27 27,-27 14.91,0 27,12.09 27,27 z"
   id="path1253" />
	</g><g
   id="g1261"
   transform="translate(-16.421053,-168.7543)">
		<path
   class="st4"
   d="m 267.51,450 c 14.91,0 27,12.09 27,27 0,14.91 -12.09,27 -27,27 -14.91,0 -27,-12.09 -27,-27 v -27 z"
   id="path1257" />
		<path
   class="st4"
   d="m 267.51,436.5 c -14.91,0 -27,-12.09 -27,-27 0,-14.91 12.09,-27 27,-27 h 67.5 c 14.91,0 27,12.09 27,27 0,14.91 -12.09,27 -27,27 z"
   id="path1259" />
	</g>
<g
   id="g1091"
   transform="translate(-30.421053,-184.7543)"><path
     id="path3573"
     style="fill:url(#linearGradient2071);fill-opacity:1;fill-rule:evenodd;stroke:#000000;stroke-width:3;stroke-linejoin:round"
     d="m 468.675,341.4075 c -14.8575,0 -45.0375,7.905 -50.3175,28.4025 -0.0825,0.1575 -0.24,0.7275 -0.4125,1.605 -9.555,-5.8425 -20.79,-9.24 -32.7975,-9.24 -12.54,0 -24.195,3.705 -34.0125,10.02 -0.2025,-1.2825 -0.45,-2.1825 -0.5475,-2.385 -5.28,-20.4975 -35.46,-28.38 -50.325,-28.3875 -2.3625,0 -4.32,0.2025 -5.7525,0.5775 -7.9725,1.11 -16.7025,4.2975 -16.065,6.0375 5.85,-0.9975 8.805,0.1425 8.715,1.0875 -0.18,1.77 -3.705,2.2425 -2.5725,8.625 2.1375,-3.0975 5.115,-4.1625 7.455,-4.6575 2.4,15.0675 12.9,41.37 32.55,42.735 1.6875,0.12 3.2625,0.1125 4.7475,0.0825 -4.635,8.79 -7.2675,18.8025 -7.2675,29.43 0,34.8525 28.2525,75.24 63.075,75.24 34.815,0 63.105,-40.3875 63.105,-75.24 0,-10.62 -2.64,-20.61 -7.275,-29.3925 1.0725,-0.007 2.205,-0.0375 3.375,-0.12 19.5825,-1.3575 30.0825,-27.51 32.5275,-42.5925 2.235,0.5475 4.905,1.6725 6.8625,4.515 1.1325,-6.3825 -2.3925,-6.855 -2.5725,-8.625 -0.09,-0.945 2.865,-2.085 8.715,-1.0875 0.6075,-1.65 -7.185,-4.5975 -14.79,-5.85 -1.4475,-0.51 -3.6675,-0.78 -6.42,-0.78 z" /><path
     id="path3177"
     style="fill:#ffffff;stroke:#000000;stroke-width:3.00002;stroke-linecap:round;stroke-linejoin:round"
     d="m 382.94737,420.27911 a 20.61017,20.628588 0 1 1 -41.22034,0 20.61017,20.628588 0 1 1 41.22034,0 z" /><path
     id="path3179"
     style="fill:#ffffff;stroke:#000000;stroke-width:3.00002;stroke-linecap:round;stroke-linejoin:round"
     d="m 428.59237,420.27911 a 20.61017,20.628588 0 1 1 -41.22034,0 20.61017,20.628588 0 1 1 41.22034,0 z" /><path
     id="path3181"
     style="fill:#000000;stroke-width:1.00755"
     d="m 376.56227,422.78544 a 6.6569325,6.6628815 0 1 1 -13.31386,0 6.6569325,6.6628815 0 1 1 13.31386,0 z" /><path
     id="path3183"
     style="fill:#000000;stroke-width:1.00755"
     d="m 407.01227,422.78544 a 6.6569325,6.6628815 0 1 1 -13.31386,0 6.6569325,6.6628815 0 1 1 13.31386,0 z" /><path
     id="path3192"
     style="fill:#000000;fill-rule:evenodd;stroke-width:0.75"
     d="m 374.505,459.855 c 3.36,-3.5925 17.6325,-4.3725 20.6175,0.4425 2.985,4.8225 -4.4775,14.8125 -10.3125,14.3625 -5.805,-0.45 -13.455,-11.4525 -10.305,-14.805 z" /><path
     id="path3216"
     style="fill:#74401b;fill-opacity:1;fill-rule:evenodd;stroke:#000000;stroke-width:3;stroke-linejoin:round"
     d="m 336.9675,386.625 c -2.2125,-32.04 -35.1825,-39.3375 -36.7725,-35.535 -1.5825,3.81 6.0225,46.6425 36.7725,35.535 z" /><path
     id="path3218"
     style="fill:url(#linearGradient2009);fill-opacity:1;fill-rule:evenodd;stroke:#000000;stroke-width:3;stroke-linejoin:round"
     d="M 430.9275,386.625 C 433.14,354.585 466.11,347.2875 467.7,351.09 c 1.5825,3.81 -6.03,46.6425 -36.7725,35.535 z" /><path
     id="path3246"
     style="fill:#000000;fill-opacity:0.31373;stroke-width:0.75"
     d="m 443.28,400.8975 c 1.1475,4.755 1.7625,9.735 1.7625,14.835 0,34.8525 -28.2825,75.225 -63.105,75.225 -25.38,0 -47.2425,-21.4575 -57.2475,-46.59 7.7475,29.0175 31.8825,56.2275 60.4575,56.2275 34.8225,0 63.105,-40.4025 63.105,-75.255 0,-8.67 -1.77,-16.92 -4.9425,-24.4425 z" /></g></svg>
