<svg width="232" height="241" viewBox="0 0 232 241" fill="none" xmlns="http://www.w3.org/2000/svg">
<path d="M191.865 17.8494C189.983 10.8199 184.459 5.29569 177.429 3.41397C164.701 1.02193e-06 113.639 0 113.639 0C113.639 0 62.5776 1.02193e-06 49.8491 3.41397C42.8196 5.29569 37.2954 10.8199 35.4137 17.8494C31.9998 30.5779 31.9998 57.1504 31.9998 57.1504C31.9998 57.1504 31.9998 83.723 35.4137 96.4516C37.2954 103.481 42.8196 109.005 49.8491 110.887C62.5776 114.301 113.639 114.301 113.639 114.301C113.639 114.301 164.701 114.301 177.429 110.887C184.459 109.005 189.983 103.481 191.865 96.4516C195.279 83.723 195.279 57.1504 195.279 57.1504C195.279 57.1504 195.265 30.5779 191.865 17.8494Z" fill="#FF0000"/>
<path d="M97.2958 81.6414L139.715 57.1524L97.2958 32.6631V81.6414Z" fill="white"/>
<path fill-rule="evenodd" clip-rule="evenodd" d="M198.263 76C183.405 76 153.225 83.905 147.945 104.402C147.863 104.56 147.705 105.13 147.533 106.008C137.978 100.165 126.743 96.7675 114.735 96.7675C102.195 96.7675 90.5405 100.473 80.723 106.788C80.5205 105.505 80.2729 104.605 80.1754 104.402C74.8954 83.905 44.7155 76.0225 29.8505 76.015C27.488 76.015 25.5305 76.2175 24.098 76.5925C16.1255 77.7025 7.39545 80.89 8.03295 82.63C13.8829 81.6325 16.8379 82.7725 16.7479 83.7175C16.5679 85.4875 13.0429 85.96 14.1754 92.3425C16.3129 89.245 19.2905 88.18 21.6305 87.685C24.0305 102.752 34.5304 129.055 54.1804 130.42C55.8679 130.54 57.4429 130.533 58.9279 130.503C54.2929 139.293 51.6604 149.305 51.6604 159.932C51.6604 194.785 79.9129 235.172 114.735 235.172C149.55 235.172 177.84 194.785 177.84 159.932C177.84 149.312 175.2 139.323 170.565 130.54C171.638 130.533 172.77 130.503 173.94 130.42C193.523 129.063 204.023 102.91 206.468 87.8275C208.703 88.375 211.373 89.5 213.33 92.3425C214.463 85.96 210.938 85.4875 210.758 83.7175C210.668 82.7725 213.623 81.6325 219.473 82.63C220.08 80.98 212.288 78.0325 204.683 76.78C203.235 76.27 201.015 76 198.263 76V76Z" fill="url(#paint0_linear_314_619)" stroke="black" stroke-width="3" stroke-linejoin="round"/>
<path d="M112.535 154.872C112.535 160.343 110.364 165.59 106.499 169.458C102.634 173.327 97.3913 175.5 91.9251 175.5C86.459 175.5 81.2167 173.327 77.3515 169.458C73.4864 165.59 71.3149 160.343 71.3149 154.872C71.3149 149.401 73.4864 144.154 77.3515 140.285C81.2167 136.417 86.459 134.243 91.9251 134.243C97.3913 134.243 102.634 136.417 106.499 140.285C110.364 144.154 112.535 149.401 112.535 154.872V154.872Z" fill="white" stroke="black" stroke-width="3.00002" stroke-linecap="round" stroke-linejoin="round"/>
<path d="M158.18 154.872C158.18 160.343 156.009 165.59 152.144 169.458C148.279 173.327 143.036 175.5 137.57 175.5C132.104 175.5 126.862 173.327 122.997 169.458C119.131 165.59 116.96 160.343 116.96 154.872C116.96 149.401 119.131 144.154 122.997 140.285C126.862 136.417 132.104 134.243 137.57 134.243C143.036 134.243 148.279 136.417 152.144 140.285C156.009 144.154 158.18 149.401 158.18 154.872V154.872Z" fill="white" stroke="black" stroke-width="3.00002" stroke-linecap="round" stroke-linejoin="round"/>
<path d="M106.15 157.378C106.151 158.254 105.979 159.121 105.645 159.93C105.311 160.739 104.821 161.474 104.203 162.093C103.584 162.713 102.85 163.204 102.042 163.539C101.234 163.874 100.368 164.047 99.4933 164.047C98.6187 164.047 97.7526 163.874 96.9445 163.539C96.1365 163.204 95.4024 162.713 94.7842 162.093C94.1659 161.474 93.6757 160.739 93.3415 159.93C93.0073 159.121 92.8357 158.254 92.8364 157.378C92.8357 156.503 93.0073 155.636 93.3415 154.827C93.6757 154.018 94.1659 153.282 94.7842 152.663C95.4024 152.044 96.1365 151.552 96.9445 151.217C97.7526 150.882 98.6187 150.709 99.4933 150.709C100.368 150.709 101.234 150.882 102.042 151.217C102.85 151.552 103.584 152.044 104.203 152.663C104.821 153.282 105.311 154.018 105.645 154.827C105.979 155.636 106.151 156.503 106.15 157.378V157.378Z" fill="black"/>
<path d="M136.6 157.378C136.601 158.254 136.429 159.121 136.095 159.93C135.761 160.739 135.271 161.474 134.653 162.093C134.034 162.713 133.3 163.204 132.492 163.539C131.684 163.874 130.818 164.047 129.943 164.047C129.069 164.047 128.203 163.874 127.395 163.539C126.586 163.204 125.852 162.713 125.234 162.093C124.616 161.474 124.126 160.739 123.791 159.93C123.457 159.121 123.286 158.254 123.286 157.378C123.286 156.503 123.457 155.636 123.791 154.827C124.126 154.018 124.616 153.282 125.234 152.663C125.852 152.044 126.586 151.552 127.395 151.217C128.203 150.882 129.069 150.709 129.943 150.709C130.818 150.709 131.684 150.882 132.492 151.217C133.3 151.552 134.034 152.044 134.653 152.663C135.271 153.282 135.761 154.018 136.095 154.827C136.429 155.636 136.601 156.503 136.6 157.378Z" fill="black"/>
<path fill-rule="evenodd" clip-rule="evenodd" d="M104.093 194.447C107.453 190.855 121.726 190.075 124.711 194.89C127.696 199.712 120.233 209.702 114.398 209.252C108.593 208.802 100.943 197.8 104.093 194.447Z" fill="black"/>
<path fill-rule="evenodd" clip-rule="evenodd" d="M66.5555 121.218C64.343 89.1775 31.373 81.88 29.783 85.6825C28.2005 89.4925 35.8055 132.325 66.5555 121.218Z" fill="#74401B" stroke="black" stroke-width="3" stroke-linejoin="round"/>
<path fill-rule="evenodd" clip-rule="evenodd" d="M160.515 121.218C162.728 89.1775 195.698 81.88 197.288 85.6825C198.87 89.4925 191.258 132.325 160.515 121.218Z" fill="url(#paint1_linear_314_619)" stroke="black" stroke-width="3" stroke-linejoin="round"/>
<path d="M172.868 135.49C174.015 140.245 174.63 145.225 174.63 150.325C174.63 185.178 146.348 225.55 111.525 225.55C86.1455 225.55 64.283 204.093 54.278 178.96C62.0255 207.978 86.1604 235.188 114.735 235.188C149.558 235.188 177.84 194.785 177.84 159.933C177.84 151.263 176.07 143.013 172.898 135.49H172.868Z" fill="black" fill-opacity="0.31373"/>
<defs>
<linearGradient id="paint0_linear_314_619" x1="6.50893" y1="155.586" x2="220.997" y2="155.586" gradientUnits="userSpaceOnUse">
<stop stop-color="#D07839"/>
</linearGradient>
<linearGradient id="paint1_linear_314_619" x1="207.816" y1="106.189" x2="235.543" y2="106.189" gradientUnits="userSpaceOnUse">
<stop stop-color="#74401B"/>
</linearGradient>
</defs>
</svg>
