<svg width="868" height="736" viewBox="0 0 868 736" fill="none" xmlns="http://www.w3.org/2000/svg">
<g clip-path="url(#clip0_812_38)">
<path d="M94.1688 330.925C102.648 330.925 109.519 324.055 109.519 315.575C109.519 307.095 102.648 300.225 94.1688 300.225C85.6891 300.225 78.8188 307.095 78.8188 315.575C78.8188 324.055 85.6891 330.925 94.1688 330.925ZM94.1688 310.458C96.9971 310.458 99.2852 312.747 99.2852 315.574C99.2852 318.402 96.9965 320.691 94.1688 320.691C91.341 320.691 89.0523 318.402 89.0523 315.574C89.0523 312.747 91.3404 310.458 94.1688 310.458Z" fill="#2FA4DA"/>
<path d="M135.101 330.925C143.581 330.925 150.451 324.055 150.451 315.575C150.451 307.095 143.581 300.225 135.101 300.225C126.622 300.225 119.751 307.095 119.751 315.575C119.751 324.055 126.622 330.925 135.101 330.925ZM135.101 310.458C137.929 310.458 140.218 312.747 140.218 315.574C140.218 318.402 137.929 320.691 135.101 320.691C132.273 320.691 129.985 318.402 129.985 315.574C129.985 312.747 132.274 310.458 135.101 310.458Z" fill="#2FA4DA"/>
<path d="M176.034 330.925C184.514 330.925 191.384 324.055 191.384 315.575C191.384 307.095 184.514 300.225 176.034 300.225C167.555 300.225 160.685 307.095 160.685 315.575C160.685 324.055 167.555 330.925 176.034 330.925ZM176.034 310.458C178.862 310.458 181.151 312.747 181.151 315.574C181.151 318.402 178.862 320.691 176.034 320.691C173.206 320.691 170.918 318.402 170.918 315.574C170.918 312.747 173.207 310.458 176.034 310.458Z" fill="#2FA4DA"/>
<path d="M216.968 330.925C225.448 330.925 232.318 324.055 232.318 315.575C232.318 307.095 225.448 300.225 216.968 300.225C208.488 300.225 201.618 307.095 201.618 315.575C201.618 324.055 208.488 330.925 216.968 330.925ZM216.968 310.458C219.796 310.458 222.085 312.747 222.085 315.574C222.085 318.402 219.796 320.691 216.968 320.691C214.14 320.691 211.852 318.402 211.852 315.574C211.852 312.747 214.14 310.458 216.968 310.458Z" fill="#2FA4DA"/>
<path d="M257.901 330.925C266.38 330.925 273.251 324.055 273.251 315.575C273.251 307.095 266.38 300.225 257.901 300.225C249.421 300.225 242.551 307.095 242.551 315.575C242.551 324.055 249.421 330.925 257.901 330.925ZM257.901 310.458C260.728 310.458 263.017 312.747 263.017 315.574C263.017 318.402 260.728 320.691 257.901 320.691C255.073 320.691 252.784 318.402 252.784 315.574C252.784 312.747 255.073 310.458 257.901 310.458Z" fill="#2FA4DA"/>
<path d="M298.834 330.925C307.313 330.925 314.184 324.055 314.184 315.575C314.184 307.095 307.313 300.225 298.834 300.225C290.354 300.225 283.484 307.095 283.484 315.575C283.484 324.055 290.354 330.925 298.834 330.925ZM298.834 310.458C301.662 310.458 303.95 312.747 303.95 315.574C303.95 318.402 301.662 320.691 298.834 320.691C296.006 320.691 293.717 318.402 293.717 315.574C293.717 312.747 296.006 310.458 298.834 310.458Z" fill="#2FA4DA"/>
<path d="M344.884 382.091H334.65V351.391H337.882C344.575 351.391 349.998 345.965 349.998 339.275V291.874C349.998 285.827 345.562 280.827 339.767 279.919V261.748C339.767 255.583 335.365 250.446 329.534 249.301V105.793C329.534 102.967 327.243 100.676 324.417 100.676H68.5852C65.7592 100.676 63.4687 102.967 63.4687 105.793V249.301C57.6382 250.446 53.2353 255.583 53.2353 261.748V279.919C47.4401 280.828 43 285.827 43 291.874V339.275C43 345.965 48.4288 351.391 55.121 351.391H58.3517V382.091H48.1188C45.2929 382.091 43.0024 384.382 43.0024 387.208C43.0024 390.033 45.2929 392.324 48.1188 392.324H63.4687H94.1686H298.834H329.534H344.884C347.71 392.324 350 390.033 350 387.208C350 384.382 347.71 382.091 344.884 382.091ZM73.7016 110.909H319.3V249.058H298.834V136.493C298.834 133.667 296.543 131.376 293.717 131.376H232.318H160.685H99.285C96.4591 131.376 94.1686 133.667 94.1686 136.493V249.058H73.7016V110.909ZM237.434 249.058V228.592C237.434 225.766 235.144 223.476 232.318 223.476H160.685C157.859 223.476 155.568 225.767 155.568 228.592V249.058H104.402V141.609H155.568V162.075H145.335V156.959C145.335 154.133 143.044 151.842 140.218 151.842C137.392 151.842 135.102 154.134 135.102 156.959V177.425C135.102 180.251 137.392 182.542 140.218 182.542C143.044 182.542 145.335 180.251 145.335 177.425V172.309H155.568V187.659C155.568 190.485 157.859 192.775 160.685 192.775H176.035V208.125C176.035 210.951 178.325 213.241 181.151 213.241H211.851C214.677 213.241 216.967 210.951 216.967 208.125V192.775H232.317C235.143 192.775 237.434 190.484 237.434 187.659V172.309H247.667V177.425C247.667 180.251 249.958 182.542 252.783 182.542C255.609 182.542 257.9 180.251 257.9 177.425V156.959C257.9 154.133 255.609 151.842 252.783 151.842C249.958 151.842 247.667 154.134 247.667 156.959V162.075H237.434V141.609H288.6V249.058H237.434ZM227.201 249.058H165.801V233.708H227.201V249.058ZM227.201 182.542H211.851H181.151H165.801V141.609H227.201V182.542ZM186.268 192.776H206.734V203.009H186.268V192.776ZM63.4687 261.748C63.4687 260.393 64.5702 259.292 65.9247 259.292H68.5852H99.285H160.685H232.318H293.717H324.417H327.078C328.432 259.292 329.534 260.393 329.534 261.748V279.758H63.4687V261.748ZM53.2335 339.275V291.874C53.2335 290.837 54.0795 289.992 55.1216 289.992H58.3523H334.651H337.883C338.922 289.992 339.765 290.835 339.765 291.874V339.275C339.765 340.315 338.922 341.158 337.883 341.158H329.534H298.834H94.1686H63.4687H55.121C54.0789 341.158 53.2335 340.312 53.2335 339.275ZM293.717 351.391V382.091H99.285V351.391H293.717ZM68.5852 382.091V351.391H89.0515V382.091H68.5852ZM303.95 382.091V351.391H324.417V382.091H303.95Z" fill="#2FA4DA"/>
</g>
<path fill-rule="evenodd" clip-rule="evenodd" d="M247 180.5V219.668C250.084 222.666 252 226.859 252 231.5C252 240.613 244.613 248 235.5 248C226.387 248 219 240.613 219 231.5C219 226.859 220.916 222.666 224 219.668V180.5V177H224.542C226.023 172.36 230.369 169 235.5 169C240.631 169 244.977 172.36 246.458 177H247V180.5Z" fill="white"/>
<path d="M248.694 180.897C248.694 163.331 221.993 163.325 221.996 180.897V218.129C218.525 221.572 216.375 226.345 216.375 231.618C216.375 242.103 224.868 250.602 235.345 250.602C245.822 250.602 254.315 242.103 254.315 231.618C254.315 226.345 252.165 221.572 248.694 218.129V180.897ZM235.345 246.266C227.195 246.266 220.591 239.653 220.591 231.497C220.591 227.129 222.485 223.206 225.495 220.503L225.509 220.492L225.525 220.458C225.891 220.115 226.13 219.642 226.175 219.117V219.108C226.177 219.069 226.194 219.041 226.197 219.001L226.214 218.92V180.895C226.206 180.746 226.2 180.571 226.2 180.394C226.2 175.602 230.081 171.717 234.87 171.717C235.038 171.717 235.207 171.723 235.373 171.732H235.35C235.494 171.723 235.66 171.717 235.828 171.717C240.617 171.717 244.498 175.602 244.498 180.394C244.498 180.571 244.492 180.746 244.481 180.917V180.895V218.92L244.498 219.001L244.518 219.102C244.56 219.64 244.802 220.115 245.167 220.458L245.184 220.492C248.208 223.209 250.102 227.132 250.102 231.497C250.102 239.653 243.495 246.263 235.345 246.266ZM237.453 224.095V213.506C237.453 212.341 236.508 211.396 235.345 211.396C234.181 211.396 233.237 212.341 233.237 213.506V224.095C229.966 225.045 227.616 228.015 227.616 231.537C227.616 235.809 231.076 239.271 235.345 239.271C239.614 239.271 243.073 235.809 243.073 231.537C243.073 228.015 240.724 225.045 237.506 224.109L237.453 224.095Z" fill="#D07839"/>
<rect x="255.5" y="181.5" width="54" height="18" fill="white" stroke="#D07839" stroke-width="3"/>
<rect x="260" y="185" width="5" height="11" fill="#D07839"/>
<rect x="268" y="185" width="5" height="11" fill="#D07839"/>
<rect x="276" y="185" width="5" height="11" fill="#D07839"/>
<rect x="284" y="185" width="5" height="11" fill="#D07839"/>
<rect x="292" y="185" width="5" height="11" fill="#D07839"/>
<rect x="300" y="185" width="5" height="11" fill="#D07839"/>
<path fill-rule="evenodd" clip-rule="evenodd" d="M93 266.5V305.668C96.0841 308.666 98 312.859 98 317.5C98 326.613 90.6127 334 81.5 334C72.3873 334 65 326.613 65 317.5C65 312.859 66.9159 308.666 70 305.668V266.5V263H70.5423C72.0231 258.36 76.3691 255 81.5 255C86.6309 255 90.9769 258.36 92.4577 263H93V266.5Z" fill="white"/>
<path d="M94.694 266.897C94.694 249.331 67.9929 249.325 67.9957 266.897V304.129C64.5249 307.572 62.375 312.345 62.375 317.618C62.375 328.103 70.8679 336.602 81.3448 336.602C91.8218 336.602 100.315 328.103 100.315 317.618C100.315 312.345 98.1647 307.572 94.694 304.129V266.897ZM81.3448 332.266C73.1948 332.266 66.5905 325.653 66.5905 317.497C66.5905 313.129 68.4847 309.206 71.4946 306.503L71.5086 306.492L71.5255 306.458C71.8908 306.115 72.1297 305.642 72.1747 305.117V305.108C72.1775 305.069 72.1943 305.041 72.1972 305.001L72.214 304.92V266.895C72.2056 266.746 72.2 266.571 72.2 266.394C72.2 261.602 76.0811 257.717 80.8699 257.717C81.0385 257.717 81.2071 257.723 81.3729 257.732H81.3505C81.4938 257.723 81.6596 257.717 81.8282 257.717C86.617 257.717 90.4981 261.602 90.4981 266.394C90.4981 266.571 90.4925 266.746 90.4813 266.917V266.895V304.92L90.4981 305.001L90.5178 305.102C90.5599 305.64 90.8016 306.115 91.167 306.458L91.1838 306.492C94.2078 309.209 96.1019 313.132 96.1019 317.497C96.1019 325.653 89.4948 332.263 81.3448 332.266ZM83.4526 310.095V299.506C83.4526 298.341 82.5083 297.396 81.3448 297.396C80.1813 297.396 79.2371 298.341 79.2371 299.506V310.095C75.9658 311.045 73.6164 314.015 73.6164 317.537C73.6164 321.809 77.0759 325.271 81.3448 325.271C85.6137 325.271 89.0733 321.809 89.0733 317.537C89.0733 314.015 86.7238 311.045 83.506 310.109L83.4526 310.095Z" fill="#D07839"/>
<rect x="101.5" y="267.5" width="54" height="18" fill="white" stroke="#D07839" stroke-width="3"/>
<rect x="106" y="271" width="5" height="11" fill="#D07839"/>
<rect x="114" y="271" width="5" height="11" fill="#D07839"/>
<rect x="122" y="271" width="5" height="11" fill="#D07839"/>
<rect x="130" y="271" width="5" height="11" fill="#D07839"/>
<rect x="138" y="271" width="5" height="11" fill="#D07839"/>
<rect x="146" y="271" width="5" height="11" fill="#D07839"/>
<path fill-rule="evenodd" clip-rule="evenodd" d="M321 74.5V113.668C324.084 116.666 326 120.859 326 125.5C326 134.613 318.613 142 309.5 142C300.387 142 293 134.613 293 125.5C293 120.859 294.916 116.666 298 113.668V74.5V71H298.542C300.023 66.3602 304.369 63 309.5 63C314.631 63 318.977 66.3602 320.458 71H321V74.5Z" fill="white"/>
<path d="M322.694 74.8975C322.694 57.3306 295.993 57.325 295.996 74.8975V112.129C292.525 115.572 290.375 120.345 290.375 125.618C290.375 136.103 298.868 144.602 309.345 144.602C319.822 144.602 328.315 136.103 328.315 125.618C328.315 120.345 326.165 115.572 322.694 112.129V74.8975ZM309.345 140.266C301.195 140.266 294.591 133.653 294.591 125.497C294.591 121.129 296.485 117.206 299.495 114.503L299.509 114.492L299.525 114.458C299.891 114.115 300.13 113.642 300.175 113.117V113.108C300.177 113.069 300.194 113.041 300.197 113.001L300.214 112.92V74.8947C300.206 74.7456 300.2 74.5712 300.2 74.394C300.2 69.6015 304.081 65.7175 308.87 65.7175C309.038 65.7175 309.207 65.7231 309.373 65.7315H309.35C309.494 65.7231 309.66 65.7175 309.828 65.7175C314.617 65.7175 318.498 69.6015 318.498 74.394C318.498 74.5712 318.492 74.7456 318.481 74.9172V74.8947V112.92L318.498 113.001L318.518 113.102C318.56 113.64 318.802 114.115 319.167 114.458L319.184 114.492C322.208 117.209 324.102 121.132 324.102 125.497C324.102 133.653 317.495 140.263 309.345 140.266ZM311.453 118.095V107.506C311.453 106.341 310.508 105.396 309.345 105.396C308.181 105.396 307.237 106.341 307.237 107.506V118.095C303.966 119.045 301.616 122.015 301.616 125.537C301.616 129.809 305.076 133.271 309.345 133.271C313.614 133.271 317.073 129.809 317.073 125.537C317.073 122.015 314.724 119.045 311.506 118.109L311.453 118.095Z" fill="#D07839"/>
<rect x="329.5" y="75.5" width="54" height="18" fill="white" stroke="#D07839" stroke-width="3"/>
<rect x="334" y="79" width="5" height="11" fill="#D07839"/>
<rect x="342" y="79" width="5" height="11" fill="#D07839"/>
<rect x="350" y="79" width="5" height="11" fill="#D07839"/>
<rect x="358" y="79" width="5" height="11" fill="#D07839"/>
<rect x="366" y="79" width="5" height="11" fill="#D07839"/>
<rect x="374" y="79" width="5" height="11" fill="#D07839"/>
<g clip-path="url(#clip1_812_38)">
<path d="M811.317 363.233H787.9V208.683C787.9 206.097 785.803 204 783.217 204H567.783C565.197 204 563.1 206.097 563.1 208.683V363.233H539.683C537.097 363.233 535 365.33 535 367.916V480.316C535 482.903 537.097 485 539.683 485H811.316C813.903 485 815.999 482.903 815.999 480.317V367.917C816 365.33 813.903 363.233 811.317 363.233ZM572.467 213.367H778.534V363.234H769.167V227.417C769.167 224.83 767.07 222.734 764.484 222.734H708.284H642.717H586.517C583.93 222.734 581.834 224.83 581.834 227.417V363.234H572.467V213.367ZM694.233 363.233H656.766V353.866H694.233V363.233ZM698.917 344.5H652.084C649.497 344.5 647.401 346.597 647.401 349.183V363.233H591.2V232.1H638.033V264.883C638.033 264.927 638.039 264.968 638.04 265.011C638.042 265.112 638.045 265.212 638.055 265.314C638.066 265.434 638.085 265.552 638.104 265.669C638.113 265.716 638.117 265.763 638.126 265.81C638.162 265.99 638.21 266.166 638.267 266.338C638.27 266.347 638.271 266.355 638.274 266.364L647.641 294.464C648.278 296.377 650.068 297.666 652.084 297.666H656.767V311.716C656.767 314.303 658.863 316.399 661.45 316.399H689.55C692.137 316.399 694.233 314.303 694.233 311.716V297.666H698.916C700.932 297.666 702.722 296.377 703.359 294.464L712.726 266.364C712.729 266.355 712.73 266.346 712.733 266.338C712.789 266.166 712.837 265.991 712.874 265.811C712.883 265.762 712.887 265.715 712.895 265.667C712.915 265.551 712.933 265.434 712.944 265.315C712.954 265.212 712.957 265.112 712.96 265.011C712.961 264.968 712.966 264.927 712.966 264.884V232.1H759.8V363.233H703.6V349.183C703.6 346.597 701.503 344.5 698.917 344.5ZM666.133 297.667H684.866V307.034H666.133V297.667ZM689.55 288.3H661.45H655.459L649.214 269.567H701.786L695.541 288.3H689.55ZM703.6 260.2H647.4V232.1H703.6V260.2ZM806.633 475.633H544.367V372.6H567.784H586.517H652.084H698.917H764.484H783.217H806.634L806.633 475.633Z" fill="#2FA4DA"/>
<path d="M619.3 386.65H563.1C560.514 386.65 558.417 388.747 558.417 391.333V428.8C558.417 431.387 560.514 433.483 563.1 433.483H619.3C621.887 433.483 623.983 431.387 623.983 428.8V391.333C623.983 388.747 621.887 386.65 619.3 386.65ZM614.617 424.117H567.783V396.017H614.616V424.117H614.617Z" fill="#2FA4DA"/>
<path d="M563.1 442.85C560.514 442.85 558.417 444.947 558.417 447.533V456.9C558.417 459.487 560.514 461.583 563.1 461.583C565.687 461.583 567.783 459.487 567.783 456.9V447.533C567.783 444.947 565.687 442.85 563.1 442.85Z" fill="#2FA4DA"/>
<path d="M619.3 442.85C616.713 442.85 614.617 444.947 614.617 447.533V456.9C614.617 459.487 616.714 461.583 619.3 461.583C621.886 461.583 623.983 459.487 623.983 456.9V447.533C623.983 444.947 621.886 442.85 619.3 442.85Z" fill="#2FA4DA"/>
<path d="M600.567 442.85C597.98 442.85 595.884 444.947 595.884 447.533V456.9C595.884 459.487 597.98 461.583 600.567 461.583C603.154 461.583 605.25 459.487 605.25 456.9V447.533C605.25 444.947 603.154 442.85 600.567 442.85Z" fill="#2FA4DA"/>
<path d="M581.833 442.85C579.246 442.85 577.15 444.947 577.15 447.533V456.9C577.15 459.487 579.246 461.583 581.833 461.583C584.42 461.583 586.516 459.487 586.516 456.9V447.533C586.517 444.947 584.42 442.85 581.833 442.85Z" fill="#2FA4DA"/>
<path d="M727.017 391.333V428.8C727.017 431.387 729.113 433.483 731.7 433.483H787.9C790.486 433.483 792.583 431.387 792.583 428.8V391.333C792.583 388.746 790.486 386.65 787.9 386.65H731.7C729.113 386.65 727.017 388.747 727.017 391.333ZM736.383 396.017H783.216V424.117H736.383V396.017Z" fill="#2FA4DA"/>
<path d="M731.7 442.85C729.113 442.85 727.017 444.947 727.017 447.533V456.9C727.017 459.487 729.113 461.583 731.7 461.583C734.286 461.583 736.383 459.487 736.383 456.9V447.533C736.383 444.947 734.286 442.85 731.7 442.85Z" fill="#2FA4DA"/>
<path d="M787.9 442.85C785.313 442.85 783.217 444.947 783.217 447.533V456.9C783.217 459.487 785.314 461.583 787.9 461.583C790.486 461.583 792.583 459.487 792.583 456.9V447.533C792.583 444.947 790.487 442.85 787.9 442.85Z" fill="#2FA4DA"/>
<path d="M769.167 442.85C766.58 442.85 764.484 444.947 764.484 447.533V456.9C764.484 459.487 766.58 461.583 769.167 461.583C771.754 461.583 773.85 459.487 773.85 456.9V447.533C773.85 444.947 771.754 442.85 769.167 442.85Z" fill="#2FA4DA"/>
<path d="M750.433 442.85C747.847 442.85 745.75 444.947 745.75 447.533V456.9C745.75 459.487 747.847 461.583 750.433 461.583C753.02 461.583 755.116 459.487 755.116 456.9V447.533C755.117 444.947 753.02 442.85 750.433 442.85Z" fill="#2FA4DA"/>
<path d="M661.45 386.65H642.717C640.13 386.65 638.034 388.747 638.034 391.333V414.75C638.034 417.337 640.13 419.433 642.717 419.433H661.45C664.037 419.433 666.133 417.337 666.133 414.75V391.333C666.133 388.747 664.037 386.65 661.45 386.65ZM656.767 410.067H647.4V396.017H656.767V410.067Z" fill="#2FA4DA"/>
<path d="M708.283 386.65H689.55C686.963 386.65 684.867 388.747 684.867 391.333V414.75C684.867 417.337 686.963 419.433 689.55 419.433H708.283C710.87 419.433 712.966 417.337 712.966 414.75V391.333C712.967 388.747 710.87 386.65 708.283 386.65ZM703.6 410.067H694.233V396.017H703.6V410.067Z" fill="#2FA4DA"/>
<path d="M661.45 428.8H642.717C640.13 428.8 638.034 430.896 638.034 433.483V456.9C638.034 459.486 640.13 461.583 642.717 461.583H661.45C664.037 461.583 666.133 459.486 666.133 456.9V433.483C666.133 430.897 664.037 428.8 661.45 428.8ZM656.767 452.217H647.4V438.167H656.767V452.217Z" fill="#2FA4DA"/>
<path d="M708.283 428.8H689.55C686.963 428.8 684.867 430.896 684.867 433.483V456.9C684.867 459.486 686.963 461.583 689.55 461.583H708.283C710.87 461.583 712.966 459.486 712.966 456.9V433.483C712.967 430.897 710.87 428.8 708.283 428.8ZM703.6 452.217H694.233V438.167H703.6V452.217Z" fill="#2FA4DA"/>
</g>
<path fill-rule="evenodd" clip-rule="evenodd" d="M690 186.5V225.668C693.084 228.666 695 232.859 695 237.5C695 246.613 687.613 254 678.5 254C669.387 254 662 246.613 662 237.5C662 232.859 663.916 228.666 667 225.668V186.5V183H667.542C669.023 178.36 673.369 175 678.5 175C683.631 175 687.977 178.36 689.458 183H690V186.5Z" fill="white"/>
<path d="M691.694 186.897C691.694 169.331 664.993 169.325 664.996 186.897V224.129C661.525 227.572 659.375 232.345 659.375 237.618C659.375 248.103 667.868 256.602 678.345 256.602C688.822 256.602 697.315 248.103 697.315 237.618C697.315 232.345 695.165 227.572 691.694 224.129V186.897ZM678.345 252.266C670.195 252.266 663.591 245.653 663.591 237.497C663.591 233.129 665.485 229.206 668.495 226.503L668.509 226.492L668.525 226.458C668.891 226.115 669.13 225.642 669.175 225.117V225.108C669.177 225.069 669.194 225.041 669.197 225.001L669.214 224.92V186.895C669.206 186.746 669.2 186.571 669.2 186.394C669.2 181.602 673.081 177.717 677.87 177.717C678.038 177.717 678.207 177.723 678.373 177.732H678.35C678.494 177.723 678.66 177.717 678.828 177.717C683.617 177.717 687.498 181.602 687.498 186.394C687.498 186.571 687.492 186.746 687.481 186.917V186.895V224.92L687.498 225.001L687.518 225.102C687.56 225.64 687.802 226.115 688.167 226.458L688.184 226.492C691.208 229.209 693.102 233.132 693.102 237.497C693.102 245.653 686.495 252.263 678.345 252.266ZM680.453 230.095V219.506C680.453 218.341 679.508 217.396 678.345 217.396C677.181 217.396 676.237 218.341 676.237 219.506V230.095C672.966 231.045 670.616 234.015 670.616 237.537C670.616 241.809 674.076 245.271 678.345 245.271C682.614 245.271 686.073 241.809 686.073 237.537C686.073 234.015 683.724 231.045 680.506 230.109L680.453 230.095Z" fill="#D07839"/>
<rect x="698.5" y="187.5" width="54" height="18" fill="white" stroke="#D07839" stroke-width="3"/>
<rect x="703" y="191" width="5" height="11" fill="#D07839"/>
<rect x="711" y="191" width="5" height="11" fill="#D07839"/>
<rect x="719" y="191" width="5" height="11" fill="#D07839"/>
<rect x="727" y="191" width="5" height="11" fill="#D07839"/>
<rect x="735" y="191" width="5" height="11" fill="#D07839"/>
<rect x="743" y="191" width="5" height="11" fill="#D07839"/>
<path fill-rule="evenodd" clip-rule="evenodd" d="M690 286.5V325.668C693.084 328.666 695 332.859 695 337.5C695 346.613 687.613 354 678.5 354C669.387 354 662 346.613 662 337.5C662 332.859 663.916 328.666 667 325.668V286.5V283H667.542C669.023 278.36 673.369 275 678.5 275C683.631 275 687.977 278.36 689.458 283H690V286.5Z" fill="white"/>
<path d="M691.694 286.897C691.694 269.331 664.993 269.325 664.996 286.897V324.129C661.525 327.572 659.375 332.345 659.375 337.618C659.375 348.103 667.868 356.602 678.345 356.602C688.822 356.602 697.315 348.103 697.315 337.618C697.315 332.345 695.165 327.572 691.694 324.129V286.897ZM678.345 352.266C670.195 352.266 663.591 345.653 663.591 337.497C663.591 333.129 665.485 329.206 668.495 326.503L668.509 326.492L668.525 326.458C668.891 326.115 669.13 325.642 669.175 325.117V325.108C669.177 325.069 669.194 325.041 669.197 325.001L669.214 324.92V286.895C669.206 286.746 669.2 286.571 669.2 286.394C669.2 281.602 673.081 277.717 677.87 277.717C678.038 277.717 678.207 277.723 678.373 277.732H678.35C678.494 277.723 678.66 277.717 678.828 277.717C683.617 277.717 687.498 281.602 687.498 286.394C687.498 286.571 687.492 286.746 687.481 286.917V286.895V324.92L687.498 325.001L687.518 325.102C687.56 325.64 687.802 326.115 688.167 326.458L688.184 326.492C691.208 329.209 693.102 333.132 693.102 337.497C693.102 345.653 686.495 352.263 678.345 352.266ZM680.453 330.095V319.506C680.453 318.341 679.508 317.396 678.345 317.396C677.181 317.396 676.237 318.341 676.237 319.506V330.095C672.966 331.045 670.616 334.015 670.616 337.537C670.616 341.809 674.076 345.271 678.345 345.271C682.614 345.271 686.073 341.809 686.073 337.537C686.073 334.015 683.724 331.045 680.506 330.109L680.453 330.095Z" fill="#D07839"/>
<rect x="698.5" y="287.5" width="54" height="18" fill="white" stroke="#D07839" stroke-width="3"/>
<rect x="703" y="291" width="5" height="11" fill="#D07839"/>
<rect x="711" y="291" width="5" height="11" fill="#D07839"/>
<rect x="719" y="291" width="5" height="11" fill="#D07839"/>
<rect x="727" y="291" width="5" height="11" fill="#D07839"/>
<rect x="735" y="291" width="5" height="11" fill="#D07839"/>
<rect x="743" y="291" width="5" height="11" fill="#D07839"/>
<path fill-rule="evenodd" clip-rule="evenodd" d="M780 396.5V435.668C783.084 438.666 785 442.859 785 447.5C785 456.613 777.613 464 768.5 464C759.387 464 752 456.613 752 447.5C752 442.859 753.916 438.666 757 435.668V396.5V393H757.542C759.023 388.36 763.369 385 768.5 385C773.631 385 777.977 388.36 779.458 393H780V396.5Z" fill="white"/>
<path d="M781.694 396.897C781.694 379.331 754.993 379.325 754.996 396.897V434.129C751.525 437.572 749.375 442.345 749.375 447.618C749.375 458.103 757.868 466.602 768.345 466.602C778.822 466.602 787.315 458.103 787.315 447.618C787.315 442.345 785.165 437.572 781.694 434.129V396.897ZM768.345 462.266C760.195 462.266 753.591 455.653 753.591 447.497C753.591 443.129 755.485 439.206 758.495 436.503L758.509 436.492L758.525 436.458C758.891 436.115 759.13 435.642 759.175 435.117V435.108C759.177 435.069 759.194 435.041 759.197 435.001L759.214 434.92V396.895C759.206 396.746 759.2 396.571 759.2 396.394C759.2 391.602 763.081 387.717 767.87 387.717C768.038 387.717 768.207 387.723 768.373 387.732H768.35C768.494 387.723 768.66 387.717 768.828 387.717C773.617 387.717 777.498 391.602 777.498 396.394C777.498 396.571 777.492 396.746 777.481 396.917V396.895V434.92L777.498 435.001L777.518 435.102C777.56 435.64 777.802 436.115 778.167 436.458L778.184 436.492C781.208 439.209 783.102 443.132 783.102 447.497C783.102 455.653 776.495 462.263 768.345 462.266ZM770.453 440.095V429.506C770.453 428.341 769.508 427.396 768.345 427.396C767.181 427.396 766.237 428.341 766.237 429.506V440.095C762.966 441.045 760.616 444.015 760.616 447.537C760.616 451.809 764.076 455.271 768.345 455.271C772.614 455.271 776.073 451.809 776.073 447.537C776.073 444.015 773.724 441.045 770.506 440.109L770.453 440.095Z" fill="#D07839"/>
<rect x="788.5" y="397.5" width="54" height="18" fill="white" stroke="#D07839" stroke-width="3"/>
<rect x="793" y="401" width="5" height="11" fill="#D07839"/>
<rect x="801" y="401" width="5" height="11" fill="#D07839"/>
<rect x="809" y="401" width="5" height="11" fill="#D07839"/>
<rect x="817" y="401" width="5" height="11" fill="#D07839"/>
<rect x="825" y="401" width="5" height="11" fill="#D07839"/>
<rect x="833" y="401" width="5" height="11" fill="#D07839"/>
<g clip-path="url(#clip2_812_38)">
<path d="M415.634 449H328.3H188.566H162.366C159.955 449 158 450.955 158 453.366V593.1V645.5C158 647.912 159.955 649.866 162.366 649.866H171.1V702.267H162.366C159.955 702.267 158 704.221 158 706.633C158 709.045 159.955 711 162.366 711H175.466H201.666H376.333H402.533H415.633C418.045 711 419.999 709.045 419.999 706.634C419.999 704.222 418.045 702.267 415.633 702.267H406.9V649.867H415.634C418.045 649.867 420 647.912 420 645.501V593.1V453.366C420 450.955 418.045 449 415.634 449ZM411.267 588.733H332.667V536.334V510.134V457.734H411.267V588.733ZM323.934 531.966H306.467V514.5H323.934V531.966ZM323.934 505.766H302.1C299.688 505.766 297.733 507.721 297.733 510.133V536.333C297.733 538.745 299.688 540.699 302.1 540.699H323.934V588.733H192.934V549.433H219.134V553.799C219.134 556.211 221.088 558.166 223.5 558.166H258.434C260.845 558.166 262.8 556.211 262.8 553.799V492.666C262.8 490.255 260.845 488.3 258.434 488.3H223.5C221.088 488.3 219.134 490.255 219.134 492.666V497.033H192.934V457.733H323.934V505.766ZM227.866 545.066V501.4V497.034H254.066V549.434H227.866V545.066ZM219.134 540.7H192.934V505.766H219.134V540.7ZM166.734 457.734H184.2V501.4V545.066V588.733H166.734V457.734ZM179.834 702.267V649.866H197.3V702.267H179.834ZM371.966 649.866V702.267H206.034V649.866H371.966ZM398.167 702.267H380.7V649.866H398.167V702.267ZM411.267 641.134H402.533H376.333H201.666H175.466H166.734V597.467H188.567H328.3H411.267V641.134Z" fill="#2FA4DA"/>
<path d="M345.766 510.133H398.166C400.578 510.133 402.533 508.179 402.533 505.767V470.833C402.533 468.422 400.578 466.467 398.166 466.467H345.766C343.355 466.467 341.4 468.422 341.4 470.833V505.767C341.4 508.178 343.355 510.133 345.766 510.133ZM350.133 475.2H393.8V501.4H350.133V475.2Z" fill="#2FA4DA"/>
<path d="M345.766 540.7C348.178 540.7 350.133 538.745 350.133 536.334V523.234C350.133 520.822 348.178 518.867 345.766 518.867C343.355 518.867 341.4 520.822 341.4 523.234V536.334C341.4 538.745 343.355 540.7 345.766 540.7Z" fill="#2FA4DA"/>
<path d="M398.166 518.867C395.755 518.867 393.8 520.821 393.8 523.233V536.333C393.8 538.745 395.755 540.7 398.166 540.7C400.578 540.7 402.533 538.745 402.533 536.333V523.233C402.533 520.822 400.578 518.867 398.166 518.867Z" fill="#2FA4DA"/>
<path d="M380.7 540.7C383.112 540.7 385.066 538.745 385.066 536.334V523.234C385.066 520.822 383.112 518.867 380.7 518.867C378.288 518.867 376.333 520.822 376.333 523.234V536.334C376.333 538.745 378.288 540.7 380.7 540.7Z" fill="#2FA4DA"/>
<path d="M363.234 518.867C360.822 518.867 358.867 520.821 358.867 523.233V536.333C358.867 538.745 360.822 540.7 363.234 540.7C365.645 540.7 367.6 538.745 367.6 536.333V523.233C367.6 520.822 365.645 518.867 363.234 518.867Z" fill="#2FA4DA"/>
<path d="M345.766 575.634H363.233C365.645 575.634 367.599 573.679 367.599 571.267V553.8C367.599 551.388 365.645 549.434 363.233 549.434H345.766C343.355 549.434 341.4 551.388 341.4 553.8V571.267C341.4 573.678 343.355 575.634 345.766 575.634ZM350.133 558.167H358.867V566.9H350.133V558.167Z" fill="#2FA4DA"/>
<path d="M398.166 549.434H380.7C378.288 549.434 376.333 551.388 376.333 553.8V571.267C376.333 573.678 378.288 575.633 380.7 575.633H398.166C400.578 575.633 402.533 573.678 402.533 571.267V553.8C402.533 551.388 400.578 549.434 398.166 549.434ZM393.8 566.9H385.066V558.167H393.8V566.9Z" fill="#2FA4DA"/>
<path d="M201.666 606.2C194.43 606.2 188.566 612.063 188.566 619.3C188.566 626.537 194.43 632.4 201.666 632.4C208.903 632.4 214.766 626.537 214.766 619.3C214.766 612.063 208.904 606.2 201.666 606.2ZM201.666 623.667C199.253 623.667 197.3 621.713 197.3 619.3C197.3 616.887 199.253 614.934 201.666 614.934C204.08 614.934 206.033 616.887 206.033 619.3C206.033 621.714 204.08 623.667 201.666 623.667Z" fill="#2FA4DA"/>
<path d="M236.6 606.2C229.363 606.2 223.5 612.063 223.5 619.3C223.5 626.537 229.363 632.4 236.6 632.4C243.837 632.4 249.7 626.537 249.7 619.3C249.7 612.063 243.837 606.2 236.6 606.2ZM236.6 623.667C234.186 623.667 232.234 621.713 232.234 619.3C232.234 616.887 234.187 614.934 236.6 614.934C239.013 614.934 240.966 616.887 240.966 619.3C240.966 621.714 239.014 623.667 236.6 623.667Z" fill="#2FA4DA"/>
<path d="M271.534 606.2C264.297 606.2 258.434 612.063 258.434 619.3C258.434 626.537 264.297 632.4 271.534 632.4C278.77 632.4 284.634 626.537 284.634 619.3C284.634 612.063 278.77 606.2 271.534 606.2ZM271.534 623.667C269.12 623.667 267.167 621.713 267.167 619.3C267.167 616.887 269.12 614.934 271.534 614.934C273.947 614.934 275.9 616.887 275.9 619.3C275.9 621.714 273.947 623.667 271.534 623.667Z" fill="#2FA4DA"/>
<path d="M306.467 606.2C299.23 606.2 293.367 612.063 293.367 619.3C293.367 626.537 299.23 632.4 306.467 632.4C313.703 632.4 319.567 626.537 319.567 619.3C319.567 612.063 313.704 606.2 306.467 606.2ZM306.467 623.667C304.053 623.667 302.1 621.713 302.1 619.3C302.1 616.887 304.053 614.934 306.467 614.934C308.88 614.934 310.833 616.887 310.833 619.3C310.834 621.714 308.88 623.667 306.467 623.667Z" fill="#2FA4DA"/>
<path d="M341.4 632.4C348.637 632.4 354.5 626.537 354.5 619.3C354.5 612.063 348.637 606.2 341.4 606.2C334.163 606.2 328.3 612.063 328.3 619.3C328.3 626.537 334.163 632.4 341.4 632.4ZM341.4 614.934C343.813 614.934 345.766 616.887 345.766 619.3C345.766 621.714 343.813 623.667 341.4 623.667C338.987 623.667 337.033 621.713 337.033 619.3C337.033 616.886 338.987 614.934 341.4 614.934Z" fill="#2FA4DA"/>
<path d="M376.333 632.4C383.57 632.4 389.433 626.537 389.433 619.3C389.433 612.063 383.57 606.2 376.333 606.2C369.097 606.2 363.233 612.063 363.233 619.3C363.233 626.537 369.097 632.4 376.333 632.4ZM376.333 614.934C378.747 614.934 380.7 616.887 380.7 619.3C380.7 621.714 378.747 623.667 376.333 623.667C373.92 623.667 371.967 621.713 371.967 619.3C371.966 616.886 373.92 614.934 376.333 614.934Z" fill="#2FA4DA"/>
</g>
<path fill-rule="evenodd" clip-rule="evenodd" d="M249 472.5V511.668C252.084 514.666 254 518.859 254 523.5C254 532.613 246.613 540 237.5 540C228.387 540 221 532.613 221 523.5C221 518.859 222.916 514.666 226 511.668V472.5V469H226.542C228.023 464.36 232.369 461 237.5 461C242.631 461 246.977 464.36 248.458 469H249V472.5Z" fill="white"/>
<path d="M250.694 472.897C250.694 455.331 223.993 455.325 223.996 472.897V510.129C220.525 513.572 218.375 518.345 218.375 523.618C218.375 534.103 226.868 542.602 237.345 542.602C247.822 542.602 256.315 534.103 256.315 523.618C256.315 518.345 254.165 513.572 250.694 510.129V472.897ZM237.345 538.266C229.195 538.266 222.591 531.653 222.591 523.497C222.591 519.129 224.485 515.206 227.495 512.503L227.509 512.492L227.525 512.458C227.891 512.115 228.13 511.642 228.175 511.117V511.108C228.177 511.069 228.194 511.041 228.197 511.001L228.214 510.92V472.895C228.206 472.746 228.2 472.571 228.2 472.394C228.2 467.602 232.081 463.717 236.87 463.717C237.038 463.717 237.207 463.723 237.373 463.732H237.35C237.494 463.723 237.66 463.717 237.828 463.717C242.617 463.717 246.498 467.602 246.498 472.394C246.498 472.571 246.492 472.746 246.481 472.917V472.895V510.92L246.498 511.001L246.518 511.102C246.56 511.64 246.802 512.115 247.167 512.458L247.184 512.492C250.208 515.209 252.102 519.132 252.102 523.497C252.102 531.653 245.495 538.263 237.345 538.266ZM239.453 516.095V505.506C239.453 504.341 238.508 503.396 237.345 503.396C236.181 503.396 235.237 504.341 235.237 505.506V516.095C231.966 517.045 229.616 520.015 229.616 523.537C229.616 527.809 233.076 531.271 237.345 531.271C241.614 531.271 245.073 527.809 245.073 523.537C245.073 520.015 242.724 517.045 239.506 516.109L239.453 516.095Z" fill="#D07839"/>
<rect x="257.5" y="473.5" width="54" height="18" fill="white" stroke="#D07839" stroke-width="3"/>
<rect x="262" y="477" width="5" height="11" fill="#D07839"/>
<rect x="270" y="477" width="5" height="11" fill="#D07839"/>
<rect x="278" y="477" width="5" height="11" fill="#D07839"/>
<rect x="286" y="477" width="5" height="11" fill="#D07839"/>
<rect x="294" y="477" width="5" height="11" fill="#D07839"/>
<rect x="302" y="477" width="5" height="11" fill="#D07839"/>
<path fill-rule="evenodd" clip-rule="evenodd" d="M384 436.5V475.668C387.084 478.666 389 482.859 389 487.5C389 496.613 381.613 504 372.5 504C363.387 504 356 496.613 356 487.5C356 482.859 357.916 478.666 361 475.668V436.5V433H361.542C363.023 428.36 367.369 425 372.5 425C377.631 425 381.977 428.36 383.458 433H384V436.5Z" fill="white"/>
<path d="M385.694 436.897C385.694 419.331 358.993 419.325 358.996 436.897V474.129C355.525 477.572 353.375 482.345 353.375 487.618C353.375 498.103 361.868 506.602 372.345 506.602C382.822 506.602 391.315 498.103 391.315 487.618C391.315 482.345 389.165 477.572 385.694 474.129V436.897ZM372.345 502.266C364.195 502.266 357.591 495.653 357.591 487.497C357.591 483.129 359.485 479.206 362.495 476.503L362.509 476.492L362.525 476.458C362.891 476.115 363.13 475.642 363.175 475.117V475.108C363.177 475.069 363.194 475.041 363.197 475.001L363.214 474.92V436.895C363.206 436.746 363.2 436.571 363.2 436.394C363.2 431.602 367.081 427.717 371.87 427.717C372.038 427.717 372.207 427.723 372.373 427.732H372.35C372.494 427.723 372.66 427.717 372.828 427.717C377.617 427.717 381.498 431.602 381.498 436.394C381.498 436.571 381.492 436.746 381.481 436.917V436.895V474.92L381.498 475.001L381.518 475.102C381.56 475.64 381.802 476.115 382.167 476.458L382.184 476.492C385.208 479.209 387.102 483.132 387.102 487.497C387.102 495.653 380.495 502.263 372.345 502.266ZM374.453 480.095V469.506C374.453 468.341 373.508 467.396 372.345 467.396C371.181 467.396 370.237 468.341 370.237 469.506V480.095C366.966 481.045 364.616 484.015 364.616 487.537C364.616 491.809 368.076 495.271 372.345 495.271C376.614 495.271 380.073 491.809 380.073 487.537C380.073 484.015 377.724 481.045 374.506 480.109L374.453 480.095Z" fill="#D07839"/>
<rect x="392.5" y="437.5" width="54" height="18" fill="white" stroke="#D07839" stroke-width="3"/>
<rect x="397" y="441" width="5" height="11" fill="#D07839"/>
<rect x="405" y="441" width="5" height="11" fill="#D07839"/>
<rect x="413" y="441" width="5" height="11" fill="#D07839"/>
<rect x="421" y="441" width="5" height="11" fill="#D07839"/>
<rect x="429" y="441" width="5" height="11" fill="#D07839"/>
<rect x="437" y="441" width="5" height="11" fill="#D07839"/>
<path fill-rule="evenodd" clip-rule="evenodd" d="M318 566.5V605.668C321.084 608.666 323 612.859 323 617.5C323 626.613 315.613 634 306.5 634C297.387 634 290 626.613 290 617.5C290 612.859 291.916 608.666 295 605.668V566.5V563H295.542C297.023 558.36 301.369 555 306.5 555C311.631 555 315.977 558.36 317.458 563H318V566.5Z" fill="white"/>
<path d="M319.694 566.897C319.694 549.331 292.993 549.325 292.996 566.897V604.129C289.525 607.572 287.375 612.345 287.375 617.618C287.375 628.103 295.868 636.602 306.345 636.602C316.822 636.602 325.315 628.103 325.315 617.618C325.315 612.345 323.165 607.572 319.694 604.129V566.897ZM306.345 632.266C298.195 632.266 291.591 625.653 291.591 617.497C291.591 613.129 293.485 609.206 296.495 606.503L296.509 606.492L296.525 606.458C296.891 606.115 297.13 605.642 297.175 605.117V605.108C297.177 605.069 297.194 605.041 297.197 605.001L297.214 604.92V566.895C297.206 566.746 297.2 566.571 297.2 566.394C297.2 561.602 301.081 557.717 305.87 557.717C306.038 557.717 306.207 557.723 306.373 557.732H306.35C306.494 557.723 306.66 557.717 306.828 557.717C311.617 557.717 315.498 561.602 315.498 566.394C315.498 566.571 315.492 566.746 315.481 566.917V566.895V604.92L315.498 605.001L315.518 605.102C315.56 605.64 315.802 606.115 316.167 606.458L316.184 606.492C319.208 609.209 321.102 613.132 321.102 617.497C321.102 625.653 314.495 632.263 306.345 632.266ZM308.453 610.095V599.506C308.453 598.341 307.508 597.396 306.345 597.396C305.181 597.396 304.237 598.341 304.237 599.506V610.095C300.966 611.045 298.616 614.015 298.616 617.537C298.616 621.809 302.076 625.271 306.345 625.271C310.614 625.271 314.073 621.809 314.073 617.537C314.073 614.015 311.724 611.045 308.506 610.109L308.453 610.095Z" fill="#D07839"/>
<rect x="326.5" y="567.5" width="54" height="18" fill="white" stroke="#D07839" stroke-width="3"/>
<rect x="331" y="571" width="5" height="11" fill="#D07839"/>
<rect x="339" y="571" width="5" height="11" fill="#D07839"/>
<rect x="347" y="571" width="5" height="11" fill="#D07839"/>
<rect x="355" y="571" width="5" height="11" fill="#D07839"/>
<rect x="363" y="571" width="5" height="11" fill="#D07839"/>
<rect x="371" y="571" width="5" height="11" fill="#D07839"/>
<path fill-rule="evenodd" clip-rule="evenodd" d="M598 355.5V394.668C601.084 397.666 603 401.859 603 406.5C603 415.613 595.613 423 586.5 423C577.387 423 570 415.613 570 406.5C570 401.859 571.916 397.666 575 394.668V355.5V352H575.542C577.023 347.36 581.369 344 586.5 344C591.631 344 595.977 347.36 597.458 352H598V355.5Z" fill="white"/>
<path d="M599.694 355.897C599.694 338.331 572.993 338.325 572.996 355.897V393.129C569.525 396.572 567.375 401.345 567.375 406.618C567.375 417.103 575.868 425.602 586.345 425.602C596.822 425.602 605.315 417.103 605.315 406.618C605.315 401.345 603.165 396.572 599.694 393.129V355.897ZM586.345 421.266C578.195 421.266 571.591 414.653 571.591 406.497C571.591 402.129 573.485 398.206 576.495 395.503L576.509 395.492L576.525 395.458C576.891 395.115 577.13 394.642 577.175 394.117V394.108C577.177 394.069 577.194 394.041 577.197 394.001L577.214 393.92V355.895C577.206 355.746 577.2 355.571 577.2 355.394C577.2 350.602 581.081 346.717 585.87 346.717C586.038 346.717 586.207 346.723 586.373 346.732H586.35C586.494 346.723 586.66 346.717 586.828 346.717C591.617 346.717 595.498 350.602 595.498 355.394C595.498 355.571 595.492 355.746 595.481 355.917V355.895V393.92L595.498 394.001L595.518 394.102C595.56 394.64 595.802 395.115 596.167 395.458L596.184 395.492C599.208 398.209 601.102 402.132 601.102 406.497C601.102 414.653 594.495 421.263 586.345 421.266ZM588.453 399.095V388.506C588.453 387.341 587.508 386.396 586.345 386.396C585.181 386.396 584.237 387.341 584.237 388.506V399.095C580.966 400.045 578.616 403.015 578.616 406.537C578.616 410.809 582.076 414.271 586.345 414.271C590.614 414.271 594.073 410.809 594.073 406.537C594.073 403.015 591.724 400.045 588.506 399.109L588.453 399.095Z" fill="#D07839"/>
<rect x="606.5" y="356.5" width="54" height="18" fill="white" stroke="#D07839" stroke-width="3"/>
<rect x="611" y="360" width="5" height="11" fill="#D07839"/>
<rect x="619" y="360" width="5" height="11" fill="#D07839"/>
<rect x="627" y="360" width="5" height="11" fill="#D07839"/>
<rect x="635" y="360" width="5" height="11" fill="#D07839"/>
<rect x="643" y="360" width="5" height="11" fill="#D07839"/>
<rect x="651" y="360" width="5" height="11" fill="#D07839"/>
<rect x="9.5" y="48.5" width="458" height="684" stroke="#2FA4DA" stroke-width="5" stroke-dasharray="10 10"/>
<path d="M14.8154 11.4531H21.0166L30.1475 37.5518L39.2783 11.4531H45.4795L32.6377 47H27.6572L14.8154 11.4531ZM11.4707 11.4531H17.6475L18.7705 36.8926V47H11.4707V11.4531ZM42.6475 11.4531H48.8486V47H41.5244V36.8926L42.6475 11.4531ZM69.0879 41.043V29.2754C69.0879 28.429 68.9495 27.7048 68.6729 27.1025C68.3962 26.484 67.9648 26.0039 67.3789 25.6621C66.8092 25.3203 66.0687 25.1494 65.1572 25.1494C64.376 25.1494 63.7005 25.2878 63.1309 25.5645C62.5612 25.8249 62.1217 26.2074 61.8125 26.7119C61.5033 27.2002 61.3486 27.778 61.3486 28.4453H54.3174C54.3174 27.3223 54.5778 26.2562 55.0986 25.2471C55.6195 24.238 56.3763 23.3509 57.3691 22.5859C58.362 21.8047 59.542 21.1943 60.9092 20.7549C62.2926 20.3154 63.8389 20.0957 65.5479 20.0957C67.5986 20.0957 69.4215 20.4375 71.0166 21.1211C72.6117 21.8047 73.8649 22.8301 74.7764 24.1973C75.7041 25.5645 76.168 27.2734 76.168 29.3242V40.6279C76.168 42.0765 76.2575 43.2646 76.4365 44.1924C76.6156 45.1038 76.876 45.9014 77.2178 46.585V47H70.1133C69.7715 46.2839 69.5111 45.3887 69.332 44.3145C69.1693 43.224 69.0879 42.1335 69.0879 41.043ZM70.0156 30.9111L70.0645 34.8906H66.1338C65.2061 34.8906 64.4004 34.9964 63.7168 35.208C63.0332 35.4196 62.4717 35.7207 62.0322 36.1113C61.5928 36.4857 61.2673 36.9251 61.0557 37.4297C60.8604 37.9342 60.7627 38.4876 60.7627 39.0898C60.7627 39.6921 60.901 40.2373 61.1777 40.7256C61.4544 41.1976 61.8532 41.5719 62.374 41.8486C62.8949 42.109 63.5052 42.2393 64.2051 42.2393C65.263 42.2393 66.1826 42.0277 66.9639 41.6045C67.7451 41.1813 68.3473 40.6605 68.7705 40.042C69.21 39.4235 69.4378 38.8376 69.4541 38.2842L71.3096 41.2627C71.0492 41.93 70.6911 42.6217 70.2354 43.3379C69.7959 44.054 69.2344 44.7295 68.5508 45.3643C67.8672 45.9827 67.0452 46.4954 66.085 46.9023C65.1247 47.293 63.9854 47.4883 62.667 47.4883C60.9906 47.4883 59.4688 47.1546 58.1016 46.4873C56.7507 45.8037 55.6764 44.8678 54.8789 43.6797C54.0977 42.4753 53.707 41.1081 53.707 39.5781C53.707 38.1947 53.9674 36.9658 54.4883 35.8916C55.0091 34.8174 55.7741 33.9141 56.7832 33.1816C57.8086 32.4329 59.0863 31.8714 60.6162 31.4971C62.1462 31.1064 63.9202 30.9111 65.9385 30.9111H70.0156ZM92.501 41.9951C93.3636 41.9951 94.1286 41.8324 94.7959 41.5068C95.4632 41.165 95.984 40.693 96.3584 40.0908C96.749 39.4723 96.9525 38.748 96.9688 37.918H103.585C103.569 39.7734 103.072 41.4255 102.096 42.874C101.119 44.3063 99.8089 45.4375 98.165 46.2676C96.5212 47.0814 94.682 47.4883 92.6475 47.4883C90.5967 47.4883 88.8063 47.1465 87.2764 46.4629C85.7627 45.7793 84.5013 44.8353 83.4922 43.6309C82.4831 42.4102 81.7262 40.9941 81.2217 39.3828C80.7171 37.7552 80.4648 36.0137 80.4648 34.1582V33.4502C80.4648 31.5785 80.7171 29.8369 81.2217 28.2256C81.7262 26.598 82.4831 25.182 83.4922 23.9775C84.5013 22.7568 85.7627 21.8047 87.2764 21.1211C88.79 20.4375 90.5641 20.0957 92.5986 20.0957C94.7633 20.0957 96.6595 20.5107 98.2871 21.3408C99.931 22.1709 101.217 23.359 102.145 24.9053C103.089 26.4352 103.569 28.25 103.585 30.3496H96.9688C96.9525 29.4707 96.7653 28.6732 96.4072 27.957C96.0654 27.2409 95.5609 26.6712 94.8936 26.248C94.2425 25.8086 93.4368 25.5889 92.4766 25.5889C91.4512 25.5889 90.613 25.8086 89.9619 26.248C89.3109 26.6712 88.8063 27.2572 88.4482 28.0059C88.0902 28.7383 87.8379 29.5765 87.6914 30.5205C87.5612 31.4482 87.4961 32.4248 87.4961 33.4502V34.1582C87.4961 35.1836 87.5612 36.1683 87.6914 37.1123C87.8216 38.0563 88.0658 38.8945 88.4238 39.627C88.7982 40.3594 89.3109 40.9372 89.9619 41.3604C90.613 41.7835 91.4593 41.9951 92.501 41.9951ZM114.522 9.5V47H107.491V9.5H114.522ZM113.521 32.8643H111.593C111.609 31.0251 111.853 29.3324 112.325 27.7861C112.797 26.2236 113.473 24.8727 114.352 23.7334C115.23 22.5778 116.28 21.6826 117.501 21.0479C118.738 20.4131 120.105 20.0957 121.603 20.0957C122.905 20.0957 124.085 20.2829 125.143 20.6572C126.217 21.0153 127.136 21.6012 127.901 22.415C128.683 23.2126 129.285 24.2624 129.708 25.5645C130.131 26.8665 130.343 28.4453 130.343 30.3008V47H123.263V30.252C123.263 29.0801 123.092 28.1605 122.75 27.4932C122.424 26.8096 121.944 26.3294 121.31 26.0527C120.691 25.7598 119.926 25.6133 119.015 25.6133C118.006 25.6133 117.143 25.8005 116.427 26.1748C115.727 26.5492 115.165 27.07 114.742 27.7373C114.319 28.3883 114.01 29.1533 113.814 30.0322C113.619 30.9111 113.521 31.8551 113.521 32.8643ZM143.111 20.584V47H136.056V20.584H143.111ZM135.616 13.6992C135.616 12.6738 135.974 11.8275 136.69 11.1602C137.407 10.4928 138.367 10.1592 139.571 10.1592C140.759 10.1592 141.712 10.4928 142.428 11.1602C143.16 11.8275 143.526 12.6738 143.526 13.6992C143.526 14.7246 143.16 15.571 142.428 16.2383C141.712 16.9056 140.759 17.2393 139.571 17.2393C138.367 17.2393 137.407 16.9056 136.69 16.2383C135.974 15.571 135.616 14.7246 135.616 13.6992ZM155.807 26.2236V47H148.775V20.584H155.367L155.807 26.2236ZM154.781 32.8643H152.877C152.877 30.9111 153.129 29.1533 153.634 27.5908C154.138 26.012 154.846 24.6693 155.758 23.5625C156.669 22.4395 157.752 21.585 159.005 20.999C160.274 20.3968 161.69 20.0957 163.253 20.0957C164.49 20.0957 165.621 20.2747 166.646 20.6328C167.672 20.9909 168.551 21.5605 169.283 22.3418C170.032 23.123 170.602 24.1566 170.992 25.4424C171.399 26.7282 171.603 28.2988 171.603 30.1543V47H164.522V30.1299C164.522 28.958 164.36 28.0465 164.034 27.3955C163.709 26.7445 163.229 26.2887 162.594 26.0283C161.975 25.7516 161.21 25.6133 160.299 25.6133C159.355 25.6133 158.533 25.8005 157.833 26.1748C157.149 26.5492 156.58 27.07 156.124 27.7373C155.685 28.3883 155.351 29.1533 155.123 30.0322C154.895 30.9111 154.781 31.8551 154.781 32.8643ZM189.107 47.4883C187.057 47.4883 185.217 47.1628 183.59 46.5117C181.962 45.8444 180.579 44.9248 179.439 43.7529C178.316 42.5811 177.454 41.222 176.852 39.6758C176.249 38.1133 175.948 36.4531 175.948 34.6953V33.7188C175.948 31.7168 176.233 29.8857 176.803 28.2256C177.372 26.5654 178.186 25.125 179.244 23.9043C180.318 22.6836 181.62 21.7477 183.15 21.0967C184.68 20.4294 186.406 20.0957 188.326 20.0957C190.198 20.0957 191.858 20.4049 193.307 21.0234C194.755 21.6419 195.968 22.5208 196.944 23.6602C197.937 24.7995 198.686 26.1667 199.19 27.7617C199.695 29.3405 199.947 31.0983 199.947 33.0352V35.9648H178.951V31.2773H193.038V30.7402C193.038 29.7637 192.859 28.8929 192.501 28.1279C192.159 27.3467 191.638 26.7282 190.938 26.2725C190.239 25.8167 189.343 25.5889 188.253 25.5889C187.325 25.5889 186.528 25.7923 185.86 26.1992C185.193 26.6061 184.648 27.1758 184.225 27.9082C183.818 28.6406 183.508 29.5033 183.297 30.4961C183.102 31.4727 183.004 32.5469 183.004 33.7188V34.6953C183.004 35.7533 183.15 36.7298 183.443 37.625C183.753 38.5202 184.184 39.2933 184.737 39.9443C185.307 40.5954 185.991 41.0999 186.788 41.458C187.602 41.8161 188.521 41.9951 189.547 41.9951C190.816 41.9951 191.996 41.751 193.087 41.2627C194.194 40.7581 195.146 40.0013 195.943 38.9922L199.361 42.7031C198.808 43.5007 198.051 44.2656 197.091 44.998C196.147 45.7305 195.007 46.3327 193.673 46.8047C192.338 47.2604 190.816 47.4883 189.107 47.4883ZM245.016 28.4209V42.5078C244.462 43.1751 243.608 43.8994 242.452 44.6807C241.297 45.4456 239.807 46.1048 237.984 46.6582C236.161 47.2116 233.956 47.4883 231.368 47.4883C229.073 47.4883 226.982 47.1139 225.094 46.3652C223.206 45.6003 221.578 44.4854 220.211 43.0205C218.86 41.5557 217.818 39.7653 217.086 37.6494C216.354 35.5173 215.987 33.084 215.987 30.3496V28.1279C215.987 25.3936 216.337 22.9603 217.037 20.8281C217.753 18.696 218.771 16.8975 220.089 15.4326C221.407 13.9678 222.978 12.8529 224.801 12.0879C226.624 11.3229 228.65 10.9404 230.88 10.9404C233.972 10.9404 236.511 11.445 238.497 12.4541C240.483 13.4469 241.996 14.8304 243.038 16.6045C244.096 18.3623 244.747 20.3805 244.991 22.6592H237.887C237.708 21.4548 237.366 20.4049 236.861 19.5098C236.357 18.6146 235.632 17.9147 234.688 17.4102C233.761 16.9056 232.556 16.6533 231.075 16.6533C229.854 16.6533 228.764 16.9056 227.804 17.4102C226.86 17.8984 226.062 18.6227 225.411 19.583C224.76 20.5433 224.264 21.7314 223.922 23.1475C223.58 24.5635 223.409 26.2074 223.409 28.0791V30.3496C223.409 32.2051 223.588 33.849 223.946 35.2812C224.304 36.6973 224.833 37.8936 225.533 38.8701C226.249 39.8304 227.128 40.5547 228.17 41.043C229.212 41.5312 230.424 41.7754 231.808 41.7754C232.963 41.7754 233.924 41.6777 234.688 41.4824C235.47 41.2871 236.096 41.0511 236.568 40.7744C237.057 40.4814 237.431 40.2048 237.691 39.9443V33.6455H231.002V28.4209H245.016ZM257.516 26.3457V47H250.484V20.584H257.101L257.516 26.3457ZM265.475 20.4131L265.353 26.9316C265.011 26.8828 264.596 26.8421 264.107 26.8096C263.635 26.7607 263.204 26.7363 262.813 26.7363C261.821 26.7363 260.958 26.8665 260.226 27.127C259.509 27.3711 258.907 27.7373 258.419 28.2256C257.947 28.7139 257.589 29.3079 257.345 30.0078C257.117 30.7077 256.987 31.5052 256.954 32.4004L255.538 31.9609C255.538 30.252 255.709 28.6813 256.051 27.249C256.393 25.8005 256.889 24.5391 257.54 23.4648C258.207 22.3906 259.021 21.5605 259.981 20.9746C260.942 20.3887 262.04 20.0957 263.277 20.0957C263.668 20.0957 264.067 20.1283 264.474 20.1934C264.881 20.2422 265.214 20.3154 265.475 20.4131ZM266.939 34.0605V33.5479C266.939 31.611 267.216 29.8288 267.77 28.2012C268.323 26.5573 269.129 25.1331 270.187 23.9287C271.244 22.7243 272.547 21.7884 274.093 21.1211C275.639 20.4375 277.413 20.0957 279.415 20.0957C281.417 20.0957 283.199 20.4375 284.762 21.1211C286.324 21.7884 287.634 22.7243 288.692 23.9287C289.767 25.1331 290.58 26.5573 291.134 28.2012C291.687 29.8288 291.964 31.611 291.964 33.5479V34.0605C291.964 35.9811 291.687 37.7633 291.134 39.4072C290.58 41.0348 289.767 42.459 288.692 43.6797C287.634 44.8841 286.332 45.82 284.786 46.4873C283.24 47.1546 281.466 47.4883 279.464 47.4883C277.462 47.4883 275.68 47.1546 274.117 46.4873C272.571 45.82 271.261 44.8841 270.187 43.6797C269.129 42.459 268.323 41.0348 267.77 39.4072C267.216 37.7633 266.939 35.9811 266.939 34.0605ZM273.971 33.5479V34.0605C273.971 35.1673 274.068 36.2008 274.264 37.1611C274.459 38.1214 274.768 38.9678 275.191 39.7002C275.631 40.4163 276.201 40.9779 276.9 41.3848C277.6 41.7917 278.455 41.9951 279.464 41.9951C280.44 41.9951 281.279 41.7917 281.979 41.3848C282.678 40.9779 283.24 40.4163 283.663 39.7002C284.086 38.9678 284.396 38.1214 284.591 37.1611C284.802 36.2008 284.908 35.1673 284.908 34.0605V33.5479C284.908 32.4736 284.802 31.4645 284.591 30.5205C284.396 29.5602 284.078 28.7139 283.639 27.9814C283.215 27.2327 282.654 26.6468 281.954 26.2236C281.254 25.8005 280.408 25.5889 279.415 25.5889C278.422 25.5889 277.576 25.8005 276.876 26.2236C276.192 26.6468 275.631 27.2327 275.191 27.9814C274.768 28.7139 274.459 29.5602 274.264 30.5205C274.068 31.4645 273.971 32.4736 273.971 33.5479ZM311.91 40.6768V20.584H318.941V47H312.325L311.91 40.6768ZM312.691 35.2568L314.767 35.208C314.767 36.9658 314.563 38.6016 314.156 40.1152C313.749 41.6126 313.139 42.9147 312.325 44.0215C311.511 45.112 310.486 45.9665 309.249 46.585C308.012 47.1872 306.555 47.4883 304.879 47.4883C303.593 47.4883 302.405 47.3092 301.314 46.9512C300.24 46.5768 299.312 45.999 298.531 45.2178C297.766 44.4202 297.164 43.403 296.725 42.166C296.301 40.9128 296.09 39.4072 296.09 37.6494V20.584H303.121V37.6982C303.121 38.4795 303.211 39.1387 303.39 39.6758C303.585 40.2129 303.854 40.6523 304.195 40.9941C304.537 41.3359 304.936 41.5801 305.392 41.7266C305.864 41.873 306.384 41.9463 306.954 41.9463C308.403 41.9463 309.542 41.6533 310.372 41.0674C311.218 40.4814 311.812 39.6839 312.154 38.6748C312.512 37.6494 312.691 36.5101 312.691 35.2568ZM331.344 25.6621V57.1562H324.312V20.584H330.831L331.344 25.6621ZM348.067 33.499V34.0117C348.067 35.9323 347.84 37.7145 347.384 39.3584C346.944 41.0023 346.293 42.4346 345.431 43.6553C344.568 44.8597 343.494 45.8037 342.208 46.4873C340.938 47.1546 339.474 47.4883 337.813 47.4883C336.202 47.4883 334.802 47.1628 333.614 46.5117C332.426 45.8607 331.425 44.9492 330.611 43.7773C329.814 42.5892 329.171 41.2139 328.683 39.6514C328.194 38.0889 327.82 36.4124 327.56 34.6221V33.2793C327.82 31.3587 328.194 29.6009 328.683 28.0059C329.171 26.3945 329.814 25.0029 330.611 23.8311C331.425 22.6429 332.418 21.7233 333.59 21.0723C334.778 20.4212 336.17 20.0957 337.765 20.0957C339.441 20.0957 340.914 20.4131 342.184 21.0479C343.469 21.6826 344.544 22.5941 345.406 23.7822C346.285 24.9704 346.944 26.3864 347.384 28.0303C347.84 29.6742 348.067 31.4971 348.067 33.499ZM341.012 34.0117V33.499C341.012 32.376 340.914 31.3424 340.719 30.3984C340.54 29.4382 340.247 28.5999 339.84 27.8838C339.449 27.1676 338.928 26.6143 338.277 26.2236C337.643 25.8167 336.869 25.6133 335.958 25.6133C334.998 25.6133 334.176 25.7679 333.492 26.0771C332.825 26.3864 332.28 26.834 331.856 27.4199C331.433 28.0059 331.116 28.7057 330.904 29.5195C330.693 30.3333 330.562 31.2529 330.514 32.2783V35.6719C330.595 36.8763 330.823 37.9587 331.197 38.9189C331.572 39.863 332.149 40.6117 332.931 41.165C333.712 41.7184 334.737 41.9951 336.007 41.9951C336.935 41.9951 337.716 41.7917 338.351 41.3848C338.985 40.9616 339.498 40.3838 339.889 39.6514C340.296 38.9189 340.58 38.0726 340.743 37.1123C340.922 36.152 341.012 35.1185 341.012 34.0117Z" fill="#2FA4DA"/>
<defs>
<clipPath id="clip0_812_38">
<rect width="307" height="307" fill="white" transform="translate(43 93)"/>
</clipPath>
<clipPath id="clip1_812_38">
<rect width="281" height="281" fill="white" transform="translate(535 204)"/>
</clipPath>
<clipPath id="clip2_812_38">
<rect width="262" height="262" fill="white" transform="translate(158 449)"/>
</clipPath>
</defs>
</svg>
