<svg width="832" height="745" viewBox="0 0 832 745" fill="none" xmlns="http://www.w3.org/2000/svg">
<rect x="37" y="91" width="758" height="157" fill="#2FA4DA" stroke="#2FA4DA" stroke-width="6"/>
<rect x="267" y="295" width="528" height="174" fill="#2FA4DA" stroke="#2FA4DA" stroke-width="6"/>
<rect x="267" y="516" width="528" height="194" fill="#2FA4DA" stroke="#2FA4DA" stroke-width="6"/>
<rect x="37" y="295" width="183" height="415" fill="#2FA4DA" stroke="#2FA4DA" stroke-width="6"/>
<path d="M223 570L268 595.981V544.019L223 570Z" fill="#2FA4DA"/>
<path d="M119 292L144.981 247H93.0192L119 292Z" fill="#2FA4DA"/>
<path d="M531 472L505.019 517H556.981L531 472Z" fill="#2FA4DA"/>
<path d="M531 251L505.019 296H556.981L531 251Z" fill="#2FA4DA"/>
<path d="M531 0L505.019 45L556.981 45L531 0ZM535.5 70L535.5 40.5L526.5 40.5L526.5 70L535.5 70Z" fill="#888888"/>
<path d="M119 70L144.981 25L93.0192 25L119 70ZM114.5 0V29.5H123.5V0L114.5 0Z" fill="#888888"/>
<path d="M265 650L220 624.019L220 675.981L265 650Z" fill="#2FA4DA"/>
<path d="M335.688 183.117C335.688 182.102 335.531 181.19 335.219 180.383C334.932 179.549 334.385 178.794 333.578 178.117C332.771 177.414 331.638 176.724 330.18 176.047C328.721 175.37 326.833 174.667 324.516 173.938C321.938 173.104 319.49 172.167 317.172 171.125C314.88 170.083 312.849 168.872 311.078 167.492C309.333 166.086 307.953 164.458 306.938 162.609C305.948 160.76 305.453 158.612 305.453 156.164C305.453 153.794 305.974 151.646 307.016 149.719C308.057 147.766 309.516 146.099 311.391 144.719C313.266 143.312 315.479 142.232 318.031 141.477C320.609 140.721 323.435 140.344 326.508 140.344C330.701 140.344 334.359 141.099 337.484 142.609C340.609 144.12 343.031 146.19 344.75 148.82C346.495 151.451 347.367 154.458 347.367 157.844H335.727C335.727 156.177 335.375 154.719 334.672 153.469C333.995 152.193 332.953 151.19 331.547 150.461C330.167 149.732 328.422 149.367 326.312 149.367C324.281 149.367 322.589 149.68 321.234 150.305C319.88 150.904 318.865 151.724 318.188 152.766C317.51 153.781 317.172 154.927 317.172 156.203C317.172 157.167 317.406 158.039 317.875 158.82C318.37 159.602 319.099 160.331 320.062 161.008C321.026 161.685 322.211 162.323 323.617 162.922C325.023 163.521 326.651 164.107 328.5 164.68C331.599 165.617 334.32 166.672 336.664 167.844C339.034 169.016 341.013 170.331 342.602 171.789C344.19 173.247 345.388 174.901 346.195 176.75C347.003 178.599 347.406 180.695 347.406 183.039C347.406 185.513 346.924 187.727 345.961 189.68C344.997 191.633 343.604 193.286 341.781 194.641C339.958 195.995 337.784 197.023 335.258 197.727C332.732 198.43 329.906 198.781 326.781 198.781C323.969 198.781 321.195 198.417 318.461 197.688C315.727 196.932 313.24 195.799 311 194.289C308.786 192.779 307.016 190.852 305.688 188.508C304.359 186.164 303.695 183.391 303.695 180.188H315.453C315.453 181.958 315.727 183.456 316.273 184.68C316.82 185.904 317.589 186.893 318.578 187.648C319.594 188.404 320.792 188.951 322.172 189.289C323.578 189.628 325.115 189.797 326.781 189.797C328.812 189.797 330.479 189.51 331.781 188.938C333.109 188.365 334.086 187.57 334.711 186.555C335.362 185.539 335.688 184.393 335.688 183.117ZM374.125 198.781C370.844 198.781 367.901 198.26 365.297 197.219C362.693 196.151 360.479 194.68 358.656 192.805C356.859 190.93 355.479 188.755 354.516 186.281C353.552 183.781 353.07 181.125 353.07 178.312V176.75C353.07 173.547 353.526 170.617 354.438 167.961C355.349 165.305 356.651 163 358.344 161.047C360.062 159.094 362.146 157.596 364.594 156.555C367.042 155.487 369.802 154.953 372.875 154.953C375.87 154.953 378.526 155.448 380.844 156.438C383.161 157.427 385.102 158.833 386.664 160.656C388.253 162.479 389.451 164.667 390.258 167.219C391.065 169.745 391.469 172.557 391.469 175.656V180.344H357.875V172.844H380.414V171.984C380.414 170.422 380.128 169.029 379.555 167.805C379.008 166.555 378.174 165.565 377.055 164.836C375.935 164.107 374.503 163.742 372.758 163.742C371.273 163.742 369.997 164.068 368.93 164.719C367.862 165.37 366.99 166.281 366.312 167.453C365.661 168.625 365.167 170.005 364.828 171.594C364.516 173.156 364.359 174.875 364.359 176.75V178.312C364.359 180.005 364.594 181.568 365.062 183C365.557 184.432 366.247 185.669 367.133 186.711C368.044 187.753 369.138 188.56 370.414 189.133C371.716 189.706 373.188 189.992 374.828 189.992C376.859 189.992 378.747 189.602 380.492 188.82C382.263 188.013 383.786 186.802 385.062 185.188L390.531 191.125C389.646 192.401 388.435 193.625 386.898 194.797C385.388 195.969 383.565 196.932 381.43 197.688C379.294 198.417 376.859 198.781 374.125 198.781ZM409.125 164.953V198H397.875V155.734H408.461L409.125 164.953ZM421.859 155.461L421.664 165.891C421.117 165.812 420.453 165.747 419.672 165.695C418.917 165.617 418.227 165.578 417.602 165.578C416.013 165.578 414.633 165.786 413.461 166.203C412.315 166.594 411.352 167.18 410.57 167.961C409.815 168.742 409.242 169.693 408.852 170.812C408.487 171.932 408.279 173.208 408.227 174.641L405.961 173.938C405.961 171.203 406.234 168.69 406.781 166.398C407.328 164.081 408.122 162.062 409.164 160.344C410.232 158.625 411.534 157.297 413.07 156.359C414.607 155.422 416.365 154.953 418.344 154.953C418.969 154.953 419.607 155.005 420.258 155.109C420.909 155.188 421.443 155.305 421.859 155.461ZM442.25 189.797L451.625 155.734H463.383L449.125 198H442.016L442.25 189.797ZM435.805 155.734L445.219 189.836L445.414 198H438.266L424.008 155.734H435.805ZM487.328 198.781C484.047 198.781 481.104 198.26 478.5 197.219C475.896 196.151 473.682 194.68 471.859 192.805C470.062 190.93 468.682 188.755 467.719 186.281C466.755 183.781 466.273 181.125 466.273 178.312V176.75C466.273 173.547 466.729 170.617 467.641 167.961C468.552 165.305 469.854 163 471.547 161.047C473.266 159.094 475.349 157.596 477.797 156.555C480.245 155.487 483.005 154.953 486.078 154.953C489.073 154.953 491.729 155.448 494.047 156.438C496.365 157.427 498.305 158.833 499.867 160.656C501.456 162.479 502.654 164.667 503.461 167.219C504.268 169.745 504.672 172.557 504.672 175.656V180.344H471.078V172.844H493.617V171.984C493.617 170.422 493.331 169.029 492.758 167.805C492.211 166.555 491.378 165.565 490.258 164.836C489.138 164.107 487.706 163.742 485.961 163.742C484.477 163.742 483.201 164.068 482.133 164.719C481.065 165.37 480.193 166.281 479.516 167.453C478.865 168.625 478.37 170.005 478.031 171.594C477.719 173.156 477.562 174.875 477.562 176.75V178.312C477.562 180.005 477.797 181.568 478.266 183C478.76 184.432 479.451 185.669 480.336 186.711C481.247 187.753 482.341 188.56 483.617 189.133C484.919 189.706 486.391 189.992 488.031 189.992C490.062 189.992 491.951 189.602 493.695 188.82C495.466 188.013 496.99 186.802 498.266 185.188L503.734 191.125C502.849 192.401 501.638 193.625 500.102 194.797C498.591 195.969 496.768 196.932 494.633 197.688C492.497 198.417 490.062 198.781 487.328 198.781ZM522.328 164.953V198H511.078V155.734H521.664L522.328 164.953ZM535.062 155.461L534.867 165.891C534.32 165.812 533.656 165.747 532.875 165.695C532.12 165.617 531.43 165.578 530.805 165.578C529.216 165.578 527.836 165.786 526.664 166.203C525.518 166.594 524.555 167.18 523.773 167.961C523.018 168.742 522.445 169.693 522.055 170.812C521.69 171.932 521.482 173.208 521.43 174.641L519.164 173.938C519.164 171.203 519.438 168.69 519.984 166.398C520.531 164.081 521.326 162.062 522.367 160.344C523.435 158.625 524.737 157.297 526.273 156.359C527.81 155.422 529.568 154.953 531.547 154.953C532.172 154.953 532.81 155.005 533.461 155.109C534.112 155.188 534.646 155.305 535.062 155.461Z" fill="white"/>
<path d="M137.562 582.148L149.75 566.758L156.156 574.141L143.969 589.297L137.562 582.148ZM116.234 566.367L118.93 566.367C123.253 566.367 127.133 566.953 130.57 568.125C134.008 569.271 136.937 570.924 139.359 573.086C141.755 575.247 143.591 577.799 144.867 580.742C146.143 583.685 146.781 586.953 146.781 590.547C146.781 594.115 146.143 597.383 144.867 600.352C143.591 603.32 141.755 605.885 139.359 608.047C136.937 610.208 134.008 611.888 130.57 613.086C127.133 614.258 123.253 614.844 118.93 614.844L116.234 614.844C111.885 614.844 108.005 614.258 104.594 613.086C101.156 611.888 98.2266 610.221 95.8047 608.086C93.3828 605.951 91.5338 603.398 90.2578 600.43C88.9818 597.461 88.3437 594.193 88.3437 590.625C88.3437 587.031 88.9818 583.763 90.2578 580.82C91.5338 577.852 93.3828 575.286 95.8047 573.125C98.2266 570.964 101.156 569.297 104.594 568.125C108.005 566.953 111.885 566.367 116.234 566.367ZM118.93 578.203L116.156 578.203C113.135 578.203 110.479 578.49 108.187 579.062C105.896 579.609 103.969 580.417 102.406 581.484C100.844 582.526 99.6719 583.815 98.8906 585.352C98.0833 586.888 97.6797 588.646 97.6797 590.625C97.6797 592.604 98.0833 594.362 98.8906 595.898C99.6719 597.435 100.844 598.724 102.406 599.766C103.969 600.807 105.896 601.602 108.187 602.148C110.479 602.695 113.135 602.969 116.156 602.969L118.93 602.969C121.924 602.969 124.581 602.695 126.898 602.148C129.19 601.602 131.13 600.807 132.719 599.766C134.281 598.698 135.466 597.396 136.273 595.859C137.081 594.297 137.484 592.526 137.484 590.547C137.484 588.568 137.081 586.823 136.273 585.312C135.466 583.776 134.281 582.487 132.719 581.445C131.13 580.378 129.19 579.57 126.898 579.023C124.581 578.477 121.924 578.203 118.93 578.203ZM135.883 533.594L103.734 533.594L103.734 522.344L146 522.344L146 532.93L135.883 533.594ZM127.211 532.344L127.133 529.023C129.945 529.023 132.562 529.349 134.984 530C137.38 530.651 139.464 531.628 141.234 532.93C142.979 534.232 144.346 535.872 145.336 537.852C146.299 539.831 146.781 542.161 146.781 544.844C146.781 546.901 146.495 548.802 145.922 550.547C145.323 552.266 144.398 553.75 143.148 555C141.872 556.224 140.245 557.187 138.266 557.891C136.26 558.568 133.852 558.906 131.039 558.906L103.734 558.906L103.734 547.656L131.117 547.656C132.367 547.656 133.422 547.513 134.281 547.227C135.141 546.914 135.844 546.484 136.391 545.937C136.937 545.391 137.328 544.753 137.562 544.023C137.797 543.268 137.914 542.435 137.914 541.523C137.914 539.206 137.445 537.383 136.508 536.055C135.57 534.701 134.294 533.75 132.68 533.203C131.039 532.63 129.216 532.344 127.211 532.344ZM146.781 494.297C146.781 497.578 146.26 500.521 145.219 503.125C144.151 505.729 142.68 507.943 140.805 509.766C138.93 511.562 136.755 512.943 134.281 513.906C131.781 514.87 129.125 515.352 126.312 515.352L124.75 515.352C121.547 515.352 118.617 514.896 115.961 513.984C113.305 513.073 111 511.771 109.047 510.078C107.094 508.359 105.596 506.276 104.555 503.828C103.487 501.38 102.953 498.62 102.953 495.547C102.953 492.552 103.448 489.896 104.437 487.578C105.427 485.26 106.833 483.32 108.656 481.758C110.479 480.169 112.667 478.971 115.219 478.164C117.745 477.357 120.557 476.953 123.656 476.953L128.344 476.953L128.344 510.547L120.844 510.547L120.844 488.008L119.984 488.008C118.422 488.008 117.029 488.294 115.805 488.867C114.555 489.414 113.565 490.247 112.836 491.367C112.107 492.487 111.742 493.919 111.742 495.664C111.742 497.148 112.068 498.424 112.719 499.492C113.37 500.56 114.281 501.432 115.453 502.109C116.625 502.76 118.005 503.255 119.594 503.594C121.156 503.906 122.875 504.062 124.75 504.062L126.312 504.062C128.005 504.062 129.568 503.828 131 503.359C132.432 502.865 133.669 502.174 134.711 501.289C135.753 500.378 136.56 499.284 137.133 498.008C137.706 496.706 137.992 495.234 137.992 493.594C137.992 491.562 137.602 489.674 136.82 487.93C136.013 486.159 134.802 484.635 133.187 483.359L139.125 477.891C140.401 478.776 141.625 479.987 142.797 481.523C143.969 483.034 144.932 484.857 145.687 486.992C146.417 489.128 146.781 491.562 146.781 494.297ZM135.883 445.547L103.734 445.547L103.734 434.297L146 434.297L146 444.883L135.883 445.547ZM127.211 444.297L127.133 440.977C129.945 440.977 132.562 441.302 134.984 441.953C137.38 442.604 139.464 443.581 141.234 444.883C142.979 446.185 144.346 447.826 145.336 449.805C146.299 451.784 146.781 454.115 146.781 456.797C146.781 458.854 146.495 460.755 145.922 462.5C145.323 464.219 144.398 465.703 143.148 466.953C141.872 468.177 140.245 469.141 138.266 469.844C136.26 470.521 133.852 470.859 131.039 470.859L103.734 470.859L103.734 459.609L131.117 459.609C132.367 459.609 133.422 459.466 134.281 459.18C135.141 458.867 135.844 458.437 136.391 457.891C136.937 457.344 137.328 456.706 137.562 455.977C137.797 455.221 137.914 454.388 137.914 453.477C137.914 451.159 137.445 449.336 136.508 448.008C135.57 446.654 134.294 445.703 132.68 445.156C131.039 444.583 129.216 444.297 127.211 444.297ZM146.781 406.25C146.781 409.531 146.26 412.474 145.219 415.078C144.151 417.682 142.68 419.896 140.805 421.719C138.93 423.516 136.755 424.896 134.281 425.859C131.781 426.823 129.125 427.305 126.312 427.305L124.75 427.305C121.547 427.305 118.617 426.849 115.961 425.937C113.305 425.026 111 423.724 109.047 422.031C107.094 420.312 105.596 418.229 104.555 415.781C103.487 413.333 102.953 410.573 102.953 407.5C102.953 404.505 103.448 401.849 104.437 399.531C105.427 397.214 106.833 395.273 108.656 393.711C110.479 392.122 112.667 390.924 115.219 390.117C117.745 389.31 120.557 388.906 123.656 388.906L128.344 388.906L128.344 422.5L120.844 422.5L120.844 399.961L119.984 399.961C118.422 399.961 117.029 400.247 115.805 400.82C114.555 401.367 113.565 402.201 112.836 403.32C112.107 404.44 111.742 405.872 111.742 407.617C111.742 409.102 112.068 410.378 112.719 411.445C113.37 412.513 114.281 413.385 115.453 414.062C116.625 414.714 118.005 415.208 119.594 415.547C121.156 415.859 122.875 416.016 124.75 416.016L126.312 416.016C128.005 416.016 129.568 415.781 131 415.312C132.432 414.818 133.669 414.128 134.711 413.242C135.753 412.331 136.56 411.237 137.133 409.961C137.706 408.659 137.992 407.187 137.992 405.547C137.992 403.516 137.602 401.628 136.82 399.883C136.013 398.112 134.802 396.589 133.187 395.312L139.125 389.844C140.401 390.729 141.625 391.94 142.797 393.477C143.969 394.987 144.932 396.81 145.687 398.945C146.417 401.081 146.781 403.516 146.781 406.25Z" fill="white"/>
<path d="M385.602 409H373.219L373.297 399.859H385.602C388.674 399.859 391.266 399.169 393.375 397.789C395.484 396.383 397.073 394.339 398.141 391.656C399.234 388.974 399.781 385.732 399.781 381.93V379.156C399.781 376.24 399.469 373.674 398.844 371.461C398.245 369.247 397.346 367.385 396.148 365.875C394.951 364.365 393.479 363.232 391.734 362.477C389.99 361.695 387.984 361.305 385.719 361.305H372.984V352.125H385.719C389.521 352.125 392.997 352.776 396.148 354.078C399.326 355.354 402.073 357.19 404.391 359.586C406.708 361.982 408.492 364.846 409.742 368.18C411.018 371.487 411.656 375.172 411.656 379.234V381.93C411.656 385.966 411.018 389.651 409.742 392.984C408.492 396.318 406.708 399.182 404.391 401.578C402.099 403.948 399.352 405.784 396.148 407.086C392.971 408.362 389.456 409 385.602 409ZM379.859 352.125V409H368.141V352.125H379.859ZM442.281 399.469V380.641C442.281 379.286 442.06 378.128 441.617 377.164C441.174 376.174 440.484 375.406 439.547 374.859C438.635 374.312 437.451 374.039 435.992 374.039C434.742 374.039 433.661 374.26 432.75 374.703C431.839 375.12 431.135 375.732 430.641 376.539C430.146 377.32 429.898 378.245 429.898 379.312H418.648C418.648 377.516 419.065 375.81 419.898 374.195C420.732 372.581 421.943 371.161 423.531 369.938C425.12 368.688 427.008 367.711 429.195 367.008C431.409 366.305 433.883 365.953 436.617 365.953C439.898 365.953 442.815 366.5 445.367 367.594C447.919 368.688 449.924 370.328 451.383 372.516C452.867 374.703 453.609 377.438 453.609 380.719V398.805C453.609 401.122 453.753 403.023 454.039 404.508C454.326 405.966 454.742 407.242 455.289 408.336V409H443.922C443.375 407.854 442.958 406.422 442.672 404.703C442.411 402.958 442.281 401.214 442.281 399.469ZM443.766 383.258L443.844 389.625H437.555C436.07 389.625 434.781 389.794 433.688 390.133C432.594 390.471 431.695 390.953 430.992 391.578C430.289 392.177 429.768 392.88 429.43 393.688C429.117 394.495 428.961 395.38 428.961 396.344C428.961 397.307 429.182 398.18 429.625 398.961C430.068 399.716 430.706 400.315 431.539 400.758C432.372 401.174 433.349 401.383 434.469 401.383C436.161 401.383 437.633 401.044 438.883 400.367C440.133 399.69 441.096 398.857 441.773 397.867C442.477 396.878 442.841 395.94 442.867 395.055L445.836 399.82C445.419 400.888 444.846 401.995 444.117 403.141C443.414 404.286 442.516 405.367 441.422 406.383C440.328 407.372 439.013 408.193 437.477 408.844C435.94 409.469 434.117 409.781 432.008 409.781C429.326 409.781 426.891 409.247 424.703 408.18C422.542 407.086 420.823 405.589 419.547 403.688C418.297 401.76 417.672 399.573 417.672 397.125C417.672 394.911 418.089 392.945 418.922 391.227C419.755 389.508 420.979 388.062 422.594 386.891C424.234 385.693 426.279 384.794 428.727 384.195C431.174 383.57 434.013 383.258 437.242 383.258H443.766ZM482.984 366.734V374.703H458.375V366.734H482.984ZM464.469 356.305H475.719V396.266C475.719 397.49 475.875 398.427 476.188 399.078C476.526 399.729 477.021 400.185 477.672 400.445C478.323 400.68 479.143 400.797 480.133 400.797C480.836 400.797 481.461 400.771 482.008 400.719C482.581 400.641 483.062 400.562 483.453 400.484L483.492 408.766C482.529 409.078 481.487 409.326 480.367 409.508C479.247 409.69 478.01 409.781 476.656 409.781C474.182 409.781 472.021 409.378 470.172 408.57C468.349 407.737 466.943 406.409 465.953 404.586C464.964 402.763 464.469 400.367 464.469 397.398V356.305ZM512.203 399.469V380.641C512.203 379.286 511.982 378.128 511.539 377.164C511.096 376.174 510.406 375.406 509.469 374.859C508.557 374.312 507.372 374.039 505.914 374.039C504.664 374.039 503.583 374.26 502.672 374.703C501.76 375.12 501.057 375.732 500.562 376.539C500.068 377.32 499.82 378.245 499.82 379.312H488.57C488.57 377.516 488.987 375.81 489.82 374.195C490.654 372.581 491.865 371.161 493.453 369.938C495.042 368.688 496.93 367.711 499.117 367.008C501.331 366.305 503.805 365.953 506.539 365.953C509.82 365.953 512.737 366.5 515.289 367.594C517.841 368.688 519.846 370.328 521.305 372.516C522.789 374.703 523.531 377.438 523.531 380.719V398.805C523.531 401.122 523.674 403.023 523.961 404.508C524.247 405.966 524.664 407.242 525.211 408.336V409H513.844C513.297 407.854 512.88 406.422 512.594 404.703C512.333 402.958 512.203 401.214 512.203 399.469ZM513.688 383.258L513.766 389.625H507.477C505.992 389.625 504.703 389.794 503.609 390.133C502.516 390.471 501.617 390.953 500.914 391.578C500.211 392.177 499.69 392.88 499.352 393.688C499.039 394.495 498.883 395.38 498.883 396.344C498.883 397.307 499.104 398.18 499.547 398.961C499.99 399.716 500.628 400.315 501.461 400.758C502.294 401.174 503.271 401.383 504.391 401.383C506.083 401.383 507.555 401.044 508.805 400.367C510.055 399.69 511.018 398.857 511.695 397.867C512.398 396.878 512.763 395.94 512.789 395.055L515.758 399.82C515.341 400.888 514.768 401.995 514.039 403.141C513.336 404.286 512.438 405.367 511.344 406.383C510.25 407.372 508.935 408.193 507.398 408.844C505.862 409.469 504.039 409.781 501.93 409.781C499.247 409.781 496.812 409.247 494.625 408.18C492.464 407.086 490.745 405.589 489.469 403.688C488.219 401.76 487.594 399.573 487.594 397.125C487.594 394.911 488.01 392.945 488.844 391.227C489.677 389.508 490.901 388.062 492.516 386.891C494.156 385.693 496.201 384.794 498.648 384.195C501.096 383.57 503.935 383.258 507.164 383.258H513.688ZM532.203 349H543.453V399.312L542.32 409H532.203V349ZM570.211 387.438V388.258C570.211 391.409 569.872 394.299 569.195 396.93C568.544 399.56 567.529 401.839 566.148 403.766C564.768 405.667 563.049 407.151 560.992 408.219C558.961 409.26 556.565 409.781 553.805 409.781C551.227 409.781 548.987 409.26 547.086 408.219C545.211 407.177 543.635 405.706 542.359 403.805C541.083 401.904 540.055 399.677 539.273 397.125C538.492 394.573 537.906 391.786 537.516 388.766V386.969C537.906 383.948 538.492 381.161 539.273 378.609C540.055 376.057 541.083 373.831 542.359 371.93C543.635 370.029 545.211 368.557 547.086 367.516C548.961 366.474 551.174 365.953 553.727 365.953C556.513 365.953 558.935 366.487 560.992 367.555C563.076 368.596 564.794 370.081 566.148 372.008C567.529 373.909 568.544 376.174 569.195 378.805C569.872 381.409 570.211 384.286 570.211 387.438ZM558.961 388.258V387.438C558.961 385.719 558.831 384.104 558.57 382.594C558.336 381.057 557.919 379.716 557.32 378.57C556.721 377.398 555.901 376.474 554.859 375.797C553.844 375.12 552.529 374.781 550.914 374.781C549.378 374.781 548.076 375.042 547.008 375.562C545.94 376.083 545.055 376.812 544.352 377.75C543.674 378.688 543.167 379.807 542.828 381.109C542.49 382.385 542.281 383.792 542.203 385.328V390.445C542.281 392.503 542.62 394.326 543.219 395.914C543.844 397.477 544.781 398.714 546.031 399.625C547.307 400.51 548.961 400.953 550.992 400.953C552.581 400.953 553.896 400.641 554.938 400.016C555.979 399.391 556.786 398.505 557.359 397.359C557.958 396.214 558.375 394.872 558.609 393.336C558.844 391.773 558.961 390.081 558.961 388.258ZM600.016 399.469V380.641C600.016 379.286 599.794 378.128 599.352 377.164C598.909 376.174 598.219 375.406 597.281 374.859C596.37 374.312 595.185 374.039 593.727 374.039C592.477 374.039 591.396 374.26 590.484 374.703C589.573 375.12 588.87 375.732 588.375 376.539C587.88 377.32 587.633 378.245 587.633 379.312H576.383C576.383 377.516 576.799 375.81 577.633 374.195C578.466 372.581 579.677 371.161 581.266 369.938C582.854 368.688 584.742 367.711 586.93 367.008C589.143 366.305 591.617 365.953 594.352 365.953C597.633 365.953 600.549 366.5 603.102 367.594C605.654 368.688 607.659 370.328 609.117 372.516C610.602 374.703 611.344 377.438 611.344 380.719V398.805C611.344 401.122 611.487 403.023 611.773 404.508C612.06 405.966 612.477 407.242 613.023 408.336V409H601.656C601.109 407.854 600.693 406.422 600.406 404.703C600.146 402.958 600.016 401.214 600.016 399.469ZM601.5 383.258L601.578 389.625H595.289C593.805 389.625 592.516 389.794 591.422 390.133C590.328 390.471 589.43 390.953 588.727 391.578C588.023 392.177 587.503 392.88 587.164 393.688C586.852 394.495 586.695 395.38 586.695 396.344C586.695 397.307 586.917 398.18 587.359 398.961C587.802 399.716 588.44 400.315 589.273 400.758C590.107 401.174 591.083 401.383 592.203 401.383C593.896 401.383 595.367 401.044 596.617 400.367C597.867 399.69 598.831 398.857 599.508 397.867C600.211 396.878 600.576 395.94 600.602 395.055L603.57 399.82C603.154 400.888 602.581 401.995 601.852 403.141C601.148 404.286 600.25 405.367 599.156 406.383C598.062 407.372 596.747 408.193 595.211 408.844C593.674 409.469 591.852 409.781 589.742 409.781C587.06 409.781 584.625 409.247 582.438 408.18C580.276 407.086 578.557 405.589 577.281 403.688C576.031 401.76 575.406 399.573 575.406 397.125C575.406 394.911 575.823 392.945 576.656 391.227C577.49 389.508 578.714 388.062 580.328 386.891C581.969 385.693 584.013 384.794 586.461 384.195C588.909 383.57 591.747 383.258 594.977 383.258H601.5ZM642.867 397.32C642.867 396.513 642.633 395.784 642.164 395.133C641.695 394.482 640.823 393.883 639.547 393.336C638.297 392.763 636.487 392.242 634.117 391.773C631.982 391.305 629.99 390.719 628.141 390.016C626.318 389.286 624.729 388.414 623.375 387.398C622.047 386.383 621.005 385.185 620.25 383.805C619.495 382.398 619.117 380.797 619.117 379C619.117 377.229 619.495 375.562 620.25 374C621.031 372.438 622.138 371.057 623.57 369.859C625.029 368.635 626.799 367.685 628.883 367.008C630.992 366.305 633.362 365.953 635.992 365.953C639.664 365.953 642.815 366.539 645.445 367.711C648.102 368.883 650.133 370.497 651.539 372.555C652.971 374.586 653.688 376.904 653.688 379.508H642.438C642.438 378.414 642.203 377.438 641.734 376.578C641.292 375.693 640.589 375.003 639.625 374.508C638.688 373.987 637.464 373.727 635.953 373.727C634.703 373.727 633.622 373.948 632.711 374.391C631.799 374.807 631.096 375.38 630.602 376.109C630.133 376.812 629.898 377.594 629.898 378.453C629.898 379.104 630.029 379.69 630.289 380.211C630.576 380.706 631.031 381.161 631.656 381.578C632.281 381.995 633.089 382.385 634.078 382.75C635.094 383.089 636.344 383.401 637.828 383.688C640.875 384.312 643.596 385.133 645.992 386.148C648.388 387.138 650.289 388.492 651.695 390.211C653.102 391.904 653.805 394.13 653.805 396.891C653.805 398.766 653.388 400.484 652.555 402.047C651.721 403.609 650.523 404.977 648.961 406.148C647.398 407.294 645.523 408.193 643.336 408.844C641.174 409.469 638.74 409.781 636.031 409.781C632.099 409.781 628.766 409.078 626.031 407.672C623.323 406.266 621.266 404.482 619.859 402.32C618.479 400.133 617.789 397.893 617.789 395.602H628.453C628.505 397.138 628.896 398.375 629.625 399.312C630.38 400.25 631.331 400.927 632.477 401.344C633.648 401.76 634.911 401.969 636.266 401.969C637.724 401.969 638.935 401.773 639.898 401.383C640.862 400.966 641.591 400.419 642.086 399.742C642.607 399.039 642.867 398.232 642.867 397.32ZM680.562 409.781C677.281 409.781 674.339 409.26 671.734 408.219C669.13 407.151 666.917 405.68 665.094 403.805C663.297 401.93 661.917 399.755 660.953 397.281C659.99 394.781 659.508 392.125 659.508 389.312V387.75C659.508 384.547 659.964 381.617 660.875 378.961C661.786 376.305 663.089 374 664.781 372.047C666.5 370.094 668.583 368.596 671.031 367.555C673.479 366.487 676.24 365.953 679.312 365.953C682.307 365.953 684.964 366.448 687.281 367.438C689.599 368.427 691.539 369.833 693.102 371.656C694.69 373.479 695.888 375.667 696.695 378.219C697.503 380.745 697.906 383.557 697.906 386.656V391.344H664.312V383.844H686.852V382.984C686.852 381.422 686.565 380.029 685.992 378.805C685.445 377.555 684.612 376.565 683.492 375.836C682.372 375.107 680.94 374.742 679.195 374.742C677.711 374.742 676.435 375.068 675.367 375.719C674.299 376.37 673.427 377.281 672.75 378.453C672.099 379.625 671.604 381.005 671.266 382.594C670.953 384.156 670.797 385.875 670.797 387.75V389.312C670.797 391.005 671.031 392.568 671.5 394C671.995 395.432 672.685 396.669 673.57 397.711C674.482 398.753 675.576 399.56 676.852 400.133C678.154 400.706 679.625 400.992 681.266 400.992C683.297 400.992 685.185 400.602 686.93 399.82C688.701 399.013 690.224 397.802 691.5 396.188L696.969 402.125C696.083 403.401 694.872 404.625 693.336 405.797C691.826 406.969 690.003 407.932 687.867 408.688C685.732 409.417 683.297 409.781 680.562 409.781Z" fill="white"/>
<path d="M373.523 618.727H359.031V609.586H373.523C375.763 609.586 377.586 609.221 378.992 608.492C380.398 607.737 381.427 606.695 382.078 605.367C382.729 604.039 383.055 602.542 383.055 600.875C383.055 599.182 382.729 597.607 382.078 596.148C381.427 594.69 380.398 593.518 378.992 592.633C377.586 591.747 375.763 591.305 373.523 591.305H363.094V639H351.375V582.125H373.523C377.977 582.125 381.792 582.932 384.969 584.547C388.172 586.135 390.62 588.336 392.312 591.148C394.005 593.961 394.852 597.177 394.852 600.797C394.852 604.469 394.005 607.646 392.312 610.328C390.62 613.01 388.172 615.081 384.969 616.539C381.792 617.997 377.977 618.727 373.523 618.727ZM413.484 605.953V639H402.234V596.734H412.82L413.484 605.953ZM426.219 596.461L426.023 606.891C425.477 606.812 424.812 606.747 424.031 606.695C423.276 606.617 422.586 606.578 421.961 606.578C420.372 606.578 418.992 606.786 417.82 607.203C416.674 607.594 415.711 608.18 414.93 608.961C414.174 609.742 413.602 610.693 413.211 611.812C412.846 612.932 412.638 614.208 412.586 615.641L410.32 614.938C410.32 612.203 410.594 609.69 411.141 607.398C411.688 605.081 412.482 603.062 413.523 601.344C414.591 599.625 415.893 598.297 417.43 597.359C418.966 596.422 420.724 595.953 422.703 595.953C423.328 595.953 423.966 596.005 424.617 596.109C425.268 596.188 425.802 596.305 426.219 596.461ZM428.562 618.297V617.477C428.562 614.378 429.005 611.526 429.891 608.922C430.776 606.292 432.065 604.013 433.758 602.086C435.451 600.159 437.534 598.661 440.008 597.594C442.482 596.5 445.32 595.953 448.523 595.953C451.727 595.953 454.578 596.5 457.078 597.594C459.578 598.661 461.674 600.159 463.367 602.086C465.086 604.013 466.388 606.292 467.273 608.922C468.159 611.526 468.602 614.378 468.602 617.477V618.297C468.602 621.37 468.159 624.221 467.273 626.852C466.388 629.456 465.086 631.734 463.367 633.688C461.674 635.615 459.591 637.112 457.117 638.18C454.643 639.247 451.805 639.781 448.602 639.781C445.398 639.781 442.547 639.247 440.047 638.18C437.573 637.112 435.477 635.615 433.758 633.688C432.065 631.734 430.776 629.456 429.891 626.852C429.005 624.221 428.562 621.37 428.562 618.297ZM439.812 617.477V618.297C439.812 620.068 439.969 621.721 440.281 623.258C440.594 624.794 441.089 626.148 441.766 627.32C442.469 628.466 443.38 629.365 444.5 630.016C445.62 630.667 446.987 630.992 448.602 630.992C450.164 630.992 451.505 630.667 452.625 630.016C453.745 629.365 454.643 628.466 455.32 627.32C455.997 626.148 456.492 624.794 456.805 623.258C457.143 621.721 457.312 620.068 457.312 618.297V617.477C457.312 615.758 457.143 614.143 456.805 612.633C456.492 611.096 455.984 609.742 455.281 608.57C454.604 607.372 453.706 606.435 452.586 605.758C451.466 605.081 450.112 604.742 448.523 604.742C446.935 604.742 445.581 605.081 444.461 605.758C443.367 606.435 442.469 607.372 441.766 608.57C441.089 609.742 440.594 611.096 440.281 612.633C439.969 614.143 439.812 615.758 439.812 617.477ZM492.977 630.992C494.357 630.992 495.581 630.732 496.648 630.211C497.716 629.664 498.549 628.909 499.148 627.945C499.773 626.956 500.099 625.797 500.125 624.469H510.711C510.685 627.438 509.891 630.081 508.328 632.398C506.766 634.69 504.669 636.5 502.039 637.828C499.409 639.13 496.466 639.781 493.211 639.781C489.93 639.781 487.065 639.234 484.617 638.141C482.195 637.047 480.177 635.536 478.562 633.609C476.948 631.656 475.737 629.391 474.93 626.812C474.122 624.208 473.719 621.422 473.719 618.453V617.32C473.719 614.326 474.122 611.539 474.93 608.961C475.737 606.357 476.948 604.091 478.562 602.164C480.177 600.211 482.195 598.688 484.617 597.594C487.039 596.5 489.878 595.953 493.133 595.953C496.596 595.953 499.63 596.617 502.234 597.945C504.865 599.273 506.922 601.174 508.406 603.648C509.917 606.096 510.685 609 510.711 612.359H500.125C500.099 610.953 499.799 609.677 499.227 608.531C498.68 607.385 497.872 606.474 496.805 605.797C495.763 605.094 494.474 604.742 492.938 604.742C491.297 604.742 489.956 605.094 488.914 605.797C487.872 606.474 487.065 607.411 486.492 608.609C485.919 609.781 485.516 611.122 485.281 612.633C485.073 614.117 484.969 615.68 484.969 617.32V618.453C484.969 620.094 485.073 621.669 485.281 623.18C485.49 624.69 485.88 626.031 486.453 627.203C487.052 628.375 487.872 629.299 488.914 629.977C489.956 630.654 491.31 630.992 492.977 630.992ZM536.688 639.781C533.406 639.781 530.464 639.26 527.859 638.219C525.255 637.151 523.042 635.68 521.219 633.805C519.422 631.93 518.042 629.755 517.078 627.281C516.115 624.781 515.633 622.125 515.633 619.312V617.75C515.633 614.547 516.089 611.617 517 608.961C517.911 606.305 519.214 604 520.906 602.047C522.625 600.094 524.708 598.596 527.156 597.555C529.604 596.487 532.365 595.953 535.438 595.953C538.432 595.953 541.089 596.448 543.406 597.438C545.724 598.427 547.664 599.833 549.227 601.656C550.815 603.479 552.013 605.667 552.82 608.219C553.628 610.745 554.031 613.557 554.031 616.656V621.344H520.438V613.844H542.977V612.984C542.977 611.422 542.69 610.029 542.117 608.805C541.57 607.555 540.737 606.565 539.617 605.836C538.497 605.107 537.065 604.742 535.32 604.742C533.836 604.742 532.56 605.068 531.492 605.719C530.424 606.37 529.552 607.281 528.875 608.453C528.224 609.625 527.729 611.005 527.391 612.594C527.078 614.156 526.922 615.875 526.922 617.75V619.312C526.922 621.005 527.156 622.568 527.625 624C528.12 625.432 528.81 626.669 529.695 627.711C530.607 628.753 531.701 629.56 532.977 630.133C534.279 630.706 535.75 630.992 537.391 630.992C539.422 630.992 541.31 630.602 543.055 629.82C544.826 629.013 546.349 627.802 547.625 626.188L553.094 632.125C552.208 633.401 550.997 634.625 549.461 635.797C547.951 636.969 546.128 637.932 543.992 638.688C541.857 639.417 539.422 639.781 536.688 639.781ZM583.289 627.32C583.289 626.513 583.055 625.784 582.586 625.133C582.117 624.482 581.245 623.883 579.969 623.336C578.719 622.763 576.909 622.242 574.539 621.773C572.404 621.305 570.411 620.719 568.562 620.016C566.74 619.286 565.151 618.414 563.797 617.398C562.469 616.383 561.427 615.185 560.672 613.805C559.917 612.398 559.539 610.797 559.539 609C559.539 607.229 559.917 605.562 560.672 604C561.453 602.438 562.56 601.057 563.992 599.859C565.451 598.635 567.221 597.685 569.305 597.008C571.414 596.305 573.784 595.953 576.414 595.953C580.086 595.953 583.237 596.539 585.867 597.711C588.523 598.883 590.555 600.497 591.961 602.555C593.393 604.586 594.109 606.904 594.109 609.508H582.859C582.859 608.414 582.625 607.438 582.156 606.578C581.714 605.693 581.01 605.003 580.047 604.508C579.109 603.987 577.885 603.727 576.375 603.727C575.125 603.727 574.044 603.948 573.133 604.391C572.221 604.807 571.518 605.38 571.023 606.109C570.555 606.812 570.32 607.594 570.32 608.453C570.32 609.104 570.451 609.69 570.711 610.211C570.997 610.706 571.453 611.161 572.078 611.578C572.703 611.995 573.51 612.385 574.5 612.75C575.516 613.089 576.766 613.401 578.25 613.688C581.297 614.312 584.018 615.133 586.414 616.148C588.81 617.138 590.711 618.492 592.117 620.211C593.523 621.904 594.227 624.13 594.227 626.891C594.227 628.766 593.81 630.484 592.977 632.047C592.143 633.609 590.945 634.977 589.383 636.148C587.82 637.294 585.945 638.193 583.758 638.844C581.596 639.469 579.161 639.781 576.453 639.781C572.521 639.781 569.188 639.078 566.453 637.672C563.745 636.266 561.688 634.482 560.281 632.32C558.901 630.133 558.211 627.893 558.211 625.602H568.875C568.927 627.138 569.318 628.375 570.047 629.312C570.802 630.25 571.753 630.927 572.898 631.344C574.07 631.76 575.333 631.969 576.688 631.969C578.146 631.969 579.357 631.773 580.32 631.383C581.284 630.966 582.013 630.419 582.508 629.742C583.029 629.039 583.289 628.232 583.289 627.32ZM624.383 627.32C624.383 626.513 624.148 625.784 623.68 625.133C623.211 624.482 622.339 623.883 621.062 623.336C619.812 622.763 618.003 622.242 615.633 621.773C613.497 621.305 611.505 620.719 609.656 620.016C607.833 619.286 606.245 618.414 604.891 617.398C603.562 616.383 602.521 615.185 601.766 613.805C601.01 612.398 600.633 610.797 600.633 609C600.633 607.229 601.01 605.562 601.766 604C602.547 602.438 603.654 601.057 605.086 599.859C606.544 598.635 608.315 597.685 610.398 597.008C612.508 596.305 614.878 595.953 617.508 595.953C621.18 595.953 624.331 596.539 626.961 597.711C629.617 598.883 631.648 600.497 633.055 602.555C634.487 604.586 635.203 606.904 635.203 609.508H623.953C623.953 608.414 623.719 607.438 623.25 606.578C622.807 605.693 622.104 605.003 621.141 604.508C620.203 603.987 618.979 603.727 617.469 603.727C616.219 603.727 615.138 603.948 614.227 604.391C613.315 604.807 612.612 605.38 612.117 606.109C611.648 606.812 611.414 607.594 611.414 608.453C611.414 609.104 611.544 609.69 611.805 610.211C612.091 610.706 612.547 611.161 613.172 611.578C613.797 611.995 614.604 612.385 615.594 612.75C616.609 613.089 617.859 613.401 619.344 613.688C622.391 614.312 625.112 615.133 627.508 616.148C629.904 617.138 631.805 618.492 633.211 620.211C634.617 621.904 635.32 624.13 635.32 626.891C635.32 628.766 634.904 630.484 634.07 632.047C633.237 633.609 632.039 634.977 630.477 636.148C628.914 637.294 627.039 638.193 624.852 638.844C622.69 639.469 620.255 639.781 617.547 639.781C613.615 639.781 610.281 639.078 607.547 637.672C604.839 636.266 602.781 634.482 601.375 632.32C599.995 630.133 599.305 627.893 599.305 625.602H609.969C610.021 627.138 610.411 628.375 611.141 629.312C611.896 630.25 612.846 630.927 613.992 631.344C615.164 631.76 616.427 631.969 617.781 631.969C619.24 631.969 620.451 631.773 621.414 631.383C622.378 630.966 623.107 630.419 623.602 629.742C624.122 629.039 624.383 628.232 624.383 627.32ZM640.828 618.297V617.477C640.828 614.378 641.271 611.526 642.156 608.922C643.042 606.292 644.331 604.013 646.023 602.086C647.716 600.159 649.799 598.661 652.273 597.594C654.747 596.5 657.586 595.953 660.789 595.953C663.992 595.953 666.844 596.5 669.344 597.594C671.844 598.661 673.94 600.159 675.633 602.086C677.352 604.013 678.654 606.292 679.539 608.922C680.424 611.526 680.867 614.378 680.867 617.477V618.297C680.867 621.37 680.424 624.221 679.539 626.852C678.654 629.456 677.352 631.734 675.633 633.688C673.94 635.615 671.857 637.112 669.383 638.18C666.909 639.247 664.07 639.781 660.867 639.781C657.664 639.781 654.812 639.247 652.312 638.18C649.839 637.112 647.742 635.615 646.023 633.688C644.331 631.734 643.042 629.456 642.156 626.852C641.271 624.221 640.828 621.37 640.828 618.297ZM652.078 617.477V618.297C652.078 620.068 652.234 621.721 652.547 623.258C652.859 624.794 653.354 626.148 654.031 627.32C654.734 628.466 655.646 629.365 656.766 630.016C657.885 630.667 659.253 630.992 660.867 630.992C662.43 630.992 663.771 630.667 664.891 630.016C666.01 629.365 666.909 628.466 667.586 627.32C668.263 626.148 668.758 624.794 669.07 623.258C669.409 621.721 669.578 620.068 669.578 618.297V617.477C669.578 615.758 669.409 614.143 669.07 612.633C668.758 611.096 668.25 609.742 667.547 608.57C666.87 607.372 665.971 606.435 664.852 605.758C663.732 605.081 662.378 604.742 660.789 604.742C659.201 604.742 657.846 605.081 656.727 605.758C655.633 606.435 654.734 607.372 654.031 608.57C653.354 609.742 652.859 611.096 652.547 612.633C652.234 614.143 652.078 615.758 652.078 617.477ZM699.031 605.953V639H687.781V596.734H698.367L699.031 605.953ZM711.766 596.461L711.57 606.891C711.023 606.812 710.359 606.747 709.578 606.695C708.823 606.617 708.133 606.578 707.508 606.578C705.919 606.578 704.539 606.786 703.367 607.203C702.221 607.594 701.258 608.18 700.477 608.961C699.721 609.742 699.148 610.693 698.758 611.812C698.393 612.932 698.185 614.208 698.133 615.641L695.867 614.938C695.867 612.203 696.141 609.69 696.688 607.398C697.234 605.081 698.029 603.062 699.07 601.344C700.138 599.625 701.44 598.297 702.977 597.359C704.513 596.422 706.271 595.953 708.25 595.953C708.875 595.953 709.513 596.005 710.164 596.109C710.815 596.188 711.349 596.305 711.766 596.461Z" fill="white"/>
<circle cx="119" cy="170" r="39" fill="white"/>
<path d="M124.852 149.105V189H116.977V158.184L107.516 161.191V154.984L124.004 149.105H124.852Z" fill="#2FA4DA"/>
<circle cx="749" cy="561" r="39" fill="white"/>
<path d="M762.891 573.848V580H735.656V574.75L748.535 560.941C749.829 559.501 750.85 558.234 751.598 557.141C752.345 556.029 752.883 555.035 753.211 554.16C753.557 553.267 753.73 552.419 753.73 551.617C753.73 550.414 753.53 549.384 753.129 548.527C752.728 547.652 752.135 546.978 751.352 546.504C750.586 546.03 749.638 545.793 748.508 545.793C747.305 545.793 746.266 546.085 745.391 546.668C744.534 547.251 743.878 548.062 743.422 549.102C742.984 550.141 742.766 551.316 742.766 552.629H734.863C734.863 550.259 735.428 548.09 736.559 546.121C737.689 544.134 739.284 542.557 741.344 541.391C743.404 540.206 745.846 539.613 748.672 539.613C751.461 539.613 753.812 540.069 755.727 540.98C757.659 541.874 759.117 543.168 760.102 544.863C761.104 546.54 761.605 548.546 761.605 550.879C761.605 552.191 761.396 553.477 760.977 554.734C760.557 555.974 759.956 557.214 759.172 558.453C758.406 559.674 757.477 560.914 756.383 562.172C755.289 563.43 754.077 564.733 752.746 566.082L745.828 573.848H762.891Z" fill="#2FA4DA"/>
<circle cx="749" cy="340" r="39" fill="white"/>
<path d="M743.723 335.676H747.934C749.283 335.676 750.395 335.448 751.27 334.992C752.145 334.518 752.792 333.862 753.211 333.023C753.648 332.167 753.867 331.173 753.867 330.043C753.867 329.022 753.667 328.12 753.266 327.336C752.883 326.534 752.29 325.914 751.488 325.477C750.686 325.021 749.674 324.793 748.453 324.793C747.487 324.793 746.594 324.984 745.773 325.367C744.953 325.75 744.297 326.288 743.805 326.98C743.312 327.673 743.066 328.512 743.066 329.496H735.164C735.164 327.309 735.747 325.404 736.914 323.781C738.099 322.159 739.685 320.892 741.672 319.98C743.659 319.069 745.846 318.613 748.234 318.613C750.932 318.613 753.293 319.051 755.316 319.926C757.34 320.783 758.917 322.049 760.047 323.727C761.177 325.404 761.742 327.482 761.742 329.961C761.742 331.219 761.451 332.44 760.867 333.625C760.284 334.792 759.445 335.849 758.352 336.797C757.276 337.727 755.964 338.474 754.414 339.039C752.865 339.586 751.124 339.859 749.191 339.859H743.723V335.676ZM743.723 341.664V337.59H749.191C751.361 337.59 753.266 337.836 754.906 338.328C756.547 338.82 757.923 339.531 759.035 340.461C760.147 341.372 760.986 342.457 761.551 343.715C762.116 344.954 762.398 346.331 762.398 347.844C762.398 349.703 762.043 351.362 761.332 352.82C760.621 354.26 759.618 355.482 758.324 356.484C757.048 357.487 755.553 358.253 753.84 358.781C752.126 359.292 750.258 359.547 748.234 359.547C746.557 359.547 744.908 359.319 743.285 358.863C741.681 358.389 740.223 357.688 738.91 356.758C737.616 355.81 736.577 354.625 735.793 353.203C735.027 351.763 734.645 350.059 734.645 348.09H742.547C742.547 349.111 742.802 350.022 743.312 350.824C743.823 351.626 744.525 352.255 745.418 352.711C746.329 353.167 747.341 353.395 748.453 353.395C749.711 353.395 750.786 353.167 751.68 352.711C752.591 352.237 753.284 351.581 753.758 350.742C754.25 349.885 754.496 348.892 754.496 347.762C754.496 346.303 754.232 345.137 753.703 344.262C753.174 343.368 752.418 342.712 751.434 342.293C750.449 341.874 749.283 341.664 747.934 341.664H743.723Z" fill="#2FA4DA"/>
<circle cx="718" cy="170" r="39" fill="white"/>
<path d="M729.547 174.125V180.305H700.863L700.48 175.52L717.078 149.188H723.34L716.559 160.535L708.301 174.125H729.547ZM725.035 149.188V189H717.16V149.188H725.035Z" fill="#2FA4DA"/>
</svg>
