<svg width="1655" height="1182" viewBox="0 0 1655 1182" fill="none" xmlns="http://www.w3.org/2000/svg">
<g clip-path="url(#clip0_601_109)">
<path d="M767.576 1078.37L769.048 1079.42L770.237 1078.06C773.244 1074.62 776.95 1071.87 781.108 1069.98C785.265 1068.1 789.778 1067.12 794.343 1067.12C802.867 1067.13 811.036 1070.53 817.063 1076.55C823.09 1082.58 826.483 1090.75 826.501 1099.27C826.483 1107.8 823.09 1115.97 817.063 1121.99C811.035 1128.02 802.866 1131.41 794.342 1131.43C785.819 1131.41 777.649 1128.02 771.622 1121.99C765.595 1115.97 762.202 1107.8 762.184 1099.27C762.189 1096.21 762.632 1093.17 763.502 1090.24L763.909 1088.86L762.74 1088.04L746.586 1076.6L745.063 1075.52L743.882 1076.97C737.548 1084.72 728.519 1090.15 718.245 1091.87L716.575 1092.15V1093.85V1114.5V1116.11L718.145 1116.46C732.57 1119.63 743.396 1132.49 743.398 1147.84C743.381 1156.36 739.987 1164.53 733.959 1170.56C727.932 1176.59 719.763 1179.98 711.24 1180C702.718 1179.98 694.55 1176.59 688.525 1170.56C682.499 1164.53 679.106 1156.36 679.089 1147.84C679.09 1132.49 689.932 1119.54 704.33 1116.46L705.911 1116.12V1114.5V1093.85V1092.15L704.243 1091.87C684.34 1088.53 669.125 1071.21 669.125 1050.39C669.125 1029.66 684.192 1012.42 703.945 1009.05L705.609 1008.76V1007.07V987.424V985.832L704.057 985.475C689.768 982.19 679.082 969.413 679.081 954.161C679.098 945.636 682.491 937.466 688.519 931.438C694.546 925.411 702.716 922.017 711.239 922C719.759 922.015 727.926 925.404 733.954 931.424C739.982 937.445 743.38 945.608 743.406 954.128C743.392 961.502 740.849 968.648 736.202 974.374C731.554 980.101 725.081 984.06 717.866 985.59L716.281 985.926V987.547V1006.87V1008.57L717.961 1008.84C728.441 1010.54 737.641 1016.08 744.037 1024.01L745.212 1025.47L746.743 1024.39L762.766 1013.14L763.937 1012.32L763.537 1010.94C762.668 1007.96 762.193 1004.97 762.192 1001.81C762.209 993.28 765.602 985.109 771.63 979.081C777.657 973.054 785.827 969.66 794.351 969.643C802.874 969.66 811.044 973.054 817.071 979.081C823.098 985.108 826.492 993.278 826.509 1001.8C826.492 1010.32 823.098 1018.49 817.071 1024.52C811.043 1030.55 802.873 1033.94 794.348 1033.96C789.795 1033.96 785.295 1032.98 781.147 1031.1C776.999 1029.22 773.298 1026.48 770.292 1023.06L769.108 1021.72L767.64 1022.75L751.625 1033.99L750.375 1034.86L750.893 1036.3C752.521 1040.82 753.358 1045.58 753.37 1050.38C753.37 1055.4 752.434 1060.2 750.804 1064.69L750.284 1066.13L751.529 1067.01L767.576 1078.37ZM812.897 1001.82C812.897 991.585 804.577 983.254 794.342 983.254C784.107 983.254 775.787 991.585 775.787 1001.82C775.787 1012.05 784.109 1020.37 794.342 1020.37C804.576 1020.37 812.897 1012.05 812.897 1001.82ZM711.247 935.603C701.006 935.603 692.684 943.924 692.684 954.158C692.684 964.393 701.015 972.713 711.247 972.713C721.481 972.713 729.803 964.392 729.803 954.158C729.803 943.925 721.49 935.603 711.247 935.603ZM711.239 1166.41C721.473 1166.41 729.794 1158.09 729.794 1147.86C729.794 1137.63 721.482 1129.3 711.239 1129.3C700.998 1129.3 692.676 1137.62 692.676 1147.86C692.676 1158.09 701.007 1166.41 711.239 1166.41ZM686.142 1050.41C686.142 1064.25 697.386 1075.5 711.231 1075.5C725.067 1075.5 736.32 1064.25 736.32 1050.41C736.32 1036.57 725.067 1025.32 711.231 1025.32C697.395 1025.32 686.142 1036.57 686.142 1050.41ZM775.779 1099.28C775.779 1109.51 784.099 1117.85 794.334 1117.85C804.569 1117.85 812.889 1109.51 812.889 1099.28C812.889 1089.05 804.568 1080.73 794.334 1080.73C784.101 1080.73 775.779 1089.05 775.779 1099.28Z" fill="black" stroke="white" stroke-width="4"/>
</g>
<path d="M1051 1050.5C1051 1067.9 1013.39 1082 967 1082C920.611 1082 883 1067.9 883 1050.5" stroke="#888888" stroke-width="12"/>
<path d="M1051 1113.5C1051 1130.9 1013.39 1145 967 1145C920.611 1145 883 1130.9 883 1113.5" stroke="#888888" stroke-width="12"/>
<path d="M967 1020C1013.39 1020 1051 1005.9 1051 988.5C1051 971.103 1013.39 957 967 957C920.608 957 883 971.103 883 988.5C883 1005.9 920.608 1020 967 1020Z" stroke="#888888" stroke-width="12"/>
<path d="M883 987.5V1113.5Z" fill="white"/>
<path d="M883 987.5V1113.5" stroke="#888888" stroke-width="12"/>
<path d="M1051 987.5V1113.5Z" fill="white"/>
<path d="M1051 987.5V1113.5" stroke="#888888" stroke-width="12"/>
<g clip-path="url(#clip1_601_109)">
<path d="M58.4063 962.005L43.0225 969.69V1104.58L58.4063 1112.22L58.4988 1112.11V962.111L58.4063 962.005Z" fill="#8C3123"/>
<path d="M140.738 1092.64L58.4062 1112.22V962.005L140.738 981.156V1092.64Z" fill="#E05243"/>
<path d="M103.575 1061.99L138.497 1066.43L138.716 1065.93L138.913 1008.72L138.497 1008.27L103.575 1012.65V1061.99Z" fill="#8C3123"/>
<path d="M138.497 1092.86L218.587 1112.26L218.713 1112.06L218.711 962.139L218.584 962.005L138.497 981.376V1092.86Z" fill="#8C3123"/>
<path d="M173.429 1061.99L138.497 1066.43V1008.27L173.429 1012.65V1061.99Z" fill="#E05243"/>
<path d="M173.429 988.789L138.497 995.149L103.575 988.789L138.453 979.657L173.429 988.789Z" fill="#5E1F18"/>
<path d="M173.429 1085.79L138.497 1079.39L103.575 1085.79L138.455 1095.51L173.429 1085.79Z" fill="#F2B0A9"/>
<path d="M103.575 988.79L138.497 980.156L138.78 980.069V922.233L138.497 922L103.575 939.446V988.79Z" fill="#8C3123"/>
<path d="M173.429 988.79L138.497 980.156V922L173.429 939.446V988.79Z" fill="#E05243"/>
<path d="M138.497 1152.57L103.571 1135.13V1085.79L138.497 1094.42L139.011 1095L138.871 1151.57L138.497 1152.57Z" fill="#8C3123"/>
<path d="M138.497 1152.57L173.426 1135.13V1085.79L138.497 1094.42V1152.57ZM218.587 962.005L233.978 969.69V1104.58L218.587 1112.26V962.005Z" fill="#E05243"/>
</g>
<path d="M336.727 1130.2L295.932 1059.54C294.363 1056.83 293.537 1053.74 293.537 1050.61C293.537 1047.47 294.363 1044.39 295.932 1041.67L336.727 971.012C338.295 968.295 340.552 966.038 343.269 964.47C345.986 962.901 349.068 962.075 352.205 962.076H433.796C436.933 962.076 440.015 962.902 442.732 964.47C445.448 966.039 447.704 968.295 449.273 971.012L490.068 1041.67C491.637 1044.39 492.463 1047.47 492.463 1050.61C492.463 1053.75 491.637 1056.83 490.068 1059.54L449.273 1130.2C447.704 1132.92 445.448 1135.18 442.731 1136.75C440.014 1138.31 436.933 1139.14 433.796 1139.14H352.205C349.068 1139.14 345.986 1138.31 343.269 1136.74C340.552 1135.18 338.295 1132.92 336.727 1130.2Z" fill="url(#paint0_linear_601_109)"/>
<path opacity="0.07" d="M481.668 1074.82L432.192 1025.35L423.088 1027.23L400.393 1004.54L393.131 1018.12L389.193 1033.83L395.858 1040.5L383.056 1043.11L365.501 1025.56L353.581 1037.02L375.529 1058.97L352.264 1077.46L414.728 1139.93L445.159 1139.63L481.668 1074.82Z" fill="black"/>
<path d="M426.443 1039.57C431.013 1039.57 434.717 1035.87 434.717 1031.3C434.717 1026.73 431.013 1023.03 426.443 1023.03C421.874 1023.03 418.169 1026.73 418.169 1031.3C418.169 1035.87 421.874 1039.57 426.443 1039.57Z" fill="white"/>
<path d="M359.556 1039.57C364.126 1039.57 367.83 1035.87 367.83 1031.3C367.83 1026.73 364.126 1023.03 359.556 1023.03C354.987 1023.03 351.282 1026.73 351.282 1031.3C351.282 1035.87 354.987 1039.57 359.556 1039.57Z" fill="white"/>
<path d="M393 1097.5C397.571 1097.5 401.276 1093.8 401.276 1089.23C401.276 1084.66 397.571 1080.95 393 1080.95C388.43 1080.95 384.725 1084.66 384.725 1089.23C384.725 1093.8 388.43 1097.5 393 1097.5Z" fill="white"/>
<path d="M393 1063.98C400.384 1063.98 406.369 1057.99 406.369 1050.61C406.369 1043.22 400.384 1037.24 393 1037.24C385.617 1037.24 379.632 1043.22 379.632 1050.61C379.632 1057.99 385.617 1063.98 393 1063.98Z" fill="white"/>
<path d="M359.556 1080.42C365.357 1080.42 370.059 1075.72 370.059 1069.92C370.059 1064.12 365.357 1059.41 359.556 1059.41C353.756 1059.41 349.054 1064.12 349.054 1069.92C349.054 1075.72 353.756 1080.42 359.556 1080.42Z" fill="white"/>
<path d="M426.443 1080.42C432.244 1080.42 436.946 1075.72 436.946 1069.92C436.946 1064.12 432.244 1059.41 426.443 1059.41C420.643 1059.41 415.941 1064.12 415.941 1069.92C415.941 1075.72 420.643 1080.42 426.443 1080.42Z" fill="white"/>
<path d="M393 1022.49C398.802 1022.49 403.505 1017.79 403.505 1011.99C403.505 1006.19 398.802 1001.49 393 1001.49C387.199 1001.49 382.496 1006.19 382.496 1011.99C382.496 1017.79 387.199 1022.49 393 1022.49Z" fill="white"/>
<path d="M568 889L510.265 989L625.735 989L568 889ZM578 988L578 979L558 979L558 988L578 988Z" fill="#888888"/>
<path d="M436.087 198.693L445.791 204.295L553.892 17.064L544.188 11.4615L436.087 198.693Z" fill="#E535AB"/>
<path d="M650.068 183.735H433.865V194.94H650.068V183.735Z" fill="#E535AB"/>
<path d="M438.143 190.03L546.285 252.467L551.887 242.764L443.746 180.326L438.143 190.03Z" fill="#E535AB"/>
<path d="M532.086 27.3015L640.228 89.739L645.83 80.0355L537.689 17.598L532.086 27.3015Z" fill="#E535AB"/>
<path d="M438.173 79.9928L443.776 89.6963L551.917 27.2588L546.315 17.5553L438.173 79.9928Z" fill="#E535AB"/>
<path d="M530.133 17.066L638.234 204.297L647.937 198.695L539.836 11.4635L530.133 17.066Z" fill="#E535AB"/>
<path d="M453.642 72.5625H442.438V197.437H453.642V72.5625Z" fill="#E535AB"/>
<path d="M641.563 72.5625H630.358V197.437H641.563V72.5625Z" fill="#E535AB"/>
<path d="M539.484 239.248L544.377 247.724L638.432 193.421L633.538 184.945L539.484 239.248Z" fill="#E535AB"/>
<path d="M656.412 201.083C649.932 212.355 635.487 216.203 624.215 209.723C612.942 203.243 609.095 188.798 615.575 177.525C622.055 166.253 636.5 162.405 647.772 168.885C659.112 175.433 662.96 189.81 656.412 201.083Z" fill="#E535AB"/>
<path d="M468.358 92.4749C461.878 103.747 447.433 107.595 436.16 101.115C424.888 94.6349 421.04 80.1899 427.52 68.9174C434 57.6449 448.445 53.7974 459.718 60.2774C470.99 66.8249 474.838 81.2024 468.358 92.4749Z" fill="#E535AB"/>
<path d="M427.587 201.083C421.107 189.81 424.955 175.433 436.227 168.885C447.5 162.405 461.877 166.253 468.425 177.525C474.905 188.798 471.057 203.175 459.785 209.723C448.445 216.203 434.067 212.355 427.587 201.083Z" fill="#E535AB"/>
<path d="M615.643 92.4749C609.163 81.2024 613.01 66.8249 624.283 60.2774C635.555 53.7974 649.933 57.6449 656.48 68.9174C662.96 80.1899 659.113 94.5674 647.84 101.115C636.568 107.595 622.123 103.747 615.643 92.4749Z" fill="#E535AB"/>
<path d="M542 267.165C528.973 267.165 518.443 256.635 518.443 243.608C518.443 230.58 528.973 220.05 542 220.05C555.028 220.05 565.558 230.58 565.558 243.608C565.558 256.568 555.028 267.165 542 267.165Z" fill="#E535AB"/>
<path d="M542 49.95C528.973 49.95 518.443 39.42 518.443 26.3925C518.443 13.365 528.973 2.83496 542 2.83496C555.028 2.83496 565.558 13.365 565.558 26.3925C565.558 39.42 555.028 49.95 542 49.95Z" fill="#E535AB"/>
<path d="M1199.49 120.906L1212.58 151.766L1225.71 120.906H1244.17L1221.32 166.463V192H1203.89V166.463L1180.99 120.906H1199.49ZM1243.34 166.121V165.096C1243.34 161.222 1243.9 157.658 1245 154.402C1246.11 151.115 1247.74 148.266 1249.88 145.857C1252.03 143.449 1254.69 141.577 1257.84 140.242C1261 138.875 1264.65 138.191 1268.78 138.191C1272.95 138.191 1276.61 138.875 1279.77 140.242C1282.96 141.577 1285.63 143.449 1287.78 145.857C1289.92 148.266 1291.55 151.115 1292.66 154.402C1293.76 157.658 1294.32 161.222 1294.32 165.096V166.121C1294.32 169.962 1293.76 173.527 1292.66 176.814C1291.55 180.07 1289.92 182.918 1287.78 185.359C1285.63 187.768 1282.97 189.64 1279.82 190.975C1276.66 192.309 1273.01 192.977 1268.88 192.977C1264.74 192.977 1261.08 192.309 1257.89 190.975C1254.7 189.64 1252.03 187.768 1249.88 185.359C1247.74 182.918 1246.11 180.07 1245 176.814C1243.9 173.527 1243.34 169.962 1243.34 166.121ZM1259.8 165.096V166.121C1259.8 168.107 1259.94 169.962 1260.24 171.688C1260.53 173.413 1261.02 174.926 1261.7 176.229C1262.38 177.498 1263.31 178.491 1264.48 179.207C1265.66 179.923 1267.12 180.281 1268.88 180.281C1270.6 180.281 1272.04 179.923 1273.18 179.207C1274.35 178.491 1275.28 177.498 1275.96 176.229C1276.64 174.926 1277.13 173.413 1277.42 171.688C1277.72 169.962 1277.86 168.107 1277.86 166.121V165.096C1277.86 163.175 1277.72 161.368 1277.42 159.676C1277.13 157.951 1276.64 156.437 1275.96 155.135C1275.28 153.8 1274.35 152.758 1273.18 152.01C1272 151.261 1270.54 150.887 1268.78 150.887C1267.06 150.887 1265.61 151.261 1264.44 152.01C1263.3 152.758 1262.38 153.8 1261.7 155.135C1261.02 156.437 1260.53 157.951 1260.24 159.676C1259.94 161.368 1259.8 163.175 1259.8 165.096ZM1332.5 179.158V139.168H1349.01V192H1333.58L1332.5 179.158ZM1334.06 168.416L1338.36 168.318C1338.36 171.867 1337.94 175.154 1337.09 178.182C1336.25 181.176 1334.99 183.781 1333.33 185.994C1331.7 188.208 1329.69 189.933 1327.28 191.17C1324.9 192.374 1322.15 192.977 1319.03 192.977C1316.42 192.977 1314.03 192.618 1311.85 191.902C1309.7 191.154 1307.84 189.998 1306.28 188.436C1304.72 186.84 1303.5 184.806 1302.62 182.332C1301.77 179.826 1301.35 176.831 1301.35 173.348V139.168H1317.8V173.445C1317.8 174.617 1317.95 175.626 1318.24 176.473C1318.54 177.319 1318.96 178.035 1319.51 178.621C1320.07 179.174 1320.75 179.598 1321.56 179.891C1322.41 180.151 1323.37 180.281 1324.45 180.281C1326.92 180.281 1328.86 179.76 1330.26 178.719C1331.66 177.677 1332.63 176.261 1333.19 174.471C1333.77 172.68 1334.06 170.662 1334.06 168.416ZM1374.69 152.254V192H1358.23V139.168H1373.62L1374.69 152.254ZM1390.31 138.777L1390.02 154.061C1389.37 153.995 1388.49 153.914 1387.38 153.816C1386.28 153.719 1385.35 153.67 1384.6 153.67C1382.68 153.67 1381.02 153.898 1379.62 154.354C1378.25 154.777 1377.11 155.428 1376.2 156.307C1375.32 157.153 1374.67 158.227 1374.25 159.529C1373.86 160.831 1373.68 162.345 1373.71 164.07L1370.73 162.117C1370.73 158.569 1371.08 155.346 1371.76 152.449C1372.48 149.52 1373.49 146.997 1374.79 144.881C1376.09 142.732 1377.67 141.089 1379.52 139.949C1381.38 138.777 1383.46 138.191 1385.77 138.191C1386.59 138.191 1387.38 138.24 1388.17 138.338C1388.98 138.436 1389.7 138.582 1390.31 138.777ZM1451.79 135.848L1434.46 192H1416.05L1442.17 120.906H1453.84L1451.79 135.848ZM1466.14 192L1448.76 135.848L1446.52 120.906H1458.33L1484.6 192H1466.14ZM1465.46 165.486V178.719H1428.99V165.486H1465.46ZM1518.2 167.879H1500.52V154.646H1518.2C1520.6 154.646 1522.56 154.24 1524.05 153.426C1525.55 152.612 1526.64 151.489 1527.33 150.057C1528.04 148.592 1528.4 146.948 1528.4 145.125C1528.4 143.172 1528.04 141.365 1527.33 139.705C1526.64 138.045 1525.55 136.71 1524.05 135.701C1522.56 134.66 1520.6 134.139 1518.2 134.139H1506.96V192H1489.83V120.906H1518.2C1523.89 120.906 1528.79 121.948 1532.89 124.031C1537.03 126.115 1540.2 128.979 1542.41 132.625C1544.63 136.238 1545.73 140.372 1545.73 145.027C1545.73 149.617 1544.63 153.621 1542.41 157.039C1540.2 160.457 1537.03 163.126 1532.89 165.047C1528.79 166.935 1523.89 167.879 1518.2 167.879ZM1573.18 120.906V192H1556.09V120.906H1573.18Z" fill="#888888"/>
<path d="M1293.23 510.906L1306.32 541.766L1319.45 510.906H1337.91L1315.06 556.463V582H1297.63V556.463L1274.73 510.906H1293.23ZM1337.08 556.121V555.096C1337.08 551.222 1337.63 547.658 1338.74 544.402C1339.85 541.115 1341.47 538.266 1343.62 535.857C1345.77 533.449 1348.42 531.577 1351.58 530.242C1354.74 528.875 1358.39 528.191 1362.52 528.191C1366.69 528.191 1370.35 528.875 1373.51 530.242C1376.7 531.577 1379.37 533.449 1381.51 535.857C1383.66 538.266 1385.29 541.115 1386.4 544.402C1387.5 547.658 1388.06 551.222 1388.06 555.096V556.121C1388.06 559.962 1387.5 563.527 1386.4 566.814C1385.29 570.07 1383.66 572.918 1381.51 575.359C1379.37 577.768 1376.71 579.64 1373.55 580.975C1370.4 582.309 1366.75 582.977 1362.62 582.977C1358.48 582.977 1354.82 582.309 1351.63 580.975C1348.44 579.64 1345.77 577.768 1343.62 575.359C1341.47 572.918 1339.85 570.07 1338.74 566.814C1337.63 563.527 1337.08 559.962 1337.08 556.121ZM1353.54 555.096V556.121C1353.54 558.107 1353.68 559.962 1353.97 561.688C1354.27 563.413 1354.76 564.926 1355.44 566.229C1356.12 567.498 1357.05 568.491 1358.22 569.207C1359.39 569.923 1360.86 570.281 1362.62 570.281C1364.34 570.281 1365.77 569.923 1366.91 569.207C1368.09 568.491 1369.01 567.498 1369.7 566.229C1370.38 564.926 1370.87 563.413 1371.16 561.688C1371.46 559.962 1371.6 558.107 1371.6 556.121V555.096C1371.6 553.175 1371.46 551.368 1371.16 549.676C1370.87 547.951 1370.38 546.437 1369.7 545.135C1369.01 543.8 1368.09 542.758 1366.91 542.01C1365.74 541.261 1364.28 540.887 1362.52 540.887C1360.79 540.887 1359.35 541.261 1358.17 542.01C1357.03 542.758 1356.12 543.8 1355.44 545.135C1354.76 546.437 1354.27 547.951 1353.97 549.676C1353.68 551.368 1353.54 553.175 1353.54 555.096ZM1426.24 569.158V529.168H1442.74V582H1427.31L1426.24 569.158ZM1427.8 558.416L1432.1 558.318C1432.1 561.867 1431.68 565.154 1430.83 568.182C1429.98 571.176 1428.73 573.781 1427.07 575.994C1425.44 578.208 1423.42 579.933 1421.02 581.17C1418.64 582.374 1415.89 582.977 1412.76 582.977C1410.16 582.977 1407.77 582.618 1405.59 581.902C1403.44 581.154 1401.58 579.998 1400.02 578.436C1398.46 576.84 1397.24 574.806 1396.36 572.332C1395.51 569.826 1395.09 566.831 1395.09 563.348V529.168H1411.54V563.445C1411.54 564.617 1411.69 565.626 1411.98 566.473C1412.28 567.319 1412.7 568.035 1413.25 568.621C1413.81 569.174 1414.49 569.598 1415.3 569.891C1416.15 570.151 1417.11 570.281 1418.18 570.281C1420.66 570.281 1422.59 569.76 1423.99 568.719C1425.39 567.677 1426.37 566.261 1426.92 564.471C1427.51 562.68 1427.8 560.662 1427.8 558.416ZM1468.43 542.254V582H1451.97V529.168H1467.35L1468.43 542.254ZM1484.05 528.777L1483.76 544.061C1483.11 543.995 1482.23 543.914 1481.12 543.816C1480.02 543.719 1479.09 543.67 1478.34 543.67C1476.42 543.67 1474.76 543.898 1473.36 544.354C1471.99 544.777 1470.85 545.428 1469.94 546.307C1469.06 547.153 1468.41 548.227 1467.99 549.529C1467.6 550.831 1467.42 552.345 1467.45 554.07L1464.47 552.117C1464.47 548.569 1464.81 545.346 1465.5 542.449C1466.21 539.52 1467.22 536.997 1468.53 534.881C1469.83 532.732 1471.41 531.089 1473.26 529.949C1475.12 528.777 1477.2 528.191 1479.51 528.191C1480.33 528.191 1481.12 528.24 1481.9 528.338C1482.72 528.436 1483.43 528.582 1484.05 528.777ZM1164.96 699H1149.19L1149.29 685.816H1164.96C1168.22 685.816 1170.97 685.035 1173.21 683.473C1175.49 681.91 1177.22 679.583 1178.39 676.49C1179.59 673.365 1180.2 669.524 1180.2 664.967V661.891C1180.2 658.473 1179.85 655.478 1179.17 652.906C1178.52 650.302 1177.54 648.137 1176.24 646.412C1174.94 644.654 1173.31 643.336 1171.36 642.457C1169.44 641.578 1167.22 641.139 1164.72 641.139H1148.9V627.906H1164.72C1169.53 627.906 1173.95 628.736 1177.95 630.396C1181.99 632.024 1185.47 634.368 1188.4 637.428C1191.36 640.455 1193.64 644.052 1195.23 648.219C1196.86 652.353 1197.68 656.943 1197.68 661.988V664.967C1197.68 669.98 1196.86 674.57 1195.23 678.736C1193.64 682.903 1191.38 686.5 1188.45 689.527C1185.52 692.555 1182.05 694.898 1178.05 696.559C1174.08 698.186 1169.71 699 1164.96 699ZM1159 627.906V699H1141.87V627.906H1159ZM1233.27 685.719V663.941C1233.27 662.444 1233.06 661.158 1232.64 660.084C1232.21 659.01 1231.55 658.18 1230.63 657.594C1229.72 656.975 1228.5 656.666 1226.97 656.666C1225.74 656.666 1224.68 656.878 1223.8 657.301C1222.92 657.724 1222.25 658.359 1221.8 659.205C1221.34 660.051 1221.11 661.126 1221.11 662.428H1204.66C1204.66 659.986 1205.2 657.724 1206.27 655.641C1207.38 653.525 1208.94 651.686 1210.96 650.123C1213.01 648.561 1215.45 647.356 1218.28 646.51C1221.15 645.631 1224.34 645.191 1227.85 645.191C1232.05 645.191 1235.79 645.891 1239.08 647.291C1242.4 648.691 1245.02 650.79 1246.94 653.59C1248.86 656.357 1249.82 659.84 1249.82 664.039V685.67C1249.82 689.12 1250.02 691.741 1250.41 693.531C1250.8 695.289 1251.35 696.835 1252.07 698.17V699H1235.57C1234.79 697.372 1234.2 695.387 1233.81 693.043C1233.45 690.667 1233.27 688.225 1233.27 685.719ZM1235.27 666.725L1235.37 675.514H1228.1C1226.57 675.514 1225.26 675.725 1224.19 676.148C1223.15 676.572 1222.3 677.158 1221.65 677.906C1221.03 678.622 1220.58 679.436 1220.28 680.348C1220.02 681.259 1219.89 682.219 1219.89 683.229C1219.89 684.205 1220.12 685.084 1220.58 685.865C1221.06 686.614 1221.72 687.2 1222.53 687.623C1223.34 688.046 1224.25 688.258 1225.26 688.258C1227.09 688.258 1228.63 687.916 1229.9 687.232C1231.2 686.516 1232.2 685.654 1232.88 684.645C1233.56 683.635 1233.91 682.691 1233.91 681.812L1237.52 688.551C1236.87 689.853 1236.12 691.171 1235.27 692.506C1234.46 693.84 1233.43 695.077 1232.2 696.217C1230.99 697.324 1229.51 698.235 1227.75 698.951C1226 699.635 1223.86 699.977 1221.36 699.977C1218.1 699.977 1215.11 699.309 1212.37 697.975C1209.67 696.64 1207.51 694.785 1205.88 692.408C1204.25 689.999 1203.44 687.232 1203.44 684.107C1203.44 681.373 1203.93 678.932 1204.9 676.783C1205.91 674.635 1207.43 672.812 1209.44 671.314C1211.46 669.817 1214.03 668.678 1217.16 667.896C1220.28 667.115 1223.96 666.725 1228.19 666.725H1235.27ZM1286.79 646.168V657.594H1254.95V646.168H1286.79ZM1261.64 633.033H1278.1V681.764C1278.1 683.163 1278.26 684.254 1278.58 685.035C1278.91 685.784 1279.46 686.321 1280.24 686.646C1281.06 686.939 1282.13 687.086 1283.47 687.086C1284.41 687.086 1285.19 687.07 1285.81 687.037C1286.43 686.972 1287.01 686.891 1287.57 686.793V698.561C1286.17 699.016 1284.7 699.358 1283.17 699.586C1281.64 699.846 1280.02 699.977 1278.29 699.977C1274.78 699.977 1271.76 699.423 1269.26 698.316C1266.78 697.21 1264.9 695.468 1263.59 693.092C1262.29 690.715 1261.64 687.623 1261.64 683.814V633.033ZM1320.77 685.719V663.941C1320.77 662.444 1320.56 661.158 1320.14 660.084C1319.71 659.01 1319.05 658.18 1318.13 657.594C1317.22 656.975 1316 656.666 1314.47 656.666C1313.24 656.666 1312.18 656.878 1311.3 657.301C1310.42 657.724 1309.75 658.359 1309.3 659.205C1308.84 660.051 1308.61 661.126 1308.61 662.428H1292.16C1292.16 659.986 1292.7 657.724 1293.77 655.641C1294.88 653.525 1296.44 651.686 1298.46 650.123C1300.51 648.561 1302.95 647.356 1305.78 646.51C1308.65 645.631 1311.84 645.191 1315.35 645.191C1319.55 645.191 1323.29 645.891 1326.58 647.291C1329.9 648.691 1332.52 650.79 1334.44 653.59C1336.36 656.357 1337.32 659.84 1337.32 664.039V685.67C1337.32 689.12 1337.52 691.741 1337.91 693.531C1338.3 695.289 1338.85 696.835 1339.57 698.17V699H1323.07C1322.29 697.372 1321.7 695.387 1321.31 693.043C1320.95 690.667 1320.77 688.225 1320.77 685.719ZM1322.77 666.725L1322.87 675.514H1315.6C1314.07 675.514 1312.76 675.725 1311.69 676.148C1310.65 676.572 1309.8 677.158 1309.15 677.906C1308.53 678.622 1308.08 679.436 1307.78 680.348C1307.52 681.259 1307.39 682.219 1307.39 683.229C1307.39 684.205 1307.62 685.084 1308.08 685.865C1308.56 686.614 1309.22 687.2 1310.03 687.623C1310.84 688.046 1311.75 688.258 1312.76 688.258C1314.59 688.258 1316.13 687.916 1317.4 687.232C1318.7 686.516 1319.7 685.654 1320.38 684.645C1321.06 683.635 1321.41 682.691 1321.41 681.812L1325.02 688.551C1324.37 689.853 1323.62 691.171 1322.77 692.506C1321.96 693.84 1320.93 695.077 1319.7 696.217C1318.49 697.324 1317.01 698.235 1315.25 698.951C1313.5 699.635 1311.36 699.977 1308.86 699.977C1305.6 699.977 1302.61 699.309 1299.87 697.975C1297.17 696.64 1295.01 694.785 1293.38 692.408C1291.75 689.999 1290.94 687.232 1290.94 684.107C1290.94 681.373 1291.43 678.932 1292.4 676.783C1293.41 674.635 1294.93 672.812 1296.94 671.314C1298.96 669.817 1301.53 668.678 1304.66 667.896C1307.78 667.115 1311.46 666.725 1315.69 666.725H1322.77ZM1408.76 680.104C1408.76 678.997 1408.6 678.004 1408.27 677.125C1407.95 676.214 1407.34 675.367 1406.46 674.586C1405.59 673.805 1404.32 673.023 1402.66 672.242C1401.03 671.428 1398.88 670.582 1396.21 669.703C1393.09 668.661 1390.07 667.49 1387.18 666.188C1384.28 664.853 1381.69 663.307 1379.41 661.549C1377.14 659.758 1375.33 657.675 1373.99 655.299C1372.66 652.89 1371.99 650.09 1371.99 646.9C1371.99 643.84 1372.68 641.09 1374.04 638.648C1375.41 636.174 1377.31 634.075 1379.76 632.35C1382.23 630.592 1385.13 629.257 1388.45 628.346C1391.77 627.402 1395.4 626.93 1399.34 626.93C1404.54 626.93 1409.13 627.841 1413.11 629.664C1417.11 631.454 1420.23 634.01 1422.48 637.33C1424.76 640.618 1425.9 644.508 1425.9 649H1408.86C1408.86 647.21 1408.48 645.631 1407.73 644.264C1407.02 642.896 1405.93 641.822 1404.46 641.041C1403 640.26 1401.16 639.869 1398.95 639.869C1396.8 639.869 1394.99 640.195 1393.53 640.846C1392.06 641.497 1390.95 642.376 1390.21 643.482C1389.46 644.557 1389.08 645.745 1389.08 647.047C1389.08 648.121 1389.38 649.098 1389.96 649.977C1390.58 650.823 1391.44 651.62 1392.55 652.369C1393.69 653.118 1395.06 653.834 1396.65 654.518C1398.28 655.201 1400.1 655.868 1402.12 656.52C1405.9 657.724 1409.25 659.075 1412.18 660.572C1415.14 662.037 1417.63 663.714 1419.65 665.602C1421.7 667.457 1423.25 669.573 1424.29 671.949C1425.36 674.326 1425.9 677.011 1425.9 680.006C1425.9 683.196 1425.28 686.028 1424.04 688.502C1422.81 690.976 1421.03 693.076 1418.72 694.801C1416.41 696.493 1413.64 697.779 1410.42 698.658C1407.2 699.537 1403.6 699.977 1399.63 699.977C1395.98 699.977 1392.39 699.521 1388.84 698.609C1385.32 697.665 1382.13 696.233 1379.27 694.312C1376.4 692.359 1374.11 689.869 1372.38 686.842C1370.69 683.782 1369.84 680.152 1369.84 675.953H1387.03C1387.03 678.036 1387.31 679.794 1387.86 681.227C1388.41 682.659 1389.23 683.814 1390.3 684.693C1391.38 685.54 1392.7 686.158 1394.26 686.549C1395.82 686.907 1397.61 687.086 1399.63 687.086C1401.81 687.086 1403.57 686.777 1404.9 686.158C1406.24 685.507 1407.21 684.661 1407.83 683.619C1408.45 682.545 1408.76 681.373 1408.76 680.104ZM1461.79 646.168V657.594H1429.95V646.168H1461.79ZM1436.64 633.033H1453.1V681.764C1453.1 683.163 1453.26 684.254 1453.58 685.035C1453.91 685.784 1454.46 686.321 1455.24 686.646C1456.06 686.939 1457.13 687.086 1458.47 687.086C1459.41 687.086 1460.19 687.07 1460.81 687.037C1461.43 686.972 1462.01 686.891 1462.57 686.793V698.561C1461.17 699.016 1459.7 699.358 1458.17 699.586C1456.64 699.846 1455.02 699.977 1453.29 699.977C1449.78 699.977 1446.76 699.423 1444.26 698.316C1441.78 697.21 1439.9 695.468 1438.59 693.092C1437.29 690.715 1436.64 687.623 1436.64 683.814V633.033ZM1495.77 685.719V663.941C1495.77 662.444 1495.56 661.158 1495.14 660.084C1494.71 659.01 1494.05 658.18 1493.13 657.594C1492.22 656.975 1491 656.666 1489.47 656.666C1488.24 656.666 1487.18 656.878 1486.3 657.301C1485.42 657.724 1484.75 658.359 1484.3 659.205C1483.84 660.051 1483.61 661.126 1483.61 662.428H1467.16C1467.16 659.986 1467.7 657.724 1468.77 655.641C1469.88 653.525 1471.44 651.686 1473.46 650.123C1475.51 648.561 1477.95 647.356 1480.78 646.51C1483.65 645.631 1486.84 645.191 1490.35 645.191C1494.55 645.191 1498.29 645.891 1501.58 647.291C1504.9 648.691 1507.52 650.79 1509.44 653.59C1511.36 656.357 1512.32 659.84 1512.32 664.039V685.67C1512.32 689.12 1512.52 691.741 1512.91 693.531C1513.3 695.289 1513.85 696.835 1514.57 698.17V699H1498.07C1497.29 697.372 1496.7 695.387 1496.31 693.043C1495.95 690.667 1495.77 688.225 1495.77 685.719ZM1497.77 666.725L1497.87 675.514H1490.6C1489.07 675.514 1487.76 675.725 1486.69 676.148C1485.65 676.572 1484.8 677.158 1484.15 677.906C1483.53 678.622 1483.08 679.436 1482.78 680.348C1482.52 681.259 1482.39 682.219 1482.39 683.229C1482.39 684.205 1482.62 685.084 1483.08 685.865C1483.56 686.614 1484.22 687.2 1485.03 687.623C1485.84 688.046 1486.75 688.258 1487.76 688.258C1489.59 688.258 1491.13 687.916 1492.4 687.232C1493.7 686.516 1494.7 685.654 1495.38 684.645C1496.06 683.635 1496.41 682.691 1496.41 681.812L1500.02 688.551C1499.37 689.853 1498.62 691.171 1497.77 692.506C1496.96 693.84 1495.93 695.077 1494.7 696.217C1493.49 697.324 1492.01 698.235 1490.25 698.951C1488.5 699.635 1486.36 699.977 1483.86 699.977C1480.6 699.977 1477.61 699.309 1474.87 697.975C1472.17 696.64 1470.01 694.785 1468.38 692.408C1466.75 689.999 1465.94 687.232 1465.94 684.107C1465.94 681.373 1466.43 678.932 1467.4 676.783C1468.41 674.635 1469.93 672.812 1471.94 671.314C1473.96 669.817 1476.53 668.678 1479.66 667.896C1482.78 667.115 1486.46 666.725 1490.69 666.725H1497.77ZM1543.77 687.281C1545.3 687.281 1546.6 687.005 1547.68 686.451C1548.78 685.865 1549.61 685.051 1550.17 684.01C1550.75 682.936 1551.03 681.65 1551 680.152H1566.47C1566.51 684.124 1565.53 687.607 1563.54 690.602C1561.59 693.564 1558.92 695.875 1555.54 697.535C1552.18 699.163 1548.39 699.977 1544.16 699.977C1540.03 699.977 1536.41 699.309 1533.32 697.975C1530.23 696.607 1527.64 694.719 1525.56 692.311C1523.51 689.869 1521.96 687.021 1520.92 683.766C1519.91 680.51 1519.4 676.979 1519.4 673.17V672.047C1519.4 668.238 1519.91 664.706 1520.92 661.451C1521.96 658.163 1523.51 655.315 1525.56 652.906C1527.64 650.465 1530.21 648.577 1533.27 647.242C1536.36 645.875 1539.96 645.191 1544.06 645.191C1548.46 645.191 1552.33 646.021 1555.68 647.682C1559.07 649.342 1561.72 651.751 1563.64 654.908C1565.56 658.066 1566.51 661.891 1566.47 666.383H1551C1551.03 664.788 1550.78 663.355 1550.26 662.086C1549.74 660.816 1548.93 659.807 1547.82 659.059C1546.75 658.277 1545.36 657.887 1543.67 657.887C1541.98 657.887 1540.61 658.261 1539.57 659.01C1538.53 659.758 1537.73 660.8 1537.18 662.135C1536.66 663.437 1536.3 664.934 1536.1 666.627C1535.94 668.32 1535.86 670.126 1535.86 672.047V673.17C1535.86 675.123 1535.94 676.962 1536.1 678.688C1536.3 680.38 1536.67 681.878 1537.23 683.18C1537.78 684.449 1538.58 685.458 1539.62 686.207C1540.66 686.923 1542.04 687.281 1543.77 687.281ZM1590.11 623.951V699H1573.65V623.951H1590.11ZM1623.9 646.168L1600.95 673.072L1588.94 685.084L1581.76 674.635L1591.77 661.598L1604.17 646.168H1623.9ZM1606.27 699L1592.16 674.928L1604.32 666.285L1625.12 699H1606.27Z" fill="#888888"/>
<rect x="61.5886" y="874.43" width="156.526" height="977.459" transform="rotate(-90 61.5886 874.43)" fill="#2FA4DA"/>
<path d="M567.704 677.729L544.61 717.729H590.798L567.704 677.729ZM571.704 763.32V713.729H563.704V763.32H571.704Z" fill="#2FA4DA"/>
<path d="M567.704 485.442L544.61 525.442H590.798L567.704 485.442ZM571.704 575.723V521.442H563.704V575.723H571.704Z" fill="#2FA4DA"/>
<rect x="61.5886" y="681.556" width="156.526" height="977.459" transform="rotate(-90 61.5886 681.556)" fill="#2FA4DA"/>
<rect x="61.5886" y="488.683" width="156.526" height="977.459" transform="rotate(-90 61.5886 488.683)" fill="#2FA4DA"/>
<path d="M228.99 806.841C228.99 805.522 228.785 804.351 228.375 803.325C227.994 802.3 227.306 801.362 226.309 800.513C225.313 799.663 223.907 798.843 222.091 798.052C220.304 797.231 218.018 796.396 215.235 795.547C212.188 794.609 209.376 793.569 206.798 792.427C204.249 791.255 202.022 789.907 200.118 788.384C198.214 786.831 196.734 785.059 195.68 783.066C194.625 781.045 194.098 778.716 194.098 776.079C194.098 773.472 194.64 771.099 195.724 768.96C196.837 766.821 198.404 764.976 200.426 763.423C202.476 761.841 204.893 760.625 207.677 759.775C210.46 758.896 213.536 758.457 216.905 758.457C221.651 758.457 225.738 759.336 229.166 761.094C232.623 762.852 235.274 765.21 237.12 768.169C238.995 771.128 239.932 774.395 239.933 777.969H228.99C228.99 775.859 228.536 773.999 227.628 772.388C226.749 770.747 225.401 769.458 223.585 768.521C221.798 767.583 219.527 767.114 216.773 767.114C214.166 767.114 211.998 767.51 210.269 768.301C208.541 769.092 207.252 770.161 206.402 771.509C205.553 772.856 205.128 774.38 205.128 776.079C205.128 777.28 205.406 778.379 205.963 779.375C206.519 780.342 207.369 781.25 208.512 782.1C209.654 782.92 211.09 783.696 212.818 784.429C214.547 785.161 216.583 785.864 218.927 786.538C222.472 787.593 225.562 788.765 228.199 790.054C230.836 791.313 233.033 792.749 234.791 794.36C236.549 795.972 237.867 797.803 238.746 799.854C239.625 801.875 240.064 804.175 240.064 806.753C240.064 809.448 239.522 811.88 238.438 814.048C237.354 816.187 235.802 818.018 233.78 819.541C231.788 821.035 229.386 822.192 226.573 823.013C223.79 823.804 220.684 824.199 217.257 824.199C214.181 824.199 211.148 823.789 208.16 822.969C205.201 822.148 202.506 820.903 200.074 819.233C197.642 817.534 195.709 815.425 194.273 812.905C192.838 810.356 192.12 807.383 192.12 803.984H203.15C203.15 806.064 203.502 807.837 204.205 809.302C204.937 810.767 205.948 811.968 207.237 812.905C208.526 813.813 210.02 814.487 211.72 814.927C213.448 815.366 215.294 815.586 217.257 815.586C219.835 815.586 221.988 815.22 223.717 814.487C225.474 813.755 226.793 812.729 227.672 811.411C228.551 810.093 228.99 808.569 228.99 806.841ZM270.562 775.771L270.562 783.506H243.756L243.756 775.771H270.562ZM251.49 764.126H262.081L262.081 810.181C262.081 811.646 262.286 812.773 262.696 813.564C263.136 814.326 263.736 814.839 264.498 815.103C265.26 815.366 266.153 815.498 267.179 815.498C267.911 815.498 268.614 815.454 269.288 815.366C269.962 815.278 270.504 815.19 270.914 815.103L270.958 823.188C270.079 823.452 269.054 823.687 267.882 823.892C266.739 824.097 265.421 824.199 263.927 824.199C261.495 824.199 259.342 823.774 257.467 822.925C255.592 822.046 254.127 820.625 253.072 818.662C252.017 816.699 251.49 814.092 251.49 810.84L251.49 764.126ZM289.371 784.824L289.371 823.32H278.78L278.78 775.771H288.888L289.371 784.824ZM303.917 775.464L303.829 785.308C303.184 785.19 302.481 785.103 301.72 785.044C300.987 784.985 300.255 784.956 299.522 784.956C297.706 784.956 296.109 785.22 294.732 785.747C293.355 786.245 292.198 786.978 291.261 787.944C290.352 788.882 289.649 790.024 289.151 791.372C288.653 792.72 288.36 794.229 288.272 795.898L285.855 796.074C285.855 793.086 286.148 790.317 286.734 787.769C287.32 785.22 288.199 782.979 289.371 781.045C290.572 779.111 292.066 777.603 293.853 776.519C295.67 775.435 297.765 774.893 300.138 774.893C300.782 774.893 301.471 774.951 302.203 775.068C302.965 775.186 303.536 775.317 303.917 775.464ZM330.636 824.199C327.12 824.199 323.941 823.628 321.099 822.485C318.287 821.313 315.885 819.688 313.892 817.607C311.93 815.527 310.421 813.081 309.366 810.269C308.311 807.456 307.784 804.424 307.784 801.172L307.784 799.414C307.784 795.693 308.326 792.324 309.41 789.307C310.494 786.289 312.003 783.711 313.936 781.572C315.87 779.404 318.155 777.749 320.792 776.606C323.429 775.464 326.285 774.893 329.361 774.893C332.76 774.893 335.733 775.464 338.282 776.606C340.831 777.749 342.94 779.36 344.61 781.44C346.309 783.491 347.569 785.938 348.39 788.779C349.239 791.621 349.664 794.756 349.664 798.184L349.664 802.71H312.926L312.926 795.107H339.205L339.205 794.272C339.146 792.368 338.766 790.581 338.062 788.911C337.389 787.241 336.349 785.894 334.942 784.868C333.536 783.843 331.661 783.33 329.317 783.33C327.559 783.33 325.992 783.711 324.615 784.473C323.267 785.205 322.14 786.274 321.231 787.681C320.323 789.087 319.62 790.786 319.122 792.778C318.653 794.741 318.419 796.953 318.419 799.414L318.419 801.172C318.419 803.252 318.697 805.186 319.254 806.973C319.84 808.73 320.689 810.269 321.803 811.587C322.916 812.905 324.264 813.945 325.846 814.707C327.428 815.439 329.229 815.806 331.251 815.806C333.8 815.806 336.07 815.293 338.062 814.268C340.055 813.242 341.783 811.792 343.248 809.917L348.829 815.322C347.804 816.816 346.471 818.252 344.83 819.629C343.189 820.977 341.183 822.075 338.809 822.925C336.466 823.774 333.741 824.199 330.636 824.199ZM384.732 813.784L384.732 791.108C384.732 789.409 384.425 787.944 383.809 786.714C383.194 785.483 382.257 784.531 380.997 783.857C379.766 783.184 378.214 782.847 376.339 782.847C374.61 782.847 373.116 783.14 371.856 783.726C370.597 784.312 369.615 785.103 368.912 786.099C368.209 787.095 367.857 788.223 367.857 789.482H357.31C357.31 787.607 357.765 785.791 358.673 784.033C359.581 782.275 360.899 780.708 362.628 779.331C364.356 777.954 366.422 776.87 368.824 776.079C371.226 775.288 373.922 774.893 376.91 774.893C380.484 774.893 383.648 775.493 386.402 776.694C389.185 777.896 391.368 779.712 392.95 782.144C394.561 784.546 395.367 787.563 395.367 791.196L395.367 812.334C395.367 814.502 395.514 816.45 395.807 818.179C396.129 819.878 396.583 821.357 397.169 822.617L397.169 823.32H386.314C385.816 822.178 385.421 820.728 385.128 818.97C384.864 817.183 384.732 815.454 384.732 813.784ZM386.27 794.404L386.358 800.952H378.756C376.793 800.952 375.064 801.143 373.57 801.523C372.076 801.875 370.831 802.402 369.835 803.105C368.839 803.809 368.092 804.658 367.594 805.654C367.096 806.65 366.847 807.778 366.847 809.038C366.847 810.298 367.14 811.455 367.725 812.51C368.311 813.535 369.161 814.341 370.274 814.927C371.417 815.513 372.794 815.806 374.405 815.806C376.573 815.806 378.463 815.366 380.074 814.487C381.715 813.579 383.004 812.48 383.941 811.191C384.879 809.873 385.377 808.628 385.435 807.456L388.863 812.158C388.512 813.359 387.911 814.648 387.061 816.025C386.212 817.402 385.099 818.721 383.722 819.98C382.374 821.211 380.748 822.222 378.844 823.013C376.969 823.804 374.801 824.199 372.34 824.199C369.234 824.199 366.466 823.584 364.034 822.354C361.602 821.094 359.698 819.409 358.321 817.3C356.944 815.161 356.256 812.744 356.256 810.049C356.256 807.529 356.724 805.303 357.662 803.369C358.629 801.406 360.035 799.766 361.881 798.447C363.756 797.129 366.041 796.133 368.736 795.459C371.432 794.756 374.508 794.404 377.965 794.404H386.27ZM417.032 785.439L417.032 823.32H406.441L406.441 775.771H416.417L417.032 785.439ZM415.318 797.788L411.715 797.744C411.715 794.463 412.125 791.431 412.945 788.647C413.766 785.864 414.967 783.447 416.549 781.396C418.131 779.316 420.094 777.72 422.437 776.606C424.81 775.464 427.55 774.893 430.655 774.893C432.823 774.893 434.801 775.215 436.588 775.859C438.404 776.475 439.972 777.456 441.29 778.804C442.638 780.151 443.663 781.88 444.366 783.989C445.099 786.099 445.465 788.647 445.465 791.636L445.465 823.32H434.874L434.874 792.559C434.874 790.244 434.522 788.428 433.819 787.109C433.145 785.791 432.164 784.854 430.875 784.297C429.615 783.711 428.106 783.418 426.349 783.418C424.356 783.418 422.657 783.799 421.251 784.561C419.874 785.322 418.746 786.362 417.867 787.681C416.988 788.999 416.344 790.522 415.933 792.251C415.523 793.979 415.318 795.825 415.318 797.788ZM444.806 794.976L439.84 796.074C439.84 793.203 440.235 790.493 441.026 787.944C441.847 785.366 443.033 783.11 444.586 781.177C446.168 779.214 448.116 777.676 450.431 776.562C452.745 775.449 455.396 774.893 458.385 774.893C460.816 774.893 462.984 775.229 464.889 775.903C466.822 776.548 468.463 777.573 469.81 778.979C471.158 780.386 472.183 782.217 472.887 784.473C473.59 786.699 473.941 789.395 473.941 792.559L473.941 823.32H463.307L463.307 792.515C463.307 790.112 462.955 788.252 462.252 786.934C461.578 785.615 460.611 784.707 459.351 784.209C458.092 783.682 456.583 783.418 454.825 783.418C453.184 783.418 451.734 783.726 450.474 784.341C449.244 784.927 448.204 785.762 447.354 786.846C446.505 787.9 445.86 789.116 445.421 790.493C445.011 791.87 444.806 793.364 444.806 794.976ZM532.608 799.458H515.953L515.953 790.713H532.608C535.509 790.713 537.852 790.244 539.64 789.307C541.427 788.369 542.73 787.08 543.551 785.439C544.4 783.77 544.825 781.865 544.825 779.727C544.825 777.705 544.4 775.815 543.551 774.058C542.73 772.271 541.427 770.835 539.64 769.751C537.852 768.667 535.509 768.125 532.608 768.125H519.337L519.337 823.32H508.307L508.307 759.336H532.608C537.559 759.336 541.764 760.215 545.221 761.973C548.707 763.701 551.358 766.104 553.175 769.18C554.991 772.227 555.899 775.713 555.899 779.639C555.899 783.77 554.991 787.314 553.175 790.273C551.358 793.232 548.707 795.503 545.221 797.085C541.764 798.667 537.559 799.458 532.608 799.458ZM575.367 784.824L575.367 823.32H564.776L564.776 775.771H574.884L575.367 784.824ZM589.913 775.464L589.825 785.308C589.181 785.19 588.477 785.103 587.716 785.044C586.983 784.985 586.251 784.956 585.518 784.956C583.702 784.956 582.105 785.22 580.728 785.747C579.351 786.245 578.194 786.978 577.257 787.944C576.349 788.882 575.645 790.024 575.147 791.372C574.649 792.72 574.356 794.229 574.268 795.898L571.851 796.074C571.851 793.086 572.144 790.317 572.73 787.769C573.316 785.22 574.195 782.979 575.367 781.045C576.568 779.111 578.062 777.603 579.849 776.519C581.666 775.435 583.761 774.893 586.134 774.893C586.778 774.893 587.467 774.951 588.199 775.068C588.961 775.186 589.532 775.317 589.913 775.464ZM593.385 800.073L593.385 799.063C593.385 795.635 593.883 792.456 594.879 789.526C595.875 786.567 597.31 784.004 599.185 781.836C601.09 779.639 603.404 777.939 606.129 776.738C608.883 775.508 611.988 774.893 615.445 774.893C618.932 774.893 622.037 775.508 624.762 776.738C627.516 777.939 629.845 779.639 631.749 781.836C633.653 784.004 635.103 786.567 636.099 789.526C637.096 792.456 637.594 795.635 637.594 799.063L637.594 800.073C637.594 803.501 637.096 806.68 636.099 809.609C635.103 812.539 633.653 815.103 631.749 817.3C629.845 819.468 627.53 821.167 624.806 822.397C622.081 823.599 618.99 824.199 615.533 824.199C612.047 824.199 608.927 823.599 606.173 822.397C603.448 821.167 601.134 819.468 599.229 817.3C597.325 815.103 595.875 812.539 594.879 809.609C593.883 806.68 593.385 803.501 593.385 800.073ZM603.975 799.063L603.975 800.073C603.975 802.212 604.195 804.233 604.635 806.138C605.074 808.042 605.763 809.712 606.7 811.147C607.638 812.583 608.839 813.711 610.304 814.531C611.768 815.352 613.512 815.762 615.533 815.762C617.496 815.762 619.195 815.352 620.631 814.531C622.096 813.711 623.297 812.583 624.234 811.147C625.172 809.712 625.86 808.042 626.3 806.138C626.768 804.233 627.003 802.212 627.003 800.073L627.003 799.063C627.003 796.953 626.768 794.961 626.3 793.086C625.86 791.182 625.157 789.497 624.19 788.032C623.253 786.567 622.052 785.425 620.587 784.604C619.151 783.755 617.437 783.33 615.445 783.33C613.453 783.33 611.724 783.755 610.26 784.604C608.824 785.425 607.638 786.567 606.7 788.032C605.763 789.497 605.074 791.182 604.635 793.086C604.195 794.961 603.975 796.953 603.975 799.063ZM665.894 815.762C667.623 815.762 669.176 815.425 670.553 814.751C671.959 814.048 673.087 813.081 673.936 811.851C674.815 810.62 675.299 809.199 675.387 807.588H685.362C685.304 810.664 684.395 813.462 682.638 815.981C680.88 818.501 678.551 820.508 675.65 822.002C672.75 823.467 669.542 824.199 666.026 824.199C662.393 824.199 659.229 823.584 656.534 822.354C653.839 821.094 651.598 819.365 649.81 817.168C648.023 814.971 646.676 812.437 645.767 809.565C644.889 806.694 644.449 803.618 644.449 800.337L644.449 798.799C644.449 795.518 644.889 792.441 645.767 789.57C646.676 786.67 648.023 784.121 649.81 781.924C651.598 779.727 653.839 778.013 656.534 776.782C659.229 775.522 662.379 774.893 665.982 774.893C669.791 774.893 673.131 775.654 676.002 777.178C678.873 778.672 681.129 780.767 682.769 783.462C684.439 786.128 685.304 789.233 685.362 792.778H675.387C675.299 791.021 674.859 789.438 674.068 788.032C673.307 786.597 672.223 785.454 670.816 784.604C669.439 783.755 667.784 783.33 665.85 783.33C663.712 783.33 661.939 783.77 660.533 784.648C659.127 785.498 658.028 786.67 657.237 788.164C656.446 789.629 655.875 791.284 655.523 793.13C655.201 794.946 655.04 796.836 655.04 798.799L655.04 800.337C655.04 802.3 655.201 804.204 655.523 806.05C655.846 807.896 656.402 809.551 657.193 811.016C658.014 812.451 659.127 813.608 660.533 814.487C661.939 815.337 663.726 815.762 665.894 815.762ZM714.454 824.199C710.938 824.199 707.76 823.628 704.918 822.485C702.105 821.313 699.703 819.688 697.711 817.607C695.748 815.527 694.239 813.081 693.184 810.269C692.13 807.456 691.602 804.424 691.602 801.172L691.602 799.414C691.602 795.693 692.144 792.324 693.228 789.307C694.312 786.289 695.821 783.711 697.755 781.572C699.688 779.404 701.974 777.749 704.61 776.606C707.247 775.464 710.103 774.893 713.18 774.893C716.578 774.893 719.552 775.464 722.1 776.606C724.649 777.749 726.759 779.36 728.429 781.44C730.128 783.491 731.388 785.938 732.208 788.779C733.058 791.621 733.482 794.756 733.482 798.184L733.482 802.71H696.744L696.744 795.107H723.023L723.023 794.272C722.965 792.368 722.584 790.581 721.881 788.911C721.207 787.241 720.167 785.894 718.761 784.868C717.354 783.843 715.479 783.33 713.136 783.33C711.378 783.33 709.81 783.711 708.433 784.473C707.086 785.205 705.958 786.274 705.05 787.681C704.141 789.087 703.438 790.786 702.94 792.778C702.472 794.741 702.237 796.953 702.237 799.414L702.237 801.172C702.237 803.252 702.516 805.186 703.072 806.973C703.658 808.73 704.508 810.269 705.621 811.587C706.734 812.905 708.082 813.945 709.664 814.707C711.246 815.439 713.048 815.806 715.069 815.806C717.618 815.806 719.889 815.293 721.881 814.268C723.873 813.242 725.601 811.792 727.066 809.917L732.647 815.322C731.622 816.816 730.289 818.252 728.648 819.629C727.008 820.977 725.001 822.075 722.628 822.925C720.284 823.774 717.559 824.199 714.454 824.199ZM768.419 810.444C768.419 809.39 768.155 808.438 767.628 807.588C767.1 806.709 766.09 805.918 764.596 805.215C763.131 804.512 760.963 803.867 758.092 803.281C755.572 802.725 753.258 802.065 751.148 801.304C749.068 800.513 747.281 799.561 745.787 798.447C744.293 797.334 743.136 796.016 742.315 794.492C741.495 792.969 741.085 791.211 741.085 789.219C741.085 787.285 741.51 785.454 742.359 783.726C743.209 781.997 744.425 780.474 746.007 779.155C747.589 777.837 749.508 776.797 751.764 776.035C754.049 775.273 756.598 774.893 759.41 774.893C763.394 774.893 766.807 775.566 769.649 776.914C772.52 778.232 774.718 780.034 776.241 782.319C777.765 784.575 778.526 787.124 778.526 789.966H767.935C767.935 788.706 767.613 787.534 766.969 786.45C766.353 785.337 765.416 784.443 764.156 783.77C762.896 783.066 761.314 782.715 759.41 782.715C757.594 782.715 756.085 783.008 754.884 783.594C753.712 784.15 752.833 784.883 752.247 785.791C751.69 786.699 751.412 787.695 751.412 788.779C751.412 789.57 751.558 790.288 751.851 790.933C752.174 791.548 752.701 792.119 753.433 792.646C754.166 793.145 755.162 793.613 756.422 794.053C757.711 794.492 759.322 794.917 761.256 795.327C764.889 796.089 768.009 797.07 770.616 798.271C773.253 799.443 775.274 800.967 776.681 802.842C778.087 804.688 778.79 807.031 778.79 809.873C778.79 811.982 778.336 813.916 777.428 815.674C776.549 817.402 775.26 818.911 773.56 820.2C771.861 821.46 769.825 822.441 767.452 823.145C765.108 823.848 762.472 824.199 759.542 824.199C755.235 824.199 751.588 823.438 748.599 821.914C745.611 820.361 743.341 818.384 741.788 815.981C740.265 813.55 739.503 811.03 739.503 808.423H749.742C749.859 810.386 750.401 811.953 751.368 813.125C752.364 814.268 753.595 815.103 755.059 815.63C756.554 816.128 758.092 816.377 759.674 816.377C761.578 816.377 763.175 816.128 764.464 815.63C765.753 815.103 766.734 814.399 767.408 813.521C768.082 812.612 768.419 811.587 768.419 810.444ZM814.737 810.444C814.737 809.39 814.474 808.438 813.946 807.588C813.419 806.709 812.408 805.918 810.914 805.215C809.449 804.512 807.281 803.867 804.41 803.281C801.891 802.725 799.576 802.065 797.467 801.304C795.387 800.513 793.599 799.561 792.105 798.447C790.611 797.334 789.454 796.016 788.634 794.492C787.813 792.969 787.403 791.211 787.403 789.219C787.403 787.285 787.828 785.454 788.678 783.726C789.527 781.997 790.743 780.474 792.325 779.155C793.907 777.837 795.826 776.797 798.082 776.035C800.367 775.273 802.916 774.893 805.728 774.893C809.713 774.893 813.126 775.566 815.968 776.914C818.839 778.232 821.036 780.034 822.559 782.319C824.083 784.575 824.845 787.124 824.845 789.966H814.254C814.254 788.706 813.932 787.534 813.287 786.45C812.672 785.337 811.734 784.443 810.474 783.77C809.215 783.066 807.633 782.715 805.728 782.715C803.912 782.715 802.403 783.008 801.202 783.594C800.03 784.15 799.151 784.883 798.565 785.791C798.009 786.699 797.73 787.695 797.73 788.779C797.73 789.57 797.877 790.288 798.17 790.933C798.492 791.548 799.019 792.119 799.752 792.646C800.484 793.145 801.48 793.613 802.74 794.053C804.029 794.492 805.641 794.917 807.574 795.327C811.207 796.089 814.327 797.07 816.934 798.271C819.571 799.443 821.593 800.967 822.999 802.842C824.405 804.688 825.108 807.031 825.108 809.873C825.108 811.982 824.654 813.916 823.746 815.674C822.867 817.402 821.578 818.911 819.879 820.2C818.18 821.46 816.143 822.441 813.77 823.145C811.427 823.848 808.79 824.199 805.86 824.199C801.554 824.199 797.906 823.438 794.918 821.914C791.93 820.361 789.659 818.384 788.106 815.981C786.583 813.55 785.821 811.03 785.821 808.423H796.06C796.178 810.386 796.72 811.953 797.686 813.125C798.683 814.268 799.913 815.103 801.378 815.63C802.872 816.128 804.41 816.377 805.992 816.377C807.896 816.377 809.493 816.128 810.782 815.63C812.071 815.103 813.053 814.399 813.726 813.521C814.4 812.612 814.737 811.587 814.737 810.444ZM832.359 800.073L832.359 799.063C832.359 795.635 832.857 792.456 833.853 789.526C834.849 786.567 836.285 784.004 838.16 781.836C840.064 779.639 842.379 777.939 845.103 776.738C847.857 775.508 850.963 774.893 854.42 774.893C857.906 774.893 861.012 775.508 863.736 776.738C866.49 777.939 868.819 779.639 870.724 781.836C872.628 784.004 874.078 786.567 875.074 789.526C876.07 792.456 876.568 795.635 876.568 799.063L876.568 800.073C876.568 803.501 876.07 806.68 875.074 809.609C874.078 812.539 872.628 815.103 870.724 817.3C868.819 819.468 866.505 821.167 863.78 822.397C861.056 823.599 857.965 824.199 854.508 824.199C851.021 824.199 847.901 823.599 845.147 822.397C842.423 821.167 840.108 819.468 838.204 817.3C836.3 815.103 834.849 812.539 833.853 809.609C832.857 806.68 832.359 803.501 832.359 800.073ZM842.95 799.063L842.95 800.073C842.95 802.212 843.17 804.233 843.609 806.138C844.049 808.042 844.737 809.712 845.675 811.147C846.612 812.583 847.813 813.711 849.278 814.531C850.743 815.352 852.486 815.762 854.508 815.762C856.471 815.762 858.17 815.352 859.605 814.531C861.07 813.711 862.271 812.583 863.209 811.147C864.146 809.712 864.835 808.042 865.274 806.138C865.743 804.233 865.977 802.212 865.977 800.073L865.977 799.063C865.977 796.953 865.743 794.961 865.274 793.086C864.835 791.182 864.132 789.497 863.165 788.032C862.227 786.567 861.026 785.425 859.561 784.604C858.126 783.755 856.412 783.33 854.42 783.33C852.428 783.33 850.699 783.755 849.234 784.604C847.799 785.425 846.612 786.567 845.675 788.032C844.737 789.497 844.049 791.182 843.609 793.086C843.17 794.961 842.95 796.953 842.95 799.063ZM896.08 784.824L896.08 823.32H885.489L885.489 775.771H895.597L896.08 784.824ZM910.626 775.464L910.538 785.308C909.893 785.19 909.19 785.103 908.429 785.044C907.696 784.985 906.964 784.956 906.231 784.956C904.415 784.956 902.818 785.22 901.441 785.747C900.064 786.245 898.907 786.978 897.97 787.944C897.061 788.882 896.358 790.024 895.86 791.372C895.362 792.72 895.069 794.229 894.981 795.898L892.564 796.074C892.564 793.086 892.857 790.317 893.443 787.769C894.029 785.22 894.908 782.979 896.08 781.045C897.281 779.111 898.775 777.603 900.562 776.519C902.379 775.435 904.474 774.893 906.847 774.893C907.491 774.893 908.18 774.951 908.912 775.068C909.674 775.186 910.245 775.317 910.626 775.464Z" fill="white"/>
<path d="M385.655 630.964H371.988L372.076 622.219H385.655C389.61 622.219 392.921 621.355 395.587 619.626C398.282 617.898 400.304 615.422 401.651 612.199C403.028 608.977 403.717 605.139 403.717 600.686L403.717 597.214C403.717 593.757 403.321 590.696 402.53 588.03C401.768 585.364 400.626 583.122 399.102 581.306C397.608 579.49 395.763 578.113 393.565 577.175C391.397 576.238 388.892 575.769 386.051 575.769H371.724L371.724 566.98H386.051C390.299 566.98 394.181 567.698 397.696 569.133C401.212 570.539 404.244 572.575 406.793 575.241C409.371 577.907 411.349 581.101 412.725 584.822C414.102 588.542 414.791 592.702 414.791 597.302L414.791 600.686C414.791 605.285 414.102 609.446 412.725 613.166C411.349 616.887 409.371 620.08 406.793 622.746C404.215 625.383 401.139 627.419 397.564 628.855C394.019 630.261 390.05 630.964 385.655 630.964ZM378.097 566.98L378.097 630.964H367.066L367.066 566.98H378.097ZM451.617 621.428L451.617 598.752C451.617 597.053 451.309 595.588 450.694 594.358C450.079 593.127 449.141 592.175 447.882 591.501C446.651 590.827 445.099 590.49 443.224 590.49C441.495 590.49 440.001 590.783 438.741 591.369C437.481 591.955 436.5 592.746 435.797 593.742C435.094 594.739 434.742 595.866 434.742 597.126H424.195C424.195 595.251 424.649 593.435 425.558 591.677C426.466 589.919 427.784 588.352 429.513 586.975C431.241 585.598 433.307 584.514 435.709 583.723C438.111 582.932 440.807 582.536 443.795 582.536C447.369 582.536 450.533 583.137 453.287 584.338C456.07 585.539 458.253 587.356 459.835 589.787C461.446 592.19 462.252 595.207 462.252 598.84L462.252 619.978C462.252 622.146 462.398 624.094 462.691 625.823C463.014 627.522 463.468 629.001 464.054 630.261L464.054 630.964H453.199C452.701 629.822 452.306 628.371 452.013 626.614C451.749 624.826 451.617 623.098 451.617 621.428ZM453.155 602.048L453.243 608.596H445.641C443.678 608.596 441.949 608.786 440.455 609.167C438.961 609.519 437.716 610.046 436.72 610.749C435.724 611.452 434.976 612.302 434.478 613.298C433.98 614.294 433.731 615.422 433.731 616.682C433.731 617.942 434.024 619.099 434.61 620.154C435.196 621.179 436.046 621.985 437.159 622.571C438.302 623.156 439.679 623.449 441.29 623.449C443.458 623.449 445.348 623.01 446.959 622.131C448.599 621.223 449.889 620.124 450.826 618.835C451.764 617.517 452.262 616.272 452.32 615.1L455.748 619.802C455.396 621.003 454.796 622.292 453.946 623.669C453.097 625.046 451.983 626.365 450.606 627.624C449.259 628.855 447.633 629.865 445.728 630.656C443.853 631.448 441.685 631.843 439.224 631.843C436.119 631.843 433.35 631.228 430.919 629.997C428.487 628.738 426.583 627.053 425.206 624.944C423.829 622.805 423.141 620.388 423.141 617.693C423.141 615.173 423.609 612.947 424.547 611.013C425.514 609.05 426.92 607.409 428.766 606.091C430.641 604.773 432.926 603.777 435.621 603.103C438.316 602.4 441.392 602.048 444.849 602.048H453.155ZM495.123 583.415L495.123 591.15H468.316L468.316 583.415H495.123ZM476.051 571.77H486.641L486.641 617.824C486.641 619.289 486.847 620.417 487.257 621.208C487.696 621.97 488.297 622.483 489.058 622.746C489.82 623.01 490.714 623.142 491.739 623.142C492.472 623.142 493.175 623.098 493.849 623.01C494.522 622.922 495.064 622.834 495.474 622.746L495.518 630.832C494.64 631.096 493.614 631.33 492.442 631.535C491.3 631.74 489.981 631.843 488.487 631.843C486.056 631.843 483.902 631.418 482.027 630.569C480.152 629.69 478.687 628.269 477.633 626.306C476.578 624.343 476.051 621.736 476.051 618.484L476.051 571.77ZM530.103 621.428L530.103 598.752C530.103 597.053 529.796 595.588 529.181 594.358C528.565 593.127 527.628 592.175 526.368 591.501C525.138 590.827 523.585 590.49 521.71 590.49C519.981 590.49 518.487 590.783 517.227 591.369C515.968 591.955 514.986 592.746 514.283 593.742C513.58 594.739 513.228 595.866 513.228 597.126H502.682C502.682 595.251 503.136 593.435 504.044 591.677C504.952 589.919 506.27 588.352 507.999 586.975C509.727 585.598 511.793 584.514 514.195 583.723C516.598 582.932 519.293 582.536 522.281 582.536C525.855 582.536 529.019 583.137 531.773 584.338C534.557 585.539 536.739 587.356 538.321 589.787C539.933 592.19 540.738 595.207 540.738 598.84L540.738 619.978C540.738 622.146 540.885 624.094 541.178 625.823C541.5 627.522 541.954 629.001 542.54 630.261L542.54 630.964H531.685C531.187 629.822 530.792 628.371 530.499 626.614C530.235 624.826 530.103 623.098 530.103 621.428ZM531.641 602.048L531.729 608.596H524.127C522.164 608.596 520.435 608.786 518.941 609.167C517.447 609.519 516.202 610.046 515.206 610.749C514.21 611.452 513.463 612.302 512.965 613.298C512.467 614.294 512.218 615.422 512.218 616.682C512.218 617.942 512.511 619.099 513.097 620.154C513.683 621.179 514.532 621.985 515.645 622.571C516.788 623.156 518.165 623.449 519.776 623.449C521.944 623.449 523.834 623.01 525.445 622.131C527.086 621.223 528.375 620.124 529.312 618.835C530.25 617.517 530.748 616.272 530.807 615.1L534.234 619.802C533.883 621.003 533.282 622.292 532.433 623.669C531.583 625.046 530.47 626.365 529.093 627.624C527.745 628.855 526.119 629.865 524.215 630.656C522.34 631.448 520.172 631.843 517.711 631.843C514.605 631.843 511.837 631.228 509.405 629.997C506.974 628.738 505.069 627.053 503.692 624.944C502.315 622.805 501.627 620.388 501.627 617.693C501.627 615.173 502.096 612.947 503.033 611.013C504 609.05 505.406 607.409 507.252 606.091C509.127 604.773 511.412 603.777 514.107 603.103C516.803 602.4 519.879 602.048 523.336 602.048H531.641ZM551.856 563.464H562.447L562.447 620.813L561.436 630.964H551.856L551.856 563.464ZM593.473 606.75L593.473 607.673C593.473 611.189 593.077 614.426 592.286 617.385C591.524 620.315 590.352 622.864 588.77 625.031C587.218 627.199 585.284 628.884 582.97 630.085C580.684 631.257 578.033 631.843 575.016 631.843C572.057 631.843 569.478 631.286 567.281 630.173C565.084 629.06 563.238 627.478 561.744 625.427C560.279 623.376 559.093 620.93 558.184 618.088C557.276 615.246 556.632 612.112 556.251 608.684L556.251 605.74C556.632 602.282 557.276 599.148 558.184 596.335C559.093 593.493 560.279 591.047 561.744 588.996C563.238 586.916 565.069 585.32 567.237 584.206C569.434 583.093 571.998 582.536 574.928 582.536C577.974 582.536 580.655 583.122 582.97 584.294C585.313 585.466 587.262 587.136 588.814 589.304C590.367 591.443 591.524 593.991 592.286 596.95C593.077 599.909 593.473 603.176 593.473 606.75ZM582.882 607.673L582.882 606.75C582.882 604.612 582.706 602.605 582.354 600.73C582.003 598.825 581.417 597.156 580.597 595.72C579.806 594.284 578.722 593.156 577.345 592.336C575.997 591.487 574.312 591.062 572.291 591.062C570.416 591.062 568.805 591.384 567.457 592.029C566.109 592.673 564.981 593.552 564.073 594.665C563.165 595.779 562.447 597.068 561.92 598.532C561.422 599.997 561.085 601.579 560.909 603.279L560.909 611.233C561.173 613.43 561.729 615.451 562.579 617.297C563.458 619.114 564.688 620.578 566.27 621.692C567.852 622.776 569.889 623.318 572.379 623.318C574.342 623.318 575.997 622.922 577.345 622.131C578.692 621.34 579.762 620.241 580.553 618.835C581.373 617.4 581.959 615.73 582.31 613.825C582.691 611.921 582.882 609.87 582.882 607.673ZM629.244 621.428L629.244 598.752C629.244 597.053 628.936 595.588 628.321 594.358C627.706 593.127 626.768 592.175 625.509 591.501C624.278 590.827 622.725 590.49 620.85 590.49C619.122 590.49 617.628 590.783 616.368 591.369C615.108 591.955 614.127 592.746 613.424 593.742C612.721 594.739 612.369 595.866 612.369 597.126H601.822C601.822 595.251 602.276 593.435 603.184 591.677C604.093 589.919 605.411 588.352 607.14 586.975C608.868 585.598 610.933 584.514 613.336 583.723C615.738 582.932 618.433 582.536 621.422 582.536C624.996 582.536 628.16 583.137 630.914 584.338C633.697 585.539 635.88 587.356 637.462 589.787C639.073 592.19 639.879 595.207 639.879 598.84L639.879 619.978C639.879 622.146 640.025 624.094 640.318 625.823C640.641 627.522 641.095 629.001 641.681 630.261L641.681 630.964H630.826C630.328 629.822 629.933 628.371 629.64 626.614C629.376 624.826 629.244 623.098 629.244 621.428ZM630.782 602.048L630.87 608.596H623.267C621.305 608.596 619.576 608.786 618.082 609.167C616.588 609.519 615.343 610.046 614.347 610.749C613.35 611.452 612.603 612.302 612.105 613.298C611.607 614.294 611.358 615.422 611.358 616.682C611.358 617.942 611.651 619.099 612.237 620.154C612.823 621.179 613.673 621.985 614.786 622.571C615.929 623.156 617.306 623.449 618.917 623.449C621.085 623.449 622.974 623.01 624.586 622.131C626.226 621.223 627.516 620.124 628.453 618.835C629.391 617.517 629.889 616.272 629.947 615.1L633.375 619.802C633.023 621.003 632.423 622.292 631.573 623.669C630.724 625.046 629.61 626.365 628.233 627.624C626.886 628.855 625.26 629.865 623.355 630.656C621.48 631.448 619.312 631.843 616.851 631.843C613.746 631.843 610.977 631.228 608.546 629.997C606.114 628.738 604.21 627.053 602.833 624.944C601.456 622.805 600.767 620.388 600.767 617.693C600.767 615.173 601.236 612.947 602.174 611.013C603.141 609.05 604.547 607.409 606.392 606.091C608.267 604.773 610.553 603.777 613.248 603.103C615.943 602.4 619.019 602.048 622.476 602.048H630.782ZM677.628 618.088C677.628 617.033 677.364 616.081 676.837 615.232C676.309 614.353 675.299 613.562 673.805 612.859C672.34 612.156 670.172 611.511 667.301 610.925C664.781 610.368 662.467 609.709 660.357 608.948C658.277 608.156 656.49 607.204 654.996 606.091C653.502 604.978 652.345 603.659 651.524 602.136C650.704 600.613 650.294 598.855 650.294 596.863C650.294 594.929 650.719 593.098 651.568 591.369C652.418 589.641 653.634 588.117 655.216 586.799C656.798 585.481 658.717 584.441 660.973 583.679C663.258 582.917 665.807 582.536 668.619 582.536C672.603 582.536 676.016 583.21 678.858 584.558C681.729 585.876 683.927 587.678 685.45 589.963C686.974 592.219 687.735 594.768 687.735 597.61H677.144C677.144 596.35 676.822 595.178 676.178 594.094C675.562 592.981 674.625 592.087 673.365 591.413C672.105 590.71 670.523 590.359 668.619 590.359C666.803 590.359 665.294 590.652 664.093 591.238C662.921 591.794 662.042 592.527 661.456 593.435C660.899 594.343 660.621 595.339 660.621 596.423C660.621 597.214 660.767 597.932 661.06 598.576C661.383 599.192 661.91 599.763 662.642 600.29C663.375 600.788 664.371 601.257 665.631 601.697C666.92 602.136 668.531 602.561 670.465 602.971C674.098 603.733 677.218 604.714 679.825 605.915C682.462 607.087 684.483 608.611 685.89 610.486C687.296 612.331 687.999 614.675 687.999 617.517C687.999 619.626 687.545 621.56 686.637 623.318C685.758 625.046 684.469 626.555 682.769 627.844C681.07 629.104 679.034 630.085 676.661 630.788C674.317 631.491 671.681 631.843 668.751 631.843C664.444 631.843 660.797 631.081 657.808 629.558C654.82 628.005 652.55 626.028 650.997 623.625C649.474 621.194 648.712 618.674 648.712 616.067H658.951C659.068 618.03 659.61 619.597 660.577 620.769C661.573 621.911 662.804 622.746 664.268 623.274C665.763 623.772 667.301 624.021 668.883 624.021C670.787 624.021 672.384 623.772 673.673 623.274C674.962 622.746 675.943 622.043 676.617 621.164C677.291 620.256 677.628 619.231 677.628 618.088ZM718.233 631.843C714.718 631.843 711.539 631.272 708.697 630.129C705.885 628.957 703.482 627.331 701.49 625.251C699.527 623.171 698.018 620.725 696.964 617.912C695.909 615.1 695.382 612.068 695.382 608.816L695.382 607.058C695.382 603.337 695.924 599.968 697.008 596.95C698.092 593.933 699.6 591.355 701.534 589.216C703.468 587.048 705.753 585.393 708.39 584.25C711.026 583.108 713.883 582.536 716.959 582.536C720.357 582.536 723.331 583.108 725.88 584.25C728.429 585.393 730.538 587.004 732.208 589.084C733.907 591.135 735.167 593.581 735.987 596.423C736.837 599.265 737.262 602.4 737.262 605.827L737.262 610.354H700.523L700.523 602.751H726.803L726.803 601.916C726.744 600.012 726.363 598.225 725.66 596.555C724.986 594.885 723.946 593.537 722.54 592.512C721.134 591.487 719.259 590.974 716.915 590.974C715.157 590.974 713.59 591.355 712.213 592.116C710.865 592.849 709.737 593.918 708.829 595.324C707.921 596.731 707.218 598.43 706.72 600.422C706.251 602.385 706.016 604.597 706.016 607.058L706.016 608.816C706.016 610.896 706.295 612.829 706.851 614.616C707.437 616.374 708.287 617.912 709.4 619.231C710.514 620.549 711.861 621.589 713.443 622.351C715.025 623.083 716.827 623.449 718.849 623.449C721.397 623.449 723.668 622.937 725.66 621.911C727.652 620.886 729.381 619.436 730.846 617.561L736.427 622.966C735.401 624.46 734.068 625.896 732.428 627.273C730.787 628.62 728.78 629.719 726.407 630.569C724.063 631.418 721.339 631.843 718.233 631.843Z" fill="white"/>
<path d="M369.483 384.149L350.367 439.608H338.809L362.891 375.624H370.274L369.483 384.149ZM385.479 439.608L366.319 384.149L365.484 375.624H372.911L397.081 439.608H385.479ZM384.557 415.878L384.557 424.623L349.752 424.623L349.752 415.878H384.557ZM428.546 415.746H411.891L411.891 407.001H428.546C431.446 407.001 433.79 406.532 435.577 405.594C437.364 404.657 438.668 403.368 439.488 401.727C440.338 400.057 440.763 398.153 440.763 396.014C440.763 393.993 440.338 392.103 439.488 390.345C438.668 388.558 437.364 387.123 435.577 386.039C433.79 384.955 431.446 384.413 428.546 384.413H415.274L415.274 439.608H404.244L404.244 375.624H428.546C433.497 375.624 437.701 376.503 441.158 378.26C444.644 379.989 447.296 382.391 449.112 385.468C450.929 388.514 451.837 392.001 451.837 395.927C451.837 400.057 450.929 403.602 449.112 406.561C447.296 409.52 444.644 411.791 441.158 413.373C437.701 414.955 433.497 415.746 428.546 415.746ZM473.502 375.624L473.502 439.608H462.472L462.472 375.624H473.502ZM543.287 423.129C543.287 421.81 543.082 420.638 542.672 419.613C542.291 418.588 541.602 417.65 540.606 416.801C539.61 415.951 538.204 415.131 536.388 414.34C534.6 413.519 532.315 412.684 529.532 411.835C526.485 410.897 523.673 409.857 521.095 408.715C518.546 407.543 516.319 406.195 514.415 404.672C512.511 403.119 511.031 401.346 509.976 399.354C508.922 397.333 508.394 395.004 508.394 392.367C508.394 389.76 508.936 387.386 510.02 385.248C511.134 383.109 512.701 381.263 514.723 379.711C516.773 378.129 519.19 376.913 521.974 376.063C524.757 375.184 527.833 374.745 531.202 374.745C535.948 374.745 540.035 375.624 543.463 377.382C546.92 379.139 549.571 381.498 551.417 384.457C553.292 387.416 554.229 390.682 554.229 394.257H543.287C543.287 392.147 542.833 390.287 541.925 388.676C541.046 387.035 539.698 385.746 537.882 384.808C536.095 383.871 533.824 383.402 531.07 383.402C528.463 383.402 526.295 383.798 524.566 384.589C522.838 385.38 521.549 386.449 520.699 387.797C519.849 389.144 519.425 390.668 519.425 392.367C519.425 393.568 519.703 394.667 520.26 395.663C520.816 396.63 521.666 397.538 522.808 398.387C523.951 399.208 525.387 399.984 527.115 400.717C528.844 401.449 530.88 402.152 533.224 402.826C536.768 403.881 539.859 405.052 542.496 406.342C545.133 407.601 547.33 409.037 549.088 410.648C550.846 412.26 552.164 414.091 553.043 416.141C553.922 418.163 554.361 420.463 554.361 423.041C554.361 425.736 553.819 428.168 552.735 430.336C551.651 432.474 550.099 434.305 548.077 435.829C546.085 437.323 543.683 438.48 540.87 439.301C538.087 440.092 534.981 440.487 531.554 440.487C528.477 440.487 525.445 440.077 522.457 439.257C519.498 438.436 516.803 437.191 514.371 435.521C511.939 433.822 510.006 431.713 508.57 429.193C507.135 426.644 506.417 423.671 506.417 420.272H517.447C517.447 422.352 517.799 424.125 518.502 425.59C519.234 427.054 520.245 428.256 521.534 429.193C522.823 430.101 524.317 430.775 526.016 431.215C527.745 431.654 529.591 431.874 531.554 431.874C534.132 431.874 536.285 431.508 538.014 430.775C539.771 430.043 541.09 429.017 541.969 427.699C542.848 426.381 543.287 424.857 543.287 423.129ZM584.024 440.487C580.509 440.487 577.33 439.916 574.488 438.773C571.676 437.601 569.273 435.975 567.281 433.895C565.318 431.815 563.809 429.369 562.755 426.556C561.7 423.744 561.173 420.712 561.173 417.46L561.173 415.702C561.173 411.981 561.715 408.612 562.799 405.594C563.883 402.577 565.391 399.999 567.325 397.86C569.259 395.692 571.544 394.037 574.181 392.894C576.817 391.752 579.674 391.18 582.75 391.18C586.148 391.18 589.122 391.752 591.671 392.894C594.22 394.037 596.329 395.648 597.999 397.728C599.698 399.779 600.958 402.225 601.778 405.067C602.628 407.909 603.053 411.044 603.053 414.471L603.053 418.998H566.314L566.314 411.395H592.594L592.594 410.56C592.535 408.656 592.154 406.869 591.451 405.199C590.777 403.529 589.737 402.181 588.331 401.156C586.925 400.131 585.05 399.618 582.706 399.618C580.948 399.618 579.381 399.999 578.004 400.76C576.656 401.493 575.528 402.562 574.62 403.969C573.712 405.375 573.009 407.074 572.511 409.066C572.042 411.029 571.808 413.241 571.808 415.702L571.808 417.46C571.808 419.54 572.086 421.473 572.642 423.26C573.228 425.018 574.078 426.556 575.191 427.875C576.305 429.193 577.652 430.233 579.234 430.995C580.816 431.727 582.618 432.094 584.64 432.094C587.188 432.094 589.459 431.581 591.451 430.555C593.443 429.53 595.172 428.08 596.637 426.205L602.218 431.61C601.192 433.104 599.859 434.54 598.219 435.917C596.578 437.264 594.571 438.363 592.198 439.213C589.854 440.062 587.13 440.487 584.024 440.487ZM621.949 401.112L621.949 439.608H611.358L611.358 392.059H621.466L621.949 401.112ZM636.495 391.752L636.407 401.595C635.763 401.478 635.059 401.39 634.298 401.332C633.565 401.273 632.833 401.244 632.1 401.244C630.284 401.244 628.687 401.508 627.31 402.035C625.933 402.533 624.776 403.265 623.839 404.232C622.931 405.17 622.227 406.312 621.729 407.66C621.231 409.008 620.938 410.516 620.85 412.186L618.433 412.362C618.433 409.374 618.726 406.605 619.312 404.056C619.898 401.508 620.777 399.266 621.949 397.333C623.15 395.399 624.644 393.89 626.432 392.806C628.248 391.722 630.343 391.18 632.716 391.18C633.36 391.18 634.049 391.239 634.781 391.356C635.543 391.473 636.114 391.605 636.495 391.752ZM659.391 431.215L671.036 392.059H682.022L665.499 439.608H658.643L659.391 431.215ZM650.47 392.059L662.335 431.39L662.906 439.608H656.051L639.439 392.059H650.47ZM708.917 440.487C705.401 440.487 702.223 439.916 699.381 438.773C696.568 437.601 694.166 435.975 692.174 433.895C690.211 431.815 688.702 429.369 687.647 426.556C686.593 423.744 686.065 420.712 686.065 417.46L686.065 415.702C686.065 411.981 686.607 408.612 687.691 405.594C688.775 402.577 690.284 399.999 692.218 397.86C694.151 395.692 696.436 394.037 699.073 392.894C701.71 391.752 704.566 391.18 707.642 391.18C711.041 391.18 714.015 391.752 716.563 392.894C719.112 394.037 721.222 395.648 722.891 397.728C724.591 399.779 725.85 402.225 726.671 405.067C727.52 407.909 727.945 411.044 727.945 414.471L727.945 418.998H691.207L691.207 411.395H717.486L717.486 410.56C717.428 408.656 717.047 406.869 716.344 405.199C715.67 403.529 714.63 402.181 713.224 401.156C711.817 400.131 709.942 399.618 707.599 399.618C705.841 399.618 704.273 399.999 702.896 400.76C701.549 401.493 700.421 402.562 699.513 403.969C698.604 405.375 697.901 407.074 697.403 409.066C696.934 411.029 696.7 413.241 696.7 415.702L696.7 417.46C696.7 419.54 696.978 421.473 697.535 423.26C698.121 425.018 698.971 426.556 700.084 427.875C701.197 429.193 702.545 430.233 704.127 430.995C705.709 431.727 707.511 432.094 709.532 432.094C712.081 432.094 714.351 431.581 716.344 430.555C718.336 429.53 720.064 428.08 721.529 426.205L727.11 431.61C726.085 433.104 724.752 434.54 723.111 435.917C721.471 437.264 719.464 438.363 717.091 439.213C714.747 440.062 712.022 440.487 708.917 440.487ZM746.842 401.112L746.842 439.608H736.251L736.251 392.059H746.358L746.842 401.112ZM761.388 391.752L761.3 401.595C760.655 401.478 759.952 401.39 759.19 401.332C758.458 401.273 757.725 401.244 756.993 401.244C755.177 401.244 753.58 401.508 752.203 402.035C750.826 402.533 749.669 403.265 748.731 404.232C747.823 405.17 747.12 406.312 746.622 407.66C746.124 409.008 745.831 410.516 745.743 412.186L743.326 412.362C743.326 409.374 743.619 406.605 744.205 404.056C744.791 401.508 745.67 399.266 746.842 397.333C748.043 395.399 749.537 393.89 751.324 392.806C753.141 391.722 755.235 391.18 757.608 391.18C758.253 391.18 758.941 391.239 759.674 391.356C760.435 391.473 761.007 391.605 761.388 391.752Z" fill="white"/>
<rect x="32" y="893" width="580" height="1036" transform="rotate(-90 32 893)" stroke="#2FA4DA" stroke-width="8"/>
<path d="M1178.31 1002.91L1191.4 1033.77L1204.53 1002.91H1222.99L1200.14 1048.46V1074H1182.71V1048.46L1159.8 1002.91H1178.31ZM1222.16 1048.12V1047.1C1222.16 1043.22 1222.71 1039.66 1223.82 1036.4C1224.93 1033.11 1226.55 1030.27 1228.7 1027.86C1230.85 1025.45 1233.5 1023.58 1236.66 1022.24C1239.82 1020.88 1243.46 1020.19 1247.6 1020.19C1251.76 1020.19 1255.43 1020.88 1258.58 1022.24C1261.77 1023.58 1264.44 1025.45 1266.59 1027.86C1268.74 1030.27 1270.37 1033.11 1271.47 1036.4C1272.58 1039.66 1273.13 1043.22 1273.13 1047.1V1048.12C1273.13 1051.96 1272.58 1055.53 1271.47 1058.81C1270.37 1062.07 1268.74 1064.92 1266.59 1067.36C1264.44 1069.77 1261.79 1071.64 1258.63 1072.97C1255.48 1074.31 1251.83 1074.98 1247.7 1074.98C1243.56 1074.98 1239.9 1074.31 1236.71 1072.97C1233.52 1071.64 1230.85 1069.77 1228.7 1067.36C1226.55 1064.92 1224.93 1062.07 1223.82 1058.81C1222.71 1055.53 1222.16 1051.96 1222.16 1048.12ZM1238.61 1047.1V1048.12C1238.61 1050.11 1238.76 1051.96 1239.05 1053.69C1239.35 1055.41 1239.83 1056.93 1240.52 1058.23C1241.2 1059.5 1242.13 1060.49 1243.3 1061.21C1244.47 1061.92 1245.94 1062.28 1247.7 1062.28C1249.42 1062.28 1250.85 1061.92 1251.99 1061.21C1253.16 1060.49 1254.09 1059.5 1254.78 1058.23C1255.46 1056.93 1255.95 1055.41 1256.24 1053.69C1256.53 1051.96 1256.68 1050.11 1256.68 1048.12V1047.1C1256.68 1045.18 1256.53 1043.37 1256.24 1041.68C1255.95 1039.95 1255.46 1038.44 1254.78 1037.13C1254.09 1035.8 1253.16 1034.76 1251.99 1034.01C1250.82 1033.26 1249.36 1032.89 1247.6 1032.89C1245.87 1032.89 1244.42 1033.26 1243.25 1034.01C1242.11 1034.76 1241.2 1035.8 1240.52 1037.13C1239.83 1038.44 1239.35 1039.95 1239.05 1041.68C1238.76 1043.37 1238.61 1045.18 1238.61 1047.1ZM1311.32 1061.16V1021.17H1327.82V1074H1312.39L1311.32 1061.16ZM1312.88 1050.42L1317.18 1050.32C1317.18 1053.87 1316.75 1057.15 1315.91 1060.18C1315.06 1063.18 1313.81 1065.78 1312.15 1067.99C1310.52 1070.21 1308.5 1071.93 1306.09 1073.17C1303.72 1074.37 1300.97 1074.98 1297.84 1074.98C1295.24 1074.98 1292.85 1074.62 1290.66 1073.9C1288.52 1073.15 1286.66 1072 1285.1 1070.44C1283.54 1068.84 1282.31 1066.81 1281.44 1064.33C1280.59 1061.83 1280.17 1058.83 1280.17 1055.35V1021.17H1296.62V1055.45C1296.62 1056.62 1296.77 1057.63 1297.06 1058.47C1297.35 1059.32 1297.78 1060.04 1298.33 1060.62C1298.88 1061.17 1299.57 1061.6 1300.38 1061.89C1301.23 1062.15 1302.19 1062.28 1303.26 1062.28C1305.74 1062.28 1307.67 1061.76 1309.07 1060.72C1310.47 1059.68 1311.45 1058.26 1312 1056.47C1312.59 1054.68 1312.88 1052.66 1312.88 1050.42ZM1353.51 1034.25V1074H1337.05V1021.17H1352.43L1353.51 1034.25ZM1369.13 1020.78L1368.84 1036.06C1368.19 1036 1367.31 1035.91 1366.2 1035.82C1365.09 1035.72 1364.17 1035.67 1363.42 1035.67C1361.5 1035.67 1359.84 1035.9 1358.44 1036.35C1357.07 1036.78 1355.93 1037.43 1355.02 1038.31C1354.14 1039.15 1353.49 1040.23 1353.07 1041.53C1352.68 1042.83 1352.5 1044.35 1352.53 1046.07L1349.55 1044.12C1349.55 1040.57 1349.89 1037.35 1350.58 1034.45C1351.29 1031.52 1352.3 1029 1353.6 1026.88C1354.91 1024.73 1356.48 1023.09 1358.34 1021.95C1360.2 1020.78 1362.28 1020.19 1364.59 1020.19C1365.4 1020.19 1366.2 1020.24 1366.98 1020.34C1367.8 1020.44 1368.51 1020.58 1369.13 1020.78ZM1423.57 1074H1407.8L1407.9 1060.82H1423.57C1426.83 1060.82 1429.58 1060.04 1431.83 1058.47C1434.1 1056.91 1435.83 1054.58 1437 1051.49C1438.21 1048.37 1438.81 1044.52 1438.81 1039.97V1036.89C1438.81 1033.47 1438.47 1030.48 1437.78 1027.91C1437.13 1025.3 1436.16 1023.14 1434.85 1021.41C1433.55 1019.65 1431.92 1018.34 1429.97 1017.46C1428.05 1016.58 1425.84 1016.14 1423.33 1016.14H1407.51V1002.91H1423.33C1428.15 1002.91 1432.56 1003.74 1436.56 1005.4C1440.6 1007.02 1444.08 1009.37 1447.01 1012.43C1449.97 1015.46 1452.25 1019.05 1453.85 1023.22C1455.48 1027.35 1456.29 1031.94 1456.29 1036.99V1039.97C1456.29 1044.98 1455.48 1049.57 1453.85 1053.74C1452.25 1057.9 1449.99 1061.5 1447.06 1064.53C1444.13 1067.55 1440.66 1069.9 1436.66 1071.56C1432.69 1073.19 1428.33 1074 1423.57 1074ZM1417.62 1002.91V1074H1400.48V1002.91H1417.62ZM1491.88 1060.72V1038.94C1491.88 1037.44 1491.67 1036.16 1491.25 1035.08C1490.83 1034.01 1490.16 1033.18 1489.25 1032.59C1488.34 1031.98 1487.12 1031.67 1485.59 1031.67C1484.35 1031.67 1483.29 1031.88 1482.41 1032.3C1481.53 1032.72 1480.87 1033.36 1480.41 1034.21C1479.95 1035.05 1479.73 1036.13 1479.73 1037.43H1463.27C1463.27 1034.99 1463.81 1032.72 1464.88 1030.64C1465.99 1028.52 1467.55 1026.69 1469.57 1025.12C1471.62 1023.56 1474.06 1022.36 1476.89 1021.51C1479.76 1020.63 1482.95 1020.19 1486.46 1020.19C1490.66 1020.19 1494.41 1020.89 1497.7 1022.29C1501.02 1023.69 1503.64 1025.79 1505.56 1028.59C1507.48 1031.36 1508.44 1034.84 1508.44 1039.04V1060.67C1508.44 1064.12 1508.63 1066.74 1509.02 1068.53C1509.41 1070.29 1509.97 1071.84 1510.68 1073.17V1074H1494.18C1493.4 1072.37 1492.81 1070.39 1492.42 1068.04C1492.06 1065.67 1491.88 1063.23 1491.88 1060.72ZM1493.89 1041.72L1493.98 1050.51H1486.71C1485.18 1050.51 1483.88 1050.73 1482.8 1051.15C1481.76 1051.57 1480.91 1052.16 1480.26 1052.91C1479.65 1053.62 1479.19 1054.44 1478.9 1055.35C1478.64 1056.26 1478.51 1057.22 1478.51 1058.23C1478.51 1059.21 1478.73 1060.08 1479.19 1060.87C1479.68 1061.61 1480.33 1062.2 1481.14 1062.62C1481.96 1063.05 1482.87 1063.26 1483.88 1063.26C1485.7 1063.26 1487.25 1062.92 1488.52 1062.23C1489.82 1061.52 1490.81 1060.65 1491.49 1059.64C1492.18 1058.64 1492.52 1057.69 1492.52 1056.81L1496.13 1063.55C1495.48 1064.85 1494.73 1066.17 1493.89 1067.51C1493.07 1068.84 1492.05 1070.08 1490.81 1071.22C1489.61 1072.32 1488.12 1073.24 1486.37 1073.95C1484.61 1074.63 1482.48 1074.98 1479.97 1074.98C1476.72 1074.98 1473.72 1074.31 1470.99 1072.97C1468.28 1071.64 1466.12 1069.78 1464.49 1067.41C1462.86 1065 1462.05 1062.23 1462.05 1059.11C1462.05 1056.37 1462.54 1053.93 1463.52 1051.78C1464.52 1049.63 1466.04 1047.81 1468.06 1046.31C1470.07 1044.82 1472.65 1043.68 1475.77 1042.9C1478.9 1042.12 1482.57 1041.72 1486.81 1041.72H1493.89ZM1545.4 1021.17V1032.59H1513.56V1021.17H1545.4ZM1520.25 1008.03H1536.71V1056.76C1536.71 1058.16 1536.87 1059.25 1537.2 1060.04C1537.52 1060.78 1538.08 1061.32 1538.86 1061.65C1539.67 1061.94 1540.75 1062.09 1542.08 1062.09C1543.02 1062.09 1543.81 1062.07 1544.42 1062.04C1545.04 1061.97 1545.63 1061.89 1546.18 1061.79V1073.56C1544.78 1074.02 1543.32 1074.36 1541.79 1074.59C1540.26 1074.85 1538.63 1074.98 1536.9 1074.98C1533.39 1074.98 1530.38 1074.42 1527.87 1073.32C1525.4 1072.21 1523.51 1070.47 1522.21 1068.09C1520.9 1065.72 1520.25 1062.62 1520.25 1058.81V1008.03ZM1579.38 1060.72V1038.94C1579.38 1037.44 1579.17 1036.16 1578.75 1035.08C1578.33 1034.01 1577.66 1033.18 1576.75 1032.59C1575.84 1031.98 1574.62 1031.67 1573.09 1031.67C1571.85 1031.67 1570.79 1031.88 1569.91 1032.3C1569.03 1032.72 1568.37 1033.36 1567.91 1034.21C1567.45 1035.05 1567.23 1036.13 1567.23 1037.43H1550.77C1550.77 1034.99 1551.31 1032.72 1552.38 1030.64C1553.49 1028.52 1555.05 1026.69 1557.07 1025.12C1559.12 1023.56 1561.56 1022.36 1564.39 1021.51C1567.26 1020.63 1570.45 1020.19 1573.96 1020.19C1578.16 1020.19 1581.91 1020.89 1585.2 1022.29C1588.52 1023.69 1591.14 1025.79 1593.06 1028.59C1594.98 1031.36 1595.94 1034.84 1595.94 1039.04V1060.67C1595.94 1064.12 1596.13 1066.74 1596.52 1068.53C1596.91 1070.29 1597.47 1071.84 1598.18 1073.17V1074H1581.68C1580.9 1072.37 1580.31 1070.39 1579.92 1068.04C1579.56 1065.67 1579.38 1063.23 1579.38 1060.72ZM1581.39 1041.72L1581.48 1050.51H1574.21C1572.68 1050.51 1571.38 1050.73 1570.3 1051.15C1569.26 1051.57 1568.41 1052.16 1567.76 1052.91C1567.15 1053.62 1566.69 1054.44 1566.4 1055.35C1566.14 1056.26 1566.01 1057.22 1566.01 1058.23C1566.01 1059.21 1566.23 1060.08 1566.69 1060.87C1567.18 1061.61 1567.83 1062.2 1568.64 1062.62C1569.46 1063.05 1570.37 1063.26 1571.38 1063.26C1573.2 1063.26 1574.75 1062.92 1576.02 1062.23C1577.32 1061.52 1578.31 1060.65 1578.99 1059.64C1579.68 1058.64 1580.02 1057.69 1580.02 1056.81L1583.63 1063.55C1582.98 1064.85 1582.23 1066.17 1581.39 1067.51C1580.57 1068.84 1579.55 1070.08 1578.31 1071.22C1577.11 1072.32 1575.62 1073.24 1573.87 1073.95C1572.11 1074.63 1569.98 1074.98 1567.47 1074.98C1564.22 1074.98 1561.22 1074.31 1558.49 1072.97C1555.78 1071.64 1553.62 1069.78 1551.99 1067.41C1550.36 1065 1549.55 1062.23 1549.55 1059.11C1549.55 1056.37 1550.04 1053.93 1551.02 1051.78C1552.02 1049.63 1553.54 1047.81 1555.56 1046.31C1557.57 1044.82 1560.15 1043.68 1563.27 1042.9C1566.4 1042.12 1570.07 1041.72 1574.31 1041.72H1581.39Z" fill="#888888"/>
<defs>
<linearGradient id="paint0_linear_601_109" x1="393.001" y1="962.077" x2="393.001" y2="1138.86" gradientUnits="userSpaceOnUse">
<stop stop-color="#4387FD"/>
<stop offset="1" stop-color="#4683EA"/>
</linearGradient>
<clipPath id="clip0_601_109">
<rect width="262" height="262" fill="white" transform="translate(618 920)"/>
</clipPath>
<clipPath id="clip1_601_109">
<rect width="191" height="231" fill="white" transform="translate(43 922)"/>
</clipPath>
</defs>
</svg>
