<svg width="2009" height="1042" viewBox="0 0 2009 1042" fill="none" xmlns="http://www.w3.org/2000/svg">
<rect x="1190.51" y="369.648" width="117.366" height="310.569" transform="rotate(-90 1190.51 369.648)" fill="#2FA4DA"/>
<path d="M1310.33 290.596L1293.34 339.893H1283.06L1304.47 283.018L1311.03 283.018L1310.33 290.596ZM1324.55 339.893L1307.52 290.596L1306.77 283.018L1313.38 283.018L1334.86 339.893L1324.55 339.893ZM1323.73 318.799L1323.73 326.573H1292.79L1292.79 318.799L1323.73 318.799ZM1362.83 318.682H1348.02L1348.02 310.909H1362.83C1365.41 310.909 1367.49 310.492 1369.08 309.659C1370.67 308.825 1371.83 307.68 1372.56 306.221C1373.31 304.737 1373.69 303.044 1373.69 301.143C1373.69 299.346 1373.31 297.667 1372.56 296.104C1371.83 294.515 1370.67 293.239 1369.08 292.276C1367.49 291.312 1365.41 290.831 1362.83 290.831H1351.03L1351.03 339.893H1341.23L1341.23 283.018H1362.83C1367.23 283.018 1370.97 283.799 1374.04 285.362C1377.14 286.898 1379.5 289.034 1381.11 291.768C1382.72 294.476 1383.53 297.575 1383.53 301.065C1383.53 304.737 1382.72 307.888 1381.11 310.518C1379.5 313.148 1377.14 315.167 1374.04 316.573C1370.97 317.979 1367.23 318.682 1362.83 318.682ZM1402.79 283.018L1402.79 339.893H1392.98L1392.98 283.018H1402.79Z" fill="white"/>
<rect x="1190.51" y="757.859" width="117.366" height="310.569" transform="rotate(-90 1190.51 757.859)" fill="#2FA4DA"/>
<path d="M1275.84 671.229L1275.84 728.104H1266.03L1266.03 671.229H1275.84ZM1299.04 696.112L1299.04 703.886H1273.34L1273.34 696.112H1299.04ZM1302.28 671.229L1302.28 679.042H1273.34L1273.34 671.229H1302.28ZM1319.23 668.104L1319.23 728.104H1309.78L1309.78 668.104H1319.23ZM1339.63 685.839L1339.63 728.104H1330.17L1330.17 685.839H1339.63ZM1329.55 674.745C1329.55 673.313 1330.02 672.128 1330.95 671.19C1331.92 670.227 1333.25 669.745 1334.94 669.745C1336.6 669.745 1337.92 670.227 1338.88 671.19C1339.85 672.128 1340.33 673.313 1340.33 674.745C1340.33 676.151 1339.85 677.323 1338.88 678.261C1337.92 679.198 1336.6 679.667 1334.94 679.667C1333.25 679.667 1331.92 679.198 1330.95 678.261C1330.02 677.323 1329.55 676.151 1329.55 674.745ZM1359.27 694.862L1359.27 728.104H1349.86L1349.86 685.839H1358.73L1359.27 694.862ZM1357.59 705.409L1354.55 705.37C1354.57 702.375 1354.99 699.628 1355.8 697.128C1356.63 694.628 1357.78 692.479 1359.23 690.683C1360.72 688.886 1362.49 687.506 1364.55 686.542C1366.6 685.552 1368.9 685.058 1371.42 685.058C1373.45 685.058 1375.29 685.344 1376.93 685.917C1378.6 686.464 1380.02 687.362 1381.19 688.612C1382.39 689.862 1383.3 691.49 1383.92 693.495C1384.55 695.474 1384.86 697.909 1384.86 700.8L1384.86 728.104H1375.41L1375.41 700.761C1375.41 698.729 1375.11 697.128 1374.51 695.956C1373.94 694.758 1373.09 693.912 1371.97 693.417C1370.88 692.896 1369.51 692.636 1367.87 692.636C1366.25 692.636 1364.81 692.974 1363.53 693.651C1362.26 694.328 1361.17 695.253 1360.29 696.425C1359.43 697.597 1358.77 698.951 1358.3 700.487C1357.83 702.024 1357.59 703.664 1357.59 705.409ZM1403.96 668.104L1403.96 728.104H1394.51L1394.51 668.104H1403.96ZM1430.21 685.839L1411.81 706.229L1401.73 716.542L1399.27 708.573L1406.89 699.159L1418.84 685.839L1430.21 685.839ZM1420.88 728.104L1407.16 708.261L1413.1 701.659L1431.77 728.104H1420.88Z" fill="white"/>
<rect x="1378.3" y="566.463" width="117.366" height="435.158" transform="rotate(-90 1378.3 566.463)" fill="#2FA4DA"/>
<path d="M1449.51 536.708H1437.36L1437.44 528.934H1449.51C1453.03 528.934 1455.97 528.166 1458.34 526.63C1460.74 525.093 1462.53 522.893 1463.73 520.028C1464.95 517.163 1465.57 513.752 1465.57 509.794L1465.57 506.708C1465.57 503.635 1465.21 500.913 1464.51 498.544C1463.83 496.174 1462.82 494.182 1461.46 492.567C1460.14 490.953 1458.5 489.729 1456.54 488.895C1454.62 488.062 1452.39 487.645 1449.86 487.645H1437.13L1437.13 479.833H1449.86C1453.64 479.833 1457.09 480.471 1460.21 481.747C1463.34 482.997 1466.03 484.807 1468.3 487.177C1470.59 489.546 1472.35 492.385 1473.57 495.692C1474.8 498.999 1475.41 502.697 1475.41 506.786L1475.41 509.794C1475.41 513.882 1474.8 517.58 1473.57 520.887C1472.35 524.195 1470.59 527.033 1468.3 529.403C1466.01 531.747 1463.27 533.557 1460.1 534.833C1456.95 536.083 1453.42 536.708 1449.51 536.708ZM1442.79 479.833L1442.79 536.708H1432.99L1432.99 479.833H1442.79ZM1508.14 528.231L1508.14 508.075C1508.14 506.565 1507.87 505.262 1507.32 504.169C1506.78 503.075 1505.94 502.229 1504.82 501.63C1503.73 501.031 1502.35 500.731 1500.68 500.731C1499.15 500.731 1497.82 500.992 1496.7 501.512C1495.58 502.033 1494.71 502.736 1494.08 503.622C1493.46 504.507 1493.14 505.51 1493.14 506.63H1483.77C1483.77 504.963 1484.17 503.348 1484.98 501.786C1485.79 500.223 1486.96 498.83 1488.5 497.606C1490.03 496.382 1491.87 495.419 1494 494.716C1496.14 494.012 1498.53 493.661 1501.19 493.661C1504.37 493.661 1507.18 494.195 1509.63 495.262C1512.1 496.33 1514.04 497.945 1515.45 500.106C1516.88 502.242 1517.6 504.924 1517.6 508.153L1517.6 526.942C1517.6 528.869 1517.73 530.601 1517.99 532.137C1518.27 533.648 1518.68 534.963 1519.2 536.083L1519.2 536.708H1509.55C1509.11 535.692 1508.76 534.403 1508.5 532.841C1508.26 531.252 1508.14 529.716 1508.14 528.231ZM1509.51 511.005L1509.59 516.825H1502.83C1501.09 516.825 1499.55 516.994 1498.22 517.333C1496.89 517.645 1495.79 518.114 1494.9 518.739C1494.02 519.364 1493.35 520.119 1492.91 521.005C1492.47 521.89 1492.25 522.893 1492.25 524.012C1492.25 525.132 1492.51 526.161 1493.03 527.098C1493.55 528.01 1494.3 528.726 1495.29 529.247C1496.31 529.768 1497.53 530.028 1498.96 530.028C1500.89 530.028 1502.57 529.637 1504 528.856C1505.46 528.049 1506.61 527.072 1507.44 525.927C1508.27 524.755 1508.72 523.648 1508.77 522.606L1511.82 526.786C1511.5 527.854 1510.97 528.999 1510.21 530.223C1509.46 531.447 1508.47 532.619 1507.25 533.739C1506.05 534.833 1504.6 535.731 1502.91 536.434C1501.24 537.137 1499.32 537.489 1497.13 537.489C1494.37 537.489 1491.91 536.942 1489.75 535.848C1487.58 534.729 1485.89 533.231 1484.67 531.356C1483.44 529.455 1482.83 527.307 1482.83 524.911C1482.83 522.671 1483.25 520.692 1484.08 518.973C1484.94 517.229 1486.19 515.77 1487.83 514.598C1489.5 513.427 1491.53 512.541 1493.93 511.942C1496.32 511.317 1499.06 511.005 1502.13 511.005L1509.51 511.005ZM1546.82 494.442L1546.82 501.317H1522.99L1522.99 494.442H1546.82ZM1529.86 484.091H1539.28L1539.28 525.028C1539.28 526.33 1539.46 527.333 1539.82 528.036C1540.21 528.713 1540.75 529.169 1541.43 529.403C1542.1 529.637 1542.9 529.755 1543.81 529.755C1544.46 529.755 1545.08 529.716 1545.68 529.637C1546.28 529.559 1546.76 529.481 1547.13 529.403L1547.17 536.591C1546.39 536.825 1545.47 537.033 1544.43 537.216C1543.42 537.398 1542.25 537.489 1540.92 537.489C1538.76 537.489 1536.84 537.111 1535.18 536.356C1533.51 535.575 1532.21 534.312 1531.27 532.567C1530.33 530.822 1529.86 528.505 1529.86 525.614L1529.86 484.091ZM1577.91 528.231L1577.91 508.075C1577.91 506.565 1577.64 505.262 1577.09 504.169C1576.54 503.075 1575.71 502.229 1574.59 501.63C1573.5 501.031 1572.12 500.731 1570.45 500.731C1568.91 500.731 1567.58 500.992 1566.46 501.512C1565.34 502.033 1564.47 502.736 1563.85 503.622C1563.22 504.507 1562.91 505.51 1562.91 506.63H1553.53C1553.53 504.963 1553.94 503.348 1554.75 501.786C1555.55 500.223 1556.72 498.83 1558.26 497.606C1559.8 496.382 1561.63 495.419 1563.77 494.716C1565.9 494.012 1568.3 493.661 1570.96 493.661C1574.13 493.661 1576.95 494.195 1579.39 495.262C1581.87 496.33 1583.81 497.945 1585.21 500.106C1586.65 502.242 1587.36 504.924 1587.36 508.153L1587.36 526.942C1587.36 528.869 1587.49 530.601 1587.75 532.137C1588.04 533.648 1588.44 534.963 1588.96 536.083L1588.96 536.708H1579.32C1578.87 535.692 1578.52 534.403 1578.26 532.841C1578.03 531.252 1577.91 529.716 1577.91 528.231ZM1579.28 511.005L1579.35 516.825H1572.6C1570.85 516.825 1569.32 516.994 1567.99 517.333C1566.66 517.645 1565.55 518.114 1564.67 518.739C1563.78 519.364 1563.12 520.119 1562.68 521.005C1562.23 521.89 1562.01 522.893 1562.01 524.012C1562.01 525.132 1562.27 526.161 1562.79 527.098C1563.31 528.01 1564.07 528.726 1565.06 529.247C1566.07 529.768 1567.3 530.028 1568.73 530.028C1570.66 530.028 1572.34 529.637 1573.77 528.856C1575.23 528.049 1576.37 527.072 1577.21 525.927C1578.04 524.755 1578.48 523.648 1578.53 522.606L1581.58 526.786C1581.27 527.854 1580.74 528.999 1579.98 530.223C1579.22 531.447 1578.24 532.619 1577.01 533.739C1575.81 534.833 1574.37 535.731 1572.68 536.434C1571.01 537.137 1569.08 537.489 1566.89 537.489C1564.13 537.489 1561.67 536.942 1559.51 535.848C1557.35 534.729 1555.66 533.231 1554.43 531.356C1553.21 529.455 1552.6 527.307 1552.6 524.911C1552.6 522.671 1553.01 520.692 1553.85 518.973C1554.71 517.229 1555.96 515.77 1557.6 514.598C1559.26 513.427 1561.3 512.541 1563.69 511.942C1566.09 511.317 1568.82 511.005 1571.89 511.005H1579.28ZM1597.25 476.708H1606.66L1606.66 527.684L1605.76 536.708H1597.25L1597.25 476.708ZM1634.24 515.184L1634.24 516.005C1634.24 519.13 1633.89 522.007 1633.18 524.637C1632.51 527.242 1631.46 529.507 1630.06 531.434C1628.68 533.361 1626.96 534.859 1624.9 535.927C1622.87 536.968 1620.51 537.489 1617.83 537.489C1615.2 537.489 1612.91 536.994 1610.96 536.005C1609 535.015 1607.36 533.609 1606.03 531.786C1604.73 529.963 1603.68 527.788 1602.87 525.262C1602.06 522.736 1601.49 519.95 1601.15 516.903L1601.15 514.286C1601.49 511.213 1602.06 508.427 1602.87 505.927C1603.68 503.4 1604.73 501.226 1606.03 499.403C1607.36 497.554 1608.99 496.135 1610.92 495.145C1612.87 494.156 1615.15 493.661 1617.75 493.661C1620.46 493.661 1622.84 494.182 1624.9 495.223C1626.99 496.265 1628.72 497.749 1630.1 499.677C1631.48 501.578 1632.51 503.843 1633.18 506.473C1633.89 509.104 1634.24 512.007 1634.24 515.184ZM1624.82 516.005L1624.82 515.184C1624.82 513.283 1624.67 511.499 1624.35 509.833C1624.04 508.14 1623.52 506.656 1622.79 505.38C1622.09 504.104 1621.13 503.101 1619.9 502.372C1618.7 501.617 1617.21 501.239 1615.41 501.239C1613.74 501.239 1612.31 501.525 1611.11 502.098C1609.91 502.671 1608.91 503.453 1608.1 504.442C1607.3 505.432 1606.66 506.578 1606.19 507.88C1605.75 509.182 1605.45 510.588 1605.29 512.098L1605.29 519.169C1605.53 521.122 1606.02 522.919 1606.78 524.559C1607.56 526.174 1608.65 527.476 1610.06 528.466C1611.46 529.429 1613.27 529.911 1615.49 529.911C1617.23 529.911 1618.7 529.559 1619.9 528.856C1621.1 528.153 1622.05 527.177 1622.75 525.927C1623.48 524.65 1624 523.166 1624.32 521.473C1624.65 519.781 1624.82 517.958 1624.82 516.005ZM1666.03 528.231L1666.03 508.075C1666.03 506.565 1665.76 505.262 1665.21 504.169C1664.67 503.075 1663.83 502.229 1662.71 501.63C1661.62 501.031 1660.24 500.731 1658.57 500.731C1657.04 500.731 1655.71 500.992 1654.59 501.512C1653.47 502.033 1652.6 502.736 1651.97 503.622C1651.35 504.507 1651.03 505.51 1651.03 506.63H1641.66C1641.66 504.963 1642.06 503.348 1642.87 501.786C1643.68 500.223 1644.85 498.83 1646.39 497.606C1647.92 496.382 1649.76 495.419 1651.89 494.716C1654.03 494.012 1656.43 493.661 1659.08 493.661C1662.26 493.661 1665.07 494.195 1667.52 495.262C1669.99 496.33 1671.93 497.945 1673.34 500.106C1674.77 502.242 1675.49 504.924 1675.49 508.153L1675.49 526.942C1675.49 528.869 1675.62 530.601 1675.88 532.137C1676.16 533.648 1676.57 534.963 1677.09 536.083L1677.09 536.708H1667.44C1667 535.692 1666.65 534.403 1666.39 532.841C1666.15 531.252 1666.03 529.716 1666.03 528.231ZM1667.4 511.005L1667.48 516.825H1660.72C1658.98 516.825 1657.44 516.994 1656.11 517.333C1654.78 517.645 1653.68 518.114 1652.79 518.739C1651.91 519.364 1651.24 520.119 1650.8 521.005C1650.36 521.89 1650.14 522.893 1650.14 524.012C1650.14 525.132 1650.4 526.161 1650.92 527.098C1651.44 528.01 1652.19 528.726 1653.18 529.247C1654.2 529.768 1655.42 530.028 1656.85 530.028C1658.78 530.028 1660.46 529.637 1661.89 528.856C1663.35 528.049 1664.5 527.072 1665.33 525.927C1666.16 524.755 1666.61 523.648 1666.66 522.606L1669.71 526.786C1669.39 527.854 1668.86 528.999 1668.1 530.223C1667.35 531.447 1666.36 532.619 1665.14 533.739C1663.94 534.833 1662.49 535.731 1660.8 536.434C1659.13 537.137 1657.21 537.489 1655.02 537.489C1652.26 537.489 1649.8 536.942 1647.64 535.848C1645.47 534.729 1643.78 533.231 1642.56 531.356C1641.33 529.455 1640.72 527.307 1640.72 524.911C1640.72 522.671 1641.14 520.692 1641.97 518.973C1642.83 517.229 1644.08 515.77 1645.72 514.598C1647.39 513.427 1649.42 512.541 1651.82 511.942C1654.21 511.317 1656.95 511.005 1660.02 511.005H1667.4ZM1709.04 525.262C1709.04 524.325 1708.81 523.479 1708.34 522.723C1707.87 521.942 1706.97 521.239 1705.64 520.614C1704.34 519.989 1702.41 519.416 1699.86 518.895C1697.62 518.4 1695.57 517.815 1693.69 517.137C1691.84 516.434 1690.25 515.588 1688.93 514.598C1687.6 513.609 1686.57 512.437 1685.84 511.083C1685.11 509.729 1684.75 508.166 1684.75 506.395C1684.75 504.677 1685.12 503.049 1685.88 501.512C1686.63 499.976 1687.71 498.622 1689.12 497.45C1690.53 496.278 1692.23 495.354 1694.24 494.677C1696.27 493.999 1698.53 493.661 1701.03 493.661C1704.58 493.661 1707.61 494.26 1710.14 495.458C1712.69 496.63 1714.64 498.231 1716 500.262C1717.35 502.268 1718.03 504.533 1718.03 507.059H1708.61C1708.61 505.94 1708.33 504.898 1707.75 503.934C1707.21 502.945 1706.37 502.15 1705.25 501.552C1704.13 500.927 1702.73 500.614 1701.03 500.614C1699.42 500.614 1698.08 500.874 1697.01 501.395C1695.97 501.89 1695.19 502.541 1694.67 503.348C1694.17 504.156 1693.93 505.041 1693.93 506.005C1693.93 506.708 1694.06 507.346 1694.32 507.919C1694.6 508.466 1695.07 508.973 1695.72 509.442C1696.37 509.885 1697.26 510.302 1698.38 510.692C1699.52 511.083 1700.96 511.46 1702.68 511.825C1705.9 512.502 1708.68 513.374 1711 514.442C1713.34 515.484 1715.14 516.838 1716.39 518.505C1717.64 520.145 1718.26 522.229 1718.26 524.755C1718.26 526.63 1717.86 528.348 1717.05 529.911C1716.27 531.447 1715.12 532.788 1713.61 533.934C1712.1 535.054 1710.29 535.927 1708.18 536.552C1706.1 537.177 1703.76 537.489 1701.15 537.489C1697.32 537.489 1694.08 536.812 1691.43 535.458C1688.77 534.078 1686.75 532.32 1685.37 530.184C1684.02 528.023 1683.34 525.783 1683.34 523.466H1692.44C1692.55 525.21 1693.03 526.604 1693.89 527.645C1694.77 528.661 1695.87 529.403 1697.17 529.872C1698.5 530.315 1699.86 530.536 1701.27 530.536C1702.96 530.536 1704.38 530.315 1705.53 529.872C1706.67 529.403 1707.55 528.778 1708.14 527.997C1708.74 527.19 1709.04 526.278 1709.04 525.262ZM1745.14 537.489C1742.01 537.489 1739.19 536.981 1736.66 535.966C1734.16 534.924 1732.02 533.479 1730.25 531.63C1728.51 529.781 1727.17 527.606 1726.23 525.106C1725.29 522.606 1724.82 519.911 1724.82 517.02L1724.82 515.458C1724.82 512.15 1725.31 509.156 1726.27 506.473C1727.23 503.791 1728.57 501.499 1730.29 499.598C1732.01 497.671 1734.04 496.2 1736.39 495.184C1738.73 494.169 1741.27 493.661 1744 493.661C1747.02 493.661 1749.67 494.169 1751.93 495.184C1754.2 496.2 1756.07 497.632 1757.56 499.481C1759.07 501.304 1760.19 503.479 1760.92 506.005C1761.67 508.531 1762.05 511.317 1762.05 514.364L1762.05 518.387H1729.39L1729.39 511.63H1752.75L1752.75 510.887C1752.7 509.195 1752.36 507.606 1751.74 506.122C1751.14 504.637 1750.21 503.44 1748.96 502.528C1747.71 501.617 1746.05 501.161 1743.96 501.161C1742.4 501.161 1741.01 501.499 1739.78 502.177C1738.59 502.828 1737.58 503.778 1736.78 505.028C1735.97 506.278 1735.34 507.788 1734.9 509.559C1734.49 511.304 1734.28 513.27 1734.28 515.458L1734.28 517.02C1734.28 518.869 1734.52 520.588 1735.02 522.177C1735.54 523.739 1736.3 525.106 1737.28 526.278C1738.27 527.45 1739.47 528.374 1740.88 529.052C1742.28 529.703 1743.89 530.028 1745.68 530.028C1747.95 530.028 1749.97 529.572 1751.74 528.661C1753.51 527.749 1755.05 526.46 1756.35 524.794L1761.31 529.598C1760.4 530.927 1759.21 532.203 1757.75 533.427C1756.3 534.624 1754.51 535.601 1752.4 536.356C1750.32 537.111 1747.9 537.489 1745.14 537.489Z" fill="white"/>
<rect x="898" y="566.463" width="117.366" height="328.626" transform="rotate(-90 898 566.463)" fill="#2FA4DA"/>
<path d="M974.5 479.833L974.5 536.708H964.696L964.696 479.833H974.5ZM1008.68 479.833L985.633 507.216L972.508 521.122L970.789 511.395L980.164 499.833L996.727 479.833H1008.68ZM998.133 536.708L979.422 509.755L986.18 503.075L1009.77 536.708H998.133ZM1038.13 528.231L1038.13 508.075C1038.13 506.565 1037.86 505.262 1037.31 504.169C1036.77 503.075 1035.93 502.229 1034.81 501.63C1033.72 501.031 1032.34 500.731 1030.67 500.731C1029.14 500.731 1027.81 500.992 1026.69 501.512C1025.57 502.033 1024.7 502.736 1024.07 503.622C1023.45 504.507 1023.13 505.51 1023.13 506.63H1013.76C1013.76 504.963 1014.16 503.348 1014.97 501.786C1015.78 500.223 1016.95 498.83 1018.48 497.606C1020.02 496.382 1021.86 495.419 1023.99 494.716C1026.13 494.012 1028.52 493.661 1031.18 493.661C1034.36 493.661 1037.17 494.195 1039.62 495.262C1042.09 496.33 1044.03 497.945 1045.44 500.106C1046.87 502.242 1047.59 504.924 1047.59 508.153L1047.59 526.942C1047.59 528.869 1047.72 530.601 1047.98 532.137C1048.26 533.648 1048.67 534.963 1049.19 536.083L1049.19 536.708H1039.54C1039.1 535.692 1038.75 534.403 1038.48 532.841C1038.25 531.252 1038.13 529.716 1038.13 528.231ZM1039.5 511.005L1039.58 516.825H1032.82C1031.08 516.825 1029.54 516.994 1028.21 517.333C1026.88 517.645 1025.78 518.114 1024.89 518.739C1024.01 519.364 1023.34 520.119 1022.9 521.005C1022.46 521.89 1022.23 522.893 1022.23 524.012C1022.23 525.132 1022.5 526.161 1023.02 527.098C1023.54 528.01 1024.29 528.726 1025.28 529.247C1026.3 529.768 1027.52 530.028 1028.95 530.028C1030.88 530.028 1032.56 529.637 1033.99 528.856C1035.45 528.049 1036.6 527.072 1037.43 525.927C1038.26 524.755 1038.71 523.648 1038.76 522.606L1041.8 526.786C1041.49 527.854 1040.96 528.999 1040.2 530.223C1039.45 531.447 1038.46 532.619 1037.23 533.739C1036.04 534.833 1034.59 535.731 1032.9 536.434C1031.23 537.137 1029.3 537.489 1027.12 537.489C1024.36 537.489 1021.9 536.942 1019.73 535.848C1017.57 534.729 1015.88 533.231 1014.66 531.356C1013.43 529.455 1012.82 527.307 1012.82 524.911C1012.82 522.671 1013.24 520.692 1014.07 518.973C1014.93 517.229 1016.18 515.77 1017.82 514.598C1019.49 513.427 1021.52 512.541 1023.91 511.942C1026.31 511.317 1029.04 511.005 1032.12 511.005H1039.5ZM1070.16 536.708H1060.75L1060.75 490.38C1060.75 487.229 1061.34 484.585 1062.51 482.45C1063.71 480.288 1065.41 478.661 1067.63 477.567C1069.84 476.447 1072.46 475.887 1075.48 475.887C1076.41 475.887 1077.34 475.953 1078.25 476.083C1079.16 476.187 1080.05 476.356 1080.91 476.591L1080.67 483.856C1080.15 483.726 1079.58 483.635 1078.95 483.583C1078.35 483.531 1077.7 483.505 1077 483.505C1075.57 483.505 1074.33 483.778 1073.29 484.325C1072.27 484.846 1071.49 485.614 1070.95 486.63C1070.42 487.645 1070.16 488.895 1070.16 490.38L1070.16 536.708ZM1078.88 494.442L1078.88 501.317H1054.27L1054.27 494.442H1078.88ZM1095.2 476.708L1095.2 536.708H1085.75L1085.75 476.708H1095.2ZM1121.45 494.442L1103.05 514.833L1092.98 525.145L1090.52 517.177L1098.13 507.762L1110.09 494.442H1121.45ZM1112.12 536.708L1098.41 516.864L1104.34 510.262L1123.02 536.708H1112.12ZM1151.26 528.231L1151.26 508.075C1151.26 506.565 1150.98 505.262 1150.44 504.169C1149.89 503.075 1149.06 502.229 1147.94 501.63C1146.84 501.031 1145.46 500.731 1143.8 500.731C1142.26 500.731 1140.93 500.992 1139.81 501.512C1138.69 502.033 1137.82 502.736 1137.2 503.622C1136.57 504.507 1136.26 505.51 1136.26 506.63H1126.88C1126.88 504.963 1127.29 503.348 1128.09 501.786C1128.9 500.223 1130.07 498.83 1131.61 497.606C1133.15 496.382 1134.98 495.419 1137.12 494.716C1139.25 494.012 1141.65 493.661 1144.3 493.661C1147.48 493.661 1150.29 494.195 1152.74 495.262C1155.22 496.33 1157.16 497.945 1158.56 500.106C1160 502.242 1160.71 504.924 1160.71 508.153L1160.71 526.942C1160.71 528.869 1160.84 530.601 1161.1 532.137C1161.39 533.648 1161.79 534.963 1162.31 536.083L1162.31 536.708H1152.66C1152.22 535.692 1151.87 534.403 1151.61 532.841C1151.38 531.252 1151.26 529.716 1151.26 528.231ZM1152.63 511.005L1152.7 516.825L1145.95 516.825C1144.2 516.825 1142.66 516.994 1141.34 517.333C1140.01 517.645 1138.9 518.114 1138.02 518.739C1137.13 519.364 1136.47 520.119 1136.02 521.005C1135.58 521.89 1135.36 522.893 1135.36 524.012C1135.36 525.132 1135.62 526.161 1136.14 527.098C1136.66 528.01 1137.42 528.726 1138.41 529.247C1139.42 529.768 1140.65 530.028 1142.08 530.028C1144.01 530.028 1145.69 529.637 1147.12 528.856C1148.58 528.049 1149.72 527.072 1150.55 525.927C1151.39 524.755 1151.83 523.648 1151.88 522.606L1154.93 526.786C1154.62 527.854 1154.08 528.999 1153.33 530.223C1152.57 531.447 1151.58 532.619 1150.36 533.739C1149.16 534.833 1147.72 535.731 1146.02 536.434C1144.36 537.137 1142.43 537.489 1140.24 537.489C1137.48 537.489 1135.02 536.942 1132.86 535.848C1130.7 534.729 1129.01 533.231 1127.78 531.356C1126.56 529.455 1125.95 527.307 1125.95 524.911C1125.95 522.671 1126.36 520.692 1127.2 518.973C1128.05 517.229 1129.3 515.77 1130.95 514.598C1132.61 513.427 1134.64 512.541 1137.04 511.942C1139.44 511.317 1142.17 511.005 1145.24 511.005H1152.63Z" fill="white"/>
<path d="M1689.77 571.879L1641.43 621.513L1708.59 638.557L1689.77 571.879ZM1499.28 706.982C1525.32 706.982 1561.76 702.742 1596.15 690.805C1630.46 678.898 1663.58 659.03 1681.7 627.18L1671.27 621.244C1655.19 649.499 1625.21 668.016 1592.22 679.468C1559.31 690.89 1524.24 694.982 1499.28 694.982V706.982Z" fill="#2FA4DA"/>
<path d="M1191.42 700.982L1128.4 729.777L1134.97 660.807L1191.42 700.982ZM1136.57 701.761C1104.51 695.857 1069.32 684.273 1042.01 663.79C1014.48 643.15 994.922 613.397 994.922 571.879H1006.92C1006.92 608.977 1024.15 635.401 1049.21 654.19C1074.47 673.136 1107.65 684.234 1138.74 689.96L1136.57 701.761Z" fill="#2FA4DA"/>
<path d="M1000.92 440.971L1049.26 391.336L982.105 374.293L1000.92 440.971ZM1191.42 305.868C1165.37 305.868 1128.93 310.108 1094.54 322.045C1060.23 333.951 1027.11 353.82 1008.99 385.67L1019.42 391.605C1035.5 363.35 1065.48 344.834 1098.47 333.382C1131.38 321.96 1166.45 317.868 1191.42 317.868V305.868Z" fill="#2FA4DA"/>
<path d="M1501.08 308.257L1564.24 279.774L1557.33 348.711L1501.08 308.257ZM1555.95 307.753C1588.23 314.008 1623.68 326.314 1651.19 348.09C1678.9 370.031 1698.48 401.565 1698.48 445.485H1686.48C1686.48 405.711 1668.98 377.479 1643.74 357.499C1618.29 337.355 1584.9 325.587 1553.67 319.534L1555.95 307.753Z" fill="#2FA4DA"/>
<path d="M1314.5 375.5L1271.95 430.176L1340.58 439.688L1314.5 375.5ZM1232.3 497.492C1243.12 496.945 1259.06 495.117 1274.46 485.792C1290.04 476.364 1304.43 459.679 1312.85 430.655L1301.33 427.311C1293.64 453.793 1280.95 467.836 1268.25 475.525C1255.38 483.317 1241.82 484.995 1231.7 485.508L1232.3 497.492Z" fill="#2FA4DA"/>
<path d="M1232 519.5L1300.41 508.521L1275.71 573.252L1232 519.5ZM1286.54 534.361C1304.95 551.557 1319.08 581.999 1320.5 635.341L1308.5 635.659C1307.14 584.174 1293.58 557.353 1278.35 543.13L1286.54 534.361Z" fill="#2FA4DA"/>
<rect x="855" y="216" width="1012" height="598" stroke="#2FA4DA" stroke-width="6"/>
<path d="M1246 252L1280.64 192L1211.36 192L1246 252ZM1240 160L1240 198L1252 198L1252 160L1240 160Z" fill="#2FA4DA"/>
<path d="M1446 160L1480.64 220L1411.36 220L1446 160ZM1440 252L1440 214L1452 214L1452 252L1440 252Z" fill="#2FA4DA"/>
<rect x="42" y="72" width="350" height="177" rx="15" stroke="#D07839" stroke-width="10"/>
<path d="M176.833 176.883C176.833 175.997 176.702 175.203 176.442 174.5C176.182 173.771 175.7 173.094 174.997 172.469C174.294 171.844 173.278 171.219 171.95 170.594C170.648 169.943 168.929 169.266 166.794 168.562C164.294 167.729 161.885 166.792 159.567 165.75C157.249 164.682 155.179 163.445 153.356 162.039C151.533 160.607 150.088 158.94 149.02 157.039C147.952 155.112 147.419 152.872 147.419 150.32C147.419 147.872 147.965 145.672 149.059 143.719C150.153 141.74 151.676 140.06 153.63 138.68C155.609 137.273 157.926 136.206 160.583 135.477C163.239 134.721 166.143 134.344 169.294 134.344C173.46 134.344 177.132 135.073 180.309 136.531C183.512 137.964 186.012 140.008 187.809 142.664C189.632 145.294 190.544 148.406 190.544 152H176.911C176.911 150.568 176.611 149.305 176.012 148.211C175.439 147.117 174.567 146.258 173.395 145.633C172.223 145.008 170.752 144.695 168.981 144.695C167.262 144.695 165.817 144.956 164.645 145.477C163.473 145.997 162.588 146.701 161.989 147.586C161.39 148.445 161.09 149.396 161.09 150.438C161.09 151.297 161.325 152.078 161.794 152.781C162.288 153.458 162.978 154.096 163.864 154.695C164.775 155.294 165.869 155.867 167.145 156.414C168.447 156.961 169.906 157.495 171.52 158.016C174.541 158.979 177.223 160.06 179.567 161.258C181.937 162.43 183.929 163.771 185.544 165.281C187.184 166.766 188.421 168.458 189.255 170.359C190.114 172.26 190.544 174.409 190.544 176.805C190.544 179.357 190.049 181.622 189.059 183.602C188.07 185.581 186.65 187.26 184.801 188.641C182.952 189.995 180.739 191.023 178.161 191.727C175.583 192.43 172.705 192.781 169.528 192.781C166.611 192.781 163.734 192.417 160.895 191.688C158.083 190.932 155.531 189.786 153.239 188.25C150.947 186.688 149.111 184.695 147.731 182.273C146.377 179.826 145.7 176.922 145.7 173.562H159.45C159.45 175.229 159.671 176.635 160.114 177.781C160.557 178.927 161.208 179.852 162.067 180.555C162.926 181.232 163.981 181.727 165.231 182.039C166.481 182.326 167.913 182.469 169.528 182.469C171.273 182.469 172.679 182.221 173.747 181.727C174.814 181.206 175.596 180.529 176.09 179.695C176.585 178.836 176.833 177.898 176.833 176.883ZM229.333 182.625L245.192 195.203L236.676 202.391L221.09 189.812L229.333 182.625ZM245.856 162.43V164.734C245.856 169.083 245.244 172.99 244.02 176.453C242.822 179.891 241.103 182.833 238.864 185.281C236.65 187.703 234.033 189.565 231.012 190.867C227.992 192.143 224.658 192.781 221.012 192.781C217.34 192.781 213.981 192.143 210.934 190.867C207.913 189.565 205.283 187.703 203.044 185.281C200.83 182.833 199.111 179.891 197.887 176.453C196.689 172.99 196.09 169.083 196.09 164.734V162.43C196.09 158.081 196.689 154.174 197.887 150.711C199.111 147.247 200.817 144.305 203.005 141.883C205.218 139.435 207.835 137.573 210.856 136.297C213.903 134.995 217.262 134.344 220.934 134.344C224.58 134.344 227.913 134.995 230.934 136.297C233.981 137.573 236.611 139.435 238.825 141.883C241.064 144.305 242.796 147.247 244.02 150.711C245.244 154.174 245.856 158.081 245.856 162.43ZM231.911 164.734V162.352C231.911 159.539 231.663 157.065 231.169 154.93C230.7 152.768 229.997 150.958 229.059 149.5C228.122 148.042 226.963 146.948 225.583 146.219C224.228 145.464 222.679 145.086 220.934 145.086C219.111 145.086 217.523 145.464 216.169 146.219C214.814 146.948 213.682 148.042 212.77 149.5C211.859 150.958 211.169 152.768 210.7 154.93C210.257 157.065 210.036 159.539 210.036 162.352V164.734C210.036 167.521 210.257 169.995 210.7 172.156C211.169 174.292 211.859 176.102 212.77 177.586C213.708 179.07 214.853 180.19 216.208 180.945C217.588 181.701 219.189 182.078 221.012 182.078C222.757 182.078 224.307 181.701 225.661 180.945C227.015 180.19 228.148 179.07 229.059 177.586C229.997 176.102 230.7 174.292 231.169 172.156C231.663 169.995 231.911 167.521 231.911 164.734ZM290.426 181.453V192H261.676V181.453H290.426ZM266.559 135.125V192H252.848V135.125H266.559Z" fill="#D07839"/>
<rect x="42" y="766" width="350" height="177" rx="15" stroke="#D07839" stroke-width="10"/>
<path d="M107.859 855.609V878.969C106.896 880.036 105.411 881.182 103.406 882.406C101.427 883.604 98.9271 884.633 95.9062 885.492C92.8854 886.352 89.3307 886.781 85.2422 886.781C81.4661 886.781 78.0417 886.182 74.9688 884.984C71.8958 883.76 69.2526 881.977 67.0391 879.633C64.8516 877.263 63.1589 874.372 61.9609 870.961C60.7891 867.523 60.2031 863.591 60.2031 859.164V856C60.2031 851.573 60.8021 847.641 62 844.203C63.1979 840.766 64.8776 837.875 67.0391 835.531C69.2266 833.161 71.7917 831.365 74.7344 830.141C77.7031 828.917 80.9583 828.305 84.5 828.305C89.7344 828.305 93.9922 829.138 97.2734 830.805C100.555 832.445 103.042 834.724 104.734 837.641C106.427 840.531 107.456 843.878 107.82 847.68H94.6562C94.3958 845.805 93.901 844.216 93.1719 842.914C92.4688 841.586 91.4531 840.583 90.125 839.906C88.7969 839.203 87.0781 838.852 84.9688 838.852C83.3281 838.852 81.8307 839.203 80.4766 839.906C79.1484 840.609 78.0156 841.677 77.0781 843.109C76.1406 844.516 75.4115 846.286 74.8906 848.422C74.3958 850.557 74.1484 853.057 74.1484 855.922V859.164C74.1484 862.003 74.3828 864.49 74.8516 866.625C75.3464 868.76 76.0755 870.544 77.0391 871.977C78.0286 873.383 79.2786 874.451 80.7891 875.18C82.3255 875.883 84.1354 876.234 86.2188 876.234C87.6771 876.234 88.9271 876.117 89.9688 875.883C91.0104 875.622 91.8698 875.31 92.5469 874.945C93.25 874.555 93.7839 874.19 94.1484 873.852V865.023H84.6172V855.609H107.859ZM128.523 854.203V886H115.359V843.734H127.664L128.523 854.203ZM141.023 843.422L140.789 855.648C140.268 855.596 139.565 855.531 138.68 855.453C137.794 855.375 137.052 855.336 136.453 855.336C134.917 855.336 133.589 855.518 132.469 855.883C131.375 856.221 130.464 856.742 129.734 857.445C129.031 858.122 128.51 858.982 128.172 860.023C127.859 861.065 127.716 862.276 127.742 863.656L125.359 862.094C125.359 859.255 125.633 856.677 126.18 854.359C126.753 852.016 127.56 849.997 128.602 848.305C129.643 846.586 130.906 845.271 132.391 844.359C133.875 843.422 135.542 842.953 137.391 842.953C138.042 842.953 138.68 842.992 139.305 843.07C139.956 843.148 140.529 843.266 141.023 843.422ZM166.336 875.375V857.953C166.336 856.755 166.167 855.727 165.828 854.867C165.49 854.008 164.956 853.344 164.227 852.875C163.497 852.38 162.521 852.133 161.297 852.133C160.307 852.133 159.461 852.302 158.758 852.641C158.055 852.979 157.521 853.487 157.156 854.164C156.792 854.841 156.609 855.701 156.609 856.742H143.445C143.445 854.789 143.875 852.979 144.734 851.312C145.62 849.62 146.87 848.148 148.484 846.898C150.125 845.648 152.078 844.685 154.344 844.008C156.635 843.305 159.188 842.953 162 842.953C165.359 842.953 168.354 843.513 170.984 844.633C173.641 845.753 175.737 847.432 177.273 849.672C178.81 851.885 179.578 854.672 179.578 858.031V875.336C179.578 878.096 179.734 880.193 180.047 881.625C180.359 883.031 180.802 884.268 181.375 885.336V886H168.172C167.547 884.698 167.078 883.109 166.766 881.234C166.479 879.333 166.336 877.38 166.336 875.375ZM167.938 860.18L168.016 867.211H162.195C160.971 867.211 159.93 867.38 159.07 867.719C158.237 868.057 157.56 868.526 157.039 869.125C156.544 869.698 156.18 870.349 155.945 871.078C155.737 871.807 155.633 872.576 155.633 873.383C155.633 874.164 155.815 874.867 156.18 875.492C156.57 876.091 157.091 876.56 157.742 876.898C158.393 877.237 159.122 877.406 159.93 877.406C161.388 877.406 162.625 877.133 163.641 876.586C164.682 876.013 165.477 875.323 166.023 874.516C166.57 873.708 166.844 872.953 166.844 872.25L169.734 877.641C169.214 878.682 168.615 879.737 167.938 880.805C167.286 881.872 166.466 882.862 165.477 883.773C164.513 884.659 163.328 885.388 161.922 885.961C160.516 886.508 158.81 886.781 156.805 886.781C154.201 886.781 151.805 886.247 149.617 885.18C147.456 884.112 145.724 882.628 144.422 880.727C143.12 878.799 142.469 876.586 142.469 874.086C142.469 871.898 142.859 869.945 143.641 868.227C144.448 866.508 145.659 865.049 147.273 863.852C148.888 862.654 150.945 861.742 153.445 861.117C155.945 860.492 158.888 860.18 162.273 860.18H167.938ZM200.164 851.859V902.25H187V843.734H199.266L200.164 851.859ZM226.102 864.359V865.18C226.102 868.253 225.75 871.104 225.047 873.734C224.344 876.365 223.302 878.656 221.922 880.609C220.542 882.562 218.823 884.086 216.766 885.18C214.734 886.247 212.378 886.781 209.695 886.781C207.169 886.781 204.995 886.221 203.172 885.102C201.349 883.982 199.826 882.432 198.602 880.453C197.378 878.474 196.388 876.208 195.633 873.656C194.878 871.104 194.279 868.409 193.836 865.57V864.516C194.279 861.469 194.878 858.643 195.633 856.039C196.388 853.409 197.378 851.117 198.602 849.164C199.826 847.211 201.336 845.688 203.133 844.594C204.956 843.5 207.13 842.953 209.656 842.953C212.339 842.953 214.695 843.461 216.727 844.477C218.784 845.492 220.503 846.951 221.883 848.852C223.289 850.727 224.344 852.979 225.047 855.609C225.75 858.24 226.102 861.156 226.102 864.359ZM212.938 865.18V864.359C212.938 862.719 212.82 861.221 212.586 859.867C212.352 858.487 211.974 857.289 211.453 856.273C210.958 855.258 210.294 854.477 209.461 853.93C208.628 853.383 207.599 853.109 206.375 853.109C204.969 853.109 203.784 853.331 202.82 853.773C201.883 854.19 201.128 854.841 200.555 855.727C200.008 856.586 199.617 857.667 199.383 858.969C199.174 860.245 199.083 861.742 199.109 863.461V866.664C199.057 868.643 199.253 870.388 199.695 871.898C200.138 873.383 200.906 874.542 202 875.375C203.094 876.208 204.578 876.625 206.453 876.625C207.703 876.625 208.745 876.339 209.578 875.766C210.411 875.167 211.076 874.346 211.57 873.305C212.065 872.237 212.417 871.013 212.625 869.633C212.833 868.253 212.938 866.768 212.938 865.18ZM244.852 826V886H231.688V826H244.852ZM243.289 863.422L240.203 863.5C240.203 860.531 240.568 857.797 241.297 855.297C242.026 852.797 243.068 850.622 244.422 848.773C245.776 846.924 247.404 845.492 249.305 844.477C251.206 843.461 253.315 842.953 255.633 842.953C257.716 842.953 259.617 843.253 261.336 843.852C263.081 844.451 264.578 845.414 265.828 846.742C267.104 848.07 268.081 849.802 268.758 851.938C269.461 854.073 269.812 856.677 269.812 859.75V886H256.57V859.672C256.57 857.953 256.323 856.625 255.828 855.688C255.359 854.724 254.682 854.06 253.797 853.695C252.911 853.305 251.831 853.109 250.555 853.109C249.018 853.109 247.768 853.37 246.805 853.891C245.841 854.411 245.099 855.141 244.578 856.078C244.083 856.99 243.745 858.07 243.562 859.32C243.38 860.57 243.289 861.938 243.289 863.422ZM309.461 876.625L325.32 889.203L316.805 896.391L301.219 883.812L309.461 876.625ZM325.984 856.43V858.734C325.984 863.083 325.372 866.99 324.148 870.453C322.951 873.891 321.232 876.833 318.992 879.281C316.779 881.703 314.161 883.565 311.141 884.867C308.12 886.143 304.786 886.781 301.141 886.781C297.469 886.781 294.109 886.143 291.062 884.867C288.042 883.565 285.411 881.703 283.172 879.281C280.958 876.833 279.24 873.891 278.016 870.453C276.818 866.99 276.219 863.083 276.219 858.734V856.43C276.219 852.081 276.818 848.174 278.016 844.711C279.24 841.247 280.945 838.305 283.133 835.883C285.346 833.435 287.964 831.573 290.984 830.297C294.031 828.995 297.391 828.344 301.062 828.344C304.708 828.344 308.042 828.995 311.062 830.297C314.109 831.573 316.74 833.435 318.953 835.883C321.193 838.305 322.924 841.247 324.148 844.711C325.372 848.174 325.984 852.081 325.984 856.43ZM312.039 858.734V856.352C312.039 853.539 311.792 851.065 311.297 848.93C310.828 846.768 310.125 844.958 309.188 843.5C308.25 842.042 307.091 840.948 305.711 840.219C304.357 839.464 302.807 839.086 301.062 839.086C299.24 839.086 297.651 839.464 296.297 840.219C294.943 840.948 293.81 842.042 292.898 843.5C291.987 844.958 291.297 846.768 290.828 848.93C290.385 851.065 290.164 853.539 290.164 856.352V858.734C290.164 861.521 290.385 863.995 290.828 866.156C291.297 868.292 291.987 870.102 292.898 871.586C293.836 873.07 294.982 874.19 296.336 874.945C297.716 875.701 299.318 876.078 301.141 876.078C302.885 876.078 304.435 875.701 305.789 874.945C307.143 874.19 308.276 873.07 309.188 871.586C310.125 870.102 310.828 868.292 311.297 866.156C311.792 863.995 312.039 861.521 312.039 858.734ZM370.555 875.453V886H341.805V875.453H370.555ZM346.688 829.125V886H332.977V829.125H346.688Z" fill="#D07839"/>
<path fill-rule="evenodd" clip-rule="evenodd" d="M625.964 378C602.696 378 555.432 390.38 547.163 422.48C547.034 422.727 546.788 423.619 546.517 424.994C531.554 415.844 513.959 410.523 495.154 410.523C475.516 410.523 457.264 416.325 441.889 426.215C441.572 424.207 441.184 422.797 441.031 422.48C432.762 390.38 385.499 378.035 362.219 378.023C358.519 378.023 355.454 378.341 353.21 378.928C340.725 380.666 327.053 385.658 328.052 388.383C337.213 386.821 341.841 388.606 341.7 390.086C341.418 392.858 335.898 393.598 337.671 403.593C341.019 398.743 345.682 397.075 349.346 396.299C353.105 419.896 369.548 461.088 400.321 463.225C402.964 463.413 405.431 463.401 407.756 463.354C400.498 477.12 396.375 492.8 396.375 509.444C396.375 564.025 440.62 627.274 495.154 627.274C549.677 627.274 593.981 564.025 593.981 509.444C593.981 492.812 589.846 477.167 582.588 463.413C584.267 463.402 586.041 463.354 587.873 463.225C618.541 461.099 634.984 420.143 638.813 396.523C642.314 397.38 646.495 399.142 649.56 403.593C651.334 393.598 645.814 392.858 645.532 390.086C645.391 388.606 650.019 386.821 659.18 388.383C660.131 385.799 647.928 381.183 636.018 379.222C633.751 378.423 630.274 378 625.964 378V378Z" fill="url(#paint0_linear_903_135)" stroke="black" stroke-width="3" stroke-linejoin="round"/>
<path d="M491.709 501.518C491.709 510.086 488.308 518.303 482.255 524.362C476.202 530.42 467.992 533.824 459.432 533.824C450.872 533.824 442.662 530.42 436.609 524.362C430.556 518.303 427.155 510.086 427.155 501.518C427.155 492.95 430.556 484.733 436.609 478.675C442.662 472.616 450.872 469.212 459.432 469.212C467.992 469.212 476.202 472.616 482.255 478.675C488.308 484.733 491.709 492.95 491.709 501.518V501.518Z" fill="white" stroke="black" stroke-width="3.00002" stroke-linecap="round" stroke-linejoin="round"/>
<path d="M563.192 501.518C563.192 510.086 559.791 518.303 553.738 524.362C547.685 530.42 539.475 533.824 530.915 533.824C522.355 533.824 514.145 530.42 508.092 524.362C502.039 518.303 498.638 510.086 498.638 501.518C498.638 492.95 502.039 484.733 508.092 478.675C514.145 472.616 522.355 469.212 530.915 469.212C539.475 469.212 547.685 472.616 553.738 478.675C559.791 484.733 563.192 492.95 563.192 501.518V501.518Z" fill="white" stroke="black" stroke-width="3.00002" stroke-linecap="round" stroke-linejoin="round"/>
<path d="M481.709 505.443C481.71 506.814 481.442 508.171 480.918 509.438C480.395 510.705 479.627 511.857 478.659 512.827C477.691 513.797 476.541 514.566 475.276 515.091C474.01 515.616 472.654 515.886 471.284 515.886C469.914 515.886 468.558 515.616 467.292 515.091C466.027 514.566 464.877 513.797 463.909 512.827C462.941 511.857 462.173 510.705 461.65 509.438C461.126 508.171 460.858 506.814 460.859 505.443C460.858 504.071 461.126 502.714 461.65 501.447C462.173 500.18 462.941 499.028 463.909 498.058C464.877 497.089 466.027 496.319 467.292 495.794C468.558 495.269 469.914 494.999 471.284 494.999C472.654 494.999 474.01 495.269 475.276 495.794C476.541 496.319 477.691 497.089 478.659 498.058C479.627 499.028 480.395 500.18 480.918 501.447C481.442 502.714 481.71 504.071 481.709 505.443V505.443Z" fill="black"/>
<path d="M529.396 505.443C529.397 506.814 529.129 508.171 528.605 509.438C528.082 510.705 527.314 511.857 526.346 512.827C525.378 513.797 524.228 514.566 522.963 515.091C521.697 515.616 520.341 515.886 518.971 515.886C517.601 515.886 516.245 515.616 514.979 515.091C513.714 514.566 512.564 513.797 511.596 512.827C510.628 511.857 509.86 510.705 509.337 509.438C508.814 508.171 508.545 506.814 508.546 505.443C508.545 504.071 508.814 502.714 509.337 501.447C509.86 500.18 510.628 499.028 511.596 498.058C512.564 497.089 513.714 496.319 514.979 495.794C516.245 495.269 517.601 494.999 518.971 494.999C520.341 494.999 521.697 495.269 522.963 495.794C524.228 496.319 525.378 497.089 526.346 498.058C527.314 499.028 528.082 500.18 528.605 501.447C529.129 502.714 529.397 504.071 529.396 505.443Z" fill="black"/>
<path fill-rule="evenodd" clip-rule="evenodd" d="M478.487 563.496C483.749 557.87 506.101 556.649 510.776 564.189C515.45 571.742 503.764 587.387 494.626 586.682C485.535 585.977 473.554 568.747 478.487 563.496Z" fill="black"/>
<path fill-rule="evenodd" clip-rule="evenodd" d="M419.702 448.814C416.237 398.637 364.604 387.209 362.114 393.164C359.635 399.13 371.545 466.209 419.702 448.814Z" fill="#74401B" stroke="black" stroke-width="3" stroke-linejoin="round"/>
<path fill-rule="evenodd" clip-rule="evenodd" d="M566.849 448.814C570.314 398.637 621.947 387.209 624.437 393.164C626.916 399.13 614.994 466.209 566.849 448.814Z" fill="url(#paint1_linear_903_135)" stroke="black" stroke-width="3" stroke-linejoin="round"/>
<path d="M586.194 471.166C587.991 478.612 588.954 486.411 588.954 494.398C588.954 548.98 544.662 612.205 490.127 612.205C450.381 612.205 416.143 578.602 400.474 539.243C412.607 584.686 450.404 627.298 495.154 627.298C549.689 627.298 593.981 564.026 593.981 509.444C593.981 495.867 591.209 482.946 586.241 471.166H586.194Z" fill="black" fill-opacity="0.31373"/>
<path d="M207 504H202V509H207V504ZM338.5 504L288.5 475.132V532.868L338.5 504ZM202 245V504H212V245H202ZM207 509H293.5V499H207V509Z" fill="#D07839"/>
<line x1="207" y1="506" x2="207" y2="766" stroke="#D07839" stroke-width="10"/>
<path d="M827 504L777 475.132V532.868L827 504ZM644 509H782V499H644V509Z" fill="#2FA4DA"/>
<defs>
<linearGradient id="paint0_linear_903_135" x1="325.665" y1="502.637" x2="661.566" y2="502.637" gradientUnits="userSpaceOnUse">
<stop stop-color="#D07839"/>
</linearGradient>
<linearGradient id="paint1_linear_903_135" x1="640.925" y1="425.279" x2="684.346" y2="425.279" gradientUnits="userSpaceOnUse">
<stop stop-color="#74401B"/>
</linearGradient>
</defs>
</svg>
