<?xml version="1.0" encoding="UTF-8" standalone="no"?>
<svg
   data-name="Layer 1"
   width="649.67538"
   height="226.1298"
   viewBox="0 0 649.67538 226.1298"
   version="1.1"
   id="svg876"
   sodipodi:docname="undraw_decide_sqrl.svg"
   inkscape:version="1.1.1 (c3084ef, 2021-09-22)"
   xmlns:inkscape="http://www.inkscape.org/namespaces/inkscape"
   xmlns:sodipodi="http://sodipodi.sourceforge.net/DTD/sodipodi-0.dtd"
   xmlns="http://www.w3.org/2000/svg"
   xmlns:svg="http://www.w3.org/2000/svg">
  <defs
     id="defs880">
    <linearGradient
       id="linearGradient2009"
       inkscape:swatch="solid"
       gradientTransform="translate(-342.30846,-1055.5821)">
      <stop
         style="stop-color:#74401b;stop-opacity:1;"
         offset="0"
         id="stop2007" />
    </linearGradient>
  </defs>
  <sodipodi:namedview
     id="namedview878"
     pagecolor="#ffffff"
     bordercolor="#666666"
     borderopacity="1.0"
     inkscape:pageshadow="2"
     inkscape:pageopacity="0.0"
     inkscape:pagecheckerboard="0"
     showgrid="false"
     inkscape:zoom="1.7593403"
     inkscape:cx="324.83768"
     inkscape:cy="112.82638"
     inkscape:window-width="1440"
     inkscape:window-height="855"
     inkscape:window-x="0"
     inkscape:window-y="23"
     inkscape:window-maximized="1"
     inkscape:current-layer="svg876" />
  <path
     id="ba255611-006f-40c2-b981-3cbda4cfa311-997"
     data-name="Path 680"
     d="M760.08335,336.9351a3.78766,3.78766,0,1,0,0,7.57532H836.9178a3.78766,3.78766,0,0,0,0-7.57532Z"
     transform="translate(-275.16231 -336.9351)"
     fill="#3f3d56" />
  <path
     id="f7616677-88a5-4e4e-be2c-5696cf4c3e42-998"
     data-name="Path 681"
     d="M760.08335,359.25074a3.78767,3.78767,0,0,0,0,7.57533H836.9178a3.78767,3.78767,0,0,0,0-7.57533Z"
     transform="translate(-275.16231 -336.9351)"
     fill="#3f3d56" />
  <path
     id="b0ec98cc-856e-42d0-b3d1-ea9b3df6bb16-999"
     data-name="Path 682"
     d="M798.50117,430.02472a23.84091,23.84091,0,1,1,23.84091-23.842h0A23.86874,23.86874,0,0,1,798.50117,430.02472Z"
     transform="translate(-275.16231 -336.9351)"
     fill="#e4e4e4" />
  <ellipse
     cx="484.90215"
     cy="475.49165"
     rx="7.19508"
     ry="22.91937"
     transform="translate(-427.67489 372.91709) rotate(-64.62574)"
     fill="#2f2e41"
     id="ellipse830" />
  <ellipse
     cx="585.28661"
     cy="504.7203"
     rx="7.19508"
     ry="22.91937"
     transform="translate(-462.64755 156.53075) rotate(-39.93837)"
     fill="#2f2e41"
     id="ellipse832" />
  <circle
     cx="261.3695"
     cy="159.8261"
     r="45.83867"
     fill="#2f2e41"
     id="circle834" />
  <rect
     x="266.84564"
     y="195.8006"
     width="13.92567"
     height="24.95017"
     fill="#2f2e41"
     id="rect836" />
  <rect
     x="238.9943"
     y="195.8006"
     width="13.92567"
     height="24.95017"
     fill="#2f2e41"
     id="rect838" />
  <ellipse
     cx="269.16657"
     cy="221.04089"
     rx="11.60475"
     ry="4.35179"
     fill="#2f2e41"
     id="ellipse840" />
  <ellipse
     cx="241.31523"
     cy="220.46068"
     rx="11.60475"
     ry="4.35179"
     fill="#2f2e41"
     id="ellipse842" />
  <path
     d="M522.13878,439.14059c4.093-16.48357,22.16034-26.18381,40.35452-21.66607s29.6254,21.54274,25.53236,38.02632-17.67239,16.53678-35.86657,12.019S518.04574,455.6242,522.13878,439.14059Z"
     transform="translate(-275.16231 -336.9351)"
     fill="#2fa4da"
     id="path844" />
  <circle
     cx="254.51656"
     cy="150.15373"
     r="15.28261"
     fill="#fff"
     id="circle846" />
  <circle
     cx="248.23545"
     cy="144.67575"
     r="5.0942"
     fill="#3f3d56"
     id="circle848" />
  <path
     d="M539.26587,518.92927a10.18842,10.18842,0,0,1-20.04736,3.64948h0l-.00358-.01969c-1.00237-5.5369,3.27861-7.49624,8.81551-8.49855S538.26356,513.39243,539.26587,518.92927Z"
     transform="translate(-275.16231 -336.9351)"
     fill="#fff"
     id="path850" />
  <ellipse
     cx="715.09785"
     cy="475.49165"
     rx="22.91937"
     ry="7.19508"
     transform="translate(-409.9374 15.37692) rotate(-25.37426)"
     fill="#2f2e41"
     id="ellipse852" />
  <ellipse
     cx="614.71339"
     cy="504.7203"
     rx="22.91937"
     ry="7.19508"
     transform="translate(-442.05925 315.09586) rotate(-50.06163)"
     fill="#2f2e41"
     id="ellipse854" />
  <circle
     cx="388.30588"
     cy="159.8261"
     r="45.83867"
     fill="#2f2e41"
     id="circle856" />
  <rect
     x="368.90407"
     y="195.8006"
     width="13.92567"
     height="24.95017"
     fill="#2f2e41"
     id="rect858" />
  <rect
     x="396.75541"
     y="195.8006"
     width="13.92567"
     height="24.95017"
     fill="#2f2e41"
     id="rect860" />
  <ellipse
     cx="380.50882"
     cy="221.04089"
     rx="11.60475"
     ry="4.35179"
     fill="#2f2e41"
     id="ellipse862" />
  <ellipse
     cx="408.36016"
     cy="220.46068"
     rx="11.60475"
     ry="4.35179"
     fill="#2f2e41"
     id="ellipse864" />
  <path
     d="M677.86122,439.14059c-4.093-16.48357-22.16034-26.18381-40.35452-21.66607s-29.6254,21.54274-25.53236,38.02632,17.67239,16.53678,35.86657,12.019S681.95426,455.6242,677.86122,439.14059Z"
     transform="translate(-275.16231 -336.9351)"
     fill="#2fa4da"
     id="path866" />
  <circle
     cx="395.15882"
     cy="150.15373"
     r="15.28261"
     fill="#fff"
     id="circle868" />
  <circle
     cx="401.43994"
     cy="144.67575"
     r="5.0942"
     fill="#3f3d56"
     id="circle870" />
  <path
     d="M660.73413,518.92927a10.18842,10.18842,0,0,0,20.04736,3.64948h0l.00358-.01969c1.00237-5.5369-3.27861-7.49624-8.81551-8.49855S661.73644,513.39243,660.73413,518.92927Z"
     transform="translate(-275.16231 -336.9351)"
     fill="#fff"
     id="path872" />
  <path
     d="M923.647,563.0649H276.353a1.19069,1.19069,0,0,1,0-2.38137H923.647a1.19068,1.19068,0,0,1,0,2.38137Z"
     transform="translate(-275.16231 -336.9351)"
     fill="#3f3d56"
     id="path874" />
  <path
     id="path3619"
     style="fill:#000000;fill-opacity:0.31373"
     d="m 167.73577,31.498921 c -13.94,-13.95 -38.75,-14.66 -53.51,-1.55 -10.39,9.11 -14.529997,23.1 -15.889997,36.35 -0.96,9.55 -0.39,19.8 4.509997,28.31 4.92,6.319999 13.49,7.649999 21.01,8.029999 14.99,0.67 30.83,-2.949999 42.81,-12.439999 14.44,-12.39 17.81,-35.46 7.21,-51.27 -1.73,-2.7 -3.82,-5.19 -6.14,-7.43 z" />
  <path
     id="path2383"
     style="fill:#dc9a6a;fill-opacity:1;stroke:#000000;stroke-width:4;stroke-linecap:round;stroke-linejoin:round"
     d="m 162.73577,21.498921 c -13.94,-13.9500002 -38.75,-14.6600002 -53.51,-1.55 -10.389997,9.11 -14.529997,23.1 -15.889997,36.35 -0.96,9.55 -0.39,19.8 4.51,28.31 4.919997,6.32 13.489997,7.65 21.009997,8.03 14.99,0.67 30.83,-2.95 42.81,-12.44 14.44,-12.39 17.81,-35.46 7.21,-51.27 -1.73,-2.7 -3.82,-5.19 -6.14,-7.43 z" />
  <path
     id="path3250"
     style="fill:#000000;fill-opacity:0.31373"
     d="m 131.29577,10.728921 c 2.97,0.71 5.85,1.8 8.54,3.32 2.61,1.41 5.08,3.1 7.29,5.07 13.33,11.4 16.08,32.7 6.35,47.26 -8.29,11.39 -21.46,18.52 -34.93,21.64 -5.46,1.23 -11.68,2.08 -17,0.06 4.92,3.38 11.43,4.27 17.3,4.56 14.99,0.67 30.83,-2.95 42.82,-12.44 14.44,-12.39 17.81,-35.46 7.21,-51.27 -1.73,-2.71 -3.82,-5.19 -6.14,-7.44 -8.15,-8.16 -20.03,-11.7800002 -31.44,-10.76 z" />
  <path
     id="path3239"
     style="fill:url(#linearGradient2009);fill-rule:evenodd;stroke:#000000;stroke-width:4"
     d="m 163.10577,17.988921 c 2.75,-8.5400002 16.62,-16.4300002 20.73,-13.4600002 4.11,2.98 4.43,10.0600002 3.7,11.1100002 -0.72,1.04 -8.14,-2.17 -12.82,1.7 -4.67,3.86 -7.02,7.16 -7.02,7.16 z" />
  <path
     id="path3263"
     style="fill:#000000;fill-opacity:0.31373;fill-rule:evenodd"
     d="m 186.66577,8.2389208 c 0.09,0.93 -0.04,1.7 -0.29,2.0000002 -0.71,0.85 -7.82,0.02 -12.38,3.55 -4.55,3.53 -6.85,6.23 -6.85,6.23 l -3.64,-3.06 c -0.14,0.35 -0.29,0.69 -0.4,1.03 l 4.59,6.52 c 0,0 2.35,-3.31 7.02,-7.18 4.68,-3.86 12.1,-0.65 12.82,-1.7 0.5,-0.71 0.5,-4.27 -0.87,-7.3900002 z" />
  <path
     id="path3201"
     style="fill:url(#linearGradient2009);stroke:#000000;stroke-width:4;stroke-linecap:round;stroke-linejoin:round"
     d="m 166.30577,18.038921 c -13.69,-13.5600002 -36.38,-17.06000017 -52.34,-6.89 -3.61,1.99 -2.52,6.98 -2.48,6.9 6.03,-4.77 12.28,0.48 20.49,6.37 10.05,7.21 21.1,18.27 29.21,29.02 5.68,7.52 9.74,14.91 6.49,20.08 0.17,0.05 4.89,1.38 7.05,-3.02 10.88,-20.51 4.73,-40.21 -8.42,-52.46 z" />
  <path
     id="path3269"
     style="fill:#000000;fill-opacity:0.31373"
     d="m 165.22577,16.528921 c 4.34,11.26 3.77,21.91 -1.74,32.19 -1.25,2.34 -3.17,1.58 -4.78,1.55 0.85,1.05 1.68,2.12 2.48,3.17 5.67,7.53 9.74,14.92 6.49,20.08 0.17,0.05 4.89,1.39 7.05,-3.01 9.96,-18.8 5.59,-39.25 -9.5,-53.98 z" />
</svg>
