<?xml version="1.0" encoding="UTF-8" standalone="no"?>
<svg
   data-name="Layer 1"
   width="651.8127"
   height="551.31041"
   viewBox="0 0 651.8127 551.31041"
   version="1.1"
   id="svg896"
   sodipodi:docname="undraw_active_support_sqrl.svg"
   inkscape:version="1.1.1 (c3084ef, 2021-09-22)"
   xmlns:inkscape="http://www.inkscape.org/namespaces/inkscape"
   xmlns:sodipodi="http://sodipodi.sourceforge.net/DTD/sodipodi-0.dtd"
   xmlns:xlink="http://www.w3.org/1999/xlink"
   xmlns="http://www.w3.org/2000/svg"
   xmlns:svg="http://www.w3.org/2000/svg">
  <defs
     id="defs900">
    <linearGradient
       id="linearGradient2009"
       inkscape:swatch="solid"
       gradientTransform="matrix(0.03284317,0.14042683,0.44828622,-0.13691972,307.22527,425.44839)">
      <stop
         style="stop-color:#74401b;stop-opacity:1;"
         offset="0"
         id="stop2007" />
    </linearGradient>
    <linearGradient
       id="linearGradient2069"
       inkscape:swatch="solid"
       gradientTransform="matrix(0.38152652,0.10207337,-0.10249719,0.3819541,938.18201,-182.81306)">
      <stop
         style="stop-color:#d07839;stop-opacity:1;"
         offset="0"
         id="stop2067" />
    </linearGradient>
    <linearGradient
       inkscape:collect="always"
       xlink:href="#linearGradient2069"
       id="linearGradient2071"
       x1="162.51797"
       y1="416.035"
       x2="448.50153"
       y2="416.035"
       gradientUnits="userSpaceOnUse"
       gradientTransform="translate(209.15031,-193.03628)" />
    <linearGradient
       inkscape:collect="always"
       xlink:href="#linearGradient2069"
       id="linearGradient2083"
       x1="269.20129"
       y1="561.96002"
       x2="515.17871"
       y2="561.96002"
       gradientUnits="userSpaceOnUse"
       gradientTransform="matrix(1.3428,0,0,1.344,-11.08969,-339.09628)" />
    <linearGradient
       inkscape:collect="always"
       xlink:href="#linearGradient2069"
       id="linearGradient2077"
       x1="202.81"
       y1="467.85501"
       x2="564.1795"
       y2="467.85501"
       gradientUnits="userSpaceOnUse"
       gradientTransform="translate(209.15031,-193.03628)" />
  </defs>
  <sodipodi:namedview
     id="namedview898"
     pagecolor="#ffffff"
     bordercolor="#666666"
     borderopacity="1.0"
     inkscape:pageshadow="2"
     inkscape:pageopacity="0.0"
     inkscape:pagecheckerboard="0"
     showgrid="false"
     inkscape:zoom="1.0916486"
     inkscape:cx="325.65424"
     inkscape:cy="275.27173"
     inkscape:window-width="1440"
     inkscape:window-height="855"
     inkscape:window-x="0"
     inkscape:window-y="23"
     inkscape:window-maximized="1"
     inkscape:current-layer="svg896" />
  <path
     d="M622.7107,251.78146c21.62346-15.9736,52.06689-22.09715,75.88747-9.63549A123.86323,123.86323,0,0,0,636.96,300.7345c-4.97231,10.11919-9.44907,21.8919-19.70824,26.5687-6.38345,2.91015-13.91747,2.34819-20.52752-.00156-6.61031-2.35-12.49027-6.34193-18.28842-10.29169l-1.73878-.20932C587.01552,291.97609,601.08724,267.75506,622.7107,251.78146Z"
     transform="translate(-274.09365 -174.3448)"
     fill="#f0f0f0"
     id="path824" />
  <path
     d="M698.40645,242.67649a105.86975,105.86975,0,0,0-61.32075,21.9692,45.59143,45.59143,0,0,0-9.99022,10.21,26.14853,26.14853,0,0,0-4.31106,13.0692c-.31513,4.3434-.1345,8.82271-1.5,13.01386a16.01079,16.01079,0,0,1-8.93551,9.5713c-5.12545,2.31655-10.7776,2.65328-16.31638,2.7905-6.14976.15235-12.53985.21316-18.13271,3.10887-.67765.35086-1.18244-.72114-.50581-1.07147,9.73062-5.038,21.10151-1.751,31.32866-4.74939,4.77218-1.39912,9.15162-4.24487,11.06774-9.00614,1.67556-4.16352,1.49324-8.78279,1.77431-13.18333a27.90257,27.90257,0,0,1,3.73915-12.93592,42.1479,42.1479,0,0,1,9.56083-10.55644,102.71252,102.71252,0,0,1,27.79317-16.0653,107.747,107.747,0,0,1,35.85258-7.34544c.76021-.02358.6512,1.157-.104,1.18048Z"
     transform="translate(-274.09365 -174.3448)"
     fill="#fff"
     id="path826" />
  <path
     d="M642.50292,259.93723a15.88385,15.88385,0,0,1,3.73161-20.22656c.59245-.47977,1.36582.41833.77259.89873a14.70808,14.70808,0,0,0-3.43272,18.822c.38315.65915-.69051,1.16119-1.07148.50581Z"
     transform="translate(-274.09365 -174.3448)"
     fill="#fff"
     id="path828" />
  <path
     d="M622.65416,285.7016a30.6148,30.6148,0,0,0,22.19878-2.23674c.67887-.34844,1.18386.72345.50581,1.07148a31.844,31.844,0,0,1-23.10457,2.28056c-.73512-.20776-.33115-1.32194.4-1.1153Z"
     transform="translate(-274.09365 -174.3448)"
     fill="#fff"
     id="path830" />
  <path
     d="M674.04613,245.93647a8.991,8.991,0,0,0,6.18323,5.87817c.73739.19834.33261,1.31236-.4,1.11531a10.07519,10.07519,0,0,1-6.85472-6.48767.61234.61234,0,0,1,.28283-.78864.59543.59543,0,0,1,.78864.28283Z"
     transform="translate(-274.09365 -174.3448)"
     fill="#fff"
     id="path832" />
  <path
     d="M717.48461,331.18753c-.464-.11075-.92792-.2215-1.39947-.32571a118.40667,118.40667,0,0,0-18.99746-2.83141c-.49419-.04093-.99563-.075-1.49-.10162a124.8269,124.8269,0,0,0-45.57546,5.91413,121.22208,121.22208,0,0,0-17.02746,7.02206c-7.581,3.82469-15.49651,8.57481-23.65806,9.64035a20.79642,20.79642,0,0,1-2.56581.20343L576.57653,318.9381c-.03238-.10664-.07232-.20678-.105-.31377l-1.26357-1.21338c.27314-.16259.55993-.32535.83307-.48794.15806-.095.32284-.18287.48089-.27785.1075-.06107.21538-.12183.30889-.18309.03571-.02046.07175-.04057.10024-.05418.09352-.06125.18689-.10823.27315-.16259q2.40082-1.37131,4.8293-2.71366c.00725-.00689.00725-.00689.02123-.00671,12.35321-6.78717,25.38157-12.60268,38.87843-16.25585.40611-.10977.81914-.2268,1.239-.32206a115.67343,115.67343,0,0,1,18.58152-3.32562,102.26163,102.26163,0,0,1,10.33807-.43015,85.03674,85.03674,0,0,1,26.21384,4.44385c16.84592,5.67712,31.68868,16.67867,39.5873,32.34924C717.09467,330.38536,717.29009,330.77962,717.48461,331.18753Z"
     transform="translate(-274.09365 -174.3448)"
     fill="#f0f0f0"
     id="path834" />
  <path
     d="M717.0135,331.49934a105.86972,105.86972,0,0,0-62.18816-19.37815,45.591,45.591,0,0,0-14.12377,2.13732,26.14842,26.14842,0,0,0-11.3107,7.83948c-2.86664,3.27822-5.41927,6.96345-9.03288,9.48775a16.01083,16.01083,0,0,1-12.89709,2.26236c-5.4871-1.23625-10.20277-4.37037-14.70779-7.59554-5.002-3.58094-10.1407-7.37966-16.34971-8.43488-.7523-.12785-.50993-1.2877.24124-1.16,10.80261,1.8359,17.90259,11.30651,27.87365,15.06989,4.65268,1.75606,9.86276,2.12062,14.25928-.52736,3.84457-2.31553,6.48012-6.11353,9.354-9.45789a27.90257,27.90257,0,0,1,10.77383-8.07738,42.14776,42.14776,0,0,1,13.98949-2.67244,102.71233,102.71233,0,0,1,31.86371,3.90616,107.747,107.747,0,0,1,33.04874,15.72081c.62118.43887-.17668,1.3159-.7938.87991Z"
     transform="translate(-274.09365 -174.3448)"
     fill="#fff"
     id="path836" />
  <path
     d="M661.9855,311.62329a15.88384,15.88384,0,0,1,15.15727-13.90309c.76189-.02638.83867,1.15632.07577,1.18273a14.70807,14.70807,0,0,0-14.073,12.9616c-.09093.757-1.25045.51141-1.16-.24124Z"
     transform="translate(-274.09365 -174.3448)"
     fill="#fff"
     id="path838" />
  <path
     d="M630.62545,320.24436a30.61485,30.61485,0,0,0,19.07115,11.5793c.75183.13051.50968,1.2904-.24124,1.16a31.844,31.844,0,0,1-19.82077-12.08964c-.46186-.60848.5315-1.25487.99086-.6497Z"
     transform="translate(-274.09365 -174.3448)"
     fill="#fff"
     id="path840" />
  <path
     d="M695.60041,319.43566a8.991,8.991,0,0,0,1.3979,8.41611c.46935.60233-.52456,1.2481-.99086.64969a10.07517,10.07517,0,0,1-1.56708-9.307.61235.61235,0,0,1,.70064-.45941.59543.59543,0,0,1,.4594.70065Z"
     transform="translate(-274.09365 -174.3448)"
     fill="#fff"
     id="path842" />
  <path
     d="M617.00532,275.54539h-2.33989V211.44461a37.09977,37.09977,0,0,0-37.09975-37.09981H441.75945a37.09978,37.09978,0,0,0-37.09986,37.0997V563.10644a37.0998,37.0998,0,0,0,37.09975,37.09982H577.5655a37.09979,37.09979,0,0,0,37.09989-37.09968V321.17342h2.33993Z"
     transform="translate(-274.09365 -174.3448)"
     fill="#3f3d56"
     id="path844" />
  <path
     d="M579.06253,183.99688h-17.7272a13.16294,13.16294,0,0,1-12.18707,18.1342H471.34663a13.16289,13.16289,0,0,1-12.18706-18.13422H442.60232a27.70572,27.70572,0,0,0-27.70573,27.70567V562.84847a27.70571,27.70571,0,0,0,27.70569,27.70573H579.06253a27.7057,27.7057,0,0,0,27.70572-27.70569h0v-351.146A27.70569,27.70569,0,0,0,579.06253,183.99688Z"
     transform="translate(-274.09365 -174.3448)"
     fill="#fff"
     id="path846" />
  <path
     d="M513.45449,477.75275a76.42878,76.42878,0,0,1-76.5-76.5,76.38991,76.38991,0,0,1,41.7583-68.166,76.65655,76.65655,0,0,1,59.40674-4.26367,76.50962,76.50962,0,0,1-24.665,148.92969Zm0-150a72.68935,72.68935,0,0,0-33.37769,8.00586,73.502,73.502,0,1,0,76.42774,125.05957,72.8468,72.8468,0,0,0,10.95654-9.72168,73.474,73.474,0,0,0-54.00659-123.34375Z"
     transform="translate(-274.09365 -174.3448)"
     fill="#f0f0f0"
     id="path848" />
  <path
     d="M347.69027,333.36145a14.47588,14.47588,0,0,1,12.0229,18.65894l25.41716,21.17171L376.03158,391.776l-35.474-30.40269a14.5543,14.5543,0,0,1,7.13273-28.01189Z"
     transform="translate(-274.09365 -174.3448)"
     fill="#ffb6b6"
     id="path850" />
  <path
     d="M585.0746,421.65265c-.50976-5.47961-2.61718-15.33026-4.40527-18.9726-5.49707-14.38787-41.01514-26.21295-45.78467-27.73736l-1.21-13.45-49.3501-5.31-6.26025,17.2-17.69971,6.64a8.693,8.693,0,0,0-5.18017,5.31h0l-15.87988,4.59-15.66993,4.53-54.43994-38.36-2.57031,1.68-17.17969,11.21-2.65039,1.73,70.4502,63.56,26.16992-6.14,19.68017-4.63,1.67969,6.82-4.34961,23.96a74.97706,74.97706,0,0,0,96.96,7.75l11.17969-9.92a74.88917,74.88917,0,0,0,16.81006-29.53Z"
     transform="translate(-274.09365 -174.3448)"
     fill="#e4e4e4"
     id="path852" />
  <circle
     cx="513.33775"
     cy="311.4487"
     r="35.53244"
     transform="matrix(0.94932, -0.31431, 0.31431, 0.94932, -345.96993, 2.78906)"
     fill="#ffb6b6"
     id="circle854" />
  <path
     d="M485.27061,270.9435a23.983,23.983,0,0,1,14.5216-9.67278,22.8969,22.8969,0,0,1,16.88507,3.09712c5.452-2.19621,11.33029-3.6533,17.10563-2.91256s11.43572,3.96667,14.10807,9.28129a25.37375,25.37375,0,0,0,2.03827,3.95869c2.35454,3.14113,6.72971,3.54858,10.59381,3.69946q-2.93021,1.70916-5.86165,3.41809,2.92087,1.361,5.84236,2.72228-3.9758,1.51758-7.951,3.03528c6.16847,5.42231,7.66063,15.07227,5.32458,23.16276-2.21112,7.65987-7.281,14.108-12.94234,19.62844-1.10458-4.11918.11052-8.585.91956-12.84962.85442-4.50607.99132-9.775-2.1637-12.95635-2.12834-2.146-5.25043-2.79434-8.19419-3.315a397.68841,397.68841,0,0,0-44.88637-5.32972,12.6995,12.6995,0,0,0-5.98288.61092c-3.66278,1.6276-5.13441,6.09753-6.19581,10.06093a79.77531,79.77531,0,0,1,1.20815-20.80159C480.64386,280.53748,482.22559,275.28913,485.27061,270.9435Z"
     transform="translate(-274.09365 -174.3448)"
     fill="#2f2e41"
     id="path856" />
  <path
     d="M531.45449,513.79523h-42a5.5,5.5,0,0,1,0-11h42a5.5,5.5,0,0,1,0,11Z"
     transform="translate(-274.09365 -174.3448)"
     fill="#2fa4da"
     id="path858" />
  <path
     d="M393.63613,219.47H278.11147a4.01807,4.01807,0,0,1,0-8.03613H393.63613a4.01806,4.01806,0,0,1,0,8.03613Z"
     transform="translate(-274.09365 -174.3448)"
     fill="#2fa4da"
     id="path860" />
  <path
     d="M460.33632,245.13312H278.11147a4.01782,4.01782,0,0,1,0-8.03565H460.33632a4.01782,4.01782,0,1,1,0,8.03565Z"
     transform="translate(-274.09365 -174.3448)"
     fill="#2fa4da"
     id="path862" />
  <path
     d="M425.3185,269.31036h-147.207a4.01782,4.01782,0,1,1,0-8.03564h147.207a4.01782,4.01782,0,1,1,0,8.03564Z"
     transform="translate(-274.09365 -174.3448)"
     fill="#cacaca"
     id="path864" />
  <path
     d="M361.1205,293.39874h-83.009a4.01782,4.01782,0,1,1,0-8.03564h83.009a4.01782,4.01782,0,1,1,0,8.03564Z"
     transform="translate(-274.09365 -174.3448)"
     fill="#cacaca"
     id="path866" />
  <path
     d="M406.97646,317.48517h-128.865a4.01783,4.01783,0,0,1,0-8.03565h128.865a4.01783,4.01783,0,0,1,0,8.03565Z"
     transform="translate(-274.09365 -174.3448)"
     fill="#cacaca"
     id="path868" />
  <path
     d="M924.71567,725.6552h-647.294a1.19068,1.19068,0,1,1,0-2.38136h647.294a1.19068,1.19068,0,0,1,0,2.38136Z"
     transform="translate(-274.09365 -174.3448)"
     fill="#cacaca"
     id="path894" />
  <g
     id="g1720"
     transform="matrix(0.6,0,0,0.6,166.59979,199.23982)">
    <path
       id="path3584"
       style="fill:url(#linearGradient2077);fill-opacity:1;stroke:#000000;stroke-width:4;stroke-linecap:round;stroke-linejoin:round"
       d="m 771.28031,274.81372 c -1.39,78.87 -54.33,113.15 -55.2,79.85 -1.08,-42.12 -19.22,-151.36 -90.42,-117.86 -85.15,40.06 -8.39,284.07 -33.04,284.07 -98.62,0 -178.66,-110.23 -178.66,-246.06 0,-135.82 80.04,-246.05 178.66,-246.05 98.62,0 181.02,111.96 178.66,246.05 z" />
    <path
       id="path3604"
       style="fill:#000000;fill-opacity:0.31373"
       d="m 723.03031,106.02372 c 22.87,41.39 34.22,93.29 35.24,147.78 0.95,50.34 -12.76,97.88 -38.18,111.35 11.87,3.8 49.8,-11.48 51.18,-90.35 1.15,-64.81 -17.52,-124.45 -48.24,-168.78 z m -86.1,103.5 c -7.31,0.14 -15.38,2.1 -24.28,6.28 -85.15,40.06 -8.38,284.07 -33.03,284.07 -50.79,0 -96.65,-29.24 -129.19,-76.16 32.65,59.02 84.2,97.16 142.19,97.16 24.65,0 -52.12,-244.01 33.03,-284.07 26.4,-12.41 45.51,-5.21 59.16,10.91 -10.18,-21.96 -25.48,-38.61 -47.88,-38.19 z" />
    <path
       id="path2385"
       style="fill:url(#linearGradient2083);fill-opacity:1;stroke:#000000;stroke-width:3.99984;stroke-linecap:round;stroke-linejoin:round"
       d="m 678.69324,416.17796 a 163.1502,163.296 0 1 1 -326.3004,0 163.1502,163.296 0 1 1 326.3004,0 z" />
    <path
       id="path3276"
       style="fill:#000000;fill-opacity:0.31373"
       d="m 515.55031,252.90372 c -17.36,0 -34.07,2.74 -49.77,7.77 14.12,-3.3 29.01,-5.08 44.4,-5.08 42.22,0 80.72,13.28 109.69,35.07 -28.28,-23.58 -64.66,-37.76 -104.32,-37.76 z m 154.51,110.72 c 2.14,8.72 3.28,17.72 3.28,26.96 0,74.52 -73.1,134.99 -163.16,134.99 -75.31,0 -138.73,-42.28 -157.49,-99.71 5,85.65 76.04,153.64 162.86,153.64 90.06,0 163.16,-73.16 163.16,-163.3 0,-18.39 -3.04,-36.08 -8.65,-52.58 z" />
    <path
       id="path3236"
       style="fill:#000000;fill-opacity:0.31373"
       d="m 515.55031,252.90372 c -27.82,0 -54.03,6.97 -76.96,19.28 10.86,37.97 42.59,73.08 80.07,73.08 36.48,0 67.57,-33.26 79.22,-70.06 -24.17,-14.17 -52.31,-22.3 -82.33,-22.3 z" />
    <path
       id="path3573"
       style="fill:url(#linearGradient2071);fill-opacity:1;fill-rule:evenodd;stroke:#000000;stroke-width:4;stroke-linejoin:round"
       d="m 627.34031,116.88372 c -19.81,0 -60.05,10.54 -67.09,37.87 -0.11,0.21 -0.32,0.97 -0.55,2.14 -12.74,-7.79 -27.72,-12.32 -43.73,-12.32 -16.72,0 -32.26,4.94 -45.35,13.36 -0.27,-1.71 -0.6,-2.91 -0.73,-3.18 -7.04,-27.33 -47.28,-37.84 -67.1,-37.85 -3.15,0 -5.76,0.27 -7.67,0.77 -10.63,1.48 -22.27,5.73 -21.42,8.05 7.8,-1.33 11.74,0.19 11.62,1.45 -0.24,2.36 -4.94,2.99 -3.43,11.5 2.85,-4.13 6.82,-5.55 9.94,-6.21 3.2,20.09 17.2,55.16 43.4,56.98 2.25,0.16 4.35,0.15 6.33,0.11 -6.18,11.72 -9.69,25.07 -9.69,39.24 0,46.47 37.67,100.32 84.1,100.32 46.42,0 84.14,-53.85 84.14,-100.32 0,-14.16 -3.52,-27.48 -9.7,-39.19 1.43,-0.01 2.94,-0.05 4.5,-0.16 26.11,-1.81 40.11,-36.68 43.37,-56.79 2.98,0.73 6.54,2.23 9.15,6.02 1.51,-8.51 -3.19,-9.14 -3.43,-11.5 -0.12,-1.26 3.82,-2.78 11.62,-1.45 0.81,-2.2 -9.58,-6.13 -19.72,-7.8 -1.93,-0.68 -4.89,-1.04 -8.56,-1.04 z" />
    <path
       id="path3619"
       style="fill:#000000;fill-opacity:0.31373"
       d="m 548.04031,366.25372 c -13.94,-13.95 -38.75,-14.66 -53.51,-1.55 -10.39,9.11 -14.53,23.1 -15.89,36.35 -0.96,9.55 -0.39,19.8 4.51,28.31 4.92,6.32 13.49,7.65 21.01,8.03 14.99,0.67 30.83,-2.95 42.81,-12.44 14.44,-12.39 17.81,-35.46 7.21,-51.27 -1.73,-2.7 -3.82,-5.19 -6.14,-7.43 z" />
    <path
       id="path3242"
       style="fill:#000000;fill-opacity:0.31373;stroke-width:0.62866"
       d="m 498.54465,394.50471 a 30.8566,30.884099 0 1 1 -61.7132,0 30.8566,30.884099 0 1 1 61.7132,0 z" />
    <path
       id="path2383"
       style="fill:#dc9a6a;fill-opacity:1;stroke:#000000;stroke-width:4;stroke-linecap:round;stroke-linejoin:round"
       d="m 543.04031,356.25372 c -13.94,-13.95 -38.75,-14.66 -53.51,-1.55 -10.39,9.11 -14.53,23.1 -15.89,36.35 -0.96,9.55 -0.39,19.8 4.51,28.31 4.92,6.32 13.49,7.65 21.01,8.03 14.99,0.67 30.83,-2.95 42.81,-12.44 14.44,-12.39 17.81,-35.46 7.21,-51.27 -1.73,-2.7 -3.82,-5.19 -6.14,-7.43 z" />
    <path
       id="path3250"
       style="fill:#000000;fill-opacity:0.31373"
       d="m 511.60031,345.48372 c 2.97,0.71 5.85,1.8 8.54,3.32 2.61,1.41 5.08,3.1 7.29,5.07 13.33,11.4 16.08,32.7 6.35,47.26 -8.29,11.39 -21.46,18.52 -34.93,21.64 -5.46,1.23 -11.68,2.08 -17,0.06 4.92,3.38 11.43,4.27 17.3,4.56 14.99,0.67 30.83,-2.95 42.82,-12.44 14.44,-12.39 17.81,-35.46 7.21,-51.27 -1.73,-2.71 -3.82,-5.19 -6.14,-7.44 -8.15,-8.16 -20.03,-11.78 -31.44,-10.76 z" />
    <path
       id="path3239"
       style="fill:url(#linearGradient2009);fill-rule:evenodd;stroke:#000000;stroke-width:4"
       d="m 543.41031,352.74372 c 2.75,-8.54 16.62,-16.43 20.73,-13.46 4.11,2.98 4.43,10.06 3.7,11.11 -0.72,1.04 -8.14,-2.17 -12.82,1.7 -4.67,3.86 -7.02,7.16 -7.02,7.16 z" />
    <path
       id="path3263"
       style="fill:#000000;fill-opacity:0.31373;fill-rule:evenodd"
       d="m 566.97031,342.99372 c 0.09,0.93 -0.04,1.7 -0.29,2 -0.71,0.85 -7.82,0.02 -12.38,3.55 -4.55,3.53 -6.85,6.23 -6.85,6.23 l -3.64,-3.06 c -0.14,0.35 -0.29,0.69 -0.4,1.03 l 4.59,6.52 c 0,0 2.35,-3.31 7.02,-7.18 4.68,-3.86 12.1,-0.65 12.82,-1.7 0.5,-0.71 0.5,-4.27 -0.87,-7.39 z" />
    <path
       id="path3201"
       style="fill:url(#linearGradient2009);stroke:#000000;stroke-width:4;stroke-linecap:round;stroke-linejoin:round"
       d="m 546.61031,352.79372 c -13.69,-13.56 -36.38,-17.06 -52.34,-6.89 -3.61,1.99 -2.52,6.98 -2.48,6.9 6.03,-4.77 12.28,0.48 20.49,6.37 10.05,7.21 21.1,18.27 29.21,29.02 5.68,7.52 9.74,14.91 6.49,20.08 0.17,0.05 4.89,1.38 7.05,-3.02 10.88,-20.51 4.73,-40.21 -8.42,-52.46 z" />
    <path
       id="path3269"
       style="fill:#000000;fill-opacity:0.31373"
       d="m 545.53031,351.28372 c 4.34,11.26 3.77,21.91 -1.74,32.19 -1.25,2.34 -3.17,1.58 -4.78,1.55 0.85,1.05 1.68,2.12 2.48,3.17 5.67,7.53 9.74,14.92 6.49,20.08 0.17,0.05 4.89,1.39 7.05,-3.01 9.96,-18.8 5.59,-39.25 -9.5,-53.98 z" />
    <path
       id="path3159"
       style="fill:url(#linearGradient2069);stroke:#000000;stroke-width:4.00001;stroke-linecap:round;stroke-linejoin:round"
       d="m 489.31617,372.79582 a 30.883758,30.85647 59.871655 1 1 -53.4449,30.8566 30.883758,30.85647 59.871655 1 1 53.4449,-30.8566 z" />
    <path
       id="path3244"
       style="fill:#000000;fill-opacity:0.31373;stroke-width:0.62866"
       d="m 614.30265,394.98471 a 30.8566,30.884099 0 1 1 -61.7132,0 30.8566,30.884099 0 1 1 61.7132,0 z" />
    <path
       id="path3161"
       style="fill:url(#linearGradient2069);stroke:#000000;stroke-width:3.99999;stroke-linecap:round;stroke-linejoin:round"
       d="m 600.27788,410.0421 a 30.856478,30.883561 45 1 1 -43.63765,-43.63765 30.856478,30.883561 45 1 1 43.63765,43.63765 z" />
    <path
       id="path3163"
       style="fill:url(#linearGradient2069);stroke:#000000;stroke-width:4;stroke-linecap:round;stroke-linejoin:round"
       d="m 594.61031,486.43372 c -40.83,0 -73.98,33.18 -73.98,74.04 0,8.45 1.42,16.55 4.03,24.11 h 139.86 c 2.61,-7.56 4.03,-15.66 4.03,-24.11 0,-40.86 -33.11,-74.04 -73.94,-74.04 z" />
    <path
       id="path3165"
       style="fill:url(#linearGradient2069);stroke:#000000;stroke-width:4;stroke-linecap:round;stroke-linejoin:round"
       d="m 446.65031,486.43372 c -40.83,0 -73.94,33.18 -73.94,74.04 0,8.45 1.42,16.55 4.03,24.11 h 139.86 c 2.61,-7.56 4.03,-15.66 4.03,-24.11 0,-40.86 -33.15,-74.04 -73.98,-74.04 z" />
    <path
       id="path3177"
       style="fill:#ffffff;stroke:#000000;stroke-width:4.00002;stroke-linecap:round;stroke-linejoin:round"
       d="m 513.0368,222.04586 a 27.480228,27.504785 0 1 1 -54.96045,0 27.480228,27.504785 0 1 1 54.96045,0 z" />
    <path
       id="path3179"
       style="fill:#ffffff;stroke:#000000;stroke-width:4.00002;stroke-linecap:round;stroke-linejoin:round"
       d="m 573.8968,222.04586 a 27.480228,27.504785 0 1 1 -54.96045,0 27.480228,27.504785 0 1 1 54.96045,0 z" />
    <path
       id="path3181"
       style="fill:#000000;stroke-width:1.3434"
       d="m 504.52333,225.38764 a 8.875908,8.88384 0 1 1 -17.75181,0 8.875908,8.88384 0 1 1 17.75181,0 z" />
    <path
       id="path3183"
       style="fill:#000000;stroke-width:1.3434"
       d="m 545.12333,225.38764 a 8.875908,8.88384 0 1 1 -17.75181,0 8.875908,8.88384 0 1 1 17.75181,0 z" />
    <path
       id="path3192"
       style="fill:#000000;fill-rule:evenodd"
       d="m 501.78031,274.81372 c 4.48,-4.79 23.51,-5.83 27.49,0.59 3.98,6.43 -5.97,19.75 -13.75,19.15 -7.74,-0.6 -17.94,-15.27 -13.74,-19.74 z" />
    <path
       id="path3216"
       style="fill:#74401b;fill-opacity:1;fill-rule:evenodd;stroke:#000000;stroke-width:4;stroke-linejoin:round"
       d="m 451.73031,177.17372 c -2.95,-42.72 -46.91,-52.45 -49.03,-47.38 -2.11,5.08 8.03,62.19 49.03,47.38 z" />
    <path
       id="path3218"
       style="fill:url(#linearGradient2009);fill-opacity:1;fill-rule:evenodd;stroke:#000000;stroke-width:4;stroke-linejoin:round"
       d="m 577.01031,177.17372 c 2.95,-42.72 46.91,-52.45 49.03,-47.38 2.11,5.08 -8.04,62.19 -49.03,47.38 z" />
    <path
       id="path3220"
       style="fill:url(#linearGradient2009);stroke:#000000;stroke-width:3.67216;stroke-linecap:round;stroke-linejoin:round"
       d="m 440.09751,563.21356 a 19.8065,23.52 0 1 1 -39.613,0 19.8065,23.52 0 1 1 39.613,0 z" />
    <path
       id="path3224"
       style="fill:url(#linearGradient2009);stroke:#000000;stroke-width:3.67216;stroke-linecap:round;stroke-linejoin:round"
       d="m 489.77751,563.21356 a 19.8065,23.52 0 1 1 -39.613,0 19.8065,23.52 0 1 1 39.613,0 z" />
    <path
       id="path3222"
       style="fill:url(#linearGradient2009);stroke:#000000;stroke-width:3.67216;stroke-linecap:round;stroke-linejoin:round"
       d="m 466.27751,563.21356 a 19.8065,23.52 0 1 1 -39.613,0 19.8065,23.52 0 1 1 39.613,0 z" />
    <path
       id="path3226"
       style="fill:url(#linearGradient2009);stroke:#000000;stroke-width:3.67216;stroke-linecap:round;stroke-linejoin:round"
       d="m 592.50651,563.21356 a 19.8065,23.52 0 1 1 -39.613,0 19.8065,23.52 0 1 1 39.613,0 z" />
    <path
       id="path3228"
       style="fill:url(#linearGradient2009);stroke:#000000;stroke-width:3.67216;stroke-linecap:round;stroke-linejoin:round"
       d="m 642.19151,563.21356 a 19.8065,23.52 0 1 1 -39.613,0 19.8065,23.52 0 1 1 39.613,0 z" />
    <path
       id="path3230"
       style="fill:url(#linearGradient2009);stroke:#000000;stroke-width:3.67216;stroke-linecap:round;stroke-linejoin:round"
       d="m 618.69151,563.21356 a 19.8065,23.52 0 1 1 -39.613,0 19.8065,23.52 0 1 1 39.613,0 z" />
    <path
       id="path3246"
       style="fill:#000000;fill-opacity:0.31373"
       d="m 593.48031,196.20372 c 1.53,6.34 2.35,12.98 2.35,19.78 0,46.47 -37.71,100.3 -84.14,100.3 -33.84,0 -62.99,-28.61 -76.33,-62.12 10.33,38.69 42.51,74.97 80.61,74.97 46.43,0 84.14,-53.87 84.14,-100.34 0,-11.56 -2.36,-22.56 -6.59,-32.59 z" />
    <path
       id="path3264"
       style="fill:url(#linearGradient2009);stroke:#000000;stroke-width:3.67228;stroke-linecap:round;stroke-linejoin:round"
       d="m 472.3086,395.62407 a 12.093522,10.621423 30.170207 1 1 -10.61445,18.4009 12.093522,10.621423 30.170207 1 1 10.61445,-18.4009 z" />
    <path
       id="path3266"
       style="fill:url(#linearGradient2009);stroke:#000000;stroke-width:3.67228;stroke-linecap:round;stroke-linejoin:round"
       d="m 485.6186,372.54407 a 12.093522,10.621423 30.170207 1 1 -10.61445,18.4009 12.093522,10.621423 30.170207 1 1 10.61445,-18.4009 z" />
    <path
       id="path3268"
       style="fill:url(#linearGradient2009);stroke:#000000;stroke-width:3.67228;stroke-linecap:round;stroke-linejoin:round"
       d="m 484.6786,387.35407 a 12.093522,10.621423 30.170207 1 1 -10.61445,18.4009 12.093522,10.621423 30.170207 1 1 10.61445,-18.4009 z" />
    <path
       id="path3270"
       style="fill:url(#linearGradient2009);stroke:#000000;stroke-width:3.67228;stroke-linecap:round;stroke-linejoin:round"
       d="m 567.98562,393.69 a 10.621436,12.093514 74.826868 1 0 5.4901,20.5212 10.621436,12.093514 74.826868 1 0 -5.4901,-20.5212 z" />
    <path
       id="path3272"
       style="fill:url(#linearGradient2009);stroke:#000000;stroke-width:3.67228;stroke-linecap:round;stroke-linejoin:round"
       d="m 561.10562,367.95 a 10.621436,12.093514 74.826868 1 0 5.4901,20.5212 10.621436,12.093514 74.826868 1 0 -5.4901,-20.5212 z" />
    <path
       id="path3274"
       style="fill:url(#linearGradient2009);stroke:#000000;stroke-width:3.67228;stroke-linecap:round;stroke-linejoin:round"
       d="m 558.18562,382.5 a 10.621436,12.093514 74.826868 1 0 5.4901,20.5212 10.621436,12.093514 74.826868 1 0 -5.4901,-20.5212 z" />
  </g>
</svg>
