<?xml version="1.0" encoding="UTF-8" standalone="no"?>
<svg
   data-name="Layer 1"
   width="693.97296"
   height="712.57302"
   viewBox="0 0 693.97296 712.57302"
   version="1.1"
   id="svg871"
   sodipodi:docname="undraw_fast_loading_sqrl.svg"
   inkscape:version="1.1.1 (c3084ef, 2021-09-22)"
   xmlns:inkscape="http://www.inkscape.org/namespaces/inkscape"
   xmlns:sodipodi="http://sodipodi.sourceforge.net/DTD/sodipodi-0.dtd"
   xmlns:xlink="http://www.w3.org/1999/xlink"
   xmlns="http://www.w3.org/2000/svg"
   xmlns:svg="http://www.w3.org/2000/svg">
  <defs
     id="defs875">
    <linearGradient
       id="linearGradient2009"
       inkscape:swatch="solid"
       gradientTransform="matrix(0.03284317,0.14042683,0.44828622,-0.13691972,623.77575,501.60934)">
      <stop
         style="stop-color:#74401b;stop-opacity:1;"
         offset="0"
         id="stop2007" />
    </linearGradient>
    <linearGradient
       id="linearGradient2069"
       inkscape:swatch="solid"
       gradientTransform="matrix(0.38152652,0.10207337,-0.10249719,0.3819541,1263.9514,210.28737)">
      <stop
         style="stop-color:#d07839;stop-opacity:1;"
         offset="0"
         id="stop2067" />
    </linearGradient>
    <linearGradient
       inkscape:collect="always"
       xlink:href="#linearGradient2069"
       id="linearGradient2071"
       x1="162.51797"
       y1="416.035"
       x2="448.50153"
       y2="416.035"
       gradientUnits="userSpaceOnUse"
       gradientTransform="translate(316.67525,-92.78898)" />
    <linearGradient
       inkscape:collect="always"
       xlink:href="#linearGradient2069"
       id="linearGradient2083"
       x1="269.20129"
       y1="561.96002"
       x2="515.17871"
       y2="561.96002"
       gradientUnits="userSpaceOnUse"
       gradientTransform="matrix(1.3428,0,0,1.344,96.43525,-238.84898)" />
    <linearGradient
       inkscape:collect="always"
       xlink:href="#linearGradient2069"
       id="linearGradient2077"
       x1="202.81"
       y1="467.85501"
       x2="564.1795"
       y2="467.85501"
       gradientUnits="userSpaceOnUse"
       gradientTransform="translate(316.67525,-92.78898)" />
  </defs>
  <sodipodi:namedview
     id="namedview873"
     pagecolor="#ffffff"
     bordercolor="#666666"
     borderopacity="1.0"
     inkscape:pageshadow="2"
     inkscape:pageopacity="0.0"
     inkscape:pagecheckerboard="0"
     showgrid="false"
     inkscape:zoom="0.87990985"
     inkscape:cx="347.19466"
     inkscape:cy="300.59898"
     inkscape:window-width="1440"
     inkscape:window-height="855"
     inkscape:window-x="0"
     inkscape:window-y="23"
     inkscape:window-maximized="1"
     inkscape:current-layer="svg871" />
  <path
     id="a7e0d23c-0c47-41f1-93b9-87dfccd4c0f5-435"
     data-name="Path 968"
     d="M752.75753,262.60547h-3.9v-106.977a61.915,61.915,0,0,0-61.915-61.915h-226.65a61.915,61.915,0,0,0-61.916,61.914v586.884a61.915,61.915,0,0,0,61.915,61.915h226.648a61.915,61.915,0,0,0,61.915-61.915v-403.758h3.9Z"
     transform="translate(-253.01352 -93.71349)"
     fill="#3f3d56" />
  <path
     id="a1ad11fc-8226-4675-bbe0-e36020d9de96-436"
     data-name="Path 969"
     d="M736.15756,151.48149v595.175a46.959,46.959,0,0,1-46.942,46.952h-231.3a46.966,46.966,0,0,1-46.973-46.952v-595.175a46.965,46.965,0,0,1,46.971-46.951h28.058a22.329,22.329,0,0,0,20.656,30.74h131.868a22.329,22.329,0,0,0,20.656-30.74h30.055a46.959,46.959,0,0,1,46.951,46.942Z"
     transform="translate(-253.01352 -93.71349)"
     fill="#fff" />
  <path
     id="a71e44ec-7616-4081-86af-b6db32cd39f3-437"
     data-name="Path 39"
     d="M678.82353,494.30947h-205.537a3.81,3.81,0,0,1-3.806-3.806V439.51949a3.811,3.811,0,0,1,3.806-3.806h205.537a3.811,3.811,0,0,1,3.806,3.806v50.985a3.811,3.811,0,0,1-3.806,3.806Zm-205.537-57.074a2.286,2.286,0,0,0-2.284,2.284v50.985a2.286,2.286,0,0,0,2.284,2.284h205.537a2.286,2.286,0,0,0,2.284-2.284v-50.985a2.286,2.286,0,0,0-2.284-2.284Z"
     transform="translate(-253.01352 -93.71349)"
     fill="#e6e6e6" />
  <path
     id="a3f57aef-fb20-4553-8f82-b751eb5ec42c-438"
     data-name="Path 40"
     d="M536.85153,454.07448a2.66449,2.66449,0,0,0,0,5.329h125.605a2.665,2.665,0,0,0,.2041-5.32611q-.0585-.00221-.11712-.0019h-125.692Z"
     transform="translate(-253.01352 -93.71349)"
     fill="#e6e6e6" />
  <path
     id="a617e1da-1a45-4bf0-a146-8b20186fa5b6-439"
     data-name="Path 41"
     d="M536.85153,470.05846a2.66449,2.66449,0,0,0,0,5.329h125.605a2.665,2.665,0,0,0,.2041-5.32611q-.0585-.00219-.11712-.00189h-125.692Z"
     transform="translate(-253.01352 -93.71349)"
     fill="#e6e6e6" />
  <path
     id="f83fafa3-5270-49ac-8952-eedc3d6c92ed-440"
     data-name="Path 42"
     d="M678.82353,579.28947h-205.537a3.81,3.81,0,0,1-3.806-3.806V524.49949a3.811,3.811,0,0,1,3.806-3.806h205.537a3.811,3.811,0,0,1,3.806,3.806v50.985A3.811,3.811,0,0,1,678.82353,579.28947Zm-205.537-57.074a2.286,2.286,0,0,0-2.284,2.284v50.985a2.286,2.286,0,0,0,2.284,2.284h205.537a2.286,2.286,0,0,0,2.284-2.284v-50.985a2.286,2.286,0,0,0-2.284-2.284Z"
     transform="translate(-253.01352 -93.71349)"
     fill="#e6e6e6" />
  <path
     id="b1e095e5-1d51-47f4-b1e9-85a21efab4ec-441"
     data-name="Path 43"
     d="M536.85153,539.33047a2.66449,2.66449,0,0,0,0,5.329h125.605a2.665,2.665,0,0,0,.087-5.328h-125.692Z"
     transform="translate(-253.01352 -93.71349)"
     fill="#e6e6e6" />
  <path
     id="e7ccabbb-2f45-40c9-adc9-a92013dc0f4d-442"
     data-name="Path 44"
     d="M536.85153,555.3185a2.66449,2.66449,0,0,0,0,5.329h125.605a2.665,2.665,0,0,0,.087-5.328h-125.692Z"
     transform="translate(-253.01352 -93.71349)"
     fill="#e6e6e6" />
  <path
     id="ec532991-8ec8-4eba-a86f-87c70c278f41-443"
     data-name="Path 39-2"
     d="M678.82353,664.54748h-205.537a3.81,3.81,0,0,1-3.806-3.806V609.7575a3.811,3.811,0,0,1,3.806-3.806h205.537a3.811,3.811,0,0,1,3.806,3.806v50.985a3.811,3.811,0,0,1-3.806,3.806Zm-205.537-57.074a2.286,2.286,0,0,0-2.284,2.284v50.985a2.286,2.286,0,0,0,2.284,2.284h205.537a2.286,2.286,0,0,0,2.284-2.284v-50.985a2.286,2.286,0,0,0-2.284-2.284Z"
     transform="translate(-253.01352 -93.71349)"
     fill="#e6e6e6" />
  <path
     id="a788f10e-f95b-4590-bad9-be702445c232-444"
     data-name="Path 40-2"
     d="M536.85153,624.59148a2.66449,2.66449,0,1,0,0,5.329h125.605a2.665,2.665,0,0,0,.2041-5.32611q-.0585-.00219-.11712-.00189h-125.692Z"
     transform="translate(-253.01352 -93.71349)"
     fill="#e6e6e6" />
  <path
     id="f15a5014-9b42-4c0b-a546-80766b911601-445"
     data-name="Path 41-2"
     d="M536.85153,640.57846a2.66449,2.66449,0,0,0,0,5.329h125.605a2.665,2.665,0,0,0,.2041-5.32611q-.0585-.0022-.11712-.00189h-125.692Z"
     transform="translate(-253.01352 -93.71349)"
     fill="#e6e6e6" />
  <path
     id="b97f850c-7352-4ff9-8496-0f681ff3b244-446"
     data-name="Path 970"
     d="M945.17252,806.28651h-690.347c-1,0-1.812-.468-1.812-1.045s.812-1.04505,1.812-1.04505H945.17447c1,0,1.812.468,1.812,1.045S946.17252,806.28651,945.17252,806.28651Z"
     transform="translate(-253.01352 -93.71349)"
     fill="#e6e6e6" />
  <g
     id="bf60e786-3805-43a5-8cdd-bbea060079bf"
     data-name="Group 59">
    <circle
       id="a323e3dd-8f2c-40f7-a0c1-7a235f78e8b7"
       data-name="Ellipse 5"
       cx="245.91502"
       cy="370.985"
       r="15.986"
       fill="#2fa4da" />
    <path
       id="b21d221e-9b86-4bff-9dca-a61a27263db1-451"
       data-name="Path 40-3"
       d="M491.27554,461.71247c-.184,0-.333,1.193-.333,2.664s.149,2.665.333,2.665h15.719c.184.024.336-1.149.339-2.62a5.94306,5.94306,0,0,0-.328-2.708h-15.73Z"
       transform="translate(-253.01352 -93.71349)"
       fill="#e6e6e6" />
  </g>
  <g
     id="b51141dd-8175-4f5a-b697-41b89601b37f"
     data-name="Group 60">
    <circle
       id="e363222e-d569-47a6-8bf5-edbaac636a07"
       data-name="Ellipse 5-2"
       cx="245.91502"
       cy="456.278"
       r="15.986"
       fill="#2fa4da" />
    <path
       id="bf4b9d9b-b2cd-48cd-bc0b-2e6b007ef33d-452"
       data-name="Path 40-4"
       d="M491.27554,547.00547c-.184,0-.333,1.193-.333,2.664s.149,2.665.333,2.665h15.719c.184.024.336-1.149.339-2.62a5.94306,5.94306,0,0,0-.328-2.708h-15.73Z"
       transform="translate(-253.01352 -93.71349)"
       fill="#e6e6e6" />
  </g>
  <g
     id="b35aa588-fd9e-4429-8570-fee6b5da93cc"
     data-name="Group 61">
    <circle
       id="b896a996-d737-41ee-9642-d5eaf8a9fd6b"
       data-name="Ellipse 5-3"
       cx="245.91502"
       cy="541.53599"
       r="15.986"
       fill="#2fa4da" />
    <path
       id="f0c90521-3626-484d-9767-39f7327e6a31-453"
       data-name="Path 40-5"
       d="M491.27554,632.26346c-.184,0-.333,1.193-.333,2.664s.149,2.665.333,2.665h15.719c.184.024.336-1.149.339-2.62a5.9431,5.9431,0,0,0-.328-2.708h-15.73Z"
       transform="translate(-253.01352 -93.71349)"
       fill="#e6e6e6" />
  </g>
  <path
     d="M625.19989,350.38193a4.48656,4.48656,0,0,1-4.01245-2.4497,52.87438,52.87438,0,0,0-31.37232-26.41114,59.99908,59.99908,0,0,0-8.408-1.9038l-.57959-.08789L610.74725,225.983l.50586.01758c58.12769,15.79492,91.385,62.38134,100.19336,76.2832a4.49382,4.49382,0,0,1-1.79663,6.42334L627.21918,349.9044A4.50685,4.50685,0,0,1,625.19989,350.38193Z"
     transform="translate(-253.01352 -93.71349)"
     fill="#e6e6e6"
     id="path850" />
  <circle
     cx="321.97861"
     cy="266.45946"
     r="8"
     fill="#3f3d56"
     id="circle865" />
  <path
     d="M521.30463,350.26524a4.492,4.492,0,0,1-2.1001-.52442l-81.95288-43.23437a4.5,4.5,0,0,1-1.74121-6.32471,181.66635,181.66635,0,0,1,40.991-45.9751c28.30152-22.43066,60.4939-33.68408,95.678-33.49512a151.88378,151.88378,0,0,1,39.064,5.28858l.50464.13672-29.927,93.541-.42114-.06347a66.68158,66.68158,0,0,0-8.13867-.72168c-30.45068-.85938-43.64649,19.876-47.90772,28.82959a4.41453,4.41453,0,0,1-2.62011,2.31005A4.52734,4.52734,0,0,1,521.30463,350.26524Z"
     transform="translate(-253.01352 -93.71349)"
     fill="#2fa4da"
     id="path867" />
  <path
     d="M611.122,226.483l-21.15967,94.56a60.38421,60.38421,0,0,0-8.48-1.92l29.62988-92.64Z"
     transform="translate(-253.01352 -93.71349)"
     fill="#3f3d56"
     id="path869" />
  <g
     id="g1730"
     transform="matrix(0.7,0,0,0.7,73.219335,229.35127)">
    <path
       id="path3584"
       style="fill:url(#linearGradient2077);fill-opacity:1;stroke:#000000;stroke-width:4;stroke-linecap:round;stroke-linejoin:round"
       d="m 878.80525,375.06102 c -1.39,78.87 -54.33,113.15 -55.2,79.85 -1.08,-42.12 -19.22,-151.36 -90.42,-117.86 -85.15,40.06 -8.39,284.07 -33.04,284.07 -98.62,0 -178.66,-110.23 -178.66,-246.06 0,-135.82 80.04,-246.05 178.66,-246.05 98.62,0 181.02,111.96 178.66,246.05 z" />
    <path
       id="path3604"
       style="fill:#000000;fill-opacity:0.31373"
       d="m 830.55525,206.27102 c 22.87,41.39 34.22,93.29 35.24,147.78 0.95,50.34 -12.76,97.88 -38.18,111.35 11.87,3.8 49.8,-11.48 51.18,-90.35 1.15,-64.81 -17.52,-124.45 -48.24,-168.78 z m -86.1,103.5 c -7.31,0.14 -15.38,2.1 -24.28,6.28 -85.15,40.06 -8.38,284.07 -33.03,284.07 -50.79,0 -96.65,-29.24 -129.19,-76.16 32.65,59.02 84.2,97.16 142.19,97.16 24.65,0 -52.12,-244.01 33.03,-284.07 26.4,-12.41 45.51,-5.21 59.16,10.91 -10.18,-21.96 -25.48,-38.61 -47.88,-38.19 z" />
    <path
       id="path2385"
       style="fill:url(#linearGradient2083);fill-opacity:1;stroke:#000000;stroke-width:3.99984;stroke-linecap:round;stroke-linejoin:round"
       d="m 786.21818,516.42526 a 163.1502,163.296 0 1 1 -326.3004,0 163.1502,163.296 0 1 1 326.3004,0 z" />
    <path
       id="path3276"
       style="fill:#000000;fill-opacity:0.31373"
       d="m 623.07525,353.15102 c -17.36,0 -34.07,2.74 -49.77,7.77 14.12,-3.3 29.01,-5.08 44.4,-5.08 42.22,0 80.72,13.28 109.69,35.07 -28.28,-23.58 -64.66,-37.76 -104.32,-37.76 z m 154.51,110.72 c 2.14,8.72 3.28,17.72 3.28,26.96 0,74.52 -73.1,134.99 -163.16,134.99 -75.31,0 -138.73,-42.28 -157.49,-99.71 5,85.65 76.04,153.64 162.86,153.64 90.06,0 163.16,-73.16 163.16,-163.3 0,-18.39 -3.04,-36.08 -8.65,-52.58 z" />
    <path
       id="path3236"
       style="fill:#000000;fill-opacity:0.31373"
       d="m 623.07525,353.15102 c -27.82,0 -54.03,6.97 -76.96,19.28 10.86,37.97 42.59,73.08 80.07,73.08 36.48,0 67.57,-33.26 79.22,-70.06 -24.17,-14.17 -52.31,-22.3 -82.33,-22.3 z" />
    <path
       id="path3573"
       style="fill:url(#linearGradient2071);fill-opacity:1;fill-rule:evenodd;stroke:#000000;stroke-width:4;stroke-linejoin:round"
       d="m 734.86525,217.13102 c -19.81,0 -60.05,10.54 -67.09,37.87 -0.11,0.21 -0.32,0.97 -0.55,2.14 -12.74,-7.79 -27.72,-12.32 -43.73,-12.32 -16.72,0 -32.26,4.94 -45.35,13.36 -0.27,-1.71 -0.6,-2.91 -0.73,-3.18 -7.04,-27.33 -47.28,-37.84 -67.1,-37.85 -3.15,0 -5.76,0.27 -7.67,0.77 -10.63,1.48 -22.27,5.73 -21.42,8.05 7.8,-1.33 11.74,0.19 11.62,1.45 -0.24,2.36 -4.94,2.99 -3.43,11.5 2.85,-4.13 6.82,-5.55 9.94,-6.21 3.2,20.09 17.2,55.16 43.4,56.98 2.25,0.16 4.35,0.15 6.33,0.11 -6.18,11.72 -9.69,25.07 -9.69,39.24 0,46.47 37.67,100.32 84.1,100.32 46.42,0 84.14,-53.85 84.14,-100.32 0,-14.16 -3.52,-27.48 -9.7,-39.19 1.43,-0.01 2.94,-0.05 4.5,-0.16 26.11,-1.81 40.11,-36.68 43.37,-56.79 2.98,0.73 6.54,2.23 9.15,6.02 1.51,-8.51 -3.19,-9.14 -3.43,-11.5 -0.12,-1.26 3.82,-2.78 11.62,-1.45 0.81,-2.2 -9.58,-6.13 -19.72,-7.8 -1.93,-0.68 -4.89,-1.04 -8.56,-1.04 z" />
    <path
       id="path3619"
       style="fill:#000000;fill-opacity:0.31373"
       d="m 655.56525,466.50102 c -13.94,-13.95 -38.75,-14.66 -53.51,-1.55 -10.39,9.11 -14.53,23.1 -15.89,36.35 -0.96,9.55 -0.39,19.8 4.51,28.31 4.92,6.32 13.49,7.65 21.01,8.03 14.99,0.67 30.83,-2.95 42.81,-12.44 14.44,-12.39 17.81,-35.46 7.21,-51.27 -1.73,-2.7 -3.82,-5.19 -6.14,-7.43 z" />
    <path
       id="path3242"
       style="fill:#000000;fill-opacity:0.31373;stroke-width:0.62866"
       d="m 606.06959,494.75201 a 30.8566,30.884099 0 1 1 -61.7132,0 30.8566,30.884099 0 1 1 61.7132,0 z" />
    <path
       id="path2383"
       style="fill:#dc9a6a;fill-opacity:1;stroke:#000000;stroke-width:4;stroke-linecap:round;stroke-linejoin:round"
       d="m 650.56525,456.50102 c -13.94,-13.95 -38.75,-14.66 -53.51,-1.55 -10.39,9.11 -14.53,23.1 -15.89,36.35 -0.96,9.55 -0.39,19.8 4.51,28.31 4.92,6.32 13.49,7.65 21.01,8.03 14.99,0.67 30.83,-2.95 42.81,-12.44 14.44,-12.39 17.81,-35.46 7.21,-51.27 -1.73,-2.7 -3.82,-5.19 -6.14,-7.43 z" />
    <path
       id="path3250"
       style="fill:#000000;fill-opacity:0.31373"
       d="m 619.12525,445.73102 c 2.97,0.71 5.85,1.8 8.54,3.32 2.61,1.41 5.08,3.1 7.29,5.07 13.33,11.4 16.08,32.7 6.35,47.26 -8.29,11.39 -21.46,18.52 -34.93,21.64 -5.46,1.23 -11.68,2.08 -17,0.06 4.92,3.38 11.43,4.27 17.3,4.56 14.99,0.67 30.83,-2.95 42.82,-12.44 14.44,-12.39 17.81,-35.46 7.21,-51.27 -1.73,-2.71 -3.82,-5.19 -6.14,-7.44 -8.15,-8.16 -20.03,-11.78 -31.44,-10.76 z" />
    <path
       id="path3239"
       style="fill:url(#linearGradient2009);fill-rule:evenodd;stroke:#000000;stroke-width:4"
       d="m 650.93525,452.99102 c 2.75,-8.54 16.62,-16.43 20.73,-13.46 4.11,2.98 4.43,10.06 3.7,11.11 -0.72,1.04 -8.14,-2.17 -12.82,1.7 -4.67,3.86 -7.02,7.16 -7.02,7.16 z" />
    <path
       id="path3263"
       style="fill:#000000;fill-opacity:0.31373;fill-rule:evenodd"
       d="m 674.49525,443.24102 c 0.09,0.93 -0.04,1.7 -0.29,2 -0.71,0.85 -7.82,0.02 -12.38,3.55 -4.55,3.53 -6.85,6.23 -6.85,6.23 l -3.64,-3.06 c -0.14,0.35 -0.29,0.69 -0.4,1.03 l 4.59,6.52 c 0,0 2.35,-3.31 7.02,-7.18 4.68,-3.86 12.1,-0.65 12.82,-1.7 0.5,-0.71 0.5,-4.27 -0.87,-7.39 z" />
    <path
       id="path3201"
       style="fill:url(#linearGradient2009);stroke:#000000;stroke-width:4;stroke-linecap:round;stroke-linejoin:round"
       d="m 654.13525,453.04102 c -13.69,-13.56 -36.38,-17.06 -52.34,-6.89 -3.61,1.99 -2.52,6.98 -2.48,6.9 6.03,-4.77 12.28,0.48 20.49,6.37 10.05,7.21 21.1,18.27 29.21,29.02 5.68,7.52 9.74,14.91 6.49,20.08 0.17,0.05 4.89,1.38 7.05,-3.02 10.88,-20.51 4.73,-40.21 -8.42,-52.46 z" />
    <path
       id="path3269"
       style="fill:#000000;fill-opacity:0.31373"
       d="m 653.05525,451.53102 c 4.34,11.26 3.77,21.91 -1.74,32.19 -1.25,2.34 -3.17,1.58 -4.78,1.55 0.85,1.05 1.68,2.12 2.48,3.17 5.67,7.53 9.74,14.92 6.49,20.08 0.17,0.05 4.89,1.39 7.05,-3.01 9.96,-18.8 5.59,-39.25 -9.5,-53.98 z" />
    <path
       id="path3159"
       style="fill:url(#linearGradient2069);stroke:#000000;stroke-width:4.00001;stroke-linecap:round;stroke-linejoin:round"
       d="m 596.84111,473.04312 a 30.883758,30.85647 59.871655 1 1 -53.4449,30.8566 30.883758,30.85647 59.871655 1 1 53.4449,-30.8566 z" />
    <path
       id="path3244"
       style="fill:#000000;fill-opacity:0.31373;stroke-width:0.62866"
       d="m 721.82759,495.23201 a 30.8566,30.884099 0 1 1 -61.7132,0 30.8566,30.884099 0 1 1 61.7132,0 z" />
    <path
       id="path3161"
       style="fill:url(#linearGradient2069);stroke:#000000;stroke-width:3.99999;stroke-linecap:round;stroke-linejoin:round"
       d="m 707.80282,510.2894 a 30.856478,30.883561 45 1 1 -43.63765,-43.63765 30.856478,30.883561 45 1 1 43.63765,43.63765 z" />
    <path
       id="path3163"
       style="fill:url(#linearGradient2069);stroke:#000000;stroke-width:4;stroke-linecap:round;stroke-linejoin:round"
       d="m 702.13525,586.68102 c -40.83,0 -73.98,33.18 -73.98,74.04 0,8.45 1.42,16.55 4.03,24.11 h 139.86 c 2.61,-7.56 4.03,-15.66 4.03,-24.11 0,-40.86 -33.11,-74.04 -73.94,-74.04 z" />
    <path
       id="path3165"
       style="fill:url(#linearGradient2069);stroke:#000000;stroke-width:4;stroke-linecap:round;stroke-linejoin:round"
       d="m 554.17525,586.68102 c -40.83,0 -73.94,33.18 -73.94,74.04 0,8.45 1.42,16.55 4.03,24.11 h 139.86 c 2.61,-7.56 4.03,-15.66 4.03,-24.11 0,-40.86 -33.15,-74.04 -73.98,-74.04 z" />
    <path
       id="path3177"
       style="fill:#ffffff;stroke:#000000;stroke-width:4.00002;stroke-linecap:round;stroke-linejoin:round"
       d="m 620.56174,322.29316 a 27.480228,27.504785 0 1 1 -54.96045,0 27.480228,27.504785 0 1 1 54.96045,0 z" />
    <path
       id="path3179"
       style="fill:#ffffff;stroke:#000000;stroke-width:4.00002;stroke-linecap:round;stroke-linejoin:round"
       d="m 681.42174,322.29316 a 27.480228,27.504785 0 1 1 -54.96045,0 27.480228,27.504785 0 1 1 54.96045,0 z" />
    <path
       id="path3181"
       style="fill:#000000;stroke-width:1.3434"
       d="m 612.04827,325.63494 a 8.875908,8.88384 0 1 1 -17.75181,0 8.875908,8.88384 0 1 1 17.75181,0 z" />
    <path
       id="path3183"
       style="fill:#000000;stroke-width:1.3434"
       d="m 652.64827,325.63494 a 8.875908,8.88384 0 1 1 -17.75181,0 8.875908,8.88384 0 1 1 17.75181,0 z" />
    <path
       id="path3192"
       style="fill:#000000;fill-rule:evenodd"
       d="m 609.30525,375.06102 c 4.48,-4.79 23.51,-5.83 27.49,0.59 3.98,6.43 -5.97,19.75 -13.75,19.15 -7.74,-0.6 -17.94,-15.27 -13.74,-19.74 z" />
    <path
       id="path3216"
       style="fill:#74401b;fill-opacity:1;fill-rule:evenodd;stroke:#000000;stroke-width:4;stroke-linejoin:round"
       d="m 559.25525,277.42102 c -2.95,-42.72 -46.91,-52.45 -49.03,-47.38 -2.11,5.08 8.03,62.19 49.03,47.38 z" />
    <path
       id="path3218"
       style="fill:url(#linearGradient2009);fill-opacity:1;fill-rule:evenodd;stroke:#000000;stroke-width:4;stroke-linejoin:round"
       d="m 684.53525,277.42102 c 2.95,-42.72 46.91,-52.45 49.03,-47.38 2.11,5.08 -8.04,62.19 -49.03,47.38 z" />
    <path
       id="path3220"
       style="fill:url(#linearGradient2009);stroke:#000000;stroke-width:3.67216;stroke-linecap:round;stroke-linejoin:round"
       d="m 547.62245,663.46086 a 19.8065,23.52 0 1 1 -39.613,0 19.8065,23.52 0 1 1 39.613,0 z" />
    <path
       id="path3224"
       style="fill:url(#linearGradient2009);stroke:#000000;stroke-width:3.67216;stroke-linecap:round;stroke-linejoin:round"
       d="m 597.30245,663.46086 a 19.8065,23.52 0 1 1 -39.613,0 19.8065,23.52 0 1 1 39.613,0 z" />
    <path
       id="path3222"
       style="fill:url(#linearGradient2009);stroke:#000000;stroke-width:3.67216;stroke-linecap:round;stroke-linejoin:round"
       d="m 573.80245,663.46086 a 19.8065,23.52 0 1 1 -39.613,0 19.8065,23.52 0 1 1 39.613,0 z" />
    <path
       id="path3226"
       style="fill:url(#linearGradient2009);stroke:#000000;stroke-width:3.67216;stroke-linecap:round;stroke-linejoin:round"
       d="m 700.03145,663.46086 a 19.8065,23.52 0 1 1 -39.613,0 19.8065,23.52 0 1 1 39.613,0 z" />
    <path
       id="path3228"
       style="fill:url(#linearGradient2009);stroke:#000000;stroke-width:3.67216;stroke-linecap:round;stroke-linejoin:round"
       d="m 749.71645,663.46086 a 19.8065,23.52 0 1 1 -39.613,0 19.8065,23.52 0 1 1 39.613,0 z" />
    <path
       id="path3230"
       style="fill:url(#linearGradient2009);stroke:#000000;stroke-width:3.67216;stroke-linecap:round;stroke-linejoin:round"
       d="m 726.21645,663.46086 a 19.8065,23.52 0 1 1 -39.613,0 19.8065,23.52 0 1 1 39.613,0 z" />
    <path
       id="path3246"
       style="fill:#000000;fill-opacity:0.31373"
       d="m 701.00525,296.45102 c 1.53,6.34 2.35,12.98 2.35,19.78 0,46.47 -37.71,100.3 -84.14,100.3 -33.84,0 -62.99,-28.61 -76.33,-62.12 10.33,38.69 42.51,74.97 80.61,74.97 46.43,0 84.14,-53.87 84.14,-100.34 0,-11.56 -2.36,-22.56 -6.59,-32.59 z" />
    <path
       id="path3264"
       style="fill:url(#linearGradient2009);stroke:#000000;stroke-width:3.67228;stroke-linecap:round;stroke-linejoin:round"
       d="m 579.83354,495.87137 a 12.093522,10.621423 30.170207 1 1 -10.61445,18.4009 12.093522,10.621423 30.170207 1 1 10.61445,-18.4009 z" />
    <path
       id="path3266"
       style="fill:url(#linearGradient2009);stroke:#000000;stroke-width:3.67228;stroke-linecap:round;stroke-linejoin:round"
       d="m 593.14354,472.79137 a 12.093522,10.621423 30.170207 1 1 -10.61445,18.4009 12.093522,10.621423 30.170207 1 1 10.61445,-18.4009 z" />
    <path
       id="path3268"
       style="fill:url(#linearGradient2009);stroke:#000000;stroke-width:3.67228;stroke-linecap:round;stroke-linejoin:round"
       d="m 592.20354,487.60137 a 12.093522,10.621423 30.170207 1 1 -10.61445,18.4009 12.093522,10.621423 30.170207 1 1 10.61445,-18.4009 z" />
    <path
       id="path3270"
       style="fill:url(#linearGradient2009);stroke:#000000;stroke-width:3.67228;stroke-linecap:round;stroke-linejoin:round"
       d="m 675.51062,493.9373 a 10.621436,12.093514 74.826868 1 0 5.4901,20.5212 10.621436,12.093514 74.826868 1 0 -5.4901,-20.5212 z" />
    <path
       id="path3272"
       style="fill:url(#linearGradient2009);stroke:#000000;stroke-width:3.67228;stroke-linecap:round;stroke-linejoin:round"
       d="m 668.63062,468.1973 a 10.621436,12.093514 74.826868 1 0 5.4901,20.5212 10.621436,12.093514 74.826868 1 0 -5.4901,-20.5212 z" />
    <path
       id="path3274"
       style="fill:url(#linearGradient2009);stroke:#000000;stroke-width:3.67228;stroke-linecap:round;stroke-linejoin:round"
       d="m 665.71062,482.7473 a 10.621436,12.093514 74.826868 1 0 5.4901,20.5212 10.621436,12.093514 74.826868 1 0 -5.4901,-20.5212 z" />
  </g>
</svg>
