<svg width="848" height="656" viewBox="0 0 848 656" fill="none" xmlns="http://www.w3.org/2000/svg">
<g clip-path="url(#clip0_2_547)">
<path d="M830.694 2.09143H394.016C385.348 2.09143 378.322 9.1178 378.322 17.7853V546.215C378.322 554.882 385.348 561.909 394.016 561.909H830.694C839.361 561.909 846.388 554.882 846.388 546.215V17.7853C846.388 9.1178 839.361 2.09143 830.694 2.09143Z" fill="white"/>
<path d="M830.693 564H393.693C389.186 563.995 384.865 562.202 381.678 559.015C378.491 555.828 376.698 551.507 376.693 547V17C376.698 12.4929 378.491 8.17181 381.678 4.98479C384.865 1.79777 389.186 0.00507387 393.693 0H830.693C835.2 0.00507387 839.521 1.79777 842.708 4.98479C845.895 8.17181 847.688 12.4929 847.693 17V547C847.688 551.507 845.895 555.828 842.708 559.015C839.521 562.202 835.2 563.995 830.693 564V564ZM393.693 2C389.716 2.0045 385.903 3.58629 383.091 6.39836C380.279 9.21043 378.697 13.0231 378.693 17V547C378.697 550.977 380.279 554.79 383.091 557.602C385.903 560.414 389.716 561.996 393.693 562H830.693C834.67 561.996 838.482 560.414 841.294 557.602C844.107 554.79 845.688 550.977 845.693 547V17C845.688 13.0231 844.107 9.21043 841.294 6.39836C838.482 3.58629 834.67 2.0045 830.693 2H393.693Z" fill="#3F3D56"/>
<path d="M846.693 41.5903H377.693V43.5903H846.693V41.5903Z" fill="#3F3D56"/>
<path d="M400.693 30C405.111 30 408.693 26.4183 408.693 22C408.693 17.5817 405.111 14 400.693 14C396.275 14 392.693 17.5817 392.693 22C392.693 26.4183 396.275 30 400.693 30Z" fill="#3F3D56"/>
<path d="M425.693 30C430.111 30 433.693 26.4183 433.693 22C433.693 17.5817 430.111 14 425.693 14C421.275 14 417.693 17.5817 417.693 22C417.693 26.4183 421.275 30 425.693 30Z" fill="#3F3D56"/>
<path d="M450.693 30C455.111 30 458.693 26.4183 458.693 22C458.693 17.5817 455.111 14 450.693 14C446.275 14 442.693 17.5817 442.693 22C442.693 26.4183 446.275 30 450.693 30Z" fill="#3F3D56"/>
<path d="M762.953 121H450.953C447.505 121 444.198 119.63 441.76 117.192C439.322 114.754 437.953 111.448 437.953 108C437.953 104.552 439.322 101.246 441.76 98.8076C444.198 96.3696 447.505 95 450.953 95H762.953C766.401 95 769.707 96.3696 772.145 98.8076C774.583 101.246 775.953 104.552 775.953 108C775.953 111.448 774.583 114.754 772.145 117.192C769.707 119.63 766.401 121 762.953 121V121ZM450.953 97C448.035 97 445.237 98.1589 443.175 100.222C441.112 102.285 439.953 105.083 439.953 108C439.953 110.917 441.112 113.715 443.175 115.778C445.237 117.841 448.035 119 450.953 119H762.953C765.87 119 768.668 117.841 770.731 115.778C772.794 113.715 773.953 110.917 773.953 108C773.953 105.083 772.794 102.285 770.731 100.222C768.668 98.1589 765.87 97 762.953 97H450.953Z" fill="#3F3D56"/>
<path d="M567.693 304H444.693C440.186 303.995 435.865 302.202 432.678 299.015C429.491 295.828 427.698 291.507 427.693 287V186C427.698 181.493 429.491 177.172 432.678 173.985C435.865 170.798 440.186 169.005 444.693 169H567.693C572.2 169.005 576.521 170.798 579.708 173.985C582.895 177.172 584.688 181.493 584.693 186V287C584.688 291.507 582.895 295.828 579.708 299.015C576.521 302.202 572.2 303.995 567.693 304V304ZM444.693 171C440.716 171.004 436.903 172.586 434.091 175.398C431.279 178.21 429.697 182.023 429.693 186V287C429.697 290.977 431.279 294.79 434.091 297.602C436.903 300.414 440.716 301.996 444.693 302H567.693C571.67 301.996 575.482 300.414 578.294 297.602C581.107 294.79 582.688 290.977 582.693 287V186C582.688 182.023 581.107 178.21 578.294 175.398C575.482 172.586 571.67 171.004 567.693 171H444.693Z" fill="#3F3D56"/>
<path d="M779.693 174H656.693C647.856 174 640.693 181.163 640.693 190V291C640.693 299.837 647.856 307 656.693 307H779.693C788.529 307 795.693 299.837 795.693 291V190C795.693 181.163 788.529 174 779.693 174Z" fill="#F2F2F2"/>
<path d="M567.693 492H444.693C440.186 491.995 435.865 490.202 432.678 487.015C429.491 483.828 427.698 479.507 427.693 475V374C427.698 369.493 429.491 365.172 432.678 361.985C435.865 358.798 440.186 357.005 444.693 357H567.693C572.2 357.005 576.521 358.798 579.708 361.985C582.895 365.172 584.688 369.493 584.693 374V475C584.688 479.507 582.895 483.828 579.708 487.015C576.521 490.202 572.2 491.995 567.693 492V492ZM444.693 359C440.716 359.004 436.903 360.586 434.091 363.398C431.279 366.21 429.697 370.023 429.693 374V475C429.697 478.977 431.279 482.79 434.091 485.602C436.903 488.414 440.716 489.996 444.693 490H567.693C571.67 489.996 575.482 488.414 578.294 485.602C581.107 482.79 582.688 478.977 582.693 475V374C582.688 370.023 581.107 366.21 578.294 363.398C575.482 360.586 571.67 359.004 567.693 359H444.693Z" fill="#3F3D56"/>
<path d="M779.693 362H656.693C647.856 362 640.693 369.163 640.693 378V479C640.693 487.837 647.856 495 656.693 495H779.693C788.529 495 795.693 487.837 795.693 479V378C795.693 369.163 788.529 362 779.693 362Z" fill="#F2F2F2"/>
<path d="M406.075 656H25.0748C24.8096 656 24.5552 655.895 24.3677 655.707C24.1802 655.52 24.0748 655.265 24.0748 655C24.0748 654.735 24.1802 654.48 24.3677 654.293C24.5552 654.105 24.8096 654 25.0748 654H406.075C406.34 654 406.594 654.105 406.782 654.293C406.969 654.48 407.075 654.735 407.075 655C407.075 655.265 406.969 655.52 406.782 655.707C406.594 655.895 406.34 656 406.075 656Z" fill="#3F3D56"/>
<path d="M533.728 214.613C519.788 200.663 494.978 199.953 480.218 213.063C469.828 222.173 465.688 236.163 464.328 249.413C463.368 258.963 463.938 269.213 468.838 277.723C473.758 284.043 482.328 285.373 489.848 285.753C504.838 286.423 520.678 282.803 532.658 273.313C547.098 260.923 550.468 237.853 539.868 222.043C538.138 219.343 536.048 216.853 533.728 214.613V214.613Z" fill="black" fill-opacity="0.31373"/>
<path d="M528.728 204.613C514.788 190.663 489.978 189.953 475.218 203.063C464.828 212.173 460.688 226.163 459.328 239.413C458.368 248.963 458.938 259.213 463.838 267.723C468.758 274.043 477.328 275.373 484.848 275.753C499.838 276.423 515.678 272.803 527.658 263.313C542.098 250.923 545.468 227.853 534.868 212.043C533.138 209.343 531.048 206.853 528.728 204.613V204.613Z" fill="#63BBE3" stroke="black" stroke-width="4" stroke-linecap="round" stroke-linejoin="round"/>
<path d="M497.288 193.843C500.258 194.553 503.138 195.643 505.828 197.163C508.438 198.573 510.908 200.263 513.118 202.233C526.448 213.633 529.198 234.933 519.468 249.493C511.178 260.883 498.008 268.013 484.538 271.133C479.078 272.363 472.858 273.213 467.538 271.193C472.458 274.573 478.968 275.463 484.838 275.753C499.828 276.423 515.668 272.803 527.658 263.313C542.098 250.923 545.468 227.853 534.868 212.043C533.138 209.333 531.048 206.853 528.728 204.603C520.578 196.443 508.698 192.823 497.288 193.843V193.843Z" fill="black" fill-opacity="0.31373"/>
<path fill-rule="evenodd" clip-rule="evenodd" d="M529.098 201.103C531.848 192.563 545.718 184.673 549.828 187.643C553.938 190.623 554.258 197.703 553.528 198.753C552.808 199.793 545.388 196.583 540.708 200.453C536.038 204.313 533.688 207.613 533.688 207.613L529.098 201.103Z" fill="url(#paint0_linear_2_547)" stroke="black" stroke-width="4"/>
<path fill-rule="evenodd" clip-rule="evenodd" d="M552.658 191.353C552.748 192.283 552.618 193.053 552.368 193.353C551.658 194.203 544.548 193.373 539.988 196.903C535.438 200.433 533.138 203.133 533.138 203.133L529.498 200.073C529.358 200.423 529.208 200.763 529.098 201.103L533.688 207.623C533.688 207.623 536.038 204.313 540.708 200.443C545.388 196.583 552.808 199.793 553.528 198.743C554.028 198.033 554.028 194.473 552.658 191.353V191.353Z" fill="black" fill-opacity="0.31373"/>
<path d="M532.298 201.153C518.608 187.593 495.918 184.093 479.958 194.263C476.348 196.253 477.438 201.243 477.478 201.163C483.508 196.393 489.758 201.643 497.968 207.533C508.018 214.743 519.068 225.803 527.178 236.553C532.858 244.073 536.918 251.463 533.668 256.633C533.838 256.683 538.558 258.013 540.718 253.613C551.598 233.103 545.448 213.403 532.298 201.153Z" fill="url(#paint1_linear_2_547)" stroke="black" stroke-width="4" stroke-linecap="round" stroke-linejoin="round"/>
<path d="M531.218 199.643C535.558 210.903 534.988 221.553 529.478 231.833C528.228 234.173 526.308 233.413 524.698 233.383C525.548 234.433 526.378 235.503 527.178 236.553C532.848 244.083 536.918 251.473 533.668 256.633C533.838 256.683 538.558 258.023 540.718 253.623C550.678 234.823 546.308 214.373 531.218 199.643V199.643Z" fill="black" fill-opacity="0.31373"/>
<path d="M531.636 405.031C517.696 391.081 492.886 390.371 478.126 403.481C467.736 412.591 463.596 426.581 462.236 439.831C461.276 449.381 461.846 459.631 466.746 468.141C471.666 474.461 480.236 475.791 487.756 476.171C502.746 476.841 518.586 473.221 530.566 463.731C545.006 451.341 548.376 428.271 537.776 412.461C536.046 409.761 533.956 407.271 531.636 405.031V405.031Z" fill="black" fill-opacity="0.31373"/>
<path d="M526.636 395.031C512.696 381.081 487.886 380.371 473.126 393.481C462.736 402.591 458.596 416.581 457.236 429.831C456.276 439.381 456.846 449.631 461.746 458.141C466.666 464.461 475.236 465.791 482.756 466.171C497.746 466.841 513.586 463.221 525.566 453.731C540.006 441.341 543.376 418.271 532.776 402.461C531.046 399.761 528.956 397.271 526.636 395.031V395.031Z" fill="#63BBE3" stroke="black" stroke-width="4" stroke-linecap="round" stroke-linejoin="round"/>
<path d="M495.196 384.261C498.166 384.971 501.046 386.061 503.736 387.581C506.346 388.991 508.816 390.681 511.026 392.651C524.356 404.051 527.106 425.351 517.376 439.911C509.086 451.301 495.916 458.431 482.446 461.551C476.986 462.781 470.766 463.631 465.446 461.611C470.366 464.991 476.876 465.881 482.746 466.171C497.736 466.841 513.576 463.221 525.566 453.731C540.006 441.341 543.376 418.271 532.776 402.461C531.046 399.751 528.956 397.271 526.636 395.021C518.486 386.861 506.606 383.241 495.196 384.261V384.261Z" fill="black" fill-opacity="0.31373"/>
<path fill-rule="evenodd" clip-rule="evenodd" d="M527.006 391.521C529.756 382.981 543.626 375.091 547.736 378.061C551.846 381.041 552.166 388.121 551.436 389.171C550.716 390.211 543.296 387.001 538.616 390.871C533.946 394.731 531.596 398.031 531.596 398.031L527.006 391.521Z" fill="url(#paint2_linear_2_547)" stroke="black" stroke-width="4"/>
<path fill-rule="evenodd" clip-rule="evenodd" d="M550.566 381.771C550.656 382.701 550.526 383.471 550.276 383.771C549.566 384.621 542.456 383.791 537.896 387.321C533.346 390.851 531.046 393.551 531.046 393.551L527.406 390.491C527.266 390.841 527.116 391.181 527.006 391.521L531.596 398.041C531.596 398.041 533.946 394.731 538.616 390.861C543.296 387.001 550.716 390.211 551.436 389.161C551.936 388.451 551.936 384.891 550.566 381.771V381.771Z" fill="black" fill-opacity="0.31373"/>
<path d="M530.206 391.571C516.516 378.011 493.826 374.511 477.866 384.681C474.256 386.671 475.346 391.661 475.386 391.581C481.416 386.811 487.666 392.061 495.876 397.951C505.926 405.161 516.976 416.221 525.086 426.971C530.766 434.491 534.826 441.881 531.576 447.051C531.746 447.101 536.466 448.431 538.626 444.031C549.506 423.521 543.356 403.821 530.206 391.571Z" fill="url(#paint3_linear_2_547)" stroke="black" stroke-width="4" stroke-linecap="round" stroke-linejoin="round"/>
<path d="M529.126 390.061C533.466 401.321 532.896 411.971 527.386 422.251C526.136 424.591 524.216 423.831 522.606 423.801C523.456 424.851 524.286 425.921 525.086 426.971C530.756 434.501 534.826 441.891 531.576 447.051C531.746 447.101 536.466 448.441 538.626 444.041C548.586 425.241 544.216 404.791 529.126 390.061V390.061Z" fill="black" fill-opacity="0.31373"/>
<path d="M741.117 212.798C727.177 198.848 702.367 198.138 687.607 211.248C677.217 220.358 673.077 234.348 671.717 247.598C670.757 257.148 671.327 267.398 676.227 275.908C681.147 282.228 689.717 283.558 697.237 283.938C712.227 284.608 728.067 280.988 740.047 271.498C754.487 259.108 757.857 236.038 747.257 220.228C745.527 217.528 743.437 215.038 741.117 212.798Z" fill="white" stroke="white" stroke-width="4" stroke-linecap="round" stroke-linejoin="round"/>
<path fill-rule="evenodd" clip-rule="evenodd" d="M741.487 209.288C744.237 200.748 758.107 192.858 762.217 195.828C766.327 198.808 766.647 205.888 765.917 206.938C765.197 207.978 757.777 204.768 753.097 208.638C748.427 212.498 746.077 215.798 746.077 215.798L741.487 209.288Z" fill="url(#paint4_linear_2_547)" stroke="white" stroke-width="4"/>
<path d="M744.687 209.338C730.997 195.778 708.307 192.278 692.347 202.448C688.737 204.438 689.827 209.428 689.867 209.348C695.897 204.578 702.147 209.828 710.357 215.718C720.407 222.928 731.457 233.988 739.567 244.738C745.247 252.258 749.307 259.648 746.057 264.818C746.227 264.868 750.947 266.198 753.107 261.798C763.987 241.288 757.837 221.588 744.687 209.338Z" fill="url(#paint5_linear_2_547)" stroke="white" stroke-width="4" stroke-linecap="round" stroke-linejoin="round"/>
<path d="M739.025 402.17C725.085 388.22 700.275 387.51 685.515 400.62C675.125 409.73 670.985 423.72 669.625 436.97C668.665 446.52 669.235 456.77 674.135 465.28C679.055 471.6 687.625 472.93 695.145 473.31C710.135 473.98 725.975 470.36 737.955 460.87C752.395 448.48 755.765 425.41 745.165 409.6C743.435 406.9 741.345 404.41 739.025 402.17Z" fill="white" stroke="white" stroke-width="4" stroke-linecap="round" stroke-linejoin="round"/>
<path fill-rule="evenodd" clip-rule="evenodd" d="M739.395 398.66C742.145 390.12 756.015 382.23 760.125 385.2C764.235 388.18 764.555 395.26 763.825 396.31C763.105 397.35 755.685 394.14 751.005 398.01C746.335 401.87 743.985 405.17 743.985 405.17L739.395 398.66Z" fill="url(#paint6_linear_2_547)" stroke="white" stroke-width="4"/>
<path d="M742.595 398.71C728.905 385.15 706.215 381.65 690.255 391.82C686.645 393.81 687.735 398.8 687.775 398.72C693.805 393.95 700.055 399.2 708.265 405.09C718.315 412.3 729.365 423.36 737.475 434.11C743.155 441.63 747.215 449.02 743.965 454.19C744.135 454.24 748.855 455.57 751.015 451.17C761.895 430.66 755.745 410.96 742.595 398.71Z" fill="url(#paint7_linear_2_547)" stroke="white" stroke-width="4" stroke-linecap="round" stroke-linejoin="round"/>
<path d="M339.747 445.445C338.808 498.683 303.074 521.822 302.487 499.344C301.758 470.913 289.513 397.176 241.453 419.789C183.977 446.829 235.79 611.536 219.151 611.536C152.583 611.536 98.5555 537.131 98.5555 445.445C98.5555 353.767 152.583 279.362 219.151 279.362C285.72 279.362 341.34 354.935 339.747 445.445Z" fill="url(#paint8_linear_2_547)" stroke="black" stroke-width="2.7" stroke-linecap="round" stroke-linejoin="round"/>
<path d="M307.178 331.512C322.615 359.45 330.276 394.483 330.965 431.263C331.606 465.243 322.352 497.332 305.193 506.425C313.206 508.99 338.808 498.676 339.74 445.438C340.516 401.692 327.914 361.435 307.178 331.512V331.512ZM249.06 401.374C244.126 401.469 238.679 402.792 232.671 405.613C175.195 432.654 227.015 597.361 210.376 597.361C176.093 597.361 145.137 577.624 123.173 545.953C145.212 585.791 180.008 611.536 219.151 611.536C235.79 611.536 183.97 446.829 241.446 419.788C259.266 411.412 272.166 416.272 281.379 427.153C274.508 412.33 264.18 401.091 249.06 401.374V401.374Z" fill="black" fill-opacity="0.31373"/>
<path d="M277.25 540.866C277.25 570.1 265.648 598.136 244.995 618.807C224.342 639.478 196.331 651.091 167.124 651.091C137.917 651.091 109.905 639.478 89.2527 618.807C68.6 598.136 56.9975 570.1 56.9975 540.866C56.9975 511.633 68.6 483.597 89.2527 462.925C109.905 442.254 137.917 430.641 167.124 430.641C196.331 430.641 224.342 442.254 244.995 462.925C265.648 483.597 277.25 511.633 277.25 540.866V540.866Z" fill="url(#paint9_linear_2_547)" stroke="black" stroke-width="2.69989" stroke-linecap="round" stroke-linejoin="round"/>
<path d="M167.129 430.656C155.411 430.656 144.131 432.506 133.534 435.901C143.065 433.673 153.116 432.472 163.504 432.472C192.002 432.472 217.99 441.436 237.545 456.144C218.456 440.228 193.899 430.656 167.129 430.656V430.656ZM271.423 505.392C272.867 511.278 273.637 517.353 273.637 523.59C273.637 573.891 224.294 614.708 163.504 614.708C112.67 614.708 69.8612 586.169 57.1982 547.404C60.5732 605.218 108.525 651.111 167.129 651.111C227.919 651.111 277.262 601.728 277.262 540.884C277.262 528.47 275.21 516.53 271.423 505.392V505.392Z" fill="black" fill-opacity="0.31373"/>
<path d="M167.129 430.656C148.35 430.656 130.659 435.361 115.181 443.67C122.511 469.3 143.929 492.999 169.228 492.999C193.852 492.999 214.838 470.549 222.702 445.709C206.387 436.144 187.392 430.656 167.129 430.656V430.656Z" fill="black" fill-opacity="0.31373"/>
<path fill-rule="evenodd" clip-rule="evenodd" d="M242.587 338.843C229.215 338.843 202.053 345.957 197.301 364.405C197.227 364.547 197.085 365.06 196.93 365.849C188.331 360.591 178.219 357.533 167.412 357.533C156.126 357.533 145.637 360.868 136.801 366.551C136.619 365.397 136.396 364.587 136.308 364.405C131.556 345.957 104.394 338.863 91.0158 338.856C88.8895 338.856 87.1277 339.038 85.8385 339.376C78.6632 340.375 70.8062 343.244 71.38 344.81C76.645 343.912 79.3045 344.938 79.2235 345.788C79.0615 347.381 75.889 347.807 76.9082 353.551C78.832 350.763 81.5117 349.805 83.6177 349.359C85.7777 362.92 95.2278 386.592 112.913 387.821C114.431 387.929 115.849 387.922 117.185 387.895C113.014 395.806 110.645 404.817 110.645 414.382C110.645 445.749 136.072 482.098 167.412 482.098C198.746 482.098 224.207 445.749 224.207 414.382C224.207 404.824 221.831 395.833 217.659 387.929C218.625 387.922 219.644 387.895 220.697 387.821C238.321 386.599 247.771 363.062 249.971 349.487C251.983 349.98 254.386 350.993 256.148 353.551C257.167 347.807 253.994 347.381 253.832 345.788C253.751 344.938 256.411 343.912 261.676 344.81C262.223 343.325 255.209 340.672 248.365 339.545C247.062 339.086 245.064 338.843 242.587 338.843V338.843Z" fill="url(#paint10_linear_2_547)" stroke="black" stroke-width="2.7" stroke-linejoin="round"/>
<path d="M189.059 507.167C179.65 497.751 162.903 497.272 152.94 506.121C145.927 512.27 143.132 521.714 142.214 530.657C141.566 537.104 141.951 544.022 145.259 549.767C148.58 554.033 154.364 554.93 159.44 555.187C169.559 555.639 180.251 553.196 188.337 546.79C198.084 538.427 200.359 522.854 193.204 512.183C192.036 510.36 190.625 508.679 189.059 507.167V507.167Z" fill="black" fill-opacity="0.31373"/>
<path d="M155.65 526.237C155.65 528.974 155.111 531.685 154.064 534.214C153.018 536.744 151.484 539.042 149.549 540.978C147.615 542.913 145.319 544.449 142.792 545.497C140.265 546.544 137.557 547.083 134.822 547.083C132.087 547.083 129.378 546.544 126.851 545.497C124.324 544.449 122.028 542.913 120.094 540.978C118.16 539.042 116.626 536.744 115.579 534.214C114.532 531.685 113.994 528.974 113.994 526.237C113.994 523.499 114.532 520.788 115.579 518.259C116.626 515.73 118.16 513.432 120.094 511.496C122.028 509.56 124.324 508.024 126.851 506.977C129.378 505.929 132.087 505.39 134.822 505.39C137.557 505.39 140.265 505.929 142.792 506.977C145.319 508.024 147.615 509.56 149.549 511.496C151.484 513.432 153.018 515.73 154.064 518.259C155.111 520.788 155.65 523.499 155.65 526.237V526.237Z" fill="black" fill-opacity="0.31373"/>
<path d="M185.684 500.417C176.275 491.001 159.528 490.522 149.565 499.371C142.552 505.52 139.757 514.964 138.839 523.907C138.191 530.354 138.576 537.272 141.884 543.017C145.205 547.283 150.989 548.18 156.065 548.437C166.184 548.889 176.876 546.446 184.962 540.04C194.709 531.677 196.984 516.104 189.829 505.433C188.661 503.61 187.25 501.929 185.684 500.417V500.417Z" fill="#DC9A6A" stroke="black" stroke-width="2.7" stroke-linecap="round" stroke-linejoin="round"/>
<path d="M164.463 493.148C166.467 493.627 168.411 494.363 170.227 495.389C171.989 496.34 173.656 497.481 175.148 498.811C184.146 506.506 186.002 520.883 179.434 530.711C173.838 538.4 164.949 543.212 155.856 545.318C152.171 546.149 147.972 546.722 144.381 545.359C147.702 547.64 152.097 548.241 156.059 548.437C166.177 548.889 176.869 546.446 184.962 540.04C194.709 531.677 196.984 516.104 189.829 505.433C188.661 503.603 187.251 501.929 185.685 500.411C180.183 494.903 172.164 492.459 164.463 493.148V493.148Z" fill="black" fill-opacity="0.31373"/>
<path fill-rule="evenodd" clip-rule="evenodd" d="M185.934 498.048C187.791 492.284 197.153 486.958 199.927 488.963C202.701 490.974 202.917 495.753 202.425 496.462C201.939 497.164 196.93 494.997 193.771 497.609C190.619 500.215 189.033 502.442 189.033 502.442L185.934 498.048Z" fill="url(#paint11_linear_2_547)" stroke="black" stroke-width="2.7"/>
<path fill-rule="evenodd" clip-rule="evenodd" d="M201.837 491.467C201.898 492.095 201.81 492.614 201.642 492.817C201.162 493.391 196.363 492.83 193.285 495.213C190.214 497.596 188.661 499.418 188.661 499.418L186.204 497.353C186.11 497.589 186.009 497.819 185.934 498.048L189.033 502.449C189.033 502.449 190.619 500.215 193.771 497.603C196.93 494.997 201.939 497.164 202.425 496.455C202.762 495.976 202.762 493.573 201.837 491.467V491.467Z" fill="black" fill-opacity="0.31373"/>
<path d="M188.094 498.082C178.853 488.929 163.538 486.566 152.765 493.431C150.328 494.774 151.064 498.143 151.091 498.089C155.161 494.869 159.38 498.413 164.921 502.388C171.705 507.255 179.164 514.721 184.638 521.977C188.472 527.053 191.213 532.041 189.019 535.531C189.134 535.565 192.32 536.462 193.778 533.492C201.122 519.648 196.97 506.351 188.094 498.082Z" fill="url(#paint12_linear_2_547)" stroke="black" stroke-width="2.7" stroke-linecap="round" stroke-linejoin="round"/>
<path d="M187.365 497.062C190.295 504.663 189.91 511.852 186.191 518.791C185.347 520.37 184.051 519.857 182.964 519.837C183.538 520.546 184.098 521.268 184.638 521.977C188.465 527.059 191.213 532.048 189.019 535.531C189.134 535.564 192.32 536.469 193.778 533.499C200.501 520.809 197.551 507.005 187.365 497.062Z" fill="black" fill-opacity="0.31373"/>
<path d="M149.421 511.583C150.791 513.954 151.681 516.571 152.04 519.286C152.399 522 152.221 524.758 151.514 527.403C150.807 530.047 149.587 532.526 147.922 534.698C146.257 536.869 144.181 538.691 141.811 540.059C139.442 541.427 136.826 542.314 134.113 542.67C131.4 543.026 128.643 542.844 125.999 542.134C123.356 541.424 120.878 540.2 118.706 538.531C116.535 536.863 114.714 534.783 113.345 532.411C111.975 530.04 111.085 527.423 110.726 524.709C110.367 521.994 110.545 519.236 111.252 516.592C111.959 513.947 113.179 511.469 114.844 509.297C116.509 507.125 118.586 505.304 120.955 503.936C123.324 502.568 125.94 501.68 128.653 501.324C131.367 500.968 134.124 501.15 136.767 501.861C139.41 502.571 141.889 503.795 144.06 505.463C146.231 507.131 148.053 509.211 149.421 511.583V511.583Z" fill="url(#paint13_linear_2_547)" stroke="black" stroke-width="2.70001" stroke-linecap="round" stroke-linejoin="round"/>
<path d="M233.787 526.561C233.787 532.09 231.592 537.392 227.686 541.302C223.78 545.211 218.482 547.407 212.958 547.407C207.434 547.407 202.137 545.211 198.231 541.302C194.325 537.392 192.13 532.09 192.13 526.561C192.13 521.032 194.325 515.729 198.231 511.82C202.137 507.91 207.434 505.714 212.958 505.714C218.482 505.714 223.78 507.91 227.686 511.82C231.592 515.729 233.787 521.032 233.787 526.561V526.561Z" fill="black" fill-opacity="0.31373"/>
<path d="M224.32 536.724C222.385 538.662 220.087 540.2 217.558 541.25C215.028 542.301 212.318 542.842 209.58 542.844C206.842 542.846 204.132 542.309 201.603 541.263C199.074 540.217 196.776 538.683 194.841 536.748C192.906 534.813 191.372 532.515 190.326 529.986C189.28 527.457 188.742 524.746 188.745 522.009C188.747 519.271 189.288 516.56 190.338 514.031C191.389 511.502 192.926 509.204 194.864 507.269C196.8 505.331 199.098 503.793 201.627 502.743C204.156 501.693 206.867 501.151 209.604 501.149C212.342 501.147 215.053 501.684 217.582 502.73C220.111 503.776 222.408 505.311 224.343 507.246C226.278 509.181 227.812 511.478 228.858 514.007C229.905 516.536 230.442 519.247 230.44 521.985C230.438 524.722 229.896 527.433 228.846 529.962C227.796 532.491 226.258 534.789 224.32 536.724V536.724Z" fill="url(#paint14_linear_2_547)" stroke="black" stroke-width="2.69999" stroke-linecap="round" stroke-linejoin="round"/>
<path d="M220.494 588.289C192.934 588.289 170.558 610.685 170.558 638.266C170.558 643.97 171.516 649.437 173.278 654.54H267.684C269.445 649.437 270.404 643.97 270.404 638.266C270.404 610.685 248.055 588.289 220.494 588.289V588.289Z" fill="url(#paint15_linear_2_547)" stroke="black" stroke-width="2.7" stroke-linecap="round" stroke-linejoin="round"/>
<path d="M120.621 588.289C93.061 588.289 70.7117 610.685 70.7117 638.266C70.7117 643.97 71.6703 649.437 73.432 654.54H167.837C169.599 649.437 170.558 643.97 170.558 638.266C170.558 610.685 148.182 588.289 120.621 588.289V588.289Z" fill="url(#paint16_linear_2_547)" stroke="black" stroke-width="2.7" stroke-linecap="round" stroke-linejoin="round"/>
<path d="M165.432 409.827C165.434 412.266 164.956 414.682 164.024 416.936C163.093 419.19 161.727 421.239 160.004 422.964C158.282 424.69 156.236 426.058 153.985 426.992C151.733 427.926 149.32 428.407 146.883 428.407C144.446 428.407 142.033 427.926 139.781 426.992C137.53 426.058 135.484 424.69 133.762 422.964C132.039 421.239 130.673 419.19 129.742 416.936C128.81 414.682 128.332 412.266 128.334 409.827C128.332 407.388 128.81 404.972 129.742 402.718C130.673 400.464 132.039 398.415 133.762 396.69C135.484 394.964 137.53 393.596 139.781 392.662C142.033 391.728 144.446 391.247 146.883 391.247C149.32 391.247 151.733 391.728 153.985 392.662C156.236 393.596 158.282 394.964 160.004 396.69C161.727 398.415 163.093 400.464 164.024 402.718C164.956 404.972 165.434 407.388 165.432 409.827V409.827Z" fill="white" stroke="black" stroke-width="2.70002" stroke-linecap="round" stroke-linejoin="round"/>
<path d="M206.513 409.827C206.514 412.266 206.036 414.682 205.105 416.936C204.173 419.19 202.807 421.239 201.085 422.964C199.362 424.69 197.317 426.058 195.065 426.992C192.814 427.926 190.401 428.407 187.963 428.407C185.526 428.407 183.113 427.926 180.862 426.992C178.61 426.058 176.565 424.69 174.842 422.964C173.12 421.239 171.754 419.19 170.822 416.936C169.891 414.682 169.412 412.266 169.414 409.827C169.412 407.388 169.891 404.972 170.822 402.718C171.754 400.464 173.12 398.415 174.842 396.69C176.565 394.964 178.61 393.596 180.862 392.662C183.113 391.728 185.526 391.247 187.963 391.247C190.401 391.247 192.814 391.728 195.065 392.662C197.317 393.596 199.362 394.964 201.085 396.69C202.807 398.415 204.173 400.464 205.105 402.718C206.036 404.972 206.514 407.388 206.513 409.827V409.827Z" fill="white" stroke="black" stroke-width="2.70002" stroke-linecap="round" stroke-linejoin="round"/>
<path d="M159.686 412.083C159.686 412.87 159.531 413.651 159.23 414.378C158.93 415.106 158.488 415.768 157.932 416.325C157.376 416.882 156.715 417.324 155.988 417.626C155.261 417.927 154.481 418.083 153.694 418.083C152.907 418.083 152.128 417.927 151.401 417.626C150.674 417.324 150.013 416.882 149.457 416.325C148.9 415.768 148.459 415.106 148.158 414.378C147.857 413.651 147.703 412.87 147.703 412.083C147.703 411.295 147.857 410.515 148.158 409.787C148.459 409.059 148.9 408.397 149.457 407.84C150.013 407.283 150.674 406.841 151.401 406.54C152.128 406.238 152.907 406.083 153.694 406.083C154.481 406.083 155.261 406.238 155.988 406.54C156.715 406.841 157.376 407.283 157.932 407.84C158.488 408.397 158.93 409.059 159.23 409.787C159.531 410.515 159.686 411.295 159.686 412.083Z" fill="black"/>
<path d="M187.091 412.083C187.091 412.87 186.936 413.651 186.635 414.378C186.335 415.106 185.893 415.768 185.337 416.325C184.781 416.882 184.12 417.324 183.393 417.626C182.666 417.927 181.886 418.083 181.099 418.083C180.312 418.083 179.533 417.927 178.806 417.626C178.079 417.324 177.418 416.882 176.862 416.325C176.305 415.768 175.864 415.106 175.563 414.378C175.262 413.651 175.108 412.87 175.108 412.083C175.108 411.295 175.262 410.515 175.563 409.787C175.864 409.059 176.305 408.397 176.862 407.84C177.418 407.283 178.079 406.841 178.806 406.54C179.533 406.238 180.312 406.083 181.099 406.083C181.886 406.083 182.666 406.238 183.393 406.54C184.12 406.841 184.781 407.283 185.337 407.84C185.893 408.397 186.335 409.059 186.635 409.787C186.936 410.515 187.091 411.295 187.091 412.083V412.083Z" fill="black"/>
<path fill-rule="evenodd" clip-rule="evenodd" d="M157.834 445.445C160.858 442.212 173.703 441.51 176.39 445.843C179.076 450.184 172.36 459.175 167.109 458.77C161.884 458.365 154.999 448.462 157.834 445.445Z" fill="black"/>
<path fill-rule="evenodd" clip-rule="evenodd" d="M124.05 379.538C122.059 350.702 92.386 344.135 90.955 347.557C89.5307 350.986 96.3753 389.535 124.05 379.538Z" fill="#74401B" stroke="black" stroke-width="2.7" stroke-linejoin="round"/>
<path fill-rule="evenodd" clip-rule="evenodd" d="M208.614 379.538C210.606 350.702 240.278 344.135 241.709 347.557C243.134 350.986 236.283 389.535 208.614 379.538Z" fill="url(#paint17_linear_2_547)" stroke="black" stroke-width="2.7" stroke-linejoin="round"/>
<path d="M116.198 640.115C116.198 644.326 114.79 648.364 112.282 651.341C109.775 654.319 106.374 655.991 102.829 655.991C99.2829 655.991 95.8824 654.319 93.3751 651.341C90.8679 648.364 89.4593 644.326 89.4593 640.115C89.4593 635.905 90.8679 631.867 93.3751 628.889C95.8824 625.912 99.2829 624.239 102.829 624.239C106.374 624.239 109.775 625.912 112.282 628.889C114.79 631.867 116.198 635.905 116.198 640.115Z" fill="url(#paint18_linear_2_547)" stroke="black" stroke-width="2.47871" stroke-linecap="round" stroke-linejoin="round"/>
<path d="M149.732 640.115C149.732 644.326 148.324 648.364 145.816 651.341C143.309 654.319 139.909 655.991 136.363 655.991C132.817 655.991 129.416 654.319 126.909 651.341C124.402 648.364 122.993 644.326 122.993 640.115C122.993 635.905 124.402 631.867 126.909 628.889C129.416 625.912 132.817 624.239 136.363 624.239C139.909 624.239 143.309 625.912 145.816 628.889C148.324 631.867 149.732 635.905 149.732 640.115V640.115Z" fill="url(#paint19_linear_2_547)" stroke="black" stroke-width="2.47871" stroke-linecap="round" stroke-linejoin="round"/>
<path d="M133.87 640.115C133.87 642.2 133.524 644.265 132.852 646.191C132.18 648.117 131.195 649.867 129.954 651.341C128.712 652.816 127.239 653.985 125.616 654.783C123.994 655.581 122.256 655.991 120.5 655.991C118.745 655.991 117.006 655.581 115.384 654.783C113.762 653.985 112.288 652.816 111.047 651.341C109.805 649.867 108.82 648.117 108.149 646.191C107.477 644.265 107.131 642.2 107.131 640.115C107.131 638.03 107.477 635.966 108.149 634.04C108.82 632.114 109.805 630.363 111.047 628.889C112.288 627.415 113.762 626.246 115.384 625.448C117.006 624.65 118.745 624.239 120.5 624.239C122.256 624.239 123.994 624.65 125.616 625.448C127.239 626.246 128.712 627.415 129.954 628.889C131.195 630.363 132.18 632.114 132.852 634.04C133.524 635.966 133.87 638.03 133.87 640.115V640.115Z" fill="url(#paint20_linear_2_547)" stroke="black" stroke-width="2.47871" stroke-linecap="round" stroke-linejoin="round"/>
<path d="M219.074 640.115C219.074 642.2 218.728 644.265 218.056 646.191C217.385 648.117 216.4 649.867 215.158 651.341C213.917 652.816 212.443 653.985 210.821 654.783C209.199 655.581 207.46 655.991 205.705 655.991C203.949 655.991 202.211 655.581 200.589 654.783C198.966 653.985 197.493 652.816 196.251 651.341C195.01 649.867 194.025 648.117 193.353 646.191C192.681 644.265 192.335 642.2 192.335 640.115C192.335 638.03 192.681 635.966 193.353 634.04C194.025 632.114 195.01 630.363 196.251 628.889C197.493 627.415 198.966 626.246 200.589 625.448C202.211 624.65 203.949 624.239 205.705 624.239C207.46 624.239 209.199 624.65 210.821 625.448C212.443 626.246 213.917 627.415 215.158 628.889C216.4 630.363 217.385 632.114 218.056 634.04C218.728 635.966 219.074 638.03 219.074 640.115V640.115Z" fill="url(#paint21_linear_2_547)" stroke="black" stroke-width="2.47871" stroke-linecap="round" stroke-linejoin="round"/>
<path d="M252.612 640.115C252.612 644.326 251.203 648.364 248.696 651.341C246.188 654.319 242.788 655.991 239.242 655.991C235.696 655.991 232.296 654.319 229.789 651.341C227.281 648.364 225.873 644.326 225.873 640.115C225.873 635.905 227.281 631.867 229.789 628.889C232.296 625.912 235.696 624.239 239.242 624.239C242.788 624.239 246.188 625.912 248.696 628.889C251.203 631.867 252.612 635.905 252.612 640.115Z" fill="url(#paint22_linear_2_547)" stroke="black" stroke-width="2.47871" stroke-linecap="round" stroke-linejoin="round"/>
<path d="M236.749 640.115C236.749 642.2 236.403 644.265 235.731 646.191C235.059 648.117 234.075 649.867 232.833 651.341C231.592 652.816 230.118 653.985 228.496 654.783C226.874 655.581 225.135 655.991 223.38 655.991C221.624 655.991 219.885 655.581 218.263 654.783C216.641 653.985 215.168 652.816 213.926 651.341C212.685 649.867 211.7 648.117 211.028 646.191C210.356 644.265 210.01 642.2 210.01 640.115C210.01 638.03 210.356 635.966 211.028 634.04C211.7 632.114 212.685 630.363 213.926 628.889C215.168 627.415 216.641 626.246 218.263 625.448C219.885 624.65 221.624 624.239 223.38 624.239C225.135 624.239 226.874 624.65 228.496 625.448C230.118 626.246 231.592 627.415 232.833 628.889C234.075 630.363 235.059 632.114 235.731 634.04C236.403 635.966 236.749 638.03 236.749 640.115V640.115Z" fill="url(#paint23_linear_2_547)" stroke="black" stroke-width="2.47871" stroke-linecap="round" stroke-linejoin="round"/>
<path d="M219.732 392.384C220.764 396.663 221.318 401.145 221.318 405.735C221.318 437.102 195.864 473.438 164.523 473.438C141.681 473.438 122.005 454.126 113.001 431.507C119.973 457.622 141.695 482.111 167.412 482.111C198.753 482.111 224.207 445.749 224.207 414.382C224.207 406.579 222.614 399.154 219.759 392.384H219.732Z" fill="black" fill-opacity="0.31373"/>
<path d="M137.941 526.992C138.869 527.529 139.695 528.22 140.373 529.028C141.05 529.836 141.566 530.743 141.889 531.699C142.213 532.655 142.339 533.641 142.259 534.599C142.18 535.558 141.897 536.471 141.427 537.287C140.956 538.103 140.307 538.805 139.518 539.353C138.728 539.901 137.812 540.285 136.823 540.482C135.834 540.68 134.791 540.687 133.753 540.503C132.716 540.32 131.704 539.949 130.776 539.413C129.848 538.876 129.021 538.185 128.344 537.377C127.666 536.57 127.151 535.662 126.827 534.706C126.503 533.75 126.378 532.764 126.457 531.806C126.536 530.847 126.819 529.934 127.29 529.118C127.76 528.302 128.409 527.6 129.199 527.052C129.989 526.504 130.904 526.12 131.893 525.923C132.882 525.725 133.925 525.718 134.963 525.902C136.001 526.085 137.012 526.456 137.941 526.992V526.992Z" fill="url(#paint24_linear_2_547)" stroke="black" stroke-width="2.47879" stroke-linecap="round" stroke-linejoin="round"/>
<path d="M146.925 511.413C147.853 511.95 148.68 512.641 149.357 513.449C150.035 514.257 150.55 515.164 150.874 516.12C151.197 517.076 151.323 518.062 151.244 519.021C151.164 519.979 150.881 520.893 150.411 521.708C149.94 522.524 149.292 523.226 148.502 523.774C147.712 524.322 146.796 524.706 145.807 524.903C144.818 525.101 143.775 525.108 142.738 524.924C141.7 524.741 140.688 524.37 139.76 523.834C138.832 523.298 138.005 522.606 137.328 521.798C136.65 520.991 136.135 520.083 135.811 519.127C135.488 518.171 135.362 517.185 135.441 516.227C135.521 515.268 135.804 514.355 136.274 513.539C136.745 512.724 137.393 512.022 138.183 511.473C138.973 510.925 139.889 510.541 140.878 510.344C141.867 510.147 142.91 510.139 143.947 510.323C144.985 510.506 145.997 510.877 146.925 511.413V511.413Z" fill="url(#paint25_linear_2_547)" stroke="black" stroke-width="2.47879" stroke-linecap="round" stroke-linejoin="round"/>
<path d="M146.29 521.41C147.219 521.946 148.045 522.638 148.723 523.446C149.4 524.253 149.915 525.161 150.239 526.117C150.563 527.073 150.689 528.058 150.609 529.017C150.53 529.976 150.247 530.889 149.776 531.705C149.306 532.52 148.657 533.222 147.867 533.771C147.077 534.319 146.162 534.703 145.173 534.9C144.184 535.097 143.141 535.104 142.103 534.921C141.066 534.738 140.054 534.367 139.126 533.831C138.197 533.294 137.371 532.603 136.693 531.795C136.016 530.987 135.5 530.08 135.177 529.124C134.853 528.168 134.727 527.182 134.807 526.223C134.886 525.265 135.169 524.351 135.64 523.536C136.11 522.72 136.759 522.018 137.549 521.47C138.339 520.922 139.254 520.538 140.243 520.341C141.232 520.143 142.275 520.136 143.313 520.32C144.35 520.503 145.362 520.874 146.29 521.41Z" fill="url(#paint26_linear_2_547)" stroke="black" stroke-width="2.47879" stroke-linecap="round" stroke-linejoin="round"/>
<path d="M202.523 525.687C201.487 525.964 200.509 526.418 199.645 527.023C198.782 527.628 198.048 528.371 197.488 529.211C196.928 530.051 196.551 530.97 196.379 531.917C196.208 532.864 196.245 533.82 196.488 534.729C196.732 535.639 197.177 536.485 197.798 537.219C198.419 537.953 199.205 538.561 200.109 539.008C201.014 539.454 202.019 539.731 203.069 539.822C204.119 539.913 205.193 539.817 206.228 539.539C207.264 539.261 208.242 538.807 209.106 538.202C209.97 537.597 210.703 536.854 211.263 536.014C211.823 535.175 212.2 534.255 212.372 533.308C212.543 532.361 212.506 531.406 212.263 530.496C212.019 529.586 211.574 528.74 210.953 528.006C210.332 527.272 209.546 526.664 208.642 526.218C207.737 525.771 206.731 525.494 205.682 525.403C204.632 525.312 203.558 525.408 202.523 525.687V525.687Z" fill="url(#paint27_linear_2_547)" stroke="black" stroke-width="2.47879" stroke-linecap="round" stroke-linejoin="round"/>
<path d="M197.879 508.312C196.843 508.59 195.865 509.044 195.001 509.649C194.138 510.254 193.404 510.997 192.844 511.837C192.284 512.676 191.907 513.596 191.735 514.543C191.564 515.49 191.601 516.445 191.844 517.355C192.088 518.265 192.533 519.111 193.154 519.845C193.775 520.579 194.561 521.187 195.465 521.633C196.37 522.08 197.376 522.357 198.426 522.448C199.475 522.539 200.549 522.443 201.584 522.164C202.62 521.887 203.598 521.433 204.462 520.828C205.326 520.223 206.059 519.48 206.619 518.64C207.179 517.8 207.556 516.881 207.728 515.934C207.899 514.987 207.862 514.031 207.619 513.122C207.375 512.212 206.93 511.366 206.309 510.632C205.688 509.898 204.903 509.29 203.998 508.843C203.093 508.397 202.087 508.12 201.038 508.029C199.988 507.938 198.914 508.034 197.879 508.312V508.312Z" fill="url(#paint28_linear_2_547)" stroke="black" stroke-width="2.47879" stroke-linecap="round" stroke-linejoin="round"/>
<path d="M195.908 518.133C194.872 518.411 193.894 518.865 193.03 519.47C192.167 520.075 191.433 520.818 190.873 521.658C190.313 522.497 189.936 523.417 189.764 524.364C189.593 525.311 189.63 526.266 189.873 527.176C190.117 528.086 190.562 528.932 191.183 529.666C191.804 530.4 192.59 531.008 193.494 531.454C194.399 531.901 195.405 532.178 196.455 532.269C197.504 532.36 198.578 532.264 199.613 531.985C200.649 531.708 201.627 531.254 202.491 530.649C203.355 530.044 204.088 529.301 204.648 528.461C205.208 527.621 205.585 526.702 205.757 525.755C205.928 524.808 205.891 523.852 205.648 522.943C205.404 522.033 204.959 521.187 204.338 520.453C203.717 519.719 202.931 519.111 202.027 518.664C201.122 518.218 200.117 517.941 199.067 517.85C198.017 517.759 196.943 517.855 195.908 518.133V518.133Z" fill="url(#paint29_linear_2_547)" stroke="black" stroke-width="2.47879" stroke-linecap="round" stroke-linejoin="round"/>
</g>
<defs>
<linearGradient id="paint0_linear_2_547" x1="560.956" y1="-450.036" x2="585.695" y2="-450.036" gradientUnits="userSpaceOnUse">
<stop stop-color="#155A79"/>
</linearGradient>
<linearGradient id="paint1_linear_2_547" x1="509.151" y1="-448.653" x2="578.174" y2="-448.653" gradientUnits="userSpaceOnUse">
<stop stop-color="#155A79"/>
</linearGradient>
<linearGradient id="paint2_linear_2_547" x1="558.864" y1="-259.618" x2="583.602" y2="-259.618" gradientUnits="userSpaceOnUse">
<stop stop-color="#155A79"/>
</linearGradient>
<linearGradient id="paint3_linear_2_547" x1="507.059" y1="-258.235" x2="576.081" y2="-258.235" gradientUnits="userSpaceOnUse">
<stop stop-color="#155A79"/>
</linearGradient>
<linearGradient id="paint4_linear_2_547" x1="741.487" y1="195.19" x2="766.226" y2="195.19" gradientUnits="userSpaceOnUse">
<stop stop-color="white"/>
</linearGradient>
<linearGradient id="paint5_linear_2_547" x1="689.682" y1="196.573" x2="758.705" y2="196.573" gradientUnits="userSpaceOnUse">
<stop stop-color="white"/>
</linearGradient>
<linearGradient id="paint6_linear_2_547" x1="739.395" y1="384.562" x2="764.133" y2="384.562" gradientUnits="userSpaceOnUse">
<stop stop-color="white"/>
</linearGradient>
<linearGradient id="paint7_linear_2_547" x1="687.59" y1="385.944" x2="756.612" y2="385.944" gradientUnits="userSpaceOnUse">
<stop stop-color="white"/>
</linearGradient>
<linearGradient id="paint8_linear_2_547" x1="97.2055" y1="445.449" x2="341.13" y2="445.449" gradientUnits="userSpaceOnUse">
<stop stop-color="#D07839"/>
</linearGradient>
<linearGradient id="paint9_linear_2_547" x1="55.6481" y1="540.866" x2="278.6" y2="540.866" gradientUnits="userSpaceOnUse">
<stop stop-color="#D07839"/>
</linearGradient>
<linearGradient id="paint10_linear_2_547" x1="70.0084" y1="410.47" x2="263.047" y2="410.47" gradientUnits="userSpaceOnUse">
<stop stop-color="#D07839"/>
</linearGradient>
<linearGradient id="paint11_linear_2_547" x1="195.15" y1="468.679" x2="195.159" y2="468.709" gradientUnits="userSpaceOnUse">
<stop stop-color="#74401B"/>
</linearGradient>
<linearGradient id="paint12_linear_2_547" x1="195.14" y1="468.611" x2="195.166" y2="468.697" gradientUnits="userSpaceOnUse">
<stop stop-color="#74401B"/>
</linearGradient>
<linearGradient id="paint13_linear_2_547" x1="101.687" y1="345.587" x2="106.716" y2="346.937" gradientUnits="userSpaceOnUse">
<stop stop-color="#D07839"/>
</linearGradient>
<linearGradient id="paint14_linear_2_547" x1="111.127" y1="348.113" x2="116.159" y2="349.464" gradientUnits="userSpaceOnUse">
<stop stop-color="#D07839"/>
</linearGradient>
<linearGradient id="paint15_linear_2_547" x1="106.105" y1="358.057" x2="118.156" y2="361.291" gradientUnits="userSpaceOnUse">
<stop stop-color="#D07839"/>
</linearGradient>
<linearGradient id="paint16_linear_2_547" x1="94.0519" y1="354.832" x2="106.103" y2="358.066" gradientUnits="userSpaceOnUse">
<stop stop-color="#D07839"/>
</linearGradient>
<linearGradient id="paint17_linear_2_547" x1="194.31" y1="468.981" x2="194.329" y2="469.042" gradientUnits="userSpaceOnUse">
<stop stop-color="#74401B"/>
</linearGradient>
<linearGradient id="paint18_linear_2_547" x1="195.92" y1="468.249" x2="195.935" y2="468.299" gradientUnits="userSpaceOnUse">
<stop stop-color="#74401B"/>
</linearGradient>
<linearGradient id="paint19_linear_2_547" x1="195.935" y1="468.312" x2="195.95" y2="468.361" gradientUnits="userSpaceOnUse">
<stop stop-color="#74401B"/>
</linearGradient>
<linearGradient id="paint20_linear_2_547" x1="195.928" y1="468.283" x2="195.943" y2="468.332" gradientUnits="userSpaceOnUse">
<stop stop-color="#74401B"/>
</linearGradient>
<linearGradient id="paint21_linear_2_547" x1="195.966" y1="468.442" x2="195.981" y2="468.492" gradientUnits="userSpaceOnUse">
<stop stop-color="#74401B"/>
</linearGradient>
<linearGradient id="paint22_linear_2_547" x1="195.98" y1="468.505" x2="195.995" y2="468.555" gradientUnits="userSpaceOnUse">
<stop stop-color="#74401B"/>
</linearGradient>
<linearGradient id="paint23_linear_2_547" x1="195.973" y1="468.476" x2="195.988" y2="468.525" gradientUnits="userSpaceOnUse">
<stop stop-color="#74401B"/>
</linearGradient>
<linearGradient id="paint24_linear_2_547" x1="195.347" y1="468.499" x2="195.356" y2="468.528" gradientUnits="userSpaceOnUse">
<stop stop-color="#74401B"/>
</linearGradient>
<linearGradient id="paint25_linear_2_547" x1="195.257" y1="468.544" x2="195.266" y2="468.573" gradientUnits="userSpaceOnUse">
<stop stop-color="#74401B"/>
</linearGradient>
<linearGradient id="paint26_linear_2_547" x1="195.317" y1="468.525" x2="195.326" y2="468.554" gradientUnits="userSpaceOnUse">
<stop stop-color="#74401B"/>
</linearGradient>
<linearGradient id="paint27_linear_2_547" x1="195.375" y1="468.631" x2="195.384" y2="468.66" gradientUnits="userSpaceOnUse">
<stop stop-color="#74401B"/>
</linearGradient>
<linearGradient id="paint28_linear_2_547" x1="195.269" y1="468.654" x2="195.278" y2="468.684" gradientUnits="userSpaceOnUse">
<stop stop-color="#74401B"/>
</linearGradient>
<linearGradient id="paint29_linear_2_547" x1="195.327" y1="468.632" x2="195.336" y2="468.662" gradientUnits="userSpaceOnUse">
<stop stop-color="#74401B"/>
</linearGradient>
<clipPath id="clip0_2_547">
<rect width="847.693" height="656" fill="white"/>
</clipPath>
</defs>
</svg>
