<?xml version="1.0" encoding="UTF-8" standalone="no"?>
<svg
   data-name="Layer 1"
   width="882.65452"
   height="624.26423"
   viewBox="0 0 882.65452 624.26423"
   version="1.1"
   id="svg912"
   sodipodi:docname="undraw_personal_training_sqrl.svg"
   inkscape:version="1.1.1 (c3084ef, 2021-09-22)"
   xmlns:inkscape="http://www.inkscape.org/namespaces/inkscape"
   xmlns:sodipodi="http://sodipodi.sourceforge.net/DTD/sodipodi-0.dtd"
   xmlns:xlink="http://www.w3.org/1999/xlink"
   xmlns="http://www.w3.org/2000/svg"
   xmlns:svg="http://www.w3.org/2000/svg">
  <defs
     id="defs916">
    <linearGradient
       id="linearGradient2009"
       inkscape:swatch="solid"
       gradientTransform="matrix(0.01182354,0.05055366,0.16138304,-0.0492911,-442.23578,367.73173)">
      <stop
         style="stop-color:#74401b;stop-opacity:1;"
         offset="0"
         id="stop2007" />
    </linearGradient>
    <linearGradient
       id="linearGradient2069"
       inkscape:swatch="solid"
       gradientTransform="matrix(0.38152652,0.10207337,-0.10249719,0.3819541,-1242.2548,-558.58126)">
      <stop
         style="stop-color:#d07839;stop-opacity:1;"
         offset="0"
         id="stop2067" />
    </linearGradient>
    <linearGradient
       inkscape:collect="always"
       xlink:href="#linearGradient2069"
       id="linearGradient2071"
       x1="162.51797"
       y1="416.035"
       x2="448.50153"
       y2="416.035"
       gradientUnits="userSpaceOnUse"
       gradientTransform="translate(-427.38426,-220.01577)" />
    <linearGradient
       inkscape:collect="always"
       xlink:href="#linearGradient2069"
       id="linearGradient2083"
       x1="269.20129"
       y1="561.96002"
       x2="515.17871"
       y2="561.96002"
       gradientUnits="userSpaceOnUse"
       gradientTransform="matrix(1.3428,0,0,1.344,-647.62426,-366.07577)" />
    <linearGradient
       inkscape:collect="always"
       xlink:href="#linearGradient2069"
       id="linearGradient2077"
       x1="202.81"
       y1="467.85501"
       x2="564.1795"
       y2="467.85501"
       gradientUnits="userSpaceOnUse"
       gradientTransform="translate(-427.38426,-220.01577)" />
  </defs>
  <sodipodi:namedview
     id="namedview914"
     pagecolor="#ffffff"
     bordercolor="#666666"
     borderopacity="1.0"
     inkscape:pageshadow="2"
     inkscape:pageopacity="0.0"
     inkscape:pagecheckerboard="0"
     showgrid="false"
     inkscape:zoom="1.0043824"
     inkscape:cx="436.5867"
     inkscape:cy="312.13211"
     inkscape:window-width="1440"
     inkscape:window-height="855"
     inkscape:window-x="0"
     inkscape:window-y="23"
     inkscape:window-maximized="1"
     inkscape:current-layer="svg912" />
  <rect
     x="650.91616"
     y="401.0839"
     width="7.81019"
     height="67.36288"
     transform="translate(-224.35236 611.04752) rotate(-57.13996)"
     fill="#2f2e41"
     id="rect824" />
  <ellipse
     cx="683.11368"
     cy="453.04054"
     rx="23.43057"
     ry="5.85766"
     transform="matrix(0.54259, -0.84, 0.84, 0.54259, -226.76223, 643.1724)"
     fill="#2f2e41"
     id="ellipse826" />
  <ellipse
     cx="626.5289"
     cy="416.49016"
     rx="23.43057"
     ry="5.85766"
     transform="translate(-221.94248 578.92272) rotate(-57.13996)"
     fill="#2f2e41"
     id="ellipse828" />
  <ellipse
     cx="657.20584"
     cy="607.06899"
     rx="225.44868"
     ry="17.19524"
     fill="#e6e6e6"
     id="ellipse830" />
  <ellipse
     cx="225.44868"
     cy="524.6538"
     rx="225.44868"
     ry="17.19524"
     fill="#e6e6e6"
     id="ellipse832" />
  <path
     d="M1001.3292,662.48459a294.26751,294.26751,0,0,1-13.746,81.3449c-.19151.61112-.39221,1.21311-.59286,1.82428h-51.299c.05473-.54732.10951-1.15844.16423-1.82428,3.42054-39.32253,23.14106-278.65052-.43786-319.57842C937.4792,427.57128,1005.30613,537.53922,1001.3292,662.48459Z"
     transform="translate(-158.67274 -137.86789)"
     fill="#e6e6e6"
     id="path834" />
  <path
     d="M997.48,743.82949c-.42873.61112-.87567,1.22224-1.33174,1.82428H957.66493c.29189-.51993.62938-1.131,1.02159-1.82428,6.35767-11.47478,25.17512-45.78046,42.64268-81.3449,18.77192-38.21881,35.99318-77.88789,34.54285-92.245C1036.319,573.47767,1049.30789,672.18975,997.48,743.82949Z"
     transform="translate(-158.67274 -137.86789)"
     fill="#e6e6e6"
     id="path836" />
  <path
     d="M637.84005,703.4384a149.36551,149.36551,0,0,0,6.97725,41.28939c.09721.3102.19908.61576.30093.926h26.03855c-.02778-.27781-.05559-.588-.08337-.926-1.73621-19.95949-11.746-141.43862.22226-162.213C670.24931,584.2001,635.82142,640.0181,637.84005,703.4384Z"
     transform="translate(-158.67274 -137.86789)"
     fill="#e6e6e6"
     id="path838" />
  <path
     d="M639.79385,744.72779c.21762.3102.44448.62039.676.926h19.53352c-.14816-.26391-.31947-.5741-.51855-.926-3.227-5.82441-12.77849-23.23743-21.64475-41.28939-9.52833-19.39926-18.26957-39.53467-17.53341-46.82211C620.07978,658.25989,613.48682,708.36459,639.79385,744.72779Z"
     transform="translate(-158.67274 -137.86789)"
     fill="#e6e6e6"
     id="path840" />
  <path
     d="M671.07385,399.80734s-43.50121,42.63117-25.23072,47.85131,39.15108-39.15107,39.15108-39.15107Z"
     transform="translate(-158.67274 -137.86789)"
     fill="#a0616a"
     id="path842" />
  <polygon
     points="555.902 405.493 550.682 429.854 589.833 431.594 583.743 405.493 555.902 405.493"
     fill="#a0616a"
     id="polygon844" />
  <polygon
     points="679.446 556.007 674.226 580.368 713.377 582.108 707.286 556.007 679.446 556.007"
     fill="#a0616a"
     id="polygon846" />
  <path
     d="M769.38653,380.66681l3.48011,13.92038s-96.57264-19.14055-91.3525,29.5808,27.84077,95.70265,27.84077,95.70265-1.74,15.66045,1.74,18.27049,0,11.31031,0,11.31031,32.1909,4.35013,33.06092-3.48006a54.56676,54.56676,0,0,0-.87-15.66044s1.74,0,0-8.70024-8.76889-78.86547-13.989-88.43575c0,0,46.17994,35.36427,70.54059,31.01411,0,0-3.48011,34.801,10.44029,80.91225S824.198,596.43272,824.198,596.43272s16.53046,87.87243,12.18033,98.31272l-.87,4.35013H867.6992s-2.61005-46.11125,0-52.20142,2.6101-58.29158-12.18032-84.39231c-10.47395-18.48353-8.52313-72.07681-2.79394-93.26023,4.81124-17.78918,6.02623-31.48065,3.20593-49.69185-3.016-19.47493-12.02222-29.65481-23.03257-38.88295Z"
     transform="translate(-158.67274 -137.86789)"
     fill="#2f2e41"
     id="path848" />
  <circle
     cx="636.37954"
     cy="80.53943"
     r="31.32088"
     fill="#a0616a"
     id="circle850" />
  <path
     d="M786.78705,240.59292s9.57028,27.84078,8.70026,33.06091,27.84077-10.44029,27.84077-10.44029-11.31031-27.84078-7.8302-35.671Z"
     transform="translate(-158.67274 -137.86789)"
     fill="#a0616a"
     id="path852" />
  <path
     d="M821.588,253.64329l-30.45081,12.18034,1.74,10.44029s-2.61005,3.4801-1.74,5.22015-11.31031,8.70023-9.57028,11.31031-10.44029,13.05035-9.57028,15.66044-27.84076,18.27051-12.18032,48.72135c0,0,8.1195,10.55533,7.10209,23.03778q-.05356.658-.14186,1.32288c-1.74,13.05036,66.12182-1.74,66.12182-1.74V365.00637s6.09017-2.61008,5.22015-13.92039-6.09016-6.09016,0-12.18032,6.09016-5.22015,5.22015-10.4403c-.34742-2.08456-.41738-9.57987-.37609-17.83215a79.1676,79.1676,0,0,0-16.15437-48.28961h0Z"
     transform="translate(-158.67274 -137.86789)"
     fill="#2fa4da"
     id="path854" />
  <path
     d="M805.05754,276.26392,748.506,335.42554,665.8537,400.67736l18.27049,14.7904L836.37842,313.67494S849.42876,257.99341,805.05754,276.26392Z"
     transform="translate(-158.67274 -137.86789)"
     fill="#2fa4da"
     id="path856" />
  <path
     d="M717.18511,556.41167s-6.09017-10.44029-10.4403-6.96018L676.294,573.81215s-53.94151,15.66044-1.74,27.84076c0,0,28.71079,4.35013,34.801,0s15.66044-3.48011,18.27049-1.74,35.671-.87,35.671-7.8302-18.23414-37.37944-18.23414-37.37944S734.58558,566.85192,717.18511,556.41167Z"
     transform="translate(-158.67274 -137.86789)"
     fill="#2f2e41"
     id="path858" />
  <path
     d="M840.7285,706.92582s-6.09016-10.4403-10.44029-6.96018l-30.45082,24.36065s-53.9415,15.66044-1.74,27.84077c0,0,28.71078,4.35013,34.80094,0s15.66045-3.48012,18.27049-1.74,35.671-.87,35.671-7.8302-18.2341-37.37944-18.2341-37.37944S858.129,717.36611,840.7285,706.92582Z"
     transform="translate(-158.67274 -137.86789)"
     fill="#2f2e41"
     id="path860" />
  <path
     d="M757.51669,205.986s5.29577-46.552,50.58886-33.33436c0,0,32.04224-6.51744,43.3595,33.50169l11.487,41.95714-5.25811-2.73243-2.32417,5.34954-8.39144,2.29741-3.746-7.0928-1.5786,8.731-57.95072,11.71641s19.59887-22.39274,19.45984-55.189l-5.77258,6.33962Z"
     transform="translate(-158.67274 -137.86789)"
     fill="#2f2e41"
     id="path862" />
  <rect
     x="776.41768"
     y="577.76013"
     width="67.36288"
     height="7.81019"
     fill="#2f2e41"
     id="rect906" />
  <ellipse
     cx="843.78063"
     cy="581.66522"
     rx="5.85766"
     ry="23.43057"
     fill="#2f2e41"
     id="ellipse908" />
  <ellipse
     cx="776.41768"
     cy="581.66522"
     rx="5.85766"
     ry="23.43057"
     fill="#2f2e41"
     id="ellipse910" />
  <g
     id="g1709"
     transform="matrix(0.6075,0,0,0.6075,301.24215,183.84683)">
    <path
       id="path3584"
       style="fill:url(#linearGradient2077);fill-opacity:1;stroke:#000000;stroke-width:4;stroke-linecap:round;stroke-linejoin:round"
       d="m 134.74574,247.83423 c -1.39,78.87 -54.33,113.15 -55.2,79.85 -1.08,-42.12 -19.22,-151.36 -90.42,-117.86 -85.15,40.06 -8.39,284.07 -33.04,284.07 -98.62,0 -178.66,-110.23 -178.66,-246.06 0,-135.82 80.04,-246.05 178.66,-246.05 98.62,0 181.02,111.96 178.66,246.05 z" />
    <path
       id="path3604"
       style="fill:#000000;fill-opacity:0.31373"
       d="m 86.49574,79.04423 c 22.87,41.39 34.22,93.29 35.24,147.78 0.95,50.34 -12.76,97.88 -38.18,111.35 11.87,3.8 49.8,-11.48 51.18,-90.35 1.15,-64.81 -17.52,-124.45 -48.24,-168.78 z m -86.1,103.5 c -7.31,0.14 -15.38,2.1 -24.28,6.28 -85.15,40.06 -8.38,284.07 -33.03,284.07 -50.79,0 -96.65,-29.24 -129.19,-76.16 32.65,59.02 84.2,97.16 142.19,97.16 24.65,0 -52.12,-244.01 33.03,-284.07 26.4,-12.41 45.51,-5.21 59.16,10.91 -10.18,-21.96 -25.48,-38.61 -47.88,-38.19 z" />
    <path
       id="path2385"
       style="fill:url(#linearGradient2083);fill-opacity:1;stroke:#000000;stroke-width:3.99984;stroke-linecap:round;stroke-linejoin:round"
       d="m 42.158672,389.19847 a 163.1502,163.296 0 1 1 -326.300402,0 163.1502,163.296 0 1 1 326.300402,0 z" />
    <path
       id="path3276"
       style="fill:#000000;fill-opacity:0.31373"
       d="m -120.98426,225.92423 c -17.36,0 -34.07,2.74 -49.77,7.77 14.12,-3.3 29.01,-5.08 44.4,-5.08 42.22,0 80.72,13.28 109.69,35.07 -28.28,-23.58 -64.66,-37.76 -104.32,-37.76 z m 154.51,110.72 c 2.14,8.72 3.28,17.72 3.28,26.96 0,74.52 -73.1,134.99 -163.16,134.99 -75.31,0 -138.73,-42.28 -157.49,-99.71 5,85.65 76.04,153.64 162.86,153.64 90.06,0 163.16,-73.16 163.16,-163.3 0,-18.39 -3.04,-36.08 -8.65,-52.58 z" />
    <path
       id="path3236"
       style="fill:#000000;fill-opacity:0.31373"
       d="m -120.98426,225.92423 c -27.82,0 -54.03,6.97 -76.96,19.28 10.86,37.97 42.59,73.08 80.07,73.08 36.48,0 67.57,-33.26 79.22,-70.06 -24.17,-14.17 -52.31,-22.3 -82.33,-22.3 z" />
    <path
       id="path3573"
       style="fill:url(#linearGradient2071);fill-opacity:1;fill-rule:evenodd;stroke:#000000;stroke-width:4;stroke-linejoin:round"
       d="m -9.19426,89.90423 c -19.81,0 -60.05,10.54 -67.09,37.87 -0.11,0.21 -0.32,0.97 -0.55,2.14 -12.74,-7.79 -27.72,-12.32 -43.73,-12.32 -16.72,0 -32.26,4.94 -45.35,13.36 -0.27,-1.71 -0.6,-2.91 -0.73,-3.18 -7.04,-27.33 -47.28,-37.84 -67.1,-37.85 -3.15,0 -5.76,0.27 -7.67,0.77 -10.63,1.48 -22.27,5.73 -21.42,8.05 7.8,-1.33 11.74,0.19 11.62,1.45 -0.24,2.36 -4.94,2.99 -3.43,11.5 2.85,-4.13 6.82,-5.55 9.94,-6.21 3.2,20.09 17.2,55.16 43.4,56.98 2.25,0.16 4.35,0.15 6.33,0.11 -6.18,11.72 -9.69,25.07 -9.69,39.24 0,46.47 37.67,100.32 84.1,100.32 46.42,0 84.14,-53.85 84.14,-100.32 0,-14.16 -3.52,-27.48 -9.7,-39.19 1.43,-0.01 2.94,-0.05 4.5,-0.16 26.11,-1.81 40.11,-36.68 43.37,-56.79 2.98,0.73 6.54,2.23 9.15,6.02 1.51,-8.51 -3.19,-9.14 -3.43,-11.5 -0.12,-1.26 3.82,-2.78 11.62,-1.45 0.81,-2.2 -9.58,-6.13 -19.72,-7.8 -1.93,-0.68 -4.89,-1.04 -8.56,-1.04 z" />
    <path
       id="path3619"
       style="fill:#000000;fill-opacity:0.31373"
       d="m -88.49426,339.27423 c -13.94,-13.95 -38.75,-14.66 -53.51,-1.55 -10.39,9.11 -14.53,23.1 -15.89,36.35 -0.96,9.55 -0.39,19.8 4.51,28.31 4.92,6.32 13.49,7.65 21.01,8.03 14.99,0.67 30.83,-2.95 42.81,-12.44 14.44,-12.39 17.81,-35.46 7.21,-51.27 -1.73,-2.7 -3.82,-5.19 -6.14,-7.43 z" />
    <path
       id="path3242"
       style="fill:#000000;fill-opacity:0.31373;stroke-width:0.62866"
       d="m -137.98992,367.52522 a 30.8566,30.884099 0 1 1 -61.7132,0 30.8566,30.884099 0 1 1 61.7132,0 z" />
    <path
       id="path2383"
       style="fill:#dc9a6a;fill-opacity:1;stroke:#000000;stroke-width:4;stroke-linecap:round;stroke-linejoin:round"
       d="m -93.49426,329.27423 c -13.94,-13.95 -38.75,-14.66 -53.51,-1.55 -10.39,9.11 -14.53,23.1 -15.89,36.35 -0.96,9.55 -0.39,19.8 4.51,28.31 4.92,6.32 13.49,7.65 21.01,8.03 14.99,0.67 30.83,-2.95 42.81,-12.44 14.44,-12.39 17.81,-35.46 7.21,-51.27 -1.73,-2.7 -3.82,-5.19 -6.14,-7.43 z" />
    <path
       id="path3250"
       style="fill:#000000;fill-opacity:0.31373"
       d="m -124.93426,318.50423 c 2.97,0.71 5.85,1.8 8.54,3.32 2.61,1.41 5.08,3.1 7.29,5.07 13.33,11.4 16.08,32.7 6.35,47.26 -8.29,11.39 -21.46,18.52 -34.93,21.64 -5.46,1.23 -11.68,2.08 -17,0.06 4.92,3.38 11.43,4.27 17.3,4.56 14.99,0.67 30.83,-2.95 42.82,-12.44 14.44,-12.39 17.81,-35.46 7.21,-51.27 -1.73,-2.71 -3.82,-5.19 -6.14,-7.44 -8.15,-8.16 -20.03,-11.78 -31.44,-10.76 z" />
    <path
       id="path3239"
       style="fill:url(#linearGradient2009);fill-rule:evenodd;stroke:#000000;stroke-width:4"
       d="m -93.12426,325.76423 c 2.75,-8.54 16.62,-16.43 20.73,-13.46 4.11,2.98 4.43,10.06 3.7,11.11 -0.72,1.04 -8.14,-2.17 -12.82,1.7 -4.67,3.86 -7.02,7.16 -7.02,7.16 z" />
    <path
       id="path3263"
       style="fill:#000000;fill-opacity:0.31373;fill-rule:evenodd"
       d="m -69.56426,316.01423 c 0.09,0.93 -0.04,1.7 -0.29,2 -0.71,0.85 -7.82,0.02 -12.38,3.55 -4.55,3.53 -6.85,6.23 -6.85,6.23 l -3.64,-3.06 c -0.14,0.35 -0.29,0.69 -0.4,1.03 l 4.59,6.52 c 0,0 2.35,-3.31 7.02,-7.18 4.68,-3.86 12.1,-0.65 12.82,-1.7 0.5,-0.71 0.5,-4.27 -0.87,-7.39 z" />
    <path
       id="path3201"
       style="fill:url(#linearGradient2009);stroke:#000000;stroke-width:4;stroke-linecap:round;stroke-linejoin:round"
       d="m -89.92426,325.81423 c -13.69,-13.56 -36.38,-17.06 -52.34,-6.89 -3.61,1.99 -2.52,6.98 -2.48,6.9 6.03,-4.77 12.28,0.48 20.49,6.37 10.05,7.21 21.1,18.27 29.21,29.02 5.68,7.52 9.74,14.91 6.49,20.08 0.17,0.05 4.89,1.38 7.05,-3.02 10.88,-20.51 4.73,-40.21 -8.42,-52.46 z" />
    <path
       id="path3269"
       style="fill:#000000;fill-opacity:0.31373"
       d="m -91.00426,324.30423 c 4.34,11.26 3.77,21.91 -1.74,32.19 -1.25,2.34 -3.17,1.58 -4.78,1.55 0.85,1.05 1.68,2.12 2.48,3.17 5.67,7.53 9.74,14.92 6.49,20.08 0.17,0.05 4.89,1.39 7.05,-3.01 9.96,-18.8 5.59,-39.25 -9.5,-53.98 z" />
    <path
       id="path3159"
       style="fill:url(#linearGradient2069);stroke:#000000;stroke-width:4.00001;stroke-linecap:round;stroke-linejoin:round"
       d="m -147.2184,345.81633 a 30.883758,30.85647 59.871655 1 1 -53.4449,30.8566 30.883758,30.85647 59.871655 1 1 53.4449,-30.8566 z" />
    <path
       id="path3244"
       style="fill:#000000;fill-opacity:0.31373;stroke-width:0.62866"
       d="m -22.231925,368.00522 a 30.8566,30.884099 0 1 1 -61.7132,0 30.8566,30.884099 0 1 1 61.7132,0 z" />
    <path
       id="path3161"
       style="fill:url(#linearGradient2069);stroke:#000000;stroke-width:3.99999;stroke-linecap:round;stroke-linejoin:round"
       d="m -36.256692,383.06261 a 30.856478,30.883561 45 1 1 -43.637649,-43.63765 30.856478,30.883561 45 1 1 43.637649,43.63765 z" />
    <path
       id="path3163"
       style="fill:url(#linearGradient2069);stroke:#000000;stroke-width:4;stroke-linecap:round;stroke-linejoin:round"
       d="m -41.92426,459.45423 c -40.83,0 -73.98,33.18 -73.98,74.04 0,8.45 1.42,16.55 4.03,24.11 h 139.86 c 2.61,-7.56 4.03,-15.66 4.03,-24.11 0,-40.86 -33.11,-74.04 -73.94,-74.04 z" />
    <path
       id="path3165"
       style="fill:url(#linearGradient2069);stroke:#000000;stroke-width:4;stroke-linecap:round;stroke-linejoin:round"
       d="m -189.88426,459.45423 c -40.83,0 -73.94,33.18 -73.94,74.04 0,8.45 1.42,16.55 4.03,24.11 h 139.86 c 2.61,-7.56 4.03,-15.66 4.03,-24.11 0,-40.86 -33.15,-74.04 -73.98,-74.04 z" />
    <path
       id="path3177"
       style="fill:#ffffff;stroke:#000000;stroke-width:4.00002;stroke-linecap:round;stroke-linejoin:round"
       d="m -123.49781,195.06634 a 27.480228,27.504785 0 1 1 -54.96045,0 27.480228,27.504785 0 1 1 54.96045,0 z" />
    <path
       id="path3179"
       style="fill:#ffffff;stroke:#000000;stroke-width:4.00002;stroke-linecap:round;stroke-linejoin:round"
       d="m -62.63781,195.06634 a 27.480228,27.504785 0 1 1 -54.96045,0 27.480228,27.504785 0 1 1 54.96045,0 z" />
    <path
       id="path3181"
       style="fill:#000000;stroke-width:1.3434"
       d="m -132.01124,198.40815 a 8.875908,8.88384 0 1 1 -17.75181,0 8.875908,8.88384 0 1 1 17.75181,0 z" />
    <path
       id="path3183"
       style="fill:#000000;stroke-width:1.3434"
       d="m -91.411236,198.40815 a 8.875908,8.88384 0 1 1 -17.751814,0 8.875908,8.88384 0 1 1 17.751814,0 z" />
    <path
       id="path3192"
       style="fill:#000000;fill-rule:evenodd"
       d="m -134.75426,247.83423 c 4.48,-4.79 23.51,-5.83 27.49,0.59 3.98,6.43 -5.97,19.75 -13.75,19.15 -7.74,-0.6 -17.94,-15.27 -13.74,-19.74 z" />
    <path
       id="path3216"
       style="fill:#74401b;fill-opacity:1;fill-rule:evenodd;stroke:#000000;stroke-width:4;stroke-linejoin:round"
       d="m -184.80426,150.19423 c -2.95,-42.72 -46.91,-52.45 -49.03,-47.38 -2.11,5.08 8.03,62.19 49.03,47.38 z" />
    <path
       id="path3218"
       style="fill:url(#linearGradient2009);fill-opacity:1;fill-rule:evenodd;stroke:#000000;stroke-width:4;stroke-linejoin:round"
       d="m -59.52426,150.19423 c 2.95,-42.72 46.91,-52.45 49.03,-47.38 2.11,5.08 -8.04,62.19 -49.03,47.38 z" />
    <path
       id="path3220"
       style="fill:url(#linearGradient2009);stroke:#000000;stroke-width:3.67216;stroke-linecap:round;stroke-linejoin:round"
       d="m -196.43706,536.23407 a 19.8065,23.52 0 1 1 -39.613,0 19.8065,23.52 0 1 1 39.613,0 z" />
    <path
       id="path3224"
       style="fill:url(#linearGradient2009);stroke:#000000;stroke-width:3.67216;stroke-linecap:round;stroke-linejoin:round"
       d="m -146.75706,536.23407 a 19.8065,23.52 0 1 1 -39.613,0 19.8065,23.52 0 1 1 39.613,0 z" />
    <path
       id="path3222"
       style="fill:url(#linearGradient2009);stroke:#000000;stroke-width:3.67216;stroke-linecap:round;stroke-linejoin:round"
       d="m -170.25706,536.23407 a 19.8065,23.52 0 1 1 -39.613,0 19.8065,23.52 0 1 1 39.613,0 z" />
    <path
       id="path3226"
       style="fill:url(#linearGradient2009);stroke:#000000;stroke-width:3.67216;stroke-linecap:round;stroke-linejoin:round"
       d="m -44.02806,536.23407 a 19.8065,23.52 0 1 1 -39.613,0 19.8065,23.52 0 1 1 39.613,0 z" />
    <path
       id="path3228"
       style="fill:url(#linearGradient2009);stroke:#000000;stroke-width:3.67216;stroke-linecap:round;stroke-linejoin:round"
       d="m 5.65694,536.23407 a 19.8065,23.52 0 1 1 -39.613,0 19.8065,23.52 0 1 1 39.613,0 z" />
    <path
       id="path3230"
       style="fill:url(#linearGradient2009);stroke:#000000;stroke-width:3.67216;stroke-linecap:round;stroke-linejoin:round"
       d="m -17.84306,536.23407 a 19.8065,23.52 0 1 1 -39.613,0 19.8065,23.52 0 1 1 39.613,0 z" />
    <path
       id="path3246"
       style="fill:#000000;fill-opacity:0.31373"
       d="m -43.05426,169.22423 c 1.53,6.34 2.35,12.98 2.35,19.78 0,46.47 -37.71,100.3 -84.14,100.3 -33.84,0 -62.99,-28.61 -76.33,-62.12 10.33,38.69 42.51,74.97 80.61,74.97 46.43,0 84.14,-53.87 84.14,-100.34 0,-11.56 -2.36,-22.56 -6.59,-32.59 z" />
    <path
       id="path3264"
       style="fill:url(#linearGradient2009);stroke:#000000;stroke-width:3.67228;stroke-linecap:round;stroke-linejoin:round"
       d="m -164.22597,368.64458 a 12.093522,10.621423 30.170207 1 1 -10.61445,18.4009 12.093522,10.621423 30.170207 1 1 10.61445,-18.4009 z" />
    <path
       id="path3266"
       style="fill:url(#linearGradient2009);stroke:#000000;stroke-width:3.67228;stroke-linecap:round;stroke-linejoin:round"
       d="m -150.91597,345.56458 a 12.093522,10.621423 30.170207 1 1 -10.61445,18.4009 12.093522,10.621423 30.170207 1 1 10.61445,-18.4009 z" />
    <path
       id="path3268"
       style="fill:url(#linearGradient2009);stroke:#000000;stroke-width:3.67228;stroke-linecap:round;stroke-linejoin:round"
       d="m -151.85597,360.37458 a 12.093522,10.621423 30.170207 1 1 -10.61445,18.4009 12.093522,10.621423 30.170207 1 1 10.61445,-18.4009 z" />
    <path
       id="path3270"
       style="fill:url(#linearGradient2009);stroke:#000000;stroke-width:3.67228;stroke-linecap:round;stroke-linejoin:round"
       d="m -68.548938,366.71051 a 10.621436,12.093514 74.826868 1 0 5.4901,20.5212 10.621436,12.093514 74.826868 1 0 -5.4901,-20.5212 z" />
    <path
       id="path3272"
       style="fill:url(#linearGradient2009);stroke:#000000;stroke-width:3.67228;stroke-linecap:round;stroke-linejoin:round"
       d="m -75.428938,340.97051 a 10.621436,12.093514 74.826868 1 0 5.4901,20.5212 10.621436,12.093514 74.826868 1 0 -5.4901,-20.5212 z" />
    <path
       id="path3274"
       style="fill:url(#linearGradient2009);stroke:#000000;stroke-width:3.67228;stroke-linecap:round;stroke-linejoin:round"
       d="m -78.348938,355.52051 a 10.621436,12.093514 74.826868 1 0 5.4901,20.5212 10.621436,12.093514 74.826868 1 0 -5.4901,-20.5212 z" />
  </g>
  <path
     id="path3619-1"
     style="fill:#000000;fill-opacity:0.31373;stroke-width:0.6"
     d="m 95.060644,488.32922 c -8.364,-8.37 -23.25,-8.796 -32.106,-0.93 -6.234,5.466 -8.718,13.86 -9.534,21.81 -0.576,5.73 -0.234,11.88 2.706,16.986 2.952,3.792 8.094,4.59 12.606,4.818 8.994,0.402 18.498,-1.77 25.686,-7.464 8.663996,-7.434 10.685996,-21.276 4.326,-30.762 -1.038,-1.62 -2.292,-3.114 -3.684,-4.458 z" />
  <path
     id="path2383-5"
     style="fill:#dc9a6a;fill-opacity:1;stroke:#000000;stroke-width:2.4;stroke-linecap:round;stroke-linejoin:round"
     d="m 92.060644,482.32922 c -8.364,-8.37 -23.25,-8.796 -32.106,-0.93 -6.234,5.466 -8.718,13.86 -9.534,21.81 -0.576,5.73 -0.234,11.88 2.706,16.986 2.952,3.792 8.094,4.59 12.606,4.818 8.994,0.402 18.498,-1.77 25.686,-7.464 8.663996,-7.434 10.685996,-21.276 4.326,-30.762 -1.038,-1.62 -2.292,-3.114 -3.684,-4.458 z" />
  <path
     id="path3250-8"
     style="fill:#000000;fill-opacity:0.31373;stroke-width:0.6"
     d="m 73.196644,475.86722 c 1.782,0.426 3.51,1.08 5.124,1.992 1.566,0.846 3.048,1.86001 4.374,3.04201 7.998,6.84 9.648,19.62 3.81,28.356 -4.974,6.834 -12.876,11.112 -20.958,12.984 -3.276,0.738 -7.008,1.248 -10.2,0.036 2.952,2.028 6.858,2.562 10.38,2.736 8.994,0.402 18.498,-1.77 25.692,-7.464 8.663996,-7.434 10.685996,-21.276 4.326,-30.762 -1.038,-1.626 -2.292,-3.114 -3.684,-4.464 -4.89,-4.896 -12.018,-7.068 -18.864,-6.456 z" />
  <path
     id="path3239-4"
     style="fill:url(#linearGradient2009);fill-rule:evenodd;stroke:#000000;stroke-width:2.4"
     d="m 92.282644,480.22322 c 1.65,-5.124 9.971996,-9.858 12.437996,-8.076 2.466,1.788 2.658,6.036 2.22,6.666 -0.432,0.624 -4.884,-1.302 -7.691996,1.02 -2.802,2.316 -4.212,4.296 -4.212,4.296 z" />
  <path
     id="path3263-2"
     style="fill:#000000;fill-opacity:0.31373;fill-rule:evenodd;stroke-width:0.6"
     d="m 106.41864,474.37322 c 0.054,0.558 -0.024,1.02 -0.174,1.2 -0.426,0.51 -4.692,0.012 -7.427996,2.13 -2.73,2.118 -4.11,3.738 -4.11,3.738 l -2.184,-1.836 c -0.084,0.21 -0.174,0.41401 -0.24,0.618 l 2.754,3.912 c 0,0 1.41,-1.986 4.212,-4.308 2.807996,-2.316 7.259996,-0.39 7.691996,-1.02 0.3,-0.426 0.3,-2.562 -0.522,-4.434 z" />
  <path
     id="path3201-8"
     style="fill:url(#linearGradient2009);stroke:#000000;stroke-width:2.4;stroke-linecap:round;stroke-linejoin:round"
     d="m 94.202644,480.25323 c -8.214,-8.136 -21.828,-10.236 -31.404,-4.134 -2.166,1.194 -1.512,4.188 -1.488,4.13999 3.618,-2.86199 7.368,0.28801 12.294,3.822 6.03,4.32601 12.66,10.962 17.526,17.412 3.408,4.512 5.844,8.946 3.894,12.04801 0.102,0.03 2.934,0.828 4.23,-1.812 6.527996,-12.306 2.837996,-24.126 -5.052,-31.476 z" />
  <path
     id="path3269-5"
     style="fill:#000000;fill-opacity:0.31373;stroke-width:0.6"
     d="m 93.554644,479.34723 c 2.604,6.756 2.262,13.14599 -1.044,19.31399 -0.75,1.404 -1.902,0.948 -2.868,0.93 0.51,0.63 1.008,1.272 1.488,1.902 3.402,4.518 5.844,8.952 3.894,12.048 0.102,0.03 2.934,0.834 4.23,-1.806 5.975996,-11.28 3.353996,-23.55 -5.7,-32.38799 z" />
</svg>
