<svg width="648" height="636" viewBox="0 0 648 636" fill="none" xmlns="http://www.w3.org/2000/svg">
<path d="M378.83 135.466H171.366C170.347 135.465 169.371 135.059 168.65 134.339C167.93 133.619 167.525 132.642 167.524 131.624V80.158C167.525 79.1394 167.93 78.1628 168.65 77.4426C169.371 76.7223 170.347 76.3171 171.366 76.3159H378.83C379.848 76.3171 380.825 76.7223 381.545 77.4426C382.265 78.1628 382.671 79.1394 382.672 80.158V131.624C382.671 132.642 382.265 133.619 381.545 134.339C380.825 135.059 379.848 135.465 378.83 135.466V135.466ZM171.366 77.8527C170.755 77.8534 170.169 78.0965 169.736 78.5287C169.304 78.9609 169.061 79.5468 169.061 80.158V131.624C169.061 132.235 169.304 132.821 169.736 133.253C170.169 133.685 170.755 133.928 171.366 133.929H378.83C379.441 133.928 380.027 133.685 380.459 133.253C380.891 132.821 381.134 132.235 381.135 131.624V80.158C381.134 79.5468 380.891 78.9609 380.459 78.5287C380.027 78.0965 379.441 77.8534 378.83 77.8528L171.366 77.8527Z" fill="#3F3D56"/>
<path d="M203.601 119.567C212.245 119.567 219.251 112.56 219.251 103.916C219.251 95.2727 212.245 88.2656 203.601 88.2656C194.958 88.2656 187.951 95.2727 187.951 103.916C187.951 112.56 194.958 119.567 203.601 119.567Z" fill="#2FA4DA"/>
<path d="M239.745 93.4824C239.054 93.4824 238.39 93.7572 237.901 94.2464C237.412 94.7356 237.137 95.3991 237.137 96.0909C237.137 96.7827 237.412 97.4462 237.901 97.9353C238.39 98.4245 239.054 98.6993 239.745 98.6993H362.709C363.401 98.6993 364.065 98.4245 364.554 97.9353C365.043 97.4462 365.318 96.7827 365.318 96.0909C365.318 95.3991 365.043 94.7356 364.554 94.2464C364.065 93.7572 363.401 93.4824 362.709 93.4824H239.745Z" fill="#E6E6E6"/>
<path d="M239.745 109.133C239.054 109.133 238.39 109.408 237.901 109.897C237.412 110.386 237.137 111.05 237.137 111.742C237.137 112.434 237.412 113.097 237.901 113.586C238.39 114.075 239.054 114.35 239.745 114.35H292.657C293 114.351 293.34 114.284 293.657 114.153C293.974 114.022 294.262 113.83 294.505 113.588C294.747 113.346 294.94 113.058 295.071 112.741C295.203 112.424 295.27 112.085 295.27 111.742C295.27 111.399 295.203 111.059 295.071 110.742C294.94 110.426 294.747 110.138 294.505 109.896C294.262 109.653 293.974 109.461 293.657 109.33C293.34 109.2 293 109.133 292.657 109.133H239.745Z" fill="#E6E6E6"/>
<path d="M518.761 428.917H426.555C425.536 428.916 424.56 428.511 423.84 427.79C423.119 427.07 422.714 426.094 422.713 425.075V329.041C422.714 328.022 423.119 327.046 423.84 326.325C424.56 325.605 425.536 325.2 426.555 325.199H518.761C519.78 325.2 520.757 325.605 521.477 326.325C522.197 327.046 522.602 328.022 522.603 329.041V425.075C522.602 426.094 522.197 427.07 521.477 427.79C520.757 428.511 519.78 428.916 518.761 428.917ZM426.555 326.736C425.944 326.736 425.358 326.979 424.926 327.412C424.494 327.844 424.25 328.43 424.25 329.041V425.075C424.25 425.686 424.494 426.272 424.926 426.704C425.358 427.136 425.944 427.38 426.555 427.38H518.761C519.373 427.38 519.959 427.136 520.391 426.704C520.823 426.272 521.066 425.686 521.067 425.075V329.041C521.066 328.43 520.823 327.844 520.391 327.412C519.959 326.979 519.373 326.736 518.761 326.736H426.555Z" fill="#3F3D56"/>
<path d="M446.202 345.003C445.511 345.003 444.847 345.278 444.358 345.767C443.869 346.256 443.594 346.92 443.594 347.611C443.594 348.303 443.869 348.967 444.358 349.456C444.847 349.945 445.511 350.22 446.202 350.22H499.114C499.806 350.22 500.469 349.945 500.958 349.456C501.448 348.967 501.722 348.303 501.722 347.611C501.722 346.92 501.448 346.256 500.958 345.767C500.469 345.278 499.806 345.003 499.114 345.003H446.202Z" fill="#E6E6E6"/>
<path d="M446.202 360.371C445.859 360.37 445.52 360.437 445.203 360.568C444.886 360.699 444.598 360.891 444.355 361.133C444.112 361.376 443.92 361.663 443.788 361.98C443.657 362.297 443.589 362.637 443.589 362.98C443.589 363.322 443.657 363.662 443.788 363.979C443.92 364.296 444.112 364.583 444.355 364.826C444.598 365.068 444.886 365.26 445.203 365.391C445.52 365.522 445.859 365.589 446.202 365.588H499.114C499.806 365.588 500.469 365.313 500.958 364.824C501.448 364.335 501.722 363.671 501.722 362.98C501.722 362.288 501.448 361.624 500.958 361.135C500.469 360.646 499.806 360.371 499.114 360.371H446.202Z" fill="#E6E6E6"/>
<path d="M472.658 409.113C469.411 409.113 466.237 408.15 463.537 406.346C460.837 404.542 458.733 401.977 457.49 398.977C456.247 395.977 455.922 392.676 456.556 389.491C457.189 386.306 458.753 383.38 461.049 381.084C463.345 378.788 466.271 377.224 469.455 376.59C472.64 375.957 475.941 376.282 478.941 377.525C481.941 378.767 484.506 380.872 486.31 383.572C488.114 386.272 489.077 389.447 489.077 392.694C489.072 397.047 487.34 401.22 484.262 404.299C481.184 407.377 477.011 409.108 472.658 409.113V409.113Z" fill="#2FA4DA"/>
<path d="M439.811 0H532.018C533.036 0.00119609 534.013 0.406372 534.733 1.12665C535.453 1.84693 535.858 2.82349 535.859 3.84212V99.8762C535.858 100.895 535.453 101.871 534.733 102.592C534.013 103.312 533.036 103.717 532.018 103.718H439.811C438.792 103.717 437.816 103.312 437.096 102.592C436.375 101.871 435.97 100.895 435.969 99.8762V3.84212C435.97 2.82349 436.375 1.84693 437.096 1.12665C437.816 0.406372 438.792 0.00119609 439.811 0V0ZM532.018 102.181C532.629 102.181 533.215 101.938 533.647 101.506C534.079 101.073 534.322 100.487 534.323 99.8762V3.84212C534.322 3.23093 534.079 2.64496 533.647 2.21278C533.215 1.7806 532.629 1.53751 532.018 1.53684H439.811C439.2 1.53751 438.614 1.7806 438.182 2.21278C437.75 2.64496 437.507 3.23093 437.506 3.84212V99.8762C437.507 100.487 437.75 101.073 438.182 101.506C438.614 101.938 439.2 102.181 439.811 102.181H532.018Z" fill="#3F3D56"/>
<path d="M512.37 83.9142C513.062 83.9142 513.725 83.6394 514.215 83.1502C514.704 82.661 514.979 81.9975 514.979 81.3057C514.979 80.6139 514.704 79.9504 514.215 79.4613C513.725 78.9721 513.062 78.6973 512.37 78.6973H459.458C458.767 78.6973 458.103 78.9721 457.614 79.4613C457.125 79.9504 456.85 80.6139 456.85 81.3057C456.85 81.9975 457.125 82.661 457.614 83.1502C458.103 83.6394 458.767 83.9142 459.458 83.9142H512.37Z" fill="#E6E6E6"/>
<path d="M512.37 68.546C513.062 68.546 513.725 68.2712 514.215 67.782C514.704 67.2928 514.979 66.6294 514.979 65.9376C514.979 65.2458 514.704 64.5823 514.215 64.0931C513.725 63.6039 513.062 63.3291 512.37 63.3291H459.458C458.767 63.3291 458.103 63.6039 457.614 64.0931C457.125 64.5823 456.85 65.2458 456.85 65.9376C456.85 66.6294 457.125 67.2928 457.614 67.782C458.103 68.2712 458.767 68.546 459.458 68.546H512.37Z" fill="#E6E6E6"/>
<path d="M485.914 19.804C489.161 19.804 492.336 20.7669 495.036 22.5711C497.736 24.3752 499.84 26.9395 501.083 29.9397C502.325 32.9399 502.65 36.2412 502.017 39.4262C501.383 42.6112 499.82 45.5368 497.524 47.833C495.227 50.1293 492.302 51.693 489.117 52.3265C485.932 52.9601 482.631 52.6349 479.631 51.3922C476.631 50.1495 474.067 48.045 472.263 45.3449C470.459 42.6448 469.496 39.4704 469.496 36.223C469.501 31.8699 471.232 27.6965 474.31 24.6184C477.388 21.5403 481.561 19.8089 485.914 19.804Z" fill="#2FA4DA"/>
<path d="M168.709 198.68C185.025 186.042 204.088 177.424 224.354 173.523C244.782 169.631 265.846 170.713 285.767 176.679C295.781 179.661 305.402 183.83 314.426 189.098C323.62 194.473 331.928 201.089 339.921 208.095C348.019 215.192 355.85 222.605 364.303 229.287C388.437 248.578 418.397 259.118 449.293 259.186C451.845 259.19 454.396 259.12 456.945 258.975C458.326 258.899 458.335 256.739 456.945 256.816C425.451 258.55 394.352 249.152 369.089 230.267C360.327 223.715 352.328 216.224 344.161 208.964C336.243 201.927 328.113 195.08 319.13 189.426C297.157 175.583 271.595 168.516 245.633 169.108C219.67 169.7 194.456 177.924 173.137 192.754C171.11 194.163 169.13 195.637 167.182 197.153C166.087 198.006 167.624 199.524 168.709 198.68V198.68Z" fill="#3F3D56"/>
<path d="M167.562 209.116C173.759 209.116 178.783 204.092 178.783 197.895C178.783 191.698 173.759 186.674 167.562 186.674C161.365 186.674 156.342 191.698 156.342 197.895C156.342 204.092 161.365 209.116 167.562 209.116Z" fill="#3F3D56"/>
<path d="M334.228 492.1C328.031 492.1 323.008 487.076 323.008 480.879C323.008 474.682 328.031 469.658 334.228 469.658C340.425 469.658 345.448 474.682 345.448 480.879C345.448 487.076 340.425 492.1 334.228 492.1Z" fill="#3F3D56"/>
<path d="M643.765 282.959H460.682C459.664 282.958 458.687 282.553 457.967 281.833C457.247 281.112 456.841 280.136 456.84 279.117V183.851C456.841 182.833 457.247 181.856 457.967 181.136C458.687 180.416 459.664 180.01 460.682 180.009H643.765C644.784 180.01 645.76 180.416 646.48 181.136C647.201 181.856 647.606 182.833 647.607 183.851V279.117C647.606 280.136 647.201 281.112 646.48 281.833C645.76 282.553 644.784 282.958 643.765 282.959ZM460.682 181.546C460.071 181.547 459.485 181.79 459.053 182.222C458.621 182.654 458.378 183.24 458.377 183.851V279.117C458.378 279.728 458.621 280.314 459.053 280.746C459.485 281.179 460.071 281.422 460.682 281.422H643.765C644.376 281.422 644.962 281.179 645.394 280.746C645.827 280.314 646.07 279.728 646.07 279.117V183.851C646.07 183.24 645.827 182.654 645.394 182.222C644.962 181.79 644.376 181.547 643.765 181.546H460.682Z" fill="#3F3D56"/>
<path d="M491.381 229.407C500.024 229.407 507.031 222.4 507.031 213.757C507.031 205.113 500.024 198.106 491.381 198.106C482.738 198.106 475.731 205.113 475.731 213.757C475.731 222.4 482.738 229.407 491.381 229.407Z" fill="#2FA4DA"/>
<path d="M527.525 203.323C527.182 203.322 526.842 203.389 526.525 203.52C526.208 203.651 525.92 203.843 525.678 204.085C525.435 204.327 525.242 204.615 525.111 204.932C524.98 205.249 524.912 205.588 524.912 205.931C524.912 206.274 524.98 206.614 525.111 206.931C525.242 207.247 525.435 207.535 525.678 207.777C525.92 208.02 526.208 208.212 526.525 208.342C526.842 208.473 527.182 208.54 527.525 208.54H626.108C626.8 208.54 627.463 208.265 627.952 207.776C628.441 207.287 628.716 206.623 628.716 205.931C628.716 205.239 628.441 204.576 627.952 204.087C627.463 203.598 626.8 203.323 626.108 203.323H527.525Z" fill="#E6E6E6"/>
<path d="M527.525 218.974C527.182 218.973 526.842 219.04 526.525 219.171C526.208 219.302 525.92 219.494 525.678 219.736C525.435 219.978 525.242 220.266 525.111 220.583C524.98 220.9 524.912 221.239 524.912 221.582C524.912 221.925 524.98 222.265 525.111 222.581C525.242 222.898 525.435 223.186 525.678 223.428C525.92 223.671 526.208 223.863 526.525 223.993C526.842 224.124 527.182 224.191 527.525 224.191H580.437C581.129 224.191 581.792 223.916 582.281 223.427C582.77 222.937 583.045 222.274 583.045 221.582C583.045 220.89 582.77 220.227 582.281 219.738C581.792 219.248 581.129 218.974 580.437 218.974H527.525Z" fill="#E6E6E6"/>
<path d="M479.377 243.995C477.393 243.995 475.778 245.165 475.778 246.603C475.778 248.041 477.393 249.212 479.377 249.212H624.648C626.632 249.212 628.247 248.041 628.247 246.603C628.247 245.165 626.632 243.995 624.648 243.995H479.377Z" fill="#E6E6E6"/>
<path d="M479.377 259.646C477.393 259.646 475.778 260.816 475.778 262.254C475.778 263.692 477.393 264.862 479.377 264.862H624.648C626.632 264.862 628.247 263.692 628.247 262.254C628.247 260.816 626.632 259.646 624.648 259.646H479.377Z" fill="#E6E6E6"/>
<path d="M473.247 491.326C462.918 486.845 451.386 490.751 441.651 494.881C436.637 497.008 431.676 499.279 426.488 500.958C422.122 502.367 417.652 503.427 413.118 504.127C404.021 505.52 394.769 505.577 385.655 504.295C376.495 503.017 367.568 500.421 359.152 496.588C350.782 492.794 343.046 487.736 336.214 481.59C335.345 480.805 334.492 480.002 333.657 479.181C332.663 478.207 334.19 476.68 335.184 477.654C341.763 484.067 349.315 489.399 357.56 493.451C365.772 497.489 374.531 500.303 383.558 501.803C392.615 503.331 401.85 503.49 410.954 502.276C415.496 501.662 419.981 500.687 424.368 499.36C429.406 497.721 434.349 495.802 439.173 493.61C448.999 489.39 459.917 485.257 470.714 488.168C471.951 488.51 473.162 488.942 474.337 489.461C475.608 490.013 474.51 491.874 473.247 491.326V491.326Z" fill="#3F3D56"/>
<path d="M477.238 517.808H563.735L543.379 482.548C543.015 481.916 542.49 481.391 541.858 481.026C541.226 480.661 540.509 480.469 539.78 480.469C539.05 480.469 538.333 480.661 537.701 481.026C537.069 481.391 536.544 481.916 536.18 482.548L527.484 497.61L512.698 471.999C512.241 471.208 511.584 470.551 510.793 470.094C510.002 469.637 509.105 469.397 508.191 469.397C507.277 469.397 506.38 469.637 505.589 470.094C504.798 470.551 504.141 471.208 503.684 471.999L477.238 517.808Z" fill="#2FA4DA"/>
<path d="M477.156 517.798H569.363C570.381 517.797 571.358 517.392 572.078 516.672C572.798 515.951 573.203 514.975 573.204 513.956V462.491C573.203 461.472 572.798 460.495 572.078 459.775C571.358 459.055 570.381 458.65 569.363 458.648H477.156C476.138 458.65 475.161 459.055 474.441 459.775C473.721 460.495 473.315 461.472 473.314 462.491V513.956C473.315 514.975 473.721 515.951 474.441 516.672C475.161 517.392 476.138 517.797 477.156 517.798ZM569.363 460.185C569.974 460.186 570.56 460.429 570.992 460.861C571.424 461.293 571.667 461.879 571.668 462.491V513.956C571.667 514.567 571.424 515.153 570.992 515.585C570.56 516.018 569.974 516.261 569.363 516.261H477.156C476.545 516.261 475.959 516.018 475.527 515.585C475.095 515.153 474.852 514.567 474.851 513.956V462.491C474.852 461.879 475.095 461.293 475.527 460.861C475.959 460.429 476.545 460.186 477.156 460.185H569.363Z" fill="#3F3D56"/>
<path d="M295.221 416.235C294.248 471.444 257.19 495.44 256.581 472.13C255.825 442.646 243.127 366.178 193.287 389.628C133.682 417.67 187.414 588.477 170.159 588.477C101.125 588.477 45.0972 511.316 45.0972 416.235C45.0972 321.161 101.125 244 170.159 244C239.193 244 296.873 322.372 295.221 416.235V416.235Z" fill="url(#paint0_linear_11_1419)" stroke="black" stroke-width="2.8" stroke-linecap="round" stroke-linejoin="round"/>
<path d="M261.446 298.082C277.455 327.055 285.4 363.385 286.114 401.528C286.779 436.766 277.182 470.044 259.388 479.473C267.697 482.133 294.248 471.437 295.214 416.228C296.019 370.861 282.95 329.113 261.446 298.082ZM201.176 370.532C196.059 370.63 190.41 372.002 184.18 374.928C124.575 402.97 178.314 573.777 161.059 573.777C125.506 573.777 93.4042 553.309 70.6262 520.465C93.4812 561.779 129.566 588.477 170.159 588.477C187.414 588.477 133.675 417.67 193.28 389.628C211.76 380.941 225.137 385.981 234.692 397.265C227.566 381.893 216.856 370.238 201.176 370.532V370.532Z" fill="black" fill-opacity="0.31373"/>
<path d="M230.41 515.19C230.41 545.506 218.378 574.581 196.96 596.017C175.543 617.454 146.494 629.497 116.205 629.497C85.9161 629.497 56.8675 617.454 35.4499 596.017C14.0323 574.581 2 545.506 2 515.19C2 484.874 14.0323 455.799 35.4499 434.363C56.8675 412.926 85.9161 400.883 116.205 400.883C146.494 400.883 175.543 412.926 196.96 434.363C218.378 455.799 230.41 484.874 230.41 515.19V515.19Z" fill="url(#paint1_linear_11_1419)" stroke="black" stroke-width="2.79989" stroke-linecap="round" stroke-linejoin="round"/>
<path d="M116.21 400.898C104.058 400.898 92.3612 402.816 81.3712 406.337C91.2552 404.027 101.678 402.781 112.451 402.781C142.005 402.781 168.955 412.077 189.234 427.33C169.438 410.824 143.972 400.898 116.21 400.898ZM224.367 478.402C225.865 484.506 226.663 490.806 226.663 497.274C226.663 549.438 175.493 591.767 112.451 591.767C59.7342 591.767 15.3402 562.171 2.20824 521.97C5.70824 581.925 55.4362 629.518 116.21 629.518C179.252 629.518 230.422 578.306 230.422 515.208C230.422 502.335 228.294 489.952 224.367 478.402Z" fill="black" fill-opacity="0.31373"/>
<path d="M116.21 400.898C96.7363 400.898 78.3893 405.777 62.3383 414.394C69.9403 440.973 92.1512 465.55 118.387 465.55C143.923 465.55 165.686 442.268 173.841 416.508C156.922 406.589 137.224 400.898 116.21 400.898Z" fill="black" fill-opacity="0.31373"/>
<path fill-rule="evenodd" clip-rule="evenodd" d="M194.463 305.684C180.596 305.684 152.428 313.062 147.5 332.193C147.423 332.34 147.276 332.872 147.115 333.691C138.197 328.238 127.711 325.067 116.504 325.067C104.8 325.067 93.9222 328.525 84.7592 334.419C84.5702 333.222 84.3392 332.382 84.2482 332.193C79.3202 313.062 51.1522 305.705 37.2782 305.698C35.0732 305.698 33.2462 305.887 31.9092 306.237C24.4682 307.273 16.3202 310.248 16.9152 311.872C22.3752 310.941 25.1332 312.005 25.0492 312.887C24.8812 314.539 21.5912 314.98 22.6482 320.937C24.6432 318.046 27.4222 317.052 29.6062 316.59C31.8462 330.653 41.6462 355.202 59.9862 356.476C61.5612 356.588 63.0312 356.581 64.4172 356.553C60.0912 364.757 57.6342 374.102 57.6342 384.021C57.6342 416.55 84.0032 454.245 116.504 454.245C148.998 454.245 175.402 416.55 175.402 384.021C175.402 374.109 172.938 364.785 168.612 356.588C169.613 356.581 170.67 356.553 171.762 356.476C190.039 355.209 199.839 330.8 202.121 316.723C204.207 317.234 206.699 318.284 208.526 320.937C209.583 314.98 206.293 314.539 206.125 312.887C206.041 312.005 208.799 310.941 214.259 311.872C214.826 310.332 207.553 307.581 200.455 306.412C199.104 305.936 197.032 305.684 194.463 305.684V305.684Z" fill="url(#paint2_linear_11_1419)" stroke="black" stroke-width="2.8" stroke-linejoin="round"/>
<path d="M138.953 480.243C129.195 470.478 111.828 469.981 101.496 479.158C94.2233 485.535 91.3252 495.328 90.3732 504.603C89.7012 511.288 90.1002 518.463 93.5302 524.42C96.9742 528.844 102.973 529.775 108.237 530.041C118.73 530.51 129.818 527.976 138.204 521.333C148.312 512.66 150.671 496.511 143.251 485.444C142.04 483.554 140.577 481.811 138.953 480.243V480.243Z" fill="black" fill-opacity="0.31373"/>
<path d="M104.306 500.019C104.306 505.752 102.031 511.251 97.9799 515.306C93.9292 519.36 88.4352 521.638 82.7066 521.638C76.978 521.638 71.4841 519.36 67.4334 515.306C63.3827 511.251 61.107 505.752 61.107 500.019C61.107 494.285 63.3827 488.786 67.4334 484.732C71.4841 480.678 76.978 478.4 82.7066 478.4C88.4352 478.4 93.9292 480.678 97.9799 484.732C102.031 488.786 104.306 494.285 104.306 500.019V500.019Z" fill="black" fill-opacity="0.31373"/>
<path d="M135.453 473.243C125.695 463.478 108.328 462.981 97.9963 472.158C90.7233 478.535 87.8252 488.328 86.8732 497.603C86.2012 504.288 86.6002 511.463 90.0302 517.42C93.4742 521.844 99.4732 522.775 104.737 523.041C115.23 523.51 126.318 520.976 134.704 514.333C144.812 505.66 147.171 489.511 139.751 478.444C138.54 476.554 137.077 474.811 135.453 473.243Z" fill="#DC9A6A" stroke="black" stroke-width="2.8" stroke-linecap="round" stroke-linejoin="round"/>
<path d="M113.445 465.704C115.524 466.201 117.54 466.964 119.423 468.028C121.25 469.015 122.979 470.198 124.526 471.577C133.857 479.557 135.782 494.467 128.971 504.659C123.168 512.632 113.949 517.623 104.52 519.807C100.698 520.668 96.3442 521.263 92.6202 519.849C96.0642 522.215 100.621 522.838 104.73 523.041C115.223 523.51 126.311 520.976 134.704 514.333C144.812 505.66 147.171 489.511 139.751 478.444C138.54 476.547 137.077 474.811 135.453 473.236C129.748 467.524 121.432 464.99 113.445 465.704V465.704Z" fill="black" fill-opacity="0.31373"/>
<path fill-rule="evenodd" clip-rule="evenodd" d="M135.712 470.786C137.637 464.808 147.346 459.285 150.223 461.364C153.1 463.45 153.324 468.406 152.813 469.141C152.309 469.869 147.115 467.622 143.839 470.331C140.57 473.033 138.925 475.343 138.925 475.343L135.712 470.786Z" fill="url(#paint3_linear_11_1419)" stroke="black" stroke-width="2.8"/>
<path fill-rule="evenodd" clip-rule="evenodd" d="M152.204 463.961C152.267 464.612 152.176 465.151 152.001 465.361C151.504 465.956 146.527 465.375 143.335 467.846C140.15 470.317 138.54 472.207 138.54 472.207L135.992 470.065C135.894 470.31 135.789 470.548 135.712 470.786L138.925 475.35C138.925 475.35 140.57 473.033 143.839 470.324C147.115 467.622 152.309 469.869 152.813 469.134C153.163 468.637 153.163 466.145 152.204 463.961V463.961Z" fill="black" fill-opacity="0.31373"/>
<path d="M137.952 470.821C128.369 461.329 112.486 458.879 101.314 465.998C98.7872 467.391 99.5502 470.884 99.5782 470.828C103.799 467.489 108.174 471.164 113.921 475.287C120.956 480.334 128.691 488.076 134.368 495.601C138.344 500.865 141.186 506.038 138.911 509.657C139.03 509.692 142.334 510.623 143.846 507.543C151.462 493.186 147.157 479.396 137.952 470.821V470.821Z" fill="url(#paint4_linear_11_1419)" stroke="black" stroke-width="2.8" stroke-linecap="round" stroke-linejoin="round"/>
<path d="M137.196 469.764C140.234 477.646 139.835 485.101 135.978 492.297C135.103 493.935 133.759 493.403 132.632 493.382C133.227 494.117 133.808 494.866 134.368 495.601C138.337 500.872 141.186 506.045 138.911 509.657C139.03 509.692 142.334 510.63 143.846 507.55C150.818 494.39 147.759 480.075 137.196 469.764Z" fill="black" fill-opacity="0.31373"/>
<path d="M97.8463 484.822C100.713 489.788 101.492 495.688 100.011 501.224C98.5301 506.761 94.9111 511.48 89.95 514.344C84.989 517.209 79.0922 517.983 73.5571 516.497C68.0219 515.012 63.3017 511.387 60.4349 506.422C57.568 501.457 56.7894 495.557 58.2702 490.02C59.7511 484.484 63.3701 479.764 68.3312 476.9C73.2922 474.036 79.189 473.261 84.7241 474.747C90.2593 476.233 94.9795 479.857 97.8463 484.822V484.822Z" fill="url(#paint5_linear_11_1419)" stroke="black" stroke-width="2.80001" stroke-linecap="round" stroke-linejoin="round"/>
<path d="M185.337 500.355C185.337 506.088 183.061 511.587 179.011 515.642C174.96 519.696 169.466 521.974 163.737 521.974C158.009 521.974 152.515 519.696 148.464 515.642C144.413 511.587 142.138 506.088 142.138 500.355C142.138 494.621 144.413 489.122 148.464 485.068C152.515 481.014 158.009 478.736 163.737 478.736C169.466 478.736 174.96 481.014 179.011 485.068C183.061 489.122 185.337 494.621 185.337 500.355Z" fill="black" fill-opacity="0.31373"/>
<path d="M175.52 510.895C171.465 514.949 165.968 517.228 160.237 517.231C154.506 517.233 149.01 514.959 144.96 510.908C140.909 506.858 138.635 501.362 138.637 495.631C138.64 489.9 140.919 484.403 144.973 480.349C149.027 476.294 154.525 474.015 160.256 474.013C165.987 474.01 171.482 476.284 175.533 480.335C179.584 484.386 181.858 489.881 181.855 495.612C181.853 501.343 179.574 506.841 175.52 510.895V510.895Z" fill="url(#paint6_linear_11_1419)" stroke="black" stroke-width="2.79999" stroke-linecap="round" stroke-linejoin="round"/>
<path d="M171.552 564.369C142.971 564.369 119.766 587.595 119.766 616.197C119.766 622.112 120.76 627.782 122.587 633.074H220.489C222.316 627.782 223.31 622.112 223.31 616.197C223.31 587.595 200.133 564.369 171.552 564.369V564.369Z" fill="url(#paint7_linear_11_1419)" stroke="black" stroke-width="2.8" stroke-linecap="round" stroke-linejoin="round"/>
<path d="M67.9802 564.369C39.3992 564.369 16.2222 587.595 16.2222 616.197C16.2222 622.112 17.2162 627.782 19.0432 633.074H116.945C118.772 627.782 119.766 622.112 119.766 616.197C119.766 587.595 96.5612 564.369 67.9802 564.369V564.369Z" fill="url(#paint8_linear_11_1419)" stroke="black" stroke-width="2.8" stroke-linecap="round" stroke-linejoin="round"/>
<path d="M114.451 379.298C114.452 381.827 113.955 384.331 112.989 386.668C112.023 389.005 110.606 391.129 108.82 392.917C107.033 394.706 104.912 396.125 102.578 397.093C100.244 398.062 97.7415 398.56 95.2146 398.56C92.6877 398.56 90.1856 398.062 87.8512 397.093C85.5168 396.125 83.3958 394.706 81.6094 392.917C79.8231 391.129 78.4063 389.005 77.4402 386.668C76.474 384.331 75.9773 381.827 75.9785 379.298C75.9773 376.768 76.474 374.264 77.4402 371.927C78.4063 369.59 79.8231 367.466 81.6094 365.678C83.3958 363.889 85.5168 362.47 87.8512 361.502C90.1856 360.533 92.6877 360.035 95.2146 360.035C97.7415 360.035 100.244 360.533 102.578 361.502C104.912 362.47 107.033 363.889 108.82 365.678C110.606 367.466 112.023 369.59 112.989 371.927C113.955 374.264 114.452 376.768 114.451 379.298Z" fill="white" stroke="black" stroke-width="2.80001" stroke-linecap="round" stroke-linejoin="round"/>
<path d="M157.053 379.298C157.054 381.827 156.557 384.331 155.591 386.668C154.625 389.005 153.208 391.129 151.422 392.917C149.635 394.706 147.514 396.125 145.18 397.093C142.846 398.062 140.343 398.56 137.817 398.56C135.29 398.56 132.788 398.062 130.453 397.093C128.119 396.125 125.998 394.706 124.211 392.917C122.425 391.129 121.008 389.005 120.042 386.668C119.076 384.331 118.579 381.827 118.58 379.298C118.579 376.768 119.076 374.264 120.042 371.927C121.008 369.59 122.425 367.466 124.211 365.678C125.998 363.889 128.119 362.47 130.453 361.502C132.788 360.533 135.29 360.035 137.817 360.035C140.343 360.035 142.846 360.533 145.18 361.502C147.514 362.47 149.635 363.889 151.422 365.678C153.208 367.466 154.625 369.59 155.591 371.927C156.557 374.264 157.054 376.768 157.053 379.298V379.298Z" fill="white" stroke="black" stroke-width="2.80001" stroke-linecap="round" stroke-linejoin="round"/>
<path d="M108.491 381.637C108.492 382.454 108.332 383.263 108.02 384.018C107.708 384.773 107.25 385.459 106.673 386.037C106.096 386.615 105.411 387.074 104.657 387.387C103.903 387.7 103.095 387.861 102.278 387.861C101.462 387.861 100.653 387.7 99.8993 387.387C99.1452 387.074 98.4601 386.615 97.883 386.037C97.306 385.459 96.8485 384.773 96.5365 384.018C96.2246 383.263 96.0644 382.454 96.0651 381.637C96.0644 380.82 96.2246 380.011 96.5365 379.256C96.8485 378.5 97.306 377.814 97.883 377.236C98.4601 376.658 99.1452 376.2 99.8993 375.887C100.653 375.574 101.462 375.413 102.278 375.413C103.095 375.413 103.903 375.574 104.657 375.887C105.411 376.2 106.096 376.658 106.673 377.236C107.25 377.814 107.708 378.5 108.02 379.256C108.332 380.011 108.492 380.82 108.491 381.637V381.637Z" fill="black"/>
<path d="M136.911 381.637C136.912 382.454 136.752 383.263 136.44 384.018C136.128 384.773 135.67 385.459 135.093 386.037C134.516 386.615 133.831 387.074 133.077 387.387C132.323 387.7 131.515 387.861 130.698 387.861C129.882 387.861 129.073 387.7 128.319 387.387C127.565 387.074 126.88 386.615 126.303 386.037C125.726 385.459 125.268 384.773 124.957 384.018C124.645 383.263 124.484 382.454 124.485 381.637C124.484 380.82 124.645 380.011 124.957 379.256C125.268 378.5 125.726 377.814 126.303 377.236C126.88 376.658 127.565 376.2 128.319 375.887C129.073 375.574 129.882 375.413 130.698 375.413C131.515 375.413 132.323 375.574 133.077 375.887C133.831 376.2 134.516 376.658 135.093 377.236C135.67 377.814 136.128 378.5 136.44 379.256C136.752 380.011 136.912 380.82 136.911 381.637V381.637Z" fill="black"/>
<path fill-rule="evenodd" clip-rule="evenodd" d="M106.571 416.235C109.707 412.882 123.028 412.154 125.814 416.648C128.6 421.149 121.635 430.473 116.189 430.053C110.771 429.633 103.631 419.364 106.571 416.235Z" fill="black"/>
<path fill-rule="evenodd" clip-rule="evenodd" d="M71.5362 347.887C69.4712 317.983 38.6992 311.172 37.2152 314.721C35.7382 318.277 42.8362 358.254 71.5362 347.887Z" fill="#74401B" stroke="black" stroke-width="2.8" stroke-linejoin="round"/>
<path fill-rule="evenodd" clip-rule="evenodd" d="M159.232 347.887C161.297 317.983 192.069 311.172 193.553 314.721C195.03 318.277 187.925 358.254 159.232 347.887Z" fill="url(#paint9_linear_11_1419)" stroke="black" stroke-width="2.8" stroke-linejoin="round"/>
<path d="M63.3933 618.115C63.3933 622.481 61.9325 626.669 59.3324 629.757C56.7323 632.844 53.2058 634.579 49.5287 634.579C45.8516 634.579 42.3251 632.844 39.725 629.757C37.1249 626.669 35.6642 622.481 35.6642 618.115C35.6642 613.748 37.1249 609.561 39.725 606.473C42.3251 603.385 45.8516 601.651 49.5287 601.651C53.2058 601.651 56.7323 603.385 59.3324 606.473C61.9325 609.561 63.3933 613.748 63.3933 618.115V618.115Z" fill="url(#paint10_linear_11_1419)" stroke="black" stroke-width="2.57051" stroke-linecap="round" stroke-linejoin="round"/>
<path d="M98.1693 618.115C98.1693 622.481 96.7086 626.669 94.1085 629.757C91.5084 632.844 87.9819 634.579 84.3047 634.579C80.6276 634.579 77.1011 632.844 74.501 629.757C71.9009 626.669 70.4402 622.481 70.4402 618.115C70.4402 613.748 71.9009 609.561 74.501 606.473C77.1011 603.385 80.6276 601.651 84.3047 601.651C87.9819 601.651 91.5084 603.385 94.1085 606.473C96.7086 609.561 98.1693 613.748 98.1693 618.115Z" fill="url(#paint11_linear_11_1419)" stroke="black" stroke-width="2.57051" stroke-linecap="round" stroke-linejoin="round"/>
<path d="M81.7193 618.115C81.7193 622.481 80.2586 626.669 77.6585 629.757C75.0583 632.844 71.5318 634.579 67.8547 634.579C64.1776 634.579 60.6511 632.844 58.051 629.757C55.4509 626.669 53.9902 622.481 53.9902 618.115C53.9902 613.748 55.4509 609.561 58.051 606.473C60.6511 603.385 64.1776 601.651 67.8547 601.651C71.5318 601.651 75.0583 603.385 77.6585 606.473C80.2586 609.561 81.7193 613.748 81.7193 618.115V618.115Z" fill="url(#paint12_linear_11_1419)" stroke="black" stroke-width="2.57051" stroke-linecap="round" stroke-linejoin="round"/>
<path d="M170.08 618.115C170.08 620.277 169.721 622.418 169.024 624.415C168.327 626.413 167.306 628.228 166.019 629.757C164.731 631.286 163.203 632.498 161.521 633.326C159.839 634.153 158.036 634.579 156.215 634.579C154.394 634.579 152.591 634.153 150.909 633.326C149.227 632.498 147.699 631.286 146.411 629.757C145.124 628.228 144.103 626.413 143.406 624.415C142.709 622.418 142.35 620.277 142.35 618.115C142.35 613.748 143.811 609.561 146.411 606.473C149.011 603.385 152.538 601.651 156.215 601.651C159.892 601.651 163.419 603.385 166.019 606.473C168.619 609.561 170.08 613.748 170.08 618.115V618.115Z" fill="url(#paint13_linear_11_1419)" stroke="black" stroke-width="2.57051" stroke-linecap="round" stroke-linejoin="round"/>
<path d="M204.859 618.115C204.859 620.277 204.5 622.418 203.804 624.415C203.107 626.413 202.086 628.228 200.798 629.757C199.511 631.286 197.982 632.498 196.3 633.326C194.618 634.153 192.815 634.579 190.995 634.579C189.174 634.579 187.371 634.153 185.689 633.326C184.007 632.498 182.478 631.286 181.191 629.757C179.903 628.228 178.882 626.413 178.185 624.415C177.489 622.418 177.13 620.277 177.13 618.115C177.13 613.748 178.591 609.561 181.191 606.473C183.791 603.385 187.317 601.651 190.995 601.651C194.672 601.651 198.198 603.385 200.798 606.473C203.398 609.561 204.859 613.748 204.859 618.115V618.115Z" fill="url(#paint14_linear_11_1419)" stroke="black" stroke-width="2.57051" stroke-linecap="round" stroke-linejoin="round"/>
<path d="M188.409 618.115C188.409 620.277 188.05 622.418 187.354 624.415C186.657 626.413 185.636 628.228 184.348 629.757C183.061 631.286 181.532 632.498 179.85 633.326C178.168 634.153 176.365 634.579 174.545 634.579C172.724 634.579 170.921 634.153 169.239 633.326C167.557 632.498 166.028 631.286 164.741 629.757C163.453 628.228 162.432 626.413 161.735 624.415C161.039 622.418 160.68 620.277 160.68 618.115C160.68 613.748 162.141 609.561 164.741 606.473C167.341 603.385 170.867 601.651 174.545 601.651C178.222 601.651 181.748 603.385 184.348 606.473C186.948 609.561 188.409 613.748 188.409 618.115V618.115Z" fill="url(#paint15_linear_11_1419)" stroke="black" stroke-width="2.57051" stroke-linecap="round" stroke-linejoin="round"/>
<path d="M170.761 361.208C171.832 365.646 172.406 370.294 172.406 375.054C172.406 407.583 146.009 445.264 113.508 445.264C89.8202 445.264 69.4152 425.237 60.0772 401.78C67.3082 428.863 89.8342 454.259 116.504 454.259C149.005 454.259 175.402 416.55 175.402 384.021C175.402 375.929 173.75 368.229 170.789 361.208H170.761Z" fill="black" fill-opacity="0.31373"/>
<path d="M85.941 500.802C86.9036 501.358 87.7606 502.076 88.4631 502.913C89.1657 503.751 89.7001 504.692 90.0357 505.683C90.3714 506.675 90.5017 507.697 90.4194 508.691C90.337 509.685 90.0435 510.632 89.5556 511.478C89.0677 512.324 88.3951 513.052 87.576 513.62C86.7569 514.189 85.8074 514.587 84.7818 514.791C83.7562 514.996 82.6746 515.004 81.5986 514.813C80.5227 514.623 79.4734 514.239 78.5109 513.683C77.5483 513.127 76.6913 512.409 75.9887 511.572C75.2862 510.734 74.7518 509.793 74.4161 508.801C74.0805 507.81 73.9501 506.788 74.0325 505.794C74.1149 504.8 74.4084 503.853 74.8963 503.007C75.3841 502.161 76.0568 501.433 76.8759 500.865C77.695 500.296 78.6444 499.898 79.67 499.693C80.6956 499.489 81.7773 499.481 82.8533 499.672C83.9292 499.862 84.9785 500.246 85.941 500.802V500.802Z" fill="url(#paint16_linear_11_1419)" stroke="black" stroke-width="2.5706" stroke-linecap="round" stroke-linejoin="round"/>
<path d="M95.258 484.646C96.2206 485.203 97.0776 485.92 97.7802 486.758C98.4827 487.595 99.0171 488.536 99.3528 489.528C99.6884 490.519 99.8188 491.541 99.7364 492.535C99.654 493.529 99.3605 494.477 98.8726 495.322C98.3848 496.168 97.7121 496.896 96.893 497.464C96.0739 498.033 95.1245 498.431 94.0989 498.636C93.0733 498.84 91.9916 498.848 90.9156 498.658C89.8397 498.467 88.7904 498.083 87.8279 497.527C86.8653 496.971 86.0083 496.253 85.3058 495.416C84.6032 494.578 84.0688 493.637 83.7332 492.646C83.3975 491.654 83.2672 490.632 83.3495 489.638C83.4319 488.644 83.7254 487.697 84.2133 486.851C84.7012 486.005 85.3738 485.277 86.1929 484.709C87.012 484.14 87.9615 483.742 88.9871 483.538C90.0127 483.333 91.0943 483.326 92.1703 483.516C93.2463 483.706 94.2955 484.09 95.258 484.646V484.646Z" fill="url(#paint17_linear_11_1419)" stroke="black" stroke-width="2.5706" stroke-linecap="round" stroke-linejoin="round"/>
<path d="M94.6 495.013C95.5625 495.569 96.4196 496.287 97.1221 497.124C97.8247 497.962 98.3591 498.903 98.6948 499.894C99.0304 500.886 99.1607 501.908 99.0784 502.902C98.996 503.896 98.7025 504.843 98.2146 505.689C97.7267 506.535 97.0541 507.263 96.235 507.831C95.4159 508.4 94.4665 508.798 93.4409 509.002C92.4153 509.207 91.3336 509.215 90.2576 509.024C89.1816 508.834 88.1324 508.45 87.1699 507.894C86.2073 507.338 85.3503 506.62 84.6477 505.783C83.9452 504.945 83.4108 504.004 83.0751 503.012C82.7395 502.021 82.6091 500.999 82.6915 500.005C82.7739 499.011 83.0674 498.064 83.5553 497.218C84.0432 496.372 84.7158 495.644 85.5349 495.076C86.354 494.507 87.3034 494.109 88.329 493.904C89.3546 493.7 90.4363 493.692 91.5123 493.882C92.5882 494.073 93.6375 494.457 94.6 495.013V495.013Z" fill="url(#paint18_linear_11_1419)" stroke="black" stroke-width="2.5706" stroke-linecap="round" stroke-linejoin="round"/>
<path d="M152.915 499.448C151.841 499.736 150.828 500.208 149.932 500.835C149.037 501.462 148.277 502.233 147.696 503.104C147.116 503.974 146.725 504.928 146.547 505.909C146.37 506.891 146.408 507.882 146.66 508.825C146.913 509.768 147.374 510.645 148.018 511.406C148.662 512.168 149.476 512.798 150.414 513.261C151.351 513.724 152.394 514.011 153.483 514.106C154.571 514.201 155.684 514.101 156.758 513.813C157.832 513.525 158.845 513.054 159.741 512.427C160.636 511.8 161.396 511.029 161.977 510.158C162.557 509.287 162.948 508.334 163.126 507.352C163.303 506.37 163.265 505.38 163.013 504.436C162.76 503.493 162.299 502.616 161.655 501.855C161.011 501.094 160.197 500.464 159.259 500C158.321 499.537 157.279 499.25 156.19 499.155C155.102 499.061 153.989 499.16 152.915 499.448V499.448Z" fill="url(#paint19_linear_11_1419)" stroke="black" stroke-width="2.5706" stroke-linecap="round" stroke-linejoin="round"/>
<path d="M148.099 481.43C147.025 481.718 146.012 482.189 145.116 482.817C144.221 483.444 143.461 484.215 142.88 485.085C142.3 485.956 141.909 486.91 141.731 487.891C141.554 488.873 141.592 489.864 141.844 490.807C142.097 491.75 142.558 492.627 143.202 493.388C143.846 494.15 144.66 494.78 145.598 495.243C146.535 495.706 147.578 495.993 148.667 496.088C149.755 496.183 150.868 496.083 151.942 495.795C153.016 495.507 154.029 495.036 154.925 494.409C155.82 493.781 156.58 493.011 157.161 492.14C157.741 491.269 158.132 490.316 158.31 489.334C158.487 488.352 158.449 487.362 158.197 486.418C157.944 485.475 157.483 484.598 156.839 483.837C156.195 483.076 155.381 482.446 154.443 481.982C153.505 481.519 152.463 481.232 151.374 481.137C150.286 481.043 149.173 481.142 148.099 481.43V481.43Z" fill="url(#paint20_linear_11_1419)" stroke="black" stroke-width="2.5706" stroke-linecap="round" stroke-linejoin="round"/>
<path d="M146.055 491.615C144.981 491.903 143.968 492.375 143.072 493.002C142.177 493.629 141.417 494.4 140.836 495.271C140.256 496.141 139.865 497.095 139.687 498.076C139.51 499.058 139.548 500.049 139.8 500.992C140.053 501.935 140.514 502.812 141.158 503.573C141.802 504.335 142.616 504.965 143.554 505.428C144.491 505.891 145.534 506.178 146.623 506.273C147.711 506.368 148.824 506.268 149.898 505.98C150.972 505.692 151.985 505.221 152.881 504.594C153.776 503.967 154.536 503.196 155.117 502.325C155.697 501.454 156.088 500.501 156.266 499.519C156.443 498.537 156.405 497.547 156.153 496.603C155.9 495.66 155.439 494.783 154.795 494.022C154.151 493.261 153.337 492.631 152.399 492.167C151.461 491.704 150.419 491.417 149.33 491.322C148.242 491.228 147.129 491.327 146.055 491.615V491.615Z" fill="url(#paint21_linear_11_1419)" stroke="black" stroke-width="2.5706" stroke-linecap="round" stroke-linejoin="round"/>
<defs>
<linearGradient id="paint0_linear_11_1419" x1="43.6972" y1="416.239" x2="296.656" y2="416.239" gradientUnits="userSpaceOnUse">
<stop stop-color="#D07839"/>
</linearGradient>
<linearGradient id="paint1_linear_11_1419" x1="0.600673" y1="515.19" x2="231.81" y2="515.19" gradientUnits="userSpaceOnUse">
<stop stop-color="#D07839"/>
</linearGradient>
<linearGradient id="paint2_linear_11_1419" x1="15.4928" y1="379.965" x2="215.681" y2="379.965" gradientUnits="userSpaceOnUse">
<stop stop-color="#D07839"/>
</linearGradient>
<linearGradient id="paint3_linear_11_1419" x1="11.6366" y1="551.062" x2="12.3645" y2="553.445" gradientUnits="userSpaceOnUse">
<stop stop-color="#74401B"/>
</linearGradient>
<linearGradient id="paint4_linear_11_1419" x1="10.8795" y1="545.837" x2="12.9103" y2="552.486" gradientUnits="userSpaceOnUse">
<stop stop-color="#74401B"/>
</linearGradient>
<linearGradient id="paint5_linear_11_1419" x1="440.746" y1="116.785" x2="457.228" y2="121.208" gradientUnits="userSpaceOnUse">
<stop stop-color="#D07839"/>
</linearGradient>
<linearGradient id="paint6_linear_11_1419" x1="471.688" y1="125.065" x2="488.173" y2="129.489" gradientUnits="userSpaceOnUse">
<stop stop-color="#D07839"/>
</linearGradient>
<linearGradient id="paint7_linear_11_1419" x1="455.227" y1="157.651" x2="494.724" y2="168.25" gradientUnits="userSpaceOnUse">
<stop stop-color="#D07839"/>
</linearGradient>
<linearGradient id="paint8_linear_11_1419" x1="415.722" y1="147.082" x2="455.219" y2="157.681" gradientUnits="userSpaceOnUse">
<stop stop-color="#D07839"/>
</linearGradient>
<linearGradient id="paint9_linear_11_1419" x1="-53.5124" y1="574.499" x2="-52.062" y2="579.247" gradientUnits="userSpaceOnUse">
<stop stop-color="#74401B"/>
</linearGradient>
<linearGradient id="paint10_linear_11_1419" x1="71.4397" y1="517.743" x2="72.6052" y2="521.559" gradientUnits="userSpaceOnUse">
<stop stop-color="#74401B"/>
</linearGradient>
<linearGradient id="paint11_linear_11_1419" x1="72.5819" y1="522.626" x2="73.7474" y2="526.442" gradientUnits="userSpaceOnUse">
<stop stop-color="#74401B"/>
</linearGradient>
<linearGradient id="paint12_linear_11_1419" x1="72.0416" y1="520.316" x2="73.2071" y2="524.132" gradientUnits="userSpaceOnUse">
<stop stop-color="#74401B"/>
</linearGradient>
<linearGradient id="paint13_linear_11_1419" x1="74.9436" y1="532.724" x2="76.1092" y2="536.54" gradientUnits="userSpaceOnUse">
<stop stop-color="#74401B"/>
</linearGradient>
<linearGradient id="paint14_linear_11_1419" x1="76.0859" y1="537.608" x2="77.2514" y2="541.424" gradientUnits="userSpaceOnUse">
<stop stop-color="#74401B"/>
</linearGradient>
<linearGradient id="paint15_linear_11_1419" x1="75.5457" y1="535.298" x2="76.7112" y2="539.114" gradientUnits="userSpaceOnUse">
<stop stop-color="#74401B"/>
</linearGradient>
<linearGradient id="paint16_linear_11_1419" x1="26.9216" y1="537.109" x2="27.6124" y2="539.371" gradientUnits="userSpaceOnUse">
<stop stop-color="#74401B"/>
</linearGradient>
<linearGradient id="paint17_linear_11_1419" x1="19.9851" y1="540.63" x2="20.6759" y2="542.892" gradientUnits="userSpaceOnUse">
<stop stop-color="#74401B"/>
</linearGradient>
<linearGradient id="paint18_linear_11_1419" x1="24.6108" y1="539.118" x2="25.3016" y2="541.379" gradientUnits="userSpaceOnUse">
<stop stop-color="#74401B"/>
</linearGradient>
<linearGradient id="paint19_linear_11_1419" x1="29.1149" y1="547.337" x2="29.821" y2="549.648" gradientUnits="userSpaceOnUse">
<stop stop-color="#74401B"/>
</linearGradient>
<linearGradient id="paint20_linear_11_1419" x1="20.8795" y1="549.127" x2="21.5856" y2="551.439" gradientUnits="userSpaceOnUse">
<stop stop-color="#74401B"/>
</linearGradient>
<linearGradient id="paint21_linear_11_1419" x1="25.3782" y1="547.446" x2="26.0843" y2="549.757" gradientUnits="userSpaceOnUse">
<stop stop-color="#74401B"/>
</linearGradient>
</defs>
</svg>
