<svg width="2009" height="1042" viewBox="0 0 2009 1042" fill="none" xmlns="http://www.w3.org/2000/svg">
<rect x="1398" y="307.366" width="117.366" height="310.569" transform="rotate(-90 1398 307.366)" fill="#2FA4DA"/>
<path d="M1473.68 262.963C1473.68 261.791 1473.49 260.749 1473.13 259.838C1472.79 258.926 1472.18 258.093 1471.29 257.338C1470.41 256.583 1469.16 255.854 1467.54 255.15C1465.95 254.421 1463.92 253.679 1461.45 252.924C1458.74 252.09 1456.24 251.166 1453.95 250.15C1451.68 249.109 1449.7 247.911 1448.01 246.557C1446.32 245.176 1445 243.601 1444.07 241.83C1443.13 240.033 1442.66 237.963 1442.66 235.619C1442.66 233.301 1443.14 231.192 1444.1 229.291C1445.09 227.39 1446.49 225.749 1448.28 224.369C1450.11 222.963 1452.26 221.882 1454.73 221.127C1457.2 220.346 1459.94 219.955 1462.93 219.955C1467.15 219.955 1470.78 220.736 1473.83 222.299C1476.9 223.861 1479.26 225.958 1480.9 228.588C1482.57 231.218 1483.4 234.122 1483.4 237.299H1473.68C1473.68 235.424 1473.27 233.77 1472.46 232.338C1471.68 230.88 1470.49 229.734 1468.87 228.9C1467.28 228.067 1465.26 227.65 1462.82 227.65C1460.5 227.65 1458.57 228.002 1457.03 228.705C1455.5 229.408 1454.35 230.359 1453.6 231.557C1452.84 232.755 1452.46 234.109 1452.46 235.619C1452.46 236.687 1452.71 237.663 1453.21 238.549C1453.7 239.408 1454.46 240.215 1455.47 240.971C1456.49 241.7 1457.76 242.39 1459.3 243.041C1460.84 243.692 1462.65 244.317 1464.73 244.916C1467.88 245.854 1470.63 246.895 1472.97 248.041C1475.32 249.161 1477.27 250.437 1478.83 251.869C1480.39 253.301 1481.57 254.929 1482.35 256.752C1483.13 258.549 1483.52 260.593 1483.52 262.885C1483.52 265.281 1483.04 267.442 1482.07 269.369C1481.11 271.27 1479.73 272.898 1477.93 274.252C1476.16 275.58 1474.03 276.609 1471.53 277.338C1469.05 278.041 1466.29 278.393 1463.25 278.393C1460.51 278.393 1457.82 278.028 1455.16 277.299C1452.53 276.57 1450.13 275.463 1447.97 273.979C1445.81 272.468 1444.09 270.593 1442.82 268.354C1441.54 266.088 1440.9 263.445 1440.9 260.424H1450.71C1450.71 262.273 1451.02 263.848 1451.64 265.15C1452.3 266.452 1453.19 267.52 1454.34 268.354C1455.49 269.161 1456.81 269.76 1458.32 270.15C1459.86 270.541 1461.5 270.736 1463.25 270.736C1465.54 270.736 1467.45 270.411 1468.99 269.76C1470.55 269.109 1471.72 268.197 1472.5 267.025C1473.28 265.854 1473.68 264.499 1473.68 262.963ZM1509.89 278.393C1506.76 278.393 1503.94 277.885 1501.41 276.869C1498.91 275.827 1496.77 274.382 1495 272.533C1493.26 270.684 1491.92 268.51 1490.98 266.01C1490.04 263.51 1489.57 260.814 1489.57 257.924L1489.57 256.361C1489.57 253.054 1490.06 250.059 1491.02 247.377C1491.98 244.695 1493.32 242.403 1495.04 240.502C1496.76 238.575 1498.79 237.104 1501.14 236.088C1503.48 235.072 1506.02 234.564 1508.75 234.564C1511.77 234.564 1514.42 235.072 1516.68 236.088C1518.95 237.104 1520.82 238.536 1522.31 240.385C1523.82 242.208 1524.94 244.382 1525.67 246.908C1526.42 249.434 1526.8 252.221 1526.8 255.268L1526.8 259.291H1494.14L1494.14 252.533H1517.5L1517.5 251.791C1517.45 250.098 1517.11 248.51 1516.49 247.025C1515.89 245.541 1514.96 244.343 1513.71 243.432C1512.46 242.52 1510.8 242.064 1508.71 242.064C1507.15 242.064 1505.76 242.403 1504.53 243.08C1503.34 243.731 1502.33 244.682 1501.53 245.932C1500.72 247.182 1500.09 248.692 1499.65 250.463C1499.24 252.208 1499.03 254.174 1499.03 256.361L1499.03 257.924C1499.03 259.773 1499.27 261.492 1499.77 263.08C1500.29 264.643 1501.05 266.01 1502.03 267.182C1503.02 268.354 1504.22 269.278 1505.63 269.955C1507.03 270.606 1508.64 270.932 1510.43 270.932C1512.7 270.932 1514.72 270.476 1516.49 269.564C1518.26 268.653 1519.8 267.364 1521.1 265.697L1526.06 270.502C1525.15 271.83 1523.96 273.106 1522.5 274.33C1521.05 275.528 1519.26 276.505 1517.15 277.26C1515.07 278.015 1512.65 278.393 1509.89 278.393ZM1543.6 243.393L1543.6 277.611L1534.18 277.611L1534.18 235.346H1543.17L1543.6 243.393ZM1556.53 235.072L1556.45 243.822C1555.88 243.718 1555.25 243.64 1554.57 243.588C1553.92 243.536 1553.27 243.51 1552.62 243.51C1551.01 243.51 1549.59 243.744 1548.36 244.213C1547.14 244.656 1546.11 245.307 1545.28 246.166C1544.47 246.999 1543.84 248.015 1543.4 249.213C1542.96 250.411 1542.7 251.752 1542.62 253.236L1540.47 253.393C1540.47 250.736 1540.73 248.275 1541.25 246.01C1541.77 243.744 1542.56 241.752 1543.6 240.033C1544.66 238.314 1545.99 236.973 1547.58 236.01C1549.2 235.046 1551.06 234.564 1553.17 234.564C1553.74 234.564 1554.35 234.617 1555 234.721C1555.68 234.825 1556.19 234.942 1556.53 235.072ZM1576.88 270.15L1587.23 235.346H1597L1582.31 277.611H1576.21L1576.88 270.15ZM1568.95 235.346L1579.5 270.307L1580 277.611H1573.91L1559.14 235.346H1568.95ZM1620.9 278.393C1617.78 278.393 1614.95 277.885 1612.43 276.869C1609.93 275.827 1607.79 274.382 1606.02 272.533C1604.27 270.684 1602.93 268.51 1602 266.01C1601.06 263.51 1600.59 260.814 1600.59 257.924L1600.59 256.361C1600.59 253.054 1601.07 250.059 1602.03 247.377C1603 244.695 1604.34 242.403 1606.06 240.502C1607.78 238.575 1609.81 237.104 1612.15 236.088C1614.5 235.072 1617.03 234.564 1619.77 234.564C1622.79 234.564 1625.43 235.072 1627.7 236.088C1629.96 237.104 1631.84 238.536 1633.32 240.385C1634.83 242.208 1635.95 244.382 1636.68 246.908C1637.44 249.434 1637.82 252.221 1637.82 255.268L1637.82 259.291H1605.16L1605.16 252.533H1628.52L1628.52 251.791C1628.47 250.098 1628.13 248.51 1627.5 247.025C1626.9 245.541 1625.98 244.343 1624.73 243.432C1623.48 242.52 1621.81 242.064 1619.73 242.064C1618.17 242.064 1616.77 242.403 1615.55 243.08C1614.35 243.731 1613.35 244.682 1612.54 245.932C1611.74 247.182 1611.11 248.692 1610.67 250.463C1610.25 252.208 1610.04 254.174 1610.04 256.361L1610.04 257.924C1610.04 259.773 1610.29 261.492 1610.78 263.08C1611.31 264.643 1612.06 266.01 1613.05 267.182C1614.04 268.354 1615.24 269.278 1616.64 269.955C1618.05 270.606 1619.65 270.932 1621.45 270.932C1623.71 270.932 1625.73 270.476 1627.5 269.564C1629.27 268.653 1630.81 267.364 1632.11 265.697L1637.07 270.502C1636.16 271.83 1634.98 273.106 1633.52 274.33C1632.06 275.528 1630.28 276.505 1628.17 277.26C1626.08 278.015 1623.66 278.393 1620.9 278.393ZM1654.61 243.393L1654.61 277.611H1645.2L1645.2 235.346H1654.18L1654.61 243.393ZM1667.54 235.072L1667.46 243.822C1666.89 243.718 1666.27 243.64 1665.59 243.588C1664.94 243.536 1664.29 243.51 1663.64 243.51C1662.02 243.51 1660.6 243.744 1659.38 244.213C1658.15 244.656 1657.13 245.307 1656.29 246.166C1655.49 246.999 1654.86 248.015 1654.42 249.213C1653.97 250.411 1653.71 251.752 1653.64 253.236L1651.49 253.393C1651.49 250.736 1651.75 248.275 1652.27 246.01C1652.79 243.744 1653.57 241.752 1654.61 240.033C1655.68 238.314 1657.01 236.973 1658.6 236.01C1660.21 235.046 1662.07 234.564 1664.18 234.564C1664.76 234.564 1665.37 234.617 1666.02 234.721C1666.7 234.825 1667.2 234.942 1667.54 235.072Z" fill="white"/>
<rect x="485" y="307.366" width="117.366" height="310.569" transform="rotate(-90 485 307.366)" fill="#2FA4DA"/>
<path d="M522.277 256.4H507.472L507.472 248.627H522.277C524.855 248.627 526.938 248.21 528.527 247.377C530.115 246.544 531.274 245.398 532.003 243.939C532.759 242.455 533.136 240.762 533.136 238.861C533.136 237.064 532.759 235.385 532.003 233.822C531.274 232.234 530.115 230.958 528.527 229.994C526.938 229.031 524.855 228.549 522.277 228.549H510.48L510.48 277.611H500.675L500.675 220.736H522.277C526.678 220.736 530.415 221.518 533.488 223.08C536.587 224.617 538.943 226.752 540.558 229.486C542.173 232.195 542.98 235.294 542.98 238.783C542.98 242.455 542.173 245.606 540.558 248.236C538.943 250.867 536.587 252.885 533.488 254.291C530.415 255.697 526.678 256.4 522.277 256.4ZM560.285 243.393L560.285 277.611H550.871L550.871 235.346L559.855 235.346L560.285 243.393ZM573.214 235.072L573.136 243.822C572.563 243.718 571.938 243.64 571.261 243.588C570.61 243.536 569.959 243.51 569.308 243.51C567.693 243.51 566.274 243.744 565.05 244.213C563.826 244.656 562.798 245.307 561.964 246.166C561.157 246.999 560.532 248.015 560.089 249.213C559.647 250.411 559.386 251.752 559.308 253.236L557.16 253.393C557.16 250.736 557.42 248.275 557.941 246.01C558.462 243.744 559.243 241.752 560.285 240.033C561.352 238.314 562.68 236.973 564.269 236.01C565.884 235.046 567.746 234.564 569.855 234.564C570.428 234.564 571.04 234.617 571.691 234.721C572.368 234.825 572.876 234.942 573.214 235.072ZM576.3 256.947L576.3 256.049C576.3 253.002 576.743 250.176 577.628 247.572C578.514 244.942 579.79 242.663 581.456 240.736C583.149 238.783 585.206 237.273 587.628 236.205C590.076 235.111 592.837 234.564 595.91 234.564C599.009 234.564 601.769 235.111 604.191 236.205C606.639 237.273 608.709 238.783 610.402 240.736C612.095 242.663 613.384 244.942 614.269 247.572C615.154 250.176 615.597 253.002 615.597 256.049L615.597 256.947C615.597 259.994 615.154 262.82 614.269 265.424C613.384 268.028 612.095 270.307 610.402 272.26C608.709 274.187 606.652 275.697 604.23 276.791C601.808 277.859 599.061 278.393 595.988 278.393C592.889 278.393 590.115 277.859 587.667 276.791C585.246 275.697 583.188 274.187 581.496 272.26C579.803 270.307 578.514 268.028 577.628 265.424C576.743 262.82 576.3 259.994 576.3 256.947ZM585.714 256.049L585.714 256.947C585.714 258.848 585.91 260.645 586.3 262.338C586.691 264.031 587.303 265.515 588.136 266.791C588.97 268.067 590.037 269.07 591.339 269.799C592.641 270.528 594.191 270.893 595.988 270.893C597.733 270.893 599.243 270.528 600.519 269.799C601.821 269.07 602.889 268.067 603.722 266.791C604.555 265.515 605.167 264.031 605.558 262.338C605.975 260.645 606.183 258.848 606.183 256.947L606.183 256.049C606.183 254.174 605.975 252.403 605.558 250.736C605.167 249.044 604.542 247.546 603.683 246.244C602.85 244.942 601.782 243.926 600.48 243.197C599.204 242.442 597.68 242.064 595.91 242.064C594.139 242.064 592.602 242.442 591.3 243.197C590.024 243.926 588.97 244.942 588.136 246.244C587.303 247.546 586.691 249.044 586.3 250.736C585.91 252.403 585.714 254.174 585.714 256.049ZM640.753 270.893C642.29 270.893 643.67 270.593 644.894 269.994C646.144 269.369 647.147 268.51 647.902 267.416C648.683 266.322 649.113 265.059 649.191 263.627H658.058C658.006 266.361 657.199 268.848 655.636 271.088C654.074 273.327 652.003 275.111 649.425 276.439C646.847 277.742 643.996 278.393 640.871 278.393C637.641 278.393 634.829 277.846 632.433 276.752C630.037 275.632 628.045 274.096 626.456 272.143C624.868 270.189 623.67 267.937 622.863 265.385C622.081 262.833 621.691 260.098 621.691 257.182L621.691 255.814C621.691 252.898 622.081 250.163 622.863 247.611C623.67 245.033 624.868 242.768 626.456 240.814C628.045 238.861 630.037 237.338 632.433 236.244C634.829 235.124 637.628 234.564 640.831 234.564C644.217 234.564 647.186 235.242 649.738 236.596C652.29 237.924 654.295 239.786 655.753 242.182C657.238 244.551 658.006 247.312 658.058 250.463H649.191C649.113 248.9 648.722 247.494 648.019 246.244C647.342 244.968 646.378 243.952 645.128 243.197C643.904 242.442 642.433 242.064 640.714 242.064C638.813 242.064 637.238 242.455 635.988 243.236C634.738 243.992 633.761 245.033 633.058 246.361C632.355 247.663 631.847 249.135 631.535 250.775C631.248 252.39 631.105 254.07 631.105 255.814L631.105 257.182C631.105 258.926 631.248 260.619 631.535 262.26C631.821 263.9 632.316 265.372 633.019 266.674C633.748 267.95 634.738 268.979 635.988 269.76C637.238 270.515 638.826 270.893 640.753 270.893ZM683.917 278.393C680.792 278.393 677.967 277.885 675.441 276.869C672.941 275.827 670.805 274.382 669.035 272.533C667.29 270.684 665.949 268.51 665.011 266.01C664.074 263.51 663.605 260.814 663.605 257.924L663.605 256.361C663.605 253.054 664.087 250.059 665.05 247.377C666.014 244.695 667.355 242.403 669.074 240.502C670.792 238.575 672.824 237.104 675.167 236.088C677.511 235.072 680.05 234.564 682.785 234.564C685.805 234.564 688.449 235.072 690.714 236.088C692.98 237.104 694.855 238.536 696.339 240.385C697.85 242.208 698.97 244.382 699.699 246.908C700.454 249.434 700.831 252.221 700.831 255.268L700.831 259.291H668.175L668.175 252.533H691.535L691.535 251.791C691.483 250.098 691.144 248.51 690.519 247.025C689.92 245.541 688.996 244.343 687.746 243.432C686.496 242.52 684.829 242.064 682.746 242.064C681.183 242.064 679.79 242.403 678.566 243.08C677.368 243.731 676.365 244.682 675.558 245.932C674.751 247.182 674.126 248.692 673.683 250.463C673.266 252.208 673.058 254.174 673.058 256.361L673.058 257.924C673.058 259.773 673.305 261.492 673.8 263.08C674.321 264.643 675.076 266.01 676.066 267.182C677.055 268.354 678.253 269.278 679.66 269.955C681.066 270.606 682.667 270.932 684.464 270.932C686.73 270.932 688.748 270.476 690.519 269.564C692.29 268.653 693.826 267.364 695.128 265.697L700.089 270.502C699.178 271.83 697.993 273.106 696.535 274.33C695.076 275.528 693.292 276.505 691.183 277.26C689.1 278.015 686.678 278.393 683.917 278.393ZM731.886 266.166C731.886 265.229 731.652 264.382 731.183 263.627C730.714 262.846 729.816 262.143 728.488 261.518C727.186 260.893 725.259 260.32 722.706 259.799C720.467 259.304 718.41 258.718 716.535 258.041C714.686 257.338 713.097 256.492 711.769 255.502C710.441 254.512 709.412 253.34 708.683 251.986C707.954 250.632 707.589 249.07 707.589 247.299C707.589 245.58 707.967 243.952 708.722 242.416C709.477 240.88 710.558 239.525 711.964 238.354C713.371 237.182 715.076 236.257 717.081 235.58C719.113 234.903 721.378 234.564 723.878 234.564C727.42 234.564 730.454 235.163 732.98 236.361C735.532 237.533 737.485 239.135 738.839 241.166C740.193 243.171 740.871 245.437 740.871 247.963H731.456C731.456 246.843 731.17 245.801 730.597 244.838C730.05 243.848 729.217 243.054 728.097 242.455C726.977 241.83 725.571 241.518 723.878 241.518C722.264 241.518 720.923 241.778 719.855 242.299C718.813 242.794 718.032 243.445 717.511 244.252C717.016 245.059 716.769 245.945 716.769 246.908C716.769 247.611 716.899 248.249 717.16 248.822C717.446 249.369 717.915 249.877 718.566 250.346C719.217 250.788 720.102 251.205 721.222 251.596C722.368 251.986 723.8 252.364 725.519 252.729C728.748 253.406 731.522 254.278 733.839 255.346C736.183 256.387 737.98 257.742 739.23 259.408C740.48 261.049 741.105 263.132 741.105 265.658C741.105 267.533 740.701 269.252 739.894 270.814C739.113 272.351 737.967 273.692 736.456 274.838C734.946 275.958 733.136 276.83 731.027 277.455C728.943 278.08 726.6 278.393 723.996 278.393C720.167 278.393 716.925 277.715 714.269 276.361C711.613 274.981 709.595 273.223 708.214 271.088C706.86 268.926 706.183 266.687 706.183 264.369H715.285C715.389 266.114 715.871 267.507 716.73 268.549C717.615 269.564 718.709 270.307 720.011 270.775C721.339 271.218 722.706 271.439 724.113 271.439C725.805 271.439 727.225 271.218 728.371 270.775C729.516 270.307 730.389 269.682 730.988 268.9C731.587 268.093 731.886 267.182 731.886 266.166ZM773.058 266.166C773.058 265.229 772.824 264.382 772.355 263.627C771.886 262.846 770.988 262.143 769.66 261.518C768.358 260.893 766.43 260.32 763.878 259.799C761.639 259.304 759.581 258.718 757.706 258.041C755.858 257.338 754.269 256.492 752.941 255.502C751.613 254.512 750.584 253.34 749.855 251.986C749.126 250.632 748.761 249.07 748.761 247.299C748.761 245.58 749.139 243.952 749.894 242.416C750.649 240.88 751.73 239.525 753.136 238.354C754.542 237.182 756.248 236.257 758.253 235.58C760.285 234.903 762.55 234.564 765.05 234.564C768.592 234.564 771.626 235.163 774.152 236.361C776.704 237.533 778.657 239.135 780.011 241.166C781.365 243.171 782.042 245.437 782.042 247.963L772.628 247.963C772.628 246.843 772.342 245.801 771.769 244.838C771.222 243.848 770.389 243.054 769.269 242.455C768.149 241.83 766.743 241.518 765.05 241.518C763.436 241.518 762.095 241.778 761.027 242.299C759.985 242.794 759.204 243.445 758.683 244.252C758.188 245.059 757.941 245.945 757.941 246.908C757.941 247.611 758.071 248.249 758.331 248.822C758.618 249.369 759.087 249.877 759.738 250.346C760.389 250.788 761.274 251.205 762.394 251.596C763.54 251.986 764.972 252.364 766.691 252.729C769.92 253.406 772.693 254.278 775.011 255.346C777.355 256.387 779.152 257.742 780.402 259.408C781.652 261.049 782.277 263.132 782.277 265.658C782.277 267.533 781.873 269.252 781.066 270.814C780.285 272.351 779.139 273.692 777.628 274.838C776.118 275.958 774.308 276.83 772.199 277.455C770.115 278.08 767.772 278.393 765.167 278.393C761.339 278.393 758.097 277.715 755.441 276.361C752.785 274.981 750.766 273.223 749.386 271.088C748.032 268.926 747.355 266.687 747.355 264.369H756.456C756.561 266.114 757.042 267.507 757.902 268.549C758.787 269.564 759.881 270.307 761.183 270.775C762.511 271.218 763.878 271.439 765.285 271.439C766.977 271.439 768.397 271.218 769.542 270.775C770.688 270.307 771.561 269.682 772.16 268.9C772.759 268.093 773.058 267.182 773.058 266.166Z" fill="white"/>
<rect x="879" y="307.367" width="117.366" height="435.158" transform="rotate(-90 879 307.367)" fill="#2FA4DA"/>
<path d="M950.212 277.611H938.063L938.142 269.838H950.212C953.727 269.838 956.67 269.07 959.04 267.533C961.436 265.997 963.233 263.796 964.431 260.932C965.655 258.067 966.267 254.656 966.267 250.697L966.267 247.611C966.267 244.538 965.915 241.817 965.212 239.447C964.535 237.077 963.519 235.085 962.165 233.471C960.837 231.856 959.196 230.632 957.243 229.799C955.316 228.965 953.089 228.549 950.563 228.549L937.829 228.549L937.829 220.736L950.563 220.736C954.339 220.736 957.79 221.374 960.915 222.65C964.04 223.9 966.735 225.71 969.001 228.08C971.293 230.45 973.05 233.288 974.274 236.596C975.498 239.903 976.11 243.601 976.11 247.689L976.11 250.697C976.11 254.786 975.498 258.484 974.274 261.791C973.05 265.098 971.293 267.937 969.001 270.307C966.709 272.65 963.975 274.46 960.798 275.736C957.647 276.986 954.118 277.611 950.212 277.611ZM943.493 220.736L943.493 277.611H933.688L933.688 220.736L943.493 220.736ZM1008.84 269.135L1008.84 248.979C1008.84 247.468 1008.57 246.166 1008.02 245.072C1007.48 243.979 1006.64 243.132 1005.52 242.533C1004.43 241.934 1003.05 241.635 1001.38 241.635C999.847 241.635 998.519 241.895 997.399 242.416C996.28 242.937 995.407 243.64 994.782 244.525C994.157 245.411 993.845 246.413 993.845 247.533H984.47C984.47 245.867 984.873 244.252 985.681 242.689C986.488 241.127 987.66 239.734 989.196 238.51C990.733 237.286 992.569 236.322 994.704 235.619C996.839 234.916 999.235 234.564 1001.89 234.564C1005.07 234.564 1007.88 235.098 1010.33 236.166C1012.8 237.234 1014.74 238.848 1016.15 241.01C1017.58 243.145 1018.3 245.827 1018.3 249.057L1018.3 267.846C1018.3 269.773 1018.43 271.505 1018.69 273.041C1018.97 274.551 1019.38 275.867 1019.9 276.986L1019.9 277.611L1010.25 277.611C1009.81 276.596 1009.46 275.307 1009.2 273.744C1008.96 272.156 1008.84 270.619 1008.84 269.135ZM1010.21 251.908L1010.29 257.729H1003.53C1001.79 257.729 1000.25 257.898 998.923 258.236C997.595 258.549 996.488 259.018 995.602 259.643C994.717 260.268 994.053 261.023 993.61 261.908C993.168 262.794 992.946 263.796 992.946 264.916C992.946 266.036 993.207 267.064 993.727 268.002C994.248 268.913 995.004 269.63 995.993 270.15C997.009 270.671 998.233 270.932 999.665 270.932C1001.59 270.932 1003.27 270.541 1004.7 269.76C1006.16 268.952 1007.31 267.976 1008.14 266.83C1008.97 265.658 1009.42 264.551 1009.47 263.51L1012.52 267.689C1012.2 268.757 1011.67 269.903 1010.91 271.127C1010.16 272.351 1009.17 273.523 1007.95 274.643C1006.75 275.736 1005.3 276.635 1003.61 277.338C1001.94 278.041 1000.02 278.393 997.829 278.393C995.069 278.393 992.608 277.846 990.446 276.752C988.285 275.632 986.592 274.135 985.368 272.26C984.144 270.359 983.532 268.21 983.532 265.814C983.532 263.575 983.949 261.596 984.782 259.877C985.642 258.132 986.892 256.674 988.532 255.502C990.199 254.33 992.23 253.445 994.626 252.846C997.022 252.221 999.756 251.908 1002.83 251.908H1010.21ZM1047.52 235.346L1047.52 242.221L1023.69 242.221L1023.69 235.346L1047.52 235.346ZM1030.56 224.994L1039.98 224.994L1039.98 265.932C1039.98 267.234 1040.16 268.236 1040.52 268.939C1040.91 269.617 1041.45 270.072 1042.13 270.307C1042.8 270.541 1043.6 270.658 1044.51 270.658C1045.16 270.658 1045.78 270.619 1046.38 270.541C1046.98 270.463 1047.46 270.385 1047.83 270.307L1047.87 277.494C1047.09 277.729 1046.18 277.937 1045.13 278.119C1044.12 278.301 1042.95 278.393 1041.62 278.393C1039.46 278.393 1037.54 278.015 1035.88 277.26C1034.21 276.479 1032.91 275.215 1031.97 273.471C1031.03 271.726 1030.56 269.408 1030.56 266.518L1030.56 224.994ZM1078.61 269.135L1078.61 248.979C1078.61 247.468 1078.34 246.166 1077.79 245.072C1077.24 243.979 1076.41 243.132 1075.29 242.533C1074.2 241.934 1072.82 241.635 1071.15 241.635C1069.61 241.635 1068.28 241.895 1067.16 242.416C1066.05 242.937 1065.17 243.64 1064.55 244.525C1063.92 245.411 1063.61 246.413 1063.61 247.533H1054.24C1054.24 245.867 1054.64 244.252 1055.45 242.689C1056.25 241.127 1057.43 239.734 1058.96 238.51C1060.5 237.286 1062.33 236.322 1064.47 235.619C1066.61 234.916 1069 234.564 1071.66 234.564C1074.83 234.564 1077.65 235.098 1080.09 236.166C1082.57 237.234 1084.51 238.848 1085.91 241.01C1087.35 243.145 1088.06 245.827 1088.06 249.057L1088.06 267.846C1088.06 269.773 1088.19 271.505 1088.45 273.041C1088.74 274.551 1089.14 275.867 1089.66 276.986L1089.66 277.611H1080.02C1079.57 276.596 1079.22 275.307 1078.96 273.744C1078.73 272.156 1078.61 270.619 1078.61 269.135ZM1079.98 251.908L1080.06 257.729H1073.3C1071.55 257.729 1070.02 257.898 1068.69 258.236C1067.36 258.549 1066.25 259.018 1065.37 259.643C1064.48 260.268 1063.82 261.023 1063.38 261.908C1062.93 262.794 1062.71 263.796 1062.71 264.916C1062.71 266.036 1062.97 267.064 1063.49 268.002C1064.01 268.913 1064.77 269.63 1065.76 270.15C1066.77 270.671 1068 270.932 1069.43 270.932C1071.36 270.932 1073.04 270.541 1074.47 269.76C1075.93 268.952 1077.07 267.976 1077.91 266.83C1078.74 265.658 1079.18 264.551 1079.24 263.51L1082.28 267.689C1081.97 268.757 1081.44 269.903 1080.68 271.127C1079.93 272.351 1078.94 273.523 1077.71 274.643C1076.51 275.736 1075.07 276.635 1073.38 277.338C1071.71 278.041 1069.78 278.393 1067.59 278.393C1064.83 278.393 1062.37 277.846 1060.21 276.752C1058.05 275.632 1056.36 274.135 1055.13 272.26C1053.91 270.359 1053.3 268.21 1053.3 265.814C1053.3 263.575 1053.71 261.596 1054.55 259.877C1055.41 258.132 1056.66 256.674 1058.3 255.502C1059.96 254.33 1062 253.445 1064.39 252.846C1066.79 252.221 1069.52 251.908 1072.59 251.908H1079.98ZM1097.95 217.611H1107.36L1107.36 268.588L1106.46 277.611H1097.95L1097.95 217.611ZM1134.94 256.088L1134.94 256.908C1134.94 260.033 1134.59 262.911 1133.88 265.541C1133.21 268.145 1132.16 270.411 1130.76 272.338C1129.38 274.265 1127.66 275.762 1125.6 276.83C1123.57 277.872 1121.21 278.393 1118.53 278.393C1115.9 278.393 1113.61 277.898 1111.66 276.908C1109.7 275.919 1108.06 274.512 1106.74 272.689C1105.43 270.867 1104.38 268.692 1103.57 266.166C1102.76 263.64 1102.19 260.854 1101.85 257.807L1101.85 255.189C1102.19 252.117 1102.76 249.33 1103.57 246.83C1104.38 244.304 1105.43 242.13 1106.74 240.307C1108.06 238.458 1109.69 237.038 1111.62 236.049C1113.57 235.059 1115.85 234.564 1118.45 234.564C1121.16 234.564 1123.55 235.085 1125.6 236.127C1127.69 237.169 1129.42 238.653 1130.8 240.58C1132.18 242.481 1133.21 244.747 1133.88 247.377C1134.59 250.007 1134.94 252.911 1134.94 256.088ZM1125.52 256.908L1125.52 256.088C1125.52 254.187 1125.37 252.403 1125.06 250.736C1124.74 249.044 1124.22 247.559 1123.49 246.283C1122.79 245.007 1121.83 244.005 1120.6 243.275C1119.4 242.52 1117.91 242.143 1116.11 242.143C1114.44 242.143 1113.01 242.429 1111.81 243.002C1110.62 243.575 1109.61 244.356 1108.81 245.346C1108 246.335 1107.36 247.481 1106.89 248.783C1106.45 250.085 1106.15 251.492 1105.99 253.002L1105.99 260.072C1106.23 262.025 1106.72 263.822 1107.48 265.463C1108.26 267.077 1109.35 268.38 1110.76 269.369C1112.16 270.333 1113.97 270.814 1116.19 270.814C1117.93 270.814 1119.4 270.463 1120.6 269.76C1121.8 269.057 1122.75 268.08 1123.45 266.83C1124.18 265.554 1124.7 264.07 1125.02 262.377C1125.36 260.684 1125.52 258.861 1125.52 256.908ZM1166.74 269.135L1166.74 248.979C1166.74 247.468 1166.46 246.166 1165.91 245.072C1165.37 243.979 1164.53 243.132 1163.41 242.533C1162.32 241.934 1160.94 241.635 1159.27 241.635C1157.74 241.635 1156.41 241.895 1155.29 242.416C1154.17 242.937 1153.3 243.64 1152.67 244.525C1152.05 245.411 1151.74 246.413 1151.74 247.533H1142.36C1142.36 245.867 1142.76 244.252 1143.57 242.689C1144.38 241.127 1145.55 239.734 1147.09 238.51C1148.62 237.286 1150.46 236.322 1152.59 235.619C1154.73 234.916 1157.13 234.564 1159.78 234.564C1162.96 234.564 1165.77 235.098 1168.22 236.166C1170.69 237.234 1172.63 238.848 1174.04 241.01C1175.47 243.145 1176.19 245.827 1176.19 249.057L1176.19 267.846C1176.19 269.773 1176.32 271.505 1176.58 273.041C1176.87 274.551 1177.27 275.867 1177.79 276.986L1177.79 277.611H1168.14C1167.7 276.596 1167.35 275.307 1167.09 273.744C1166.85 272.156 1166.74 270.619 1166.74 269.135ZM1168.1 251.908L1168.18 257.729H1161.42C1159.68 257.729 1158.14 257.898 1156.81 258.236C1155.49 258.549 1154.38 259.018 1153.49 259.643C1152.61 260.268 1151.94 261.023 1151.5 261.908C1151.06 262.794 1150.84 263.796 1150.84 264.916C1150.84 266.036 1151.1 267.064 1151.62 268.002C1152.14 268.913 1152.89 269.63 1153.88 270.15C1154.9 270.671 1156.12 270.932 1157.56 270.932C1159.48 270.932 1161.16 270.541 1162.59 269.76C1164.05 268.952 1165.2 267.976 1166.03 266.83C1166.87 265.658 1167.31 264.551 1167.36 263.51L1170.41 267.689C1170.09 268.757 1169.56 269.903 1168.81 271.127C1168.05 272.351 1167.06 273.523 1165.84 274.643C1164.64 275.736 1163.19 276.635 1161.5 277.338C1159.83 278.041 1157.91 278.393 1155.72 278.393C1152.96 278.393 1150.5 277.846 1148.34 276.752C1146.18 275.632 1144.48 274.135 1143.26 272.26C1142.03 270.359 1141.42 268.21 1141.42 265.814C1141.42 263.575 1141.84 261.596 1142.67 259.877C1143.53 258.132 1144.78 256.674 1146.42 255.502C1148.09 254.33 1150.12 253.445 1152.52 252.846C1154.91 252.221 1157.65 251.908 1160.72 251.908H1168.1ZM1209.74 266.166C1209.74 265.229 1209.51 264.382 1209.04 263.627C1208.57 262.846 1207.67 262.143 1206.34 261.518C1205.04 260.893 1203.12 260.32 1200.56 259.799C1198.32 259.304 1196.27 258.718 1194.39 258.041C1192.54 257.338 1190.95 256.492 1189.63 255.502C1188.3 254.512 1187.27 253.34 1186.54 251.986C1185.81 250.632 1185.45 249.07 1185.45 247.299C1185.45 245.58 1185.82 243.952 1186.58 242.416C1187.33 240.88 1188.41 239.525 1189.82 238.354C1191.23 237.182 1192.93 236.257 1194.94 235.58C1196.97 234.903 1199.24 234.564 1201.74 234.564C1205.28 234.564 1208.31 235.163 1210.84 236.361C1213.39 237.533 1215.34 239.135 1216.7 241.166C1218.05 243.171 1218.73 245.437 1218.73 247.963H1209.31C1209.31 246.843 1209.03 245.801 1208.45 244.838C1207.91 243.848 1207.07 243.054 1205.95 242.455C1204.83 241.83 1203.43 241.518 1201.74 241.518C1200.12 241.518 1198.78 241.778 1197.71 242.299C1196.67 242.794 1195.89 243.445 1195.37 244.252C1194.87 245.059 1194.63 245.945 1194.63 246.908C1194.63 247.611 1194.76 248.249 1195.02 248.822C1195.3 249.369 1195.77 249.877 1196.42 250.346C1197.07 250.788 1197.96 251.205 1199.08 251.596C1200.22 251.986 1201.66 252.364 1203.38 252.729C1206.61 253.406 1209.38 254.278 1211.7 255.346C1214.04 256.387 1215.84 257.742 1217.09 259.408C1218.34 261.049 1218.96 263.132 1218.96 265.658C1218.96 267.533 1218.56 269.252 1217.75 270.814C1216.97 272.351 1215.82 273.692 1214.31 274.838C1212.8 275.958 1210.99 276.83 1208.88 277.455C1206.8 278.08 1204.46 278.393 1201.85 278.393C1198.02 278.393 1194.78 277.715 1192.13 276.361C1189.47 274.981 1187.45 273.223 1186.07 271.088C1184.72 268.926 1184.04 266.687 1184.04 264.369L1193.14 264.369C1193.25 266.114 1193.73 267.507 1194.59 268.549C1195.47 269.564 1196.57 270.307 1197.87 270.775C1199.2 271.218 1200.56 271.439 1201.97 271.439C1203.66 271.439 1205.08 271.218 1206.23 270.775C1207.37 270.307 1208.25 269.682 1208.84 268.9C1209.44 268.093 1209.74 267.182 1209.74 266.166ZM1245.84 278.393C1242.71 278.393 1239.89 277.885 1237.36 276.869C1234.86 275.827 1232.72 274.382 1230.95 272.533C1229.21 270.684 1227.87 268.51 1226.93 266.01C1225.99 263.51 1225.52 260.814 1225.52 257.924L1225.52 256.361C1225.52 253.054 1226.01 250.059 1226.97 247.377C1227.93 244.695 1229.27 242.403 1230.99 240.502C1232.71 238.575 1234.74 237.104 1237.09 236.088C1239.43 235.072 1241.97 234.564 1244.7 234.564C1247.72 234.564 1250.37 235.072 1252.63 236.088C1254.9 237.104 1256.77 238.536 1258.26 240.385C1259.77 242.208 1260.89 244.382 1261.62 246.908C1262.37 249.434 1262.75 252.221 1262.75 255.268L1262.75 259.291H1230.09L1230.09 252.533H1253.45L1253.45 251.791C1253.4 250.098 1253.06 248.51 1252.44 247.025C1251.84 245.541 1250.91 244.343 1249.66 243.432C1248.41 242.52 1246.75 242.064 1244.66 242.064C1243.1 242.064 1241.71 242.403 1240.49 243.08C1239.29 243.731 1238.28 244.682 1237.48 245.932C1236.67 247.182 1236.05 248.692 1235.6 250.463C1235.19 252.208 1234.98 254.174 1234.98 256.361L1234.98 257.924C1234.98 259.773 1235.22 261.492 1235.72 263.08C1236.24 264.643 1237 266.01 1237.99 267.182C1238.97 268.354 1240.17 269.278 1241.58 269.955C1242.99 270.606 1244.59 270.932 1246.38 270.932C1248.65 270.932 1250.67 270.476 1252.44 269.564C1254.21 268.653 1255.75 267.364 1257.05 265.697L1262.01 270.502C1261.1 271.83 1259.91 273.106 1258.45 274.33C1257 275.528 1255.21 276.505 1253.1 277.26C1251.02 278.015 1248.6 278.393 1245.84 278.393Z" fill="white"/>
<rect x="30" y="167.367" width="117.366" height="328.626" transform="rotate(-90 30 167.367)" fill="#2FA4DA"/>
<path d="M122.965 86.4004L122.965 132.611H114.999L114.999 86.4004H122.965ZM150.736 86.4004L132.011 108.649L121.346 119.948L119.95 112.045L127.567 102.65L141.024 86.4004H150.736ZM142.167 132.611L126.964 110.712L132.455 105.285L151.625 132.611H142.167ZM174.667 125.724L174.667 109.347C174.667 108.12 174.445 107.062 174 106.173C173.556 105.285 172.879 104.597 171.969 104.11C171.08 103.624 169.959 103.38 168.605 103.38C167.356 103.38 166.277 103.592 165.367 104.015C164.458 104.438 163.749 105.01 163.241 105.729C162.733 106.448 162.479 107.263 162.479 108.173H154.862C154.862 106.819 155.19 105.507 155.846 104.237C156.502 102.968 157.454 101.836 158.702 100.841C159.951 99.8468 161.443 99.064 163.178 98.4927C164.913 97.9214 166.859 97.6357 169.017 97.6357C171.599 97.6357 173.884 98.0695 175.873 98.937C177.883 99.8045 179.459 101.116 180.602 102.873C181.766 104.608 182.347 106.787 182.347 109.411L182.347 124.677C182.347 126.243 182.453 127.65 182.665 128.898C182.898 130.125 183.226 131.194 183.649 132.104L183.649 132.611H175.809C175.45 131.786 175.164 130.739 174.952 129.469C174.762 128.179 174.667 126.93 174.667 125.724ZM175.778 111.728L175.841 116.457H170.35C168.933 116.457 167.684 116.594 166.605 116.869C165.526 117.123 164.627 117.504 163.908 118.012C163.188 118.52 162.649 119.133 162.289 119.853C161.929 120.572 161.749 121.387 161.749 122.296C161.749 123.206 161.961 124.042 162.384 124.804C162.807 125.544 163.421 126.126 164.225 126.549C165.05 126.972 166.045 127.184 167.208 127.184C168.774 127.184 170.139 126.867 171.303 126.232C172.487 125.576 173.418 124.783 174.096 123.852C174.773 122.899 175.132 122 175.175 121.154L177.65 124.55C177.396 125.417 176.963 126.348 176.349 127.343C175.735 128.337 174.931 129.289 173.937 130.199C172.964 131.088 171.789 131.818 170.414 132.389C169.06 132.96 167.494 133.246 165.717 133.246C163.474 133.246 161.474 132.802 159.718 131.913C157.962 131.003 156.587 129.787 155.592 128.263C154.598 126.719 154.1 124.973 154.1 123.026C154.1 121.207 154.439 119.599 155.116 118.202C155.814 116.785 156.83 115.6 158.163 114.647C159.517 113.695 161.167 112.976 163.114 112.489C165.061 111.981 167.282 111.728 169.779 111.728H175.778ZM200.692 132.611H193.043L193.043 94.9697C193.043 92.4095 193.519 90.2619 194.471 88.5269C195.445 86.7707 196.831 85.4482 198.629 84.5596C200.428 83.6497 202.554 83.1948 205.009 83.1948C205.77 83.1948 206.521 83.2477 207.262 83.3535C208.003 83.4382 208.722 83.5757 209.42 83.7661L209.23 89.6694C208.807 89.5636 208.341 89.4896 207.833 89.4473C207.347 89.4049 206.818 89.3838 206.246 89.3838C205.083 89.3838 204.078 89.606 203.231 90.0503C202.406 90.4735 201.771 91.0977 201.327 91.9229C200.904 92.748 200.692 93.7637 200.692 94.9697L200.692 132.611ZM207.77 98.2705L207.77 103.856H187.775L187.775 98.2705H207.77ZM221.036 83.8613L221.036 132.611H213.356L213.356 83.8613L221.036 83.8613ZM242.365 98.2705L227.416 114.838L219.227 123.217L217.228 116.742L223.417 109.093L233.129 98.2705H242.365ZM234.779 132.611L223.639 116.488L228.463 111.125L243.634 132.611H234.779ZM266.581 125.724L266.581 109.347C266.581 108.12 266.359 107.062 265.914 106.173C265.47 105.285 264.793 104.597 263.883 104.11C262.994 103.624 261.873 103.38 260.519 103.38C259.27 103.38 258.191 103.592 257.282 104.015C256.372 104.438 255.663 105.01 255.155 105.729C254.647 106.448 254.393 107.263 254.393 108.173H246.776C246.776 106.819 247.104 105.507 247.76 104.237C248.416 102.968 249.368 101.836 250.617 100.841C251.865 99.8468 253.357 99.064 255.092 98.4927C256.827 97.9214 258.773 97.6357 260.931 97.6357C263.513 97.6357 265.798 98.0695 267.787 98.937C269.797 99.8045 271.373 101.116 272.516 102.873C273.68 104.608 274.262 106.787 274.262 109.411L274.262 124.677C274.262 126.243 274.367 127.65 274.579 128.898C274.812 130.125 275.14 131.194 275.563 132.104L275.563 132.611H267.723C267.364 131.786 267.078 130.739 266.867 129.469C266.676 128.179 266.581 126.93 266.581 125.724ZM267.692 111.728L267.755 116.457H262.264C260.847 116.457 259.598 116.594 258.519 116.869C257.44 117.123 256.541 117.504 255.822 118.012C255.102 118.52 254.563 119.133 254.203 119.853C253.843 120.572 253.663 121.387 253.663 122.296C253.663 123.206 253.875 124.042 254.298 124.804C254.721 125.544 255.335 126.126 256.139 126.549C256.964 126.972 257.959 127.184 259.122 127.184C260.688 127.184 262.053 126.867 263.217 126.232C264.401 125.576 265.332 124.783 266.01 123.852C266.687 122.899 267.046 122 267.089 121.154L269.564 124.55C269.31 125.417 268.877 126.348 268.263 127.343C267.649 128.337 266.845 129.289 265.851 130.199C264.878 131.088 263.703 131.818 262.328 132.389C260.974 132.96 259.408 133.246 257.631 133.246C255.388 133.246 253.388 132.802 251.632 131.913C249.876 131.003 248.501 129.787 247.506 128.263C246.512 126.719 246.014 124.973 246.014 123.026C246.014 121.207 246.353 119.599 247.03 118.202C247.728 116.785 248.744 115.6 250.077 114.647C251.431 113.695 253.082 112.976 255.028 112.489C256.975 111.981 259.196 111.728 261.693 111.728H267.692Z" fill="white"/>
<rect x="30" y="307.367" width="117.366" height="328.626" transform="rotate(-90 30 307.367)" fill="#2FA4DA"/>
<path d="M68.1214 272.611H58.2508L58.3143 266.295H68.1214C70.9778 266.295 73.3688 265.671 75.2942 264.423C77.2409 263.174 78.7008 261.387 79.6741 259.059C80.6686 256.732 81.1658 253.96 81.1658 250.744L81.1658 248.236C81.1658 245.74 80.8802 243.528 80.3089 241.603C79.7588 239.678 78.9336 238.059 77.8333 236.747C76.7542 235.435 75.4212 234.441 73.8343 233.764C72.2685 233.087 70.4594 232.748 68.407 232.748H58.0603L58.0603 226.4H68.407C71.4751 226.4 74.2786 226.919 76.8177 227.956C79.3567 228.971 81.5467 230.442 83.3875 232.367C85.2495 234.293 86.6777 236.599 87.6722 239.286C88.6666 241.973 89.1639 244.978 89.1639 248.3L89.1639 250.744C89.1639 254.066 88.6666 257.07 87.6722 259.757C86.6777 262.444 85.2495 264.751 83.3875 266.676C81.5255 268.581 79.3038 270.051 76.7225 271.088C74.1622 272.104 71.2952 272.611 68.1214 272.611ZM62.6624 226.4L62.6624 272.611H54.6961L54.6961 226.4H62.6624ZM115.761 265.724L115.761 249.347C115.761 248.12 115.538 247.062 115.094 246.173C114.65 245.285 113.973 244.597 113.063 244.11C112.174 243.624 111.053 243.38 109.699 243.38C108.45 243.38 107.371 243.592 106.461 244.015C105.551 244.438 104.843 245.01 104.335 245.729C103.827 246.448 103.573 247.263 103.573 248.173L95.9559 248.173C95.9559 246.819 96.2838 245.507 96.9397 244.237C97.5957 242.968 98.5478 241.836 99.7962 240.841C101.045 239.847 102.536 239.064 104.271 238.493C106.006 237.921 107.953 237.636 110.111 237.636C112.693 237.636 114.978 238.069 116.967 238.937C118.977 239.805 120.553 241.116 121.696 242.873C122.859 244.608 123.441 246.787 123.441 249.411L123.441 264.677C123.441 266.243 123.547 267.65 123.759 268.898C123.991 270.125 124.319 271.194 124.742 272.104L124.742 272.611H116.903C116.543 271.786 116.258 270.739 116.046 269.469C115.856 268.179 115.761 266.93 115.761 265.724ZM116.871 251.728L116.935 256.457H111.444C110.026 256.457 108.778 256.594 107.699 256.869C106.62 257.123 105.721 257.504 105.001 258.012C104.282 258.52 103.742 259.133 103.383 259.853C103.023 260.572 102.843 261.387 102.843 262.296C102.843 263.206 103.055 264.042 103.478 264.804C103.901 265.544 104.515 266.126 105.319 266.549C106.144 266.972 107.138 267.184 108.302 267.184C109.868 267.184 111.233 266.867 112.396 266.232C113.581 265.576 114.512 264.783 115.189 263.852C115.866 262.899 116.226 262 116.268 261.154L118.744 264.55C118.49 265.417 118.056 266.348 117.443 267.343C116.829 268.337 116.025 269.289 115.031 270.199C114.057 271.088 112.883 271.818 111.508 272.389C110.153 272.96 108.588 273.246 106.81 273.246C104.568 273.246 102.568 272.802 100.812 271.913C99.0556 271.003 97.6803 269.787 96.6858 268.263C95.6914 266.719 95.1941 264.973 95.1941 263.026C95.1941 261.207 95.5327 259.599 96.2098 258.202C96.908 256.785 97.9236 255.6 99.2566 254.647C100.611 253.695 102.261 252.976 104.208 252.489C106.154 251.981 108.376 251.728 110.873 251.728H116.871ZM147.181 238.271L147.181 243.856H127.821L127.821 238.271H147.181ZM133.407 229.86H141.056L141.056 263.122C141.056 264.18 141.204 264.994 141.5 265.565C141.818 266.116 142.251 266.486 142.802 266.676C143.352 266.867 143.997 266.962 144.738 266.962C145.267 266.962 145.774 266.93 146.261 266.867C146.748 266.803 147.139 266.74 147.435 266.676L147.467 272.516C146.832 272.707 146.092 272.876 145.245 273.024C144.42 273.172 143.468 273.246 142.389 273.246C140.633 273.246 139.078 272.939 137.723 272.326C136.369 271.691 135.311 270.665 134.55 269.247C133.788 267.829 133.407 265.946 133.407 263.598L133.407 229.86ZM172.445 265.724L172.445 249.347C172.445 248.12 172.223 247.062 171.779 246.173C171.334 245.285 170.657 244.597 169.747 244.11C168.859 243.624 167.737 243.38 166.383 243.38C165.135 243.38 164.056 243.592 163.146 244.015C162.236 244.438 161.527 245.01 161.019 245.729C160.512 246.448 160.258 247.263 160.258 248.173H152.64C152.64 246.819 152.968 245.507 153.624 244.237C154.28 242.968 155.232 241.836 156.481 240.841C157.729 239.847 159.221 239.064 160.956 238.493C162.691 237.921 164.637 237.636 166.796 237.636C169.377 237.636 171.662 238.069 173.651 238.937C175.661 239.805 177.238 241.116 178.38 242.873C179.544 244.608 180.126 246.787 180.126 249.411L180.126 264.677C180.126 266.243 180.232 267.65 180.443 268.898C180.676 270.125 181.004 271.194 181.427 272.104L181.427 272.611H173.588C173.228 271.786 172.942 270.739 172.731 269.469C172.54 268.179 172.445 266.93 172.445 265.724ZM173.556 251.728L173.619 256.457H168.129C166.711 256.457 165.463 256.594 164.384 256.869C163.304 257.123 162.405 257.504 161.686 258.012C160.966 258.52 160.427 259.133 160.067 259.853C159.707 260.572 159.528 261.387 159.528 262.296C159.528 263.206 159.739 264.042 160.162 264.804C160.586 265.544 161.199 266.126 162.003 266.549C162.828 266.972 163.823 267.184 164.987 267.184C166.552 267.184 167.917 266.867 169.081 266.232C170.266 265.576 171.197 264.783 171.874 263.852C172.551 262.899 172.911 262 172.953 261.154L175.429 264.55C175.175 265.417 174.741 266.348 174.127 267.343C173.514 268.337 172.71 269.289 171.715 270.199C170.742 271.088 169.568 271.818 168.192 272.389C166.838 272.96 165.272 273.246 163.495 273.246C161.252 273.246 159.253 272.802 157.496 271.913C155.74 271.003 154.365 269.787 153.37 268.263C152.376 266.719 151.879 264.973 151.879 263.026C151.879 261.207 152.217 259.599 152.894 258.202C153.593 256.785 154.608 255.6 155.941 254.647C157.295 253.695 158.946 252.976 160.892 252.489C162.839 251.981 165.061 251.728 167.557 251.728H173.556ZM234.017 266.295L234.017 272.611H210.817L210.817 266.295H234.017ZM213.038 226.4L213.038 272.611H205.072L205.072 226.4H213.038ZM258.773 265.724L258.773 249.347C258.773 248.12 258.551 247.062 258.107 246.173C257.662 245.285 256.985 244.597 256.075 244.11C255.187 243.624 254.065 243.38 252.711 243.38C251.463 243.38 250.384 243.592 249.474 244.015C248.564 244.438 247.855 245.01 247.347 245.729C246.84 246.448 246.586 247.263 246.586 248.173H238.969C238.969 246.819 239.297 245.507 239.952 244.237C240.608 242.968 241.561 241.836 242.809 240.841C244.057 239.847 245.549 239.064 247.284 238.493C249.019 237.921 250.966 237.636 253.124 237.636C255.705 237.636 257.99 238.069 259.979 238.937C261.989 239.805 263.566 241.116 264.708 242.873C265.872 244.608 266.454 246.787 266.454 249.411L266.454 264.677C266.454 266.243 266.56 267.65 266.771 268.898C267.004 270.125 267.332 271.194 267.755 272.104L267.755 272.611H259.916C259.556 271.786 259.27 270.739 259.059 269.469C258.868 268.179 258.773 266.93 258.773 265.724ZM259.884 251.728L259.948 256.457H254.457C253.039 256.457 251.791 256.594 250.712 256.869C249.633 257.123 248.733 257.504 248.014 258.012C247.295 258.52 246.755 259.133 246.395 259.853C246.036 260.572 245.856 261.387 245.856 262.296C245.856 263.206 246.067 264.042 246.491 264.804C246.914 265.544 247.527 266.126 248.331 266.549C249.157 266.972 250.151 267.184 251.315 267.184C252.881 267.184 254.245 266.867 255.409 266.232C256.594 265.576 257.525 264.783 258.202 263.852C258.879 262.899 259.239 262 259.281 261.154L261.757 264.55C261.503 265.417 261.069 266.348 260.455 267.343C259.842 268.337 259.038 269.289 258.043 270.199C257.07 271.088 255.896 271.818 254.52 272.389C253.166 272.96 251.6 273.246 249.823 273.246C247.58 273.246 245.581 272.802 243.825 271.913C242.068 271.003 240.693 269.787 239.699 268.263C238.704 266.719 238.207 264.973 238.207 263.026C238.207 261.207 238.545 259.599 239.222 258.202C239.921 256.785 240.936 255.6 242.269 254.647C243.624 253.695 245.274 252.976 247.221 252.489C249.167 251.981 251.389 251.728 253.886 251.728H259.884ZM282.164 223.861L282.164 272.611H274.484L274.484 223.861H282.164ZM303.492 238.271L288.544 254.838L280.355 263.217L278.356 256.742L284.545 249.093L294.257 238.271H303.492ZM295.907 272.611L284.767 256.488L289.591 251.125L304.762 272.611H295.907ZM322.853 273.246C320.314 273.246 318.018 272.833 315.966 272.008C313.934 271.162 312.199 269.988 310.761 268.485C309.343 266.983 308.253 265.216 307.492 263.185C306.73 261.154 306.349 258.964 306.349 256.615L306.349 255.346C306.349 252.659 306.74 250.225 307.523 248.046C308.306 245.867 309.396 244.005 310.792 242.46C312.189 240.894 313.839 239.699 315.743 238.874C317.648 238.048 319.711 237.636 321.932 237.636C324.387 237.636 326.534 238.048 328.375 238.874C330.216 239.699 331.74 240.862 332.946 242.365C334.173 243.846 335.083 245.613 335.675 247.665C336.289 249.717 336.596 251.981 336.596 254.457L336.596 257.726H310.062L310.062 252.235L329.042 252.235L329.042 251.632C328.999 250.257 328.724 248.966 328.217 247.76C327.73 246.554 326.979 245.581 325.963 244.84C324.948 244.1 323.593 243.729 321.901 243.729C320.631 243.729 319.499 244.005 318.505 244.555C317.531 245.084 316.717 245.856 316.061 246.872C315.405 247.887 314.897 249.114 314.537 250.553C314.199 251.971 314.03 253.568 314.03 255.346L314.03 256.615C314.03 258.118 314.231 259.514 314.633 260.805C315.056 262.074 315.669 263.185 316.473 264.137C317.277 265.089 318.251 265.84 319.393 266.391C320.536 266.92 321.837 267.184 323.297 267.184C325.138 267.184 326.778 266.814 328.217 266.073C329.655 265.333 330.904 264.285 331.962 262.931L335.992 266.835C335.252 267.914 334.289 268.951 333.104 269.945C331.919 270.919 330.47 271.712 328.756 272.326C327.063 272.939 325.096 273.246 322.853 273.246Z" fill="white"/>
<rect x="30" y="447.367" width="117.366" height="328.626" transform="rotate(-90 30 447.367)" fill="#2FA4DA"/>
<path d="M60.0916 412.611H50.221L50.2845 406.295H60.0916C62.948 406.295 65.339 405.671 67.2645 404.423C69.2111 403.174 70.671 401.387 71.6443 399.059C72.6388 396.732 73.136 393.96 73.136 390.744L73.136 388.236C73.136 385.74 72.8504 383.528 72.2791 381.603C71.729 379.678 70.9038 378.059 69.8035 376.747C68.7244 375.435 67.3914 374.441 65.8045 373.764C64.2387 373.087 62.4297 372.748 60.3772 372.748H50.0306L50.0306 366.4H60.3772C63.4453 366.4 66.2488 366.919 68.7879 367.956C71.327 368.971 73.5169 370.442 75.3577 372.367C77.2197 374.293 78.6479 376.599 79.6424 379.286C80.6368 381.973 81.1341 384.978 81.1341 388.3L81.1341 390.744C81.1341 394.066 80.6368 397.07 79.6424 399.757C78.6479 402.444 77.2197 404.751 75.3577 406.676C73.4957 408.581 71.2741 410.051 68.6927 411.088C66.1325 412.104 63.2654 412.611 60.0916 412.611ZM54.6326 366.4L54.6326 412.611H46.6663L46.6663 366.4H54.6326ZM107.731 405.724L107.731 389.347C107.731 388.12 107.509 387.062 107.064 386.173C106.62 385.285 105.943 384.597 105.033 384.11C104.144 383.624 103.023 383.38 101.669 383.38C100.42 383.38 99.3413 383.592 98.4314 384.015C97.5216 384.438 96.8128 385.01 96.305 385.729C95.7972 386.448 95.5433 387.263 95.5433 388.173H87.9261C87.9261 386.819 88.254 385.507 88.91 384.237C89.5659 382.968 90.518 381.836 91.7664 380.841C93.0148 379.847 94.5065 379.064 96.2415 378.493C97.9765 377.921 99.9231 377.636 102.081 377.636C104.663 377.636 106.948 378.069 108.937 378.937C110.947 379.805 112.523 381.116 113.666 382.873C114.83 384.608 115.411 386.787 115.411 389.411L115.411 404.677C115.411 406.243 115.517 407.65 115.729 408.898C115.962 410.125 116.29 411.194 116.713 412.104L116.713 412.611H108.873C108.514 411.786 108.228 410.739 108.016 409.469C107.826 408.179 107.731 406.93 107.731 405.724ZM108.842 391.728L108.905 396.457H103.414C101.997 396.457 100.748 396.594 99.6692 396.869C98.5901 397.123 97.6909 397.504 96.9715 398.012C96.2521 398.52 95.7125 399.133 95.3528 399.853C94.9931 400.572 94.8133 401.387 94.8133 402.296C94.8133 403.206 95.0249 404.042 95.448 404.804C95.8712 405.544 96.4848 406.126 97.2889 406.549C98.1141 406.972 99.1085 407.184 100.272 407.184C101.838 407.184 103.203 406.867 104.367 406.232C105.551 405.576 106.482 404.783 107.159 403.852C107.837 402.899 108.196 402 108.239 401.154L110.714 404.55C110.46 405.417 110.026 406.348 109.413 407.343C108.799 408.337 107.995 409.289 107.001 410.199C106.027 411.088 104.853 411.818 103.478 412.389C102.124 412.96 100.558 413.246 98.7806 413.246C96.5377 413.246 94.5382 412.802 92.782 411.913C91.0258 411.003 89.6505 409.787 88.6561 408.263C87.6616 406.719 87.1644 404.973 87.1644 403.026C87.1644 401.207 87.5029 399.599 88.18 398.202C88.8782 396.785 89.8938 395.6 91.2269 394.647C92.581 393.695 94.2314 392.976 96.178 392.489C98.1246 391.981 100.346 391.728 102.843 391.728H108.842ZM139.152 378.271L139.152 383.856H119.791L119.791 378.271H139.152ZM125.377 369.86H133.026L133.026 403.122C133.026 404.18 133.174 404.994 133.471 405.565C133.788 406.116 134.222 406.486 134.772 406.676C135.322 406.867 135.967 406.962 136.708 406.962C137.237 406.962 137.745 406.93 138.231 406.867C138.718 406.803 139.109 406.74 139.406 406.676L139.437 412.516C138.803 412.707 138.062 412.876 137.216 413.024C136.39 413.172 135.438 413.246 134.359 413.246C132.603 413.246 131.048 412.939 129.694 412.326C128.339 411.691 127.282 410.665 126.52 409.247C125.758 407.829 125.377 405.946 125.377 403.598L125.377 369.86ZM164.415 405.724L164.415 389.347C164.415 388.12 164.193 387.062 163.749 386.173C163.304 385.285 162.627 384.597 161.718 384.11C160.829 383.624 159.707 383.38 158.353 383.38C157.105 383.38 156.026 383.592 155.116 384.015C154.206 384.438 153.497 385.01 152.99 385.729C152.482 386.448 152.228 387.263 152.228 388.173H144.611C144.611 386.819 144.939 385.507 145.595 384.237C146.25 382.968 147.203 381.836 148.451 380.841C149.699 379.847 151.191 379.064 152.926 378.493C154.661 377.921 156.608 377.636 158.766 377.636C161.347 377.636 163.632 378.069 165.621 378.937C167.631 379.805 169.208 381.116 170.35 382.873C171.514 384.608 172.096 386.787 172.096 389.411L172.096 404.677C172.096 406.243 172.202 407.65 172.413 408.898C172.646 410.125 172.974 411.194 173.397 412.104L173.397 412.611L165.558 412.611C165.198 411.786 164.913 410.739 164.701 409.469C164.511 408.179 164.415 406.93 164.415 405.724ZM165.526 391.728L165.59 396.457H160.099C158.681 396.457 157.433 396.594 156.354 396.869C155.275 397.123 154.375 397.504 153.656 398.012C152.937 398.52 152.397 399.133 152.037 399.853C151.678 400.572 151.498 401.387 151.498 402.296C151.498 403.206 151.709 404.042 152.133 404.804C152.556 405.544 153.169 406.126 153.973 406.549C154.799 406.972 155.793 407.184 156.957 407.184C158.523 407.184 159.887 406.867 161.051 406.232C162.236 405.576 163.167 404.783 163.844 403.852C164.521 402.899 164.881 402 164.923 401.154L167.399 404.55C167.145 405.417 166.711 406.348 166.097 407.343C165.484 408.337 164.68 409.289 163.685 410.199C162.712 411.088 161.538 411.818 160.162 412.389C158.808 412.96 157.242 413.246 155.465 413.246C153.222 413.246 151.223 412.802 149.467 411.913C147.71 411.003 146.335 409.787 145.341 408.263C144.346 406.719 143.849 404.973 143.849 403.026C143.849 401.207 144.187 399.599 144.865 398.202C145.563 396.785 146.578 395.6 147.911 394.647C149.266 393.695 150.916 392.976 152.863 392.489C154.809 391.981 157.031 391.728 159.528 391.728H165.526ZM221.354 400.709C221.354 399.757 221.206 398.911 220.909 398.17C220.634 397.43 220.137 396.753 219.418 396.139C218.698 395.526 217.683 394.933 216.371 394.362C215.08 393.769 213.43 393.166 211.42 392.553C209.219 391.876 207.188 391.125 205.326 390.299C203.485 389.453 201.877 388.48 200.502 387.379C199.126 386.258 198.058 384.978 197.296 383.539C196.534 382.079 196.154 380.397 196.154 378.493C196.154 376.61 196.545 374.896 197.328 373.351C198.132 371.806 199.264 370.473 200.724 369.352C202.205 368.209 203.951 367.331 205.961 366.718C207.971 366.083 210.193 365.766 212.626 365.766C216.054 365.766 219.005 366.4 221.481 367.67C223.978 368.939 225.892 370.643 227.225 372.78C228.58 374.917 229.257 377.276 229.257 379.857H221.354C221.354 378.334 221.026 376.99 220.37 375.827C219.735 374.642 218.762 373.711 217.45 373.034C216.159 372.357 214.519 372.018 212.531 372.018C210.647 372.018 209.082 372.304 207.833 372.875C206.585 373.446 205.654 374.219 205.04 375.192C204.427 376.165 204.12 377.265 204.12 378.493C204.12 379.36 204.321 380.154 204.723 380.873C205.125 381.571 205.739 382.227 206.564 382.841C207.389 383.433 208.426 383.994 209.674 384.523C210.922 385.052 212.393 385.56 214.086 386.046C216.646 386.808 218.878 387.654 220.783 388.585C222.687 389.495 224.274 390.532 225.543 391.696C226.813 392.86 227.765 394.182 228.4 395.663C229.034 397.123 229.352 398.784 229.352 400.646C229.352 402.593 228.96 404.349 228.178 405.915C227.395 407.459 226.273 408.782 224.813 409.882C223.374 410.961 221.639 411.797 219.608 412.389C217.598 412.96 215.355 413.246 212.88 413.246C210.658 413.246 208.468 412.95 206.31 412.357C204.173 411.765 202.226 410.866 200.47 409.66C198.714 408.432 197.317 406.909 196.281 405.089C195.244 403.249 194.725 401.101 194.725 398.646H202.692C202.692 400.149 202.946 401.429 203.453 402.487C203.982 403.545 204.712 404.412 205.643 405.089C206.574 405.745 207.653 406.232 208.881 406.549C210.129 406.867 211.462 407.025 212.88 407.025C214.742 407.025 216.297 406.761 217.545 406.232C218.815 405.703 219.767 404.962 220.402 404.01C221.036 403.058 221.354 401.958 221.354 400.709ZM251.378 378.271L251.378 383.856H232.018L232.018 378.271H251.378ZM237.604 369.86H245.253L245.253 403.122C245.253 404.18 245.401 404.994 245.697 405.565C246.014 406.116 246.448 406.486 246.998 406.676C247.548 406.867 248.194 406.962 248.934 406.962C249.463 406.962 249.971 406.93 250.458 406.867C250.944 406.803 251.336 406.74 251.632 406.676L251.664 412.516C251.029 412.707 250.289 412.876 249.442 413.024C248.617 413.172 247.665 413.246 246.586 413.246C244.83 413.246 243.274 412.939 241.92 412.326C240.566 411.691 239.508 410.665 238.746 409.247C237.985 407.829 237.604 405.946 237.604 403.598L237.604 369.86ZM255.06 395.822L255.06 395.092C255.06 392.616 255.42 390.32 256.139 388.205C256.858 386.068 257.895 384.216 259.249 382.65C260.625 381.063 262.296 379.836 264.264 378.969C266.253 378.08 268.496 377.636 270.992 377.636C273.51 377.636 275.753 378.08 277.721 378.969C279.71 379.836 281.392 381.063 282.767 382.65C284.143 384.216 285.19 386.068 285.909 388.205C286.629 390.32 286.989 392.616 286.989 395.092L286.989 395.822C286.989 398.297 286.629 400.593 285.909 402.709C285.19 404.825 284.143 406.676 282.767 408.263C281.392 409.829 279.721 411.056 277.753 411.945C275.785 412.812 273.553 413.246 271.056 413.246C268.538 413.246 266.285 412.812 264.296 411.945C262.328 411.056 260.656 409.829 259.281 408.263C257.906 406.676 256.858 404.825 256.139 402.709C255.42 400.593 255.06 398.297 255.06 395.822ZM262.709 395.092L262.709 395.822C262.709 397.366 262.867 398.826 263.185 400.202C263.502 401.577 263.999 402.783 264.677 403.82C265.354 404.857 266.221 405.671 267.279 406.264C268.337 406.856 269.596 407.152 271.056 407.152C272.474 407.152 273.701 406.856 274.738 406.264C275.796 405.671 276.663 404.857 277.34 403.82C278.017 402.783 278.514 401.577 278.832 400.202C279.17 398.826 279.34 397.366 279.34 395.822L279.34 395.092C279.34 393.568 279.17 392.13 278.832 390.775C278.514 389.4 278.007 388.183 277.308 387.125C276.631 386.068 275.764 385.242 274.706 384.65C273.669 384.036 272.431 383.729 270.992 383.729C269.554 383.729 268.305 384.036 267.247 384.65C266.211 385.242 265.354 386.068 264.677 387.125C263.999 388.183 263.502 389.4 263.185 390.775C262.867 392.13 262.709 393.568 262.709 395.092ZM301.08 384.809L301.08 412.611H293.431L293.431 378.271H300.731L301.08 384.809ZM311.586 378.048L311.522 385.158C311.057 385.073 310.549 385.01 309.999 384.967C309.47 384.925 308.941 384.904 308.412 384.904C307.1 384.904 305.947 385.094 304.952 385.475C303.958 385.835 303.122 386.364 302.445 387.062C301.789 387.739 301.281 388.564 300.922 389.538C300.562 390.511 300.35 391.601 300.287 392.807L298.541 392.934C298.541 390.775 298.753 388.776 299.176 386.935C299.599 385.094 300.234 383.476 301.08 382.079C301.948 380.683 303.027 379.593 304.318 378.81C305.63 378.027 307.142 377.636 308.856 377.636C309.322 377.636 309.819 377.678 310.348 377.763C310.898 377.847 311.311 377.943 311.586 378.048ZM330.883 413.246C328.344 413.246 326.048 412.833 323.995 412.008C321.964 411.162 320.229 409.988 318.79 408.485C317.373 406.983 316.283 405.216 315.521 403.185C314.76 401.154 314.379 398.964 314.379 396.615L314.379 395.346C314.379 392.659 314.77 390.225 315.553 388.046C316.336 385.867 317.426 384.005 318.822 382.46C320.219 380.894 321.869 379.699 323.773 378.874C325.678 378.048 327.741 377.636 329.962 377.636C332.417 377.636 334.564 378.048 336.405 378.874C338.246 379.699 339.769 380.862 340.975 382.365C342.203 383.846 343.112 385.613 343.705 387.665C344.319 389.717 344.625 391.981 344.625 394.457L344.625 397.726L318.092 397.726L318.092 392.235H337.072L337.072 391.632C337.029 390.257 336.754 388.966 336.246 387.76C335.76 386.554 335.009 385.581 333.993 384.84C332.977 384.1 331.623 383.729 329.93 383.729C328.661 383.729 327.529 384.005 326.534 384.555C325.561 385.084 324.747 385.856 324.091 386.872C323.435 387.887 322.927 389.114 322.567 390.553C322.229 391.971 322.059 393.568 322.059 395.346L322.059 396.615C322.059 398.118 322.26 399.514 322.662 400.805C323.086 402.074 323.699 403.185 324.503 404.137C325.307 405.089 326.281 405.84 327.423 406.391C328.566 406.92 329.867 407.184 331.327 407.184C333.168 407.184 334.808 406.814 336.246 406.073C337.685 405.333 338.934 404.285 339.992 402.931L344.022 406.835C343.282 407.914 342.319 408.951 341.134 409.945C339.949 410.919 338.5 411.712 336.786 412.326C335.093 412.939 333.125 413.246 330.883 413.246Z" fill="white"/>
<path d="M476 250L426 221.132V278.868L476 250ZM371 255H431V245H371V255Z" fill="#2FA4DA"/>
<path d="M460.623 308.877L404.855 323.82L445.68 364.645L460.623 308.877ZM389.912 386.659L432.339 344.232L425.268 337.161L382.841 379.588L389.912 386.659Z" fill="#2FA4DA"/>
<path d="M460.623 187.123L445.68 131.355L404.855 172.18L460.623 187.123ZM382.841 116.412L425.268 158.839L432.339 151.768L389.912 109.341L382.841 116.412Z" fill="#2FA4DA"/>
<path d="M1825 250L1775 221.132V278.868L1825 250ZM1720 255H1780V245H1720V255Z" fill="#2FA4DA"/>
<path d="M877 250L827 221.132V278.868L877 250ZM795 255H832V245H795V255Z" fill="#2FA4DA"/>
<path d="M1397 250L1347 221.132V278.868L1397 250ZM1315 255H1352V245H1315V255Z" fill="#2FA4DA"/>
<path d="M998 483L963.359 543L1032.64 543L998 483ZM1004 612L1004 537L992 537L992 612L1004 612Z" fill="#D07839"/>
<path fill-rule="evenodd" clip-rule="evenodd" d="M1131.96 588C1108.7 588 1061.43 600.38 1053.16 632.48C1053.03 632.727 1052.79 633.619 1052.52 634.994C1037.55 625.844 1019.96 620.523 1001.15 620.523C981.516 620.523 963.264 626.325 947.889 636.215C947.572 634.207 947.184 632.797 947.031 632.48C938.762 600.38 891.499 588.035 868.219 588.023C864.519 588.023 861.454 588.341 859.21 588.928C846.725 590.666 833.053 595.658 834.052 598.383C843.213 596.821 847.841 598.606 847.7 600.086C847.418 602.858 841.898 603.598 843.671 613.593C847.019 608.743 851.682 607.075 855.346 606.299C859.105 629.896 875.548 671.088 906.321 673.225C908.964 673.413 911.431 673.401 913.756 673.354C906.498 687.12 902.375 702.8 902.375 719.444C902.375 774.025 946.62 837.274 1001.15 837.274C1055.68 837.274 1099.98 774.025 1099.98 719.444C1099.98 702.812 1095.85 687.167 1088.59 673.413C1090.27 673.402 1092.04 673.354 1093.87 673.225C1124.54 671.099 1140.98 630.143 1144.81 606.523C1148.31 607.38 1152.49 609.142 1155.56 613.593C1157.33 603.598 1151.81 602.858 1151.53 600.086C1151.39 598.606 1156.02 596.821 1165.18 598.383C1166.13 595.799 1153.93 591.183 1142.02 589.222C1139.75 588.423 1136.27 588 1131.96 588Z" fill="url(#paint0_linear_943_6)" stroke="black" stroke-width="3" stroke-linejoin="round"/>
<path d="M997.709 711.518C997.709 720.086 994.308 728.303 988.255 734.362C982.202 740.42 973.992 743.824 965.432 743.824C956.872 743.824 948.662 740.42 942.609 734.362C936.556 728.303 933.155 720.086 933.155 711.518C933.155 702.95 936.556 694.733 942.609 688.675C948.662 682.616 956.872 679.212 965.432 679.212C973.992 679.212 982.202 682.616 988.255 688.675C994.308 694.733 997.709 702.95 997.709 711.518Z" fill="white" stroke="black" stroke-width="3.00002" stroke-linecap="round" stroke-linejoin="round"/>
<path d="M1069.19 711.518C1069.19 720.086 1065.79 728.303 1059.74 734.362C1053.69 740.42 1045.48 743.824 1036.92 743.824C1028.35 743.824 1020.14 740.42 1014.09 734.362C1008.04 728.303 1004.64 720.086 1004.64 711.518C1004.64 702.95 1008.04 694.733 1014.09 688.675C1020.14 682.616 1028.35 679.212 1036.92 679.212C1045.48 679.212 1053.69 682.616 1059.74 688.675C1065.79 694.733 1069.19 702.95 1069.19 711.518Z" fill="white" stroke="black" stroke-width="3.00002" stroke-linecap="round" stroke-linejoin="round"/>
<path d="M987.709 715.443C987.71 716.814 987.442 718.171 986.918 719.438C986.395 720.705 985.627 721.857 984.659 722.827C983.691 723.797 982.541 724.566 981.276 725.091C980.01 725.616 978.654 725.886 977.284 725.886C975.914 725.886 974.558 725.616 973.292 725.091C972.027 724.566 970.877 723.797 969.909 722.827C968.941 721.857 968.173 720.705 967.65 719.438C967.126 718.171 966.858 716.814 966.859 715.443C966.858 714.071 967.126 712.714 967.65 711.447C968.173 710.18 968.941 709.028 969.909 708.058C970.877 707.089 972.027 706.319 973.292 705.794C974.558 705.269 975.914 704.999 977.284 704.999C978.654 704.999 980.01 705.269 981.276 705.794C982.541 706.319 983.691 707.089 984.659 708.058C985.627 709.028 986.395 710.18 986.918 711.447C987.442 712.714 987.71 714.071 987.709 715.443Z" fill="black"/>
<path d="M1035.4 715.443C1035.4 716.814 1035.13 718.171 1034.61 719.438C1034.08 720.705 1033.31 721.857 1032.35 722.827C1031.38 723.797 1030.23 724.566 1028.96 725.091C1027.7 725.616 1026.34 725.886 1024.97 725.886C1023.6 725.886 1022.24 725.616 1020.98 725.091C1019.71 724.566 1018.56 723.797 1017.6 722.827C1016.63 721.857 1015.86 720.705 1015.34 719.438C1014.81 718.171 1014.54 716.814 1014.55 715.443C1014.54 714.071 1014.81 712.714 1015.34 711.447C1015.86 710.18 1016.63 709.028 1017.6 708.058C1018.56 707.089 1019.71 706.319 1020.98 705.794C1022.24 705.269 1023.6 704.999 1024.97 704.999C1026.34 704.999 1027.7 705.269 1028.96 705.794C1030.23 706.319 1031.38 707.089 1032.35 708.058C1033.31 709.028 1034.08 710.18 1034.61 711.447C1035.13 712.714 1035.4 714.071 1035.4 715.443Z" fill="black"/>
<path fill-rule="evenodd" clip-rule="evenodd" d="M984.487 773.496C989.749 767.87 1012.1 766.649 1016.78 774.189C1021.45 781.742 1009.76 797.387 1000.63 796.682C991.535 795.977 979.554 778.747 984.487 773.496Z" fill="black"/>
<path fill-rule="evenodd" clip-rule="evenodd" d="M925.702 658.814C922.237 608.637 870.604 597.209 868.114 603.164C865.635 609.13 877.545 676.209 925.702 658.814Z" fill="#74401B" stroke="black" stroke-width="3" stroke-linejoin="round"/>
<path fill-rule="evenodd" clip-rule="evenodd" d="M1072.85 658.814C1076.31 608.637 1127.95 597.209 1130.44 603.164C1132.92 609.13 1120.99 676.209 1072.85 658.814Z" fill="url(#paint1_linear_943_6)" stroke="black" stroke-width="3" stroke-linejoin="round"/>
<path d="M1092.19 681.166C1093.99 688.612 1094.95 696.411 1094.95 704.398C1094.95 758.979 1050.66 822.205 996.127 822.205C956.381 822.205 922.143 788.601 906.474 749.242C918.607 794.686 956.404 837.298 1001.15 837.298C1055.69 837.298 1099.98 774.025 1099.98 719.444C1099.98 705.866 1097.21 692.946 1092.24 681.166H1092.19Z" fill="black" fill-opacity="0.31373"/>
<rect x="392" y="860" width="350" height="177" rx="15" stroke="#D07839" stroke-width="10"/>
<path d="M526.833 964.883C526.833 963.997 526.702 963.203 526.442 962.5C526.182 961.771 525.7 961.094 524.997 960.469C524.294 959.844 523.278 959.219 521.95 958.594C520.648 957.943 518.929 957.266 516.794 956.562C514.294 955.729 511.885 954.792 509.567 953.75C507.249 952.682 505.179 951.445 503.356 950.039C501.533 948.607 500.088 946.94 499.02 945.039C497.952 943.112 497.419 940.872 497.419 938.32C497.419 935.872 497.965 933.672 499.059 931.719C500.153 929.74 501.676 928.06 503.63 926.68C505.609 925.273 507.926 924.206 510.583 923.477C513.239 922.721 516.143 922.344 519.294 922.344C523.46 922.344 527.132 923.073 530.309 924.531C533.512 925.964 536.012 928.008 537.809 930.664C539.632 933.294 540.544 936.406 540.544 940H526.911C526.911 938.568 526.611 937.305 526.012 936.211C525.439 935.117 524.567 934.258 523.395 933.633C522.223 933.008 520.752 932.695 518.981 932.695C517.262 932.695 515.817 932.956 514.645 933.477C513.473 933.997 512.588 934.701 511.989 935.586C511.39 936.445 511.09 937.396 511.09 938.438C511.09 939.297 511.325 940.078 511.794 940.781C512.288 941.458 512.978 942.096 513.864 942.695C514.775 943.294 515.869 943.867 517.145 944.414C518.447 944.961 519.906 945.495 521.52 946.016C524.541 946.979 527.223 948.06 529.567 949.258C531.937 950.43 533.929 951.771 535.544 953.281C537.184 954.766 538.421 956.458 539.255 958.359C540.114 960.26 540.544 962.409 540.544 964.805C540.544 967.357 540.049 969.622 539.059 971.602C538.07 973.581 536.65 975.26 534.801 976.641C532.952 977.995 530.739 979.023 528.161 979.727C525.583 980.43 522.705 980.781 519.528 980.781C516.611 980.781 513.734 980.417 510.895 979.688C508.083 978.932 505.531 977.786 503.239 976.25C500.947 974.688 499.111 972.695 497.731 970.273C496.377 967.826 495.7 964.922 495.7 961.562H509.45C509.45 963.229 509.671 964.635 510.114 965.781C510.557 966.927 511.208 967.852 512.067 968.555C512.926 969.232 513.981 969.727 515.231 970.039C516.481 970.326 517.913 970.469 519.528 970.469C521.273 970.469 522.679 970.221 523.747 969.727C524.814 969.206 525.596 968.529 526.09 967.695C526.585 966.836 526.833 965.898 526.833 964.883ZM579.333 970.625L595.192 983.203L586.676 990.391L571.09 977.812L579.333 970.625ZM595.856 950.43V952.734C595.856 957.083 595.244 960.99 594.02 964.453C592.822 967.891 591.103 970.833 588.864 973.281C586.65 975.703 584.033 977.565 581.012 978.867C577.992 980.143 574.658 980.781 571.012 980.781C567.34 980.781 563.981 980.143 560.934 978.867C557.913 977.565 555.283 975.703 553.044 973.281C550.83 970.833 549.111 967.891 547.887 964.453C546.689 960.99 546.09 957.083 546.09 952.734V950.43C546.09 946.081 546.689 942.174 547.887 938.711C549.111 935.247 550.817 932.305 553.005 929.883C555.218 927.435 557.835 925.573 560.856 924.297C563.903 922.995 567.262 922.344 570.934 922.344C574.58 922.344 577.913 922.995 580.934 924.297C583.981 925.573 586.611 927.435 588.825 929.883C591.064 932.305 592.796 935.247 594.02 938.711C595.244 942.174 595.856 946.081 595.856 950.43ZM581.911 952.734V950.352C581.911 947.539 581.663 945.065 581.169 942.93C580.7 940.768 579.997 938.958 579.059 937.5C578.122 936.042 576.963 934.948 575.583 934.219C574.228 933.464 572.679 933.086 570.934 933.086C569.111 933.086 567.523 933.464 566.169 934.219C564.814 934.948 563.682 936.042 562.77 937.5C561.859 938.958 561.169 940.768 560.7 942.93C560.257 945.065 560.036 947.539 560.036 950.352V952.734C560.036 955.521 560.257 957.995 560.7 960.156C561.169 962.292 561.859 964.102 562.77 965.586C563.708 967.07 564.853 968.19 566.208 968.945C567.588 969.701 569.189 970.078 571.012 970.078C572.757 970.078 574.307 969.701 575.661 968.945C577.015 968.19 578.148 967.07 579.059 965.586C579.997 964.102 580.7 962.292 581.169 960.156C581.663 957.995 581.911 955.521 581.911 952.734ZM640.426 969.453V980H611.676V969.453H640.426ZM616.559 923.125V980H602.848V923.125H616.559Z" fill="#D07839"/>
<rect x="1267" y="860" width="350" height="177" rx="15" stroke="#D07839" stroke-width="10"/>
<path d="M1402.51 935.078L1388.64 980H1373.91L1394.81 923.125H1404.15L1402.51 935.078ZM1413.99 980L1400.09 935.078L1398.29 923.125H1407.74L1428.76 980H1413.99ZM1413.45 958.789V969.375H1384.27V958.789H1413.45ZM1455.63 960.703H1441.49V950.117H1455.63C1457.56 950.117 1459.12 949.792 1460.32 949.141C1461.52 948.49 1462.39 947.591 1462.94 946.445C1463.51 945.273 1463.8 943.958 1463.8 942.5C1463.8 940.938 1463.51 939.492 1462.94 938.164C1462.39 936.836 1461.52 935.768 1460.32 934.961C1459.12 934.128 1457.56 933.711 1455.63 933.711H1446.65V980H1432.94V923.125H1455.63C1460.19 923.125 1464.11 923.958 1467.39 925.625C1470.7 927.292 1473.24 929.583 1475.01 932.5C1476.78 935.391 1477.66 938.698 1477.66 942.422C1477.66 946.094 1476.78 949.297 1475.01 952.031C1473.24 954.766 1470.7 956.901 1467.39 958.438C1464.11 959.948 1460.19 960.703 1455.63 960.703ZM1499.62 923.125V980H1485.95V923.125H1499.62Z" fill="#D07839"/>
<path d="M1000 951L1000 956L1005 956L1005 951L1000 951ZM1000 846L971.132 896L1028.87 896L1000 846ZM741 956L1000 956L1000 946L741 946L741 956ZM1005 951L1005 891L995 891L995 951L1005 951Z" fill="#D07839"/>
<line x1="1002" y1="951.5" x2="1262" y2="951.5" stroke="#D07839" stroke-width="10"/>
<g clip-path="url(#clip0_943_6)">
<path fill-rule="evenodd" clip-rule="evenodd" d="M1902.08 182.16C1878.71 182.384 1859.82 201.371 1859.69 224.81C1880 219.568 1894.92 203.679 1902.08 182.16ZM1902.5 267.947C1884.73 267.947 1869.49 257.104 1863.02 241.663C1891.26 234.777 1910.61 212.65 1919.01 185.463C1934.46 191.937 1945.31 207.225 1945.31 225.053C1945.31 248.743 1926.14 267.947 1902.5 267.947ZM1962.43 225.749C1962.44 225.518 1962.44 225.285 1962.44 225.053C1962.44 191.887 1935.6 165 1902.5 165C1869.4 165 1842.56 191.887 1842.56 225.053C1842.56 225.283 1842.56 225.512 1842.57 225.742C1842.56 225.814 1842.56 225.887 1842.56 225.959C1842.52 233.146 1842.54 243.975 1842.55 254.197C1842.56 259.07 1842.56 263.811 1842.56 267.947C1842.56 272.686 1846.4 276.526 1851.12 276.526H1863.82C1845.35 285.812 1834 301.691 1834 319.421C1834 324.159 1837.83 328 1842.56 328C1847.29 328 1851.12 324.159 1851.12 319.421C1851.12 304.58 1867.66 285.105 1902.5 285.105C1937.34 285.105 1953.88 304.58 1953.88 319.421C1953.88 324.159 1957.71 328 1962.44 328C1967.17 328 1971 324.159 1971 319.421C1971 301.691 1959.65 285.812 1941.18 276.526H1953.88C1958.6 276.526 1962.44 272.686 1962.44 267.947C1962.44 263.808 1962.44 259.069 1962.45 254.192V254.179C1962.46 243.962 1962.48 233.142 1962.44 225.959C1962.44 225.888 1962.44 225.819 1962.43 225.749Z" fill="#D07839"/>
</g>
<rect x="3" y="22" width="1738" height="451" stroke="#2FA4DA" stroke-width="6"/>
<defs>
<linearGradient id="paint0_linear_943_6" x1="831.665" y1="712.637" x2="1167.57" y2="712.637" gradientUnits="userSpaceOnUse">
<stop stop-color="#D07839"/>
</linearGradient>
<linearGradient id="paint1_linear_943_6" x1="1146.92" y1="635.279" x2="1190.35" y2="635.279" gradientUnits="userSpaceOnUse">
<stop stop-color="#74401B"/>
</linearGradient>
<clipPath id="clip0_943_6">
<rect width="137" height="163" fill="white" transform="translate(1834 165)"/>
</clipPath>
</defs>
</svg>
