<?xml version="1.0" encoding="UTF-8" standalone="no"?>
<svg
   data-name="Layer 1"
   width="844.67538"
   height="595.26155"
   viewBox="0 0 844.67538 595.26155"
   version="1.1"
   id="svg914"
   sodipodi:docname="undraw_questions_sqrl.svg"
   inkscape:version="1.1.1 (c3084ef, 2021-09-22)"
   xmlns:inkscape="http://www.inkscape.org/namespaces/inkscape"
   xmlns:sodipodi="http://sodipodi.sourceforge.net/DTD/sodipodi-0.dtd"
   xmlns:xlink="http://www.w3.org/1999/xlink"
   xmlns="http://www.w3.org/2000/svg"
   xmlns:svg="http://www.w3.org/2000/svg">
  <defs
     id="defs918">
    <linearGradient
       id="linearGradient2009"
       inkscape:swatch="solid"
       gradientTransform="matrix(0.03284317,0.14042683,0.44828622,-0.13691972,-167.10138,521.16337)">
      <stop
         style="stop-color:#74401b;stop-opacity:1;"
         offset="0"
         id="stop2007" />
    </linearGradient>
    <linearGradient
       id="linearGradient2069"
       inkscape:swatch="solid"
       gradientTransform="matrix(0.38152652,0.10207337,-0.10249719,0.3819541,-553.68872,176.12558)">
      <stop
         style="stop-color:#d07839;stop-opacity:1;"
         offset="0"
         id="stop2067" />
    </linearGradient>
    <linearGradient
       inkscape:collect="always"
       xlink:href="#linearGradient2069"
       id="linearGradient2071"
       x1="162.51797"
       y1="416.035"
       x2="448.50153"
       y2="416.035"
       gradientUnits="userSpaceOnUse"
       gradientTransform="translate(-203.65878,-35.588906)" />
    <linearGradient
       inkscape:collect="always"
       xlink:href="#linearGradient2069"
       id="linearGradient2083"
       x1="269.20129"
       y1="561.96002"
       x2="515.17871"
       y2="561.96002"
       gradientUnits="userSpaceOnUse"
       gradientTransform="matrix(1.3428,0,0,1.344,-423.89878,-181.64891)" />
    <linearGradient
       inkscape:collect="always"
       xlink:href="#linearGradient2069"
       id="linearGradient2077"
       x1="202.81"
       y1="467.85501"
       x2="564.1795"
       y2="467.85501"
       gradientUnits="userSpaceOnUse"
       gradientTransform="translate(-203.65878,-35.588906)" />
  </defs>
  <sodipodi:namedview
     id="namedview916"
     pagecolor="#ffffff"
     bordercolor="#666666"
     borderopacity="1.0"
     inkscape:pageshadow="2"
     inkscape:pageopacity="0.0"
     inkscape:pagecheckerboard="0"
     showgrid="false"
     inkscape:zoom="1.0533185"
     inkscape:cx="421.99961"
     inkscape:cy="449.53164"
     inkscape:window-width="1440"
     inkscape:window-height="855"
     inkscape:window-x="0"
     inkscape:window-y="23"
     inkscape:window-maximized="1"
     inkscape:current-layer="svg914" />
  <circle
     cx="431.39281"
     cy="548"
     r="46"
     fill="#2fa4da"
     id="circle824" />
  <path
     d="M883.86176,743.78487c25.7345-7.72868,53.09381-15.78786,73.50313-34.161,18.23763-16.41813,30.55024-41.48912,22.99475-66.1115-7.54-24.57187-30.12421-40.95629-53.44165-49.10532-13.225-4.62188-27.06087-7.18608-40.89147-9.20037-15.03485-2.18967-30.13615-3.98373-45.23026-5.71012q-91.67724-10.48563-184.04386-12.811c-30.38456-.76525-60.76358-.74682-91.15243-.3057-27.13937.394-55.72215.38417-80.899-11.15051-19.57846-8.96979-37.348-25.28881-42.8033-46.73352-6.29728-24.75467,5.318-49.96382,21.97993-67.892,8.78265-9.45011,19.04731-17.40385,29.63621-24.71743,11.4874-7.93416,23.37539-15.30643,35.52084-22.18813a494.63414,494.63414,0,0,1,74.7667-34.4685c12.74555-4.63445,25.68047-8.63281,38.72759-12.32143,11.017-3.11469,22.06832-6.23382,32.71588-10.47748,20.58349-8.20371,40.161-22.09985,45.39464-44.88142,4.96024-21.59145-3.40305-45.03067-18.065-61.07057-16.96282-18.557-42.53949-26.69181-67.06007-28.008-27.52842-1.47765-54.42246,5.412-80.29678,14.15585-27.59673,9.326-54.59854,20.04924-82.77827,27.60322a556.95783,556.95783,0,0,1-85.19574,15.83655c-14.08227,1.49951-28.59019,3.19273-42.75626,2.04475-11.87246-.96211-23.68426-4.45375-32.43408-12.87964-7.50252-7.22477-11.97184-17.154-10.4353-27.63238.27909-1.90318,3.17022-1.09407,2.89284.79752-1.8704,12.75513,6.79991,24.50863,17.48415,30.5293,12.34817,6.95832,27.37408,6.9678,41.1218,6.172a537.82528,537.82528,0,0,0,88.51452-12.79561c28.59252-6.53059,56.16382-15.86633,83.70391-25.83908,26.15594-9.47153,52.89665-18.71579,80.84009-20.76729,24.24611-1.78007,49.75165,1.75222,70.87426,14.42313,18.56387,11.136,32.21482,29.70722,36.56451,51.01813,4.25044,20.82462-1.63632,41.785-17.4,56.31714-16.32147,15.04633-38.7007,21.47909-59.55655,27.40368-26.45223,7.51437-52.33726,16.29809-77.39248,27.7031a485.82354,485.82354,0,0,0-72.8001,40.92805c-22.24625,15.20228-44.2007,34.33058-51.23658,61.45126-3.27739,12.63313-2.67227,26.03212,2.8116,37.96461,4.87605,10.60993,12.90656,19.53469,22.26169,26.41853,22.32074,16.42443,50.45266,19.79665,77.41421,20.13212,30.28143.37678,60.56382-.64518,90.85508-.148q92.5988,1.51977,184.81863,11.27265,23.108,2.44594,46.15759,5.40711c13.82158,1.776,27.68967,3.54058,41.27849,6.69464,24.16222,5.60822,47.67389,16.39167,62.69178,36.878a61.31938,61.31938,0,0,1,11.94709,30.44593c1.05134,11.52384-1.76985,23.0693-6.98016,33.32083-11.53233,22.69042-33.13363,37.12286-56.07337,46.60471-12.28683,5.0786-25.03167,8.926-37.7516,12.74609-1.853.55651-2.64487-2.338-.79752-2.89283Z"
     transform="translate(-177.66231 -152.36922)"
     fill="#f2f2f2"
     id="path826" />
  <circle
     cx="125.89281"
     cy="69.5"
     r="24"
     fill="#f2f2f2"
     id="circle828" />
  <circle
     cx="292.39281"
     cy="115"
     r="24"
     fill="#f2f2f2"
     id="circle830" />
  <circle
     cx="433.39281"
     cy="24"
     r="24"
     fill="#f2f2f2"
     id="circle832" />
  <circle
     cx="521.39281"
     cy="126"
     r="24"
     fill="#f2f2f2"
     id="circle834" />
  <circle
     cx="402.39281"
     cy="244"
     r="24"
     fill="#f2f2f2"
     id="circle836" />
  <circle
     cx="251.39281"
     cy="301"
     r="24"
     fill="#f2f2f2"
     id="circle838" />
  <circle
     cx="411.39281"
     cy="390"
     r="24"
     fill="#f2f2f2"
     id="circle840" />
  <circle
     cx="583.39281"
     cy="440"
     r="24"
     fill="#f2f2f2"
     id="circle842" />
  <circle
     cx="784.39281"
     cy="429"
     r="24"
     fill="#f2f2f2"
     id="circle844" />
  <path
     d="M604.12763,220.37264c-71.89185.50782-130.75611,58.92987-131.77735,130.81635-.00946.66369-.01381,5.33048-.01324,11.43422a33.74778,33.74778,0,0,0,33.74387,33.746h.00007a33.76855,33.76855,0,0,0,33.76114-33.79775c-.00343-4.15211-.00551-7.02584-.00551-7.20227a64.00037,64.00037,0,1,1,98.52027,53.8794l.01171.01422s-48.02832,30.91956-62.67089,73.33545l.01245.003a94.00389,94.00389,0,0,0-3.87354,26.76794c0,3.72538.21916,36.32138.64261,62.77767a34.78649,34.78649,0,0,0,34.79009,34.22233h.00007a34.79588,34.79588,0,0,0,34.79384-35.01061c-.14706-24.22912-.22661-52.44168-.22661-54.48939,0-26.04473,25.12525-51.99475,45.76367-68.91741,23.76587-19.48694,40.86792-46.04291,47.73706-75.99909a86.7618,86.7618,0,0,0,2.49927-18.8335A132.75,132.75,0,0,0,604.12763,220.37264Z"
     transform="translate(-177.66231 -152.36922)"
     fill="#2fa4da"
     id="path846" />
  <path
     d="M1021.147,747.63078H178.853a1.19069,1.19069,0,0,1,0-2.38137h842.294a1.19068,1.19068,0,0,1,0,2.38137Z"
     transform="translate(-177.66231 -152.36922)"
     fill="#3f3d56"
     id="path848" />
  <circle
     cx="628.44885"
     cy="242.9959"
     r="30"
     fill="#2f2e41"
     id="circle850" />
  <polygon
     points="573.012 582.129 560.753 582.129 554.92 534.841 573.015 534.841 573.012 582.129"
     fill="#a0616a"
     id="polygon852" />
  <path
     d="M551.99554,578.62562h23.64387a0,0,0,0,1,0,0v14.88687a0,0,0,0,1,0,0H537.10868a0,0,0,0,1,0,0v0A14.88686,14.88686,0,0,1,551.99554,578.62562Z"
     fill="#2f2e41"
     id="path854" />
  <polygon
     points="668.012 582.129 655.753 582.129 649.92 534.841 668.015 534.841 668.012 582.129"
     fill="#a0616a"
     id="polygon856" />
  <path
     d="M646.99554,578.62562h23.64387a0,0,0,0,1,0,0v14.88687a0,0,0,0,1,0,0H632.10868a0,0,0,0,1,0,0v0A14.88686,14.88686,0,0,1,646.99554,578.62562Z"
     fill="#2f2e41"
     id="path858" />
  <circle
     cx="623.88979"
     cy="248.61007"
     r="24.56103"
     fill="#a0616a"
     id="circle860" />
  <path
     d="M816.19123,504.7751l10.98975-25.25a31.38253,31.38253,0,0,0-6.94971-35.6,31.87322,31.87322,0,0,0-3.07031-2.67,30.93522,30.93522,0,0,0-18.98975-6.57,32.179,32.179,0,0,0-13.3999,2.98c-.36035.16-.71.33-1.07031.5-.68994.33-1.36963.69-2.02979,1.06a31.67823,31.67823,0,0,0-15.70019,23.88l-4.8501,40.64c-1.21973,3.19-44.73975,118.39-29.51953,206.34a4.46692,4.46692,0,0,0,3.81982,3.67l15.43018,2.1a4.49661,4.49661,0,0,0,5.00976-3.53l25.89014-123.41a3.50323,3.50323,0,0,1,6.79981-.23l36.58007,129.78a4.47129,4.47129,0,0,0,4.31006,3.28,5.12184,5.12184,0,0,0,.87012-.08l18.84961-3.63a4.471,4.471,0,0,0,3.63037-4.81C850.02131,682.3351,835.3011,527.60512,816.19123,504.7751Z"
     transform="translate(-177.66231 -152.36922)"
     fill="#2f2e41"
     id="path862" />
  <path
     d="M706.10166,421.41909A10.05576,10.05576,0,0,0,716.696,432.6225l13.72894,32.99236,10.385-15.3943-14.62937-28.97a10.11027,10.11027,0,0,0-20.07892.16852Z"
     transform="translate(-177.66231 -152.36922)"
     fill="#a0616a"
     id="path864" />
  <path
     d="M800.19025,537.99553a10.05577,10.05577,0,0,0,8.42651-12.91316l28.88533-21.03846-17.39036-6.51224-24.76387,20.97687a10.11028,10.11028,0,0,0,4.84239,19.487Z"
     transform="translate(-177.66231 -152.36922)"
     fill="#a0616a"
     id="path866" />
  <path
     d="M753.10188,487.61024a17.05692,17.05692,0,0,1-3.29834-.32519,16.30539,16.30539,0,0,1-11.94751-9.61621l-19.23438-23.45313a4.50075,4.50075,0,0,1,1.11109-6.68066l13.68432-8.4707a4.50007,4.50007,0,0,1,6.21533,1.49023l13.5564,22.334L779.15022,443.702A9.72146,9.72146,0,0,1,790.46,459.26356l-25.91186,23.63672A16.25271,16.25271,0,0,1,753.10188,487.61024Z"
     transform="translate(-177.66231 -152.36922)"
     fill="#2f2e41"
     id="path868" />
  <path
     d="M823.252,522.8827c-.03515,0-.07055,0-.10571-.001a4.50783,4.50783,0,0,1-3.31079-1.57031l-12.16626-14.19336a4.49979,4.49979,0,0,1,.92041-6.67286l22.78149-15.1875-20.63842-24.8125a9.721,9.721,0,0,1,14.8872-12.18261l25.0835,24.51269a16.52481,16.52481,0,0,1-3.67529,26.94043l-20.50122,21.75391A4.50742,4.50742,0,0,1,823.252,522.8827Z"
     transform="translate(-177.66231 -152.36922)"
     fill="#2f2e41"
     id="path870" />
  <path
     d="M795.30707,470.58358a4.63212,4.63212,0,0,1-.584-.03711,4.46111,4.46111,0,0,1-3.71045-3.06885l-9.14234-28.02929a3.08255,3.08255,0,0,1,1.594-3.72461l.29663-.14014c.269-.12793.5354-.25439.80737-.37549a32.57412,32.57412,0,0,1,13.603-3.023,31.327,31.327,0,0,1,17.16138,5.15674,3.13007,3.13007,0,0,1,.90136,4.29443L799.08393,468.504A4.45513,4.45513,0,0,1,795.30707,470.58358Z"
     transform="translate(-177.66231 -152.36922)"
     fill="#e6e6e6"
     id="path872" />
  <circle
     cx="652.1011"
     cy="219.78616"
     r="9.81668"
     fill="#2f2e41"
     id="circle874" />
  <path
     d="M796.11115,361.36513h0a26,26,0,0,0-26,25.99994v11.00006h13.5293l6.4707-11,1.94141,11h41.05859l-11-11.00006A26,26,0,0,0,796.11115,361.36513Z"
     transform="translate(-177.66231 -152.36922)"
     fill="#2f2e41"
     id="path876" />
  <path
     d="M834.80883,365.43121a15.15,15.15,0,0,1,16.48081-10.39558c6.256,1.04586,11.20228,6.07455,14.14944,11.69107s4.30806,11.90252,6.28935,17.92793,4.79124,12.08362,9.79306,15.984,12.67721,4.9584,17.58966.94607a20.11809,20.11809,0,0,1-37.47706,7.18124c-2.59206-4.61172-3.26121-10.01684-4.02988-15.251s-1.7674-10.6498-4.86211-14.94043-8.88772-7.09293-13.80374-5.13859Z"
     transform="translate(-177.66231 -152.36922)"
     fill="#2f2e41"
     id="path878" />
  <path
     d="M515.60883,380.40755h0a33.748,33.748,0,0,1-33.74414-33.746c-.00049-6.10376.0039-10.77051.01318-11.4342a131.50724,131.50724,0,0,1,15.35889-59.90875,131.80321,131.80321,0,0,0-25.35889,75.90875c-.00928.66369-.01367,5.33044-.01318,11.4342a33.748,33.748,0,0,0,33.74414,33.746h0A33.77281,33.77281,0,0,0,538.09662,371.817,33.62247,33.62247,0,0,1,515.60883,380.40755Z"
     transform="translate(-177.66231 -152.36922)"
     fill="#3f3d56"
     id="path880" />
  <path
     d="M606.415,291.47848a64.00385,64.00385,0,0,1,55.65918,89.413,63.9972,63.9972,0,1,0-107.42578-66.98523A63.87073,63.87073,0,0,1,606.415,291.47848Z"
     transform="translate(-177.66231 -152.36922)"
     fill="#3f3d56"
     id="path882" />
  <path
     d="M616.79682,590.40755h0a34.78682,34.78682,0,0,1-34.79-34.22235c-.42334-26.45629-.64258-59.0523-.64258-62.77765a94.00389,94.00389,0,0,1,3.87354-26.76794l-.01221-.003a95.069,95.069,0,0,1,5.49414-12.70087,110.04745,110.04745,0,0,0-15.49414,28.70087l.01221.003a94.00389,94.00389,0,0,0-3.87354,26.76794c0,3.72535.21924,36.32136.64258,62.77765a34.78682,34.78682,0,0,0,34.79,34.22235h0a34.80287,34.80287,0,0,0,33.40185-25.04846A34.66005,34.66005,0,0,1,616.79682,590.40755Z"
     transform="translate(-177.66231 -152.36922)"
     fill="#3f3d56"
     id="path884" />
  <path
     d="M598.92043,735.14922a45.99375,45.99375,0,0,1-17.07033-71.4888,45.99715,45.99715,0,1,0,62.56892,66.464A45.96919,45.96919,0,0,1,598.92043,735.14922Z"
     transform="translate(-177.66231 -152.36922)"
     fill="#3f3d56"
     id="path912" />
  <g
     id="g1666"
     transform="matrix(0.6,0,0,0.6,96.646749,148.17164)">
    <path
       id="path3584"
       style="fill:url(#linearGradient2077);fill-opacity:1;stroke:#000000;stroke-width:4;stroke-linecap:round;stroke-linejoin:round"
       d="m 358.47122,432.26109 c -1.39,78.87 -54.33,113.15 -55.2,79.85 -1.08,-42.12 -19.22,-151.36 -90.42,-117.86 -85.15,40.06 -8.39,284.07 -33.04,284.07 -98.62,0 -178.66,-110.23 -178.66,-246.06 0,-135.82 80.04,-246.05 178.66,-246.05 98.62,0 181.02,111.96 178.66,246.05 z" />
    <path
       id="path3604"
       style="fill:#000000;fill-opacity:0.31373"
       d="m 310.22122,263.47109 c 22.87,41.39 34.22,93.29 35.24,147.78 0.95,50.34 -12.76,97.88 -38.18,111.35 11.87,3.8 49.8,-11.48 51.18,-90.35 1.15,-64.81 -17.52,-124.45 -48.24,-168.78 z m -86.1,103.5 c -7.31,0.14 -15.38,2.1 -24.28,6.28 -85.15,40.06 -8.38,284.07 -33.03,284.07 -50.79,0 -96.65,-29.24 -129.19,-76.16 32.65,59.02 84.2,97.16 142.19,97.16 24.65,0 -52.12,-244.01 33.03,-284.07 26.4,-12.41 45.51,-5.21 59.16,10.91 -10.18,-21.96 -25.48,-38.61 -47.88,-38.19 z" />
    <path
       id="path2385"
       style="fill:url(#linearGradient2083);fill-opacity:1;stroke:#000000;stroke-width:3.99984;stroke-linecap:round;stroke-linejoin:round"
       d="m 265.88415,573.62533 a 163.1502,163.296 0 1 1 -326.300398,0 163.1502,163.296 0 1 1 326.300398,0 z" />
    <path
       id="path3276"
       style="fill:#000000;fill-opacity:0.31373"
       d="m 102.74122,410.35109 c -17.36,0 -34.07,2.74 -49.77,7.77 14.12,-3.3 29.01,-5.08 44.4,-5.08 42.22,0 80.72,13.28 109.69,35.07 -28.28,-23.58 -64.66,-37.76 -104.32,-37.76 z m 154.51,110.72 c 2.14,8.72 3.28,17.72 3.28,26.96 0,74.52 -73.1,134.99 -163.16,134.99 -75.31,0 -138.73,-42.28 -157.49,-99.71 5,85.65 76.04,153.64 162.86,153.64 90.06,0 163.16,-73.16 163.16,-163.3 0,-18.39 -3.04,-36.08 -8.65,-52.58 z" />
    <path
       id="path3236"
       style="fill:#000000;fill-opacity:0.31373"
       d="m 102.74122,410.35109 c -27.82,0 -54.03,6.97 -76.96,19.28 10.86,37.97 42.59,73.08 80.07,73.08 36.48,0 67.57,-33.26 79.22,-70.06 -24.17,-14.17 -52.31,-22.3 -82.33,-22.3 z" />
    <path
       id="path3573"
       style="fill:url(#linearGradient2071);fill-opacity:1;fill-rule:evenodd;stroke:#000000;stroke-width:4;stroke-linejoin:round"
       d="m 214.53122,274.33109 c -19.81,0 -60.05,10.54 -67.09,37.87 -0.11,0.21 -0.32,0.97 -0.55,2.14 -12.74,-7.79 -27.72,-12.32 -43.73,-12.32 -16.72,0 -32.26,4.94 -45.35,13.36 -0.27,-1.71 -0.6,-2.91 -0.73,-3.18 -7.04,-27.33 -47.28,-37.84 -67.1,-37.85 -3.15,0 -5.76,0.27 -7.67,0.77 -10.63,1.48 -22.27,5.73 -21.42,8.05 7.8,-1.33 11.74,0.19 11.62,1.45 -0.24,2.36 -4.94,2.99 -3.43,11.5 2.85,-4.13 6.82,-5.55 9.94,-6.21 3.2,20.09 17.2,55.16 43.4,56.98 2.25,0.16 4.35,0.15 6.33,0.11 -6.18,11.72 -9.69,25.07 -9.69,39.24 0,46.47 37.67,100.32 84.1,100.32 46.42,0 84.14,-53.85 84.14,-100.32 0,-14.16 -3.52,-27.48 -9.7,-39.19 1.43,-0.01 2.94,-0.05 4.5,-0.16 26.11,-1.81 40.11,-36.68 43.37,-56.79 2.98,0.73 6.54,2.23 9.15,6.02 1.51,-8.51 -3.19,-9.14 -3.43,-11.5 -0.12,-1.26 3.82,-2.78 11.62,-1.45 0.81,-2.2 -9.58,-6.13 -19.72,-7.8 -1.93,-0.68 -4.89,-1.04 -8.56,-1.04 z" />
    <path
       id="path3619"
       style="fill:#000000;fill-opacity:0.31373"
       d="m 135.23122,523.70109 c -13.94,-13.95 -38.75,-14.66 -53.51,-1.55 -10.39,9.11 -14.53,23.1 -15.89,36.35 -0.96,9.55 -0.39,19.8 4.51,28.31 4.92,6.32 13.49,7.65 21.01,8.03 14.99,0.67 30.83,-2.95 42.81,-12.44 14.44,-12.39 17.81,-35.46 7.21,-51.27 -1.73,-2.7 -3.82,-5.19 -6.14,-7.43 z" />
    <path
       id="path3242"
       style="fill:#000000;fill-opacity:0.31373;stroke-width:0.62866"
       d="m 85.735555,551.95208 a 30.8566,30.884099 0 1 1 -61.7132,0 30.8566,30.884099 0 1 1 61.7132,0 z" />
    <path
       id="path2383"
       style="fill:#dc9a6a;fill-opacity:1;stroke:#000000;stroke-width:4;stroke-linecap:round;stroke-linejoin:round"
       d="m 130.23122,513.70109 c -13.94,-13.95 -38.75,-14.66 -53.51,-1.55 -10.39,9.11 -14.53,23.1 -15.89,36.35 -0.96,9.55 -0.39,19.8 4.51,28.31 4.92,6.32 13.49,7.65 21.01,8.03 14.99,0.67 30.83,-2.95 42.81,-12.44 14.44,-12.39 17.81,-35.46 7.21,-51.27 -1.73,-2.7 -3.82,-5.19 -6.14,-7.43 z" />
    <path
       id="path3250"
       style="fill:#000000;fill-opacity:0.31373"
       d="m 98.79122,502.93109 c 2.97,0.71 5.85,1.8 8.54,3.32 2.61,1.41 5.08,3.1 7.29,5.07 13.33,11.4 16.08,32.7 6.35,47.26 -8.29,11.39 -21.46,18.52 -34.93,21.64 -5.46,1.23 -11.68,2.08 -17,0.06 4.92,3.38 11.43,4.27 17.3,4.56 14.99,0.67 30.83,-2.95 42.82,-12.44 14.44,-12.39 17.81,-35.46 7.21,-51.27 -1.73,-2.71 -3.82,-5.19 -6.14,-7.44 -8.15,-8.16 -20.03,-11.78 -31.44,-10.76 z" />
    <path
       id="path3239"
       style="fill:url(#linearGradient2009);fill-rule:evenodd;stroke:#000000;stroke-width:4"
       d="m 130.60122,510.19109 c 2.75,-8.54 16.62,-16.43 20.73,-13.46 4.11,2.98 4.43,10.06 3.7,11.11 -0.72,1.04 -8.14,-2.17 -12.82,1.7 -4.67,3.86 -7.02,7.16 -7.02,7.16 z" />
    <path
       id="path3263"
       style="fill:#000000;fill-opacity:0.31373;fill-rule:evenodd"
       d="m 154.16122,500.44109 c 0.09,0.93 -0.04,1.7 -0.29,2 -0.71,0.85 -7.82,0.02 -12.38,3.55 -4.55,3.53 -6.85,6.23 -6.85,6.23 l -3.64,-3.06 c -0.14,0.35 -0.29,0.69 -0.4,1.03 l 4.59,6.52 c 0,0 2.35,-3.31 7.02,-7.18 4.68,-3.86 12.1,-0.65 12.82,-1.7 0.5,-0.71 0.5,-4.27 -0.87,-7.39 z" />
    <path
       id="path3201"
       style="fill:url(#linearGradient2009);stroke:#000000;stroke-width:4;stroke-linecap:round;stroke-linejoin:round"
       d="m 133.80122,510.24109 c -13.69,-13.56 -36.38,-17.06 -52.34,-6.89 -3.61,1.99 -2.52,6.98 -2.48,6.9 6.03,-4.77 12.28,0.48 20.49,6.37 10.05,7.21 21.1,18.27 29.21,29.02 5.68,7.52 9.74,14.91 6.49,20.08 0.17,0.05 4.89,1.38 7.05,-3.02 10.88,-20.51 4.73,-40.21 -8.42,-52.46 z" />
    <path
       id="path3269"
       style="fill:#000000;fill-opacity:0.31373"
       d="m 132.72122,508.73109 c 4.34,11.26 3.77,21.91 -1.74,32.19 -1.25,2.34 -3.17,1.58 -4.78,1.55 0.85,1.05 1.68,2.12 2.48,3.17 5.67,7.53 9.74,14.92 6.49,20.08 0.17,0.05 4.89,1.39 7.05,-3.01 9.96,-18.8 5.59,-39.25 -9.5,-53.98 z" />
    <path
       id="path3159"
       style="fill:url(#linearGradient2069);stroke:#000000;stroke-width:4.00001;stroke-linecap:round;stroke-linejoin:round"
       d="m 76.507082,530.24319 a 30.883758,30.85647 59.871655 1 1 -53.444899,30.8566 30.883758,30.85647 59.871655 1 1 53.444899,-30.8566 z" />
    <path
       id="path3244"
       style="fill:#000000;fill-opacity:0.31373;stroke-width:0.62866"
       d="m 201.49356,552.43208 a 30.8566,30.884099 0 1 1 -61.7132,0 30.8566,30.884099 0 1 1 61.7132,0 z" />
    <path
       id="path3161"
       style="fill:url(#linearGradient2069);stroke:#000000;stroke-width:3.99999;stroke-linecap:round;stroke-linejoin:round"
       d="m 187.46879,567.48947 a 30.856478,30.883561 45 1 1 -43.63765,-43.63765 30.856478,30.883561 45 1 1 43.63765,43.63765 z" />
    <path
       id="path3163"
       style="fill:url(#linearGradient2069);stroke:#000000;stroke-width:4;stroke-linecap:round;stroke-linejoin:round"
       d="m 181.80122,643.88109 c -40.83,0 -73.98,33.18 -73.98,74.04 0,8.45 1.42,16.55 4.03,24.11 h 139.86 c 2.61,-7.56 4.03,-15.66 4.03,-24.11 0,-40.86 -33.11,-74.04 -73.94,-74.04 z" />
    <path
       id="path3165"
       style="fill:url(#linearGradient2069);stroke:#000000;stroke-width:4;stroke-linecap:round;stroke-linejoin:round"
       d="m 33.84122,643.88109 c -40.83,0 -73.94,33.18 -73.94,74.04 0,8.45 1.42,16.55 4.03,24.11 h 139.86 c 2.61,-7.56 4.03,-15.66 4.03,-24.11 0,-40.86 -33.15,-74.04 -73.98,-74.04 z" />
    <path
       id="path3177"
       style="fill:#ffffff;stroke:#000000;stroke-width:4.00002;stroke-linecap:round;stroke-linejoin:round"
       d="m 100.22771,379.49323 a 27.480228,27.504785 0 1 1 -54.960455,0 27.480228,27.504785 0 1 1 54.960455,0 z" />
    <path
       id="path3179"
       style="fill:#ffffff;stroke:#000000;stroke-width:4.00002;stroke-linecap:round;stroke-linejoin:round"
       d="m 161.08771,379.49323 a 27.480228,27.504785 0 1 1 -54.96045,0 27.480228,27.504785 0 1 1 54.96045,0 z" />
    <path
       id="path3181"
       style="fill:#000000;stroke-width:1.3434"
       d="m 91.714244,382.83501 a 8.875908,8.88384 0 1 1 -17.751816,0 8.875908,8.88384 0 1 1 17.751816,0 z" />
    <path
       id="path3183"
       style="fill:#000000;stroke-width:1.3434"
       d="m 132.31424,382.83501 a 8.875908,8.88384 0 1 1 -17.75181,0 8.875908,8.88384 0 1 1 17.75181,0 z" />
    <path
       id="path3192"
       style="fill:#000000;fill-rule:evenodd"
       d="m 88.97122,432.26109 c 4.48,-4.79 23.51,-5.83 27.49,0.59 3.98,6.43 -5.97,19.75 -13.75,19.15 -7.74,-0.6 -17.94,-15.27 -13.74,-19.74 z" />
    <path
       id="path3216"
       style="fill:#74401b;fill-opacity:1;fill-rule:evenodd;stroke:#000000;stroke-width:4;stroke-linejoin:round"
       d="m 38.92122,334.62109 c -2.95,-42.72 -46.91,-52.45 -49.03,-47.38 -2.11,5.08 8.03,62.19 49.03,47.38 z" />
    <path
       id="path3218"
       style="fill:url(#linearGradient2009);fill-opacity:1;fill-rule:evenodd;stroke:#000000;stroke-width:4;stroke-linejoin:round"
       d="m 164.20122,334.62109 c 2.95,-42.72 46.91,-52.45 49.03,-47.38 2.11,5.08 -8.04,62.19 -49.03,47.38 z" />
    <path
       id="path3220"
       style="fill:url(#linearGradient2009);stroke:#000000;stroke-width:3.67216;stroke-linecap:round;stroke-linejoin:round"
       d="m 27.28842,720.66093 a 19.8065,23.52 0 1 1 -39.613,0 19.8065,23.52 0 1 1 39.613,0 z" />
    <path
       id="path3224"
       style="fill:url(#linearGradient2009);stroke:#000000;stroke-width:3.67216;stroke-linecap:round;stroke-linejoin:round"
       d="m 76.96842,720.66093 a 19.8065,23.52 0 1 1 -39.613,0 19.8065,23.52 0 1 1 39.613,0 z" />
    <path
       id="path3222"
       style="fill:url(#linearGradient2009);stroke:#000000;stroke-width:3.67216;stroke-linecap:round;stroke-linejoin:round"
       d="m 53.46842,720.66093 a 19.8065,23.52 0 1 1 -39.613,0 19.8065,23.52 0 1 1 39.613,0 z" />
    <path
       id="path3226"
       style="fill:url(#linearGradient2009);stroke:#000000;stroke-width:3.67216;stroke-linecap:round;stroke-linejoin:round"
       d="m 179.69742,720.66093 a 19.8065,23.52 0 1 1 -39.613,0 19.8065,23.52 0 1 1 39.613,0 z" />
    <path
       id="path3228"
       style="fill:url(#linearGradient2009);stroke:#000000;stroke-width:3.67216;stroke-linecap:round;stroke-linejoin:round"
       d="m 229.38242,720.66093 a 19.8065,23.52 0 1 1 -39.613,0 19.8065,23.52 0 1 1 39.613,0 z" />
    <path
       id="path3230"
       style="fill:url(#linearGradient2009);stroke:#000000;stroke-width:3.67216;stroke-linecap:round;stroke-linejoin:round"
       d="m 205.88242,720.66093 a 19.8065,23.52 0 1 1 -39.613,0 19.8065,23.52 0 1 1 39.613,0 z" />
    <path
       id="path3246"
       style="fill:#000000;fill-opacity:0.31373"
       d="m 180.67122,353.65109 c 1.53,6.34 2.35,12.98 2.35,19.78 0,46.47 -37.71,100.3 -84.14,100.3 -33.84,0 -62.99,-28.61 -76.33,-62.12 10.33,38.69 42.51,74.97 80.61,74.97 46.43,0 84.14,-53.87 84.14,-100.34 0,-11.56 -2.36,-22.56 -6.59,-32.59 z" />
    <path
       id="path3264"
       style="fill:url(#linearGradient2009);stroke:#000000;stroke-width:3.67228;stroke-linecap:round;stroke-linejoin:round"
       d="m 59.499512,553.07144 a 12.093522,10.621423 30.170207 1 1 -10.61445,18.4009 12.093522,10.621423 30.170207 1 1 10.61445,-18.4009 z" />
    <path
       id="path3266"
       style="fill:url(#linearGradient2009);stroke:#000000;stroke-width:3.67228;stroke-linecap:round;stroke-linejoin:round"
       d="m 72.809512,529.99144 a 12.093522,10.621423 30.170207 1 1 -10.61445,18.4009 12.093522,10.621423 30.170207 1 1 10.61445,-18.4009 z" />
    <path
       id="path3268"
       style="fill:url(#linearGradient2009);stroke:#000000;stroke-width:3.67228;stroke-linecap:round;stroke-linejoin:round"
       d="m 71.869512,544.80144 a 12.093522,10.621423 30.170207 1 1 -10.61445,18.4009 12.093522,10.621423 30.170207 1 1 10.61445,-18.4009 z" />
    <path
       id="path3270"
       style="fill:url(#linearGradient2009);stroke:#000000;stroke-width:3.67228;stroke-linecap:round;stroke-linejoin:round"
       d="m 155.17654,551.13737 a 10.621436,12.093514 74.826868 1 0 5.4901,20.5212 10.621436,12.093514 74.826868 1 0 -5.4901,-20.5212 z" />
    <path
       id="path3272"
       style="fill:url(#linearGradient2009);stroke:#000000;stroke-width:3.67228;stroke-linecap:round;stroke-linejoin:round"
       d="m 148.29654,525.39737 a 10.621436,12.093514 74.826868 1 0 5.4901,20.5212 10.621436,12.093514 74.826868 1 0 -5.4901,-20.5212 z" />
    <path
       id="path3274"
       style="fill:url(#linearGradient2009);stroke:#000000;stroke-width:3.67228;stroke-linecap:round;stroke-linejoin:round"
       d="m 145.37654,539.94737 a 10.621436,12.093514 74.826868 1 0 5.4901,20.5212 10.621436,12.093514 74.826868 1 0 -5.4901,-20.5212 z" />
  </g>
</svg>
