<?xml version="1.0" encoding="UTF-8" standalone="no"?>
<svg
   data-name="Layer 1"
   width="844.45966"
   height="651.81364"
   viewBox="0 0 844.45966 651.81364"
   version="1.1"
   id="svg900"
   sodipodi:docname="undraw_documents_sqrl.svg"
   inkscape:version="1.1.1 (c3084ef, 2021-09-22)"
   xmlns:inkscape="http://www.inkscape.org/namespaces/inkscape"
   xmlns:sodipodi="http://sodipodi.sourceforge.net/DTD/sodipodi-0.dtd"
   xmlns:xlink="http://www.w3.org/1999/xlink"
   xmlns="http://www.w3.org/2000/svg"
   xmlns:svg="http://www.w3.org/2000/svg">
  <defs
     id="defs904">
    <linearGradient
       id="linearGradient2009"
       inkscape:swatch="solid"
       gradientTransform="matrix(0.03284317,0.14042683,0.44828622,-0.13691972,557.79181,447.89732)">
      <stop
         style="stop-color:#74401b;stop-opacity:1;"
         offset="0"
         id="stop2007" />
    </linearGradient>
    <linearGradient
       id="linearGradient2069"
       inkscape:swatch="solid"
       gradientTransform="matrix(0.38152652,0.10207337,-0.10249719,0.3819541,1377.0329,-42.58586)">
      <stop
         style="stop-color:#d07839;stop-opacity:1;"
         offset="0"
         id="stop2067" />
    </linearGradient>
    <linearGradient
       inkscape:collect="always"
       xlink:href="#linearGradient2069"
       id="linearGradient2071"
       x1="162.51797"
       y1="416.035"
       x2="448.50153"
       y2="416.035"
       gradientUnits="userSpaceOnUse"
       gradientTransform="translate(339.64559,-169.16083)" />
    <linearGradient
       inkscape:collect="always"
       xlink:href="#linearGradient2069"
       id="linearGradient2083"
       x1="269.20129"
       y1="561.96002"
       x2="515.17871"
       y2="561.96002"
       gradientUnits="userSpaceOnUse"
       gradientTransform="matrix(1.3428,0,0,1.344,119.40559,-315.22083)" />
    <linearGradient
       inkscape:collect="always"
       xlink:href="#linearGradient2069"
       id="linearGradient2077"
       x1="202.81"
       y1="467.85501"
       x2="564.1795"
       y2="467.85501"
       gradientUnits="userSpaceOnUse"
       gradientTransform="translate(339.64559,-169.16083)" />
  </defs>
  <sodipodi:namedview
     id="namedview902"
     pagecolor="#ffffff"
     bordercolor="#666666"
     borderopacity="1.0"
     inkscape:pageshadow="2"
     inkscape:pageopacity="0.0"
     inkscape:pagecheckerboard="0"
     showgrid="false"
     inkscape:zoom="0.96193136"
     inkscape:cx="422.58732"
     inkscape:cy="327.98598"
     inkscape:window-width="1440"
     inkscape:window-height="855"
     inkscape:window-x="0"
     inkscape:window-y="23"
     inkscape:window-maximized="1"
     inkscape:current-layer="svg900" />
  <path
     d="M282.02994,507.09318H194.77017a17.01917,17.01917,0,0,1-17-17v-349a17.01917,17.01917,0,0,1,17-17H431.45108l43.31909,38.67822v70.32178h-2V163.66691L430.6879,126.09318H194.77017a15.017,15.017,0,0,0-15,15v349a15.017,15.017,0,0,0,15,15h87.25977Z"
     transform="translate(-177.77017 -124.09318)"
     fill="#ccc"
     id="path850" />
  <path
     d="M473.77017,164.09318h-27a17.01917,17.01917,0,0,1-17-17v-22a1,1,0,1,1,2,0v22a15.017,15.017,0,0,0,15,15h27a1,1,0,0,1,0,2Z"
     transform="translate(-177.77017 -124.09318)"
     fill="#ccc"
     id="path852" />
  <path
     d="M440.31021,214.59318h-228a8,8,0,0,0,0,16h228a8,8,0,0,0,0-16Z"
     transform="translate(-177.77017 -124.09318)"
     fill="#e6e6e6"
     id="path854" />
  <path
     d="M325.31021,180.59318h-113a8,8,0,0,0,0,16h113a8,8,0,0,0,0-16Z"
     transform="translate(-177.77017 -124.09318)"
     fill="#e6e6e6"
     id="path856" />
  <path
     d="M212.31021,281.59318a8,8,0,0,0,0,16h71.46v-16Z"
     transform="translate(-177.77017 -124.09318)"
     fill="#e6e6e6"
     id="path858" />
  <path
     d="M212.31021,247.59318a8,8,0,1,0,0,16h71.46v-16Z"
     transform="translate(-177.77017 -124.09318)"
     fill="#e6e6e6"
     id="path860" />
  <path
     d="M284.27017,451.09318h-64.04a16.51867,16.51867,0,0,1-16.5-16.5v-84a16.51868,16.51868,0,0,1,16.5-16.5h64.04Z"
     transform="translate(-177.77017 -124.09318)"
     fill="#e6e6e6"
     id="path862" />
  <path
     d="M387.52994,614.59318H300.27017a17.01917,17.01917,0,0,1-17-17v-349a17.01917,17.01917,0,0,1,17-17H536.95108l43.31909,38.67822v66.32178h-2V271.16691L536.1879,233.59318H300.27017a15.017,15.017,0,0,0-15,15v349a15.017,15.017,0,0,0,15,15h87.25977Z"
     transform="translate(-177.77017 -124.09318)"
     fill="#ccc"
     id="path864" />
  <path
     d="M579.27017,271.59318h-27a17.01917,17.01917,0,0,1-17-17v-22a1,1,0,1,1,2,0v22a15.017,15.017,0,0,0,15,15h27a1,1,0,0,1,0,2Z"
     transform="translate(-177.77017 -124.09318)"
     fill="#ccc"
     id="path866" />
  <path
     d="M545.81021,322.09318h-228a8,8,0,0,0,0,16h228a8,8,0,0,0,0-16Z"
     transform="translate(-177.77017 -124.09318)"
     fill="#e6e6e6"
     id="path868" />
  <path
     d="M430.81021,288.09318h-113a8,8,0,0,0,0,16h113a8,8,0,0,0,0-16Z"
     transform="translate(-177.77017 -124.09318)"
     fill="#e6e6e6"
     id="path870" />
  <path
     d="M545.81021,322.09318h-228a8,8,0,0,0,0,16h228a8,8,0,0,0,0-16Z"
     transform="translate(-177.77017 -124.09318)"
     fill="#e6e6e6"
     id="path872" />
  <path
     d="M430.81021,288.09318h-113a8,8,0,0,0,0,16h113a8,8,0,0,0,0-16Z"
     transform="translate(-177.77017 -124.09318)"
     fill="#e6e6e6"
     id="path874" />
  <path
     d="M317.81021,389.09318a8,8,0,0,0,0,16h71.46v-16Z"
     transform="translate(-177.77017 -124.09318)"
     fill="#e6e6e6"
     id="path876" />
  <path
     d="M317.81021,355.09318a8,8,0,0,0,0,16h71.46v-16Z"
     transform="translate(-177.77017 -124.09318)"
     fill="#e6e6e6"
     id="path878" />
  <path
     d="M317.81021,389.09318a8,8,0,0,0,0,16h71.46v-16Z"
     transform="translate(-177.77017 -124.09318)"
     fill="#e6e6e6"
     id="path880" />
  <path
     d="M317.81021,355.09318a8,8,0,0,0,0,16h71.46v-16Z"
     transform="translate(-177.77017 -124.09318)"
     fill="#e6e6e6"
     id="path882" />
  <path
     d="M389.77017,558.59318h-64.04a16.51867,16.51867,0,0,1-16.5-16.5v-84a16.51868,16.51868,0,0,1,16.5-16.5h64.04Z"
     transform="translate(-177.77017 -124.09318)"
     fill="#e6e6e6"
     id="path884" />
  <path
     d="M395.41031,340.09318a16.99409,16.99409,0,0,0-8.14014,14.5v2.5h2v-2.5a15.02721,15.02721,0,0,1,11.1499-14.5Zm245.54-2.5H404.27017a17.01989,17.01989,0,0,0-17,17v349a17.0241,17.0241,0,0,0,17,17h263a17.0241,17.0241,0,0,0,17-17v-327.32Zm41.31982,366a15.01828,15.01828,0,0,1-15,15h-263a15.01828,15.01828,0,0,1-15-15v-349a15.02721,15.02721,0,0,1,11.1499-14.5,14.83265,14.83265,0,0,1,3.8501-.5H640.19009l42.08008,37.57Zm-286.85986-363.5a16.99409,16.99409,0,0,0-8.14014,14.5v2.5h2v-2.5a15.02721,15.02721,0,0,1,11.1499-14.5Z"
     transform="translate(-177.77017 -124.09318)"
     fill="#3f3d56"
     id="path886" />
  <path
     d="M683.27017,377.59318h-27a17.01917,17.01917,0,0,1-17-17v-22a1,1,0,0,1,2,0v22a15.017,15.017,0,0,0,15,15h27a1,1,0,0,1,0,2Z"
     transform="translate(-177.77017 -124.09318)"
     fill="#3f3d56"
     id="path888" />
  <path
     d="M649.81154,444.09318h-228a8,8,0,1,1,0-16h228a8,8,0,0,1,0,16Z"
     transform="translate(-177.77017 -124.09318)"
     fill="#ccc"
     id="path890" />
  <path
     d="M534.81154,410.09318h-113a8,8,0,1,1,0-16h113a8,8,0,0,1,0,16Z"
     transform="translate(-177.77017 -124.09318)"
     fill="#ccc"
     id="path892" />
  <path
     d="M649.81154,511.09318h-228a8,8,0,1,1,0-16h228a8,8,0,0,1,0,16Z"
     transform="translate(-177.77017 -124.09318)"
     fill="#ccc"
     id="path894" />
  <path
     d="M534.81154,477.09318h-113a8,8,0,1,1,0-16h113a8,8,0,0,1,0,16Z"
     transform="translate(-177.77017 -124.09318)"
     fill="#ccc"
     id="path896" />
  <path
     d="M641.72891,664.59318h-212a16.51867,16.51867,0,0,1-16.5-16.5v-84a16.51868,16.51868,0,0,1,16.5-16.5h212a16.51867,16.51867,0,0,1,16.5,16.5v84A16.51866,16.51866,0,0,1,641.72891,664.59318Z"
     transform="translate(-177.77017 -124.09318)"
     fill="#2fa4da"
     id="path898" />
  <g
     id="g1645"
     transform="matrix(0.6,0,0,0.6,264.46776,284.39483)">
    <path
       id="path3584"
       style="fill:url(#linearGradient2077);fill-opacity:1;stroke:#000000;stroke-width:4;stroke-linecap:round;stroke-linejoin:round"
       d="m 901.77559,298.68917 c -1.39,78.87 -54.33,113.15 -55.2,79.85 -1.08,-42.12 -19.22,-151.36 -90.42,-117.86 -85.15,40.06 -8.39,284.07 -33.04,284.07 -98.62,0 -178.66,-110.23 -178.66,-246.06 0,-135.82 80.04,-246.05 178.66,-246.05 98.62,0 181.02,111.96 178.66,246.05 z" />
    <path
       id="path3604"
       style="fill:#000000;fill-opacity:0.31373"
       d="m 853.52559,129.89917 c 22.87,41.39 34.22,93.29 35.24,147.78 0.95,50.34 -12.76,97.88 -38.18,111.35 11.87,3.8 49.8,-11.48 51.18,-90.35 1.15,-64.81 -17.52,-124.45 -48.24,-168.78 z m -86.1,103.5 c -7.31,0.14 -15.38,2.1 -24.28,6.28 -85.15,40.06 -8.38,284.07 -33.03,284.07 -50.79,0 -96.65,-29.24 -129.19,-76.16 32.65,59.02 84.2,97.16 142.19,97.16 24.65,0 -52.12,-244.01 33.03,-284.07 26.4,-12.41 45.51,-5.21 59.16,10.91 -10.18,-21.96 -25.48,-38.61 -47.88,-38.19 z" />
    <path
       id="path2385"
       style="fill:url(#linearGradient2083);fill-opacity:1;stroke:#000000;stroke-width:3.99984;stroke-linecap:round;stroke-linejoin:round"
       d="m 809.18852,440.05341 a 163.1502,163.296 0 1 1 -326.3004,0 163.1502,163.296 0 1 1 326.3004,0 z" />
    <path
       id="path3276"
       style="fill:#000000;fill-opacity:0.31373"
       d="m 646.04559,276.77917 c -17.36,0 -34.07,2.74 -49.77,7.77 14.12,-3.3 29.01,-5.08 44.4,-5.08 42.22,0 80.72,13.28 109.69,35.07 -28.28,-23.58 -64.66,-37.76 -104.32,-37.76 z m 154.51,110.72 c 2.14,8.72 3.28,17.72 3.28,26.96 0,74.52 -73.1,134.99 -163.16,134.99 -75.31,0 -138.73,-42.28 -157.49,-99.71 5,85.65 76.04,153.64 162.86,153.64 90.06,0 163.16,-73.16 163.16,-163.3 0,-18.39 -3.04,-36.08 -8.65,-52.58 z" />
    <path
       id="path3236"
       style="fill:#000000;fill-opacity:0.31373"
       d="m 646.04559,276.77917 c -27.82,0 -54.03,6.97 -76.96,19.28 10.86,37.97 42.59,73.08 80.07,73.08 36.48,0 67.57,-33.26 79.22,-70.06 -24.17,-14.17 -52.31,-22.3 -82.33,-22.3 z" />
    <path
       id="path3573"
       style="fill:url(#linearGradient2071);fill-opacity:1;fill-rule:evenodd;stroke:#000000;stroke-width:4;stroke-linejoin:round"
       d="m 757.83559,140.75917 c -19.81,0 -60.05,10.54 -67.09,37.87 -0.11,0.21 -0.32,0.97 -0.55,2.14 -12.74,-7.79 -27.72,-12.32 -43.73,-12.32 -16.72,0 -32.26,4.94 -45.35,13.36 -0.27,-1.71 -0.6,-2.91 -0.73,-3.18 -7.04,-27.33 -47.28,-37.84 -67.1,-37.85 -3.15,0 -5.76,0.27 -7.67,0.77 -10.63,1.48 -22.27,5.73 -21.42,8.05 7.8,-1.33 11.74,0.19 11.62,1.45 -0.24,2.36 -4.94,2.99 -3.43,11.5 2.85,-4.13 6.82,-5.55 9.94,-6.21 3.2,20.09 17.2,55.16 43.4,56.98 2.25,0.16 4.35,0.15 6.33,0.11 -6.18,11.72 -9.69,25.07 -9.69,39.24 0,46.47 37.67,100.32 84.1,100.32 46.42,0 84.14,-53.85 84.14,-100.32 0,-14.16 -3.52,-27.48 -9.7,-39.19 1.43,-0.01 2.94,-0.05 4.5,-0.16 26.11,-1.81 40.11,-36.68 43.37,-56.79 2.98,0.73 6.54,2.23 9.15,6.02 1.51,-8.51 -3.19,-9.14 -3.43,-11.5 -0.12,-1.26 3.82,-2.78 11.62,-1.45 0.81,-2.2 -9.58,-6.13 -19.72,-7.8 -1.93,-0.68 -4.89,-1.04 -8.56,-1.04 z" />
    <path
       id="path3619"
       style="fill:#000000;fill-opacity:0.31373"
       d="m 678.53559,390.12917 c -13.94,-13.95 -38.75,-14.66 -53.51,-1.55 -10.39,9.11 -14.53,23.1 -15.89,36.35 -0.96,9.55 -0.39,19.8 4.51,28.31 4.92,6.32 13.49,7.65 21.01,8.03 14.99,0.67 30.83,-2.95 42.81,-12.44 14.44,-12.39 17.81,-35.46 7.21,-51.27 -1.73,-2.7 -3.82,-5.19 -6.14,-7.43 z" />
    <path
       id="path3242"
       style="fill:#000000;fill-opacity:0.31373;stroke-width:0.62866"
       d="m 629.03993,418.38016 a 30.8566,30.884099 0 1 1 -61.7132,0 30.8566,30.884099 0 1 1 61.7132,0 z" />
    <path
       id="path2383"
       style="fill:#dc9a6a;fill-opacity:1;stroke:#000000;stroke-width:4;stroke-linecap:round;stroke-linejoin:round"
       d="m 673.53559,380.12917 c -13.94,-13.95 -38.75,-14.66 -53.51,-1.55 -10.39,9.11 -14.53,23.1 -15.89,36.35 -0.96,9.55 -0.39,19.8 4.51,28.31 4.92,6.32 13.49,7.65 21.01,8.03 14.99,0.67 30.83,-2.95 42.81,-12.44 14.44,-12.39 17.81,-35.46 7.21,-51.27 -1.73,-2.7 -3.82,-5.19 -6.14,-7.43 z" />
    <path
       id="path3250"
       style="fill:#000000;fill-opacity:0.31373"
       d="m 642.09559,369.35917 c 2.97,0.71 5.85,1.8 8.54,3.32 2.61,1.41 5.08,3.1 7.29,5.07 13.33,11.4 16.08,32.7 6.35,47.26 -8.29,11.39 -21.46,18.52 -34.93,21.64 -5.46,1.23 -11.68,2.08 -17,0.06 4.92,3.38 11.43,4.27 17.3,4.56 14.99,0.67 30.83,-2.95 42.82,-12.44 14.44,-12.39 17.81,-35.46 7.21,-51.27 -1.73,-2.71 -3.82,-5.19 -6.14,-7.44 -8.15,-8.16 -20.03,-11.78 -31.44,-10.76 z" />
    <path
       id="path3239"
       style="fill:url(#linearGradient2009);fill-rule:evenodd;stroke:#000000;stroke-width:4"
       d="m 673.90559,376.61917 c 2.75,-8.54 16.62,-16.43 20.73,-13.46 4.11,2.98 4.43,10.06 3.7,11.11 -0.72,1.04 -8.14,-2.17 -12.82,1.7 -4.67,3.86 -7.02,7.16 -7.02,7.16 z" />
    <path
       id="path3263"
       style="fill:#000000;fill-opacity:0.31373;fill-rule:evenodd"
       d="m 697.46559,366.86917 c 0.09,0.93 -0.04,1.7 -0.29,2 -0.71,0.85 -7.82,0.02 -12.38,3.55 -4.55,3.53 -6.85,6.23 -6.85,6.23 l -3.64,-3.06 c -0.14,0.35 -0.29,0.69 -0.4,1.03 l 4.59,6.52 c 0,0 2.35,-3.31 7.02,-7.18 4.68,-3.86 12.1,-0.65 12.82,-1.7 0.5,-0.71 0.5,-4.27 -0.87,-7.39 z" />
    <path
       id="path3201"
       style="fill:url(#linearGradient2009);stroke:#000000;stroke-width:4;stroke-linecap:round;stroke-linejoin:round"
       d="m 677.10559,376.66917 c -13.69,-13.56 -36.38,-17.06 -52.34,-6.89 -3.61,1.99 -2.52,6.98 -2.48,6.9 6.03,-4.77 12.28,0.48 20.49,6.37 10.05,7.21 21.1,18.27 29.21,29.02 5.68,7.52 9.74,14.91 6.49,20.08 0.17,0.05 4.89,1.38 7.05,-3.02 10.88,-20.51 4.73,-40.21 -8.42,-52.46 z" />
    <path
       id="path3269"
       style="fill:#000000;fill-opacity:0.31373"
       d="m 676.02559,375.15917 c 4.34,11.26 3.77,21.91 -1.74,32.19 -1.25,2.34 -3.17,1.58 -4.78,1.55 0.85,1.05 1.68,2.12 2.48,3.17 5.67,7.53 9.74,14.92 6.49,20.08 0.17,0.05 4.89,1.39 7.05,-3.01 9.96,-18.8 5.59,-39.25 -9.5,-53.98 z" />
    <path
       id="path3159"
       style="fill:url(#linearGradient2069);stroke:#000000;stroke-width:4.00001;stroke-linecap:round;stroke-linejoin:round"
       d="m 619.81145,396.67127 a 30.883758,30.85647 59.871655 1 1 -53.4449,30.8566 30.883758,30.85647 59.871655 1 1 53.4449,-30.8566 z" />
    <path
       id="path3244"
       style="fill:#000000;fill-opacity:0.31373;stroke-width:0.62866"
       d="m 744.79793,418.86016 a 30.8566,30.884099 0 1 1 -61.7132,0 30.8566,30.884099 0 1 1 61.7132,0 z" />
    <path
       id="path3161"
       style="fill:url(#linearGradient2069);stroke:#000000;stroke-width:3.99999;stroke-linecap:round;stroke-linejoin:round"
       d="m 730.77316,433.91755 a 30.856478,30.883561 45 1 1 -43.63765,-43.63765 30.856478,30.883561 45 1 1 43.63765,43.63765 z" />
    <path
       id="path3163"
       style="fill:url(#linearGradient2069);stroke:#000000;stroke-width:4;stroke-linecap:round;stroke-linejoin:round"
       d="m 725.10559,510.30917 c -40.83,0 -73.98,33.18 -73.98,74.04 0,8.45 1.42,16.55 4.03,24.11 h 139.86 c 2.61,-7.56 4.03,-15.66 4.03,-24.11 0,-40.86 -33.11,-74.04 -73.94,-74.04 z" />
    <path
       id="path3165"
       style="fill:url(#linearGradient2069);stroke:#000000;stroke-width:4;stroke-linecap:round;stroke-linejoin:round"
       d="m 577.14559,510.30917 c -40.83,0 -73.94,33.18 -73.94,74.04 0,8.45 1.42,16.55 4.03,24.11 h 139.86 c 2.61,-7.56 4.03,-15.66 4.03,-24.11 0,-40.86 -33.15,-74.04 -73.98,-74.04 z" />
    <path
       id="path3177"
       style="fill:#ffffff;stroke:#000000;stroke-width:4.00002;stroke-linecap:round;stroke-linejoin:round"
       d="m 643.53208,245.92131 a 27.480228,27.504785 0 1 1 -54.96045,0 27.480228,27.504785 0 1 1 54.96045,0 z" />
    <path
       id="path3179"
       style="fill:#ffffff;stroke:#000000;stroke-width:4.00002;stroke-linecap:round;stroke-linejoin:round"
       d="m 704.39208,245.92131 a 27.480228,27.504785 0 1 1 -54.96045,0 27.480228,27.504785 0 1 1 54.96045,0 z" />
    <path
       id="path3181"
       style="fill:#000000;stroke-width:1.3434"
       d="m 635.01861,249.26309 a 8.875908,8.88384 0 1 1 -17.75181,0 8.875908,8.88384 0 1 1 17.75181,0 z" />
    <path
       id="path3183"
       style="fill:#000000;stroke-width:1.3434"
       d="m 675.61861,249.26309 a 8.875908,8.88384 0 1 1 -17.75181,0 8.875908,8.88384 0 1 1 17.75181,0 z" />
    <path
       id="path3192"
       style="fill:#000000;fill-rule:evenodd"
       d="m 632.27559,298.68917 c 4.48,-4.79 23.51,-5.83 27.49,0.59 3.98,6.43 -5.97,19.75 -13.75,19.15 -7.74,-0.6 -17.94,-15.27 -13.74,-19.74 z" />
    <path
       id="path3216"
       style="fill:#74401b;fill-opacity:1;fill-rule:evenodd;stroke:#000000;stroke-width:4;stroke-linejoin:round"
       d="m 582.22559,201.04917 c -2.95,-42.72 -46.91,-52.45 -49.03,-47.38 -2.11,5.08 8.03,62.19 49.03,47.38 z" />
    <path
       id="path3218"
       style="fill:url(#linearGradient2009);fill-opacity:1;fill-rule:evenodd;stroke:#000000;stroke-width:4;stroke-linejoin:round"
       d="m 707.50559,201.04917 c 2.95,-42.72 46.91,-52.45 49.03,-47.38 2.11,5.08 -8.04,62.19 -49.03,47.38 z" />
    <path
       id="path3220"
       style="fill:url(#linearGradient2009);stroke:#000000;stroke-width:3.67216;stroke-linecap:round;stroke-linejoin:round"
       d="m 570.59279,587.08901 a 19.8065,23.52 0 1 1 -39.613,0 19.8065,23.52 0 1 1 39.613,0 z" />
    <path
       id="path3224"
       style="fill:url(#linearGradient2009);stroke:#000000;stroke-width:3.67216;stroke-linecap:round;stroke-linejoin:round"
       d="m 620.27279,587.08901 a 19.8065,23.52 0 1 1 -39.613,0 19.8065,23.52 0 1 1 39.613,0 z" />
    <path
       id="path3222"
       style="fill:url(#linearGradient2009);stroke:#000000;stroke-width:3.67216;stroke-linecap:round;stroke-linejoin:round"
       d="m 596.77279,587.08901 a 19.8065,23.52 0 1 1 -39.613,0 19.8065,23.52 0 1 1 39.613,0 z" />
    <path
       id="path3226"
       style="fill:url(#linearGradient2009);stroke:#000000;stroke-width:3.67216;stroke-linecap:round;stroke-linejoin:round"
       d="m 723.00179,587.08901 a 19.8065,23.52 0 1 1 -39.613,0 19.8065,23.52 0 1 1 39.613,0 z" />
    <path
       id="path3228"
       style="fill:url(#linearGradient2009);stroke:#000000;stroke-width:3.67216;stroke-linecap:round;stroke-linejoin:round"
       d="m 772.68679,587.08901 a 19.8065,23.52 0 1 1 -39.613,0 19.8065,23.52 0 1 1 39.613,0 z" />
    <path
       id="path3230"
       style="fill:url(#linearGradient2009);stroke:#000000;stroke-width:3.67216;stroke-linecap:round;stroke-linejoin:round"
       d="m 749.18679,587.08901 a 19.8065,23.52 0 1 1 -39.613,0 19.8065,23.52 0 1 1 39.613,0 z" />
    <path
       id="path3246"
       style="fill:#000000;fill-opacity:0.31373"
       d="m 723.97559,220.07917 c 1.53,6.34 2.35,12.98 2.35,19.78 0,46.47 -37.71,100.3 -84.14,100.3 -33.84,0 -62.99,-28.61 -76.33,-62.12 10.33,38.69 42.51,74.97 80.61,74.97 46.43,0 84.14,-53.87 84.14,-100.34 0,-11.56 -2.36,-22.56 -6.59,-32.59 z" />
    <path
       id="path3264"
       style="fill:url(#linearGradient2009);stroke:#000000;stroke-width:3.67228;stroke-linecap:round;stroke-linejoin:round"
       d="m 602.80388,419.49952 a 12.093522,10.621423 30.170207 1 1 -10.61445,18.4009 12.093522,10.621423 30.170207 1 1 10.61445,-18.4009 z" />
    <path
       id="path3266"
       style="fill:url(#linearGradient2009);stroke:#000000;stroke-width:3.67228;stroke-linecap:round;stroke-linejoin:round"
       d="m 616.11388,396.41952 a 12.093522,10.621423 30.170207 1 1 -10.61445,18.4009 12.093522,10.621423 30.170207 1 1 10.61445,-18.4009 z" />
    <path
       id="path3268"
       style="fill:url(#linearGradient2009);stroke:#000000;stroke-width:3.67228;stroke-linecap:round;stroke-linejoin:round"
       d="m 615.17388,411.22952 a 12.093522,10.621423 30.170207 1 1 -10.61445,18.4009 12.093522,10.621423 30.170207 1 1 10.61445,-18.4009 z" />
    <path
       id="path3270"
       style="fill:url(#linearGradient2009);stroke:#000000;stroke-width:3.67228;stroke-linecap:round;stroke-linejoin:round"
       d="m 698.48092,417.56545 a 10.621436,12.093514 74.826868 1 0 5.4901,20.5212 10.621436,12.093514 74.826868 1 0 -5.4901,-20.5212 z" />
    <path
       id="path3272"
       style="fill:url(#linearGradient2009);stroke:#000000;stroke-width:3.67228;stroke-linecap:round;stroke-linejoin:round"
       d="m 691.60092,391.82545 a 10.621436,12.093514 74.826868 1 0 5.4901,20.5212 10.621436,12.093514 74.826868 1 0 -5.4901,-20.5212 z" />
    <path
       id="path3274"
       style="fill:url(#linearGradient2009);stroke:#000000;stroke-width:3.67228;stroke-linecap:round;stroke-linejoin:round"
       d="m 688.68092,406.37545 a 10.621436,12.093514 74.826868 1 0 5.4901,20.5212 10.621436,12.093514 74.826868 1 0 -5.4901,-20.5212 z" />
  </g>
</svg>
