<?xml version="1.0" encoding="UTF-8" standalone="no"?>
<svg
   data-name="Layer 1"
   width="809"
   height="617.658"
   viewBox="0 0 809 617.658"
   version="1.1"
   id="svg871"
   sodipodi:docname="undraw_nut_document_sqrl.svg"
   inkscape:version="1.1.1 (c3084ef, 2021-09-22)"
   xmlns:inkscape="http://www.inkscape.org/namespaces/inkscape"
   xmlns:sodipodi="http://sodipodi.sourceforge.net/DTD/sodipodi-0.dtd"
   xmlns="http://www.w3.org/2000/svg"
   xmlns:svg="http://www.w3.org/2000/svg">
  <defs
     id="defs875">
    <linearGradient
       id="linearGradient2009"
       inkscape:swatch="solid"
       gradientTransform="matrix(2.0736,0,0,2.0736,884.35436,-2045.1161)">
      <stop
         style="stop-color:#74401b;stop-opacity:1;"
         offset="0"
         id="stop2007" />
    </linearGradient>
  </defs>
  <sodipodi:namedview
     id="namedview873"
     pagecolor="#ffffff"
     bordercolor="#666666"
     borderopacity="1.0"
     inkscape:pageshadow="2"
     inkscape:pageopacity="0.0"
     inkscape:pagecheckerboard="0"
     showgrid="false"
     inkscape:zoom="1.0151248"
     inkscape:cx="404.38376"
     inkscape:cy="308.82901"
     inkscape:window-width="1440"
     inkscape:window-height="855"
     inkscape:window-x="0"
     inkscape:window-y="23"
     inkscape:window-maximized="1"
     inkscape:current-layer="svg871" />
  <rect
     x="310.755"
     y="57.658"
     width="420"
     height="560"
     rx="4"
     fill="#fff"
     id="rect824" />
  <path
     d="M922.255,758.82884h-412a4.00458,4.00458,0,0,1-4-4v-552a4.00458,4.00458,0,0,1,4-4h412a4.00458,4.00458,0,0,1,4,4v552A4.00458,4.00458,0,0,1,922.255,758.82884Zm-412-558a2.00214,2.00214,0,0,0-2,2v552a2.00213,2.00213,0,0,0,2,2h412a2.00213,2.00213,0,0,0,2-2v-552a2.00214,2.00214,0,0,0-2-2Z"
     transform="translate(-195.5 -141.171)"
     fill="#cacaca"
     id="path826" />
  <path
     id="a6f80ec2-9665-4b0d-9b96-9f178d319553-1604"
     data-name="Path 2621"
     d="M863.252,324.201h-294a7.5,7.5,0,0,1,0-15h294a7.5,7.5,0,1,1,0,15Z"
     transform="translate(-195.5 -141.171)"
     fill="#e6e6e6" />
  <path
     id="af435bc5-0b88-4d77-bfed-030ae9fdf7f6-1605"
     data-name="Path 2624"
     d="M863.252,372.701h-294a7.5,7.5,0,0,1,0-15h294a7.5,7.5,0,1,1,0,15Z"
     transform="translate(-195.5 -141.171)"
     fill="#e6e6e6" />
  <path
     id="e557133a-77b8-499f-bd16-c334895c1269-1606"
     data-name="Path 2625"
     d="M863.252,421.201h-294a7.5,7.5,0,0,1,0-15h294a7.5,7.5,0,1,1,0,15Z"
     transform="translate(-195.5 -141.171)"
     fill="#e6e6e6" />
  <path
     id="ec19a4b8-f44f-4645-b4d7-76344dff0125-1607"
     data-name="Path 2626"
     d="M863.252,469.701h-294a7.5,7.5,0,0,1,0-15h294a7.5,7.5,0,0,1,0,15Z"
     transform="translate(-195.5 -141.171)"
     fill="#e6e6e6" />
  <path
     id="e86d23b2-1618-4af8-9c24-b5d1e0a773ab-1608"
     data-name="Path 2627"
     d="M863.252,518.201h-294a7.5,7.5,0,0,1,0-15h294a7.5,7.5,0,1,1,0,15Z"
     transform="translate(-195.5 -141.171)"
     fill="#e6e6e6" />
  <path
     d="M568.85052,417.67562a12.38907,12.38907,0,0,0-.38893,1.91174l-52.1105,26.30249-11.87589-7.74967L490.437,454.53436l19.69066,15.76241a9.41616,9.41616,0,0,0,11.295.35551l54.35162-38.159a12.35531,12.35531,0,1,0-6.92383-14.81769Z"
     transform="translate(-195.5 -141.171)"
     fill="#ffb6b6"
     id="path833" />
  <path
     d="M514.64262,446.88338l-17.2747,20.42522a5.29664,5.29664,0,0,1-8.02.0791l-17.61962-20.02062a14.70972,14.70972,0,0,1,19.0637-22.407l22.59747,14.00141a5.29663,5.29663,0,0,1,1.25313,7.92187Z"
     transform="translate(-195.5 -141.171)"
     fill="#2fa4da"
     id="path835" />
  <polygon
     points="254.098 605.118 266.358 605.118 272.19 557.83 254.096 557.83 254.098 605.118"
     fill="#ffb6b6"
     id="polygon837" />
  <path
     d="M446.47047,742.28638l24.14405-.001h.001A15.38731,15.38731,0,0,1,486.002,757.67164v.5l-39.53076.00146Z"
     transform="translate(-195.5 -141.171)"
     fill="#2f2e41"
     id="path839" />
  <polygon
     points="251.336 473.432 254.822 485.185 301.817 477.332 296.671 459.985 251.336 473.432"
     fill="#ffb6b6"
     id="polygon841" />
  <path
     d="M449.78419,610.46639l6.86566,23.14731.00028.00093a15.38732,15.38732,0,0,1-10.37648,19.12612l-.47937.14216-11.24093-37.89885Z"
     transform="translate(-195.5 -141.171)"
     fill="#2f2e41"
     id="path843" />
  <path
     id="b5225405-dc09-4398-8f75-a858b019bf8f-1609"
     data-name="Path 2622"
     d="M865.776,627.25773H670.727c-2.748,0-4.976-3.358-4.976-7.5s2.228-7.5,4.976-7.5H865.776c2.748,0,4.976,3.358,4.976,7.5S868.524,627.25773,865.776,627.25773Z"
     transform="translate(-195.5 -141.171)"
     fill="#e6e6e6" />
  <path
     id="a2f1c4f7-b8f3-4baf-98d5-81fcbaba2af5-1610"
     data-name="Path 2623"
     d="M865.776,670.25773H670.727c-2.748,0-4.976-3.358-4.976-7.5s2.228-7.5,4.976-7.5H865.776c2.748,0,4.976,3.358,4.976,7.5S868.524,670.25773,865.776,670.25773Z"
     transform="translate(-195.5 -141.171)"
     fill="#e6e6e6" />
  <path
     id="a69a945f-f2e5-47e0-ba72-38a008e8891a-1612"
     data-name="Path 2632"
     d="M573.49,590.42h0a20.065,20.065,0,0,1-17.054,9.741L482.752,623.75l-3.369-19.541L524,580l-43.227-31.133,31.67-37.06,57.522,53.613a20.066,20.066,0,0,1,3.525,25Z"
     transform="translate(-195.5 -141.171)"
     fill="#2f2e41" />
  <path
     id="e980cf0f-d800-4ee3-940e-45939556ba77-1613"
     data-name="Path 2633"
     d="M466.622,724.059H448.429c-16.335-111.969-32.962-224.25,16.172-266.16l57.949,9.434-7.412,49.189-32.343,37.06Z"
     transform="translate(-195.5 -141.171)"
     fill="#2f2e41" />
  <path
     id="eba62579-0c8c-463a-8046-e804be002a11-1614"
     data-name="Path 2637"
     d="M519.007,487.62c-24.526,16.713-56.20822,12.78322-69.43222-12.11977,19-32,23-55,7.7052-65.50022a36.273,36.273,0,0,1,22.145-43.742h0l28.974,12.129c24.6,20.054,29.445,41.776,20.215,64.687Z"
     transform="translate(-195.5 -141.171)"
     fill="#2fa4da" />
  <rect
     id="e895ce6e-6fd8-41df-ae63-d595344ec23b"
     data-name="Rectangle 53"
     y="615.658"
     width="809"
     height="2"
     fill="#cacaca" />
  <path
     id="e192092a-ee6f-4331-8843-6655178f0707-1615"
     data-name="Path 438"
     d="M348.841,711.227a22.96307,22.96307,0,0,0,22.175-3.906c7.767-6.519,10.2-17.259,12.183-27.2l5.86-29.414-12.268,8.445c-8.823,6.076-17.846,12.346-23.955,21.146s-8.776,20.813-3.867,30.335"
     transform="translate(-195.5 -141.171)"
     fill="#e6e6e6" />
  <path
     id="a858933f-d134-4d1f-a5b1-d2ecd5f2e072-1616"
     data-name="Path 439"
     d="M350.736,748.884c-1.548-11.251-3.133-22.645-2.048-34.018.962-10.1,4.043-19.963,10.316-28.051a46.66331,46.66331,0,0,1,11.972-10.849c1.2-.756,2.3,1.142,1.107,1.894a44.36182,44.36182,0,0,0-17.547,21.172c-3.82,9.717-4.434,20.309-3.775,30.632.4,6.242,1.242,12.444,2.092,18.637a1.136,1.136,0,0,1-.766,1.349,1.1,1.1,0,0,1-1.349-.766Z"
     transform="translate(-195.5 -141.171)"
     fill="#f2f2f2" />
  <path
     id="b52aaf37-3203-4cbf-9b60-86692d62068e-1619"
     data-name="Path 442"
     d="M361.851,730.832a16.9,16.9,0,0,0,14.729,7.6c7.456-.354,13.672-5.558,19.267-10.5l16.55-14.612-10.953-.524c-7.877-.377-15.957-.729-23.46,1.7s-14.422,8.275-15.794,16.041"
     transform="translate(-195.5 -141.171)"
     fill="#e6e6e6" />
  <path
     id="beff4645-a309-4245-bc03-2fdcf4e7d6c8-1620"
     data-name="Path 443"
     d="M346.37,755.352c7.434-13.155,16.058-27.775,31.466-32.448a35.11509,35.11509,0,0,1,13.235-1.367c1.405.121,1.054,2.287-.348,2.166a32.62084,32.62084,0,0,0-21.121,5.588c-5.955,4.054-10.592,9.689-14.517,15.666-2.4,3.661-4.557,7.477-6.711,11.288C347.686,757.463,345.674,756.584,346.37,755.352Z"
     transform="translate(-195.5 -141.171)"
     fill="#f2f2f2" />
  <path
     d="M428.46994,507.36679a10.74267,10.74267,0,0,0,7.44457-14.69441l39.60233-89.47208-22.65457-5.706-31.80418,89.74234a10.80091,10.80091,0,0,0,7.41185,20.13011Z"
     transform="translate(-195.5 -141.171)"
     fill="#ffb6b6"
     id="path861" />
  <path
     d="M470.15583,419.20183l-22.03344-10.31358a4.81687,4.81687,0,0,1-1.97428-7.02163l13.39047-20.22269a13.37737,13.37737,0,0,1,24.198,11.41336l-6.92414,23.16294a4.81688,4.81688,0,0,1-6.65666,2.9816Z"
     transform="translate(-195.5 -141.171)"
     fill="#2fa4da"
     id="path863" />
  <path
     d="M519.02948,359.67025h-58a4.50508,4.50508,0,0,1-4.5-4.5v-25a33.5,33.5,0,0,1,67,0v25A4.50508,4.50508,0,0,1,519.02948,359.67025Z"
     transform="translate(-195.5 -141.171)"
     fill="#2f2e41"
     id="path865" />
  <circle
     cx="302.7972"
     cy="193.5583"
     r="24.56103"
     fill="#ffb6b6"
     id="circle867" />
  <path
     d="M531.45477,332.67025H495.9892l-.36377-5.0918-1.81836,5.0918h-5.46094l-.7207-10.0918-3.604,10.0918H473.45477v-.5a26.52976,26.52976,0,0,1,26.49976-26.5h5.00024a26.53,26.53,0,0,1,26.5,26.5Z"
     transform="translate(-195.5 -141.171)"
     fill="#2f2e41"
     id="path869" />
  <path
     id="path2383"
     style="fill:#dc9a6a;fill-opacity:1;stroke:#000000;stroke-width:5.76;stroke-linecap:round;stroke-linejoin:round"
     d="m 730.75501,57.658 c -20.0736,-20.088 -55.8,-21.1104 -77.0544,-2.232 -14.9616,13.1184 -20.9232,33.264 -22.8816,52.344 -1.3824,13.752 -0.5616,28.512 6.4944,40.7664 7.0848,9.1008 19.4256,11.016 30.2544,11.5632 21.5856,0.9648 44.3952,-4.248 61.6464,-17.9136 20.7936,-17.8416 25.6464,-51.0624 10.3824,-73.8288 -2.4912,-3.888 -5.5008,-7.4736 -8.8416,-10.6992 z" />
  <path
     id="path3250"
     style="fill:#000000;fill-opacity:0.31373;stroke-width:1.44"
     d="m 685.48141,42.1492 c 4.2768,1.0224 8.424,2.592 12.2976,4.7808 3.7584,2.0304 7.3152,4.464 10.4976,7.3008 19.1952,16.416 23.1552,47.088 9.144,68.0544 -11.9376,16.4016 -30.9024,26.6688 -50.2992,31.1616 -7.8624,1.7712 -16.8192,2.9952 -24.48,0.0864 7.0848,4.8672 16.4592,6.1488 24.912,6.5664 21.5856,0.9648 44.3952,-4.248 61.6608,-17.9136 20.7936,-17.8416 25.6464,-51.0624 10.3824,-73.8288 -2.4912,-3.9024 -5.5008,-7.4736 -8.8416,-10.7136 -11.736,-11.7504 -28.8432,-16.9632 -45.2736,-15.4944 z" />
  <path
     id="path3239"
     style="fill:url(#linearGradient2009);fill-rule:evenodd;stroke:#000000;stroke-width:5.76"
     d="m 731.28781,52.6036 c 3.96,-12.2976 23.9328,-23.6592 29.8512,-19.3824 5.9184,4.2912 6.3792,14.4864 5.328,15.9984 -1.0368,1.4976 -11.7216,-3.1248 -18.4608,2.448 -6.7248,5.5584 -10.1088,10.3104 -10.1088,10.3104 z" />
  <path
     id="path3263"
     style="fill:#000000;fill-opacity:0.31373;fill-rule:evenodd;stroke-width:1.44"
     d="m 765.21421,38.5636 c 0.1296,1.3392 -0.0576,2.448 -0.4176,2.88 -1.0224,1.224 -11.2608,0.0288 -17.8272,5.112 -6.552,5.0832 -9.864,8.9712 -9.864,8.9712 l -5.2416,-4.4064 c -0.2016,0.504 -0.4176,0.9936 -0.576,1.4832 l 6.6096,9.3888 c 0,0 3.384,-4.7664 10.1088,-10.3392 6.7392,-5.5584 17.424,-0.936 18.4608,-2.448 0.72,-1.0224 0.72,-6.1488 -1.2528,-10.6416 z" />
  <path
     id="path3201"
     style="fill:url(#linearGradient2009);stroke:#000000;stroke-width:5.76;stroke-linecap:round;stroke-linejoin:round"
     d="m 735.89581,52.6756 c -19.7136,-19.5264 -52.3872,-24.5664 -75.3696,-9.9216 -5.1984,2.8656 -3.6288,10.0512 -3.5712,9.936 8.6832,-6.8688 17.6832,0.6912 29.5056,9.1728 14.472,10.3824 30.384,26.3088 42.0624,41.7888 8.1792,10.8288 14.0256,21.4704 9.3456,28.9152 0.2448,0.072 7.0416,1.9872 10.152,-4.3488 15.6672,-29.5344 6.8112,-57.9024 -12.1248,-75.5424 z" />
  <path
     id="path3269"
     style="fill:#000000;fill-opacity:0.31373;stroke-width:1.44"
     d="m 734.34061,50.5012 c 6.2496,16.2144 5.4288,31.5504 -2.5056,46.3536 -1.8,3.3696 -4.5648,2.2752 -6.8832,2.232 1.224,1.512 2.4192,3.0528 3.5712,4.5648 8.1648,10.8432 14.0256,21.4848 9.3456,28.9152 0.2448,0.072 7.0416,2.0016 10.152,-4.3344 14.3424,-27.072 8.0496,-56.52 -13.68,-77.7312 z" />
</svg>
