<?xml version="1.0" encoding="UTF-8" standalone="no"?>
<svg
   data-name="Layer 1"
   width="619.96167"
   height="565.07904"
   viewBox="0 0 619.96166 565.07902"
   version="1.1"
   id="svg1804"
   sodipodi:docname="undraw_use_cases_sqrl.svg"
   inkscape:version="1.1.1 (c3084ef, 2021-09-22)"
   xmlns:inkscape="http://www.inkscape.org/namespaces/inkscape"
   xmlns:sodipodi="http://sodipodi.sourceforge.net/DTD/sodipodi-0.dtd"
   xmlns:xlink="http://www.w3.org/1999/xlink"
   xmlns="http://www.w3.org/2000/svg"
   xmlns:svg="http://www.w3.org/2000/svg">
  <defs
     id="defs1808">
    <linearGradient
       id="linearGradient2009"
       inkscape:swatch="solid"
       gradientTransform="matrix(0.03284317,0.14042683,0.44828622,-0.13691972,178.60779,391.14696)">
      <stop
         style="stop-color:#74401b;stop-opacity:1;"
         offset="0"
         id="stop2007" />
    </linearGradient>
    <linearGradient
       id="linearGradient2069"
       inkscape:swatch="solid"
       gradientTransform="matrix(0.38152652,0.10207337,-0.10249719,0.3819541,821.87441,-357.69719)">
      <stop
         style="stop-color:#d07839;stop-opacity:1;"
         offset="0"
         id="stop2067" />
    </linearGradient>
    <linearGradient
       inkscape:collect="always"
       xlink:href="#linearGradient2069"
       id="linearGradient2071"
       x1="162.51797"
       y1="416.035"
       x2="448.50153"
       y2="416.035"
       gradientUnits="userSpaceOnUse"
       gradientTransform="translate(169.48794,-238.68903)" />
    <linearGradient
       inkscape:collect="always"
       xlink:href="#linearGradient2069"
       id="linearGradient2083"
       x1="269.20129"
       y1="561.96002"
       x2="515.17871"
       y2="561.96002"
       gradientUnits="userSpaceOnUse"
       gradientTransform="matrix(1.3428,0,0,1.344,-50.75206,-384.74903)" />
    <linearGradient
       inkscape:collect="always"
       xlink:href="#linearGradient2069"
       id="linearGradient2077"
       x1="202.81"
       y1="467.85501"
       x2="564.1795"
       y2="467.85501"
       gradientUnits="userSpaceOnUse"
       gradientTransform="translate(169.48794,-238.68903)" />
  </defs>
  <sodipodi:namedview
     id="namedview1806"
     pagecolor="#ffffff"
     bordercolor="#666666"
     borderopacity="1.0"
     inkscape:pageshadow="2"
     inkscape:pageopacity="0.0"
     inkscape:pagecheckerboard="0"
     showgrid="false"
     inkscape:zoom="1.003448"
     inkscape:cx="321.39183"
     inkscape:cy="349.29562"
     inkscape:window-width="1296"
     inkscape:window-height="855"
     inkscape:window-x="0"
     inkscape:window-y="23"
     inkscape:window-maximized="0"
     inkscape:current-layer="svg1804" />
  <path
     d="m 604.49645,509.8219 c -6.07808,21.08563 -23.82531,35.8458 -42.33791,48.38436 q -3.87729,2.62662 -7.75705,5.13238 c -0.0175,0.008 -0.0356,0.024 -0.0533,0.0319 -0.12444,0.0799 -0.24912,0.16 -0.36507,0.24051 -0.53382,0.3441 -1.06783,0.68843 -1.59722,1.02857 l 0.29079,0.13063 c 0,0 0.28555,0.15184 -0.0269,0.0243 -0.093,-0.0389 -0.19039,-0.0738 -0.28317,-0.11293 -10.75465,-4.33752 -21.70032,-8.99468 -29.94214,-17.12029 -8.54967,-8.43791 -13.54607,-21.67238 -8.9165,-32.75735 a 21.16418,21.16418 0 0 1 2.29164,-4.11315 c 0.37552,-0.53737 0.78,-1.05168 1.20106,-1.55646 a 22.68513,22.68513 0 0 1 38.96238,6.89338 c 1.36007,-12.6633 -9.08179,-23.2707 -19.13056,-31.0974 -10.05319,-7.82275 -21.47644,-16.34189 -23.42,-28.9349 -1.08536,-7.00658 1.35112,-13.79663 5.78949,-19.24746 0.13741,-0.16562 0.27463,-0.331 0.41615,-0.49209 a 33.10694,33.10694 0 0 1 21.279,-11.41581 c 15.41527,-1.6021 30.38885,6.55749 41.58771,17.27548 18.02455,17.24452 28.92116,43.73209 22.01157,67.70632 z"
     fill="#f2f2f2"
     id="path1750" />
  <path
     d="m 575.52129,482.24213 a 56.27923,56.27923 0 0 1 6.74256,14.87115 48.86776,48.86776 0 0 1 1.68915,14.43307 62.61267,62.61267 0 0 1 -8.20045,28.49443 90.11433,90.11433 0 0 1 -13.594,18.16548 q -3.87729,2.62662 -7.75705,5.13238 c -0.0175,0.008 -0.0356,0.024 -0.0533,0.0319 -0.12444,0.0799 -0.24912,0.16 -0.36507,0.24051 -0.53382,0.3441 -1.06783,0.68843 -1.59722,1.02857 0,0 0.57634,0.28247 0.26393,0.155 -0.093,-0.0389 -0.19039,-0.0738 -0.28317,-0.11293 A 49.81321,49.81321 0 0 0 536.42712,521.79103 50.23981,50.23981 0 0 0 515.79967,510.6909 c 0.37552,-0.53737 0.78,-1.05168 1.20106,-1.55646 a 52.08834,52.08834 0 0 1 8.598,3.25356 51.03926,51.03926 0 0 1 23.07711,22.24903 52.182,52.182 0 0 1 5.68156,28.63484 c 0.44188,-0.40043 0.8843,-0.80955 1.31337,-1.21482 8.17238,-7.61919 15.43108,-16.36478 20.34353,-26.45793 a 58.24876,58.24876 0 0 0 6.09942,-27.55943 c -0.40092,-10.41058 -4.54886,-20.05345 -10.55453,-28.44813 a 121.92624,121.92624 0 0 0 -23.11172,-23.819 138.54362,138.54362 0 0 0 -28.74415,-17.74607 0.99611,0.99611 0 0 1 -0.50129,-1.27842 0.84725,0.84725 0 0 1 0.41615,-0.49209 0.73758,0.73758 0 0 1 0.64055,0.0272 c 1.26792,0.5837 2.527,1.17539 3.77607,1.79266 a 140.11649,140.11649 0 0 1 28.949,19.096 c 8.52116,7.26482 16.54333,15.56485 22.5375,25.0703 z"
     fill="#ffffff"
     id="path1752" />
  <path
     d="m 56.97269,529.61516 h 68.97688 L 160.43804,469.87942 125.9496,410.1437 H 56.97269 l -34.48844,59.73572 z"
     fill="#f2f2f2"
     id="path1754" />
  <path
     d="m 56.97269,333.61516 h 68.97688 L 160.43804,273.87942 125.9496,214.1437 H 56.97269 l -34.48844,59.73572 z"
     fill="#f2f2f2"
     id="path1756" />
  <path
     d="m 56.97269,139.61516 h 68.97688 L 160.43804,79.87942 125.9496,20.1437 H 56.97269 L 22.48425,79.87942 Z"
     fill="#f2f2f2"
     id="path1758" />
  <path
     d="M 134.69267,159.75879 H 48.22954 a 5.01407,5.01407 0 0 1 -4.3302,-2.5 L 0.66776993,82.37891 a 5.01476,5.01476 0 0 1 0,-5 L 43.89946,2.5 A 5.01373,5.01373 0 0 1 48.22954,0 h 86.46329 a 5.01355,5.01355 0 0 1 4.33007,2.5 l 43.23157,74.87891 a 5.01354,5.01354 0 0 1 0,5 l -43.23172,74.87988 a 5.01326,5.01326 0 0 1 -4.33008,2.5 z M 48.22954,2.00004 a 3.00833,3.00833 0 0 0 -2.59814,1.5 L 2.3998299,78.37895 a 3.00865,3.00865 0 0 0 1.2e-4,3 L 45.6314,156.25879 a 3.00833,3.00833 0 0 0 2.59814,1.5 h 86.46313 a 3.00785,3.00785 0 0 0 2.598,-1.5 l 43.23181,-74.87988 a 3.00836,3.00836 0 0 0 0,-3 L 137.29067,3.5 A 3.00779,3.00779 0 0 0 134.69277,2 Z"
     fill="#cccccc"
     id="path1760" />
  <path
     d="M 134.69267,354.79887 H 48.22954 a 5.01407,5.01407 0 0 1 -4.3302,-2.5 L 0.66776993,277.41899 a 5.01476,5.01476 0 0 1 0,-5 L 43.89946,197.54008 a 5.01373,5.01373 0 0 1 4.33008,-2.5 h 86.46329 a 5.01355,5.01355 0 0 1 4.33007,2.5 l 43.23157,74.87891 a 5.01354,5.01354 0 0 1 0,5 l -43.23169,74.87988 a 5.01326,5.01326 0 0 1 -4.33011,2.5 z M 48.22954,197.04008 a 3.00833,3.00833 0 0 0 -2.59814,1.5 L 2.3998299,273.41899 a 3.00865,3.00865 0 0 0 1.2e-4,3 L 45.6314,351.29887 a 3.00833,3.00833 0 0 0 2.59814,1.5 h 86.46313 a 3.00785,3.00785 0 0 0 2.598,-1.5 l 43.23181,-74.87988 a 3.00836,3.00836 0 0 0 0,-3 l -43.23181,-74.87891 a 3.00779,3.00779 0 0 0 -2.5979,-1.5 z"
     fill="#cccccc"
     id="path1762" />
  <path
     d="M 134.69267,549.83891 H 48.22954 a 5.01407,5.01407 0 0 1 -4.3302,-2.5 L 0.66776993,472.45903 a 5.01325,5.01325 0 0 1 1.2e-4,-5 L 43.89946,392.58012 a 5.01373,5.01373 0 0 1 4.33008,-2.5 h 86.46329 a 5.01355,5.01355 0 0 1 4.33007,2.5 l 43.23157,74.87891 a 5.01354,5.01354 0 0 1 0,5 l -43.23169,74.87988 a 5.01326,5.01326 0 0 1 -4.33011,2.5 z M 48.22954,392.08012 a 3.00833,3.00833 0 0 0 -2.59814,1.5 L 2.3998299,468.45903 a 3.00807,3.00807 0 0 0 1.2e-4,3 L 45.6314,546.33891 a 3.00833,3.00833 0 0 0 2.59814,1.5 h 86.46313 a 3.00785,3.00785 0 0 0 2.598,-1.5 l 43.23181,-74.87988 a 3.00836,3.00836 0 0 0 0,-3 l -43.23181,-74.87891 a 3.00779,3.00779 0 0 0 -2.5979,-1.5 z"
     fill="#cccccc"
     id="path1764" />
  <path
     d="m 91.46113,240.90273 a 32.9767,32.9767 0 1 0 32.9767,32.97674 32.97669,32.97669 0 0 0 -32.9767,-32.97674 z m 0,9.893 a 9.893,9.893 0 1 1 -9.893,9.893 9.893,9.893 0 0 1 9.893,-9.89294 z m 0,47.626 a 24.02325,24.02325 0 0 1 -19.786,-10.55889 c 0.15858,-6.59535 13.19069,-10.22594 19.786,-10.22594 6.59531,0 19.62745,3.63059 19.786,10.22594 a 24.06327,24.06327 0 0 1 -19.786,10.55886 z"
     fill="#2fa4da"
     id="path1766" />
  <path
     d="M 91.39761,56.90759 A 18.00482,18.00482 0 1 0 65.33733,81.75826 q 0.29517,0.30953 0.6048,0.60481 l 26.0677,26.06772 25.45546,-25.45548 A 18.43787,18.43787 0 0 0 91.39756,56.90759 Z"
     fill="#2fa4da"
     id="path1768" />
  <path
     d="m 112.69648,449.90191 c 0,11.728 -21.23533,37.47414 -21.23533,37.47414 0,0 -21.23532,-25.74616 -21.23532,-37.47414 a 21.235342,21.235342 0 1 1 42.47067,-0.0347 z"
     fill="#2fa4da"
     id="path1770" />
  <circle
     cx="91.461151"
     cy="449.90192"
     r="8.3424597"
     fill="#ffffff"
     id="circle1772" />
  <circle
     cx="90.702728"
     cy="502.76718"
     r="8.3424702"
     fill="#2fa4da"
     id="circle1774" />
  <path
     d="m 618.96166,564.71928 h -381 a 1,1 0 0 1 0,-2 h 381 a 1,1 0 0 1 0,2 z"
     fill="#3f3d56"
     id="path1802" />
  <g
     id="g2515"
     transform="matrix(0.7,0,0,0.7,46.76966,185.03725)">
    <path
       id="path3584"
       style="fill:url(#linearGradient2077);fill-opacity:1;stroke:#000000;stroke-width:4;stroke-linecap:round;stroke-linejoin:round"
       d="m 731.61794,229.16097 c -1.39,78.87 -54.33,113.15 -55.2,79.85 -1.08,-42.12 -19.22,-151.36 -90.42,-117.86 -85.15,40.06 -8.39,284.07 -33.04,284.07 -98.62,0 -178.66,-110.23 -178.66,-246.06 0,-135.82 80.04,-246.05 178.66,-246.05 98.62,0 181.02,111.96 178.66,246.05 z" />
    <path
       id="path3604"
       style="fill:#000000;fill-opacity:0.31373"
       d="m 683.36794,60.37097 c 22.87,41.39 34.22,93.29 35.24,147.78 0.95,50.34 -12.76,97.88 -38.18,111.35 11.87,3.8 49.8,-11.48 51.18,-90.35 1.15,-64.81 -17.52,-124.45 -48.24,-168.78 z m -86.1,103.5 c -7.31,0.14 -15.38,2.1 -24.28,6.28 -85.15,40.06 -8.38,284.07 -33.03,284.07 -50.79,0 -96.65,-29.24 -129.19,-76.16 32.65,59.02 84.2,97.16 142.19,97.16 24.65,0 -52.12,-244.01 33.03,-284.07 26.4,-12.41 45.51,-5.21 59.16,10.91 -10.18,-21.96 -25.48,-38.61 -47.88,-38.19 z" />
    <path
       id="path2385"
       style="fill:url(#linearGradient2083);fill-opacity:1;stroke:#000000;stroke-width:3.99984;stroke-linecap:round;stroke-linejoin:round"
       d="m 639.03087,370.52521 a 163.1502,163.296 0 1 1 -326.3004,0 163.1502,163.296 0 1 1 326.3004,0 z" />
    <path
       id="path3276"
       style="fill:#000000;fill-opacity:0.31373"
       d="m 475.88794,207.25097 c -17.36,0 -34.07,2.74 -49.77,7.77 14.12,-3.3 29.01,-5.08 44.4,-5.08 42.22,0 80.72,13.28 109.69,35.07 -28.28,-23.58 -64.66,-37.76 -104.32,-37.76 z m 154.51,110.72 c 2.14,8.72 3.28,17.72 3.28,26.96 0,74.52 -73.1,134.99 -163.16,134.99 -75.31,0 -138.73,-42.28 -157.49,-99.71 5,85.65 76.04,153.64 162.86,153.64 90.06,0 163.16,-73.16 163.16,-163.3 0,-18.39 -3.04,-36.08 -8.65,-52.58 z" />
    <path
       id="path3236"
       style="fill:#000000;fill-opacity:0.31373"
       d="m 475.88794,207.25097 c -27.82,0 -54.03,6.97 -76.96,19.28 10.86,37.97 42.59,73.08 80.07,73.08 36.48,0 67.57,-33.26 79.22,-70.06 -24.17,-14.17 -52.31,-22.3 -82.33,-22.3 z" />
    <path
       id="path3573"
       style="fill:url(#linearGradient2071);fill-opacity:1;fill-rule:evenodd;stroke:#000000;stroke-width:4;stroke-linejoin:round"
       d="m 587.67794,71.23097 c -19.81,0 -60.05,10.54 -67.09,37.87 -0.11,0.21 -0.32,0.97 -0.55,2.14 -12.74,-7.79 -27.72,-12.32 -43.73,-12.32 -16.72,0 -32.26,4.94 -45.35,13.36 -0.27,-1.71 -0.6,-2.91 -0.73,-3.18 -7.04,-27.33 -47.28,-37.84 -67.1,-37.85 -3.15,0 -5.76,0.27 -7.67,0.77 -10.63,1.48 -22.27,5.73 -21.42,8.05 7.8,-1.33 11.74,0.19 11.62,1.45 -0.24,2.36 -4.94,2.99 -3.43,11.5 2.85,-4.13 6.82,-5.55 9.94,-6.21 3.2,20.09 17.2,55.16 43.4,56.98 2.25,0.16 4.35,0.15 6.33,0.11 -6.18,11.72 -9.69,25.07 -9.69,39.24 0,46.47 37.67,100.32 84.1,100.32 46.42,0 84.14,-53.85 84.14,-100.32 0,-14.16 -3.52,-27.48 -9.7,-39.19 1.43,-0.01 2.94,-0.05 4.5,-0.16 26.11,-1.81 40.11,-36.68 43.37,-56.79 2.98,0.73 6.54,2.23 9.15,6.02 1.51,-8.51 -3.19,-9.14 -3.43,-11.5 -0.12,-1.26 3.82,-2.78 11.62,-1.45 0.81,-2.2 -9.58,-6.13 -19.72,-7.8 -1.93,-0.68 -4.89,-1.04 -8.56,-1.04 z" />
    <path
       id="path3619"
       style="fill:#000000;fill-opacity:0.31373"
       d="m 508.37794,320.60097 c -13.94,-13.95 -38.75,-14.66 -53.51,-1.55 -10.39,9.11 -14.53,23.1 -15.89,36.35 -0.96,9.55 -0.39,19.8 4.51,28.31 4.92,6.32 13.49,7.65 21.01,8.03 14.99,0.67 30.83,-2.95 42.81,-12.44 14.44,-12.39 17.81,-35.46 7.21,-51.27 -1.73,-2.7 -3.82,-5.19 -6.14,-7.43 z" />
    <path
       id="path3242"
       style="fill:#000000;fill-opacity:0.31373;stroke-width:0.62866"
       d="m 458.88228,348.85196 a 30.8566,30.884099 0 1 1 -61.7132,0 30.8566,30.884099 0 1 1 61.7132,0 z" />
    <path
       id="path2383"
       style="fill:#dc9a6a;fill-opacity:1;stroke:#000000;stroke-width:4;stroke-linecap:round;stroke-linejoin:round"
       d="m 503.37794,310.60097 c -13.94,-13.95 -38.75,-14.66 -53.51,-1.55 -10.39,9.11 -14.53,23.1 -15.89,36.35 -0.96,9.55 -0.39,19.8 4.51,28.31 4.92,6.32 13.49,7.65 21.01,8.03 14.99,0.67 30.83,-2.95 42.81,-12.44 14.44,-12.39 17.81,-35.46 7.21,-51.27 -1.73,-2.7 -3.82,-5.19 -6.14,-7.43 z" />
    <path
       id="path3250"
       style="fill:#000000;fill-opacity:0.31373"
       d="m 471.93794,299.83097 c 2.97,0.71 5.85,1.8 8.54,3.32 2.61,1.41 5.08,3.1 7.29,5.07 13.33,11.4 16.08,32.7 6.35,47.26 -8.29,11.39 -21.46,18.52 -34.93,21.64 -5.46,1.23 -11.68,2.08 -17,0.06 4.92,3.38 11.43,4.27 17.3,4.56 14.99,0.67 30.83,-2.95 42.82,-12.44 14.44,-12.39 17.81,-35.46 7.21,-51.27 -1.73,-2.71 -3.82,-5.19 -6.14,-7.44 -8.15,-8.16 -20.03,-11.78 -31.44,-10.76 z" />
    <path
       id="path3239"
       style="fill:url(#linearGradient2009);fill-rule:evenodd;stroke:#000000;stroke-width:4"
       d="m 503.74794,307.09097 c 2.75,-8.54 16.62,-16.43 20.73,-13.46 4.11,2.98 4.43,10.06 3.7,11.11 -0.72,1.04 -8.14,-2.17 -12.82,1.7 -4.67,3.86 -7.02,7.16 -7.02,7.16 z" />
    <path
       id="path3263"
       style="fill:#000000;fill-opacity:0.31373;fill-rule:evenodd"
       d="m 527.30794,297.34097 c 0.09,0.93 -0.04,1.7 -0.29,2 -0.71,0.85 -7.82,0.02 -12.38,3.55 -4.55,3.53 -6.85,6.23 -6.85,6.23 l -3.64,-3.06 c -0.14,0.35 -0.29,0.69 -0.4,1.03 l 4.59,6.52 c 0,0 2.35,-3.31 7.02,-7.18 4.68,-3.86 12.1,-0.65 12.82,-1.7 0.5,-0.71 0.5,-4.27 -0.87,-7.39 z" />
    <path
       id="path3201"
       style="fill:url(#linearGradient2009);stroke:#000000;stroke-width:4;stroke-linecap:round;stroke-linejoin:round"
       d="m 506.94794,307.14097 c -13.69,-13.56 -36.38,-17.06 -52.34,-6.89 -3.61,1.99 -2.52,6.98 -2.48,6.9 6.03,-4.77 12.28,0.48 20.49,6.37 10.05,7.21 21.1,18.27 29.21,29.02 5.68,7.52 9.74,14.91 6.49,20.08 0.17,0.05 4.89,1.38 7.05,-3.02 10.88,-20.51 4.73,-40.21 -8.42,-52.46 z" />
    <path
       id="path3269"
       style="fill:#000000;fill-opacity:0.31373"
       d="m 505.86794,305.63097 c 4.34,11.26 3.77,21.91 -1.74,32.19 -1.25,2.34 -3.17,1.58 -4.78,1.55 0.85,1.05 1.68,2.12 2.48,3.17 5.67,7.53 9.74,14.92 6.49,20.08 0.17,0.05 4.89,1.39 7.05,-3.01 9.96,-18.8 5.59,-39.25 -9.5,-53.98 z" />
    <path
       id="path3159"
       style="fill:url(#linearGradient2069);stroke:#000000;stroke-width:4.00001;stroke-linecap:round;stroke-linejoin:round"
       d="m 449.6538,327.14307 a 30.883758,30.85647 59.871655 1 1 -53.4449,30.8566 30.883758,30.85647 59.871655 1 1 53.4449,-30.8566 z" />
    <path
       id="path3244"
       style="fill:#000000;fill-opacity:0.31373;stroke-width:0.62866"
       d="m 574.64028,349.33196 a 30.8566,30.884099 0 1 1 -61.7132,0 30.8566,30.884099 0 1 1 61.7132,0 z" />
    <path
       id="path3161"
       style="fill:url(#linearGradient2069);stroke:#000000;stroke-width:3.99999;stroke-linecap:round;stroke-linejoin:round"
       d="m 560.61551,364.38935 a 30.856478,30.883561 45 1 1 -43.63765,-43.63765 30.856478,30.883561 45 1 1 43.63765,43.63765 z" />
    <path
       id="path3163"
       style="fill:url(#linearGradient2069);stroke:#000000;stroke-width:4;stroke-linecap:round;stroke-linejoin:round"
       d="m 554.94794,440.78097 c -40.83,0 -73.98,33.18 -73.98,74.04 0,8.45 1.42,16.55 4.03,24.11 h 139.86 c 2.61,-7.56 4.03,-15.66 4.03,-24.11 0,-40.86 -33.11,-74.04 -73.94,-74.04 z" />
    <path
       id="path3165"
       style="fill:url(#linearGradient2069);stroke:#000000;stroke-width:4;stroke-linecap:round;stroke-linejoin:round"
       d="m 406.98794,440.78097 c -40.83,0 -73.94,33.18 -73.94,74.04 0,8.45 1.42,16.55 4.03,24.11 h 139.86 c 2.61,-7.56 4.03,-15.66 4.03,-24.11 0,-40.86 -33.15,-74.04 -73.98,-74.04 z" />
    <path
       id="path3177"
       style="fill:#ffffff;stroke:#000000;stroke-width:4.00002;stroke-linecap:round;stroke-linejoin:round"
       d="m 473.37443,176.39314 a 27.480228,27.504785 0 1 1 -54.96045,0 27.480228,27.504785 0 1 1 54.96045,0 z" />
    <path
       id="path3179"
       style="fill:#ffffff;stroke:#000000;stroke-width:4.00002;stroke-linecap:round;stroke-linejoin:round"
       d="m 534.23443,176.39314 a 27.480228,27.504785 0 1 1 -54.96045,0 27.480228,27.504785 0 1 1 54.96045,0 z" />
    <path
       id="path3181"
       style="fill:#000000;stroke-width:1.3434"
       d="m 464.86096,179.73489 a 8.875908,8.88384 0 1 1 -17.75181,0 8.875908,8.88384 0 1 1 17.75181,0 z" />
    <path
       id="path3183"
       style="fill:#000000;stroke-width:1.3434"
       d="m 505.46096,179.73489 a 8.875908,8.88384 0 1 1 -17.75181,0 8.875908,8.88384 0 1 1 17.75181,0 z" />
    <path
       id="path3192"
       style="fill:#000000;fill-rule:evenodd"
       d="m 462.11794,229.16097 c 4.48,-4.79 23.51,-5.83 27.49,0.59 3.98,6.43 -5.97,19.75 -13.75,19.15 -7.74,-0.6 -17.94,-15.27 -13.74,-19.74 z" />
    <path
       id="path3216"
       style="fill:#74401b;fill-opacity:1;fill-rule:evenodd;stroke:#000000;stroke-width:4;stroke-linejoin:round"
       d="m 412.06794,131.52097 c -2.95,-42.72 -46.91,-52.45 -49.03,-47.38 -2.11,5.08 8.03,62.19 49.03,47.38 z" />
    <path
       id="path3218"
       style="fill:url(#linearGradient2009);fill-opacity:1;fill-rule:evenodd;stroke:#000000;stroke-width:4;stroke-linejoin:round"
       d="m 537.34794,131.52097 c 2.95,-42.72 46.91,-52.45 49.03,-47.38 2.11,5.08 -8.04,62.19 -49.03,47.38 z" />
    <path
       id="path3220"
       style="fill:url(#linearGradient2009);stroke:#000000;stroke-width:3.67216;stroke-linecap:round;stroke-linejoin:round"
       d="m 400.43514,517.56081 a 19.8065,23.52 0 1 1 -39.613,0 19.8065,23.52 0 1 1 39.613,0 z" />
    <path
       id="path3224"
       style="fill:url(#linearGradient2009);stroke:#000000;stroke-width:3.67216;stroke-linecap:round;stroke-linejoin:round"
       d="m 450.11514,517.56081 a 19.8065,23.52 0 1 1 -39.613,0 19.8065,23.52 0 1 1 39.613,0 z" />
    <path
       id="path3222"
       style="fill:url(#linearGradient2009);stroke:#000000;stroke-width:3.67216;stroke-linecap:round;stroke-linejoin:round"
       d="m 426.61514,517.56081 a 19.8065,23.52 0 1 1 -39.613,0 19.8065,23.52 0 1 1 39.613,0 z" />
    <path
       id="path3226"
       style="fill:url(#linearGradient2009);stroke:#000000;stroke-width:3.67216;stroke-linecap:round;stroke-linejoin:round"
       d="m 552.84414,517.56081 a 19.8065,23.52 0 1 1 -39.613,0 19.8065,23.52 0 1 1 39.613,0 z" />
    <path
       id="path3228"
       style="fill:url(#linearGradient2009);stroke:#000000;stroke-width:3.67216;stroke-linecap:round;stroke-linejoin:round"
       d="m 602.52914,517.56081 a 19.8065,23.52 0 1 1 -39.613,0 19.8065,23.52 0 1 1 39.613,0 z" />
    <path
       id="path3230"
       style="fill:url(#linearGradient2009);stroke:#000000;stroke-width:3.67216;stroke-linecap:round;stroke-linejoin:round"
       d="m 579.02914,517.56081 a 19.8065,23.52 0 1 1 -39.613,0 19.8065,23.52 0 1 1 39.613,0 z" />
    <path
       id="path3246"
       style="fill:#000000;fill-opacity:0.31373"
       d="m 553.81794,150.55097 c 1.53,6.34 2.35,12.98 2.35,19.78 0,46.47 -37.71,100.3 -84.14,100.3 -33.84,0 -62.99,-28.61 -76.33,-62.12 10.33,38.69 42.51,74.97 80.61,74.97 46.43,0 84.14,-53.87 84.14,-100.34 0,-11.56 -2.36,-22.56 -6.59,-32.59 z" />
    <path
       id="path3264"
       style="fill:url(#linearGradient2009);stroke:#000000;stroke-width:3.67228;stroke-linecap:round;stroke-linejoin:round"
       d="m 432.64623,349.97132 a 12.093522,10.621423 30.170207 1 1 -10.61445,18.4009 12.093522,10.621423 30.170207 1 1 10.61445,-18.4009 z" />
    <path
       id="path3266"
       style="fill:url(#linearGradient2009);stroke:#000000;stroke-width:3.67228;stroke-linecap:round;stroke-linejoin:round"
       d="m 445.95623,326.89132 a 12.093522,10.621423 30.170207 1 1 -10.61445,18.4009 12.093522,10.621423 30.170207 1 1 10.61445,-18.4009 z" />
    <path
       id="path3268"
       style="fill:url(#linearGradient2009);stroke:#000000;stroke-width:3.67228;stroke-linecap:round;stroke-linejoin:round"
       d="m 445.01623,341.70132 a 12.093522,10.621423 30.170207 1 1 -10.61445,18.4009 12.093522,10.621423 30.170207 1 1 10.61445,-18.4009 z" />
    <path
       id="path3270"
       style="fill:url(#linearGradient2009);stroke:#000000;stroke-width:3.67228;stroke-linecap:round;stroke-linejoin:round"
       d="m 528.32322,348.03725 a 10.621436,12.093514 74.826868 1 0 5.4901,20.5212 10.621436,12.093514 74.826868 1 0 -5.4901,-20.5212 z" />
    <path
       id="path3272"
       style="fill:url(#linearGradient2009);stroke:#000000;stroke-width:3.67228;stroke-linecap:round;stroke-linejoin:round"
       d="m 521.44322,322.29725 a 10.621436,12.093514 74.826868 1 0 5.4901,20.5212 10.621436,12.093514 74.826868 1 0 -5.4901,-20.5212 z" />
    <path
       id="path3274"
       style="fill:url(#linearGradient2009);stroke:#000000;stroke-width:3.67228;stroke-linecap:round;stroke-linejoin:round"
       d="m 518.52322,336.84725 a 10.621436,12.093514 74.826868 1 0 5.4901,20.5212 10.621436,12.093514 74.826868 1 0 -5.4901,-20.5212 z" />
  </g>
</svg>
