<?xml version="1.0" encoding="UTF-8" standalone="no"?>
<svg
   data-name="Layer 1"
   width="1010"
   height="770.56348"
   viewBox="0 0 1010 770.56348"
   version="1.1"
   id="svg904"
   sodipodi:docname="undraw_architecture_sqrl.svg"
   inkscape:version="1.1.1 (c3084ef, 2021-09-22)"
   xmlns:inkscape="http://www.inkscape.org/namespaces/inkscape"
   xmlns:sodipodi="http://sodipodi.sourceforge.net/DTD/sodipodi-0.dtd"
   xmlns:xlink="http://www.w3.org/1999/xlink"
   xmlns="http://www.w3.org/2000/svg"
   xmlns:svg="http://www.w3.org/2000/svg">
  <defs
     id="defs908">
    <linearGradient
       id="linearGradient2009"
       inkscape:swatch="solid"
       gradientTransform="matrix(0.03284317,0.14042683,0.44828622,-0.13691972,-389.85286,459.08235)">
      <stop
         style="stop-color:#74401b;stop-opacity:1;"
         offset="0"
         id="stop2007" />
    </linearGradient>
    <linearGradient
       id="linearGradient2069"
       inkscape:swatch="solid"
       gradientTransform="matrix(0.38152652,0.10207337,-0.10249719,0.3819541,-742.32724,-138.83774)">
      <stop
         style="stop-color:#d07839;stop-opacity:1;"
         offset="0"
         id="stop2067" />
    </linearGradient>
    <linearGradient
       inkscape:collect="always"
       xlink:href="#linearGradient2069"
       id="linearGradient2071"
       x1="162.51797"
       y1="416.035"
       x2="448.50153"
       y2="416.035"
       gradientUnits="userSpaceOnUse"
       gradientTransform="translate(-269.14163,-118.57601)" />
    <linearGradient
       inkscape:collect="always"
       xlink:href="#linearGradient2069"
       id="linearGradient2083"
       x1="269.20129"
       y1="561.96002"
       x2="515.17871"
       y2="561.96002"
       gradientUnits="userSpaceOnUse"
       gradientTransform="matrix(1.3428,0,0,1.344,-489.38163,-264.63601)" />
    <linearGradient
       inkscape:collect="always"
       xlink:href="#linearGradient2069"
       id="linearGradient2077"
       x1="202.81"
       y1="467.85501"
       x2="564.1795"
       y2="467.85501"
       gradientUnits="userSpaceOnUse"
       gradientTransform="translate(-269.14163,-118.57601)" />
  </defs>
  <sodipodi:namedview
     id="namedview906"
     pagecolor="#ffffff"
     bordercolor="#666666"
     borderopacity="1.0"
     inkscape:pageshadow="2"
     inkscape:pageopacity="0.0"
     inkscape:pagecheckerboard="0"
     showgrid="false"
     inkscape:zoom="0.81628577"
     inkscape:cx="505.33773"
     inkscape:cy="385.28174"
     inkscape:window-width="1440"
     inkscape:window-height="855"
     inkscape:window-x="0"
     inkscape:window-y="23"
     inkscape:window-maximized="1"
     inkscape:current-layer="svg904" />
  <path
     d="M370.33659,817.21826h-.06494a8.50958,8.50958,0,0,1-8.5-8.5v-499a8.50958,8.50958,0,0,1,8.5-8.5h420a8.5095,8.5095,0,0,1,8.5,8.5v388a8.50919,8.50919,0,0,1-8.43408,8.49951Z"
     transform="translate(-95 -64.71826)"
     fill="#f2f2f2"
     id="path826" />
  <path
     d="M680.77165,230.71826h-195v-113a9.01032,9.01032,0,0,1,9-9h177a9.01031,9.01031,0,0,1,9,9Zm-193-2h191v-111a7.00786,7.00786,0,0,0-7-7h-177a7.00787,7.00787,0,0,0-7,7Z"
     transform="translate(-95 -64.71826)"
     fill="#3f3d56"
     id="path828" />
  <path
     d="M446.27165,87h84a8,8,0,0,1,8,8V215a0,0,0,0,1,0,0h-100a0,0,0,0,1,0,0V95A8,8,0,0,1,446.27165,87Z"
     fill="#e6e6e6"
     id="path830" />
  <path
     d="M557.77165,110.71826h-41v-41a5.00573,5.00573,0,0,1,5-5h31a5.00573,5.00573,0,0,1,5,5Zm-39-2h37v-39a3.00328,3.00328,0,0,0-3-3h-31a3.00328,3.00328,0,0,0-3,3Z"
     transform="translate(-95 -64.71826)"
     fill="#3f3d56"
     id="path832" />
  <path
     d="M894.68181,713.55811c-.39868,0-.78662,0-1.1853-.01026a101.52227,101.52227,0,0,1-66.89453-26.147q-1.0188-.92726-2.02076-1.87891l-.30957-.29541V493.57422l.09546-.20264c.66187-1.40332,1.3335-2.78662,2.00489-4.16992,20.80029-42.22949,45.05908-65.4834,68.30981-65.4834,33.52954,0,59.53345,45.99365,72.04956,73.40967,17.40479,38.124,29.5603,85.36426,29.5603,114.88037a101.57614,101.57614,0,0,1-100.449,101.54C895.46916,713.55811,895.07024,713.55811,894.68181,713.55811Zm-68.41016-29.189c.554.52344,1.11353,1.04,1.6731,1.54981a99.531,99.531,0,0,0,65.58789,25.62939c.405.00977.78809-.001,1.17554.00977.363,0,.7351,0,1.0979-.00928,54.31176-.60254,98.48559-45.25635,98.48559-99.54053,0-29.25976-12.0813-76.15869-29.37964-114.0498-12.31689-26.9795-37.81909-72.24024-70.23022-72.24024-22.44849,0-46.06982,22.85742-66.51318,64.36182-.63355,1.30517-1.26929,2.61523-1.897,3.94238Z"
     transform="translate(-95 -64.71826)"
     fill="#3f3d56"
     id="path834" />
  <path
     d="M894.677,834.80615a1.15059,1.15059,0,0,1-1.15052-1.15053V598.78743a1.15052,1.15052,0,1,1,2.301,0V833.65562A1.15059,1.15059,0,0,1,894.677,834.80615Z"
     transform="translate(-95 -64.71826)"
     fill="#ccc"
     id="path836" />
  <path
     d="M297.677,834.80615a1.15059,1.15059,0,0,1-1.15052-1.15053V598.78743a1.15052,1.15052,0,1,1,2.301,0V833.65562A1.15059,1.15059,0,0,1,297.677,834.80615Z"
     transform="translate(-95 -64.71826)"
     fill="#ccc"
     id="path838" />
  <path
     d="M894.6776,642.669a1.14786,1.14786,0,0,1-.86991-.39661L835.944,575.54217a1.15072,1.15072,0,0,1,1.73871-1.50781l57.8637,66.73025a1.15083,1.15083,0,0,1-.86879,1.90443Z"
     transform="translate(-95 -64.71826)"
     fill="#ccc"
     id="path840" />
  <path
     d="M894.677,681.18005a1.15052,1.15052,0,0,1-.81345-1.964l32.87919-32.87975a1.1504,1.1504,0,0,1,1.6269,1.62691L895.4905,680.843A1.14633,1.14633,0,0,1,894.677,681.18005Z"
     transform="translate(-95 -64.71826)"
     fill="#ccc"
     id="path842" />
  <path
     d="M1001.124,835.28174H915.11882v-1a43.00257,43.00257,0,1,1,86.00513,0Zm-83.99317-2H999.112a41.0028,41.0028,0,0,0-81.98121,0Z"
     transform="translate(-95 -64.71826)"
     fill="#3f3d56"
     id="path844" />
  <path
     d="M958.12126,809.87469a1.13529,1.13529,0,0,0-1.13525,1.1352V823.0694l-11.74756-10.08289a1.13528,1.13528,0,1,0-1.479,1.72278L956.986,826.06146v7.0849a1.13526,1.13526,0,1,0,2.27051,0V811.00989A1.13529,1.13529,0,0,0,958.12126,809.87469Z"
     transform="translate(-95 -64.71826)"
     fill="#3f3d56"
     id="path846" />
  <path
     d="M298.68181,713.55811c-.39856,0-.78662,0-1.18518-.01026A101.58142,101.58142,0,0,1,197.06169,612.0083c0-29.51709,12.15613-76.75732,29.56153-114.88037,12.51709-27.416,38.52319-73.40967,72.05859-73.40967,13.81311,0,27.72241,7.87305,41.34167,23.40088.6753.76563,1.35218,1.5542,2.01941,2.36231l.22876.27734V703.74512l-.564.27295c-.673.32617-1.35584.63232-2.0387.92773a100.608,100.608,0,0,1-39.82654,8.60254C299.469,713.55811,299.07012,713.55811,298.68181,713.55811Zm0-287.83985c-32.417,0-57.92151,45.26074-70.23926,72.24024-17.299,37.89013-29.38086,84.78906-29.38086,114.0498,0,54.2749,44.17407,98.92822,98.47119,99.54.40455.01025.782.01318,1.1753.00977.363,0,.73523,0,1.0979-.00928a98.65569,98.65569,0,0,0,39.06128-8.43506c.47192-.20459.9403-.41211,1.40429-.62793V450.479c-.579-.69531-1.16455-1.375-1.75-2.03955C325.297,433.3623,311.8936,425.71826,298.68181,425.71826Z"
     transform="translate(-95 -64.71826)"
     fill="#3f3d56"
     id="path852" />
  <path
     d="M298.6776,642.669a1.14786,1.14786,0,0,1-.86991-.39661L239.944,575.54217a1.15072,1.15072,0,0,1,1.73871-1.50781l57.8637,66.73025a1.15083,1.15083,0,0,1-.86879,1.90443Z"
     transform="translate(-95 -64.71826)"
     fill="#ccc"
     id="path854" />
  <path
     d="M298.677,681.18005a1.15052,1.15052,0,0,1-.81345-1.964l32.87919-32.87975a1.1504,1.1504,0,0,1,1.6269,1.62691L299.4905,680.843A1.14633,1.14633,0,0,1,298.677,681.18005Z"
     transform="translate(-95 -64.71826)"
     fill="#ccc"
     id="path856" />
  <path
     d="M389.03142,238.71826l.74023,1.46a4.42322,4.42322,0,0,1,.5,2.04v39.5h35v-39.5a4.42334,4.42334,0,0,1,.5-2.04l.74024-1.46Zm34.24023,3.5v37.5h-31v-37.5a6.27743,6.27743,0,0,0-.18017-1.5h31.36035A6.27693,6.27693,0,0,0,423.27165,242.21826Zm9.75977-3.5.74023,1.46a4.42322,4.42322,0,0,1,.5,2.04v39.5h35v-39.5a4.42334,4.42334,0,0,1,.5-2.04l.74024-1.46Zm34.24023,3.5v37.5h-31v-37.5a6.27743,6.27743,0,0,0-.18017-1.5h31.36035A6.27693,6.27693,0,0,0,467.27165,242.21826Zm9.75977-3.5.74023,1.46a4.42322,4.42322,0,0,1,.5,2.04v39.5h35v-39.5a4.42334,4.42334,0,0,1,.5-2.04l.74024-1.46Zm34.24023,3.5v37.5h-31v-37.5a6.27743,6.27743,0,0,0-.18017-1.5h31.36035A6.27693,6.27693,0,0,0,511.27165,242.21826Zm9.75977-3.5.74023,1.46a4.42322,4.42322,0,0,1,.5,2.04v39.5h35v-39.5a4.42334,4.42334,0,0,1,.5-2.04l.74024-1.46Zm34.24023,3.5v37.5h-31v-37.5a6.27743,6.27743,0,0,0-.18017-1.5h31.36035A6.27693,6.27693,0,0,0,555.27165,242.21826Zm9.75977-3.5.74023,1.46a4.42322,4.42322,0,0,1,.5,2.04v39.5h35v-39.5a4.42334,4.42334,0,0,1,.5-2.04l.74024-1.46Zm34.24023,3.5v37.5h-31v-37.5a6.27743,6.27743,0,0,0-.18017-1.5h31.36035A6.27693,6.27693,0,0,0,599.27165,242.21826Zm9.75977-3.5.74023,1.46a4.42322,4.42322,0,0,1,.5,2.04v39.5h35v-39.5a4.42334,4.42334,0,0,1,.5-2.04l.74024-1.46Zm34.24023,3.5v37.5h-31v-37.5a6.27743,6.27743,0,0,0-.18017-1.5h31.36035A6.27693,6.27693,0,0,0,643.27165,242.21826Zm9.75977-3.5.74023,1.46a4.42322,4.42322,0,0,1,.5,2.04v39.5h35v-39.5a4.42334,4.42334,0,0,1,.5-2.04l.74024-1.46Zm34.24023,3.5v37.5h-31v-37.5a6.27743,6.27743,0,0,0-.18017-1.5h31.36035A6.27693,6.27693,0,0,0,687.27165,242.21826Zm9.75977-3.5.74023,1.46a4.42322,4.42322,0,0,1,.5,2.04v39.5h35v-39.5a4.42334,4.42334,0,0,1,.5-2.04l.74024-1.46Zm34.24023,3.5v37.5h-31v-37.5a6.27743,6.27743,0,0,0-.18017-1.5h31.36035A6.27693,6.27693,0,0,0,731.27165,242.21826Zm9.75977-3.5.74023,1.46a4.42322,4.42322,0,0,1,.5,2.04v39.5h35v-39.5a4.42334,4.42334,0,0,1,.5-2.04l.74024-1.46Zm34.24023,3.5v37.5h-31v-37.5a6.27743,6.27743,0,0,0-.18017-1.5h31.36035A6.27693,6.27693,0,0,0,775.27165,242.21826Zm-34.24023-3.5.74023,1.46a4.42322,4.42322,0,0,1,.5,2.04v39.5h35v-39.5a4.42334,4.42334,0,0,1,.5-2.04l.74024-1.46Zm34.24023,3.5v37.5h-31v-37.5a6.27743,6.27743,0,0,0-.18017-1.5h31.36035A6.27693,6.27693,0,0,0,775.27165,242.21826Zm-78.24023-3.5.74023,1.46a4.42322,4.42322,0,0,1,.5,2.04v39.5h35v-39.5a4.42334,4.42334,0,0,1,.5-2.04l.74024-1.46Zm34.24023,3.5v37.5h-31v-37.5a6.27743,6.27743,0,0,0-.18017-1.5h31.36035A6.27693,6.27693,0,0,0,731.27165,242.21826Zm-78.24023-3.5.74023,1.46a4.42322,4.42322,0,0,1,.5,2.04v39.5h35v-39.5a4.42334,4.42334,0,0,1,.5-2.04l.74024-1.46Zm34.24023,3.5v37.5h-31v-37.5a6.27743,6.27743,0,0,0-.18017-1.5h31.36035A6.27693,6.27693,0,0,0,687.27165,242.21826Zm-78.24023-3.5.74023,1.46a4.42322,4.42322,0,0,1,.5,2.04v39.5h35v-39.5a4.42334,4.42334,0,0,1,.5-2.04l.74024-1.46Zm34.24023,3.5v37.5h-31v-37.5a6.27743,6.27743,0,0,0-.18017-1.5h31.36035A6.27693,6.27693,0,0,0,643.27165,242.21826Zm-78.24023-3.5.74023,1.46a4.42322,4.42322,0,0,1,.5,2.04v39.5h35v-39.5a4.42334,4.42334,0,0,1,.5-2.04l.74024-1.46Zm34.24023,3.5v37.5h-31v-37.5a6.27743,6.27743,0,0,0-.18017-1.5h31.36035A6.27693,6.27693,0,0,0,599.27165,242.21826Zm-78.24023-3.5.74023,1.46a4.42322,4.42322,0,0,1,.5,2.04v39.5h35v-39.5a4.42334,4.42334,0,0,1,.5-2.04l.74024-1.46Zm34.24023,3.5v37.5h-31v-37.5a6.27743,6.27743,0,0,0-.18017-1.5h31.36035A6.27693,6.27693,0,0,0,555.27165,242.21826Zm-78.24023-3.5.74023,1.46a4.42322,4.42322,0,0,1,.5,2.04v39.5h35v-39.5a4.42334,4.42334,0,0,1,.5-2.04l.74024-1.46Zm34.24023,3.5v37.5h-31v-37.5a6.27743,6.27743,0,0,0-.18017-1.5h31.36035A6.27693,6.27693,0,0,0,511.27165,242.21826Zm-78.24023-3.5.74023,1.46a4.42322,4.42322,0,0,1,.5,2.04v39.5h35v-39.5a4.42334,4.42334,0,0,1,.5-2.04l.74024-1.46Zm34.24023,3.5v37.5h-31v-37.5a6.27743,6.27743,0,0,0-.18017-1.5h31.36035A6.27693,6.27693,0,0,0,467.27165,242.21826Zm-78.24023-3.5.74023,1.46a4.42322,4.42322,0,0,1,.5,2.04v39.5h35v-39.5a4.42334,4.42334,0,0,1,.5-2.04l.74024-1.46Zm34.24023,3.5v37.5h-31v-37.5a6.27743,6.27743,0,0,0-.18017-1.5h31.36035A6.27693,6.27693,0,0,0,423.27165,242.21826Zm317.75977-3.5.74023,1.46a4.42322,4.42322,0,0,1,.5,2.04v39.5h35v-39.5a4.42334,4.42334,0,0,1,.5-2.04l.74024-1.46Zm34.24023,3.5v37.5h-31v-37.5a6.27743,6.27743,0,0,0-.18017-1.5h31.36035A6.27693,6.27693,0,0,0,775.27165,242.21826Zm-78.24023-3.5.74023,1.46a4.42322,4.42322,0,0,1,.5,2.04v39.5h35v-39.5a4.42334,4.42334,0,0,1,.5-2.04l.74024-1.46Zm34.24023,3.5v37.5h-31v-37.5a6.27743,6.27743,0,0,0-.18017-1.5h31.36035A6.27693,6.27693,0,0,0,731.27165,242.21826Zm-78.24023-3.5.74023,1.46a4.42322,4.42322,0,0,1,.5,2.04v39.5h35v-39.5a4.42334,4.42334,0,0,1,.5-2.04l.74024-1.46Zm34.24023,3.5v37.5h-31v-37.5a6.27743,6.27743,0,0,0-.18017-1.5h31.36035A6.27693,6.27693,0,0,0,687.27165,242.21826Zm-78.24023-3.5.74023,1.46a4.42322,4.42322,0,0,1,.5,2.04v39.5h35v-39.5a4.42334,4.42334,0,0,1,.5-2.04l.74024-1.46Zm34.24023,3.5v37.5h-31v-37.5a6.27743,6.27743,0,0,0-.18017-1.5h31.36035A6.27693,6.27693,0,0,0,643.27165,242.21826Zm-78.24023-3.5.74023,1.46a4.42322,4.42322,0,0,1,.5,2.04v39.5h35v-39.5a4.42334,4.42334,0,0,1,.5-2.04l.74024-1.46Zm34.24023,3.5v37.5h-31v-37.5a6.27743,6.27743,0,0,0-.18017-1.5h31.36035A6.27693,6.27693,0,0,0,599.27165,242.21826Zm-78.24023-3.5.74023,1.46a4.42322,4.42322,0,0,1,.5,2.04v39.5h35v-39.5a4.42334,4.42334,0,0,1,.5-2.04l.74024-1.46Zm34.24023,3.5v37.5h-31v-37.5a6.27743,6.27743,0,0,0-.18017-1.5h31.36035A6.27693,6.27693,0,0,0,555.27165,242.21826Zm-78.24023-3.5.74023,1.46a4.42322,4.42322,0,0,1,.5,2.04v39.5h35v-39.5a4.42334,4.42334,0,0,1,.5-2.04l.74024-1.46Zm34.24023,3.5v37.5h-31v-37.5a6.27743,6.27743,0,0,0-.18017-1.5h31.36035A6.27693,6.27693,0,0,0,511.27165,242.21826Zm-78.24023-3.5.74023,1.46a4.42322,4.42322,0,0,1,.5,2.04v39.5h35v-39.5a4.42334,4.42334,0,0,1,.5-2.04l.74024-1.46Zm34.24023,3.5v37.5h-31v-37.5a6.27743,6.27743,0,0,0-.18017-1.5h31.36035A6.27693,6.27693,0,0,0,467.27165,242.21826Zm-78.24023-3.5.74023,1.46a4.42322,4.42322,0,0,1,.5,2.04v39.5h35v-39.5a4.42334,4.42334,0,0,1,.5-2.04l.74024-1.46Zm34.24023,3.5v37.5h-31v-37.5a6.27743,6.27743,0,0,0-.18017-1.5h31.36035A6.27693,6.27693,0,0,0,423.27165,242.21826Zm317.75977-3.5.74023,1.46a4.42322,4.42322,0,0,1,.5,2.04v39.5h35v-39.5a4.42334,4.42334,0,0,1,.5-2.04l.74024-1.46Zm34.24023,3.5v37.5h-31v-37.5a6.27743,6.27743,0,0,0-.18017-1.5h31.36035A6.27693,6.27693,0,0,0,775.27165,242.21826Zm-78.24023-3.5.74023,1.46a4.42322,4.42322,0,0,1,.5,2.04v39.5h35v-39.5a4.42334,4.42334,0,0,1,.5-2.04l.74024-1.46Zm34.24023,3.5v37.5h-31v-37.5a6.27743,6.27743,0,0,0-.18017-1.5h31.36035A6.27693,6.27693,0,0,0,731.27165,242.21826Zm-78.24023-3.5.74023,1.46a4.42322,4.42322,0,0,1,.5,2.04v39.5h35v-39.5a4.42334,4.42334,0,0,1,.5-2.04l.74024-1.46Zm34.24023,3.5v37.5h-31v-37.5a6.27743,6.27743,0,0,0-.18017-1.5h31.36035A6.27693,6.27693,0,0,0,687.27165,242.21826Zm-78.24023-3.5.74023,1.46a4.42322,4.42322,0,0,1,.5,2.04v39.5h35v-39.5a4.42334,4.42334,0,0,1,.5-2.04l.74024-1.46Zm34.24023,3.5v37.5h-31v-37.5a6.27743,6.27743,0,0,0-.18017-1.5h31.36035A6.27693,6.27693,0,0,0,643.27165,242.21826Zm-78.24023-3.5.74023,1.46a4.42322,4.42322,0,0,1,.5,2.04v39.5h35v-39.5a4.42334,4.42334,0,0,1,.5-2.04l.74024-1.46Zm34.24023,3.5v37.5h-31v-37.5a6.27743,6.27743,0,0,0-.18017-1.5h31.36035A6.27693,6.27693,0,0,0,599.27165,242.21826Zm-78.24023-3.5.74023,1.46a4.42322,4.42322,0,0,1,.5,2.04v39.5h35v-39.5a4.42334,4.42334,0,0,1,.5-2.04l.74024-1.46Zm34.24023,3.5v37.5h-31v-37.5a6.27743,6.27743,0,0,0-.18017-1.5h31.36035A6.27693,6.27693,0,0,0,555.27165,242.21826Zm-78.24023-3.5.74023,1.46a4.42322,4.42322,0,0,1,.5,2.04v39.5h35v-39.5a4.42334,4.42334,0,0,1,.5-2.04l.74024-1.46Zm34.24023,3.5v37.5h-31v-37.5a6.27743,6.27743,0,0,0-.18017-1.5h31.36035A6.27693,6.27693,0,0,0,511.27165,242.21826Zm-78.24023-3.5.74023,1.46a4.42322,4.42322,0,0,1,.5,2.04v39.5h35v-39.5a4.42334,4.42334,0,0,1,.5-2.04l.74024-1.46Zm34.24023,3.5v37.5h-31v-37.5a6.27743,6.27743,0,0,0-.18017-1.5h31.36035A6.27693,6.27693,0,0,0,467.27165,242.21826Zm-78.24023-3.5.74023,1.46a4.42322,4.42322,0,0,1,.5,2.04v39.5h35v-39.5a4.42334,4.42334,0,0,1,.5-2.04l.74024-1.46Zm34.24023,3.5v37.5h-31v-37.5a6.27743,6.27743,0,0,0-.18017-1.5h31.36035A6.27693,6.27693,0,0,0,423.27165,242.21826Zm317.75977-3.5.74023,1.46a4.42322,4.42322,0,0,1,.5,2.04v39.5h35v-39.5a4.42334,4.42334,0,0,1,.5-2.04l.74024-1.46Zm34.24023,3.5v37.5h-31v-37.5a6.27743,6.27743,0,0,0-.18017-1.5h31.36035A6.27693,6.27693,0,0,0,775.27165,242.21826Zm-78.24023-3.5.74023,1.46a4.42322,4.42322,0,0,1,.5,2.04v39.5h35v-39.5a4.42334,4.42334,0,0,1,.5-2.04l.74024-1.46Zm34.24023,3.5v37.5h-31v-37.5a6.27743,6.27743,0,0,0-.18017-1.5h31.36035A6.27693,6.27693,0,0,0,731.27165,242.21826Zm-78.24023-3.5.74023,1.46a4.42322,4.42322,0,0,1,.5,2.04v39.5h35v-39.5a4.42334,4.42334,0,0,1,.5-2.04l.74024-1.46Zm34.24023,3.5v37.5h-31v-37.5a6.27743,6.27743,0,0,0-.18017-1.5h31.36035A6.27693,6.27693,0,0,0,687.27165,242.21826Zm-78.24023-3.5.74023,1.46a4.42322,4.42322,0,0,1,.5,2.04v39.5h35v-39.5a4.42334,4.42334,0,0,1,.5-2.04l.74024-1.46Zm34.24023,3.5v37.5h-31v-37.5a6.27743,6.27743,0,0,0-.18017-1.5h31.36035A6.27693,6.27693,0,0,0,643.27165,242.21826Zm-78.24023-3.5.74023,1.46a4.42322,4.42322,0,0,1,.5,2.04v39.5h35v-39.5a4.42334,4.42334,0,0,1,.5-2.04l.74024-1.46Zm34.24023,3.5v37.5h-31v-37.5a6.27743,6.27743,0,0,0-.18017-1.5h31.36035A6.27693,6.27693,0,0,0,599.27165,242.21826Zm-78.24023-3.5.74023,1.46a4.42322,4.42322,0,0,1,.5,2.04v39.5h35v-39.5a4.42334,4.42334,0,0,1,.5-2.04l.74024-1.46Zm34.24023,3.5v37.5h-31v-37.5a6.27743,6.27743,0,0,0-.18017-1.5h31.36035A6.27693,6.27693,0,0,0,555.27165,242.21826Zm-78.24023-3.5.74023,1.46a4.42322,4.42322,0,0,1,.5,2.04v39.5h35v-39.5a4.42334,4.42334,0,0,1,.5-2.04l.74024-1.46Zm34.24023,3.5v37.5h-31v-37.5a6.27743,6.27743,0,0,0-.18017-1.5h31.36035A6.27693,6.27693,0,0,0,511.27165,242.21826Zm-78.24023-3.5.74023,1.46a4.42322,4.42322,0,0,1,.5,2.04v39.5h35v-39.5a4.42334,4.42334,0,0,1,.5-2.04l.74024-1.46Zm34.24023,3.5v37.5h-31v-37.5a6.27743,6.27743,0,0,0-.18017-1.5h31.36035A6.27693,6.27693,0,0,0,467.27165,242.21826Zm-78.24023-3.5.74023,1.46a4.42322,4.42322,0,0,1,.5,2.04v39.5h35v-39.5a4.42334,4.42334,0,0,1,.5-2.04l.74024-1.46Zm34.24023,3.5v37.5h-31v-37.5a6.27743,6.27743,0,0,0-.18017-1.5h31.36035A6.27693,6.27693,0,0,0,423.27165,242.21826Zm317.75977-3.5.74023,1.46a4.42322,4.42322,0,0,1,.5,2.04v39.5h35v-39.5a4.42334,4.42334,0,0,1,.5-2.04l.74024-1.46Zm34.24023,3.5v37.5h-31v-37.5a6.27743,6.27743,0,0,0-.18017-1.5h31.36035A6.27693,6.27693,0,0,0,775.27165,242.21826Zm-77.5-2.04a4.42322,4.42322,0,0,1,.5,2.04v39.5h35v-39.5a4.42334,4.42334,0,0,1,.5-2.04l.74024-1.46H697.03142Zm33.68018.54a6.27693,6.27693,0,0,0-.18018,1.5v37.5h-31v-37.5a6.27743,6.27743,0,0,0-.18017-1.5Zm-77.68018-.54a4.42322,4.42322,0,0,1,.5,2.04v39.5h35v-39.5a4.42334,4.42334,0,0,1,.5-2.04l.74024-1.46H653.03142Zm33.68018.54a6.27693,6.27693,0,0,0-.18018,1.5v37.5h-31v-37.5a6.27743,6.27743,0,0,0-.18017-1.5Zm-77.68018-.54a4.42322,4.42322,0,0,1,.5,2.04v39.5h35v-39.5a4.42334,4.42334,0,0,1,.5-2.04l.74024-1.46H609.03142Zm33.68018.54a6.27693,6.27693,0,0,0-.18018,1.5v37.5h-31v-37.5a6.27743,6.27743,0,0,0-.18017-1.5Zm-77.68018-.54a4.42322,4.42322,0,0,1,.5,2.04v39.5h35v-39.5a4.42334,4.42334,0,0,1,.5-2.04l.74024-1.46H565.03142Zm33.68018.54a6.27693,6.27693,0,0,0-.18018,1.5v37.5h-31v-37.5a6.27743,6.27743,0,0,0-.18017-1.5Zm-77.68018-.54a4.42322,4.42322,0,0,1,.5,2.04v39.5h35v-39.5a4.42334,4.42334,0,0,1,.5-2.04l.74024-1.46H521.03142Zm33.68018.54a6.27693,6.27693,0,0,0-.18018,1.5v37.5h-31v-37.5a6.27743,6.27743,0,0,0-.18017-1.5Zm-77.68018-.54a4.42322,4.42322,0,0,1,.5,2.04v39.5h35v-39.5a4.42334,4.42334,0,0,1,.5-2.04l.74024-1.46H477.03142Zm33.68018.54a6.27693,6.27693,0,0,0-.18018,1.5v37.5h-31v-37.5a6.27743,6.27743,0,0,0-.18017-1.5Zm-77.68018-.54a4.42322,4.42322,0,0,1,.5,2.04v39.5h35v-39.5a4.42334,4.42334,0,0,1,.5-2.04l.74024-1.46H433.03142Zm33.68018.54a6.27693,6.27693,0,0,0-.18018,1.5v37.5h-31v-37.5a6.27743,6.27743,0,0,0-.18017-1.5Zm-77.68018-.54a4.42322,4.42322,0,0,1,.5,2.04v39.5h35v-39.5a4.42334,4.42334,0,0,1,.5-2.04l.74024-1.46H389.03142Zm33.68018.54a6.27693,6.27693,0,0,0-.18018,1.5v37.5h-31v-37.5a6.27743,6.27743,0,0,0-.18017-1.5Zm318.31982-.54a4.42322,4.42322,0,0,1,.5,2.04v39.5h35v-39.5a4.42334,4.42334,0,0,1,.5-2.04l.74024-1.46H741.03142Zm33.68018.54a6.27693,6.27693,0,0,0-.18018,1.5v37.5h-31v-37.5a6.27743,6.27743,0,0,0-.18017-1.5Zm-77.68018-.54a4.42322,4.42322,0,0,1,.5,2.04v39.5h35v-39.5a4.42334,4.42334,0,0,1,.5-2.04l.74024-1.46H697.03142Zm33.68018.54a6.27693,6.27693,0,0,0-.18018,1.5v37.5h-31v-37.5a6.27743,6.27743,0,0,0-.18017-1.5Zm-77.68018-.54a4.42322,4.42322,0,0,1,.5,2.04v39.5h35v-39.5a4.42334,4.42334,0,0,1,.5-2.04l.74024-1.46H653.03142Zm33.68018.54a6.27693,6.27693,0,0,0-.18018,1.5v37.5h-31v-37.5a6.27743,6.27743,0,0,0-.18017-1.5Zm-77.68018-.54a4.42322,4.42322,0,0,1,.5,2.04v39.5h35v-39.5a4.42334,4.42334,0,0,1,.5-2.04l.74024-1.46H609.03142Zm33.68018.54a6.27693,6.27693,0,0,0-.18018,1.5v37.5h-31v-37.5a6.27743,6.27743,0,0,0-.18017-1.5Zm-77.68018-.54a4.42322,4.42322,0,0,1,.5,2.04v39.5h35v-39.5a4.42334,4.42334,0,0,1,.5-2.04l.74024-1.46H565.03142Zm33.68018.54a6.27693,6.27693,0,0,0-.18018,1.5v37.5h-31v-37.5a6.27743,6.27743,0,0,0-.18017-1.5Zm-77.68018-.54a4.42322,4.42322,0,0,1,.5,2.04v39.5h35v-39.5a4.42334,4.42334,0,0,1,.5-2.04l.74024-1.46H521.03142Zm33.68018.54a6.27693,6.27693,0,0,0-.18018,1.5v37.5h-31v-37.5a6.27743,6.27743,0,0,0-.18017-1.5Zm-77.68018-.54a4.42322,4.42322,0,0,1,.5,2.04v39.5h35v-39.5a4.42334,4.42334,0,0,1,.5-2.04l.74024-1.46H477.03142Zm33.68018.54a6.27693,6.27693,0,0,0-.18018,1.5v37.5h-31v-37.5a6.27743,6.27743,0,0,0-.18017-1.5Zm-77.68018-.54a4.42322,4.42322,0,0,1,.5,2.04v39.5h35v-39.5a4.42334,4.42334,0,0,1,.5-2.04l.74024-1.46H433.03142Zm33.68018.54a6.27693,6.27693,0,0,0-.18018,1.5v37.5h-31v-37.5a6.27743,6.27743,0,0,0-.18017-1.5Zm-77.68018-.54a4.42322,4.42322,0,0,1,.5,2.04v39.5h35v-39.5a4.42334,4.42334,0,0,1,.5-2.04l.74024-1.46H389.03142Zm33.68018.54a6.27693,6.27693,0,0,0-.18018,1.5v37.5h-31v-37.5a6.27743,6.27743,0,0,0-.18017-1.5Zm393.81982,47H805.35173a11.031,11.031,0,0,0-10.58008-8h-6.5v-37.5a6.2516,6.2516,0,0,0-.45019-2.35,5.98916,5.98916,0,0,0-3.04981-11.15h-402a5.98915,5.98915,0,0,0-3.0498,11.15,6.25161,6.25161,0,0,0-.4502,2.35v37.5h-6.5a11.031,11.031,0,0,0-10.58007,8H349.27165a9.01357,9.01357,0,0,0-9,9v528a9.01958,9.01958,0,0,0,9,9h468a9.01309,9.01309,0,0,0,9-9v-528A9.01357,9.01357,0,0,0,817.27165,287.71826Zm7,537a7.005,7.005,0,0,1-4.56982,6.56,6.72308,6.72308,0,0,1-2.43018.44h-468a6.72307,6.72307,0,0,1-2.43017-.44,7.005,7.005,0,0,1-4.56983-6.56v-528a7.00779,7.00779,0,0,1,7-7h14.52l.16016-.8a9.03182,9.03182,0,0,1,8.81982-7.2h8.5v-39.5a4.49408,4.49408,0,0,1,.64014-2.31l.61963-1.03-1.12988-.42a3.9894,3.9894,0,0,1,1.37011-7.74h402a3.9894,3.9894,0,0,1,1.37012,7.74l-1.12988.42.61963,1.03a4.48936,4.48936,0,0,1,.64013,2.31v39.5h8.5a9.03142,9.03142,0,0,1,8.81983,7.2l.16015.8h13.52a7.00778,7.00778,0,0,1,7,7Zm-435.24023-586,.74023,1.46a4.42322,4.42322,0,0,1,.5,2.04v39.5h35v-39.5a4.42334,4.42334,0,0,1,.5-2.04l.74024-1.46Zm34.24023,3.5v37.5h-31v-37.5a6.27743,6.27743,0,0,0-.18017-1.5h31.36035A6.27693,6.27693,0,0,0,423.27165,242.21826Zm9.75977-3.5.74023,1.46a4.42322,4.42322,0,0,1,.5,2.04v39.5h35v-39.5a4.42334,4.42334,0,0,1,.5-2.04l.74024-1.46Zm34.24023,3.5v37.5h-31v-37.5a6.27743,6.27743,0,0,0-.18017-1.5h31.36035A6.27693,6.27693,0,0,0,467.27165,242.21826Zm9.75977-3.5.74023,1.46a4.42322,4.42322,0,0,1,.5,2.04v39.5h35v-39.5a4.42334,4.42334,0,0,1,.5-2.04l.74024-1.46Zm34.24023,3.5v37.5h-31v-37.5a6.27743,6.27743,0,0,0-.18017-1.5h31.36035A6.27693,6.27693,0,0,0,511.27165,242.21826Zm9.75977-3.5.74023,1.46a4.42322,4.42322,0,0,1,.5,2.04v39.5h35v-39.5a4.42334,4.42334,0,0,1,.5-2.04l.74024-1.46Zm34.24023,3.5v37.5h-31v-37.5a6.27743,6.27743,0,0,0-.18017-1.5h31.36035A6.27693,6.27693,0,0,0,555.27165,242.21826Zm9.75977-3.5.74023,1.46a4.42322,4.42322,0,0,1,.5,2.04v39.5h35v-39.5a4.42334,4.42334,0,0,1,.5-2.04l.74024-1.46Zm34.24023,3.5v37.5h-31v-37.5a6.27743,6.27743,0,0,0-.18017-1.5h31.36035A6.27693,6.27693,0,0,0,599.27165,242.21826Zm9.75977-3.5.74023,1.46a4.42322,4.42322,0,0,1,.5,2.04v39.5h35v-39.5a4.42334,4.42334,0,0,1,.5-2.04l.74024-1.46Zm34.24023,3.5v37.5h-31v-37.5a6.27743,6.27743,0,0,0-.18017-1.5h31.36035A6.27693,6.27693,0,0,0,643.27165,242.21826Zm9.75977-3.5.74023,1.46a4.42322,4.42322,0,0,1,.5,2.04v39.5h35v-39.5a4.42334,4.42334,0,0,1,.5-2.04l.74024-1.46Zm34.24023,3.5v37.5h-31v-37.5a6.27743,6.27743,0,0,0-.18017-1.5h31.36035A6.27693,6.27693,0,0,0,687.27165,242.21826Zm9.75977-3.5.74023,1.46a4.42322,4.42322,0,0,1,.5,2.04v39.5h35v-39.5a4.42334,4.42334,0,0,1,.5-2.04l.74024-1.46Zm34.24023,3.5v37.5h-31v-37.5a6.27743,6.27743,0,0,0-.18017-1.5h31.36035A6.27693,6.27693,0,0,0,731.27165,242.21826Zm9.75977-3.5.74023,1.46a4.42322,4.42322,0,0,1,.5,2.04v39.5h35v-39.5a4.42334,4.42334,0,0,1,.5-2.04l.74024-1.46Zm34.24023,3.5v37.5h-31v-37.5a6.27743,6.27743,0,0,0-.18017-1.5h31.36035A6.27693,6.27693,0,0,0,775.27165,242.21826Zm-386.24023-3.5.74023,1.46a4.42322,4.42322,0,0,1,.5,2.04v39.5h35v-39.5a4.42334,4.42334,0,0,1,.5-2.04l.74024-1.46Zm34.24023,3.5v37.5h-31v-37.5a6.27743,6.27743,0,0,0-.18017-1.5h31.36035A6.27693,6.27693,0,0,0,423.27165,242.21826Zm9.75977-3.5.74023,1.46a4.42322,4.42322,0,0,1,.5,2.04v39.5h35v-39.5a4.42334,4.42334,0,0,1,.5-2.04l.74024-1.46Zm34.24023,3.5v37.5h-31v-37.5a6.27743,6.27743,0,0,0-.18017-1.5h31.36035A6.27693,6.27693,0,0,0,467.27165,242.21826Zm9.75977-3.5.74023,1.46a4.42322,4.42322,0,0,1,.5,2.04v39.5h35v-39.5a4.42334,4.42334,0,0,1,.5-2.04l.74024-1.46Zm34.24023,3.5v37.5h-31v-37.5a6.27743,6.27743,0,0,0-.18017-1.5h31.36035A6.27693,6.27693,0,0,0,511.27165,242.21826Zm9.75977-3.5.74023,1.46a4.42322,4.42322,0,0,1,.5,2.04v39.5h35v-39.5a4.42334,4.42334,0,0,1,.5-2.04l.74024-1.46Zm34.24023,3.5v37.5h-31v-37.5a6.27743,6.27743,0,0,0-.18017-1.5h31.36035A6.27693,6.27693,0,0,0,555.27165,242.21826Zm9.75977-3.5.74023,1.46a4.42322,4.42322,0,0,1,.5,2.04v39.5h35v-39.5a4.42334,4.42334,0,0,1,.5-2.04l.74024-1.46Zm34.24023,3.5v37.5h-31v-37.5a6.27743,6.27743,0,0,0-.18017-1.5h31.36035A6.27693,6.27693,0,0,0,599.27165,242.21826Zm9.75977-3.5.74023,1.46a4.42322,4.42322,0,0,1,.5,2.04v39.5h35v-39.5a4.42334,4.42334,0,0,1,.5-2.04l.74024-1.46Zm34.24023,3.5v37.5h-31v-37.5a6.27743,6.27743,0,0,0-.18017-1.5h31.36035A6.27693,6.27693,0,0,0,643.27165,242.21826Zm9.75977-3.5.74023,1.46a4.42322,4.42322,0,0,1,.5,2.04v39.5h35v-39.5a4.42334,4.42334,0,0,1,.5-2.04l.74024-1.46Zm34.24023,3.5v37.5h-31v-37.5a6.27743,6.27743,0,0,0-.18017-1.5h31.36035A6.27693,6.27693,0,0,0,687.27165,242.21826Zm9.75977-3.5.74023,1.46a4.42322,4.42322,0,0,1,.5,2.04v39.5h35v-39.5a4.42334,4.42334,0,0,1,.5-2.04l.74024-1.46Zm34.24023,3.5v37.5h-31v-37.5a6.27743,6.27743,0,0,0-.18017-1.5h31.36035A6.27693,6.27693,0,0,0,731.27165,242.21826Zm9.75977-3.5.74023,1.46a4.42322,4.42322,0,0,1,.5,2.04v39.5h35v-39.5a4.42334,4.42334,0,0,1,.5-2.04l.74024-1.46Zm34.24023,3.5v37.5h-31v-37.5a6.27743,6.27743,0,0,0-.18017-1.5h31.36035A6.27693,6.27693,0,0,0,775.27165,242.21826Zm-386.24023-3.5.74023,1.46a4.42322,4.42322,0,0,1,.5,2.04v39.5h35v-39.5a4.42334,4.42334,0,0,1,.5-2.04l.74024-1.46Zm34.24023,3.5v37.5h-31v-37.5a6.27743,6.27743,0,0,0-.18017-1.5h31.36035A6.27693,6.27693,0,0,0,423.27165,242.21826Zm9.75977-3.5.74023,1.46a4.42322,4.42322,0,0,1,.5,2.04v39.5h35v-39.5a4.42334,4.42334,0,0,1,.5-2.04l.74024-1.46Zm34.24023,3.5v37.5h-31v-37.5a6.27743,6.27743,0,0,0-.18017-1.5h31.36035A6.27693,6.27693,0,0,0,467.27165,242.21826Zm9.75977-3.5.74023,1.46a4.42322,4.42322,0,0,1,.5,2.04v39.5h35v-39.5a4.42334,4.42334,0,0,1,.5-2.04l.74024-1.46Zm34.24023,3.5v37.5h-31v-37.5a6.27743,6.27743,0,0,0-.18017-1.5h31.36035A6.27693,6.27693,0,0,0,511.27165,242.21826Zm9.75977-3.5.74023,1.46a4.42322,4.42322,0,0,1,.5,2.04v39.5h35v-39.5a4.42334,4.42334,0,0,1,.5-2.04l.74024-1.46Zm34.24023,3.5v37.5h-31v-37.5a6.27743,6.27743,0,0,0-.18017-1.5h31.36035A6.27693,6.27693,0,0,0,555.27165,242.21826Zm9.75977-3.5.74023,1.46a4.42322,4.42322,0,0,1,.5,2.04v39.5h35v-39.5a4.42334,4.42334,0,0,1,.5-2.04l.74024-1.46Zm34.24023,3.5v37.5h-31v-37.5a6.27743,6.27743,0,0,0-.18017-1.5h31.36035A6.27693,6.27693,0,0,0,599.27165,242.21826Zm9.75977-3.5.74023,1.46a4.42322,4.42322,0,0,1,.5,2.04v39.5h35v-39.5a4.42334,4.42334,0,0,1,.5-2.04l.74024-1.46Zm34.24023,3.5v37.5h-31v-37.5a6.27743,6.27743,0,0,0-.18017-1.5h31.36035A6.27693,6.27693,0,0,0,643.27165,242.21826Zm9.75977-3.5.74023,1.46a4.42322,4.42322,0,0,1,.5,2.04v39.5h35v-39.5a4.42334,4.42334,0,0,1,.5-2.04l.74024-1.46Zm34.24023,3.5v37.5h-31v-37.5a6.27743,6.27743,0,0,0-.18017-1.5h31.36035A6.27693,6.27693,0,0,0,687.27165,242.21826Zm9.75977-3.5.74023,1.46a4.42322,4.42322,0,0,1,.5,2.04v39.5h35v-39.5a4.42334,4.42334,0,0,1,.5-2.04l.74024-1.46Zm34.24023,3.5v37.5h-31v-37.5a6.27743,6.27743,0,0,0-.18017-1.5h31.36035A6.27693,6.27693,0,0,0,731.27165,242.21826Zm9.75977-3.5.74023,1.46a4.42322,4.42322,0,0,1,.5,2.04v39.5h35v-39.5a4.42334,4.42334,0,0,1,.5-2.04l.74024-1.46Zm34.24023,3.5v37.5h-31v-37.5a6.27743,6.27743,0,0,0-.18017-1.5h31.36035A6.27693,6.27693,0,0,0,775.27165,242.21826Zm-386.24023-3.5.74023,1.46a4.42322,4.42322,0,0,1,.5,2.04v39.5h35v-39.5a4.42334,4.42334,0,0,1,.5-2.04l.74024-1.46Zm34.24023,3.5v37.5h-31v-37.5a6.27743,6.27743,0,0,0-.18017-1.5h31.36035A6.27693,6.27693,0,0,0,423.27165,242.21826Zm9.75977-3.5.74023,1.46a4.42322,4.42322,0,0,1,.5,2.04v39.5h35v-39.5a4.42334,4.42334,0,0,1,.5-2.04l.74024-1.46Zm34.24023,3.5v37.5h-31v-37.5a6.27743,6.27743,0,0,0-.18017-1.5h31.36035A6.27693,6.27693,0,0,0,467.27165,242.21826Zm9.75977-3.5.74023,1.46a4.42322,4.42322,0,0,1,.5,2.04v39.5h35v-39.5a4.42334,4.42334,0,0,1,.5-2.04l.74024-1.46Zm34.24023,3.5v37.5h-31v-37.5a6.27743,6.27743,0,0,0-.18017-1.5h31.36035A6.27693,6.27693,0,0,0,511.27165,242.21826Zm9.75977-3.5.74023,1.46a4.42322,4.42322,0,0,1,.5,2.04v39.5h35v-39.5a4.42334,4.42334,0,0,1,.5-2.04l.74024-1.46Zm34.24023,3.5v37.5h-31v-37.5a6.27743,6.27743,0,0,0-.18017-1.5h31.36035A6.27693,6.27693,0,0,0,555.27165,242.21826Zm9.75977-3.5.74023,1.46a4.42322,4.42322,0,0,1,.5,2.04v39.5h35v-39.5a4.42334,4.42334,0,0,1,.5-2.04l.74024-1.46Zm34.24023,3.5v37.5h-31v-37.5a6.27743,6.27743,0,0,0-.18017-1.5h31.36035A6.27693,6.27693,0,0,0,599.27165,242.21826Zm9.75977-3.5.74023,1.46a4.42322,4.42322,0,0,1,.5,2.04v39.5h35v-39.5a4.42334,4.42334,0,0,1,.5-2.04l.74024-1.46Zm34.24023,3.5v37.5h-31v-37.5a6.27743,6.27743,0,0,0-.18017-1.5h31.36035A6.27693,6.27693,0,0,0,643.27165,242.21826Zm9.75977-3.5.74023,1.46a4.42322,4.42322,0,0,1,.5,2.04v39.5h35v-39.5a4.42334,4.42334,0,0,1,.5-2.04l.74024-1.46Zm34.24023,3.5v37.5h-31v-37.5a6.27743,6.27743,0,0,0-.18017-1.5h31.36035A6.27693,6.27693,0,0,0,687.27165,242.21826Zm9.75977-3.5.74023,1.46a4.42322,4.42322,0,0,1,.5,2.04v39.5h35v-39.5a4.42334,4.42334,0,0,1,.5-2.04l.74024-1.46Zm34.24023,3.5v37.5h-31v-37.5a6.27743,6.27743,0,0,0-.18017-1.5h31.36035A6.27693,6.27693,0,0,0,731.27165,242.21826Zm9.75977-3.5.74023,1.46a4.42322,4.42322,0,0,1,.5,2.04v39.5h35v-39.5a4.42334,4.42334,0,0,1,.5-2.04l.74024-1.46Zm34.24023,3.5v37.5h-31v-37.5a6.27743,6.27743,0,0,0-.18017-1.5h31.36035A6.27693,6.27693,0,0,0,775.27165,242.21826Z"
     transform="translate(-95 -64.71826)"
     fill="#3f3d56"
     id="path858" />
  <path
     d="M507.92378,413.71826H434.18054a5.86472,5.86472,0,0,1-5.85811-5.85811V368.57637a5.86472,5.86472,0,0,1,5.85811-5.85811h73.74324a5.86466,5.86466,0,0,1,5.85811,5.85811v39.28378A5.86466,5.86466,0,0,1,507.92378,413.71826Z"
     transform="translate(-95 -64.71826)"
     fill="#2fa4da"
     id="path860" />
  <path
     d="M620.14328,413.71826H546.4a5.86472,5.86472,0,0,1-5.85811-5.85811V368.57637A5.86472,5.86472,0,0,1,546.4,362.71826h73.74325a5.86466,5.86466,0,0,1,5.8581,5.85811v39.28378A5.86466,5.86466,0,0,1,620.14328,413.71826Z"
     transform="translate(-95 -64.71826)"
     fill="#2fa4da"
     id="path862" />
  <path
     d="M732.36277,413.71826H658.61952a5.86471,5.86471,0,0,1-5.8581-5.85811V368.57637a5.86471,5.86471,0,0,1,5.8581-5.85811h73.74325a5.86466,5.86466,0,0,1,5.85811,5.85811v39.28378A5.86466,5.86466,0,0,1,732.36277,413.71826Z"
     transform="translate(-95 -64.71826)"
     fill="#2fa4da"
     id="path864" />
  <path
     d="M507.92378,544.71826H434.18054a5.86472,5.86472,0,0,1-5.85811-5.85811V499.57637a5.86472,5.86472,0,0,1,5.85811-5.85811h73.74324a5.86466,5.86466,0,0,1,5.85811,5.85811v39.28378A5.86466,5.86466,0,0,1,507.92378,544.71826Z"
     transform="translate(-95 -64.71826)"
     fill="#2fa4da"
     id="path866" />
  <path
     d="M620.14328,544.71826H546.4a5.86472,5.86472,0,0,1-5.85811-5.85811V499.57637A5.86472,5.86472,0,0,1,546.4,493.71826h73.74325a5.86466,5.86466,0,0,1,5.8581,5.85811v39.28378A5.86466,5.86466,0,0,1,620.14328,544.71826Z"
     transform="translate(-95 -64.71826)"
     fill="#2fa4da"
     id="path868" />
  <path
     d="M732.36277,544.71826H658.61952a5.86471,5.86471,0,0,1-5.8581-5.85811V499.57637a5.86471,5.86471,0,0,1,5.8581-5.85811h73.74325a5.86466,5.86466,0,0,1,5.85811,5.85811v39.28378A5.86466,5.86466,0,0,1,732.36277,544.71826Z"
     transform="translate(-95 -64.71826)"
     fill="#2fa4da"
     id="path870" />
  <path
     d="M507.92378,675.71826H434.18054a5.86472,5.86472,0,0,1-5.85811-5.85811V630.57637a5.86472,5.86472,0,0,1,5.85811-5.85811h73.74324a5.86466,5.86466,0,0,1,5.85811,5.85811v39.28378A5.86466,5.86466,0,0,1,507.92378,675.71826Z"
     transform="translate(-95 -64.71826)"
     fill="#2fa4da"
     id="path872" />
  <path
     d="M620.14328,675.71826H546.4a5.86472,5.86472,0,0,1-5.85811-5.85811V630.57637A5.86472,5.86472,0,0,1,546.4,624.71826h73.74325a5.86466,5.86466,0,0,1,5.8581,5.85811v39.28378A5.86466,5.86466,0,0,1,620.14328,675.71826Z"
     transform="translate(-95 -64.71826)"
     fill="#2fa4da"
     id="path874" />
  <path
     d="M732.36277,675.71826H658.61952a5.86471,5.86471,0,0,1-5.8581-5.85811V630.57637a5.86471,5.86471,0,0,1,5.8581-5.85811h73.74325a5.86466,5.86466,0,0,1,5.85811,5.85811v39.28378A5.86466,5.86466,0,0,1,732.36277,675.71826Z"
     transform="translate(-95 -64.71826)"
     fill="#2fa4da"
     id="path876" />
  <path
     d="M495.98528,418.75879H410.55791a7.79534,7.79534,0,0,1-7.78626-7.78662V365.46436a7.79534,7.79534,0,0,1,7.78626-7.78663h85.42737a7.79536,7.79536,0,0,1,7.78637,7.78663v45.50781A7.79536,7.79536,0,0,1,495.98528,418.75879Zm-85.42737-59.08106a5.7929,5.7929,0,0,0-5.78626,5.78663v45.50781a5.79289,5.79289,0,0,0,5.78626,5.78662h85.42737a5.79291,5.79291,0,0,0,5.78637-5.78662V365.46436a5.79291,5.79291,0,0,0-5.78637-5.78663Z"
     transform="translate(-95 -64.71826)"
     fill="#3f3d56"
     id="path878" />
  <path
     d="M625.98528,418.75879H540.558a7.79536,7.79536,0,0,1-7.78638-7.78662V365.46436a7.79537,7.79537,0,0,1,7.78638-7.78663h85.42725a7.79536,7.79536,0,0,1,7.78637,7.78663v45.50781A7.79536,7.79536,0,0,1,625.98528,418.75879ZM540.558,359.67773a5.79292,5.79292,0,0,0-5.78638,5.78663v45.50781a5.79291,5.79291,0,0,0,5.78638,5.78662h85.42725a5.79291,5.79291,0,0,0,5.78637-5.78662V365.46436a5.79291,5.79291,0,0,0-5.78637-5.78663Z"
     transform="translate(-95 -64.71826)"
     fill="#3f3d56"
     id="path880" />
  <path
     d="M755.98528,418.75879H670.558a7.79536,7.79536,0,0,1-7.78638-7.78662V365.46436a7.79537,7.79537,0,0,1,7.78638-7.78663h85.42725a7.79536,7.79536,0,0,1,7.78637,7.78663v45.50781A7.79536,7.79536,0,0,1,755.98528,418.75879ZM670.558,359.67773a5.79292,5.79292,0,0,0-5.78638,5.78663v45.50781a5.79291,5.79291,0,0,0,5.78638,5.78662h85.42725a5.79291,5.79291,0,0,0,5.78637-5.78662V365.46436a5.79291,5.79291,0,0,0-5.78637-5.78663Z"
     transform="translate(-95 -64.71826)"
     fill="#3f3d56"
     id="path882" />
  <path
     d="M495.98528,549.75879H410.55791a7.79534,7.79534,0,0,1-7.78626-7.78662V496.46436a7.79534,7.79534,0,0,1,7.78626-7.78663h85.42737a7.79536,7.79536,0,0,1,7.78637,7.78663v45.50781A7.79536,7.79536,0,0,1,495.98528,549.75879Zm-85.42737-59.08106a5.7929,5.7929,0,0,0-5.78626,5.78663v45.50781a5.79289,5.79289,0,0,0,5.78626,5.78662h85.42737a5.79291,5.79291,0,0,0,5.78637-5.78662V496.46436a5.79291,5.79291,0,0,0-5.78637-5.78663Z"
     transform="translate(-95 -64.71826)"
     fill="#3f3d56"
     id="path884" />
  <path
     d="M625.98528,549.75879H540.558a7.79536,7.79536,0,0,1-7.78638-7.78662V496.46436a7.79537,7.79537,0,0,1,7.78638-7.78663h85.42725a7.79536,7.79536,0,0,1,7.78637,7.78663v45.50781A7.79536,7.79536,0,0,1,625.98528,549.75879ZM540.558,490.67773a5.79292,5.79292,0,0,0-5.78638,5.78663v45.50781a5.79291,5.79291,0,0,0,5.78638,5.78662h85.42725a5.79291,5.79291,0,0,0,5.78637-5.78662V496.46436a5.79291,5.79291,0,0,0-5.78637-5.78663Z"
     transform="translate(-95 -64.71826)"
     fill="#3f3d56"
     id="path886" />
  <path
     d="M755.98528,549.75879H670.558a7.79536,7.79536,0,0,1-7.78638-7.78662V496.46436a7.79537,7.79537,0,0,1,7.78638-7.78663h85.42725a7.79536,7.79536,0,0,1,7.78637,7.78663v45.50781A7.79536,7.79536,0,0,1,755.98528,549.75879ZM670.558,490.67773a5.79292,5.79292,0,0,0-5.78638,5.78663v45.50781a5.79291,5.79291,0,0,0,5.78638,5.78662h85.42725a5.79291,5.79291,0,0,0,5.78637-5.78662V496.46436a5.79291,5.79291,0,0,0-5.78637-5.78663Z"
     transform="translate(-95 -64.71826)"
     fill="#3f3d56"
     id="path888" />
  <path
     d="M495.98528,680.75879H410.55791a7.79534,7.79534,0,0,1-7.78626-7.78662V627.46436a7.79534,7.79534,0,0,1,7.78626-7.78663h85.42737a7.79536,7.79536,0,0,1,7.78637,7.78663v45.50781A7.79536,7.79536,0,0,1,495.98528,680.75879Zm-85.42737-59.08106a5.7929,5.7929,0,0,0-5.78626,5.78663v45.50781a5.79289,5.79289,0,0,0,5.78626,5.78662h85.42737a5.79291,5.79291,0,0,0,5.78637-5.78662V627.46436a5.79291,5.79291,0,0,0-5.78637-5.78663Z"
     transform="translate(-95 -64.71826)"
     fill="#3f3d56"
     id="path890" />
  <path
     d="M625.98528,680.75879H540.558a7.79536,7.79536,0,0,1-7.78638-7.78662V627.46436a7.79537,7.79537,0,0,1,7.78638-7.78663h85.42725a7.79536,7.79536,0,0,1,7.78637,7.78663v45.50781A7.79536,7.79536,0,0,1,625.98528,680.75879ZM540.558,621.67773a5.79292,5.79292,0,0,0-5.78638,5.78663v45.50781a5.79291,5.79291,0,0,0,5.78638,5.78662h85.42725a5.79291,5.79291,0,0,0,5.78637-5.78662V627.46436a5.79291,5.79291,0,0,0-5.78637-5.78663Z"
     transform="translate(-95 -64.71826)"
     fill="#3f3d56"
     id="path892" />
  <path
     d="M755.98528,680.75879H670.558a7.79536,7.79536,0,0,1-7.78638-7.78662V627.46436a7.79537,7.79537,0,0,1,7.78638-7.78663h85.42725a7.79536,7.79536,0,0,1,7.78637,7.78663v45.50781A7.79536,7.79536,0,0,1,755.98528,680.75879ZM670.558,621.67773a5.79292,5.79292,0,0,0-5.78638,5.78663v45.50781a5.79291,5.79291,0,0,0,5.78638,5.78662h85.42725a5.79291,5.79291,0,0,0,5.78637-5.78662V627.46436a5.79291,5.79291,0,0,0-5.78637-5.78663Z"
     transform="translate(-95 -64.71826)"
     fill="#3f3d56"
     id="path894" />
  <path
     d="M1104,835.21826H96a1,1,0,0,1,0-2H1104a1,1,0,0,1,0,2Z"
     transform="translate(-95 -64.71826)"
     fill="#3f3d56"
     id="path896" />
  <path
     d="M633.77165,738.42866a8.60719,8.60719,0,0,0-8.5-8.7104h-42v103.5h50.5Z"
     transform="translate(-95 -64.71826)"
     fill="#3f3d56"
     id="path898" />
  <path
     d="M584.27165,832.21826h-52.5v-93.5a9.51081,9.51081,0,0,1,9.5-9.5h43Zm-50.5-2h48.5v-99h-41a7.50836,7.50836,0,0,0-7.5,7.5Z"
     transform="translate(-95 -64.71826)"
     fill="#3f3d56"
     id="path900" />
  <circle
     cx="443.27165"
     cy="720"
     r="3"
     fill="#3f3d56"
     id="circle902" />
  <g
     id="g1781"
     transform="matrix(0.5625,0,0,0.5625,103.26007,396.48467)">
    <path
       id="path3584"
       style="fill:url(#linearGradient2077);fill-opacity:1;stroke:#000000;stroke-width:4;stroke-linecap:round;stroke-linejoin:round"
       d="m 292.98837,349.27399 c -1.39,78.87 -54.33,113.15 -55.2,79.85 -1.08,-42.12 -19.22,-151.36 -90.42,-117.86 -85.15,40.06 -8.39,284.07 -33.04,284.07 -98.62,0 -178.66,-110.23 -178.66,-246.06 0,-135.82 80.04,-246.05 178.66,-246.05 98.62,0 181.02,111.96 178.66,246.05 z" />
    <path
       id="path3604"
       style="fill:#000000;fill-opacity:0.31373"
       d="m 244.73837,180.48399 c 22.87,41.39 34.22,93.29 35.24,147.78 0.95,50.34 -12.76,97.88 -38.18,111.35 11.87,3.8 49.8,-11.48 51.18,-90.35 1.15,-64.81 -17.52,-124.45 -48.24,-168.78 z m -86.1,103.5 c -7.31,0.14 -15.38,2.1 -24.28,6.28 -85.15,40.06 -8.38,284.07 -33.03,284.07 -50.79,0 -96.65,-29.24 -129.19,-76.16 32.65,59.02 84.2,97.16 142.19,97.16 24.65,0 -52.12,-244.01 33.03,-284.07 26.4,-12.41 45.51,-5.21 59.16,10.91 -10.18,-21.96 -25.48,-38.61 -47.88,-38.19 z" />
    <path
       id="path2385"
       style="fill:url(#linearGradient2083);fill-opacity:1;stroke:#000000;stroke-width:3.99984;stroke-linecap:round;stroke-linejoin:round"
       d="m 200.4013,490.63823 a 163.1502,163.296 0 1 1 -326.3004,0 163.1502,163.296 0 1 1 326.3004,0 z" />
    <path
       id="path3276"
       style="fill:#000000;fill-opacity:0.31373"
       d="m 37.25837,327.36399 c -17.36,0 -34.07,2.74 -49.77,7.77 14.12,-3.3 29.01,-5.08 44.4,-5.08 42.22,0 80.72,13.28 109.69,35.07 -28.28,-23.58 -64.66,-37.76 -104.32,-37.76 z m 154.51,110.72 c 2.14,8.72 3.28,17.72 3.28,26.96 0,74.52 -73.1,134.99 -163.16,134.99 -75.31,0 -138.73,-42.28 -157.49,-99.71 5,85.65 76.04,153.64 162.86,153.64 90.06,0 163.16,-73.16 163.16,-163.3 0,-18.39 -3.04,-36.08 -8.65,-52.58 z" />
    <path
       id="path3236"
       style="fill:#000000;fill-opacity:0.31373"
       d="m 37.25837,327.36399 c -27.82,0 -54.03,6.97 -76.96,19.28 10.86,37.97 42.59,73.08 80.07,73.08 36.48,0 67.57,-33.26 79.22,-70.06 -24.17,-14.17 -52.31,-22.3 -82.33,-22.3 z" />
    <path
       id="path3573"
       style="fill:url(#linearGradient2071);fill-opacity:1;fill-rule:evenodd;stroke:#000000;stroke-width:4;stroke-linejoin:round"
       d="m 149.04837,191.34399 c -19.81,0 -60.05,10.54 -67.09,37.87 -0.11,0.21 -0.32,0.97 -0.55,2.14 -12.74,-7.79 -27.72,-12.32 -43.73,-12.32 -16.72,0 -32.26,4.94 -45.35,13.36 -0.27,-1.71 -0.6,-2.91 -0.73,-3.18 -7.04,-27.33 -47.28,-37.84 -67.1,-37.85 -3.15,0 -5.76,0.27 -7.67,0.77 -10.63,1.48 -22.27,5.73 -21.42,8.05 7.8,-1.33 11.74,0.19 11.62,1.45 -0.24,2.36 -4.94,2.99 -3.43,11.5 2.85,-4.13 6.82,-5.55 9.94,-6.21 3.2,20.09 17.2,55.16 43.4,56.98 2.25,0.16 4.35,0.15 6.33,0.11 -6.18,11.72 -9.69,25.07 -9.69,39.24 0,46.47 37.67,100.32 84.1,100.32 46.42,0 84.14,-53.85 84.14,-100.32 0,-14.16 -3.52,-27.48 -9.7,-39.19 1.43,-0.01 2.94,-0.05 4.5,-0.16 26.11,-1.81 40.11,-36.68 43.37,-56.79 2.98,0.73 6.54,2.23 9.15,6.02 1.51,-8.51 -3.19,-9.14 -3.43,-11.5 -0.12,-1.26 3.82,-2.78 11.62,-1.45 0.81,-2.2 -9.58,-6.13 -19.72,-7.8 -1.93,-0.68 -4.89,-1.04 -8.56,-1.04 z" />
    <path
       id="path3619"
       style="fill:#000000;fill-opacity:0.31373"
       d="m 69.74837,440.71399 c -13.94,-13.95 -38.75,-14.66 -53.51,-1.55 -10.39,9.11 -14.53,23.1 -15.89,36.35 -0.96,9.55 -0.39,19.8 4.51,28.31 4.92,6.32 13.49,7.65 21.01,8.03 14.99,0.67 30.83,-2.95 42.81,-12.44 14.44,-12.39 17.81,-35.46 7.21,-51.27 -1.73,-2.7 -3.82,-5.19 -6.14,-7.43 z" />
    <path
       id="path3242"
       style="fill:#000000;fill-opacity:0.31373;stroke-width:0.62866"
       d="m 20.252705,468.96498 a 30.8566,30.884099 0 1 1 -61.7132,0 30.8566,30.884099 0 1 1 61.7132,0 z" />
    <path
       id="path2383"
       style="fill:#dc9a6a;fill-opacity:1;stroke:#000000;stroke-width:4;stroke-linecap:round;stroke-linejoin:round"
       d="m 64.74837,430.71399 c -13.94,-13.95 -38.75,-14.66 -53.51,-1.55 -10.39,9.11 -14.53,23.1 -15.89,36.35 -0.96,9.55 -0.39,19.8 4.51,28.31 4.92,6.32 13.49,7.65 21.01,8.03 14.99,0.67 30.83,-2.95 42.81,-12.44 14.44,-12.39 17.81,-35.46 7.21,-51.27 -1.73,-2.7 -3.82,-5.19 -6.14,-7.43 z" />
    <path
       id="path3250"
       style="fill:#000000;fill-opacity:0.31373"
       d="m 33.30837,419.94399 c 2.97,0.71 5.85,1.8 8.54,3.32 2.61,1.41 5.08,3.1 7.29,5.07 13.33,11.4 16.08,32.7 6.35,47.26 -8.29,11.39 -21.46,18.52 -34.93,21.64 -5.46,1.23 -11.68,2.08 -17,0.06 4.92,3.38 11.43,4.27 17.3,4.56 14.99,0.67 30.83,-2.95 42.82,-12.44 14.44,-12.39 17.81,-35.46 7.21,-51.27 -1.73,-2.71 -3.82,-5.19 -6.14,-7.44 -8.15,-8.16 -20.03,-11.78 -31.44,-10.76 z" />
    <path
       id="path3239"
       style="fill:url(#linearGradient2009);fill-rule:evenodd;stroke:#000000;stroke-width:4"
       d="m 65.11837,427.20399 c 2.75,-8.54 16.62,-16.43 20.73,-13.46 4.11,2.98 4.43,10.06 3.7,11.11 -0.72,1.04 -8.14,-2.17 -12.82,1.7 -4.67,3.86 -7.02,7.16 -7.02,7.16 z" />
    <path
       id="path3263"
       style="fill:#000000;fill-opacity:0.31373;fill-rule:evenodd"
       d="m 88.67837,417.45399 c 0.09,0.93 -0.04,1.7 -0.29,2 -0.71,0.85 -7.82,0.02 -12.38,3.55 -4.55,3.53 -6.85,6.23 -6.85,6.23 l -3.64,-3.06 c -0.14,0.35 -0.29,0.69 -0.4,1.03 l 4.59,6.52 c 0,0 2.35,-3.31 7.02,-7.18 4.68,-3.86 12.1,-0.65 12.82,-1.7 0.5,-0.71 0.5,-4.27 -0.87,-7.39 z" />
    <path
       id="path3201"
       style="fill:url(#linearGradient2009);stroke:#000000;stroke-width:4;stroke-linecap:round;stroke-linejoin:round"
       d="m 68.31837,427.25399 c -13.69,-13.56 -36.38,-17.06 -52.34,-6.89 -3.61,1.99 -2.52,6.98 -2.48,6.9 6.03,-4.77 12.28,0.48 20.49,6.37 10.05,7.21 21.1,18.27 29.21,29.02 5.68,7.52 9.74,14.91 6.49,20.08 0.17,0.05 4.89,1.38 7.05,-3.02 10.88,-20.51 4.73,-40.21 -8.42,-52.46 z" />
    <path
       id="path3269"
       style="fill:#000000;fill-opacity:0.31373"
       d="m 67.23837,425.74399 c 4.34,11.26 3.77,21.91 -1.74,32.19 -1.25,2.34 -3.17,1.58 -4.78,1.55 0.85,1.05 1.68,2.12 2.48,3.17 5.67,7.53 9.74,14.92 6.49,20.08 0.17,0.05 4.89,1.39 7.05,-3.01 9.96,-18.8 5.59,-39.25 -9.5,-53.98 z" />
    <path
       id="path3159"
       style="fill:url(#linearGradient2069);stroke:#000000;stroke-width:4.00001;stroke-linecap:round;stroke-linejoin:round"
       d="m 11.024232,447.25609 a 30.883758,30.85647 59.871655 1 1 -53.444899,30.8566 30.883758,30.85647 59.871655 1 1 53.444899,-30.8566 z" />
    <path
       id="path3244"
       style="fill:#000000;fill-opacity:0.31373;stroke-width:0.62866"
       d="m 136.01071,469.44498 a 30.856603,30.884102 0 1 1 -61.713205,0 30.856602,30.884134 0 1 1 61.713205,0 z" />
    <path
       id="path3161"
       style="fill:url(#linearGradient2069);stroke:#000000;stroke-width:3.99999;stroke-linecap:round;stroke-linejoin:round"
       d="M 121.98594,484.50237 A 30.856479,30.883562 45 1 1 78.348289,440.86472 30.856479,30.883562 45 1 1 121.98594,484.50237 Z" />
    <path
       id="path3163"
       style="fill:url(#linearGradient2069);stroke:#000000;stroke-width:4;stroke-linecap:round;stroke-linejoin:round"
       d="m 116.31837,560.89399 c -40.83,0 -73.98,33.18 -73.98,74.04 0,8.45 1.42,16.55 4.03,24.11 h 139.86 c 2.61,-7.56 4.03,-15.66 4.03,-24.11 0,-40.86 -33.11,-74.04 -73.94,-74.04 z" />
    <path
       id="path3165"
       style="fill:url(#linearGradient2069);stroke:#000000;stroke-width:4;stroke-linecap:round;stroke-linejoin:round"
       d="m -31.64163,560.89399 c -40.83,0 -73.94,33.18 -73.94,74.04 0,8.45 1.42,16.55 4.03,24.11 h 139.86 c 2.61,-7.56 4.03,-15.66 4.03,-24.11 0,-40.86 -33.15,-74.04 -73.98,-74.04 z" />
    <path
       id="path3177"
       style="fill:#ffffff;stroke:#000000;stroke-width:4.00002;stroke-linecap:round;stroke-linejoin:round"
       d="m 34.74489,296.50613 a 27.480228,27.504785 0 1 1 -54.960455,0 27.480228,27.504785 0 1 1 54.960455,0 z" />
    <path
       id="path3179"
       style="fill:#ffffff;stroke:#000000;stroke-width:4.00002;stroke-linecap:round;stroke-linejoin:round"
       d="m 95.60486,296.50613 a 27.480228,27.504785 0 1 1 -54.960455,0 27.480228,27.504785 0 1 1 54.960455,0 z" />
    <path
       id="path3181"
       style="fill:#000000;stroke-width:1.3434"
       d="m 26.231394,299.84791 a 8.875908,8.88384 0 1 1 -17.751816,0 8.875908,8.88384 0 1 1 17.751816,0 z" />
    <path
       id="path3183"
       style="fill:#000000;stroke-width:1.3434"
       d="m 66.831394,299.84791 a 8.875908,8.88384 0 1 1 -17.751816,0 8.875908,8.88384 0 1 1 17.751816,0 z" />
    <path
       id="path3192"
       style="fill:#000000;fill-rule:evenodd"
       d="m 23.48837,349.27399 c 4.48,-4.79 23.51,-5.83 27.49,0.59 3.98,6.43 -5.97,19.75 -13.75,19.15 -7.74,-0.6 -17.94,-15.27 -13.74,-19.74 z" />
    <path
       id="path3216"
       style="fill:#74401b;fill-opacity:1;fill-rule:evenodd;stroke:#000000;stroke-width:4;stroke-linejoin:round"
       d="m -26.56163,251.63399 c -2.95,-42.72 -46.91,-52.45 -49.03,-47.38 -2.11,5.08 8.03,62.19 49.03,47.38 z" />
    <path
       id="path3218"
       style="fill:url(#linearGradient2009);fill-opacity:1;fill-rule:evenodd;stroke:#000000;stroke-width:4;stroke-linejoin:round"
       d="m 98.71837,251.63399 c 2.95,-42.72 46.91,-52.45 49.03,-47.38 2.11,5.08 -8.04,62.19 -49.03,47.38 z" />
    <path
       id="path3220"
       style="fill:url(#linearGradient2009);stroke:#000000;stroke-width:3.67216;stroke-linecap:round;stroke-linejoin:round"
       d="m -38.19443,637.67383 a 19.8065,23.52 0 1 1 -39.613,0 19.8065,23.52 0 1 1 39.613,0 z" />
    <path
       id="path3224"
       style="fill:url(#linearGradient2009);stroke:#000000;stroke-width:3.67216;stroke-linecap:round;stroke-linejoin:round"
       d="m 11.48557,637.67383 a 19.8065,23.52 0 1 1 -39.613,0 19.8065,23.52 0 1 1 39.613,0 z" />
    <path
       id="path3222"
       style="fill:url(#linearGradient2009);stroke:#000000;stroke-width:3.67216;stroke-linecap:round;stroke-linejoin:round"
       d="m -12.01443,637.67383 a 19.8065,23.52 0 1 1 -39.613,0 19.8065,23.52 0 1 1 39.613,0 z" />
    <path
       id="path3226"
       style="fill:url(#linearGradient2009);stroke:#000000;stroke-width:3.67216;stroke-linecap:round;stroke-linejoin:round"
       d="m 114.21457,637.67383 a 19.8065,23.52 0 1 1 -39.613,0 19.8065,23.52 0 1 1 39.613,0 z" />
    <path
       id="path3228"
       style="fill:url(#linearGradient2009);stroke:#000000;stroke-width:3.67216;stroke-linecap:round;stroke-linejoin:round"
       d="m 163.89957,637.67383 a 19.8065,23.52 0 1 1 -39.613,0 19.8065,23.52 0 1 1 39.613,0 z" />
    <path
       id="path3230"
       style="fill:url(#linearGradient2009);stroke:#000000;stroke-width:3.67216;stroke-linecap:round;stroke-linejoin:round"
       d="m 140.39957,637.67383 a 19.8065,23.52 0 1 1 -39.613,0 19.8065,23.52 0 1 1 39.613,0 z" />
    <path
       id="path3246"
       style="fill:#000000;fill-opacity:0.31373"
       d="m 115.18837,270.66399 c 1.53,6.34 2.35,12.98 2.35,19.78 0,46.47 -37.71,100.3 -84.14,100.3 -33.84,0 -62.99,-28.61 -76.33,-62.12 10.33,38.69 42.51,74.97 80.61,74.97 46.43,0 84.14,-53.87 84.14,-100.34 0,-11.56 -2.36,-22.56 -6.59,-32.59 z" />
    <path
       id="path3264"
       style="fill:url(#linearGradient2009);stroke:#000000;stroke-width:3.67228;stroke-linecap:round;stroke-linejoin:round"
       d="m -5.9833376,470.08434 a 12.093522,10.621423 30.170207 1 1 -10.6144504,18.4009 12.093522,10.621423 30.170207 1 1 10.6144504,-18.4009 z" />
    <path
       id="path3266"
       style="fill:url(#linearGradient2009);stroke:#000000;stroke-width:3.67228;stroke-linecap:round;stroke-linejoin:round"
       d="m 7.3266624,447.00434 a 12.093522,10.621423 30.170207 1 1 -10.61445,18.4009 12.093522,10.621423 30.170207 1 1 10.61445,-18.4009 z" />
    <path
       id="path3268"
       style="fill:url(#linearGradient2009);stroke:#000000;stroke-width:3.67228;stroke-linecap:round;stroke-linejoin:round"
       d="m 6.3866624,461.81434 a 12.093522,10.621423 30.170207 1 1 -10.61445,18.4009 12.093522,10.621423 30.170207 1 1 10.61445,-18.4009 z" />
    <path
       id="path3270"
       style="fill:url(#linearGradient2009);stroke:#000000;stroke-width:3.67228;stroke-linecap:round;stroke-linejoin:round"
       d="m 89.693692,468.15027 a 10.621436,12.093514 74.826868 1 0 5.4901,20.5212 10.621436,12.093514 74.826868 1 0 -5.4901,-20.5212 z" />
    <path
       id="path3272"
       style="fill:url(#linearGradient2009);stroke:#000000;stroke-width:3.67228;stroke-linecap:round;stroke-linejoin:round"
       d="m 82.813692,442.41027 a 10.621436,12.093514 74.826868 1 0 5.4901,20.5212 10.621436,12.093514 74.826868 1 0 -5.4901,-20.5212 z" />
    <path
       id="path3274"
       style="fill:url(#linearGradient2009);stroke:#000000;stroke-width:3.67228;stroke-linecap:round;stroke-linejoin:round"
       d="m 79.893692,456.96027 a 10.621436,12.093514 74.826868 1 0 5.4901,20.5212 10.621436,12.093514 74.826868 1 0 -5.4901,-20.5212 z" />
  </g>
</svg>
