<?xml version="1.0" encoding="UTF-8" standalone="no"?>
<svg
   data-name="Layer 1"
   width="675.66998"
   height="527.78339"
   viewBox="0 0 675.66998 527.7834"
   version="1.1"
   id="svg911"
   sodipodi:docname="undraw_time_management_sqrl.svg"
   inkscape:version="1.1.1 (c3084ef, 2021-09-22)"
   xmlns:inkscape="http://www.inkscape.org/namespaces/inkscape"
   xmlns:sodipodi="http://sodipodi.sourceforge.net/DTD/sodipodi-0.dtd"
   xmlns:xlink="http://www.w3.org/1999/xlink"
   xmlns="http://www.w3.org/2000/svg"
   xmlns:svg="http://www.w3.org/2000/svg">
  <defs
     id="defs915">
    <linearGradient
       id="linearGradient2009"
       inkscape:swatch="solid"
       gradientTransform="matrix(1.5442356e-5,6.602664e-5,2.1077755e-4,-6.4377816e-5,1805.0834,-979.71193)">
      <stop
         style="stop-color:#74401b;stop-opacity:1;"
         offset="0"
         id="stop2007" />
    </linearGradient>
    <linearGradient
       id="linearGradient2069"
       inkscape:swatch="solid"
       gradientTransform="matrix(0.04944584,0.01322871,-0.01328363,0.04950125,923.20287,24.661539)">
      <stop
         style="stop-color:#d07839;stop-opacity:1;"
         offset="0"
         id="stop2067" />
    </linearGradient>
    <linearGradient
       inkscape:collect="always"
       xlink:href="#linearGradient2069"
       id="linearGradient2071"
       x1="162.51797"
       y1="416.035"
       x2="448.50153"
       y2="416.035"
       gradientUnits="userSpaceOnUse"
       gradientTransform="matrix(0.6,0,0,0.6,422.33559,32.099499)" />
    <linearGradient
       inkscape:collect="always"
       xlink:href="#linearGradient2069"
       id="linearGradient2083"
       x1="269.20129"
       y1="561.96002"
       x2="515.17871"
       y2="561.96002"
       gradientUnits="userSpaceOnUse"
       gradientTransform="matrix(0.80568,0,0,0.8064,290.19159,-55.536505)" />
    <linearGradient
       inkscape:collect="always"
       xlink:href="#linearGradient2069"
       id="linearGradient2077"
       x1="202.81"
       y1="467.85501"
       x2="564.1795"
       y2="467.85501"
       gradientUnits="userSpaceOnUse"
       gradientTransform="matrix(0.6,0,0,0.6,422.33559,32.099499)" />
  </defs>
  <sodipodi:namedview
     id="namedview913"
     pagecolor="#ffffff"
     bordercolor="#666666"
     borderopacity="1.0"
     inkscape:pageshadow="2"
     inkscape:pageopacity="0.0"
     inkscape:pagecheckerboard="0"
     showgrid="false"
     inkscape:zoom="0.99217197"
     inkscape:cx="338.14703"
     inkscape:cy="315.97345"
     inkscape:window-width="1440"
     inkscape:window-height="855"
     inkscape:window-x="1750"
     inkscape:window-y="66"
     inkscape:window-maximized="0"
     inkscape:current-layer="svg911" />
  <path
     d="m 675.67,526.59339 a 1.18647,1.18647 0 0 1 -1.19006,1.19 H 1.19 a 1.19,1.19 0 0 1 0,-2.38 h 673.29 a 1.18651,1.18651 0 0 1 1.19,1.19 z"
     fill="#cccccc"
     id="path828" />
  <circle
     cx="278.99771"
     cy="260.86108"
     r="215"
     fill="#e6e6e6"
     id="circle830" />
  <path
     d="m 463.99771,260.86109 a 184.74377,184.74377 0 0 1 -74.67,148.51 c -1.55,1.16 -3.13,2.29 -4.72,3.39 a 185.03127,185.03127 0 0 1 -211.22,0 c -1.59,-1.1 -3.17,-2.23 -4.72,-3.39 a 185.01966,185.01966 0 0 1 0,-297.02 c 1.55,-1.16 3.13,-2.29 4.72,-3.39 a 185.0315,185.0315 0 0 1 211.22,0 c 1.59,1.1 3.17,2.23 4.72,3.39 a 184.74369,184.74369 0 0 1 74.67,148.51 z"
     fill="#ffffff"
     id="path832" />
  <circle
     cx="278.99771"
     cy="260.86108"
     r="169"
     fill="#d07839"
     id="circle834"
     style="fill:#2fa4da;fill-opacity:1" />
  <path
     d="m 279.43862,92.333512 c -2.562,0 -5.10815,0.067 -7.64221,0.1798 a 168.99467,168.99467 0 0 1 -7.15649,337.167998 c 4.87781,0.42328 9.81116,0.65223 14.7987,0.65223 a 169,169 0 0 0 0,-337.999998 z"
     opacity="0.2"
     id="path836" />
  <path
     d="m 279.49771,79.861092 a 5.50968,5.50968 0 0 0 -5.5,5.5 v 23.999998 a 5.5,5.5 0 0 0 11,0 V 85.361092 a 5.50968,5.50968 0 0 0 -5.5,-5.5 z"
     fill="#ffffff"
     id="path838" />
  <path
     d="m 389.32772,112.35108 c -1.55,-1.16 -3.13,-2.29 -4.72,-3.39 a 5.49662,5.49662 0 0 0 -4.9,2.39 l -13.51,19.83 a 5.4987317,5.4987317 0 0 0 9.09,6.19 l 13.51,-19.83 a 5.4644,5.4644 0 0 0 0.53,-5.19 z"
     fill="#ffffff"
     id="path840" />
  <path
     d="m 450.70773,202.77107 a 5.4929,5.4929 0 0 0 -7.16,-3.02 l -22.24,9.03 a 5.49945,5.49945 0 0 0 4.14,10.19 l 22.24,-9.03 a 5.51241,5.51241 0 0 0 3.02,-7.17 z"
     fill="#ffffff"
     id="path842" />
  <path
     d="m 191.79769,131.1811 -13.51,-19.83 a 5.49661,5.49661 0 0 0 -4.9,-2.39 c -1.59,1.1 -3.17,2.23 -4.72,3.39 a 5.46442,5.46442 0 0 0 0.53,5.19 l 13.51,19.83 a 5.4987317,5.4987317 0 0 0 9.09,-6.19 z"
     fill="#ffffff"
     id="path844" />
  <path
     d="m 136.68771,208.78108 -22.24,-9.03 a 5.49942,5.49942 0 0 0 -4.14,10.18994 l 22.24,9.03 a 5.49945,5.49945 0 0 0 4.14,-10.19 z"
     fill="#ffffff"
     id="path846" />
  <path
     d="m 279.49771,406.86109 a 5.50968,5.50968 0 0 0 -5.5,5.5 v 24 a 5.5,5.5 0 0 0 11,0 v -24 a 5.50968,5.50968 0 0 0 -5.5,-5.5 z"
     fill="#ffffff"
     id="path848" />
  <path
     d="m 388.79769,404.1811 -13.51,-19.83 a 5.4987317,5.4987317 0 1 0 -9.09,6.19 l 13.51,19.83 a 5.49657,5.49657 0 0 0 4.9,2.39 c 1.59,-1.1 3.17,-2.23 4.72,-3.39 a 5.46436,5.46436 0 0 0 -0.53,-5.19 z"
     fill="#ffffff"
     id="path850" />
  <path
     d="m 447.68771,311.78108 -22.24,-9.03 a 5.49942,5.49942 0 0 0 -4.14,10.18994 l 22.24,9.03 a 5.49945,5.49945 0 0 0 4.14,-10.19 z"
     fill="#ffffff"
     id="path852" />
  <path
     d="m 190.34768,382.90107 a 5.5,5.5 0 0 0 -7.63995,1.45 l -13.51,19.83 a 5.46439,5.46439 0 0 0 -0.53,5.19 c 1.55,1.16 3.13,2.29 4.72,3.39 a 5.49656,5.49656 0 0 0 4.9,-2.39 l 13.51,-19.83 a 5.49838,5.49838 0 0 0 -1.45005,-7.64 z"
     fill="#ffffff"
     id="path854" />
  <path
     d="m 139.70773,305.77107 a 5.4929,5.4929 0 0 0 -7.16,-3.02 l -22.24,9.03 a 5.49945,5.49945 0 0 0 4.14,10.19 l 22.24,-9.03 a 5.51241,5.51241 0 0 0 3.02,-7.17 z"
     fill="#ffffff"
     id="path856" />
  <path
     d="m 286.63394,258.13203 a 11.5131,11.5131 0 0 1 -9.40873,13.26558 l -97.59815,16.60128 a 11.500002,11.500002 0 0 1 -3.85686,-22.67432 l 97.59815,-16.60127 a 11.5131,11.5131 0 0 1 13.26559,9.40873 z"
     fill="#3f3d56"
     id="path858" />
  <path
     d="m 389.35337,366.26294 a 7.5082,7.5082 0 0 1 -10.60652,0.0418 l -105.063,-104.23895 a 7.5,7.5 0 0 1 10.56475,-10.64828 l 105.063,104.23895 a 7.50819,7.50819 0 0 1 0.0418,10.60651 z"
     fill="#3f3d56"
     id="path860" />
  <circle
     cx="278.99771"
     cy="260.86108"
     r="13"
     fill="#cccccc"
     id="circle862" />
  <path
     d="m 189.45385,35.439922 c -19.95483,31.3725 -50.40146,52.19272 -87.94977,65.870418 A 7.05892,7.05892 0 0 1 91.6225,99.891962 v 0 C 71.2266,72.659482 75.83199,33.738842 102.7503,12.930072 a 62.06846,62.06846 0 0 1 87.55785,11.87509 l 0.56413,0.75322 a 7.05892,7.05892 0 0 1 -1.41843,9.88154 z"
     fill="#e6e6e6"
     id="path864" />
  <path
     d="m 367.68728,24.805132 a 62.06846,62.06846 0 0 1 87.55785,-11.87509 c 26.91832,20.80877 31.52371,59.72941 11.1278,86.96189 v 0 a 7.05889,7.05889 0 0 1 -9.88155,1.418378 C 421.63408,87.964952 393.04918,64.870862 368.54155,35.439892 a 7.059,7.059 0 0 1 -1.41838,-9.88157 z"
     fill="#e6e6e6"
     id="path866" />
  <path
     d="m 358.94092,447.12932 a 5.50968,5.50968 0 0 0 -2.11376,7.48546 l 31.74188,56.7226 a 5.5,5.5 0 0 0 9.59921,-5.3717 l -31.74188,-56.7226 a 5.50968,5.50968 0 0 0 -7.48545,-2.11376 z"
     fill="#e6e6e6"
     id="path868" />
  <path
     d="m 191.569,449.24308 -31.74184,56.72257 a 5.5,5.5 0 0 0 9.59921,5.3717 l 31.74188,-56.7226 a 5.5,5.5 0 1 0 -9.59921,-5.3717 z"
     fill="#e6e6e6"
     id="path870" />
  <circle
     cx="394.99771"
     cy="508.86108"
     r="17"
     fill="#e6e6e6"
     id="circle872" />
  <circle
     cx="406.99771"
     cy="73.861092"
     r="17"
     fill="#e6e6e6"
     id="circle874" />
  <circle
     cx="277.99771"
     cy="33.861092"
     r="17"
     fill="#e6e6e6"
     id="circle876" />
  <circle
     cx="154.99771"
     cy="71.861092"
     r="17"
     fill="#e6e6e6"
     id="circle878" />
  <circle
     cx="165.99771"
     cy="508.86108"
     r="17"
     fill="#e6e6e6"
     id="circle880" />
  <g
     id="g2364"
     transform="translate(-108.74166,26.231886)">
    <path
       id="path3584"
       style="fill:url(#linearGradient2077);fill-opacity:1;stroke:#000000;stroke-width:2.4;stroke-linecap:round;stroke-linejoin:round"
       d="m 759.61359,312.80949 c -0.834,47.322 -32.598,67.89 -33.12,47.91 -0.648,-25.272 -11.532,-90.816 -54.252,-70.716 -51.09,24.036 -5.034,170.442 -19.824,170.442 -59.172,0 -107.196,-66.138 -107.196,-147.636 0,-81.492 48.024,-147.63 107.196,-147.63 59.172,0 108.612,67.176 107.196,147.63 z" />
    <path
       id="path3604"
       style="fill:#000000;fill-opacity:0.31373;stroke-width:0.6"
       d="m 730.66359,211.53549 c 13.722,24.834 20.532,55.974 21.144,88.668 0.57,30.204 -7.656,58.728 -22.908,66.81 7.122,2.28 29.88,-6.888 30.708,-54.21 0.69,-38.886 -10.512,-74.67 -28.944,-101.268 z m -51.66,62.1 c -4.386,0.084 -9.228,1.26 -14.568,3.768 -51.09,24.036 -5.028,170.442 -19.818,170.442 -30.474,0 -57.99,-17.544 -77.514,-45.696 19.59,35.412 50.52,58.296 85.314,58.296 14.79,0 -31.272,-146.406 19.818,-170.442 15.84,-7.446 27.306,-3.126 35.496,6.546 -6.108,-13.176 -15.288,-23.166 -28.728,-22.914 z" />
    <path
       id="path2385"
       style="fill:url(#linearGradient2083);fill-opacity:1;stroke:#000000;stroke-width:2.3999;stroke-linecap:round;stroke-linejoin:round"
       d="m 704.06135,397.62804 a 97.89012,97.9776 0 1 1 -195.78024,0 97.89012,97.9776 0 1 1 195.78024,0 z" />
    <path
       id="path3276"
       style="fill:#000000;fill-opacity:0.31373;stroke-width:0.6"
       d="m 606.17559,299.66349 c -10.416,0 -20.442,1.644 -29.862,4.662 8.472,-1.98 17.406,-3.048 26.64,-3.048 25.332,0 48.432,7.968 65.814,21.042 -16.968,-14.148 -38.796,-22.656 -62.592,-22.656 z m 92.706,66.432 c 1.284,5.232 1.968,10.632 1.968,16.176 0,44.712 -43.86,80.994 -97.896,80.994 -45.186,0 -83.238,-25.368 -94.494,-59.826 3,51.39 45.624,92.184 97.716,92.184 54.036,0 97.896,-43.896 97.896,-97.98 0,-11.034 -1.824,-21.648 -5.19,-31.548 z" />
    <path
       id="path3236"
       style="fill:#000000;fill-opacity:0.31373;stroke-width:0.6"
       d="m 606.17559,299.66349 c -16.692,0 -32.418,4.182 -46.176,11.568 6.516,22.782 25.554,43.848 48.042,43.848 21.888,0 40.542,-19.956 47.532,-42.036 -14.502,-8.502 -31.386,-13.38 -49.398,-13.38 z" />
    <path
       id="path3573"
       style="fill:url(#linearGradient2071);fill-opacity:1;fill-rule:evenodd;stroke:#000000;stroke-width:2.4;stroke-linejoin:round"
       d="m 673.24959,218.05149 c -11.886,0 -36.03,6.324 -40.254,22.722 -0.066,0.126 -0.192,0.582 -0.33,1.284 -7.644,-4.674 -16.632,-7.392 -26.238,-7.392 -10.032,0 -19.356,2.964 -27.21,8.016 -0.162,-1.026 -0.36,-1.746 -0.438,-1.908 -4.224,-16.398 -28.368,-22.704 -40.26,-22.71 -1.89,0 -3.456,0.162 -4.602,0.462 -6.378,0.888 -13.362,3.438 -12.852,4.83 4.68,-0.798 7.044,0.114 6.972,0.87 -0.144,1.416 -2.964,1.794 -2.058,6.9 1.71,-2.478 4.092,-3.33 5.964,-3.726 1.92,12.054 10.32,33.096 26.04,34.188 1.35,0.096 2.61,0.09 3.798,0.066 -3.708,7.032 -5.814,15.042 -5.814,23.544 0,27.882 22.602,60.192 50.46,60.192 27.852,0 50.484,-32.31 50.484,-60.192 0,-8.496 -2.112,-16.488 -5.82,-23.514 0.858,-0.006 1.764,-0.03 2.7,-0.096 15.666,-1.086 24.066,-22.008 26.022,-34.074 1.788,0.438 3.924,1.338 5.49,3.612 0.906,-5.106 -1.914,-5.484 -2.058,-6.9 -0.072,-0.756 2.292,-1.668 6.972,-0.87 0.486,-1.32 -5.748,-3.678 -11.832,-4.68 -1.158,-0.408 -2.934,-0.624 -5.136,-0.624 z" />
    <path
       id="path3619"
       style="fill:#000000;fill-opacity:0.31373;stroke-width:0.6"
       d="m 625.66959,367.67349 c -8.364,-8.37 -23.25,-8.796 -32.106,-0.93 -6.234,5.466 -8.718,13.86 -9.534,21.81 -0.576,5.73 -0.234,11.88 2.706,16.986 2.952,3.792 8.094,4.59 12.606,4.818 8.994,0.402 18.498,-1.77 25.686,-7.464 8.664,-7.434 10.686,-21.276 4.326,-30.762 -1.038,-1.62 -2.292,-3.114 -3.684,-4.458 z" />
    <path
       id="path3242"
       style="fill:#000000;fill-opacity:0.31373;stroke-width:0.377196"
       d="m 595.9722,384.62409 a 18.51396,18.530459 0 1 1 -37.02792,0 18.51396,18.530459 0 1 1 37.02792,0 z" />
    <path
       id="path2383"
       style="fill:#dc9a6a;fill-opacity:1;stroke:#000000;stroke-width:2.4;stroke-linecap:round;stroke-linejoin:round"
       d="m 622.66959,361.67349 c -8.364,-8.37 -23.25,-8.796 -32.106,-0.93 -6.234,5.466 -8.718,13.86 -9.534,21.81 -0.576,5.73 -0.234,11.88 2.706,16.986 2.952,3.792 8.094,4.59 12.606,4.818 8.994,0.402 18.498,-1.77 25.686,-7.464 8.664,-7.434 10.686,-21.276 4.326,-30.762 -1.038,-1.62 -2.292,-3.114 -3.684,-4.458 z" />
    <path
       id="path3250"
       style="fill:#000000;fill-opacity:0.31373;stroke-width:0.6"
       d="m 603.80559,355.21149 c 1.782,0.426 3.51,1.08 5.124,1.992 1.566,0.846 3.048,1.86 4.374,3.042 7.998,6.84 9.648,19.62 3.81,28.356 -4.974,6.834 -12.876,11.112 -20.958,12.984 -3.276,0.738 -7.008,1.248 -10.2,0.036 2.952,2.028 6.858,2.562 10.38,2.736 8.994,0.402 18.498,-1.77 25.692,-7.464 8.664,-7.434 10.686,-21.276 4.326,-30.762 -1.038,-1.626 -2.292,-3.114 -3.684,-4.464 -4.89,-4.896 -12.018,-7.068 -18.864,-6.456 z" />
    <path
       id="path3239"
       style="fill:url(#linearGradient2009);fill-rule:evenodd;stroke:#000000;stroke-width:2.4"
       d="m 622.89159,359.56749 c 1.65,-5.124 9.972,-9.858 12.438,-8.076 2.466,1.788 2.658,6.036 2.22,6.666 -0.432,0.624 -4.884,-1.302 -7.692,1.02 -2.802,2.316 -4.212,4.296 -4.212,4.296 z" />
    <path
       id="path3263"
       style="fill:#000000;fill-opacity:0.31373;fill-rule:evenodd;stroke-width:0.6"
       d="m 637.02759,353.71749 c 0.054,0.558 -0.024,1.02 -0.174,1.2 -0.426,0.51 -4.692,0.012 -7.428,2.13 -2.73,2.118 -4.11,3.738 -4.11,3.738 l -2.184,-1.836 c -0.084,0.21 -0.174,0.414 -0.24,0.618 l 2.754,3.912 c 0,0 1.41,-1.986 4.212,-4.308 2.808,-2.316 7.26,-0.39 7.692,-1.02 0.3,-0.426 0.3,-2.562 -0.522,-4.434 z" />
    <path
       id="path3201"
       style="fill:url(#linearGradient2009);stroke:#000000;stroke-width:2.4;stroke-linecap:round;stroke-linejoin:round"
       d="m 624.81159,359.59749 c -8.214,-8.136 -21.828,-10.236 -31.404,-4.134 -2.166,1.194 -1.512,4.188 -1.488,4.14 3.618,-2.862 7.368,0.288 12.294,3.822 6.03,4.326 12.66,10.962 17.526,17.412 3.408,4.512 5.844,8.946 3.894,12.048 0.102,0.03 2.934,0.828 4.23,-1.812 6.528,-12.306 2.838,-24.126 -5.052,-31.476 z" />
    <path
       id="path3269"
       style="fill:#000000;fill-opacity:0.31373;stroke-width:0.6"
       d="m 624.16359,358.69149 c 2.604,6.756 2.262,13.146 -1.044,19.314 -0.75,1.404 -1.902,0.948 -2.868,0.93 0.51,0.63 1.008,1.272 1.488,1.902 3.402,4.518 5.844,8.952 3.894,12.048 0.102,0.03 2.934,0.834 4.23,-1.806 5.976,-11.28 3.354,-23.55 -5.7,-32.388 z" />
    <path
       id="path3159"
       style="fill:url(#linearGradient2069);stroke:#000000;stroke-width:2.40001;stroke-linecap:round;stroke-linejoin:round"
       d="m 590.43511,371.59875 a 18.530255,18.513882 59.871655 1 1 -32.06694,18.51396 18.530255,18.513882 59.871655 1 1 32.06694,-18.51396 z" />
    <path
       id="path3244"
       style="fill:#000000;fill-opacity:0.31373;stroke-width:0.377196"
       d="m 665.427,384.91209 a 18.51396,18.530459 0 1 1 -37.02792,0 18.51396,18.530459 0 1 1 37.02792,0 z" />
    <path
       id="path3161"
       style="fill:url(#linearGradient2069);stroke:#000000;stroke-width:2.39999;stroke-linecap:round;stroke-linejoin:round"
       d="m 657.01214,393.94652 a 18.513887,18.530137 45 1 1 -26.18259,-26.18259 18.513887,18.530137 45 1 1 26.18259,26.18259 z" />
    <path
       id="path3163"
       style="fill:url(#linearGradient2069);stroke:#000000;stroke-width:2.4;stroke-linecap:round;stroke-linejoin:round"
       d="m 653.61159,439.78149 c -24.498,0 -44.388,19.908 -44.388,44.424 0,5.07 0.852,9.93 2.418,14.466 h 83.916 c 1.566,-4.536 2.418,-9.396 2.418,-14.466 0,-24.516 -19.866,-44.424 -44.364,-44.424 z" />
    <path
       id="path3165"
       style="fill:url(#linearGradient2069);stroke:#000000;stroke-width:2.4;stroke-linecap:round;stroke-linejoin:round"
       d="m 564.83559,439.78149 c -24.498,0 -44.364,19.908 -44.364,44.424 0,5.07 0.852,9.93 2.418,14.466 h 83.916 c 1.566,-4.536 2.418,-9.396 2.418,-14.466 0,-24.516 -19.89,-44.424 -44.388,-44.424 z" />
    <path
       id="path3177"
       style="fill:#ffffff;stroke:#000000;stroke-width:2.40001;stroke-linecap:round;stroke-linejoin:round"
       d="m 604.66749,281.14878 a 16.488137,16.502871 0 1 1 -32.97627,0 16.488137,16.502871 0 1 1 32.97627,0 z" />
    <path
       id="path3179"
       style="fill:#ffffff;stroke:#000000;stroke-width:2.40001;stroke-linecap:round;stroke-linejoin:round"
       d="m 641.18349,281.14878 a 16.488137,16.502871 0 1 1 -32.97627,0 16.488137,16.502871 0 1 1 32.97627,0 z" />
    <path
       id="path3181"
       style="fill:#000000;stroke-width:0.80604"
       d="m 599.55941,283.15384 a 5.325545,5.3303042 0 1 1 -10.65109,0 5.325545,5.3303042 0 1 1 10.65109,0 z" />
    <path
       id="path3183"
       style="fill:#000000;stroke-width:0.80604"
       d="m 623.91941,283.15384 a 5.325545,5.3303042 0 1 1 -10.65109,0 5.325545,5.3303042 0 1 1 10.65109,0 z" />
    <path
       id="path3192"
       style="fill:#000000;fill-rule:evenodd;stroke-width:0.6"
       d="m 597.91359,312.80949 c 2.688,-2.874 14.106,-3.498 16.494,0.354 2.388,3.858 -3.582,11.85 -8.25,11.49 -4.644,-0.36 -10.764,-9.162 -8.244,-11.844 z" />
    <path
       id="path3216"
       style="fill:#74401b;fill-opacity:1;fill-rule:evenodd;stroke:#000000;stroke-width:2.4;stroke-linejoin:round"
       d="m 567.88359,254.22549 c -1.77,-25.632 -28.146,-31.47 -29.418,-28.428 -1.266,3.048 4.818,37.314 29.418,28.428 z" />
    <path
       id="path3218"
       style="fill:url(#linearGradient2009);fill-opacity:1;fill-rule:evenodd;stroke:#000000;stroke-width:2.4;stroke-linejoin:round"
       d="m 643.05159,254.22549 c 1.77,-25.632 28.146,-31.47 29.418,-28.428 1.266,3.048 -4.824,37.314 -29.418,28.428 z" />
    <path
       id="path3220"
       style="fill:url(#linearGradient2009);stroke:#000000;stroke-width:2.2033;stroke-linecap:round;stroke-linejoin:round"
       d="m 560.90391,485.8494 a 11.8839,14.112 0 1 1 -23.7678,0 11.8839,14.112 0 1 1 23.7678,0 z" />
    <path
       id="path3224"
       style="fill:url(#linearGradient2009);stroke:#000000;stroke-width:2.2033;stroke-linecap:round;stroke-linejoin:round"
       d="m 590.71191,485.8494 a 11.8839,14.112 0 1 1 -23.7678,0 11.8839,14.112 0 1 1 23.7678,0 z" />
    <path
       id="path3222"
       style="fill:url(#linearGradient2009);stroke:#000000;stroke-width:2.2033;stroke-linecap:round;stroke-linejoin:round"
       d="m 576.61191,485.8494 a 11.8839,14.112 0 1 1 -23.7678,0 11.8839,14.112 0 1 1 23.7678,0 z" />
    <path
       id="path3226"
       style="fill:url(#linearGradient2009);stroke:#000000;stroke-width:2.2033;stroke-linecap:round;stroke-linejoin:round"
       d="m 652.34931,485.8494 a 11.8839,14.112 0 1 1 -23.7678,0 11.8839,14.112 0 1 1 23.7678,0 z" />
    <path
       id="path3228"
       style="fill:url(#linearGradient2009);stroke:#000000;stroke-width:2.2033;stroke-linecap:round;stroke-linejoin:round"
       d="m 682.16031,485.8494 a 11.8839,14.112 0 1 1 -23.7678,0 11.8839,14.112 0 1 1 23.7678,0 z" />
    <path
       id="path3230"
       style="fill:url(#linearGradient2009);stroke:#000000;stroke-width:2.2033;stroke-linecap:round;stroke-linejoin:round"
       d="m 668.06031,485.8494 a 11.8839,14.112 0 1 1 -23.7678,0 11.8839,14.112 0 1 1 23.7678,0 z" />
    <path
       id="path3246"
       style="fill:#000000;fill-opacity:0.31373;stroke-width:0.6"
       d="m 652.93359,265.64349 c 0.918,3.804 1.41,7.788 1.41,11.868 0,27.882 -22.626,60.18 -50.484,60.18 -20.304,0 -37.794,-17.166 -45.798,-37.272 6.198,23.214 25.506,44.982 48.366,44.982 27.858,0 50.484,-32.322 50.484,-60.204 0,-6.936 -1.416,-13.536 -3.954,-19.554 z" />
    <path
       id="path3264"
       style="fill:url(#linearGradient2009);stroke:#000000;stroke-width:2.20337;stroke-linecap:round;stroke-linejoin:round"
       d="m 580.23057,385.2957 a 7.2561132,6.3728538 30.170207 1 1 -6.36867,11.04054 7.2561132,6.3728538 30.170207 1 1 6.36867,-11.04054 z" />
    <path
       id="path3266"
       style="fill:url(#linearGradient2009);stroke:#000000;stroke-width:2.20337;stroke-linecap:round;stroke-linejoin:round"
       d="m 588.21657,371.4477 a 7.2561132,6.3728538 30.170207 1 1 -6.36867,11.04054 7.2561132,6.3728538 30.170207 1 1 6.36867,-11.04054 z" />
    <path
       id="path3268"
       style="fill:url(#linearGradient2009);stroke:#000000;stroke-width:2.20337;stroke-linecap:round;stroke-linejoin:round"
       d="m 587.65257,380.3337 a 7.2561132,6.3728538 30.170207 1 1 -6.36867,11.04054 7.2561132,6.3728538 30.170207 1 1 6.36867,-11.04054 z" />
    <path
       id="path3270"
       style="fill:url(#linearGradient2009);stroke:#000000;stroke-width:2.20337;stroke-linecap:round;stroke-linejoin:round"
       d="m 637.63677,384.13526 a 6.3728619,7.2561087 74.826868 1 0 3.29406,12.31272 6.3728619,7.2561087 74.826868 1 0 -3.29406,-12.31272 z" />
    <path
       id="path3272"
       style="fill:url(#linearGradient2009);stroke:#000000;stroke-width:2.20337;stroke-linecap:round;stroke-linejoin:round"
       d="m 633.50877,368.69126 a 6.3728619,7.2561087 74.826868 1 0 3.29406,12.31272 6.3728619,7.2561087 74.826868 1 0 -3.29406,-12.31272 z" />
    <path
       id="path3274"
       style="fill:url(#linearGradient2009);stroke:#000000;stroke-width:2.20337;stroke-linecap:round;stroke-linejoin:round"
       d="m 631.75677,377.42126 a 6.3728619,7.2561087 74.826868 1 0 3.29406,12.31272 6.3728619,7.2561087 74.826868 1 0 -3.29406,-12.31272 z" />
  </g>
</svg>
