<svg width="2805" height="1176" viewBox="0 0 2805 1176" fill="none" xmlns="http://www.w3.org/2000/svg">
<rect x="15" width="458" height="356" fill="#D07839"/>
<path d="M161.004 135.104C161.004 133.997 160.841 133.004 160.516 132.125C160.19 131.214 159.588 130.367 158.709 129.586C157.83 128.805 156.561 128.023 154.9 127.242C153.273 126.428 151.124 125.582 148.455 124.703C145.33 123.661 142.319 122.49 139.422 121.188C136.525 119.853 133.937 118.307 131.658 116.549C129.38 114.758 127.573 112.675 126.238 110.299C124.904 107.89 124.236 105.09 124.236 101.9C124.236 98.8405 124.92 96.0898 126.287 93.6484C127.654 91.1745 129.559 89.0749 132 87.3496C134.474 85.5918 137.371 84.2572 140.691 83.3457C144.012 82.4017 147.641 81.9297 151.58 81.9297C156.788 81.9297 161.378 82.8411 165.35 84.6641C169.354 86.4544 172.479 89.0098 174.725 92.3301C177.003 95.6178 178.143 99.5078 178.143 104H161.102C161.102 102.21 160.727 100.631 159.979 99.2637C159.262 97.8965 158.172 96.8223 156.707 96.041C155.242 95.2598 153.403 94.8691 151.189 94.8691C149.041 94.8691 147.234 95.1947 145.77 95.8457C144.305 96.4967 143.198 97.3757 142.449 98.4824C141.701 99.5566 141.326 100.745 141.326 102.047C141.326 103.121 141.619 104.098 142.205 104.977C142.824 105.823 143.686 106.62 144.793 107.369C145.932 108.118 147.299 108.834 148.895 109.518C150.522 110.201 152.345 110.868 154.363 111.52C158.139 112.724 161.492 114.075 164.422 115.572C167.384 117.037 169.874 118.714 171.893 120.602C173.943 122.457 175.49 124.573 176.531 126.949C177.605 129.326 178.143 132.011 178.143 135.006C178.143 138.196 177.524 141.028 176.287 143.502C175.05 145.976 173.276 148.076 170.965 149.801C168.654 151.493 165.887 152.779 162.664 153.658C159.441 154.537 155.844 154.977 151.873 154.977C148.227 154.977 144.63 154.521 141.082 153.609C137.566 152.665 134.376 151.233 131.512 149.312C128.647 147.359 126.352 144.869 124.627 141.842C122.934 138.782 122.088 135.152 122.088 130.953H139.275C139.275 133.036 139.552 134.794 140.105 136.227C140.659 137.659 141.473 138.814 142.547 139.693C143.621 140.54 144.939 141.158 146.502 141.549C148.064 141.907 149.855 142.086 151.873 142.086C154.054 142.086 155.812 141.777 157.146 141.158C158.481 140.507 159.458 139.661 160.076 138.619C160.695 137.545 161.004 136.373 161.004 135.104ZM226.629 142.281L246.453 158.004L235.809 166.988L216.326 151.266L226.629 142.281ZM247.283 117.037V119.918C247.283 125.354 246.518 130.237 244.988 134.566C243.491 138.863 241.342 142.542 238.543 145.602C235.776 148.629 232.505 150.956 228.729 152.584C224.952 154.179 220.786 154.977 216.229 154.977C211.639 154.977 207.439 154.179 203.631 152.584C199.855 150.956 196.567 148.629 193.768 145.602C191.001 142.542 188.852 138.863 187.322 134.566C185.825 130.237 185.076 125.354 185.076 119.918V117.037C185.076 111.601 185.825 106.718 187.322 102.389C188.852 98.0592 190.984 94.3809 193.719 91.3535C196.486 88.2936 199.757 85.9661 203.533 84.3711C207.342 82.7435 211.541 81.9297 216.131 81.9297C220.688 81.9297 224.855 82.7435 228.631 84.3711C232.439 85.9661 235.727 88.2936 238.494 91.3535C241.294 94.3809 243.458 98.0592 244.988 102.389C246.518 106.718 247.283 111.601 247.283 117.037ZM229.852 119.918V116.939C229.852 113.424 229.542 110.331 228.924 107.662C228.338 104.96 227.459 102.698 226.287 100.875C225.115 99.0521 223.667 97.6849 221.941 96.7734C220.249 95.8294 218.312 95.3574 216.131 95.3574C213.852 95.3574 211.867 95.8294 210.174 96.7734C208.481 97.6849 207.065 99.0521 205.926 100.875C204.786 102.698 203.924 104.96 203.338 107.662C202.785 110.331 202.508 113.424 202.508 116.939V119.918C202.508 123.401 202.785 126.493 203.338 129.195C203.924 131.865 204.786 134.127 205.926 135.982C207.098 137.838 208.53 139.238 210.223 140.182C211.948 141.126 213.95 141.598 216.229 141.598C218.41 141.598 220.346 141.126 222.039 140.182C223.732 139.238 225.148 137.838 226.287 135.982C227.459 134.127 228.338 131.865 228.924 129.195C229.542 126.493 229.852 123.401 229.852 119.918ZM256.023 82.9062H284.002C289.471 82.9062 294.223 83.7201 298.26 85.3477C302.296 86.9753 305.405 89.3841 307.586 92.5742C309.799 95.7643 310.906 99.7031 310.906 104.391C310.906 108.46 310.271 111.861 309.002 114.596C307.732 117.33 305.958 119.592 303.68 121.383C301.434 123.141 298.813 124.589 295.818 125.729L290.203 128.902H266.717L266.619 115.67H284.002C286.183 115.67 287.99 115.279 289.422 114.498C290.854 113.717 291.928 112.61 292.645 111.178C293.393 109.713 293.768 107.971 293.768 105.953C293.768 103.902 293.393 102.145 292.645 100.68C291.896 99.2148 290.789 98.0918 289.324 97.3105C287.892 96.5293 286.118 96.1387 284.002 96.1387H273.162V154H256.023V82.9062ZM294.939 154L279.217 122.555L297.381 122.457L313.299 153.268V154H294.939ZM368.23 140.816V154H332.293V140.816H368.23ZM338.396 82.9062V154H321.258V82.9062H338.396ZM125.506 252.104C125.506 250.997 125.343 250.004 125.018 249.125C124.692 248.214 124.09 247.367 123.211 246.586C122.332 245.805 121.062 245.023 119.402 244.242C117.775 243.428 115.626 242.582 112.957 241.703C109.832 240.661 106.821 239.49 103.924 238.188C101.027 236.853 98.4388 235.307 96.1602 233.549C93.8815 231.758 92.0749 229.675 90.7402 227.299C89.4056 224.89 88.7383 222.09 88.7383 218.9C88.7383 215.84 89.4219 213.09 90.7891 210.648C92.1562 208.174 94.0605 206.075 96.502 204.35C98.9759 202.592 101.873 201.257 105.193 200.346C108.514 199.402 112.143 198.93 116.082 198.93C121.29 198.93 125.88 199.841 129.852 201.664C133.855 203.454 136.98 206.01 139.227 209.33C141.505 212.618 142.645 216.508 142.645 221H125.604C125.604 219.21 125.229 217.631 124.48 216.264C123.764 214.896 122.674 213.822 121.209 213.041C119.744 212.26 117.905 211.869 115.691 211.869C113.543 211.869 111.736 212.195 110.271 212.846C108.807 213.497 107.7 214.376 106.951 215.482C106.202 216.557 105.828 217.745 105.828 219.047C105.828 220.121 106.121 221.098 106.707 221.977C107.326 222.823 108.188 223.62 109.295 224.369C110.434 225.118 111.801 225.834 113.396 226.518C115.024 227.201 116.847 227.868 118.865 228.52C122.641 229.724 125.994 231.075 128.924 232.572C131.886 234.037 134.376 235.714 136.395 237.602C138.445 239.457 139.992 241.573 141.033 243.949C142.107 246.326 142.645 249.011 142.645 252.006C142.645 255.196 142.026 258.028 140.789 260.502C139.552 262.976 137.778 265.076 135.467 266.801C133.156 268.493 130.389 269.779 127.166 270.658C123.943 271.537 120.346 271.977 116.375 271.977C112.729 271.977 109.132 271.521 105.584 270.609C102.068 269.665 98.8783 268.233 96.0137 266.312C93.1491 264.359 90.8542 261.869 89.1289 258.842C87.4362 255.782 86.5898 252.152 86.5898 247.953H103.777C103.777 250.036 104.054 251.794 104.607 253.227C105.161 254.659 105.975 255.814 107.049 256.693C108.123 257.54 109.441 258.158 111.004 258.549C112.566 258.907 114.357 259.086 116.375 259.086C118.556 259.086 120.314 258.777 121.648 258.158C122.983 257.507 123.96 256.661 124.578 255.619C125.197 254.545 125.506 253.373 125.506 252.104ZM173.016 259.281C174.546 259.281 175.848 259.005 176.922 258.451C178.029 257.865 178.859 257.051 179.412 256.01C179.998 254.936 180.275 253.65 180.242 252.152H195.721C195.753 256.124 194.777 259.607 192.791 262.602C190.838 265.564 188.169 267.875 184.783 269.535C181.43 271.163 177.638 271.977 173.406 271.977C169.272 271.977 165.659 271.309 162.566 269.975C159.474 268.607 156.886 266.719 154.803 264.311C152.752 261.869 151.206 259.021 150.164 255.766C149.155 252.51 148.65 248.979 148.65 245.17V244.047C148.65 240.238 149.155 236.706 150.164 233.451C151.206 230.163 152.752 227.315 154.803 224.906C156.886 222.465 159.458 220.577 162.518 219.242C165.61 217.875 169.207 217.191 173.309 217.191C177.703 217.191 181.577 218.021 184.93 219.682C188.315 221.342 190.968 223.751 192.889 226.908C194.809 230.066 195.753 233.891 195.721 238.383H180.242C180.275 236.788 180.031 235.355 179.51 234.086C178.989 232.816 178.175 231.807 177.068 231.059C175.994 230.277 174.611 229.887 172.918 229.887C171.225 229.887 169.858 230.261 168.816 231.01C167.775 231.758 166.977 232.8 166.424 234.135C165.903 235.437 165.545 236.934 165.35 238.627C165.187 240.32 165.105 242.126 165.105 244.047V245.17C165.105 247.123 165.187 248.962 165.35 250.688C165.545 252.38 165.919 253.878 166.473 255.18C167.026 256.449 167.824 257.458 168.865 258.207C169.907 258.923 171.29 259.281 173.016 259.281ZM219.354 231.254V271H202.898V218.168H218.279L219.354 231.254ZM234.979 217.777L234.686 233.061C234.035 232.995 233.156 232.914 232.049 232.816C230.942 232.719 230.014 232.67 229.266 232.67C227.345 232.67 225.685 232.898 224.285 233.354C222.918 233.777 221.779 234.428 220.867 235.307C219.988 236.153 219.337 237.227 218.914 238.529C218.523 239.831 218.344 241.345 218.377 243.07L215.398 241.117C215.398 237.569 215.74 234.346 216.424 231.449C217.14 228.52 218.149 225.997 219.451 223.881C220.753 221.732 222.332 220.089 224.188 218.949C226.043 217.777 228.126 217.191 230.438 217.191C231.251 217.191 232.049 217.24 232.83 217.338C233.644 217.436 234.36 217.582 234.979 217.777ZM258.025 218.168V271H241.521V218.168H258.025ZM240.545 204.545C240.545 202.201 241.391 200.281 243.084 198.783C244.777 197.286 246.974 196.537 249.676 196.537C252.378 196.537 254.575 197.286 256.268 198.783C257.96 200.281 258.807 202.201 258.807 204.545C258.807 206.889 257.96 208.809 256.268 210.307C254.575 211.804 252.378 212.553 249.676 212.553C246.974 212.553 244.777 211.804 243.084 210.307C241.391 208.809 240.545 206.889 240.545 204.545ZM284.783 228.324V291.312H268.328V218.168H283.66L284.783 228.324ZM317.205 243.949V244.975C317.205 248.816 316.766 252.38 315.887 255.668C315.008 258.956 313.706 261.82 311.98 264.262C310.255 266.703 308.107 268.607 305.535 269.975C302.996 271.309 300.05 271.977 296.697 271.977C293.54 271.977 290.822 271.277 288.543 269.877C286.264 268.477 284.36 266.54 282.83 264.066C281.3 261.592 280.063 258.76 279.119 255.57C278.175 252.38 277.426 249.011 276.873 245.463V244.145C277.426 240.336 278.175 236.804 279.119 233.549C280.063 230.261 281.3 227.396 282.83 224.955C284.36 222.514 286.248 220.609 288.494 219.242C290.773 217.875 293.491 217.191 296.648 217.191C300.001 217.191 302.947 217.826 305.486 219.096C308.058 220.365 310.206 222.188 311.932 224.564C313.689 226.908 315.008 229.724 315.887 233.012C316.766 236.299 317.205 239.945 317.205 243.949ZM300.75 244.975V243.949C300.75 241.898 300.604 240.027 300.311 238.334C300.018 236.609 299.546 235.111 298.895 233.842C298.276 232.572 297.446 231.596 296.404 230.912C295.363 230.229 294.077 229.887 292.547 229.887C290.789 229.887 289.308 230.163 288.104 230.717C286.932 231.238 285.988 232.051 285.271 233.158C284.588 234.232 284.1 235.583 283.807 237.211C283.546 238.806 283.432 240.678 283.465 242.826V246.83C283.4 249.304 283.644 251.485 284.197 253.373C284.751 255.229 285.711 256.677 287.078 257.719C288.445 258.76 290.301 259.281 292.645 259.281C294.207 259.281 295.509 258.923 296.551 258.207C297.592 257.458 298.423 256.433 299.041 255.131C299.66 253.796 300.099 252.266 300.359 250.541C300.62 248.816 300.75 246.96 300.75 244.975ZM352.361 218.168V229.594H320.525V218.168H352.361ZM327.215 205.033H343.67V253.764C343.67 255.163 343.833 256.254 344.158 257.035C344.484 257.784 345.037 258.321 345.818 258.646C346.632 258.939 347.706 259.086 349.041 259.086C349.985 259.086 350.766 259.07 351.385 259.037C352.003 258.972 352.589 258.891 353.143 258.793V270.561C351.743 271.016 350.278 271.358 348.748 271.586C347.218 271.846 345.59 271.977 343.865 271.977C340.35 271.977 337.339 271.423 334.832 270.316C332.358 269.21 330.47 267.468 329.168 265.092C327.866 262.715 327.215 259.623 327.215 255.814V205.033ZM386.59 256.156C386.59 255.245 386.281 254.464 385.662 253.812C385.076 253.129 384.035 252.51 382.537 251.957C381.04 251.371 378.94 250.785 376.238 250.199C373.667 249.646 371.242 248.913 368.963 248.002C366.717 247.09 364.747 245.984 363.055 244.682C361.362 243.38 360.027 241.833 359.051 240.043C358.107 238.253 357.635 236.202 357.635 233.891C357.635 231.645 358.107 229.529 359.051 227.543C360.027 225.525 361.443 223.751 363.299 222.221C365.187 220.658 367.482 219.438 370.184 218.559C372.885 217.647 375.962 217.191 379.412 217.191C384.165 217.191 388.266 217.924 391.717 219.389C395.167 220.821 397.82 222.839 399.676 225.443C401.564 228.015 402.508 230.993 402.508 234.379H386.053C386.053 233.044 385.825 231.905 385.369 230.961C384.946 230.017 384.246 229.301 383.27 228.812C382.293 228.292 380.991 228.031 379.363 228.031C378.224 228.031 377.182 228.243 376.238 228.666C375.327 229.089 374.594 229.675 374.041 230.424C373.488 231.173 373.211 232.051 373.211 233.061C373.211 233.777 373.374 234.428 373.699 235.014C374.057 235.567 374.594 236.088 375.311 236.576C376.027 237.032 376.938 237.455 378.045 237.846C379.152 238.204 380.486 238.529 382.049 238.822C385.597 239.473 388.917 240.401 392.01 241.605C395.102 242.81 397.609 244.519 399.529 246.732C401.482 248.946 402.459 251.924 402.459 255.668C402.459 258.012 401.922 260.176 400.848 262.162C399.773 264.115 398.227 265.84 396.209 267.338C394.191 268.803 391.766 269.942 388.934 270.756C386.102 271.57 382.911 271.977 379.363 271.977C374.318 271.977 370.053 271.081 366.57 269.291C363.087 267.468 360.451 265.189 358.66 262.455C356.902 259.688 356.023 256.889 356.023 254.057H371.355C371.421 255.684 371.811 257.019 372.527 258.061C373.276 259.102 374.269 259.867 375.506 260.355C376.743 260.844 378.175 261.088 379.803 261.088C381.3 261.088 382.537 260.876 383.514 260.453C384.523 260.03 385.288 259.46 385.809 258.744C386.329 257.995 386.59 257.133 386.59 256.156Z" fill="white"/>
<rect x="15" y="410" width="458" height="356" fill="#D07839"/>
<path d="M82.9648 539.879H65.2891V526.646H82.9648C85.3737 526.646 87.3268 526.24 88.8242 525.426C90.3216 524.612 91.4121 523.489 92.0957 522.057C92.8118 520.592 93.1699 518.948 93.1699 517.125C93.1699 515.172 92.8118 513.365 92.0957 511.705C91.4121 510.045 90.3216 508.71 88.8242 507.701C87.3268 506.66 85.3737 506.139 82.9648 506.139H71.7344V564H54.5957V492.906H82.9648C88.6615 492.906 93.5605 493.948 97.6621 496.031C101.796 498.115 104.97 500.979 107.184 504.625C109.397 508.238 110.504 512.372 110.504 517.027C110.504 521.617 109.397 525.621 107.184 529.039C104.97 532.457 101.796 535.126 97.6621 537.047C93.5605 538.935 88.6615 539.879 82.9648 539.879ZM145.807 550.719V528.941C145.807 527.444 145.595 526.158 145.172 525.084C144.749 524.01 144.081 523.18 143.17 522.594C142.258 521.975 141.038 521.666 139.508 521.666C138.271 521.666 137.213 521.878 136.334 522.301C135.455 522.724 134.788 523.359 134.332 524.205C133.876 525.051 133.648 526.126 133.648 527.428H117.193C117.193 524.986 117.73 522.724 118.805 520.641C119.911 518.525 121.474 516.686 123.492 515.123C125.543 513.561 127.984 512.356 130.816 511.51C133.681 510.631 136.871 510.191 140.387 510.191C144.586 510.191 148.329 510.891 151.617 512.291C154.938 513.691 157.558 515.79 159.479 518.59C161.399 521.357 162.359 524.84 162.359 529.039V550.67C162.359 554.12 162.555 556.741 162.945 558.531C163.336 560.289 163.889 561.835 164.605 563.17V564H148.102C147.32 562.372 146.734 560.387 146.344 558.043C145.986 555.667 145.807 553.225 145.807 550.719ZM147.809 531.725L147.906 540.514H140.631C139.101 540.514 137.799 540.725 136.725 541.148C135.683 541.572 134.837 542.158 134.186 542.906C133.567 543.622 133.111 544.436 132.818 545.348C132.558 546.259 132.428 547.219 132.428 548.229C132.428 549.205 132.656 550.084 133.111 550.865C133.6 551.614 134.251 552.2 135.064 552.623C135.878 553.046 136.79 553.258 137.799 553.258C139.622 553.258 141.168 552.916 142.438 552.232C143.74 551.516 144.732 550.654 145.416 549.645C146.1 548.635 146.441 547.691 146.441 546.812L150.055 553.551C149.404 554.853 148.655 556.171 147.809 557.506C146.995 558.84 145.969 560.077 144.732 561.217C143.528 562.324 142.047 563.235 140.289 563.951C138.531 564.635 136.399 564.977 133.893 564.977C130.637 564.977 127.643 564.309 124.908 562.975C122.206 561.64 120.042 559.785 118.414 557.408C116.786 554.999 115.973 552.232 115.973 549.107C115.973 546.373 116.461 543.932 117.438 541.783C118.447 539.635 119.96 537.812 121.979 536.314C123.997 534.817 126.568 533.678 129.693 532.896C132.818 532.115 136.497 531.725 140.729 531.725H147.809ZM193.805 552.281C195.335 552.281 196.637 552.005 197.711 551.451C198.818 550.865 199.648 550.051 200.201 549.01C200.787 547.936 201.064 546.65 201.031 545.152H216.51C216.542 549.124 215.566 552.607 213.58 555.602C211.627 558.564 208.958 560.875 205.572 562.535C202.219 564.163 198.427 564.977 194.195 564.977C190.061 564.977 186.448 564.309 183.355 562.975C180.263 561.607 177.675 559.719 175.592 557.311C173.541 554.869 171.995 552.021 170.953 548.766C169.944 545.51 169.439 541.979 169.439 538.17V537.047C169.439 533.238 169.944 529.706 170.953 526.451C171.995 523.163 173.541 520.315 175.592 517.906C177.675 515.465 180.247 513.577 183.307 512.242C186.399 510.875 189.996 510.191 194.098 510.191C198.492 510.191 202.366 511.021 205.719 512.682C209.104 514.342 211.757 516.751 213.678 519.908C215.598 523.066 216.542 526.891 216.51 531.383H201.031C201.064 529.788 200.82 528.355 200.299 527.086C199.778 525.816 198.964 524.807 197.857 524.059C196.783 523.277 195.4 522.887 193.707 522.887C192.014 522.887 190.647 523.261 189.605 524.01C188.564 524.758 187.766 525.8 187.213 527.135C186.692 528.437 186.334 529.934 186.139 531.627C185.976 533.32 185.895 535.126 185.895 537.047V538.17C185.895 540.123 185.976 541.962 186.139 543.688C186.334 545.38 186.708 546.878 187.262 548.18C187.815 549.449 188.613 550.458 189.654 551.207C190.696 551.923 192.079 552.281 193.805 552.281ZM240.143 488.951V564H223.688V488.951H240.143ZM273.932 511.168L250.982 538.072L238.971 550.084L231.793 539.635L241.803 526.598L254.205 511.168H273.932ZM256.305 564L242.193 539.928L254.352 531.285L275.152 564H256.305ZM305.67 550.719V528.941C305.67 527.444 305.458 526.158 305.035 525.084C304.612 524.01 303.945 523.18 303.033 522.594C302.122 521.975 300.901 521.666 299.371 521.666C298.134 521.666 297.076 521.878 296.197 522.301C295.318 522.724 294.651 523.359 294.195 524.205C293.74 525.051 293.512 526.126 293.512 527.428H277.057C277.057 524.986 277.594 522.724 278.668 520.641C279.775 518.525 281.337 516.686 283.355 515.123C285.406 513.561 287.848 512.356 290.68 511.51C293.544 510.631 296.734 510.191 300.25 510.191C304.449 510.191 308.193 510.891 311.48 512.291C314.801 513.691 317.421 515.79 319.342 518.59C321.262 521.357 322.223 524.84 322.223 529.039V550.67C322.223 554.12 322.418 556.741 322.809 558.531C323.199 560.289 323.753 561.835 324.469 563.17V564H307.965C307.184 562.372 306.598 560.387 306.207 558.043C305.849 555.667 305.67 553.225 305.67 550.719ZM307.672 531.725L307.77 540.514H300.494C298.964 540.514 297.662 540.725 296.588 541.148C295.546 541.572 294.7 542.158 294.049 542.906C293.43 543.622 292.975 544.436 292.682 545.348C292.421 546.259 292.291 547.219 292.291 548.229C292.291 549.205 292.519 550.084 292.975 550.865C293.463 551.614 294.114 552.2 294.928 552.623C295.742 553.046 296.653 553.258 297.662 553.258C299.485 553.258 301.031 552.916 302.301 552.232C303.603 551.516 304.596 550.654 305.279 549.645C305.963 548.635 306.305 547.691 306.305 546.812L309.918 553.551C309.267 554.853 308.518 556.171 307.672 557.506C306.858 558.84 305.833 560.077 304.596 561.217C303.391 562.324 301.91 563.235 300.152 563.951C298.395 564.635 296.262 564.977 293.756 564.977C290.501 564.977 287.506 564.309 284.771 562.975C282.07 561.64 279.905 559.785 278.277 557.408C276.65 554.999 275.836 552.232 275.836 549.107C275.836 546.373 276.324 543.932 277.301 541.783C278.31 539.635 279.824 537.812 281.842 536.314C283.86 534.817 286.432 533.678 289.557 532.896C292.682 532.115 296.36 531.725 300.592 531.725H307.672ZM364.557 511.168H379.498V561.949C379.498 566.832 378.375 570.966 376.129 574.352C373.883 577.77 370.742 580.357 366.705 582.115C362.701 583.906 358.014 584.801 352.643 584.801C350.266 584.801 347.841 584.492 345.367 583.873C342.893 583.287 340.582 582.408 338.434 581.236C336.285 580.064 334.479 578.616 333.014 576.891L339.898 567.223C341.233 568.72 342.91 569.99 344.928 571.031C346.946 572.105 349.322 572.643 352.057 572.643C354.433 572.643 356.419 572.219 358.014 571.373C359.641 570.527 360.878 569.29 361.725 567.662C362.571 566.067 362.994 564.13 362.994 561.852V523.668L364.557 511.168ZM329.449 538.219V537.193C329.449 533.189 329.938 529.544 330.914 526.256C331.923 522.936 333.355 520.087 335.211 517.711C337.099 515.302 339.378 513.447 342.047 512.145C344.716 510.842 347.727 510.191 351.08 510.191C354.693 510.191 357.656 510.891 359.967 512.291C362.311 513.658 364.182 515.579 365.582 518.053C367.014 520.527 368.121 523.424 368.902 526.744C369.716 530.032 370.4 533.58 370.953 537.389V538.609C370.4 542.19 369.635 545.576 368.658 548.766C367.714 551.923 366.477 554.723 364.947 557.164C363.417 559.605 361.497 561.526 359.186 562.926C356.907 564.293 354.173 564.977 350.982 564.977C347.662 564.977 344.667 564.309 341.998 562.975C339.361 561.64 337.099 559.768 335.211 557.359C333.355 554.951 331.923 552.118 330.914 548.863C329.938 545.608 329.449 542.06 329.449 538.219ZM345.904 537.193V538.219C345.904 540.204 346.083 542.044 346.441 543.736C346.832 545.429 347.418 546.926 348.199 548.229C348.98 549.498 349.941 550.491 351.08 551.207C352.252 551.923 353.619 552.281 355.182 552.281C357.558 552.281 359.479 551.777 360.943 550.768C362.408 549.758 363.466 548.326 364.117 546.471C364.768 544.615 365.045 542.434 364.947 539.928V536.07C365.012 533.922 364.866 532.034 364.508 530.406C364.15 528.746 363.58 527.363 362.799 526.256C362.05 525.149 361.041 524.319 359.771 523.766C358.535 523.18 357.037 522.887 355.279 522.887C353.749 522.887 352.398 523.245 351.227 523.961C350.055 524.677 349.078 525.686 348.297 526.988C347.516 528.258 346.913 529.771 346.49 531.529C346.1 533.255 345.904 535.143 345.904 537.193ZM414.557 564.977C410.26 564.977 406.419 564.309 403.033 562.975C399.648 561.607 396.783 559.736 394.439 557.359C392.128 554.983 390.354 552.249 389.117 549.156C387.913 546.064 387.311 542.792 387.311 539.342V537.486C387.311 533.613 387.848 530.032 388.922 526.744C389.996 523.424 391.591 520.527 393.707 518.053C395.823 515.579 398.476 513.658 401.666 512.291C404.856 510.891 408.567 510.191 412.799 510.191C416.542 510.191 419.895 510.794 422.857 511.998C425.82 513.202 428.326 514.928 430.377 517.174C432.46 519.42 434.039 522.138 435.113 525.328C436.22 528.518 436.773 532.099 436.773 536.07V542.76H393.609V532.457H420.709V531.188C420.742 529.43 420.432 527.932 419.781 526.695C419.163 525.458 418.251 524.514 417.047 523.863C415.842 523.212 414.378 522.887 412.652 522.887C410.862 522.887 409.381 523.277 408.209 524.059C407.07 524.84 406.174 525.914 405.523 527.281C404.905 528.616 404.465 530.162 404.205 531.92C403.945 533.678 403.814 535.533 403.814 537.486V539.342C403.814 541.295 404.075 543.069 404.596 544.664C405.149 546.259 405.93 547.626 406.939 548.766C407.981 549.872 409.218 550.735 410.65 551.354C412.115 551.972 413.775 552.281 415.631 552.281C417.877 552.281 420.09 551.858 422.271 551.012C424.452 550.165 426.324 548.766 427.887 546.812L435.357 555.699C434.283 557.229 432.753 558.71 430.768 560.143C428.814 561.575 426.471 562.747 423.736 563.658C421.002 564.537 417.942 564.977 414.557 564.977ZM140.045 656.928H157.135C156.907 661.876 155.572 666.238 153.131 670.014C150.689 673.79 147.304 676.736 142.975 678.852C138.678 680.935 133.6 681.977 127.74 681.977C122.988 681.977 118.74 681.179 114.996 679.584C111.285 677.989 108.128 675.694 105.523 672.699C102.952 669.704 100.982 666.075 99.6152 661.811C98.2806 657.546 97.6133 652.745 97.6133 647.406V643.549C97.6133 638.21 98.3132 633.409 99.7129 629.145C101.145 624.848 103.163 621.202 105.768 618.207C108.404 615.18 111.562 612.868 115.24 611.273C118.919 609.678 123.004 608.881 127.496 608.881C133.681 608.881 138.906 609.988 143.17 612.201C147.434 614.415 150.738 617.458 153.082 621.332C155.426 625.173 156.809 629.551 157.232 634.467H140.143C140.077 631.798 139.622 629.568 138.775 627.777C137.929 625.954 136.594 624.587 134.771 623.676C132.949 622.764 130.523 622.309 127.496 622.309C125.38 622.309 123.541 622.699 121.979 623.48C120.416 624.262 119.114 625.499 118.072 627.191C117.031 628.884 116.249 631.081 115.729 633.783C115.24 636.452 114.996 639.675 114.996 643.451V647.406C114.996 651.182 115.224 654.405 115.68 657.074C116.135 659.743 116.868 661.924 117.877 663.617C118.886 665.31 120.188 666.563 121.783 667.377C123.411 668.158 125.396 668.549 127.74 668.549C130.344 668.549 132.542 668.142 134.332 667.328C136.122 666.482 137.506 665.212 138.482 663.52C139.459 661.794 139.98 659.597 140.045 656.928ZM162.408 655.121V654.096C162.408 650.222 162.962 646.658 164.068 643.402C165.175 640.115 166.803 637.266 168.951 634.857C171.1 632.449 173.753 630.577 176.91 629.242C180.068 627.875 183.714 627.191 187.848 627.191C192.014 627.191 195.676 627.875 198.834 629.242C202.024 630.577 204.693 632.449 206.842 634.857C208.99 637.266 210.618 640.115 211.725 643.402C212.831 646.658 213.385 650.222 213.385 654.096V655.121C213.385 658.962 212.831 662.527 211.725 665.814C210.618 669.07 208.99 671.918 206.842 674.359C204.693 676.768 202.04 678.64 198.883 679.975C195.725 681.309 192.079 681.977 187.945 681.977C183.811 681.977 180.149 681.309 176.959 679.975C173.769 678.64 171.1 676.768 168.951 674.359C166.803 671.918 165.175 669.07 164.068 665.814C162.962 662.527 162.408 658.962 162.408 655.121ZM178.863 654.096V655.121C178.863 657.107 179.01 658.962 179.303 660.688C179.596 662.413 180.084 663.926 180.768 665.229C181.451 666.498 182.379 667.491 183.551 668.207C184.723 668.923 186.188 669.281 187.945 669.281C189.671 669.281 191.103 668.923 192.242 668.207C193.414 667.491 194.342 666.498 195.025 665.229C195.709 663.926 196.197 662.413 196.49 660.688C196.783 658.962 196.93 657.107 196.93 655.121V654.096C196.93 652.175 196.783 650.368 196.49 648.676C196.197 646.951 195.709 645.437 195.025 644.135C194.342 642.8 193.414 641.758 192.242 641.01C191.07 640.261 189.605 639.887 187.848 639.887C186.122 639.887 184.674 640.261 183.502 641.01C182.363 641.758 181.451 642.8 180.768 644.135C180.084 645.437 179.596 646.951 179.303 648.676C179.01 650.368 178.863 652.175 178.863 654.096ZM236.871 639.447V681H220.416V628.168H235.846L236.871 639.447ZM234.918 652.777L231.061 652.875C231.061 648.839 231.549 645.242 232.525 642.084C233.502 638.894 234.885 636.192 236.676 633.979C238.466 631.765 240.598 630.089 243.072 628.949C245.579 627.777 248.362 627.191 251.422 627.191C253.863 627.191 256.093 627.549 258.111 628.266C260.162 628.982 261.92 630.137 263.385 631.732C264.882 633.327 266.021 635.443 266.803 638.08C267.617 640.684 268.023 643.907 268.023 647.748V681H251.471V647.699C251.471 645.583 251.178 643.972 250.592 642.865C250.006 641.726 249.16 640.945 248.053 640.521C246.946 640.098 245.595 639.887 244 639.887C242.307 639.887 240.875 640.212 239.703 640.863C238.531 641.514 237.587 642.426 236.871 643.598C236.188 644.737 235.683 646.088 235.357 647.65C235.064 649.213 234.918 650.922 234.918 652.777ZM297.516 681H280.963V626.801C280.963 622.081 281.939 618.109 283.893 614.887C285.878 611.632 288.727 609.174 292.438 607.514C296.148 605.821 300.641 604.975 305.914 604.975C308.909 604.975 311.79 605.235 314.557 605.756C317.324 606.277 320.188 606.96 323.15 607.807L320.855 620.795C318.935 620.274 316.917 619.786 314.801 619.33C312.717 618.874 310.097 618.646 306.939 618.646C303.977 618.646 301.666 619.346 300.006 620.746C298.346 622.146 297.516 624.164 297.516 626.801V681ZM307.867 628.168V639.594H273.346V628.168H307.867ZM330.67 628.168V681H314.166V628.168H330.67ZM374.029 628.168H388.971V678.949C388.971 683.832 387.848 687.966 385.602 691.352C383.355 694.77 380.214 697.357 376.178 699.115C372.174 700.906 367.486 701.801 362.115 701.801C359.739 701.801 357.314 701.492 354.84 700.873C352.366 700.287 350.055 699.408 347.906 698.236C345.758 697.064 343.951 695.616 342.486 693.891L349.371 684.223C350.706 685.72 352.382 686.99 354.4 688.031C356.419 689.105 358.795 689.643 361.529 689.643C363.906 689.643 365.891 689.219 367.486 688.373C369.114 687.527 370.351 686.29 371.197 684.662C372.044 683.067 372.467 681.13 372.467 678.852V640.668L374.029 628.168ZM338.922 655.219V654.193C338.922 650.189 339.41 646.544 340.387 643.256C341.396 639.936 342.828 637.087 344.684 634.711C346.572 632.302 348.85 630.447 351.52 629.145C354.189 627.842 357.2 627.191 360.553 627.191C364.166 627.191 367.128 627.891 369.439 629.291C371.783 630.658 373.655 632.579 375.055 635.053C376.487 637.527 377.594 640.424 378.375 643.744C379.189 647.032 379.872 650.58 380.426 654.389V655.609C379.872 659.19 379.107 662.576 378.131 665.766C377.187 668.923 375.95 671.723 374.42 674.164C372.89 676.605 370.969 678.526 368.658 679.926C366.38 681.293 363.645 681.977 360.455 681.977C357.135 681.977 354.14 681.309 351.471 679.975C348.834 678.64 346.572 676.768 344.684 674.359C342.828 671.951 341.396 669.118 340.387 665.863C339.41 662.608 338.922 659.06 338.922 655.219ZM355.377 654.193V655.219C355.377 657.204 355.556 659.044 355.914 660.736C356.305 662.429 356.891 663.926 357.672 665.229C358.453 666.498 359.413 667.491 360.553 668.207C361.725 668.923 363.092 669.281 364.654 669.281C367.031 669.281 368.951 668.777 370.416 667.768C371.881 666.758 372.939 665.326 373.59 663.471C374.241 661.615 374.518 659.434 374.42 656.928V653.07C374.485 650.922 374.339 649.034 373.98 647.406C373.622 645.746 373.053 644.363 372.271 643.256C371.523 642.149 370.514 641.319 369.244 640.766C368.007 640.18 366.51 639.887 364.752 639.887C363.222 639.887 361.871 640.245 360.699 640.961C359.527 641.677 358.551 642.686 357.77 643.988C356.988 645.258 356.386 646.771 355.963 648.529C355.572 650.255 355.377 652.143 355.377 654.193Z" fill="white"/>
<rect x="15" y="820" width="458" height="356" fill="#D07839"/>
<path d="M197.76 917.848L180.426 974H162.018L188.141 902.906H199.811L197.76 917.848ZM212.115 974L194.732 917.848L192.486 902.906H204.303L230.572 974H212.115ZM211.432 947.486V960.719H174.957V947.486H211.432ZM264.166 949.879H246.49V936.646H264.166C266.575 936.646 268.528 936.24 270.025 935.426C271.523 934.612 272.613 933.489 273.297 932.057C274.013 930.592 274.371 928.948 274.371 927.125C274.371 925.172 274.013 923.365 273.297 921.705C272.613 920.045 271.523 918.71 270.025 917.701C268.528 916.66 266.575 916.139 264.166 916.139H252.936V974H235.797V902.906H264.166C269.863 902.906 274.762 903.948 278.863 906.031C282.997 908.115 286.171 910.979 288.385 914.625C290.598 918.238 291.705 922.372 291.705 927.027C291.705 931.617 290.598 935.621 288.385 939.039C286.171 942.457 282.997 945.126 278.863 947.047C274.762 948.935 269.863 949.879 264.166 949.879ZM319.146 902.906V974H302.057V902.906H319.146ZM173.297 1072.1C173.297 1071 173.134 1070 172.809 1069.12C172.483 1068.21 171.881 1067.37 171.002 1066.59C170.123 1065.8 168.854 1065.02 167.193 1064.24C165.566 1063.43 163.417 1062.58 160.748 1061.7C157.623 1060.66 154.612 1059.49 151.715 1058.19C148.818 1056.85 146.23 1055.31 143.951 1053.55C141.673 1051.76 139.866 1049.68 138.531 1047.3C137.197 1044.89 136.529 1042.09 136.529 1038.9C136.529 1035.84 137.213 1033.09 138.58 1030.65C139.947 1028.17 141.852 1026.07 144.293 1024.35C146.767 1022.59 149.664 1021.26 152.984 1020.35C156.305 1019.4 159.934 1018.93 163.873 1018.93C169.081 1018.93 173.671 1019.84 177.643 1021.66C181.646 1023.45 184.771 1026.01 187.018 1029.33C189.296 1032.62 190.436 1036.51 190.436 1041H173.395C173.395 1039.21 173.02 1037.63 172.271 1036.26C171.555 1034.9 170.465 1033.82 169 1033.04C167.535 1032.26 165.696 1031.87 163.482 1031.87C161.334 1031.87 159.527 1032.19 158.062 1032.85C156.598 1033.5 155.491 1034.38 154.742 1035.48C153.993 1036.56 153.619 1037.74 153.619 1039.05C153.619 1040.12 153.912 1041.1 154.498 1041.98C155.117 1042.82 155.979 1043.62 157.086 1044.37C158.225 1045.12 159.592 1045.83 161.188 1046.52C162.815 1047.2 164.638 1047.87 166.656 1048.52C170.432 1049.72 173.785 1051.07 176.715 1052.57C179.677 1054.04 182.167 1055.71 184.186 1057.6C186.236 1059.46 187.783 1061.57 188.824 1063.95C189.898 1066.33 190.436 1069.01 190.436 1072.01C190.436 1075.2 189.817 1078.03 188.58 1080.5C187.343 1082.98 185.569 1085.08 183.258 1086.8C180.947 1088.49 178.18 1089.78 174.957 1090.66C171.734 1091.54 168.137 1091.98 164.166 1091.98C160.52 1091.98 156.923 1091.52 153.375 1090.61C149.859 1089.67 146.669 1088.23 143.805 1086.31C140.94 1084.36 138.645 1081.87 136.92 1078.84C135.227 1075.78 134.381 1072.15 134.381 1067.95H151.568C151.568 1070.04 151.845 1071.79 152.398 1073.23C152.952 1074.66 153.766 1075.81 154.84 1076.69C155.914 1077.54 157.232 1078.16 158.795 1078.55C160.357 1078.91 162.148 1079.09 164.166 1079.09C166.347 1079.09 168.105 1078.78 169.439 1078.16C170.774 1077.51 171.751 1076.66 172.369 1075.62C172.988 1074.54 173.297 1073.37 173.297 1072.1ZM215.094 1048.32V1111.31H198.639V1038.17H213.971L215.094 1048.32ZM247.516 1063.95V1064.97C247.516 1068.82 247.076 1072.38 246.197 1075.67C245.318 1078.96 244.016 1081.82 242.291 1084.26C240.566 1086.7 238.417 1088.61 235.846 1089.97C233.307 1091.31 230.361 1091.98 227.008 1091.98C223.85 1091.98 221.132 1091.28 218.854 1089.88C216.575 1088.48 214.671 1086.54 213.141 1084.07C211.611 1081.59 210.374 1078.76 209.43 1075.57C208.486 1072.38 207.737 1069.01 207.184 1065.46V1064.14C207.737 1060.34 208.486 1056.8 209.43 1053.55C210.374 1050.26 211.611 1047.4 213.141 1044.96C214.671 1042.51 216.559 1040.61 218.805 1039.24C221.083 1037.88 223.801 1037.19 226.959 1037.19C230.312 1037.19 233.258 1037.83 235.797 1039.1C238.368 1040.37 240.517 1042.19 242.242 1044.56C244 1046.91 245.318 1049.72 246.197 1053.01C247.076 1056.3 247.516 1059.95 247.516 1063.95ZM231.061 1064.97V1063.95C231.061 1061.9 230.914 1060.03 230.621 1058.33C230.328 1056.61 229.856 1055.11 229.205 1053.84C228.587 1052.57 227.757 1051.6 226.715 1050.91C225.673 1050.23 224.387 1049.89 222.857 1049.89C221.1 1049.89 219.618 1050.16 218.414 1050.72C217.242 1051.24 216.298 1052.05 215.582 1053.16C214.898 1054.23 214.41 1055.58 214.117 1057.21C213.857 1058.81 213.743 1060.68 213.775 1062.83V1066.83C213.71 1069.3 213.954 1071.49 214.508 1073.37C215.061 1075.23 216.021 1076.68 217.389 1077.72C218.756 1078.76 220.611 1079.28 222.955 1079.28C224.518 1079.28 225.82 1078.92 226.861 1078.21C227.903 1077.46 228.733 1076.43 229.352 1075.13C229.97 1073.8 230.41 1072.27 230.67 1070.54C230.93 1068.82 231.061 1066.96 231.061 1064.97ZM280.426 1091.98C276.129 1091.98 272.288 1091.31 268.902 1089.97C265.517 1088.61 262.652 1086.74 260.309 1084.36C257.997 1081.98 256.223 1079.25 254.986 1076.16C253.782 1073.06 253.18 1069.79 253.18 1066.34V1064.49C253.18 1060.61 253.717 1057.03 254.791 1053.74C255.865 1050.42 257.46 1047.53 259.576 1045.05C261.692 1042.58 264.345 1040.66 267.535 1039.29C270.725 1037.89 274.436 1037.19 278.668 1037.19C282.411 1037.19 285.764 1037.79 288.727 1039C291.689 1040.2 294.195 1041.93 296.246 1044.17C298.329 1046.42 299.908 1049.14 300.982 1052.33C302.089 1055.52 302.643 1059.1 302.643 1063.07V1069.76H259.479V1059.46H286.578V1058.19C286.611 1056.43 286.301 1054.93 285.65 1053.7C285.032 1052.46 284.12 1051.51 282.916 1050.86C281.712 1050.21 280.247 1049.89 278.521 1049.89C276.731 1049.89 275.25 1050.28 274.078 1051.06C272.939 1051.84 272.044 1052.91 271.393 1054.28C270.774 1055.62 270.335 1057.16 270.074 1058.92C269.814 1060.68 269.684 1062.53 269.684 1064.49V1066.34C269.684 1068.29 269.944 1070.07 270.465 1071.66C271.018 1073.26 271.799 1074.63 272.809 1075.77C273.85 1076.87 275.087 1077.74 276.52 1078.35C277.984 1078.97 279.645 1079.28 281.5 1079.28C283.746 1079.28 285.96 1078.86 288.141 1078.01C290.322 1077.17 292.193 1075.77 293.756 1073.81L301.227 1082.7C300.152 1084.23 298.622 1085.71 296.637 1087.14C294.684 1088.57 292.34 1089.75 289.605 1090.66C286.871 1091.54 283.811 1091.98 280.426 1091.98ZM331.646 1079.28C333.176 1079.28 334.479 1079 335.553 1078.45C336.66 1077.87 337.49 1077.05 338.043 1076.01C338.629 1074.94 338.906 1073.65 338.873 1072.15H354.352C354.384 1076.12 353.408 1079.61 351.422 1082.6C349.469 1085.56 346.799 1087.88 343.414 1089.54C340.061 1091.16 336.269 1091.98 332.037 1091.98C327.903 1091.98 324.29 1091.31 321.197 1089.97C318.105 1088.61 315.517 1086.72 313.434 1084.31C311.383 1081.87 309.837 1079.02 308.795 1075.77C307.786 1072.51 307.281 1068.98 307.281 1065.17V1064.05C307.281 1060.24 307.786 1056.71 308.795 1053.45C309.837 1050.16 311.383 1047.32 313.434 1044.91C315.517 1042.46 318.089 1040.58 321.148 1039.24C324.241 1037.88 327.838 1037.19 331.939 1037.19C336.334 1037.19 340.208 1038.02 343.561 1039.68C346.946 1041.34 349.599 1043.75 351.52 1046.91C353.44 1050.07 354.384 1053.89 354.352 1058.38H338.873C338.906 1056.79 338.661 1055.36 338.141 1054.09C337.62 1052.82 336.806 1051.81 335.699 1051.06C334.625 1050.28 333.242 1049.89 331.549 1049.89C329.856 1049.89 328.489 1050.26 327.447 1051.01C326.406 1051.76 325.608 1052.8 325.055 1054.13C324.534 1055.44 324.176 1056.93 323.98 1058.63C323.818 1060.32 323.736 1062.13 323.736 1064.05V1065.17C323.736 1067.12 323.818 1068.96 323.98 1070.69C324.176 1072.38 324.55 1073.88 325.104 1075.18C325.657 1076.45 326.454 1077.46 327.496 1078.21C328.538 1078.92 329.921 1079.28 331.646 1079.28Z" fill="white"/>
<path d="M692.922 986H670.842L670.979 967.543H692.922C697.479 967.543 701.33 966.449 704.475 964.262C707.665 962.074 710.08 958.816 711.721 954.486C713.407 950.111 714.25 944.734 714.25 938.354V934.047C714.25 929.262 713.771 925.069 712.814 921.469C711.903 917.823 710.536 914.792 708.713 912.377C706.89 909.916 704.611 908.07 701.877 906.84C699.188 905.609 696.089 904.994 692.58 904.994H670.432V886.469H692.58C699.325 886.469 705.5 887.631 711.105 889.955C716.757 892.234 721.633 895.515 725.734 899.799C729.882 904.037 733.072 909.073 735.305 914.906C737.583 920.694 738.723 927.12 738.723 934.184V938.354C738.723 945.372 737.583 951.798 735.305 957.631C733.072 963.464 729.904 968.5 725.803 972.738C721.701 976.977 716.848 980.258 711.242 982.582C705.682 984.861 699.576 986 692.922 986ZM684.582 886.469V986H660.588V886.469H684.582ZM788.557 967.406V936.918C788.557 934.822 788.26 933.021 787.668 931.518C787.076 930.014 786.141 928.852 784.865 928.031C783.589 927.165 781.88 926.732 779.738 926.732C778.007 926.732 776.525 927.029 775.295 927.621C774.064 928.214 773.13 929.102 772.492 930.287C771.854 931.472 771.535 932.976 771.535 934.799H748.498C748.498 931.381 749.25 928.214 750.754 925.297C752.303 922.335 754.491 919.76 757.316 917.572C760.188 915.385 763.605 913.699 767.57 912.514C771.581 911.283 776.047 910.668 780.969 910.668C786.848 910.668 792.089 911.648 796.691 913.607C801.34 915.567 805.008 918.507 807.697 922.426C810.386 926.299 811.73 931.176 811.73 937.055V967.338C811.73 972.169 812.004 975.837 812.551 978.344C813.098 980.805 813.872 982.969 814.875 984.838V986H791.77C790.676 983.721 789.855 980.941 789.309 977.66C788.807 974.333 788.557 970.915 788.557 967.406ZM791.359 940.814L791.496 953.119H781.311C779.169 953.119 777.346 953.415 775.842 954.008C774.383 954.6 773.199 955.421 772.287 956.469C771.421 957.471 770.783 958.611 770.373 959.887C770.008 961.163 769.826 962.507 769.826 963.92C769.826 965.287 770.145 966.518 770.783 967.611C771.467 968.66 772.378 969.48 773.518 970.072C774.657 970.665 775.933 970.961 777.346 970.961C779.898 970.961 782.062 970.482 783.84 969.525C785.663 968.523 787.053 967.315 788.01 965.902C788.967 964.49 789.445 963.168 789.445 961.938L794.504 971.371C793.592 973.194 792.544 975.04 791.359 976.908C790.22 978.777 788.785 980.508 787.053 982.104C785.367 983.653 783.293 984.929 780.832 985.932C778.371 986.889 775.386 987.367 771.877 987.367C767.32 987.367 763.127 986.433 759.299 984.564C755.516 982.696 752.486 980.098 750.207 976.771C747.928 973.399 746.789 969.525 746.789 965.15C746.789 961.322 747.473 957.904 748.84 954.896C750.253 951.889 752.372 949.337 755.197 947.24C758.023 945.144 761.623 943.549 765.998 942.455C770.373 941.361 775.523 940.814 781.447 940.814H791.359ZM863.479 912.035V928.031H818.908V912.035H863.479ZM828.273 893.646H851.311V961.869C851.311 963.829 851.538 965.355 851.994 966.449C852.45 967.497 853.225 968.249 854.318 968.705C855.458 969.115 856.962 969.32 858.83 969.32C860.152 969.32 861.245 969.298 862.111 969.252C862.977 969.161 863.798 969.047 864.572 968.91V985.385C862.613 986.023 860.562 986.501 858.42 986.82C856.278 987.185 853.999 987.367 851.584 987.367C846.662 987.367 842.447 986.592 838.938 985.043C835.474 983.493 832.831 981.055 831.008 977.729C829.185 974.402 828.273 970.072 828.273 964.74V893.646ZM911.057 967.406V936.918C911.057 934.822 910.76 933.021 910.168 931.518C909.576 930.014 908.641 928.852 907.365 928.031C906.089 927.165 904.38 926.732 902.238 926.732C900.507 926.732 899.025 927.029 897.795 927.621C896.564 928.214 895.63 929.102 894.992 930.287C894.354 931.472 894.035 932.976 894.035 934.799H870.998C870.998 931.381 871.75 928.214 873.254 925.297C874.803 922.335 876.991 919.76 879.816 917.572C882.688 915.385 886.105 913.699 890.07 912.514C894.081 911.283 898.547 910.668 903.469 910.668C909.348 910.668 914.589 911.648 919.191 913.607C923.84 915.567 927.508 918.507 930.197 922.426C932.886 926.299 934.23 931.176 934.23 937.055V967.338C934.23 972.169 934.504 975.837 935.051 978.344C935.598 980.805 936.372 982.969 937.375 984.838V986H914.27C913.176 983.721 912.355 980.941 911.809 977.66C911.307 974.333 911.057 970.915 911.057 967.406ZM913.859 940.814L913.996 953.119H903.811C901.669 953.119 899.846 953.415 898.342 954.008C896.883 954.6 895.699 955.421 894.787 956.469C893.921 957.471 893.283 958.611 892.873 959.887C892.508 961.163 892.326 962.507 892.326 963.92C892.326 965.287 892.645 966.518 893.283 967.611C893.967 968.66 894.878 969.48 896.018 970.072C897.157 970.665 898.433 970.961 899.846 970.961C902.398 970.961 904.562 970.482 906.34 969.525C908.163 968.523 909.553 967.315 910.51 965.902C911.467 964.49 911.945 963.168 911.945 961.938L917.004 971.371C916.092 973.194 915.044 975.04 913.859 976.908C912.72 978.777 911.285 980.508 909.553 982.104C907.867 983.653 905.793 984.929 903.332 985.932C900.871 986.889 897.886 987.367 894.377 987.367C889.82 987.367 885.627 986.433 881.799 984.564C878.016 982.696 874.986 980.098 872.707 976.771C870.428 973.399 869.289 969.525 869.289 965.15C869.289 961.322 869.973 957.904 871.34 954.896C872.753 951.889 874.872 949.337 877.697 947.24C880.523 945.144 884.123 943.549 888.498 942.455C892.873 941.361 898.023 940.814 903.947 940.814H913.859ZM999.377 959.545C999.377 957.995 999.149 956.605 998.693 955.375C998.238 954.099 997.395 952.914 996.164 951.82C994.934 950.727 993.156 949.633 990.832 948.539C988.553 947.4 985.546 946.215 981.809 944.984C977.434 943.526 973.218 941.885 969.162 940.062C965.106 938.194 961.483 936.029 958.293 933.568C955.103 931.062 952.574 928.145 950.705 924.818C948.837 921.446 947.902 917.527 947.902 913.061C947.902 908.777 948.859 904.926 950.773 901.508C952.688 898.044 955.354 895.105 958.771 892.689C962.235 890.229 966.291 888.36 970.939 887.084C975.588 885.762 980.669 885.102 986.184 885.102C993.475 885.102 999.901 886.378 1005.46 888.93C1011.07 891.436 1015.44 895.014 1018.59 899.662C1021.78 904.265 1023.37 909.711 1023.37 916H999.514C999.514 913.493 998.99 911.283 997.941 909.369C996.939 907.455 995.412 905.951 993.361 904.857C991.311 903.764 988.736 903.217 985.637 903.217C982.629 903.217 980.1 903.673 978.049 904.584C975.998 905.495 974.449 906.726 973.4 908.275C972.352 909.779 971.828 911.443 971.828 913.266C971.828 914.77 972.238 916.137 973.059 917.367C973.924 918.552 975.132 919.669 976.682 920.717C978.277 921.765 980.191 922.768 982.424 923.725C984.702 924.682 987.255 925.616 990.08 926.527C995.367 928.214 1000.06 930.105 1004.16 932.201C1008.31 934.252 1011.8 936.599 1014.62 939.242C1017.49 941.84 1019.66 944.802 1021.12 948.129C1022.62 951.456 1023.37 955.215 1023.37 959.408C1023.37 963.874 1022.51 967.839 1020.77 971.303C1019.04 974.766 1016.56 977.706 1013.32 980.121C1010.09 982.491 1006.21 984.291 1001.7 985.521C997.189 986.752 992.154 987.367 986.594 987.367C981.49 987.367 976.454 986.729 971.486 985.453C966.564 984.132 962.098 982.126 958.088 979.438C954.077 976.703 950.865 973.217 948.449 968.979C946.079 964.695 944.895 959.613 944.895 953.734H968.957C968.957 956.651 969.344 959.112 970.119 961.117C970.894 963.122 972.033 964.74 973.537 965.971C975.041 967.156 976.887 968.021 979.074 968.568C981.262 969.07 983.768 969.32 986.594 969.32C989.647 969.32 992.108 968.887 993.977 968.021C995.845 967.11 997.212 965.925 998.078 964.467C998.944 962.963 999.377 961.322 999.377 959.545ZM1091.25 969.594L1119.01 991.605L1104.1 1004.18L1076.83 982.172L1091.25 969.594ZM1120.17 934.252V938.285C1120.17 945.896 1119.1 952.732 1116.96 958.793C1114.86 964.809 1111.85 969.958 1107.93 974.242C1104.06 978.48 1099.48 981.739 1094.19 984.018C1088.9 986.251 1083.07 987.367 1076.69 987.367C1070.27 987.367 1064.39 986.251 1059.05 984.018C1053.77 981.739 1049.17 978.48 1045.25 974.242C1041.37 969.958 1038.36 964.809 1036.22 958.793C1034.13 952.732 1033.08 945.896 1033.08 938.285V934.252C1033.08 926.641 1034.13 919.805 1036.22 913.744C1038.36 907.683 1041.35 902.533 1045.18 898.295C1049.05 894.011 1053.63 890.753 1058.92 888.52C1064.25 886.241 1070.13 885.102 1076.55 885.102C1082.93 885.102 1088.77 886.241 1094.05 888.52C1099.39 890.753 1103.99 894.011 1107.86 898.295C1111.78 902.533 1114.81 907.683 1116.96 913.744C1119.1 919.805 1120.17 926.641 1120.17 934.252ZM1095.76 938.285V934.115C1095.76 929.193 1095.33 924.864 1094.46 921.127C1093.64 917.344 1092.41 914.177 1090.77 911.625C1089.13 909.073 1087.1 907.159 1084.69 905.883C1082.32 904.561 1079.61 903.9 1076.55 903.9C1073.36 903.9 1070.58 904.561 1068.21 905.883C1065.85 907.159 1063.86 909.073 1062.27 911.625C1060.67 914.177 1059.46 917.344 1058.64 921.127C1057.87 924.864 1057.48 929.193 1057.48 934.115V938.285C1057.48 943.161 1057.87 947.491 1058.64 951.273C1059.46 955.01 1060.67 958.178 1062.27 960.775C1063.91 963.373 1065.91 965.333 1068.28 966.654C1070.7 967.976 1073.5 968.637 1076.69 968.637C1079.74 968.637 1082.46 967.976 1084.83 966.654C1087.2 965.333 1089.18 963.373 1090.77 960.775C1092.41 958.178 1093.64 955.01 1094.46 951.273C1095.33 947.491 1095.76 943.161 1095.76 938.285ZM1132.4 886.469H1171.57C1179.23 886.469 1185.88 887.608 1191.54 889.887C1197.19 892.165 1201.54 895.538 1204.59 900.004C1207.69 904.47 1209.24 909.984 1209.24 916.547C1209.24 922.243 1208.35 927.006 1206.57 930.834C1204.8 934.662 1202.31 937.829 1199.12 940.336C1195.98 942.797 1192.31 944.825 1188.12 946.42L1180.26 950.863H1147.38L1147.24 932.338H1171.57C1174.63 932.338 1177.16 931.791 1179.16 930.697C1181.17 929.604 1182.67 928.054 1183.67 926.049C1184.72 923.998 1185.25 921.56 1185.25 918.734C1185.25 915.863 1184.72 913.402 1183.67 911.352C1182.63 909.301 1181.08 907.729 1179.03 906.635C1177.02 905.541 1174.54 904.994 1171.57 904.994H1156.4V986H1132.4V886.469ZM1186.89 986L1164.88 941.977L1190.3 941.84L1212.59 984.975V986H1186.89ZM1289.49 967.543V986H1239.18V967.543H1289.49ZM1247.73 886.469V986H1223.73V886.469H1247.73Z" fill="#888888"/>
<path fill-rule="evenodd" clip-rule="evenodd" d="M1153.58 408C1119.02 408 1048.82 426.388 1036.54 474.069C1036.35 474.435 1035.98 475.761 1035.58 477.803C1013.35 464.212 987.216 456.309 959.285 456.309C930.115 456.309 903.003 464.927 880.166 479.617C879.695 476.634 879.119 474.54 878.892 474.069C866.61 426.388 796.406 408.052 761.828 408.035C756.332 408.035 751.779 408.506 748.447 409.378C729.901 411.96 709.594 419.375 711.077 423.423C724.685 421.102 731.559 423.754 731.349 425.952C730.931 430.07 722.731 431.169 725.365 446.015C730.337 438.81 737.264 436.333 742.707 435.181C748.29 470.231 772.714 531.415 818.424 534.59C822.349 534.869 826.013 534.852 829.467 534.782C818.685 555.229 812.562 578.52 812.562 603.241C812.562 684.314 878.282 778.263 959.285 778.263C1040.27 778.263 1106.08 684.314 1106.08 603.241C1106.08 578.537 1099.94 555.299 1089.16 534.869C1091.65 534.853 1094.28 534.782 1097.01 534.59C1142.56 531.433 1166.98 470.597 1172.67 435.513C1177.87 436.786 1184.08 439.403 1188.63 446.015C1191.27 431.169 1183.07 430.07 1182.65 425.952C1182.44 423.754 1189.31 421.102 1202.92 423.423C1204.34 419.584 1186.21 412.728 1168.52 409.814C1165.15 408.628 1159.99 408 1153.58 408V408Z" fill="url(#paint0_linear_604_257)" stroke="black" stroke-width="3" stroke-linejoin="round"/>
<path d="M954.167 591.469C954.167 604.196 949.116 616.401 940.125 625.4C931.134 634.399 918.94 639.455 906.224 639.455C893.509 639.455 881.315 634.399 872.324 625.4C863.333 616.401 858.281 604.196 858.281 591.469C858.281 578.742 863.333 566.537 872.324 557.538C881.315 548.539 893.509 543.483 906.224 543.483C918.94 543.483 931.134 548.539 940.125 557.538C949.116 566.537 954.167 578.742 954.167 591.469V591.469Z" fill="white" stroke="black" stroke-width="3.00002" stroke-linecap="round" stroke-linejoin="round"/>
<path d="M1060.35 591.469C1060.35 604.196 1055.29 616.401 1046.3 625.4C1037.31 634.399 1025.12 639.455 1012.4 639.455C999.687 639.455 987.493 634.399 978.502 625.4C969.511 616.401 964.46 604.196 964.46 591.469C964.46 578.742 969.511 566.537 978.502 557.538C987.493 548.539 999.687 543.483 1012.4 543.483C1025.12 543.483 1037.31 548.539 1046.3 557.538C1055.29 566.537 1060.35 578.742 1060.35 591.469V591.469Z" fill="white" stroke="black" stroke-width="3.00002" stroke-linecap="round" stroke-linejoin="round"/>
<path d="M939.314 597.299C939.316 599.335 938.917 601.352 938.139 603.234C937.362 605.116 936.222 606.826 934.784 608.267C933.345 609.707 931.638 610.85 929.758 611.63C927.879 612.41 925.864 612.811 923.829 612.811C921.794 612.811 919.78 612.41 917.9 611.63C916.021 610.85 914.313 609.707 912.875 608.267C911.437 606.826 910.296 605.116 909.519 603.234C908.741 601.352 908.342 599.335 908.344 597.299C908.342 595.262 908.741 593.245 909.519 591.363C910.296 589.481 911.437 587.771 912.875 586.33C914.313 584.89 916.021 583.747 917.9 582.967C919.78 582.187 921.794 581.786 923.829 581.786C925.864 581.786 927.879 582.187 929.758 582.967C931.638 583.747 933.345 584.89 934.784 586.33C936.222 587.771 937.362 589.481 938.139 591.363C938.917 593.245 939.316 595.262 939.314 597.299V597.299Z" fill="black"/>
<path d="M1010.15 597.299C1010.15 599.335 1009.75 601.352 1008.97 603.234C1008.19 605.116 1007.05 606.826 1005.62 608.267C1004.18 609.707 1002.47 610.85 1000.59 611.63C998.71 612.41 996.696 612.811 994.661 612.811C992.626 612.811 990.612 612.41 988.732 611.63C986.852 610.85 985.145 609.707 983.707 608.267C982.268 606.826 981.128 605.116 980.351 603.234C979.573 601.352 979.174 599.335 979.176 597.299C979.174 595.262 979.573 593.245 980.351 591.363C981.128 589.481 982.268 587.771 983.707 586.33C985.145 584.89 986.852 583.747 988.732 582.967C990.612 582.187 992.626 581.786 994.661 581.786C996.696 581.786 998.71 582.187 1000.59 582.967C1002.47 583.747 1004.18 584.89 1005.62 586.33C1007.05 587.771 1008.19 589.481 1008.97 591.363C1009.75 593.245 1010.15 595.262 1010.15 597.299Z" fill="black"/>
<path fill-rule="evenodd" clip-rule="evenodd" d="M934.529 683.529C942.345 675.173 975.545 673.358 982.488 684.559C989.432 695.777 972.073 719.015 958.5 717.968C944.996 716.922 927.201 691.328 934.529 683.529Z" fill="black"/>
<path fill-rule="evenodd" clip-rule="evenodd" d="M847.21 513.184C842.063 438.654 765.37 421.678 761.671 430.524C757.99 439.386 775.68 539.022 847.21 513.184Z" fill="#74401B" stroke="black" stroke-width="3" stroke-linejoin="round"/>
<path fill-rule="evenodd" clip-rule="evenodd" d="M1065.78 513.184C1070.92 438.654 1147.62 421.678 1151.32 430.524C1155 439.386 1137.29 539.022 1065.78 513.184Z" fill="url(#paint1_linear_604_257)" stroke="black" stroke-width="3" stroke-linejoin="round"/>
<path d="M1094.51 546.385C1097.18 557.446 1098.61 569.03 1098.61 580.894C1098.61 661.966 1032.82 755.88 951.818 755.88C892.78 755.88 841.924 705.966 818.65 647.503C836.672 715.003 892.815 778.298 959.285 778.298C1040.29 778.298 1106.08 684.315 1106.08 603.242C1106.08 583.074 1101.96 563.883 1094.58 546.385H1094.51Z" fill="black" fill-opacity="0.31373"/>
<path d="M715.243 617.243C717.586 614.899 717.586 611.101 715.243 608.757L677.059 570.574C674.716 568.23 670.917 568.23 668.574 570.574C666.23 572.917 666.23 576.716 668.574 579.059L702.515 613L668.574 646.941C666.23 649.284 666.23 653.083 668.574 655.426C670.917 657.77 674.716 657.77 677.059 655.426L715.243 617.243ZM498 619H711V607H498V619Z" fill="#D07839"/>
<path d="M1393.24 617.243C1395.59 614.899 1395.59 611.1 1393.24 608.757L1355.06 570.574C1352.72 568.23 1348.92 568.23 1346.57 570.574C1344.23 572.917 1344.23 576.716 1346.57 579.059L1380.51 613L1346.57 646.941C1344.23 649.284 1344.23 653.083 1346.57 655.426C1348.92 657.77 1352.72 657.77 1355.06 655.426L1393.24 617.243ZM1159 619L1389 619L1389 607L1159 607L1159 619Z" fill="#2FA4DA"/>
<path d="M713.103 376.619C716.206 375.458 717.781 372.001 716.619 368.897L697.695 318.322C696.533 315.219 693.076 313.644 689.972 314.805C686.869 315.967 685.294 319.424 686.456 322.528L703.278 367.483L658.322 384.305C655.219 385.467 653.644 388.924 654.805 392.028C655.967 395.131 659.424 396.706 662.528 395.544L713.103 376.619ZM495.513 279.46L708.513 376.46L713.487 365.54L500.487 268.54L495.513 279.46Z" fill="#D07839"/>
<path d="M713.103 793.381C716.206 794.542 717.781 797.999 716.619 801.103L697.695 851.678C696.533 854.781 693.076 856.356 689.972 855.195C686.869 854.033 685.294 850.576 686.456 847.472L703.278 802.517L658.322 785.695C655.219 784.533 653.644 781.076 654.805 777.972C655.967 774.869 659.424 773.294 662.528 774.456L713.103 793.381ZM495.513 890.54L708.513 793.54L713.487 804.46L500.487 901.46L495.513 890.54Z" fill="#D07839"/>
<rect x="1890.26" y="401.214" width="166.214" height="439.829" transform="rotate(-90 1890.26 401.214)" fill="#2FA4DA"/>
<path d="M2061.4 290.331L2038.04 358.114L2023.91 358.114L2053.35 279.911H2062.37L2061.4 290.331ZM2080.95 358.114L2057.53 290.331L2056.51 279.911H2065.59L2095.13 358.114H2080.95ZM2079.82 329.11L2079.82 339.799H2037.29L2037.29 329.11H2079.82ZM2133.59 328.949H2113.23L2113.23 318.261H2133.59C2137.13 318.261 2140 317.688 2142.18 316.542C2144.37 315.396 2145.96 313.821 2146.96 311.815C2148 309.774 2148.52 307.447 2148.52 304.833C2148.52 302.362 2148 300.053 2146.96 297.904C2145.96 295.72 2144.37 293.965 2142.18 292.641C2140 291.316 2137.13 290.653 2133.59 290.653H2117.37L2117.37 358.114H2103.89L2103.89 279.911H2133.59C2139.64 279.911 2144.78 280.985 2149 283.134C2153.27 285.246 2156.51 288.183 2158.73 291.942C2160.95 295.666 2162.06 299.927 2162.06 304.726C2162.06 309.774 2160.95 314.107 2158.73 317.724C2156.51 321.34 2153.27 324.115 2149 326.049C2144.78 327.982 2139.64 328.949 2133.59 328.949ZM2188.54 279.911L2188.54 358.114H2175.05L2175.05 279.911H2188.54Z" fill="white"/>
<rect x="1890.26" y="950.999" width="166.214" height="439.829" transform="rotate(-90 1890.26 950.999)" fill="#2FA4DA"/>
<path d="M2013.98 829.696L2013.98 907.899H2000.49L2000.49 829.696H2013.98ZM2045.88 863.91L2045.88 874.599H2010.54L2010.54 863.91H2045.88ZM2050.34 829.696L2050.34 840.438H2010.54L2010.54 829.696H2050.34ZM2073.65 825.399L2073.65 907.899H2060.65L2060.65 825.399H2073.65ZM2101.69 849.784L2101.69 907.899H2088.69L2088.69 849.784H2101.69ZM2087.83 834.53C2087.83 832.561 2088.47 830.932 2089.76 829.643C2091.09 828.318 2092.91 827.655 2095.24 827.655C2097.53 827.655 2099.34 828.318 2100.66 829.643C2101.99 830.932 2102.65 832.561 2102.65 834.53C2102.65 836.464 2101.99 838.075 2100.66 839.364C2099.34 840.653 2097.53 841.298 2095.24 841.298C2092.91 841.298 2091.09 840.653 2089.76 839.364C2088.47 838.075 2087.83 836.464 2087.83 834.53ZM2128.7 862.191L2128.7 907.899H2115.76L2115.76 849.784L2127.95 849.784L2128.7 862.191ZM2126.39 876.693L2122.2 876.64C2122.24 872.522 2122.81 868.744 2123.92 865.307C2125.07 861.869 2126.64 858.915 2128.65 856.444C2130.69 853.974 2133.12 852.076 2135.95 850.751C2138.78 849.39 2141.93 848.71 2145.41 848.71C2148.2 848.71 2150.72 849.104 2152.98 849.892C2155.27 850.644 2157.22 851.879 2158.83 853.598C2160.48 855.316 2161.73 857.554 2162.59 860.312C2163.45 863.033 2163.88 866.381 2163.88 870.355L2163.88 907.899H2150.88L2150.88 870.302C2150.88 867.509 2150.47 865.307 2149.65 863.695C2148.86 862.048 2147.7 860.884 2146.16 860.204C2144.65 859.488 2142.77 859.13 2140.52 859.13C2138.3 859.13 2136.31 859.595 2134.56 860.526C2132.8 861.457 2131.32 862.729 2130.1 864.34C2128.92 865.951 2128 867.813 2127.36 869.926C2126.71 872.038 2126.39 874.294 2126.39 876.693ZM2190.15 825.399L2190.15 907.899H2177.15L2177.15 825.399H2190.15ZM2226.24 849.784L2200.94 877.821L2187.09 892.001L2183.7 881.044L2194.18 868.1L2210.61 849.784H2226.24ZM2213.4 907.899L2194.55 880.614L2202.72 871.537L2228.39 907.899H2213.4Z" fill="white"/>
<rect x="2156.2" y="679.942" width="166.214" height="616.271" transform="rotate(-90 2156.2 679.942)" fill="#2FA4DA"/>
<path d="M2263.08 636.843H2246.38L2246.48 626.154H2263.08C2267.91 626.154 2271.96 625.098 2275.22 622.985C2278.51 620.873 2280.98 617.847 2282.63 613.908C2284.31 609.969 2285.16 605.279 2285.16 599.836L2285.16 595.593C2285.16 591.368 2284.67 587.626 2283.71 584.367C2282.77 581.109 2281.38 578.369 2279.52 576.149C2277.69 573.929 2275.43 572.246 2272.75 571.101C2270.1 569.955 2267.04 569.382 2263.56 569.382H2246.05L2246.05 558.64H2263.56C2268.76 558.64 2273.5 559.517 2277.8 561.271C2282.09 562.99 2285.8 565.479 2288.92 568.737C2292.07 571.996 2294.48 575.899 2296.17 580.446C2297.85 584.994 2298.69 590.078 2298.69 595.7L2298.69 599.836C2298.69 605.458 2297.85 610.542 2296.17 615.09C2294.48 619.637 2292.07 623.54 2288.92 626.799C2285.76 630.021 2282 632.51 2277.64 634.265C2273.3 635.983 2268.45 636.843 2263.08 636.843ZM2253.84 558.64L2253.84 636.843H2240.36L2240.36 558.64H2253.84ZM2343.7 625.188L2343.7 597.473C2343.7 595.396 2343.32 593.605 2342.57 592.102C2341.82 590.598 2340.67 589.434 2339.14 588.61C2337.63 587.787 2335.73 587.375 2333.44 587.375C2331.33 587.375 2329.5 587.733 2327.96 588.449C2326.42 589.165 2325.22 590.132 2324.36 591.35C2323.51 592.567 2323.08 593.946 2323.08 595.485H2310.19C2310.19 593.194 2310.74 590.974 2311.85 588.825C2312.96 586.677 2314.57 584.761 2316.68 583.078C2318.8 581.395 2321.32 580.07 2324.26 579.104C2327.19 578.137 2330.49 577.653 2334.14 577.653C2338.51 577.653 2342.38 578.387 2345.74 579.855C2349.14 581.324 2351.81 583.544 2353.74 586.516C2355.71 589.452 2356.7 593.14 2356.7 597.58L2356.7 623.415C2356.7 626.065 2356.88 628.446 2357.24 630.559C2357.63 632.635 2358.18 634.444 2358.9 635.983L2358.9 636.843H2345.63C2345.03 635.446 2344.54 633.674 2344.18 631.525C2343.86 629.341 2343.7 627.229 2343.7 625.188ZM2345.58 601.501L2345.69 609.504H2336.4C2334 609.504 2331.88 609.737 2330.06 610.202C2328.23 610.632 2326.71 611.276 2325.49 612.136C2324.28 612.995 2323.36 614.034 2322.75 615.251C2322.14 616.468 2321.84 617.847 2321.84 619.387C2321.84 620.926 2322.2 622.341 2322.91 623.63C2323.63 624.883 2324.67 625.868 2326.03 626.584C2327.43 627.3 2329.11 627.658 2331.08 627.658C2333.73 627.658 2336.04 627.121 2338.01 626.047C2340.01 624.937 2341.59 623.594 2342.73 622.019C2343.88 620.407 2344.49 618.885 2344.56 617.453L2348.75 623.2C2348.32 624.668 2347.59 626.244 2346.55 627.927C2345.51 629.61 2344.15 631.221 2342.47 632.761C2340.82 634.265 2338.83 635.5 2336.5 636.467C2334.21 637.434 2331.56 637.917 2328.55 637.917C2324.76 637.917 2321.37 637.165 2318.4 635.661C2315.43 634.121 2313.1 632.062 2311.42 629.484C2309.74 626.87 2308.9 623.916 2308.9 620.622C2308.9 617.543 2309.47 614.821 2310.61 612.458C2311.8 610.059 2313.52 608.054 2315.77 606.442C2318.06 604.831 2320.86 603.614 2324.15 602.79C2327.44 601.931 2331.2 601.501 2335.43 601.501H2345.58ZM2396.87 578.728L2396.87 588.181H2364.11L2364.11 578.728L2396.87 578.728ZM2373.56 564.494H2386.51L2386.51 620.783C2386.51 622.574 2386.76 623.952 2387.26 624.919C2387.8 625.85 2388.53 626.477 2389.46 626.799C2390.39 627.121 2391.49 627.282 2392.74 627.282C2393.63 627.282 2394.49 627.229 2395.32 627.121C2396.14 627.014 2396.8 626.906 2397.3 626.799L2397.36 636.682C2396.28 637.004 2395.03 637.29 2393.6 637.541C2392.2 637.792 2390.59 637.917 2388.76 637.917C2385.79 637.917 2383.16 637.398 2380.87 636.359C2378.58 635.285 2376.79 633.549 2375.5 631.149C2374.21 628.75 2373.56 625.563 2373.56 621.589L2373.56 564.494ZM2439.63 625.188L2439.63 597.473C2439.63 595.396 2439.25 593.605 2438.5 592.102C2437.75 590.598 2436.6 589.434 2435.06 588.61C2433.56 587.787 2431.66 587.375 2429.37 587.375C2427.26 587.375 2425.43 587.733 2423.89 588.449C2422.35 589.165 2421.15 590.132 2420.29 591.35C2419.43 592.567 2419 593.946 2419 595.485L2406.11 595.485C2406.11 593.194 2406.67 590.974 2407.78 588.825C2408.89 586.677 2410.5 584.761 2412.61 583.078C2414.72 581.395 2417.25 580.07 2420.19 579.104C2423.12 578.137 2426.42 577.653 2430.07 577.653C2434.44 577.653 2438.3 578.387 2441.67 579.855C2445.07 581.324 2447.74 583.544 2449.67 586.516C2451.64 589.452 2452.63 593.14 2452.63 597.58L2452.63 623.415C2452.63 626.065 2452.81 628.446 2453.16 630.559C2453.56 632.635 2454.11 634.444 2454.83 635.983L2454.83 636.843H2441.56C2440.95 635.446 2440.47 633.674 2440.11 631.525C2439.79 629.341 2439.63 627.229 2439.63 625.188ZM2441.51 601.501L2441.62 609.504H2432.32C2429.92 609.504 2427.81 609.737 2425.99 610.202C2424.16 610.632 2422.64 611.276 2421.42 612.136C2420.2 612.995 2419.29 614.034 2418.68 615.251C2418.07 616.468 2417.77 617.847 2417.77 619.387C2417.77 620.926 2418.13 622.341 2418.84 623.63C2419.56 624.883 2420.6 625.868 2421.96 626.584C2423.35 627.3 2425.04 627.658 2427.01 627.658C2429.66 627.658 2431.97 627.121 2433.94 626.047C2435.94 624.937 2437.52 623.594 2438.66 622.019C2439.81 620.407 2440.42 618.885 2440.49 617.453L2444.68 623.2C2444.25 624.668 2443.51 626.244 2442.48 627.927C2441.44 629.61 2440.08 631.221 2438.39 632.761C2436.75 634.265 2434.76 635.5 2432.43 636.467C2430.14 637.434 2427.49 637.917 2424.48 637.917C2420.69 637.917 2417.3 637.165 2414.33 635.661C2411.36 634.121 2409.03 632.063 2407.35 629.484C2405.67 626.87 2404.82 623.916 2404.82 620.622C2404.82 617.543 2405.4 614.821 2406.54 612.458C2407.72 610.059 2409.44 608.054 2411.7 606.442C2413.99 604.831 2416.78 603.614 2420.08 602.79C2423.37 601.931 2427.13 601.501 2431.36 601.501H2441.51ZM2466.22 554.343H2479.16L2479.16 624.436L2477.92 636.843H2466.22L2466.22 554.343ZM2517.08 607.248L2517.08 608.376C2517.08 612.673 2516.6 616.63 2515.63 620.246C2514.7 623.827 2513.27 626.942 2511.33 629.592C2509.43 632.242 2507.07 634.3 2504.24 635.769C2501.45 637.201 2498.21 637.917 2494.52 637.917C2490.9 637.917 2487.75 637.237 2485.07 635.876C2482.38 634.515 2480.13 632.582 2478.3 630.075C2476.51 627.569 2475.06 624.579 2473.95 621.105C2472.84 617.632 2472.05 613.801 2471.59 609.611L2471.59 606.013C2472.05 601.787 2472.84 597.956 2473.95 594.519C2475.06 591.045 2476.51 588.055 2478.3 585.549C2480.13 583.007 2482.36 581.055 2485.01 579.694C2487.7 578.334 2490.83 577.653 2494.41 577.653C2498.14 577.653 2501.41 578.369 2504.24 579.802C2507.11 581.234 2509.49 583.275 2511.39 585.925C2513.28 588.539 2514.7 591.654 2515.63 595.271C2516.6 598.887 2517.08 602.88 2517.08 607.248ZM2504.14 608.376L2504.14 607.248C2504.14 604.634 2503.92 602.181 2503.49 599.89C2503.06 597.562 2502.34 595.521 2501.34 593.767C2500.38 592.012 2499.05 590.633 2497.37 589.631C2495.72 588.592 2493.66 588.073 2491.19 588.073C2488.9 588.073 2486.93 588.467 2485.28 589.255C2483.64 590.043 2482.26 591.117 2481.15 592.478C2480.04 593.838 2479.16 595.414 2478.52 597.204C2477.91 598.994 2477.49 600.928 2477.28 603.005L2477.28 612.727C2477.6 615.412 2478.28 617.883 2479.32 620.139C2480.4 622.359 2481.9 624.149 2483.83 625.51C2485.77 626.835 2488.25 627.497 2491.3 627.497C2493.7 627.497 2495.72 627.014 2497.37 626.047C2499.01 625.08 2500.32 623.737 2501.29 622.019C2502.29 620.264 2503.01 618.223 2503.44 615.896C2503.9 613.568 2504.14 611.062 2504.14 608.376ZM2560.8 625.188L2560.8 597.473C2560.8 595.396 2560.42 593.605 2559.67 592.102C2558.92 590.598 2557.77 589.434 2556.23 588.61C2554.73 587.787 2552.83 587.375 2550.54 587.375C2548.43 587.375 2546.6 587.733 2545.06 588.449C2543.52 589.165 2542.32 590.132 2541.46 591.35C2540.6 592.567 2540.18 593.946 2540.18 595.485H2527.28C2527.28 593.194 2527.84 590.974 2528.95 588.825C2530.06 586.677 2531.67 584.761 2533.78 583.078C2535.9 581.395 2538.42 580.07 2541.36 579.104C2544.29 578.137 2547.59 577.653 2551.24 577.653C2555.61 577.653 2559.48 578.387 2562.84 579.855C2566.24 581.324 2568.91 583.544 2570.84 586.516C2572.81 589.452 2573.8 593.14 2573.8 597.58L2573.8 623.415C2573.8 626.065 2573.98 628.446 2574.34 630.559C2574.73 632.635 2575.28 634.444 2576 635.983L2576 636.843H2562.73C2562.13 635.446 2561.64 633.674 2561.28 631.525C2560.96 629.341 2560.8 627.229 2560.8 625.188ZM2562.68 601.501L2562.79 609.504H2553.5C2551.1 609.504 2548.98 609.737 2547.16 610.202C2545.33 610.632 2543.81 611.276 2542.59 612.136C2541.37 612.995 2540.46 614.034 2539.85 615.251C2539.24 616.468 2538.94 617.847 2538.94 619.387C2538.94 620.926 2539.3 622.341 2540.01 623.63C2540.73 624.883 2541.77 625.868 2543.13 626.584C2544.53 627.3 2546.21 627.658 2548.18 627.658C2550.83 627.658 2553.14 627.121 2555.11 626.047C2557.11 624.937 2558.69 623.594 2559.83 622.019C2560.98 620.407 2561.59 618.885 2561.66 617.453L2565.85 623.2C2565.42 624.668 2564.69 626.244 2563.65 627.927C2562.61 629.61 2561.25 631.221 2559.56 632.761C2557.92 634.265 2555.93 635.5 2553.6 636.467C2551.31 637.434 2548.66 637.917 2545.65 637.917C2541.86 637.917 2538.47 637.165 2535.5 635.661C2532.53 634.121 2530.2 632.063 2528.52 629.484C2526.84 626.87 2526 623.916 2526 620.622C2526 617.543 2526.57 614.821 2527.71 612.458C2528.9 610.059 2530.61 608.054 2532.87 606.442C2535.16 604.831 2537.96 603.614 2541.25 602.79C2544.54 601.931 2548.3 601.501 2552.53 601.501H2562.68ZM2619.94 621.105C2619.94 619.816 2619.61 618.653 2618.97 617.614C2618.32 616.54 2617.09 615.573 2615.26 614.714C2613.47 613.854 2610.82 613.067 2607.31 612.351C2604.23 611.67 2601.41 610.865 2598.83 609.934C2596.29 608.967 2594.1 607.803 2592.27 606.442C2590.45 605.082 2589.03 603.47 2588.03 601.608C2587.03 599.746 2586.53 597.598 2586.53 595.163C2586.53 592.8 2587.05 590.562 2588.09 588.449C2589.12 586.337 2590.61 584.475 2592.54 582.863C2594.48 581.252 2596.82 579.981 2599.58 579.05C2602.37 578.119 2605.49 577.653 2608.93 577.653C2613.8 577.653 2617.97 578.477 2621.44 580.124C2624.95 581.735 2627.63 583.938 2629.5 586.73C2631.36 589.488 2632.29 592.603 2632.29 596.076H2619.35C2619.35 594.536 2618.95 593.104 2618.16 591.779C2617.41 590.419 2616.27 589.326 2614.73 588.503C2613.19 587.644 2611.25 587.214 2608.93 587.214C2606.71 587.214 2604.86 587.572 2603.39 588.288C2601.96 588.968 2600.89 589.864 2600.17 590.974C2599.49 592.084 2599.15 593.301 2599.15 594.626C2599.15 595.593 2599.33 596.47 2599.69 597.258C2600.08 598.01 2600.73 598.708 2601.62 599.353C2602.52 599.961 2603.73 600.534 2605.27 601.071C2606.85 601.608 2608.82 602.128 2611.18 602.629C2615.62 603.56 2619.43 604.759 2622.62 606.228C2625.84 607.66 2628.31 609.522 2630.03 611.813C2631.75 614.069 2632.61 616.934 2632.61 620.407C2632.61 622.985 2632.06 625.349 2630.95 627.497C2629.87 629.61 2628.3 631.454 2626.22 633.029C2624.14 634.569 2621.65 635.769 2618.75 636.628C2615.89 637.487 2612.67 637.917 2609.09 637.917C2603.82 637.917 2599.36 636.986 2595.71 635.124C2592.06 633.226 2589.28 630.809 2587.39 627.873C2585.53 624.901 2584.59 621.822 2584.59 618.635H2597.11C2597.25 621.034 2597.91 622.95 2599.1 624.382C2600.31 625.778 2601.82 626.799 2603.61 627.443C2605.43 628.052 2607.31 628.356 2609.25 628.356C2611.58 628.356 2613.53 628.052 2615.1 627.443C2616.68 626.799 2617.88 625.939 2618.7 624.865C2619.52 623.755 2619.94 622.502 2619.94 621.105ZM2669.56 637.917C2665.27 637.917 2661.38 637.219 2657.91 635.822C2654.47 634.39 2651.54 632.403 2649.1 629.86C2646.7 627.318 2644.86 624.328 2643.57 620.891C2642.28 617.453 2641.64 613.747 2641.64 609.772L2641.64 607.624C2641.64 603.076 2642.3 598.959 2643.62 595.271C2644.95 591.582 2646.79 588.431 2649.15 585.817C2651.52 583.168 2654.31 581.145 2657.53 579.748C2660.76 578.352 2664.25 577.653 2668.01 577.653C2672.16 577.653 2675.8 578.352 2678.91 579.748C2682.03 581.145 2684.6 583.114 2686.65 585.656C2688.72 588.163 2690.26 591.153 2691.26 594.626C2692.3 598.099 2692.82 601.931 2692.82 606.12L2692.82 611.652H2647.92L2647.92 602.36H2680.04L2680.04 601.34C2679.97 599.012 2679.5 596.828 2678.64 594.787C2677.82 592.746 2676.55 591.099 2674.83 589.846C2673.11 588.592 2670.82 587.966 2667.95 587.966C2665.81 587.966 2663.89 588.431 2662.21 589.362C2660.56 590.257 2659.18 591.564 2658.07 593.283C2656.96 595.002 2656.1 597.079 2655.49 599.514C2654.92 601.913 2654.63 604.616 2654.63 607.624L2654.63 609.772C2654.63 612.315 2654.97 614.678 2655.65 616.862C2656.37 619.011 2657.41 620.891 2658.77 622.502C2660.13 624.113 2661.78 625.384 2663.71 626.315C2665.64 627.211 2667.85 627.658 2670.32 627.658C2673.43 627.658 2676.21 627.032 2678.64 625.778C2681.08 624.525 2683.19 622.753 2684.98 620.461L2691.8 627.067C2690.55 628.894 2688.92 630.648 2686.91 632.331C2684.91 633.978 2682.46 635.321 2679.56 636.359C2676.69 637.398 2673.36 637.917 2669.56 637.917Z" fill="white"/>
<rect x="1476" y="679.942" width="166.214" height="465.4" transform="rotate(-90 1476 679.942)" fill="#2FA4DA"/>
<path d="M1587.96 558.64L1587.96 636.843H1574.48L1574.48 558.64H1587.96ZM1634.95 558.64L1603.27 596.291L1585.22 615.412L1582.86 602.038L1595.75 586.14L1618.52 558.64H1634.95ZM1620.45 636.843L1594.73 599.782L1604.02 590.598L1636.46 636.843H1620.45ZM1675.45 625.188L1675.45 597.473C1675.45 595.396 1675.08 593.605 1674.33 592.102C1673.57 590.598 1672.43 589.434 1670.89 588.61C1669.38 587.787 1667.49 587.375 1665.19 587.375C1663.08 587.375 1661.26 587.733 1659.72 588.449C1658.18 589.165 1656.98 590.132 1656.12 591.35C1655.26 592.567 1654.83 593.946 1654.83 595.485H1641.94C1641.94 593.194 1642.49 590.974 1643.6 588.825C1644.71 586.677 1646.32 584.761 1648.44 583.078C1650.55 581.395 1653.07 580.07 1656.01 579.104C1658.95 578.137 1662.24 577.653 1665.89 577.653C1670.26 577.653 1674.13 578.387 1677.49 579.855C1680.9 581.324 1683.56 583.544 1685.5 586.516C1687.47 589.452 1688.45 593.14 1688.45 597.58L1688.45 623.415C1688.45 626.065 1688.63 628.446 1688.99 630.559C1689.38 632.635 1689.94 634.444 1690.65 635.983L1690.65 636.843H1677.39C1676.78 635.446 1676.29 633.674 1675.94 631.525C1675.61 629.341 1675.45 627.229 1675.45 625.188ZM1677.33 601.501L1677.44 609.504H1668.15C1665.75 609.504 1663.64 609.737 1661.81 610.202C1659.98 610.632 1658.46 611.276 1657.24 612.136C1656.03 612.995 1655.11 614.034 1654.51 615.251C1653.9 616.468 1653.59 617.847 1653.59 619.387C1653.59 620.926 1653.95 622.341 1654.67 623.63C1655.38 624.883 1656.42 625.868 1657.78 626.584C1659.18 627.3 1660.86 627.658 1662.83 627.658C1665.48 627.658 1667.79 627.121 1669.76 626.047C1671.76 624.937 1673.34 623.594 1674.49 622.019C1675.63 620.407 1676.24 618.885 1676.31 617.453L1680.5 623.2C1680.07 624.668 1679.34 626.244 1678.3 627.927C1677.26 629.61 1675.9 631.221 1674.22 632.761C1672.57 634.265 1670.58 635.5 1668.26 636.467C1665.96 637.434 1663.31 637.917 1660.31 637.917C1656.51 637.917 1653.13 637.165 1650.16 635.661C1647.18 634.121 1644.86 632.062 1643.17 629.484C1641.49 626.87 1640.65 623.916 1640.65 620.622C1640.65 617.543 1641.22 614.821 1642.37 612.458C1643.55 610.059 1645.27 608.054 1647.52 606.442C1649.81 604.831 1652.61 603.614 1655.9 602.79C1659.2 601.931 1662.96 601.501 1667.18 601.501H1677.33ZM1719.5 636.843H1706.55L1706.55 573.142C1706.55 568.809 1707.36 565.174 1708.97 562.238C1710.62 559.266 1712.96 557.028 1716 555.524C1719.05 553.985 1722.65 553.215 1726.8 553.215C1728.09 553.215 1729.36 553.304 1730.61 553.483C1731.87 553.627 1733.08 553.859 1734.27 554.182L1733.94 564.172C1733.23 563.993 1732.44 563.868 1731.58 563.796C1730.76 563.724 1729.86 563.688 1728.9 563.688C1726.93 563.688 1725.23 564.064 1723.79 564.816C1722.4 565.533 1721.32 566.589 1720.57 567.985C1719.85 569.382 1719.5 571.101 1719.5 573.142L1719.5 636.843ZM1731.47 578.728L1731.47 588.181L1697.64 588.181L1697.64 578.728L1731.47 578.728ZM1753.92 554.343L1753.92 636.843H1740.93L1740.93 554.343H1753.92ZM1790.02 578.728L1764.72 606.765L1750.86 620.944L1747.48 609.987L1757.95 597.043L1774.39 578.728H1790.02ZM1777.18 636.843L1758.33 609.558L1766.49 600.48L1792.17 636.843H1777.18ZM1831 625.188L1831 597.473C1831 595.396 1830.62 593.605 1829.87 592.102C1829.12 590.598 1827.97 589.434 1826.43 588.61C1824.93 587.787 1823.03 587.375 1820.74 587.375C1818.63 587.375 1816.8 587.733 1815.26 588.449C1813.72 589.165 1812.52 590.132 1811.66 591.35C1810.8 592.567 1810.37 593.946 1810.37 595.485H1797.48C1797.48 593.194 1798.04 590.974 1799.15 588.825C1800.26 586.677 1801.87 584.761 1803.98 583.078C1806.1 581.395 1808.62 580.07 1811.56 579.104C1814.49 578.137 1817.79 577.653 1821.44 577.653C1825.81 577.653 1829.67 578.387 1833.04 579.855C1836.44 581.324 1839.11 583.544 1841.04 586.516C1843.01 589.452 1844 593.14 1844 597.58L1844 623.415C1844 626.065 1844.18 628.446 1844.53 630.559C1844.93 632.635 1845.48 634.444 1846.2 635.983L1846.2 636.843H1832.93C1832.32 635.446 1831.84 633.674 1831.48 631.525C1831.16 629.341 1831 627.229 1831 625.188ZM1832.88 601.501L1832.99 609.504H1823.7C1821.3 609.504 1819.18 609.737 1817.36 610.202C1815.53 610.632 1814.01 611.276 1812.79 612.136C1811.57 612.995 1810.66 614.034 1810.05 615.251C1809.44 616.468 1809.14 617.847 1809.14 619.387C1809.14 620.926 1809.5 622.341 1810.21 623.63C1810.93 624.883 1811.97 625.868 1813.33 626.584C1814.73 627.3 1816.41 627.658 1818.38 627.658C1821.03 627.658 1823.34 627.121 1825.31 626.047C1827.31 624.937 1828.89 623.594 1830.03 622.019C1831.18 620.407 1831.79 618.885 1831.86 617.453L1836.05 623.2C1835.62 624.668 1834.88 626.244 1833.85 627.927C1832.81 629.61 1831.45 631.221 1829.76 632.761C1828.12 634.265 1826.13 635.5 1823.8 636.467C1821.51 637.434 1818.86 637.917 1815.85 637.917C1812.06 637.917 1808.67 637.165 1805.7 635.661C1802.73 634.121 1800.4 632.063 1798.72 629.484C1797.04 626.87 1796.2 623.916 1796.2 620.622C1796.2 617.543 1796.77 614.821 1797.91 612.458C1799.1 610.059 1800.81 608.054 1803.07 606.442C1805.36 604.831 1808.15 603.614 1811.45 602.79C1814.74 601.931 1818.5 601.501 1822.73 601.501H1832.88Z" fill="white"/>
<path d="M2597.31 687.614L2548.47 744.61L2622.25 758.404L2597.31 687.614ZM2327.53 876.95C2366.51 876.95 2422.06 870.207 2473.1 850.875C2524.06 831.577 2571.58 799.304 2592.58 747.556L2580.53 742.667C2561.48 789.628 2517.85 820.024 2468.5 838.718C2419.22 857.378 2365.29 863.95 2327.53 863.95V876.95Z" fill="#2FA4DA"/>
<path d="M1891.54 870.45L1823.93 903.045L1829.5 828.197L1891.54 870.45ZM1832.28 872.539C1785.38 865.844 1731.44 850.712 1689.04 821.824C1646.4 792.773 1615.26 749.621 1615.26 687.614H1628.26C1628.26 744.429 1656.46 783.902 1696.35 811.081C1736.49 838.422 1788.26 853.123 1834.11 859.669L1832.28 872.539Z" fill="#2FA4DA"/>
<path d="M1621.76 502.222L1670.59 445.226L1596.81 431.432L1621.76 502.222ZM1891.54 312.886C1852.56 312.886 1797.01 319.629 1745.96 338.961C1695.01 358.259 1647.49 390.532 1626.48 442.28L1638.53 447.169C1657.59 400.208 1701.21 369.812 1750.57 351.118C1799.84 332.458 1853.77 325.886 1891.54 325.886V312.886Z" fill="#2FA4DA"/>
<path d="M2330.09 314.271L2397.82 281.941L2391.95 356.767L2330.09 314.271ZM2389.37 312.417C2436.54 319.508 2490.85 335.582 2533.53 366.295C2576.46 397.186 2607.64 442.96 2607.64 508.614H2594.64C2594.64 447.832 2566.07 405.727 2525.94 376.847C2485.56 347.787 2433.49 332.195 2387.43 325.273L2389.37 312.417Z" fill="#2FA4DA"/>
<defs>
<linearGradient id="paint0_linear_604_257" x1="707.532" y1="593.131" x2="1206.47" y2="593.131" gradientUnits="userSpaceOnUse">
<stop stop-color="#D07839"/>
</linearGradient>
<linearGradient id="paint1_linear_604_257" x1="1175.81" y1="478.226" x2="1240.3" y2="478.226" gradientUnits="userSpaceOnUse">
<stop stop-color="#74401B"/>
</linearGradient>
</defs>
</svg>
