<svg width="1798" height="1600" viewBox="0 0 1798 1600" fill="none" xmlns="http://www.w3.org/2000/svg">
<g clip-path="url(#clip0_524_2)">
<rect x="90" y="4" width="458" height="356" fill="#D07839"/>
<path d="M236.004 139.104C236.004 137.997 235.841 137.004 235.516 136.125C235.19 135.214 234.588 134.367 233.709 133.586C232.83 132.805 231.561 132.023 229.9 131.242C228.273 130.428 226.124 129.582 223.455 128.703C220.33 127.661 217.319 126.49 214.422 125.188C211.525 123.853 208.937 122.307 206.658 120.549C204.38 118.758 202.573 116.675 201.238 114.299C199.904 111.89 199.236 109.09 199.236 105.9C199.236 102.84 199.92 100.09 201.287 97.6484C202.654 95.1745 204.559 93.0749 207 91.3496C209.474 89.5918 212.371 88.2572 215.691 87.3457C219.012 86.4017 222.641 85.9297 226.58 85.9297C231.788 85.9297 236.378 86.8411 240.35 88.6641C244.354 90.4544 247.479 93.0098 249.725 96.3301C252.003 99.6178 253.143 103.508 253.143 108H236.102C236.102 106.21 235.727 104.631 234.979 103.264C234.262 101.896 233.172 100.822 231.707 100.041C230.242 99.2598 228.403 98.8691 226.189 98.8691C224.041 98.8691 222.234 99.1947 220.77 99.8457C219.305 100.497 218.198 101.376 217.449 102.482C216.701 103.557 216.326 104.745 216.326 106.047C216.326 107.121 216.619 108.098 217.205 108.977C217.824 109.823 218.686 110.62 219.793 111.369C220.932 112.118 222.299 112.834 223.895 113.518C225.522 114.201 227.345 114.868 229.363 115.52C233.139 116.724 236.492 118.075 239.422 119.572C242.384 121.037 244.874 122.714 246.893 124.602C248.943 126.457 250.49 128.573 251.531 130.949C252.605 133.326 253.143 136.011 253.143 139.006C253.143 142.196 252.524 145.028 251.287 147.502C250.05 149.976 248.276 152.076 245.965 153.801C243.654 155.493 240.887 156.779 237.664 157.658C234.441 158.537 230.844 158.977 226.873 158.977C223.227 158.977 219.63 158.521 216.082 157.609C212.566 156.665 209.376 155.233 206.512 153.312C203.647 151.359 201.352 148.869 199.627 145.842C197.934 142.782 197.088 139.152 197.088 134.953H214.275C214.275 137.036 214.552 138.794 215.105 140.227C215.659 141.659 216.473 142.814 217.547 143.693C218.621 144.54 219.939 145.158 221.502 145.549C223.064 145.907 224.855 146.086 226.873 146.086C229.054 146.086 230.812 145.777 232.146 145.158C233.481 144.507 234.458 143.661 235.076 142.619C235.695 141.545 236.004 140.373 236.004 139.104ZM301.629 146.281L321.453 162.004L310.809 170.988L291.326 155.266L301.629 146.281ZM322.283 121.037V123.918C322.283 129.354 321.518 134.237 319.988 138.566C318.491 142.863 316.342 146.542 313.543 149.602C310.776 152.629 307.505 154.956 303.729 156.584C299.952 158.179 295.786 158.977 291.229 158.977C286.639 158.977 282.439 158.179 278.631 156.584C274.855 154.956 271.567 152.629 268.768 149.602C266.001 146.542 263.852 142.863 262.322 138.566C260.825 134.237 260.076 129.354 260.076 123.918V121.037C260.076 115.601 260.825 110.718 262.322 106.389C263.852 102.059 265.984 98.3809 268.719 95.3535C271.486 92.2936 274.757 89.9661 278.533 88.3711C282.342 86.7435 286.541 85.9297 291.131 85.9297C295.688 85.9297 299.855 86.7435 303.631 88.3711C307.439 89.9661 310.727 92.2936 313.494 95.3535C316.294 98.3809 318.458 102.059 319.988 106.389C321.518 110.718 322.283 115.601 322.283 121.037ZM304.852 123.918V120.939C304.852 117.424 304.542 114.331 303.924 111.662C303.338 108.96 302.459 106.698 301.287 104.875C300.115 103.052 298.667 101.685 296.941 100.773C295.249 99.8294 293.312 99.3574 291.131 99.3574C288.852 99.3574 286.867 99.8294 285.174 100.773C283.481 101.685 282.065 103.052 280.926 104.875C279.786 106.698 278.924 108.96 278.338 111.662C277.785 114.331 277.508 117.424 277.508 120.939V123.918C277.508 127.401 277.785 130.493 278.338 133.195C278.924 135.865 279.786 138.127 280.926 139.982C282.098 141.838 283.53 143.238 285.223 144.182C286.948 145.126 288.95 145.598 291.229 145.598C293.41 145.598 295.346 145.126 297.039 144.182C298.732 143.238 300.148 141.838 301.287 139.982C302.459 138.127 303.338 135.865 303.924 133.195C304.542 130.493 304.852 127.401 304.852 123.918ZM331.023 86.9062H359.002C364.471 86.9062 369.223 87.7201 373.26 89.3477C377.296 90.9753 380.405 93.3841 382.586 96.5742C384.799 99.7643 385.906 103.703 385.906 108.391C385.906 112.46 385.271 115.861 384.002 118.596C382.732 121.33 380.958 123.592 378.68 125.383C376.434 127.141 373.813 128.589 370.818 129.729L365.203 132.902H341.717L341.619 119.67H359.002C361.183 119.67 362.99 119.279 364.422 118.498C365.854 117.717 366.928 116.61 367.645 115.178C368.393 113.713 368.768 111.971 368.768 109.953C368.768 107.902 368.393 106.145 367.645 104.68C366.896 103.215 365.789 102.092 364.324 101.311C362.892 100.529 361.118 100.139 359.002 100.139H348.162V158H331.023V86.9062ZM369.939 158L354.217 126.555L372.381 126.457L388.299 157.268V158H369.939ZM443.23 144.816V158H407.293V144.816H443.23ZM413.396 86.9062V158H396.258V86.9062H413.396ZM200.506 256.104C200.506 254.997 200.343 254.004 200.018 253.125C199.692 252.214 199.09 251.367 198.211 250.586C197.332 249.805 196.062 249.023 194.402 248.242C192.775 247.428 190.626 246.582 187.957 245.703C184.832 244.661 181.821 243.49 178.924 242.188C176.027 240.853 173.439 239.307 171.16 237.549C168.882 235.758 167.075 233.675 165.74 231.299C164.406 228.89 163.738 226.09 163.738 222.9C163.738 219.84 164.422 217.09 165.789 214.648C167.156 212.174 169.061 210.075 171.502 208.35C173.976 206.592 176.873 205.257 180.193 204.346C183.514 203.402 187.143 202.93 191.082 202.93C196.29 202.93 200.88 203.841 204.852 205.664C208.855 207.454 211.98 210.01 214.227 213.33C216.505 216.618 217.645 220.508 217.645 225H200.604C200.604 223.21 200.229 221.631 199.48 220.264C198.764 218.896 197.674 217.822 196.209 217.041C194.744 216.26 192.905 215.869 190.691 215.869C188.543 215.869 186.736 216.195 185.271 216.846C183.807 217.497 182.7 218.376 181.951 219.482C181.202 220.557 180.828 221.745 180.828 223.047C180.828 224.121 181.121 225.098 181.707 225.977C182.326 226.823 183.188 227.62 184.295 228.369C185.434 229.118 186.801 229.834 188.396 230.518C190.024 231.201 191.847 231.868 193.865 232.52C197.641 233.724 200.994 235.075 203.924 236.572C206.886 238.037 209.376 239.714 211.395 241.602C213.445 243.457 214.992 245.573 216.033 247.949C217.107 250.326 217.645 253.011 217.645 256.006C217.645 259.196 217.026 262.028 215.789 264.502C214.552 266.976 212.778 269.076 210.467 270.801C208.156 272.493 205.389 273.779 202.166 274.658C198.943 275.537 195.346 275.977 191.375 275.977C187.729 275.977 184.132 275.521 180.584 274.609C177.068 273.665 173.878 272.233 171.014 270.312C168.149 268.359 165.854 265.869 164.129 262.842C162.436 259.782 161.59 256.152 161.59 251.953H178.777C178.777 254.036 179.054 255.794 179.607 257.227C180.161 258.659 180.975 259.814 182.049 260.693C183.123 261.54 184.441 262.158 186.004 262.549C187.566 262.907 189.357 263.086 191.375 263.086C193.556 263.086 195.314 262.777 196.648 262.158C197.983 261.507 198.96 260.661 199.578 259.619C200.197 258.545 200.506 257.373 200.506 256.104ZM248.016 263.281C249.546 263.281 250.848 263.005 251.922 262.451C253.029 261.865 253.859 261.051 254.412 260.01C254.998 258.936 255.275 257.65 255.242 256.152H270.721C270.753 260.124 269.777 263.607 267.791 266.602C265.838 269.564 263.169 271.875 259.783 273.535C256.43 275.163 252.638 275.977 248.406 275.977C244.272 275.977 240.659 275.309 237.566 273.975C234.474 272.607 231.886 270.719 229.803 268.311C227.752 265.869 226.206 263.021 225.164 259.766C224.155 256.51 223.65 252.979 223.65 249.17V248.047C223.65 244.238 224.155 240.706 225.164 237.451C226.206 234.163 227.752 231.315 229.803 228.906C231.886 226.465 234.458 224.577 237.518 223.242C240.61 221.875 244.207 221.191 248.309 221.191C252.703 221.191 256.577 222.021 259.93 223.682C263.315 225.342 265.968 227.751 267.889 230.908C269.809 234.066 270.753 237.891 270.721 242.383H255.242C255.275 240.788 255.031 239.355 254.51 238.086C253.989 236.816 253.175 235.807 252.068 235.059C250.994 234.277 249.611 233.887 247.918 233.887C246.225 233.887 244.858 234.261 243.816 235.01C242.775 235.758 241.977 236.8 241.424 238.135C240.903 239.437 240.545 240.934 240.35 242.627C240.187 244.32 240.105 246.126 240.105 248.047V249.17C240.105 251.123 240.187 252.962 240.35 254.688C240.545 256.38 240.919 257.878 241.473 259.18C242.026 260.449 242.824 261.458 243.865 262.207C244.907 262.923 246.29 263.281 248.016 263.281ZM294.354 235.254V275H277.898V222.168H293.279L294.354 235.254ZM309.979 221.777L309.686 237.061C309.035 236.995 308.156 236.914 307.049 236.816C305.942 236.719 305.014 236.67 304.266 236.67C302.345 236.67 300.685 236.898 299.285 237.354C297.918 237.777 296.779 238.428 295.867 239.307C294.988 240.153 294.337 241.227 293.914 242.529C293.523 243.831 293.344 245.345 293.377 247.07L290.398 245.117C290.398 241.569 290.74 238.346 291.424 235.449C292.14 232.52 293.149 229.997 294.451 227.881C295.753 225.732 297.332 224.089 299.188 222.949C301.043 221.777 303.126 221.191 305.438 221.191C306.251 221.191 307.049 221.24 307.83 221.338C308.644 221.436 309.36 221.582 309.979 221.777ZM333.025 222.168V275H316.521V222.168H333.025ZM315.545 208.545C315.545 206.201 316.391 204.281 318.084 202.783C319.777 201.286 321.974 200.537 324.676 200.537C327.378 200.537 329.575 201.286 331.268 202.783C332.96 204.281 333.807 206.201 333.807 208.545C333.807 210.889 332.96 212.809 331.268 214.307C329.575 215.804 327.378 216.553 324.676 216.553C321.974 216.553 319.777 215.804 318.084 214.307C316.391 212.809 315.545 210.889 315.545 208.545ZM359.783 232.324V295.312H343.328V222.168H358.66L359.783 232.324ZM392.205 247.949V248.975C392.205 252.816 391.766 256.38 390.887 259.668C390.008 262.956 388.706 265.82 386.98 268.262C385.255 270.703 383.107 272.607 380.535 273.975C377.996 275.309 375.05 275.977 371.697 275.977C368.54 275.977 365.822 275.277 363.543 273.877C361.264 272.477 359.36 270.54 357.83 268.066C356.3 265.592 355.063 262.76 354.119 259.57C353.175 256.38 352.426 253.011 351.873 249.463V248.145C352.426 244.336 353.175 240.804 354.119 237.549C355.063 234.261 356.3 231.396 357.83 228.955C359.36 226.514 361.248 224.609 363.494 223.242C365.773 221.875 368.491 221.191 371.648 221.191C375.001 221.191 377.947 221.826 380.486 223.096C383.058 224.365 385.206 226.188 386.932 228.564C388.689 230.908 390.008 233.724 390.887 237.012C391.766 240.299 392.205 243.945 392.205 247.949ZM375.75 248.975V247.949C375.75 245.898 375.604 244.027 375.311 242.334C375.018 240.609 374.546 239.111 373.895 237.842C373.276 236.572 372.446 235.596 371.404 234.912C370.363 234.229 369.077 233.887 367.547 233.887C365.789 233.887 364.308 234.163 363.104 234.717C361.932 235.238 360.988 236.051 360.271 237.158C359.588 238.232 359.1 239.583 358.807 241.211C358.546 242.806 358.432 244.678 358.465 246.826V250.83C358.4 253.304 358.644 255.485 359.197 257.373C359.751 259.229 360.711 260.677 362.078 261.719C363.445 262.76 365.301 263.281 367.645 263.281C369.207 263.281 370.509 262.923 371.551 262.207C372.592 261.458 373.423 260.433 374.041 259.131C374.66 257.796 375.099 256.266 375.359 254.541C375.62 252.816 375.75 250.96 375.75 248.975ZM427.361 222.168V233.594H395.525V222.168H427.361ZM402.215 209.033H418.67V257.764C418.67 259.163 418.833 260.254 419.158 261.035C419.484 261.784 420.037 262.321 420.818 262.646C421.632 262.939 422.706 263.086 424.041 263.086C424.985 263.086 425.766 263.07 426.385 263.037C427.003 262.972 427.589 262.891 428.143 262.793V274.561C426.743 275.016 425.278 275.358 423.748 275.586C422.218 275.846 420.59 275.977 418.865 275.977C415.35 275.977 412.339 275.423 409.832 274.316C407.358 273.21 405.47 271.468 404.168 269.092C402.866 266.715 402.215 263.623 402.215 259.814V209.033ZM461.59 260.156C461.59 259.245 461.281 258.464 460.662 257.812C460.076 257.129 459.035 256.51 457.537 255.957C456.04 255.371 453.94 254.785 451.238 254.199C448.667 253.646 446.242 252.913 443.963 252.002C441.717 251.09 439.747 249.984 438.055 248.682C436.362 247.38 435.027 245.833 434.051 244.043C433.107 242.253 432.635 240.202 432.635 237.891C432.635 235.645 433.107 233.529 434.051 231.543C435.027 229.525 436.443 227.751 438.299 226.221C440.187 224.658 442.482 223.438 445.184 222.559C447.885 221.647 450.962 221.191 454.412 221.191C459.165 221.191 463.266 221.924 466.717 223.389C470.167 224.821 472.82 226.839 474.676 229.443C476.564 232.015 477.508 234.993 477.508 238.379H461.053C461.053 237.044 460.825 235.905 460.369 234.961C459.946 234.017 459.246 233.301 458.27 232.812C457.293 232.292 455.991 232.031 454.363 232.031C453.224 232.031 452.182 232.243 451.238 232.666C450.327 233.089 449.594 233.675 449.041 234.424C448.488 235.173 448.211 236.051 448.211 237.061C448.211 237.777 448.374 238.428 448.699 239.014C449.057 239.567 449.594 240.088 450.311 240.576C451.027 241.032 451.938 241.455 453.045 241.846C454.152 242.204 455.486 242.529 457.049 242.822C460.597 243.473 463.917 244.401 467.01 245.605C470.102 246.81 472.609 248.519 474.529 250.732C476.482 252.946 477.459 255.924 477.459 259.668C477.459 262.012 476.922 264.176 475.848 266.162C474.773 268.115 473.227 269.84 471.209 271.338C469.191 272.803 466.766 273.942 463.934 274.756C461.102 275.57 457.911 275.977 454.363 275.977C449.318 275.977 445.053 275.081 441.57 273.291C438.087 271.468 435.451 269.189 433.66 266.455C431.902 263.688 431.023 260.889 431.023 258.057H446.355C446.421 259.684 446.811 261.019 447.527 262.061C448.276 263.102 449.269 263.867 450.506 264.355C451.743 264.844 453.175 265.088 454.803 265.088C456.3 265.088 457.537 264.876 458.514 264.453C459.523 264.03 460.288 263.46 460.809 262.744C461.329 261.995 461.59 261.133 461.59 260.156Z" fill="white"/>
<rect x="680" y="4" width="458" height="356" fill="#D07839"/>
<path d="M747.965 133.879H730.289V120.646H747.965C750.374 120.646 752.327 120.24 753.824 119.426C755.322 118.612 756.412 117.489 757.096 116.057C757.812 114.592 758.17 112.948 758.17 111.125C758.17 109.172 757.812 107.365 757.096 105.705C756.412 104.045 755.322 102.71 753.824 101.701C752.327 100.66 750.374 100.139 747.965 100.139H736.734V158H719.596V86.9062H747.965C753.661 86.9062 758.561 87.9479 762.662 90.0312C766.796 92.1146 769.97 94.9792 772.184 98.625C774.397 102.238 775.504 106.372 775.504 111.027C775.504 115.617 774.397 119.621 772.184 123.039C769.97 126.457 766.796 129.126 762.662 131.047C758.561 132.935 753.661 133.879 747.965 133.879ZM810.807 144.719V122.941C810.807 121.444 810.595 120.158 810.172 119.084C809.749 118.01 809.081 117.18 808.17 116.594C807.258 115.975 806.038 115.666 804.508 115.666C803.271 115.666 802.213 115.878 801.334 116.301C800.455 116.724 799.788 117.359 799.332 118.205C798.876 119.051 798.648 120.126 798.648 121.428H782.193C782.193 118.986 782.73 116.724 783.805 114.641C784.911 112.525 786.474 110.686 788.492 109.123C790.543 107.561 792.984 106.356 795.816 105.51C798.681 104.631 801.871 104.191 805.387 104.191C809.586 104.191 813.329 104.891 816.617 106.291C819.938 107.691 822.558 109.79 824.479 112.59C826.399 115.357 827.359 118.84 827.359 123.039V144.67C827.359 148.12 827.555 150.741 827.945 152.531C828.336 154.289 828.889 155.835 829.605 157.17V158H813.102C812.32 156.372 811.734 154.387 811.344 152.043C810.986 149.667 810.807 147.225 810.807 144.719ZM812.809 125.725L812.906 134.514H805.631C804.101 134.514 802.799 134.725 801.725 135.148C800.683 135.572 799.837 136.158 799.186 136.906C798.567 137.622 798.111 138.436 797.818 139.348C797.558 140.259 797.428 141.219 797.428 142.229C797.428 143.205 797.656 144.084 798.111 144.865C798.6 145.614 799.251 146.2 800.064 146.623C800.878 147.046 801.79 147.258 802.799 147.258C804.622 147.258 806.168 146.916 807.438 146.232C808.74 145.516 809.732 144.654 810.416 143.645C811.1 142.635 811.441 141.691 811.441 140.812L815.055 147.551C814.404 148.853 813.655 150.171 812.809 151.506C811.995 152.84 810.969 154.077 809.732 155.217C808.528 156.324 807.047 157.235 805.289 157.951C803.531 158.635 801.399 158.977 798.893 158.977C795.637 158.977 792.643 158.309 789.908 156.975C787.206 155.64 785.042 153.785 783.414 151.408C781.786 148.999 780.973 146.232 780.973 143.107C780.973 140.373 781.461 137.932 782.438 135.783C783.447 133.635 784.96 131.812 786.979 130.314C788.997 128.817 791.568 127.678 794.693 126.896C797.818 126.115 801.497 125.725 805.729 125.725H812.809ZM858.805 146.281C860.335 146.281 861.637 146.005 862.711 145.451C863.818 144.865 864.648 144.051 865.201 143.01C865.787 141.936 866.064 140.65 866.031 139.152H881.51C881.542 143.124 880.566 146.607 878.58 149.602C876.627 152.564 873.958 154.875 870.572 156.535C867.219 158.163 863.427 158.977 859.195 158.977C855.061 158.977 851.448 158.309 848.355 156.975C845.263 155.607 842.675 153.719 840.592 151.311C838.541 148.869 836.995 146.021 835.953 142.766C834.944 139.51 834.439 135.979 834.439 132.17V131.047C834.439 127.238 834.944 123.706 835.953 120.451C836.995 117.163 838.541 114.315 840.592 111.906C842.675 109.465 845.247 107.577 848.307 106.242C851.399 104.875 854.996 104.191 859.098 104.191C863.492 104.191 867.366 105.021 870.719 106.682C874.104 108.342 876.757 110.751 878.678 113.908C880.598 117.066 881.542 120.891 881.51 125.383H866.031C866.064 123.788 865.82 122.355 865.299 121.086C864.778 119.816 863.964 118.807 862.857 118.059C861.783 117.277 860.4 116.887 858.707 116.887C857.014 116.887 855.647 117.261 854.605 118.01C853.564 118.758 852.766 119.8 852.213 121.135C851.692 122.437 851.334 123.934 851.139 125.627C850.976 127.32 850.895 129.126 850.895 131.047V132.17C850.895 134.123 850.976 135.962 851.139 137.688C851.334 139.38 851.708 140.878 852.262 142.18C852.815 143.449 853.613 144.458 854.654 145.207C855.696 145.923 857.079 146.281 858.805 146.281ZM905.143 82.9512V158H888.688V82.9512H905.143ZM938.932 105.168L915.982 132.072L903.971 144.084L896.793 133.635L906.803 120.598L919.205 105.168H938.932ZM921.305 158L907.193 133.928L919.352 125.285L940.152 158H921.305ZM970.67 144.719V122.941C970.67 121.444 970.458 120.158 970.035 119.084C969.612 118.01 968.945 117.18 968.033 116.594C967.122 115.975 965.901 115.666 964.371 115.666C963.134 115.666 962.076 115.878 961.197 116.301C960.318 116.724 959.651 117.359 959.195 118.205C958.74 119.051 958.512 120.126 958.512 121.428H942.057C942.057 118.986 942.594 116.724 943.668 114.641C944.775 112.525 946.337 110.686 948.355 109.123C950.406 107.561 952.848 106.356 955.68 105.51C958.544 104.631 961.734 104.191 965.25 104.191C969.449 104.191 973.193 104.891 976.48 106.291C979.801 107.691 982.421 109.79 984.342 112.59C986.262 115.357 987.223 118.84 987.223 123.039V144.67C987.223 148.12 987.418 150.741 987.809 152.531C988.199 154.289 988.753 155.835 989.469 157.17V158H972.965C972.184 156.372 971.598 154.387 971.207 152.043C970.849 149.667 970.67 147.225 970.67 144.719ZM972.672 125.725L972.77 134.514H965.494C963.964 134.514 962.662 134.725 961.588 135.148C960.546 135.572 959.7 136.158 959.049 136.906C958.43 137.622 957.975 138.436 957.682 139.348C957.421 140.259 957.291 141.219 957.291 142.229C957.291 143.205 957.519 144.084 957.975 144.865C958.463 145.614 959.114 146.2 959.928 146.623C960.742 147.046 961.653 147.258 962.662 147.258C964.485 147.258 966.031 146.916 967.301 146.232C968.603 145.516 969.596 144.654 970.279 143.645C970.963 142.635 971.305 141.691 971.305 140.812L974.918 147.551C974.267 148.853 973.518 150.171 972.672 151.506C971.858 152.84 970.833 154.077 969.596 155.217C968.391 156.324 966.91 157.235 965.152 157.951C963.395 158.635 961.262 158.977 958.756 158.977C955.501 158.977 952.506 158.309 949.771 156.975C947.07 155.64 944.905 153.785 943.277 151.408C941.65 148.999 940.836 146.232 940.836 143.107C940.836 140.373 941.324 137.932 942.301 135.783C943.31 133.635 944.824 131.812 946.842 130.314C948.86 128.817 951.432 127.678 954.557 126.896C957.682 126.115 961.36 125.725 965.592 125.725H972.672ZM1029.56 105.168H1044.5V155.949C1044.5 160.832 1043.38 164.966 1041.13 168.352C1038.88 171.77 1035.74 174.357 1031.71 176.115C1027.7 177.906 1023.01 178.801 1017.64 178.801C1015.27 178.801 1012.84 178.492 1010.37 177.873C1007.89 177.287 1005.58 176.408 1003.43 175.236C1001.29 174.064 999.479 172.616 998.014 170.891L1004.9 161.223C1006.23 162.72 1007.91 163.99 1009.93 165.031C1011.95 166.105 1014.32 166.643 1017.06 166.643C1019.43 166.643 1021.42 166.219 1023.01 165.373C1024.64 164.527 1025.88 163.29 1026.72 161.662C1027.57 160.067 1027.99 158.13 1027.99 155.852V117.668L1029.56 105.168ZM994.449 132.219V131.193C994.449 127.189 994.938 123.544 995.914 120.256C996.923 116.936 998.355 114.087 1000.21 111.711C1002.1 109.302 1004.38 107.447 1007.05 106.145C1009.72 104.842 1012.73 104.191 1016.08 104.191C1019.69 104.191 1022.66 104.891 1024.97 106.291C1027.31 107.658 1029.18 109.579 1030.58 112.053C1032.01 114.527 1033.12 117.424 1033.9 120.744C1034.72 124.032 1035.4 127.58 1035.95 131.389V132.609C1035.4 136.19 1034.63 139.576 1033.66 142.766C1032.71 145.923 1031.48 148.723 1029.95 151.164C1028.42 153.605 1026.5 155.526 1024.19 156.926C1021.91 158.293 1019.17 158.977 1015.98 158.977C1012.66 158.977 1009.67 158.309 1007 156.975C1004.36 155.64 1002.1 153.768 1000.21 151.359C998.355 148.951 996.923 146.118 995.914 142.863C994.938 139.608 994.449 136.06 994.449 132.219ZM1010.9 131.193V132.219C1010.9 134.204 1011.08 136.044 1011.44 137.736C1011.83 139.429 1012.42 140.926 1013.2 142.229C1013.98 143.498 1014.94 144.491 1016.08 145.207C1017.25 145.923 1018.62 146.281 1020.18 146.281C1022.56 146.281 1024.48 145.777 1025.94 144.768C1027.41 143.758 1028.47 142.326 1029.12 140.471C1029.77 138.615 1030.04 136.434 1029.95 133.928V130.07C1030.01 127.922 1029.87 126.034 1029.51 124.406C1029.15 122.746 1028.58 121.363 1027.8 120.256C1027.05 119.149 1026.04 118.319 1024.77 117.766C1023.53 117.18 1022.04 116.887 1020.28 116.887C1018.75 116.887 1017.4 117.245 1016.23 117.961C1015.05 118.677 1014.08 119.686 1013.3 120.988C1012.52 122.258 1011.91 123.771 1011.49 125.529C1011.1 127.255 1010.9 129.143 1010.9 131.193ZM1079.56 158.977C1075.26 158.977 1071.42 158.309 1068.03 156.975C1064.65 155.607 1061.78 153.736 1059.44 151.359C1057.13 148.983 1055.35 146.249 1054.12 143.156C1052.91 140.064 1052.31 136.792 1052.31 133.342V131.486C1052.31 127.613 1052.85 124.032 1053.92 120.744C1055 117.424 1056.59 114.527 1058.71 112.053C1060.82 109.579 1063.48 107.658 1066.67 106.291C1069.86 104.891 1073.57 104.191 1077.8 104.191C1081.54 104.191 1084.9 104.794 1087.86 105.998C1090.82 107.202 1093.33 108.928 1095.38 111.174C1097.46 113.42 1099.04 116.138 1100.11 119.328C1101.22 122.518 1101.77 126.099 1101.77 130.07V136.76H1058.61V126.457H1085.71V125.188C1085.74 123.43 1085.43 121.932 1084.78 120.695C1084.16 119.458 1083.25 118.514 1082.05 117.863C1080.84 117.212 1079.38 116.887 1077.65 116.887C1075.86 116.887 1074.38 117.277 1073.21 118.059C1072.07 118.84 1071.17 119.914 1070.52 121.281C1069.9 122.616 1069.47 124.162 1069.21 125.92C1068.94 127.678 1068.81 129.533 1068.81 131.486V133.342C1068.81 135.295 1069.07 137.069 1069.6 138.664C1070.15 140.259 1070.93 141.626 1071.94 142.766C1072.98 143.872 1074.22 144.735 1075.65 145.354C1077.12 145.972 1078.78 146.281 1080.63 146.281C1082.88 146.281 1085.09 145.858 1087.27 145.012C1089.45 144.165 1091.32 142.766 1092.89 140.812L1100.36 149.699C1099.28 151.229 1097.75 152.71 1095.77 154.143C1093.81 155.575 1091.47 156.747 1088.74 157.658C1086 158.537 1082.94 158.977 1079.56 158.977ZM805.045 250.928H822.135C821.907 255.876 820.572 260.238 818.131 264.014C815.689 267.79 812.304 270.736 807.975 272.852C803.678 274.935 798.6 275.977 792.74 275.977C787.988 275.977 783.74 275.179 779.996 273.584C776.285 271.989 773.128 269.694 770.523 266.699C767.952 263.704 765.982 260.075 764.615 255.811C763.281 251.546 762.613 246.745 762.613 241.406V237.549C762.613 232.21 763.313 227.409 764.713 223.145C766.145 218.848 768.163 215.202 770.768 212.207C773.404 209.18 776.562 206.868 780.24 205.273C783.919 203.678 788.004 202.881 792.496 202.881C798.681 202.881 803.906 203.988 808.17 206.201C812.434 208.415 815.738 211.458 818.082 215.332C820.426 219.173 821.809 223.551 822.232 228.467H805.143C805.077 225.798 804.622 223.568 803.775 221.777C802.929 219.954 801.594 218.587 799.771 217.676C797.949 216.764 795.523 216.309 792.496 216.309C790.38 216.309 788.541 216.699 786.979 217.48C785.416 218.262 784.114 219.499 783.072 221.191C782.031 222.884 781.249 225.081 780.729 227.783C780.24 230.452 779.996 233.675 779.996 237.451V241.406C779.996 245.182 780.224 248.405 780.68 251.074C781.135 253.743 781.868 255.924 782.877 257.617C783.886 259.31 785.188 260.563 786.783 261.377C788.411 262.158 790.396 262.549 792.74 262.549C795.344 262.549 797.542 262.142 799.332 261.328C801.122 260.482 802.506 259.212 803.482 257.52C804.459 255.794 804.98 253.597 805.045 250.928ZM827.408 249.121V248.096C827.408 244.222 827.962 240.658 829.068 237.402C830.175 234.115 831.803 231.266 833.951 228.857C836.1 226.449 838.753 224.577 841.91 223.242C845.068 221.875 848.714 221.191 852.848 221.191C857.014 221.191 860.676 221.875 863.834 223.242C867.024 224.577 869.693 226.449 871.842 228.857C873.99 231.266 875.618 234.115 876.725 237.402C877.831 240.658 878.385 244.222 878.385 248.096V249.121C878.385 252.962 877.831 256.527 876.725 259.814C875.618 263.07 873.99 265.918 871.842 268.359C869.693 270.768 867.04 272.64 863.883 273.975C860.725 275.309 857.079 275.977 852.945 275.977C848.811 275.977 845.149 275.309 841.959 273.975C838.769 272.64 836.1 270.768 833.951 268.359C831.803 265.918 830.175 263.07 829.068 259.814C827.962 256.527 827.408 252.962 827.408 249.121ZM843.863 248.096V249.121C843.863 251.107 844.01 252.962 844.303 254.688C844.596 256.413 845.084 257.926 845.768 259.229C846.451 260.498 847.379 261.491 848.551 262.207C849.723 262.923 851.188 263.281 852.945 263.281C854.671 263.281 856.103 262.923 857.242 262.207C858.414 261.491 859.342 260.498 860.025 259.229C860.709 257.926 861.197 256.413 861.49 254.688C861.783 252.962 861.93 251.107 861.93 249.121V248.096C861.93 246.175 861.783 244.368 861.49 242.676C861.197 240.951 860.709 239.437 860.025 238.135C859.342 236.8 858.414 235.758 857.242 235.01C856.07 234.261 854.605 233.887 852.848 233.887C851.122 233.887 849.674 234.261 848.502 235.01C847.363 235.758 846.451 236.8 845.768 238.135C845.084 239.437 844.596 240.951 844.303 242.676C844.01 244.368 843.863 246.175 843.863 248.096ZM901.871 233.447V275H885.416V222.168H900.846L901.871 233.447ZM899.918 246.777L896.061 246.875C896.061 242.839 896.549 239.242 897.525 236.084C898.502 232.894 899.885 230.192 901.676 227.979C903.466 225.765 905.598 224.089 908.072 222.949C910.579 221.777 913.362 221.191 916.422 221.191C918.863 221.191 921.093 221.549 923.111 222.266C925.162 222.982 926.92 224.137 928.385 225.732C929.882 227.327 931.021 229.443 931.803 232.08C932.617 234.684 933.023 237.907 933.023 241.748V275H916.471V241.699C916.471 239.583 916.178 237.972 915.592 236.865C915.006 235.726 914.16 234.945 913.053 234.521C911.946 234.098 910.595 233.887 909 233.887C907.307 233.887 905.875 234.212 904.703 234.863C903.531 235.514 902.587 236.426 901.871 237.598C901.188 238.737 900.683 240.088 900.357 241.65C900.064 243.213 899.918 244.922 899.918 246.777ZM962.516 275H945.963V220.801C945.963 216.081 946.939 212.109 948.893 208.887C950.878 205.632 953.727 203.174 957.438 201.514C961.148 199.821 965.641 198.975 970.914 198.975C973.909 198.975 976.79 199.235 979.557 199.756C982.324 200.277 985.188 200.96 988.15 201.807L985.855 214.795C983.935 214.274 981.917 213.786 979.801 213.33C977.717 212.874 975.097 212.646 971.939 212.646C968.977 212.646 966.666 213.346 965.006 214.746C963.346 216.146 962.516 218.164 962.516 220.801V275ZM972.867 222.168V233.594H938.346V222.168H972.867ZM995.67 222.168V275H979.166V222.168H995.67ZM1039.03 222.168H1053.97V272.949C1053.97 277.832 1052.85 281.966 1050.6 285.352C1048.36 288.77 1045.21 291.357 1041.18 293.115C1037.17 294.906 1032.49 295.801 1027.12 295.801C1024.74 295.801 1022.31 295.492 1019.84 294.873C1017.37 294.287 1015.05 293.408 1012.91 292.236C1010.76 291.064 1008.95 289.616 1007.49 287.891L1014.37 278.223C1015.71 279.72 1017.38 280.99 1019.4 282.031C1021.42 283.105 1023.79 283.643 1026.53 283.643C1028.91 283.643 1030.89 283.219 1032.49 282.373C1034.11 281.527 1035.35 280.29 1036.2 278.662C1037.04 277.067 1037.47 275.13 1037.47 272.852V234.668L1039.03 222.168ZM1003.92 249.219V248.193C1003.92 244.189 1004.41 240.544 1005.39 237.256C1006.4 233.936 1007.83 231.087 1009.68 228.711C1011.57 226.302 1013.85 224.447 1016.52 223.145C1019.19 221.842 1022.2 221.191 1025.55 221.191C1029.17 221.191 1032.13 221.891 1034.44 223.291C1036.78 224.658 1038.65 226.579 1040.05 229.053C1041.49 231.527 1042.59 234.424 1043.38 237.744C1044.19 241.032 1044.87 244.58 1045.43 248.389V249.609C1044.87 253.19 1044.11 256.576 1043.13 259.766C1042.19 262.923 1040.95 265.723 1039.42 268.164C1037.89 270.605 1035.97 272.526 1033.66 273.926C1031.38 275.293 1028.65 275.977 1025.46 275.977C1022.13 275.977 1019.14 275.309 1016.47 273.975C1013.83 272.64 1011.57 270.768 1009.68 268.359C1007.83 265.951 1006.4 263.118 1005.39 259.863C1004.41 256.608 1003.92 253.06 1003.92 249.219ZM1020.38 248.193V249.219C1020.38 251.204 1020.56 253.044 1020.91 254.736C1021.3 256.429 1021.89 257.926 1022.67 259.229C1023.45 260.498 1024.41 261.491 1025.55 262.207C1026.72 262.923 1028.09 263.281 1029.65 263.281C1032.03 263.281 1033.95 262.777 1035.42 261.768C1036.88 260.758 1037.94 259.326 1038.59 257.471C1039.24 255.615 1039.52 253.434 1039.42 250.928V247.07C1039.49 244.922 1039.34 243.034 1038.98 241.406C1038.62 239.746 1038.05 238.363 1037.27 237.256C1036.52 236.149 1035.51 235.319 1034.24 234.766C1033.01 234.18 1031.51 233.887 1029.75 233.887C1028.22 233.887 1026.87 234.245 1025.7 234.961C1024.53 235.677 1023.55 236.686 1022.77 237.988C1021.99 239.258 1021.39 240.771 1020.96 242.529C1020.57 244.255 1020.38 246.143 1020.38 248.193Z" fill="white"/>
<rect x="1270" y="4" width="458" height="356" fill="#D07839"/>
<path d="M1452.76 101.848L1435.43 158H1417.02L1443.14 86.9062H1454.81L1452.76 101.848ZM1467.12 158L1449.73 101.848L1447.49 86.9062H1459.3L1485.57 158H1467.12ZM1466.43 131.486V144.719H1429.96V131.486H1466.43ZM1519.17 133.879H1501.49V120.646H1519.17C1521.57 120.646 1523.53 120.24 1525.03 119.426C1526.52 118.612 1527.61 117.489 1528.3 116.057C1529.01 114.592 1529.37 112.948 1529.37 111.125C1529.37 109.172 1529.01 107.365 1528.3 105.705C1527.61 104.045 1526.52 102.71 1525.03 101.701C1523.53 100.66 1521.57 100.139 1519.17 100.139H1507.94V158H1490.8V86.9062H1519.17C1524.86 86.9062 1529.76 87.9479 1533.86 90.0312C1538 92.1146 1541.17 94.9792 1543.38 98.625C1545.6 102.238 1546.71 106.372 1546.71 111.027C1546.71 115.617 1545.6 119.621 1543.38 123.039C1541.17 126.457 1538 129.126 1533.86 131.047C1529.76 132.935 1524.86 133.879 1519.17 133.879ZM1574.15 86.9062V158H1557.06V86.9062H1574.15ZM1428.3 256.104C1428.3 254.997 1428.13 254.004 1427.81 253.125C1427.48 252.214 1426.88 251.367 1426 250.586C1425.12 249.805 1423.85 249.023 1422.19 248.242C1420.57 247.428 1418.42 246.582 1415.75 245.703C1412.62 244.661 1409.61 243.49 1406.71 242.188C1403.82 240.853 1401.23 239.307 1398.95 237.549C1396.67 235.758 1394.87 233.675 1393.53 231.299C1392.2 228.89 1391.53 226.09 1391.53 222.9C1391.53 219.84 1392.21 217.09 1393.58 214.648C1394.95 212.174 1396.85 210.075 1399.29 208.35C1401.77 206.592 1404.66 205.257 1407.98 204.346C1411.3 203.402 1414.93 202.93 1418.87 202.93C1424.08 202.93 1428.67 203.841 1432.64 205.664C1436.65 207.454 1439.77 210.01 1442.02 213.33C1444.3 216.618 1445.44 220.508 1445.44 225H1428.39C1428.39 223.21 1428.02 221.631 1427.27 220.264C1426.56 218.896 1425.46 217.822 1424 217.041C1422.54 216.26 1420.7 215.869 1418.48 215.869C1416.33 215.869 1414.53 216.195 1413.06 216.846C1411.6 217.497 1410.49 218.376 1409.74 219.482C1408.99 220.557 1408.62 221.745 1408.62 223.047C1408.62 224.121 1408.91 225.098 1409.5 225.977C1410.12 226.823 1410.98 227.62 1412.09 228.369C1413.23 229.118 1414.59 229.834 1416.19 230.518C1417.82 231.201 1419.64 231.868 1421.66 232.52C1425.43 233.724 1428.79 235.075 1431.71 236.572C1434.68 238.037 1437.17 239.714 1439.19 241.602C1441.24 243.457 1442.78 245.573 1443.82 247.949C1444.9 250.326 1445.44 253.011 1445.44 256.006C1445.44 259.196 1444.82 262.028 1443.58 264.502C1442.34 266.976 1440.57 269.076 1438.26 270.801C1435.95 272.493 1433.18 273.779 1429.96 274.658C1426.73 275.537 1423.14 275.977 1419.17 275.977C1415.52 275.977 1411.92 275.521 1408.38 274.609C1404.86 273.665 1401.67 272.233 1398.8 270.312C1395.94 268.359 1393.65 265.869 1391.92 262.842C1390.23 259.782 1389.38 256.152 1389.38 251.953H1406.57C1406.57 254.036 1406.85 255.794 1407.4 257.227C1407.95 258.659 1408.77 259.814 1409.84 260.693C1410.91 261.54 1412.23 262.158 1413.79 262.549C1415.36 262.907 1417.15 263.086 1419.17 263.086C1421.35 263.086 1423.1 262.777 1424.44 262.158C1425.77 261.507 1426.75 260.661 1427.37 259.619C1427.99 258.545 1428.3 257.373 1428.3 256.104ZM1470.09 232.324V295.312H1453.64V222.168H1468.97L1470.09 232.324ZM1502.52 247.949V248.975C1502.52 252.816 1502.08 256.38 1501.2 259.668C1500.32 262.956 1499.02 265.82 1497.29 268.262C1495.57 270.703 1493.42 272.607 1490.85 273.975C1488.31 275.309 1485.36 275.977 1482.01 275.977C1478.85 275.977 1476.13 275.277 1473.85 273.877C1471.57 272.477 1469.67 270.54 1468.14 268.066C1466.61 265.592 1465.37 262.76 1464.43 259.57C1463.49 256.38 1462.74 253.011 1462.18 249.463V248.145C1462.74 244.336 1463.49 240.804 1464.43 237.549C1465.37 234.261 1466.61 231.396 1468.14 228.955C1469.67 226.514 1471.56 224.609 1473.8 223.242C1476.08 221.875 1478.8 221.191 1481.96 221.191C1485.31 221.191 1488.26 221.826 1490.8 223.096C1493.37 224.365 1495.52 226.188 1497.24 228.564C1499 230.908 1500.32 233.724 1501.2 237.012C1502.08 240.299 1502.52 243.945 1502.52 247.949ZM1486.06 248.975V247.949C1486.06 245.898 1485.91 244.027 1485.62 242.334C1485.33 240.609 1484.86 239.111 1484.21 237.842C1483.59 236.572 1482.76 235.596 1481.71 234.912C1480.67 234.229 1479.39 233.887 1477.86 233.887C1476.1 233.887 1474.62 234.163 1473.41 234.717C1472.24 235.238 1471.3 236.051 1470.58 237.158C1469.9 238.232 1469.41 239.583 1469.12 241.211C1468.86 242.806 1468.74 244.678 1468.78 246.826V250.83C1468.71 253.304 1468.95 255.485 1469.51 257.373C1470.06 259.229 1471.02 260.677 1472.39 261.719C1473.76 262.76 1475.61 263.281 1477.96 263.281C1479.52 263.281 1480.82 262.923 1481.86 262.207C1482.9 261.458 1483.73 260.433 1484.35 259.131C1484.97 257.796 1485.41 256.266 1485.67 254.541C1485.93 252.816 1486.06 250.96 1486.06 248.975ZM1535.43 275.977C1531.13 275.977 1527.29 275.309 1523.9 273.975C1520.52 272.607 1517.65 270.736 1515.31 268.359C1513 265.983 1511.22 263.249 1509.99 260.156C1508.78 257.064 1508.18 253.792 1508.18 250.342V248.486C1508.18 244.613 1508.72 241.032 1509.79 237.744C1510.87 234.424 1512.46 231.527 1514.58 229.053C1516.69 226.579 1519.35 224.658 1522.54 223.291C1525.73 221.891 1529.44 221.191 1533.67 221.191C1537.41 221.191 1540.76 221.794 1543.73 222.998C1546.69 224.202 1549.2 225.928 1551.25 228.174C1553.33 230.42 1554.91 233.138 1555.98 236.328C1557.09 239.518 1557.64 243.099 1557.64 247.07V253.76H1514.48V243.457H1541.58V242.188C1541.61 240.43 1541.3 238.932 1540.65 237.695C1540.03 236.458 1539.12 235.514 1537.92 234.863C1536.71 234.212 1535.25 233.887 1533.52 233.887C1531.73 233.887 1530.25 234.277 1529.08 235.059C1527.94 235.84 1527.04 236.914 1526.39 238.281C1525.77 239.616 1525.33 241.162 1525.07 242.92C1524.81 244.678 1524.68 246.533 1524.68 248.486V250.342C1524.68 252.295 1524.94 254.069 1525.46 255.664C1526.02 257.259 1526.8 258.626 1527.81 259.766C1528.85 260.872 1530.09 261.735 1531.52 262.354C1532.98 262.972 1534.64 263.281 1536.5 263.281C1538.75 263.281 1540.96 262.858 1543.14 262.012C1545.32 261.165 1547.19 259.766 1548.76 257.812L1556.23 266.699C1555.15 268.229 1553.62 269.71 1551.64 271.143C1549.68 272.575 1547.34 273.747 1544.61 274.658C1541.87 275.537 1538.81 275.977 1535.43 275.977ZM1586.65 263.281C1588.18 263.281 1589.48 263.005 1590.55 262.451C1591.66 261.865 1592.49 261.051 1593.04 260.01C1593.63 258.936 1593.91 257.65 1593.87 256.152H1609.35C1609.38 260.124 1608.41 263.607 1606.42 266.602C1604.47 269.564 1601.8 271.875 1598.41 273.535C1595.06 275.163 1591.27 275.977 1587.04 275.977C1582.9 275.977 1579.29 275.309 1576.2 273.975C1573.1 272.607 1570.52 270.719 1568.43 268.311C1566.38 265.869 1564.84 263.021 1563.79 259.766C1562.79 256.51 1562.28 252.979 1562.28 249.17V248.047C1562.28 244.238 1562.79 240.706 1563.79 237.451C1564.84 234.163 1566.38 231.315 1568.43 228.906C1570.52 226.465 1573.09 224.577 1576.15 223.242C1579.24 221.875 1582.84 221.191 1586.94 221.191C1591.33 221.191 1595.21 222.021 1598.56 223.682C1601.95 225.342 1604.6 227.751 1606.52 230.908C1608.44 234.066 1609.38 237.891 1609.35 242.383H1593.87C1593.91 240.788 1593.66 239.355 1593.14 238.086C1592.62 236.816 1591.81 235.807 1590.7 235.059C1589.62 234.277 1588.24 233.887 1586.55 233.887C1584.86 233.887 1583.49 234.261 1582.45 235.01C1581.41 235.758 1580.61 236.8 1580.05 238.135C1579.53 239.437 1579.18 240.934 1578.98 242.627C1578.82 244.32 1578.74 246.126 1578.74 248.047V249.17C1578.74 251.123 1578.82 252.962 1578.98 254.688C1579.18 256.38 1579.55 257.878 1580.1 259.18C1580.66 260.449 1581.45 261.458 1582.5 262.207C1583.54 262.923 1584.92 263.281 1586.65 263.281Z" fill="white"/>
<path d="M1148.92 802H1126.84L1126.98 783.543H1148.92C1153.48 783.543 1157.33 782.449 1160.47 780.262C1163.66 778.074 1166.08 774.816 1167.72 770.486C1169.41 766.111 1170.25 760.734 1170.25 754.354V750.047C1170.25 745.262 1169.77 741.069 1168.81 737.469C1167.9 733.823 1166.54 730.792 1164.71 728.377C1162.89 725.916 1160.61 724.07 1157.88 722.84C1155.19 721.609 1152.09 720.994 1148.58 720.994H1126.43V702.469H1148.58C1155.32 702.469 1161.5 703.631 1167.11 705.955C1172.76 708.234 1177.63 711.515 1181.73 715.799C1185.88 720.037 1189.07 725.073 1191.3 730.906C1193.58 736.694 1194.72 743.12 1194.72 750.184V754.354C1194.72 761.372 1193.58 767.798 1191.3 773.631C1189.07 779.464 1185.9 784.5 1181.8 788.738C1177.7 792.977 1172.85 796.258 1167.24 798.582C1161.68 800.861 1155.58 802 1148.92 802ZM1140.58 702.469V802H1116.59V702.469H1140.58ZM1244.56 783.406V752.918C1244.56 750.822 1244.26 749.021 1243.67 747.518C1243.08 746.014 1242.14 744.852 1240.87 744.031C1239.59 743.165 1237.88 742.732 1235.74 742.732C1234.01 742.732 1232.53 743.029 1231.29 743.621C1230.06 744.214 1229.13 745.102 1228.49 746.287C1227.85 747.472 1227.54 748.976 1227.54 750.799H1204.5C1204.5 747.381 1205.25 744.214 1206.75 741.297C1208.3 738.335 1210.49 735.76 1213.32 733.572C1216.19 731.385 1219.61 729.699 1223.57 728.514C1227.58 727.283 1232.05 726.668 1236.97 726.668C1242.85 726.668 1248.09 727.648 1252.69 729.607C1257.34 731.567 1261.01 734.507 1263.7 738.426C1266.39 742.299 1267.73 747.176 1267.73 753.055V783.338C1267.73 788.169 1268 791.837 1268.55 794.344C1269.1 796.805 1269.87 798.969 1270.88 800.838V802H1247.77C1246.68 799.721 1245.86 796.941 1245.31 793.66C1244.81 790.333 1244.56 786.915 1244.56 783.406ZM1247.36 756.814L1247.5 769.119H1237.31C1235.17 769.119 1233.35 769.415 1231.84 770.008C1230.38 770.6 1229.2 771.421 1228.29 772.469C1227.42 773.471 1226.78 774.611 1226.37 775.887C1226.01 777.163 1225.83 778.507 1225.83 779.92C1225.83 781.287 1226.15 782.518 1226.78 783.611C1227.47 784.66 1228.38 785.48 1229.52 786.072C1230.66 786.665 1231.93 786.961 1233.35 786.961C1235.9 786.961 1238.06 786.482 1239.84 785.525C1241.66 784.523 1243.05 783.315 1244.01 781.902C1244.97 780.49 1245.45 779.168 1245.45 777.938L1250.5 787.371C1249.59 789.194 1248.54 791.04 1247.36 792.908C1246.22 794.777 1244.78 796.508 1243.05 798.104C1241.37 799.653 1239.29 800.929 1236.83 801.932C1234.37 802.889 1231.39 803.367 1227.88 803.367C1223.32 803.367 1219.13 802.433 1215.3 800.564C1211.52 798.696 1208.49 796.098 1206.21 792.771C1203.93 789.399 1202.79 785.525 1202.79 781.15C1202.79 777.322 1203.47 773.904 1204.84 770.896C1206.25 767.889 1208.37 765.337 1211.2 763.24C1214.02 761.144 1217.62 759.549 1222 758.455C1226.37 757.361 1231.52 756.814 1237.45 756.814H1247.36ZM1319.48 728.035V744.031H1274.91V728.035H1319.48ZM1284.27 709.646H1307.31V777.869C1307.31 779.829 1307.54 781.355 1307.99 782.449C1308.45 783.497 1309.22 784.249 1310.32 784.705C1311.46 785.115 1312.96 785.32 1314.83 785.32C1316.15 785.32 1317.25 785.298 1318.11 785.252C1318.98 785.161 1319.8 785.047 1320.57 784.91V801.385C1318.61 802.023 1316.56 802.501 1314.42 802.82C1312.28 803.185 1310 803.367 1307.58 803.367C1302.66 803.367 1298.45 802.592 1294.94 801.043C1291.47 799.493 1288.83 797.055 1287.01 793.729C1285.18 790.402 1284.27 786.072 1284.27 780.74V709.646ZM1367.06 783.406V752.918C1367.06 750.822 1366.76 749.021 1366.17 747.518C1365.58 746.014 1364.64 744.852 1363.37 744.031C1362.09 743.165 1360.38 742.732 1358.24 742.732C1356.51 742.732 1355.03 743.029 1353.79 743.621C1352.56 744.214 1351.63 745.102 1350.99 746.287C1350.35 747.472 1350.04 748.976 1350.04 750.799H1327C1327 747.381 1327.75 744.214 1329.25 741.297C1330.8 738.335 1332.99 735.76 1335.82 733.572C1338.69 731.385 1342.11 729.699 1346.07 728.514C1350.08 727.283 1354.55 726.668 1359.47 726.668C1365.35 726.668 1370.59 727.648 1375.19 729.607C1379.84 731.567 1383.51 734.507 1386.2 738.426C1388.89 742.299 1390.23 747.176 1390.23 753.055V783.338C1390.23 788.169 1390.5 791.837 1391.05 794.344C1391.6 796.805 1392.37 798.969 1393.38 800.838V802H1370.27C1369.18 799.721 1368.36 796.941 1367.81 793.66C1367.31 790.333 1367.06 786.915 1367.06 783.406ZM1369.86 756.814L1370 769.119H1359.81C1357.67 769.119 1355.85 769.415 1354.34 770.008C1352.88 770.6 1351.7 771.421 1350.79 772.469C1349.92 773.471 1349.28 774.611 1348.87 775.887C1348.51 777.163 1348.33 778.507 1348.33 779.92C1348.33 781.287 1348.65 782.518 1349.28 783.611C1349.97 784.66 1350.88 785.48 1352.02 786.072C1353.16 786.665 1354.43 786.961 1355.85 786.961C1358.4 786.961 1360.56 786.482 1362.34 785.525C1364.16 784.523 1365.55 783.315 1366.51 781.902C1367.47 780.49 1367.95 779.168 1367.95 777.938L1373 787.371C1372.09 789.194 1371.04 791.04 1369.86 792.908C1368.72 794.777 1367.28 796.508 1365.55 798.104C1363.87 799.653 1361.79 800.929 1359.33 801.932C1356.87 802.889 1353.89 803.367 1350.38 803.367C1345.82 803.367 1341.63 802.433 1337.8 800.564C1334.02 798.696 1330.99 796.098 1328.71 792.771C1326.43 789.399 1325.29 785.525 1325.29 781.15C1325.29 777.322 1325.97 773.904 1327.34 770.896C1328.75 767.889 1330.87 765.337 1333.7 763.24C1336.52 761.144 1340.12 759.549 1344.5 758.455C1348.87 757.361 1354.02 756.814 1359.95 756.814H1369.86ZM1455.38 775.545C1455.38 773.995 1455.15 772.605 1454.69 771.375C1454.24 770.099 1453.39 768.914 1452.16 767.82C1450.93 766.727 1449.16 765.633 1446.83 764.539C1444.55 763.4 1441.55 762.215 1437.81 760.984C1433.43 759.526 1429.22 757.885 1425.16 756.062C1421.11 754.194 1417.48 752.029 1414.29 749.568C1411.1 747.062 1408.57 744.145 1406.71 740.818C1404.84 737.446 1403.9 733.527 1403.9 729.061C1403.9 724.777 1404.86 720.926 1406.77 717.508C1408.69 714.044 1411.35 711.105 1414.77 708.689C1418.24 706.229 1422.29 704.36 1426.94 703.084C1431.59 701.762 1436.67 701.102 1442.18 701.102C1449.48 701.102 1455.9 702.378 1461.46 704.93C1467.07 707.436 1471.44 711.014 1474.59 715.662C1477.78 720.265 1479.37 725.711 1479.37 732H1455.51C1455.51 729.493 1454.99 727.283 1453.94 725.369C1452.94 723.455 1451.41 721.951 1449.36 720.857C1447.31 719.764 1444.74 719.217 1441.64 719.217C1438.63 719.217 1436.1 719.673 1434.05 720.584C1432 721.495 1430.45 722.726 1429.4 724.275C1428.35 725.779 1427.83 727.443 1427.83 729.266C1427.83 730.77 1428.24 732.137 1429.06 733.367C1429.92 734.552 1431.13 735.669 1432.68 736.717C1434.28 737.765 1436.19 738.768 1438.42 739.725C1440.7 740.682 1443.25 741.616 1446.08 742.527C1451.37 744.214 1456.06 746.105 1460.16 748.201C1464.31 750.252 1467.8 752.599 1470.62 755.242C1473.49 757.84 1475.66 760.802 1477.12 764.129C1478.62 767.456 1479.37 771.215 1479.37 775.408C1479.37 779.874 1478.51 783.839 1476.77 787.303C1475.04 790.766 1472.56 793.706 1469.32 796.121C1466.09 798.491 1462.21 800.291 1457.7 801.521C1453.19 802.752 1448.15 803.367 1442.59 803.367C1437.49 803.367 1432.45 802.729 1427.49 801.453C1422.56 800.132 1418.1 798.126 1414.09 795.438C1410.08 792.703 1406.86 789.217 1404.45 784.979C1402.08 780.695 1400.89 775.613 1400.89 769.734H1424.96C1424.96 772.651 1425.34 775.112 1426.12 777.117C1426.89 779.122 1428.03 780.74 1429.54 781.971C1431.04 783.156 1432.89 784.021 1435.07 784.568C1437.26 785.07 1439.77 785.32 1442.59 785.32C1445.65 785.32 1448.11 784.887 1449.98 784.021C1451.85 783.11 1453.21 781.925 1454.08 780.467C1454.94 778.963 1455.38 777.322 1455.38 775.545ZM1547.25 785.594L1575.01 807.605L1560.1 820.184L1532.83 798.172L1547.25 785.594ZM1576.17 750.252V754.285C1576.17 761.896 1575.1 768.732 1572.96 774.793C1570.86 780.809 1567.85 785.958 1563.93 790.242C1560.06 794.48 1555.48 797.739 1550.19 800.018C1544.9 802.251 1539.07 803.367 1532.69 803.367C1526.27 803.367 1520.39 802.251 1515.05 800.018C1509.77 797.739 1505.17 794.48 1501.25 790.242C1497.37 785.958 1494.36 780.809 1492.22 774.793C1490.13 768.732 1489.08 761.896 1489.08 754.285V750.252C1489.08 742.641 1490.13 735.805 1492.22 729.744C1494.36 723.683 1497.35 718.533 1501.18 714.295C1505.05 710.011 1509.63 706.753 1514.92 704.52C1520.25 702.241 1526.13 701.102 1532.55 701.102C1538.93 701.102 1544.77 702.241 1550.05 704.52C1555.39 706.753 1559.99 710.011 1563.86 714.295C1567.78 718.533 1570.81 723.683 1572.96 729.744C1575.1 735.805 1576.17 742.641 1576.17 750.252ZM1551.76 754.285V750.115C1551.76 745.193 1551.33 740.864 1550.46 737.127C1549.64 733.344 1548.41 730.177 1546.77 727.625C1545.13 725.073 1543.1 723.159 1540.69 721.883C1538.32 720.561 1535.61 719.9 1532.55 719.9C1529.36 719.9 1526.58 720.561 1524.21 721.883C1521.85 723.159 1519.86 725.073 1518.27 727.625C1516.67 730.177 1515.46 733.344 1514.64 737.127C1513.87 740.864 1513.48 745.193 1513.48 750.115V754.285C1513.48 759.161 1513.87 763.491 1514.64 767.273C1515.46 771.01 1516.67 774.178 1518.27 776.775C1519.91 779.373 1521.91 781.333 1524.28 782.654C1526.7 783.976 1529.5 784.637 1532.69 784.637C1535.74 784.637 1538.46 783.976 1540.83 782.654C1543.2 781.333 1545.18 779.373 1546.77 776.775C1548.41 774.178 1549.64 771.01 1550.46 767.273C1551.33 763.491 1551.76 759.161 1551.76 754.285ZM1588.4 702.469H1627.57C1635.23 702.469 1641.88 703.608 1647.54 705.887C1653.19 708.165 1657.54 711.538 1660.59 716.004C1663.69 720.47 1665.24 725.984 1665.24 732.547C1665.24 738.243 1664.35 743.006 1662.57 746.834C1660.8 750.662 1658.31 753.829 1655.12 756.336C1651.98 758.797 1648.31 760.825 1644.12 762.42L1636.26 766.863H1603.38L1603.24 748.338H1627.57C1630.63 748.338 1633.16 747.791 1635.16 746.697C1637.17 745.604 1638.67 744.054 1639.67 742.049C1640.72 739.998 1641.25 737.56 1641.25 734.734C1641.25 731.863 1640.72 729.402 1639.67 727.352C1638.63 725.301 1637.08 723.729 1635.03 722.635C1633.02 721.541 1630.54 720.994 1627.57 720.994H1612.4V802H1588.4V702.469ZM1642.89 802L1620.88 757.977L1646.3 757.84L1668.59 800.975V802H1642.89ZM1745.49 783.543V802H1695.18V783.543H1745.49ZM1703.73 702.469V802H1679.73V702.469H1703.73Z" fill="#888888"/>
<path fill-rule="evenodd" clip-rule="evenodd" d="M1098.58 526C1064.02 526 993.819 544.388 981.537 592.069C981.345 592.435 980.979 593.761 980.578 595.803C958.351 582.212 932.216 574.309 904.285 574.309C875.115 574.309 848.003 582.927 825.166 597.617C824.695 594.634 824.119 592.54 823.892 592.069C811.61 544.388 741.406 526.052 706.828 526.035C701.332 526.035 696.779 526.506 693.447 527.378C674.901 529.96 654.594 537.375 656.077 541.423C669.685 539.102 676.559 541.754 676.349 543.952C675.931 548.07 667.731 549.169 670.365 564.015C675.337 556.81 682.264 554.333 687.707 553.181C693.29 588.231 717.714 649.415 763.424 652.59C767.349 652.869 771.013 652.852 774.467 652.782C763.685 673.229 757.562 696.52 757.562 721.241C757.562 802.314 823.282 896.263 904.285 896.263C985.271 896.263 1051.08 802.314 1051.08 721.241C1051.08 696.537 1044.94 673.299 1034.16 652.869C1036.65 652.853 1039.28 652.782 1042.01 652.59C1087.56 649.433 1111.98 588.597 1117.67 553.513C1122.87 554.786 1129.08 557.403 1133.63 564.015C1136.27 549.169 1128.07 548.07 1127.65 543.952C1127.44 541.754 1134.31 539.102 1147.92 541.423C1149.34 537.584 1131.21 530.728 1113.52 527.814C1110.15 526.628 1104.99 526 1098.58 526V526Z" fill="url(#paint0_linear_524_2)" stroke="black" stroke-width="3" stroke-linejoin="round"/>
<path d="M899.167 709.469C899.167 722.196 894.116 734.401 885.125 743.4C876.134 752.399 863.94 757.455 851.224 757.455C838.509 757.455 826.315 752.399 817.324 743.4C808.333 734.401 803.281 722.196 803.281 709.469C803.281 696.742 808.333 684.537 817.324 675.538C826.315 666.539 838.509 661.483 851.224 661.483C863.94 661.483 876.134 666.539 885.125 675.538C894.116 684.537 899.167 696.742 899.167 709.469V709.469Z" fill="white" stroke="black" stroke-width="3.00002" stroke-linecap="round" stroke-linejoin="round"/>
<path d="M1005.35 709.469C1005.35 722.196 1000.29 734.401 991.303 743.4C982.312 752.399 970.118 757.455 957.402 757.455C944.687 757.455 932.493 752.399 923.502 743.4C914.511 734.401 909.46 722.196 909.46 709.469C909.46 696.742 914.511 684.537 923.502 675.538C932.493 666.539 944.687 661.483 957.402 661.483C970.118 661.483 982.312 666.539 991.303 675.538C1000.29 684.537 1005.35 696.742 1005.35 709.469V709.469Z" fill="white" stroke="black" stroke-width="3.00002" stroke-linecap="round" stroke-linejoin="round"/>
<path d="M884.314 715.299C884.316 717.335 883.917 719.352 883.139 721.234C882.362 723.116 881.222 724.826 879.783 726.267C878.345 727.707 876.638 728.85 874.758 729.63C872.878 730.41 870.864 730.811 868.829 730.811C866.794 730.811 864.78 730.41 862.9 729.63C861.02 728.85 859.313 727.707 857.875 726.267C856.437 724.826 855.296 723.116 854.519 721.234C853.741 719.352 853.342 717.335 853.344 715.299C853.342 713.262 853.741 711.245 854.519 709.363C855.296 707.481 856.437 705.771 857.875 704.33C859.313 702.89 861.02 701.747 862.9 700.967C864.78 700.187 866.794 699.786 868.829 699.786C870.864 699.786 872.878 700.187 874.758 700.967C876.638 701.747 878.345 702.89 879.783 704.33C881.222 705.771 882.362 707.481 883.139 709.363C883.917 711.245 884.316 713.262 884.314 715.299V715.299Z" fill="black"/>
<path d="M955.146 715.299C955.148 717.335 954.749 719.352 953.971 721.234C953.194 723.116 952.054 724.826 950.615 726.267C949.177 727.707 947.47 728.85 945.59 729.63C943.71 730.41 941.696 730.811 939.661 730.811C937.626 730.811 935.612 730.41 933.732 729.63C931.852 728.85 930.145 727.707 928.707 726.267C927.269 724.826 926.128 723.116 925.351 721.234C924.573 719.352 924.174 717.335 924.176 715.299C924.174 713.262 924.573 711.245 925.351 709.363C926.128 707.481 927.269 705.771 928.707 704.33C930.145 702.89 931.852 701.747 933.732 700.967C935.612 700.187 937.626 699.786 939.661 699.786C941.696 699.786 943.71 700.187 945.59 700.967C947.47 701.747 949.177 702.89 950.615 704.33C952.054 705.771 953.194 707.481 953.971 709.363C954.749 711.245 955.148 713.262 955.146 715.299Z" fill="black"/>
<path fill-rule="evenodd" clip-rule="evenodd" d="M879.529 801.529C887.345 793.173 920.545 791.358 927.489 802.559C934.432 813.777 917.073 837.015 903.5 835.968C889.996 834.922 872.201 809.328 879.529 801.529Z" fill="black"/>
<path fill-rule="evenodd" clip-rule="evenodd" d="M792.21 631.184C787.063 556.654 710.37 539.678 706.671 548.524C702.99 557.386 720.68 657.022 792.21 631.184Z" fill="#74401B" stroke="black" stroke-width="3" stroke-linejoin="round"/>
<path fill-rule="evenodd" clip-rule="evenodd" d="M1010.78 631.184C1015.92 556.654 1092.62 539.678 1096.32 548.524C1100 557.386 1082.29 657.022 1010.78 631.184Z" fill="url(#paint1_linear_524_2)" stroke="black" stroke-width="3" stroke-linejoin="round"/>
<path d="M1039.51 664.385C1042.18 675.446 1043.61 687.03 1043.61 698.894C1043.61 779.966 977.821 873.88 896.818 873.88C837.78 873.88 786.924 823.966 763.65 765.503C781.672 833.003 837.815 896.298 904.285 896.298C985.288 896.298 1051.08 802.315 1051.08 721.242C1051.08 701.074 1046.96 681.883 1039.58 664.385H1039.51Z" fill="black" fill-opacity="0.31373"/>
<path d="M491.18 1081.54C490.374 1084.76 492.327 1088.01 495.541 1088.82L547.921 1101.95C551.136 1102.75 554.394 1100.8 555.2 1097.59C556.006 1094.37 554.053 1091.11 550.839 1090.31L504.279 1078.64L515.948 1032.08C516.753 1028.86 514.8 1025.61 511.586 1024.8C508.372 1023.99 505.113 1025.95 504.308 1029.16L491.18 1081.54ZM745.916 926.853L493.916 1077.85L500.084 1088.15L752.084 937.147L745.916 926.853Z" fill="#2FA4DA"/>
<path d="M1315.82 1081.54C1316.63 1084.76 1314.67 1088.01 1311.46 1088.82L1259.08 1101.95C1255.86 1102.75 1252.61 1100.8 1251.8 1097.59C1250.99 1094.37 1252.95 1091.11 1256.16 1090.31L1302.72 1078.64L1291.05 1032.08C1290.25 1028.86 1292.2 1025.61 1295.41 1024.8C1298.63 1023.99 1301.89 1025.95 1302.69 1029.16L1315.82 1081.54ZM1061.08 926.853L1313.08 1077.85L1306.92 1088.15L1054.92 937.147L1061.08 926.853Z" fill="#2FA4DA"/>
<path d="M893.757 1092.24C896.1 1094.59 899.899 1094.59 902.243 1092.24L940.426 1054.06C942.77 1051.72 942.77 1047.92 940.426 1045.57C938.083 1043.23 934.284 1043.23 931.941 1045.57L898 1079.51L864.059 1045.57C861.716 1043.23 857.917 1043.23 855.574 1045.57C853.23 1047.92 853.23 1051.72 855.574 1054.06L893.757 1092.24ZM892 932L892 1088L904 1088L904 932L892 932Z" fill="#2FA4DA"/>
<path d="M904.757 530.243C907.101 532.586 910.9 532.586 913.243 530.243L951.426 492.059C953.77 489.716 953.77 485.917 951.426 483.574C949.083 481.23 945.284 481.23 942.941 483.574L909 517.515L875.059 483.574C872.716 481.23 868.917 481.23 866.574 483.574C864.23 485.917 864.23 489.716 866.574 492.059L904.757 530.243ZM903 396L903 526L915 526L915 396L903 396Z" fill="#D07839"/>
<path d="M1186.23 524.341C1185.32 527.526 1187.16 530.85 1190.34 531.766L1242.24 546.695C1245.42 547.611 1248.75 545.772 1249.66 542.588C1250.58 539.403 1248.74 536.079 1245.55 535.163L1199.42 521.893L1212.69 475.763C1213.61 472.579 1211.77 469.255 1208.59 468.338C1205.4 467.422 1202.08 469.261 1201.16 472.446L1186.23 524.341ZM1424.1 390.75L1189.1 520.75L1194.9 531.25L1429.9 401.25L1424.1 390.75Z" fill="#D07839"/>
<path d="M624.766 524.341C625.682 527.526 623.843 530.85 620.659 531.766L568.763 546.695C565.579 547.611 562.255 545.772 561.338 542.588C560.422 539.403 562.261 536.079 565.446 535.163L611.575 521.893L598.305 475.763C597.389 472.579 599.228 469.255 602.412 468.338C605.597 467.422 608.921 469.261 609.837 472.446L624.766 524.341ZM386.904 390.75L621.904 520.75L616.096 531.25L381.096 401.25L386.904 390.75Z" fill="#D07839"/>
<g clip-path="url(#clip1_524_2)">
<rect y="1128" width="458" height="448" rx="40" fill="#2FA4DA"/>
<path d="M95.2715 1309.1C95.2715 1308 95.1087 1307 94.7832 1306.12C94.4577 1305.21 93.8555 1304.37 92.9766 1303.59C92.0977 1302.8 90.8281 1302.02 89.168 1301.24C87.5404 1300.43 85.3919 1299.58 82.7227 1298.7C79.5977 1297.66 76.5866 1296.49 73.6895 1295.19C70.7923 1293.85 68.2044 1292.31 65.9258 1290.55C63.6471 1288.76 61.8405 1286.68 60.5059 1284.3C59.1712 1281.89 58.5039 1279.09 58.5039 1275.9C58.5039 1272.84 59.1875 1270.09 60.5547 1267.65C61.9219 1265.17 63.8262 1263.07 66.2676 1261.35C68.7415 1259.59 71.6387 1258.26 74.959 1257.35C78.2793 1256.4 81.9089 1255.93 85.8477 1255.93C91.056 1255.93 95.6458 1256.84 99.6172 1258.66C103.621 1260.45 106.746 1263.01 108.992 1266.33C111.271 1269.62 112.41 1273.51 112.41 1278H95.3691C95.3691 1276.21 94.9948 1274.63 94.2461 1273.26C93.5299 1271.9 92.4395 1270.82 90.9746 1270.04C89.5098 1269.26 87.6706 1268.87 85.457 1268.87C83.3086 1268.87 81.502 1269.19 80.0371 1269.85C78.5723 1270.5 77.4655 1271.38 76.7168 1272.48C75.9681 1273.56 75.5938 1274.74 75.5938 1276.05C75.5938 1277.12 75.8867 1278.1 76.4727 1278.98C77.0911 1279.82 77.9538 1280.62 79.0605 1281.37C80.1999 1282.12 81.5671 1282.83 83.1621 1283.52C84.7897 1284.2 86.6126 1284.87 88.6309 1285.52C92.4069 1286.72 95.7598 1288.07 98.6895 1289.57C101.652 1291.04 104.142 1292.71 106.16 1294.6C108.211 1296.46 109.757 1298.57 110.799 1300.95C111.873 1303.33 112.41 1306.01 112.41 1309.01C112.41 1312.2 111.792 1315.03 110.555 1317.5C109.318 1319.98 107.544 1322.08 105.232 1323.8C102.921 1325.49 100.154 1326.78 96.9316 1327.66C93.709 1328.54 90.112 1328.98 86.1406 1328.98C82.4948 1328.98 78.8978 1328.52 75.3496 1327.61C71.834 1326.67 68.6439 1325.23 65.7793 1323.31C62.9147 1321.36 60.6198 1318.87 58.8945 1315.84C57.2018 1312.78 56.3555 1309.15 56.3555 1304.95H73.543C73.543 1307.04 73.8197 1308.79 74.373 1310.23C74.9264 1311.66 75.7402 1312.81 76.8145 1313.69C77.8887 1314.54 79.207 1315.16 80.7695 1315.55C82.332 1315.91 84.1224 1316.09 86.1406 1316.09C88.3216 1316.09 90.0794 1315.78 91.4141 1315.16C92.7487 1314.51 93.7253 1313.66 94.3438 1312.62C94.9622 1311.54 95.2715 1310.37 95.2715 1309.1ZM148.299 1275.17V1286.59H116.463V1275.17H148.299ZM123.152 1262.03H139.607V1310.76C139.607 1312.16 139.77 1313.25 140.096 1314.04C140.421 1314.78 140.975 1315.32 141.756 1315.65C142.57 1315.94 143.644 1316.09 144.979 1316.09C145.923 1316.09 146.704 1316.07 147.322 1316.04C147.941 1315.97 148.527 1315.89 149.08 1315.79V1327.56C147.68 1328.02 146.215 1328.36 144.686 1328.59C143.156 1328.85 141.528 1328.98 139.803 1328.98C136.287 1328.98 133.276 1328.42 130.77 1327.32C128.296 1326.21 126.408 1324.47 125.105 1322.09C123.803 1319.72 123.152 1316.62 123.152 1312.81V1262.03ZM171.443 1288.25V1328H154.988V1275.17H170.369L171.443 1288.25ZM187.068 1274.78L186.775 1290.06C186.124 1290 185.245 1289.91 184.139 1289.82C183.032 1289.72 182.104 1289.67 181.355 1289.67C179.435 1289.67 177.775 1289.9 176.375 1290.35C175.008 1290.78 173.868 1291.43 172.957 1292.31C172.078 1293.15 171.427 1294.23 171.004 1295.53C170.613 1296.83 170.434 1298.35 170.467 1300.07L167.488 1298.12C167.488 1294.57 167.83 1291.35 168.514 1288.45C169.23 1285.52 170.239 1283 171.541 1280.88C172.843 1278.73 174.422 1277.09 176.277 1275.95C178.133 1274.78 180.216 1274.19 182.527 1274.19C183.341 1274.19 184.139 1274.24 184.92 1274.34C185.734 1274.44 186.45 1274.58 187.068 1274.78ZM217.342 1328.98C213.045 1328.98 209.204 1328.31 205.818 1326.97C202.433 1325.61 199.568 1323.74 197.225 1321.36C194.913 1318.98 193.139 1316.25 191.902 1313.16C190.698 1310.06 190.096 1306.79 190.096 1303.34V1301.49C190.096 1297.61 190.633 1294.03 191.707 1290.74C192.781 1287.42 194.376 1284.53 196.492 1282.05C198.608 1279.58 201.261 1277.66 204.451 1276.29C207.641 1274.89 211.352 1274.19 215.584 1274.19C219.327 1274.19 222.68 1274.79 225.643 1276C228.605 1277.2 231.111 1278.93 233.162 1281.17C235.245 1283.42 236.824 1286.14 237.898 1289.33C239.005 1292.52 239.559 1296.1 239.559 1300.07V1306.76H196.395V1296.46H223.494V1295.19C223.527 1293.43 223.217 1291.93 222.566 1290.7C221.948 1289.46 221.036 1288.51 219.832 1287.86C218.628 1287.21 217.163 1286.89 215.438 1286.89C213.647 1286.89 212.166 1287.28 210.994 1288.06C209.855 1288.84 208.96 1289.91 208.309 1291.28C207.69 1292.62 207.251 1294.16 206.99 1295.92C206.73 1297.68 206.6 1299.53 206.6 1301.49V1303.34C206.6 1305.29 206.86 1307.07 207.381 1308.66C207.934 1310.26 208.715 1311.63 209.725 1312.77C210.766 1313.87 212.003 1314.74 213.436 1315.35C214.9 1315.97 216.561 1316.28 218.416 1316.28C220.662 1316.28 222.876 1315.86 225.057 1315.01C227.238 1314.17 229.109 1312.77 230.672 1310.81L238.143 1319.7C237.068 1321.23 235.538 1322.71 233.553 1324.14C231.6 1325.57 229.256 1326.75 226.521 1327.66C223.787 1328.54 220.727 1328.98 217.342 1328.98ZM273.689 1314.72V1292.94C273.689 1291.44 273.478 1290.16 273.055 1289.08C272.632 1288.01 271.964 1287.18 271.053 1286.59C270.141 1285.98 268.921 1285.67 267.391 1285.67C266.154 1285.67 265.096 1285.88 264.217 1286.3C263.338 1286.72 262.671 1287.36 262.215 1288.21C261.759 1289.05 261.531 1290.13 261.531 1291.43H245.076C245.076 1288.99 245.613 1286.72 246.688 1284.64C247.794 1282.52 249.357 1280.69 251.375 1279.12C253.426 1277.56 255.867 1276.36 258.699 1275.51C261.564 1274.63 264.754 1274.19 268.27 1274.19C272.469 1274.19 276.212 1274.89 279.5 1276.29C282.82 1277.69 285.441 1279.79 287.361 1282.59C289.282 1285.36 290.242 1288.84 290.242 1293.04V1314.67C290.242 1318.12 290.438 1320.74 290.828 1322.53C291.219 1324.29 291.772 1325.84 292.488 1327.17V1328H275.984C275.203 1326.37 274.617 1324.39 274.227 1322.04C273.868 1319.67 273.689 1317.23 273.689 1314.72ZM275.691 1295.72L275.789 1304.51H268.514C266.984 1304.51 265.682 1304.73 264.607 1305.15C263.566 1305.57 262.719 1306.16 262.068 1306.91C261.45 1307.62 260.994 1308.44 260.701 1309.35C260.441 1310.26 260.311 1311.22 260.311 1312.23C260.311 1313.21 260.538 1314.08 260.994 1314.87C261.482 1315.61 262.133 1316.2 262.947 1316.62C263.761 1317.05 264.673 1317.26 265.682 1317.26C267.505 1317.26 269.051 1316.92 270.32 1316.23C271.622 1315.52 272.615 1314.65 273.299 1313.64C273.982 1312.64 274.324 1311.69 274.324 1310.81L277.938 1317.55C277.286 1318.85 276.538 1320.17 275.691 1321.51C274.878 1322.84 273.852 1324.08 272.615 1325.22C271.411 1326.32 269.93 1327.24 268.172 1327.95C266.414 1328.63 264.282 1328.98 261.775 1328.98C258.52 1328.98 255.525 1328.31 252.791 1326.97C250.089 1325.64 247.924 1323.78 246.297 1321.41C244.669 1319 243.855 1316.23 243.855 1313.11C243.855 1310.37 244.344 1307.93 245.32 1305.78C246.329 1303.63 247.843 1301.81 249.861 1300.31C251.88 1298.82 254.451 1297.68 257.576 1296.9C260.701 1296.12 264.38 1295.72 268.611 1295.72H275.691ZM315.975 1286.35V1328H299.52V1275.17H314.949L315.975 1286.35ZM313.973 1299.78L310.213 1299.88C310.213 1296.16 310.652 1292.75 311.531 1289.62C312.41 1286.5 313.712 1283.78 315.438 1281.47C317.163 1279.16 319.279 1277.37 321.785 1276.1C324.324 1274.83 327.254 1274.19 330.574 1274.19C332.885 1274.19 334.985 1274.55 336.873 1275.27C338.761 1275.95 340.389 1277.04 341.756 1278.54C343.123 1280 344.165 1281.92 344.881 1284.3C345.63 1286.64 346.004 1289.46 346.004 1292.75V1328H329.549V1294.85C329.549 1292.6 329.288 1290.91 328.768 1289.77C328.279 1288.63 327.563 1287.86 326.619 1287.47C325.675 1287.08 324.52 1286.89 323.152 1286.89C321.72 1286.89 320.434 1287.21 319.295 1287.86C318.156 1288.51 317.179 1289.43 316.365 1290.6C315.584 1291.74 314.982 1293.09 314.559 1294.65C314.168 1296.21 313.973 1297.92 313.973 1299.78ZM344.148 1299.78L339.559 1299.88C339.559 1296.16 339.965 1292.75 340.779 1289.62C341.626 1286.5 342.879 1283.78 344.539 1281.47C346.232 1279.16 348.331 1277.37 350.838 1276.1C353.344 1274.83 356.258 1274.19 359.578 1274.19C361.987 1274.19 364.201 1274.55 366.219 1275.27C368.237 1275.98 369.979 1277.14 371.443 1278.73C372.908 1280.33 374.048 1282.44 374.861 1285.08C375.675 1287.68 376.082 1290.91 376.082 1294.75V1328H359.578V1294.75C359.578 1292.57 359.318 1290.92 358.797 1289.82C358.309 1288.68 357.592 1287.91 356.648 1287.52C355.704 1287.1 354.581 1286.89 353.279 1286.89C351.717 1286.89 350.366 1287.21 349.227 1287.86C348.087 1288.51 347.127 1289.43 346.346 1290.6C345.597 1291.74 345.044 1293.09 344.686 1294.65C344.327 1296.21 344.148 1297.92 344.148 1299.78ZM129.598 1431.82V1445H91.707V1431.82H129.598ZM97.8105 1373.91V1445H80.6719V1373.91H97.8105ZM124.715 1402.13V1414.87H91.707V1402.13H124.715ZM129.744 1373.91V1387.14H91.707V1373.91H129.744ZM152.01 1403.45V1445H135.555V1392.17H150.984L152.01 1403.45ZM150.057 1416.78L146.199 1416.88C146.199 1412.84 146.688 1409.24 147.664 1406.08C148.641 1402.89 150.024 1400.19 151.814 1397.98C153.605 1395.76 155.737 1394.09 158.211 1392.95C160.717 1391.78 163.501 1391.19 166.561 1391.19C169.002 1391.19 171.232 1391.55 173.25 1392.27C175.301 1392.98 177.059 1394.14 178.523 1395.73C180.021 1397.33 181.16 1399.44 181.941 1402.08C182.755 1404.68 183.162 1407.91 183.162 1411.75V1445H166.609V1411.7C166.609 1409.58 166.316 1407.97 165.73 1406.87C165.145 1405.73 164.298 1404.94 163.191 1404.52C162.085 1404.1 160.734 1403.89 159.139 1403.89C157.446 1403.89 156.014 1404.21 154.842 1404.86C153.67 1405.51 152.726 1406.43 152.01 1407.6C151.326 1408.74 150.822 1410.09 150.496 1411.65C150.203 1413.21 150.057 1414.92 150.057 1416.78ZM225.496 1392.17H240.438V1442.95C240.438 1447.83 239.314 1451.97 237.068 1455.35C234.822 1458.77 231.681 1461.36 227.645 1463.12C223.641 1464.91 218.953 1465.8 213.582 1465.8C211.206 1465.8 208.781 1465.49 206.307 1464.87C203.833 1464.29 201.521 1463.41 199.373 1462.24C197.225 1461.06 195.418 1459.62 193.953 1457.89L200.838 1448.22C202.173 1449.72 203.849 1450.99 205.867 1452.03C207.885 1453.11 210.262 1453.64 212.996 1453.64C215.372 1453.64 217.358 1453.22 218.953 1452.37C220.581 1451.53 221.818 1450.29 222.664 1448.66C223.51 1447.07 223.934 1445.13 223.934 1442.85V1404.67L225.496 1392.17ZM190.389 1419.22V1418.19C190.389 1414.19 190.877 1410.54 191.854 1407.26C192.863 1403.94 194.295 1401.09 196.15 1398.71C198.038 1396.3 200.317 1394.45 202.986 1393.14C205.656 1391.84 208.667 1391.19 212.02 1391.19C215.633 1391.19 218.595 1391.89 220.906 1393.29C223.25 1394.66 225.122 1396.58 226.521 1399.05C227.954 1401.53 229.061 1404.42 229.842 1407.74C230.656 1411.03 231.339 1414.58 231.893 1418.39V1419.61C231.339 1423.19 230.574 1426.58 229.598 1429.77C228.654 1432.92 227.417 1435.72 225.887 1438.16C224.357 1440.61 222.436 1442.53 220.125 1443.93C217.846 1445.29 215.112 1445.98 211.922 1445.98C208.602 1445.98 205.607 1445.31 202.938 1443.97C200.301 1442.64 198.038 1440.77 196.15 1438.36C194.295 1435.95 192.863 1433.12 191.854 1429.86C190.877 1426.61 190.389 1423.06 190.389 1419.22ZM206.844 1418.19V1419.22C206.844 1421.2 207.023 1423.04 207.381 1424.74C207.771 1426.43 208.357 1427.93 209.139 1429.23C209.92 1430.5 210.88 1431.49 212.02 1432.21C213.191 1432.92 214.559 1433.28 216.121 1433.28C218.497 1433.28 220.418 1432.78 221.883 1431.77C223.348 1430.76 224.406 1429.33 225.057 1427.47C225.708 1425.62 225.984 1423.43 225.887 1420.93V1417.07C225.952 1414.92 225.805 1413.03 225.447 1411.41C225.089 1409.75 224.52 1408.36 223.738 1407.26C222.99 1406.15 221.98 1405.32 220.711 1404.77C219.474 1404.18 217.977 1403.89 216.219 1403.89C214.689 1403.89 213.338 1404.24 212.166 1404.96C210.994 1405.68 210.018 1406.69 209.236 1407.99C208.455 1409.26 207.853 1410.77 207.43 1412.53C207.039 1414.25 206.844 1416.14 206.844 1418.19ZM267.293 1392.17V1445H250.789V1392.17H267.293ZM249.812 1378.54C249.812 1376.2 250.659 1374.28 252.352 1372.78C254.044 1371.29 256.242 1370.54 258.943 1370.54C261.645 1370.54 263.842 1371.29 265.535 1372.78C267.228 1374.28 268.074 1376.2 268.074 1378.54C268.074 1380.89 267.228 1382.81 265.535 1384.31C263.842 1385.8 261.645 1386.55 258.943 1386.55C256.242 1386.55 254.044 1385.8 252.352 1384.31C250.659 1382.81 249.812 1380.89 249.812 1378.54ZM293.611 1403.45V1445H277.156V1392.17H292.586L293.611 1403.45ZM291.658 1416.78L287.801 1416.88C287.801 1412.84 288.289 1409.24 289.266 1406.08C290.242 1402.89 291.626 1400.19 293.416 1397.98C295.206 1395.76 297.339 1394.09 299.812 1392.95C302.319 1391.78 305.102 1391.19 308.162 1391.19C310.604 1391.19 312.833 1391.55 314.852 1392.27C316.902 1392.98 318.66 1394.14 320.125 1395.73C321.622 1397.33 322.762 1399.44 323.543 1402.08C324.357 1404.68 324.764 1407.91 324.764 1411.75V1445H308.211V1411.7C308.211 1409.58 307.918 1407.97 307.332 1406.87C306.746 1405.73 305.9 1404.94 304.793 1404.52C303.686 1404.1 302.335 1403.89 300.74 1403.89C299.048 1403.89 297.615 1404.21 296.443 1404.86C295.271 1405.51 294.327 1406.43 293.611 1407.6C292.928 1408.74 292.423 1410.09 292.098 1411.65C291.805 1413.21 291.658 1414.92 291.658 1416.78ZM359.48 1445.98C355.184 1445.98 351.342 1445.31 347.957 1443.97C344.572 1442.61 341.707 1440.74 339.363 1438.36C337.052 1435.98 335.278 1433.25 334.041 1430.16C332.837 1427.06 332.234 1423.79 332.234 1420.34V1418.49C332.234 1414.61 332.771 1411.03 333.846 1407.74C334.92 1404.42 336.515 1401.53 338.631 1399.05C340.747 1396.58 343.4 1394.66 346.59 1393.29C349.78 1391.89 353.491 1391.19 357.723 1391.19C361.466 1391.19 364.819 1391.79 367.781 1393C370.743 1394.2 373.25 1395.93 375.301 1398.17C377.384 1400.42 378.963 1403.14 380.037 1406.33C381.144 1409.52 381.697 1413.1 381.697 1417.07V1423.76H338.533V1413.46H365.633V1412.19C365.665 1410.43 365.356 1408.93 364.705 1407.7C364.087 1406.46 363.175 1405.51 361.971 1404.86C360.766 1404.21 359.301 1403.89 357.576 1403.89C355.786 1403.89 354.305 1404.28 353.133 1405.06C351.993 1405.84 351.098 1406.91 350.447 1408.28C349.829 1409.62 349.389 1411.16 349.129 1412.92C348.868 1414.68 348.738 1416.53 348.738 1418.49V1420.34C348.738 1422.29 348.999 1424.07 349.52 1425.66C350.073 1427.26 350.854 1428.63 351.863 1429.77C352.905 1430.87 354.142 1431.74 355.574 1432.35C357.039 1432.97 358.699 1433.28 360.555 1433.28C362.801 1433.28 365.014 1432.86 367.195 1432.01C369.376 1431.17 371.248 1429.77 372.811 1427.81L380.281 1436.7C379.207 1438.23 377.677 1439.71 375.691 1441.14C373.738 1442.57 371.395 1443.75 368.66 1444.66C365.926 1445.54 362.866 1445.98 359.48 1445.98Z" fill="white"/>
<rect x="669" y="1128" width="458" height="448" rx="40" fill="#2FA4DA"/>
<path d="M716.713 1328H700.941L701.039 1314.82H716.713C719.968 1314.82 722.719 1314.04 724.965 1312.47C727.243 1310.91 728.969 1308.58 730.141 1305.49C731.345 1302.37 731.947 1298.52 731.947 1293.97V1290.89C731.947 1287.47 731.605 1284.48 730.922 1281.91C730.271 1279.3 729.294 1277.14 727.992 1275.41C726.69 1273.65 725.062 1272.34 723.109 1271.46C721.189 1270.58 718.975 1270.14 716.469 1270.14H700.648V1256.91H716.469C721.286 1256.91 725.697 1257.74 729.701 1259.4C733.738 1261.02 737.221 1263.37 740.15 1266.43C743.113 1269.46 745.391 1273.05 746.986 1277.22C748.614 1281.35 749.428 1285.94 749.428 1290.99V1293.97C749.428 1298.98 748.614 1303.57 746.986 1307.74C745.391 1311.9 743.129 1315.5 740.199 1318.53C737.27 1321.55 733.803 1323.9 729.799 1325.56C725.827 1327.19 721.465 1328 716.713 1328ZM710.756 1256.91V1328H693.617V1256.91H710.756ZM785.023 1314.72V1292.94C785.023 1291.44 784.812 1290.16 784.389 1289.08C783.965 1288.01 783.298 1287.18 782.387 1286.59C781.475 1285.98 780.255 1285.67 778.725 1285.67C777.488 1285.67 776.43 1285.88 775.551 1286.3C774.672 1286.72 774.005 1287.36 773.549 1288.21C773.093 1289.05 772.865 1290.13 772.865 1291.43H756.41C756.41 1288.99 756.947 1286.72 758.021 1284.64C759.128 1282.52 760.691 1280.69 762.709 1279.12C764.76 1277.56 767.201 1276.36 770.033 1275.51C772.898 1274.63 776.088 1274.19 779.604 1274.19C783.803 1274.19 787.546 1274.89 790.834 1276.29C794.154 1277.69 796.775 1279.79 798.695 1282.59C800.616 1285.36 801.576 1288.84 801.576 1293.04V1314.67C801.576 1318.12 801.771 1320.74 802.162 1322.53C802.553 1324.29 803.106 1325.84 803.822 1327.17V1328H787.318C786.537 1326.37 785.951 1324.39 785.561 1322.04C785.202 1319.67 785.023 1317.23 785.023 1314.72ZM787.025 1295.72L787.123 1304.51H779.848C778.318 1304.51 777.016 1304.73 775.941 1305.15C774.9 1305.57 774.053 1306.16 773.402 1306.91C772.784 1307.62 772.328 1308.44 772.035 1309.35C771.775 1310.26 771.645 1311.22 771.645 1312.23C771.645 1313.21 771.872 1314.08 772.328 1314.87C772.816 1315.61 773.467 1316.2 774.281 1316.62C775.095 1317.05 776.007 1317.26 777.016 1317.26C778.839 1317.26 780.385 1316.92 781.654 1316.23C782.956 1315.52 783.949 1314.65 784.633 1313.64C785.316 1312.64 785.658 1311.69 785.658 1310.81L789.271 1317.55C788.62 1318.85 787.872 1320.17 787.025 1321.51C786.212 1322.84 785.186 1324.08 783.949 1325.22C782.745 1326.32 781.264 1327.24 779.506 1327.95C777.748 1328.63 775.616 1328.98 773.109 1328.98C769.854 1328.98 766.859 1328.31 764.125 1326.97C761.423 1325.64 759.258 1323.78 757.631 1321.41C756.003 1319 755.189 1316.23 755.189 1313.11C755.189 1310.37 755.678 1307.93 756.654 1305.78C757.663 1303.63 759.177 1301.81 761.195 1300.31C763.214 1298.82 765.785 1297.68 768.91 1296.9C772.035 1296.12 775.714 1295.72 779.945 1295.72H787.025ZM838.539 1275.17V1286.59H806.703V1275.17H838.539ZM813.393 1262.03H829.848V1310.76C829.848 1312.16 830.01 1313.25 830.336 1314.04C830.661 1314.78 831.215 1315.32 831.996 1315.65C832.81 1315.94 833.884 1316.09 835.219 1316.09C836.163 1316.09 836.944 1316.07 837.562 1316.04C838.181 1315.97 838.767 1315.89 839.32 1315.79V1327.56C837.921 1328.02 836.456 1328.36 834.926 1328.59C833.396 1328.85 831.768 1328.98 830.043 1328.98C826.527 1328.98 823.516 1328.42 821.01 1327.32C818.536 1326.21 816.648 1324.47 815.346 1322.09C814.044 1319.72 813.393 1316.62 813.393 1312.81V1262.03ZM872.523 1314.72V1292.94C872.523 1291.44 872.312 1290.16 871.889 1289.08C871.465 1288.01 870.798 1287.18 869.887 1286.59C868.975 1285.98 867.755 1285.67 866.225 1285.67C864.988 1285.67 863.93 1285.88 863.051 1286.3C862.172 1286.72 861.505 1287.36 861.049 1288.21C860.593 1289.05 860.365 1290.13 860.365 1291.43H843.91C843.91 1288.99 844.447 1286.72 845.521 1284.64C846.628 1282.52 848.191 1280.69 850.209 1279.12C852.26 1277.56 854.701 1276.36 857.533 1275.51C860.398 1274.63 863.588 1274.19 867.104 1274.19C871.303 1274.19 875.046 1274.89 878.334 1276.29C881.654 1277.69 884.275 1279.79 886.195 1282.59C888.116 1285.36 889.076 1288.84 889.076 1293.04V1314.67C889.076 1318.12 889.271 1320.74 889.662 1322.53C890.053 1324.29 890.606 1325.84 891.322 1327.17V1328H874.818C874.037 1326.37 873.451 1324.39 873.061 1322.04C872.702 1319.67 872.523 1317.23 872.523 1314.72ZM874.525 1295.72L874.623 1304.51H867.348C865.818 1304.51 864.516 1304.73 863.441 1305.15C862.4 1305.57 861.553 1306.16 860.902 1306.91C860.284 1307.62 859.828 1308.44 859.535 1309.35C859.275 1310.26 859.145 1311.22 859.145 1312.23C859.145 1313.21 859.372 1314.08 859.828 1314.87C860.316 1315.61 860.967 1316.2 861.781 1316.62C862.595 1317.05 863.507 1317.26 864.516 1317.26C866.339 1317.26 867.885 1316.92 869.154 1316.23C870.456 1315.52 871.449 1314.65 872.133 1313.64C872.816 1312.64 873.158 1311.69 873.158 1310.81L876.771 1317.55C876.12 1318.85 875.372 1320.17 874.525 1321.51C873.712 1322.84 872.686 1324.08 871.449 1325.22C870.245 1326.32 868.764 1327.24 867.006 1327.95C865.248 1328.63 863.116 1328.98 860.609 1328.98C857.354 1328.98 854.359 1328.31 851.625 1326.97C848.923 1325.64 846.758 1323.78 845.131 1321.41C843.503 1319 842.689 1316.23 842.689 1313.11C842.689 1310.37 843.178 1307.93 844.154 1305.78C845.163 1303.63 846.677 1301.81 848.695 1300.31C850.714 1298.82 853.285 1297.68 856.41 1296.9C859.535 1296.12 863.214 1295.72 867.445 1295.72H874.525ZM898.354 1253H914.809V1315.01L913.1 1328H898.354V1253ZM947.23 1301V1302.02C947.23 1306.03 946.824 1309.67 946.01 1312.96C945.196 1316.25 943.943 1319.1 942.25 1321.51C940.557 1323.88 938.425 1325.72 935.854 1327.02C933.282 1328.33 930.238 1328.98 926.723 1328.98C923.533 1328.98 920.798 1328.29 918.52 1326.93C916.241 1325.53 914.337 1323.61 912.807 1321.16C911.277 1318.69 910.04 1315.84 909.096 1312.62C908.152 1309.36 907.403 1305.88 906.85 1302.17V1300.95C907.403 1297.27 908.152 1293.82 909.096 1290.6C910.04 1287.34 911.277 1284.49 912.807 1282.05C914.337 1279.58 916.225 1277.66 918.471 1276.29C920.749 1274.89 923.467 1274.19 926.625 1274.19C930.173 1274.19 933.233 1274.86 935.805 1276.19C938.409 1277.53 940.557 1279.4 942.25 1281.81C943.943 1284.22 945.196 1287.05 946.01 1290.3C946.824 1293.56 947.23 1297.12 947.23 1301ZM930.775 1302.02V1301C930.775 1299.08 930.661 1297.27 930.434 1295.58C930.206 1293.89 929.799 1292.39 929.213 1291.09C928.627 1289.78 927.797 1288.76 926.723 1288.01C925.648 1287.26 924.249 1286.89 922.523 1286.89C920.766 1286.89 919.285 1287.18 918.08 1287.77C916.908 1288.35 915.964 1289.2 915.248 1290.3C914.564 1291.38 914.076 1292.71 913.783 1294.31C913.49 1295.87 913.36 1297.65 913.393 1299.63V1303.49C913.327 1306.19 913.572 1308.5 914.125 1310.42C914.678 1312.34 915.639 1313.81 917.006 1314.82C918.373 1315.83 920.245 1316.33 922.621 1316.33C924.379 1316.33 925.795 1315.99 926.869 1315.3C927.976 1314.62 928.806 1313.64 929.359 1312.38C929.913 1311.11 930.287 1309.59 930.482 1307.83C930.678 1306.08 930.775 1304.14 930.775 1302.02ZM981.996 1314.72V1292.94C981.996 1291.44 981.785 1290.16 981.361 1289.08C980.938 1288.01 980.271 1287.18 979.359 1286.59C978.448 1285.98 977.227 1285.67 975.697 1285.67C974.46 1285.67 973.402 1285.88 972.523 1286.3C971.645 1286.72 970.977 1287.36 970.521 1288.21C970.066 1289.05 969.838 1290.13 969.838 1291.43H953.383C953.383 1288.99 953.92 1286.72 954.994 1284.64C956.101 1282.52 957.663 1280.69 959.682 1279.12C961.732 1277.56 964.174 1276.36 967.006 1275.51C969.87 1274.63 973.061 1274.19 976.576 1274.19C980.775 1274.19 984.519 1274.89 987.807 1276.29C991.127 1277.69 993.747 1279.79 995.668 1282.59C997.589 1285.36 998.549 1288.84 998.549 1293.04V1314.67C998.549 1318.12 998.744 1320.74 999.135 1322.53C999.525 1324.29 1000.08 1325.84 1000.79 1327.17V1328H984.291C983.51 1326.37 982.924 1324.39 982.533 1322.04C982.175 1319.67 981.996 1317.23 981.996 1314.72ZM983.998 1295.72L984.096 1304.51H976.82C975.29 1304.51 973.988 1304.73 972.914 1305.15C971.872 1305.57 971.026 1306.16 970.375 1306.91C969.757 1307.62 969.301 1308.44 969.008 1309.35C968.747 1310.26 968.617 1311.22 968.617 1312.23C968.617 1313.21 968.845 1314.08 969.301 1314.87C969.789 1315.61 970.44 1316.2 971.254 1316.62C972.068 1317.05 972.979 1317.26 973.988 1317.26C975.811 1317.26 977.357 1316.92 978.627 1316.23C979.929 1315.52 980.922 1314.65 981.605 1313.64C982.289 1312.64 982.631 1311.69 982.631 1310.81L986.244 1317.55C985.593 1318.85 984.844 1320.17 983.998 1321.51C983.184 1322.84 982.159 1324.08 980.922 1325.22C979.717 1326.32 978.236 1327.24 976.479 1327.95C974.721 1328.63 972.589 1328.98 970.082 1328.98C966.827 1328.98 963.832 1328.31 961.098 1326.97C958.396 1325.64 956.231 1323.78 954.604 1321.41C952.976 1319 952.162 1316.23 952.162 1313.11C952.162 1310.37 952.65 1307.93 953.627 1305.78C954.636 1303.63 956.15 1301.81 958.168 1300.31C960.186 1298.82 962.758 1297.68 965.883 1296.9C969.008 1296.12 972.686 1295.72 976.918 1295.72H983.998ZM1035.37 1313.16C1035.37 1312.24 1035.06 1311.46 1034.44 1310.81C1033.85 1310.13 1032.81 1309.51 1031.31 1308.96C1029.82 1308.37 1027.72 1307.79 1025.01 1307.2C1022.44 1306.65 1020.02 1305.91 1017.74 1305C1015.49 1304.09 1013.52 1302.98 1011.83 1301.68C1010.14 1300.38 1008.8 1298.83 1007.83 1297.04C1006.88 1295.25 1006.41 1293.2 1006.41 1290.89C1006.41 1288.64 1006.88 1286.53 1007.83 1284.54C1008.8 1282.52 1010.22 1280.75 1012.07 1279.22C1013.96 1277.66 1016.26 1276.44 1018.96 1275.56C1021.66 1274.65 1024.74 1274.19 1028.19 1274.19C1032.94 1274.19 1037.04 1274.92 1040.49 1276.39C1043.94 1277.82 1046.6 1279.84 1048.45 1282.44C1050.34 1285.01 1051.28 1287.99 1051.28 1291.38H1034.83C1034.83 1290.04 1034.6 1288.9 1034.14 1287.96C1033.72 1287.02 1033.02 1286.3 1032.04 1285.81C1031.07 1285.29 1029.77 1285.03 1028.14 1285.03C1027 1285.03 1025.96 1285.24 1025.01 1285.67C1024.1 1286.09 1023.37 1286.68 1022.82 1287.42C1022.26 1288.17 1021.99 1289.05 1021.99 1290.06C1021.99 1290.78 1022.15 1291.43 1022.47 1292.01C1022.83 1292.57 1023.37 1293.09 1024.09 1293.58C1024.8 1294.03 1025.71 1294.46 1026.82 1294.85C1027.93 1295.2 1029.26 1295.53 1030.82 1295.82C1034.37 1296.47 1037.69 1297.4 1040.79 1298.61C1043.88 1299.81 1046.38 1301.52 1048.3 1303.73C1050.26 1305.95 1051.23 1308.92 1051.23 1312.67C1051.23 1315.01 1050.7 1317.18 1049.62 1319.16C1048.55 1321.12 1047 1322.84 1044.98 1324.34C1042.97 1325.8 1040.54 1326.94 1037.71 1327.76C1034.88 1328.57 1031.69 1328.98 1028.14 1328.98C1023.09 1328.98 1018.83 1328.08 1015.35 1326.29C1011.86 1324.47 1009.23 1322.19 1007.44 1319.46C1005.68 1316.69 1004.8 1313.89 1004.8 1311.06H1020.13C1020.2 1312.68 1020.59 1314.02 1021.3 1315.06C1022.05 1316.1 1023.04 1316.87 1024.28 1317.36C1025.52 1317.84 1026.95 1318.09 1028.58 1318.09C1030.08 1318.09 1031.31 1317.88 1032.29 1317.45C1033.3 1317.03 1034.06 1316.46 1034.58 1315.74C1035.1 1315 1035.37 1314.13 1035.37 1313.16ZM1084.54 1328.98C1080.24 1328.98 1076.4 1328.31 1073.01 1326.97C1069.63 1325.61 1066.76 1323.74 1064.42 1321.36C1062.11 1318.98 1060.33 1316.25 1059.1 1313.16C1057.89 1310.06 1057.29 1306.79 1057.29 1303.34V1301.49C1057.29 1297.61 1057.83 1294.03 1058.9 1290.74C1059.97 1287.42 1061.57 1284.53 1063.69 1282.05C1065.8 1279.58 1068.45 1277.66 1071.64 1276.29C1074.83 1274.89 1078.55 1274.19 1082.78 1274.19C1086.52 1274.19 1089.87 1274.79 1092.84 1276C1095.8 1277.2 1098.3 1278.93 1100.36 1281.17C1102.44 1283.42 1104.02 1286.14 1105.09 1289.33C1106.2 1292.52 1106.75 1296.1 1106.75 1300.07V1306.76H1063.59V1296.46H1090.69V1295.19C1090.72 1293.43 1090.41 1291.93 1089.76 1290.7C1089.14 1289.46 1088.23 1288.51 1087.03 1287.86C1085.82 1287.21 1084.36 1286.89 1082.63 1286.89C1080.84 1286.89 1079.36 1287.28 1078.19 1288.06C1077.05 1288.84 1076.15 1289.91 1075.5 1291.28C1074.88 1292.62 1074.44 1294.16 1074.18 1295.92C1073.92 1297.68 1073.79 1299.53 1073.79 1301.49V1303.34C1073.79 1305.29 1074.05 1307.07 1074.57 1308.66C1075.13 1310.26 1075.91 1311.63 1076.92 1312.77C1077.96 1313.87 1079.2 1314.74 1080.63 1315.35C1082.09 1315.97 1083.75 1316.28 1085.61 1316.28C1087.86 1316.28 1090.07 1315.86 1092.25 1315.01C1094.43 1314.17 1096.3 1312.77 1097.87 1310.81L1105.34 1319.7C1104.26 1321.23 1102.73 1322.71 1100.75 1324.14C1098.79 1325.57 1096.45 1326.75 1093.71 1327.66C1090.98 1328.54 1087.92 1328.98 1084.54 1328.98ZM798.598 1431.82V1445H760.707V1431.82H798.598ZM766.811 1373.91V1445H749.672V1373.91H766.811ZM793.715 1402.13V1414.87H760.707V1402.13H793.715ZM798.744 1373.91V1387.14H760.707V1373.91H798.744ZM821.01 1403.45V1445H804.555V1392.17H819.984L821.01 1403.45ZM819.057 1416.78L815.199 1416.88C815.199 1412.84 815.688 1409.24 816.664 1406.08C817.641 1402.89 819.024 1400.19 820.814 1397.98C822.605 1395.76 824.737 1394.09 827.211 1392.95C829.717 1391.78 832.501 1391.19 835.561 1391.19C838.002 1391.19 840.232 1391.55 842.25 1392.27C844.301 1392.98 846.059 1394.14 847.523 1395.73C849.021 1397.33 850.16 1399.44 850.941 1402.08C851.755 1404.68 852.162 1407.91 852.162 1411.75V1445H835.609V1411.7C835.609 1409.58 835.316 1407.97 834.73 1406.87C834.145 1405.73 833.298 1404.94 832.191 1404.52C831.085 1404.1 829.734 1403.89 828.139 1403.89C826.446 1403.89 825.014 1404.21 823.842 1404.86C822.67 1405.51 821.726 1406.43 821.01 1407.6C820.326 1408.74 819.822 1410.09 819.496 1411.65C819.203 1413.21 819.057 1414.92 819.057 1416.78ZM894.496 1392.17H909.438V1442.95C909.438 1447.83 908.314 1451.97 906.068 1455.35C903.822 1458.77 900.681 1461.36 896.645 1463.12C892.641 1464.91 887.953 1465.8 882.582 1465.8C880.206 1465.8 877.781 1465.49 875.307 1464.87C872.833 1464.29 870.521 1463.41 868.373 1462.24C866.225 1461.06 864.418 1459.62 862.953 1457.89L869.838 1448.22C871.173 1449.72 872.849 1450.99 874.867 1452.03C876.885 1453.11 879.262 1453.64 881.996 1453.64C884.372 1453.64 886.358 1453.22 887.953 1452.37C889.581 1451.53 890.818 1450.29 891.664 1448.66C892.51 1447.07 892.934 1445.13 892.934 1442.85V1404.67L894.496 1392.17ZM859.389 1419.22V1418.19C859.389 1414.19 859.877 1410.54 860.854 1407.26C861.863 1403.94 863.295 1401.09 865.15 1398.71C867.038 1396.3 869.317 1394.45 871.986 1393.14C874.656 1391.84 877.667 1391.19 881.02 1391.19C884.633 1391.19 887.595 1391.89 889.906 1393.29C892.25 1394.66 894.122 1396.58 895.521 1399.05C896.954 1401.53 898.061 1404.42 898.842 1407.74C899.656 1411.03 900.339 1414.58 900.893 1418.39V1419.61C900.339 1423.19 899.574 1426.58 898.598 1429.77C897.654 1432.92 896.417 1435.72 894.887 1438.16C893.357 1440.61 891.436 1442.53 889.125 1443.93C886.846 1445.29 884.112 1445.98 880.922 1445.98C877.602 1445.98 874.607 1445.31 871.938 1443.97C869.301 1442.64 867.038 1440.77 865.15 1438.36C863.295 1435.95 861.863 1433.12 860.854 1429.86C859.877 1426.61 859.389 1423.06 859.389 1419.22ZM875.844 1418.19V1419.22C875.844 1421.2 876.023 1423.04 876.381 1424.74C876.771 1426.43 877.357 1427.93 878.139 1429.23C878.92 1430.5 879.88 1431.49 881.02 1432.21C882.191 1432.92 883.559 1433.28 885.121 1433.28C887.497 1433.28 889.418 1432.78 890.883 1431.77C892.348 1430.76 893.406 1429.33 894.057 1427.47C894.708 1425.62 894.984 1423.43 894.887 1420.93V1417.07C894.952 1414.92 894.805 1413.03 894.447 1411.41C894.089 1409.75 893.52 1408.36 892.738 1407.26C891.99 1406.15 890.98 1405.32 889.711 1404.77C888.474 1404.18 886.977 1403.89 885.219 1403.89C883.689 1403.89 882.338 1404.24 881.166 1404.96C879.994 1405.68 879.018 1406.69 878.236 1407.99C877.455 1409.26 876.853 1410.77 876.43 1412.53C876.039 1414.25 875.844 1416.14 875.844 1418.19ZM936.293 1392.17V1445H919.789V1392.17H936.293ZM918.812 1378.54C918.812 1376.2 919.659 1374.28 921.352 1372.78C923.044 1371.29 925.242 1370.54 927.943 1370.54C930.645 1370.54 932.842 1371.29 934.535 1372.78C936.228 1374.28 937.074 1376.2 937.074 1378.54C937.074 1380.89 936.228 1382.81 934.535 1384.31C932.842 1385.8 930.645 1386.55 927.943 1386.55C925.242 1386.55 923.044 1385.8 921.352 1384.31C919.659 1382.81 918.812 1380.89 918.812 1378.54ZM962.611 1403.45V1445H946.156V1392.17H961.586L962.611 1403.45ZM960.658 1416.78L956.801 1416.88C956.801 1412.84 957.289 1409.24 958.266 1406.08C959.242 1402.89 960.626 1400.19 962.416 1397.98C964.206 1395.76 966.339 1394.09 968.812 1392.95C971.319 1391.78 974.102 1391.19 977.162 1391.19C979.604 1391.19 981.833 1391.55 983.852 1392.27C985.902 1392.98 987.66 1394.14 989.125 1395.73C990.622 1397.33 991.762 1399.44 992.543 1402.08C993.357 1404.68 993.764 1407.91 993.764 1411.75V1445H977.211V1411.7C977.211 1409.58 976.918 1407.97 976.332 1406.87C975.746 1405.73 974.9 1404.94 973.793 1404.52C972.686 1404.1 971.335 1403.89 969.74 1403.89C968.048 1403.89 966.615 1404.21 965.443 1404.86C964.271 1405.51 963.327 1406.43 962.611 1407.6C961.928 1408.74 961.423 1410.09 961.098 1411.65C960.805 1413.21 960.658 1414.92 960.658 1416.78ZM1028.48 1445.98C1024.18 1445.98 1020.34 1445.31 1016.96 1443.97C1013.57 1442.61 1010.71 1440.74 1008.36 1438.36C1006.05 1435.98 1004.28 1433.25 1003.04 1430.16C1001.84 1427.06 1001.23 1423.79 1001.23 1420.34V1418.49C1001.23 1414.61 1001.77 1411.03 1002.85 1407.74C1003.92 1404.42 1005.51 1401.53 1007.63 1399.05C1009.75 1396.58 1012.4 1394.66 1015.59 1393.29C1018.78 1391.89 1022.49 1391.19 1026.72 1391.19C1030.47 1391.19 1033.82 1391.79 1036.78 1393C1039.74 1394.2 1042.25 1395.93 1044.3 1398.17C1046.38 1400.42 1047.96 1403.14 1049.04 1406.33C1050.14 1409.52 1050.7 1413.1 1050.7 1417.07V1423.76H1007.53V1413.46H1034.63V1412.19C1034.67 1410.43 1034.36 1408.93 1033.71 1407.7C1033.09 1406.46 1032.18 1405.51 1030.97 1404.86C1029.77 1404.21 1028.3 1403.89 1026.58 1403.89C1024.79 1403.89 1023.3 1404.28 1022.13 1405.06C1020.99 1405.84 1020.1 1406.91 1019.45 1408.28C1018.83 1409.62 1018.39 1411.16 1018.13 1412.92C1017.87 1414.68 1017.74 1416.53 1017.74 1418.49V1420.34C1017.74 1422.29 1018 1424.07 1018.52 1425.66C1019.07 1427.26 1019.85 1428.63 1020.86 1429.77C1021.9 1430.87 1023.14 1431.74 1024.57 1432.35C1026.04 1432.97 1027.7 1433.28 1029.55 1433.28C1031.8 1433.28 1034.01 1432.86 1036.2 1432.01C1038.38 1431.17 1040.25 1429.77 1041.81 1427.81L1049.28 1436.7C1048.21 1438.23 1046.68 1439.71 1044.69 1441.14C1042.74 1442.57 1040.39 1443.75 1037.66 1444.66C1034.93 1445.54 1031.87 1445.98 1028.48 1445.98Z" fill="white"/>
<rect x="1340" y="1128" width="458" height="448" rx="40" fill="#2FA4DA"/>
<path d="M1461.93 1309.1C1461.93 1308 1461.77 1307 1461.44 1306.12C1461.12 1305.21 1460.52 1304.37 1459.64 1303.59C1458.76 1302.8 1457.49 1302.02 1455.83 1301.24C1454.2 1300.43 1452.05 1299.58 1449.38 1298.7C1446.26 1297.66 1443.25 1296.49 1440.35 1295.19C1437.45 1293.85 1434.86 1292.31 1432.59 1290.55C1430.31 1288.76 1428.5 1286.68 1427.17 1284.3C1425.83 1281.89 1425.16 1279.09 1425.16 1275.9C1425.16 1272.84 1425.85 1270.09 1427.21 1267.65C1428.58 1265.17 1430.49 1263.07 1432.93 1261.35C1435.4 1259.59 1438.3 1258.26 1441.62 1257.35C1444.94 1256.4 1448.57 1255.93 1452.51 1255.93C1457.72 1255.93 1462.31 1256.84 1466.28 1258.66C1470.28 1260.45 1473.41 1263.01 1475.65 1266.33C1477.93 1269.62 1479.07 1273.51 1479.07 1278H1462.03C1462.03 1276.21 1461.65 1274.63 1460.91 1273.26C1460.19 1271.9 1459.1 1270.82 1457.63 1270.04C1456.17 1269.26 1454.33 1268.87 1452.12 1268.87C1449.97 1268.87 1448.16 1269.19 1446.7 1269.85C1445.23 1270.5 1444.13 1271.38 1443.38 1272.48C1442.63 1273.56 1442.25 1274.74 1442.25 1276.05C1442.25 1277.12 1442.55 1278.1 1443.13 1278.98C1443.75 1279.82 1444.61 1280.62 1445.72 1281.37C1446.86 1282.12 1448.23 1282.83 1449.82 1283.52C1451.45 1284.2 1453.27 1284.87 1455.29 1285.52C1459.07 1286.72 1462.42 1288.07 1465.35 1289.57C1468.31 1291.04 1470.8 1292.71 1472.82 1294.6C1474.87 1296.46 1476.42 1298.57 1477.46 1300.95C1478.53 1303.33 1479.07 1306.01 1479.07 1309.01C1479.07 1312.2 1478.45 1315.03 1477.21 1317.5C1475.98 1319.98 1474.2 1322.08 1471.89 1323.8C1469.58 1325.49 1466.81 1326.78 1463.59 1327.66C1460.37 1328.54 1456.77 1328.98 1452.8 1328.98C1449.15 1328.98 1445.56 1328.52 1442.01 1327.61C1438.49 1326.67 1435.3 1325.23 1432.44 1323.31C1429.57 1321.36 1427.28 1318.87 1425.55 1315.84C1423.86 1312.78 1423.02 1309.15 1423.02 1304.95H1440.2C1440.2 1307.04 1440.48 1308.79 1441.03 1310.23C1441.59 1311.66 1442.4 1312.81 1443.47 1313.69C1444.55 1314.54 1445.87 1315.16 1447.43 1315.55C1448.99 1315.91 1450.78 1316.09 1452.8 1316.09C1454.98 1316.09 1456.74 1315.78 1458.07 1315.16C1459.41 1314.51 1460.39 1313.66 1461 1312.62C1461.62 1311.54 1461.93 1310.37 1461.93 1309.1ZM1512.71 1328.98C1508.42 1328.98 1504.57 1328.31 1501.19 1326.97C1497.8 1325.61 1494.94 1323.74 1492.6 1321.36C1490.28 1318.98 1488.51 1316.25 1487.27 1313.16C1486.07 1310.06 1485.47 1306.79 1485.47 1303.34V1301.49C1485.47 1297.61 1486 1294.03 1487.08 1290.74C1488.15 1287.42 1489.75 1284.53 1491.86 1282.05C1493.98 1279.58 1496.63 1277.66 1499.82 1276.29C1503.01 1274.89 1506.72 1274.19 1510.96 1274.19C1514.7 1274.19 1518.05 1274.79 1521.01 1276C1523.98 1277.2 1526.48 1278.93 1528.53 1281.17C1530.62 1283.42 1532.2 1286.14 1533.27 1289.33C1534.38 1292.52 1534.93 1296.1 1534.93 1300.07V1306.76H1491.77V1296.46H1518.87V1295.19C1518.9 1293.43 1518.59 1291.93 1517.94 1290.7C1517.32 1289.46 1516.41 1288.51 1515.2 1287.86C1514 1287.21 1512.53 1286.89 1510.81 1286.89C1509.02 1286.89 1507.54 1287.28 1506.37 1288.06C1505.23 1288.84 1504.33 1289.91 1503.68 1291.28C1503.06 1292.62 1502.62 1294.16 1502.36 1295.92C1502.1 1297.68 1501.97 1299.53 1501.97 1301.49V1303.34C1501.97 1305.29 1502.23 1307.07 1502.75 1308.66C1503.31 1310.26 1504.09 1311.63 1505.1 1312.77C1506.14 1313.87 1507.37 1314.74 1508.81 1315.35C1510.27 1315.97 1511.93 1316.28 1513.79 1316.28C1516.03 1316.28 1518.25 1315.86 1520.43 1315.01C1522.61 1314.17 1524.48 1312.77 1526.04 1310.81L1533.51 1319.7C1532.44 1321.23 1530.91 1322.71 1528.92 1324.14C1526.97 1325.57 1524.63 1326.75 1521.89 1327.66C1519.16 1328.54 1516.1 1328.98 1512.71 1328.98ZM1558.22 1288.25V1328H1541.77V1275.17H1557.15L1558.22 1288.25ZM1573.85 1274.78L1573.55 1290.06C1572.9 1290 1572.02 1289.91 1570.92 1289.82C1569.81 1289.72 1568.88 1289.67 1568.13 1289.67C1566.21 1289.67 1564.55 1289.9 1563.15 1290.35C1561.79 1290.78 1560.65 1291.43 1559.73 1292.31C1558.86 1293.15 1558.2 1294.23 1557.78 1295.53C1557.39 1296.83 1557.21 1298.35 1557.24 1300.07L1554.27 1298.12C1554.27 1294.57 1554.61 1291.35 1555.29 1288.45C1556.01 1285.52 1557.02 1283 1558.32 1280.88C1559.62 1278.73 1561.2 1277.09 1563.05 1275.95C1564.91 1274.78 1566.99 1274.19 1569.3 1274.19C1570.12 1274.19 1570.92 1274.24 1571.7 1274.34C1572.51 1274.44 1573.23 1274.58 1573.85 1274.78ZM1599.43 1316.72L1609.83 1275.17H1627.17L1609.88 1328H1599.63L1599.43 1316.72ZM1593.28 1275.17L1603.53 1316.72L1603.44 1328H1593.13L1575.9 1275.17H1593.28ZM1656.95 1328.98C1652.65 1328.98 1648.81 1328.31 1645.43 1326.97C1642.04 1325.61 1639.18 1323.74 1636.83 1321.36C1634.52 1318.98 1632.75 1316.25 1631.51 1313.16C1630.31 1310.06 1629.71 1306.79 1629.71 1303.34V1301.49C1629.71 1297.61 1630.24 1294.03 1631.32 1290.74C1632.39 1287.42 1633.99 1284.53 1636.1 1282.05C1638.22 1279.58 1640.87 1277.66 1644.06 1276.29C1647.25 1274.89 1650.96 1274.19 1655.19 1274.19C1658.94 1274.19 1662.29 1274.79 1665.25 1276C1668.21 1277.2 1670.72 1278.93 1672.77 1281.17C1674.85 1283.42 1676.43 1286.14 1677.51 1289.33C1678.61 1292.52 1679.17 1296.1 1679.17 1300.07V1306.76H1636V1296.46H1663.1V1295.19C1663.14 1293.43 1662.83 1291.93 1662.18 1290.7C1661.56 1289.46 1660.65 1288.51 1659.44 1287.86C1658.24 1287.21 1656.77 1286.89 1655.05 1286.89C1653.26 1286.89 1651.78 1287.28 1650.6 1288.06C1649.46 1288.84 1648.57 1289.91 1647.92 1291.28C1647.3 1292.62 1646.86 1294.16 1646.6 1295.92C1646.34 1297.68 1646.21 1299.53 1646.21 1301.49V1303.34C1646.21 1305.29 1646.47 1307.07 1646.99 1308.66C1647.54 1310.26 1648.32 1311.63 1649.33 1312.77C1650.38 1313.87 1651.61 1314.74 1653.04 1315.35C1654.51 1315.97 1656.17 1316.28 1658.03 1316.28C1660.27 1316.28 1662.49 1315.86 1664.67 1315.01C1666.85 1314.17 1668.72 1312.77 1670.28 1310.81L1677.75 1319.7C1676.68 1321.23 1675.15 1322.71 1673.16 1324.14C1671.21 1325.57 1668.87 1326.75 1666.13 1327.66C1663.4 1328.54 1660.34 1328.98 1656.95 1328.98ZM1702.46 1288.25V1328H1686V1275.17H1701.38L1702.46 1288.25ZM1718.08 1274.78L1717.79 1290.06C1717.14 1290 1716.26 1289.91 1715.15 1289.82C1714.05 1289.72 1713.12 1289.67 1712.37 1289.67C1710.45 1289.67 1708.79 1289.9 1707.39 1290.35C1706.02 1290.78 1704.88 1291.43 1703.97 1292.31C1703.09 1293.15 1702.44 1294.23 1702.02 1295.53C1701.63 1296.83 1701.45 1298.35 1701.48 1300.07L1698.5 1298.12C1698.5 1294.57 1698.85 1291.35 1699.53 1288.45C1700.25 1285.52 1701.25 1283 1702.56 1280.88C1703.86 1278.73 1705.44 1277.09 1707.29 1275.95C1709.15 1274.78 1711.23 1274.19 1713.54 1274.19C1714.36 1274.19 1715.15 1274.24 1715.94 1274.34C1716.75 1274.44 1717.47 1274.58 1718.08 1274.78ZM1469.6 1431.82V1445H1431.71V1431.82H1469.6ZM1437.81 1373.91V1445H1420.67V1373.91H1437.81ZM1464.71 1402.13V1414.87H1431.71V1402.13H1464.71ZM1469.74 1373.91V1387.14H1431.71V1373.91H1469.74ZM1492.01 1403.45V1445H1475.55V1392.17H1490.98L1492.01 1403.45ZM1490.06 1416.78L1486.2 1416.88C1486.2 1412.84 1486.69 1409.24 1487.66 1406.08C1488.64 1402.89 1490.02 1400.19 1491.81 1397.98C1493.6 1395.76 1495.74 1394.09 1498.21 1392.95C1500.72 1391.78 1503.5 1391.19 1506.56 1391.19C1509 1391.19 1511.23 1391.55 1513.25 1392.27C1515.3 1392.98 1517.06 1394.14 1518.52 1395.73C1520.02 1397.33 1521.16 1399.44 1521.94 1402.08C1522.76 1404.68 1523.16 1407.91 1523.16 1411.75V1445H1506.61V1411.7C1506.61 1409.58 1506.32 1407.97 1505.73 1406.87C1505.14 1405.73 1504.3 1404.94 1503.19 1404.52C1502.08 1404.1 1500.73 1403.89 1499.14 1403.89C1497.45 1403.89 1496.01 1404.21 1494.84 1404.86C1493.67 1405.51 1492.73 1406.43 1492.01 1407.6C1491.33 1408.74 1490.82 1410.09 1490.5 1411.65C1490.2 1413.21 1490.06 1414.92 1490.06 1416.78ZM1565.5 1392.17H1580.44V1442.95C1580.44 1447.83 1579.31 1451.97 1577.07 1455.35C1574.82 1458.77 1571.68 1461.36 1567.64 1463.12C1563.64 1464.91 1558.95 1465.8 1553.58 1465.8C1551.21 1465.8 1548.78 1465.49 1546.31 1464.87C1543.83 1464.29 1541.52 1463.41 1539.37 1462.24C1537.22 1461.06 1535.42 1459.62 1533.95 1457.89L1540.84 1448.22C1542.17 1449.72 1543.85 1450.99 1545.87 1452.03C1547.89 1453.11 1550.26 1453.64 1553 1453.64C1555.37 1453.64 1557.36 1453.22 1558.95 1452.37C1560.58 1451.53 1561.82 1450.29 1562.66 1448.66C1563.51 1447.07 1563.93 1445.13 1563.93 1442.85V1404.67L1565.5 1392.17ZM1530.39 1419.22V1418.19C1530.39 1414.19 1530.88 1410.54 1531.85 1407.26C1532.86 1403.94 1534.29 1401.09 1536.15 1398.71C1538.04 1396.3 1540.32 1394.45 1542.99 1393.14C1545.66 1391.84 1548.67 1391.19 1552.02 1391.19C1555.63 1391.19 1558.6 1391.89 1560.91 1393.29C1563.25 1394.66 1565.12 1396.58 1566.52 1399.05C1567.95 1401.53 1569.06 1404.42 1569.84 1407.74C1570.66 1411.03 1571.34 1414.58 1571.89 1418.39V1419.61C1571.34 1423.19 1570.57 1426.58 1569.6 1429.77C1568.65 1432.92 1567.42 1435.72 1565.89 1438.16C1564.36 1440.61 1562.44 1442.53 1560.12 1443.93C1557.85 1445.29 1555.11 1445.98 1551.92 1445.98C1548.6 1445.98 1545.61 1445.31 1542.94 1443.97C1540.3 1442.64 1538.04 1440.77 1536.15 1438.36C1534.29 1435.95 1532.86 1433.12 1531.85 1429.86C1530.88 1426.61 1530.39 1423.06 1530.39 1419.22ZM1546.84 1418.19V1419.22C1546.84 1421.2 1547.02 1423.04 1547.38 1424.74C1547.77 1426.43 1548.36 1427.93 1549.14 1429.23C1549.92 1430.5 1550.88 1431.49 1552.02 1432.21C1553.19 1432.92 1554.56 1433.28 1556.12 1433.28C1558.5 1433.28 1560.42 1432.78 1561.88 1431.77C1563.35 1430.76 1564.41 1429.33 1565.06 1427.47C1565.71 1425.62 1565.98 1423.43 1565.89 1420.93V1417.07C1565.95 1414.92 1565.81 1413.03 1565.45 1411.41C1565.09 1409.75 1564.52 1408.36 1563.74 1407.26C1562.99 1406.15 1561.98 1405.32 1560.71 1404.77C1559.47 1404.18 1557.98 1403.89 1556.22 1403.89C1554.69 1403.89 1553.34 1404.24 1552.17 1404.96C1550.99 1405.68 1550.02 1406.69 1549.24 1407.99C1548.46 1409.26 1547.85 1410.77 1547.43 1412.53C1547.04 1414.25 1546.84 1416.14 1546.84 1418.19ZM1607.29 1392.17V1445H1590.79V1392.17H1607.29ZM1589.81 1378.54C1589.81 1376.2 1590.66 1374.28 1592.35 1372.78C1594.04 1371.29 1596.24 1370.54 1598.94 1370.54C1601.65 1370.54 1603.84 1371.29 1605.54 1372.78C1607.23 1374.28 1608.07 1376.2 1608.07 1378.54C1608.07 1380.89 1607.23 1382.81 1605.54 1384.31C1603.84 1385.8 1601.65 1386.55 1598.94 1386.55C1596.24 1386.55 1594.04 1385.8 1592.35 1384.31C1590.66 1382.81 1589.81 1380.89 1589.81 1378.54ZM1633.61 1403.45V1445H1617.16V1392.17H1632.59L1633.61 1403.45ZM1631.66 1416.78L1627.8 1416.88C1627.8 1412.84 1628.29 1409.24 1629.27 1406.08C1630.24 1402.89 1631.63 1400.19 1633.42 1397.98C1635.21 1395.76 1637.34 1394.09 1639.81 1392.95C1642.32 1391.78 1645.1 1391.19 1648.16 1391.19C1650.6 1391.19 1652.83 1391.55 1654.85 1392.27C1656.9 1392.98 1658.66 1394.14 1660.12 1395.73C1661.62 1397.33 1662.76 1399.44 1663.54 1402.08C1664.36 1404.68 1664.76 1407.91 1664.76 1411.75V1445H1648.21V1411.7C1648.21 1409.58 1647.92 1407.97 1647.33 1406.87C1646.75 1405.73 1645.9 1404.94 1644.79 1404.52C1643.69 1404.1 1642.34 1403.89 1640.74 1403.89C1639.05 1403.89 1637.62 1404.21 1636.44 1404.86C1635.27 1405.51 1634.33 1406.43 1633.61 1407.6C1632.93 1408.74 1632.42 1410.09 1632.1 1411.65C1631.8 1413.21 1631.66 1414.92 1631.66 1416.78ZM1699.48 1445.98C1695.18 1445.98 1691.34 1445.31 1687.96 1443.97C1684.57 1442.61 1681.71 1440.74 1679.36 1438.36C1677.05 1435.98 1675.28 1433.25 1674.04 1430.16C1672.84 1427.06 1672.23 1423.79 1672.23 1420.34V1418.49C1672.23 1414.61 1672.77 1411.03 1673.85 1407.74C1674.92 1404.42 1676.51 1401.53 1678.63 1399.05C1680.75 1396.58 1683.4 1394.66 1686.59 1393.29C1689.78 1391.89 1693.49 1391.19 1697.72 1391.19C1701.47 1391.19 1704.82 1391.79 1707.78 1393C1710.74 1394.2 1713.25 1395.93 1715.3 1398.17C1717.38 1400.42 1718.96 1403.14 1720.04 1406.33C1721.14 1409.52 1721.7 1413.1 1721.7 1417.07V1423.76H1678.53V1413.46H1705.63V1412.19C1705.67 1410.43 1705.36 1408.93 1704.71 1407.7C1704.09 1406.46 1703.18 1405.51 1701.97 1404.86C1700.77 1404.21 1699.3 1403.89 1697.58 1403.89C1695.79 1403.89 1694.3 1404.28 1693.13 1405.06C1691.99 1405.84 1691.1 1406.91 1690.45 1408.28C1689.83 1409.62 1689.39 1411.16 1689.13 1412.92C1688.87 1414.68 1688.74 1416.53 1688.74 1418.49V1420.34C1688.74 1422.29 1689 1424.07 1689.52 1425.66C1690.07 1427.26 1690.85 1428.63 1691.86 1429.77C1692.9 1430.87 1694.14 1431.74 1695.57 1432.35C1697.04 1432.97 1698.7 1433.28 1700.55 1433.28C1702.8 1433.28 1705.01 1432.86 1707.2 1432.01C1709.38 1431.17 1711.25 1429.77 1712.81 1427.81L1720.28 1436.7C1719.21 1438.23 1717.68 1439.71 1715.69 1441.14C1713.74 1442.57 1711.39 1443.75 1708.66 1444.66C1705.93 1445.54 1702.87 1445.98 1699.48 1445.98Z" fill="white"/>
<path d="M630 1352L530 1294.26V1409.74L630 1352ZM484 1362H540V1342H484V1362Z" fill="#888888"/>
<path d="M1298 1352L1198 1294.26V1409.74L1298 1352ZM1152 1362H1208V1342H1152V1362Z" fill="#888888"/>
</g>
</g>
<defs>
<linearGradient id="paint0_linear_524_2" x1="652.532" y1="711.131" x2="1151.47" y2="711.131" gradientUnits="userSpaceOnUse">
<stop stop-color="#D07839"/>
</linearGradient>
<linearGradient id="paint1_linear_524_2" x1="1120.81" y1="596.226" x2="1185.3" y2="596.226" gradientUnits="userSpaceOnUse">
<stop stop-color="#74401B"/>
</linearGradient>
<clipPath id="clip0_524_2">
<rect width="1798" height="1600" fill="white"/>
</clipPath>
<clipPath id="clip1_524_2">
<rect width="1798" height="448" fill="white" transform="translate(0 1128)"/>
</clipPath>
</defs>
</svg>
