<svg version="1.1" viewBox="0.0 0.0 492.0 572.0" fill="none" stroke="none" stroke-linecap="square" stroke-miterlimit="10" xmlns:xlink="http://www.w3.org/1999/xlink" xmlns="http://www.w3.org/2000/svg"><clipPath id="p.0"><path d="m0 0l960.0 0l0 720.0l-960.0 0l0 -720.0z" clip-rule="nonzero"/></clipPath><g clip-path="url(#p.0)"><path fill="#000000" fill-opacity="0.0" d="m0 0l960.0 0l0 720.0l-960.0 0z" fill-rule="evenodd"/><path fill="#000000" fill-opacity="0.0" d="m273.58887 24.03937l54.992126 0l0 42.015747l-54.992126 0z" fill-rule="evenodd"/><path fill="#888888" d="m288.167 44.349995l3.46875 -6.65625l1.984375 0l-4.578125 8.3125l0 4.953125l-1.75 0l0 -4.953125l-4.5625 -8.3125l2.0 0l3.4375 6.65625zm10.393494 6.796875q-2.0 0 -3.265625 -1.3125q-1.25 -1.328125 -1.25 -3.53125l0 -0.3125q0 -1.46875 0.5625 -2.609375q0.5625 -1.15625 1.5625 -1.796875q1.015625 -0.65625 2.1875 -0.65625q1.921875 0 2.984375 1.265625q1.0625 1.265625 1.0625 3.625l0 0.6875l-6.671875 0q0.03125 1.46875 0.84375 2.375q0.828125 0.890625 2.078125 0.890625q0.890625 0 1.515625 -0.359375q0.625 -0.375 1.078125 -0.96875l1.03125 0.796875q-1.234375 1.90625 -3.71875 1.90625zm-0.203125 -8.84375q-1.015625 0 -1.71875 0.75q-0.6875 0.734375 -0.84375 2.078125l4.9375 0l0 -0.125q-0.078125 -1.28125 -0.703125 -1.984375q-0.609375 -0.71875 -1.671875 -0.71875zm11.743164 6.046875q0 -0.6875 -0.515625 -1.0625q-0.515625 -0.375 -1.796875 -0.640625q-1.28125 -0.28125 -2.03125 -0.65625q-0.75 -0.390625 -1.109375 -0.921875q-0.359375 -0.53125 -0.359375 -1.265625q0 -1.203125 1.015625 -2.03125q1.03125 -0.84375 2.625 -0.84375q1.671875 0 2.71875 0.859375q1.046875 0.859375 1.046875 2.21875l-1.6875 0q0 -0.703125 -0.59375 -1.203125q-0.59375 -0.5 -1.484375 -0.5q-0.921875 0 -1.4375 0.40625q-0.515625 0.390625 -0.515625 1.046875q0 0.609375 0.484375 0.921875q0.484375 0.3125 1.734375 0.59375q1.265625 0.28125 2.046875 0.671875q0.78125 0.390625 1.15625 0.9375q0.390625 0.546875 0.390625 1.34375q0 1.328125 -1.0625 2.125q-1.046875 0.796875 -2.734375 0.796875q-1.1875 0 -2.109375 -0.421875q-0.90625 -0.421875 -1.421875 -1.171875q-0.515625 -0.75 -0.515625 -1.625l1.6875 0q0.046875 0.84375 0.671875 1.34375q0.640625 0.5 1.6875 0.5q0.953125 0 1.53125 -0.390625q0.578125 -0.390625 0.578125 -1.03125z" fill-rule="nonzero"/><path fill="#000000" fill-opacity="0.0" d="m275.85828 190.34908l54.992126 0l0 42.015747l-54.992126 0z" fill-rule="evenodd"/><path fill="#888888" d="m296.59265 217.26907l-1.765625 0l-6.671875 -10.21875l0 10.21875l-1.75 0l0 -13.265625l1.75 0l6.703125 10.265625l0 -10.265625l1.734375 0l0 13.265625zm2.3936157 -5.015625q0 -1.453125 0.5625 -2.609375q0.578125 -1.15625 1.59375 -1.78125q1.015625 -0.625 2.3125 -0.625q2.015625 0 3.25 1.390625q1.25 1.390625 1.25 3.703125l0 0.125q0 1.4375 -0.546875 2.578125q-0.546875 1.140625 -1.578125 1.78125q-1.015625 0.640625 -2.359375 0.640625q-2.0 0 -3.25 -1.390625q-1.234375 -1.40625 -1.234375 -3.703125l0 -0.109375zm1.6875 0.203125q0 1.640625 0.765625 2.640625q0.765625 0.984375 2.03125 0.984375q1.296875 0 2.046875 -1.0q0.75 -1.015625 0.75 -2.828125q0 -1.625 -0.765625 -2.625q-0.765625 -1.015625 -2.046875 -1.015625q-1.25 0 -2.015625 1.0q-0.765625 0.984375 -0.765625 2.84375z" fill-rule="nonzero"/><path fill="#000000" fill-opacity="0.0" d="m137.97217 124.36057l54.992126 0l0 42.015755l-54.992126 0z" fill-rule="evenodd"/><path fill="#888888" d="m158.70654 151.28058l-1.765625 0l-6.671875 -10.21875l0 10.21875l-1.75 0l0 -13.265625l1.75 0l6.703125 10.265625l0 -10.265625l1.734375 0l0 13.265625zm2.3936157 -5.015625q0 -1.453125 0.5625 -2.609375q0.578125 -1.15625 1.59375 -1.78125q1.015625 -0.625 2.3125 -0.625q2.015625 0 3.25 1.390625q1.25 1.390625 1.25 3.703125l0 0.125q0 1.4375 -0.546875 2.578125q-0.546875 1.140625 -1.578125 1.78125q-1.015625 0.640625 -2.359375 0.640625q-2.0 0 -3.25 -1.390625q-1.234375 -1.40625 -1.234375 -3.703125l0 -0.109375zm1.6875 0.203125q0 1.640625 0.765625 2.640625q0.765625 0.984375 2.03125 0.984375q1.296875 0 2.046875 -1.0q0.75 -1.015625 0.75 -2.828125q0 -1.625 -0.765625 -2.625q-0.765625 -1.015625 -2.046875 -1.015625q-1.25 0 -2.015625 1.0q-0.765625 0.984375 -0.765625 2.84375z" fill-rule="nonzero"/><path fill="#000000" fill-opacity="0.0" d="m136.7874 297.47836l54.992126 0l0 42.015747l-54.992126 0z" fill-rule="evenodd"/><path fill="#888888" d="m151.36552 317.789l3.46875 -6.65625l1.984375 0l-4.578125 8.3125l0 4.953125l-1.75 0l0 -4.953125l-4.5625 -8.3125l2.0 0l3.4375 6.65625zm10.393478 6.796875q-2.0 0 -3.265625 -1.3125q-1.25 -1.328125 -1.25 -3.53125l0 -0.3125q0 -1.46875 0.5625 -2.609375q0.5625 -1.15625 1.5625 -1.796875q1.015625 -0.65625 2.1875 -0.65625q1.921875 0 2.984375 1.265625q1.0625 1.265625 1.0625 3.625l0 0.6875l-6.671875 0q0.03125 1.46875 0.84375 2.375q0.828125 0.890625 2.078125 0.890625q0.890625 0 1.515625 -0.359375q0.625 -0.375 1.078125 -0.96875l1.03125 0.796875q-1.234375 1.90625 -3.71875 1.90625zm-0.203125 -8.84375q-1.015625 0 -1.71875 0.75q-0.6875 0.734375 -0.84375 2.078125l4.9375 0l0 -0.125q-0.078125 -1.28125 -0.703125 -1.984375q-0.609375 -0.71875 -1.671875 -0.71875zm11.743179 6.046875q0 -0.6875 -0.515625 -1.0625q-0.515625 -0.375 -1.796875 -0.640625q-1.28125 -0.28125 -2.03125 -0.65625q-0.75 -0.390625 -1.109375 -0.921875q-0.359375 -0.53125 -0.359375 -1.265625q0 -1.203125 1.015625 -2.03125q1.03125 -0.84375 2.625 -0.84375q1.671875 0 2.71875 0.859375q1.046875 0.859375 1.046875 2.21875l-1.6875 0q0 -0.703125 -0.59375 -1.203125q-0.59375 -0.5 -1.484375 -0.5q-0.921875 0 -1.4375 0.40625q-0.515625 0.390625 -0.515625 1.046875q0 0.609375 0.484375 0.921875q0.484375 0.3125 1.734375 0.59375q1.265625 0.28125 2.046875 0.671875q0.78125 0.390625 1.15625 0.9375q0.390625 0.546875 0.390625 1.34375q0 1.328125 -1.0625 2.125q-1.046875 0.796875 -2.734375 0.796875q-1.1875 0 -2.109375 -0.421875q-0.90625 -0.421875 -1.421875 -1.171875q-0.515625 -0.75 -0.515625 -1.625l1.6875 0q0.046875 0.84375 0.671875 1.34375q0.640625 0.5 1.6875 0.5q0.953125 0 1.53125 -0.390625q0.578125 -0.390625 0.578125 -1.03125z" fill-rule="nonzero"/><path fill="#000000" fill-opacity="0.0" d="m229.51181 356.52493l103.62204 0l0 87.275604l-103.62204 0z" fill-rule="evenodd"/><path fill="#888888" d="m240.8476 383.44495l0 -13.265625l3.734375 0q1.734375 0 3.0625 0.765625q1.328125 0.765625 2.046875 2.1875q0.734375 1.40625 0.734375 3.234375l0 0.84375q0 1.875 -0.71875 3.296875q-0.71875 1.40625 -2.0625 2.171875q-1.34375 0.75 -3.140625 0.765625l-3.65625 0zm1.734375 -11.828125l0 10.390625l1.84375 0q2.03125 0 3.15625 -1.25q1.125 -1.25 1.125 -3.578125l0 -0.78125q0 -2.25 -1.0625 -3.5q-1.0625 -1.265625 -3.015625 -1.28125l-2.046875 0zm16.312195 11.828125q-0.140625 -0.296875 -0.234375 -1.03125q-1.171875 1.21875 -2.8125153 1.21875q-1.453125 0 -2.390625 -0.828125q-0.921875 -0.828125 -0.921875 -2.09375q0 -1.53125 1.15625 -2.375q1.171875 -0.859375 3.2968903 -0.859375l1.640625 0l0 -0.78125q0 -0.890625 -0.53125 -1.40625q-0.515625 -0.53125 -1.546875 -0.53125q-0.90626526 0 -1.5156403 0.46875q-0.609375 0.453125 -0.609375 1.09375l-1.703125 0q0 -0.734375 0.515625 -1.421875q0.53125 -0.6875 1.421875 -1.078125q0.90625 -0.40625 1.9843903 -0.40625q1.703125 0 2.671875 0.859375q0.96875 0.84375 1.0 2.328125l0 4.53125q0 1.359375 0.34375 2.171875l0 0.140625l-1.765625 0zm-2.796875 -1.28125q0.796875 0 1.5 -0.40625q0.71875 -0.421875 1.03125 -1.078125l0 -2.015625l-1.3125 0q-3.1093903 0 -3.1093903 1.8125q0 0.796875 0.53125 1.25q0.53125 0.4375 1.3593903 0.4375zm9.14798 -10.96875l0 2.390625l1.84375 0l0 1.3125l-1.84375 0l0 6.109375q0 0.59375 0.234375 0.890625q0.25 0.296875 0.84375 0.296875q0.296875 0 0.8125 -0.109375l0 1.359375q-0.671875 0.1875 -1.296875 0.1875q-1.125 0 -1.703125 -0.6875q-0.578125 -0.6875 -0.578125 -1.9375l0 -6.109375l-1.796875 0l0 -1.3125l1.796875 0l0 -2.390625l1.6875 0zm9.891113 12.25q-0.140625 -0.296875 -0.234375 -1.03125q-1.171875 1.21875 -2.8125 1.21875q-1.453125 0 -2.390625 -0.828125q-0.921875 -0.828125 -0.921875 -2.09375q0 -1.53125 1.15625 -2.375q1.171875 -0.859375 3.296875 -0.859375l1.640625 0l0 -0.78125q0 -0.890625 -0.53125 -1.40625q-0.515625 -0.53125 -1.546875 -0.53125q-0.90625 0 -1.515625 0.46875q-0.609375 0.453125 -0.609375 1.09375l-1.703125 0q0 -0.734375 0.515625 -1.421875q0.53125 -0.6875 1.421875 -1.078125q0.90625 -0.40625 1.984375 -0.40625q1.703125 0 2.671875 0.859375q0.96875 0.84375 1.0 2.328125l0 4.53125q0 1.359375 0.34375 2.171875l0 0.140625l-1.765625 0zm-2.796875 -1.28125q0.796875 0 1.5 -0.40625q0.71875 -0.421875 1.03125 -1.078125l0 -2.015625l-1.3125 0q-3.109375 0 -3.109375 1.8125q0 0.796875 0.53125 1.25q0.53125 0.4375 1.359375 0.4375zm11.038605 -4.625q-2.25 -0.65625 -3.28125 -1.59375q-1.03125 -0.9375 -1.03125 -2.328125q0 -1.5625 1.25 -2.59375q1.265625 -1.03125 3.265625 -1.03125q1.359375 0 2.4375 0.53125q1.078125 0.53125 1.65625 1.46875q0.59375 0.921875 0.59375 2.03125l-1.765625 0q0 -1.203125 -0.765625 -1.890625q-0.765625 -0.6875 -2.15625 -0.6875q-1.296875 0 -2.015625 0.5625q-0.71875 0.5625 -0.71875 1.578125q0 0.8125 0.6875 1.375q0.6875 0.5625 2.328125 1.03125q1.65625 0.453125 2.59375 1.015625q0.9375 0.5625 1.375 1.3125q0.453125 0.75 0.453125 1.75q0 1.609375 -1.25 2.59375q-1.25 0.96875 -3.359375 0.96875q-1.375 0 -2.5625 -0.515625q-1.171875 -0.53125 -1.8125 -1.4375q-0.640625 -0.921875 -0.640625 -2.078125l1.75 0q0 1.203125 0.890625 1.90625q0.890625 0.6875 2.375 0.6875q1.375 0 2.109375 -0.5625q0.75 -0.5625 0.75 -1.53125q0 -0.984375 -0.6875 -1.515625q-0.6875 -0.53125 -2.46875 -1.046875zm17.286804 -0.296875q0 1.921875 -0.609375 3.3125q-0.609375 1.390625 -1.71875 2.171875l2.375 1.859375l-1.203125 1.09375l-2.796875 -2.21875q-0.65625 0.171875 -1.375 0.171875q-1.578125 0 -2.796875 -0.765625q-1.203125 -0.78125 -1.875 -2.203125q-0.65625 -1.421875 -0.671875 -3.296875l0 -0.96875q0 -1.90625 0.65625 -3.375q0.671875 -1.46875 1.875 -2.25q1.21875 -0.78125 2.796875 -0.78125q1.59375 0 2.8125 0.78125q1.21875 0.78125 1.875 2.234375q0.65625 1.453125 0.65625 3.390625l0 0.84375zm-1.75 -0.859375q0 -2.34375 -0.9375 -3.609375q-0.9375 -1.265625 -2.65625 -1.265625q-1.65625 0 -2.609375 1.265625q-0.953125 1.25 -0.984375 3.5l0 0.96875q0 2.28125 0.953125 3.59375q0.953125 1.3125 2.640625 1.3125q1.703125 0 2.625 -1.234375q0.9375 -1.234375 0.96875 -3.546875l0 -0.984375zm9.310547 1.703125l-3.125 0l0 5.359375l-1.75 0l0 -13.265625l4.390625 0q2.234375 0 3.4375 1.03125q1.21875 1.015625 1.21875 2.953125q0 1.25 -0.671875 2.171875q-0.671875 0.921875 -1.859375 1.375l3.109375 5.625l0 0.109375l-1.875 0l-2.875 -5.359375zm-3.125 -1.4375l2.6875 0q1.3125 0 2.078125 -0.671875q0.765625 -0.671875 0.765625 -1.8125q0 -1.21875 -0.734375 -1.875q-0.734375 -0.65625 -2.109375 -0.671875l-2.6875 0l0 5.03125zm11.502686 5.359375l6.28125 0l0 1.4375l-8.03125 0l0 -13.265625l1.75 0l0 11.828125z" fill-rule="nonzero"/><path fill="#888888" d="m262.67416 405.84494l-1.6875 0l0 -14.0l1.6875 0l0 14.0zm8.777435 0q-0.140625 -0.296875 -0.234375 -1.03125q-1.171875 1.21875 -2.8125 1.21875q-1.453125 0 -2.390625 -0.828125q-0.921875 -0.828125 -0.921875 -2.09375q0 -1.53125 1.15625 -2.375q1.171875 -0.859375 3.296875 -0.859375l1.640625 0l0 -0.78125q0 -0.890625 -0.53125 -1.40625q-0.515625 -0.53125 -1.546875 -0.53125q-0.90625 0 -1.515625 0.46875q-0.609375 0.453125 -0.609375 1.09375l-1.703125 0q0 -0.734375 0.515625 -1.421875q0.53125 -0.6875 1.421875 -1.078125q0.90625 -0.40625 1.984375 -0.40625q1.703125 0 2.671875 0.859375q0.96875 0.84375 1.0 2.328125l0 4.53125q0 1.359375 0.34375 2.171875l0 0.140625l-1.765625 0zm-2.796875 -1.28125q0.796875 0 1.5 -0.40625q0.71875 -0.421875 1.03125 -1.078125l0 -2.015625l-1.3125 0q-3.109375 0 -3.109375 1.8125q0 0.796875 0.53125 1.25q0.53125 0.4375 1.359375 0.4375zm10.819855 0.09375q0.890625 0 1.5625 -0.546875q0.6875 -0.546875 0.75 -1.375l1.59375 0q-0.046875 0.84375 -0.578125 1.609375q-0.53125 0.765625 -1.4375 1.234375q-0.890625 0.453125 -1.890625 0.453125q-2.015625 0 -3.203125 -1.34375q-1.1875 -1.34375 -1.1875 -3.6875l0 -0.28125q0 -1.4375 0.515625 -2.546875q0.53125 -1.125 1.515625 -1.734375q1.0 -0.625 2.34375 -0.625q1.65625 0 2.75 1.0q1.109375 0.984375 1.171875 2.5625l-1.59375 0q-0.0625 -0.953125 -0.71875 -1.5625q-0.65625 -0.625 -1.609375 -0.625q-1.28125 0 -2.0 0.921875q-0.703125 0.921875 -0.703125 2.671875l0 0.328125q0 1.703125 0.703125 2.625q0.703125 0.921875 2.015625 0.921875zm8.562256 -3.375l-1.0625 1.09375l0 3.46875l-1.6875 0l0 -14.0l1.6875 0l0 8.46875l0.90625 -1.078125l3.0625 -3.25l2.046875 0l-3.828125 4.125l4.28125 5.734375l-1.984375 0l-3.421875 -4.5625zm12.440033 1.953125q0 -0.6875 -0.515625 -1.0625q-0.515625 -0.375 -1.796875 -0.640625q-1.28125 -0.28125 -2.03125 -0.65625q-0.75 -0.390625 -1.109375 -0.921875q-0.359375 -0.53125 -0.359375 -1.265625q0 -1.203125 1.015625 -2.03125q1.03125 -0.84375 2.625 -0.84375q1.671875 0 2.71875 0.859375q1.046875 0.859375 1.046875 2.21875l-1.6875 0q0 -0.703125 -0.59375 -1.203125q-0.59375 -0.5 -1.484375 -0.5q-0.921875 0 -1.4375 0.40625q-0.515625 0.390625 -0.515625 1.046875q0 0.609375 0.484375 0.921875q0.484375 0.3125 1.734375 0.59375q1.265625 0.28125 2.046875 0.671875q0.78125 0.390625 1.15625 0.9375q0.390625 0.546875 0.390625 1.34375q0 1.328125 -1.0625 2.125q-1.046875 0.796875 -2.734375 0.796875q-1.1875 0 -2.109375 -0.421875q-0.90625 -0.421875 -1.421875 -1.171875q-0.515625 -0.75 -0.515625 -1.625l1.6875 0q0.046875 0.84375 0.671875 1.34375q0.640625 0.5 1.6875 0.5q0.953125 0 1.53125 -0.390625q0.578125 -0.390625 0.578125 -1.03125z" fill-rule="nonzero"/><path fill="#888888" d="m249.27626 428.24493l0 -8.546875l-1.5625 0l0 -1.3125l1.5625 0l0 -1.015625q0 -1.578125 0.84375 -2.4375q0.84375 -0.875 2.390625 -0.875q0.59375 0 1.15625 0.15625l-0.09375 1.375q-0.421875 -0.09375 -0.90625 -0.09375q-0.8125 0 -1.265625 0.484375q-0.4375 0.484375 -0.4375 1.375l0 1.03125l2.09375 0l0 1.3125l-2.09375 0l0 8.546875l-1.6875 0zm9.508102 0.1875q-2.0 0 -3.265625 -1.3125q-1.25 -1.328125 -1.25 -3.53125l0 -0.3125q0 -1.46875 0.5625 -2.609375q0.5625 -1.15625 1.5625 -1.796875q1.015625 -0.65625 2.1875 -0.65625q1.921875 0 2.984375 1.265625q1.0625 1.265625 1.0625 3.625l0 0.6875l-6.671875 0q0.03125 1.46875 0.84375 2.375q0.828125 0.890625 2.078125 0.890625q0.890625 0 1.515625 -0.359375q0.625 -0.375 1.078125 -0.96875l1.03125 0.796875q-1.234375 1.90625 -3.71875 1.90625zm-0.203125 -8.84375q-1.015625 0 -1.71875 0.75q-0.6875 0.734375 -0.84375 2.078125l4.9375 0l0 -0.125q-0.078125 -1.28125 -0.703125 -1.984375q-0.609375 -0.71875 -1.671875 -0.71875zm12.086914 8.65625q-0.140625 -0.296875 -0.234375 -1.03125q-1.171875 1.21875 -2.8125 1.21875q-1.453125 0 -2.390625 -0.828125q-0.921875 -0.828125 -0.921875 -2.09375q0 -1.53125 1.15625 -2.375q1.171875 -0.859375 3.296875 -0.859375l1.640625 0l0 -0.78125q0 -0.890625 -0.53125 -1.40625q-0.515625 -0.53125 -1.546875 -0.53125q-0.90625 0 -1.515625 0.46875q-0.609375 0.453125 -0.609375 1.09375l-1.703125 0q0 -0.734375 0.515625 -1.421875q0.53125 -0.6875 1.421875 -1.078125q0.90625 -0.40625 1.984375 -0.40625q1.703125 0 2.671875 0.859375q0.96875 0.84375 1.0 2.328125l0 4.53125q0 1.359375 0.34375 2.171875l0 0.140625l-1.765625 0zm-2.796875 -1.28125q0.796875 0 1.5 -0.40625q0.71875 -0.421875 1.03125 -1.078125l0 -2.015625l-1.3125 0q-3.109375 0 -3.109375 1.8125q0 0.796875 0.53125 1.25q0.53125 0.4375 1.359375 0.4375zm9.14798 -10.96875l0 2.390625l1.84375 0l0 1.3125l-1.84375 0l0 6.109375q0 0.59375 0.234375 0.890625q0.25 0.296875 0.84375 0.296875q0.296875 0 0.8125 -0.109375l0 1.359375q-0.671875 0.1875 -1.296875 0.1875q-1.125 0 -1.703125 -0.6875q-0.578125 -0.6875 -0.578125 -1.9375l0 -6.109375l-1.796875 0l0 -1.3125l1.796875 0l0 -2.390625l1.6875 0zm9.891144 11.28125q-0.984375 1.15625 -2.890625 1.15625q-1.578125 0 -2.40625 -0.921875q-0.8125 -0.921875 -0.828125 -2.703125l0 -6.421875l1.6875 0l0 6.375q0 2.234375 1.828125 2.234375q1.921875 0 2.5625 -1.4375l0 -7.171875l1.6875 0l0 9.859375l-1.609375 0l-0.03125 -0.96875zm8.972137 -7.375q-0.390625 -0.0625 -0.84375 -0.0625q-1.6562805 0 -2.2500305 1.40625l0 7.0l-1.671875 0l0 -9.859375l1.640625 0l0.015625 1.140625q0.8281555 -1.3125 2.3594055 -1.3125q0.484375 0 0.75 0.125l0 1.5625zm5.4522095 8.53125q-2.0 0 -3.265625 -1.3125q-1.25 -1.328125 -1.25 -3.53125l0 -0.3125q0 -1.46875 0.5625 -2.609375q0.5625 -1.15625 1.5625 -1.796875q1.015625 -0.65625 2.1875 -0.65625q1.921875 0 2.984375 1.265625q1.0625 1.265625 1.0625 3.625l0 0.6875l-6.671875 0q0.03125 1.46875 0.84375 2.375q0.828125 0.890625 2.078125 0.890625q0.890625 0 1.515625 -0.359375q0.625 -0.375 1.078125 -0.96875l1.03125 0.796875q-1.234375 1.90625 -3.71875 1.90625zm-0.203125 -8.84375q-1.015625 0 -1.71875 0.75q-0.6875 0.734375 -0.84375 2.078125l4.9375 0l0 -0.125q-0.078125 -1.28125 -0.703125 -1.984375q-0.609375 -0.71875 -1.671875 -0.71875zm11.743164 6.046875q0 -0.6875 -0.515625 -1.0625q-0.515625 -0.375 -1.796875 -0.640625q-1.28125 -0.28125 -2.03125 -0.65625q-0.75 -0.390625 -1.109375 -0.921875q-0.359375 -0.53125 -0.359375 -1.265625q0 -1.203125 1.015625 -2.03125q1.03125 -0.84375 2.625 -0.84375q1.671875 0 2.71875 0.859375q1.046875 0.859375 1.046875 2.21875l-1.6875 0q0 -0.703125 -0.59375 -1.203125q-0.59375 -0.5 -1.484375 -0.5q-0.921875 0 -1.4375 0.40625q-0.515625 0.390625 -0.515625 1.046875q0 0.609375 0.484375 0.921875q0.484375 0.3125 1.734375 0.59375q1.265625 0.28125 2.046875 0.671875q0.78125 0.390625 1.15625 0.9375q0.390625 0.546875 0.390625 1.34375q0 1.328125 -1.0625 2.125q-1.046875 0.796875 -2.734375 0.796875q-1.1875 0 -2.109375 -0.421875q-0.90625 -0.421875 -1.421875 -1.171875q-0.515625 -0.75 -0.515625 -1.625l1.6875 0q0.046875 0.84375 0.671875 1.34375q0.640625 0.5 1.6875 0.5q0.953125 0 1.53125 -0.390625q0.578125 -0.390625 0.578125 -1.03125z" fill-rule="nonzero"/><path fill="#000000" fill-opacity="0.0" d="m41.773643 436.64996l203.18109 0l0 42.015747l-203.18109 0z" fill-rule="evenodd"/><path fill="#888888" d="m54.054893 458.38248l0 5.1875l-1.734375 0l0 -13.265625l4.890625 0q2.171875 0 3.40625 1.109375q1.234375 1.109375 1.234375 2.953125q0 1.921875 -1.21875 2.96875q-1.203125 1.046875 -3.453125 1.046875l-3.125 0zm0 -1.4375l3.15625 0q1.390625 0 2.140625 -0.65625q0.75 -0.65625 0.75 -1.90625q0 -1.1875 -0.75 -1.890625q-0.75 -0.71875 -2.046875 -0.75l-3.25 0l0 5.203125zm14.535095 -1.71875q-0.390625 -0.0625 -0.84375 -0.0625q-1.65625 0 -2.25 1.40625l0 7.0l-1.671875 0l0 -9.859375l1.640625 0l0.015625 1.140625q0.828125 -1.3125 2.359375 -1.3125q0.484375 0 0.75 0.125l0 1.5625zm0.9118347 3.328125q0 -1.453125 0.5625 -2.609375q0.578125 -1.15625 1.59375 -1.78125q1.015625 -0.625 2.3125 -0.625q2.015625 0 3.25 1.390625q1.25 1.390625 1.25 3.703125l0 0.125q0 1.4375 -0.546875 2.578125q-0.546875 1.140625 -1.578125 1.78125q-1.015625 0.640625 -2.359375 0.640625q-2.0 0 -3.25 -1.390625q-1.234375 -1.40625 -1.234375 -3.703125l0 -0.109375zm1.6875 0.203125q0 1.640625 0.765625 2.640625q0.765625 0.984375 2.03125 0.984375q1.296875 0 2.046875 -1.0q0.75 -1.015625 0.75 -2.828125q0 -1.625 -0.765625 -2.625q-0.765625 -1.015625 -2.046875 -1.015625q-1.25 0 -2.015625 1.0q-0.765625 0.984375 -0.765625 2.84375zm11.686768 -7.4375l0 2.390625l1.84375 0l0 1.3125l-1.84375 0l0 6.109375q0 0.59375 0.234375 0.890625q0.25 0.296875 0.84375 0.296875q0.296875 0 0.8125 -0.109375l0 1.359375q-0.671875 0.1875 -1.296875 0.1875q-1.125 0 -1.703125 -0.6875q-0.578125 -0.6875 -0.578125 -1.9375l0 -6.109375l-1.796875 0l0 -1.3125l1.796875 0l0 -2.390625l1.6875 0zm3.1775818 7.234375q0 -1.453125 0.5625 -2.609375q0.578125 -1.15625 1.59375 -1.78125q1.015625 -0.625 2.3125 -0.625q2.015625 0 3.25 1.390625q1.25 1.390625 1.25 3.703125l0 0.125q0 1.4375 -0.546875 2.578125q-0.546875 1.140625 -1.578125 1.78125q-1.015625 0.640625 -2.359375 0.640625q-2.0 0 -3.25 -1.390625q-1.234375 -1.40625 -1.234375 -3.703125l0 -0.109375zm1.6875 0.203125q0 1.640625 0.765625 2.640625q0.765625 0.984375 2.03125 0.984375q1.296875 0 2.046875 -1.0q0.75 -1.015625 0.75 -2.828125q0 -1.625 -0.765625 -2.625q-0.765625 -1.015625 -2.046875 -1.015625q-1.25 0 -2.015625 1.0q-0.765625 0.984375 -0.765625 2.84375zm11.686768 -7.4375l0 2.390625l1.84375 0l0 1.3125l-1.84375 0l0 6.109375q0 0.59375 0.234375 0.890625q0.25 0.296875 0.84375 0.296875q0.296875 0 0.8125 -0.109375l0 1.359375q-0.671875 0.1875 -1.296875 0.1875q-1.125 0 -1.703125 -0.6875q-0.578125 -0.6875 -0.578125 -1.9375l0 -6.109375l-1.796875 0l0 -1.3125l1.796875 0l0 -2.390625l1.6875 0zm7.0317535 9.78125l2.296875 -7.390625l1.796875 0l-3.953125 11.375q-0.921875 2.46875 -2.921875 2.46875l-0.328125 -0.03125l-0.625 -0.125l0 -1.359375l0.453125 0.03125q0.859375 0 1.328125 -0.34375q0.484375 -0.34375 0.796875 -1.265625l0.375 -1.0l-3.515625 -9.75l1.84375 0l2.453125 7.390625zm13.920853 -2.34375q0 2.25 -1.03125 3.625q-1.015625 1.375 -2.78125 1.375q-1.796875 0 -2.828125 -1.140625l0 4.75l-1.671875 0l0 -13.65625l1.53125 0l0.078125 1.09375q1.03125 -1.265625 2.859375 -1.265625q1.78125 0 2.8125 1.34375q1.03125 1.328125 1.03125 3.71875l0 0.15625zm-1.671875 -0.203125q0 -1.65625 -0.71875 -2.625q-0.703125 -0.96875 -1.953125 -0.96875q-1.53125 0 -2.296875 1.359375l0 4.703125q0.765625 1.359375 2.328125 1.359375q1.203125 0 1.921875 -0.953125q0.71875 -0.96875 0.71875 -2.875zm7.904312 5.203125q-2.0 0 -3.265625 -1.3125q-1.25 -1.328125 -1.25 -3.53125l0 -0.3125q0 -1.46875 0.5625 -2.609375q0.5625 -1.15625 1.5625 -1.796875q1.015625 -0.65625 2.1875 -0.65625q1.9218826 0 2.9843826 1.265625q1.0625 1.265625 1.0625 3.625l0 0.6875l-6.6718826 0q0.03125 1.46875 0.84375 2.375q0.828125 0.890625 2.078125 0.890625q0.890625 0 1.5156326 -0.359375q0.625 -0.375 1.078125 -0.96875l1.03125 0.796875q-1.234375 1.90625 -3.7187576 1.90625zm-0.203125 -8.84375q-1.015625 0 -1.71875 0.75q-0.6875 0.734375 -0.84375 2.078125l4.9375076 0l0 -0.125q-0.078125 -1.28125 -0.703125 -1.984375q-0.6093826 -0.71875 -1.6718826 -0.71875zm20.980217 6.046875q0 -0.6875 -0.515625 -1.0625q-0.515625 -0.375 -1.796875 -0.640625q-1.28125 -0.28125 -2.03125 -0.65625q-0.75 -0.390625 -1.109375 -0.921875q-0.359375 -0.53125 -0.359375 -1.265625q0 -1.203125 1.015625 -2.03125q1.03125 -0.84375 2.625 -0.84375q1.671875 0 2.71875 0.859375q1.046875 0.859375 1.046875 2.21875l-1.6875 0q0 -0.703125 -0.59375 -1.203125q-0.59375 -0.5 -1.484375 -0.5q-0.921875 0 -1.4375 0.40625q-0.515625 0.390625 -0.515625 1.046875q0 0.609375 0.484375 0.921875q0.484375 0.3125 1.734375 0.59375q1.265625 0.28125 2.046875 0.671875q0.78125 0.390625 1.15625 0.9375q0.390625 0.546875 0.390625 1.34375q0 1.328125 -1.0625 2.125q-1.046875 0.796875 -2.734375 0.796875q-1.1875 0 -2.109375 -0.421875q-0.90625 -0.421875 -1.421875 -1.171875q-0.515625 -0.75 -0.515625 -1.625l1.6875 0q0.046875 0.84375 0.671875 1.34375q0.640625 0.5 1.6875 0.5q0.953125 0 1.53125 -0.390625q0.578125 -0.390625 0.578125 -1.03125zm9.963379 1.640625q-0.984375 1.15625 -2.890625 1.15625q-1.578125 0 -2.40625 -0.921875q-0.8125 -0.921875 -0.828125 -2.703125l0 -6.421875l1.6875 0l0 6.375q0 2.234375 1.828125 2.234375q1.921875 0 2.5625 -1.4375l0 -7.171875l1.6875 0l0 9.859375l-1.609375 0l-0.03125 -0.96875zm8.159622 -0.21875q0.890625 0 1.5625 -0.546875q0.6875 -0.546875 0.75 -1.375l1.59375 0q-0.046875 0.84375 -0.578125 1.609375q-0.53125 0.765625 -1.4375 1.234375q-0.890625 0.453125 -1.890625 0.453125q-2.015625 0 -3.203125 -1.34375q-1.1875 -1.34375 -1.1875 -3.6875l0 -0.28125q0 -1.4375 0.515625 -2.546875q0.53125 -1.125 1.515625 -1.734375q1.0 -0.625 2.34375 -0.625q1.65625 0 2.75 1.0q1.109375 0.984375 1.171875 2.5625l-1.59375 0q-0.0625 -0.953125 -0.71875 -1.5625q-0.65625 -0.625 -1.609375 -0.625q-1.28125 0 -2.0 0.921875q-0.703125 0.921875 -0.703125 2.671875l0 0.328125q0 1.703125 0.703125 2.625q0.703125 0.921875 2.015625 0.921875zm9.765381 0q0.890625 0 1.5625 -0.546875q0.6875 -0.546875 0.75 -1.375l1.59375 0q-0.046875 0.84375 -0.578125 1.609375q-0.53125 0.765625 -1.4375 1.234375q-0.890625 0.453125 -1.890625 0.453125q-2.015625 0 -3.203125 -1.34375q-1.1875 -1.34375 -1.1875 -3.6875l0 -0.28125q0 -1.4375 0.515625 -2.546875q0.53125 -1.125 1.515625 -1.734375q1.0 -0.625 2.34375 -0.625q1.65625 0 2.75 1.0q1.109375 0.984375 1.171875 2.5625l-1.59375 0q-0.0625 -0.953125 -0.71875 -1.5625q-0.65625 -0.625 -1.609375 -0.625q-1.28125 0 -2.0 0.921875q-0.703125 0.921875 -0.703125 2.671875l0 0.328125q0 1.703125 0.703125 2.625q0.703125 0.921875 2.015625 0.921875zm9.890381 1.375q-2.0 0 -3.265625 -1.3125q-1.25 -1.328125 -1.25 -3.53125l0 -0.3125q0 -1.46875 0.5625 -2.609375q0.5625 -1.15625 1.5625 -1.796875q1.015625 -0.65625 2.1875 -0.65625q1.921875 0 2.984375 1.265625q1.0625 1.265625 1.0625 3.625l0 0.6875l-6.671875 0q0.03125 1.46875 0.84375 2.375q0.828125 0.890625 2.078125 0.890625q0.890625 0 1.515625 -0.359375q0.625 -0.375 1.078125 -0.96875l1.03125 0.796875q-1.234375 1.90625 -3.71875 1.90625zm-0.203125 -8.84375q-1.015625 0 -1.71875 0.75q-0.6875 0.734375 -0.84375 2.078125l4.9375 0l0 -0.125q-0.078125 -1.28125 -0.703125 -1.984375q-0.609375 -0.71875 -1.671875 -0.71875zm11.743179 6.046875q0 -0.6875 -0.515625 -1.0625q-0.515625 -0.375 -1.796875 -0.640625q-1.28125 -0.28125 -2.03125 -0.65625q-0.75 -0.390625 -1.109375 -0.921875q-0.359375 -0.53125 -0.359375 -1.265625q0 -1.203125 1.015625 -2.03125q1.03125 -0.84375 2.625 -0.84375q1.671875 0 2.71875 0.859375q1.046875 0.859375 1.046875 2.21875l-1.6875 0q0 -0.703125 -0.59375 -1.203125q-0.59375 -0.5 -1.484375 -0.5q-0.921875 0 -1.4375 0.40625q-0.515625 0.390625 -0.515625 1.046875q0 0.609375 0.484375 0.921875q0.484375 0.3125 1.734375 0.59375q1.265625 0.28125 2.046875 0.671875q0.78125 0.390625 1.15625 0.9375q0.390625 0.546875 0.390625 1.34375q0 1.328125 -1.0625 2.125q-1.046875 0.796875 -2.734375 0.796875q-1.1875 0 -2.109375 -0.421875q-0.90625 -0.421875 -1.421875 -1.171875q-0.515625 -0.75 -0.515625 -1.625l1.6875 0q0.046875 0.84375 0.671875 1.34375q0.640625 0.5 1.6875 0.5q0.953125 0 1.53125 -0.390625q0.578125 -0.390625 0.578125 -1.03125zm9.619629 0q0 -0.6875 -0.515625 -1.0625q-0.515625 -0.375 -1.796875 -0.640625q-1.28125 -0.28125 -2.03125 -0.65625q-0.75 -0.390625 -1.109375 -0.921875q-0.359375 -0.53125 -0.359375 -1.265625q0 -1.203125 1.015625 -2.03125q1.03125 -0.84375 2.625 -0.84375q1.671875 0 2.71875 0.859375q1.046875 0.859375 1.046875 2.21875l-1.6875 0q0 -0.703125 -0.59375 -1.203125q-0.59375 -0.5 -1.484375 -0.5q-0.921875 0 -1.4375 0.40625q-0.515625 0.390625 -0.515625 1.046875q0 0.609375 0.484375 0.921875q0.484375 0.3125 1.734375 0.59375q1.265625 0.28125 2.046875 0.671875q0.78125 0.390625 1.15625 0.9375q0.390625 0.546875 0.390625 1.34375q0 1.328125 -1.0625 2.125q-1.046875 0.796875 -2.734375 0.796875q-1.1875 0 -2.109375 -0.421875q-0.90625 -0.421875 -1.421875 -1.171875q-0.515625 -0.75 -0.515625 -1.625l1.6875 0q0.046875 0.84375 0.671875 1.34375q0.640625 0.5 1.6875 0.5q0.953125 0 1.53125 -0.390625q0.578125 -0.390625 0.578125 -1.03125zm4.713379 2.609375l0 -8.546875l-1.5625 0l0 -1.3125l1.5625 0l0 -1.015625q0 -1.578125 0.84375 -2.4375q0.84375 -0.875 2.390625 -0.875q0.59375 0 1.15625 0.15625l-0.09375 1.375q-0.421875 -0.09375 -0.90625 -0.09375q-0.8125 0 -1.265625 0.484375q-0.4375 0.484375 -0.4375 1.375l0 1.03125l2.09375 0l0 1.3125l-2.09375 0l0 8.546875l-1.6875 0zm11.726852 -0.96875q-0.984375 1.15625 -2.890625 1.15625q-1.578125 0 -2.40625 -0.921875q-0.8125 -0.921875 -0.828125 -2.703125l0 -6.421875l1.6875 0l0 6.375q0 2.234375 1.828125 2.234375q1.921875 0 2.5625 -1.4375l0 -7.171875l1.6875 0l0 9.859375l-1.609375 0l-0.03125 -0.96875zm6.034622 0.96875l-1.6875 0l0 -14.0l1.6875 0l0 14.0z" fill-rule="nonzero"/><path fill="#d07839" d="m0 60.66142l136.7874 -60.66142l136.7874 60.66142l-136.7874 60.66142z" fill-rule="evenodd"/><path fill="#ffffff" d="m103.51123 56.581413l-2.3125 0l-5.90625 -9.40625l0 9.40625l-2.3125 0l0 -13.265625l2.3125 0l5.921875 9.453125l0 -9.453125l2.296875 0l0 13.265625zm6.8389587 0.1875q-2.09375 0 -3.40625 -1.328125q-1.3125 -1.328125 -1.3125 -3.53125l0 -0.28125q0 -1.46875 0.5625 -2.625q0.578125 -1.171875 1.609375 -1.8125q1.03125 -0.640625 2.296875 -0.640625q2.015625 0 3.109375 1.28125q1.09375 1.28125 1.09375 3.625l0 0.890625l-6.4375 0q0.109375 1.234375 0.8125 1.953125q0.71875 0.703125 1.8125 0.703125q1.515625 0 2.46875 -1.234375l1.203125 1.140625q-0.59375 0.875 -1.59375 1.375q-0.984375 0.484375 -2.21875 0.484375zm-0.265625 -8.453125q-0.90625 0 -1.46875 0.640625q-0.5625 0.640625 -0.703125 1.78125l4.203125 0l0 -0.171875q-0.0625 -1.109375 -0.59375 -1.671875q-0.515625 -0.578125 -1.4375 -0.578125zm10.276962 8.453125q-2.09375 0 -3.40625 -1.328125q-1.3125 -1.328125 -1.3125 -3.53125l0 -0.28125q0 -1.46875 0.5625 -2.625q0.578125 -1.171875 1.609375 -1.8125q1.03125 -0.640625 2.296875 -0.640625q2.015625 0 3.109375 1.28125q1.09375 1.28125 1.09375 3.625l0 0.890625l-6.4375 0q0.109375 1.234375 0.8125 1.953125q0.71875 0.703125 1.8125 0.703125q1.515625 0 2.46875 -1.234375l1.203125 1.140625q-0.59375 0.875 -1.59375 1.375q-0.984375 0.484375 -2.21875 0.484375zm-0.265625 -8.453125q-0.90625 0 -1.46875 0.640625q-0.5625 0.640625 -0.703125 1.78125l4.203125 0l0 -0.171875q-0.0625 -1.109375 -0.59375 -1.671875q-0.515625 -0.578125 -1.4375 -0.578125zm5.5269623 3.265625q0 -2.28125 1.046875 -3.65625q1.0625 -1.375 2.84375 -1.375q1.5625 0 2.53125 1.078125l0 -5.046875l2.21875 0l0 14.0l-2.015625 0l-0.109375 -1.015625q-0.984375 1.203125 -2.640625 1.203125q-1.734375 0 -2.8125 -1.390625q-1.0625 -1.40625 -1.0625 -3.796875zm2.21875 0.1875q0 1.5 0.578125 2.34375q0.578125 0.84375 1.640625 0.84375q1.359375 0 1.984375 -1.203125l0 -4.21875q-0.609375 -1.171875 -1.96875 -1.171875q-1.078125 0 -1.65625 0.859375q-0.578125 0.84375 -0.578125 2.546875zm21.004547 1.71875l-5.125 0l-1.078125 3.09375l-2.40625 0l5.015625 -13.265625l2.0625 0l5.03125 13.265625l-2.40625 0l-1.09375 -3.09375zm-4.484375 -1.859375l3.84375 0l-1.921875 -5.5l-1.921875 5.5zm19.412338 0.640625q-0.203125 2.109375 -1.578125 3.3125q-1.359375 1.1875 -3.625 1.1875q-1.578125 0 -2.796875 -0.75q-1.203125 -0.765625 -1.859375 -2.140625q-0.65625 -1.390625 -0.6875 -3.21875l0 -1.234375q0 -1.875 0.671875 -3.296875q0.671875 -1.4375 1.90625 -2.21875q1.25 -0.78125 2.875 -0.78125q2.203125 0 3.53125 1.203125q1.34375 1.1875 1.5625 3.375l-2.296875 0q-0.15625 -1.4375 -0.828125 -2.0625q-0.671875 -0.640625 -1.96875 -0.640625q-1.5 0 -2.3125 1.109375q-0.796875 1.09375 -0.8125 3.203125l0 1.1875q0 2.140625 0.765625 3.28125q0.765625 1.125 2.25 1.125q1.359375 0 2.03125 -0.609375q0.6875 -0.609375 0.875 -2.03125l2.296875 0zm4.4918976 4.3125l-2.296875 0l0 -13.265625l2.296875 0l0 13.265625zm2.8277893 0l0 -13.265625l3.921875 0q1.75 0 3.109375 0.78125q1.375 0.78125 2.109375 2.234375q0.75 1.4375 0.75 3.296875l0 0.65625q0 1.890625 -0.75 3.328125q-0.75 1.421875 -2.140625 2.203125q-1.390625 0.765625 -3.171875 0.765625l-3.828125 0zm2.3125 -11.40625l0 9.5625l1.5 0q1.8125 0 2.78125 -1.125q0.96875 -1.140625 0.984375 -3.265625l0 -0.734375q0 -2.15625 -0.9375 -3.296875q-0.9375 -1.140625 -2.71875 -1.140625l-1.609375 0z" fill-rule="nonzero"/><path fill="#ffffff" d="m84.13741 66.33141l0 2.390625l1.734375 0l0 1.640625l-1.734375 0l0 5.5q0 0.5625 0.21875 0.8125q0.234375 0.25 0.796875 0.25q0.390625 0 0.78125 -0.078125l0 1.703125q-0.75 0.21875 -1.453125 0.21875q-2.5625 0 -2.5625 -2.8125l0 -5.59375l-1.609375 0l0 -1.640625l1.609375 0l0 -2.390625l2.21875 0zm8.5941925 4.421875q-0.4375 -0.078125 -0.90625 -0.078125q-1.515625 0 -2.046875 1.171875l0 6.734375l-2.21875 0l0 -9.859375l2.125 0l0.046875 1.109375q0.796875 -1.28125 2.21875 -1.28125q0.484375 0 0.78125 0.125l0 2.078125zm7.0041504 7.828125q-0.140625 -0.28125 -0.25 -0.921875q-1.046875 1.109375 -2.578125 1.109375q-1.484375 0 -2.4375 -0.84375q-0.9375 -0.859375 -0.9375 -2.109375q0 -1.578125 1.171875 -2.40625q1.171875 -0.84375 3.359375 -0.84375l1.359375 0l0 -0.65625q0 -0.765625 -0.4375 -1.21875q-0.421875 -0.46875 -1.296875 -0.46875q-0.765625 0 -1.25 0.390625q-0.46875 0.375 -0.46875 0.953125l-2.21875 0q0 -0.8125 0.53125 -1.515625q0.546875 -0.703125 1.46875 -1.09375q0.921875 -0.40625 2.0625 -0.40625q1.734375 0 2.75 0.875q1.03125 0.859375 1.0625 2.4375l0 4.4375q0 1.328125 0.375 2.125l0 0.15625l-2.265625 0zm-2.421875 -1.59375q0.65625 0 1.234375 -0.3125q0.578125 -0.328125 0.875 -0.859375l0 -1.859375l-1.203125 0q-1.234375 0 -1.859375 0.4375q-0.609375 0.421875 -0.609375 1.203125q0 0.640625 0.421875 1.015625q0.421875 0.375 1.140625 0.375zm8.687073 -8.265625l0.0625 1.140625q1.09375 -1.3125 2.875 -1.3125q3.078125 0 3.125 3.515625l0 6.515625l-2.203125 0l0 -6.390625q0 -0.9375 -0.40625 -1.375q-0.40625 -0.453125 -1.328125 -0.453125q-1.34375 0 -2.0 1.203125l0 7.015625l-2.203125 0l0 -9.859375l2.078125 0zm13.844467 7.1875q0 -0.59375 -0.484375 -0.90625q-0.484375 -0.3125 -1.625 -0.546875q-1.125 -0.234375 -1.875 -0.609375q-1.65625 -0.796875 -1.65625 -2.3125q0 -1.28125 1.0625 -2.125q1.078125 -0.859375 2.734375 -0.859375q1.78125 0 2.859375 0.875q1.09375 0.859375 1.09375 2.265625l-2.21875 0q0 -0.640625 -0.46875 -1.0625q-0.46875 -0.421875 -1.265625 -0.421875q-0.71875 0 -1.1875 0.34375q-0.453125 0.328125 -0.453125 0.890625q0 0.515625 0.421875 0.796875q0.4375 0.28125 1.734375 0.5625q1.296875 0.28125 2.03125 0.6875q0.75 0.390625 1.109375 0.953125q0.375 0.546875 0.375 1.34375q0 1.328125 -1.109375 2.15625q-1.109375 0.828125 -2.890625 0.828125q-1.203125 0 -2.15625 -0.4375q-0.953125 -0.4375 -1.484375 -1.203125q-0.515625 -0.765625 -0.515625 -1.65625l2.140625 0q0.046875 0.78125 0.59375 1.21875q0.546875 0.421875 1.453125 0.421875q0.875 0 1.328125 -0.328125q0.453125 -0.34375 0.453125 -0.875zm9.988121 2.671875q-0.140625 -0.28125 -0.25 -0.921875q-1.046875 1.109375 -2.5781326 1.109375q-1.484375 0 -2.4375 -0.84375q-0.9375 -0.859375 -0.9375 -2.109375q0 -1.578125 1.171875 -2.40625q1.171875 -0.84375 3.3593826 -0.84375l1.359375 0l0 -0.65625q0 -0.765625 -0.4375 -1.21875q-0.421875 -0.46875 -1.2968826 -0.46875q-0.765625 0 -1.25 0.390625q-0.46875 0.375 -0.46875 0.953125l-2.21875 0q0 -0.8125 0.53125 -1.515625q0.546875 -0.703125 1.46875 -1.09375q0.921875 -0.40625 2.0625 -0.40625q1.7343826 0 2.7500076 0.875q1.03125 0.859375 1.0625 2.4375l0 4.4375q0 1.328125 0.375 2.125l0 0.15625l-2.265625 0zm-2.4218826 -1.59375q0.6562576 0 1.2343826 -0.3125q0.578125 -0.328125 0.875 -0.859375l0 -1.859375l-1.203125 0q-1.2343826 0 -1.8593826 0.4375q-0.609375 0.421875 -0.609375 1.203125q0 0.640625 0.421875 1.015625q0.421875 0.375 1.140625 0.375zm10.68708 0.015625q0.828125 0 1.375 -0.484375q0.546875 -0.484375 0.578125 -1.203125l2.09375 0q-0.046875 0.921875 -0.59375 1.71875q-0.53125 0.796875 -1.453125 1.265625q-0.90625 0.46875 -1.984375 0.46875q-2.0625 0 -3.28125 -1.34375q-1.203125 -1.34375 -1.203125 -3.703125l0 -0.21875q0 -2.25 1.203125 -3.59375q1.203125 -1.359375 3.28125 -1.359375q1.75 0 2.859375 1.03125q1.109375 1.015625 1.171875 2.671875l-2.09375 0q-0.03125 -0.84375 -0.578125 -1.390625q-0.546875 -0.546875 -1.375 -0.546875q-1.078125 0 -1.671875 0.78125q-0.578125 0.78125 -0.578125 2.359375l0 0.359375q0 1.609375 0.578125 2.40625q0.578125 0.78125 1.671875 0.78125zm8.484131 -10.671875l0 2.390625l1.734375 0l0 1.640625l-1.734375 0l0 5.5q0 0.5625 0.21875 0.8125q0.234375 0.25 0.796875 0.25q0.390625 0 0.78125 -0.078125l0 1.703125q-0.75 0.21875 -1.453125 0.21875q-2.5625 0 -2.5625 -2.8125l0 -5.59375l-1.609375 0l0 -1.640625l1.609375 0l0 -2.390625l2.21875 0zm5.7816925 12.25l-2.203125 0l0 -9.859375l2.203125 0l0 9.859375zm-2.34375 -12.421875q0 -0.5 0.3125 -0.828125q0.328125 -0.34375 0.921875 -0.34375q0.609375 0 0.9375 0.34375q0.328125 0.328125 0.328125 0.828125q0 0.5 -0.328125 0.84375q-0.328125 0.328125 -0.9375 0.328125q-0.59375 0 -0.921875 -0.328125q-0.3125 -0.34375 -0.3125 -0.84375zm4.342392 7.40625q0 -1.453125 0.578125 -2.609375q0.578125 -1.171875 1.609375 -1.78125q1.03125 -0.625 2.390625 -0.625q1.984375 0 3.234375 1.28125q1.25 1.28125 1.34375 3.40625l0.015625 0.515625q0 1.453125 -0.5625 2.609375q-0.5625 1.140625 -1.609375 1.78125q-1.046875 0.625 -2.40625 0.625q-2.09375 0 -3.34375 -1.390625q-1.25 -1.390625 -1.25 -3.703125l0 -0.109375zm2.21875 0.1875q0 1.515625 0.625 2.390625q0.625 0.859375 1.75 0.859375q1.125 0 1.734375 -0.875q0.625 -0.875 0.625 -2.5625q0 -1.5 -0.640625 -2.375q-0.640625 -0.875 -1.734375 -0.875q-1.09375 0 -1.734375 0.859375q-0.625 0.859375 -0.625 2.578125zm10.871674 -5.03125l0.0625 1.140625q1.09375 -1.3125 2.875 -1.3125q3.078125 0 3.125 3.515625l0 6.515625l-2.203125 0l0 -6.390625q0 -0.9375 -0.40625 -1.375q-0.40625 -0.453125 -1.328125 -0.453125q-1.34375 0 -2.0 1.203125l0 7.015625l-2.203125 0l0 -9.859375l2.078125 0zm13.844467 7.1875q0 -0.59375 -0.484375 -0.90625q-0.484375 -0.3125 -1.625 -0.546875q-1.125 -0.234375 -1.875 -0.609375q-1.65625 -0.796875 -1.65625 -2.3125q0 -1.28125 1.0625 -2.125q1.078125 -0.859375 2.734375 -0.859375q1.78125 0 2.859375 0.875q1.09375 0.859375 1.09375 2.265625l-2.21875 0q0 -0.640625 -0.46875 -1.0625q-0.46875 -0.421875 -1.265625 -0.421875q-0.71875 0 -1.1875 0.34375q-0.453125 0.328125 -0.453125 0.890625q0 0.515625 0.421875 0.796875q0.4375 0.28125 1.734375 0.5625q1.296875 0.28125 2.03125 0.6875q0.75 0.390625 1.109375 0.953125q0.375 0.546875 0.375 1.34375q0 1.328125 -1.109375 2.15625q-1.109375 0.828125 -2.890625 0.828125q-1.203125 0 -2.15625 -0.4375q-0.953125 -0.4375 -1.484375 -1.203125q-0.515625 -0.765625 -0.515625 -1.65625l2.140625 0q0.046875 0.78125 0.59375 1.21875q0.546875 0.421875 1.453125 0.421875q0.875 0 1.328125 -0.328125q0.453125 -0.34375 0.453125 -0.875zm6.1599884 -1.234375q0 -1.203125 0.296875 -1.921875q0.3125 -0.71875 1.1875 -1.578125q0.890625 -0.859375 1.125 -1.234375q0.375 -0.546875 0.375 -1.203125q0 -0.84375 -0.4375 -1.296875q-0.421875 -0.453125 -1.234375 -0.453125q-0.78125 0 -1.265625 0.4375q-0.46875 0.4375 -0.46875 1.203125l-2.21875 0q0.015625 -1.609375 1.09375 -2.546875q1.078125 -0.953125 2.859375 -0.953125q1.828125 0 2.84375 0.9375q1.03125 0.921875 1.03125 2.59375q0 1.484375 -1.375 2.921875l-1.125 1.109375q-0.59375 0.6875 -0.625 1.984375l-2.0625 0zm-0.15625 2.84375q0 -0.546875 0.328125 -0.875q0.34375 -0.328125 0.921875 -0.328125q0.578125 0 0.90625 0.34375q0.34375 0.34375 0.34375 0.859375q0 0.5 -0.328125 0.84375q-0.328125 0.328125 -0.921875 0.328125q-0.59375 0 -0.921875 -0.328125q-0.328125 -0.34375 -0.328125 -0.84375z" fill-rule="nonzero"/><path fill="#2fa4da" d="m333.13397 18.88189l160.22049 0l0 83.55906l-160.22049 0z" fill-rule="evenodd"/><path fill="#ffffff" d="m366.65985 54.31579l0 8.859375q0 2.125 -1.359375 3.359375q-1.34375 1.234375 -3.59375 1.234375q-2.28125 0 -3.625 -1.21875q-1.328125 -1.21875 -1.328125 -3.375l0 -8.859375l2.296875 0l0 8.875q0 1.328125 0.671875 2.03125q0.671875 0.703125 1.984375 0.703125q2.65625 0 2.65625 -2.8125l0 -8.796875l2.296875 0zm7.770569 10.59375q0 -0.59375 -0.484375 -0.90625q-0.484375 -0.3125 -1.625 -0.546875q-1.125 -0.234375 -1.875 -0.609375q-1.65625 -0.796875 -1.65625 -2.3125q0 -1.28125 1.0625 -2.125q1.078125 -0.859375 2.734375 -0.859375q1.78125 0 2.859375 0.875q1.09375 0.859375 1.09375 2.265625l-2.21875 0q0 -0.640625 -0.46875 -1.0625q-0.46875 -0.421875 -1.265625 -0.421875q-0.71875 0 -1.1875 0.34375q-0.453125 0.328125 -0.453125 0.890625q0 0.515625 0.421875 0.796875q0.4375 0.28125 1.734375 0.5625q1.296875 0.28125 2.03125 0.6875q0.75 0.390625 1.109375 0.953125q0.375 0.546875 0.375 1.34375q0 1.328125 -1.109375 2.15625q-1.109375 0.828125 -2.890625 0.828125q-1.203125 0 -2.15625 -0.4375q-0.953125 -0.4375 -1.484375 -1.203125q-0.515625 -0.765625 -0.515625 -1.65625l2.140625 0q0.046875 0.78125 0.59375 1.21875q0.546875 0.421875 1.453125 0.421875q0.875 0 1.328125 -0.328125q0.453125 -0.34375 0.453125 -0.875zm8.441223 2.859375q-2.09375 0 -3.40625 -1.328125q-1.3125 -1.328125 -1.3125 -3.53125l0 -0.28125q0 -1.46875 0.5625 -2.625q0.578125 -1.171875 1.609375 -1.8125q1.03125 -0.640625 2.296875 -0.640625q2.015625 0 3.109375 1.28125q1.09375 1.28125 1.09375 3.625l0 0.890625l-6.4375 0q0.109375 1.234375 0.8125 1.953125q0.71875 0.703125 1.8125 0.703125q1.515625 0 2.46875 -1.234375l1.203125 1.140625q-0.59375 0.875 -1.59375 1.375q-0.984375 0.484375 -2.21875 0.484375zm-0.265625 -8.453125q-0.90625 0 -1.46875 0.640625q-0.5625 0.640625 -0.703125 1.78125l4.203125 0l0 -0.171875q-0.0625 -1.109375 -0.59375 -1.671875q-0.515625 -0.578125 -1.4375 -0.578125zm10.797821 8.265625l0 -13.265625l3.921875 0q1.75 0 3.109375 0.78125q1.375 0.78125 2.109375 2.234375q0.75 1.4375 0.75 3.296875l0 0.65625q0 1.890625 -0.75 3.328125q-0.75 1.421875 -2.140625 2.203125q-1.390625 0.765625 -3.171875 0.765625l-3.828125 0zm2.3125 -11.40625l0 9.5625l1.5 0q1.8125 0 2.78125 -1.125q0.96875 -1.140625 0.984375 -3.265625l0 -0.734375q0 -2.15625 -0.9375 -3.296875q-0.9375 -1.140625 -2.71875 -1.140625l-1.609375 0zm15.547882 11.40625q-0.140625 -0.28125 -0.25 -0.921875q-1.046875 1.109375 -2.578125 1.109375q-1.484375 0 -2.4375 -0.84375q-0.9375 -0.859375 -0.9375 -2.109375q0 -1.578125 1.171875 -2.40625q1.171875 -0.84375 3.359375 -0.84375l1.359375 0l0 -0.65625q0 -0.765625 -0.4375 -1.21875q-0.421875 -0.46875 -1.296875 -0.46875q-0.765625 0 -1.25 0.390625q-0.46875 0.375 -0.46875 0.953125l-2.21875 0q0 -0.8125 0.53125 -1.515625q0.546875 -0.703125 1.46875 -1.09375q0.921875 -0.40625 2.0625 -0.40625q1.734375 0 2.75 0.875q1.03125 0.859375 1.0625 2.4375l0 4.4375q0 1.328125 0.375 2.125l0 0.15625l-2.265625 0zm-2.421875 -1.59375q0.65625 0 1.234375 -0.3125q0.578125 -0.328125 0.875 -0.859375l0 -1.859375l-1.203125 0q-1.234375 0 -1.859375 0.4375q-0.609375 0.421875 -0.609375 1.203125q0 0.640625 0.421875 1.015625q0.421875 0.375 1.140625 0.375zm9.405823 -10.65625l0 2.390625l1.734375 0l0 1.640625l-1.734375 0l0 5.5q0 0.5625 0.21875 0.8125q0.234375 0.25 0.796875 0.25q0.390625 0 0.78125 -0.078125l0 1.703125q-0.75 0.21875 -1.453125 0.21875q-2.5625 0 -2.5625 -2.8125l0 -5.59375l-1.609375 0l0 -1.640625l1.609375 0l0 -2.390625l2.21875 0zm9.312927 12.25q-0.140625 -0.28125 -0.25 -0.921875q-1.046875 1.109375 -2.578125 1.109375q-1.484375 0 -2.4375 -0.84375q-0.9375 -0.859375 -0.9375 -2.109375q0 -1.578125 1.171875 -2.40625q1.171875 -0.84375 3.359375 -0.84375l1.359375 0l0 -0.65625q0 -0.765625 -0.4375 -1.21875q-0.421875 -0.46875 -1.296875 -0.46875q-0.765625 0 -1.25 0.390625q-0.46875 0.375 -0.46875 0.953125l-2.21875 0q0 -0.8125 0.53125 -1.515625q0.546875 -0.703125 1.46875 -1.09375q0.921875 -0.40625 2.0625 -0.40625q1.734375 0 2.75 0.875q1.03125 0.859375 1.0625 2.4375l0 4.4375q0 1.328125 0.375 2.125l0 0.15625l-2.265625 0zm-2.421875 -1.59375q0.65625 0 1.234375 -0.3125q0.578125 -0.328125 0.875 -0.859375l0 -1.859375l-1.203125 0q-1.234375 0 -1.859375 0.4375q-0.609375 0.421875 -0.609375 1.203125q0 0.640625 0.421875 1.015625q0.421875 0.375 1.140625 0.375zm15.280823 -3.234375q0 2.296875 -1.03125 3.65625q-1.015625 1.359375 -2.8125 1.359375q-1.734375 0 -2.6875 -1.25l-0.109375 1.0625l-2.015625 0l0 -14.0l2.21875 0l0 5.09375q0.953125 -1.125 2.578125 -1.125q1.796875 0 2.828125 1.34375q1.03125 1.328125 1.03125 3.734375l0 0.125zm-2.21875 -0.1875q0 -1.609375 -0.5625 -2.40625q-0.5625 -0.796875 -1.640625 -0.796875q-1.4375 0 -2.015625 1.25l0 4.0625q0.59375 1.28125 2.046875 1.28125q1.03125 0 1.59375 -0.765625q0.5625 -0.78125 0.578125 -2.34375l0 -0.28125zm9.95639 5.015625q-0.140625 -0.28125 -0.25 -0.921875q-1.046875 1.109375 -2.578125 1.109375q-1.484375 0 -2.4375 -0.84375q-0.9375 -0.859375 -0.9375 -2.109375q0 -1.578125 1.171875 -2.40625q1.171875 -0.84375 3.359375 -0.84375l1.359375 0l0 -0.65625q0 -0.765625 -0.4375 -1.21875q-0.421875 -0.46875 -1.296875 -0.46875q-0.765625 0 -1.25 0.390625q-0.46875 0.375 -0.46875 0.953125l-2.21875 0q0 -0.8125 0.53125 -1.515625q0.546875 -0.703125 1.46875 -1.09375q0.921875 -0.40625 2.0625 -0.40625q1.734375 0 2.75 0.875q1.03125 0.859375 1.0625 2.4375l0 4.4375q0 1.328125 0.375 2.125l0 0.15625l-2.265625 0zm-2.421875 -1.59375q0.65625 0 1.234375 -0.3125q0.578125 -0.328125 0.875 -0.859375l0 -1.859375l-1.203125 0q-1.234375 0 -1.859375 0.4375q-0.609375 0.421875 -0.609375 1.203125q0 0.640625 0.421875 1.015625q0.421875 0.375 1.140625 0.375zm12.155823 -1.078125q0 -0.59375 -0.484375 -0.90625q-0.484375 -0.3125 -1.625 -0.546875q-1.125 -0.234375 -1.875 -0.609375q-1.65625 -0.796875 -1.65625 -2.3125q0 -1.28125 1.0625 -2.125q1.078125 -0.859375 2.734375 -0.859375q1.78125 0 2.859375 0.875q1.09375 0.859375 1.09375 2.265625l-2.21875 0q0 -0.640625 -0.46875 -1.0625q-0.46875 -0.421875 -1.265625 -0.421875q-0.71875 0 -1.1875 0.34375q-0.453125 0.328125 -0.453125 0.890625q0 0.515625 0.421875 0.796875q0.4375 0.28125 1.734375 0.5625q1.296875 0.28125 2.03125 0.6875q0.75 0.390625 1.109375 0.953125q0.375 0.546875 0.375 1.34375q0 1.328125 -1.109375 2.15625q-1.109375 0.828125 -2.890625 0.828125q-1.203125 0 -2.15625 -0.4375q-0.953125 -0.4375 -1.484375 -1.203125q-0.515625 -0.765625 -0.515625 -1.65625l2.140625 0q0.046875 0.78125 0.59375 1.21875q0.546875 0.421875 1.453125 0.421875q0.875 0 1.328125 -0.328125q0.453125 -0.34375 0.453125 -0.875zm8.441223 2.859375q-2.09375 0 -3.40625 -1.328125q-1.3125 -1.328125 -1.3125 -3.53125l0 -0.28125q0 -1.46875 0.5625 -2.625q0.578125 -1.171875 1.609375 -1.8125q1.03125 -0.640625 2.296875 -0.640625q2.015625 0 3.109375 1.28125q1.09375 1.28125 1.09375 3.625l0 0.890625l-6.4375 0q0.109375 1.234375 0.8125 1.953125q0.71875 0.703125 1.8125 0.703125q1.515625 0 2.46875 -1.234375l1.203125 1.140625q-0.59375 0.875 -1.59375 1.375q-0.984375 0.484375 -2.21875 0.484375zm-0.265625 -8.453125q-0.90625 0 -1.46875 0.640625q-0.5625 0.640625 -0.703125 1.78125l4.203125 0l0 -0.171875q-0.0625 -1.109375 -0.59375 -1.671875q-0.515625 -0.578125 -1.4375 -0.578125z" fill-rule="nonzero"/><path fill="#d07839" d="m0 232.36482l136.7874 -60.661407l136.7874 60.661407l-136.7874 60.661423z" fill-rule="evenodd"/><path fill="#ffffff" d="m109.637314 228.28482l-2.3125 0l-5.90625 -9.40625l0 9.40625l-2.3125 0l0 -13.265625l2.3125 0l5.921875 9.453125l0 -9.453125l2.296875 0l0 13.265625zm6.8389587 0.1875q-2.09375 0 -3.40625 -1.328125q-1.3125 -1.328125 -1.3125 -3.53125l0 -0.28125q0 -1.46875 0.5625 -2.625q0.578125 -1.171875 1.609375 -1.8125q1.03125 -0.640625 2.296875 -0.640625q2.015625 0 3.109375 1.28125q1.09375 1.28125 1.09375 3.625l0 0.890625l-6.4375 0q0.109375 1.234375 0.8125 1.953125q0.71875 0.703125 1.8125 0.703125q1.515625 0 2.46875 -1.234375l1.203125 1.140625q-0.59375 0.875 -1.59375 1.375q-0.984375 0.484375 -2.21875 0.484375zm-0.265625 -8.453125q-0.90625 0 -1.46875 0.640625q-0.5625 0.640625 -0.703125 1.78125l4.203125 0l0 -0.171875q-0.0625 -1.109375 -0.59375 -1.671875q-0.515625 -0.578125 -1.4375 -0.578125zm10.276962 8.453125q-2.09375 0 -3.40625 -1.328125q-1.3125 -1.328125 -1.3125 -3.53125l0 -0.28125q0 -1.46875 0.5625 -2.625q0.578125 -1.171875 1.609375 -1.8125q1.03125 -0.640625 2.296875 -0.640625q2.015625 0 3.109375 1.28125q1.09375 1.28125 1.09375 3.625l0 0.890625l-6.4375 0q0.109375 1.234375 0.8125 1.953125q0.71875 0.703125 1.8125 0.703125q1.515625 0 2.46875 -1.234375l1.203125 1.140625q-0.59375 0.875 -1.59375 1.375q-0.984375 0.484375 -2.21875 0.484375zm-0.265625 -8.453125q-0.90625 0 -1.46875 0.640625q-0.5625 0.640625 -0.703125 1.78125l4.203125 0l0 -0.171875q-0.0625 -1.109375 -0.59375 -1.671875q-0.515625 -0.578125 -1.4375 -0.578125zm5.5269623 3.265625q0 -2.28125 1.046875 -3.65625q1.0625 -1.375 2.84375 -1.375q1.5625 0 2.53125 1.078125l0 -5.046875l2.21875 0l0 14.0l-2.015625 0l-0.109375 -1.015625q-0.984375 1.203125 -2.640625 1.203125q-1.734375 0 -2.8125 -1.390625q-1.0625 -1.40625 -1.0625 -3.796875zm2.21875 0.1875q0 1.5 0.578125 2.34375q0.578125 0.84375 1.640625 0.84375q1.359375 0 1.984375 -1.203125l0 -4.21875q-0.609375 -1.171875 -1.96875 -1.171875q-1.078125 0 -1.65625 0.859375q-0.578125 0.84375 -0.578125 2.546875zm21.004547 1.71875l-5.125 0l-1.078125 3.09375l-2.40625 0l5.015625 -13.265625l2.0625 0l5.03125 13.265625l-2.40625 0l-1.09375 -3.09375zm-4.484375 -1.859375l3.84375 0l-1.921875 -5.5l-1.921875 5.5zm11.7912445 0.03125l0 4.921875l-2.3125 0l0 -13.265625l5.078125 0q2.21875 0 3.53125 1.15625q1.3125 1.15625 1.3125 3.0625q0 1.953125 -1.28125 3.046875q-1.28125 1.078125 -3.59375 1.078125l-2.734375 0zm0 -1.859375l2.765625 0q1.234375 0 1.875 -0.578125q0.65625 -0.578125 0.65625 -1.671875q0 -1.078125 -0.65625 -1.71875q-0.65625 -0.640625 -1.8125 -0.65625l-2.828125 0l0 4.625zm12.049332 6.78125l-2.296875 0l0 -13.265625l2.296875 0l0 13.265625z" fill-rule="nonzero"/><path fill="#ffffff" d="m110.408585 247.19107l-5.125 0l-1.078125 3.09375l-2.40625 0l5.015625 -13.265625l2.0625 0l5.03125 13.265625l-2.40625 0l-1.09375 -3.09375zm-4.484375 -1.859375l3.84375 0l-1.921875 -5.5l-1.921875 5.5zm13.3224945 3.375q0.828125 0 1.375 -0.484375q0.546875 -0.484375 0.578125 -1.203125l2.09375 0q-0.046875 0.921875 -0.59375 1.71875q-0.53125 0.796875 -1.453125 1.265625q-0.90625 0.46875 -1.984375 0.46875q-2.0625 0 -3.28125 -1.34375q-1.203125 -1.34375 -1.203125 -3.703125l0 -0.21875q0 -2.25 1.203125 -3.59375q1.203125 -1.359375 3.28125 -1.359375q1.75 0 2.859375 1.03125q1.109375 1.015625 1.171875 2.671875l-2.09375 0q-0.03125 -0.84375 -0.578125 -1.390625q-0.546875 -0.546875 -1.375 -0.546875q-1.078125 0 -1.671875 0.78125q-0.578125 0.78125 -0.578125 2.359375l0 0.359375q0 1.609375 0.578125 2.40625q0.578125 0.78125 1.671875 0.78125zm9.765381 0q0.828125 0 1.375 -0.484375q0.546875 -0.484375 0.578125 -1.203125l2.09375 0q-0.046875 0.921875 -0.59375 1.71875q-0.53125 0.796875 -1.453125 1.265625q-0.90625 0.46875 -1.984375 0.46875q-2.0625 0 -3.28125 -1.34375q-1.203125 -1.34375 -1.203125 -3.703125l0 -0.21875q0 -2.25 1.203125 -3.59375q1.203125 -1.359375 3.28125 -1.359375q1.75 0 2.859375 1.03125q1.109375 1.015625 1.171875 2.671875l-2.09375 0q-0.03125 -0.84375 -0.578125 -1.390625q-0.546875 -0.546875 -1.375 -0.546875q-1.078125 0 -1.671875 0.78125q-0.578125 0.78125 -0.578125 2.359375l0 0.359375q0 1.609375 0.578125 2.40625q0.578125 0.78125 1.671875 0.78125zm10.046631 1.765625q-2.09375 0 -3.40625 -1.328125q-1.3125 -1.328125 -1.3125 -3.53125l0 -0.28125q0 -1.46875 0.5625 -2.625q0.578125 -1.171875 1.609375 -1.8125q1.03125 -0.640625 2.296875 -0.640625q2.015625 0 3.109375 1.28125q1.09375 1.28125 1.09375 3.625l0 0.890625l-6.4375 0q0.109375 1.234375 0.8125 1.953125q0.71875 0.703125 1.8125 0.703125q1.515625 0 2.46875 -1.234375l1.203125 1.140625q-0.59375 0.875 -1.59375 1.375q-0.984375 0.484375 -2.21875 0.484375zm-0.265625 -8.453125q-0.90625 0 -1.46875 0.640625q-0.5625 0.640625 -0.703125 1.78125l4.203125 0l0 -0.171875q-0.0625 -1.109375 -0.59375 -1.671875q-0.515625 -0.578125 -1.4375 -0.578125zm11.464462 5.59375q0 -0.59375 -0.484375 -0.90625q-0.484375 -0.3125 -1.625 -0.546875q-1.125 -0.234375 -1.875 -0.609375q-1.65625 -0.796875 -1.65625 -2.3125q0 -1.28125 1.0625 -2.125q1.078125 -0.859375 2.734375 -0.859375q1.78125 0 2.859375 0.875q1.09375 0.859375 1.09375 2.265625l-2.21875 0q0 -0.640625 -0.46875 -1.0625q-0.46875 -0.421875 -1.265625 -0.421875q-0.71875 0 -1.1875 0.34375q-0.453125 0.328125 -0.453125 0.890625q0 0.515625 0.421875 0.796875q0.4375 0.28125 1.734375 0.5625q1.296875 0.28125 2.03125 0.6875q0.75 0.390625 1.109375 0.953125q0.375 0.546875 0.375 1.34375q0 1.328125 -1.109375 2.15625q-1.109375 0.828125 -2.890625 0.828125q-1.203125 0 -2.15625 -0.4375q-0.953125 -0.4375 -1.484375 -1.203125q-0.515625 -0.765625 -0.515625 -1.65625l2.140625 0q0.046875 0.78125 0.59375 1.21875q0.546875 0.421875 1.453125 0.421875q0.875 0 1.328125 -0.328125q0.453125 -0.34375 0.453125 -0.875zm9.628738 0q0 -0.59375 -0.484375 -0.90625q-0.484375 -0.3125 -1.625 -0.546875q-1.125 -0.234375 -1.875 -0.609375q-1.65625 -0.796875 -1.65625 -2.3125q0 -1.28125 1.0625 -2.125q1.078125 -0.859375 2.734375 -0.859375q1.78125 0 2.859375 0.875q1.09375 0.859375 1.09375 2.265625l-2.21875 0q0 -0.640625 -0.46875 -1.0625q-0.46875 -0.421875 -1.265625 -0.421875q-0.71875 0 -1.1875 0.34375q-0.453125 0.328125 -0.453125 0.890625q0 0.515625 0.421875 0.796875q0.4375 0.28125 1.734375 0.5625q1.296875 0.28125 2.03125 0.6875q0.75 0.390625 1.109375 0.953125q0.375 0.546875 0.375 1.34375q0 1.328125 -1.109375 2.15625q-1.109375 0.828125 -2.890625 0.828125q-1.203125 0 -2.15625 -0.4375q-0.953125 -0.4375 -1.484375 -1.203125q-0.515625 -0.765625 -0.515625 -1.65625l2.140625 0q0.046875 0.78125 0.59375 1.21875q0.546875 0.421875 1.453125 0.421875q0.875 0 1.328125 -0.328125q0.453125 -0.34375 0.453125 -0.875zm6.1599884 -1.234375q0 -1.203125 0.296875 -1.921875q0.3125 -0.71875 1.1875 -1.578125q0.890625 -0.859375 1.125 -1.234375q0.375 -0.546875 0.375 -1.203125q0 -0.84375 -0.4375 -1.296875q-0.421875 -0.453125 -1.234375 -0.453125q-0.78125 0 -1.265625 0.4375q-0.46875 0.4375 -0.46875 1.203125l-2.21875 0q0.015625 -1.609375 1.09375 -2.546875q1.078125 -0.953125 2.859375 -0.953125q1.828125 0 2.84375 0.9375q1.03125 0.921875 1.03125 2.59375q0 1.484375 -1.375 2.921875l-1.125 1.109375q-0.59375 0.6875 -0.625 1.984375l-2.0625 0zm-0.15625 2.84375q0 -0.546875 0.328125 -0.875q0.34375 -0.328125 0.921875 -0.328125q0.578125 0 0.90625 0.34375q0.34375 0.34375 0.34375 0.859375q0 0.5 -0.328125 0.84375q-0.328125 0.328125 -0.921875 0.328125q-0.59375 0 -0.921875 -0.328125q-0.328125 -0.34375 -0.328125 -0.84375z" fill-rule="nonzero"/><path fill="#2fa4da" d="m333.13397 190.5853l160.22049 0l0 83.55905l-160.22049 0z" fill-rule="evenodd"/><path fill="#ffffff" d="m386.7782 204.0192l0 8.859375q0 2.125 -1.359375 3.359375q-1.34375 1.234375 -3.59375 1.234375q-2.28125 0 -3.625 -1.21875q-1.328125 -1.21875 -1.328125 -3.375l0 -8.859375l2.296875 0l0 8.875q0 1.328125 0.671875 2.03125q0.671875 0.703125 1.984375 0.703125q2.65625 0 2.65625 -2.8125l0 -8.796875l2.296875 0zm7.7705383 10.59375q0 -0.59375 -0.484375 -0.90625q-0.484375 -0.3125 -1.625 -0.546875q-1.125 -0.234375 -1.875 -0.609375q-1.65625 -0.796875 -1.65625 -2.3125q0 -1.28125 1.0625 -2.125q1.078125 -0.859375 2.734375 -0.859375q1.78125 0 2.859375 0.875q1.09375 0.859375 1.09375 2.265625l-2.21875 0q0 -0.640625 -0.46875 -1.0625q-0.46875 -0.421875 -1.265625 -0.421875q-0.71875 0 -1.1875 0.34375q-0.453125 0.328125 -0.453125 0.890625q0 0.515625 0.421875 0.796875q0.4375 0.28125 1.734375 0.5625q1.296875 0.28125 2.03125 0.6875q0.75 0.390625 1.109375 0.953125q0.375 0.546875 0.375 1.34375q0 1.328125 -1.109375 2.15625q-1.109375 0.828125 -2.890625 0.828125q-1.203125 0 -2.15625 -0.4375q-0.953125 -0.4375 -1.484375 -1.203125q-0.515625 -0.765625 -0.515625 -1.65625l2.140625 0q0.046875 0.78125 0.59375 1.21875q0.546875 0.421875 1.453125 0.421875q0.875 0 1.328125 -0.328125q0.453125 -0.34375 0.453125 -0.875zm8.441254 2.859375q-2.09375 0 -3.40625 -1.328125q-1.3125 -1.328125 -1.3125 -3.53125l0 -0.28125q0 -1.46875 0.5625 -2.625q0.578125 -1.171875 1.609375 -1.8125q1.03125 -0.640625 2.296875 -0.640625q2.015625 0 3.109375 1.28125q1.09375 1.28125 1.09375 3.625l0 0.890625l-6.4375 0q0.109375 1.234375 0.8125 1.953125q0.71875 0.703125 1.8125 0.703125q1.515625 0 2.46875 -1.234375l1.203125 1.140625q-0.59375 0.875 -1.59375 1.375q-0.984375 0.484375 -2.21875 0.484375zm-0.265625 -8.453125q-0.90625 0 -1.46875 0.640625q-0.5625 0.640625 -0.703125 1.78125l4.203125 0l0 -0.171875q-0.0625 -1.109375 -0.59375 -1.671875q-0.515625 -0.578125 -1.4375 -0.578125zm10.797791 8.265625l0 -13.265625l3.921875 0q1.75 0 3.109375 0.78125q1.375 0.78125 2.109375 2.234375q0.75 1.4375 0.75 3.296875l0 0.65625q0 1.890625 -0.75 3.328125q-0.75 1.421875 -2.140625 2.203125q-1.390625 0.765625 -3.171875 0.765625l-3.828125 0zm2.3125 -11.40625l0 9.5625l1.5 0q1.8125 0 2.78125 -1.125q0.96875 -1.140625 0.984375 -3.265625l0 -0.734375q0 -2.15625 -0.9375 -3.296875q-0.9375 -1.140625 -2.71875 -1.140625l-1.609375 0zm15.547882 11.40625q-0.140625 -0.28125 -0.25 -0.921875q-1.046875 1.109375 -2.578125 1.109375q-1.484375 0 -2.4375 -0.84375q-0.9375 -0.859375 -0.9375 -2.109375q0 -1.578125 1.171875 -2.40625q1.171875 -0.84375 3.359375 -0.84375l1.359375 0l0 -0.65625q0 -0.765625 -0.4375 -1.21875q-0.421875 -0.46875 -1.296875 -0.46875q-0.765625 0 -1.25 0.390625q-0.46875 0.375 -0.46875 0.953125l-2.21875 0q0 -0.8125 0.53125 -1.515625q0.546875 -0.703125 1.46875 -1.09375q0.921875 -0.40625 2.0625 -0.40625q1.734375 0 2.75 0.875q1.03125 0.859375 1.0625 2.4375l0 4.4375q0 1.328125 0.375 2.125l0 0.15625l-2.265625 0zm-2.421875 -1.59375q0.65625 0 1.234375 -0.3125q0.578125 -0.328125 0.875 -0.859375l0 -1.859375l-1.203125 0q-1.234375 0 -1.859375 0.4375q-0.609375 0.421875 -0.609375 1.203125q0 0.640625 0.421875 1.015625q0.421875 0.375 1.140625 0.375zm9.405823 -10.65625l0 2.390625l1.734375 0l0 1.640625l-1.734375 0l0 5.5q0 0.5625 0.21875 0.8125q0.234375 0.25 0.796875 0.25q0.390625 0 0.78125 -0.078125l0 1.703125q-0.75 0.21875 -1.453125 0.21875q-2.5625 0 -2.5625 -2.8125l0 -5.59375l-1.609375 0l0 -1.640625l1.609375 0l0 -2.390625l2.21875 0zm9.312958 12.25q-0.140625 -0.28125 -0.25 -0.921875q-1.046875 1.109375 -2.578125 1.109375q-1.484375 0 -2.4375 -0.84375q-0.9375 -0.859375 -0.9375 -2.109375q0 -1.578125 1.171875 -2.40625q1.171875 -0.84375 3.359375 -0.84375l1.359375 0l0 -0.65625q0 -0.765625 -0.4375 -1.21875q-0.421875 -0.46875 -1.296875 -0.46875q-0.765625 0 -1.25 0.390625q-0.46875 0.375 -0.46875 0.953125l-2.21875 0q0 -0.8125 0.53125 -1.515625q0.546875 -0.703125 1.46875 -1.09375q0.921875 -0.40625 2.0625 -0.40625q1.734375 0 2.75 0.875q1.03125 0.859375 1.0625 2.4375l0 4.4375q0 1.328125 0.375 2.125l0 0.15625l-2.265625 0zm-2.421875 -1.59375q0.65625 0 1.234375 -0.3125q0.578125 -0.328125 0.875 -0.859375l0 -1.859375l-1.203125 0q-1.234375 0 -1.859375 0.4375q-0.609375 0.421875 -0.609375 1.203125q0 0.640625 0.421875 1.015625q0.421875 0.375 1.140625 0.375z" fill-rule="nonzero"/><path fill="#ffffff" d="m372.18658 236.00357l2.046875 -9.984375l2.28125 0l-3.0625 13.265625l-2.203125 0l-2.515625 -9.6875l-2.578125 9.6875l-2.21875 0l-3.0625 -13.265625l2.28125 0l2.0625 9.96875l2.53125 -9.96875l1.9375 0l2.5 9.984375zm11.380157 3.28125q-0.140625 -0.28125 -0.25 -0.921875q-1.046875 1.109375 -2.578125 1.109375q-1.484375 0 -2.4375 -0.84375q-0.9375 -0.859375 -0.9375 -2.109375q0 -1.578125 1.171875 -2.40625q1.171875 -0.84375 3.359375 -0.84375l1.359375 0l0 -0.65625q0 -0.765625 -0.4375 -1.21875q-0.421875 -0.46875 -1.296875 -0.46875q-0.765625 0 -1.25 0.390625q-0.46875 0.375 -0.46875 0.953125l-2.21875 0q0 -0.8125 0.53125 -1.515625q0.546875 -0.703125 1.46875 -1.09375q0.921875 -0.40625 2.0625 -0.40625q1.734375 0 2.75 0.875q1.03125 0.859375 1.0625 2.4375l0 4.4375q0 1.328125 0.375 2.125l0 0.15625l-2.265625 0zm-2.421875 -1.59375q0.65625 0 1.234375 -0.3125q0.578125 -0.328125 0.875 -0.859375l0 -1.859375l-1.203125 0q-1.234375 0 -1.859375 0.4375q-0.609375 0.421875 -0.609375 1.203125q0 0.640625 0.421875 1.015625q0.421875 0.375 1.140625 0.375zm11.796448 -6.234375q-0.4375 -0.078125 -0.90625 -0.078125q-1.515625 0 -2.046875 1.171875l0 6.734375l-2.21875 0l0 -9.859375l2.125 0l0.046875 1.109375q0.796875 -1.28125 2.21875 -1.28125q0.484375 0 0.78125 0.125l0 2.078125zm5.557556 8.015625q-2.09375 0 -3.40625 -1.328125q-1.3125 -1.328125 -1.3125 -3.53125l0 -0.28125q0 -1.46875 0.5625 -2.625q0.578125 -1.171875 1.609375 -1.8125q1.03125 -0.640625 2.296875 -0.640625q2.015625 0 3.109375 1.28125q1.09375 1.28125 1.09375 3.625l0 0.890625l-6.4375 0q0.109375 1.234375 0.8125 1.953125q0.71875 0.703125 1.8125 0.703125q1.515625 0 2.46875 -1.234375l1.203125 1.140625q-0.59375 0.875 -1.59375 1.375q-0.984375 0.484375 -2.21875 0.484375zm-0.265625 -8.453125q-0.90625 0 -1.46875 0.640625q-0.5625 0.640625 -0.703125 1.78125l4.203125 0l0 -0.171875q-0.0625 -1.109375 -0.59375 -1.671875q-0.515625 -0.578125 -1.4375 -0.578125zm8.120697 -0.515625q1.09375 -1.25 2.75 -1.25q3.140625 0 3.1875 3.59375l0 6.4375l-2.203125 0l0 -6.359375q0 -1.015625 -0.453125 -1.4375q-0.4375 -0.421875 -1.296875 -0.421875q-1.328125 0 -1.984375 1.171875l0 7.046875l-2.203125 0l0 -14.0l2.203125 0l0 5.21875zm7.7637634 3.765625q0 -1.453125 0.578125 -2.609375q0.578125 -1.171875 1.609375 -1.78125q1.03125 -0.625 2.390625 -0.625q1.984375 0 3.234375 1.28125q1.25 1.28125 1.34375 3.40625l0.015625 0.515625q0 1.453125 -0.5625 2.609375q-0.5625 1.140625 -1.609375 1.78125q-1.046875 0.625 -2.40625 0.625q-2.09375 0 -3.34375 -1.390625q-1.25 -1.390625 -1.25 -3.703125l0 -0.109375zm2.21875 0.1875q0 1.515625 0.625 2.390625q0.625 0.859375 1.75 0.859375q1.125 0 1.734375 -0.875q0.625 -0.875 0.625 -2.5625q0 -1.5 -0.640625 -2.375q-0.640625 -0.875 -1.734375 -0.875q-1.09375 0 -1.734375 0.859375q-0.625 0.859375 -0.625 2.578125zm14.793549 3.859375q-0.984375 1.15625 -2.765625 1.15625q-1.609375 0 -2.4375 -0.9375q-0.828125 -0.9375 -0.828125 -2.71875l0 -6.390625l2.21875 0l0 6.359375q0 1.875 1.5625 1.875q1.609375 0 2.171875 -1.15625l0 -7.078125l2.21875 0l0 9.859375l-2.09375 0l-0.046875 -0.96875zm9.913483 -1.703125q0 -0.59375 -0.484375 -0.90625q-0.484375 -0.3125 -1.625 -0.546875q-1.125 -0.234375 -1.875 -0.609375q-1.65625 -0.796875 -1.65625 -2.3125q0 -1.28125 1.0625 -2.125q1.078125 -0.859375 2.734375 -0.859375q1.78125 0 2.859375 0.875q1.09375 0.859375 1.09375 2.265625l-2.21875 0q0 -0.640625 -0.46875 -1.0625q-0.46875 -0.421875 -1.265625 -0.421875q-0.71875 0 -1.1875 0.34375q-0.453125 0.328125 -0.453125 0.890625q0 0.515625 0.421875 0.796875q0.4375 0.28125 1.734375 0.5625q1.296875 0.28125 2.03125 0.6875q0.75 0.390625 1.109375 0.953125q0.375 0.546875 0.375 1.34375q0 1.328125 -1.109375 2.15625q-1.109375 0.828125 -2.890625 0.828125q-1.203125 0 -2.15625 -0.4375q-0.953125 -0.4375 -1.484375 -1.203125q-0.515625 -0.765625 -0.515625 -1.65625l2.140625 0q0.046875 0.78125 0.59375 1.21875q0.546875 0.421875 1.453125 0.421875q0.875 0 1.328125 -0.328125q0.453125 -0.34375 0.453125 -0.875zm8.441223 2.859375q-2.09375 0 -3.40625 -1.328125q-1.3125 -1.328125 -1.3125 -3.53125l0 -0.28125q0 -1.46875 0.5625 -2.625q0.578125 -1.171875 1.609375 -1.8125q1.03125 -0.640625 2.296875 -0.640625q2.015625 0 3.109375 1.28125q1.09375 1.28125 1.09375 3.625l0 0.890625l-6.4375 0q0.109375 1.234375 0.8125 1.953125q0.71875 0.703125 1.8125 0.703125q1.515625 0 2.46875 -1.234375l1.203125 1.140625q-0.59375 0.875 -1.59375 1.375q-0.984375 0.484375 -2.21875 0.484375zm-0.265625 -8.453125q-0.90625 0 -1.46875 0.640625q-0.5625 0.640625 -0.703125 1.78125l4.203125 0l0 -0.171875q-0.0625 -1.109375 -0.59375 -1.671875q-0.515625 -0.578125 -1.4375 -0.578125zm11.219696 9.40625l-1.75 0l5.21875 -14.40625l1.75 0l-5.21875 14.40625z" fill-rule="nonzero"/><path fill="#ffffff" d="m397.0236 259.44107l6.015625 0l0 1.84375l-8.328125 0l0 -13.265625l2.3125 0l0 11.421875zm13.452698 1.84375q-0.140625 -0.28125 -0.25 -0.921875q-1.046875 1.109375 -2.578125 1.109375q-1.484375 0 -2.4375 -0.84375q-0.9375 -0.859375 -0.9375 -2.109375q0 -1.578125 1.171875 -2.40625q1.171875 -0.84375 3.359375 -0.84375l1.359375 0l0 -0.65625q0 -0.765625 -0.4375 -1.21875q-0.421875 -0.46875 -1.296875 -0.46875q-0.765625 0 -1.25 0.390625q-0.46875 0.375 -0.46875 0.953125l-2.21875 0q0 -0.8125 0.53125 -1.515625q0.546875 -0.703125 1.46875 -1.09375q0.921875 -0.40625 2.0625 -0.40625q1.734375 0 2.75 0.875q1.03125 0.859375 1.0625 2.4375l0 4.4375q0 1.328125 0.375 2.125l0 0.15625l-2.265625 0zm-2.421875 -1.59375q0.65625 0 1.234375 -0.3125q0.578125 -0.328125 0.875 -0.859375l0 -1.859375l-1.203125 0q-1.234375 0 -1.859375 0.4375q-0.609375 0.421875 -0.609375 1.203125q0 0.640625 0.421875 1.015625q0.421875 0.375 1.140625 0.375zm9.843323 -2.640625l-0.984375 1.015625l0 3.21875l-2.21875 0l0 -14.0l2.21875 0l0 8.078125l0.6875 -0.859375l2.71875 -3.078125l2.65625 0l-3.65625 4.109375l4.046875 5.75l-2.546875 0l-2.921875 -4.234375zm10.680756 4.421875q-2.09375 0 -3.40625 -1.328125q-1.3125 -1.328125 -1.3125 -3.53125l0 -0.28125q0 -1.46875 0.5625 -2.625q0.578125 -1.171875 1.609375 -1.8125q1.03125 -0.640625 2.296875 -0.640625q2.015625 0 3.109375 1.28125q1.09375 1.28125 1.09375 3.625l0 0.890625l-6.4375 0q0.109375 1.234375 0.8125 1.953125q0.71875 0.703125 1.8125 0.703125q1.515625 0 2.46875 -1.234375l1.203125 1.140625q-0.59375 0.875 -1.59375 1.375q-0.984375 0.484375 -2.21875 0.484375zm-0.265625 -8.453125q-0.90625 0 -1.46875 0.640625q-0.5625 0.640625 -0.703125 1.78125l4.203125 0l0 -0.171875q-0.0625 -1.109375 -0.59375 -1.671875q-0.515625 -0.578125 -1.4375 -0.578125z" fill-rule="nonzero"/><path fill="#2fa4da" d="m44.063892 348.52493l185.44882 0l0 83.55905l-185.44882 0z" fill-rule="evenodd"/><path fill="#ffffff" d="m64.254196 386.22446l0 -13.265625l4.546875 0q2.25 0 3.421875 0.90625q1.1875 0.90625 1.1875 2.6875q0 0.90625 -0.5 1.640625q-0.484375 0.71875 -1.4375 1.125q1.078125 0.296875 1.65625 1.109375q0.59375 0.796875 0.59375 1.921875q0 1.875 -1.203125 2.875q-1.1875 1.0 -3.421875 1.0l-4.84375 0zm2.3125 -5.984375l0 4.140625l2.5625 0q1.078125 0 1.6875 -0.53125q0.609375 -0.546875 0.609375 -1.5q0 -2.0625 -2.109375 -2.109375l-2.75 0zm0 -1.6875l2.25 0q1.078125 0 1.6875 -0.484375q0.609375 -0.5 0.609375 -1.390625q0 -0.984375 -0.5625 -1.421875q-0.5625 -0.4375 -1.75 -0.4375l-2.234375 0l0 3.734375zm15.222595 6.703125q-0.984375 1.15625 -2.765625 1.15625q-1.609375 0 -2.4375 -0.9375q-0.828125 -0.9375 -0.828125 -2.71875l0 -6.390625l2.21875 0l0 6.359375q0 1.875 1.5625 1.875q1.609375 0 2.171875 -1.15625l0 -7.078125l2.21875 0l0 9.859375l-2.09375 0l-0.046875 -0.96875zm6.7416077 0.96875l-2.203125 0l0 -9.859375l2.203125 0l0 9.859375zm-2.34375 -12.421875q0 -0.5 0.3125 -0.828125q0.328125 -0.34375 0.921875 -0.34375q0.609375 0 0.9375 0.34375q0.328125 0.328125 0.328125 0.828125q0 0.5 -0.328125 0.84375q-0.328125 0.328125 -0.9375 0.328125q-0.59375 0 -0.921875 -0.328125q-0.3125 -0.34375 -0.3125 -0.84375zm7.108017 12.421875l-2.203125 0l0 -14.0l2.203125 0l0 14.0zm1.998642 -5.0q0 -2.28125 1.046875 -3.65625q1.0625 -1.375 2.84375 -1.375q1.5625 0 2.53125 1.078125l0 -5.046875l2.21875 0l0 14.0l-2.015625 0l-0.109375 -1.015625q-0.984375 1.203125 -2.640625 1.203125q-1.734375 0 -2.8125 -1.390625q-1.0625 -1.40625 -1.0625 -3.796875zm2.21875 0.1875q0 1.5 0.578125 2.34375q0.578125 0.84375 1.640625 0.84375q1.359375 0 1.984375 -1.203125l0 -4.21875q-0.609375 -1.171875 -1.96875 -1.171875q-1.078125 0 -1.65625 0.859375q-0.578125 0.84375 -0.578125 2.546875zm15.895172 -0.109375l0 4.921875l-2.3125 0l0 -13.265625l5.078125 0q2.21875 0 3.53125 1.15625q1.3125 1.15625 1.3125 3.0625q0 1.953125 -1.28125 3.046875q-1.28125 1.078125 -3.59375 1.078125l-2.734375 0zm0 -1.859375l2.765625 0q1.234375 0 1.875 -0.578125q0.65625 -0.578125 0.65625 -1.671875q0 -1.078125 -0.65625 -1.71875q-0.65625 -0.640625 -1.8125 -0.65625l-2.828125 0l0 4.625zm14.564957 -1.046875q-0.4375 -0.078125 -0.90625 -0.078125q-1.515625 0 -2.046875 1.171875l0 6.734375l-2.21875 0l0 -9.859375l2.125 0l0.046875 1.109375q0.796875 -1.28125 2.21875 -1.28125q0.484375 0 0.78125 0.125l0 2.078125zm0.6525879 2.8125q0 -1.453125 0.578125 -2.609375q0.578125 -1.171875 1.609375 -1.78125q1.03125 -0.625 2.390625 -0.625q1.984375 0 3.234375 1.28125q1.25 1.28125 1.34375 3.40625l0.015625 0.515625q0 1.453125 -0.5625 2.609375q-0.5625 1.140625 -1.609375 1.78125q-1.046875 0.625 -2.40625 0.625q-2.09375 0 -3.34375 -1.390625q-1.25 -1.390625 -1.25 -3.703125l0 -0.109375zm2.21875 0.1875q0 1.515625 0.625 2.390625q0.625 0.859375 1.75 0.859375q1.125 0 1.734375 -0.875q0.625 -0.875 0.625 -2.5625q0 -1.5 -0.640625 -2.375q-0.640625 -0.875 -1.734375 -0.875q-1.09375 0 -1.734375 0.859375q-0.625 0.859375 -0.625 2.578125zm11.590424 -7.421875l0 2.390625l1.734375 0l0 1.640625l-1.734375 0l0 5.5q0 0.5625 0.21875 0.8125q0.234375 0.25 0.796875 0.25q0.390625 0 0.78125 -0.078125l0 1.703125q-0.75 0.21875 -1.453125 0.21875q-2.5625 0 -2.5625 -2.8125l0 -5.59375l-1.609375 0l0 -1.640625l1.609375 0l0 -2.390625l2.21875 0zm2.74263 7.234375q0 -1.453125 0.578125 -2.609375q0.578125 -1.171875 1.609375 -1.78125q1.03125 -0.625 2.390625 -0.625q1.984375 0 3.234375 1.28125q1.25 1.28125 1.34375 3.40625l0.015625 0.515625q0 1.453125 -0.5625 2.609375q-0.5625 1.140625 -1.609375 1.78125q-1.046875 0.625 -2.40625 0.625q-2.09375 0 -3.34375 -1.390625q-1.25 -1.390625 -1.25 -3.703125l0 -0.109375zm2.21875 0.1875q0 1.515625 0.625 2.390625q0.625 0.859375 1.75 0.859375q1.125 0 1.734375 -0.875q0.625 -0.875 0.625 -2.5625q0 -1.5 -0.640625 -2.375q-0.640625 -0.875 -1.734375 -0.875q-1.09375 0 -1.734375 0.859375q-0.625 0.859375 -0.625 2.578125zm11.590424 -7.421875l0 2.390625l1.734375 0l0 1.640625l-1.734375 0l0 5.5q0 0.5625 0.21875 0.8125q0.234375 0.25 0.796875 0.25q0.390625 0 0.78125 -0.078125l0 1.703125q-0.75 0.21875 -1.453125 0.21875q-2.5625 0 -2.5625 -2.8125l0 -5.59375l-1.609375 0l0 -1.640625l1.609375 0l0 -2.390625l2.21875 0zm6.8754425 9.078125l2.015625 -6.6875l2.359375 0l-3.921875 11.359375q-0.90625 2.484375 -3.0625 2.484375q-0.484375 0 -1.0625 -0.171875l0 -1.703125l0.421875 0.015625q0.828125 0 1.25 -0.3125q0.421875 -0.296875 0.671875 -1.015625l0.328125 -0.84375l-3.46875 -9.8125l2.390625 0l2.078125 6.6875zm14.269669 -1.65625q0 2.28125 -1.046875 3.65625q-1.03125 1.359375 -2.78125 1.359375q-1.625 0 -2.59375 -1.078125l0 4.6875l-2.21875 0l0 -13.65625l2.046875 0l0.09375 1.0q0.96875 -1.171875 2.640625 -1.171875q1.8125 0 2.828125 1.34375q1.03125 1.34375 1.03125 3.71875l0 0.140625zm-2.203125 -0.1875q0 -1.484375 -0.59375 -2.34375q-0.578125 -0.859375 -1.671875 -0.859375q-1.359375 0 -1.953125 1.109375l0 4.375q0.59375 1.15625 1.96875 1.15625q1.0625 0 1.65625 -0.84375q0.59375 -0.859375 0.59375 -2.59375zm8.4095 5.203125q-2.09375 0 -3.40625 -1.328125q-1.3125 -1.328125 -1.3125 -3.53125l0 -0.28125q0 -1.46875 0.5625 -2.625q0.578125 -1.171875 1.609375 -1.8125q1.03125 -0.640625 2.296875 -0.640625q2.015625 0 3.109375 1.28125q1.09375 1.28125 1.09375 3.625l0 0.890625l-6.4375 0q0.109375 1.234375 0.8125 1.953125q0.71875 0.703125 1.8125 0.703125q1.515625 0 2.46875 -1.234375l1.203125 1.140625q-0.59375 0.875 -1.59375 1.375q-0.984375 0.484375 -2.21875 0.484375zm-0.265625 -8.453125q-0.90625 0 -1.46875 0.640625q-0.5625 0.640625 -0.703125 1.78125l4.203125 0l0 -0.171875q-0.0625 -1.109375 -0.59375 -1.671875q-0.515625 -0.578125 -1.4375 -0.578125zm12.938431 8.265625l-2.203125 0l0 -9.859375l2.203125 0l0 9.859375zm-2.34375 -12.421875q0 -0.5 0.3125 -0.828125q0.328125 -0.34375 0.921875 -0.34375q0.609375 0 0.9375 0.34375q0.328125 0.328125 0.328125 0.828125q0 0.5 -0.328125 0.84375q-0.328125 0.328125 -0.9375 0.328125q-0.59375 0 -0.921875 -0.328125q-0.3125 -0.34375 -0.3125 -0.84375zm6.811142 2.5625l0.0625 1.140625q1.09375 -1.3125 2.875 -1.3125q3.078125 0 3.125 3.515625l0 6.515625l-2.203125 0l0 -6.390625q0 -0.9375 -0.40625 -1.375q-0.40625 -0.453125 -1.328125 -0.453125q-1.34375 0 -2.0 1.203125l0 7.015625l-2.203125 0l0 -9.859375l2.078125 0z" fill-rule="nonzero"/><path fill="#ffffff" d="m95.904976 408.22446l0 -13.265625l3.921875 0q1.75 0 3.109375 0.78125q1.375 0.78125 2.109375 2.234375q0.75 1.4375 0.75 3.296875l0 0.65625q0 1.890625 -0.75 3.328125q-0.75 1.421875 -2.140625 2.203125q-1.390625 0.765625 -3.171875 0.765625l-3.828125 0zm2.3125 -11.40625l0 9.5625l1.5 0q1.8125 0 2.78125 -1.125q0.96875 -1.140625 0.984375 -3.265625l0 -0.734375q0 -2.15625 -0.9375 -3.296875q-0.9375 -1.140625 -2.71875 -1.140625l-1.609375 0zm15.547882 11.40625q-0.140625 -0.28125 -0.25 -0.921875q-1.046875 1.109375 -2.578125 1.109375q-1.484375 0 -2.4375 -0.84375q-0.9375 -0.859375 -0.9375 -2.109375q0 -1.578125 1.171875 -2.40625q1.171875 -0.84375 3.359375 -0.84375l1.359375 0l0 -0.65625q0 -0.765625 -0.4375 -1.21875q-0.421875 -0.46875 -1.296875 -0.46875q-0.765625 0 -1.25 0.390625q-0.46875 0.375 -0.46875 0.953125l-2.21875 0q0 -0.8125 0.53125 -1.515625q0.546875 -0.703125 1.46875 -1.09375q0.921875 -0.40625 2.0625 -0.40625q1.734375 0 2.75 0.875q1.03125 0.859375 1.0625 2.4375l0 4.4375q0 1.328125 0.375 2.125l0 0.15625l-2.265625 0zm-2.421875 -1.59375q0.65625 0 1.234375 -0.3125q0.578125 -0.328125 0.875 -0.859375l0 -1.859375l-1.203125 0q-1.234375 0 -1.859375 0.4375q-0.609375 0.421875 -0.609375 1.203125q0 0.640625 0.421875 1.015625q0.421875 0.375 1.140625 0.375zm9.405823 -10.65625l0 2.390625l1.734375 0l0 1.640625l-1.734375 0l0 5.5q0 0.5625 0.21875 0.8125q0.234375 0.25 0.796875 0.25q0.390625 0 0.78125 -0.078125l0 1.703125q-0.75 0.21875 -1.453125 0.21875q-2.5625 0 -2.5625 -2.8125l0 -5.59375l-1.609375 0l0 -1.640625l1.609375 0l0 -2.390625l2.21875 0zm9.31295 12.25q-0.140625 -0.28125 -0.25 -0.921875q-1.046875 1.109375 -2.5781326 1.109375q-1.484375 0 -2.4375 -0.84375q-0.9375 -0.859375 -0.9375 -2.109375q0 -1.578125 1.171875 -2.40625q1.171875 -0.84375 3.3593826 -0.84375l1.359375 0l0 -0.65625q0 -0.765625 -0.4375 -1.21875q-0.421875 -0.46875 -1.296875 -0.46875q-0.7656326 0 -1.2500076 0.390625q-0.46875 0.375 -0.46875 0.953125l-2.21875 0q0 -0.8125 0.53125 -1.515625q0.546875 -0.703125 1.46875 -1.09375q0.921875 -0.40625 2.0625076 -0.40625q1.734375 0 2.75 0.875q1.03125 0.859375 1.0625 2.4375l0 4.4375q0 1.328125 0.375 2.125l0 0.15625l-2.265625 0zm-2.4218826 -1.59375q0.6562576 0 1.2343826 -0.3125q0.578125 -0.328125 0.875 -0.859375l0 -1.859375l-1.203125 0q-1.2343826 0 -1.8593826 0.4375q-0.609375 0.421875 -0.609375 1.203125q0 0.640625 0.421875 1.015625q0.421875 0.375 1.140625 0.375zm13.78083 -1.828125q0 -0.875 -0.625 -1.34375q-0.609375 -0.46875 -2.21875 -0.953125q-1.59375 -0.484375 -2.546875 -1.078125q-1.8125 -1.140625 -1.8125 -2.96875q0 -1.609375 1.3125 -2.640625q1.3125 -1.046875 3.390625 -1.046875q1.390625 0 2.46875 0.515625q1.09375 0.515625 1.703125 1.453125q0.625 0.9375 0.625 2.09375l-2.296875 0q0 -1.046875 -0.65625 -1.625q-0.640625 -0.59375 -1.859375 -0.59375q-1.125 0 -1.75 0.484375q-0.625 0.484375 -0.625 1.34375q0 0.734375 0.671875 1.21875q0.671875 0.484375 2.21875 0.953125q1.546875 0.453125 2.484375 1.046875q0.9375 0.59375 1.375 1.359375q0.4375 0.75 0.4375 1.765625q0 1.65625 -1.265625 2.640625q-1.265625 0.984375 -3.453125 0.984375q-1.4375 0 -2.640625 -0.53125q-1.203125 -0.546875 -1.875 -1.484375q-0.671875 -0.9375 -0.671875 -2.1875l2.3125 0q0 1.140625 0.734375 1.765625q0.75 0.609375 2.140625 0.609375q1.203125 0 1.8125 -0.484375q0.609375 -0.484375 0.609375 -1.296875zm14.868713 -2.859375q0 1.875 -0.609375 3.265625q-0.59375 1.375 -1.65625 2.1875l2.265625 1.78125l-1.484375 1.34375l-2.828125 -2.234375q-0.5625 0.125 -1.1875 0.125q-1.609375 0 -2.875 -0.78125q-1.25 -0.796875 -1.9375 -2.25q-0.6875 -1.46875 -0.703125 -3.375l0 -0.734375q0 -1.953125 0.6875 -3.4375q0.6875 -1.484375 1.9375 -2.265625q1.25 -0.796875 2.875 -0.796875q1.625 0 2.875 0.78125q1.265625 0.78125 1.9375 2.25q0.6875 1.453125 0.703125 3.40625l0 0.734375zm-2.3125 -0.703125q0 -2.234375 -0.84375 -3.390625q-0.84375 -1.15625 -2.359375 -1.15625q-1.5 0 -2.34375 1.171875q-0.828125 1.171875 -0.859375 3.296875l0 0.78125q0 2.140625 0.84375 3.359375q0.84375 1.203125 2.375 1.203125q1.53125 0 2.359375 -1.15625q0.828125 -1.171875 0.828125 -3.40625l0 -0.703125zm9.521454 1.875l-2.5625 0l0 5.109375l-2.3125 0l0 -13.265625l4.671875 0q2.296875 0 3.53125 1.03125q1.25 1.03125 1.25 2.984375q0 1.328125 -0.640625 2.234375q-0.640625 0.890625 -1.78125 1.375l2.96875 5.515625l0 0.125l-2.46875 0l-2.65625 -5.109375zm-2.5625 -1.84375l2.359375 0q1.171875 0 1.828125 -0.59375q0.65625 -0.59375 0.65625 -1.609375q0 -1.0625 -0.609375 -1.640625q-0.609375 -0.59375 -1.8125 -0.609375l-2.421875 0l0 4.453125zm11.641922 5.109375l6.015625 0l0 1.84375l-8.32811 0l0 -13.265625l2.3124847 0l0 11.421875z" fill-rule="nonzero"/><path fill="#2fa4da" d="m333.13397 348.52493l160.22049 0l0 83.55905l-160.22049 0z" fill-rule="evenodd"/><path fill="#ffffff" d="m358.68762 386.22446l0 -13.265625l4.546875 0q2.25 0 3.421875 0.90625q1.1875 0.90625 1.1875 2.6875q0 0.90625 -0.5 1.640625q-0.484375 0.71875 -1.4375 1.125q1.078125 0.296875 1.65625 1.109375q0.59375 0.796875 0.59375 1.921875q0 1.875 -1.203125 2.875q-1.1875 1.0 -3.421875 1.0l-4.84375 0zm2.3125 -5.984375l0 4.140625l2.5625 0q1.078125 0 1.6875 -0.53125q0.609375 -0.546875 0.609375 -1.5q0 -2.0625 -2.109375 -2.109375l-2.75 0zm0 -1.6875l2.25 0q1.078125 0 1.6875 -0.484375q0.609375 -0.5 0.609375 -1.390625q0 -0.984375 -0.5625 -1.421875q-0.5625 -0.4375 -1.75 -0.4375l-2.234375 0l0 3.734375zm15.222595 6.703125q-0.984375 1.15625 -2.765625 1.15625q-1.609375 0 -2.4375 -0.9375q-0.828125 -0.9375 -0.828125 -2.71875l0 -6.390625l2.21875 0l0 6.359375q0 1.875 1.5625 1.875q1.609375 0 2.171875 -1.15625l0 -7.078125l2.21875 0l0 9.859375l-2.09375 0l-0.046875 -0.96875zm6.7416077 0.96875l-2.203125 0l0 -9.859375l2.203125 0l0 9.859375zm-2.34375 -12.421875q0 -0.5 0.3125 -0.828125q0.328125 -0.34375 0.921875 -0.34375q0.609375 0 0.9375 0.34375q0.328125 0.328125 0.328125 0.828125q0 0.5 -0.328125 0.84375q-0.328125 0.328125 -0.9375 0.328125q-0.59375 0 -0.921875 -0.328125q-0.3125 -0.34375 -0.3125 -0.84375zm7.1080017 12.421875l-2.203125 0l0 -14.0l2.203125 0l0 14.0zm1.9986572 -5.0q0 -2.28125 1.046875 -3.65625q1.0625 -1.375 2.84375 -1.375q1.5625 0 2.53125 1.078125l0 -5.046875l2.21875 0l0 14.0l-2.015625 0l-0.109375 -1.015625q-0.984375 1.203125 -2.640625 1.203125q-1.734375 0 -2.8125 -1.390625q-1.0625 -1.40625 -1.0625 -3.796875zm2.21875 0.1875q0 1.5 0.578125 2.34375q0.578125 0.84375 1.640625 0.84375q1.359375 0 1.984375 -1.203125l0 -4.21875q-0.609375 -1.171875 -1.96875 -1.171875q-1.078125 0 -1.65625 0.859375q-0.578125 0.84375 -0.578125 2.546875zm23.707672 0.5q-0.203125 2.109375 -1.578125 3.3125q-1.359375 1.1875 -3.625 1.1875q-1.578125 0 -2.796875 -0.75q-1.203125 -0.765625 -1.859375 -2.140625q-0.65625 -1.390625 -0.6875 -3.21875l0 -1.234375q0 -1.875 0.671875 -3.296875q0.671875 -1.4375 1.90625 -2.21875q1.25 -0.78125 2.875 -0.78125q2.203125 0 3.53125 1.203125q1.34375 1.1875 1.5625 3.375l-2.296875 0q-0.15625 -1.4375 -0.828125 -2.0625q-0.671875 -0.640625 -1.96875 -0.640625q-1.5 0 -2.3125 1.109375q-0.796875 1.09375 -0.8125 3.203125l0 1.1875q0 2.140625 0.765625 3.28125q0.765625 1.125 2.25 1.125q1.359375 0 2.03125 -0.609375q0.6875 -0.609375 0.875 -2.03125l2.296875 0zm7.8200073 3.34375q-0.984375 1.15625 -2.765625 1.15625q-1.609375 0 -2.4375 -0.9375q-0.828125 -0.9375 -0.828125 -2.71875l0 -6.390625l2.21875 0l0 6.359375q0 1.875 1.5625 1.875q1.609375 0 2.171875 -1.15625l0 -7.078125l2.21875 0l0 9.859375l-2.09375 0l-0.046875 -0.96875zm9.913483 -1.703125q0 -0.59375 -0.484375 -0.90625q-0.484375 -0.3125 -1.625 -0.546875q-1.125 -0.234375 -1.875 -0.609375q-1.65625 -0.796875 -1.65625 -2.3125q0 -1.28125 1.0625 -2.125q1.078125 -0.859375 2.734375 -0.859375q1.78125 0 2.859375 0.875q1.09375 0.859375 1.09375 2.265625l-2.21875 0q0 -0.640625 -0.46875 -1.0625q-0.46875 -0.421875 -1.265625 -0.421875q-0.71875 0 -1.1875 0.34375q-0.453125 0.328125 -0.453125 0.890625q0 0.515625 0.421875 0.796875q0.4375 0.28125 1.734375 0.5625q1.296875 0.28125 2.03125 0.6875q0.75 0.390625 1.109375 0.953125q0.375 0.546875 0.375 1.34375q0 1.328125 -1.109375 2.15625q-1.109375 0.828125 -2.890625 0.828125q-1.203125 0 -2.15625 -0.4375q-0.953125 -0.4375 -1.484375 -1.203125q-0.515625 -0.765625 -0.515625 -1.65625l2.140625 0q0.046875 0.78125 0.59375 1.21875q0.546875 0.421875 1.453125 0.421875q0.875 0 1.328125 -0.328125q0.453125 -0.34375 0.453125 -0.875zm6.8787537 -9.578125l0 2.390625l1.734375 0l0 1.640625l-1.734375 0l0 5.5q0 0.5625 0.21875 0.8125q0.234375 0.25 0.796875 0.25q0.390625 0 0.78125 -0.078125l0 1.703125q-0.75 0.21875 -1.453125 0.21875q-2.5625 0 -2.5625 -2.8125l0 -5.59375l-1.609375 0l0 -1.640625l1.609375 0l0 -2.390625l2.21875 0zm2.7426147 7.234375q0 -1.453125 0.578125 -2.609375q0.578125 -1.171875 1.609375 -1.78125q1.03125 -0.625 2.390625 -0.625q1.984375 0 3.234375 1.28125q1.25 1.28125 1.34375 3.40625l0.015625 0.515625q0 1.453125 -0.5625 2.609375q-0.5625 1.140625 -1.609375 1.78125q-1.046875 0.625 -2.40625 0.625q-2.09375 0 -3.34375 -1.390625q-1.25 -1.390625 -1.25 -3.703125l0 -0.109375zm2.21875 0.1875q0 1.515625 0.625 2.390625q0.625 0.859375 1.75 0.859375q1.125 0 1.734375 -0.875q0.625 -0.875 0.625 -2.5625q0 -1.5 -0.640625 -2.375q-0.640625 -0.875 -1.734375 -0.875q-1.09375 0 -1.734375 0.859375q-0.625 0.859375 -0.625 2.578125zm10.902924 -5.03125l0.0625 1.03125q1.03125 -1.203125 2.84375 -1.203125q1.96875 0 2.703125 1.5q1.078125 -1.5 3.015625 -1.5q1.640625 0 2.4375 0.90625q0.796875 0.890625 0.8125 2.640625l0 6.484375l-2.21875 0l0 -6.40625q0 -0.9375 -0.40625 -1.375q-0.40625 -0.4375 -1.359375 -0.4375q-0.75 0 -1.234375 0.40625q-0.46875 0.390625 -0.671875 1.046875l0.015625 6.765625l-2.21875 0l0 -6.484375q-0.046875 -1.734375 -1.765625 -1.734375q-1.328125 0 -1.890625 1.078125l0 7.140625l-2.21875 0l0 -9.859375l2.09375 0z" fill-rule="nonzero"/><path fill="#ffffff" d="m359.4163 408.22446l0 -13.265625l3.921875 0q1.75 0 3.109375 0.78125q1.375 0.78125 2.109375 2.234375q0.75 1.4375 0.75 3.296875l0 0.65625q0 1.890625 -0.75 3.328125q-0.75 1.421875 -2.140625 2.203125q-1.390625 0.765625 -3.171875 0.765625l-3.828125 0zm2.3125 -11.40625l0 9.5625l1.5 0q1.8125 0 2.78125 -1.125q0.96875 -1.140625 0.984375 -3.265625l0 -0.734375q0 -2.15625 -0.9375 -3.296875q-0.9375 -1.140625 -2.71875 -1.140625l-1.609375 0zm15.547882 11.40625q-0.140625 -0.28125 -0.25 -0.921875q-1.046875 1.109375 -2.578125 1.109375q-1.484375 0 -2.4375 -0.84375q-0.9375 -0.859375 -0.9375 -2.109375q0 -1.578125 1.171875 -2.40625q1.171875 -0.84375 3.359375 -0.84375l1.359375 0l0 -0.65625q0 -0.765625 -0.4375 -1.21875q-0.421875 -0.46875 -1.296875 -0.46875q-0.765625 0 -1.25 0.390625q-0.46875 0.375 -0.46875 0.953125l-2.21875 0q0 -0.8125 0.53125 -1.515625q0.546875 -0.703125 1.46875 -1.09375q0.921875 -0.40625 2.0625 -0.40625q1.734375 0 2.75 0.875q1.03125 0.859375 1.0625 2.4375l0 4.4375q0 1.328125 0.375 2.125l0 0.15625l-2.265625 0zm-2.421875 -1.59375q0.65625 0 1.234375 -0.3125q0.578125 -0.328125 0.875 -0.859375l0 -1.859375l-1.203125 0q-1.234375 0 -1.859375 0.4375q-0.609375 0.421875 -0.609375 1.203125q0 0.640625 0.421875 1.015625q0.421875 0.375 1.140625 0.375zm9.405823 -10.65625l0 2.390625l1.734375 0l0 1.640625l-1.734375 0l0 5.5q0 0.5625 0.21875 0.8125q0.234375 0.25 0.796875 0.25q0.390625 0 0.78125 -0.078125l0 1.703125q-0.75 0.21875 -1.453125 0.21875q-2.5625 0 -2.5625 -2.8125l0 -5.59375l-1.609375 0l0 -1.640625l1.609375 0l0 -2.390625l2.21875 0zm9.312958 12.25q-0.140625 -0.28125 -0.25 -0.921875q-1.046875 1.109375 -2.578125 1.109375q-1.484375 0 -2.4375 -0.84375q-0.9375 -0.859375 -0.9375 -2.109375q0 -1.578125 1.171875 -2.40625q1.171875 -0.84375 3.359375 -0.84375l1.359375 0l0 -0.65625q0 -0.765625 -0.4375 -1.21875q-0.421875 -0.46875 -1.296875 -0.46875q-0.765625 0 -1.25 0.390625q-0.46875 0.375 -0.46875 0.953125l-2.21875 0q0 -0.8125 0.53125 -1.515625q0.546875 -0.703125 1.46875 -1.09375q0.921875 -0.40625 2.0625 -0.40625q1.734375 0 2.75 0.875q1.03125 0.859375 1.0625 2.4375l0 4.4375q0 1.328125 0.375 2.125l0 0.15625l-2.265625 0zm-2.421875 -1.59375q0.65625 0 1.234375 -0.3125q0.578125 -0.328125 0.875 -0.859375l0 -1.859375l-1.203125 0q-1.234375 0 -1.859375 0.4375q-0.609375 0.421875 -0.609375 1.203125q0 0.640625 0.421875 1.015625q0.421875 0.375 1.140625 0.375zm13.801666 -3.328125l0 4.921875l-2.3125 0l0 -13.265625l5.078125 0q2.21875 0 3.53125 1.15625q1.3125 1.15625 1.3125 3.0625q0 1.953125 -1.28125 3.046875q-1.28125 1.078125 -3.59375 1.078125l-2.734375 0zm0 -1.859375l2.765625 0q1.234375 0 1.875 -0.578125q0.65625 -0.578125 0.65625 -1.671875q0 -1.078125 -0.65625 -1.71875q-0.65625 -0.640625 -1.8125 -0.65625l-2.828125 0l0 4.625zm11.752441 6.78125l-2.203125 0l0 -9.859375l2.203125 0l0 9.859375zm-2.34375 -12.421875q0 -0.5 0.3125 -0.828125q0.328125 -0.34375 0.921875 -0.34375q0.609375 0 0.9375 0.34375q0.328125 0.328125 0.328125 0.828125q0 0.5 -0.328125 0.84375q-0.328125 0.328125 -0.9375 0.328125q-0.59375 0 -0.921875 -0.328125q-0.3125 -0.34375 -0.3125 -0.84375zm13.389282 7.59375q0 2.28125 -1.046875 3.65625q-1.03125 1.359375 -2.78125 1.359375q-1.625 0 -2.59375 -1.078125l0 4.6875l-2.21875 0l0 -13.65625l2.046875 0l0.09375 1.0q0.96875 -1.171875 2.640625 -1.171875q1.8125 0 2.828125 1.34375q1.03125 1.34375 1.03125 3.71875l0 0.140625zm-2.203125 -0.1875q0 -1.484375 -0.59375 -2.34375q-0.578125 -0.859375 -1.671875 -0.859375q-1.359375 0 -1.953125 1.109375l0 4.375q0.59375 1.15625 1.96875 1.15625q1.0625 0 1.65625 -0.84375q0.59375 -0.859375 0.59375 -2.59375zm8.409485 5.203125q-2.09375 0 -3.40625 -1.328125q-1.3125 -1.328125 -1.3125 -3.53125l0 -0.28125q0 -1.46875 0.5625 -2.625q0.578125 -1.171875 1.609375 -1.8125q1.03125 -0.640625 2.296875 -0.640625q2.015625 0 3.109375 1.28125q1.09375 1.28125 1.09375 3.625l0 0.890625l-6.4375 0q0.109375 1.234375 0.8125 1.953125q0.71875 0.703125 1.8125 0.703125q1.515625 0 2.46875 -1.234375l1.203125 1.140625q-0.59375 0.875 -1.59375 1.375q-0.984375 0.484375 -2.21875 0.484375zm-0.265625 -8.453125q-0.90625 0 -1.46875 0.640625q-0.5625 0.640625 -0.703125 1.78125l4.203125 0l0 -0.171875q-0.0625 -1.109375 -0.59375 -1.671875q-0.515625 -0.578125 -1.4375 -0.578125zm8.292603 8.265625l-2.203125 0l0 -14.0l2.203125 0l0 14.0zm4.7642517 0l-2.203125 0l0 -9.859375l2.203125 0l0 9.859375zm-2.34375 -12.421875q0 -0.5 0.3125 -0.828125q0.328125 -0.34375 0.921875 -0.34375q0.609375 0 0.9375 0.34375q0.328125 0.328125 0.328125 0.828125q0 0.5 -0.328125 0.84375q-0.328125 0.328125 -0.9375 0.328125q-0.59375 0 -0.921875 -0.328125q-0.3125 -0.34375 -0.3125 -0.84375zm6.811157 2.5625l0.0625 1.140625q1.09375 -1.3125 2.875 -1.3125q3.078125 0 3.125 3.515625l0 6.515625l-2.203125 0l0 -6.390625q0 -0.9375 -0.40625 -1.375q-0.40625 -0.453125 -1.328125 -0.453125q-1.34375 0 -2.0 1.203125l0 7.015625l-2.203125 0l0 -9.859375l2.078125 0zm12.656952 10.046875q-2.09375 0 -3.40625 -1.328125q-1.3125 -1.328125 -1.3125 -3.53125l0 -0.28125q0 -1.46875 0.5625 -2.625q0.578125 -1.171875 1.609375 -1.8125q1.03125 -0.640625 2.296875 -0.640625q2.015625 0 3.109375 1.28125q1.09375 1.28125 1.09375 3.625l0 0.890625l-6.4375 0q0.109375 1.234375 0.8125 1.953125q0.71875 0.703125 1.8125 0.703125q1.515625 0 2.46875 -1.234375l1.203125 1.140625q-0.59375 0.875 -1.59375 1.375q-0.984375 0.484375 -2.21875 0.484375zm-0.265625 -8.453125q-0.90625 0 -1.46875 0.640625q-0.5625 0.640625 -0.703125 1.78125l4.203125 0l0 -0.171875q-0.0625 -1.109375 -0.59375 -1.671875q-0.515625 -0.578125 -1.4375 -0.578125z" fill-rule="nonzero"/><path fill="#2fa4da" d="m44.063892 487.58267l185.44882 0l0 83.55905l-185.44882 0z" fill-rule="evenodd"/><path fill="#ffffff" d="m67.48794 525.2822l0 -13.265625l3.921875 0q1.75 0 3.109375 0.78125q1.375 0.78125 2.109375 2.234375q0.75 1.4375 0.75 3.296875l0 0.65625q0 1.890625 -0.75 3.328125q-0.75 1.421875 -2.140625 2.203125q-1.390625 0.765625 -3.171875 0.765625l-3.828125 0zm2.3125 -11.40625l0 9.5625l1.5 0q1.8125 0 2.78125 -1.125q0.96875 -1.140625 0.984375 -3.265625l0 -0.734375q0 -2.15625 -0.9375 -3.296875q-0.9375 -1.140625 -2.71875 -1.140625l-1.609375 0zm14.001007 11.59375q-2.09375 0 -3.40625 -1.328125q-1.3125 -1.328125 -1.3125 -3.53125l0 -0.28125q0 -1.46875 0.5625 -2.625q0.578125 -1.171875 1.609375 -1.8125q1.03125 -0.640625 2.296875 -0.640625q2.015625 0 3.109375 1.28125q1.09375 1.28125 1.09375 3.625l0 0.890625l-6.4375 0q0.109375 1.234375 0.8125 1.953125q0.71875 0.703125 1.8125 0.703125q1.515625 0 2.46875 -1.234375l1.203125 1.140625q-0.59375 0.875 -1.59375 1.375q-0.984375 0.484375 -2.21875 0.484375zm-0.265625 -8.453125q-0.90625 0 -1.46875 0.640625q-0.5625 0.640625 -0.703125 1.78125l4.203125 0l0 -0.171875q-0.0625 -1.109375 -0.59375 -1.671875q-0.515625 -0.578125 -1.4375 -0.578125zm14.573837 3.4375q0 2.28125 -1.046875 3.65625q-1.03125 1.359375 -2.78125 1.359375q-1.625 0 -2.59375 -1.078125l0 4.6875l-2.21875 0l0 -13.65625l2.046875 0l0.09375 1.0q0.96875 -1.171875 2.640625 -1.171875q1.8125 0 2.828125 1.34375q1.03125 1.34375 1.03125 3.71875l0 0.140625zm-2.203125 -0.1875q0 -1.484375 -0.59375 -2.34375q-0.578125 -0.859375 -1.671875 -0.859375q-1.359375 0 -1.953125 1.109375l0 4.375q0.59375 1.15625 1.96875 1.15625q1.0625 0 1.65625 -0.84375q0.59375 -0.859375 0.59375 -2.59375zm6.425125 5.015625l-2.203125 0l0 -14.0000305l2.203125 0l0 14.0000305zm1.998642 -5.015625q0 -1.453125 0.578125 -2.609375q0.578125 -1.171875 1.609375 -1.78125q1.03125 -0.625 2.390625 -0.625q1.984375 0 3.234375 1.28125q1.25 1.28125 1.34375 3.40625l0.015625 0.515625q0 1.453125 -0.5625 2.609375q-0.5625 1.140625 -1.609375 1.78125q-1.046875 0.625 -2.40625 0.625q-2.09375 0 -3.34375 -1.390625q-1.25 -1.390625 -1.25 -3.703125l0 -0.109375zm2.21875 0.1875q0 1.515625 0.625 2.390625q0.625 0.859375 1.75 0.859375q1.125 0 1.734375 -0.875q0.625 -0.875 0.625 -2.5625q0 -1.5 -0.640625 -2.375q-0.640625 -0.875 -1.734375 -0.875q-1.09375 0 -1.734375 0.859375q-0.625 0.859375 -0.625 2.578125zm12.12558 1.65625l2.015625 -6.6875l2.359375 0l-3.921875 11.359375q-0.90625 2.484375 -3.0625 2.484375q-0.484375 0 -1.0625 -0.171875l0 -1.703125l0.421875 0.015625q0.828125 0 1.25 -0.3125q0.421875 -0.296875 0.671875 -1.015625l0.328125 -0.84375l-3.46875 -9.8125l2.390625 0l2.078125 6.6875zm20.618645 -1.140625q-0.203125 2.109375 -1.578125 3.3125q-1.359375 1.1875 -3.625 1.1875q-1.578125 0 -2.796875 -0.75q-1.203125 -0.765625 -1.859375 -2.140625q-0.65625 -1.390625 -0.6875 -3.21875l0 -1.234375q0 -1.875 0.671875 -3.296875q0.671875 -1.4375 1.90625 -2.21875q1.25 -0.7812805 2.875 -0.7812805q2.203125 0 3.53125 1.2031555q1.34375 1.1875 1.5625 3.375l-2.296875 0q-0.15625 -1.4375 -0.828125 -2.0625q-0.671875 -0.640625 -1.96875 -0.640625q-1.5 0 -2.3125 1.109375q-0.796875 1.09375 -0.8125 3.203125l0 1.1875q0 2.140625 0.765625 3.28125q0.765625 1.125 2.25 1.125q1.359375 0 2.03125 -0.609375q0.6875 -0.609375 0.875 -2.03125l2.296875 0zm1.4293976 -0.703125q0 -1.453125 0.578125 -2.609375q0.578125 -1.171875 1.609375 -1.78125q1.03125 -0.625 2.390625 -0.625q1.984375 0 3.234375 1.28125q1.25 1.28125 1.34375 3.40625l0.015625 0.515625q0 1.453125 -0.5625 2.609375q-0.5625 1.140625 -1.609375 1.78125q-1.046875 0.625 -2.40625 0.625q-2.09375 0 -3.34375 -1.390625q-1.25 -1.390625 -1.25 -3.703125l0 -0.109375zm2.21875 0.1875q0 1.515625 0.625 2.390625q0.625 0.859375 1.75 0.859375q1.125 0 1.734375 -0.875q0.625 -0.875 0.625 -2.5625q0 -1.5 -0.640625 -2.375q-0.640625 -0.875 -1.734375 -0.875q-1.09375 0 -1.734375 0.859375q-0.625 0.859375 -0.625 2.578125zm10.902924 -5.03125l0.0625 1.03125q1.03125 -1.203125 2.84375 -1.203125q1.96875 0 2.703125 1.5q1.078125 -1.5 3.015625 -1.5q1.640625 0 2.4375 0.90625q0.796875 0.890625 0.8125 2.640625l0 6.484375l-2.21875 0l0 -6.40625q0 -0.9375 -0.40625 -1.375q-0.40625 -0.4375 -1.359375 -0.4375q-0.75 0 -1.234375 0.40625q-0.46875 0.390625 -0.671875 1.046875l0.015625 6.765625l-2.21875 0l0 -6.484375q-0.046875 -1.734375 -1.765625 -1.734375q-1.328125 0 -1.890625 1.078125l0 7.140625l-2.21875 0l0 -9.859375l2.09375 0zm22.779999 5.03125q0 2.28125 -1.046875 3.65625q-1.03125 1.359375 -2.78125 1.359375q-1.625 0 -2.59375 -1.078125l0 4.6875l-2.21875 0l0 -13.65625l2.046875 0l0.09375 1.0q0.96875 -1.171875 2.640625 -1.171875q1.8125 0 2.828125 1.34375q1.03125 1.34375 1.03125 3.71875l0 0.140625zm-2.203125 -0.1875q0 -1.484375 -0.59375 -2.34375q-0.578125 -0.859375 -1.671875 -0.859375q-1.359375 0 -1.953125 1.109375l0 4.375q0.59375 1.15625 1.96875 1.15625q1.0625 0 1.65625 -0.84375q0.59375 -0.859375 0.59375 -2.59375zm6.42511 5.015625l-2.203125 0l0 -9.859375l2.203125 0l0 9.859375zm-2.34375 -12.421875q0 -0.5 0.3125 -0.828125q0.328125 -0.34378052 0.921875 -0.34378052q0.609375 0 0.9375 0.34378052q0.328125 0.328125 0.328125 0.828125q0 0.5 -0.328125 0.84375q-0.328125 0.328125 -0.9375 0.328125q-0.59375 0 -0.921875 -0.328125q-0.3125 -0.34375 -0.3125 -0.84375zm7.108032 12.421875l-2.203125 0l0 -14.0000305l2.203125 0l0 14.0000305zm6.7486267 0.1875q-2.09375 0 -3.40625 -1.328125q-1.3125 -1.328125 -1.3125 -3.53125l0 -0.28125q0 -1.46875 0.5625 -2.625q0.578125 -1.171875 1.609375 -1.8125q1.03125 -0.640625 2.296875 -0.640625q2.015625 0 3.109375 1.28125q1.09375 1.28125 1.09375 3.625l0 0.890625l-6.4375 0q0.109375 1.234375 0.8125 1.953125q0.71875 0.703125 1.8125 0.703125q1.515625 0 2.46875 -1.234375l1.203125 1.140625q-0.59375 0.875 -1.59375 1.375q-0.984375 0.484375 -2.21875 0.484375zm-0.265625 -8.453125q-0.90625 0 -1.46875 0.640625q-0.5625 0.640625 -0.703125 1.78125l4.203125 0l0 -0.171875q-0.0625 -1.109375 -0.59375 -1.671875q-0.515625 -0.578125 -1.4375 -0.578125zm5.5269775 3.265625q0 -2.28125 1.046875 -3.65625q1.0625 -1.375 2.84375 -1.375q1.5625 0 2.53125 1.078125l0 -5.0469055l2.21875 0l0 14.0000305l-2.015625 0l-0.109375 -1.015625q-0.984375 1.203125 -2.640625 1.203125q-1.734375 0 -2.8125 -1.390625q-1.0625 -1.40625 -1.0625 -3.796875zm2.21875 0.1875q0 1.5 0.578125 2.34375q0.578125 0.84375 1.640625 0.84375q1.359375 0 1.984375 -1.203125l0 -4.21875q-0.609375 -1.171875 -1.96875 -1.171875q-1.078125 0 -1.65625 0.859375q-0.578125 0.84375 -0.578125 2.546875z" fill-rule="nonzero"/><path fill="#ffffff" d="m106.88516 542.36035l0 4.921875l-2.3125 0l0 -13.265625l5.078125 0q2.21875 0 3.53125 1.15625q1.3125 1.15625 1.3125 3.0625q0 1.953125 -1.28125 3.046875q-1.28125 1.078125 -3.59375 1.078125l-2.734375 0zm0 -1.859375l2.765625 0q1.234375 0 1.875 -0.578125q0.65625 -0.578125 0.65625 -1.671875q0 -1.078125 -0.65625 -1.71875q-0.65625 -0.640625 -1.8125 -0.65625l-2.828125 0l0 4.625zm11.752457 6.78125l-2.203125 0l0 -9.859375l2.203125 0l0 9.859375zm-2.34375 -12.421875q0 -0.5 0.3125 -0.828125q0.328125 -0.34375 0.921875 -0.34375q0.609375 0 0.9375 0.34375q0.328125 0.328125 0.328125 0.828125q0 0.5 -0.328125 0.84375q-0.328125 0.328125 -0.9375 0.328125q-0.59375 0 -0.921875 -0.328125q-0.3125 -0.34375 -0.3125 -0.84375zm13.389267 7.59375q0 2.28125 -1.046875 3.65625q-1.03125 1.359375 -2.78125 1.359375q-1.625 0 -2.59375 -1.078125l0 4.6875l-2.21875 0l0 -13.65625l2.046875 0l0.09375 1.0q0.96875 -1.171875 2.640625 -1.171875q1.8125 0 2.828125 1.34375q1.03125 1.34375 1.03125 3.71875l0 0.140625zm-2.203125 -0.1875q0 -1.484375 -0.59375 -2.34375q-0.578125 -0.859375 -1.671875 -0.859375q-1.359375 0 -1.953125 1.109375l0 4.375q0.59375 1.15625 1.96875 1.15625q1.0625 0 1.65625 -0.84375q0.59375 -0.859375 0.59375 -2.59375zm8.4095 5.203125q-2.09375 0 -3.40625 -1.328125q-1.3125 -1.328125 -1.3125 -3.53125l0 -0.28125q0 -1.46875 0.5625 -2.625q0.578125 -1.171875 1.609375 -1.8125q1.03125 -0.640625 2.296875 -0.640625q2.015625 0 3.109375 1.28125q1.09375 1.28125 1.09375 3.625l0 0.890625l-6.4375 0q0.109375 1.234375 0.8125 1.953125q0.71875 0.703125 1.8125 0.703125q1.515625 0 2.46875 -1.234375l1.203125 1.140625q-0.59375 0.875 -1.59375 1.375q-0.984375 0.484375 -2.21875 0.484375zm-0.265625 -8.453125q-0.90625 0 -1.46875 0.640625q-0.5625 0.640625 -0.703125 1.78125l4.203125 0l0 -0.171875q-0.0625 -1.109375 -0.59375 -1.671875q-0.515625 -0.578125 -1.4375 -0.578125zm8.292587 8.265625l-2.203125 0l0 -14.0l2.203125 0l0 14.0zm4.764267 0l-2.203125 0l0 -9.859375l2.203125 0l0 9.859375zm-2.34375 -12.421875q0 -0.5 0.3125 -0.828125q0.328125 -0.34375 0.921875 -0.34375q0.609375 0 0.9375 0.34375q0.328125 0.328125 0.328125 0.828125q0 0.5 -0.328125 0.84375q-0.328125 0.328125 -0.9375 0.328125q-0.59375 0 -0.921875 -0.328125q-0.3125 -0.34375 -0.3125 -0.84375zm6.811142 2.5625l0.0625 1.140625q1.09375 -1.3125 2.875 -1.3125q3.078125 0 3.125 3.515625l0 6.515625l-2.203125 0l0 -6.390625q0 -0.9375 -0.40625 -1.375q-0.40625 -0.453125 -1.328125 -0.453125q-1.34375 0 -2.0 1.203125l0 7.015625l-2.203125 0l0 -9.859375l2.078125 0zm12.656967 10.046875q-2.09375 0 -3.40625 -1.328125q-1.3125 -1.328125 -1.3125 -3.53125l0 -0.28125q0 -1.46875 0.5625 -2.625q0.578125 -1.171875 1.609375 -1.8125q1.03125 -0.640625 2.296875 -0.640625q2.015625 0 3.109375 1.28125q1.09375 1.28125 1.09375 3.625l0 0.890625l-6.4375 0q0.109375 1.234375 0.8125 1.953125q0.71875 0.703125 1.8125 0.703125q1.515625 0 2.46875 -1.234375l1.203125 1.140625q-0.59375 0.875 -1.59375 1.375q-0.984375 0.484375 -2.21875 0.484375zm-0.265625 -8.453125q-0.90625 0 -1.46875 0.640625q-0.5625 0.640625 -0.703125 1.78125l4.203125 0l0 -0.171875q-0.0625 -1.109375 -0.59375 -1.671875q-0.515625 -0.578125 -1.4375 -0.578125z" fill-rule="nonzero"/><path fill="#000000" fill-opacity="0.0" d="m273.5748 60.66142l59.55905 0" fill-rule="evenodd"/><path stroke="#888888" stroke-width="2.0" stroke-linejoin="round" stroke-linecap="butt" d="m273.5748 60.66142l47.55905 0" fill-rule="evenodd"/><path fill="#888888" stroke="#888888" stroke-width="2.0" stroke-linecap="butt" d="m321.13385 63.96488l9.076202 -3.303463l-9.076202 -3.3034668z" fill-rule="evenodd"/><path fill="#000000" fill-opacity="0.0" d="m136.7874 121.32284l0 50.3937" fill-rule="evenodd"/><path stroke="#888888" stroke-width="2.0" stroke-linejoin="round" stroke-linecap="butt" d="m136.7874 121.32284l0 38.3937" fill-rule="evenodd"/><path fill="#888888" stroke="#888888" stroke-width="2.0" stroke-linecap="butt" d="m133.48393 159.71654l3.3034668 9.076187l3.3034668 -9.076187z" fill-rule="evenodd"/><path fill="#000000" fill-opacity="0.0" d="m273.5748 232.36482l59.55905 0" fill-rule="evenodd"/><path stroke="#888888" stroke-width="2.0" stroke-linejoin="round" stroke-linecap="butt" d="m273.5748 232.36482l47.55905 0" fill-rule="evenodd"/><path fill="#888888" stroke="#888888" stroke-width="2.0" stroke-linecap="butt" d="m321.13385 235.66829l9.076202 -3.3034668l-9.076202 -3.3034515z" fill-rule="evenodd"/><path fill="#000000" fill-opacity="0.0" d="m136.7874 293.02625l0 55.496063" fill-rule="evenodd"/><path stroke="#888888" stroke-width="2.0" stroke-linejoin="round" stroke-linecap="butt" d="m136.7874 293.02625l0 43.496063" fill-rule="evenodd"/><path fill="#888888" stroke="#888888" stroke-width="2.0" stroke-linecap="butt" d="m133.48393 336.5223l3.3034668 9.076202l3.3034668 -9.076202z" fill-rule="evenodd"/><path fill="#000000" fill-opacity="0.0" d="m229.51271 390.30447l103.622055 0" fill-rule="evenodd"/><path stroke="#888888" stroke-width="2.0" stroke-linejoin="round" stroke-linecap="butt" d="m229.51271 390.30447l91.622055 0" fill-rule="evenodd"/><path fill="#888888" stroke="#888888" stroke-width="2.0" stroke-linecap="butt" d="m321.13477 393.60794l9.076202 -3.3034668l-9.076202 -3.3034668z" fill-rule="evenodd"/><path fill="#000000" fill-opacity="0.0" d="m136.7883 432.08398l0 55.496063" fill-rule="evenodd"/><path stroke="#888888" stroke-width="2.0" stroke-linejoin="round" stroke-linecap="butt" d="m136.7883 432.08398l0 43.496063" fill-rule="evenodd"/><path fill="#888888" stroke="#888888" stroke-width="2.0" stroke-linecap="butt" d="m133.48483 475.58005l3.3034668 9.076202l3.3034668 -9.076202z" fill-rule="evenodd"/></g></svg>