<svg width="1663" height="165" viewBox="0 0 1663 165" fill="none" xmlns="http://www.w3.org/2000/svg">
<rect x="1196" y="141.366" width="117.366" height="254" transform="rotate(-90 1196 141.366)" fill="#2FA4DA"/>
<path d="M1300.83 70.8008L1290.21 101.611H1283.79L1297.17 66.0645H1301.27L1300.83 70.8008ZM1309.72 101.611L1299.07 70.8008L1298.61 66.0645H1302.74L1316.16 101.611H1309.72ZM1309.21 88.4277L1309.21 93.2861H1289.87L1289.87 88.4277H1309.21ZM1333.64 88.3545H1324.39L1324.39 83.4961H1333.64C1335.26 83.4961 1336.56 83.2357 1337.55 82.7148C1338.54 82.194 1339.27 81.4779 1339.72 80.5664C1340.2 79.6387 1340.43 78.5807 1340.43 77.3926C1340.43 76.2695 1340.2 75.2197 1339.72 74.2432C1339.27 73.2503 1338.54 72.4528 1337.55 71.8506C1336.56 71.2484 1335.26 70.9473 1333.64 70.9473H1326.27L1326.27 101.611H1320.14L1320.14 66.0645H1333.64C1336.4 66.0645 1338.73 66.5527 1340.65 67.5293C1342.59 68.4896 1344.06 69.8242 1345.07 71.5332C1346.08 73.2259 1346.58 75.1628 1346.58 77.3438C1346.58 79.6387 1346.08 81.6081 1345.07 83.252C1344.06 84.8958 1342.59 86.1572 1340.65 87.0361C1338.73 87.915 1336.4 88.3545 1333.64 88.3545ZM1358.62 66.0645L1358.62 101.611H1352.49L1352.49 66.0645H1358.62Z" fill="white"/>
<rect x="415" y="141.366" width="117.366" height="310.569" transform="rotate(-90 415 141.366)" fill="#2FA4DA"/>
<path d="M511.886 62.4561C511.886 61.7236 511.772 61.0726 511.544 60.5029C511.333 59.9333 510.95 59.4124 510.397 58.9404C509.844 58.4684 509.062 58.0127 508.053 57.5732C507.06 57.1175 505.791 56.6536 504.245 56.1816C502.552 55.6608 500.989 55.083 499.557 54.4482C498.141 53.7972 496.904 53.0485 495.846 52.2021C494.788 51.3395 493.966 50.3548 493.38 49.248C492.794 48.125 492.501 46.8311 492.501 45.3662C492.501 43.9176 492.803 42.5993 493.405 41.4111C494.023 40.223 494.894 39.1976 496.017 38.335C497.156 37.4561 498.499 36.7806 500.045 36.3086C501.592 35.8203 503.301 35.5762 505.172 35.5762C507.809 35.5762 510.08 36.0645 511.984 37.041C513.904 38.0176 515.377 39.3278 516.403 40.9717C517.444 42.6156 517.965 44.4303 517.965 46.416H511.886C511.886 45.2441 511.634 44.2106 511.129 43.3154C510.641 42.404 509.892 41.6878 508.883 41.167C507.89 40.6462 506.629 40.3857 505.099 40.3857C503.65 40.3857 502.446 40.6055 501.486 41.0449C500.525 41.4844 499.809 42.0785 499.337 42.8271C498.865 43.5758 498.629 44.4222 498.629 45.3662C498.629 46.0335 498.784 46.6439 499.093 47.1973C499.402 47.7344 499.874 48.2389 500.509 48.7109C501.144 49.1667 501.942 49.598 502.902 50.0049C503.862 50.4118 504.993 50.8024 506.295 51.1768C508.265 51.7627 509.982 52.4137 511.447 53.1299C512.912 53.8298 514.132 54.6273 515.109 55.5225C516.085 56.4176 516.818 57.4349 517.306 58.5742C517.794 59.6973 518.039 60.9749 518.039 62.4072C518.039 63.9046 517.737 65.2555 517.135 66.46C516.533 67.6481 515.67 68.6654 514.547 69.5117C513.441 70.3418 512.106 70.9847 510.543 71.4404C508.997 71.8799 507.272 72.0996 505.368 72.0996C503.659 72.0996 501.974 71.8717 500.314 71.416C498.67 70.9603 497.173 70.2686 495.822 69.3408C494.471 68.3968 493.397 67.2249 492.599 65.8252C491.802 64.4092 491.403 62.7572 491.403 60.8691H497.531C497.531 62.0247 497.726 63.0094 498.117 63.8232C498.524 64.637 499.085 65.3044 499.801 65.8252C500.517 66.3298 501.347 66.7041 502.291 66.9482C503.252 67.1924 504.277 67.3145 505.368 67.3145C506.8 67.3145 507.996 67.111 508.956 66.7041C509.933 66.2972 510.665 65.7275 511.154 64.9951C511.642 64.2627 511.886 63.4163 511.886 62.4561ZM534.982 45.1953L534.982 49.4922H520.089L520.089 45.1953H534.982ZM524.386 38.7256H530.27L530.27 64.3115C530.27 65.1253 530.384 65.752 530.612 66.1914C530.856 66.6146 531.19 66.8994 531.613 67.0459C532.036 67.1924 532.532 67.2656 533.102 67.2656C533.509 67.2656 533.9 67.2412 534.274 67.1924C534.648 67.1436 534.949 67.0947 535.177 67.0459L535.202 71.5381C534.713 71.6846 534.144 71.8148 533.493 71.9287C532.858 72.0426 532.125 72.0996 531.295 72.0996C529.944 72.0996 528.748 71.8636 527.706 71.3916C526.665 70.9033 525.851 70.1139 525.265 69.0234C524.679 67.9329 524.386 66.4844 524.386 64.6777L524.386 38.7256ZM545.431 50.2246L545.431 71.6113H539.547L539.547 45.1953H545.163L545.431 50.2246ZM553.512 45.0244L553.463 50.4932C553.105 50.4281 552.715 50.3792 552.291 50.3467C551.885 50.3141 551.478 50.2979 551.071 50.2979C550.062 50.2979 549.175 50.4443 548.41 50.7373C547.645 51.014 547.002 51.4209 546.481 51.958C545.976 52.4788 545.586 53.1136 545.309 53.8623C545.032 54.611 544.87 55.4492 544.821 56.377L543.478 56.4746C543.478 54.8145 543.641 53.2764 543.966 51.8604C544.292 50.4443 544.78 49.1992 545.431 48.125C546.098 47.0508 546.928 46.2126 547.921 45.6104C548.93 45.0081 550.094 44.707 551.413 44.707C551.771 44.707 552.153 44.7396 552.56 44.8047C552.983 44.8698 553.301 44.943 553.512 45.0244ZM568.356 72.0996C566.403 72.0996 564.637 71.7822 563.058 71.1475C561.496 70.4964 560.161 69.5931 559.054 68.4375C557.964 67.2819 557.125 65.9229 556.539 64.3604C555.954 62.7979 555.661 61.1133 555.661 59.3066L555.661 58.3301C555.661 56.263 555.962 54.3913 556.564 52.7148C557.166 51.0384 558.004 49.6061 559.079 48.418C560.153 47.2135 561.422 46.2939 562.887 45.6592C564.352 45.0244 565.939 44.707 567.648 44.707C569.536 44.707 571.188 45.0244 572.604 45.6592C574.02 46.2939 575.192 47.1891 576.12 48.3447C577.064 49.484 577.763 50.8431 578.219 52.4219C578.691 54.0007 578.927 55.7422 578.927 57.6465L578.927 60.1611L558.517 60.1611L558.517 55.9375L573.117 55.9375L573.117 55.4736C573.084 54.4157 572.872 53.4229 572.482 52.4951C572.108 51.5674 571.53 50.8187 570.748 50.249C569.967 49.6794 568.926 49.3945 567.623 49.3945C566.647 49.3945 565.776 49.6061 565.011 50.0293C564.262 50.4362 563.636 51.0303 563.131 51.8115C562.627 52.5928 562.236 53.5368 561.959 54.6436C561.699 55.734 561.569 56.9629 561.569 58.3301L561.569 59.3066C561.569 60.4622 561.723 61.5365 562.033 62.5293C562.358 63.5059 562.83 64.3604 563.449 65.0928C564.067 65.8252 564.816 66.403 565.695 66.8262C566.574 67.2331 567.575 67.4365 568.698 67.4365C570.114 67.4365 571.375 67.1517 572.482 66.582C573.589 66.0124 574.549 65.2067 575.363 64.165L578.463 67.168C577.894 67.998 577.153 68.7956 576.242 69.5605C575.33 70.3092 574.215 70.9196 572.897 71.3916C571.595 71.8636 570.081 72.0996 568.356 72.0996ZM598.41 66.3135L598.41 53.7158C598.41 52.7718 598.239 51.958 597.897 51.2744C597.555 50.5908 597.034 50.0618 596.334 49.6875C595.651 49.3132 594.788 49.126 593.747 49.126C592.786 49.126 591.956 49.2887 591.256 49.6143C590.556 49.9398 590.011 50.3792 589.621 50.9326C589.23 51.486 589.035 52.1126 589.035 52.8125H583.175C583.175 51.7708 583.428 50.7617 583.932 49.7852C584.437 48.8086 585.169 47.9378 586.129 47.1729C587.09 46.4079 588.237 45.8057 589.572 45.3662C590.906 44.9268 592.404 44.707 594.064 44.707C596.05 44.707 597.807 45.0407 599.337 45.708C600.884 46.3753 602.096 47.3844 602.975 48.7354C603.87 50.07 604.318 51.7464 604.318 53.7646L604.318 65.5078C604.318 66.7122 604.399 67.7946 604.562 68.7549C604.741 69.6989 604.993 70.5208 605.319 71.2207L605.319 71.6113H599.289C599.012 70.9766 598.792 70.1709 598.629 69.1943C598.483 68.2015 598.41 67.2412 598.41 66.3135ZM599.264 55.5469L599.313 59.1846H595.089C593.999 59.1846 593.039 59.2904 592.208 59.502C591.378 59.6973 590.687 59.9902 590.133 60.3809C589.58 60.7715 589.165 61.2435 588.888 61.7969C588.611 62.3503 588.473 62.9769 588.473 63.6768C588.473 64.3766 588.636 65.0195 588.961 65.6055C589.287 66.1751 589.759 66.6227 590.377 66.9482C591.012 67.2738 591.777 67.4365 592.672 67.4365C593.877 67.4365 594.927 67.1924 595.822 66.7041C596.733 66.1995 597.449 65.5892 597.97 64.873C598.491 64.1406 598.768 63.4489 598.8 62.7979L600.705 65.4102C600.509 66.0775 600.176 66.7936 599.704 67.5586C599.232 68.3236 598.613 69.056 597.848 69.7559C597.099 70.4395 596.196 71.001 595.138 71.4404C594.096 71.8799 592.892 72.0996 591.525 72.0996C589.8 72.0996 588.261 71.7578 586.911 71.0742C585.56 70.3743 584.502 69.4385 583.737 68.2666C582.972 67.0785 582.589 65.7357 582.589 64.2383C582.589 62.8385 582.85 61.6016 583.371 60.5273C583.908 59.4368 584.689 58.5254 585.714 57.793C586.756 57.0605 588.025 56.5072 589.523 56.1328C591.02 55.7422 592.729 55.5469 594.65 55.5469H599.264ZM616.354 50.5664L616.354 71.6113H610.47L610.47 45.1953H616.012L616.354 50.5664ZM615.402 57.4268L613.4 57.4023C613.4 55.5794 613.628 53.8949 614.083 52.3486C614.539 50.8024 615.206 49.4596 616.085 48.3203C616.964 47.1647 618.055 46.2777 619.357 45.6592C620.675 45.0244 622.197 44.707 623.922 44.707C625.127 44.707 626.225 44.8861 627.218 45.2441C628.227 45.5859 629.098 46.1312 629.831 46.8799C630.579 47.6286 631.149 48.5889 631.539 49.7607C631.946 50.9326 632.15 52.3486 632.15 54.0088L632.15 71.6113H626.266L626.266 54.5215C626.266 53.2357 626.071 52.2266 625.68 51.4941C625.306 50.7617 624.761 50.2409 624.044 49.9316C623.345 49.6061 622.506 49.4434 621.53 49.4434C620.423 49.4434 619.479 49.6549 618.698 50.0781C617.933 50.5013 617.306 51.0791 616.818 51.8115C616.33 52.5439 615.971 53.3903 615.744 54.3506C615.516 55.3109 615.402 56.3363 615.402 57.4268ZM631.784 55.8643L629.025 56.4746C629.025 54.8796 629.245 53.374 629.684 51.958C630.14 50.5257 630.799 49.2725 631.662 48.1982C632.54 47.1077 633.623 46.2533 634.909 45.6348C636.194 45.0163 637.667 44.707 639.328 44.707C640.678 44.707 641.883 44.8942 642.941 45.2686C644.015 45.6266 644.927 46.1963 645.675 46.9775C646.424 47.7588 646.994 48.776 647.384 50.0293C647.775 51.2663 647.97 52.7637 647.97 54.5215L647.97 71.6113H642.062L642.062 54.4971C642.062 53.1624 641.867 52.1289 641.476 51.3965C641.102 50.6641 640.565 50.1595 639.865 49.8828C639.165 49.5898 638.327 49.4434 637.35 49.4434C636.439 49.4434 635.633 49.6143 634.933 49.9561C634.249 50.2816 633.672 50.7454 633.2 51.3477C632.728 51.9336 632.37 52.609 632.125 53.374C631.898 54.139 631.784 54.9691 631.784 55.8643ZM462.057 117.354H452.804L452.804 112.496H462.057C463.668 112.496 464.97 112.236 465.963 111.715C466.956 111.194 467.68 110.478 468.136 109.566C468.608 108.639 468.844 107.581 468.844 106.393C468.844 105.27 468.608 104.22 468.136 103.243C467.68 102.25 466.956 101.453 465.963 100.851C464.97 100.248 463.668 99.9473 462.057 99.9473H454.684L454.684 130.611H448.556L448.556 95.0645H462.057C464.808 95.0645 467.143 95.5527 469.064 96.5293C471.001 97.4896 472.474 98.8242 473.483 100.533C474.492 102.226 474.997 104.163 474.997 106.344C474.997 108.639 474.492 110.608 473.483 112.252C472.474 113.896 471.001 115.157 469.064 116.036C467.143 116.915 464.808 117.354 462.057 117.354ZM485.812 109.225L485.812 130.611H479.928L479.928 104.195H485.543L485.812 109.225ZM493.893 104.024L493.844 109.493C493.486 109.428 493.095 109.379 492.672 109.347C492.265 109.314 491.859 109.298 491.452 109.298C490.442 109.298 489.555 109.444 488.79 109.737C488.025 110.014 487.383 110.421 486.862 110.958C486.357 111.479 485.967 112.114 485.69 112.862C485.413 113.611 485.25 114.449 485.202 115.377L483.859 115.475C483.859 113.814 484.022 112.276 484.347 110.86C484.673 109.444 485.161 108.199 485.812 107.125C486.479 106.051 487.309 105.213 488.302 104.61C489.311 104.008 490.475 103.707 491.793 103.707C492.151 103.707 492.534 103.74 492.941 103.805C493.364 103.87 493.681 103.943 493.893 104.024ZM495.822 117.696L495.822 117.135C495.822 115.23 496.098 113.465 496.652 111.837C497.205 110.193 498.003 108.769 499.044 107.564C500.102 106.344 501.388 105.4 502.902 104.732C504.432 104.049 506.157 103.707 508.078 103.707C510.014 103.707 511.74 104.049 513.253 104.732C514.783 105.4 516.077 106.344 517.135 107.564C518.193 108.769 518.999 110.193 519.552 111.837C520.106 113.465 520.382 115.23 520.382 117.135L520.382 117.696C520.382 119.601 520.106 121.367 519.552 122.994C518.999 124.622 518.193 126.046 517.135 127.267C516.077 128.471 514.791 129.415 513.278 130.099C511.764 130.766 510.047 131.1 508.126 131.1C506.19 131.1 504.456 130.766 502.926 130.099C501.413 129.415 500.127 128.471 499.069 127.267C498.011 126.046 497.205 124.622 496.652 122.994C496.098 121.367 495.822 119.601 495.822 117.696ZM501.706 117.135L501.706 117.696C501.706 118.884 501.828 120.007 502.072 121.065C502.316 122.123 502.698 123.051 503.219 123.849C503.74 124.646 504.407 125.273 505.221 125.729C506.035 126.184 507.003 126.412 508.126 126.412C509.217 126.412 510.161 126.184 510.958 125.729C511.772 125.273 512.44 124.646 512.96 123.849C513.481 123.051 513.864 122.123 514.108 121.065C514.368 120.007 514.498 118.884 514.498 117.696L514.498 117.135C514.498 115.963 514.368 114.856 514.108 113.814C513.864 112.757 513.473 111.821 512.936 111.007C512.415 110.193 511.748 109.558 510.934 109.103C510.136 108.631 509.184 108.395 508.078 108.395C506.971 108.395 506.011 108.631 505.197 109.103C504.399 109.558 503.74 110.193 503.219 111.007C502.698 111.821 502.316 112.757 502.072 113.814C501.828 114.856 501.706 115.963 501.706 117.135ZM536.105 126.412C537.065 126.412 537.928 126.225 538.693 125.851C539.474 125.46 540.101 124.923 540.573 124.239C541.061 123.556 541.33 122.766 541.378 121.871H546.92C546.888 123.58 546.383 125.134 545.407 126.534C544.43 127.934 543.136 129.049 541.525 129.879C539.914 130.693 538.131 131.1 536.178 131.1C534.16 131.1 532.402 130.758 530.905 130.074C529.407 129.374 528.162 128.414 527.169 127.193C526.177 125.973 525.428 124.565 524.923 122.97C524.435 121.375 524.191 119.666 524.191 117.843L524.191 116.988C524.191 115.165 524.435 113.456 524.923 111.861C525.428 110.25 526.177 108.834 527.169 107.613C528.162 106.393 529.407 105.44 530.905 104.757C532.402 104.057 534.152 103.707 536.154 103.707C538.27 103.707 540.125 104.13 541.72 104.977C543.315 105.807 544.568 106.97 545.48 108.468C546.408 109.949 546.888 111.674 546.92 113.644H541.378C541.33 112.667 541.085 111.788 540.646 111.007C540.223 110.209 539.621 109.575 538.839 109.103C538.074 108.631 537.155 108.395 536.081 108.395C534.892 108.395 533.908 108.639 533.126 109.127C532.345 109.599 531.735 110.25 531.295 111.08C530.856 111.894 530.539 112.813 530.343 113.839C530.164 114.848 530.075 115.898 530.075 116.988L530.075 117.843C530.075 118.933 530.164 119.991 530.343 121.017C530.522 122.042 530.831 122.962 531.271 123.775C531.727 124.573 532.345 125.216 533.126 125.704C533.908 126.176 534.9 126.412 536.105 126.412ZM563.082 131.1C561.129 131.1 559.363 130.782 557.785 130.147C556.222 129.496 554.887 128.593 553.781 127.438C552.69 126.282 551.852 124.923 551.266 123.36C550.68 121.798 550.387 120.113 550.387 118.307L550.387 117.33C550.387 115.263 550.688 113.391 551.29 111.715C551.893 110.038 552.731 108.606 553.805 107.418C554.879 106.214 556.149 105.294 557.614 104.659C559.079 104.024 560.665 103.707 562.374 103.707C564.262 103.707 565.914 104.024 567.331 104.659C568.747 105.294 569.918 106.189 570.846 107.345C571.79 108.484 572.49 109.843 572.946 111.422C573.418 113.001 573.654 114.742 573.654 116.646L573.654 119.161L553.244 119.161L553.244 114.938L567.843 114.938L567.843 114.474C567.811 113.416 567.599 112.423 567.208 111.495C566.834 110.567 566.256 109.819 565.475 109.249C564.694 108.679 563.652 108.395 562.35 108.395C561.373 108.395 560.503 108.606 559.738 109.029C558.989 109.436 558.362 110.03 557.858 110.812C557.353 111.593 556.963 112.537 556.686 113.644C556.426 114.734 556.295 115.963 556.295 117.33L556.295 118.307C556.295 119.462 556.45 120.536 556.759 121.529C557.085 122.506 557.557 123.36 558.175 124.093C558.794 124.825 559.542 125.403 560.421 125.826C561.3 126.233 562.301 126.437 563.424 126.437C564.84 126.437 566.102 126.152 567.208 125.582C568.315 125.012 569.275 124.207 570.089 123.165L573.19 126.168C572.62 126.998 571.88 127.796 570.968 128.561C570.057 129.309 568.942 129.92 567.623 130.392C566.321 130.864 564.808 131.1 563.082 131.1ZM593.063 123.458C593.063 122.872 592.916 122.343 592.623 121.871C592.331 121.383 591.769 120.943 590.939 120.553C590.125 120.162 588.921 119.804 587.326 119.479C585.926 119.169 584.64 118.803 583.468 118.38C582.313 117.94 581.32 117.411 580.49 116.793C579.66 116.174 579.017 115.442 578.561 114.596C578.105 113.749 577.877 112.773 577.877 111.666C577.877 110.592 578.113 109.575 578.585 108.614C579.057 107.654 579.733 106.808 580.612 106.075C581.491 105.343 582.557 104.765 583.81 104.342C585.08 103.919 586.496 103.707 588.058 103.707C590.272 103.707 592.168 104.081 593.747 104.83C595.342 105.563 596.562 106.563 597.409 107.833C598.255 109.086 598.678 110.502 598.678 112.081H592.794C592.794 111.381 592.615 110.73 592.257 110.128C591.915 109.509 591.395 109.013 590.695 108.639C589.995 108.248 589.116 108.053 588.058 108.053C587.049 108.053 586.211 108.215 585.543 108.541C584.892 108.85 584.404 109.257 584.079 109.762C583.769 110.266 583.615 110.82 583.615 111.422C583.615 111.861 583.696 112.26 583.859 112.618C584.038 112.96 584.331 113.277 584.738 113.57C585.145 113.847 585.698 114.107 586.398 114.352C587.114 114.596 588.009 114.832 589.083 115.06C591.102 115.483 592.835 116.028 594.284 116.695C595.748 117.346 596.872 118.193 597.653 119.234C598.434 120.26 598.825 121.562 598.825 123.141C598.825 124.313 598.572 125.387 598.068 126.363C597.58 127.324 596.863 128.162 595.919 128.878C594.975 129.578 593.844 130.123 592.526 130.514C591.224 130.904 589.759 131.1 588.131 131.1C585.739 131.1 583.712 130.676 582.052 129.83C580.392 128.967 579.131 127.869 578.268 126.534C577.422 125.183 576.998 123.784 576.998 122.335H582.687C582.752 123.425 583.053 124.296 583.59 124.947C584.144 125.582 584.827 126.046 585.641 126.339C586.471 126.616 587.326 126.754 588.205 126.754C589.262 126.754 590.15 126.616 590.866 126.339C591.582 126.046 592.127 125.655 592.501 125.167C592.876 124.662 593.063 124.093 593.063 123.458ZM618.795 123.458C618.795 122.872 618.649 122.343 618.356 121.871C618.063 121.383 617.501 120.943 616.671 120.553C615.858 120.162 614.653 119.804 613.058 119.479C611.658 119.169 610.373 118.803 609.201 118.38C608.045 117.94 607.052 117.411 606.222 116.793C605.392 116.174 604.749 115.442 604.293 114.596C603.838 113.749 603.61 112.773 603.61 111.666C603.61 110.592 603.846 109.575 604.318 108.614C604.79 107.654 605.465 106.808 606.344 106.075C607.223 105.343 608.289 104.765 609.542 104.342C610.812 103.919 612.228 103.707 613.79 103.707C616.004 103.707 617.9 104.081 619.479 104.83C621.074 105.563 622.295 106.563 623.141 107.833C623.987 109.086 624.411 110.502 624.411 112.081H618.527C618.527 111.381 618.348 110.73 617.99 110.128C617.648 109.509 617.127 109.013 616.427 108.639C615.727 108.248 614.848 108.053 613.79 108.053C612.781 108.053 611.943 108.215 611.276 108.541C610.625 108.85 610.136 109.257 609.811 109.762C609.502 110.266 609.347 110.82 609.347 111.422C609.347 111.861 609.428 112.26 609.591 112.618C609.77 112.96 610.063 113.277 610.47 113.57C610.877 113.847 611.43 114.107 612.13 114.352C612.846 114.596 613.742 114.832 614.816 115.06C616.834 115.483 618.567 116.028 620.016 116.695C621.481 117.346 622.604 118.193 623.385 119.234C624.166 120.26 624.557 121.562 624.557 123.141C624.557 124.313 624.305 125.387 623.8 126.363C623.312 127.324 622.596 128.162 621.652 128.878C620.708 129.578 619.577 130.123 618.258 130.514C616.956 130.904 615.491 131.1 613.864 131.1C611.471 131.1 609.445 130.676 607.785 129.83C606.124 128.967 604.863 127.869 604 126.534C603.154 125.183 602.731 123.784 602.731 122.335H608.419C608.484 123.425 608.786 124.296 609.323 124.947C609.876 125.582 610.56 126.046 611.373 126.339C612.204 126.616 613.058 126.754 613.937 126.754C614.995 126.754 615.882 126.616 616.598 126.339C617.314 126.046 617.859 125.655 618.234 125.167C618.608 124.662 618.795 124.093 618.795 123.458ZM636.007 104.195L636.007 130.611H630.099L630.099 104.195H636.007ZM629.708 97.2617C629.708 96.3665 630.001 95.626 630.587 95.04C631.19 94.4378 632.02 94.1367 633.078 94.1367C634.119 94.1367 634.941 94.4378 635.543 95.04C636.146 95.626 636.447 96.3665 636.447 97.2617C636.447 98.1406 636.146 98.873 635.543 99.459C634.941 100.045 634.119 100.338 633.078 100.338C632.02 100.338 631.19 100.045 630.587 99.459C630.001 98.873 629.708 98.1406 629.708 97.2617ZM648.288 109.835L648.288 130.611H642.404L642.404 104.195H647.946L648.288 109.835ZM647.238 116.427L645.333 116.402C645.35 114.531 645.61 112.813 646.115 111.251C646.636 109.688 647.352 108.346 648.263 107.223C649.191 106.1 650.298 105.237 651.583 104.635C652.869 104.016 654.302 103.707 655.88 103.707C657.15 103.707 658.297 103.886 659.323 104.244C660.364 104.586 661.251 105.147 661.984 105.929C662.733 106.71 663.302 107.727 663.693 108.98C664.083 110.217 664.279 111.739 664.279 113.546L664.279 130.611H658.371L658.371 113.521C658.371 112.252 658.183 111.251 657.809 110.519C657.451 109.77 656.922 109.241 656.222 108.932C655.539 108.606 654.684 108.443 653.659 108.443C652.65 108.443 651.746 108.655 650.949 109.078C650.151 109.501 649.476 110.079 648.922 110.812C648.385 111.544 647.97 112.39 647.677 113.351C647.384 114.311 647.238 115.336 647.238 116.427ZM687.204 104.195H692.55L692.55 129.879C692.55 132.255 692.046 134.273 691.037 135.934C690.027 137.594 688.62 138.855 686.813 139.718C685.006 140.597 682.915 141.036 680.539 141.036C679.529 141.036 678.406 140.89 677.169 140.597C675.949 140.304 674.761 139.832 673.605 139.181C672.466 138.546 671.513 137.708 670.748 136.666L673.507 133.199C674.451 134.322 675.493 135.144 676.632 135.665C677.772 136.186 678.968 136.446 680.221 136.446C681.572 136.446 682.72 136.194 683.664 135.689C684.624 135.201 685.364 134.477 685.885 133.517C686.406 132.556 686.666 131.384 686.666 130.001L686.666 110.177L687.204 104.195ZM669.259 117.696L669.259 117.184C669.259 115.182 669.503 113.359 669.992 111.715C670.48 110.055 671.18 108.631 672.091 107.442C673.003 106.238 674.109 105.318 675.412 104.684C676.714 104.033 678.187 103.707 679.831 103.707C681.539 103.707 682.996 104.016 684.201 104.635C685.421 105.253 686.439 106.14 687.252 107.296C688.066 108.435 688.701 109.802 689.157 111.397C689.629 112.976 689.979 114.734 690.206 116.671L690.206 118.307C689.995 120.195 689.637 121.92 689.132 123.482C688.628 125.045 687.96 126.396 687.13 127.535C686.3 128.674 685.275 129.553 684.054 130.172C682.85 130.79 681.426 131.1 679.782 131.1C678.17 131.1 676.714 130.766 675.412 130.099C674.126 129.431 673.019 128.495 672.091 127.291C671.18 126.087 670.48 124.671 669.992 123.043C669.503 121.399 669.259 119.617 669.259 117.696ZM675.143 117.184L675.143 117.696C675.143 118.901 675.257 120.024 675.485 121.065C675.729 122.107 676.095 123.027 676.583 123.824C677.088 124.605 677.723 125.224 678.488 125.68C679.269 126.119 680.189 126.339 681.247 126.339C682.63 126.339 683.761 126.046 684.64 125.46C685.535 124.874 686.219 124.085 686.691 123.092C687.179 122.083 687.521 120.96 687.716 119.723L687.716 115.304C687.619 114.343 687.415 113.448 687.106 112.618C686.813 111.788 686.414 111.064 685.91 110.445C685.405 109.811 684.77 109.322 684.005 108.98C683.24 108.622 682.337 108.443 681.295 108.443C680.237 108.443 679.318 108.671 678.537 109.127C677.755 109.583 677.112 110.209 676.608 111.007C676.12 111.804 675.753 112.732 675.509 113.79C675.265 114.848 675.143 115.979 675.143 117.184Z" fill="white"/>
<rect x="809" y="141.367" width="117.366" height="299" transform="rotate(-90 809 141.367)" fill="#2FA4DA"/>
<path d="M867.021 101.611H859.428L859.477 96.7529H867.021C869.218 96.7529 871.057 96.2728 872.538 95.3125C874.035 94.3522 875.159 92.9769 875.907 91.1865C876.672 89.3962 877.055 87.264 877.055 84.79L877.055 82.8613C877.055 80.9408 876.835 79.2399 876.396 77.7588C875.972 76.2777 875.338 75.0326 874.491 74.0234C873.661 73.0143 872.636 72.2493 871.415 71.7285C870.211 71.2077 868.819 70.9473 867.24 70.9473H859.281L859.281 66.0645H867.24C869.6 66.0645 871.757 66.4632 873.71 67.2607C875.663 68.042 877.348 69.1732 878.764 70.6543C880.196 72.1354 881.295 73.9095 882.06 75.9766C882.825 78.0436 883.207 80.3548 883.207 82.9102L883.207 84.79C883.207 87.3454 882.825 89.6566 882.06 91.7236C881.295 93.7907 880.196 95.5648 878.764 97.0459C877.331 98.5107 875.622 99.6419 873.637 100.439C871.667 101.221 869.462 101.611 867.021 101.611ZM862.821 66.0645L862.821 101.611H856.693L856.693 66.0645H862.821ZM903.666 96.3135L903.666 83.7158C903.666 82.7718 903.495 81.958 903.153 81.2744C902.812 80.5908 902.291 80.0618 901.591 79.6875C900.907 79.3132 900.045 79.126 899.003 79.126C898.043 79.126 897.213 79.2887 896.513 79.6143C895.813 79.9398 895.268 80.3792 894.877 80.9326C894.486 81.486 894.291 82.1126 894.291 82.8125H888.432C888.432 81.7708 888.684 80.7617 889.188 79.7852C889.693 78.8086 890.425 77.9378 891.386 77.1729C892.346 76.4079 893.493 75.8057 894.828 75.3662C896.163 74.9268 897.66 74.707 899.32 74.707C901.306 74.707 903.064 75.0407 904.594 75.708C906.14 76.3753 907.353 77.3844 908.231 78.7354C909.127 80.07 909.574 81.7464 909.574 83.7646L909.574 95.5078C909.574 96.7122 909.656 97.7946 909.818 98.7549C909.997 99.6989 910.25 100.521 910.575 101.221L910.575 101.611H904.545C904.268 100.977 904.049 100.171 903.886 99.1943C903.739 98.2015 903.666 97.2412 903.666 96.3135ZM904.521 85.5469L904.569 89.1846H900.346C899.255 89.1846 898.295 89.2904 897.465 89.502C896.635 89.6973 895.943 89.9902 895.39 90.3809C894.836 90.7715 894.421 91.2435 894.145 91.7969C893.868 92.3503 893.729 92.9769 893.729 93.6768C893.729 94.3766 893.892 95.0195 894.218 95.6055C894.543 96.1751 895.015 96.6227 895.634 96.9482C896.269 97.2738 897.034 97.4365 897.929 97.4365C899.133 97.4365 900.183 97.1924 901.078 96.7041C901.99 96.1995 902.706 95.5892 903.227 94.873C903.747 94.1406 904.024 93.4489 904.057 92.7979L905.961 95.4102C905.766 96.0775 905.432 96.7936 904.96 97.5586C904.488 98.3236 903.869 99.056 903.104 99.7559C902.356 100.439 901.452 101.001 900.395 101.44C899.353 101.88 898.148 102.1 896.781 102.1C895.056 102.1 893.518 101.758 892.167 101.074C890.816 100.374 889.758 99.4385 888.993 98.2666C888.228 97.0785 887.846 95.7357 887.846 94.2383C887.846 92.8385 888.106 91.6016 888.627 90.5273C889.164 89.4368 889.945 88.5254 890.971 87.793C892.012 87.0605 893.282 86.5072 894.779 86.1328C896.277 85.7422 897.986 85.5469 899.906 85.5469H904.521ZM927.836 75.1953L927.836 79.4922H912.943L912.943 75.1953H927.836ZM917.24 68.7256H923.124L923.124 94.3115C923.124 95.1253 923.238 95.752 923.466 96.1914C923.71 96.6146 924.044 96.8994 924.467 97.0459C924.89 97.1924 925.386 97.2656 925.956 97.2656C926.363 97.2656 926.754 97.2412 927.128 97.1924C927.502 97.1436 927.803 97.0947 928.031 97.0459L928.056 101.538C927.567 101.685 926.998 101.815 926.347 101.929C925.712 102.043 924.979 102.1 924.149 102.1C922.799 102.1 921.602 101.864 920.561 101.392C919.519 100.903 918.705 100.114 918.119 99.0234C917.533 97.9329 917.24 96.4844 917.24 94.6777L917.24 68.7256ZM947.27 96.3135L947.27 83.7158C947.27 82.7718 947.099 81.958 946.757 81.2744C946.415 80.5908 945.894 80.0618 945.194 79.6875C944.511 79.3132 943.648 79.126 942.606 79.126C941.646 79.126 940.816 79.2887 940.116 79.6143C939.416 79.9398 938.871 80.3792 938.48 80.9326C938.09 81.486 937.895 82.1126 937.895 82.8125H932.035C932.035 81.7708 932.287 80.7617 932.792 79.7852C933.297 78.8086 934.029 77.9378 934.989 77.1729C935.95 76.4079 937.097 75.8057 938.432 75.3662C939.766 74.9268 941.264 74.707 942.924 74.707C944.91 74.707 946.667 75.0407 948.197 75.708C949.743 76.3753 950.956 77.3844 951.835 78.7354C952.73 80.07 953.178 81.7464 953.178 83.7646L953.178 95.5078C953.178 96.7122 953.259 97.7946 953.422 98.7549C953.601 99.6989 953.853 100.521 954.179 101.221L954.179 101.611L948.148 101.611C947.872 100.977 947.652 100.171 947.489 99.1943C947.343 98.2015 947.27 97.2412 947.27 96.3135ZM948.124 85.5469L948.173 89.1846H943.949C942.859 89.1846 941.898 89.2904 941.068 89.502C940.238 89.6973 939.547 89.9902 938.993 90.3809C938.44 90.7715 938.025 91.2435 937.748 91.7969C937.471 92.3503 937.333 92.9769 937.333 93.6768C937.333 94.3766 937.496 95.0195 937.821 95.6055C938.147 96.1751 938.619 96.6227 939.237 96.9482C939.872 97.2738 940.637 97.4365 941.532 97.4365C942.737 97.4365 943.786 97.1924 944.682 96.7041C945.593 96.1995 946.309 95.5892 946.83 94.873C947.351 94.1406 947.628 93.4489 947.66 92.7979L949.564 95.4102C949.369 96.0775 949.035 96.7936 948.563 97.5586C948.091 98.3236 947.473 99.056 946.708 99.7559C945.959 100.439 945.056 101.001 943.998 101.44C942.956 101.88 941.752 102.1 940.385 102.1C938.66 102.1 937.121 101.758 935.771 101.074C934.42 100.374 933.362 99.4385 932.597 98.2666C931.832 97.0785 931.449 95.7357 931.449 94.2383C931.449 92.8385 931.71 91.6016 932.23 90.5273C932.768 89.4368 933.549 88.5254 934.574 87.793C935.616 87.0605 936.885 86.5072 938.383 86.1328C939.88 85.7422 941.589 85.5469 943.51 85.5469H948.124ZM959.354 64.1113L965.238 64.1113L965.238 95.9717L964.677 101.611H959.354L959.354 64.1113ZM982.475 88.1592L982.475 88.6719C982.475 90.625 982.255 92.4235 981.815 94.0674C981.392 95.695 980.741 97.111 979.862 98.3154C979 99.5199 977.925 100.456 976.64 101.123C975.37 101.774 973.897 102.1 972.221 102.1C970.577 102.1 969.145 101.79 967.924 101.172C966.703 100.553 965.678 99.6745 964.848 98.5352C964.034 97.3958 963.375 96.0368 962.87 94.458C962.366 92.8792 962.007 91.1377 961.796 89.2334L961.796 87.5977C962.007 85.6771 962.366 83.9355 962.87 82.373C963.375 80.7943 964.034 79.4352 964.848 78.2959C965.678 77.1403 966.695 76.2533 967.899 75.6348C969.12 75.0163 970.544 74.707 972.172 74.707C973.865 74.707 975.354 75.0326 976.64 75.6836C977.942 76.3346 979.024 77.2624 979.887 78.4668C980.749 79.6549 981.392 81.071 981.815 82.7148C982.255 84.3587 982.475 86.1735 982.475 88.1592ZM976.591 88.6719L976.591 88.1592C976.591 86.971 976.493 85.8561 976.298 84.8145C976.103 83.7565 975.777 82.8288 975.321 82.0313C974.882 81.2337 974.28 80.6071 973.515 80.1514C972.766 79.6794 971.83 79.4434 970.707 79.4434C969.665 79.4434 968.77 79.6224 968.021 79.9805C967.273 80.3385 966.646 80.8268 966.142 81.4453C965.637 82.0638 965.238 82.7799 964.945 83.5938C964.669 84.4076 964.481 85.2865 964.384 86.2305L964.384 90.6494C964.53 91.8701 964.84 92.9932 965.312 94.0186C965.8 95.0277 966.483 95.8415 967.362 96.46C968.241 97.0622 969.372 97.3633 970.756 97.3633C971.846 97.3633 972.766 97.1436 973.515 96.7041C974.263 96.2646 974.857 95.6543 975.297 94.873C975.753 94.0755 976.078 93.1478 976.273 92.0898C976.485 91.0319 976.591 89.8926 976.591 88.6719ZM1002.35 96.3135L1002.35 83.7158C1002.35 82.7718 1002.18 81.958 1001.83 81.2744C1001.49 80.5908 1000.97 80.0618 1000.27 79.6875C999.589 79.3132 998.726 79.126 997.685 79.126C996.724 79.126 995.894 79.2887 995.194 79.6143C994.494 79.9398 993.949 80.3792 993.559 80.9326C993.168 81.486 992.973 82.1126 992.973 82.8125L987.113 82.8125C987.113 81.7708 987.366 80.7617 987.87 79.7852C988.375 78.8086 989.107 77.9378 990.067 77.1729C991.028 76.4079 992.175 75.8057 993.51 75.3662C994.844 74.9268 996.342 74.707 998.002 74.707C999.988 74.707 1001.75 75.0407 1003.28 75.708C1004.82 76.3753 1006.03 77.3844 1006.91 78.7354C1007.81 80.07 1008.26 81.7464 1008.26 83.7646L1008.26 95.5078C1008.26 96.7122 1008.34 97.7946 1008.5 98.7549C1008.68 99.6989 1008.93 100.521 1009.26 101.221L1009.26 101.611L1003.23 101.611C1002.95 100.977 1002.73 100.171 1002.57 99.1943C1002.42 98.2015 1002.35 97.2412 1002.35 96.3135ZM1003.2 85.5469L1003.25 89.1846H999.027C997.937 89.1846 996.977 89.2904 996.146 89.502C995.316 89.6973 994.625 89.9902 994.071 90.3809C993.518 90.7715 993.103 91.2435 992.826 91.7969C992.549 92.3503 992.411 92.9769 992.411 93.6768C992.411 94.3766 992.574 95.0195 992.899 95.6055C993.225 96.1751 993.697 96.6227 994.315 96.9482C994.95 97.2738 995.715 97.4365 996.61 97.4365C997.815 97.4365 998.865 97.1924 999.76 96.7041C1000.67 96.1995 1001.39 95.5892 1001.91 94.873C1002.43 94.1406 1002.71 93.4489 1002.74 92.7979L1004.64 95.4102C1004.45 96.0775 1004.11 96.7936 1003.64 97.5586C1003.17 98.3236 1002.55 99.056 1001.79 99.7559C1001.04 100.439 1000.13 101.001 999.076 101.44C998.035 101.88 996.83 102.1 995.463 102.1C993.738 102.1 992.2 101.758 990.849 101.074C989.498 100.374 988.44 99.4385 987.675 98.2666C986.91 97.0785 986.527 95.7357 986.527 94.2383C986.527 92.8385 986.788 91.6016 987.309 90.5273C987.846 89.4368 988.627 88.5254 989.652 87.793C990.694 87.0605 991.964 86.5072 993.461 86.1328C994.958 85.7422 996.667 85.5469 998.588 85.5469H1003.2ZM1029.23 94.458C1029.23 93.8721 1029.08 93.3431 1028.79 92.8711C1028.5 92.3828 1027.93 91.9434 1027.1 91.5527C1026.29 91.1621 1025.09 90.804 1023.49 90.4785C1022.09 90.1693 1020.8 89.8031 1019.63 89.3799C1018.48 88.9404 1017.48 88.4115 1016.65 87.793C1015.82 87.1745 1015.18 86.4421 1014.73 85.5957C1014.27 84.7493 1014.04 83.7728 1014.04 82.666C1014.04 81.5918 1014.28 80.5745 1014.75 79.6143C1015.22 78.654 1015.9 77.8076 1016.78 77.0752C1017.66 76.3428 1018.72 75.765 1019.97 75.3418C1021.24 74.9186 1022.66 74.707 1024.22 74.707C1026.44 74.707 1028.33 75.0814 1029.91 75.8301C1031.51 76.5625 1032.73 77.5635 1033.57 78.833C1034.42 80.0863 1034.84 81.5023 1034.84 83.0811H1028.96C1028.96 82.3812 1028.78 81.7301 1028.42 81.1279C1028.08 80.5094 1027.56 80.013 1026.86 79.6387C1026.16 79.248 1025.28 79.0527 1024.22 79.0527C1023.21 79.0527 1022.38 79.2155 1021.71 79.541C1021.06 79.8503 1020.57 80.2572 1020.24 80.7617C1019.93 81.2663 1019.78 81.8197 1019.78 82.4219C1019.78 82.8613 1019.86 83.2601 1020.02 83.6182C1020.2 83.96 1020.5 84.2773 1020.9 84.5703C1021.31 84.847 1021.86 85.1074 1022.56 85.3516C1023.28 85.5957 1024.17 85.8317 1025.25 86.0596C1027.27 86.4827 1029 87.028 1030.45 87.6953C1031.91 88.3464 1033.04 89.1927 1033.82 90.2344C1034.6 91.2598 1034.99 92.5618 1034.99 94.1406C1034.99 95.3125 1034.74 96.3867 1034.23 97.3633C1033.74 98.3236 1033.03 99.1618 1032.08 99.8779C1031.14 100.578 1030.01 101.123 1028.69 101.514C1027.39 101.904 1025.92 102.1 1024.3 102.1C1021.9 102.1 1019.88 101.676 1018.22 100.83C1016.56 99.9674 1015.3 98.8688 1014.43 97.5342C1013.59 96.1833 1013.16 94.7835 1013.16 93.335H1018.85C1018.92 94.4255 1019.22 95.2962 1019.75 95.9473C1020.31 96.582 1020.99 97.0459 1021.81 97.3389C1022.64 97.6156 1023.49 97.7539 1024.37 97.7539C1025.43 97.7539 1026.31 97.6156 1027.03 97.3389C1027.75 97.0459 1028.29 96.6553 1028.67 96.167C1029.04 95.6624 1029.23 95.0928 1029.23 94.458ZM1051.79 102.1C1049.83 102.1 1048.07 101.782 1046.49 101.147C1044.93 100.496 1043.59 99.5931 1042.48 98.4375C1041.39 97.2819 1040.56 95.9229 1039.97 94.3604C1039.38 92.7979 1039.09 91.1133 1039.09 89.3066L1039.09 88.3301C1039.09 86.263 1039.39 84.3913 1039.99 82.7148C1040.6 81.0384 1041.43 79.6061 1042.51 78.418C1043.58 77.2135 1044.85 76.2939 1046.32 75.6592C1047.78 75.0244 1049.37 74.707 1051.08 74.707C1052.97 74.707 1054.62 75.0244 1056.03 75.6592C1057.45 76.2939 1058.62 77.1891 1059.55 78.3447C1060.49 79.484 1061.19 80.8431 1061.65 82.4219C1062.12 84.0007 1062.36 85.7422 1062.36 87.6465L1062.36 90.1611H1041.95L1041.95 85.9375H1056.55L1056.55 85.4736C1056.51 84.4157 1056.3 83.4229 1055.91 82.4951C1055.54 81.5674 1054.96 80.8187 1054.18 80.249C1053.4 79.6794 1052.36 79.3945 1051.05 79.3945C1050.08 79.3945 1049.21 79.6061 1048.44 80.0293C1047.69 80.4362 1047.07 81.0303 1046.56 81.8115C1046.06 82.5928 1045.67 83.5368 1045.39 84.6436C1045.13 85.734 1045 86.9629 1045 88.3301L1045 89.3066C1045 90.4622 1045.15 91.5365 1045.46 92.5293C1045.79 93.5059 1046.26 94.3604 1046.88 95.0928C1047.5 95.8252 1048.25 96.403 1049.13 96.8262C1050 97.2331 1051 97.4365 1052.13 97.4365C1053.54 97.4365 1054.81 97.1517 1055.91 96.582C1057.02 96.0124 1057.98 95.2067 1058.79 94.165L1061.89 97.168C1061.32 97.998 1060.58 98.7956 1059.67 99.5605C1058.76 100.309 1057.65 100.92 1056.33 101.392C1055.03 101.864 1053.51 102.1 1051.79 102.1Z" fill="white"/>
<rect y="141.367" width="117.366" height="328.626" transform="rotate(-90 0 141.367)" fill="#CCCCCC"/>
<path d="M35.6263 36.0645L48.1995 36.0645C50.9013 36.0645 53.2044 36.4714 55.1087 37.2852C57.013 38.099 58.4697 39.3034 59.4788 40.8984C60.5042 42.4772 61.0169 44.4303 61.0169 46.7578C61.0169 48.5319 60.6914 50.0944 60.0403 51.4453C59.3893 52.7962 58.4697 53.9355 57.2815 54.8633C56.0934 55.7747 54.6774 56.4827 53.0335 56.9873L51.178 57.8906H39.8743L39.8255 53.0322H48.2972C49.762 53.0322 50.9827 52.7718 51.9593 52.251C52.9358 51.7301 53.6683 51.0221 54.1565 50.127C54.6611 49.2155 54.9134 48.1901 54.9134 47.0508C54.9134 45.8138 54.6692 44.7396 54.181 43.8281C53.7089 42.9004 52.9765 42.1924 51.9837 41.7041C50.9909 41.1995 49.7295 40.9473 48.1995 40.9473H41.7542L41.7542 71.6113H35.6263L35.6263 36.0645ZM55.9144 71.6113L47.5647 55.6445L53.9856 55.6201L62.4573 71.2939L62.4573 71.6113H55.9144ZM81.427 66.3135L81.427 53.7158C81.427 52.7718 81.2562 51.958 80.9144 51.2744C80.5726 50.5908 80.0517 50.0618 79.3519 49.6875C78.6683 49.3132 77.8056 49.126 76.764 49.126C75.8037 49.126 74.9736 49.2887 74.2737 49.6143C73.5739 49.9398 73.0286 50.3792 72.638 50.9326C72.2474 51.486 72.052 52.1126 72.052 52.8125H66.1927C66.1927 51.7708 66.445 50.7617 66.9495 49.7852C67.4541 48.8086 68.1865 47.9378 69.1468 47.1729C70.1071 46.4079 71.2545 45.8057 72.5892 45.3662C73.9238 44.9268 75.4212 44.707 77.0813 44.707C79.067 44.707 80.8248 45.0407 82.3548 45.708C83.901 46.3753 85.1136 47.3844 85.9925 48.7354C86.8877 50.07 87.3353 51.7464 87.3353 53.7646L87.3353 65.5078C87.3353 66.7122 87.4166 67.7946 87.5794 68.7549C87.7584 69.6989 88.0107 70.5208 88.3362 71.2207L88.3362 71.6113H82.306C82.0293 70.9766 81.8095 70.1709 81.6468 69.1943C81.5003 68.2015 81.427 67.2412 81.427 66.3135ZM82.2815 55.5469L82.3304 59.1846H78.1067C77.0162 59.1846 76.056 59.2904 75.2259 59.502C74.3958 59.6973 73.7041 59.9902 73.1507 60.3809C72.5973 60.7715 72.1823 61.2435 71.9056 61.7969C71.6289 62.3503 71.4905 62.9769 71.4905 63.6768C71.4905 64.3766 71.6533 65.0195 71.9788 65.6055C72.3043 66.1751 72.7763 66.6227 73.3948 66.9482C74.0296 67.2738 74.7946 67.4365 75.6897 67.4365C76.8942 67.4365 77.944 67.1924 78.8392 66.7041C79.7506 66.1995 80.4668 65.5892 80.9876 64.873C81.5084 64.1406 81.7851 63.4489 81.8177 62.7979L83.722 65.4102C83.5267 66.0775 83.193 66.7936 82.721 67.5586C82.249 68.3236 81.6305 69.056 80.8655 69.7559C80.1168 70.4395 79.2135 71.001 78.1556 71.4404C77.1139 71.8799 75.9095 72.0996 74.5423 72.0996C72.817 72.0996 71.2789 71.7578 69.928 71.0742C68.5771 70.3743 67.5192 69.4385 66.7542 68.2666C65.9892 67.0785 65.6067 65.7357 65.6067 64.2383C65.6067 62.8385 65.8672 61.6016 66.388 60.5273C66.9251 59.4368 67.7063 58.5254 68.7317 57.793C69.7734 57.0605 71.0429 56.5072 72.5403 56.1328C74.0377 55.7422 75.7467 55.5469 77.6673 55.5469H82.2815ZM100.665 65.752L106.769 45.1953H110.529L109.503 51.3477L103.351 71.6113H99.9817L100.665 65.752ZM97.0765 45.1953L101.837 65.8496L102.228 71.6113H98.4681L91.3147 45.1953H97.0765ZM116.242 65.6055L120.856 45.1953H126.593L119.464 71.6113H115.704L116.242 65.6055ZM111.163 45.1953L117.194 65.5078L117.95 71.6113H114.581L108.356 51.3232L107.33 45.1953H111.163ZM162.335 62.4561C162.335 61.7236 162.221 61.0726 161.993 60.5029C161.782 59.9333 161.399 59.4124 160.846 58.9404C160.293 58.4684 159.511 58.0127 158.502 57.5732C157.509 57.1175 156.24 56.6536 154.694 56.1816C153.001 55.6608 151.438 55.083 150.006 54.4482C148.59 53.7972 147.353 53.0485 146.295 52.2021C145.237 51.3395 144.415 50.3548 143.829 49.248C143.243 48.125 142.95 46.8311 142.95 45.3662C142.95 43.9176 143.252 42.5993 143.854 41.4111C144.472 40.223 145.343 39.1976 146.466 38.335C147.605 37.4561 148.948 36.7806 150.494 36.3086C152.041 35.8203 153.75 35.5762 155.621 35.5762C158.258 35.5762 160.529 36.0645 162.433 37.041C164.353 38.0176 165.826 39.3278 166.852 40.9717C167.894 42.6156 168.414 44.4303 168.414 46.416H162.335C162.335 45.2441 162.083 44.2106 161.578 43.3154C161.09 42.404 160.341 41.6878 159.332 41.167C158.339 40.6462 157.078 40.3857 155.548 40.3857C154.1 40.3857 152.895 40.6055 151.935 41.0449C150.975 41.4844 150.258 42.0785 149.786 42.8271C149.314 43.5758 149.078 44.4222 149.078 45.3662C149.078 46.0335 149.233 46.6439 149.542 47.1973C149.852 47.7344 150.324 48.2389 150.958 48.7109C151.593 49.1667 152.391 49.598 153.351 50.0049C154.311 50.4118 155.442 50.8024 156.744 51.1768C158.714 51.7627 160.431 52.4137 161.896 53.1299C163.361 53.8298 164.581 54.6273 165.558 55.5225C166.534 56.4176 167.267 57.4349 167.755 58.5742C168.243 59.6973 168.488 60.9749 168.488 62.4072C168.488 63.9046 168.186 65.2555 167.584 66.46C166.982 67.6481 166.119 68.6654 164.996 69.5117C163.89 70.3418 162.555 70.9847 160.992 71.4404C159.446 71.8799 157.721 72.0996 155.817 72.0996C154.108 72.0996 152.423 71.8717 150.763 71.416C149.119 70.9603 147.622 70.2686 146.271 69.3408C144.92 68.3968 143.846 67.2249 143.048 65.8252C142.251 64.4092 141.852 62.7572 141.852 60.8691H147.98C147.98 62.0247 148.175 63.0094 148.566 63.8232C148.973 64.637 149.534 65.3044 150.25 65.8252C150.966 66.3298 151.797 66.7041 152.741 66.9482C153.701 67.1924 154.726 67.3145 155.817 67.3145C157.249 67.3145 158.445 67.111 159.406 66.7041C160.382 66.2972 161.115 65.7275 161.603 64.9951C162.091 64.2627 162.335 63.4163 162.335 62.4561ZM172.199 58.6963L172.199 58.1348C172.199 56.2305 172.475 54.4645 173.029 52.8369C173.582 51.193 174.38 49.7689 175.421 48.5645C176.479 47.3438 177.765 46.3997 179.279 45.7324C180.809 45.0488 182.534 44.707 184.454 44.707C186.391 44.707 188.117 45.0488 189.63 45.7324C191.16 46.3997 192.454 47.3438 193.512 48.5645C194.57 49.7689 195.376 51.193 195.929 52.8369C196.482 54.4645 196.759 56.2305 196.759 58.1348L196.759 58.6963C196.759 60.6006 196.482 62.3665 195.929 63.9941C195.376 65.6217 194.57 67.0459 193.512 68.2666C192.454 69.471 191.168 70.415 189.655 71.0986C188.141 71.766 186.424 72.0996 184.503 72.0996C182.566 72.0996 180.833 71.766 179.303 71.0986C177.789 70.415 176.504 69.471 175.446 68.2666C174.388 67.0459 173.582 65.6217 173.029 63.9941C172.475 62.3665 172.199 60.6006 172.199 58.6963ZM178.082 58.1348L178.082 58.6963C178.082 59.8844 178.204 61.0075 178.449 62.0654C178.693 63.1234 179.075 64.0511 179.596 64.8486C180.117 65.6462 180.784 66.2728 181.598 66.7285C182.412 67.1842 183.38 67.4121 184.503 67.4121C185.594 67.4121 186.538 67.1842 187.335 66.7285C188.149 66.2728 188.816 65.6462 189.337 64.8486C189.858 64.0511 190.241 63.1234 190.485 62.0654C190.745 61.0075 190.875 59.8844 190.875 58.6963L190.875 58.1348C190.875 56.9629 190.745 55.8561 190.485 54.8145C190.241 53.7565 189.85 52.8206 189.313 52.0068C188.792 51.193 188.125 50.5583 187.311 50.1025C186.513 49.6305 185.561 49.3945 184.454 49.3945C183.348 49.3945 182.387 49.6305 181.574 50.1025C180.776 50.5583 180.117 51.193 179.596 52.0068C179.075 52.8206 178.693 53.7565 178.449 54.8145C178.204 55.8561 178.082 56.9629 178.082 58.1348ZM217.584 65.3857L217.584 45.1953H223.492L223.492 71.6113H217.926L217.584 65.3857ZM218.414 59.8926L220.392 59.8438C220.392 61.6178 220.197 63.2536 219.806 64.751C219.415 66.2321 218.813 67.526 217.999 68.6328C217.186 69.7233 216.144 70.5778 214.874 71.1963C213.605 71.7985 212.083 72.0996 210.309 72.0996C209.023 72.0996 207.843 71.9124 206.769 71.5381C205.695 71.1637 204.767 70.5859 203.986 69.8047C203.221 69.0234 202.627 68.0062 202.203 66.7529C201.78 65.4997 201.569 64.0023 201.569 62.2607L201.569 45.1953L207.452 45.1953L207.452 62.3096C207.452 63.2699 207.566 64.0755 207.794 64.7266C208.022 65.3613 208.331 65.874 208.722 66.2646C209.113 66.6553 209.568 66.932 210.089 67.0947C210.61 67.2575 211.163 67.3389 211.749 67.3389C213.426 67.3389 214.744 67.0133 215.704 66.3623C216.681 65.695 217.373 64.7998 217.78 63.6768C218.203 62.5537 218.414 61.2923 218.414 59.8926ZM235.431 50.2246L235.431 71.6113H229.547L229.547 45.1953H235.162L235.431 50.2246ZM243.512 45.0244L243.463 50.4932C243.105 50.4281 242.714 50.3792 242.291 50.3467C241.884 50.3141 241.478 50.2979 241.071 50.2979C240.061 50.2979 239.174 50.4443 238.409 50.7373C237.644 51.014 237.002 51.4209 236.481 51.958C235.976 52.4788 235.586 53.1136 235.309 53.8623C235.032 54.611 234.869 55.4492 234.821 56.377L233.478 56.4746C233.478 54.8145 233.641 53.2764 233.966 51.8604C234.292 50.4443 234.78 49.1992 235.431 48.125C236.098 47.0508 236.928 46.2126 237.921 45.6104C238.93 45.0081 240.094 44.707 241.412 44.707C241.77 44.707 242.153 44.7396 242.56 44.8047C242.983 44.8698 243.3 44.943 243.512 45.0244ZM257.501 67.4121C258.462 67.4121 259.324 67.2249 260.089 66.8506C260.87 66.46 261.497 65.9229 261.969 65.2393C262.457 64.5557 262.726 63.7663 262.775 62.8711L268.317 62.8711C268.284 64.5801 267.78 66.1344 266.803 67.5342C265.826 68.9339 264.533 70.0488 262.921 70.8789C261.31 71.6927 259.528 72.0996 257.575 72.0996C255.556 72.0996 253.798 71.7578 252.301 71.0742C250.804 70.3743 249.559 69.4141 248.566 68.1934C247.573 66.9727 246.824 65.5648 246.32 63.9697C245.831 62.3747 245.587 60.6657 245.587 58.8428L245.587 57.9883C245.587 56.1654 245.831 54.4564 246.32 52.8613C246.824 51.25 247.573 49.834 248.566 48.6133C249.559 47.3926 250.804 46.4404 252.301 45.7568C253.798 45.057 255.548 44.707 257.55 44.707C259.666 44.707 261.521 45.1302 263.117 45.9766C264.712 46.8066 265.965 47.9704 266.876 49.4678C267.804 50.9489 268.284 52.6742 268.317 54.6436H262.775C262.726 53.667 262.482 52.7881 262.042 52.0068C261.619 51.2093 261.017 50.5745 260.236 50.1025C259.471 49.6305 258.551 49.3945 257.477 49.3945C256.289 49.3945 255.304 49.6387 254.523 50.127C253.742 50.599 253.131 51.25 252.692 52.0801C252.252 52.8939 251.935 53.8135 251.74 54.8389C251.561 55.848 251.471 56.8978 251.471 57.9883L251.471 58.8428C251.471 59.9333 251.561 60.9912 251.74 62.0166C251.919 63.042 252.228 63.9616 252.667 64.7754C253.123 65.5729 253.742 66.2158 254.523 66.7041C255.304 67.1761 256.297 67.4121 257.501 67.4121ZM284.479 72.0996C282.526 72.0996 280.76 71.7822 279.181 71.1475C277.618 70.4964 276.284 69.5931 275.177 68.4375C274.087 67.2819 273.248 65.9229 272.662 64.3604C272.076 62.7979 271.784 61.1133 271.784 59.3066L271.784 58.3301C271.784 56.263 272.085 54.3913 272.687 52.7148C273.289 51.0384 274.127 49.6061 275.201 48.418C276.276 47.2135 277.545 46.2939 279.01 45.6592C280.475 45.0244 282.062 44.707 283.771 44.707C285.659 44.707 287.311 45.0244 288.727 45.6592C290.143 46.2939 291.315 47.1891 292.242 48.3447C293.187 49.484 293.886 50.8431 294.342 52.4219C294.814 54.0007 295.05 55.7422 295.05 57.6465L295.05 60.1611L274.64 60.1611L274.64 55.9375H289.24L289.24 55.4736C289.207 54.4157 288.995 53.4229 288.605 52.4951C288.23 51.5674 287.653 50.8187 286.871 50.249C286.09 49.6794 285.048 49.3945 283.746 49.3945C282.77 49.3945 281.899 49.6061 281.134 50.0293C280.385 50.4362 279.759 51.0303 279.254 51.8115C278.75 52.5928 278.359 53.5368 278.082 54.6436C277.822 55.734 277.692 56.9629 277.692 58.3301L277.692 59.3066C277.692 60.4622 277.846 61.5365 278.156 62.5293C278.481 63.5059 278.953 64.3604 279.572 65.0928C280.19 65.8252 280.939 66.403 281.818 66.8262C282.697 67.2331 283.698 67.4365 284.821 67.4365C286.237 67.4365 287.498 67.1517 288.605 66.582C289.712 66.0124 290.672 65.2067 291.486 64.165L294.586 67.168C294.017 67.998 293.276 68.7956 292.365 69.5605C291.453 70.3092 290.338 70.9196 289.02 71.3916C287.718 71.8636 286.204 72.0996 284.479 72.0996ZM126.642 130.611H119.049L119.098 125.753H126.642C128.839 125.753 130.678 125.273 132.159 124.313C133.657 123.352 134.78 121.977 135.529 120.187C136.294 118.396 136.676 116.264 136.676 113.79L136.676 111.861C136.676 109.941 136.456 108.24 136.017 106.759C135.594 105.278 134.959 104.033 134.113 103.023C133.283 102.014 132.257 101.249 131.036 100.729C129.832 100.208 128.44 99.9473 126.862 99.9473H118.903L118.903 95.0645H126.862C129.222 95.0645 131.378 95.4632 133.331 96.2607C135.284 97.042 136.969 98.1732 138.385 99.6543C139.817 101.135 140.916 102.91 141.681 104.977C142.446 107.044 142.828 109.355 142.828 111.91L142.828 113.79C142.828 116.345 142.446 118.657 141.681 120.724C140.916 122.791 139.817 124.565 138.385 126.046C136.953 127.511 135.244 128.642 133.258 129.439C131.289 130.221 129.083 130.611 126.642 130.611ZM122.443 95.0645L122.443 130.611H116.315L116.315 95.0645H122.443ZM163.287 125.313L163.287 112.716C163.287 111.772 163.117 110.958 162.775 110.274C162.433 109.591 161.912 109.062 161.212 108.688C160.529 108.313 159.666 108.126 158.624 108.126C157.664 108.126 156.834 108.289 156.134 108.614C155.434 108.94 154.889 109.379 154.498 109.933C154.108 110.486 153.912 111.113 153.912 111.813H148.053C148.053 110.771 148.305 109.762 148.81 108.785C149.314 107.809 150.047 106.938 151.007 106.173C151.967 105.408 153.115 104.806 154.45 104.366C155.784 103.927 157.282 103.707 158.942 103.707C160.927 103.707 162.685 104.041 164.215 104.708C165.761 105.375 166.974 106.384 167.853 107.735C168.748 109.07 169.196 110.746 169.196 112.765L169.196 124.508C169.196 125.712 169.277 126.795 169.44 127.755C169.619 128.699 169.871 129.521 170.197 130.221L170.197 130.611H164.166C163.89 129.977 163.67 129.171 163.507 128.194C163.361 127.201 163.287 126.241 163.287 125.313ZM164.142 114.547L164.191 118.185H159.967C158.877 118.185 157.916 118.29 157.086 118.502C156.256 118.697 155.564 118.99 155.011 119.381C154.458 119.771 154.043 120.243 153.766 120.797C153.489 121.35 153.351 121.977 153.351 122.677C153.351 123.377 153.514 124.02 153.839 124.605C154.165 125.175 154.637 125.623 155.255 125.948C155.89 126.274 156.655 126.437 157.55 126.437C158.755 126.437 159.804 126.192 160.7 125.704C161.611 125.2 162.327 124.589 162.848 123.873C163.369 123.141 163.645 122.449 163.678 121.798L165.582 124.41C165.387 125.077 165.053 125.794 164.581 126.559C164.109 127.324 163.491 128.056 162.726 128.756C161.977 129.439 161.074 130.001 160.016 130.44C158.974 130.88 157.77 131.1 156.403 131.1C154.677 131.1 153.139 130.758 151.788 130.074C150.437 129.374 149.38 128.438 148.615 127.267C147.85 126.078 147.467 124.736 147.467 123.238C147.467 121.839 147.728 120.602 148.248 119.527C148.785 118.437 149.567 117.525 150.592 116.793C151.634 116.061 152.903 115.507 154.401 115.133C155.898 114.742 157.607 114.547 159.528 114.547H164.142ZM187.457 104.195L187.457 108.492H172.565L172.565 104.195H187.457ZM176.862 97.7256H182.745L182.745 123.312C182.745 124.125 182.859 124.752 183.087 125.191C183.331 125.615 183.665 125.899 184.088 126.046C184.511 126.192 185.008 126.266 185.577 126.266C185.984 126.266 186.375 126.241 186.749 126.192C187.124 126.144 187.425 126.095 187.653 126.046L187.677 130.538C187.189 130.685 186.619 130.815 185.968 130.929C185.333 131.043 184.601 131.1 183.771 131.1C182.42 131.1 181.224 130.864 180.182 130.392C179.14 129.903 178.326 129.114 177.741 128.023C177.155 126.933 176.862 125.484 176.862 123.678L176.862 97.7256ZM206.891 125.313L206.891 112.716C206.891 111.772 206.72 110.958 206.378 110.274C206.036 109.591 205.516 109.062 204.816 108.688C204.132 108.313 203.269 108.126 202.228 108.126C201.268 108.126 200.437 108.289 199.738 108.614C199.038 108.94 198.492 109.379 198.102 109.933C197.711 110.486 197.516 111.113 197.516 111.813L191.657 111.813C191.657 110.771 191.909 109.762 192.413 108.785C192.918 107.809 193.65 106.938 194.611 106.173C195.571 105.408 196.718 104.806 198.053 104.366C199.388 103.927 200.885 103.707 202.545 103.707C204.531 103.707 206.289 104.041 207.819 104.708C209.365 105.375 210.577 106.384 211.456 107.735C212.352 109.07 212.799 110.746 212.799 112.765L212.799 124.508C212.799 125.712 212.881 126.795 213.043 127.755C213.222 128.699 213.475 129.521 213.8 130.221L213.8 130.611H207.77C207.493 129.977 207.273 129.171 207.111 128.194C206.964 127.201 206.891 126.241 206.891 125.313ZM207.745 114.547L207.794 118.185H203.571C202.48 118.185 201.52 118.29 200.69 118.502C199.86 118.697 199.168 118.99 198.615 119.381C198.061 119.771 197.646 120.243 197.369 120.797C197.093 121.35 196.954 121.977 196.954 122.677C196.954 123.377 197.117 124.02 197.443 124.605C197.768 125.175 198.24 125.623 198.859 125.948C199.493 126.274 200.258 126.437 201.154 126.437C202.358 126.437 203.408 126.192 204.303 125.704C205.214 125.2 205.931 124.589 206.451 123.873C206.972 123.141 207.249 122.449 207.282 121.798L209.186 124.41C208.991 125.077 208.657 125.794 208.185 126.559C207.713 127.324 207.094 128.056 206.329 128.756C205.581 129.439 204.677 130.001 203.619 130.44C202.578 130.88 201.373 131.1 200.006 131.1C198.281 131.1 196.743 130.758 195.392 130.074C194.041 129.374 192.983 128.438 192.218 127.267C191.453 126.078 191.071 124.736 191.071 123.238C191.071 121.839 191.331 120.602 191.852 119.527C192.389 118.437 193.17 117.525 194.196 116.793C195.237 116.061 196.507 115.507 198.004 115.133C199.502 114.742 201.211 114.547 203.131 114.547H207.745Z" fill="#666666"/>
<path d="M807 84L757 55.1325V112.868L807 84ZM725 89H762V79H725V89Z" fill="#2FA4DA"/>
<path d="M414 84L364 55.1325V112.868L414 84ZM332 89H369V79H332V89Z" fill="#2FA4DA"/>
<path d="M1191 84L1141 55.1325V112.868L1191 84ZM1109 89H1146V79H1109V89Z" fill="#2FA4DA"/>
<path d="M1532 84L1482 55.1325V112.868L1532 84ZM1450 89H1487V79H1450V89Z" fill="#2FA4DA"/>
<g clip-path="url(#clip0_950_2)">
<path fill-rule="evenodd" clip-rule="evenodd" d="M1589.17 31.6858C1570.57 31.8646 1555.54 47.0079 1555.44 65.7016C1571.59 61.5205 1583.47 48.8479 1589.17 31.6858ZM1589.5 100.105C1575.36 100.105 1563.24 91.4575 1558.09 79.1424C1580.56 73.6503 1595.95 56.0034 1602.63 34.3201C1614.93 39.4838 1623.56 51.6763 1623.56 65.8947C1623.56 84.7885 1608.31 100.105 1589.5 100.105ZM1637.18 66.4503C1637.19 66.2656 1637.19 66.0802 1637.19 65.8947C1637.19 39.4432 1615.84 18 1589.5 18C1563.16 18 1541.81 39.4432 1541.81 65.8947C1541.81 66.0781 1541.81 66.2615 1541.82 66.4448C1541.81 66.5023 1541.81 66.5598 1541.81 66.6173C1541.78 72.3496 1541.79 80.9864 1541.8 89.1387C1541.81 93.0251 1541.81 96.806 1541.81 100.105C1541.81 103.884 1544.86 106.947 1548.62 106.947H1558.73C1544.03 114.353 1535 127.017 1535 141.158C1535 144.937 1538.05 148 1541.81 148C1545.57 148 1548.62 144.937 1548.62 141.158C1548.62 129.322 1561.78 113.789 1589.5 113.789C1617.22 113.789 1630.38 129.322 1630.38 141.158C1630.38 144.937 1633.42 148 1637.19 148C1640.95 148 1644 144.937 1644 141.158C1644 127.017 1634.97 114.353 1620.27 106.947H1630.38C1634.14 106.947 1637.19 103.884 1637.19 100.105C1637.19 96.8039 1637.19 93.0244 1637.2 89.1346V89.1244C1637.21 80.9761 1637.22 72.3462 1637.19 66.6173C1637.19 66.5612 1637.19 66.5057 1637.18 66.4503Z" fill="#D07839"/>
</g>
<defs>
<clipPath id="clip0_950_2">
<rect width="109" height="130" fill="white" transform="translate(1535 18)"/>
</clipPath>
</defs>
</svg>
