<svg width="832" height="745" viewBox="0 0 832 745" fill="none" xmlns="http://www.w3.org/2000/svg">
<rect x="37" y="91" width="758" height="157" fill="#2FA4DA" stroke="#2FA4DA" stroke-width="6"/>
<rect x="267" y="295" width="528" height="174" fill="#2FA4DA" stroke="#2FA4DA" stroke-width="6"/>
<rect x="267" y="516" width="528" height="194" fill="#2FA4DA" stroke="#2FA4DA" stroke-width="6"/>
<rect x="37" y="295" width="183" height="415" fill="#2FA4DA" stroke="#2FA4DA" stroke-width="6"/>
<path d="M223 570L268 595.981V544.019L223 570Z" fill="#2FA4DA"/>
<path d="M119 292L144.981 247H93.0192L119 292Z" fill="#2FA4DA"/>
<path d="M531 472L505.019 517H556.981L531 472Z" fill="#2FA4DA"/>
<path d="M531 251L505.019 296H556.981L531 251Z" fill="#2FA4DA"/>
<path d="M531 0L505.019 45L556.981 45L531 0ZM535.5 70L535.5 40.5L526.5 40.5L526.5 70L535.5 70Z" fill="#888888"/>
<path d="M119 70L144.981 25L93.0192 25L119 70ZM114.5 0V29.5H123.5V0L114.5 0Z" fill="#888888"/>
<path d="M265 650L220 624.019L220 675.981L265 650Z" fill="#2FA4DA"/>
<path d="M335.688 183.117C335.688 182.102 335.531 181.19 335.219 180.383C334.932 179.549 334.385 178.794 333.578 178.117C332.771 177.414 331.638 176.724 330.18 176.047C328.721 175.37 326.833 174.667 324.516 173.938C321.938 173.104 319.49 172.167 317.172 171.125C314.88 170.083 312.849 168.872 311.078 167.492C309.333 166.086 307.953 164.458 306.938 162.609C305.948 160.76 305.453 158.612 305.453 156.164C305.453 153.794 305.974 151.646 307.016 149.719C308.057 147.766 309.516 146.099 311.391 144.719C313.266 143.312 315.479 142.232 318.031 141.477C320.609 140.721 323.435 140.344 326.508 140.344C330.701 140.344 334.359 141.099 337.484 142.609C340.609 144.12 343.031 146.19 344.75 148.82C346.495 151.451 347.367 154.458 347.367 157.844H335.727C335.727 156.177 335.375 154.719 334.672 153.469C333.995 152.193 332.953 151.19 331.547 150.461C330.167 149.732 328.422 149.367 326.312 149.367C324.281 149.367 322.589 149.68 321.234 150.305C319.88 150.904 318.865 151.724 318.188 152.766C317.51 153.781 317.172 154.927 317.172 156.203C317.172 157.167 317.406 158.039 317.875 158.82C318.37 159.602 319.099 160.331 320.062 161.008C321.026 161.685 322.211 162.323 323.617 162.922C325.023 163.521 326.651 164.107 328.5 164.68C331.599 165.617 334.32 166.672 336.664 167.844C339.034 169.016 341.013 170.331 342.602 171.789C344.19 173.247 345.388 174.901 346.195 176.75C347.003 178.599 347.406 180.695 347.406 183.039C347.406 185.513 346.924 187.727 345.961 189.68C344.997 191.633 343.604 193.286 341.781 194.641C339.958 195.995 337.784 197.023 335.258 197.727C332.732 198.43 329.906 198.781 326.781 198.781C323.969 198.781 321.195 198.417 318.461 197.688C315.727 196.932 313.24 195.799 311 194.289C308.786 192.779 307.016 190.852 305.688 188.508C304.359 186.164 303.695 183.391 303.695 180.188H315.453C315.453 181.958 315.727 183.456 316.273 184.68C316.82 185.904 317.589 186.893 318.578 187.648C319.594 188.404 320.792 188.951 322.172 189.289C323.578 189.628 325.115 189.797 326.781 189.797C328.812 189.797 330.479 189.51 331.781 188.938C333.109 188.365 334.086 187.57 334.711 186.555C335.362 185.539 335.688 184.393 335.688 183.117ZM374.125 198.781C370.844 198.781 367.901 198.26 365.297 197.219C362.693 196.151 360.479 194.68 358.656 192.805C356.859 190.93 355.479 188.755 354.516 186.281C353.552 183.781 353.07 181.125 353.07 178.312V176.75C353.07 173.547 353.526 170.617 354.438 167.961C355.349 165.305 356.651 163 358.344 161.047C360.062 159.094 362.146 157.596 364.594 156.555C367.042 155.487 369.802 154.953 372.875 154.953C375.87 154.953 378.526 155.448 380.844 156.438C383.161 157.427 385.102 158.833 386.664 160.656C388.253 162.479 389.451 164.667 390.258 167.219C391.065 169.745 391.469 172.557 391.469 175.656V180.344H357.875V172.844H380.414V171.984C380.414 170.422 380.128 169.029 379.555 167.805C379.008 166.555 378.174 165.565 377.055 164.836C375.935 164.107 374.503 163.742 372.758 163.742C371.273 163.742 369.997 164.068 368.93 164.719C367.862 165.37 366.99 166.281 366.312 167.453C365.661 168.625 365.167 170.005 364.828 171.594C364.516 173.156 364.359 174.875 364.359 176.75V178.312C364.359 180.005 364.594 181.568 365.062 183C365.557 184.432 366.247 185.669 367.133 186.711C368.044 187.753 369.138 188.56 370.414 189.133C371.716 189.706 373.188 189.992 374.828 189.992C376.859 189.992 378.747 189.602 380.492 188.82C382.263 188.013 383.786 186.802 385.062 185.188L390.531 191.125C389.646 192.401 388.435 193.625 386.898 194.797C385.388 195.969 383.565 196.932 381.43 197.688C379.294 198.417 376.859 198.781 374.125 198.781ZM409.125 164.953V198H397.875V155.734H408.461L409.125 164.953ZM421.859 155.461L421.664 165.891C421.117 165.812 420.453 165.747 419.672 165.695C418.917 165.617 418.227 165.578 417.602 165.578C416.013 165.578 414.633 165.786 413.461 166.203C412.315 166.594 411.352 167.18 410.57 167.961C409.815 168.742 409.242 169.693 408.852 170.812C408.487 171.932 408.279 173.208 408.227 174.641L405.961 173.938C405.961 171.203 406.234 168.69 406.781 166.398C407.328 164.081 408.122 162.062 409.164 160.344C410.232 158.625 411.534 157.297 413.07 156.359C414.607 155.422 416.365 154.953 418.344 154.953C418.969 154.953 419.607 155.005 420.258 155.109C420.909 155.188 421.443 155.305 421.859 155.461ZM442.25 189.797L451.625 155.734H463.383L449.125 198H442.016L442.25 189.797ZM435.805 155.734L445.219 189.836L445.414 198H438.266L424.008 155.734H435.805ZM487.328 198.781C484.047 198.781 481.104 198.26 478.5 197.219C475.896 196.151 473.682 194.68 471.859 192.805C470.062 190.93 468.682 188.755 467.719 186.281C466.755 183.781 466.273 181.125 466.273 178.312V176.75C466.273 173.547 466.729 170.617 467.641 167.961C468.552 165.305 469.854 163 471.547 161.047C473.266 159.094 475.349 157.596 477.797 156.555C480.245 155.487 483.005 154.953 486.078 154.953C489.073 154.953 491.729 155.448 494.047 156.438C496.365 157.427 498.305 158.833 499.867 160.656C501.456 162.479 502.654 164.667 503.461 167.219C504.268 169.745 504.672 172.557 504.672 175.656V180.344H471.078V172.844H493.617V171.984C493.617 170.422 493.331 169.029 492.758 167.805C492.211 166.555 491.378 165.565 490.258 164.836C489.138 164.107 487.706 163.742 485.961 163.742C484.477 163.742 483.201 164.068 482.133 164.719C481.065 165.37 480.193 166.281 479.516 167.453C478.865 168.625 478.37 170.005 478.031 171.594C477.719 173.156 477.562 174.875 477.562 176.75V178.312C477.562 180.005 477.797 181.568 478.266 183C478.76 184.432 479.451 185.669 480.336 186.711C481.247 187.753 482.341 188.56 483.617 189.133C484.919 189.706 486.391 189.992 488.031 189.992C490.062 189.992 491.951 189.602 493.695 188.82C495.466 188.013 496.99 186.802 498.266 185.188L503.734 191.125C502.849 192.401 501.638 193.625 500.102 194.797C498.591 195.969 496.768 196.932 494.633 197.688C492.497 198.417 490.062 198.781 487.328 198.781ZM522.328 164.953V198H511.078V155.734H521.664L522.328 164.953ZM535.062 155.461L534.867 165.891C534.32 165.812 533.656 165.747 532.875 165.695C532.12 165.617 531.43 165.578 530.805 165.578C529.216 165.578 527.836 165.786 526.664 166.203C525.518 166.594 524.555 167.18 523.773 167.961C523.018 168.742 522.445 169.693 522.055 170.812C521.69 171.932 521.482 173.208 521.43 174.641L519.164 173.938C519.164 171.203 519.438 168.69 519.984 166.398C520.531 164.081 521.326 162.062 522.367 160.344C523.435 158.625 524.737 157.297 526.273 156.359C527.81 155.422 529.568 154.953 531.547 154.953C532.172 154.953 532.81 155.005 533.461 155.109C534.112 155.188 534.646 155.305 535.062 155.461Z" fill="white"/>
<path d="M89.125 689.922L89.125 680L130.883 665.391L89.125 650.781L89.125 640.859L146 661.406L146 669.375L89.125 689.922ZM89.125 695.273L89.125 685.391L129.828 683.594L146 683.594L146 695.273L89.125 695.273ZM89.125 645.391L89.125 635.469L146 635.469L146 647.187L129.828 647.187L89.125 645.391ZM146.781 606.445C146.781 609.727 146.26 612.669 145.219 615.273C144.151 617.878 142.68 620.091 140.805 621.914C138.93 623.711 136.755 625.091 134.281 626.055C131.781 627.018 129.125 627.5 126.312 627.5L124.75 627.5C121.547 627.5 118.617 627.044 115.961 626.133C113.305 625.221 111 623.919 109.047 622.227C107.094 620.508 105.596 618.424 104.555 615.977C103.487 613.529 102.953 610.768 102.953 607.695C102.953 604.701 103.448 602.044 104.437 599.727C105.427 597.409 106.833 595.469 108.656 593.906C110.479 592.318 112.667 591.12 115.219 590.312C117.745 589.505 120.557 589.102 123.656 589.102L128.344 589.102L128.344 622.695L120.844 622.695L120.844 600.156L119.984 600.156C118.422 600.156 117.029 600.443 115.805 601.016C114.555 601.562 113.565 602.396 112.836 603.516C112.107 604.635 111.742 606.068 111.742 607.812C111.742 609.297 112.068 610.573 112.719 611.641C113.37 612.708 114.281 613.581 115.453 614.258C116.625 614.909 118.005 615.404 119.594 615.742C121.156 616.055 122.875 616.211 124.75 616.211L126.312 616.211C128.005 616.211 129.568 615.977 131 615.508C132.432 615.013 133.669 614.323 134.711 613.437C135.753 612.526 136.56 611.432 137.133 610.156C137.706 608.854 137.992 607.383 137.992 605.742C137.992 603.711 137.602 601.823 136.82 600.078C136.013 598.307 134.802 596.784 133.187 595.508L139.125 590.039C140.401 590.924 141.625 592.135 142.797 593.672C143.969 595.182 144.932 597.005 145.687 599.141C146.417 601.276 146.781 603.711 146.781 606.445ZM134.32 559.844C133.513 559.844 132.784 560.078 132.133 560.547C131.482 561.016 130.883 561.888 130.336 563.164C129.763 564.414 129.242 566.224 128.773 568.594C128.305 570.729 127.719 572.721 127.016 574.57C126.286 576.393 125.414 577.982 124.398 579.336C123.383 580.664 122.185 581.706 120.805 582.461C119.398 583.216 117.797 583.594 116 583.594C114.229 583.594 112.562 583.216 111 582.461C109.437 581.68 108.057 580.573 106.859 579.141C105.635 577.682 104.685 575.911 104.008 573.828C103.305 571.719 102.953 569.349 102.953 566.719C102.953 563.047 103.539 559.896 104.711 557.266C105.883 554.609 107.497 552.578 109.555 551.172C111.586 549.74 113.904 549.023 116.508 549.023L116.508 560.273C115.414 560.273 114.437 560.508 113.578 560.977C112.693 561.419 112.003 562.122 111.508 563.086C110.987 564.023 110.727 565.247 110.727 566.758C110.727 568.008 110.948 569.089 111.391 570C111.807 570.911 112.38 571.615 113.109 572.109C113.812 572.578 114.594 572.812 115.453 572.812C116.104 572.812 116.69 572.682 117.211 572.422C117.706 572.135 118.161 571.68 118.578 571.055C118.995 570.43 119.385 569.622 119.75 568.633C120.089 567.617 120.401 566.367 120.687 564.883C121.312 561.836 122.133 559.115 123.148 556.719C124.138 554.323 125.492 552.422 127.211 551.016C128.904 549.609 131.13 548.906 133.891 548.906C135.766 548.906 137.484 549.323 139.047 550.156C140.609 550.99 141.977 552.187 143.148 553.75C144.294 555.312 145.193 557.187 145.844 559.375C146.469 561.536 146.781 563.971 146.781 566.68C146.781 570.612 146.078 573.945 144.672 576.68C143.266 579.388 141.482 581.445 139.32 582.852C137.133 584.232 134.893 584.922 132.602 584.922L132.602 574.258C134.138 574.206 135.375 573.815 136.312 573.086C137.25 572.331 137.927 571.38 138.344 570.234C138.76 569.062 138.969 567.799 138.969 566.445C138.969 564.987 138.773 563.776 138.383 562.812C137.966 561.849 137.419 561.12 136.742 560.625C136.039 560.104 135.232 559.844 134.32 559.844ZM134.32 518.75C133.513 518.75 132.784 518.984 132.133 519.453C131.482 519.922 130.883 520.794 130.336 522.07C129.763 523.32 129.242 525.13 128.773 527.5C128.305 529.635 127.719 531.628 127.016 533.477C126.286 535.299 125.414 536.888 124.398 538.242C123.383 539.57 122.185 540.612 120.805 541.367C119.398 542.122 117.797 542.5 116 542.5C114.229 542.5 112.562 542.122 111 541.367C109.437 540.586 108.057 539.479 106.859 538.047C105.635 536.589 104.685 534.818 104.008 532.734C103.305 530.625 102.953 528.255 102.953 525.625C102.953 521.953 103.539 518.802 104.711 516.172C105.883 513.516 107.497 511.484 109.555 510.078C111.586 508.646 113.904 507.93 116.508 507.93L116.508 519.18C115.414 519.18 114.437 519.414 113.578 519.883C112.693 520.326 112.003 521.029 111.508 521.992C110.987 522.93 110.727 524.154 110.727 525.664C110.727 526.914 110.948 527.995 111.391 528.906C111.807 529.818 112.38 530.521 113.109 531.016C113.812 531.484 114.594 531.719 115.453 531.719C116.104 531.719 116.69 531.589 117.211 531.328C117.706 531.042 118.161 530.586 118.578 529.961C118.995 529.336 119.385 528.529 119.75 527.539C120.089 526.523 120.401 525.273 120.687 523.789C121.312 520.742 122.133 518.021 123.148 515.625C124.138 513.229 125.492 511.328 127.211 509.922C128.904 508.516 131.13 507.812 133.891 507.812C135.766 507.812 137.484 508.229 139.047 509.062C140.609 509.896 141.977 511.094 143.148 512.656C144.294 514.219 145.193 516.094 145.844 518.281C146.469 520.443 146.781 522.878 146.781 525.586C146.781 529.518 146.078 532.852 144.672 535.586C143.266 538.294 141.482 540.352 139.32 541.758C137.133 543.138 134.893 543.828 132.602 543.828L132.602 533.164C134.138 533.112 135.375 532.721 136.312 531.992C137.25 531.237 137.927 530.286 138.344 529.141C138.76 527.969 138.969 526.706 138.969 525.352C138.969 523.893 138.773 522.682 138.383 521.719C137.966 520.755 137.419 520.026 136.742 519.531C136.039 519.01 135.232 518.75 134.32 518.75ZM136.469 477.695L117.641 477.695C116.286 477.695 115.128 477.917 114.164 478.359C113.174 478.802 112.406 479.492 111.859 480.43C111.312 481.341 111.039 482.526 111.039 483.984C111.039 485.234 111.26 486.315 111.703 487.227C112.12 488.138 112.732 488.841 113.539 489.336C114.32 489.831 115.245 490.078 116.312 490.078L116.312 501.328C114.516 501.328 112.81 500.911 111.195 500.078C109.581 499.245 108.161 498.034 106.937 496.445C105.687 494.857 104.711 492.969 104.008 490.781C103.305 488.568 102.953 486.094 102.953 483.359C102.953 480.078 103.5 477.161 104.594 474.609C105.687 472.057 107.328 470.052 109.516 468.594C111.703 467.109 114.437 466.367 117.719 466.367L135.805 466.367C138.122 466.367 140.023 466.224 141.508 465.937C142.966 465.651 144.242 465.234 145.336 464.687L146 464.687L146 476.055C144.854 476.602 143.422 477.018 141.703 477.305C139.958 477.565 138.214 477.695 136.469 477.695ZM120.258 476.211L126.625 476.133L126.625 482.422C126.625 483.906 126.794 485.195 127.133 486.289C127.471 487.383 127.953 488.281 128.578 488.984C129.177 489.687 129.88 490.208 130.687 490.547C131.495 490.859 132.38 491.016 133.344 491.016C134.307 491.016 135.18 490.794 135.961 490.352C136.716 489.909 137.315 489.271 137.758 488.437C138.174 487.604 138.383 486.628 138.383 485.508C138.383 483.815 138.044 482.344 137.367 481.094C136.69 479.844 135.857 478.88 134.867 478.203C133.878 477.5 132.94 477.135 132.055 477.109L136.82 474.141C137.888 474.557 138.995 475.13 140.141 475.859C141.286 476.562 142.367 477.461 143.383 478.555C144.372 479.648 145.193 480.964 145.844 482.5C146.469 484.036 146.781 485.859 146.781 487.969C146.781 490.651 146.247 493.086 145.18 495.273C144.086 497.435 142.589 499.154 140.687 500.43C138.76 501.68 136.573 502.305 134.125 502.305C131.911 502.305 129.945 501.888 128.227 501.055C126.508 500.221 125.062 498.997 123.891 497.383C122.693 495.742 121.794 493.698 121.195 491.25C120.57 488.802 120.258 485.964 120.258 482.734L120.258 476.211ZM103.734 430.937L103.734 420.742L144.594 420.742C148.448 420.742 151.716 421.602 154.398 423.32C157.107 425.013 159.151 427.383 160.531 430.43C161.937 433.477 162.641 437.018 162.641 441.055C162.641 442.826 162.406 444.701 161.937 446.68C161.469 448.633 160.74 450.508 159.75 452.305C158.76 454.076 157.51 455.56 156 456.758L149.359 451.797C150.87 450.495 152.042 448.984 152.875 447.266C153.734 445.547 154.164 443.646 154.164 441.562C154.164 439.531 153.786 437.812 153.031 436.406C152.302 435 151.221 433.919 149.789 433.164C148.383 432.409 146.677 432.031 144.672 432.031L113.5 432.031L103.734 430.937ZM125.375 459.375L124.555 459.375C121.326 459.375 118.396 458.984 115.766 458.203C113.109 457.396 110.831 456.263 108.93 454.805C107.029 453.32 105.557 451.523 104.516 449.414C103.474 447.305 102.953 444.922 102.953 442.266C102.953 439.453 103.474 437.096 104.516 435.195C105.557 433.294 107.042 431.732 108.969 430.508C110.87 429.284 113.122 428.333 115.727 427.656C118.305 426.953 121.13 426.406 124.203 426.016L126 426.016C128.943 426.406 131.677 426.992 134.203 427.773C136.729 428.555 138.943 429.583 140.844 430.859C142.719 432.135 144.177 433.724 145.219 435.625C146.26 437.5 146.781 439.74 146.781 442.344C146.781 444.948 146.247 447.305 145.18 449.414C144.112 451.497 142.615 453.281 140.687 454.766C138.76 456.25 136.495 457.396 133.891 458.203C131.286 458.984 128.448 459.375 125.375 459.375ZM124.555 448.125L125.375 448.125C127.12 448.125 128.747 447.956 130.258 447.617C131.768 447.279 133.109 446.758 134.281 446.055C135.427 445.326 136.326 444.427 136.977 443.359C137.602 442.266 137.914 440.977 137.914 439.492C137.914 437.435 137.484 435.755 136.625 434.453C135.74 433.151 134.529 432.174 132.992 431.523C131.456 430.872 129.685 430.495 127.68 430.391L122.562 430.391C120.922 430.443 119.451 430.664 118.148 431.055C116.82 431.445 115.687 431.992 114.75 432.695C113.812 433.398 113.083 434.31 112.562 435.43C112.042 436.549 111.781 437.878 111.781 439.414C111.781 440.898 112.12 442.187 112.797 443.281C113.448 444.349 114.346 445.247 115.492 445.977C116.638 446.68 117.992 447.214 119.555 447.578C121.091 447.943 122.758 448.125 124.555 448.125ZM103.734 400.117L146 400.117L146 411.406L103.734 411.406L103.734 400.117ZM92.7187 412.109C91.0781 412.109 89.7239 411.536 88.6562 410.391C87.5885 409.245 87.0547 407.708 87.0547 405.781C87.0547 403.88 87.5885 402.357 88.6562 401.211C89.7239 400.039 91.0781 399.453 92.7187 399.453C94.3594 399.453 95.7135 400.039 96.7812 401.211C97.8489 402.357 98.3828 403.88 98.3828 405.781C98.3828 407.708 97.8489 409.245 96.7812 410.391C95.7135 411.536 94.3594 412.109 92.7187 412.109ZM112.758 379.805L146 379.805L146 391.055L103.734 391.055L103.734 380.508L112.758 379.805ZM123.383 381.445L123.383 384.492C120.258 384.492 117.445 384.089 114.945 383.281C112.419 382.474 110.271 381.341 108.5 379.883C106.703 378.424 105.336 376.693 104.398 374.687C103.435 372.656 102.953 370.391 102.953 367.891C102.953 365.911 103.24 364.102 103.812 362.461C104.385 360.82 105.297 359.414 106.547 358.242C107.797 357.044 109.451 356.133 111.508 355.508C113.565 354.857 116.078 354.531 119.047 354.531L146 354.531L146 365.859L119.008 365.859C117.133 365.859 115.674 366.12 114.633 366.641C113.591 367.161 112.862 367.93 112.445 368.945C112.003 369.935 111.781 371.159 111.781 372.617C111.781 374.128 112.081 375.443 112.68 376.562C113.279 377.656 114.112 378.568 115.18 379.297C116.221 380 117.445 380.534 118.852 380.898C120.258 381.263 121.768 381.445 123.383 381.445ZM103.734 319.219L103.734 309.023L144.594 309.023C148.448 309.023 151.716 309.883 154.398 311.602C157.107 313.294 159.151 315.664 160.531 318.711C161.937 321.758 162.641 325.299 162.641 329.336C162.641 331.107 162.406 332.982 161.937 334.961C161.469 336.914 160.74 338.789 159.75 340.586C158.76 342.357 157.51 343.841 156 345.039L149.359 340.078C150.87 338.776 152.042 337.266 152.875 335.547C153.734 333.828 154.164 331.927 154.164 329.844C154.164 327.812 153.786 326.094 153.031 324.687C152.302 323.281 151.221 322.201 149.789 321.445C148.383 320.69 146.677 320.312 144.672 320.312L113.5 320.312L103.734 319.219ZM125.375 347.656L124.555 347.656C121.326 347.656 118.396 347.266 115.766 346.484C113.109 345.677 110.831 344.544 108.93 343.086C107.029 341.602 105.557 339.805 104.516 337.695C103.474 335.586 102.953 333.203 102.953 330.547C102.953 327.734 103.474 325.378 104.516 323.477C105.557 321.576 107.042 320.013 108.969 318.789C110.87 317.565 113.122 316.615 115.727 315.937C118.305 315.234 121.13 314.687 124.203 314.297L126 314.297C128.943 314.687 131.677 315.273 134.203 316.055C136.729 316.836 138.943 317.865 140.844 319.141C142.719 320.417 144.177 322.005 145.219 323.906C146.26 325.781 146.781 328.021 146.781 330.625C146.781 333.229 146.247 335.586 145.18 337.695C144.112 339.779 142.615 341.562 140.687 343.047C138.76 344.531 136.495 345.677 133.891 346.484C131.286 347.266 128.448 347.656 125.375 347.656ZM124.555 336.406L125.375 336.406C127.12 336.406 128.747 336.237 130.258 335.898C131.768 335.56 133.109 335.039 134.281 334.336C135.427 333.607 136.326 332.708 136.977 331.641C137.602 330.547 137.914 329.258 137.914 327.773C137.914 325.716 137.484 324.036 136.625 322.734C135.74 321.432 134.529 320.456 132.992 319.805C131.456 319.154 129.685 318.776 127.68 318.672L122.562 318.672C120.922 318.724 119.451 318.945 118.148 319.336C116.82 319.727 115.687 320.273 114.75 320.977C113.812 321.68 113.083 322.591 112.562 323.711C112.042 324.831 111.781 326.159 111.781 327.695C111.781 329.18 112.12 330.469 112.797 331.562C113.448 332.63 114.346 333.529 115.492 334.258C116.638 334.961 117.992 335.495 119.555 335.859C121.091 336.224 122.758 336.406 124.555 336.406Z" fill="white"/>
<path d="M385.602 409H373.219L373.297 399.859H385.602C388.674 399.859 391.266 399.169 393.375 397.789C395.484 396.383 397.073 394.339 398.141 391.656C399.234 388.974 399.781 385.732 399.781 381.93V379.156C399.781 376.24 399.469 373.674 398.844 371.461C398.245 369.247 397.346 367.385 396.148 365.875C394.951 364.365 393.479 363.232 391.734 362.477C389.99 361.695 387.984 361.305 385.719 361.305H372.984V352.125H385.719C389.521 352.125 392.997 352.776 396.148 354.078C399.326 355.354 402.073 357.19 404.391 359.586C406.708 361.982 408.492 364.846 409.742 368.18C411.018 371.487 411.656 375.172 411.656 379.234V381.93C411.656 385.966 411.018 389.651 409.742 392.984C408.492 396.318 406.708 399.182 404.391 401.578C402.099 403.948 399.352 405.784 396.148 407.086C392.971 408.362 389.456 409 385.602 409ZM379.859 352.125V409H368.141V352.125H379.859ZM442.281 399.469V380.641C442.281 379.286 442.06 378.128 441.617 377.164C441.174 376.174 440.484 375.406 439.547 374.859C438.635 374.312 437.451 374.039 435.992 374.039C434.742 374.039 433.661 374.26 432.75 374.703C431.839 375.12 431.135 375.732 430.641 376.539C430.146 377.32 429.898 378.245 429.898 379.312H418.648C418.648 377.516 419.065 375.81 419.898 374.195C420.732 372.581 421.943 371.161 423.531 369.938C425.12 368.688 427.008 367.711 429.195 367.008C431.409 366.305 433.883 365.953 436.617 365.953C439.898 365.953 442.815 366.5 445.367 367.594C447.919 368.688 449.924 370.328 451.383 372.516C452.867 374.703 453.609 377.438 453.609 380.719V398.805C453.609 401.122 453.753 403.023 454.039 404.508C454.326 405.966 454.742 407.242 455.289 408.336V409H443.922C443.375 407.854 442.958 406.422 442.672 404.703C442.411 402.958 442.281 401.214 442.281 399.469ZM443.766 383.258L443.844 389.625H437.555C436.07 389.625 434.781 389.794 433.688 390.133C432.594 390.471 431.695 390.953 430.992 391.578C430.289 392.177 429.768 392.88 429.43 393.688C429.117 394.495 428.961 395.38 428.961 396.344C428.961 397.307 429.182 398.18 429.625 398.961C430.068 399.716 430.706 400.315 431.539 400.758C432.372 401.174 433.349 401.383 434.469 401.383C436.161 401.383 437.633 401.044 438.883 400.367C440.133 399.69 441.096 398.857 441.773 397.867C442.477 396.878 442.841 395.94 442.867 395.055L445.836 399.82C445.419 400.888 444.846 401.995 444.117 403.141C443.414 404.286 442.516 405.367 441.422 406.383C440.328 407.372 439.013 408.193 437.477 408.844C435.94 409.469 434.117 409.781 432.008 409.781C429.326 409.781 426.891 409.247 424.703 408.18C422.542 407.086 420.823 405.589 419.547 403.688C418.297 401.76 417.672 399.573 417.672 397.125C417.672 394.911 418.089 392.945 418.922 391.227C419.755 389.508 420.979 388.062 422.594 386.891C424.234 385.693 426.279 384.794 428.727 384.195C431.174 383.57 434.013 383.258 437.242 383.258H443.766ZM482.984 366.734V374.703H458.375V366.734H482.984ZM464.469 356.305H475.719V396.266C475.719 397.49 475.875 398.427 476.188 399.078C476.526 399.729 477.021 400.185 477.672 400.445C478.323 400.68 479.143 400.797 480.133 400.797C480.836 400.797 481.461 400.771 482.008 400.719C482.581 400.641 483.062 400.562 483.453 400.484L483.492 408.766C482.529 409.078 481.487 409.326 480.367 409.508C479.247 409.69 478.01 409.781 476.656 409.781C474.182 409.781 472.021 409.378 470.172 408.57C468.349 407.737 466.943 406.409 465.953 404.586C464.964 402.763 464.469 400.367 464.469 397.398V356.305ZM512.203 399.469V380.641C512.203 379.286 511.982 378.128 511.539 377.164C511.096 376.174 510.406 375.406 509.469 374.859C508.557 374.312 507.372 374.039 505.914 374.039C504.664 374.039 503.583 374.26 502.672 374.703C501.76 375.12 501.057 375.732 500.562 376.539C500.068 377.32 499.82 378.245 499.82 379.312H488.57C488.57 377.516 488.987 375.81 489.82 374.195C490.654 372.581 491.865 371.161 493.453 369.938C495.042 368.688 496.93 367.711 499.117 367.008C501.331 366.305 503.805 365.953 506.539 365.953C509.82 365.953 512.737 366.5 515.289 367.594C517.841 368.688 519.846 370.328 521.305 372.516C522.789 374.703 523.531 377.438 523.531 380.719V398.805C523.531 401.122 523.674 403.023 523.961 404.508C524.247 405.966 524.664 407.242 525.211 408.336V409H513.844C513.297 407.854 512.88 406.422 512.594 404.703C512.333 402.958 512.203 401.214 512.203 399.469ZM513.688 383.258L513.766 389.625H507.477C505.992 389.625 504.703 389.794 503.609 390.133C502.516 390.471 501.617 390.953 500.914 391.578C500.211 392.177 499.69 392.88 499.352 393.688C499.039 394.495 498.883 395.38 498.883 396.344C498.883 397.307 499.104 398.18 499.547 398.961C499.99 399.716 500.628 400.315 501.461 400.758C502.294 401.174 503.271 401.383 504.391 401.383C506.083 401.383 507.555 401.044 508.805 400.367C510.055 399.69 511.018 398.857 511.695 397.867C512.398 396.878 512.763 395.94 512.789 395.055L515.758 399.82C515.341 400.888 514.768 401.995 514.039 403.141C513.336 404.286 512.438 405.367 511.344 406.383C510.25 407.372 508.935 408.193 507.398 408.844C505.862 409.469 504.039 409.781 501.93 409.781C499.247 409.781 496.812 409.247 494.625 408.18C492.464 407.086 490.745 405.589 489.469 403.688C488.219 401.76 487.594 399.573 487.594 397.125C487.594 394.911 488.01 392.945 488.844 391.227C489.677 389.508 490.901 388.062 492.516 386.891C494.156 385.693 496.201 384.794 498.648 384.195C501.096 383.57 503.935 383.258 507.164 383.258H513.688ZM532.203 349H543.453V399.312L542.32 409H532.203V349ZM570.211 387.438V388.258C570.211 391.409 569.872 394.299 569.195 396.93C568.544 399.56 567.529 401.839 566.148 403.766C564.768 405.667 563.049 407.151 560.992 408.219C558.961 409.26 556.565 409.781 553.805 409.781C551.227 409.781 548.987 409.26 547.086 408.219C545.211 407.177 543.635 405.706 542.359 403.805C541.083 401.904 540.055 399.677 539.273 397.125C538.492 394.573 537.906 391.786 537.516 388.766V386.969C537.906 383.948 538.492 381.161 539.273 378.609C540.055 376.057 541.083 373.831 542.359 371.93C543.635 370.029 545.211 368.557 547.086 367.516C548.961 366.474 551.174 365.953 553.727 365.953C556.513 365.953 558.935 366.487 560.992 367.555C563.076 368.596 564.794 370.081 566.148 372.008C567.529 373.909 568.544 376.174 569.195 378.805C569.872 381.409 570.211 384.286 570.211 387.438ZM558.961 388.258V387.438C558.961 385.719 558.831 384.104 558.57 382.594C558.336 381.057 557.919 379.716 557.32 378.57C556.721 377.398 555.901 376.474 554.859 375.797C553.844 375.12 552.529 374.781 550.914 374.781C549.378 374.781 548.076 375.042 547.008 375.562C545.94 376.083 545.055 376.812 544.352 377.75C543.674 378.688 543.167 379.807 542.828 381.109C542.49 382.385 542.281 383.792 542.203 385.328V390.445C542.281 392.503 542.62 394.326 543.219 395.914C543.844 397.477 544.781 398.714 546.031 399.625C547.307 400.51 548.961 400.953 550.992 400.953C552.581 400.953 553.896 400.641 554.938 400.016C555.979 399.391 556.786 398.505 557.359 397.359C557.958 396.214 558.375 394.872 558.609 393.336C558.844 391.773 558.961 390.081 558.961 388.258ZM600.016 399.469V380.641C600.016 379.286 599.794 378.128 599.352 377.164C598.909 376.174 598.219 375.406 597.281 374.859C596.37 374.312 595.185 374.039 593.727 374.039C592.477 374.039 591.396 374.26 590.484 374.703C589.573 375.12 588.87 375.732 588.375 376.539C587.88 377.32 587.633 378.245 587.633 379.312H576.383C576.383 377.516 576.799 375.81 577.633 374.195C578.466 372.581 579.677 371.161 581.266 369.938C582.854 368.688 584.742 367.711 586.93 367.008C589.143 366.305 591.617 365.953 594.352 365.953C597.633 365.953 600.549 366.5 603.102 367.594C605.654 368.688 607.659 370.328 609.117 372.516C610.602 374.703 611.344 377.438 611.344 380.719V398.805C611.344 401.122 611.487 403.023 611.773 404.508C612.06 405.966 612.477 407.242 613.023 408.336V409H601.656C601.109 407.854 600.693 406.422 600.406 404.703C600.146 402.958 600.016 401.214 600.016 399.469ZM601.5 383.258L601.578 389.625H595.289C593.805 389.625 592.516 389.794 591.422 390.133C590.328 390.471 589.43 390.953 588.727 391.578C588.023 392.177 587.503 392.88 587.164 393.688C586.852 394.495 586.695 395.38 586.695 396.344C586.695 397.307 586.917 398.18 587.359 398.961C587.802 399.716 588.44 400.315 589.273 400.758C590.107 401.174 591.083 401.383 592.203 401.383C593.896 401.383 595.367 401.044 596.617 400.367C597.867 399.69 598.831 398.857 599.508 397.867C600.211 396.878 600.576 395.94 600.602 395.055L603.57 399.82C603.154 400.888 602.581 401.995 601.852 403.141C601.148 404.286 600.25 405.367 599.156 406.383C598.062 407.372 596.747 408.193 595.211 408.844C593.674 409.469 591.852 409.781 589.742 409.781C587.06 409.781 584.625 409.247 582.438 408.18C580.276 407.086 578.557 405.589 577.281 403.688C576.031 401.76 575.406 399.573 575.406 397.125C575.406 394.911 575.823 392.945 576.656 391.227C577.49 389.508 578.714 388.062 580.328 386.891C581.969 385.693 584.013 384.794 586.461 384.195C588.909 383.57 591.747 383.258 594.977 383.258H601.5ZM642.867 397.32C642.867 396.513 642.633 395.784 642.164 395.133C641.695 394.482 640.823 393.883 639.547 393.336C638.297 392.763 636.487 392.242 634.117 391.773C631.982 391.305 629.99 390.719 628.141 390.016C626.318 389.286 624.729 388.414 623.375 387.398C622.047 386.383 621.005 385.185 620.25 383.805C619.495 382.398 619.117 380.797 619.117 379C619.117 377.229 619.495 375.562 620.25 374C621.031 372.438 622.138 371.057 623.57 369.859C625.029 368.635 626.799 367.685 628.883 367.008C630.992 366.305 633.362 365.953 635.992 365.953C639.664 365.953 642.815 366.539 645.445 367.711C648.102 368.883 650.133 370.497 651.539 372.555C652.971 374.586 653.688 376.904 653.688 379.508H642.438C642.438 378.414 642.203 377.438 641.734 376.578C641.292 375.693 640.589 375.003 639.625 374.508C638.688 373.987 637.464 373.727 635.953 373.727C634.703 373.727 633.622 373.948 632.711 374.391C631.799 374.807 631.096 375.38 630.602 376.109C630.133 376.812 629.898 377.594 629.898 378.453C629.898 379.104 630.029 379.69 630.289 380.211C630.576 380.706 631.031 381.161 631.656 381.578C632.281 381.995 633.089 382.385 634.078 382.75C635.094 383.089 636.344 383.401 637.828 383.688C640.875 384.312 643.596 385.133 645.992 386.148C648.388 387.138 650.289 388.492 651.695 390.211C653.102 391.904 653.805 394.13 653.805 396.891C653.805 398.766 653.388 400.484 652.555 402.047C651.721 403.609 650.523 404.977 648.961 406.148C647.398 407.294 645.523 408.193 643.336 408.844C641.174 409.469 638.74 409.781 636.031 409.781C632.099 409.781 628.766 409.078 626.031 407.672C623.323 406.266 621.266 404.482 619.859 402.32C618.479 400.133 617.789 397.893 617.789 395.602H628.453C628.505 397.138 628.896 398.375 629.625 399.312C630.38 400.25 631.331 400.927 632.477 401.344C633.648 401.76 634.911 401.969 636.266 401.969C637.724 401.969 638.935 401.773 639.898 401.383C640.862 400.966 641.591 400.419 642.086 399.742C642.607 399.039 642.867 398.232 642.867 397.32ZM680.562 409.781C677.281 409.781 674.339 409.26 671.734 408.219C669.13 407.151 666.917 405.68 665.094 403.805C663.297 401.93 661.917 399.755 660.953 397.281C659.99 394.781 659.508 392.125 659.508 389.312V387.75C659.508 384.547 659.964 381.617 660.875 378.961C661.786 376.305 663.089 374 664.781 372.047C666.5 370.094 668.583 368.596 671.031 367.555C673.479 366.487 676.24 365.953 679.312 365.953C682.307 365.953 684.964 366.448 687.281 367.438C689.599 368.427 691.539 369.833 693.102 371.656C694.69 373.479 695.888 375.667 696.695 378.219C697.503 380.745 697.906 383.557 697.906 386.656V391.344H664.312V383.844H686.852V382.984C686.852 381.422 686.565 380.029 685.992 378.805C685.445 377.555 684.612 376.565 683.492 375.836C682.372 375.107 680.94 374.742 679.195 374.742C677.711 374.742 676.435 375.068 675.367 375.719C674.299 376.37 673.427 377.281 672.75 378.453C672.099 379.625 671.604 381.005 671.266 382.594C670.953 384.156 670.797 385.875 670.797 387.75V389.312C670.797 391.005 671.031 392.568 671.5 394C671.995 395.432 672.685 396.669 673.57 397.711C674.482 398.753 675.576 399.56 676.852 400.133C678.154 400.706 679.625 400.992 681.266 400.992C683.297 400.992 685.185 400.602 686.93 399.82C688.701 399.013 690.224 397.802 691.5 396.188L696.969 402.125C696.083 403.401 694.872 404.625 693.336 405.797C691.826 406.969 690.003 407.932 687.867 408.688C685.732 409.417 683.297 409.781 680.562 409.781Z" fill="white"/>
<path d="M373.523 618.727H359.031V609.586H373.523C375.763 609.586 377.586 609.221 378.992 608.492C380.398 607.737 381.427 606.695 382.078 605.367C382.729 604.039 383.055 602.542 383.055 600.875C383.055 599.182 382.729 597.607 382.078 596.148C381.427 594.69 380.398 593.518 378.992 592.633C377.586 591.747 375.763 591.305 373.523 591.305H363.094V639H351.375V582.125H373.523C377.977 582.125 381.792 582.932 384.969 584.547C388.172 586.135 390.62 588.336 392.312 591.148C394.005 593.961 394.852 597.177 394.852 600.797C394.852 604.469 394.005 607.646 392.312 610.328C390.62 613.01 388.172 615.081 384.969 616.539C381.792 617.997 377.977 618.727 373.523 618.727ZM413.484 605.953V639H402.234V596.734H412.82L413.484 605.953ZM426.219 596.461L426.023 606.891C425.477 606.812 424.812 606.747 424.031 606.695C423.276 606.617 422.586 606.578 421.961 606.578C420.372 606.578 418.992 606.786 417.82 607.203C416.674 607.594 415.711 608.18 414.93 608.961C414.174 609.742 413.602 610.693 413.211 611.812C412.846 612.932 412.638 614.208 412.586 615.641L410.32 614.938C410.32 612.203 410.594 609.69 411.141 607.398C411.688 605.081 412.482 603.062 413.523 601.344C414.591 599.625 415.893 598.297 417.43 597.359C418.966 596.422 420.724 595.953 422.703 595.953C423.328 595.953 423.966 596.005 424.617 596.109C425.268 596.188 425.802 596.305 426.219 596.461ZM428.562 618.297V617.477C428.562 614.378 429.005 611.526 429.891 608.922C430.776 606.292 432.065 604.013 433.758 602.086C435.451 600.159 437.534 598.661 440.008 597.594C442.482 596.5 445.32 595.953 448.523 595.953C451.727 595.953 454.578 596.5 457.078 597.594C459.578 598.661 461.674 600.159 463.367 602.086C465.086 604.013 466.388 606.292 467.273 608.922C468.159 611.526 468.602 614.378 468.602 617.477V618.297C468.602 621.37 468.159 624.221 467.273 626.852C466.388 629.456 465.086 631.734 463.367 633.688C461.674 635.615 459.591 637.112 457.117 638.18C454.643 639.247 451.805 639.781 448.602 639.781C445.398 639.781 442.547 639.247 440.047 638.18C437.573 637.112 435.477 635.615 433.758 633.688C432.065 631.734 430.776 629.456 429.891 626.852C429.005 624.221 428.562 621.37 428.562 618.297ZM439.812 617.477V618.297C439.812 620.068 439.969 621.721 440.281 623.258C440.594 624.794 441.089 626.148 441.766 627.32C442.469 628.466 443.38 629.365 444.5 630.016C445.62 630.667 446.987 630.992 448.602 630.992C450.164 630.992 451.505 630.667 452.625 630.016C453.745 629.365 454.643 628.466 455.32 627.32C455.997 626.148 456.492 624.794 456.805 623.258C457.143 621.721 457.312 620.068 457.312 618.297V617.477C457.312 615.758 457.143 614.143 456.805 612.633C456.492 611.096 455.984 609.742 455.281 608.57C454.604 607.372 453.706 606.435 452.586 605.758C451.466 605.081 450.112 604.742 448.523 604.742C446.935 604.742 445.581 605.081 444.461 605.758C443.367 606.435 442.469 607.372 441.766 608.57C441.089 609.742 440.594 611.096 440.281 612.633C439.969 614.143 439.812 615.758 439.812 617.477ZM492.977 630.992C494.357 630.992 495.581 630.732 496.648 630.211C497.716 629.664 498.549 628.909 499.148 627.945C499.773 626.956 500.099 625.797 500.125 624.469H510.711C510.685 627.438 509.891 630.081 508.328 632.398C506.766 634.69 504.669 636.5 502.039 637.828C499.409 639.13 496.466 639.781 493.211 639.781C489.93 639.781 487.065 639.234 484.617 638.141C482.195 637.047 480.177 635.536 478.562 633.609C476.948 631.656 475.737 629.391 474.93 626.812C474.122 624.208 473.719 621.422 473.719 618.453V617.32C473.719 614.326 474.122 611.539 474.93 608.961C475.737 606.357 476.948 604.091 478.562 602.164C480.177 600.211 482.195 598.688 484.617 597.594C487.039 596.5 489.878 595.953 493.133 595.953C496.596 595.953 499.63 596.617 502.234 597.945C504.865 599.273 506.922 601.174 508.406 603.648C509.917 606.096 510.685 609 510.711 612.359H500.125C500.099 610.953 499.799 609.677 499.227 608.531C498.68 607.385 497.872 606.474 496.805 605.797C495.763 605.094 494.474 604.742 492.938 604.742C491.297 604.742 489.956 605.094 488.914 605.797C487.872 606.474 487.065 607.411 486.492 608.609C485.919 609.781 485.516 611.122 485.281 612.633C485.073 614.117 484.969 615.68 484.969 617.32V618.453C484.969 620.094 485.073 621.669 485.281 623.18C485.49 624.69 485.88 626.031 486.453 627.203C487.052 628.375 487.872 629.299 488.914 629.977C489.956 630.654 491.31 630.992 492.977 630.992ZM536.688 639.781C533.406 639.781 530.464 639.26 527.859 638.219C525.255 637.151 523.042 635.68 521.219 633.805C519.422 631.93 518.042 629.755 517.078 627.281C516.115 624.781 515.633 622.125 515.633 619.312V617.75C515.633 614.547 516.089 611.617 517 608.961C517.911 606.305 519.214 604 520.906 602.047C522.625 600.094 524.708 598.596 527.156 597.555C529.604 596.487 532.365 595.953 535.438 595.953C538.432 595.953 541.089 596.448 543.406 597.438C545.724 598.427 547.664 599.833 549.227 601.656C550.815 603.479 552.013 605.667 552.82 608.219C553.628 610.745 554.031 613.557 554.031 616.656V621.344H520.438V613.844H542.977V612.984C542.977 611.422 542.69 610.029 542.117 608.805C541.57 607.555 540.737 606.565 539.617 605.836C538.497 605.107 537.065 604.742 535.32 604.742C533.836 604.742 532.56 605.068 531.492 605.719C530.424 606.37 529.552 607.281 528.875 608.453C528.224 609.625 527.729 611.005 527.391 612.594C527.078 614.156 526.922 615.875 526.922 617.75V619.312C526.922 621.005 527.156 622.568 527.625 624C528.12 625.432 528.81 626.669 529.695 627.711C530.607 628.753 531.701 629.56 532.977 630.133C534.279 630.706 535.75 630.992 537.391 630.992C539.422 630.992 541.31 630.602 543.055 629.82C544.826 629.013 546.349 627.802 547.625 626.188L553.094 632.125C552.208 633.401 550.997 634.625 549.461 635.797C547.951 636.969 546.128 637.932 543.992 638.688C541.857 639.417 539.422 639.781 536.688 639.781ZM583.289 627.32C583.289 626.513 583.055 625.784 582.586 625.133C582.117 624.482 581.245 623.883 579.969 623.336C578.719 622.763 576.909 622.242 574.539 621.773C572.404 621.305 570.411 620.719 568.562 620.016C566.74 619.286 565.151 618.414 563.797 617.398C562.469 616.383 561.427 615.185 560.672 613.805C559.917 612.398 559.539 610.797 559.539 609C559.539 607.229 559.917 605.562 560.672 604C561.453 602.438 562.56 601.057 563.992 599.859C565.451 598.635 567.221 597.685 569.305 597.008C571.414 596.305 573.784 595.953 576.414 595.953C580.086 595.953 583.237 596.539 585.867 597.711C588.523 598.883 590.555 600.497 591.961 602.555C593.393 604.586 594.109 606.904 594.109 609.508H582.859C582.859 608.414 582.625 607.438 582.156 606.578C581.714 605.693 581.01 605.003 580.047 604.508C579.109 603.987 577.885 603.727 576.375 603.727C575.125 603.727 574.044 603.948 573.133 604.391C572.221 604.807 571.518 605.38 571.023 606.109C570.555 606.812 570.32 607.594 570.32 608.453C570.32 609.104 570.451 609.69 570.711 610.211C570.997 610.706 571.453 611.161 572.078 611.578C572.703 611.995 573.51 612.385 574.5 612.75C575.516 613.089 576.766 613.401 578.25 613.688C581.297 614.312 584.018 615.133 586.414 616.148C588.81 617.138 590.711 618.492 592.117 620.211C593.523 621.904 594.227 624.13 594.227 626.891C594.227 628.766 593.81 630.484 592.977 632.047C592.143 633.609 590.945 634.977 589.383 636.148C587.82 637.294 585.945 638.193 583.758 638.844C581.596 639.469 579.161 639.781 576.453 639.781C572.521 639.781 569.188 639.078 566.453 637.672C563.745 636.266 561.688 634.482 560.281 632.32C558.901 630.133 558.211 627.893 558.211 625.602H568.875C568.927 627.138 569.318 628.375 570.047 629.312C570.802 630.25 571.753 630.927 572.898 631.344C574.07 631.76 575.333 631.969 576.688 631.969C578.146 631.969 579.357 631.773 580.32 631.383C581.284 630.966 582.013 630.419 582.508 629.742C583.029 629.039 583.289 628.232 583.289 627.32ZM624.383 627.32C624.383 626.513 624.148 625.784 623.68 625.133C623.211 624.482 622.339 623.883 621.062 623.336C619.812 622.763 618.003 622.242 615.633 621.773C613.497 621.305 611.505 620.719 609.656 620.016C607.833 619.286 606.245 618.414 604.891 617.398C603.562 616.383 602.521 615.185 601.766 613.805C601.01 612.398 600.633 610.797 600.633 609C600.633 607.229 601.01 605.562 601.766 604C602.547 602.438 603.654 601.057 605.086 599.859C606.544 598.635 608.315 597.685 610.398 597.008C612.508 596.305 614.878 595.953 617.508 595.953C621.18 595.953 624.331 596.539 626.961 597.711C629.617 598.883 631.648 600.497 633.055 602.555C634.487 604.586 635.203 606.904 635.203 609.508H623.953C623.953 608.414 623.719 607.438 623.25 606.578C622.807 605.693 622.104 605.003 621.141 604.508C620.203 603.987 618.979 603.727 617.469 603.727C616.219 603.727 615.138 603.948 614.227 604.391C613.315 604.807 612.612 605.38 612.117 606.109C611.648 606.812 611.414 607.594 611.414 608.453C611.414 609.104 611.544 609.69 611.805 610.211C612.091 610.706 612.547 611.161 613.172 611.578C613.797 611.995 614.604 612.385 615.594 612.75C616.609 613.089 617.859 613.401 619.344 613.688C622.391 614.312 625.112 615.133 627.508 616.148C629.904 617.138 631.805 618.492 633.211 620.211C634.617 621.904 635.32 624.13 635.32 626.891C635.32 628.766 634.904 630.484 634.07 632.047C633.237 633.609 632.039 634.977 630.477 636.148C628.914 637.294 627.039 638.193 624.852 638.844C622.69 639.469 620.255 639.781 617.547 639.781C613.615 639.781 610.281 639.078 607.547 637.672C604.839 636.266 602.781 634.482 601.375 632.32C599.995 630.133 599.305 627.893 599.305 625.602H609.969C610.021 627.138 610.411 628.375 611.141 629.312C611.896 630.25 612.846 630.927 613.992 631.344C615.164 631.76 616.427 631.969 617.781 631.969C619.24 631.969 620.451 631.773 621.414 631.383C622.378 630.966 623.107 630.419 623.602 629.742C624.122 629.039 624.383 628.232 624.383 627.32ZM640.828 618.297V617.477C640.828 614.378 641.271 611.526 642.156 608.922C643.042 606.292 644.331 604.013 646.023 602.086C647.716 600.159 649.799 598.661 652.273 597.594C654.747 596.5 657.586 595.953 660.789 595.953C663.992 595.953 666.844 596.5 669.344 597.594C671.844 598.661 673.94 600.159 675.633 602.086C677.352 604.013 678.654 606.292 679.539 608.922C680.424 611.526 680.867 614.378 680.867 617.477V618.297C680.867 621.37 680.424 624.221 679.539 626.852C678.654 629.456 677.352 631.734 675.633 633.688C673.94 635.615 671.857 637.112 669.383 638.18C666.909 639.247 664.07 639.781 660.867 639.781C657.664 639.781 654.812 639.247 652.312 638.18C649.839 637.112 647.742 635.615 646.023 633.688C644.331 631.734 643.042 629.456 642.156 626.852C641.271 624.221 640.828 621.37 640.828 618.297ZM652.078 617.477V618.297C652.078 620.068 652.234 621.721 652.547 623.258C652.859 624.794 653.354 626.148 654.031 627.32C654.734 628.466 655.646 629.365 656.766 630.016C657.885 630.667 659.253 630.992 660.867 630.992C662.43 630.992 663.771 630.667 664.891 630.016C666.01 629.365 666.909 628.466 667.586 627.32C668.263 626.148 668.758 624.794 669.07 623.258C669.409 621.721 669.578 620.068 669.578 618.297V617.477C669.578 615.758 669.409 614.143 669.07 612.633C668.758 611.096 668.25 609.742 667.547 608.57C666.87 607.372 665.971 606.435 664.852 605.758C663.732 605.081 662.378 604.742 660.789 604.742C659.201 604.742 657.846 605.081 656.727 605.758C655.633 606.435 654.734 607.372 654.031 608.57C653.354 609.742 652.859 611.096 652.547 612.633C652.234 614.143 652.078 615.758 652.078 617.477ZM699.031 605.953V639H687.781V596.734H698.367L699.031 605.953ZM711.766 596.461L711.57 606.891C711.023 606.812 710.359 606.747 709.578 606.695C708.823 606.617 708.133 606.578 707.508 606.578C705.919 606.578 704.539 606.786 703.367 607.203C702.221 607.594 701.258 608.18 700.477 608.961C699.721 609.742 699.148 610.693 698.758 611.812C698.393 612.932 698.185 614.208 698.133 615.641L695.867 614.938C695.867 612.203 696.141 609.69 696.688 607.398C697.234 605.081 698.029 603.062 699.07 601.344C700.138 599.625 701.44 598.297 702.977 597.359C704.513 596.422 706.271 595.953 708.25 595.953C708.875 595.953 709.513 596.005 710.164 596.109C710.815 596.188 711.349 596.305 711.766 596.461Z" fill="white"/>
</svg>
