<svg width="1042" height="596" viewBox="0 0 1042 596" fill="none" xmlns="http://www.w3.org/2000/svg">
<rect width="1042" height="596" />
<rect x="337.648" y="149.057" width="129.056" height="341.503" transform="rotate(-90 337.648 149.057)" fill="#2FA4DA"/>
<path d="M468.498 61.5127L449.382 116.972H437.824L461.906 52.9873H469.289L468.498 61.5127ZM484.494 116.972L465.334 61.5127L464.499 52.9873L471.925 52.9873L496.095 116.972H484.494ZM483.571 93.2412L483.571 101.986L448.766 101.986L448.766 93.2412L483.571 93.2412ZM527.56 93.1094H510.905L510.905 84.3643L527.56 84.3643C530.461 84.3643 532.804 83.8955 534.591 82.958C536.379 82.0205 537.682 80.7314 538.503 79.0908C539.352 77.4209 539.777 75.5166 539.777 73.3779C539.777 71.3564 539.352 69.4668 538.503 67.709C537.682 65.9219 536.379 64.4863 534.591 63.4023C532.804 62.3184 530.461 61.7764 527.56 61.7764L514.289 61.7764L514.289 116.972H503.258L503.258 52.9873L527.56 52.9873C532.511 52.9873 536.716 53.8662 540.173 55.624C543.659 57.3525 546.31 59.7549 548.127 62.8311C549.943 65.8779 550.851 69.3643 550.851 73.29C550.851 77.4209 549.943 80.9658 548.127 83.9248C546.31 86.8838 543.659 89.1543 540.173 90.7363C536.716 92.3184 532.511 93.1094 527.56 93.1094ZM572.516 52.9873L572.516 116.972H561.486L561.486 52.9873H572.516Z" fill="white"/>
<rect x="337.648" y="575.937" width="129.056" height="341.503" transform="rotate(-90 337.648 575.937)" fill="#2FA4DA"/>
<path d="M429.694 479.867L429.694 543.852H418.664L418.664 479.867H429.694ZM455.798 507.86L455.798 516.605H426.882L426.882 507.86H455.798ZM459.445 479.867L459.445 488.656H426.882L426.882 479.867L459.445 479.867ZM478.517 476.352L478.517 543.852H467.882L467.882 476.352H478.517ZM501.457 496.303L501.457 543.852H490.822L490.822 496.303H501.457ZM490.119 483.822C490.119 482.211 490.646 480.878 491.701 479.823C492.785 478.739 494.279 478.197 496.183 478.197C498.058 478.197 499.538 478.739 500.622 479.823C501.706 480.878 502.248 482.211 502.248 483.822C502.248 485.404 501.706 486.723 500.622 487.777C499.538 488.832 498.058 489.359 496.183 489.359C494.279 489.359 492.785 488.832 491.701 487.777C490.646 486.723 490.119 485.404 490.119 483.822ZM523.561 506.454L523.561 543.852H512.97L512.97 496.303H522.946L523.561 506.454ZM521.672 518.319L518.244 518.275C518.273 514.906 518.742 511.815 519.65 509.003C520.588 506.19 521.877 503.773 523.517 501.752C525.187 499.73 527.179 498.178 529.494 497.094C531.808 495.98 534.386 495.424 537.228 495.424C539.513 495.424 541.579 495.746 543.424 496.391C545.299 497.006 546.896 498.017 548.215 499.423C549.562 500.829 550.588 502.66 551.291 504.916C551.994 507.143 552.345 509.882 552.345 513.134L552.345 543.852H541.711L541.711 513.09C541.711 510.805 541.374 509.003 540.7 507.685C540.055 506.337 539.103 505.385 537.843 504.828C536.613 504.242 535.075 503.949 533.229 503.949C531.413 503.949 529.787 504.33 528.351 505.092C526.916 505.854 525.7 506.894 524.704 508.212C523.737 509.53 522.99 511.054 522.463 512.782C521.935 514.511 521.672 516.356 521.672 518.319ZM573.835 476.352L573.835 543.852H563.2L563.2 476.352H573.835ZM603.366 496.303L582.668 519.242L571.33 530.844L568.561 521.879L577.131 511.288L590.578 496.303H603.366ZM592.863 543.852L577.438 521.527L584.118 514.101L605.124 543.852H592.863Z" fill="white"/>
<rect x="544.139" y="365.477" width="129.056" height="478.502" transform="rotate(-90 544.139 365.477)" fill="#2FA4DA"/>
<path d="M618.726 333.391H605.059L605.147 324.646H618.726C622.682 324.646 625.992 323.781 628.658 322.053C631.353 320.324 633.375 317.849 634.723 314.626C636.099 311.403 636.788 307.565 636.788 303.112L636.788 299.641C636.788 296.184 636.392 293.122 635.601 290.456C634.84 287.79 633.697 285.549 632.174 283.732C630.68 281.916 628.834 280.539 626.637 279.602C624.469 278.664 621.964 278.195 619.122 278.195H604.796L604.796 269.406H619.122C623.37 269.406 627.252 270.124 630.767 271.56C634.283 272.966 637.315 275.002 639.864 277.668C642.442 280.334 644.42 283.527 645.797 287.248C647.174 290.969 647.862 295.129 647.862 299.729L647.862 303.112C647.862 307.712 647.174 311.872 645.797 315.593C644.42 319.313 642.442 322.507 639.864 325.173C637.286 327.81 634.21 329.846 630.636 331.281C627.091 332.688 623.121 333.391 618.726 333.391ZM611.168 269.406L611.168 333.391H600.138L600.138 269.406H611.168ZM684.688 323.854L684.688 301.179C684.688 299.479 684.381 298.015 683.766 296.784C683.15 295.554 682.213 294.602 680.953 293.928C679.723 293.254 678.17 292.917 676.295 292.917C674.566 292.917 673.072 293.21 671.812 293.796C670.553 294.382 669.571 295.173 668.868 296.169C668.165 297.165 667.813 298.293 667.813 299.553H657.266C657.266 297.678 657.721 295.861 658.629 294.104C659.537 292.346 660.855 290.778 662.584 289.401C664.312 288.024 666.378 286.94 668.78 286.149C671.182 285.358 673.878 284.963 676.866 284.963C680.44 284.963 683.604 285.563 686.358 286.765C689.141 287.966 691.324 289.782 692.906 292.214C694.517 294.616 695.323 297.634 695.323 301.267L695.323 322.404C695.323 324.572 695.47 326.521 695.763 328.249C696.085 329.948 696.539 331.428 697.125 332.688L697.125 333.391H686.27C685.772 332.248 685.377 330.798 685.084 329.04C684.82 327.253 684.688 325.524 684.688 323.854ZM686.226 304.475L686.314 311.022L678.712 311.022C676.749 311.022 675.02 311.213 673.526 311.594C672.032 311.945 670.787 312.473 669.791 313.176C668.795 313.879 668.048 314.729 667.55 315.725C667.052 316.721 666.803 317.849 666.803 319.108C666.803 320.368 667.096 321.525 667.682 322.58C668.267 323.605 669.117 324.411 670.23 324.997C671.373 325.583 672.75 325.876 674.361 325.876C676.529 325.876 678.419 325.437 680.03 324.558C681.671 323.649 682.96 322.551 683.897 321.262C684.835 319.943 685.333 318.698 685.391 317.526L688.819 322.229C688.468 323.43 687.867 324.719 687.017 326.096C686.168 327.473 685.055 328.791 683.678 330.051C682.33 331.281 680.704 332.292 678.8 333.083C676.925 333.874 674.757 334.27 672.296 334.27C669.19 334.27 666.422 333.654 663.99 332.424C661.558 331.164 659.654 329.479 658.277 327.37C656.9 325.231 656.212 322.814 656.212 320.119C656.212 317.6 656.681 315.373 657.618 313.439C658.585 311.477 659.991 309.836 661.837 308.518C663.712 307.199 665.997 306.203 668.692 305.529C671.388 304.826 674.464 304.475 677.921 304.475L686.226 304.475ZM728.194 285.842L728.194 293.576H701.388L701.388 285.842H728.194ZM709.122 274.196H719.713L719.713 320.251C719.713 321.716 719.918 322.844 720.328 323.635C720.767 324.396 721.368 324.909 722.13 325.173C722.891 325.437 723.785 325.568 724.81 325.568C725.543 325.568 726.246 325.524 726.92 325.437C727.594 325.349 728.136 325.261 728.546 325.173L728.59 333.259C727.711 333.522 726.685 333.757 725.514 333.962C724.371 334.167 723.053 334.27 721.558 334.27C719.127 334.27 716.974 333.845 715.099 332.995C713.224 332.116 711.759 330.695 710.704 328.732C709.649 326.77 709.122 324.162 709.122 320.91L709.122 274.196ZM763.175 323.854L763.175 301.179C763.175 299.479 762.867 298.015 762.252 296.784C761.637 295.554 760.699 294.602 759.439 293.928C758.209 293.254 756.656 292.917 754.781 292.917C753.053 292.917 751.558 293.21 750.299 293.796C749.039 294.382 748.057 295.173 747.354 296.169C746.651 297.165 746.3 298.293 746.3 299.553H735.753C735.753 297.678 736.207 295.861 737.115 294.104C738.023 292.346 739.342 290.778 741.07 289.401C742.799 288.024 744.864 286.94 747.266 286.149C749.669 285.358 752.364 284.963 755.352 284.963C758.927 284.963 762.091 285.563 764.845 286.765C767.628 287.966 769.81 289.782 771.392 292.214C773.004 294.616 773.809 297.634 773.809 301.267L773.809 322.404C773.809 324.572 773.956 326.521 774.249 328.249C774.571 329.948 775.025 331.428 775.611 332.688L775.611 333.391H764.757C764.259 332.248 763.863 330.798 763.57 329.04C763.307 327.253 763.175 325.524 763.175 323.854ZM764.713 304.475L764.801 311.022H757.198C755.235 311.022 753.507 311.213 752.013 311.594C750.518 311.945 749.273 312.473 748.277 313.176C747.281 313.879 746.534 314.729 746.036 315.725C745.538 316.721 745.289 317.849 745.289 319.108C745.289 320.368 745.582 321.525 746.168 322.58C746.754 323.605 747.603 324.411 748.717 324.997C749.859 325.583 751.236 325.876 752.848 325.876C755.016 325.876 756.905 325.437 758.516 324.558C760.157 323.649 761.446 322.551 762.384 321.262C763.321 319.943 763.819 318.698 763.878 317.526L767.306 322.229C766.954 323.43 766.353 324.719 765.504 326.096C764.654 327.473 763.541 328.791 762.164 330.051C760.816 331.281 759.19 332.292 757.286 333.083C755.411 333.874 753.243 334.27 750.782 334.27C747.677 334.27 744.908 333.654 742.476 332.424C740.045 331.164 738.141 329.479 736.764 327.37C735.387 325.231 734.698 322.814 734.698 320.119C734.698 317.6 735.167 315.373 736.104 313.439C737.071 311.477 738.477 309.836 740.323 308.518C742.198 307.199 744.483 306.203 747.179 305.529C749.874 304.826 752.95 304.475 756.407 304.475H764.713ZM784.928 265.891H795.518L795.518 323.239L794.508 333.391H784.928L784.928 265.891ZM826.544 309.177L826.544 310.1C826.544 313.615 826.148 316.853 825.357 319.812C824.596 322.741 823.424 325.29 821.842 327.458C820.289 329.626 818.355 331.311 816.041 332.512C813.756 333.684 811.104 334.27 808.087 334.27C805.128 334.27 802.55 333.713 800.352 332.6C798.155 331.486 796.309 329.904 794.815 327.854C793.35 325.803 792.164 323.356 791.256 320.515C790.348 317.673 789.703 314.538 789.322 311.11L789.322 308.166C789.703 304.709 790.348 301.574 791.256 298.762C792.164 295.92 793.35 293.474 794.815 291.423C796.309 289.343 798.141 287.746 800.308 286.633C802.506 285.52 805.069 284.963 807.999 284.963C811.046 284.963 813.726 285.549 816.041 286.721C818.385 287.893 820.333 289.563 821.886 291.73C823.438 293.869 824.596 296.418 825.357 299.377C826.148 302.336 826.544 305.603 826.544 309.177ZM815.953 310.1L815.953 309.177C815.953 307.038 815.777 305.031 815.426 303.156C815.074 301.252 814.488 299.582 813.668 298.146C812.877 296.711 811.793 295.583 810.416 294.763C809.068 293.913 807.384 293.488 805.362 293.488C803.487 293.488 801.876 293.811 800.528 294.455C799.181 295.1 798.053 295.979 797.144 297.092C796.236 298.205 795.518 299.494 794.991 300.959C794.493 302.424 794.156 304.006 793.98 305.705L793.98 313.659C794.244 315.856 794.801 317.878 795.65 319.724C796.529 321.54 797.76 323.005 799.342 324.118C800.924 325.202 802.96 325.744 805.45 325.744C807.413 325.744 809.068 325.349 810.416 324.558C811.764 323.767 812.833 322.668 813.624 321.262C814.444 319.826 815.03 318.156 815.382 316.252C815.763 314.348 815.953 312.297 815.953 310.1ZM862.315 323.854L862.315 301.179C862.315 299.479 862.008 298.015 861.392 296.784C860.777 295.554 859.84 294.602 858.58 293.928C857.349 293.254 855.797 292.917 853.922 292.917C852.193 292.917 850.699 293.21 849.439 293.796C848.18 294.382 847.198 295.173 846.495 296.169C845.792 297.165 845.44 298.293 845.44 299.553H834.893C834.893 297.678 835.348 295.861 836.256 294.104C837.164 292.346 838.482 290.778 840.211 289.401C841.939 288.024 844.005 286.94 846.407 286.149C848.809 285.358 851.505 284.963 854.493 284.963C858.067 284.963 861.231 285.563 863.985 286.765C866.768 287.966 868.951 289.782 870.533 292.214C872.144 294.616 872.95 297.634 872.95 301.267L872.95 322.404C872.95 324.572 873.097 326.521 873.39 328.249C873.712 329.948 874.166 331.428 874.752 332.688L874.752 333.391H863.897C863.399 332.248 863.004 330.798 862.711 329.04C862.447 327.253 862.315 325.524 862.315 323.854ZM863.853 304.475L863.941 311.022H856.339C854.376 311.022 852.647 311.213 851.153 311.594C849.659 311.945 848.414 312.473 847.418 313.176C846.422 313.879 845.675 314.729 845.177 315.725C844.679 316.721 844.43 317.849 844.43 319.108C844.43 320.368 844.723 321.525 845.308 322.58C845.894 323.605 846.744 324.411 847.857 324.997C849 325.583 850.377 325.876 851.988 325.876C854.156 325.876 856.046 325.437 857.657 324.558C859.298 323.649 860.587 322.551 861.524 321.262C862.462 319.943 862.96 318.698 863.018 317.526L866.446 322.229C866.095 323.43 865.494 324.719 864.644 326.096C863.795 327.473 862.682 328.791 861.305 330.051C859.957 331.281 858.331 332.292 856.427 333.083C854.552 333.874 852.384 334.27 849.923 334.27C846.817 334.27 844.049 333.654 841.617 332.424C839.185 331.164 837.281 329.479 835.904 327.37C834.527 325.231 833.839 322.814 833.839 320.119C833.839 317.6 834.307 315.373 835.245 313.439C836.212 311.477 837.618 309.836 839.464 308.518C841.339 307.199 843.624 306.203 846.319 305.529C849.015 304.826 852.091 304.475 855.548 304.475H863.853ZM910.699 320.515C910.699 319.46 910.435 318.508 909.908 317.658C909.381 316.779 908.37 315.988 906.876 315.285C905.411 314.582 903.243 313.938 900.372 313.352C897.852 312.795 895.538 312.136 893.429 311.374C891.349 310.583 889.561 309.631 888.067 308.518C886.573 307.404 885.416 306.086 884.596 304.563C883.775 303.039 883.365 301.281 883.365 299.289C883.365 297.355 883.79 295.524 884.64 293.796C885.489 292.067 886.705 290.544 888.287 289.226C889.869 287.907 891.788 286.867 894.044 286.105C896.329 285.344 898.878 284.963 901.69 284.963C905.675 284.963 909.088 285.637 911.93 286.984C914.801 288.303 916.998 290.104 918.521 292.39C920.045 294.646 920.807 297.194 920.807 300.036H910.216C910.216 298.776 909.893 297.604 909.249 296.521C908.634 295.407 907.696 294.514 906.436 293.84C905.177 293.137 903.595 292.785 901.69 292.785C899.874 292.785 898.365 293.078 897.164 293.664C895.992 294.221 895.113 294.953 894.527 295.861C893.971 296.77 893.692 297.766 893.692 298.85C893.692 299.641 893.839 300.358 894.132 301.003C894.454 301.618 894.981 302.189 895.714 302.717C896.446 303.215 897.442 303.684 898.702 304.123C899.991 304.563 901.602 304.987 903.536 305.397C907.169 306.159 910.289 307.141 912.896 308.342C915.533 309.514 917.555 311.037 918.961 312.912C920.367 314.758 921.07 317.102 921.07 319.943C921.07 322.053 920.616 323.986 919.708 325.744C918.829 327.473 917.54 328.981 915.841 330.271C914.141 331.53 912.105 332.512 909.732 333.215C907.389 333.918 904.752 334.27 901.822 334.27C897.516 334.27 893.868 333.508 890.88 331.984C887.891 330.432 885.621 328.454 884.068 326.052C882.545 323.62 881.783 321.101 881.783 318.493H892.022C892.14 320.456 892.682 322.023 893.648 323.195C894.644 324.338 895.875 325.173 897.34 325.7C898.834 326.198 900.372 326.447 901.954 326.447C903.858 326.447 905.455 326.198 906.744 325.7C908.033 325.173 909.015 324.47 909.688 323.591C910.362 322.683 910.699 321.657 910.699 320.515ZM951.305 334.27C947.789 334.27 944.61 333.698 941.768 332.556C938.956 331.384 936.554 329.758 934.561 327.678C932.599 325.598 931.09 323.151 930.035 320.339C928.98 317.526 928.453 314.494 928.453 311.242L928.453 309.484C928.453 305.764 928.995 302.395 930.079 299.377C931.163 296.359 932.672 293.781 934.605 291.643C936.539 289.475 938.824 287.819 941.461 286.677C944.098 285.534 946.954 284.963 950.03 284.963C953.429 284.963 956.402 285.534 958.951 286.677C961.5 287.819 963.609 289.431 965.279 291.511C966.978 293.562 968.238 296.008 969.058 298.85C969.908 301.691 970.333 304.826 970.333 308.254L970.333 312.78H933.595L933.595 305.178H959.874L959.874 304.343C959.815 302.438 959.434 300.651 958.731 298.981C958.057 297.312 957.017 295.964 955.611 294.938C954.205 293.913 952.33 293.4 949.986 293.4C948.228 293.4 946.661 293.781 945.284 294.543C943.936 295.275 942.808 296.345 941.9 297.751C940.992 299.157 940.289 300.856 939.791 302.849C939.322 304.812 939.088 307.023 939.088 309.484L939.088 311.242C939.088 313.322 939.366 315.256 939.923 317.043C940.509 318.801 941.358 320.339 942.472 321.657C943.585 322.976 944.932 324.016 946.515 324.777C948.097 325.51 949.898 325.876 951.92 325.876C954.469 325.876 956.739 325.363 958.731 324.338C960.724 323.313 962.452 321.862 963.917 319.987L969.498 325.393C968.473 326.887 967.14 328.322 965.499 329.699C963.858 331.047 961.851 332.146 959.478 332.995C957.135 333.845 954.41 334.27 951.305 334.27Z" fill="white"/>
<rect x="16" y="365.477" width="129.056" height="361.358" transform="rotate(-90 16 365.477)" fill="#2FA4DA"/>
<path d="M97.89 269.406L97.89 333.391H86.8597L86.8597 269.406H97.89ZM136.342 269.406L110.414 300.212L95.6488 315.856L93.7152 304.914L104.262 291.906L122.895 269.406L136.342 269.406ZM124.477 333.391L103.427 303.068L111.03 295.554L137.573 333.391H124.477ZM169.477 323.854L169.477 301.179C169.477 299.479 169.169 298.015 168.554 296.784C167.939 295.554 167.001 294.602 165.742 293.928C164.511 293.254 162.958 292.917 161.083 292.917C159.355 292.917 157.861 293.21 156.601 293.796C155.341 294.382 154.36 295.173 153.657 296.169C152.953 297.165 152.602 298.293 152.602 299.553H142.055C142.055 297.678 142.509 295.861 143.417 294.104C144.326 292.346 145.644 290.778 147.372 289.401C149.101 288.024 151.166 286.94 153.569 286.149C155.971 285.358 158.666 284.963 161.655 284.963C165.229 284.963 168.393 285.563 171.147 286.765C173.93 287.966 176.113 289.782 177.695 292.214C179.306 294.616 180.112 297.634 180.112 301.267L180.112 322.404C180.112 324.572 180.258 326.521 180.551 328.249C180.873 329.948 181.328 331.428 181.913 332.688L181.913 333.391H171.059C170.561 332.248 170.165 330.798 169.872 329.04C169.609 327.253 169.477 325.524 169.477 323.854ZM171.015 304.475L171.103 311.022H163.5C161.537 311.022 159.809 311.213 158.315 311.594C156.821 311.945 155.576 312.473 154.579 313.176C153.583 313.879 152.836 314.729 152.338 315.725C151.84 316.721 151.591 317.849 151.591 319.108C151.591 320.368 151.884 321.525 152.47 322.58C153.056 323.605 153.906 324.411 155.019 324.997C156.161 325.583 157.538 325.876 159.15 325.876C161.318 325.876 163.207 325.437 164.819 324.558C166.459 323.649 167.748 322.551 168.686 321.262C169.623 319.943 170.121 318.698 170.18 317.526L173.608 322.229C173.256 323.43 172.656 324.719 171.806 326.096C170.956 327.473 169.843 328.791 168.466 330.051C167.119 331.281 165.493 332.292 163.588 333.083C161.713 333.874 159.545 334.27 157.084 334.27C153.979 334.27 151.21 333.654 148.779 332.424C146.347 331.164 144.443 329.479 143.066 327.37C141.689 325.231 141 322.814 141 320.119C141 317.6 141.469 315.373 142.407 313.439C143.373 311.477 144.78 309.836 146.625 308.518C148.5 307.199 150.786 306.203 153.481 305.529C156.176 304.826 159.252 304.475 162.709 304.475H171.015ZM205.512 333.391H194.921L194.921 281.271C194.921 277.727 195.58 274.753 196.899 272.351C198.246 269.919 200.165 268.088 202.656 266.857C205.146 265.598 208.09 264.968 211.489 264.968C212.543 264.968 213.583 265.041 214.609 265.188C215.634 265.305 216.63 265.495 217.597 265.759L217.333 273.933C216.747 273.786 216.103 273.684 215.4 273.625C214.726 273.566 213.994 273.537 213.203 273.537C211.591 273.537 210.2 273.845 209.028 274.46C207.885 275.046 207.006 275.91 206.391 277.053C205.805 278.195 205.512 279.602 205.512 281.271L205.512 333.391ZM215.312 285.842L215.312 293.576H187.626L187.626 285.842H215.312ZM233.681 265.891L233.681 333.391H223.046L223.046 265.891H233.681ZM263.212 285.842L242.514 308.781L231.176 320.383L228.408 311.418L236.977 300.827L250.424 285.842H263.212ZM252.709 333.391L237.285 311.066L243.964 303.64L264.97 333.391H252.709ZM296.743 323.854L296.743 301.179C296.743 299.479 296.435 298.015 295.82 296.784C295.204 295.554 294.267 294.602 293.007 293.928C291.777 293.254 290.224 292.917 288.349 292.917C286.62 292.917 285.126 293.21 283.867 293.796C282.607 294.382 281.625 295.173 280.922 296.169C280.219 297.165 279.868 298.293 279.868 299.553H269.321C269.321 297.678 269.775 295.861 270.683 294.104C271.591 292.346 272.91 290.778 274.638 289.401C276.367 288.024 278.432 286.94 280.834 286.149C283.237 285.358 285.932 284.963 288.92 284.963C292.494 284.963 295.659 285.563 298.412 286.765C301.196 287.966 303.378 289.782 304.96 292.214C306.572 294.616 307.377 297.634 307.377 301.267L307.377 322.404C307.377 324.572 307.524 326.521 307.817 328.249C308.139 329.948 308.593 331.428 309.179 332.688L309.179 333.391H298.325C297.827 332.248 297.431 330.798 297.138 329.04C296.874 327.253 296.743 325.524 296.743 323.854ZM298.281 304.475L298.369 311.022H290.766C288.803 311.022 287.075 311.213 285.58 311.594C284.086 311.945 282.841 312.473 281.845 313.176C280.849 313.879 280.102 314.729 279.604 315.725C279.106 316.721 278.857 317.849 278.857 319.108C278.857 320.368 279.15 321.525 279.736 322.58C280.322 323.605 281.171 324.411 282.285 324.997C283.427 325.583 284.804 325.876 286.415 325.876C288.583 325.876 290.473 325.437 292.084 324.558C293.725 323.649 295.014 322.551 295.952 321.262C296.889 319.943 297.387 318.698 297.446 317.526L300.873 322.229C300.522 323.43 299.921 324.719 299.072 326.096C298.222 327.473 297.109 328.791 295.732 330.051C294.384 331.281 292.758 332.292 290.854 333.083C288.979 333.874 286.811 334.27 284.35 334.27C281.244 334.27 278.476 333.654 276.044 332.424C273.613 331.164 271.708 329.479 270.331 327.37C268.954 325.231 268.266 322.814 268.266 320.119C268.266 317.6 268.735 315.373 269.672 313.439C270.639 311.477 272.045 309.836 273.891 308.518C275.766 307.199 278.051 306.203 280.746 305.529C283.442 304.826 286.518 304.475 289.975 304.475H298.281Z" fill="white"/>
<path d="M886.635 371.431L839.54 422.245L907.094 437.623L886.635 371.431ZM677.166 519.393C706.441 519.393 747.69 514.511 786.237 500.669C824.696 486.859 861.364 463.79 880.004 426.796L869.288 421.396C852.619 454.476 819.273 476.056 782.181 489.376C745.178 502.663 705.341 507.393 677.166 507.393V519.393Z" fill="#2FA4DA"/>
<path d="M338.641 513.393L275.857 542.687L281.88 473.667L338.641 513.393ZM283.849 514.615C248.09 508.608 208.168 496.231 177.035 473.732C145.688 451.077 123.173 418.044 123.173 371.431H135.173C135.173 413.483 155.215 443.157 184.064 464.006C213.128 485.01 251.042 496.935 285.838 502.781L283.849 514.615Z" fill="#2FA4DA"/>
<path d="M129.173 227.483L176.267 176.669L108.713 161.291L129.173 227.483ZM338.641 79.5213C309.366 79.5213 268.117 84.4027 229.57 98.2446C191.112 112.055 154.443 135.124 135.803 172.118L146.519 177.518C163.188 144.438 196.534 122.858 233.626 109.539C270.629 96.2507 310.466 91.5213 338.641 91.5213V79.5213Z" fill="#2FA4DA"/>
<path d="M679.152 81.5505L742.07 52.5457L735.73 121.537L679.152 81.5505ZM733.983 80.5852C769.973 86.9515 810.175 100.1 841.519 124.02C873.08 148.106 895.613 183.126 895.613 232.447H883.613C883.613 187.405 863.279 155.722 834.239 133.56C804.981 111.231 766.845 98.5844 731.893 92.4017L733.983 80.5852Z" fill="#2FA4DA"/>
<path d="M471 156L428.855 210.989L497.549 219.993L471 156ZM383.302 284.992C395.019 284.403 412.325 282.413 428.941 272.116C445.729 261.713 461.12 243.269 469.776 211.098L458.188 207.98C450.216 237.61 436.482 253.325 422.62 261.916C408.585 270.613 393.714 272.453 382.698 273.008L383.302 284.992Z" fill="#2FA4DA"/>
<path d="M383 309L451.116 296.342L428.02 361.661L383 309ZM437.779 322.412C458.781 340.083 475.41 372.842 476.998 432.841L465.002 433.159C463.467 375.128 447.488 346.264 430.053 331.594L437.779 322.412Z" fill="#2FA4DA"/>
<path d="M69.6982 99.4883C67.7451 99.4883 65.9792 99.1709 64.4004 98.5361C62.8379 97.8851 61.5033 96.9818 60.3965 95.8262C59.306 94.6706 58.4678 93.3115 57.8818 91.749C57.2959 90.1865 57.0029 88.502 57.0029 86.6953V85.7188C57.0029 83.6517 57.304 81.7799 57.9062 80.1035C58.5085 78.4271 59.3467 76.9948 60.4209 75.8066C61.4951 74.6022 62.7646 73.6826 64.2295 73.0479C65.6943 72.4131 67.2812 72.0957 68.9902 72.0957C70.8783 72.0957 72.5303 72.4131 73.9463 73.0479C75.3623 73.6826 76.5342 74.5778 77.4619 75.7334C78.4059 76.8727 79.1058 78.2318 79.5615 79.8105C80.0335 81.3893 80.2695 83.1309 80.2695 85.0352V87.5498H59.8594V83.3262H74.459V82.8623C74.4264 81.8044 74.2148 80.8115 73.8242 79.8838C73.4499 78.9561 72.8721 78.2074 72.0908 77.6377C71.3096 77.068 70.2679 76.7832 68.9658 76.7832C67.9893 76.7832 67.1185 76.9948 66.3535 77.418C65.6048 77.8249 64.9782 78.4189 64.4736 79.2002C63.9691 79.9814 63.5785 80.9255 63.3018 82.0322C63.0413 83.1227 62.9111 84.3516 62.9111 85.7188V86.6953C62.9111 87.8509 63.0658 88.9251 63.375 89.918C63.7005 90.8945 64.1725 91.749 64.791 92.4814C65.4095 93.2139 66.1582 93.7917 67.0371 94.2148C67.916 94.6217 68.917 94.8252 70.04 94.8252C71.4561 94.8252 72.7174 94.5404 73.8242 93.9707C74.931 93.401 75.8913 92.5954 76.7051 91.5537L79.8057 94.5566C79.236 95.3867 78.4954 96.1842 77.584 96.9492C76.6725 97.6979 75.5576 98.3083 74.2393 98.7803C72.9372 99.2523 71.4235 99.4883 69.6982 99.4883ZM93.1113 94.3369L99.5811 72.584H105.685L96.5049 99H92.6963L93.1113 94.3369ZM88.1553 72.584L94.7471 94.4346L95.0645 99H91.2559L82.0273 72.584H88.1553ZM120.626 99.4883C118.673 99.4883 116.907 99.1709 115.328 98.5361C113.766 97.8851 112.431 96.9818 111.324 95.8262C110.234 94.6706 109.396 93.3115 108.81 91.749C108.224 90.1865 107.931 88.502 107.931 86.6953V85.7188C107.931 83.6517 108.232 81.7799 108.834 80.1035C109.436 78.4271 110.274 76.9948 111.349 75.8066C112.423 74.6022 113.692 73.6826 115.157 73.0479C116.622 72.4131 118.209 72.0957 119.918 72.0957C121.806 72.0957 123.458 72.4131 124.874 73.0479C126.29 73.6826 127.462 74.5778 128.39 75.7334C129.334 76.8727 130.034 78.2318 130.489 79.8105C130.961 81.3893 131.197 83.1309 131.197 85.0352V87.5498H110.787V83.3262H125.387V82.8623C125.354 81.8044 125.143 80.8115 124.752 79.8838C124.378 78.9561 123.8 78.2074 123.019 77.6377C122.237 77.068 121.196 76.7832 119.894 76.7832C118.917 76.7832 118.046 76.9948 117.281 77.418C116.533 77.8249 115.906 78.4189 115.401 79.2002C114.897 79.9814 114.506 80.9255 114.229 82.0322C113.969 83.1227 113.839 84.3516 113.839 85.7188V86.6953C113.839 87.8509 113.993 88.9251 114.303 89.918C114.628 90.8945 115.1 91.749 115.719 92.4814C116.337 93.2139 117.086 93.7917 117.965 94.2148C118.844 94.6217 119.845 94.8252 120.968 94.8252C122.384 94.8252 123.645 94.5404 124.752 93.9707C125.859 93.401 126.819 92.5954 127.633 91.5537L130.733 94.5566C130.164 95.3867 129.423 96.1842 128.512 96.9492C127.6 97.6979 126.485 98.3083 125.167 98.7803C123.865 99.2523 122.351 99.4883 120.626 99.4883ZM141.622 78.2236V99H135.738V72.584H141.28L141.622 78.2236ZM140.572 84.8154L138.668 84.791C138.684 82.9193 138.945 81.2021 139.449 79.6396C139.97 78.0771 140.686 76.7344 141.598 75.6113C142.525 74.4883 143.632 73.6257 144.918 73.0234C146.204 72.4049 147.636 72.0957 149.215 72.0957C150.484 72.0957 151.632 72.2747 152.657 72.6328C153.699 72.9746 154.586 73.5361 155.318 74.3174C156.067 75.0986 156.637 76.1159 157.027 77.3691C157.418 78.6061 157.613 80.1279 157.613 81.9346V99H151.705V81.9102C151.705 80.6406 151.518 79.6396 151.144 78.9072C150.785 78.1585 150.257 77.6296 149.557 77.3203C148.873 76.9948 148.019 76.832 146.993 76.832C145.984 76.832 145.081 77.0436 144.283 77.4668C143.486 77.89 142.81 78.4678 142.257 79.2002C141.72 79.9326 141.305 80.779 141.012 81.7393C140.719 82.6995 140.572 83.7249 140.572 84.8154ZM175.729 72.584V76.8809H160.836V72.584H175.729ZM165.133 66.1143H171.017V91.7002C171.017 92.514 171.131 93.1406 171.358 93.5801C171.603 94.0033 171.936 94.2881 172.359 94.4346C172.783 94.5811 173.279 94.6543 173.849 94.6543C174.256 94.6543 174.646 94.6299 175.021 94.5811C175.395 94.5322 175.696 94.4834 175.924 94.4346L175.948 98.9268C175.46 99.0732 174.89 99.2035 174.239 99.3174C173.604 99.4313 172.872 99.4883 172.042 99.4883C170.691 99.4883 169.495 99.2523 168.453 98.7803C167.411 98.292 166.598 97.5026 166.012 96.4121C165.426 95.3216 165.133 93.873 165.133 92.0664V66.1143ZM195.089 91.8467C195.089 91.2607 194.942 90.7318 194.649 90.2598C194.356 89.7715 193.795 89.332 192.965 88.9414C192.151 88.5508 190.947 88.1927 189.352 87.8672C187.952 87.5579 186.666 87.1917 185.494 86.7686C184.339 86.3291 183.346 85.8001 182.516 85.1816C181.686 84.5632 181.043 83.8307 180.587 82.9844C180.131 82.138 179.903 81.1615 179.903 80.0547C179.903 78.9805 180.139 77.9632 180.611 77.0029C181.083 76.0426 181.759 75.1963 182.638 74.4639C183.517 73.7314 184.583 73.1536 185.836 72.7305C187.105 72.3073 188.521 72.0957 190.084 72.0957C192.298 72.0957 194.194 72.4701 195.772 73.2188C197.368 73.9512 198.588 74.9521 199.435 76.2217C200.281 77.4749 200.704 78.891 200.704 80.4697H194.82C194.82 79.7699 194.641 79.1188 194.283 78.5166C193.941 77.8981 193.421 77.4017 192.721 77.0273C192.021 76.6367 191.142 76.4414 190.084 76.4414C189.075 76.4414 188.237 76.6042 187.569 76.9297C186.918 77.2389 186.43 77.6458 186.104 78.1504C185.795 78.6549 185.641 79.2083 185.641 79.8105C185.641 80.25 185.722 80.6488 185.885 81.0068C186.064 81.3486 186.357 81.666 186.764 81.959C187.171 82.2357 187.724 82.4961 188.424 82.7402C189.14 82.9844 190.035 83.2204 191.109 83.4482C193.128 83.8714 194.861 84.4167 196.31 85.084C197.774 85.735 198.897 86.5814 199.679 87.623C200.46 88.6484 200.851 89.9505 200.851 91.5293C200.851 92.7012 200.598 93.7754 200.094 94.752C199.605 95.7122 198.889 96.5505 197.945 97.2666C197.001 97.9665 195.87 98.5117 194.552 98.9023C193.25 99.293 191.785 99.4883 190.157 99.4883C187.765 99.4883 185.738 99.0651 184.078 98.2188C182.418 97.3561 181.157 96.2575 180.294 94.9229C179.448 93.5719 179.024 92.1722 179.024 90.7236H184.713C184.778 91.8141 185.079 92.6849 185.616 93.3359C186.17 93.9707 186.853 94.4346 187.667 94.7275C188.497 95.0042 189.352 95.1426 190.23 95.1426C191.288 95.1426 192.175 95.0042 192.892 94.7275C193.608 94.4346 194.153 94.0439 194.527 93.5557C194.902 93.0511 195.089 92.4814 195.089 91.8467Z" fill="#888888"/>
<path d="M889.116 88.1562V56.833L889.8 51.584H895.049V88.1562H889.116ZM871.953 65.0605V64.5479C871.953 62.5459 872.181 60.723 872.637 59.0791C873.092 57.4189 873.768 55.9948 874.663 54.8066C875.558 53.6185 876.649 52.707 877.935 52.0723C879.22 51.4212 880.701 51.0957 882.378 51.0957C884.006 51.0957 885.422 51.4049 886.626 52.0234C887.847 52.6419 888.872 53.529 889.702 54.6846C890.549 55.8239 891.224 57.1829 891.729 58.7617C892.233 60.3405 892.599 62.0983 892.827 64.0352V65.6709C892.616 67.5589 892.257 69.2842 891.753 70.8467C891.248 72.4092 890.573 73.7601 889.727 74.8994C888.88 76.0387 887.847 76.9258 886.626 77.5605C885.405 78.179 883.973 78.4883 882.329 78.4883C880.685 78.4883 879.22 78.1546 877.935 77.4873C876.649 76.82 875.558 75.8841 874.663 74.6797C873.784 73.459 873.109 72.0348 872.637 70.4072C872.181 68.7633 871.953 66.9811 871.953 65.0605ZM877.837 64.5479V65.0605C877.837 66.265 877.943 67.3962 878.154 68.4541C878.382 69.4958 878.74 70.4235 879.229 71.2373C879.717 72.0348 880.335 72.6615 881.084 73.1172C881.833 73.5729 882.736 73.8008 883.794 73.8008C885.177 73.8008 886.309 73.4997 887.188 72.8975C888.083 72.2952 888.766 71.4896 889.238 70.4805C889.727 69.4551 890.068 68.3239 890.264 67.0869V62.668C890.15 61.7077 889.946 60.8125 889.653 59.9824C889.36 59.1361 888.953 58.4036 888.433 57.7852C887.928 57.1504 887.293 56.6621 886.528 56.3203C885.78 55.9622 884.884 55.7832 883.843 55.7832C882.785 55.7832 881.873 56.0111 881.108 56.4668C880.343 56.9225 879.717 57.5573 879.229 58.3711C878.757 59.1686 878.407 60.0964 878.179 61.1543C877.951 62.2122 877.837 63.3434 877.837 64.5479ZM917.241 71.7744V51.584H923.149V78H917.583L917.241 71.7744ZM918.071 66.2812L920.049 66.2324C920.049 68.0065 919.854 69.6423 919.463 71.1396C919.072 72.6208 918.47 73.9147 917.656 75.0215C916.842 76.112 915.801 76.9665 914.531 77.585C913.262 78.1872 911.74 78.4883 909.966 78.4883C908.68 78.4883 907.5 78.3011 906.426 77.9268C905.352 77.5524 904.424 76.9746 903.643 76.1934C902.878 75.4121 902.284 74.3949 901.86 73.1416C901.437 71.8883 901.226 70.391 901.226 68.6494V51.584H907.109V68.6982C907.109 69.6585 907.223 70.4642 907.451 71.1152C907.679 71.75 907.988 72.2627 908.379 72.6533C908.77 73.0439 909.225 73.3206 909.746 73.4834C910.267 73.6462 910.82 73.7275 911.406 73.7275C913.083 73.7275 914.401 73.402 915.361 72.751C916.338 72.0837 917.03 71.1885 917.437 70.0654C917.86 68.9424 918.071 67.681 918.071 66.2812ZM940.825 78.4883C938.872 78.4883 937.106 78.1709 935.527 77.5361C933.965 76.8851 932.63 75.9818 931.523 74.8262C930.433 73.6706 929.595 72.3115 929.009 70.749C928.423 69.1865 928.13 67.502 928.13 65.6953V64.7188C928.13 62.6517 928.431 60.7799 929.033 59.1035C929.635 57.4271 930.474 55.9948 931.548 54.8066C932.622 53.6022 933.892 52.6826 935.356 52.0479C936.821 51.4131 938.408 51.0957 940.117 51.0957C942.005 51.0957 943.657 51.4131 945.073 52.0479C946.489 52.6826 947.661 53.5778 948.589 54.7334C949.533 55.8727 950.233 57.2318 950.688 58.8105C951.16 60.3893 951.396 62.1309 951.396 64.0352V66.5498H930.986V62.3262H945.586V61.8623C945.553 60.8044 945.342 59.8115 944.951 58.8838C944.577 57.9561 943.999 57.2074 943.218 56.6377C942.437 56.068 941.395 55.7832 940.093 55.7832C939.116 55.7832 938.245 55.9948 937.48 56.418C936.732 56.8249 936.105 57.4189 935.601 58.2002C935.096 58.9814 934.705 59.9255 934.429 61.0322C934.168 62.1227 934.038 63.3516 934.038 64.7188V65.6953C934.038 66.8509 934.193 67.9251 934.502 68.918C934.827 69.8945 935.299 70.749 935.918 71.4814C936.536 72.2139 937.285 72.7917 938.164 73.2148C939.043 73.6217 940.044 73.8252 941.167 73.8252C942.583 73.8252 943.844 73.5404 944.951 72.9707C946.058 72.401 947.018 71.5954 947.832 70.5537L950.933 73.5566C950.363 74.3867 949.622 75.1842 948.711 75.9492C947.799 76.6979 946.685 77.3083 945.366 77.7803C944.064 78.2523 942.55 78.4883 940.825 78.4883ZM961.895 56.6133V78H956.011V51.584H961.626L961.895 56.6133ZM969.976 51.4131L969.927 56.8818C969.569 56.8167 969.178 56.7679 968.755 56.7354C968.348 56.7028 967.941 56.6865 967.534 56.6865C966.525 56.6865 965.638 56.833 964.873 57.126C964.108 57.4027 963.465 57.8096 962.944 58.3467C962.44 58.8675 962.049 59.5023 961.772 60.251C961.496 60.9997 961.333 61.8379 961.284 62.7656L959.941 62.8633C959.941 61.2031 960.104 59.665 960.43 58.249C960.755 56.833 961.243 55.5879 961.895 54.5137C962.562 53.4395 963.392 52.6012 964.385 51.999C965.394 51.3968 966.558 51.0957 967.876 51.0957C968.234 51.0957 968.617 51.1283 969.023 51.1934C969.447 51.2585 969.764 51.3317 969.976 51.4131ZM981.768 75.1191L988.945 51.584H995.244L984.648 82.0283C984.404 82.6794 984.087 83.3874 983.696 84.1523C983.306 84.9173 982.793 85.6416 982.158 86.3252C981.54 87.0251 980.767 87.5866 979.839 88.0098C978.911 88.4492 977.788 88.6689 976.47 88.6689C975.949 88.6689 975.444 88.6201 974.956 88.5225C974.484 88.4411 974.036 88.3516 973.613 88.2539L973.589 83.7617C973.752 83.778 973.947 83.7943 974.175 83.8105C974.419 83.8268 974.614 83.835 974.761 83.835C975.737 83.835 976.551 83.7129 977.202 83.4688C977.853 83.2409 978.382 82.8665 978.789 82.3457C979.212 81.8249 979.57 81.125 979.863 80.2461L981.768 75.1191ZM977.715 51.584L983.989 71.3594L985.039 77.5605L980.962 78.6104L971.367 51.584H977.715ZM878.936 115.613V137H873.052V110.584H878.667L878.936 115.613ZM887.017 110.413L886.968 115.882C886.61 115.817 886.219 115.768 885.796 115.735C885.389 115.703 884.982 115.687 884.575 115.687C883.566 115.687 882.679 115.833 881.914 116.126C881.149 116.403 880.506 116.81 879.985 117.347C879.481 117.868 879.09 118.502 878.813 119.251C878.537 120 878.374 120.838 878.325 121.766L876.982 121.863C876.982 120.203 877.145 118.665 877.471 117.249C877.796 115.833 878.285 114.588 878.936 113.514C879.603 112.439 880.433 111.601 881.426 110.999C882.435 110.397 883.599 110.096 884.917 110.096C885.275 110.096 885.658 110.128 886.064 110.193C886.488 110.258 886.805 110.332 887.017 110.413ZM901.86 137.488C899.907 137.488 898.141 137.171 896.562 136.536C895 135.885 893.665 134.982 892.559 133.826C891.468 132.671 890.63 131.312 890.044 129.749C889.458 128.187 889.165 126.502 889.165 124.695V123.719C889.165 121.652 889.466 119.78 890.068 118.104C890.671 116.427 891.509 114.995 892.583 113.807C893.657 112.602 894.927 111.683 896.392 111.048C897.856 110.413 899.443 110.096 901.152 110.096C903.04 110.096 904.692 110.413 906.108 111.048C907.524 111.683 908.696 112.578 909.624 113.733C910.568 114.873 911.268 116.232 911.724 117.811C912.196 119.389 912.432 121.131 912.432 123.035V125.55H892.021V121.326H906.621V120.862C906.589 119.804 906.377 118.812 905.986 117.884C905.612 116.956 905.034 116.207 904.253 115.638C903.472 115.068 902.43 114.783 901.128 114.783C900.151 114.783 899.281 114.995 898.516 115.418C897.767 115.825 897.14 116.419 896.636 117.2C896.131 117.981 895.741 118.925 895.464 120.032C895.203 121.123 895.073 122.352 895.073 123.719V124.695C895.073 125.851 895.228 126.925 895.537 127.918C895.863 128.895 896.335 129.749 896.953 130.481C897.572 131.214 898.32 131.792 899.199 132.215C900.078 132.622 901.079 132.825 902.202 132.825C903.618 132.825 904.88 132.54 905.986 131.971C907.093 131.401 908.053 130.595 908.867 129.554L911.968 132.557C911.398 133.387 910.658 134.184 909.746 134.949C908.835 135.698 907.72 136.308 906.401 136.78C905.099 137.252 903.586 137.488 901.86 137.488ZM931.841 129.847C931.841 129.261 931.694 128.732 931.401 128.26C931.108 127.771 930.547 127.332 929.717 126.941C928.903 126.551 927.699 126.193 926.104 125.867C924.704 125.558 923.418 125.192 922.246 124.769C921.09 124.329 920.098 123.8 919.268 123.182C918.438 122.563 917.795 121.831 917.339 120.984C916.883 120.138 916.655 119.161 916.655 118.055C916.655 116.98 916.891 115.963 917.363 115.003C917.835 114.043 918.511 113.196 919.39 112.464C920.269 111.731 921.335 111.154 922.588 110.73C923.857 110.307 925.273 110.096 926.836 110.096C929.049 110.096 930.946 110.47 932.524 111.219C934.119 111.951 935.34 112.952 936.187 114.222C937.033 115.475 937.456 116.891 937.456 118.47H931.572C931.572 117.77 931.393 117.119 931.035 116.517C930.693 115.898 930.173 115.402 929.473 115.027C928.773 114.637 927.894 114.441 926.836 114.441C925.827 114.441 924.989 114.604 924.321 114.93C923.67 115.239 923.182 115.646 922.856 116.15C922.547 116.655 922.393 117.208 922.393 117.811C922.393 118.25 922.474 118.649 922.637 119.007C922.816 119.349 923.109 119.666 923.516 119.959C923.923 120.236 924.476 120.496 925.176 120.74C925.892 120.984 926.787 121.22 927.861 121.448C929.88 121.871 931.613 122.417 933.062 123.084C934.526 123.735 935.649 124.581 936.431 125.623C937.212 126.648 937.603 127.951 937.603 129.529C937.603 130.701 937.35 131.775 936.846 132.752C936.357 133.712 935.641 134.55 934.697 135.267C933.753 135.966 932.622 136.512 931.304 136.902C930.002 137.293 928.537 137.488 926.909 137.488C924.517 137.488 922.49 137.065 920.83 136.219C919.17 135.356 917.909 134.257 917.046 132.923C916.2 131.572 915.776 130.172 915.776 128.724H921.465C921.53 129.814 921.831 130.685 922.368 131.336C922.922 131.971 923.605 132.435 924.419 132.728C925.249 133.004 926.104 133.143 926.982 133.143C928.04 133.143 928.927 133.004 929.644 132.728C930.36 132.435 930.905 132.044 931.279 131.556C931.654 131.051 931.841 130.481 931.841 129.847ZM958.647 130.774V110.584H964.556V137H958.989L958.647 130.774ZM959.478 125.281L961.455 125.232C961.455 127.007 961.26 128.642 960.869 130.14C960.479 131.621 959.876 132.915 959.062 134.021C958.249 135.112 957.207 135.966 955.938 136.585C954.668 137.187 953.146 137.488 951.372 137.488C950.086 137.488 948.906 137.301 947.832 136.927C946.758 136.552 945.83 135.975 945.049 135.193C944.284 134.412 943.69 133.395 943.267 132.142C942.843 130.888 942.632 129.391 942.632 127.649V110.584H948.516V127.698C948.516 128.659 948.63 129.464 948.857 130.115C949.085 130.75 949.395 131.263 949.785 131.653C950.176 132.044 950.632 132.321 951.152 132.483C951.673 132.646 952.227 132.728 952.812 132.728C954.489 132.728 955.807 132.402 956.768 131.751C957.744 131.084 958.436 130.188 958.843 129.065C959.266 127.942 959.478 126.681 959.478 125.281ZM976.885 99.5V137H970.977V99.5H976.885ZM995.439 110.584V114.881H980.547V110.584H995.439ZM984.844 104.114H990.728V129.7C990.728 130.514 990.841 131.141 991.069 131.58C991.313 132.003 991.647 132.288 992.07 132.435C992.493 132.581 992.99 132.654 993.56 132.654C993.966 132.654 994.357 132.63 994.731 132.581C995.106 132.532 995.407 132.483 995.635 132.435L995.659 136.927C995.171 137.073 994.601 137.203 993.95 137.317C993.315 137.431 992.583 137.488 991.753 137.488C990.402 137.488 989.206 137.252 988.164 136.78C987.122 136.292 986.309 135.503 985.723 134.412C985.137 133.322 984.844 131.873 984.844 130.066V104.114ZM1014.8 129.847C1014.8 129.261 1014.65 128.732 1014.36 128.26C1014.07 127.771 1013.51 127.332 1012.68 126.941C1011.86 126.551 1010.66 126.193 1009.06 125.867C1007.66 125.558 1006.38 125.192 1005.21 124.769C1004.05 124.329 1003.06 123.8 1002.23 123.182C1001.4 122.563 1000.75 121.831 1000.3 120.984C999.842 120.138 999.614 119.161 999.614 118.055C999.614 116.98 999.85 115.963 1000.32 115.003C1000.79 114.043 1001.47 113.196 1002.35 112.464C1003.23 111.731 1004.29 111.154 1005.55 110.73C1006.82 110.307 1008.23 110.096 1009.79 110.096C1012.01 110.096 1013.9 110.47 1015.48 111.219C1017.08 111.951 1018.3 112.952 1019.15 114.222C1019.99 115.475 1020.42 116.891 1020.42 118.47H1014.53C1014.53 117.77 1014.35 117.119 1013.99 116.517C1013.65 115.898 1013.13 115.402 1012.43 115.027C1011.73 114.637 1010.85 114.441 1009.79 114.441C1008.79 114.441 1007.95 114.604 1007.28 114.93C1006.63 115.239 1006.14 115.646 1005.82 116.15C1005.51 116.655 1005.35 117.208 1005.35 117.811C1005.35 118.25 1005.43 118.649 1005.6 119.007C1005.77 119.349 1006.07 119.666 1006.47 119.959C1006.88 120.236 1007.43 120.496 1008.13 120.74C1008.85 120.984 1009.75 121.22 1010.82 121.448C1012.84 121.871 1014.57 122.417 1016.02 123.084C1017.49 123.735 1018.61 124.581 1019.39 125.623C1020.17 126.648 1020.56 127.951 1020.56 129.529C1020.56 130.701 1020.31 131.775 1019.8 132.752C1019.32 133.712 1018.6 134.55 1017.66 135.267C1016.71 135.966 1015.58 136.512 1014.26 136.902C1012.96 137.293 1011.5 137.488 1009.87 137.488C1007.48 137.488 1005.45 137.065 1003.79 136.219C1002.13 135.356 1000.87 134.257 1000 132.923C999.159 131.572 998.735 130.172 998.735 128.724H1004.42C1004.49 129.814 1004.79 130.685 1005.33 131.336C1005.88 131.971 1006.56 132.435 1007.38 132.728C1008.21 133.004 1009.06 133.143 1009.94 133.143C1011 133.143 1011.89 133.004 1012.6 132.728C1013.32 132.435 1013.86 132.044 1014.24 131.556C1014.61 131.051 1014.8 130.481 1014.8 129.847Z" fill="#888888"/>
</svg>
