<svg width="363" height="320" viewBox="0 0 363 320" fill="none" xmlns="http://www.w3.org/2000/svg">
<path d="M336.479 37.094H50.5195C40.0295 37.094 31.4995 45.624 31.4995 56.114V252.074C31.4995 262.564 40.0295 271.094 50.5195 271.094H336.479C346.969 271.094 355.5 262.564 355.5 252.074V56.114C355.5 45.624 346.969 37.094 336.479 37.094Z" fill="#F2F2F2"/>
<path d="M335.455 37.188H49.4954C39.0054 37.188 30.4753 45.718 30.4753 56.2079V252.168C30.4753 262.658 39.0054 271.188 49.4954 271.188H335.455C345.945 271.188 354.475 262.658 354.475 252.168V56.2079C354.475 45.718 345.945 37.188 335.455 37.188ZM352.475 194.492C352.475 235.745 319.033 269.188 277.779 269.188H49.4954C40.0955 269.188 32.4753 261.568 32.4753 252.168V56.2079C32.4753 46.8081 40.0954 39.188 49.4953 39.188H335.455C344.855 39.188 352.475 46.8081 352.475 56.208V194.492Z" fill="#3F3D56"/>
<path d="M41.3215 243.721L39.6292 242.655C40.7293 240.907 41.8645 239.212 43.0022 237.618L44.6301 238.78C43.5144 240.342 42.4016 242.004 41.3215 243.721Z" fill="#CCCCCC"/>
<path d="M52.3494 229.468L50.9177 228.071C53.9695 224.944 57.1814 222.259 60.4636 220.091L61.5662 221.76C58.4026 223.849 55.3015 226.442 52.3494 229.468ZM102.245 216.844C99.8567 216.844 97.6809 216.538 96.052 216.271L96.3752 214.298C98.0256 214.568 100.013 214.844 102.245 214.844C104.216 214.844 106.153 214.627 108.166 214.182L108.598 216.135C106.441 216.612 104.363 216.844 102.245 216.844ZM72.3186 216.579L71.717 214.672C73.8655 213.994 76.0911 213.486 78.3318 213.162C80.2561 212.883 82.096 212.748 83.9558 212.748H84.0789V214.748H83.9558C82.1926 214.748 80.447 214.876 78.6184 215.141C76.4841 215.45 74.364 215.934 72.3186 216.579ZM119.99 210.799L118.712 209.261C121.471 206.969 123.449 204.197 125.544 201.262L126.38 200.094L128.003 201.263L127.172 202.423C125 205.467 122.948 208.342 119.99 210.799ZM136.029 192.461L134.799 190.884C137.494 188.781 140.54 187.076 144.11 185.673C144.718 185.434 145.299 185.221 145.856 185.031L146.502 186.923C145.971 187.104 145.42 187.307 144.842 187.535C141.453 188.866 138.571 190.478 136.029 192.461ZM160.174 185.515C159.501 185.515 158.863 185.508 158.25 185.501L158.273 183.501C158.9 183.509 159.554 183.51 160.247 183.515C162.6 183.515 165.878 183.448 170.374 182.927L170.605 184.914C165.96 185.452 162.631 185.508 160.174 185.515ZM182.771 182.895L182.374 180.936C185.967 180.209 190.146 179.344 194.282 178.277L194.782 180.213C190.598 181.293 186.388 182.164 182.771 182.895ZM206.564 176.422L205.816 174.567C209.826 172.95 213.308 171.127 216.461 168.992L217.582 170.648C214.311 172.863 210.706 174.752 206.564 176.422ZM226.771 162.131L225.148 160.962C225.706 160.187 226.189 159.432 226.655 158.702C228.032 156.545 229.456 154.315 232.847 151.578L233.085 151.388L234.324 152.958L234.104 153.134C230.966 155.667 229.691 157.664 228.341 159.778C227.86 160.532 227.362 161.311 226.771 162.131ZM244.713 147.131L243.984 145.269C247.548 143.871 251.574 142.747 255.949 141.926L256.319 143.892C252.066 144.689 248.161 145.779 244.713 147.131Z" fill="#CCCCCC"/>
<path d="M268.543 142.423L268.418 140.427C270.361 140.305 272.393 140.225 274.457 140.188L274.493 142.188C272.458 142.224 270.457 142.303 268.543 142.423Z" fill="#CCCCCC"/>
<path d="M63.6235 73.8591H35.5634C34.1534 73.8591 33.0034 75.0092 33.0034 76.4191C33.0034 77.8391 34.1534 78.9891 35.5634 78.9891H63.6235C65.0334 78.9891 66.1835 77.8391 66.1835 76.4191C66.1835 75.0092 65.0335 73.8591 63.6235 73.8591Z" fill="#E6E6E6"/>
<path d="M110.623 73.8591H82.5634C81.1534 73.8591 80.0034 75.0092 80.0034 76.4191C80.0034 77.8391 81.1534 78.9891 82.5634 78.9891H110.623C112.033 78.9891 113.183 77.8391 113.183 76.4191C113.183 75.0092 112.033 73.8591 110.623 73.8591Z" fill="#E6E6E6"/>
<path d="M157.623 73.8591H129.563C128.153 73.8591 127.003 75.0092 127.003 76.4191C127.003 77.8391 128.153 78.9891 129.563 78.9891H157.623C159.033 78.9891 160.183 77.8391 160.183 76.4191C160.183 75.0092 159.033 73.8591 157.623 73.8591Z" fill="#E6E6E6"/>
<path d="M287.975 242.188H32.9753V244.188H287.975V242.188Z" fill="#E6E6E6"/>
<path d="M274.505 96.188C256.355 96.6579 242.815 101.998 234.235 112.038C231.065 115.758 229.775 118.688 228.415 121.788C227.065 124.848 225.685 127.998 222.475 132.108V128.708C224.465 125.788 225.535 123.348 226.585 120.978C228.005 117.738 229.355 114.678 232.715 110.748C241.675 100.248 255.715 94.678 274.445 94.188L274.505 96.188Z" fill="#CCCCCC"/>
<path d="M229.789 122.391L229.788 122.394L229.756 122.466C228.405 125.529 226.961 128.801 223.659 133.029M229.789 122.391L222.475 132.108M229.789 122.391C230.18 121.499 230.398 120.651 230.403 119.908C230.407 119.286 230.242 118.167 229.202 117.658C228.104 117.122 227.113 117.767 226.644 118.2C226.093 118.709 225.614 119.459 225.212 120.374C225.212 120.375 225.212 120.375 225.212 120.376L225.175 120.458C224.14 122.796 223.118 125.101 221.236 127.863L221.231 127.871C220.504 128.952 219.626 130.119 218.557 131.393C207.706 144.302 192.992 148.637 180.777 152.208C180.424 152.309 180.083 152.406 179.743 152.502C179.519 152.566 179.296 152.629 179.07 152.694C168.137 155.712 162.273 155.607 157.902 155.528L157.901 155.528L157.826 155.527C155.536 155.488 153.394 155.451 151.089 155.868C148.732 156.295 146.267 157.182 143.231 158.916C132.505 165.042 127.98 174.234 124.156 182.001L124.11 182.096L124.109 182.096C120.086 190.273 116.869 196.709 108.601 199.793L108.6 199.793C102.986 201.891 99.0064 200.875 94.3877 199.656C94.3704 199.645 94.2879 199.596 94.1404 199.45C93.9284 199.241 93.666 198.915 93.3569 198.452C92.7392 197.525 92.0443 196.215 91.2808 194.604C90.1978 192.32 89.0385 189.568 87.8175 186.669C87.3149 185.476 86.8018 184.258 86.2793 183.038C84.5093 178.903 82.6334 174.749 80.7635 171.704C79.8329 170.189 78.8481 168.855 77.8122 167.932C76.7973 167.028 75.4678 166.293 73.957 166.61L73.9567 166.61C69.6034 167.526 65.9899 171.522 62.8753 176.741C59.7092 182.047 56.8185 189.034 54.0784 196.621C51.9691 202.461 49.9285 208.717 47.9122 214.897C47.3066 216.754 46.7032 218.604 46.1008 220.433C43.4847 228.379 40.8865 235.951 38.1793 242.191L37.5828 243.566L38.9573 244.164L40.7973 244.964L42.1745 245.562L42.7717 244.185C45.4711 237.956 48.0254 230.404 50.5474 222.585C51.2273 220.477 51.9047 218.35 52.5824 216.222C54.4273 210.429 56.2747 204.629 58.1812 199.182C60.7901 191.729 63.4742 185.045 66.348 180.062C69.0732 175.336 71.7609 172.513 74.3982 171.664C74.898 172.066 75.4608 172.664 76.0775 173.479C76.8871 174.549 77.7236 175.903 78.5778 177.466C80.2877 180.595 81.9974 184.428 83.6542 188.234C83.8921 188.781 84.1292 189.327 84.365 189.871C85.7569 193.079 87.1061 196.189 88.3488 198.651C89.0749 200.09 89.7941 201.367 90.4955 202.34C90.8466 202.826 91.2194 203.273 91.615 203.634C91.9999 203.985 92.49 204.332 93.0817 204.488L93.0858 204.489L93.1722 204.512C98.1478 205.813 103.232 207.143 110.35 204.483L110.351 204.483C120.539 200.668 124.558 192.51 128.509 184.488L128.601 184.301L128.601 184.3C132.498 176.376 136.35 168.6 145.718 163.261L145.72 163.26C148.28 161.796 150.204 161.115 151.986 160.791C153.798 160.462 155.529 160.487 157.819 160.528L157.822 160.528L157.864 160.529C162.451 160.6 168.659 160.696 179.868 157.656M229.789 122.391L179.868 157.656M223.659 133.029C223.659 133.03 223.658 133.031 223.658 133.031L222.475 132.108M223.659 133.029C223.66 133.029 223.66 133.028 223.661 133.027L222.475 132.108M223.659 133.029C223.269 133.533 222.849 134.055 222.4 134.596L222.393 134.604C210.529 148.712 194.698 153.344 182.308 156.969L182.18 157.007L181.755 155.568M222.475 132.108C222.095 132.598 221.685 133.108 221.245 133.638C209.673 147.399 194.215 151.922 181.779 155.561L181.755 155.568M181.755 155.568L182.177 157.008L182.178 157.007M181.755 155.568C180.975 155.798 180.215 156.008 179.475 156.208C168.47 159.193 162.416 159.099 157.913 159.029L182.178 157.007M182.178 157.007C181.383 157.242 180.612 157.455 179.868 157.656M182.178 157.007L179.868 157.656" fill="#2FA4DA" stroke="#2FA4DA" stroke-width="3"/>
<path d="M300.835 256.899C301.059 257.451 301.832 257.451 302.056 256.899C303.617 253.05 305.84 248.739 308.258 245.445C308.646 244.917 308.112 244.212 307.497 244.435L302.313 246.31V214.224H300.578V246.31L295.393 244.435C294.778 244.212 294.244 244.917 294.631 245.444C297.049 248.739 299.273 253.05 300.835 256.899Z" fill="#3F3D56"/>
<path d="M318.593 311.349H284.872C282.778 311.349 281.075 309.646 281.075 307.552C276.616 294.521 276.704 281.751 281.075 269.229C281.075 267.135 282.778 265.432 284.872 265.432H318.593C320.687 265.432 322.39 267.135 322.39 269.229V307.552C322.39 309.646 320.687 311.349 318.593 311.349Z" fill="#E6E6E6"/>
<path d="M292.097 266.563C286.634 266.563 282.206 270.992 282.206 276.454V306.739C282.206 308.66 283.764 310.218 285.685 310.218H304.333C313.681 310.218 321.259 302.64 321.259 293.292V270.042C321.259 268.121 319.701 266.563 317.78 266.563H292.097Z" fill="white"/>
<path d="M309.586 277.7H293.798C293.4 277.7 293.076 277.376 293.076 276.978C293.076 276.58 293.4 276.257 293.798 276.257H309.586C309.984 276.257 310.308 276.58 310.308 276.978C310.308 277.376 309.984 277.7 309.586 277.7Z" fill="#E6E6E6"/>
<path d="M309.586 293.093H293.798C293.4 293.093 293.076 292.769 293.076 292.371C293.076 291.973 293.4 291.649 293.798 291.649H309.586C309.984 291.649 310.308 291.973 310.308 292.371C310.308 292.769 309.984 293.093 309.586 293.093Z" fill="#E6E6E6"/>
<path d="M318.058 285.402H285.326C284.928 285.402 284.604 285.078 284.604 284.68C284.604 284.282 284.928 283.958 285.326 283.958H318.058C318.456 283.958 318.78 284.282 318.78 284.68C318.78 285.078 318.456 285.402 318.058 285.402Z" fill="#E6E6E6"/>
<path d="M318.444 299.351H304.786C304.388 299.351 304.064 299.027 304.064 298.629C304.064 298.231 304.388 297.908 304.786 297.908H318.444C318.842 297.908 319.165 298.231 319.165 298.629C319.165 299.027 318.842 299.351 318.444 299.351Z" fill="#E6E6E6"/>
<path d="M12.4633 24.7224C19.3466 24.7224 24.9266 19.26 24.9266 12.5217C24.9266 5.78348 19.3466 0.321045 12.4633 0.321045C5.58 0.321045 0 5.78348 0 12.5217C0 19.26 5.58 24.7224 12.4633 24.7224Z" fill="#2FA4DA"/>
<path d="M112.376 8.34784H45.2911C42.9897 8.34784 41.1172 6.47535 41.1172 4.17392C41.1172 1.87249 42.9897 0 45.2911 0H112.376C114.677 0 116.55 1.87249 116.55 4.17392C116.55 6.47535 114.677 8.34784 112.376 8.34784Z" fill="#F2F2F2"/>
<path d="M164.729 22.475H45.2911C42.9897 22.475 41.1172 20.6025 41.1172 18.3011C41.1172 15.9997 42.9897 14.1272 45.2911 14.1272H164.729C167.031 14.1272 168.903 15.9997 168.903 18.3011C168.903 20.6025 167.031 22.475 164.729 22.475Z" fill="#F2F2F2"/>
<path fill-rule="evenodd" clip-rule="evenodd" d="M328.331 11C319.013 11 300.084 15.9579 296.772 28.8138C296.721 28.9125 296.622 29.2701 296.514 29.8204C290.521 26.1561 283.474 24.0252 275.943 24.0252C268.078 24.0252 260.769 26.3489 254.611 30.3096C254.484 29.5052 254.329 28.9408 254.268 28.8138C250.956 15.9579 232.028 11.0141 222.704 11.0094C221.223 11.0094 219.995 11.1364 219.096 11.3716C214.096 12.0678 208.621 14.067 209.021 15.1583C212.69 14.5327 214.543 15.2476 214.487 15.8403C214.374 16.9505 212.163 17.2468 212.873 21.2499C214.214 19.3071 216.081 18.6392 217.549 18.3287C219.054 27.7789 225.64 44.2756 237.964 45.1317C239.022 45.207 240.01 45.2022 240.941 45.1834C238.034 50.6964 236.383 56.9762 236.383 63.6416C236.383 85.5008 254.103 110.831 275.943 110.831C297.779 110.831 315.522 85.5008 315.522 63.6416C315.522 56.9809 313.866 50.7153 310.959 45.207C311.632 45.2026 312.342 45.1834 313.076 45.1317C325.358 44.2803 331.944 27.8777 333.477 18.4181C334.879 18.7615 336.553 19.4671 337.781 21.2499C338.491 17.2468 336.281 16.9505 336.168 15.8403C336.111 15.2476 337.965 14.5327 341.634 15.1583C342.015 14.1234 337.127 12.2748 332.358 11.4892C331.45 11.1693 330.057 11 328.331 11V11Z" fill="url(#paint0_linear_909_438)" stroke="black" stroke-width="3" stroke-linejoin="round"/>
<path d="M274.563 60.4674C274.563 63.8987 273.202 67.1896 270.777 69.6159C268.353 72.0423 265.065 73.4054 261.637 73.4054C258.209 73.4054 254.921 72.0423 252.497 69.6159C250.072 67.1896 248.71 63.8987 248.71 60.4674C248.71 57.036 250.072 53.7451 252.497 51.3188C254.921 48.8924 258.209 47.5293 261.637 47.5293C265.065 47.5293 268.353 48.8924 270.777 51.3188C273.202 53.7451 274.563 57.036 274.563 60.4674V60.4674Z" fill="white" stroke="black" stroke-width="3.00002" stroke-linecap="round" stroke-linejoin="round"/>
<path d="M303.191 60.4674C303.191 63.8987 301.829 67.1896 299.405 69.6159C296.981 72.0423 293.693 73.4054 290.265 73.4054C286.837 73.4054 283.549 72.0423 281.124 69.6159C278.7 67.1896 277.338 63.8987 277.338 60.4674C277.338 57.036 278.7 53.7451 281.124 51.3188C283.549 48.8924 286.837 47.5293 290.265 47.5293C293.693 47.5293 296.981 48.8924 299.405 51.3188C301.829 53.7451 303.191 57.036 303.191 60.4674V60.4674Z" fill="white" stroke="black" stroke-width="3.00002" stroke-linecap="round" stroke-linejoin="round"/>
<path d="M270.559 62.0394C270.559 62.5885 270.452 63.1323 270.242 63.6397C270.032 64.1472 269.725 64.6083 269.337 64.9967C268.949 65.3851 268.489 65.6933 267.982 65.9035C267.475 66.1137 266.932 66.222 266.384 66.222C265.835 66.222 265.292 66.1137 264.785 65.9035C264.278 65.6933 263.818 65.3851 263.43 64.9967C263.042 64.6083 262.735 64.1472 262.525 63.6397C262.316 63.1323 262.208 62.5885 262.208 62.0394C262.208 61.4904 262.316 60.9466 262.525 60.4391C262.735 59.9317 263.042 59.4706 263.43 59.0822C263.818 58.6938 264.278 58.3856 264.785 58.1754C265.292 57.9651 265.835 57.8569 266.384 57.8569C266.932 57.8569 267.475 57.9651 267.982 58.1754C268.489 58.3856 268.949 58.6938 269.337 59.0822C269.725 59.4706 270.032 59.9317 270.242 60.4391C270.452 60.9466 270.559 61.4904 270.559 62.0394V62.0394Z" fill="black"/>
<path d="M289.657 62.0394C289.657 62.5885 289.55 63.1323 289.34 63.6397C289.131 64.1472 288.823 64.6083 288.435 64.9967C288.048 65.3851 287.587 65.6933 287.08 65.9035C286.574 66.1137 286.03 66.222 285.482 66.222C284.933 66.222 284.39 66.1137 283.883 65.9035C283.376 65.6933 282.916 65.3851 282.528 64.9967C282.141 64.6083 281.833 64.1472 281.623 63.6397C281.414 63.1323 281.306 62.5885 281.307 62.0394C281.306 61.4904 281.414 60.9466 281.623 60.4391C281.833 59.9317 282.141 59.4706 282.528 59.0822C282.916 58.6938 283.376 58.3856 283.883 58.1754C284.39 57.9651 284.933 57.8569 285.482 57.8569C286.03 57.8569 286.574 57.9651 287.08 58.1754C287.587 58.3856 288.048 58.6938 288.435 59.0822C288.823 59.4706 289.131 59.9317 289.34 60.4391C289.55 60.9466 289.657 61.4904 289.657 62.0394Z" fill="black"/>
<path fill-rule="evenodd" clip-rule="evenodd" d="M269.269 85.2892C271.376 83.036 280.328 82.5468 282.2 85.5667C284.072 88.5913 279.392 94.8569 275.732 94.5747C272.091 94.2925 267.293 87.3918 269.269 85.2892Z" fill="black"/>
<path fill-rule="evenodd" clip-rule="evenodd" d="M245.726 39.3599C244.338 19.2647 223.659 14.6878 222.662 17.0727C221.67 19.4623 226.439 46.3264 245.726 39.3599Z" fill="#74401B" stroke="black" stroke-width="3" stroke-linejoin="round"/>
<path fill-rule="evenodd" clip-rule="evenodd" d="M304.656 39.3599C306.044 19.2647 326.722 14.6878 327.72 17.0727C328.712 19.4623 323.938 46.3264 304.656 39.3599Z" fill="url(#paint1_linear_909_438)" stroke="black" stroke-width="3" stroke-linejoin="round"/>
<path d="M312.404 48.3115C313.124 51.2938 313.509 54.4172 313.509 57.6159C313.509 79.475 295.771 104.796 273.93 104.796C258.012 104.796 244.3 91.3383 238.025 75.5755C242.885 93.775 258.022 110.841 275.944 110.841C297.784 110.841 315.523 85.5008 315.523 63.6416C315.523 58.2039 314.412 53.0296 312.423 48.3115H312.404Z" fill="black" fill-opacity="0.31373"/>
<defs>
<linearGradient id="paint0_linear_909_438" x1="208.065" y1="60.9157" x2="342.589" y2="60.9157" gradientUnits="userSpaceOnUse">
<stop stop-color="#D07839"/>
</linearGradient>
<linearGradient id="paint1_linear_909_438" x1="334.323" y1="29.9345" x2="351.713" y2="29.9345" gradientUnits="userSpaceOnUse">
<stop stop-color="#74401B"/>
</linearGradient>
</defs>
</svg>
