<svg width="852" height="558" viewBox="0 0 852 558" fill="none" xmlns="http://www.w3.org/2000/svg">
<g clip-path="url(#clip0_909_501)">
<rect x="78" width="722" height="268" rx="15" fill="white"/>
<path d="M785.204 269.129H95.1094C85.8594 269.129 78.334 261.604 78.334 252.353V16.7754C78.334 7.52539 85.8594 0 95.1094 0H785.204C794.454 0 801.979 7.52539 801.979 16.7754V252.353C801.979 261.604 794.454 269.129 785.204 269.129ZM95.1094 2C86.9624 2 80.334 8.62842 80.334 16.7754V252.353C80.334 260.5 86.9624 267.129 95.1094 267.129H785.204C793.351 267.129 799.979 260.5 799.979 252.353V16.7754C799.979 8.62842 793.351 2 785.204 2H95.1094Z" fill="#3F3D56"/>
<path d="M851.034 550.557H0V552.24H851.034V550.557Z" fill="#E6E6E6"/>
<path d="M851.034 464.557H0V466.24H851.034V464.557Z" fill="#E6E6E6"/>
<path d="M524.204 243H488.464C485.631 243 483.334 245.297 483.334 248.13V262.87C483.334 265.703 485.631 268 488.464 268H524.204C527.037 268 529.334 265.703 529.334 262.87V248.13C529.334 245.297 527.037 243 524.204 243Z" fill="#3F3D56"/>
<path d="M544.222 239.469C543.212 296.676 504.764 321.541 504.132 297.387C503.348 266.836 490.173 187.6 438.463 211.899C376.622 240.956 432.37 417.945 414.468 417.945C342.844 417.945 284.714 337.991 284.714 239.469C284.714 140.954 342.844 61 414.468 61C486.092 61 545.936 142.209 544.222 239.469V239.469Z" fill="url(#paint0_linear_909_501)" stroke="black" stroke-width="0.8" stroke-linecap="round" stroke-linejoin="round"/>
<path d="M509.18 117.039C525.789 147.061 534.032 184.706 534.773 224.229C535.463 260.743 525.506 295.225 507.044 304.996C515.665 307.752 543.212 296.669 544.215 239.461C545.05 192.452 531.49 149.193 509.18 117.039ZM446.649 192.112C441.34 192.213 435.479 193.635 429.015 196.667C367.174 225.724 422.929 402.713 405.026 402.713C368.14 402.713 334.833 381.504 311.201 347.471C334.913 390.28 372.352 417.945 414.468 417.945C432.37 417.945 376.615 240.956 438.456 211.899C457.63 202.897 471.508 208.12 481.422 219.812C474.029 203.884 462.917 191.807 446.649 192.112V192.112Z" fill="black" fill-opacity="0.31373"/>
<path d="M476.98 342.005C476.98 373.419 464.496 403.545 442.275 425.758C420.054 447.971 389.915 460.45 358.49 460.45C327.064 460.45 296.926 447.971 274.705 425.758C252.484 403.545 240 373.419 240 342.005C240 310.592 252.484 280.465 274.705 258.252C296.926 236.04 327.064 223.561 358.49 223.561C389.915 223.561 420.054 236.04 442.275 258.252C464.496 280.465 476.98 310.592 476.98 342.005V342.005Z" fill="url(#paint1_linear_909_501)" stroke="black" stroke-width="0.799968" stroke-linecap="round" stroke-linejoin="round"/>
<path d="M358.495 223.577C345.887 223.577 333.751 225.564 322.349 229.213C332.604 226.819 343.418 225.528 354.595 225.528C385.258 225.528 413.219 235.161 434.258 250.966C413.72 233.862 387.298 223.577 358.495 223.577ZM470.709 303.886C472.264 310.211 473.092 316.739 473.092 323.441C473.092 377.493 420.002 421.354 354.595 421.354C299.9 421.354 253.84 390.687 240.216 349.031C243.847 411.156 295.441 460.471 358.495 460.471C423.902 460.471 476.992 407.406 476.992 342.024C476.992 328.685 474.784 315.854 470.709 303.886Z" fill="black" fill-opacity="0.31373"/>
<path d="M358.495 223.577C338.291 223.577 319.255 228.632 302.602 237.561C310.489 265.102 333.534 290.569 360.754 290.569C387.248 290.569 409.827 266.444 418.288 239.752C400.734 229.474 380.297 223.577 358.495 223.577V223.577Z" fill="black" fill-opacity="0.31373"/>
<path fill-rule="evenodd" clip-rule="evenodd" d="M439.684 124.917C425.296 124.917 396.072 132.562 390.959 152.385C390.879 152.538 390.726 153.089 390.559 153.937C381.307 148.287 370.427 145.001 358.8 145.001C346.657 145.001 335.371 148.584 325.864 154.692C325.668 153.451 325.428 152.581 325.334 152.385C320.221 132.562 290.996 124.939 276.602 124.931C274.314 124.931 272.418 125.127 271.031 125.49C263.311 126.563 254.857 129.646 255.475 131.329C261.14 130.364 264.001 131.467 263.914 132.38C263.74 134.092 260.326 134.549 261.423 140.722C263.493 137.726 266.376 136.696 268.642 136.217C270.966 150.789 281.134 176.227 300.162 177.547C301.796 177.663 303.321 177.656 304.759 177.627C300.271 186.128 297.721 195.811 297.721 206.089C297.721 239.795 325.08 278.855 358.8 278.855C392.513 278.855 419.908 239.795 419.908 206.089C419.908 195.818 417.351 186.157 412.863 177.663C413.901 177.656 414.998 177.627 416.131 177.547C435.094 176.234 445.261 150.942 447.629 136.355C449.793 136.885 452.379 137.973 454.274 140.722C455.371 134.549 451.958 134.092 451.783 132.38C451.696 131.467 454.558 130.364 460.222 131.329C460.811 129.733 453.265 126.882 445.901 125.671C444.499 125.178 442.349 124.917 439.684 124.917V124.917Z" fill="url(#paint2_linear_909_501)" stroke="black" stroke-width="0.8" stroke-linejoin="round"/>
<path d="M382.091 305.793C371.967 295.675 353.949 295.16 343.229 304.669C335.683 311.277 332.676 321.424 331.689 331.035C330.991 337.962 331.405 345.397 334.964 351.569C338.537 356.154 344.761 357.118 350.223 357.394C361.109 357.88 372.613 355.254 381.314 348.371C391.801 339.384 394.249 322.65 386.55 311.183C385.294 309.224 383.776 307.418 382.091 305.793V305.793Z" fill="black" fill-opacity="0.31373"/>
<path d="M346.145 326.285C346.145 332.226 343.784 337.924 339.581 342.125C335.378 346.326 329.678 348.686 323.735 348.686C317.791 348.686 312.091 346.326 307.888 342.125C303.686 337.924 301.325 332.226 301.325 326.285C301.325 320.344 303.686 314.646 307.888 310.445C312.091 306.244 317.791 303.884 323.735 303.884C329.678 303.884 335.378 306.244 339.581 310.445C343.784 314.646 346.145 320.344 346.145 326.285V326.285Z" fill="black" fill-opacity="0.31373"/>
<path d="M378.46 298.54C368.336 288.422 350.318 287.907 339.598 297.416C332.052 304.024 329.046 314.171 328.058 323.782C327.361 330.709 327.775 338.143 331.333 344.316C334.906 348.9 341.13 349.865 346.592 350.14C357.479 350.626 368.983 348.001 377.683 341.117C388.17 332.13 390.618 315.397 382.92 303.929C381.663 301.971 380.145 300.165 378.46 298.54V298.54Z" fill="#DC9A6A" stroke="black" stroke-width="0.8" stroke-linecap="round" stroke-linejoin="round"/>
<path d="M355.626 290.729C357.783 291.244 359.875 292.034 361.829 293.137C363.724 294.159 365.518 295.385 367.123 296.814C376.804 305.083 378.801 320.533 371.735 331.093C365.714 339.355 356.149 344.527 346.366 346.79C342.401 347.682 337.884 348.298 334.02 346.833C337.593 349.285 342.321 349.93 346.584 350.141C357.471 350.627 368.975 348.001 377.683 341.118C388.17 332.131 390.618 315.397 382.919 303.93C381.663 301.964 380.145 300.165 378.46 298.533C372.541 292.614 363.913 289.989 355.626 290.729V290.729Z" fill="black" fill-opacity="0.31373"/>
<path fill-rule="evenodd" clip-rule="evenodd" d="M378.729 295.994C380.726 289.8 390.8 284.077 393.784 286.231C396.769 288.392 397.002 293.528 396.472 294.289C395.949 295.044 390.56 292.715 387.161 295.523C383.769 298.322 382.063 300.716 382.063 300.716L378.729 295.994Z" fill="url(#paint3_linear_909_501)" stroke="black" stroke-width="0.8"/>
<path fill-rule="evenodd" clip-rule="evenodd" d="M395.84 288.922C395.905 289.597 395.811 290.155 395.629 290.373C395.114 290.989 389.95 290.387 386.638 292.948C383.334 295.508 381.663 297.467 381.663 297.467L379.02 295.247C378.918 295.501 378.809 295.748 378.729 295.994L382.063 300.723C382.063 300.723 383.769 298.322 387.161 295.515C390.56 292.716 395.949 295.044 396.472 294.282C396.835 293.767 396.835 291.185 395.84 288.922V288.922Z" fill="black" fill-opacity="0.31373"/>
<path d="M381.053 296.03C371.11 286.195 354.631 283.656 343.04 291.033C340.418 292.476 341.21 296.096 341.239 296.038C345.618 292.578 350.157 296.386 356.12 300.658C363.419 305.888 371.444 313.91 377.334 321.707C381.459 327.162 384.408 332.522 382.047 336.272C382.171 336.308 385.599 337.273 387.168 334.081C395.069 319.205 390.603 304.916 381.053 296.03V296.03Z" fill="url(#paint4_linear_909_501)" stroke="black" stroke-width="0.8" stroke-linecap="round" stroke-linejoin="round"/>
<path d="M380.268 294.935C383.42 303.102 383.006 310.827 379.005 318.284C378.097 319.981 376.702 319.43 375.533 319.408C376.151 320.169 376.753 320.946 377.334 321.707C381.452 327.169 384.408 332.529 382.048 336.272C382.171 336.308 385.599 337.28 387.168 334.089C394.401 320.452 391.228 305.619 380.268 294.935V294.935Z" fill="black" fill-opacity="0.31373"/>
<path d="M339.442 310.539C340.915 313.086 341.871 315.898 342.257 318.815C342.642 321.731 342.449 324.694 341.688 327.534C340.927 330.375 339.614 333.037 337.823 335.37C336.032 337.703 333.798 339.66 331.249 341.129C328.701 342.599 325.887 343.552 322.969 343.935C320.051 344.318 317.085 344.122 314.242 343.36C311.398 342.598 308.732 341.284 306.396 339.492C304.06 337.701 302.1 335.468 300.627 332.92C299.154 330.372 298.198 327.56 297.813 324.644C297.427 321.728 297.62 318.765 298.381 315.925C299.142 313.084 300.455 310.421 302.246 308.089C304.037 305.756 306.271 303.799 308.82 302.33C311.368 300.86 314.182 299.907 317.1 299.524C320.018 299.141 322.984 299.336 325.828 300.099C328.671 300.861 331.337 302.175 333.673 303.967C336.009 305.758 337.969 307.991 339.442 310.539V310.539Z" fill="url(#paint5_linear_909_501)" stroke="black" stroke-width="0.800002" stroke-linecap="round" stroke-linejoin="round"/>
<path d="M430.215 326.633C430.215 332.574 427.854 338.272 423.651 342.473C419.449 346.674 413.748 349.035 407.805 349.035C401.862 349.035 396.161 346.674 391.959 342.473C387.756 338.272 385.395 332.574 385.395 326.633C385.395 320.692 387.756 314.994 391.959 310.793C396.161 306.592 401.862 304.232 407.805 304.232C413.748 304.232 419.449 306.592 423.651 310.793C427.854 314.994 430.215 320.692 430.215 326.633V326.633Z" fill="black" fill-opacity="0.31373"/>
<path d="M420.03 337.555C415.823 341.756 410.12 344.117 404.174 344.12C398.227 344.123 392.526 341.766 388.323 337.569C384.121 333.371 381.761 327.677 381.764 321.739C381.766 315.8 384.131 310.104 388.337 305.903C392.544 301.702 398.247 299.34 404.193 299.338C410.139 299.335 415.841 301.692 420.043 305.889C424.246 310.086 426.606 315.78 426.603 321.719C426.6 327.657 424.236 333.354 420.03 337.555Z" fill="url(#paint6_linear_909_501)" stroke="black" stroke-width="0.799998" stroke-linecap="round" stroke-linejoin="round"/>
<path d="M415.913 392.964C386.26 392.964 362.185 417.031 362.185 446.668C362.185 452.797 363.216 458.672 365.111 464.156H466.686C468.582 458.672 469.613 452.797 469.613 446.668C469.613 417.031 445.567 392.964 415.913 392.964V392.964Z" fill="url(#paint7_linear_909_501)" stroke="black" stroke-width="0.8" stroke-linecap="round" stroke-linejoin="round"/>
<path d="M308.455 392.964C278.802 392.964 254.755 417.031 254.755 446.668C254.755 452.797 255.787 458.672 257.682 464.156H359.257C361.153 458.672 362.184 452.797 362.184 446.668C362.184 417.031 338.108 392.964 308.455 392.964Z" fill="url(#paint8_linear_909_501)" stroke="black" stroke-width="0.8" stroke-linecap="round" stroke-linejoin="round"/>
<path d="M356.67 201.195C356.671 203.815 356.155 206.411 355.153 208.832C354.151 211.254 352.681 213.454 350.827 215.308C348.974 217.161 346.773 218.631 344.351 219.635C341.929 220.638 339.333 221.154 336.712 221.154C334.09 221.154 331.494 220.638 329.072 219.635C326.65 218.631 324.45 217.161 322.596 215.308C320.743 213.454 319.273 211.254 318.27 208.832C317.268 206.411 316.753 203.815 316.754 201.195C316.753 198.574 317.268 195.979 318.27 193.557C319.273 191.136 320.743 188.935 322.596 187.082C324.45 185.228 326.65 183.758 329.072 182.755C331.494 181.751 334.09 181.235 336.712 181.235C339.333 181.235 341.929 181.751 344.351 182.755C346.773 183.758 348.974 185.228 350.827 187.082C352.681 188.935 354.151 191.136 355.153 193.557C356.155 195.979 356.671 198.574 356.67 201.195V201.195Z" fill="white" stroke="black" stroke-width="0.800004" stroke-linecap="round" stroke-linejoin="round"/>
<path d="M400.869 201.195C400.871 203.815 400.355 206.411 399.353 208.832C398.35 211.254 396.881 213.454 395.027 215.308C393.174 217.161 390.973 218.631 388.551 219.635C386.129 220.638 383.533 221.154 380.911 221.154C378.29 221.154 375.694 220.638 373.272 219.635C370.85 218.631 368.649 217.161 366.796 215.308C364.942 213.454 363.473 211.254 362.47 208.832C361.468 206.411 360.952 203.815 360.954 201.195C360.952 198.574 361.468 195.979 362.47 193.557C363.473 191.136 364.942 188.935 366.796 187.082C368.649 185.228 370.85 183.758 373.272 182.755C375.694 181.751 378.29 181.235 380.911 181.235C383.533 181.235 386.129 181.751 388.551 182.755C390.973 183.758 393.174 185.228 395.027 187.082C396.881 188.935 398.35 191.136 399.353 193.557C400.355 195.979 400.871 198.574 400.869 201.195Z" fill="white" stroke="black" stroke-width="0.800004" stroke-linecap="round" stroke-linejoin="round"/>
<path d="M350.487 203.618C350.487 204.465 350.321 205.304 349.998 206.086C349.674 206.868 349.199 207.579 348.601 208.178C348.002 208.777 347.291 209.252 346.509 209.577C345.726 209.901 344.887 210.068 344.04 210.068C343.194 210.068 342.355 209.901 341.572 209.577C340.79 209.252 340.079 208.777 339.48 208.178C338.882 207.579 338.407 206.868 338.083 206.086C337.76 205.304 337.594 204.465 337.594 203.618C337.594 202.772 337.76 201.933 338.083 201.151C338.407 200.369 338.882 199.658 339.48 199.059C340.079 198.46 340.79 197.985 341.572 197.66C342.355 197.336 343.194 197.169 344.04 197.169C344.887 197.169 345.726 197.336 346.509 197.66C347.291 197.985 348.002 198.46 348.601 199.059C349.199 199.658 349.674 200.369 349.998 201.151C350.321 201.933 350.487 202.772 350.487 203.618V203.618Z" fill="black"/>
<path d="M379.973 203.618C379.973 204.465 379.807 205.304 379.483 206.086C379.16 206.868 378.685 207.579 378.086 208.178C377.488 208.777 376.777 209.252 375.994 209.577C375.212 209.901 374.373 210.068 373.526 210.068C372.679 210.068 371.841 209.901 371.058 209.577C370.276 209.252 369.565 208.777 368.966 208.178C368.368 207.579 367.893 206.868 367.569 206.086C367.246 205.304 367.079 204.465 367.08 203.618C367.079 202.772 367.246 201.933 367.569 201.151C367.893 200.369 368.368 199.658 368.966 199.059C369.565 198.46 370.276 197.985 371.058 197.66C371.841 197.336 372.679 197.169 373.526 197.169C374.373 197.169 375.212 197.336 375.994 197.66C376.777 197.985 377.488 198.46 378.086 199.059C378.685 199.658 379.16 200.369 379.483 201.151C379.807 201.933 379.973 202.772 379.973 203.618Z" fill="black"/>
<path fill-rule="evenodd" clip-rule="evenodd" d="M348.494 239.469C351.748 235.995 365.569 235.24 368.459 239.897C371.35 244.561 364.124 254.222 358.473 253.787C352.852 253.352 345.444 242.711 348.494 239.469Z" fill="black"/>
<path fill-rule="evenodd" clip-rule="evenodd" d="M312.145 168.647C310.002 137.661 278.076 130.603 276.536 134.281C275.004 137.965 282.368 179.389 312.145 168.647Z" fill="#74401B" stroke="black" stroke-width="0.8" stroke-linejoin="round"/>
<path fill-rule="evenodd" clip-rule="evenodd" d="M403.131 168.647C405.273 137.661 437.2 130.603 438.739 134.281C440.272 137.965 432.9 179.389 403.131 168.647Z" fill="url(#paint9_linear_909_501)" stroke="black" stroke-width="0.8" stroke-linejoin="round"/>
<path d="M303.697 448.656C303.697 453.18 302.182 457.519 299.484 460.719C296.786 463.918 293.128 465.715 289.312 465.715C285.497 465.715 281.839 463.918 279.141 460.719C276.443 457.519 274.928 453.18 274.928 448.656C274.928 444.131 276.443 439.792 279.141 436.592C281.839 433.393 285.497 431.596 289.312 431.596C293.128 431.596 296.786 433.393 299.484 436.592C302.182 439.792 303.697 444.131 303.697 448.656V448.656Z" fill="url(#paint10_linear_909_501)" stroke="black" stroke-width="0.734432" stroke-linecap="round" stroke-linejoin="round"/>
<path d="M339.778 448.656C339.778 453.18 338.262 457.519 335.564 460.719C332.867 463.918 329.208 465.715 325.393 465.715C321.578 465.715 317.919 463.918 315.221 460.719C312.524 457.519 311.008 453.18 311.008 448.656C311.008 444.131 312.524 439.792 315.221 436.592C317.919 433.393 321.578 431.596 325.393 431.596C329.208 431.596 332.867 433.393 335.564 436.592C338.262 439.792 339.778 444.131 339.778 448.656V448.656Z" fill="url(#paint11_linear_909_501)" stroke="black" stroke-width="0.734432" stroke-linecap="round" stroke-linejoin="round"/>
<path d="M322.71 448.656C322.71 453.18 321.195 457.519 318.497 460.719C315.799 463.918 312.141 465.715 308.326 465.715C304.511 465.715 300.852 463.918 298.154 460.719C295.456 457.519 293.941 453.18 293.941 448.656C293.941 444.131 295.456 439.792 298.154 436.592C300.852 433.393 304.511 431.596 308.326 431.596C312.141 431.596 315.799 433.393 318.497 436.592C321.195 439.792 322.71 444.131 322.71 448.656V448.656Z" fill="url(#paint12_linear_909_501)" stroke="black" stroke-width="0.734432" stroke-linecap="round" stroke-linejoin="round"/>
<path d="M414.385 448.656C414.385 453.18 412.87 457.519 410.172 460.719C407.474 463.918 403.815 465.715 400 465.715C396.185 465.715 392.527 463.918 389.829 460.719C387.131 457.519 385.616 453.18 385.616 448.656C385.616 444.131 387.131 439.792 389.829 436.592C392.527 433.393 396.185 431.596 400 431.596C403.815 431.596 407.474 433.393 410.172 436.592C412.87 439.792 414.385 444.131 414.385 448.656V448.656Z" fill="url(#paint13_linear_909_501)" stroke="black" stroke-width="0.734432" stroke-linecap="round" stroke-linejoin="round"/>
<path d="M450.47 448.656C450.47 453.18 448.955 457.519 446.257 460.719C443.559 463.918 439.9 465.715 436.085 465.715C432.27 465.715 428.612 463.918 425.914 460.719C423.216 457.519 421.701 453.18 421.701 448.656C421.701 444.131 423.216 439.792 425.914 436.592C428.612 433.393 432.27 431.596 436.085 431.596C439.9 431.596 443.559 433.393 446.257 436.592C448.955 439.792 450.47 444.131 450.47 448.656V448.656Z" fill="url(#paint14_linear_909_501)" stroke="black" stroke-width="0.734432" stroke-linecap="round" stroke-linejoin="round"/>
<path d="M433.402 448.656C433.402 453.18 431.887 457.519 429.189 460.719C426.491 463.918 422.833 465.715 419.018 465.715C415.202 465.715 411.544 463.918 408.846 460.719C406.148 457.519 404.633 453.18 404.633 448.656C404.633 444.131 406.148 439.792 408.846 436.592C411.544 433.393 415.202 431.596 419.018 431.596C422.833 431.596 426.491 433.393 429.189 436.592C431.887 439.792 433.402 444.131 433.402 448.656V448.656Z" fill="url(#paint15_linear_909_501)" stroke="black" stroke-width="0.734432" stroke-linecap="round" stroke-linejoin="round"/>
<path d="M415.092 182.45C416.204 187.049 416.799 191.865 416.799 196.797C416.799 230.504 389.412 269.548 355.691 269.548C331.115 269.548 309.944 248.797 300.256 224.491C307.758 252.554 331.129 278.869 358.8 278.869C392.52 278.869 419.908 239.795 419.908 206.089C419.908 197.704 418.194 189.725 415.121 182.45H415.092Z" fill="black" fill-opacity="0.31373"/>
<path d="M327.091 327.097C328.089 327.673 328.978 328.416 329.707 329.284C330.436 330.152 330.991 331.128 331.339 332.155C331.687 333.182 331.822 334.241 331.737 335.271C331.651 336.301 331.347 337.283 330.841 338.159C330.335 339.035 329.637 339.79 328.787 340.379C327.937 340.968 326.952 341.38 325.888 341.592C324.824 341.805 323.702 341.812 322.585 341.615C321.469 341.418 320.38 341.02 319.382 340.444C318.383 339.867 317.494 339.124 316.765 338.256C316.036 337.388 315.482 336.413 315.133 335.386C314.785 334.358 314.65 333.299 314.735 332.269C314.821 331.239 315.125 330.258 315.631 329.381C316.138 328.505 316.836 327.751 317.685 327.162C318.535 326.573 319.52 326.16 320.584 325.948C321.648 325.736 322.771 325.728 323.887 325.925C325.003 326.122 326.092 326.52 327.091 327.097V327.097Z" fill="url(#paint16_linear_909_501)" stroke="black" stroke-width="0.734456" stroke-linecap="round" stroke-linejoin="round"/>
<path d="M336.757 310.356C338.773 311.52 340.302 313.34 341.005 315.414C341.708 317.489 341.529 319.649 340.507 321.418C339.485 323.188 337.703 324.423 335.554 324.852C333.405 325.28 331.065 324.867 329.048 323.703C327.031 322.539 325.503 320.72 324.799 318.645C324.096 316.57 324.275 314.411 325.298 312.641C326.32 310.871 328.101 309.636 330.25 309.207C332.399 308.779 334.74 309.192 336.757 310.356V310.356Z" fill="url(#paint17_linear_909_501)" stroke="black" stroke-width="0.734456" stroke-linecap="round" stroke-linejoin="round"/>
<path d="M336.074 321.098C338.091 322.262 339.619 324.082 340.322 326.156C341.026 328.231 340.846 330.391 339.824 332.161C338.802 333.931 337.02 335.166 334.871 335.594C332.722 336.022 330.382 335.609 328.365 334.445C326.348 333.281 324.82 331.462 324.117 329.387C323.413 327.313 323.593 325.153 324.615 323.383C325.637 321.613 327.419 320.378 329.568 319.95C331.717 319.521 334.057 319.934 336.074 321.098V321.098Z" fill="url(#paint18_linear_909_501)" stroke="black" stroke-width="0.734456" stroke-linecap="round" stroke-linejoin="round"/>
<path d="M396.577 325.694C395.463 325.993 394.411 326.481 393.482 327.131C392.553 327.781 391.765 328.579 391.162 329.482C390.56 330.384 390.155 331.372 389.97 332.389C389.786 333.406 389.826 334.433 390.088 335.41C390.349 336.387 390.828 337.296 391.496 338.085C392.164 338.874 393.009 339.527 393.982 340.007C394.955 340.487 396.037 340.784 397.166 340.882C398.295 340.981 399.45 340.877 400.564 340.579C401.678 340.28 402.73 339.792 403.659 339.142C404.588 338.492 405.376 337.693 405.978 336.791C406.581 335.889 406.986 334.901 407.171 333.884C407.355 332.867 407.315 331.84 407.053 330.863C406.792 329.885 406.313 328.976 405.645 328.188C404.977 327.399 404.132 326.746 403.159 326.266C402.186 325.786 401.104 325.489 399.975 325.39C398.845 325.292 397.691 325.395 396.577 325.694V325.694Z" fill="url(#paint19_linear_909_501)" stroke="black" stroke-width="0.734456" stroke-linecap="round" stroke-linejoin="round"/>
<path d="M391.58 307.024C390.466 307.322 389.414 307.811 388.485 308.46C387.556 309.11 386.768 309.909 386.165 310.811C385.563 311.714 385.158 312.702 384.973 313.719C384.789 314.736 384.829 315.763 385.09 316.74C385.352 317.717 385.831 318.626 386.499 319.415C387.167 320.204 388.012 320.857 388.985 321.337C389.958 321.817 391.04 322.114 392.169 322.212C393.298 322.31 394.453 322.207 395.567 321.909C397.817 321.306 399.764 319.943 400.981 318.121C402.198 316.299 402.585 314.166 402.056 312.193C401.528 310.219 400.127 308.565 398.162 307.596C396.197 306.627 393.83 306.421 391.58 307.024V307.024Z" fill="url(#paint20_linear_909_501)" stroke="black" stroke-width="0.734456" stroke-linecap="round" stroke-linejoin="round"/>
<path d="M389.46 317.577C387.21 318.18 385.262 319.543 384.045 321.365C382.828 323.187 382.442 325.32 382.97 327.293C383.499 329.267 384.9 330.921 386.865 331.89C388.829 332.859 391.197 333.065 393.447 332.462C395.697 331.859 397.644 330.497 398.861 328.675C400.078 326.852 400.465 324.72 399.936 322.746C399.674 321.769 399.196 320.86 398.528 320.071C397.859 319.282 397.015 318.629 396.042 318.149C394.077 317.18 391.709 316.974 389.46 317.577V317.577Z" fill="url(#paint21_linear_909_501)" stroke="black" stroke-width="0.734456" stroke-linecap="round" stroke-linejoin="round"/>
<path d="M812.657 351.008L764.335 336.216C763.267 335.889 762.145 335.769 761.031 335.864L516.129 356.707C512.638 357.004 511.76 361.714 514.911 363.248L522.755 367.07H522.546V550.022H529.938V370.57L554.524 382.547C556.405 383.464 558.504 383.838 560.586 383.627L563.202 383.363V550.022H570.594V382.617L760.014 363.483V550.022H767.406V362.737L798.822 359.563V550.022H806.214V358.817L811.945 358.238C815.969 357.831 816.524 352.192 812.657 351.008Z" fill="#3F3D56"/>
<path d="M587.226 355.982C591.846 355.982 660.222 347.666 660.222 347.666L670.386 361.526L599.238 375.386L587.226 355.982Z" fill="white"/>
<path d="M662.269 542.917L650.39 542.895L644.817 497.064L662.35 497.096L662.269 542.917Z" fill="#A0616A"/>
<path d="M621.569 542.578C621.198 543.2 621 545.21 620.999 545.935C620.995 548.161 622.797 549.97 625.024 549.973L661.813 550.036C663.332 550.039 664.565 548.81 664.568 547.291L664.571 545.759C664.571 545.759 666.398 541.159 662.661 535.478C662.661 535.478 657.997 539.913 651.05 532.943L649.004 529.222L634.132 540.06L625.897 541.059C624.095 541.277 622.499 541.019 621.569 542.578Z" fill="#2F2E41"/>
<path d="M726.027 521.605L716.654 528.674L684.925 495.887L698.758 485.453L726.027 521.605Z" fill="#A0616A"/>
<path d="M693.757 545.615C693.836 546.327 694.878 548.029 695.31 548.601C696.635 550.357 699.133 550.707 700.89 549.382L729.915 527.487C731.113 526.583 731.352 524.878 730.448 523.68L729.536 522.471C729.536 522.471 728.232 517.756 721.899 515.51C721.899 515.51 720.869 521.786 711.238 520.438L707.407 518.726L702.153 536.137L696.261 541.837C694.972 543.084 693.559 543.832 693.757 545.615Z" fill="#2F2E41"/>
<path d="M701.2 284.74C701.2 295.695 692.32 304.575 681.365 304.575C670.41 304.575 661.529 295.695 661.529 284.74C661.529 273.785 670.41 264.904 681.365 264.904C692.32 264.904 701.2 273.785 701.2 284.74Z" fill="#A0616A"/>
<path d="M699.331 399.107C699.331 399.107 626.3 394.973 622.166 403.241C618.032 411.508 644.514 525.074 644.514 525.074L668.14 520.122L656.615 440.446C656.615 440.446 717.558 456.586 725.826 437.294C734.094 418.003 731.713 410.819 731.713 410.819L699.331 399.107Z" fill="#2F2E41"/>
<path d="M718.043 385.229C718.043 385.229 646.519 400.562 644.72 409.628C642.92 418.695 698.501 521.21 698.501 521.21L719.976 510.184L687.783 436.395C687.783 436.395 750.825 435.838 753.695 415.047C756.565 394.256 752.37 387.958 752.37 387.958L718.043 385.229Z" fill="#2F2E41"/>
<path d="M726.201 307.472H691.839L668.327 346.055C668.327 346.055 662.815 370.989 668.327 373.68C673.839 376.37 673.839 405.308 673.839 405.308L731.713 410.819C731.713 410.819 739.981 324.008 737.225 315.74C734.469 307.472 726.201 307.472 726.201 307.472Z" fill="#2FA4DA"/>
<path d="M671.772 332.965L668.327 373.679L629.579 357.235L620.332 352.584C618.521 350.222 616.17 348.328 613.477 347.061C606.779 343.797 599.669 344.605 597.593 348.866C595.516 353.127 599.26 359.226 605.955 362.488C608.614 363.829 611.555 364.513 614.532 364.484L641.59 379.852L641.622 379.792L641.742 380.006L684.174 397.729L693.937 344.28L671.772 332.965Z" fill="#A0616A"/>
<path d="M667.638 287.492C667.638 287.492 646.969 290.248 655.236 272.334C655.236 272.334 653.976 262.624 660.118 261.967C666.26 261.311 674.528 250.287 674.528 250.287C674.528 250.287 693.483 240.641 703.297 250.287C713.111 259.933 742.048 316.429 742.048 316.429L722.756 337.098C722.756 337.098 711.159 306.61 697.666 310.141C684.173 313.673 671.772 324.203 671.772 324.203C671.772 324.203 658.079 317.351 664.236 311.378C670.394 305.405 667.638 287.492 667.638 287.492Z" fill="#2F2E41"/>
<path d="M695.197 317.807C695.197 317.807 685.552 305.405 678.662 315.051C671.772 324.697 666.26 337.098 666.26 337.098L693.819 346.744L695.197 317.807Z" fill="#2FA4DA"/>
<path d="M799.836 547.279L767.817 445.509L767.821 445.508H767.895L767.766 445.342L767.763 445.338L765.483 438.09L765.484 438.089C768.958 435.095 771.323 430.817 771.795 425.892L757.159 345.393C758.166 334.823 750.062 325.583 739.445 325.204L706.422 325.121C697.034 324.788 688.903 331.57 687.535 340.866L686.805 345.8L676.688 414.628C676.318 417.105 676.466 419.544 677.048 421.826L669.767 422.778L667.558 423.074L658.827 424.21L658.799 424.219L657.709 424.358H656.526V453.926H656.6V548.433C656.6 549.042 657.099 549.541 657.709 549.541C658.328 549.541 658.827 549.042 658.827 548.433V453.926H671.781L684.708 548.322C684.791 548.876 685.262 549.283 685.817 549.283C685.863 549.283 685.918 549.283 685.964 549.273C686.574 549.19 686.999 548.627 686.916 548.017L674.036 453.926H736.193C742.365 453.926 748.084 451.967 752.74 448.614L777.385 548.148C777.513 548.652 777.966 548.987 778.463 548.987C778.554 548.987 778.646 548.976 778.738 548.953C779.334 548.801 779.694 548.195 779.542 547.6L754.659 447.102C754.99 446.827 755.321 446.532 755.634 446.229L765.527 445.647L797.713 547.947C797.862 548.422 798.301 548.727 798.774 548.727C798.885 548.727 798.997 548.71 799.108 548.675C799.695 548.49 800.02 547.865 799.836 547.279ZM763.368 439.669C763.451 439.623 763.525 439.567 763.599 439.521L763.837 440.276L763.368 439.669Z" fill="#E6E6E6"/>
<path d="M171.565 374.775L193.114 361.071L201.875 366.355L171.565 401.183V374.775Z" fill="#FFB6B6"/>
<path d="M142.097 321.733C142.097 321.733 127.785 325.1 134.52 344.465C141.256 363.83 163.146 404.243 169.882 401.717C176.617 399.191 177.459 373.933 177.459 373.933C177.459 373.933 176.617 374.775 173.249 371.407C169.882 368.039 169.882 369.577 169.882 365.861C169.882 362.146 167.127 359.391 167.127 359.391L163.988 352.884C163.988 352.884 163.988 322.574 151.359 320.891C138.73 319.207 142.097 321.733 142.097 321.733Z" fill="#E6E6E6"/>
<path d="M208.968 365.45C214.558 359.86 216.29 352.53 212.838 349.078C209.386 345.626 202.056 347.358 196.466 352.948C190.876 358.537 189.144 365.867 192.596 369.32C196.049 372.772 203.379 371.04 208.968 365.45Z" fill="#FFB6B6"/>
<path d="M86.3481 433.29L101.052 457.628L186.742 452.557L163.925 423.149L86.3481 433.29Z" fill="#E6E6E6"/>
<path d="M111.952 547.12C111.453 547.12 111.018 546.751 110.949 546.243L85.3435 359.236C85.2675 358.681 85.6557 358.17 86.2105 358.094C86.7651 358.014 87.2766 358.406 87.3528 358.961L112.958 545.968C113.034 546.523 112.646 547.035 112.091 547.11C112.044 547.117 111.998 547.12 111.952 547.12Z" fill="#E6E6E6"/>
<path d="M86.3481 547.357C85.788 547.357 85.334 546.903 85.334 546.343V359.135C85.334 358.575 85.788 358.121 86.3481 358.121C86.9081 358.121 87.3621 358.575 87.3621 359.135V546.343C87.3621 546.903 86.9081 547.357 86.3481 547.357Z" fill="#E6E6E6"/>
<path d="M214.882 546.613C214.451 546.613 214.051 546.336 213.915 545.903L153.324 353.319C153.156 352.784 153.453 352.215 153.987 352.047C154.521 351.879 155.091 352.176 155.258 352.71L215.849 545.294C216.017 545.829 215.721 546.398 215.186 546.566C215.085 546.598 214.983 546.613 214.882 546.613Z" fill="#E6E6E6"/>
<path d="M196.375 546.851C195.922 546.851 195.509 546.546 195.392 546.087L153.308 376.117C153.17 375.575 153.498 375.022 154.041 374.884C154.586 374.747 155.136 375.074 155.274 375.617L197.358 545.586C197.496 546.129 197.168 546.681 196.625 546.819C196.541 546.841 196.457 546.851 196.375 546.851Z" fill="#E6E6E6"/>
<path d="M86.3481 362.117L156.573 361.037L169.502 434.811H87.3622L86.3481 362.117Z" fill="#E6E6E6"/>
<path d="M194.266 470.596L176.568 501.755L197.117 506.279L205.683 484.118L194.266 470.596Z" fill="#FFB6B6"/>
<path d="M182.924 495.872C182.924 495.872 182.237 490.791 178.194 492.404C174.151 494.016 162.482 500.009 162.482 500.009C162.482 500.009 192.916 549.459 198.692 547.156C204.467 544.852 197.553 530.874 197.553 530.874L199.079 506.165L182.924 495.872Z" fill="#2F2E41"/>
<path d="M115.997 410.136C115.997 410.136 109.683 439.183 129.047 449.286C148.412 459.39 214.504 434.552 214.504 434.552L184.194 479.967L205.243 488.436C205.243 488.436 253.233 425.291 249.866 415.188C246.498 405.084 223.765 404.242 223.765 404.242L172.407 406.768L158.936 402.559L115.997 410.136Z" fill="#2F2E41"/>
<path d="M168.083 484.425L140.261 507.008L157.755 518.699L173.798 501.174L168.083 484.425Z" fill="#FFB6B6"/>
<path d="M148.322 503.841C148.322 503.841 149.53 498.858 145.178 498.889C140.825 498.92 127.776 500.256 127.776 500.256C127.776 500.256 138.129 557.391 144.347 557.347C150.565 557.303 149.212 541.767 149.212 541.767L159.624 519.307L148.322 503.841Z" fill="#2F2E41"/>
<path d="M117.181 399.629C117.181 399.629 100.73 424.387 115.09 440.844C129.451 457.301 200.05 458.217 200.05 458.217L155.292 489.489L171.816 505.037C171.816 505.037 239.494 463.683 240.034 453.047C240.573 442.411 219.706 433.355 219.706 433.355L170.949 417.019L159.933 408.196L117.181 399.629Z" fill="#2F2E41"/>
<path d="M159.443 342.284C159.443 342.284 143.447 336.391 135.869 336.391C135.145 336.391 134.429 336.475 133.714 336.626C128.864 337.654 124.402 341.821 122.263 344.094C121.43 344.987 120.95 345.585 120.95 345.585C120.95 345.585 121 345.004 121.101 343.985C121.598 338.63 123.434 321.059 126.726 309.811C127.904 305.795 129.26 302.587 130.817 301.029C134.446 297.392 136.122 293.031 136.896 289.781C137.553 286.994 137.553 285.032 137.553 285.032L131.415 282.389L130.279 274.963C130.076 275.838 129.142 277.547 126.002 280.823C125.732 281.1 125.437 281.336 125.126 281.538C120.596 284.384 111.36 279.433 106.384 276.318C108.455 269.12 112.211 262.536 119.03 261.458C135.027 258.932 135.027 249.671 145.13 259.774C145.964 260.608 146.806 261.408 147.648 262.182C150.881 268.362 152.06 276.647 152.481 282.405C152.784 286.438 152.708 289.242 152.708 289.242C152.708 289.242 156.918 314.5 163.653 319.552C170.389 324.604 159.443 342.284 159.443 342.284Z" fill="#2F2E41"/>
<path d="M128.292 301.871L116.916 318.558L142.605 325.445V301.871H128.292Z" fill="#FFB6B6"/>
<path opacity="0.1" d="M128.292 301.871L116.916 318.558L142.605 325.445V301.871H128.292Z" fill="black"/>
<path d="M144.202 317.944L119.786 307.84C119.786 307.84 86.9502 322.153 89.476 349.937C92.0018 377.721 115.576 425.712 115.576 425.712L162.725 405.505L157.673 351.621L144.202 317.944Z" fill="#E6E6E6"/>
<path d="M133.733 309.321C145.63 309.321 155.274 299.677 155.274 287.78C155.274 275.883 145.63 266.239 133.733 266.239C121.837 266.239 112.192 275.883 112.192 287.78C112.192 299.677 121.837 309.321 133.733 309.321Z" fill="#FFB6B6"/>
<path d="M162.811 279.981C158.601 284.19 155.234 288.4 155.234 288.4L153.55 281.665C153.55 281.665 153.162 281.951 152.48 282.405C149.812 284.224 142.647 288.796 136.896 289.781C134.337 290.219 132.063 289.941 130.582 288.4C127.441 285.125 126.507 283.416 126.305 282.54L125.168 289.966L119.03 292.61C119.03 292.61 119.03 301.854 125.766 308.607C126.094 308.935 126.414 309.339 126.726 309.811C129.942 314.66 132.249 326.532 133.714 336.626C135.01 345.602 135.633 353.162 135.633 353.162C135.633 353.162 129.26 345.181 122.263 344.094C121.876 344.035 121.489 343.993 121.101 343.985C120.975 343.968 120.84 343.968 120.714 343.968C113.137 343.968 97.1398 349.862 97.1398 349.862C97.1398 349.862 86.1945 332.181 92.93 327.129C99.6656 322.078 103.875 296.82 103.875 296.82C103.875 296.82 103.597 286.009 106.384 276.318C108.455 269.12 112.211 262.536 119.03 261.458C135.027 258.932 135.027 249.671 145.13 259.774C145.964 260.608 146.806 261.408 147.648 262.182C157.061 270.837 166.676 276.116 162.811 279.981Z" fill="#2F2E41"/>
<path d="M68.334 393H60.334V551H68.334V393Z" fill="#3F3D56"/>
<path d="M262.334 393H254.334V551H262.334V393Z" fill="#3F3D56"/>
<path d="M211.334 326H158.334V379H211.334V326Z" fill="#2FA4DA"/>
<path d="M127.785 382.352L149.334 368.648L158.095 373.933L127.785 408.761V382.352Z" fill="#FFB6B6"/>
<path d="M98.3167 329.31C98.3167 329.31 84.0037 332.678 90.7393 352.042C97.4748 371.407 119.365 411.82 126.101 409.294C132.836 406.768 133.678 381.51 133.678 381.51C133.678 381.51 132.836 382.352 129.469 378.984C126.101 375.617 126.101 377.155 126.101 373.439C126.101 369.723 123.346 366.969 123.346 366.969L120.207 360.462C120.207 360.462 120.207 330.152 107.578 328.468C94.949 326.784 98.3167 329.31 98.3167 329.31Z" fill="#E6E6E6"/>
<path d="M165.187 373.027C170.777 367.438 172.51 360.108 169.057 356.655C165.605 353.203 158.275 354.936 152.685 360.525C147.096 366.115 145.363 373.445 148.816 376.897C152.268 380.349 159.598 378.617 165.187 373.027Z" fill="#FFB6B6"/>
<path d="M278.334 387H36.334V405H278.334V387Z" fill="#3F3D56"/>
<path d="M599.204 257.74H563.464C560.631 257.74 558.334 260.037 558.334 262.87V262.87C558.334 265.703 560.631 268 563.464 268H599.204C602.037 268 604.334 265.703 604.334 262.87V262.87C604.334 260.037 602.037 257.74 599.204 257.74Z" fill="#2FA4DA"/>
</g>
<defs>
<linearGradient id="paint0_linear_909_501" x1="283.261" y1="239.472" x2="545.71" y2="239.472" gradientUnits="userSpaceOnUse">
<stop stop-color="#D07839"/>
</linearGradient>
<linearGradient id="paint1_linear_909_501" x1="238.548" y1="342.005" x2="478.431" y2="342.005" gradientUnits="userSpaceOnUse">
<stop stop-color="#D07839"/>
</linearGradient>
<linearGradient id="paint2_linear_909_501" x1="253.999" y1="201.886" x2="461.698" y2="201.886" gradientUnits="userSpaceOnUse">
<stop stop-color="#D07839"/>
</linearGradient>
<linearGradient id="paint3_linear_909_501" x1="7.86192" y1="382.985" x2="8.61535" y2="385.455" gradientUnits="userSpaceOnUse">
<stop stop-color="#74401B"/>
</linearGradient>
<linearGradient id="paint4_linear_909_501" x1="7.0766" y1="377.571" x2="9.17874" y2="384.462" gradientUnits="userSpaceOnUse">
<stop stop-color="#74401B"/>
</linearGradient>
<linearGradient id="paint5_linear_909_501" x1="306.464" y1="-364.233" x2="323.562" y2="-359.639" gradientUnits="userSpaceOnUse">
<stop stop-color="#D07839"/>
</linearGradient>
<linearGradient id="paint6_linear_909_501" x1="338.567" y1="-355.653" x2="355.668" y2="-351.058" gradientUnits="userSpaceOnUse">
<stop stop-color="#D07839"/>
</linearGradient>
<linearGradient id="paint7_linear_909_501" x1="321.488" y1="-321.887" x2="362.46" y2="-310.878" gradientUnits="userSpaceOnUse">
<stop stop-color="#D07839"/>
</linearGradient>
<linearGradient id="paint8_linear_909_501" x1="280.501" y1="-332.839" x2="321.473" y2="-321.83" gradientUnits="userSpaceOnUse">
<stop stop-color="#D07839"/>
</linearGradient>
<linearGradient id="paint9_linear_909_501" x1="-59.7312" y1="407.27" x2="-58.23" y2="412.192" gradientUnits="userSpaceOnUse">
<stop stop-color="#74401B"/>
</linearGradient>
<linearGradient id="paint10_linear_909_501" x1="69.909" y1="348.46" x2="71.1155" y2="352.415" gradientUnits="userSpaceOnUse">
<stop stop-color="#74401B"/>
</linearGradient>
<linearGradient id="paint11_linear_909_501" x1="71.0951" y1="353.521" x2="72.3015" y2="357.476" gradientUnits="userSpaceOnUse">
<stop stop-color="#74401B"/>
</linearGradient>
<linearGradient id="paint12_linear_909_501" x1="70.5342" y1="351.127" x2="71.7407" y2="355.082" gradientUnits="userSpaceOnUse">
<stop stop-color="#74401B"/>
</linearGradient>
<linearGradient id="paint13_linear_909_501" x1="73.5449" y1="363.984" x2="74.7513" y2="367.939" gradientUnits="userSpaceOnUse">
<stop stop-color="#74401B"/>
</linearGradient>
<linearGradient id="paint14_linear_909_501" x1="74.7296" y1="369.045" x2="75.936" y2="373" gradientUnits="userSpaceOnUse">
<stop stop-color="#74401B"/>
</linearGradient>
<linearGradient id="paint15_linear_909_501" x1="74.1683" y1="366.651" x2="75.3748" y2="370.606" gradientUnits="userSpaceOnUse">
<stop stop-color="#74401B"/>
</linearGradient>
<linearGradient id="paint16_linear_909_501" x1="23.7214" y1="368.528" x2="24.4364" y2="370.872" gradientUnits="userSpaceOnUse">
<stop stop-color="#74401B"/>
</linearGradient>
<linearGradient id="paint17_linear_909_501" x1="16.5235" y1="372.175" x2="17.2386" y2="374.52" gradientUnits="userSpaceOnUse">
<stop stop-color="#74401B"/>
</linearGradient>
<linearGradient id="paint18_linear_909_501" x1="21.3229" y1="370.609" x2="22.038" y2="372.953" gradientUnits="userSpaceOnUse">
<stop stop-color="#74401B"/>
</linearGradient>
<linearGradient id="paint19_linear_909_501" x1="25.9959" y1="379.125" x2="26.7268" y2="381.521" gradientUnits="userSpaceOnUse">
<stop stop-color="#74401B"/>
</linearGradient>
<linearGradient id="paint20_linear_909_501" x1="17.4518" y1="380.981" x2="18.1826" y2="383.377" gradientUnits="userSpaceOnUse">
<stop stop-color="#74401B"/>
</linearGradient>
<linearGradient id="paint21_linear_909_501" x1="22.1194" y1="379.238" x2="22.8503" y2="381.634" gradientUnits="userSpaceOnUse">
<stop stop-color="#74401B"/>
</linearGradient>
<clipPath id="clip0_909_501">
<rect width="851.034" height="557.347" fill="white"/>
</clipPath>
</defs>
</svg>
