<svg width="843" height="573" viewBox="0 0 843 573" fill="none" xmlns="http://www.w3.org/2000/svg">
<g clip-path="url(#clip0_310_2)">
<path d="M756.019 559.405C737.118 573.021 712.625 573.705 688.949 572.032C685.643 571.799 682.36 571.525 679.108 571.23C679.088 571.225 679.062 571.227 679.042 571.221C678.886 571.207 678.729 571.192 678.58 571.183C677.909 571.12 677.237 571.057 676.572 570.994L676.729 571.294L677.222 572.224C677.045 571.913 676.868 571.608 676.691 571.297C676.639 571.203 676.58 571.11 676.528 571.017C670.395 560.343 664.312 549.278 662.76 537.091C661.156 524.44 665.664 510.116 676.797 503.899C678.258 503.086 679.804 502.438 681.408 501.968C682.073 501.765 682.748 501.601 683.431 501.456C687.606 500.529 691.954 500.731 696.025 502.04C700.097 503.35 703.746 505.721 706.598 508.909C709.45 512.097 711.401 515.986 712.251 520.178C713.102 524.37 712.82 528.713 711.435 532.76C720.874 523.081 719.114 507.379 715.858 494.256C712.595 481.133 708.646 466.531 715.281 454.744C718.97 448.184 725.456 444.113 732.736 442.474C732.959 442.425 733.182 442.377 733.406 442.336C742.079 440.579 751.095 442.159 758.655 446.76C772.573 455.531 779.722 472.161 782.043 488.452C785.781 514.667 777.508 543.923 756.019 559.405Z" fill="#F2F2F2"/>
<path d="M749.917 517.382C749.368 523.164 747.979 528.836 745.793 534.217C743.779 538.98 741.064 543.414 737.739 547.373C730.825 555.465 722.07 561.779 712.208 565.782C704.749 568.837 696.934 570.937 688.949 572.032C685.643 571.799 682.36 571.525 679.108 571.23C679.088 571.225 679.062 571.227 679.042 571.221C678.886 571.207 678.729 571.192 678.58 571.183C677.909 571.12 677.237 571.057 676.572 570.994L676.729 571.294L677.222 572.224C677.045 571.913 676.868 571.608 676.691 571.296C676.638 571.203 676.58 571.11 676.528 571.017C682.515 565.052 686.985 557.739 689.563 549.691C692.142 541.643 692.754 533.094 691.348 524.76C689.877 516.486 686.471 508.676 681.407 501.968C682.073 501.765 682.748 501.601 683.431 501.456C685.355 504.087 687.043 506.882 688.475 509.81C693.612 520.252 695.251 532.07 693.149 543.516C691.195 553.873 686.326 563.458 679.115 571.145C679.746 571.101 680.384 571.049 681.008 570.992C692.826 569.991 704.62 567.45 715.34 562.246C724.502 557.906 732.457 551.379 738.503 543.24C744.995 534.287 747.856 523.517 748.347 512.571C748.725 500.779 747.489 488.99 744.674 477.532C741.943 465.849 737.793 454.544 732.316 443.869C732.193 443.627 732.168 443.347 732.247 443.088C732.325 442.828 732.5 442.608 732.735 442.474C732.932 442.341 733.173 442.292 733.406 442.336C733.519 442.366 733.625 442.421 733.715 442.498C733.804 442.575 733.875 442.67 733.922 442.778C734.598 444.097 735.261 445.417 735.899 446.751C741.212 457.865 745.123 469.596 747.543 481.675C749.892 493.327 751.146 505.516 749.917 517.382Z" fill="white"/>
<path d="M35.1598 182.126C34.5971 182.125 34.0394 182.02 33.5153 181.815C32.6676 181.49 31.9391 180.914 31.4265 180.164C30.9139 179.415 30.6414 178.527 30.6453 177.619V130.586C30.6435 128.994 30.0103 127.468 28.8846 126.342C27.7589 125.216 26.2326 124.583 24.6406 124.581H15.0093C11.03 124.577 7.21487 122.994 4.40105 120.18C1.58722 117.366 0.00445986 113.551 0 109.572V15.0093C0.0044625 11.0299 1.58723 7.21487 4.40105 4.40105C7.21487 1.58723 11.03 0.00445985 15.0093 0H354.735C358.714 0.00446514 362.529 1.58723 365.343 4.40105C368.157 7.21487 369.739 11.0299 369.744 15.0093V109.572C369.739 113.551 368.157 117.366 365.343 120.18C362.529 122.994 358.714 124.577 354.735 124.581H92.515C91.6826 124.582 90.8595 124.756 90.0976 125.091C89.3358 125.426 88.6516 125.915 88.0885 126.528L38.4667 180.662C38.0476 181.122 37.5371 181.49 36.9677 181.743C36.3983 181.995 35.7825 182.125 35.1598 182.126ZM15.0093 2C11.5602 2.00389 8.25351 3.37577 5.81464 5.81464C3.37576 8.25351 2.0039 11.5602 2 15.0093V109.572C2.0039 113.021 3.37577 116.328 5.81464 118.766C8.25351 121.205 11.5602 122.577 15.0093 122.581H24.6406C26.7629 122.583 28.7976 123.428 30.2982 124.928C31.7989 126.429 32.6429 128.464 32.6453 130.586V177.619C32.6453 178.123 32.7976 178.616 33.0823 179.032C33.367 179.448 33.7707 179.768 34.2406 179.951C34.7105 180.134 35.2246 180.171 35.7157 180.056C36.2067 179.942 36.6517 179.682 36.9924 179.31L86.6143 125.177C87.365 124.36 88.2769 123.707 89.2926 123.26C90.3082 122.814 91.4055 122.582 92.515 122.581H354.735C358.184 122.577 361.49 121.205 363.929 118.766C366.368 116.328 367.74 113.021 367.744 109.572V15.0093C367.74 11.5602 366.368 8.25351 363.929 5.81464C361.49 3.37577 358.184 2.0039 354.735 2H15.0093Z" fill="#CCCCCC"/>
<path d="M36.8161 42.5901C44.0696 42.5901 49.9498 36.7099 49.9498 29.4564C49.9498 22.2028 44.0696 16.3227 36.8161 16.3227C29.5625 16.3227 23.6824 22.2028 23.6824 29.4564C23.6824 36.7099 29.5625 42.5901 36.8161 42.5901Z" fill="#CCCCCC"/>
<path d="M339.412 102.13H30.332C29.4114 102.131 28.4997 101.95 27.6489 101.599C26.7981 101.247 26.0249 100.731 25.3736 100.081C24.7222 99.4304 24.2055 98.6578 23.853 97.8074C23.5004 96.957 23.319 96.0455 23.319 95.1249C23.319 94.2043 23.5004 93.2928 23.853 92.4424C24.2055 91.592 24.7222 90.8195 25.3736 90.1689C26.0249 89.5184 26.7981 89.0026 27.6489 88.6511C28.4997 88.2995 29.4114 88.1192 30.332 88.1203H339.412C340.332 88.1192 341.244 88.2995 342.095 88.6511C342.946 89.0026 343.719 89.5184 344.37 90.1689C345.022 90.8195 345.538 91.592 345.891 92.4424C346.243 93.2928 346.425 94.2043 346.425 95.1249C346.425 96.0455 346.243 96.957 345.891 97.8074C345.538 98.6578 345.022 99.4304 344.37 100.081C343.719 100.731 342.946 101.247 342.095 101.599C341.244 101.95 340.332 102.131 339.412 102.13Z" fill="#CCCCCC"/>
<path d="M238.72 72.3598H30.332C29.4114 72.3609 28.4997 72.1805 27.6489 71.829C26.7981 71.4775 26.0249 70.9617 25.3736 70.3112C24.7222 69.6606 24.2055 68.8881 23.853 68.0377C23.5004 67.1873 23.319 66.2757 23.319 65.3552C23.319 64.4346 23.5004 63.5231 23.853 62.6727C24.2055 61.8223 24.7222 61.0497 25.3736 60.3992C26.0249 59.7486 26.7981 59.2328 27.6489 58.8813C28.4997 58.5298 29.4114 58.3494 30.332 58.3505H238.72C239.641 58.3494 240.552 58.5298 241.403 58.8813C242.254 59.2328 243.027 59.7486 243.679 60.3992C244.33 61.0497 244.847 61.8223 245.199 62.6727C245.552 63.5231 245.733 64.4346 245.733 65.3552C245.733 66.2757 245.552 67.1873 245.199 68.0377C244.847 68.8881 244.33 69.6606 243.679 70.3112C243.027 70.9617 242.254 71.4775 241.403 71.829C240.552 72.1805 239.641 72.3609 238.72 72.3598Z" fill="#CCCCCC"/>
<path d="M35.1598 515.722C34.5971 515.722 34.0394 515.616 33.5153 515.412C32.6677 515.086 31.9392 514.51 31.4266 513.761C30.914 513.011 30.6415 512.123 30.6453 511.215V464.182C30.6435 462.59 30.0103 461.064 28.8846 459.938C27.7589 458.812 26.2326 458.179 24.6406 458.177H15.0093C11.03 458.173 7.21488 456.59 4.40106 453.776C1.58724 450.962 0.00447044 447.147 0 443.168V348.606C0.0044625 344.626 1.58723 340.811 4.40105 337.997C7.21487 335.183 11.03 333.601 15.0093 333.596H354.735C358.714 333.601 362.529 335.183 365.343 337.997C368.157 340.811 369.739 344.626 369.744 348.606V443.168C369.739 447.147 368.157 450.962 365.343 453.776C362.529 456.59 358.714 458.173 354.735 458.177H92.515C91.6826 458.178 90.8595 458.352 90.0976 458.687C89.3358 459.022 88.6516 459.512 88.0885 460.125L38.4667 514.258C38.0476 514.718 37.5371 515.087 36.9677 515.339C36.3983 515.591 35.7825 515.722 35.1598 515.722ZM15.0093 335.596C11.5602 335.6 8.25351 336.972 5.81464 339.411C3.37576 341.85 2.00389 345.156 2 348.605V443.168C2.0039 446.617 3.37577 449.924 5.81464 452.363C8.25351 454.802 11.5602 456.173 15.0093 456.177H24.6406C26.7629 456.18 28.7976 457.024 30.2982 458.525C31.7989 460.025 32.6429 462.06 32.6453 464.182V511.215C32.6453 511.72 32.7976 512.212 33.0823 512.628C33.367 513.044 33.7707 513.365 34.2406 513.547C34.7105 513.73 35.2246 513.767 35.7157 513.652C36.2067 513.538 36.6517 513.278 36.9924 512.906L86.6143 458.773C87.365 457.956 88.2769 457.303 89.2926 456.857C90.3082 456.41 91.4055 456.179 92.515 456.177H354.735C358.184 456.173 361.49 454.802 363.929 452.363C366.368 449.924 367.74 446.617 367.744 443.168V348.606C367.74 345.156 366.368 341.85 363.929 339.411C361.49 336.972 358.184 335.6 354.735 335.596L15.0093 335.596Z" fill="#CCCCCC"/>
<path d="M486.843 342.357C486.22 342.357 485.605 342.226 485.035 341.974C484.466 341.722 483.955 341.354 483.536 340.893L433.914 286.76C433.351 286.147 432.667 285.657 431.905 285.322C431.143 284.987 430.32 284.813 429.488 284.812H167.268C163.289 284.808 159.474 283.225 156.66 280.411C153.846 277.598 152.264 273.783 152.259 269.803V175.241C152.264 171.261 153.846 167.446 156.66 164.633C159.474 161.819 163.289 160.236 167.268 160.231H506.994C510.973 160.236 514.788 161.819 517.602 164.632C520.416 167.446 521.998 171.261 522.003 175.241V269.803C521.998 273.783 520.416 277.598 517.602 280.411C514.788 283.225 510.973 284.808 506.994 284.812H497.362C495.77 284.814 494.244 285.448 493.118 286.573C491.993 287.699 491.359 289.225 491.358 290.817V337.851C491.362 338.759 491.089 339.646 490.576 340.396C490.064 341.145 489.335 341.721 488.488 342.046C487.963 342.251 487.406 342.357 486.843 342.357ZM167.268 162.231C163.819 162.235 160.513 163.607 158.074 166.046C155.635 168.485 154.263 171.792 154.259 175.241V269.803C154.263 273.252 155.635 276.559 158.074 278.998C160.513 281.437 163.819 282.809 167.268 282.812H429.488C430.598 282.814 431.695 283.045 432.71 283.492C433.726 283.939 434.638 284.591 435.388 285.408L485.01 339.541C485.351 339.913 485.796 340.173 486.287 340.288C486.778 340.402 487.292 340.365 487.762 340.183C488.232 340 488.636 339.679 488.921 339.263C489.205 338.847 489.358 338.355 489.358 337.851V290.817C489.36 288.695 490.204 286.66 491.705 285.16C493.205 283.659 495.24 282.815 497.362 282.812H506.994C510.443 282.809 513.749 281.437 516.188 278.998C518.627 276.559 519.999 273.252 520.003 269.803V175.241C519.999 171.792 518.627 168.485 516.188 166.046C513.749 163.607 510.443 162.235 506.994 162.231L167.268 162.231Z" fill="#3F3D56"/>
<path d="M36.8161 376.186C44.0696 376.186 49.9498 370.306 49.9498 363.053C49.9498 355.799 44.0696 349.919 36.8161 349.919C29.5625 349.919 23.6824 355.799 23.6824 363.053C23.6824 370.306 29.5625 376.186 36.8161 376.186Z" fill="#CCCCCC"/>
<path d="M339.412 435.726H30.332C29.4114 435.727 28.4997 435.546 27.6489 435.195C26.7981 434.843 26.0249 434.328 25.3736 433.677C24.7222 433.027 24.2055 432.254 23.853 431.404C23.5004 430.553 23.319 429.642 23.319 428.721C23.319 427.801 23.5004 426.889 23.853 426.039C24.2055 425.188 24.7222 424.416 25.3736 423.765C26.0249 423.115 26.7981 422.599 27.6489 422.247C28.4997 421.896 29.4114 421.715 30.332 421.716H339.412C341.27 421.716 343.051 422.454 344.365 423.768C345.679 425.082 346.417 426.863 346.417 428.721C346.417 430.579 345.679 432.361 344.365 433.674C343.051 434.988 341.27 435.726 339.412 435.726Z" fill="#CCCCCC"/>
<path d="M238.72 405.956H30.332C29.4114 405.957 28.4997 405.777 27.6489 405.425C26.7981 405.074 26.0249 404.558 25.3736 403.907C24.7222 403.257 24.2055 402.484 23.853 401.634C23.5004 400.783 23.319 399.872 23.319 398.951C23.319 398.031 23.5004 397.119 23.853 396.269C24.2055 395.418 24.7222 394.646 25.3736 393.995C26.0249 393.345 26.7981 392.829 27.6489 392.477C28.4997 392.126 29.4114 391.946 30.332 391.947H238.72C239.641 391.946 240.552 392.126 241.403 392.477C242.254 392.829 243.027 393.345 243.679 393.995C244.33 394.646 244.847 395.418 245.199 396.269C245.552 397.119 245.733 398.031 245.733 398.951C245.733 399.872 245.552 400.783 245.199 401.634C244.847 402.484 244.33 403.257 243.679 403.907C243.027 404.558 242.254 405.074 241.403 405.425C240.552 405.777 239.641 405.957 238.72 405.956Z" fill="#CCCCCC"/>
<path d="M189.075 201.946C196.329 201.946 202.209 196.066 202.209 188.812C202.209 181.558 196.329 175.678 189.075 175.678C181.822 175.678 175.941 181.558 175.941 188.812C175.941 196.066 181.822 201.946 189.075 201.946Z" fill="#3F3D56"/>
<path d="M491.671 261.485H182.591C180.733 261.485 178.952 260.747 177.638 259.434C176.324 258.12 175.586 256.338 175.586 254.481C175.586 252.623 176.324 250.841 177.638 249.528C178.952 248.214 180.733 247.476 182.591 247.476H491.671C493.529 247.476 495.31 248.214 496.624 249.528C497.938 250.841 498.676 252.623 498.676 254.481C498.676 256.338 497.938 258.12 496.624 259.434C495.31 260.747 493.529 261.485 491.671 261.485Z" fill="#2FA4DA"/>
<path d="M390.979 231.715H182.591C181.671 231.717 180.759 231.536 179.908 231.185C179.057 230.833 178.284 230.317 177.633 229.667C176.981 229.016 176.465 228.244 176.112 227.393C175.76 226.543 175.578 225.631 175.578 224.711C175.578 223.79 175.76 222.879 176.112 222.028C176.465 221.178 176.981 220.405 177.633 219.755C178.284 219.104 179.057 218.588 179.908 218.237C180.759 217.885 181.671 217.705 182.591 217.706H390.979C391.9 217.705 392.812 217.885 393.662 218.237C394.513 218.588 395.286 219.104 395.938 219.755C396.589 220.405 397.106 221.178 397.458 222.028C397.811 222.879 397.992 223.79 397.992 224.711C397.992 225.631 397.811 226.543 397.458 227.393C397.106 228.244 396.589 229.016 395.938 229.667C395.286 230.317 394.513 230.833 393.662 231.185C392.812 231.536 391.9 231.717 390.979 231.715Z" fill="#2FA4DA"/>
<path d="M842.73 572C842.729 572.265 842.624 572.519 842.436 572.706C842.249 572.894 841.995 572.999 841.73 573H460.73C460.465 573 460.21 572.895 460.023 572.707C459.835 572.52 459.73 572.265 459.73 572C459.73 571.735 459.835 571.48 460.023 571.293C460.21 571.105 460.465 571 460.73 571H841.73C841.995 571.001 842.249 571.106 842.436 571.294C842.624 571.481 842.729 571.735 842.73 572Z" fill="#3F3D56"/>
<path d="M767.183 357.797C766.224 412.176 729.676 435.811 729.075 412.852C728.33 383.811 715.807 308.492 666.653 331.59C607.869 359.21 660.861 527.45 643.843 527.45C575.76 527.45 520.504 451.449 520.504 357.797C520.504 264.152 575.76 188.15 643.843 188.15C711.927 188.15 768.813 265.344 767.183 357.797V357.797Z" fill="url(#paint0_linear_310_2)" stroke="black" stroke-width="0.8" stroke-linecap="round" stroke-linejoin="round"/>
<path d="M733.874 241.419C749.662 269.957 757.498 305.741 758.202 343.311C758.858 378.019 749.393 410.797 731.844 420.084C740.039 422.704 766.224 412.169 767.177 357.79C767.971 313.105 755.082 271.984 733.874 241.419ZM674.434 312.781C669.387 312.877 663.816 314.228 657.672 317.11C598.887 344.731 651.886 512.971 634.869 512.971C599.806 512.971 568.146 492.811 545.681 460.46C568.222 501.153 603.81 527.45 643.844 527.45C660.861 527.45 607.862 359.21 666.646 331.59C684.872 323.033 698.065 327.997 707.488 339.112C700.46 323.971 689.898 312.491 674.434 312.781V312.781Z" fill="black" fill-opacity="0.31373"/>
<path d="M703.265 455.265C703.265 485.125 691.398 513.763 670.276 534.877C649.153 555.992 620.505 567.854 590.633 567.854C560.761 567.854 532.112 555.992 510.989 534.877C489.867 513.763 478 485.125 478 455.265C478 425.404 489.867 396.767 510.989 375.652C532.112 354.537 560.761 342.675 590.633 342.675C620.505 342.675 649.153 354.537 670.276 375.652C691.398 396.767 703.265 425.404 703.265 455.265V455.265Z" fill="url(#paint1_linear_310_2)" stroke="black" stroke-width="0.799968" stroke-linecap="round" stroke-linejoin="round"/>
<path d="M590.637 342.69C578.653 342.69 567.117 344.579 556.278 348.048C566.026 345.772 576.306 344.545 586.93 344.545C616.077 344.545 642.656 353.701 662.656 368.725C643.132 352.467 618.017 342.69 590.637 342.69ZM697.305 419.03C698.782 425.042 699.569 431.247 699.569 437.618C699.569 488.998 649.104 530.691 586.93 530.691C534.939 530.691 491.156 501.54 478.205 461.943C481.657 520.997 530.7 567.875 590.637 567.875C652.811 567.875 703.277 517.432 703.277 455.282C703.277 442.603 701.178 430.406 697.305 419.03Z" fill="black" fill-opacity="0.31373"/>
<path d="M590.638 342.69C571.432 342.69 553.337 347.496 537.507 355.983C545.005 382.163 566.91 406.371 592.785 406.371C617.969 406.371 639.432 383.439 647.475 358.066C630.789 348.296 611.362 342.69 590.638 342.69V342.69Z" fill="black" fill-opacity="0.31373"/>
<path fill-rule="evenodd" clip-rule="evenodd" d="M667.813 248.907C654.137 248.907 626.357 256.174 621.497 275.018C621.421 275.163 621.276 275.687 621.117 276.493C612.322 271.122 601.98 267.999 590.927 267.999C579.385 267.999 568.656 271.405 559.62 277.21C559.433 276.031 559.205 275.204 559.116 275.018C554.256 256.174 526.475 248.928 512.792 248.921C510.618 248.921 508.816 249.107 507.497 249.452C500.159 250.472 492.123 253.403 492.71 255.002C498.095 254.085 500.815 255.133 500.732 256.002C500.566 257.629 497.322 258.063 498.364 263.931C500.331 261.083 503.072 260.104 505.226 259.649C507.435 273.501 517.1 297.681 535.188 298.936C536.741 299.046 538.191 299.039 539.558 299.012C535.291 307.092 532.868 316.297 532.868 326.067C532.868 358.107 558.874 395.236 590.927 395.236C622.974 395.236 649.014 358.107 649.014 326.067C649.014 316.304 646.584 307.12 642.318 299.046C643.305 299.039 644.348 299.012 645.425 298.936C663.45 297.688 673.115 273.646 675.365 259.78C677.423 260.284 679.88 261.318 681.682 263.931C682.725 258.063 679.48 257.629 679.314 256.002C679.231 255.133 681.951 254.085 687.336 255.002C687.895 253.485 680.723 250.776 673.722 249.624C672.39 249.155 670.347 248.907 667.813 248.907V248.907Z" fill="url(#paint2_linear_310_2)" stroke="black" stroke-width="0.8" stroke-linejoin="round"/>
<path d="M613.067 420.843C603.444 411.225 586.316 410.735 576.126 419.774C568.953 426.055 566.095 435.701 565.156 444.837C564.494 451.421 564.887 458.488 568.27 464.356C571.666 468.713 577.583 469.63 582.774 469.892C593.123 470.354 604.058 467.858 612.329 461.315C622.297 452.773 624.624 436.866 617.306 425.966C616.112 424.104 614.669 422.387 613.067 420.843V420.843Z" fill="black" fill-opacity="0.31373"/>
<path d="M578.898 440.321C578.898 445.969 576.653 451.385 572.658 455.379C568.663 459.372 563.245 461.615 557.595 461.615C551.946 461.615 546.527 459.372 542.532 455.379C538.538 451.385 536.293 445.969 536.293 440.321C536.293 434.674 538.538 429.258 542.532 425.264C546.527 421.271 551.946 419.027 557.595 419.027C563.245 419.027 568.663 421.271 572.658 425.264C576.653 429.258 578.898 434.674 578.898 440.321V440.321Z" fill="black" fill-opacity="0.31373"/>
<path d="M609.616 413.948C599.992 404.33 582.864 403.84 572.674 412.879C565.501 419.16 562.643 428.806 561.704 437.942C561.042 444.526 561.435 451.594 564.818 457.461C568.215 461.819 574.131 462.736 579.322 462.998C589.671 463.46 600.606 460.964 608.877 454.421C618.846 445.878 621.172 429.972 613.854 419.071C612.66 417.209 611.217 415.492 609.616 413.948V413.948Z" fill="#DC9A6A" stroke="black" stroke-width="0.8" stroke-linecap="round" stroke-linejoin="round"/>
<path d="M587.911 406.522C589.961 407.012 591.949 407.763 593.806 408.811C595.608 409.784 597.313 410.949 598.839 412.307C608.042 420.167 609.94 434.853 603.223 444.892C597.5 452.745 588.408 457.661 579.109 459.812C575.339 460.66 571.045 461.246 567.372 459.854C570.769 462.184 575.263 462.798 579.316 462.998C589.664 463.46 600.599 460.964 608.877 454.421C618.846 445.878 621.172 429.972 613.854 419.071C612.66 417.202 611.217 415.492 609.616 413.941C603.989 408.315 595.788 405.819 587.911 406.522V406.522Z" fill="black" fill-opacity="0.31373"/>
<path fill-rule="evenodd" clip-rule="evenodd" d="M609.871 411.528C611.769 405.64 621.345 400.2 624.182 402.248C627.019 404.302 627.24 409.184 626.736 409.908C626.239 410.625 621.117 408.412 617.886 411.08C614.662 413.741 613.04 416.016 613.04 416.016L609.871 411.528Z" fill="url(#paint3_linear_310_2)" stroke="black" stroke-width="0.8"/>
<path fill-rule="evenodd" clip-rule="evenodd" d="M626.136 404.806C626.198 405.447 626.108 405.978 625.936 406.185C625.445 406.771 620.537 406.198 617.389 408.632C614.248 411.066 612.66 412.928 612.66 412.928L610.147 410.818C610.05 411.059 609.947 411.294 609.871 411.528L613.04 416.023C613.04 416.023 614.662 413.741 617.886 411.073C621.117 408.412 626.239 410.625 626.736 409.901C627.082 409.411 627.082 406.957 626.136 404.806V404.806Z" fill="black" fill-opacity="0.31373"/>
<path d="M612.08 411.562C602.629 402.213 586.965 399.8 575.947 406.812C573.454 408.184 574.207 411.624 574.235 411.569C578.397 408.28 582.712 411.9 588.38 415.961C595.318 420.932 602.947 428.558 608.545 435.97C612.467 441.155 615.27 446.25 613.026 449.815C613.143 449.849 616.402 450.766 617.893 447.733C625.404 433.591 621.158 420.009 612.08 411.562V411.562Z" fill="url(#paint4_linear_310_2)" stroke="black" stroke-width="0.8" stroke-linecap="round" stroke-linejoin="round"/>
<path d="M611.335 410.521C614.331 418.285 613.937 425.628 610.133 432.716C609.27 434.329 607.945 433.805 606.833 433.784C607.42 434.508 607.993 435.246 608.546 435.97C612.46 441.162 615.27 446.257 613.026 449.815C613.143 449.849 616.402 450.773 617.893 447.739C624.769 434.777 621.752 420.677 611.335 410.521V410.521Z" fill="black" fill-opacity="0.31373"/>
<path d="M572.527 425.353C573.927 427.775 574.836 430.448 575.202 433.22C575.568 435.992 575.385 438.809 574.661 441.509C573.938 444.209 572.69 446.74 570.987 448.957C569.285 451.175 567.162 453.035 564.739 454.432C562.316 455.829 559.642 456.735 556.868 457.099C554.094 457.463 551.275 457.277 548.572 456.553C545.869 455.828 543.335 454.579 541.114 452.876C538.894 451.173 537.03 449.05 535.63 446.629C534.23 444.207 533.321 441.534 532.955 438.762C532.589 435.99 532.772 433.173 533.495 430.473C534.219 427.773 535.467 425.242 537.17 423.025C538.872 420.807 540.995 418.947 543.418 417.55C545.841 416.153 548.515 415.247 551.289 414.883C554.063 414.519 556.882 414.705 559.585 415.429C562.288 416.154 564.822 417.403 567.043 419.106C569.263 420.809 571.127 422.932 572.527 425.353V425.353Z" fill="url(#paint5_linear_310_2)" stroke="black" stroke-width="0.800002" stroke-linecap="round" stroke-linejoin="round"/>
<path d="M658.812 440.652C658.812 446.3 656.568 451.716 652.573 455.709C648.578 459.703 643.16 461.946 637.51 461.946C631.86 461.946 626.442 459.703 622.447 455.709C618.452 451.716 616.208 446.3 616.208 440.652C616.208 435.005 618.452 429.589 622.447 425.595C626.442 421.602 631.86 419.358 637.51 419.358C643.16 419.358 648.578 421.602 652.573 425.595C656.568 429.589 658.812 435.005 658.812 440.652V440.652Z" fill="black" fill-opacity="0.31373"/>
<path d="M649.13 451.034C645.132 455.027 639.71 457.272 634.058 457.275C628.406 457.277 622.986 455.037 618.991 451.047C614.996 447.057 612.753 441.645 612.756 436C612.758 430.355 615.006 424.94 619.004 420.947C623.003 416.953 628.424 414.709 634.077 414.706C639.729 414.704 645.148 416.944 649.143 420.934C653.138 424.923 655.381 430.336 655.379 435.981C655.376 441.626 653.129 447.041 649.13 451.034Z" fill="url(#paint6_linear_310_2)" stroke="black" stroke-width="0.799998" stroke-linecap="round" stroke-linejoin="round"/>
<path d="M645.218 503.705C617.03 503.705 594.145 526.582 594.145 554.754C594.145 560.58 595.125 566.165 596.927 571.377H693.481C695.283 566.165 696.263 560.58 696.263 554.754C696.263 526.582 673.405 503.705 645.218 503.705V503.705Z" fill="url(#paint7_linear_310_2)" stroke="black" stroke-width="0.8" stroke-linecap="round" stroke-linejoin="round"/>
<path d="M543.072 503.705C514.884 503.705 492.026 526.582 492.026 554.754C492.026 560.58 493.007 566.165 494.809 571.377H591.362C593.164 566.165 594.144 560.58 594.144 554.754C594.144 526.582 571.259 503.705 543.072 503.705Z" fill="url(#paint8_linear_310_2)" stroke="black" stroke-width="0.8" stroke-linecap="round" stroke-linejoin="round"/>
<path d="M588.902 321.414C588.903 323.905 588.414 326.372 587.461 328.674C586.508 330.976 585.111 333.068 583.349 334.83C581.587 336.592 579.495 337.989 577.193 338.943C574.891 339.896 572.423 340.387 569.931 340.387C567.439 340.387 564.971 339.896 562.669 338.943C560.367 337.989 558.275 336.592 556.513 334.83C554.751 333.068 553.354 330.976 552.401 328.674C551.448 326.372 550.959 323.905 550.96 321.414C550.959 318.923 551.448 316.456 552.401 314.154C553.354 311.853 554.751 309.761 556.513 307.999C558.275 306.237 560.367 304.839 562.669 303.886C564.971 302.932 567.439 302.441 569.931 302.441C572.423 302.441 574.891 302.932 577.193 303.886C579.495 304.839 581.587 306.237 583.349 307.999C585.111 309.761 586.508 311.853 587.461 314.154C588.414 316.456 588.903 318.923 588.902 321.414V321.414Z" fill="white" stroke="black" stroke-width="0.800004" stroke-linecap="round" stroke-linejoin="round"/>
<path d="M630.918 321.414C630.919 323.905 630.429 326.372 629.476 328.674C628.523 330.976 627.126 333.068 625.364 334.83C623.603 336.592 621.511 337.989 619.208 338.943C616.906 339.896 614.438 340.387 611.946 340.387C609.454 340.387 606.987 339.896 604.684 338.943C602.382 337.989 600.29 336.592 598.529 334.83C596.767 333.068 595.37 330.976 594.417 328.674C593.464 326.372 592.974 323.905 592.975 321.414C592.974 318.923 593.464 316.456 594.417 314.154C595.37 311.853 596.767 309.761 598.529 307.999C600.29 306.237 602.382 304.839 604.684 303.886C606.987 302.932 609.454 302.441 611.946 302.441C614.438 302.441 616.906 302.932 619.208 303.886C621.511 304.839 623.603 306.237 625.364 307.999C627.126 309.761 628.523 311.853 629.476 314.154C630.429 316.456 630.919 318.923 630.918 321.414Z" fill="white" stroke="black" stroke-width="0.800004" stroke-linecap="round" stroke-linejoin="round"/>
<path d="M583.025 323.718C583.026 324.523 582.868 325.32 582.56 326.064C582.252 326.808 581.801 327.484 581.232 328.053C580.663 328.622 579.987 329.074 579.243 329.382C578.5 329.69 577.702 329.849 576.897 329.849C576.092 329.849 575.295 329.69 574.551 329.382C573.808 329.074 573.132 328.622 572.563 328.053C571.994 327.484 571.542 326.808 571.235 326.064C570.927 325.32 570.769 324.523 570.77 323.718C570.769 322.914 570.927 322.117 571.235 321.373C571.542 320.629 571.994 319.953 572.563 319.384C573.132 318.815 573.808 318.363 574.551 318.055C575.295 317.747 576.092 317.588 576.897 317.588C577.702 317.588 578.5 317.747 579.243 318.055C579.987 318.363 580.663 318.815 581.232 319.384C581.801 319.953 582.252 320.629 582.56 321.373C582.868 322.117 583.026 322.914 583.025 323.718V323.718Z" fill="black"/>
<path d="M611.054 323.718C611.054 324.523 610.896 325.32 610.589 326.064C610.281 326.808 609.83 327.484 609.261 328.053C608.692 328.622 608.016 329.074 607.272 329.382C606.528 329.69 605.731 329.849 604.926 329.849C604.121 329.849 603.324 329.69 602.58 329.382C601.836 329.074 601.16 328.622 600.591 328.053C600.022 327.484 599.571 326.808 599.263 326.064C598.956 325.32 598.798 324.523 598.798 323.718C598.798 322.914 598.956 322.117 599.263 321.373C599.571 320.629 600.022 319.953 600.591 319.384C601.16 318.815 601.836 318.363 602.58 318.055C603.324 317.747 604.121 317.588 604.926 317.588C605.731 317.588 606.528 317.747 607.272 318.055C608.016 318.363 608.692 318.815 609.261 319.384C609.83 319.953 610.281 320.629 610.589 321.373C610.896 322.117 611.054 322.914 611.054 323.718Z" fill="black"/>
<path fill-rule="evenodd" clip-rule="evenodd" d="M581.131 357.797C584.224 354.494 597.362 353.777 600.109 358.204C602.857 362.637 595.988 371.821 590.617 371.407C585.273 370.993 578.232 360.879 581.131 357.797Z" fill="black"/>
<path fill-rule="evenodd" clip-rule="evenodd" d="M546.579 290.476C544.542 261.021 514.194 254.313 512.73 257.808C511.274 261.311 518.274 300.687 546.579 290.476Z" fill="#74401B" stroke="black" stroke-width="0.8" stroke-linejoin="round"/>
<path fill-rule="evenodd" clip-rule="evenodd" d="M633.067 290.476C635.104 261.021 665.452 254.313 666.916 257.808C668.372 261.311 661.365 300.687 633.067 290.476Z" fill="url(#paint9_linear_310_2)" stroke="black" stroke-width="0.8" stroke-linejoin="round"/>
<path d="M538.548 556.643C538.548 560.944 537.107 565.068 534.543 568.11C531.979 571.151 528.501 572.859 524.874 572.859C521.248 572.859 517.77 571.151 515.205 568.11C512.641 565.068 511.201 560.944 511.201 556.643C511.201 552.342 512.641 548.217 515.205 545.176C517.77 542.135 521.248 540.426 524.874 540.426C528.501 540.426 531.979 542.135 534.543 545.176C537.107 548.217 538.548 552.342 538.548 556.643V556.643Z" fill="url(#paint10_linear_310_2)" stroke="black" stroke-width="0.734432" stroke-linecap="round" stroke-linejoin="round"/>
<path d="M572.845 556.643C572.845 560.944 571.404 565.068 568.84 568.11C566.276 571.151 562.798 572.859 559.171 572.859C555.545 572.859 552.067 571.151 549.503 568.11C546.938 565.068 545.498 560.944 545.498 556.643C545.498 552.342 546.938 548.217 549.503 545.176C552.067 542.135 555.545 540.426 559.171 540.426C562.798 540.426 566.276 542.135 568.84 545.176C571.404 548.217 572.845 552.342 572.845 556.643V556.643Z" fill="url(#paint11_linear_310_2)" stroke="black" stroke-width="0.734432" stroke-linecap="round" stroke-linejoin="round"/>
<path d="M556.622 556.643C556.622 560.944 555.181 565.068 552.617 568.11C550.052 571.151 546.574 572.859 542.948 572.859C539.322 572.859 535.844 571.151 533.279 568.11C530.715 565.068 529.274 560.944 529.274 556.643C529.274 552.342 530.715 548.217 533.279 545.176C535.844 542.135 539.322 540.426 542.948 540.426C546.574 540.426 550.052 542.135 552.617 545.176C555.181 548.217 556.622 552.342 556.622 556.643V556.643Z" fill="url(#paint12_linear_310_2)" stroke="black" stroke-width="0.734432" stroke-linecap="round" stroke-linejoin="round"/>
<path d="M643.765 556.643C643.765 560.944 642.324 565.068 639.76 568.11C637.196 571.151 633.718 572.859 630.091 572.859C626.465 572.859 622.987 571.151 620.423 568.11C617.858 565.068 616.418 560.944 616.418 556.643C616.418 552.342 617.858 548.217 620.423 545.176C622.987 542.135 626.465 540.426 630.091 540.426C633.718 540.426 637.196 542.135 639.76 545.176C642.324 548.217 643.765 552.342 643.765 556.643V556.643Z" fill="url(#paint13_linear_310_2)" stroke="black" stroke-width="0.734432" stroke-linecap="round" stroke-linejoin="round"/>
<path d="M678.066 556.643C678.066 560.944 676.625 565.068 674.061 568.11C671.496 571.151 668.018 572.859 664.392 572.859C660.766 572.859 657.288 571.151 654.723 568.11C652.159 565.068 650.718 560.944 650.718 556.643C650.718 552.342 652.159 548.217 654.723 545.176C657.288 542.135 660.766 540.426 664.392 540.426C668.018 540.426 671.496 542.135 674.061 545.176C676.625 548.217 678.066 552.342 678.066 556.643V556.643Z" fill="url(#paint14_linear_310_2)" stroke="black" stroke-width="0.734432" stroke-linecap="round" stroke-linejoin="round"/>
<path d="M661.842 556.643C661.842 560.944 660.402 565.068 657.837 568.11C655.273 571.151 651.795 572.859 648.169 572.859C644.542 572.859 641.064 571.151 638.5 568.11C635.936 565.068 634.495 560.944 634.495 556.643C634.495 552.342 635.936 548.217 638.5 545.176C641.064 542.135 644.542 540.426 648.169 540.426C651.795 540.426 655.273 542.135 657.837 545.176C660.402 548.217 661.842 552.342 661.842 556.643V556.643Z" fill="url(#paint15_linear_310_2)" stroke="black" stroke-width="0.734432" stroke-linecap="round" stroke-linejoin="round"/>
<path d="M644.437 303.597C645.494 307.968 646.06 312.546 646.06 317.235C646.06 349.275 620.026 386.389 587.973 386.389C564.611 386.389 544.487 366.663 535.278 343.559C542.409 370.235 564.625 395.249 590.928 395.249C622.981 395.249 649.015 358.107 649.015 326.067C649.015 318.096 647.385 310.512 644.465 303.597H644.437Z" fill="black" fill-opacity="0.31373"/>
<path d="M560.785 441.093C561.734 441.641 562.58 442.348 563.273 443.172C563.965 443.997 564.492 444.925 564.823 445.901C565.154 446.878 565.283 447.884 565.202 448.863C565.121 449.843 564.831 450.775 564.35 451.609C563.869 452.442 563.205 453.159 562.398 453.719C561.59 454.279 560.653 454.671 559.642 454.872C558.63 455.074 557.564 455.081 556.503 454.894C555.441 454.706 554.407 454.328 553.457 453.78C552.508 453.232 551.663 452.526 550.97 451.701C550.277 450.876 549.75 449.949 549.419 448.972C549.088 447.996 548.959 446.989 549.041 446.01C549.122 445.031 549.411 444.098 549.892 443.265C550.374 442.432 551.037 441.715 551.845 441.155C552.653 440.595 553.589 440.203 554.6 440.001C555.612 439.799 556.679 439.792 557.74 439.979C558.801 440.167 559.836 440.545 560.785 441.093V441.093Z" fill="url(#paint16_linear_310_2)" stroke="black" stroke-width="0.734456" stroke-linecap="round" stroke-linejoin="round"/>
<path d="M569.974 425.18C571.891 426.286 573.344 428.016 574.012 429.988C574.681 431.96 574.51 434.013 573.539 435.695C572.567 437.378 570.873 438.552 568.831 438.959C566.788 439.366 564.563 438.973 562.646 437.867C560.729 436.76 559.276 435.031 558.608 433.059C557.939 431.087 558.109 429.034 559.081 427.352C560.053 425.669 561.746 424.495 563.789 424.088C565.832 423.681 568.057 424.073 569.974 425.18V425.18Z" fill="url(#paint17_linear_310_2)" stroke="black" stroke-width="0.734456" stroke-linecap="round" stroke-linejoin="round"/>
<path d="M569.325 435.391C571.242 436.497 572.695 438.227 573.363 440.199C574.032 442.171 573.861 444.224 572.89 445.906C571.918 447.589 570.225 448.763 568.182 449.17C566.139 449.577 563.914 449.185 561.997 448.078C560.08 446.972 558.627 445.242 557.959 443.27C557.29 441.298 557.461 439.245 558.432 437.563C559.404 435.88 561.098 434.706 563.14 434.299C565.183 433.892 567.408 434.285 569.325 435.391V435.391Z" fill="url(#paint18_linear_310_2)" stroke="black" stroke-width="0.734456" stroke-linecap="round" stroke-linejoin="round"/>
<path d="M626.837 439.76C625.778 440.043 624.778 440.507 623.895 441.125C623.012 441.743 622.263 442.502 621.69 443.36C621.117 444.218 620.732 445.157 620.557 446.124C620.382 447.09 620.419 448.066 620.668 448.995C620.917 449.924 621.372 450.788 622.007 451.538C622.642 452.288 623.445 452.908 624.37 453.365C625.295 453.821 626.323 454.104 627.397 454.197C628.47 454.29 629.568 454.192 630.627 453.909C631.686 453.625 632.685 453.161 633.568 452.543C634.452 451.925 635.201 451.166 635.774 450.308C636.346 449.451 636.732 448.512 636.907 447.545C637.082 446.578 637.044 445.602 636.795 444.673C636.547 443.744 636.092 442.88 635.456 442.13C634.821 441.38 634.018 440.76 633.094 440.303C632.169 439.847 631.14 439.564 630.067 439.471C628.993 439.378 627.896 439.476 626.837 439.76V439.76Z" fill="url(#paint19_linear_310_2)" stroke="black" stroke-width="0.734456" stroke-linecap="round" stroke-linejoin="round"/>
<path d="M622.087 422.012C621.028 422.296 620.029 422.76 619.146 423.378C618.263 423.996 617.513 424.755 616.94 425.613C616.368 426.47 615.983 427.409 615.807 428.376C615.632 429.343 615.67 430.319 615.919 431.248C616.168 432.177 616.623 433.041 617.258 433.791C617.893 434.541 618.696 435.161 619.62 435.618C620.545 436.074 621.574 436.357 622.647 436.45C623.721 436.543 624.818 436.445 625.877 436.161C628.016 435.588 629.867 434.293 631.024 432.561C632.181 430.829 632.548 428.802 632.046 426.926C631.543 425.049 630.212 423.478 628.344 422.556C626.476 421.635 624.226 421.439 622.087 422.012V422.012Z" fill="url(#paint20_linear_310_2)" stroke="black" stroke-width="0.734456" stroke-linecap="round" stroke-linejoin="round"/>
<path d="M620.071 432.044C617.933 432.618 616.081 433.913 614.925 435.645C613.768 437.377 613.4 439.404 613.903 441.28C614.405 443.156 615.737 444.728 617.605 445.649C619.472 446.571 621.723 446.767 623.861 446.193C626 445.62 627.851 444.325 629.008 442.593C630.165 440.861 630.533 438.834 630.03 436.958C629.781 436.029 629.326 435.165 628.691 434.415C628.056 433.665 627.253 433.044 626.328 432.588C624.461 431.667 622.21 431.471 620.071 432.044V432.044Z" fill="url(#paint21_linear_310_2)" stroke="black" stroke-width="0.734456" stroke-linecap="round" stroke-linejoin="round"/>
</g>
<defs>
<linearGradient id="paint0_linear_310_2" x1="519.123" y1="357.8" x2="768.598" y2="357.8" gradientUnits="userSpaceOnUse">
<stop stop-color="#D07839"/>
</linearGradient>
<linearGradient id="paint1_linear_310_2" x1="476.62" y1="455.265" x2="704.645" y2="455.265" gradientUnits="userSpaceOnUse">
<stop stop-color="#D07839"/>
</linearGradient>
<linearGradient id="paint2_linear_310_2" x1="491.307" y1="322.071" x2="688.739" y2="322.071" gradientUnits="userSpaceOnUse">
<stop stop-color="#D07839"/>
</linearGradient>
<linearGradient id="paint3_linear_310_2" x1="257.337" y1="494.218" x2="258.053" y2="496.566" gradientUnits="userSpaceOnUse">
<stop stop-color="#74401B"/>
</linearGradient>
<linearGradient id="paint4_linear_310_2" x1="256.591" y1="489.072" x2="258.589" y2="495.623" gradientUnits="userSpaceOnUse">
<stop stop-color="#74401B"/>
</linearGradient>
<linearGradient id="paint5_linear_310_2" x1="541.179" y1="-216.063" x2="557.431" y2="-211.696" gradientUnits="userSpaceOnUse">
<stop stop-color="#D07839"/>
</linearGradient>
<linearGradient id="paint6_linear_310_2" x1="571.695" y1="-207.907" x2="587.95" y2="-203.539" gradientUnits="userSpaceOnUse">
<stop stop-color="#D07839"/>
</linearGradient>
<linearGradient id="paint7_linear_310_2" x1="555.46" y1="-175.81" x2="594.406" y2="-165.345" gradientUnits="userSpaceOnUse">
<stop stop-color="#D07839"/>
</linearGradient>
<linearGradient id="paint8_linear_310_2" x1="516.499" y1="-186.22" x2="555.446" y2="-175.756" gradientUnits="userSpaceOnUse">
<stop stop-color="#D07839"/>
</linearGradient>
<linearGradient id="paint9_linear_310_2" x1="193.086" y1="517.303" x2="194.513" y2="521.981" gradientUnits="userSpaceOnUse">
<stop stop-color="#74401B"/>
</linearGradient>
<linearGradient id="paint10_linear_310_2" x1="316.316" y1="461.401" x2="317.463" y2="465.16" gradientUnits="userSpaceOnUse">
<stop stop-color="#74401B"/>
</linearGradient>
<linearGradient id="paint11_linear_310_2" x1="317.444" y1="466.211" x2="318.591" y2="469.97" gradientUnits="userSpaceOnUse">
<stop stop-color="#74401B"/>
</linearGradient>
<linearGradient id="paint12_linear_310_2" x1="316.911" y1="463.935" x2="318.058" y2="467.695" gradientUnits="userSpaceOnUse">
<stop stop-color="#74401B"/>
</linearGradient>
<linearGradient id="paint13_linear_310_2" x1="319.773" y1="476.157" x2="320.92" y2="479.917" gradientUnits="userSpaceOnUse">
<stop stop-color="#74401B"/>
</linearGradient>
<linearGradient id="paint14_linear_310_2" x1="320.899" y1="480.968" x2="322.046" y2="484.727" gradientUnits="userSpaceOnUse">
<stop stop-color="#74401B"/>
</linearGradient>
<linearGradient id="paint15_linear_310_2" x1="320.366" y1="478.692" x2="321.513" y2="482.452" gradientUnits="userSpaceOnUse">
<stop stop-color="#74401B"/>
</linearGradient>
<linearGradient id="paint16_linear_310_2" x1="272.412" y1="480.476" x2="273.092" y2="482.704" gradientUnits="userSpaceOnUse">
<stop stop-color="#74401B"/>
</linearGradient>
<linearGradient id="paint17_linear_310_2" x1="265.571" y1="483.943" x2="266.25" y2="486.172" gradientUnits="userSpaceOnUse">
<stop stop-color="#74401B"/>
</linearGradient>
<linearGradient id="paint18_linear_310_2" x1="270.133" y1="482.454" x2="270.812" y2="484.682" gradientUnits="userSpaceOnUse">
<stop stop-color="#74401B"/>
</linearGradient>
<linearGradient id="paint19_linear_310_2" x1="274.575" y1="490.55" x2="275.269" y2="492.827" gradientUnits="userSpaceOnUse">
<stop stop-color="#74401B"/>
</linearGradient>
<linearGradient id="paint20_linear_310_2" x1="266.453" y1="492.313" x2="267.148" y2="494.591" gradientUnits="userSpaceOnUse">
<stop stop-color="#74401B"/>
</linearGradient>
<linearGradient id="paint21_linear_310_2" x1="270.89" y1="490.657" x2="271.584" y2="492.935" gradientUnits="userSpaceOnUse">
<stop stop-color="#74401B"/>
</linearGradient>
<clipPath id="clip0_310_2">
<rect width="842.73" height="573" fill="white"/>
</clipPath>
</defs>
</svg>
