<svg width="888" height="624" viewBox="0 0 888 624" fill="none" xmlns="http://www.w3.org/2000/svg">
<g clip-path="url(#clip0_329_234)">
<path d="M787.192 116.615C813.425 116.615 834.691 95.3489 834.691 69.1155C834.691 42.8821 813.425 21.6157 787.192 21.6157C760.958 21.6157 739.692 42.8821 739.692 69.1155C739.692 95.3489 760.958 116.615 787.192 116.615Z" fill="#D07839"/>
<path d="M609.174 194.252L571.958 121.18L609.287 185.128L609.626 158.972L584.052 106.15L609.721 152.057L610.33 105.019L582.526 62.7437L610.421 97.622L612.453 11.7572L612.463 11.4005L612.464 11.7631L612.143 120.71L642.838 76.6075L612.231 129.948L613.443 182.535L613.568 181.145L648.962 134.619L613.526 186.068L613.68 192.645L613.739 192.748L613.695 193.285L615.3 262.887C612.984 262.984 610.645 263.023 608.282 263.005L608.35 257.591L576.058 204.294L608.416 252.414L609.174 194.252Z" fill="#3F3D56"/>
<path d="M435.779 236.003L398.563 162.93L435.893 226.879L436.232 200.723L410.657 147.901L436.326 193.808L436.935 146.77L409.132 104.494L437.026 139.373L439.058 53.5078L439.069 53.1512L439.069 53.5138L438.749 162.461L469.443 118.358L438.836 171.699L440.048 224.286L440.174 222.896L475.568 176.369L440.132 227.818L440.286 234.395L440.345 234.499L440.301 235.036L441.906 304.638C439.589 304.735 437.25 304.774 434.888 304.756L434.955 299.341L402.663 246.045L435.021 294.165L435.779 236.003Z" fill="#CBCBCB"/>
<path d="M758.401 182.852L721.185 109.779L758.514 173.727L758.853 147.572L733.278 94.7493L758.947 140.657L759.556 93.6186L731.753 51.3432L759.647 86.2215L761.679 0.35664L761.69 2.67029e-05L761.69 0.362637L761.37 109.31L792.064 65.2071L761.457 118.548L762.669 171.135L762.795 169.745L798.189 123.218L762.753 174.667L762.907 181.244L762.966 181.348L762.922 181.885L764.527 251.487C762.21 251.584 759.871 251.623 757.509 251.605L757.576 246.19L725.284 192.894L757.643 241.014L758.401 182.852Z" fill="#3F3D56"/>
<path d="M117.742 433.953C139.42 417.974 162.154 403.477 185.788 390.564C251.887 354.09 333.173 322.902 425.585 298.742C431.935 297.076 438.339 295.448 444.795 293.857C458.507 290.464 472.446 287.232 486.613 284.163C490.112 283.408 493.621 282.657 497.14 281.908C516.855 277.763 536.964 273.936 557.466 270.427C557.877 270.352 558.289 270.286 558.71 270.221C563.523 269.388 568.357 268.583 573.214 267.807C670.248 252.04 775.405 243.366 885.268 243.235C886.175 243.225 887.092 243.225 888 243.225V623.128H0C0 554.25 42.8373 489.657 117.742 433.953Z" fill="#F1F1F1"/>
<path d="M294.182 477.287C332.022 449.15 380.474 423.951 437.207 402.7C443.504 400.333 449.904 398.022 456.408 395.767C457.315 395.449 458.232 395.13 459.149 394.812C467.431 391.968 475.871 389.198 484.47 386.503C499.002 381.962 513.945 377.67 529.3 373.628C540.292 370.724 551.477 367.957 562.855 365.328C566.511 364.473 570.182 363.643 573.869 362.839C582.25 360.973 590.731 359.189 599.311 357.486C687.035 340.007 784.855 330.247 888 330.247V623.128H203.407C203.407 570.026 236.438 520.227 294.182 477.287Z" fill="#2FA4DA"/>
<path d="M276.234 607.932L277.928 608.737C283.677 596.832 290.699 585.585 298.87 575.191L297.391 574.04C289.14 584.544 282.047 595.907 276.234 607.932ZM324.433 544.659L325.715 546.025C334.897 537.487 344.55 529.471 354.629 522.014C355.191 521.593 355.761 521.172 356.332 520.751L355.219 519.245C354.648 519.666 354.077 520.087 353.506 520.517C343.374 528.017 333.668 536.077 324.433 544.659ZM388.465 497.152L389.429 498.752C400.339 492.165 412.045 485.69 424.209 479.504L423.358 477.829C411.156 484.043 399.413 490.546 388.465 497.152ZM459.458 460.865L460.197 462.577C472.016 457.44 484.433 452.425 497.084 447.681L496.429 445.931C483.74 450.684 471.304 455.709 459.458 460.865ZM534.073 432.784L534.643 434.562C537.956 433.486 541.278 432.428 544.637 431.371C553.788 428.517 563.239 425.71 572.737 423.052L572.231 421.246C562.715 423.913 553.246 426.72 544.075 429.593C540.719 430.644 537.385 431.708 534.073 432.784ZM622.526 408.399C618.606 409.297 614.657 410.233 610.802 411.169L611.242 412.984C615.097 412.058 619.036 411.122 622.957 410.214C626.672 409.353 630.368 408.511 633.952 407.735C639.295 406.546 644.722 405.377 650.074 404.272L649.7 402.438C644.329 403.552 638.901 404.712 633.549 405.901C629.965 406.687 626.251 407.529 622.526 408.399ZM688.85 394.971L689.178 396.815C702.063 394.56 715.294 392.445 728.487 390.536L728.216 388.683C715.004 390.602 701.763 392.716 688.85 394.971ZM767.75 383.527L767.966 385.39C781.01 383.874 794.334 382.507 807.575 381.319L807.406 379.457C794.156 380.645 780.813 382.012 767.75 383.527ZM847.165 376.435L847.277 378.306C860.415 377.473 873.796 376.8 887.045 376.304L886.98 374.432C873.702 374.938 860.312 375.611 847.165 376.435Z" fill="white"/>
<path d="M472.521 521.088C555.201 459.602 710.306 418.205 888 418.205V623.128H409.004C409.004 585.98 432.116 551.134 472.521 521.088Z" fill="#F1F1F1"/>
<path opacity="0.2" d="M117.742 433.953L294.182 477.287L472.521 521.088L888 623.128H0C0 554.25 42.8373 489.657 117.742 433.953Z" fill="black"/>
<path d="M356.168 254.573C355.441 295.786 327.742 313.699 327.286 296.298C326.721 274.288 317.23 217.205 279.977 234.711C235.426 255.644 275.588 383.15 262.69 383.15C211.091 383.15 169.213 325.55 169.213 254.573C169.213 183.6 211.091 126 262.69 126C314.29 126 357.403 184.504 356.168 254.573V254.573Z" fill="url(#paint0_linear_329_234)" stroke="black" stroke-width="0.8" stroke-linecap="round" stroke-linejoin="round"/>
<path d="M330.923 166.372C342.888 188 348.827 215.12 349.361 243.594C349.858 269.899 342.684 294.741 329.384 301.779C335.595 303.765 355.44 295.781 356.162 254.567C356.764 220.701 346.996 189.536 330.923 166.372ZM285.874 220.456C282.049 220.529 277.827 221.553 273.17 223.737C228.619 244.67 268.786 372.177 255.888 372.177C229.314 372.177 205.32 356.898 188.294 332.38C205.377 363.22 232.349 383.15 262.69 383.15C275.587 383.15 235.42 255.644 279.972 234.711C293.785 228.226 303.783 231.988 310.925 240.412C305.599 228.936 297.594 220.236 285.874 220.456V220.456Z" fill="black" fill-opacity="0.31373"/>
<path d="M307.725 328.442C307.725 351.073 298.731 372.777 282.723 388.779C266.714 404.782 245.002 413.772 222.362 413.772C199.723 413.772 178.011 404.782 162.002 388.779C145.994 372.777 137 351.073 137 328.442C137 305.811 145.994 284.107 162.002 268.105C178.011 252.102 199.723 243.112 222.362 243.112C245.002 243.112 266.714 252.102 282.723 268.105C298.731 284.107 307.725 305.811 307.725 328.442V328.442Z" fill="url(#paint1_linear_329_234)" stroke="black" stroke-width="0.799968" stroke-linecap="round" stroke-linejoin="round"/>
<path d="M222.366 243.124C213.283 243.124 204.54 244.555 196.326 247.184C203.714 245.459 211.504 244.529 219.556 244.529C241.647 244.529 261.79 251.469 276.948 262.855C262.151 250.533 243.117 243.124 222.366 243.124ZM303.208 300.98C304.328 305.537 304.924 310.239 304.924 315.068C304.924 354.008 266.677 385.606 219.556 385.606C180.153 385.606 146.971 363.513 137.156 333.503C139.772 378.259 176.941 413.787 222.366 413.787C269.487 413.787 307.734 375.558 307.734 328.455C307.734 318.846 306.143 309.602 303.208 300.98Z" fill="black" fill-opacity="0.31373"/>
<path d="M222.366 243.124C207.811 243.124 194.097 246.766 182.1 253.198C187.782 273.039 204.384 291.386 223.994 291.386C243.08 291.386 259.347 274.006 265.443 254.776C252.796 247.372 238.073 243.124 222.366 243.124V243.124Z" fill="black" fill-opacity="0.31373"/>
<path fill-rule="evenodd" clip-rule="evenodd" d="M280.856 172.047C270.491 172.047 249.437 177.554 245.754 191.836C245.696 191.945 245.587 192.343 245.466 192.954C238.8 188.883 230.963 186.516 222.586 186.516C213.838 186.516 205.707 189.097 198.858 193.497C198.717 192.604 198.544 191.977 198.476 191.836C194.793 177.554 173.739 172.062 163.369 172.057C161.721 172.057 160.355 172.198 159.356 172.46C153.794 173.233 147.704 175.454 148.148 176.666C152.23 175.971 154.291 176.765 154.228 177.424C154.103 178.657 151.644 178.986 152.434 183.433C153.925 181.275 156.002 180.533 157.634 180.188C159.309 190.686 166.634 209.012 180.342 209.963C181.519 210.046 182.618 210.041 183.654 210.02C180.42 216.145 178.584 223.121 178.584 230.525C178.584 254.808 198.293 282.947 222.586 282.947C246.874 282.947 266.609 254.808 266.609 230.525C266.609 223.126 264.768 216.165 261.534 210.046C262.282 210.041 263.072 210.02 263.889 209.963C277.55 209.017 284.875 190.796 286.58 180.287C288.139 180.669 290.002 181.453 291.368 183.433C292.158 178.986 289.699 178.657 289.573 177.424C289.51 176.765 291.572 175.971 295.653 176.666C296.077 175.517 290.64 173.463 285.335 172.59C284.325 172.235 282.777 172.047 280.856 172.047V172.047Z" fill="url(#paint2_linear_329_234)" stroke="black" stroke-width="0.8" stroke-linejoin="round"/>
<path d="M239.365 302.354C232.072 295.065 219.091 294.694 211.368 301.544C205.932 306.305 203.766 313.615 203.054 320.539C202.552 325.529 202.85 330.885 205.414 335.332C207.988 338.635 212.472 339.33 216.407 339.528C224.25 339.878 232.537 337.987 238.806 333.028C246.361 326.553 248.124 314.498 242.578 306.237C241.673 304.826 240.579 303.525 239.365 302.354V302.354Z" fill="black" fill-opacity="0.31373"/>
<path d="M213.469 317.117C213.469 321.397 211.768 325.502 208.74 328.528C205.712 331.555 201.606 333.255 197.324 333.255C193.042 333.255 188.936 331.555 185.908 328.528C182.88 325.502 181.179 321.397 181.179 317.117C181.179 312.837 182.88 308.732 185.908 305.705C188.936 302.679 193.042 300.978 197.324 300.978C201.606 300.978 205.712 302.679 208.74 305.705C211.768 308.732 213.469 312.837 213.469 317.117V317.117Z" fill="black" fill-opacity="0.31373"/>
<path d="M236.749 297.129C229.456 289.839 216.475 289.468 208.752 296.319C203.316 301.079 201.15 308.39 200.438 315.313C199.936 320.304 200.234 325.66 202.798 330.107C205.372 333.409 209.856 334.104 213.791 334.303C221.634 334.653 229.922 332.761 236.19 327.802C243.745 321.328 245.508 309.273 239.962 301.011C239.057 299.6 237.963 298.299 236.749 297.129V297.129Z" fill="#DC9A6A" stroke="black" stroke-width="0.8" stroke-linecap="round" stroke-linejoin="round"/>
<path d="M220.299 291.501C221.853 291.872 223.36 292.442 224.768 293.236C226.133 293.973 227.426 294.856 228.582 295.885C235.556 301.842 236.995 312.972 231.904 320.581C227.567 326.532 220.676 330.258 213.629 331.889C210.772 332.531 207.517 332.975 204.734 331.92C207.308 333.686 210.714 334.151 213.785 334.303C221.628 334.653 229.916 332.761 236.189 327.802C243.745 321.328 245.508 309.273 239.962 301.011C239.057 299.595 237.963 298.299 236.749 297.124C232.485 292.86 226.269 290.968 220.299 291.501V291.501Z" fill="black" fill-opacity="0.31373"/>
<path fill-rule="evenodd" clip-rule="evenodd" d="M236.943 295.295C238.382 290.832 245.639 286.709 247.789 288.261C249.94 289.818 250.107 293.518 249.725 294.067C249.348 294.61 245.466 292.933 243.017 294.955C240.574 296.972 239.344 298.696 239.344 298.696L236.943 295.295Z" fill="url(#paint3_linear_329_234)" stroke="black" stroke-width="0.8"/>
<path fill-rule="evenodd" clip-rule="evenodd" d="M249.27 290.2C249.317 290.686 249.249 291.088 249.118 291.245C248.747 291.689 245.027 291.255 242.641 293.1C240.26 294.945 239.057 296.355 239.057 296.355L237.152 294.756C237.079 294.939 237 295.117 236.943 295.295L239.344 298.702C239.344 298.702 240.574 296.972 243.017 294.95C245.466 292.933 249.348 294.61 249.725 294.061C249.987 293.69 249.987 291.83 249.27 290.2V290.2Z" fill="black" fill-opacity="0.31373"/>
<path d="M238.617 295.321C231.454 288.235 219.583 286.406 211.232 291.72C209.343 292.76 209.914 295.368 209.935 295.326C213.09 292.833 216.36 295.577 220.655 298.655C225.914 302.422 231.695 308.202 235.938 313.819C238.91 317.748 241.034 321.61 239.334 324.312C239.423 324.338 241.893 325.033 243.023 322.734C248.715 312.016 245.498 301.722 238.617 295.321V295.321Z" fill="url(#paint4_linear_329_234)" stroke="black" stroke-width="0.8" stroke-linecap="round" stroke-linejoin="round"/>
<path d="M238.052 294.532C240.323 300.416 240.025 305.981 237.142 311.353C236.488 312.575 235.483 312.178 234.641 312.162C235.086 312.711 235.52 313.27 235.938 313.819C238.905 317.754 241.035 321.615 239.334 324.312C239.423 324.338 241.893 325.038 243.023 322.739C248.234 312.915 245.947 302.229 238.052 294.532V294.532Z" fill="black" fill-opacity="0.31373"/>
<path d="M208.64 305.773C209.701 307.608 210.39 309.634 210.668 311.735C210.945 313.836 210.806 315.97 210.258 318.017C209.71 320.063 208.764 321.981 207.474 323.662C206.183 325.342 204.574 326.752 202.738 327.811C200.902 328.87 198.875 329.556 196.773 329.832C194.67 330.108 192.534 329.967 190.485 329.418C188.437 328.869 186.516 327.922 184.833 326.632C183.15 325.341 181.738 323.732 180.677 321.897C179.616 320.061 178.927 318.036 178.649 315.935C178.372 313.834 178.511 311.699 179.059 309.653C179.607 307.607 180.553 305.688 181.844 304.008C183.134 302.327 184.743 300.917 186.579 299.859C188.415 298.8 190.442 298.113 192.545 297.837C194.647 297.562 196.783 297.702 198.832 298.252C200.881 298.801 202.801 299.748 204.484 301.038C206.167 302.329 207.579 303.937 208.64 305.773V305.773Z" fill="url(#paint5_linear_329_234)" stroke="black" stroke-width="0.800002" stroke-linecap="round" stroke-linejoin="round"/>
<path d="M274.035 317.368C274.035 321.648 272.334 325.753 269.306 328.779C266.278 331.806 262.172 333.506 257.89 333.506C253.608 333.506 249.502 331.806 246.474 328.779C243.447 325.753 241.746 321.648 241.746 317.368C241.746 313.087 243.447 308.982 246.474 305.956C249.502 302.929 253.608 301.229 257.89 301.229C262.172 301.229 266.278 302.929 269.306 305.956C272.334 308.982 274.035 313.087 274.035 317.368V317.368Z" fill="black" fill-opacity="0.31373"/>
<path d="M266.697 325.236C263.667 328.262 259.558 329.964 255.274 329.965C250.99 329.967 246.883 328.27 243.855 325.246C240.827 322.222 239.128 318.12 239.129 313.841C239.131 309.563 240.835 305.459 243.865 302.433C246.895 299.407 251.004 297.705 255.288 297.703C259.572 297.701 263.679 299.399 266.707 302.423C269.735 305.447 271.434 309.549 271.433 313.827C271.431 318.105 269.727 322.209 266.697 325.236Z" fill="url(#paint6_linear_329_234)" stroke="black" stroke-width="0.799998" stroke-linecap="round" stroke-linejoin="round"/>
<path d="M263.732 365.154C242.369 365.154 225.024 382.492 225.024 403.843C225.024 408.259 225.767 412.491 227.133 416.442H300.309C301.675 412.491 302.418 408.259 302.418 403.843C302.418 382.492 285.094 365.154 263.732 365.154V365.154Z" fill="url(#paint7_linear_329_234)" stroke="black" stroke-width="0.8" stroke-linecap="round" stroke-linejoin="round"/>
<path d="M186.317 365.154C164.954 365.154 147.63 382.492 147.63 403.843C147.63 408.259 148.373 412.491 149.739 416.442H222.915C224.281 412.491 225.024 408.259 225.024 403.843C225.024 382.492 207.679 365.154 186.317 365.154Z" fill="url(#paint8_linear_329_234)" stroke="black" stroke-width="0.8" stroke-linecap="round" stroke-linejoin="round"/>
<path d="M221.051 226.999C221.052 228.887 220.681 230.757 219.959 232.501C219.237 234.246 218.178 235.831 216.842 237.166C215.507 238.501 213.922 239.561 212.177 240.283C210.432 241.006 208.562 241.378 206.673 241.378C204.784 241.378 202.914 241.006 201.169 240.283C199.425 239.561 197.839 238.501 196.504 237.166C195.169 235.831 194.11 234.246 193.388 232.501C192.666 230.757 192.294 228.887 192.295 226.999C192.294 225.111 192.666 223.241 193.388 221.497C194.11 219.752 195.169 218.167 196.504 216.832C197.839 215.496 199.425 214.437 201.169 213.714C202.914 212.992 204.784 212.62 206.673 212.62C208.562 212.62 210.432 212.992 212.177 213.714C213.922 214.437 215.507 215.496 216.842 216.832C218.178 218.167 219.237 219.752 219.959 221.497C220.681 223.241 221.052 225.111 221.051 226.999V226.999Z" fill="white" stroke="black" stroke-width="0.800004" stroke-linecap="round" stroke-linejoin="round"/>
<path d="M252.894 226.999C252.895 228.887 252.524 230.757 251.802 232.501C251.079 234.246 250.02 235.831 248.685 237.166C247.35 238.501 245.765 239.561 244.02 240.283C242.275 241.006 240.405 241.378 238.516 241.378C236.627 241.378 234.757 241.006 233.012 240.283C231.267 239.561 229.682 238.501 228.347 237.166C227.012 235.831 225.953 234.246 225.23 232.501C224.508 230.757 224.137 228.887 224.138 226.999C224.137 225.111 224.508 223.241 225.23 221.497C225.953 219.752 227.012 218.167 228.347 216.832C229.682 215.496 231.267 214.437 233.012 213.714C234.757 212.992 236.627 212.62 238.516 212.62C240.405 212.62 242.275 212.992 244.02 213.714C245.765 214.437 247.35 215.496 248.685 216.832C250.02 218.167 251.079 219.752 251.802 221.497C252.524 223.241 252.895 225.111 252.894 226.999Z" fill="white" stroke="black" stroke-width="0.800004" stroke-linecap="round" stroke-linejoin="round"/>
<path d="M216.597 228.745C216.597 229.355 216.478 229.959 216.244 230.523C216.011 231.086 215.669 231.599 215.238 232.03C214.807 232.462 214.295 232.804 213.731 233.037C213.167 233.271 212.563 233.391 211.953 233.391C211.343 233.391 210.738 233.271 210.175 233.037C209.611 232.804 209.099 232.462 208.668 232.03C208.236 231.599 207.894 231.086 207.661 230.523C207.428 229.959 207.308 229.355 207.309 228.745C207.308 228.135 207.428 227.531 207.661 226.967C207.894 226.404 208.236 225.892 208.668 225.46C209.099 225.029 209.611 224.686 210.175 224.453C210.738 224.219 211.343 224.099 211.953 224.099C212.563 224.099 213.167 224.219 213.731 224.453C214.295 224.686 214.807 225.029 215.238 225.46C215.669 225.892 216.011 226.404 216.244 226.967C216.478 227.531 216.597 228.135 216.597 228.745V228.745Z" fill="black"/>
<path d="M237.839 228.745C237.84 229.355 237.72 229.959 237.487 230.523C237.254 231.086 236.912 231.599 236.48 232.03C236.049 232.462 235.537 232.804 234.973 233.037C234.41 233.271 233.805 233.391 233.195 233.391C232.585 233.391 231.981 233.271 231.417 233.037C230.854 232.804 230.341 232.462 229.91 232.03C229.479 231.599 229.137 231.086 228.904 230.523C228.671 229.959 228.551 229.355 228.551 228.745C228.551 228.135 228.671 227.531 228.904 226.967C229.137 226.404 229.479 225.892 229.91 225.46C230.341 225.029 230.854 224.686 231.417 224.453C231.981 224.219 232.585 224.099 233.195 224.099C233.805 224.099 234.41 224.219 234.973 224.453C235.537 224.686 236.049 225.029 236.48 225.46C236.912 225.892 237.254 226.404 237.487 226.967C237.72 227.531 237.84 228.135 237.839 228.745Z" fill="black"/>
<path fill-rule="evenodd" clip-rule="evenodd" d="M215.162 254.573C217.506 252.07 227.463 251.526 229.545 254.881C231.627 258.241 226.421 265.201 222.351 264.888C218.301 264.574 212.964 256.908 215.162 254.573Z" fill="black"/>
<path fill-rule="evenodd" clip-rule="evenodd" d="M188.975 203.551C187.431 181.228 164.431 176.144 163.322 178.793C162.218 181.447 167.523 211.29 188.975 203.551Z" fill="#74401B" stroke="black" stroke-width="0.8" stroke-linejoin="round"/>
<path fill-rule="evenodd" clip-rule="evenodd" d="M254.523 203.551C256.066 181.228 279.067 176.144 280.176 178.793C281.28 181.447 275.969 211.29 254.523 203.551Z" fill="url(#paint9_linear_329_234)" stroke="black" stroke-width="0.8" stroke-linejoin="round"/>
<path d="M182.888 405.275C182.888 408.535 181.796 411.661 179.853 413.965C177.91 416.27 175.274 417.565 172.525 417.565C169.777 417.565 167.141 416.27 165.197 413.965C163.254 411.661 162.162 408.535 162.162 405.275C162.162 402.015 163.254 398.889 165.197 396.584C167.141 394.28 169.777 392.985 172.525 392.985C175.274 392.985 177.91 394.28 179.853 396.584C181.796 398.889 182.888 402.015 182.888 405.275V405.275Z" fill="url(#paint10_linear_329_234)" stroke="black" stroke-width="0.734432" stroke-linecap="round" stroke-linejoin="round"/>
<path d="M208.882 405.275C208.882 408.535 207.79 411.661 205.846 413.965C203.903 416.27 201.267 417.565 198.519 417.565C195.77 417.565 193.134 416.27 191.191 413.965C189.247 411.661 188.156 408.535 188.156 405.275C188.156 402.015 189.247 398.889 191.191 396.584C193.134 394.28 195.77 392.985 198.519 392.985C201.267 392.985 203.903 394.28 205.846 396.584C207.79 398.889 208.882 402.015 208.882 405.275V405.275Z" fill="url(#paint11_linear_329_234)" stroke="black" stroke-width="0.734432" stroke-linecap="round" stroke-linejoin="round"/>
<path d="M196.586 405.275C196.586 408.535 195.494 411.661 193.551 413.965C191.607 416.27 188.972 417.565 186.223 417.565C183.475 417.565 180.839 416.27 178.895 413.965C176.952 411.661 175.86 408.535 175.86 405.275C175.86 402.015 176.952 398.889 178.895 396.584C180.839 394.28 183.475 392.985 186.223 392.985C188.972 392.985 191.607 394.28 193.551 396.584C195.494 398.889 196.586 402.015 196.586 405.275V405.275Z" fill="url(#paint12_linear_329_234)" stroke="black" stroke-width="0.734432" stroke-linecap="round" stroke-linejoin="round"/>
<path d="M262.631 405.275C262.631 408.535 261.539 411.661 259.595 413.965C257.652 416.27 255.016 417.565 252.268 417.565C249.519 417.565 246.883 416.27 244.94 413.965C242.996 411.661 241.905 408.535 241.905 405.275C241.905 402.015 242.996 398.889 244.94 396.584C246.883 394.28 249.519 392.985 252.268 392.985C255.016 392.985 257.652 394.28 259.595 396.584C261.539 398.889 262.631 402.015 262.631 405.275V405.275Z" fill="url(#paint13_linear_329_234)" stroke="black" stroke-width="0.734432" stroke-linecap="round" stroke-linejoin="round"/>
<path d="M288.627 405.275C288.627 408.535 287.535 411.661 285.591 413.965C283.648 416.27 281.012 417.565 278.264 417.565C275.515 417.565 272.879 416.27 270.936 413.965C268.992 411.661 267.901 408.535 267.901 405.275C267.901 402.015 268.992 398.889 270.936 396.584C272.879 394.28 275.515 392.985 278.264 392.985C281.012 392.985 283.648 394.28 285.591 396.584C287.535 398.889 288.627 402.015 288.627 405.275V405.275Z" fill="url(#paint14_linear_329_234)" stroke="black" stroke-width="0.734432" stroke-linecap="round" stroke-linejoin="round"/>
<path d="M276.331 405.275C276.331 408.535 275.239 411.661 273.296 413.965C271.352 416.27 268.716 417.565 265.968 417.565C263.22 417.565 260.584 416.27 258.64 413.965C256.697 411.661 255.605 408.535 255.605 405.275C255.605 402.015 256.697 398.889 258.64 396.584C260.584 394.28 263.22 392.985 265.968 392.985C268.716 392.985 271.352 394.28 273.296 396.584C275.239 398.889 276.331 402.015 276.331 405.275V405.275Z" fill="url(#paint15_linear_329_234)" stroke="black" stroke-width="0.734432" stroke-linecap="round" stroke-linejoin="round"/>
<path d="M263.14 213.495C263.941 216.808 264.37 220.278 264.37 223.831C264.37 248.114 244.639 276.243 220.347 276.243C202.641 276.243 187.389 261.293 180.41 243.782C185.814 263.999 202.651 282.957 222.586 282.957C246.879 282.957 266.609 254.808 266.609 230.525C266.609 224.484 265.374 218.736 263.161 213.495H263.14Z" fill="black" fill-opacity="0.31373"/>
<path d="M199.742 317.702C200.461 318.117 201.102 318.652 201.627 319.278C202.152 319.903 202.551 320.605 202.802 321.345C203.053 322.086 203.151 322.848 203.089 323.591C203.027 324.333 202.808 325.04 202.443 325.671C202.079 326.302 201.576 326.846 200.964 327.27C200.351 327.695 199.642 327.992 198.875 328.145C198.109 328.297 197.3 328.303 196.496 328.161C195.692 328.019 194.907 327.732 194.188 327.317C193.469 326.902 192.828 326.366 192.303 325.741C191.778 325.116 191.378 324.413 191.127 323.673C190.877 322.933 190.779 322.17 190.841 321.428C190.902 320.686 191.122 319.979 191.486 319.347C191.851 318.716 192.354 318.173 192.966 317.748C193.578 317.324 194.288 317.027 195.054 316.874C195.821 316.721 196.629 316.716 197.434 316.858C198.238 317 199.022 317.286 199.742 317.702V317.702Z" fill="url(#paint16_linear_329_234)" stroke="black" stroke-width="0.734456" stroke-linecap="round" stroke-linejoin="round"/>
<path d="M206.706 305.641C208.159 306.48 209.259 307.791 209.766 309.285C210.273 310.78 210.144 312.336 209.407 313.611C208.671 314.886 207.387 315.776 205.839 316.084C204.291 316.393 202.605 316.095 201.152 315.257C199.699 314.418 198.598 313.107 198.091 311.613C197.585 310.118 197.714 308.562 198.45 307.287C199.187 306.012 200.47 305.122 202.018 304.814C203.566 304.505 205.253 304.803 206.706 305.641V305.641Z" fill="url(#paint17_linear_329_234)" stroke="black" stroke-width="0.734456" stroke-linecap="round" stroke-linejoin="round"/>
<path d="M206.214 313.38C207.667 314.219 208.768 315.529 209.274 317.024C209.781 318.519 209.652 320.075 208.916 321.35C208.179 322.625 206.896 323.514 205.347 323.823C203.799 324.132 202.113 323.834 200.66 322.995C199.207 322.157 198.106 320.846 197.6 319.352C197.093 317.857 197.222 316.301 197.958 315.026C198.695 313.751 199.978 312.861 201.527 312.553C203.075 312.244 204.761 312.542 206.214 313.38V313.38Z" fill="url(#paint18_linear_329_234)" stroke="black" stroke-width="0.734456" stroke-linecap="round" stroke-linejoin="round"/>
<path d="M249.801 316.691C248.999 316.906 248.241 317.258 247.572 317.726C246.903 318.194 246.335 318.77 245.901 319.42C245.466 320.07 245.175 320.781 245.042 321.514C244.909 322.247 244.938 322.986 245.126 323.691C245.315 324.395 245.66 325.05 246.141 325.618C246.622 326.186 247.231 326.656 247.932 327.002C248.633 327.348 249.412 327.562 250.226 327.633C251.039 327.704 251.871 327.629 252.674 327.414C253.476 327.199 254.234 326.847 254.903 326.379C255.572 325.911 256.14 325.336 256.574 324.686C257.008 324.036 257.3 323.324 257.433 322.591C257.566 321.858 257.537 321.119 257.349 320.415C257.16 319.711 256.815 319.056 256.334 318.488C255.853 317.919 255.244 317.449 254.543 317.103C253.842 316.757 253.063 316.543 252.249 316.472C251.436 316.402 250.604 316.476 249.801 316.691V316.691Z" fill="url(#paint19_linear_329_234)" stroke="black" stroke-width="0.734456" stroke-linecap="round" stroke-linejoin="round"/>
<path d="M246.201 303.241C245.399 303.456 244.641 303.807 243.972 304.276C243.303 304.744 242.735 305.319 242.301 305.969C241.867 306.619 241.575 307.331 241.442 308.064C241.309 308.797 241.338 309.536 241.526 310.24C241.715 310.944 242.06 311.599 242.541 312.167C243.023 312.736 243.631 313.206 244.332 313.552C245.033 313.898 245.812 314.112 246.626 314.183C247.439 314.253 248.271 314.179 249.074 313.964C250.695 313.529 252.098 312.548 252.974 311.235C253.851 309.923 254.13 308.386 253.749 306.964C253.368 305.542 252.359 304.351 250.943 303.653C249.528 302.954 247.822 302.806 246.201 303.241V303.241Z" fill="url(#paint20_linear_329_234)" stroke="black" stroke-width="0.734456" stroke-linecap="round" stroke-linejoin="round"/>
<path d="M244.674 310.844C243.053 311.278 241.65 312.26 240.773 313.572C239.896 314.885 239.618 316.421 239.999 317.843C240.38 319.265 241.389 320.456 242.804 321.155C244.22 321.853 245.925 322.001 247.546 321.567C249.167 321.133 250.57 320.151 251.447 318.838C252.324 317.526 252.602 315.989 252.221 314.567C252.033 313.863 251.688 313.208 251.206 312.64C250.725 312.072 250.117 311.602 249.416 311.256C248 310.558 246.295 310.409 244.674 310.844V310.844Z" fill="url(#paint21_linear_329_234)" stroke="black" stroke-width="0.734456" stroke-linecap="round" stroke-linejoin="round"/>
</g>
<defs>
<linearGradient id="paint0_linear_329_234" x1="168.167" y1="254.575" x2="357.24" y2="254.575" gradientUnits="userSpaceOnUse">
<stop stop-color="#D07839"/>
</linearGradient>
<linearGradient id="paint1_linear_329_234" x1="135.954" y1="328.442" x2="308.771" y2="328.442" gradientUnits="userSpaceOnUse">
<stop stop-color="#D07839"/>
</linearGradient>
<linearGradient id="paint2_linear_329_234" x1="147.085" y1="227.497" x2="296.716" y2="227.497" gradientUnits="userSpaceOnUse">
<stop stop-color="#D07839"/>
</linearGradient>
<linearGradient id="paint3_linear_329_234" x1="-30.2373" y1="357.965" x2="-29.6946" y2="359.744" gradientUnits="userSpaceOnUse">
<stop stop-color="#74401B"/>
</linearGradient>
<linearGradient id="paint4_linear_329_234" x1="-30.8026" y1="354.064" x2="-29.2882" y2="359.029" gradientUnits="userSpaceOnUse">
<stop stop-color="#74401B"/>
</linearGradient>
<linearGradient id="paint5_linear_329_234" x1="184.882" y1="-180.347" x2="197.2" y2="-177.037" gradientUnits="userSpaceOnUse">
<stop stop-color="#D07839"/>
</linearGradient>
<linearGradient id="paint6_linear_329_234" x1="208.01" y1="-174.166" x2="220.33" y2="-170.855" gradientUnits="userSpaceOnUse">
<stop stop-color="#D07839"/>
</linearGradient>
<linearGradient id="paint7_linear_329_234" x1="195.706" y1="-149.84" x2="225.223" y2="-141.909" gradientUnits="userSpaceOnUse">
<stop stop-color="#D07839"/>
</linearGradient>
<linearGradient id="paint8_linear_329_234" x1="166.178" y1="-157.73" x2="195.695" y2="-149.799" gradientUnits="userSpaceOnUse">
<stop stop-color="#D07839"/>
</linearGradient>
<linearGradient id="paint9_linear_329_234" x1="-78.9323" y1="375.46" x2="-77.8508" y2="379.006" gradientUnits="userSpaceOnUse">
<stop stop-color="#74401B"/>
</linearGradient>
<linearGradient id="paint10_linear_329_234" x1="14.4624" y1="333.092" x2="15.3316" y2="335.942" gradientUnits="userSpaceOnUse">
<stop stop-color="#74401B"/>
</linearGradient>
<linearGradient id="paint11_linear_329_234" x1="15.3171" y1="336.738" x2="16.1863" y2="339.587" gradientUnits="userSpaceOnUse">
<stop stop-color="#74401B"/>
</linearGradient>
<linearGradient id="paint12_linear_329_234" x1="14.9134" y1="335.013" x2="15.7825" y2="337.863" gradientUnits="userSpaceOnUse">
<stop stop-color="#74401B"/>
</linearGradient>
<linearGradient id="paint13_linear_329_234" x1="17.0824" y1="344.276" x2="17.9515" y2="347.125" gradientUnits="userSpaceOnUse">
<stop stop-color="#74401B"/>
</linearGradient>
<linearGradient id="paint14_linear_329_234" x1="17.9356" y1="347.922" x2="18.8047" y2="350.771" gradientUnits="userSpaceOnUse">
<stop stop-color="#74401B"/>
</linearGradient>
<linearGradient id="paint15_linear_329_234" x1="17.5316" y1="346.197" x2="18.4008" y2="349.047" gradientUnits="userSpaceOnUse">
<stop stop-color="#74401B"/>
</linearGradient>
<linearGradient id="paint16_linear_329_234" x1="-18.8117" y1="347.549" x2="-18.2966" y2="349.238" gradientUnits="userSpaceOnUse">
<stop stop-color="#74401B"/>
</linearGradient>
<linearGradient id="paint17_linear_329_234" x1="-23.9969" y1="350.177" x2="-23.4818" y2="351.866" gradientUnits="userSpaceOnUse">
<stop stop-color="#74401B"/>
</linearGradient>
<linearGradient id="paint18_linear_329_234" x1="-20.5393" y1="349.048" x2="-20.0241" y2="350.737" gradientUnits="userSpaceOnUse">
<stop stop-color="#74401B"/>
</linearGradient>
<linearGradient id="paint19_linear_329_234" x1="-17.1728" y1="355.184" x2="-16.6463" y2="356.91" gradientUnits="userSpaceOnUse">
<stop stop-color="#74401B"/>
</linearGradient>
<linearGradient id="paint20_linear_329_234" x1="-23.328" y1="356.521" x2="-22.8015" y2="358.247" gradientUnits="userSpaceOnUse">
<stop stop-color="#74401B"/>
</linearGradient>
<linearGradient id="paint21_linear_329_234" x1="-19.9656" y1="355.265" x2="-19.4391" y2="356.992" gradientUnits="userSpaceOnUse">
<stop stop-color="#74401B"/>
</linearGradient>
<clipPath id="clip0_329_234">
<rect width="888" height="623.128" fill="white"/>
</clipPath>
</defs>
</svg>
