<svg width="894" height="517" viewBox="0 0 894 517" fill="none" xmlns="http://www.w3.org/2000/svg">
<g clip-path="url(#clip0_310_150)">
<path d="M634.122 217.502H51.1865C47.5785 217.498 44.1194 216.063 41.5681 213.511C39.0168 210.96 37.5817 207.501 37.5775 203.893V83.17C37.5817 79.5619 39.0168 76.1029 41.5681 73.5516C44.1194 71.0003 47.5785 69.5652 51.1865 69.561H634.122C637.73 69.5652 641.189 71.0003 643.74 73.5516C646.292 76.1029 647.727 79.5619 647.731 83.17V203.893C647.727 207.501 646.292 210.96 643.74 213.511C641.189 216.063 637.73 217.498 634.122 217.502Z" fill="#E6E6E6"/>
<path d="M594.778 208.322H60.3681C56.7601 208.318 53.301 206.883 50.7498 204.332C48.1985 201.781 46.7633 198.321 46.7592 194.713V92.3568C46.7633 88.7487 48.1985 85.2896 50.7498 82.7383C53.301 80.1871 56.7601 78.7519 60.3681 78.7477H624.943C628.551 78.7519 632.01 80.1871 634.561 82.7383C637.112 85.2896 638.547 88.7487 638.552 92.3568V164.548C638.539 176.154 633.922 187.28 625.716 195.487C617.51 203.693 606.383 208.309 594.778 208.322Z" fill="white"/>
<path d="M524.3 125.151H361.547C360.616 125.151 359.723 124.781 359.065 124.123C358.407 123.465 358.037 122.572 358.037 121.641C358.037 120.71 358.407 119.817 359.065 119.159C359.723 118.501 360.616 118.131 361.547 118.131H524.3C525.231 118.131 526.123 118.501 526.782 119.159C527.44 119.817 527.81 120.71 527.81 121.641C527.81 122.572 527.44 123.465 526.782 124.123C526.123 124.781 525.231 125.151 524.3 125.151Z" fill="#2FA4DA"/>
<path d="M565.494 145.984H320.352C319.421 145.984 318.529 145.614 317.871 144.956C317.212 144.297 316.843 143.405 316.843 142.474C316.843 141.543 317.212 140.65 317.871 139.992C318.529 139.334 319.421 138.964 320.352 138.964H565.494C566.425 138.964 567.318 139.334 567.976 139.992C568.634 140.65 569.004 141.543 569.004 142.474C569.004 143.405 568.634 144.297 567.976 144.956C567.318 145.614 566.425 145.984 565.494 145.984Z" fill="#E6E6E6"/>
<path d="M565.494 168.939H320.352C319.421 168.939 318.529 168.569 317.871 167.911C317.212 167.253 316.843 166.36 316.843 165.429C316.843 164.498 317.212 163.606 317.871 162.947C318.529 162.289 319.421 161.919 320.352 161.919H565.494C566.425 161.919 567.318 162.289 567.976 162.947C568.634 163.606 569.004 164.498 569.004 165.429C569.004 166.36 568.634 167.253 567.976 167.911C567.318 168.569 566.425 168.939 565.494 168.939Z" fill="#E6E6E6"/>
<path d="M359.383 89.694H357.383V12.651H502.04V14.651H359.383V89.694Z" fill="#3F3D56"/>
<path d="M563.213 0H510.213C506.765 0 503.458 1.36964 501.02 3.80762C498.582 6.24559 497.213 9.55219 497.213 13C497.213 16.4478 498.582 19.7544 501.02 22.1924C503.458 24.6304 506.765 26 510.213 26H563.213C566.66 26 569.967 24.6304 572.405 22.1924C574.843 19.7544 576.213 16.4478 576.213 13C576.213 9.55219 574.843 6.24559 572.405 3.80762C569.967 1.36964 566.66 0 563.213 0Z" fill="#2FA4DA"/>
<path d="M357.223 102.78C363.82 102.78 369.169 97.432 369.169 90.8344C369.169 84.2369 363.82 78.8885 357.223 78.8885C350.625 78.8885 345.277 84.2369 345.277 90.8344C345.277 97.432 350.625 102.78 357.223 102.78Z" fill="#E6E6E6"/>
<path d="M431.383 198.306H429.383V275.349H574.04V273.349H431.383V198.306Z" fill="#3F3D56"/>
<path d="M648.213 275C648.209 271.553 646.839 268.249 644.401 265.811C641.964 263.374 638.659 262.003 635.213 262H582.213C578.765 262 575.458 263.37 573.02 265.808C570.582 268.246 569.213 271.552 569.213 275C569.213 278.448 570.582 281.754 573.02 284.192C575.458 286.63 578.765 288 582.213 288H635.213C638.659 287.997 641.964 286.626 644.401 284.189C646.839 281.751 648.209 278.447 648.213 275Z" fill="#2FA4DA"/>
<path d="M431.223 205.78C437.82 205.78 443.169 200.432 443.169 193.834C443.169 187.237 437.82 181.889 431.223 181.889C424.625 181.889 419.277 187.237 419.277 193.834C419.277 200.432 424.625 205.78 431.223 205.78Z" fill="#E6E6E6"/>
<path d="M216.83 199.306H218.83V276.349H74.173V274.349H216.83V199.306Z" fill="#3F3D56"/>
<path d="M13 289H66C69.4478 289 72.7544 287.63 75.1924 285.192C77.6304 282.754 79 279.448 79 276C79 272.552 77.6304 269.246 75.1924 266.808C72.7544 264.37 69.4478 263 66 263H13C9.55219 263 6.24559 264.37 3.80762 266.808C1.36964 269.246 0 272.552 0 276C0 279.448 1.36964 282.754 3.80762 285.192C6.24559 287.63 9.55219 289 13 289Z" fill="#2FA4DA"/>
<path d="M219.223 205.111C225.82 205.111 231.169 199.763 231.169 193.166C231.169 186.568 225.82 181.22 219.223 181.22C212.625 181.22 207.277 186.568 207.277 193.166C207.277 199.763 212.625 205.111 219.223 205.111Z" fill="#E6E6E6"/>
<path d="M858.964 515.347H825.777L825.635 515.089C825.21 514.319 824.801 513.504 824.418 512.666C821 505.347 819.555 496.977 818.28 489.593L817.32 484.026C817.204 483.352 817.291 482.658 817.571 482.034C817.851 481.41 818.312 480.884 818.893 480.523C819.474 480.162 820.149 479.982 820.833 480.007C821.516 480.033 822.177 480.261 822.73 480.664C827.773 484.334 832.819 488 837.866 491.663C839.777 493.053 841.96 494.663 844.05 496.402C844.252 495.423 844.463 494.44 844.674 493.471C844.819 492.802 845.161 492.192 845.655 491.719C846.15 491.245 846.774 490.93 847.448 490.813C848.123 490.697 848.817 490.784 849.442 491.064C850.066 491.344 850.593 491.804 850.955 492.385L854.837 498.624C857.669 503.179 860.169 507.669 859.66 512.51C859.662 512.569 859.658 512.628 859.646 512.686C859.545 513.482 859.356 514.263 859.083 515.017L858.964 515.347Z" fill="#F0F0F0"/>
<path d="M892.273 516.065L576.916 516.372C576.601 516.371 576.3 516.245 576.078 516.022C575.856 515.798 575.731 515.497 575.731 515.182C575.731 514.867 575.856 514.565 576.078 514.342C576.3 514.119 576.601 513.993 576.916 513.991L892.273 513.684C892.588 513.685 892.889 513.812 893.111 514.035C893.333 514.258 893.458 514.56 893.458 514.875C893.458 515.189 893.333 515.491 893.111 515.714C892.889 515.937 892.588 516.064 892.273 516.065Z" fill="#CACACA"/>
<path d="M104.106 179.346C123.989 179.346 140.106 163.229 140.106 143.346C140.106 123.464 123.989 107.346 104.106 107.346C84.2241 107.346 68.1063 123.464 68.1063 143.346C68.1063 163.229 84.2241 179.346 104.106 179.346Z" fill="#F2F2F2"/>
<path d="M240.507 124.962H216.754C215.823 124.962 214.93 124.592 214.272 123.934C213.614 123.276 213.244 122.383 213.244 121.452C213.244 120.522 213.614 119.629 214.272 118.971C214.93 118.312 215.823 117.943 216.754 117.943H240.507C241.438 117.943 242.33 118.312 242.989 118.971C243.647 119.629 244.017 120.522 244.017 121.452C244.017 122.383 243.647 123.276 242.989 123.934C242.33 124.592 241.438 124.962 240.507 124.962Z" fill="#2FA4DA"/>
<path d="M281.701 145.795H175.559C174.629 145.795 173.736 145.425 173.078 144.767C172.419 144.109 172.05 143.216 172.05 142.285C172.05 141.354 172.419 140.462 173.078 139.803C173.736 139.145 174.629 138.775 175.559 138.775H281.701C282.632 138.775 283.525 139.145 284.183 139.803C284.841 140.462 285.211 141.354 285.211 142.285C285.211 143.216 284.841 144.109 284.183 144.767C283.525 145.425 282.632 145.795 281.701 145.795Z" fill="#E6E6E6"/>
<path d="M281.701 168.75H175.559C174.629 168.75 173.736 168.381 173.078 167.722C172.419 167.064 172.05 166.171 172.05 165.241C172.05 164.31 172.419 163.417 173.078 162.759C173.736 162.101 174.629 161.731 175.559 161.731H281.701C282.632 161.731 283.525 162.101 284.183 162.759C284.841 163.417 285.211 164.31 285.211 165.241C285.211 166.171 284.841 167.064 284.183 167.722C283.525 168.381 282.632 168.75 281.701 168.75Z" fill="#E6E6E6"/>
<path d="M878.086 285.24C877.061 343.336 838.015 368.586 837.374 344.058C836.577 313.032 823.198 232.566 770.685 257.242C707.884 286.75 764.497 466.488 746.317 466.488C673.581 466.488 614.548 385.292 614.548 285.24C614.548 185.195 673.581 104 746.317 104C819.053 104 879.826 186.47 878.086 285.24V285.24Z" fill="url(#paint0_linear_310_150)" stroke="black" stroke-width="0.8" stroke-linecap="round" stroke-linejoin="round"/>
<path d="M842.499 160.91C859.367 191.398 867.738 229.627 868.49 269.764C869.191 306.845 859.079 341.863 840.331 351.785C849.086 354.584 877.061 343.328 878.078 285.233C878.927 237.494 865.157 193.563 842.499 160.91ZM778.997 237.148C773.606 237.251 767.654 238.695 761.09 241.774C698.288 271.282 754.909 451.019 736.729 451.019C699.269 451.019 665.446 429.481 641.446 394.92C665.527 438.394 703.547 466.488 746.317 466.488C764.497 466.488 707.876 286.75 770.678 257.242C790.149 248.101 804.243 253.404 814.311 265.278C806.803 249.103 795.518 236.838 778.997 237.148V237.148Z" fill="black" fill-opacity="0.31373"/>
<path d="M809.799 389.369C809.799 421.27 797.122 451.865 774.555 474.422C751.989 496.98 721.383 509.653 689.469 509.653C657.556 509.653 626.95 496.98 604.383 474.422C581.817 451.865 569.14 421.27 569.14 389.369C569.14 357.468 581.817 326.873 604.383 304.316C626.95 281.758 657.556 269.085 689.469 269.085C721.383 269.085 751.989 281.758 774.555 304.316C797.122 326.873 809.799 357.468 809.799 389.369V389.369Z" fill="url(#paint1_linear_310_150)" stroke="black" stroke-width="0.799968" stroke-linecap="round" stroke-linejoin="round"/>
<path d="M689.475 269.101C676.671 269.101 664.347 271.12 652.767 274.825C663.181 272.394 674.163 271.083 685.514 271.083C716.653 271.083 745.048 280.865 766.415 296.915C745.557 279.546 718.726 269.101 689.475 269.101ZM803.432 350.658C805.01 357.081 805.851 363.71 805.851 370.516C805.851 425.408 751.937 469.95 685.514 469.95C629.97 469.95 583.195 438.806 569.359 396.504C573.047 459.593 625.442 509.675 689.475 509.675C755.898 509.675 809.812 455.785 809.812 389.388C809.812 375.842 807.57 362.812 803.432 350.658Z" fill="black" fill-opacity="0.31373"/>
<path d="M689.475 269.101C668.956 269.101 649.626 274.235 632.714 283.303C640.723 311.272 664.126 337.134 691.769 337.134C718.674 337.134 741.604 312.634 750.196 285.528C732.37 275.09 711.616 269.101 689.475 269.101V269.101Z" fill="black" fill-opacity="0.31373"/>
<path fill-rule="evenodd" clip-rule="evenodd" d="M771.924 168.909C757.314 168.909 727.635 176.673 722.443 196.804C722.362 196.959 722.207 197.519 722.037 198.38C712.641 192.642 701.592 189.306 689.784 189.306C677.453 189.306 665.991 192.944 656.337 199.147C656.138 197.887 655.895 197.003 655.799 196.804C650.606 176.673 620.928 168.931 606.31 168.924C603.987 168.924 602.062 169.123 600.653 169.491C592.813 170.581 584.228 173.712 584.855 175.421C590.608 174.441 593.513 175.561 593.425 176.489C593.248 178.227 589.782 178.691 590.895 184.96C592.997 181.917 595.925 180.871 598.226 180.385C600.586 195.184 610.912 221.016 630.236 222.357C631.895 222.475 633.444 222.467 634.904 222.438C630.346 231.071 627.757 240.904 627.757 251.342C627.757 285.572 655.541 325.238 689.784 325.238C724.021 325.238 751.841 285.572 751.841 251.342C751.841 240.912 749.245 231.1 744.687 222.475C745.742 222.467 746.855 222.438 748.006 222.357C767.263 221.024 777.589 195.338 779.993 180.525C782.191 181.063 784.816 182.168 786.741 184.96C787.855 178.691 784.389 178.227 784.212 176.489C784.123 175.561 787.029 174.441 792.782 175.421C793.379 173.8 785.716 170.905 778.238 169.675C776.814 169.174 774.631 168.909 771.924 168.909V168.909Z" fill="url(#paint2_linear_310_150)" stroke="black" stroke-width="0.8" stroke-linejoin="round"/>
<path d="M713.437 352.595C703.156 342.319 684.858 341.796 673.972 351.453C666.309 358.163 663.255 368.468 662.252 378.228C661.544 385.263 661.964 392.813 665.578 399.082C669.207 403.737 675.528 404.717 681.074 404.996C692.13 405.49 703.812 402.823 712.648 395.833C723.298 386.707 725.784 369.713 717.966 358.068C716.69 356.079 715.148 354.245 713.437 352.595V352.595Z" fill="black" fill-opacity="0.31373"/>
<path d="M676.932 373.404C676.932 379.438 674.535 385.224 670.267 389.491C665.999 393.757 660.21 396.154 654.174 396.154C648.139 396.154 642.35 393.757 638.082 389.491C633.814 385.224 631.416 379.438 631.416 373.404C631.416 367.371 633.814 361.585 638.082 357.318C642.35 353.052 648.139 350.655 654.174 350.655C660.21 350.655 665.999 353.052 670.267 357.318C674.535 361.585 676.932 367.371 676.932 373.404V373.404Z" fill="black" fill-opacity="0.31373"/>
<path d="M709.75 345.229C699.468 334.953 681.17 334.43 670.284 344.087C662.621 350.798 659.567 361.103 658.564 370.862C657.856 377.897 658.277 385.447 661.891 391.716C665.519 396.371 671.84 397.351 677.386 397.63C688.442 398.124 700.125 395.458 708.96 388.467C719.611 379.341 722.096 362.347 714.278 350.702C713.002 348.713 711.461 346.879 709.75 345.229V345.229Z" fill="#DC9A6A" stroke="black" stroke-width="0.8" stroke-linecap="round" stroke-linejoin="round"/>
<path d="M686.562 337.296C688.752 337.819 690.876 338.622 692.86 339.741C694.785 340.78 696.607 342.025 698.237 343.476C708.068 351.873 710.096 367.563 702.92 378.287C696.806 386.677 687.093 391.929 677.158 394.227C673.131 395.133 668.543 395.76 664.62 394.272C668.248 396.761 673.05 397.417 677.379 397.631C688.435 398.124 700.118 395.458 708.961 388.467C719.611 379.341 722.096 362.347 714.278 350.702C713.002 348.706 711.461 346.879 709.75 345.222C703.739 339.211 694.977 336.544 686.562 337.296V337.296Z" fill="black" fill-opacity="0.31373"/>
<path fill-rule="evenodd" clip-rule="evenodd" d="M710.022 342.643C712.051 336.353 722.28 330.541 725.312 332.729C728.343 334.924 728.579 340.139 728.041 340.912C727.51 341.678 722.037 339.314 718.585 342.165C715.141 345.008 713.408 347.439 713.408 347.439L710.022 342.643Z" fill="url(#paint3_linear_310_150)" stroke="black" stroke-width="0.8"/>
<path fill-rule="evenodd" clip-rule="evenodd" d="M727.399 335.462C727.465 336.147 727.369 336.714 727.185 336.935C726.661 337.561 721.417 336.949 718.054 339.55C714.698 342.15 713.002 344.139 713.002 344.139L710.317 341.885C710.214 342.142 710.104 342.393 710.022 342.643L713.408 347.446C713.408 347.446 715.141 345.008 718.585 342.157C722.037 339.314 727.51 341.678 728.041 340.905C728.409 340.382 728.409 337.76 727.399 335.462V335.462Z" fill="black" fill-opacity="0.31373"/>
<path d="M712.383 342.68C702.286 332.692 685.551 330.114 673.78 337.605C671.117 339.071 671.921 342.747 671.951 342.688C676.398 339.174 681.008 343.041 687.063 347.38C694.475 352.691 702.625 360.837 708.606 368.756C712.796 374.295 715.79 379.739 713.393 383.547C713.518 383.584 717 384.563 718.593 381.322C726.617 366.215 722.081 351.704 712.383 342.68V342.68Z" fill="url(#paint4_linear_310_150)" stroke="black" stroke-width="0.8" stroke-linecap="round" stroke-linejoin="round"/>
<path d="M711.586 341.568C714.787 349.862 714.367 357.707 710.303 365.279C709.381 367.003 707.965 366.443 706.777 366.421C707.404 367.194 708.017 367.982 708.607 368.756C712.788 374.302 715.79 379.746 713.393 383.547C713.519 383.584 717 384.571 718.593 381.33C725.939 367.482 722.716 352.418 711.586 341.568V341.568Z" fill="black" fill-opacity="0.31373"/>
<path d="M670.126 357.414C671.622 360.001 672.593 362.857 672.984 365.818C673.376 368.779 673.179 371.788 672.407 374.673C671.634 377.558 670.301 380.262 668.482 382.631C666.663 385 664.395 386.987 661.806 388.479C659.218 389.972 656.361 390.94 653.397 391.329C650.434 391.717 647.422 391.519 644.534 390.745C641.647 389.971 638.939 388.636 636.567 386.817C634.195 384.998 632.204 382.73 630.708 380.143C629.213 377.556 628.242 374.7 627.85 371.738C627.459 368.777 627.655 365.768 628.428 362.883C629.2 359.999 630.534 357.295 632.353 354.926C634.172 352.557 636.44 350.57 639.028 349.077C641.616 347.585 644.474 346.616 647.437 346.228C650.401 345.839 653.412 346.037 656.3 346.812C659.188 347.586 661.895 348.92 664.267 350.74C666.64 352.559 668.631 354.827 670.126 357.414V357.414Z" fill="url(#paint5_linear_310_150)" stroke="black" stroke-width="0.800002" stroke-linecap="round" stroke-linejoin="round"/>
<path d="M762.308 373.758C762.308 379.791 759.911 385.578 755.643 389.844C751.375 394.11 745.586 396.507 739.55 396.507C733.515 396.507 727.726 394.11 723.458 389.844C719.19 385.578 716.792 379.791 716.792 373.758C716.792 367.725 719.19 361.938 723.458 357.672C727.726 353.406 733.515 351.009 739.55 351.009C745.586 351.009 751.375 353.406 755.643 357.672C759.911 361.938 762.308 367.725 762.308 373.758V373.758Z" fill="black" fill-opacity="0.31373"/>
<path d="M751.965 384.849C747.693 389.116 741.901 391.514 735.862 391.516C729.824 391.519 724.034 389.126 719.766 384.863C715.498 380.601 713.102 374.818 713.105 368.788C713.107 362.757 715.509 356.972 719.78 352.706C724.052 348.44 729.844 346.041 735.882 346.039C741.921 346.036 747.711 348.429 751.979 352.692C756.247 356.954 758.643 362.737 758.64 368.768C758.638 374.798 756.236 380.583 751.965 384.849Z" fill="url(#paint6_linear_310_150)" stroke="black" stroke-width="0.799998" stroke-linecap="round" stroke-linejoin="round"/>
<path d="M747.785 441.119C717.671 441.119 693.221 465.56 693.221 495.657C693.221 501.881 694.269 507.848 696.194 513.417H799.346C801.271 507.848 802.318 501.881 802.318 495.657C802.318 465.56 777.898 441.119 747.785 441.119V441.119Z" fill="url(#paint7_linear_310_150)" stroke="black" stroke-width="0.8" stroke-linecap="round" stroke-linejoin="round"/>
<path d="M638.658 441.119C608.545 441.119 584.125 465.56 584.125 495.657C584.125 501.881 585.172 507.848 587.097 513.417H690.249C692.174 507.848 693.221 501.881 693.221 495.657C693.221 465.56 668.772 441.119 638.658 441.119Z" fill="url(#paint8_linear_310_150)" stroke="black" stroke-width="0.8" stroke-linecap="round" stroke-linejoin="round"/>
<path d="M687.621 246.371C687.622 249.033 687.099 251.668 686.081 254.128C685.063 256.587 683.57 258.821 681.688 260.704C679.806 262.586 677.571 264.079 675.112 265.098C672.652 266.117 670.016 266.641 667.353 266.641C664.691 266.641 662.054 266.117 659.595 265.098C657.135 264.079 654.901 262.586 653.018 260.704C651.136 258.821 649.644 256.587 648.626 254.128C647.608 251.668 647.084 249.033 647.085 246.371C647.084 243.71 647.608 241.075 648.626 238.615C649.644 236.156 651.136 233.922 653.018 232.039C654.901 230.157 657.135 228.664 659.595 227.645C662.054 226.626 664.691 226.102 667.353 226.102C670.016 226.102 672.652 226.626 675.112 227.645C677.571 228.664 679.806 230.157 681.688 232.039C683.57 233.922 685.063 236.156 686.081 238.615C687.099 241.075 687.622 243.71 687.621 246.371V246.371Z" fill="white" stroke="black" stroke-width="0.800004" stroke-linecap="round" stroke-linejoin="round"/>
<path d="M732.508 246.371C732.509 249.033 731.986 251.668 730.968 254.128C729.95 256.587 728.457 258.821 726.575 260.704C724.693 262.586 722.458 264.079 719.998 265.098C717.539 266.117 714.902 266.641 712.24 266.641C709.577 266.641 706.941 266.117 704.482 265.098C702.022 264.079 699.787 262.586 697.905 260.704C696.023 258.821 694.53 256.587 693.512 254.128C692.494 251.668 691.971 249.033 691.972 246.371C691.971 243.71 692.494 241.075 693.512 238.615C694.53 236.156 696.023 233.922 697.905 232.039C699.787 230.157 702.022 228.664 704.482 227.645C706.941 226.626 709.577 226.102 712.24 226.102C714.902 226.102 717.539 226.626 719.998 227.645C722.458 228.664 724.693 230.157 726.575 232.039C728.457 233.922 729.95 236.156 730.968 238.615C731.986 241.075 732.509 243.71 732.508 246.371Z" fill="white" stroke="black" stroke-width="0.800004" stroke-linecap="round" stroke-linejoin="round"/>
<path d="M681.342 248.833C681.343 249.693 681.174 250.544 680.845 251.339C680.517 252.133 680.034 252.855 679.426 253.464C678.819 254.072 678.097 254.554 677.302 254.884C676.507 255.213 675.656 255.382 674.796 255.382C673.935 255.382 673.084 255.213 672.289 254.884C671.495 254.554 670.773 254.072 670.165 253.464C669.557 252.855 669.075 252.133 668.746 251.339C668.417 250.544 668.249 249.693 668.249 248.833C668.249 247.973 668.417 247.122 668.746 246.327C669.075 245.533 669.557 244.811 670.165 244.202C670.773 243.594 671.495 243.112 672.289 242.782C673.084 242.453 673.935 242.284 674.796 242.284C675.656 242.284 676.507 242.453 677.302 242.782C678.097 243.112 678.819 243.594 679.426 244.202C680.034 244.811 680.517 245.533 680.845 246.327C681.174 247.122 681.343 247.973 681.342 248.833V248.833Z" fill="black"/>
<path d="M711.286 248.833C711.287 249.693 711.118 250.544 710.789 251.339C710.461 252.133 709.978 252.855 709.37 253.464C708.763 254.072 708.041 254.554 707.246 254.884C706.451 255.213 705.6 255.382 704.74 255.382C703.879 255.382 703.028 255.213 702.233 254.884C701.439 254.554 700.717 254.072 700.109 253.464C699.501 252.855 699.019 252.133 698.69 251.339C698.361 250.544 698.193 249.693 698.193 248.833C698.193 247.973 698.361 247.122 698.69 246.327C699.019 245.533 699.501 244.811 700.109 244.202C700.717 243.594 701.439 243.112 702.233 242.782C703.028 242.453 703.879 242.284 704.74 242.284C705.6 242.284 706.451 242.453 707.246 242.782C708.041 243.112 708.763 243.594 709.37 244.202C709.978 244.811 710.461 245.533 710.789 246.327C711.118 247.122 711.287 247.973 711.286 248.833Z" fill="black"/>
<path fill-rule="evenodd" clip-rule="evenodd" d="M679.319 285.24C682.623 281.712 696.659 280.946 699.594 285.675C702.529 290.411 695.191 300.223 689.453 299.781C683.744 299.339 676.221 288.533 679.319 285.24Z" fill="black"/>
<path fill-rule="evenodd" clip-rule="evenodd" d="M642.405 213.319C640.229 181.851 607.807 174.684 606.244 178.419C604.687 182.161 612.166 224.228 642.405 213.319Z" fill="#74401B" stroke="black" stroke-width="0.8" stroke-linejoin="round"/>
<path fill-rule="evenodd" clip-rule="evenodd" d="M734.804 213.319C736.98 181.851 769.402 174.684 770.966 178.419C772.522 182.161 765.036 224.228 734.804 213.319Z" fill="url(#paint9_linear_310_150)" stroke="black" stroke-width="0.8" stroke-linejoin="round"/>
<path d="M633.825 497.675C633.825 502.27 632.286 506.677 629.547 509.926C626.807 513.175 623.092 515 619.217 515C615.343 515 611.627 513.175 608.888 509.926C606.148 506.677 604.609 502.27 604.609 497.675C604.609 493.08 606.148 488.674 608.888 485.425C611.627 482.176 615.343 480.35 619.217 480.35C623.092 480.35 626.807 482.176 629.547 485.425C632.286 488.674 633.825 493.08 633.825 497.675V497.675Z" fill="url(#paint10_linear_310_150)" stroke="black" stroke-width="0.734432" stroke-linecap="round" stroke-linejoin="round"/>
<path d="M670.466 497.675C670.466 502.27 668.927 506.677 666.188 509.926C663.448 513.175 659.732 515 655.858 515C651.984 515 648.268 513.175 645.529 509.926C642.789 506.677 641.25 502.27 641.25 497.675C641.25 493.08 642.789 488.674 645.529 485.425C648.268 482.176 651.984 480.35 655.858 480.35C659.732 480.35 663.448 482.176 666.188 485.425C668.927 488.674 670.466 493.08 670.466 497.675V497.675Z" fill="url(#paint11_linear_310_150)" stroke="black" stroke-width="0.734432" stroke-linecap="round" stroke-linejoin="round"/>
<path d="M653.134 497.675C653.134 502.27 651.595 506.677 648.856 509.926C646.116 513.175 642.4 515 638.526 515C634.652 515 630.936 513.175 628.197 509.926C625.457 506.677 623.918 502.27 623.918 497.675C623.918 493.08 625.457 488.674 628.197 485.425C630.936 482.176 634.652 480.35 638.526 480.35C642.4 480.35 646.116 482.176 648.856 485.425C651.595 488.674 653.134 493.08 653.134 497.675V497.675Z" fill="url(#paint12_linear_310_150)" stroke="black" stroke-width="0.734432" stroke-linecap="round" stroke-linejoin="round"/>
<path d="M746.233 497.675C746.233 502.27 744.694 506.677 741.954 509.926C739.215 513.175 735.499 515 731.625 515C727.751 515 724.035 513.175 721.295 509.926C718.556 506.677 717.017 502.27 717.017 497.675C717.017 493.08 718.556 488.674 721.295 485.425C724.035 482.176 727.751 480.35 731.625 480.35C735.499 480.35 739.215 482.176 741.954 485.425C744.694 488.674 746.233 493.08 746.233 497.675V497.675Z" fill="url(#paint13_linear_310_150)" stroke="black" stroke-width="0.734432" stroke-linecap="round" stroke-linejoin="round"/>
<path d="M782.878 497.675C782.878 502.27 781.339 506.677 778.599 509.926C775.86 513.175 772.144 515 768.27 515C764.395 515 760.68 513.175 757.94 509.926C755.201 506.677 753.661 502.27 753.661 497.675C753.661 493.08 755.201 488.674 757.94 485.425C760.68 482.176 764.395 480.35 768.27 480.35C772.144 480.35 775.86 482.176 778.599 485.425C781.339 488.674 782.878 493.08 782.878 497.675V497.675Z" fill="url(#paint14_linear_310_150)" stroke="black" stroke-width="0.734432" stroke-linecap="round" stroke-linejoin="round"/>
<path d="M765.546 497.675C765.546 502.27 764.006 506.677 761.267 509.926C758.527 513.175 754.812 515 750.937 515C747.063 515 743.347 513.175 740.608 509.926C737.868 506.677 736.329 502.27 736.329 497.675C736.329 493.08 737.868 488.674 740.608 485.425C743.347 482.176 747.063 480.35 750.937 480.35C754.812 480.35 758.527 482.176 761.267 485.425C764.006 488.674 765.546 493.08 765.546 497.675V497.675Z" fill="url(#paint15_linear_310_150)" stroke="black" stroke-width="0.734432" stroke-linecap="round" stroke-linejoin="round"/>
<path d="M746.951 227.336C748.08 232.006 748.685 236.897 748.685 241.906C748.685 276.136 720.872 315.787 686.628 315.787C661.67 315.787 640.17 294.713 630.332 270.029C637.95 298.528 661.684 325.252 689.785 325.252C724.029 325.252 751.841 285.572 751.841 251.342C751.841 242.827 750.101 234.724 746.981 227.336H746.951Z" fill="black" fill-opacity="0.31373"/>
<path d="M657.582 374.229C658.596 374.814 659.499 375.569 660.24 376.451C660.98 377.332 661.543 378.322 661.897 379.366C662.25 380.409 662.388 381.484 662.301 382.53C662.214 383.577 661.905 384.573 661.391 385.463C660.877 386.353 660.168 387.119 659.305 387.717C658.442 388.316 657.442 388.734 656.361 388.95C655.28 389.165 654.141 389.173 653.007 388.973C651.873 388.773 650.768 388.368 649.754 387.783C648.74 387.198 647.837 386.443 647.096 385.562C646.356 384.68 645.793 383.69 645.439 382.647C645.086 381.603 644.948 380.528 645.035 379.482C645.122 378.436 645.431 377.439 645.945 376.549C646.459 375.659 647.168 374.893 648.031 374.295C648.894 373.697 649.894 373.278 650.975 373.062C652.056 372.847 653.195 372.839 654.329 373.039C655.463 373.239 656.568 373.644 657.582 374.229V374.229Z" fill="url(#paint16_linear_310_150)" stroke="black" stroke-width="0.734456" stroke-linecap="round" stroke-linejoin="round"/>
<path d="M667.399 357.228C669.447 358.41 670.999 360.258 671.713 362.365C672.427 364.472 672.246 366.665 671.207 368.462C670.169 370.26 668.36 371.514 666.178 371.949C663.995 372.384 661.619 371.965 659.57 370.782C657.522 369.6 655.97 367.753 655.256 365.646C654.542 363.539 654.724 361.346 655.762 359.548C656.8 357.751 658.609 356.497 660.792 356.062C662.974 355.627 665.351 356.046 667.399 357.228V357.228Z" fill="url(#paint17_linear_310_150)" stroke="black" stroke-width="0.734456" stroke-linecap="round" stroke-linejoin="round"/>
<path d="M666.706 368.137C668.754 369.319 670.306 371.167 671.02 373.274C671.734 375.381 671.552 377.574 670.514 379.371C669.476 381.169 667.667 382.423 665.484 382.858C663.302 383.293 660.925 382.873 658.877 381.691C656.829 380.509 655.277 378.662 654.563 376.555C653.849 374.448 654.031 372.255 655.069 370.457C656.107 368.66 657.916 367.406 660.098 366.971C662.281 366.536 664.657 366.955 666.706 368.137V368.137Z" fill="url(#paint18_linear_310_150)" stroke="black" stroke-width="0.734456" stroke-linecap="round" stroke-linejoin="round"/>
<path d="M728.148 372.804C727.017 373.108 725.949 373.603 725.005 374.263C724.062 374.923 723.261 375.734 722.649 376.651C722.037 377.567 721.626 378.57 721.439 379.603C721.252 380.636 721.292 381.679 721.558 382.671C721.824 383.664 722.31 384.587 722.988 385.388C723.667 386.189 724.525 386.852 725.513 387.339C726.501 387.827 727.599 388.129 728.746 388.228C729.893 388.328 731.066 388.223 732.197 387.92C733.328 387.617 734.396 387.121 735.34 386.461C736.283 385.801 737.084 384.99 737.696 384.074C738.307 383.158 738.719 382.154 738.906 381.121C739.093 380.088 739.053 379.046 738.787 378.053C738.521 377.061 738.035 376.138 737.357 375.337C736.678 374.536 735.82 373.873 734.832 373.385C733.844 372.898 732.746 372.596 731.599 372.496C730.452 372.396 729.279 372.501 728.148 372.804V372.804Z" fill="url(#paint19_linear_310_150)" stroke="black" stroke-width="0.734456" stroke-linecap="round" stroke-linejoin="round"/>
<path d="M723.074 353.844C721.942 354.148 720.875 354.643 719.931 355.303C718.988 355.963 718.187 356.774 717.575 357.691C716.963 358.607 716.552 359.61 716.365 360.643C716.177 361.676 716.218 362.719 716.484 363.711C716.749 364.704 717.236 365.627 717.914 366.428C718.593 367.229 719.45 367.892 720.438 368.379C721.426 368.867 722.525 369.169 723.672 369.269C724.819 369.368 725.992 369.263 727.123 368.96C729.408 368.348 731.385 366.964 732.621 365.114C733.857 363.264 734.25 361.098 733.713 359.093C733.176 357.089 731.753 355.41 729.758 354.425C727.763 353.441 725.358 353.232 723.074 353.844V353.844Z" fill="url(#paint20_linear_310_150)" stroke="black" stroke-width="0.734456" stroke-linecap="round" stroke-linejoin="round"/>
<path d="M720.92 364.562C718.635 365.174 716.657 366.558 715.422 368.408C714.186 370.259 713.793 372.424 714.33 374.429C714.867 376.433 716.289 378.112 718.285 379.097C720.28 380.081 722.684 380.29 724.969 379.678C727.254 379.065 729.232 377.682 730.468 375.831C731.704 373.981 732.096 371.815 731.559 369.811C731.293 368.818 730.807 367.895 730.129 367.094C729.45 366.293 728.592 365.63 727.604 365.143C725.609 364.159 723.205 363.95 720.92 364.562V364.562Z" fill="url(#paint21_linear_310_150)" stroke="black" stroke-width="0.734456" stroke-linecap="round" stroke-linejoin="round"/>
</g>
<defs>
<linearGradient id="paint0_linear_310_150" x1="613.073" y1="285.244" x2="879.597" y2="285.244" gradientUnits="userSpaceOnUse">
<stop stop-color="#D07839"/>
</linearGradient>
<linearGradient id="paint1_linear_310_150" x1="567.665" y1="389.369" x2="811.274" y2="389.369" gradientUnits="userSpaceOnUse">
<stop stop-color="#D07839"/>
</linearGradient>
<linearGradient id="paint2_linear_310_150" x1="583.356" y1="247.073" x2="794.28" y2="247.073" gradientUnits="userSpaceOnUse">
<stop stop-color="#D07839"/>
</linearGradient>
<linearGradient id="paint3_linear_310_150" x1="333.396" y1="430.985" x2="334.161" y2="433.493" gradientUnits="userSpaceOnUse">
<stop stop-color="#74401B"/>
</linearGradient>
<linearGradient id="paint4_linear_310_150" x1="332.599" y1="425.487" x2="334.734" y2="432.485" gradientUnits="userSpaceOnUse">
<stop stop-color="#74401B"/>
</linearGradient>
<linearGradient id="paint5_linear_310_150" x1="636.636" y1="-327.836" x2="653.999" y2="-323.171" gradientUnits="userSpaceOnUse">
<stop stop-color="#D07839"/>
</linearGradient>
<linearGradient id="paint6_linear_310_150" x1="669.237" y1="-319.123" x2="686.604" y2="-314.457" gradientUnits="userSpaceOnUse">
<stop stop-color="#D07839"/>
</linearGradient>
<linearGradient id="paint7_linear_310_150" x1="651.893" y1="-284.833" x2="693.501" y2="-273.653" gradientUnits="userSpaceOnUse">
<stop stop-color="#D07839"/>
</linearGradient>
<linearGradient id="paint8_linear_310_150" x1="610.27" y1="-295.955" x2="651.878" y2="-284.775" gradientUnits="userSpaceOnUse">
<stop stop-color="#D07839"/>
</linearGradient>
<linearGradient id="paint9_linear_310_150" x1="264.754" y1="455.647" x2="266.279" y2="460.645" gradientUnits="userSpaceOnUse">
<stop stop-color="#74401B"/>
</linearGradient>
<linearGradient id="paint10_linear_310_150" x1="396.407" y1="395.924" x2="397.632" y2="399.941" gradientUnits="userSpaceOnUse">
<stop stop-color="#74401B"/>
</linearGradient>
<linearGradient id="paint11_linear_310_150" x1="397.611" y1="401.063" x2="398.837" y2="405.079" gradientUnits="userSpaceOnUse">
<stop stop-color="#74401B"/>
</linearGradient>
<linearGradient id="paint12_linear_310_150" x1="397.042" y1="398.632" x2="398.267" y2="402.648" gradientUnits="userSpaceOnUse">
<stop stop-color="#74401B"/>
</linearGradient>
<linearGradient id="paint13_linear_310_150" x1="400.1" y1="411.689" x2="401.325" y2="415.705" gradientUnits="userSpaceOnUse">
<stop stop-color="#74401B"/>
</linearGradient>
<linearGradient id="paint14_linear_310_150" x1="401.302" y1="416.828" x2="402.528" y2="420.845" gradientUnits="userSpaceOnUse">
<stop stop-color="#74401B"/>
</linearGradient>
<linearGradient id="paint15_linear_310_150" x1="400.733" y1="414.397" x2="401.958" y2="418.414" gradientUnits="userSpaceOnUse">
<stop stop-color="#74401B"/>
</linearGradient>
<linearGradient id="paint16_linear_310_150" x1="349.502" y1="416.303" x2="350.228" y2="418.684" gradientUnits="userSpaceOnUse">
<stop stop-color="#74401B"/>
</linearGradient>
<linearGradient id="paint17_linear_310_150" x1="342.193" y1="420.008" x2="342.919" y2="422.388" gradientUnits="userSpaceOnUse">
<stop stop-color="#74401B"/>
</linearGradient>
<linearGradient id="paint18_linear_310_150" x1="347.067" y1="418.417" x2="347.793" y2="420.797" gradientUnits="userSpaceOnUse">
<stop stop-color="#74401B"/>
</linearGradient>
<linearGradient id="paint19_linear_310_150" x1="351.812" y1="427.065" x2="352.555" y2="429.498" gradientUnits="userSpaceOnUse">
<stop stop-color="#74401B"/>
</linearGradient>
<linearGradient id="paint20_linear_310_150" x1="343.136" y1="428.95" x2="343.878" y2="431.383" gradientUnits="userSpaceOnUse">
<stop stop-color="#74401B"/>
</linearGradient>
<linearGradient id="paint21_linear_310_150" x1="347.875" y1="427.18" x2="348.618" y2="429.613" gradientUnits="userSpaceOnUse">
<stop stop-color="#74401B"/>
</linearGradient>
<clipPath id="clip0_310_150">
<rect width="893.458" height="516.372" fill="white"/>
</clipPath>
</defs>
</svg>
