<svg width="888" height="461" viewBox="0 0 888 461" fill="none" xmlns="http://www.w3.org/2000/svg">
<g clip-path="url(#clip0_503_493)">
<path d="M213.701 452.706L191.827 417.992L213.711 456.488L213.723 460.443C215.284 460.425 216.828 460.365 218.357 460.264L216.573 409.451L216.597 409.059L216.557 408.984L216.387 404.182L239.258 366.136L216.363 400.587L216.295 401.604L214.947 363.213L234.609 323.849L214.793 356.467L213.871 276.894L213.867 276.629L213.864 276.89L213.415 339.628L194.627 314.525L213.432 345.032L213.519 379.394L196.086 346.207L213.529 384.445L213.577 403.552L188.254 357.344L213.597 410.218L213.701 452.706Z" fill="#E2E2E2"/>
<path d="M401.413 452.706L379.538 417.992L401.423 456.488L401.435 460.443C402.995 460.425 404.54 460.365 406.069 460.264L404.285 409.451L404.308 409.059L404.268 408.984L404.098 404.182L426.97 366.136L404.075 400.587L404.006 401.604L402.658 363.213L422.321 323.849L402.505 356.467L401.583 276.894L401.579 276.629L401.576 276.89L401.127 339.628L382.338 314.525L401.143 345.032L401.231 379.394L383.798 346.207L401.24 384.445L401.288 403.552L375.966 357.344L401.308 410.218L401.413 452.706Z" fill="#E2E2E2"/>
<path d="M25.8113 454.939L10.0159 429.872L25.8187 457.67L25.8271 460.526C26.954 460.513 28.0695 460.47 29.1736 460.396L27.8853 423.705L27.9022 423.422L27.8732 423.367L27.7505 419.9L44.266 392.427L27.7335 417.304L27.684 418.038L26.7108 390.317L40.9089 361.892L26.5999 385.445L25.9343 327.986L25.9312 327.795L25.9289 327.983L25.6048 373.286L12.0379 355.159L25.6169 377.188L25.6799 402L13.0916 378.036L25.6868 405.648L25.7216 419.445L7.43604 386.079L25.736 424.259L25.8113 454.939Z" fill="#E2E2E2"/>
<path d="M857.945 452.706L836.071 417.992L857.955 456.488L857.967 460.443C859.528 460.425 861.073 460.365 862.602 460.264L860.817 409.451L860.841 409.059L860.801 408.984L860.631 404.182L883.502 366.136L860.607 400.587L860.539 401.604L859.191 363.213L878.853 323.849L859.037 356.467L858.115 276.894L858.111 276.629L858.108 276.89L857.659 339.628L838.871 314.525L857.676 345.032L857.763 379.394L840.33 346.207L857.773 384.445L857.821 403.552L832.498 357.344L857.841 410.218L857.945 452.706Z" fill="#E2E2E2"/>
<path d="M177.313 387.289H181.41V358.2H177.313V387.289Z" fill="#3F3D56"/>
<path d="M177.304 357.831L178.845 361.627L330.454 300.092L328.913 296.295L177.304 357.831Z" fill="#3F3D56"/>
<path d="M101.519 430.716H137.163V416.787H101.519V430.716Z" fill="#3F3D56"/>
<path d="M104.797 444.646H280.557V429.078H104.797V444.646Z" fill="#3F3D56"/>
<path d="M133.68 436.862H175.879V383.806H144.332L133.68 410.565V436.862Z" fill="#E2E2E2"/>
<path d="M151.297 405.11H169.324V387.084H151.297V405.11Z" fill="white"/>
<path d="M137.777 405.315H149.249V387.289H144.332L137.777 405.315Z" fill="white"/>
<path d="M164.407 423.137H168.504V415.353H164.407V423.137Z" fill="#3F3D56"/>
<path d="M145.766 406.544H145.562C144.529 406.544 143.539 406.134 142.809 405.404C142.079 404.675 141.669 403.685 141.669 402.652C141.669 401.62 142.079 400.63 142.809 399.9C143.539 399.17 144.529 398.76 145.562 398.76H145.766V406.544Z" fill="#3F3D56"/>
<path d="M298.174 436.862H297.969C296.936 436.862 295.946 436.452 295.217 435.722C294.487 434.992 294.077 434.002 294.077 432.97C294.077 431.937 294.487 430.947 295.217 430.218C295.946 429.488 296.936 429.078 297.969 429.078H298.174V436.862Z" fill="#3F3D56"/>
<path d="M117.292 429.019C114.246 429.058 111.247 429.783 108.519 431.141C105.791 432.499 103.405 434.455 101.537 436.862H93.53L101.314 415.178L137.572 408.027L136.548 436.862H133.048C131.18 434.455 128.794 432.499 126.066 431.141C123.338 429.783 120.339 429.058 117.292 429.019Z" fill="#E2E2E2"/>
<path d="M116.883 459.805C126.725 459.805 134.704 451.826 134.704 441.983C134.704 432.14 126.725 424.161 116.883 424.161C107.04 424.161 99.0608 432.14 99.0608 441.983C99.0608 451.826 107.04 459.805 116.883 459.805Z" fill="#3F3D56"/>
<path d="M116.883 451.363C122.063 451.363 126.263 447.164 126.263 441.983C126.263 436.803 122.063 432.604 116.883 432.604C111.702 432.604 107.503 436.803 107.503 441.983C107.503 447.164 111.702 451.363 116.883 451.363Z" fill="#E2E2E2"/>
<path d="M277.894 459.6C286.492 459.6 293.462 452.63 293.462 444.032C293.462 435.434 286.492 428.463 277.894 428.463C269.295 428.463 262.325 435.434 262.325 444.032C262.325 452.63 269.295 459.6 277.894 459.6Z" fill="#3F3D56"/>
<path d="M277.894 452.226C282.419 452.226 286.088 448.557 286.088 444.032C286.088 439.506 282.419 435.838 277.894 435.838C273.368 435.838 269.7 439.506 269.7 444.032C269.7 448.557 273.368 452.226 277.894 452.226Z" fill="#E2E2E2"/>
<path d="M174.65 438.501H183.254V376.432H174.65V438.501Z" fill="#3F3D56"/>
<path d="M174.65 430.921H298.378V427.234H174.65V430.921Z" fill="#3F3D56"/>
<path d="M143.308 407.773H147.405V406.135H143.308V407.773Z" fill="#3F3D56"/>
<path d="M324.394 400.265C324.355 400.222 324.326 400.172 324.308 400.117C324.29 400.062 324.284 400.004 324.29 399.946L329.94 346.514C329.951 346.414 329.998 346.321 330.073 346.253C330.148 346.186 330.245 346.148 330.346 346.147H330.348C330.449 346.147 330.546 346.185 330.621 346.251C330.696 346.318 330.744 346.411 330.755 346.511L336.866 399.832C336.873 399.889 336.867 399.947 336.85 400.001C336.833 400.056 336.804 400.107 336.766 400.15C336.728 400.193 336.681 400.227 336.629 400.251C336.577 400.275 336.52 400.288 336.463 400.288L324.701 400.399H324.698C324.64 400.399 324.584 400.387 324.532 400.364C324.48 400.341 324.433 400.307 324.394 400.265ZM330.364 350.298L325.153 399.575L336 399.473L330.364 350.298Z" fill="#3F3D56"/>
<path d="M101.39 415.495L101.581 415.567C102.547 415.932 103.328 416.666 103.752 417.607C104.177 418.548 104.21 419.619 103.845 420.584C103.48 421.55 102.746 422.331 101.805 422.755C100.864 423.18 99.793 423.213 98.8275 422.848L98.6359 422.776L101.39 415.495Z" fill="#3F3D56"/>
<path d="M328.491 356.152H332.588V296.336H328.491V356.152Z" fill="#3F3D56"/>
<path d="M179.361 364.755C182.529 364.755 185.097 362.187 185.097 359.019C185.097 355.852 182.529 353.284 179.361 353.284C176.194 353.284 173.626 355.852 173.626 359.019C173.626 362.187 176.194 364.755 179.361 364.755Z" fill="#3F3D56"/>
<path d="M187.714 427.295H305.714V422.295H187.714V427.295Z" fill="#2FA4DA"/>
<path d="M194.714 422.295H312.714V417.295H194.714V422.295Z" fill="#2FA4DA"/>
<path d="M189.714 418.295H307.714V413.295H189.714V418.295Z" fill="#2FA4DA"/>
<path d="M196.714 413.295H314.714V408.295H196.714V413.295Z" fill="#2FA4DA"/>
<path d="M382.337 122.242C386.098 122.238 389.733 123.592 392.574 126.056C394.818 125.443 397.171 125.34 399.461 125.754C401.356 123.003 404.082 120.931 407.239 119.839C410.396 118.748 413.82 118.694 417.009 119.687C420.199 120.68 422.988 122.666 424.968 125.357C426.948 128.047 428.016 131.3 428.016 134.641H367.019C367.767 131.133 369.696 127.988 372.484 125.731C375.272 123.474 378.75 122.243 382.337 122.242Z" fill="#E2E2E2"/>
<path d="M290.572 171.59C294.127 171.586 297.564 172.867 300.249 175.196C302.371 174.617 304.596 174.519 306.76 174.91C308.552 172.31 311.129 170.35 314.114 169.318C317.099 168.287 320.335 168.236 323.351 169.175C326.366 170.113 329.003 171.991 330.875 174.535C332.747 177.078 333.757 180.154 333.756 183.312H276.09C276.797 179.995 278.621 177.022 281.256 174.889C283.892 172.755 287.181 171.591 290.572 171.59Z" fill="#E2E2E2"/>
<path d="M198.824 90.1982C202.523 90.1939 206.099 91.5263 208.893 93.95C211.101 93.347 213.416 93.2453 215.668 93.6523C217.532 90.9465 220.213 88.9079 223.319 87.8343C226.425 86.7606 229.792 86.7082 232.93 87.6846C236.067 88.6611 238.81 90.6153 240.758 93.2617C242.706 95.9081 243.756 99.108 243.756 102.394H183.756C184.492 98.9433 186.389 95.8495 189.132 93.6298C191.875 91.41 195.296 90.1987 198.824 90.1982Z" fill="#E2E2E2"/>
<path d="M594.999 245.186V370.091H643.573V243.451L632.297 243.853V218.296H624.118L622.771 161.692C626.071 159.542 628.394 154.434 628.394 148.47C628.397 146.758 628.198 145.052 627.8 143.386C629.362 141.696 630.319 139.536 630.522 137.244C630.725 134.951 630.161 132.656 628.92 130.719C629.958 131.625 631.166 132.317 632.473 132.754C633.78 133.19 635.161 133.362 636.536 133.261C637.91 133.159 639.251 132.786 640.48 132.162C641.709 131.538 642.802 130.676 643.695 129.626C644.588 128.576 645.264 127.36 645.683 126.047C646.102 124.734 646.256 123.351 646.136 121.977C646.017 120.604 645.625 119.269 644.985 118.048C644.345 116.828 643.469 115.746 642.407 114.867C644.192 114.208 645.762 113.073 646.947 111.585C648.132 110.097 648.887 108.312 649.129 106.426C649.371 104.539 649.091 102.622 648.32 100.882C647.549 99.1434 646.316 97.6487 644.756 96.561C643.195 95.4733 641.366 94.834 639.468 94.7126C637.569 94.5913 635.674 94.9925 633.987 95.8726C632.301 96.7528 630.888 98.0782 629.902 99.705C628.915 101.332 628.394 103.198 628.394 105.1C628.394 105.253 628.399 105.404 628.405 105.554C626.976 105.118 625.469 104.994 623.988 105.191C622.507 105.388 621.085 105.902 619.82 106.697C618.555 107.492 617.475 108.55 616.655 109.8C615.835 111.049 615.294 112.46 615.067 113.937C613.769 113.165 612.318 112.684 610.816 112.529C609.314 112.373 607.795 112.547 606.367 113.037C604.938 113.527 603.633 114.322 602.543 115.367C601.452 116.413 600.602 117.683 600.052 119.089C599.501 120.496 599.264 122.005 599.355 123.513C599.446 125.02 599.865 126.49 600.581 127.82C601.298 129.15 602.295 130.307 603.504 131.213C604.713 132.119 606.104 132.75 607.582 133.064C607.58 133.14 607.576 133.215 607.576 133.291C608.543 136.208 609.773 139.031 611.252 141.725C610.529 143.9 610.166 146.178 610.178 148.47C610.178 154.434 612.501 159.542 615.801 161.692L614.453 218.296H606.275V244.783L594.999 245.186ZM625.331 125.917L625.358 125.918C625.508 125.918 625.657 125.913 625.805 125.906C625.899 126.214 626.006 126.515 626.127 126.81C625.879 126.497 625.613 126.199 625.331 125.917Z" fill="#E2E2E2"/>
<path d="M568.254 459H715.712V288.411H568.254V459Z" fill="#3F3D56"/>
<path d="M622.105 459H661.861V424.304H622.105V459Z" fill="#E2E2E2"/>
<path d="M529.941 232.03H547.291L546.672 206.01V206L544.401 110.59C542.659 111.654 540.658 112.217 538.616 112.217C536.575 112.217 534.573 111.654 532.831 110.59L530.561 206V206.01L529.941 232.03Z" fill="#2FA4DA"/>
<path d="M498.141 250.82V459H579.092V247.93L560.301 248.6V206.01H516.931V250.15L498.141 250.82Z" fill="#2FA4DA"/>
<path d="M736.674 232.03H754.022L751.131 110.594C747.393 111.937 743.304 111.937 739.566 110.594L736.674 232.03Z" fill="#2FA4DA"/>
<path d="M704.871 250.82V459H785.831V247.93L779.181 248.17L767.031 248.6V206.01H723.661V250.15L704.871 250.82Z" fill="#2FA4DA"/>
<path d="M663.983 329H683.983V309H663.983V329Z" fill="white"/>
<path d="M631.983 329H651.983V309H631.983V329Z" fill="white"/>
<path d="M599.983 329H619.983V309H599.983V329Z" fill="white"/>
<path d="M663.983 361H683.983V341H663.983V361Z" fill="white"/>
<path d="M631.983 361H651.983V341H631.983V361Z" fill="white"/>
<path d="M599.983 361H619.983V341H599.983V361Z" fill="white"/>
<path d="M663.983 393H683.983V373H663.983V393Z" fill="white"/>
<path d="M631.983 393H651.983V373H631.983V393Z" fill="white"/>
<path d="M599.983 393H619.983V373H599.983V393Z" fill="white"/>
<path d="M528.618 321H548.618V301H528.618V321Z" fill="white"/>
<path d="M528.618 353H548.618V333H528.618V353Z" fill="white"/>
<path d="M528.618 385H548.618V365H528.618V385Z" fill="white"/>
<path d="M528.618 417H548.618V397H528.618V417Z" fill="white"/>
<path d="M735.181 321H755.181V301H735.181V321Z" fill="white"/>
<path d="M735.181 353H755.181V333H735.181V353Z" fill="white"/>
<path d="M735.181 385H755.181V365H735.181V385Z" fill="white"/>
<path d="M735.181 417H755.181V397H735.181V417Z" fill="white"/>
<path d="M888 458.295H0V460.295H888V458.295Z" fill="#3F3D56"/>
<path d="M353.411 370.347C343.642 360.571 326.256 360.073 315.912 369.261C308.631 375.645 305.73 385.449 304.777 394.734C304.104 401.426 304.504 408.609 307.937 414.573C311.385 419.002 317.391 419.934 322.661 420.2C333.165 420.67 344.266 418.133 352.661 411.482C362.78 402.8 365.142 386.633 357.714 375.554C356.501 373.661 355.037 371.917 353.411 370.347V370.347Z" fill="black" fill-opacity="0.31373"/>
<path d="M349.907 363.339C340.138 353.564 322.752 353.066 312.408 362.253C305.127 368.637 302.226 378.441 301.273 387.727C300.6 394.419 301 401.602 304.433 407.566C307.881 411.994 313.887 412.926 319.157 413.193C329.661 413.662 340.762 411.125 349.157 404.475C359.276 395.792 361.638 379.626 354.21 368.546C352.997 366.654 351.533 364.909 349.907 363.339V363.339Z" fill="#DC9A6A" stroke="black" stroke-width="4" stroke-linecap="round" stroke-linejoin="round"/>
<path d="M327.874 355.792C329.956 356.289 331.974 357.053 333.859 358.118C335.688 359.106 337.419 360.291 338.968 361.671C348.309 369.66 350.236 384.587 343.418 394.79C337.608 402.772 328.379 407.768 318.94 409.955C315.113 410.817 310.755 411.412 307.026 409.997C310.474 412.365 315.036 412.989 319.15 413.192C329.654 413.662 340.755 411.125 349.157 404.475C359.276 395.792 361.638 379.625 354.21 368.546C352.997 366.647 351.533 364.909 349.907 363.332C344.196 357.614 335.87 355.077 327.874 355.792V355.792Z" fill="black" fill-opacity="0.31373"/>
<path fill-rule="evenodd" clip-rule="evenodd" d="M350.166 360.88C352.093 354.895 361.813 349.366 364.693 351.447C367.574 353.536 367.798 358.497 367.286 359.233C366.782 359.962 361.582 357.712 358.302 360.424C355.03 363.129 353.383 365.442 353.383 365.442L350.166 360.88Z" fill="url(#paint0_linear_503_493)" stroke="black" stroke-width="4"/>
<path fill-rule="evenodd" clip-rule="evenodd" d="M366.677 354.047C366.74 354.699 366.649 355.238 366.473 355.448C365.976 356.044 360.993 355.462 357.798 357.936C354.609 360.41 352.997 362.302 352.997 362.302L350.447 360.158C350.348 360.403 350.243 360.641 350.166 360.879L353.383 365.449C353.383 365.449 355.03 363.129 358.302 360.417C361.582 357.712 366.782 359.961 367.286 359.226C367.637 358.728 367.637 356.233 366.677 354.047V354.047Z" fill="black" fill-opacity="0.31373"/>
<path d="M352.409 360.915C342.815 351.412 326.914 348.959 315.73 356.086C313.2 357.481 313.964 360.978 313.992 360.922C318.218 357.579 322.597 361.258 328.351 365.386C335.394 370.438 343.137 378.189 348.821 385.722C352.801 390.992 355.646 396.171 353.369 399.794C353.488 399.829 356.795 400.761 358.309 397.677C365.934 383.304 361.624 369.499 352.409 360.915V360.915Z" fill="url(#paint1_linear_503_493)" stroke="black" stroke-width="4" stroke-linecap="round" stroke-linejoin="round"/>
<path d="M351.652 359.857C354.693 367.748 354.294 375.211 350.432 382.415C349.556 384.055 348.211 383.522 347.083 383.501C347.678 384.237 348.26 384.987 348.82 385.723C352.794 390.999 355.646 396.178 353.368 399.794C353.488 399.829 356.795 400.768 358.309 397.685C365.289 384.51 362.226 370.179 351.652 359.857V359.857Z" fill="black" fill-opacity="0.31373"/>
<path d="M479.411 415.347C469.642 405.571 452.256 405.073 441.912 414.261C434.631 420.645 431.73 430.449 430.777 439.734C430.104 446.426 430.504 453.609 433.937 459.573C437.385 464.002 443.391 464.934 448.661 465.2C459.165 465.67 470.266 463.133 478.661 456.482C488.78 447.8 491.142 431.633 483.714 420.554C482.501 418.661 481.037 416.917 479.411 415.347V415.347Z" fill="black" fill-opacity="0.31373"/>
<path d="M475.907 408.339C466.138 398.564 448.752 398.066 438.408 407.253C431.127 413.637 428.226 423.441 427.273 432.727C426.6 439.419 427 446.602 430.433 452.566C433.881 456.994 439.887 457.926 445.157 458.193C455.661 458.662 466.762 456.125 475.157 449.475C485.276 440.792 487.638 424.626 480.21 413.546C478.997 411.654 477.533 409.909 475.907 408.339V408.339Z" fill="#DC9A6A" stroke="black" stroke-width="4" stroke-linecap="round" stroke-linejoin="round"/>
<path d="M453.874 400.792C455.956 401.289 457.974 402.053 459.859 403.118C461.688 404.106 463.419 405.291 464.968 406.671C474.309 414.66 476.236 429.587 469.418 439.79C463.608 447.772 454.379 452.768 444.94 454.955C441.113 455.817 436.755 456.412 433.026 454.997C436.474 457.365 441.036 457.989 445.15 458.192C455.654 458.662 466.755 456.125 475.157 449.475C485.276 440.792 487.638 424.625 480.21 413.546C478.997 411.647 477.533 409.909 475.907 408.332C470.196 402.614 461.87 400.077 453.874 400.792V400.792Z" fill="black" fill-opacity="0.31373"/>
<path fill-rule="evenodd" clip-rule="evenodd" d="M476.166 405.88C478.093 399.895 487.813 394.366 490.693 396.447C493.574 398.536 493.798 403.497 493.286 404.233C492.782 404.962 487.582 402.712 484.302 405.424C481.03 408.129 479.383 410.442 479.383 410.442L476.166 405.88Z" fill="url(#paint2_linear_503_493)" stroke="black" stroke-width="4"/>
<path fill-rule="evenodd" clip-rule="evenodd" d="M492.677 399.047C492.74 399.699 492.649 400.238 492.473 400.448C491.976 401.044 486.993 400.462 483.798 402.936C480.609 405.41 478.997 407.302 478.997 407.302L476.447 405.158C476.348 405.403 476.243 405.641 476.166 405.879L479.383 410.449C479.383 410.449 481.03 408.129 484.302 405.417C487.582 402.712 492.782 404.961 493.286 404.226C493.637 403.728 493.637 401.233 492.677 399.047V399.047Z" fill="black" fill-opacity="0.31373"/>
<path d="M478.409 405.915C468.815 396.412 452.914 393.959 441.73 401.086C439.2 402.481 439.964 405.978 439.992 405.922C444.218 402.579 448.597 406.258 454.351 410.386C461.394 415.438 469.137 423.189 474.821 430.722C478.801 435.992 481.646 441.171 479.369 444.794C479.488 444.829 482.795 445.761 484.309 442.677C491.934 428.304 487.624 414.499 478.409 405.915V405.915Z" fill="url(#paint3_linear_503_493)" stroke="black" stroke-width="4" stroke-linecap="round" stroke-linejoin="round"/>
<path d="M477.652 404.857C480.693 412.748 480.294 420.211 476.432 427.415C475.556 429.055 474.211 428.522 473.083 428.501C473.678 429.237 474.26 429.987 474.82 430.723C478.794 435.999 481.646 441.178 479.368 444.794C479.488 444.829 482.795 445.768 484.309 442.685C491.289 429.51 488.226 415.179 477.652 404.857V404.857Z" fill="black" fill-opacity="0.31373"/>
<path d="M649.411 111.347C639.642 101.571 622.256 101.073 611.912 110.261C604.631 116.645 601.73 126.449 600.777 135.734C600.104 142.426 600.504 149.609 603.937 155.573C607.385 160.002 613.391 160.934 618.661 161.2C629.165 161.67 640.266 159.133 648.661 152.482C658.78 143.8 661.142 127.633 653.714 116.554C652.501 114.661 651.037 112.917 649.411 111.347V111.347Z" fill="black" fill-opacity="0.31373"/>
<path d="M645.907 104.339C636.138 94.5636 618.752 94.0661 608.408 103.253C601.127 109.637 598.226 119.441 597.273 128.727C596.6 135.419 597 142.602 600.433 148.566C603.881 152.994 609.887 153.926 615.157 154.193C625.661 154.662 636.762 152.125 645.157 145.475C655.276 136.792 657.638 120.626 650.21 109.546C648.997 107.654 647.533 105.909 645.907 104.339V104.339Z" fill="#DC9A6A" stroke="black" stroke-width="4" stroke-linecap="round" stroke-linejoin="round"/>
<path d="M623.874 96.7918C625.956 97.2893 627.974 98.0532 629.859 99.1183C631.688 100.106 633.419 101.291 634.968 102.671C644.309 110.66 646.236 125.587 639.418 135.79C633.608 143.772 624.379 148.768 614.94 150.955C611.113 151.817 606.755 152.412 603.026 150.997C606.474 153.365 611.036 153.989 615.15 154.192C625.654 154.662 636.755 152.125 645.157 145.475C655.276 136.792 657.638 120.625 650.21 109.546C648.997 107.647 647.533 105.909 645.907 104.332C640.196 98.6138 631.87 96.077 623.874 96.7918V96.7918Z" fill="black" fill-opacity="0.31373"/>
<path fill-rule="evenodd" clip-rule="evenodd" d="M646.166 101.88C648.093 95.895 657.813 90.3659 660.693 92.4472C663.574 94.5355 663.798 99.497 663.286 100.233C662.782 100.962 657.582 98.7122 654.302 101.424C651.03 104.129 649.383 106.442 649.383 106.442L646.166 101.88Z" fill="url(#paint4_linear_503_493)" stroke="black" stroke-width="4"/>
<path fill-rule="evenodd" clip-rule="evenodd" d="M662.677 95.0469C662.74 95.6986 662.649 96.2382 662.473 96.4484C661.976 97.0441 656.993 96.4624 653.798 98.9362C650.609 101.41 648.997 103.302 648.997 103.302L646.447 101.158C646.348 101.403 646.243 101.641 646.166 101.879L649.383 106.449C649.383 106.449 651.03 104.129 654.302 101.417C657.582 98.7119 662.782 100.961 663.286 100.226C663.637 99.7281 663.637 97.2333 662.677 95.0469V95.0469Z" fill="black" fill-opacity="0.31373"/>
<path d="M648.409 101.915C638.815 92.4121 622.914 89.9593 611.73 97.0862C609.2 98.4808 609.964 101.978 609.992 101.922C614.218 98.5789 618.597 102.258 624.351 106.386C631.394 111.438 639.137 119.189 644.821 126.722C648.801 131.992 651.646 137.171 649.369 140.794C649.488 140.829 652.795 141.761 654.309 138.677C661.934 124.304 657.624 110.499 648.409 101.915V101.915Z" fill="url(#paint5_linear_503_493)" stroke="black" stroke-width="4" stroke-linecap="round" stroke-linejoin="round"/>
<path d="M647.652 100.857C650.693 108.748 650.294 116.211 646.432 123.415C645.556 125.055 644.211 124.522 643.083 124.501C643.678 125.237 644.26 125.987 644.82 126.723C648.794 131.999 651.646 137.178 649.368 140.794C649.488 140.829 652.795 141.768 654.309 138.685C661.289 125.51 658.226 111.179 647.652 100.857V100.857Z" fill="black" fill-opacity="0.31373"/>
</g>
<defs>
<linearGradient id="paint0_linear_503_493" x1="110.284" y1="-388.728" x2="127.62" y2="-388.728" gradientUnits="userSpaceOnUse">
<stop stop-color="#74401B"/>
</linearGradient>
<linearGradient id="paint1_linear_503_493" x1="73.9804" y1="-387.759" x2="122.35" y2="-387.759" gradientUnits="userSpaceOnUse">
<stop stop-color="#74401B"/>
</linearGradient>
<linearGradient id="paint2_linear_503_493" x1="236.284" y1="-343.728" x2="253.62" y2="-343.728" gradientUnits="userSpaceOnUse">
<stop stop-color="#74401B"/>
</linearGradient>
<linearGradient id="paint3_linear_503_493" x1="199.98" y1="-342.759" x2="248.35" y2="-342.759" gradientUnits="userSpaceOnUse">
<stop stop-color="#74401B"/>
</linearGradient>
<linearGradient id="paint4_linear_503_493" x1="406.284" y1="-647.728" x2="423.62" y2="-647.728" gradientUnits="userSpaceOnUse">
<stop stop-color="#74401B"/>
</linearGradient>
<linearGradient id="paint5_linear_503_493" x1="369.98" y1="-646.759" x2="418.35" y2="-646.759" gradientUnits="userSpaceOnUse">
<stop stop-color="#74401B"/>
</linearGradient>
<clipPath id="clip0_503_493">
<rect width="888" height="460.526" fill="white"/>
</clipPath>
</defs>
</svg>
