<svg width="931" height="634" viewBox="0 0 931 634" fill="none" xmlns="http://www.w3.org/2000/svg">
<g clip-path="url(#clip0_803_113)">
<path d="M803.967 170.24C803.038 222.886 767.655 245.768 767.073 223.54C766.352 195.425 754.227 122.507 706.64 144.868C649.73 171.608 701.033 334.487 684.558 334.487C618.644 334.487 565.149 260.907 565.149 170.24C565.149 79.5792 618.644 6 684.558 6C750.471 6 805.544 80.734 803.967 170.24V170.24Z" fill="url(#paint0_linear_803_113)" stroke="black" stroke-width="0.8" stroke-linecap="round" stroke-linejoin="round"/>
<path d="M771.718 57.5715C787.004 85.1996 794.59 119.843 795.271 156.216C795.906 189.818 786.743 221.551 769.753 230.542C777.687 233.079 803.038 222.879 803.96 170.233C804.729 126.972 792.25 87.1621 771.718 57.5715ZM714.173 126.658C709.287 126.752 703.893 128.06 697.945 130.85C641.034 157.591 692.344 320.469 675.869 320.469C641.923 320.469 611.272 300.951 589.524 269.632C611.346 309.028 645.8 334.486 684.558 334.486C701.033 334.486 649.723 171.608 706.634 144.868C724.278 136.584 737.051 141.39 746.174 152.15C739.37 137.492 729.144 126.378 714.173 126.658V126.658Z" fill="black" fill-opacity="0.31373"/>
<path d="M742.086 264.601C742.086 293.51 730.597 321.235 710.148 341.677C689.698 362.118 661.963 373.602 633.043 373.602C604.123 373.602 576.387 362.118 555.938 341.677C535.488 321.235 524 293.51 524 264.601C524 235.692 535.488 207.968 555.938 187.526C576.387 167.084 604.123 155.6 633.043 155.6C661.963 155.6 689.698 167.084 710.148 187.526C730.597 207.968 742.086 235.692 742.086 264.601V264.601Z" fill="url(#paint1_linear_803_113)" stroke="black" stroke-width="0.799968" stroke-linecap="round" stroke-linejoin="round"/>
<path d="M633.048 155.615C621.445 155.615 610.277 157.444 599.783 160.801C609.221 158.599 619.172 157.41 629.458 157.41C657.677 157.41 683.408 166.275 702.771 180.82C683.87 165.08 659.555 155.615 633.048 155.615ZM736.316 229.521C737.746 235.342 738.508 241.349 738.508 247.517C738.508 297.26 689.651 337.624 629.458 337.624C579.124 337.624 536.737 309.402 524.199 271.067C527.541 328.239 575.021 373.622 633.048 373.622C693.24 373.622 742.097 324.788 742.097 264.619C742.097 252.343 740.065 240.535 736.316 229.521Z" fill="black" fill-opacity="0.31373"/>
<path d="M633.048 155.615C614.454 155.615 596.936 160.267 581.611 168.484C588.869 193.83 610.076 217.266 635.126 217.266C659.508 217.266 680.287 195.064 688.074 170.5C671.919 161.042 653.112 155.615 633.048 155.615V155.615Z" fill="black" fill-opacity="0.31373"/>
<path fill-rule="evenodd" clip-rule="evenodd" d="M707.764 64.8206C694.523 64.8206 667.629 71.8562 662.923 90.0991C662.85 90.2393 662.71 90.7466 662.556 91.5276C654.041 86.3277 644.029 83.3039 633.329 83.3039C622.154 83.3039 611.767 86.6014 603.019 92.2218C602.838 91.0803 602.618 90.2793 602.531 90.0991C597.825 71.8562 570.931 64.8407 557.684 64.834C555.578 64.834 553.834 65.0142 552.558 65.348C545.453 66.3359 537.673 69.1728 538.241 70.7214C543.454 69.8336 546.088 70.8482 546.008 71.6893C545.847 73.2646 542.706 73.6851 543.715 79.3656C545.62 76.6088 548.273 75.6609 550.359 75.2204C552.497 88.6306 561.854 112.04 579.365 113.255C580.869 113.362 582.273 113.355 583.596 113.328C579.466 121.151 577.12 130.063 577.12 139.521C577.12 170.54 602.297 206.485 633.329 206.485C664.354 206.485 689.564 170.54 689.564 139.521C689.564 130.069 687.212 121.178 683.081 113.362C684.037 113.355 685.046 113.328 686.089 113.255C703.54 112.047 712.897 88.7708 715.075 75.3472C717.067 75.8345 719.447 76.8358 721.191 79.3656C722.2 73.6851 719.059 73.2646 718.898 71.6893C718.818 70.8482 721.452 69.8336 726.665 70.7214C727.206 69.2529 720.262 66.6296 713.485 65.5148C712.195 65.0609 710.216 64.8206 707.764 64.8206V64.8206Z" fill="url(#paint2_linear_803_113)" stroke="black" stroke-width="0.8" stroke-linejoin="round"/>
<path d="M654.763 231.277C645.446 221.965 628.864 221.491 618.999 230.242C612.054 236.323 609.287 245.661 608.378 254.506C607.737 260.881 608.118 267.722 611.393 273.403C614.681 277.622 620.409 278.509 625.435 278.763C635.454 279.21 646.04 276.794 654.047 270.459C663.698 262.189 665.951 246.789 658.866 236.236C657.71 234.434 656.313 232.772 654.763 231.277V231.277Z" fill="black" fill-opacity="0.31373"/>
<path d="M621.682 250.134C621.682 255.602 619.509 260.845 615.642 264.712C611.774 268.578 606.528 270.75 601.059 270.75C595.589 270.75 590.344 268.578 586.476 264.712C582.608 260.845 580.436 255.602 580.436 250.134C580.436 244.667 582.608 239.423 586.476 235.557C590.344 231.691 595.589 229.519 601.059 229.519C606.528 229.519 611.774 231.691 615.642 235.557C619.509 239.423 621.682 244.667 621.682 250.134V250.134Z" fill="black" fill-opacity="0.31373"/>
<path d="M651.421 224.602C642.104 215.29 625.522 214.816 615.657 223.567C608.713 229.648 605.946 238.986 605.037 247.831C604.396 254.205 604.777 261.047 608.051 266.728C611.34 270.947 617.068 271.834 622.094 272.088C632.112 272.535 642.699 270.119 650.706 263.784C660.357 255.514 662.61 240.114 655.525 229.561C654.369 227.759 652.972 226.097 651.421 224.602V224.602Z" fill="#DC9A6A" stroke="black" stroke-width="0.8" stroke-linecap="round" stroke-linejoin="round"/>
<path d="M630.408 217.413C632.393 217.886 634.317 218.614 636.115 219.629C637.86 220.57 639.511 221.698 640.988 223.013C649.897 230.622 651.735 244.84 645.232 254.559C639.691 262.162 630.889 266.921 621.886 269.004C618.237 269.825 614.08 270.392 610.524 269.044C613.812 271.3 618.163 271.894 622.087 272.088C632.105 272.535 642.692 270.119 650.706 263.784C660.357 255.514 662.609 240.114 655.524 229.561C654.368 227.752 652.971 226.097 651.421 224.595C645.974 219.148 638.034 216.732 630.408 217.413V217.413Z" fill="black" fill-opacity="0.31373"/>
<path fill-rule="evenodd" clip-rule="evenodd" d="M651.668 222.259C653.506 216.558 662.777 211.292 665.524 213.274C668.271 215.263 668.484 219.989 667.996 220.69C667.515 221.384 662.556 219.242 659.428 221.825C656.307 224.401 654.736 226.604 654.736 226.604L651.668 222.259Z" fill="url(#paint3_linear_803_113)" stroke="black" stroke-width="0.8"/>
<path fill-rule="evenodd" clip-rule="evenodd" d="M667.415 215.75C667.475 216.371 667.388 216.885 667.221 217.085C666.747 217.653 661.995 217.099 658.947 219.455C655.906 221.811 654.369 223.614 654.369 223.614L651.936 221.571C651.842 221.805 651.742 222.032 651.668 222.259L654.736 226.611C654.736 226.611 656.307 224.401 659.428 221.818C662.556 219.242 667.515 221.384 667.996 220.683C668.331 220.209 668.331 217.833 667.415 215.75V215.75Z" fill="black" fill-opacity="0.31373"/>
<path d="M653.807 222.292C644.657 213.241 629.492 210.904 618.825 217.693C616.412 219.021 617.141 222.352 617.168 222.299C621.198 219.115 625.375 222.619 630.862 226.551C637.579 231.363 644.965 238.746 650.385 245.922C654.181 250.941 656.895 255.874 654.723 259.325C654.836 259.359 657.991 260.246 659.435 257.309C666.706 243.619 662.596 230.469 653.807 222.292V222.292Z" fill="url(#paint4_linear_803_113)" stroke="black" stroke-width="0.8" stroke-linecap="round" stroke-linejoin="round"/>
<path d="M653.085 221.284C655.986 228.8 655.605 235.909 651.922 242.771C651.087 244.333 649.804 243.826 648.728 243.806C649.296 244.507 649.85 245.221 650.385 245.922C654.175 250.948 656.895 255.881 654.723 259.325C654.836 259.359 657.991 260.253 659.435 257.316C666.091 244.767 663.171 231.116 653.085 221.284V221.284Z" fill="black" fill-opacity="0.31373"/>
<path d="M615.513 235.644C616.869 237.988 617.749 240.576 618.103 243.26C618.458 245.943 618.28 248.67 617.58 251.284C616.88 253.898 615.671 256.348 614.023 258.495C612.375 260.642 610.319 262.443 607.974 263.795C605.629 265.148 603.039 266.025 600.354 266.377C597.668 266.73 594.939 266.55 592.322 265.848C589.705 265.147 587.252 263.937 585.102 262.289C582.952 260.64 581.148 258.585 579.793 256.241C578.438 253.896 577.558 251.308 577.203 248.624C576.848 245.941 577.026 243.214 577.726 240.6C578.426 237.986 579.635 235.536 581.283 233.389C582.931 231.242 584.987 229.441 587.332 228.089C589.678 226.736 592.267 225.859 594.953 225.507C597.638 225.155 600.367 225.334 602.984 226.036C605.601 226.737 608.055 227.947 610.204 229.595C612.354 231.244 614.158 233.299 615.513 235.644V235.644Z" fill="url(#paint5_linear_803_113)" stroke="black" stroke-width="0.800002" stroke-linecap="round" stroke-linejoin="round"/>
<path d="M699.05 250.455C699.05 255.922 696.877 261.166 693.009 265.032C689.142 268.898 683.896 271.07 678.427 271.07C672.957 271.07 667.711 268.898 663.844 265.032C659.976 261.166 657.803 255.922 657.803 250.455C657.803 244.987 659.976 239.744 663.844 235.878C667.711 232.011 672.957 229.839 678.427 229.839C683.896 229.839 689.142 232.011 693.009 235.878C696.877 239.744 699.05 244.987 699.05 250.455V250.455Z" fill="black" fill-opacity="0.31373"/>
<path d="M689.676 260.506C685.805 264.372 680.556 266.545 675.084 266.547C669.612 266.55 664.365 264.381 660.498 260.518C656.63 256.656 654.459 251.416 654.461 245.95C654.463 240.485 656.639 235.243 660.51 231.377C664.381 227.511 669.63 225.338 675.102 225.336C680.574 225.333 685.821 227.502 689.689 231.364C693.556 235.227 695.728 240.467 695.725 245.932C695.723 251.397 693.547 256.64 689.676 260.506Z" fill="url(#paint6_linear_803_113)" stroke="black" stroke-width="0.799998" stroke-linecap="round" stroke-linejoin="round"/>
<path d="M685.889 311.498C658.599 311.498 636.443 333.645 636.443 360.92C636.443 366.56 637.392 371.967 639.137 377.013H732.614C734.358 371.967 735.307 366.56 735.307 360.92C735.307 333.645 713.178 311.498 685.889 311.498V311.498Z" fill="url(#paint7_linear_803_113)" stroke="black" stroke-width="0.8" stroke-linecap="round" stroke-linejoin="round"/>
<path d="M586.998 311.498C559.708 311.498 537.579 333.645 537.579 360.92C537.579 366.56 538.528 371.967 540.273 377.013H633.749C635.494 371.967 636.443 366.56 636.443 360.92C636.443 333.645 614.287 311.498 586.998 311.498Z" fill="url(#paint8_linear_803_113)" stroke="black" stroke-width="0.8" stroke-linecap="round" stroke-linejoin="round"/>
<path d="M631.368 135.017C631.369 137.429 630.894 139.817 629.972 142.046C629.049 144.274 627.697 146.299 625.991 148.005C624.286 149.711 622.26 151.064 620.032 151.987C617.803 152.91 615.414 153.385 613.001 153.385C610.588 153.385 608.199 152.91 605.97 151.987C603.741 151.064 601.716 149.711 600.011 148.005C598.305 146.299 596.952 144.274 596.03 142.046C595.107 139.817 594.633 137.429 594.634 135.017C594.633 132.605 595.107 130.217 596.03 127.988C596.952 125.76 598.305 123.735 600.011 122.029C601.716 120.324 603.741 118.97 605.97 118.047C608.199 117.124 610.588 116.649 613.001 116.649C615.414 116.649 617.803 117.124 620.032 118.047C622.26 118.97 624.286 120.324 625.991 122.029C627.697 123.735 629.049 125.76 629.972 127.988C630.894 130.217 631.369 132.605 631.368 135.017V135.017Z" fill="white" stroke="black" stroke-width="0.800004" stroke-linecap="round" stroke-linejoin="round"/>
<path d="M672.044 135.017C672.045 137.429 671.571 139.817 670.649 142.046C669.726 144.274 668.374 146.299 666.668 148.005C664.962 149.711 662.937 151.064 660.708 151.987C658.479 152.91 656.09 153.385 653.678 153.385C651.265 153.385 648.876 152.91 646.647 151.987C644.418 151.064 642.393 149.711 640.687 148.005C638.982 146.299 637.629 144.274 636.707 142.046C635.784 139.817 635.31 137.429 635.311 135.017C635.31 132.605 635.784 130.217 636.707 127.988C637.629 125.76 638.982 123.735 640.687 122.029C642.393 120.324 644.418 118.97 646.647 118.047C648.876 117.124 651.265 116.649 653.678 116.649C656.09 116.649 658.479 117.124 660.708 118.047C662.937 118.97 664.962 120.324 666.668 122.029C668.374 123.735 669.726 125.76 670.649 127.988C671.571 130.217 672.045 132.605 672.044 135.017Z" fill="white" stroke="black" stroke-width="0.800004" stroke-linecap="round" stroke-linejoin="round"/>
<path d="M625.678 137.248C625.678 138.027 625.525 138.798 625.227 139.518C624.93 140.239 624.493 140.893 623.942 141.444C623.391 141.995 622.737 142.432 622.017 142.731C621.297 143.029 620.525 143.183 619.745 143.183C618.966 143.183 618.194 143.029 617.474 142.731C616.754 142.432 616.1 141.995 615.549 141.444C614.998 140.893 614.561 140.239 614.263 139.518C613.965 138.798 613.812 138.027 613.813 137.248C613.812 136.469 613.965 135.697 614.263 134.977C614.561 134.257 614.998 133.603 615.549 133.051C616.1 132.5 616.754 132.063 617.474 131.765C618.194 131.466 618.966 131.313 619.745 131.313C620.525 131.313 621.297 131.466 622.017 131.765C622.737 132.063 623.391 132.5 623.942 133.051C624.493 133.603 624.93 134.257 625.227 134.977C625.525 135.697 625.678 136.469 625.678 137.248V137.248Z" fill="black"/>
<path d="M652.813 137.248C652.813 138.027 652.661 138.798 652.363 139.518C652.065 140.239 651.628 140.893 651.077 141.444C650.526 141.995 649.872 142.432 649.152 142.731C648.432 143.029 647.66 143.183 646.881 143.183C646.101 143.183 645.329 143.029 644.609 142.731C643.889 142.432 643.235 141.995 642.684 141.444C642.133 140.893 641.696 140.239 641.398 139.518C641.101 138.798 640.948 138.027 640.948 137.248C640.948 136.469 641.101 135.697 641.398 134.977C641.696 134.257 642.133 133.603 642.684 133.051C643.235 132.5 643.889 132.063 644.609 131.765C645.329 131.466 646.101 131.313 646.881 131.313C647.66 131.313 648.432 131.466 649.152 131.765C649.872 132.063 650.526 132.5 651.077 133.051C651.628 133.603 652.065 134.257 652.363 134.977C652.661 135.697 652.813 136.469 652.813 137.248Z" fill="black"/>
<path fill-rule="evenodd" clip-rule="evenodd" d="M623.844 170.24C626.839 167.043 639.558 166.348 642.218 170.634C644.878 174.926 638.227 183.817 633.028 183.416C627.855 183.016 621.037 173.224 623.844 170.24Z" fill="black"/>
<path fill-rule="evenodd" clip-rule="evenodd" d="M590.393 105.065C588.421 76.5487 559.04 70.0539 557.623 73.4381C556.213 76.8291 562.99 114.95 590.393 105.065Z" fill="#74401B" stroke="black" stroke-width="0.8" stroke-linejoin="round"/>
<path fill-rule="evenodd" clip-rule="evenodd" d="M674.125 105.065C676.097 76.5487 705.478 70.0539 706.895 73.4381C708.305 76.8291 701.521 114.95 674.125 105.065Z" fill="url(#paint9_linear_803_113)" stroke="black" stroke-width="0.8" stroke-linejoin="round"/>
<path d="M582.618 362.749C582.618 366.912 581.223 370.906 578.741 373.85C576.258 376.794 572.891 378.448 569.38 378.448C565.869 378.448 562.502 376.794 560.019 373.85C557.537 370.906 556.142 366.912 556.142 362.749C556.142 358.585 557.537 354.591 560.019 351.647C562.502 348.703 565.869 347.049 569.38 347.049C572.891 347.049 576.258 348.703 578.741 351.647C581.223 354.591 582.618 358.585 582.618 362.749V362.749Z" fill="url(#paint10_linear_803_113)" stroke="black" stroke-width="0.734432" stroke-linecap="round" stroke-linejoin="round"/>
<path d="M615.822 362.749C615.822 366.912 614.428 370.906 611.945 373.85C609.462 376.794 606.095 378.448 602.584 378.448C599.074 378.448 595.707 376.794 593.224 373.85C590.741 370.906 589.347 366.912 589.347 362.749C589.347 358.585 590.741 354.591 593.224 351.647C595.707 348.703 599.074 347.049 602.584 347.049C606.095 347.049 609.462 348.703 611.945 351.647C614.428 354.591 615.822 358.585 615.822 362.749V362.749Z" fill="url(#paint11_linear_803_113)" stroke="black" stroke-width="0.734432" stroke-linecap="round" stroke-linejoin="round"/>
<path d="M600.116 362.749C600.116 366.912 598.721 370.906 596.238 373.85C593.756 376.794 590.389 378.448 586.878 378.448C583.367 378.448 580 376.794 577.517 373.85C575.035 370.906 573.64 366.912 573.64 362.749C573.64 358.585 575.035 354.591 577.517 351.647C580 348.703 583.367 347.049 586.878 347.049C590.389 347.049 593.756 348.703 596.238 351.647C598.721 354.591 600.116 358.585 600.116 362.749V362.749Z" fill="url(#paint12_linear_803_113)" stroke="black" stroke-width="0.734432" stroke-linecap="round" stroke-linejoin="round"/>
<path d="M684.482 362.749C684.482 366.912 683.087 370.906 680.605 373.85C678.122 376.794 674.755 378.448 671.244 378.448C667.733 378.448 664.366 376.794 661.884 373.85C659.401 370.906 658.006 366.912 658.006 362.749C658.006 358.585 659.401 354.591 661.884 351.647C664.366 348.703 667.733 347.049 671.244 347.049C674.755 347.049 678.122 348.703 680.605 351.647C683.087 354.591 684.482 358.585 684.482 362.749V362.749Z" fill="url(#paint13_linear_803_113)" stroke="black" stroke-width="0.734432" stroke-linecap="round" stroke-linejoin="round"/>
<path d="M717.69 362.749C717.69 366.912 716.295 370.906 713.812 373.85C711.33 376.794 707.963 378.448 704.452 378.448C700.941 378.448 697.574 376.794 695.091 373.85C692.609 370.906 691.214 366.912 691.214 362.749C691.214 358.585 692.609 354.591 695.091 351.647C697.574 348.703 700.941 347.049 704.452 347.049C707.963 347.049 711.33 348.703 713.812 351.647C716.295 354.591 717.69 358.585 717.69 362.749V362.749Z" fill="url(#paint14_linear_803_113)" stroke="black" stroke-width="0.734432" stroke-linecap="round" stroke-linejoin="round"/>
<path d="M701.983 362.749C701.983 366.912 700.588 370.906 698.106 373.85C695.623 376.794 692.256 378.448 688.745 378.448C685.234 378.448 681.867 376.794 679.385 373.85C676.902 370.906 675.507 366.912 675.507 362.749C675.507 358.585 676.902 354.591 679.385 351.647C681.867 348.703 685.234 347.049 688.745 347.049C692.256 347.049 695.623 348.703 698.106 351.647C700.588 354.591 701.983 358.585 701.983 362.749V362.749Z" fill="url(#paint15_linear_803_113)" stroke="black" stroke-width="0.734432" stroke-linecap="round" stroke-linejoin="round"/>
<path d="M685.133 117.767C686.155 121.999 686.703 126.431 686.703 130.971C686.703 161.99 661.499 197.921 630.467 197.921C607.85 197.921 588.368 178.824 579.452 156.456C586.356 182.282 607.864 206.499 633.328 206.499C664.36 206.499 689.564 170.54 689.564 139.521C689.564 131.805 687.986 124.462 685.159 117.767H685.133Z" fill="black" fill-opacity="0.31373"/>
<path d="M604.147 250.882C605.066 251.412 605.884 252.096 606.555 252.895C607.226 253.693 607.736 254.591 608.057 255.536C608.377 256.482 608.502 257.456 608.423 258.404C608.344 259.352 608.064 260.255 607.598 261.062C607.132 261.868 606.49 262.562 605.708 263.105C604.926 263.647 604.019 264.026 603.04 264.221C602.061 264.417 601.028 264.424 600.001 264.242C598.974 264.061 597.972 263.695 597.053 263.164C596.134 262.634 595.315 261.95 594.645 261.151C593.974 260.352 593.464 259.455 593.143 258.51C592.823 257.564 592.698 256.59 592.777 255.642C592.855 254.694 593.136 253.79 593.602 252.984C594.067 252.177 594.71 251.483 595.492 250.941C596.274 250.399 597.18 250.02 598.159 249.824C599.139 249.629 600.171 249.622 601.199 249.803C602.226 249.985 603.228 250.351 604.147 250.882V250.882Z" fill="url(#paint16_linear_803_113)" stroke="black" stroke-width="0.734456" stroke-linecap="round" stroke-linejoin="round"/>
<path d="M613.043 235.475C614.899 236.547 616.305 238.221 616.952 240.13C617.599 242.039 617.434 244.027 616.494 245.656C615.553 247.285 613.913 248.421 611.936 248.815C609.958 249.21 607.804 248.829 605.948 247.758C604.092 246.687 602.686 245.013 602.039 243.103C601.391 241.194 601.556 239.207 602.497 237.578C603.438 235.949 605.077 234.813 607.055 234.418C609.033 234.024 611.186 234.404 613.043 235.475V235.475Z" fill="url(#paint17_linear_803_113)" stroke="black" stroke-width="0.734456" stroke-linecap="round" stroke-linejoin="round"/>
<path d="M612.414 245.361C614.27 246.432 615.677 248.107 616.324 250.016C616.971 251.925 616.806 253.913 615.865 255.542C614.925 257.17 613.285 258.307 611.307 258.701C609.33 259.095 607.176 258.715 605.32 257.644C603.464 256.573 602.057 254.898 601.41 252.989C600.763 251.08 600.928 249.092 601.869 247.464C602.809 245.835 604.449 244.698 606.427 244.304C608.404 243.91 610.558 244.29 612.414 245.361V245.361Z" fill="url(#paint18_linear_803_113)" stroke="black" stroke-width="0.734456" stroke-linecap="round" stroke-linejoin="round"/>
<path d="M668.093 249.591C667.068 249.865 666.1 250.315 665.245 250.913C664.391 251.511 663.665 252.246 663.111 253.076C662.556 253.906 662.183 254.816 662.014 255.752C661.844 256.688 661.88 257.632 662.121 258.532C662.362 259.431 662.803 260.268 663.418 260.994C664.033 261.719 664.81 262.32 665.705 262.762C666.6 263.204 667.596 263.478 668.636 263.568C669.675 263.658 670.737 263.563 671.763 263.289C672.788 263.014 673.755 262.565 674.61 261.966C675.465 261.368 676.191 260.633 676.745 259.803C677.3 258.973 677.673 258.064 677.842 257.127C678.012 256.191 677.975 255.247 677.735 254.347C677.494 253.448 677.053 252.611 676.438 251.885C675.823 251.16 675.046 250.559 674.151 250.117C673.255 249.675 672.26 249.401 671.22 249.311C670.181 249.221 669.118 249.316 668.093 249.591V249.591Z" fill="url(#paint19_linear_803_113)" stroke="black" stroke-width="0.734456" stroke-linecap="round" stroke-linejoin="round"/>
<path d="M663.495 232.409C662.469 232.684 661.502 233.133 660.647 233.731C659.792 234.329 659.066 235.064 658.512 235.895C657.957 236.725 657.585 237.634 657.415 238.57C657.245 239.506 657.282 240.451 657.523 241.35C657.764 242.25 658.204 243.086 658.819 243.812C659.434 244.538 660.211 245.139 661.107 245.58C662.002 246.022 662.998 246.296 664.037 246.386C665.076 246.477 666.139 246.382 667.164 246.107C669.234 245.552 671.027 244.298 672.147 242.621C673.267 240.945 673.622 238.982 673.136 237.166C672.649 235.349 671.36 233.827 669.552 232.935C667.744 232.043 665.565 231.854 663.495 232.409V232.409Z" fill="url(#paint20_linear_803_113)" stroke="black" stroke-width="0.734456" stroke-linecap="round" stroke-linejoin="round"/>
<path d="M661.543 242.121C659.473 242.676 657.681 243.93 656.561 245.607C655.441 247.284 655.085 249.246 655.572 251.063C656.058 252.879 657.347 254.401 659.155 255.293C660.963 256.185 663.142 256.374 665.213 255.819C667.283 255.264 669.076 254.01 670.196 252.334C671.316 250.657 671.671 248.694 671.185 246.878C670.944 245.978 670.503 245.142 669.888 244.416C669.273 243.69 668.496 243.089 667.601 242.648C665.793 241.756 663.614 241.566 661.543 242.121V242.121Z" fill="url(#paint21_linear_803_113)" stroke="black" stroke-width="0.734456" stroke-linecap="round" stroke-linejoin="round"/>
<path d="M823.939 297.375H120.363V631.234H823.939V297.375Z" fill="#E6E6E6"/>
<path d="M803.821 326.004H140.482V604.553H803.821V326.004Z" fill="white"/>
<path d="M692.889 377.851H675.712V395.028H692.889V377.851Z" fill="#E6E6E6"/>
<path d="M234.72 377.851H217.543V395.028H234.72V377.851Z" fill="#2FA4DA"/>
<path d="M274.304 427.053H217.046V484.311H274.304V427.053Z" fill="#E6E6E6"/>
<path d="M823.639 278.086H120.063V307.976H823.639V278.086Z" fill="#2FA4DA"/>
<path d="M142.275 305.202C145.335 305.202 147.815 302.722 147.815 299.662C147.815 296.602 145.335 294.122 142.275 294.122C139.215 294.122 136.735 296.602 136.735 299.662C136.735 302.722 139.215 305.202 142.275 305.202Z" fill="white"/>
<path d="M163.303 305.202C166.363 305.202 168.843 302.722 168.843 299.662C168.843 296.602 166.363 294.122 163.303 294.122C160.244 294.122 157.763 296.602 157.763 299.662C157.763 302.722 160.244 305.202 163.303 305.202Z" fill="white"/>
<path d="M184.332 305.202C187.392 305.202 189.872 302.722 189.872 299.662C189.872 296.602 187.392 294.122 184.332 294.122C181.272 294.122 178.792 296.602 178.792 299.662C178.792 302.722 181.272 305.202 184.332 305.202Z" fill="white"/>
<path d="M931 631.235H0V633.235H931V631.235Z" fill="#E6E6E6"/>
<path d="M473.969 432.78H333.688V440.833H473.969V432.78Z" fill="#E6E6E6"/>
<path d="M550.313 462.154H333.688V470.207H550.313V462.154Z" fill="#2FA4DA"/>
<path d="M510.232 489.827H333.688V497.88H510.232V489.827Z" fill="#E6E6E6"/>
<path d="M436.752 517.398H333.688V525.451H436.752V517.398Z" fill="#E6E6E6"/>
<path d="M489.238 544.967H333.688V553.02H489.238V544.967Z" fill="#E6E6E6"/>
<path d="M722.473 377.851H705.296V395.028H722.473V377.851Z" fill="#E6E6E6"/>
<path d="M752.056 377.851H734.879V395.028H752.056V377.851Z" fill="#E6E6E6"/>
<path opacity="0.997" d="M717.171 525.45C736.437 525.45 752.055 509.832 752.055 490.566C752.055 471.3 736.437 455.682 717.171 455.682C697.905 455.682 682.287 471.3 682.287 490.566C682.287 509.832 697.905 525.45 717.171 525.45Z" fill="#2FA4DA"/>
<path d="M188.489 94.457C210.179 94.457 227.762 76.8739 227.762 55.184C227.762 33.4941 210.179 15.911 188.489 15.911C166.799 15.911 149.216 33.4941 149.216 55.184C149.216 76.8739 166.799 94.457 188.489 94.457Z" fill="#2F2E41"/>
<path d="M90.7531 391.209H73.5531L65.3721 324.883H90.7511L90.7531 391.209Z" fill="#FEB8B8"/>
<path d="M61.275 386.295H94.438V407.176H40.394C40.394 401.638 42.594 396.327 46.5099 392.411C50.4259 388.495 55.7371 386.295 61.275 386.295Z" fill="#2F2E41"/>
<path d="M63.9099 381.612L47.5039 376.463L59.5559 310.728L83.7699 318.328L63.9099 381.612Z" fill="#FEB8B8"/>
<path d="M37.2461 368.1L68.8885 378.03L62.6362 397.953L11.0718 381.771C11.8928 379.155 13.2212 376.726 14.981 374.623C16.7407 372.52 18.8975 370.784 21.3281 369.515C23.7587 368.245 26.4155 367.467 29.1469 367.224C31.8783 366.982 34.6307 367.279 37.2471 368.1L37.2461 368.1Z" fill="#2F2E41"/>
<path d="M69.505 355.145C68.7536 355.145 68.0084 355.009 67.305 354.745L54.65 350.002C53.2298 349.465 52.0499 348.435 51.3254 347.1C50.6009 345.765 50.3801 344.215 50.703 342.731C53.888 328.41 64.743 279.654 70.687 253.503C77.736 222.484 180.572 216.72 184.946 216.49L185.306 216.471L196.874 231.002C201.054 244.438 199.729 254.918 192.936 262.152C173.113 283.257 113.93 270.161 106.873 268.504L75.4181 351.081C74.9596 352.277 74.1494 353.305 73.0942 354.031C72.039 354.756 70.7886 355.145 69.508 355.145H69.505Z" fill="#2F2E41"/>
<path d="M87.739 364.964C86.9876 364.964 86.2423 364.828 85.539 364.564L72.888 359.82C71.4676 359.283 70.2876 358.253 69.5631 356.918C68.8386 355.583 68.6178 354.033 68.941 352.549C72.126 338.228 82.981 289.472 88.925 263.321C95.974 232.302 198.81 226.538 203.184 226.308L203.544 226.289L215.108 240.824C219.288 254.26 217.963 264.74 211.17 271.974C191.348 293.074 132.164 279.983 125.107 278.325L93.648 360.899C93.1896 362.095 92.3793 363.123 91.3241 363.849C90.269 364.574 89.0186 364.963 87.738 364.963L87.739 364.964Z" fill="#2F2E41"/>
<path d="M51.1382 162.955C51.6028 163.577 52.0177 164.234 52.3792 164.921L121.557 172.209L131.517 158.555L154.086 170.89L134.527 204.022L49.6862 182.39C47.5457 184.477 44.8205 185.863 41.8732 186.363C38.9258 186.863 35.896 186.455 33.1867 185.191C30.4773 183.928 28.2168 181.869 26.7058 179.29C25.1949 176.71 24.505 173.732 24.728 170.75C24.9511 167.769 26.0764 164.927 27.9543 162.601C29.8323 160.275 32.3739 158.575 35.2411 157.729C38.1083 156.883 41.1652 156.929 44.0053 157.863C46.8453 158.796 49.334 160.572 51.1402 162.954L51.1382 162.955Z" fill="#FEB8B8"/>
<path d="M211.897 246.388C210.897 246.386 209.911 246.146 209.022 245.688C195.189 238.654 168.253 226.473 143.275 223.924C142.42 223.84 141.592 223.579 140.844 223.156C140.097 222.733 139.445 222.159 138.933 221.47C138.41 220.774 138.037 219.977 137.835 219.13C137.634 218.283 137.61 217.403 137.764 216.546C140.018 204.069 145.188 172.297 144.522 146.834C144.326 139.005 146.799 131.342 151.536 125.105C156.272 118.868 162.99 114.428 170.585 112.515C175.156 111.309 179.798 110.393 184.485 109.774C189.873 109.092 195.346 109.681 200.465 111.494C205.585 113.307 210.209 116.294 213.966 120.216C217.724 124.137 220.511 128.884 222.104 134.076C223.697 139.269 224.052 144.762 223.14 150.116C218.686 176.504 214.195 213.36 218.098 239.088C218.277 240.241 218.134 241.421 217.683 242.498C217.233 243.575 216.494 244.506 215.547 245.188C214.487 245.964 213.21 246.384 211.897 246.388Z" fill="#CCCCCC"/>
<path d="M145.803 179.27C144.941 179.269 144.088 179.091 143.297 178.747L125.276 170.947C123.741 170.28 122.533 169.032 121.917 167.476C121.301 165.92 121.328 164.183 121.991 162.647L135.921 130.468C136.748 128.518 137.952 126.75 139.462 125.265C140.973 123.781 142.761 122.608 144.725 121.814C146.689 121.02 148.79 120.621 150.908 120.64C153.027 120.658 155.12 121.093 157.07 121.921C159.02 122.748 160.788 123.951 162.273 125.462C163.758 126.973 164.93 128.761 165.724 130.725C166.518 132.689 166.917 134.79 166.899 136.908C166.88 139.026 166.445 141.12 165.618 143.07C165.588 143.141 165.557 143.212 165.526 143.282L151.596 175.462C151.105 176.592 150.296 177.553 149.267 178.23C148.238 178.906 147.034 179.268 145.803 179.27Z" fill="#CCCCCC"/>
<path d="M187.054 98.827C206.08 98.827 221.504 83.4032 221.504 64.377C221.504 45.3508 206.08 29.927 187.054 29.927C168.028 29.927 152.604 45.3508 152.604 64.377C152.604 83.4032 168.028 98.827 187.054 98.827Z" fill="#FEB8B8"/>
<path d="M151.984 47.448C168.302 57.4093 186.698 63.4708 205.741 65.161L200.074 58.3721C204.2 59.8975 208.541 60.7595 212.937 60.9261C215.138 60.9899 217.323 60.5369 219.317 59.6034C221.311 58.67 223.059 57.2821 224.42 55.5511C225.531 53.7543 226.191 51.7156 226.343 49.6087C226.496 47.5018 226.137 45.3892 225.297 43.451C223.57 39.5839 220.883 36.2229 217.49 33.688C211.476 28.9307 204.378 25.7351 196.83 24.386C189.281 23.0369 181.516 23.5763 174.227 25.9561C169.226 27.4503 164.748 30.323 161.305 34.245C158.039 38.274 151.752 41.8641 153.424 46.7731L151.984 47.448Z" fill="#2F2E41"/>
<path d="M190.134 18.4271C197 11.462 205.311 6.08684 214.479 2.68005C220.298 0.231998 226.681 -0.560163 232.922 0.39105C239.075 1.62905 244.893 5.88506 246.61 11.9221C248.01 16.8581 246.564 22.173 244.386 26.8221C242.208 31.4711 239.3 35.7781 237.538 40.5981C235.74 45.5163 235.2 50.8056 235.965 55.9858C236.73 61.166 238.777 66.073 241.92 70.2614C245.063 74.4498 249.202 77.7869 253.962 79.9697C258.722 82.1526 263.951 83.1121 269.176 82.7611C263.131 83.5721 257.559 86.4131 251.65 87.9241C245.741 89.4351 238.767 89.3341 234.376 85.1001C229.73 80.6211 229.637 73.3391 229.862 66.8901L230.862 38.1281C231.032 33.2391 231.178 28.193 229.414 23.628C227.65 19.063 223.46 15.0681 218.568 15.1101C214.86 15.1411 211.579 17.3881 208.605 19.6031C205.631 21.8181 202.484 24.1811 198.791 24.5111C195.098 24.8411 190.881 22.1111 191.157 18.4111" fill="#2F2E41"/>
<path d="M129.135 237.538C126.853 237.535 124.599 237.026 122.537 236.048C120.475 235.069 118.655 233.645 117.21 231.879C115.764 230.112 114.728 228.047 114.177 225.832C113.625 223.617 113.572 221.308 114.02 219.07C114.469 216.832 115.408 214.721 116.771 212.89C118.133 211.058 119.885 209.552 121.9 208.479C123.915 207.406 126.142 206.794 128.422 206.685C130.702 206.577 132.978 206.976 135.085 207.853C135.719 208.121 136.334 208.432 136.924 208.785L199.679 180.614L201.442 163.594L228.493 162.87L228.314 191.205C228.281 194.488 227.191 197.673 225.204 200.286C223.218 202.9 220.441 204.804 217.287 205.714L143.902 226.599C143.761 227.084 143.594 227.561 143.402 228.028C142.225 230.84 140.244 233.243 137.707 234.934C135.17 236.626 132.191 237.531 129.142 237.537L129.135 237.538Z" fill="#FEB8B8"/>
<path d="M226.202 176.754C225.433 177.143 224.592 177.371 223.731 177.422L204.131 178.627C202.461 178.728 200.819 178.162 199.565 177.054C198.312 175.945 197.549 174.385 197.444 172.715L195.293 137.715C195.035 133.448 196.482 129.253 199.315 126.052C202.149 122.851 206.137 120.905 210.404 120.643C214.67 120.38 218.867 121.822 222.071 124.652C225.276 127.481 227.226 131.467 227.493 135.734L229.645 170.734C229.72 171.963 229.434 173.188 228.823 174.257C228.211 175.327 227.301 176.194 226.204 176.754H226.202Z" fill="#CCCCCC"/>
<path d="M186.735 231.258H69.6662C68.6842 231.258 67.8882 232.054 67.8882 233.036V239.298C67.8882 240.28 68.6842 241.076 69.6662 241.076H186.735C187.717 241.076 188.513 240.28 188.513 239.298V233.036C188.513 232.054 187.717 231.258 186.735 231.258Z" fill="#3F3D56"/>
<path d="M22.9048 231.96V163.231C22.9077 160.814 23.8692 158.497 25.5783 156.788C27.2874 155.078 29.6047 154.117 32.0218 154.114H156.855C159.272 154.117 161.589 155.078 163.299 156.787C165.008 158.496 165.969 160.814 165.972 163.231V231.96C165.969 234.377 165.008 236.695 163.299 238.404C161.589 240.113 159.272 241.074 156.855 241.077H32.0218C29.6047 241.074 27.2874 240.113 25.5783 238.404C23.8692 236.694 22.9077 234.377 22.9048 231.96Z" fill="#3F3D56"/>
<path d="M95.9399 206.015C100.588 206.015 104.356 202.247 104.356 197.599C104.356 192.951 100.588 189.183 95.9399 189.183C91.2919 189.183 87.5239 192.951 87.5239 197.599C87.5239 202.247 91.2919 206.015 95.9399 206.015Z" fill="white"/>
</g>
<defs>
<linearGradient id="paint0_linear_803_113" x1="563.812" y1="170.243" x2="805.337" y2="170.243" gradientUnits="userSpaceOnUse">
<stop stop-color="#D07839"/>
</linearGradient>
<linearGradient id="paint1_linear_803_113" x1="522.664" y1="264.601" x2="743.422" y2="264.601" gradientUnits="userSpaceOnUse">
<stop stop-color="#D07839"/>
</linearGradient>
<linearGradient id="paint2_linear_803_113" x1="536.883" y1="135.653" x2="728.023" y2="135.653" gradientUnits="userSpaceOnUse">
<stop stop-color="#D07839"/>
</linearGradient>
<linearGradient id="paint3_linear_803_113" x1="310.37" y1="302.314" x2="311.063" y2="304.587" gradientUnits="userSpaceOnUse">
<stop stop-color="#74401B"/>
</linearGradient>
<linearGradient id="paint4_linear_803_113" x1="309.647" y1="297.331" x2="311.582" y2="303.673" gradientUnits="userSpaceOnUse">
<stop stop-color="#74401B"/>
</linearGradient>
<linearGradient id="paint5_linear_803_113" x1="585.165" y1="-385.33" x2="600.899" y2="-381.102" gradientUnits="userSpaceOnUse">
<stop stop-color="#D07839"/>
</linearGradient>
<linearGradient id="paint6_linear_803_113" x1="614.708" y1="-377.434" x2="630.446" y2="-373.206" gradientUnits="userSpaceOnUse">
<stop stop-color="#D07839"/>
</linearGradient>
<linearGradient id="paint7_linear_803_113" x1="598.992" y1="-346.36" x2="636.697" y2="-336.229" gradientUnits="userSpaceOnUse">
<stop stop-color="#D07839"/>
</linearGradient>
<linearGradient id="paint8_linear_803_113" x1="561.272" y1="-356.439" x2="598.977" y2="-346.308" gradientUnits="userSpaceOnUse">
<stop stop-color="#D07839"/>
</linearGradient>
<linearGradient id="paint9_linear_803_113" x1="248.166" y1="324.663" x2="249.547" y2="329.192" gradientUnits="userSpaceOnUse">
<stop stop-color="#74401B"/>
</linearGradient>
<linearGradient id="paint10_linear_803_113" x1="367.469" y1="270.542" x2="368.579" y2="274.181" gradientUnits="userSpaceOnUse">
<stop stop-color="#74401B"/>
</linearGradient>
<linearGradient id="paint11_linear_803_113" x1="368.561" y1="275.198" x2="369.671" y2="278.838" gradientUnits="userSpaceOnUse">
<stop stop-color="#74401B"/>
</linearGradient>
<linearGradient id="paint12_linear_803_113" x1="368.045" y1="272.996" x2="369.155" y2="276.635" gradientUnits="userSpaceOnUse">
<stop stop-color="#74401B"/>
</linearGradient>
<linearGradient id="paint13_linear_803_113" x1="370.816" y1="284.828" x2="371.927" y2="288.468" gradientUnits="userSpaceOnUse">
<stop stop-color="#74401B"/>
</linearGradient>
<linearGradient id="paint14_linear_803_113" x1="371.906" y1="289.485" x2="373.016" y2="293.125" gradientUnits="userSpaceOnUse">
<stop stop-color="#74401B"/>
</linearGradient>
<linearGradient id="paint15_linear_803_113" x1="371.39" y1="287.282" x2="372.5" y2="290.922" gradientUnits="userSpaceOnUse">
<stop stop-color="#74401B"/>
</linearGradient>
<linearGradient id="paint16_linear_803_113" x1="324.965" y1="289.009" x2="325.623" y2="291.166" gradientUnits="userSpaceOnUse">
<stop stop-color="#74401B"/>
</linearGradient>
<linearGradient id="paint17_linear_803_113" x1="318.341" y1="292.366" x2="318.999" y2="294.523" gradientUnits="userSpaceOnUse">
<stop stop-color="#74401B"/>
</linearGradient>
<linearGradient id="paint18_linear_803_113" x1="322.757" y1="290.924" x2="323.415" y2="293.082" gradientUnits="userSpaceOnUse">
<stop stop-color="#74401B"/>
</linearGradient>
<linearGradient id="paint19_linear_803_113" x1="327.058" y1="298.762" x2="327.731" y2="300.967" gradientUnits="userSpaceOnUse">
<stop stop-color="#74401B"/>
</linearGradient>
<linearGradient id="paint20_linear_803_113" x1="319.195" y1="300.469" x2="319.868" y2="302.674" gradientUnits="userSpaceOnUse">
<stop stop-color="#74401B"/>
</linearGradient>
<linearGradient id="paint21_linear_803_113" x1="323.49" y1="298.866" x2="324.163" y2="301.071" gradientUnits="userSpaceOnUse">
<stop stop-color="#74401B"/>
</linearGradient>
<clipPath id="clip0_803_113">
<rect width="931" height="633.235" fill="white"/>
</clipPath>
</defs>
</svg>
