<svg width="742" height="493" viewBox="0 0 742 493" fill="none" xmlns="http://www.w3.org/2000/svg">
<g clip-path="url(#clip0_501_2)">
<path d="M282.026 491.805L280.248 491.77C280.936 472.002 283.045 452.309 286.559 432.843C294.248 391.168 307.032 363.798 324.557 351.493L325.577 352.948C284.639 381.691 282.047 490.707 282.026 491.805Z" fill="#F1F1F1"/>
<path d="M304.25 491.38L302.472 491.345C302.51 489.376 303.622 442.973 321.89 430.147L322.911 431.602C305.38 443.91 304.259 490.907 304.25 491.38Z" fill="#F1F1F1"/>
<path d="M335.692 353.109C340.602 353.109 344.582 349.129 344.582 344.219C344.582 339.31 340.602 335.33 335.692 335.33C330.782 335.33 326.802 339.31 326.802 344.219C326.802 349.129 330.782 353.109 335.692 353.109Z" fill="#F1F1F1"/>
<path d="M331.29 429.56C336.199 429.56 340.179 425.58 340.179 420.67C340.179 415.761 336.199 411.781 331.29 411.781C326.38 411.781 322.4 415.761 322.4 420.67C322.4 425.58 326.38 429.56 331.29 429.56Z" fill="#F1F1F1"/>
<path d="M300.106 358.438C300.997 365.295 300.072 372.266 297.423 378.654C292.795 373.481 289.762 367.082 288.689 360.225C287.616 353.369 288.548 346.349 291.373 340.01C295.847 345.282 298.859 351.636 300.106 358.438Z" fill="#F1F1F1"/>
<path d="M329.164 384.355C322.567 386.427 315.541 386.73 308.79 385.234C313.077 379.777 318.85 375.675 325.414 373.423C331.979 371.172 339.054 370.866 345.789 372.544C341.377 377.868 335.644 381.941 329.164 384.355Z" fill="#F1F1F1"/>
<path d="M329.492 452.059C324.868 453.512 319.944 453.724 315.212 452.676C318.217 448.851 322.263 445.975 326.864 444.397C331.465 442.819 336.425 442.605 341.145 443.781C338.053 447.513 334.034 450.368 329.492 452.059Z" fill="#F1F1F1"/>
<path d="M709.414 298.929H482.543C480.731 298.927 478.994 298.207 477.713 296.925C476.432 295.644 475.712 293.907 475.709 292.096V215.561C475.712 213.749 476.432 212.012 477.713 210.731C478.994 209.45 480.731 208.729 482.543 208.727H709.414C711.226 208.729 712.963 209.45 714.244 210.731C715.525 212.012 716.246 213.749 716.248 215.561V292.096C716.246 293.907 715.525 295.644 714.244 296.925C712.963 298.207 711.226 298.927 709.414 298.929Z" fill="#E5E5E5"/>
<path d="M571.378 229.228H511.244V236.061H571.378V229.228Z" fill="white"/>
<path d="M650.647 237.428C652.911 237.428 654.747 235.592 654.747 233.328C654.747 231.063 652.911 229.228 650.647 229.228C648.382 229.228 646.547 231.063 646.547 233.328C646.547 235.592 648.382 237.428 650.647 237.428Z" fill="#2FA4DA"/>
<path d="M664.313 237.428C666.578 237.428 668.414 235.592 668.414 233.328C668.414 231.063 666.578 229.228 664.313 229.228C662.049 229.228 660.213 231.063 660.213 233.328C660.213 235.592 662.049 237.428 664.313 237.428Z" fill="#2FA4DA"/>
<path d="M677.98 237.428C680.245 237.428 682.081 235.592 682.081 233.328C682.081 231.063 680.245 229.228 677.98 229.228C675.716 229.228 673.88 231.063 673.88 233.328C673.88 235.592 675.716 237.428 677.98 237.428Z" fill="#2FA4DA"/>
<path d="M709.414 395.965H482.543C480.731 395.963 478.994 395.242 477.713 393.961C476.432 392.68 475.712 390.943 475.709 389.131V312.596C475.712 310.784 476.432 309.048 477.713 307.766C478.994 306.485 480.731 305.765 482.543 305.763H709.414C711.226 305.765 712.963 306.485 714.244 307.766C715.525 309.048 716.246 310.784 716.248 312.596V389.131C716.246 390.943 715.525 392.68 714.244 393.961C712.963 395.242 711.226 395.963 709.414 395.965Z" fill="#E5E5E5"/>
<path d="M571.378 326.263H511.244V333.097H571.378V326.263Z" fill="white"/>
<path d="M650.647 334.463C652.911 334.463 654.747 332.628 654.747 330.363C654.747 328.099 652.911 326.263 650.647 326.263C648.382 326.263 646.547 328.099 646.547 330.363C646.547 332.628 648.382 334.463 650.647 334.463Z" fill="#2FA4DA"/>
<path d="M664.313 334.463C666.578 334.463 668.414 332.628 668.414 330.363C668.414 328.099 666.578 326.263 664.313 326.263C662.049 326.263 660.213 328.099 660.213 330.363C660.213 332.628 662.049 334.463 664.313 334.463Z" fill="#2FA4DA"/>
<path d="M677.98 334.463C680.245 334.463 682.081 332.628 682.081 330.363C682.081 328.099 680.245 326.263 677.98 326.263C675.716 326.263 673.88 328.099 673.88 330.363C673.88 332.628 675.716 334.463 677.98 334.463Z" fill="#2FA4DA"/>
<path d="M709.414 493H482.543C480.731 492.998 478.994 492.277 477.713 490.996C476.432 489.715 475.712 487.978 475.709 486.167V409.632C475.712 407.82 476.432 406.083 477.713 404.802C478.994 403.521 480.731 402.8 482.543 402.798H709.414C711.226 402.8 712.963 403.521 714.244 404.802C715.525 406.083 716.246 407.82 716.248 409.632V486.167C716.246 487.978 715.525 489.715 714.244 490.996C712.963 492.277 711.226 492.998 709.414 493Z" fill="#E5E5E5"/>
<path d="M357.109 266.403C356.1 323.589 317.666 348.444 317.034 324.299C316.25 293.759 303.081 214.553 251.39 238.843C189.572 267.889 245.299 444.813 227.403 444.813C155.806 444.813 97.6975 364.888 97.6975 266.403C97.6975 167.924 155.806 88 227.403 88C299.001 88 358.822 169.178 357.109 266.403V266.403Z" fill="url(#paint0_linear_501_2)" stroke="black" stroke-width="0.8" stroke-linecap="round" stroke-linejoin="round"/>
<path d="M322.08 144.019C338.683 174.029 346.923 211.66 347.664 251.169C348.354 287.669 338.4 322.138 319.945 331.905C328.563 334.66 356.1 323.581 357.102 266.395C357.937 219.404 344.382 176.161 322.08 144.019ZM259.572 219.063C254.265 219.164 248.406 220.586 241.945 223.616C180.127 252.663 235.861 429.586 217.965 429.586C181.092 429.586 147.798 408.385 124.174 374.365C147.878 417.158 185.303 444.812 227.403 444.812C245.299 444.812 189.564 267.889 251.383 238.843C270.549 229.845 284.423 235.065 294.332 246.753C286.942 230.831 275.834 218.758 259.572 219.063V219.063Z" fill="black" fill-opacity="0.31373"/>
<path d="M289.892 368.901C289.892 400.303 277.413 430.418 255.2 452.623C232.987 474.827 202.86 487.301 171.446 487.301C140.032 487.301 109.905 474.827 87.692 452.623C65.4791 430.418 53 400.303 53 368.901C53 337.499 65.4791 307.384 87.692 285.179C109.905 262.975 140.032 250.5 171.446 250.5C202.86 250.5 232.987 262.975 255.2 285.179C277.413 307.384 289.892 337.499 289.892 368.901V368.901Z" fill="url(#paint1_linear_501_2)" stroke="black" stroke-width="0.799968" stroke-linecap="round" stroke-linejoin="round"/>
<path d="M171.451 250.517C158.848 250.517 146.717 252.503 135.319 256.15C145.57 253.758 156.38 252.467 167.553 252.467C198.204 252.467 226.155 262.096 247.187 277.895C226.656 260.798 200.244 250.517 171.451 250.517ZM283.624 330.796C285.178 337.119 286.005 343.644 286.005 350.344C286.005 404.376 232.935 448.22 167.553 448.22C112.878 448.22 66.8357 417.565 53.2161 375.924C56.846 438.026 108.421 487.323 171.451 487.323C236.834 487.323 289.904 434.277 289.904 368.92C289.904 355.586 287.697 342.76 283.624 330.796Z" fill="black" fill-opacity="0.31373"/>
<path d="M171.451 250.517C151.254 250.517 132.226 255.57 115.579 264.496C123.463 292.027 146.499 317.484 173.709 317.484C200.193 317.484 222.764 293.368 231.222 266.686C213.675 256.411 193.245 250.517 171.451 250.517V250.517Z" fill="black" fill-opacity="0.31373"/>
<path fill-rule="evenodd" clip-rule="evenodd" d="M252.61 151.893C238.228 151.893 209.014 159.535 203.903 179.351C203.823 179.503 203.671 180.054 203.504 180.902C194.255 175.254 183.379 171.97 171.756 171.97C159.617 171.97 148.336 175.552 138.832 181.657C138.636 180.417 138.397 179.547 138.302 179.351C133.191 159.535 103.977 151.914 89.5883 151.907C87.3014 151.907 85.4065 152.103 84.0199 152.465C76.3026 153.538 67.8521 156.62 68.4692 158.302C74.1319 157.338 76.9923 158.44 76.9052 159.354C76.7309 161.065 73.3188 161.521 74.415 167.692C76.4841 164.697 79.3663 163.668 81.6314 163.189C83.9546 177.756 94.1184 203.184 113.139 204.503C114.773 204.619 116.297 204.612 117.735 204.583C113.248 213.081 110.7 222.761 110.7 233.035C110.7 266.729 138.048 305.773 171.756 305.773C205.457 305.773 232.841 266.729 232.841 233.035C232.841 222.768 230.285 213.11 225.799 204.619C226.837 204.612 227.933 204.583 229.066 204.503C248.021 203.191 258.185 177.908 260.552 163.327C262.716 163.856 265.3 164.944 267.195 167.692C268.291 161.521 264.879 161.065 264.705 159.354C264.618 158.44 267.478 157.338 273.141 158.302C273.729 156.707 266.186 153.858 258.824 152.647C257.423 152.154 255.274 151.893 252.61 151.893V151.893Z" fill="url(#paint2_linear_501_2)" stroke="black" stroke-width="0.8" stroke-linejoin="round"/>
<path d="M195.038 332.703C184.918 322.588 166.906 322.073 156.19 331.579C148.647 338.184 145.642 348.328 144.654 357.935C143.957 364.859 144.371 372.291 147.929 378.462C151.5 383.044 157.722 384.008 163.182 384.284C174.064 384.77 185.564 382.145 194.261 375.264C204.745 366.28 207.191 349.553 199.496 338.09C198.24 336.132 196.723 334.327 195.038 332.703V332.703Z" fill="black" fill-opacity="0.31373"/>
<path d="M159.105 353.186C159.105 359.125 156.745 364.821 152.544 369.021C148.343 373.22 142.645 375.58 136.703 375.58C130.762 375.58 125.064 373.22 120.863 369.021C116.662 364.821 114.302 359.125 114.302 353.186C114.302 347.247 116.662 341.552 120.863 337.352C125.064 333.153 130.762 330.793 136.703 330.793C142.645 330.793 148.343 333.153 152.544 337.352C156.745 341.552 159.105 347.247 159.105 353.186V353.186Z" fill="black" fill-opacity="0.31373"/>
<path d="M191.409 325.452C181.288 315.337 163.276 314.822 152.561 324.328C145.018 330.933 142.012 341.077 141.025 350.684C140.328 357.609 140.742 365.041 144.299 371.211C147.871 375.793 154.093 376.758 159.552 377.033C170.435 377.519 181.934 374.894 190.632 368.013C201.115 359.03 203.562 342.302 195.866 330.839C194.61 328.881 193.093 327.076 191.409 325.452V325.452Z" fill="#DC9A6A" stroke="black" stroke-width="0.8" stroke-linecap="round" stroke-linejoin="round"/>
<path d="M168.583 317.643C170.74 318.158 172.83 318.948 174.783 320.05C176.678 321.073 178.471 322.298 180.076 323.727C189.753 331.992 191.75 347.436 184.686 357.993C178.667 366.252 169.106 371.421 159.327 373.684C155.363 374.575 150.847 375.192 146.985 373.727C150.557 376.178 155.283 376.823 159.545 377.033C170.427 377.519 181.927 374.895 190.632 368.014C201.115 359.03 203.562 342.303 195.866 330.839C194.61 328.875 193.093 327.076 191.409 325.445C185.492 319.528 176.867 316.904 168.583 317.643V317.643Z" fill="black" fill-opacity="0.31373"/>
<path fill-rule="evenodd" clip-rule="evenodd" d="M191.677 322.907C193.674 316.715 203.743 310.994 206.727 313.148C209.711 315.308 209.943 320.442 209.413 321.203C208.891 321.957 203.504 319.63 200.106 322.436C196.716 325.234 195.01 327.627 195.01 327.627L191.677 322.907Z" fill="url(#paint3_linear_501_2)" stroke="black" stroke-width="0.8"/>
<path fill-rule="evenodd" clip-rule="evenodd" d="M208.782 315.838C208.847 316.512 208.753 317.07 208.571 317.288C208.056 317.904 202.894 317.302 199.583 319.862C196.28 322.421 194.61 324.379 194.61 324.379L191.968 322.16C191.866 322.414 191.757 322.661 191.677 322.907L195.01 327.634C195.01 327.634 196.716 325.234 200.106 322.428C203.504 319.63 208.891 321.957 209.413 321.196C209.776 320.681 209.776 318.1 208.782 315.838V315.838Z" fill="black" fill-opacity="0.31373"/>
<path d="M194 322.943C184.061 313.111 167.589 310.574 156.002 317.947C153.381 319.39 154.172 323.008 154.201 322.95C158.579 319.492 163.117 323.298 169.077 327.569C176.373 332.797 184.395 340.816 190.283 348.611C194.407 354.063 197.354 359.421 194.995 363.17C195.118 363.206 198.545 364.17 200.113 360.98C208.012 346.109 203.547 331.825 194 322.943V322.943Z" fill="url(#paint4_linear_501_2)" stroke="black" stroke-width="0.8" stroke-linecap="round" stroke-linejoin="round"/>
<path d="M193.216 321.848C196.367 330.013 195.953 337.735 191.953 345.188C191.045 346.885 189.652 346.334 188.483 346.312C189.1 347.073 189.702 347.849 190.283 348.611C194.399 354.07 197.354 359.429 194.995 363.17C195.118 363.206 198.545 364.178 200.113 360.987C207.344 347.356 204.171 332.529 193.216 321.848V321.848Z" fill="black" fill-opacity="0.31373"/>
<path d="M152.405 337.446C153.877 339.993 154.834 342.804 155.219 345.719C155.604 348.634 155.411 351.596 154.65 354.435C153.89 357.275 152.577 359.936 150.787 362.268C148.996 364.6 146.763 366.556 144.216 368.025C141.668 369.494 138.855 370.447 135.938 370.83C133.021 371.213 130.057 371.017 127.214 370.255C124.372 369.493 121.707 368.18 119.372 366.389C117.036 364.598 115.077 362.366 113.605 359.819C112.132 357.273 111.176 354.461 110.791 351.546C110.406 348.631 110.599 345.67 111.36 342.83C112.12 339.991 113.433 337.329 115.223 334.997C117.014 332.665 119.246 330.709 121.794 329.24C124.342 327.771 127.155 326.818 130.072 326.435C132.989 326.053 135.953 326.248 138.796 327.01C141.638 327.772 144.303 329.086 146.638 330.876C148.973 332.667 150.933 334.899 152.405 337.446V337.446Z" fill="url(#paint5_linear_501_2)" stroke="black" stroke-width="0.800002" stroke-linecap="round" stroke-linejoin="round"/>
<path d="M243.144 353.535C243.144 359.474 240.784 365.169 236.583 369.369C232.382 373.568 226.684 375.928 220.743 375.928C214.801 375.928 209.103 373.568 204.902 369.369C200.701 365.169 198.341 359.474 198.341 353.535C198.341 347.596 200.701 341.9 204.902 337.7C209.103 333.501 214.801 331.142 220.743 331.142C226.684 331.142 232.382 333.501 236.583 337.7C240.784 341.9 243.144 347.596 243.144 353.535V353.535Z" fill="black" fill-opacity="0.31373"/>
<path d="M232.963 364.452C228.758 368.652 223.056 371.012 217.112 371.015C211.169 371.018 205.469 368.662 201.268 364.466C197.067 360.27 194.708 354.578 194.711 348.642C194.714 342.706 197.077 337.011 201.282 332.812C205.487 328.613 211.188 326.252 217.132 326.249C223.076 326.247 228.775 328.602 232.977 332.798C237.178 336.994 239.536 342.686 239.534 348.622C239.531 354.559 237.167 360.253 232.963 364.452Z" fill="url(#paint6_linear_501_2)" stroke="black" stroke-width="0.799998" stroke-linecap="round" stroke-linejoin="round"/>
<path d="M228.848 419.841C199.206 419.841 175.139 443.899 175.139 473.525C175.139 479.652 176.17 485.525 178.065 491.007H279.602C281.497 485.525 282.528 479.652 282.528 473.525C282.528 443.899 258.49 419.841 228.848 419.841V419.841Z" fill="url(#paint7_linear_501_2)" stroke="black" stroke-width="0.8" stroke-linecap="round" stroke-linejoin="round"/>
<path d="M121.43 419.841C91.7878 419.841 67.7502 443.899 67.7502 473.525C67.7502 479.652 68.7812 485.525 70.676 491.007H172.213C174.108 485.525 175.139 479.652 175.139 473.525C175.139 443.899 151.072 419.841 121.43 419.841Z" fill="url(#paint8_linear_501_2)" stroke="black" stroke-width="0.8" stroke-linecap="round" stroke-linejoin="round"/>
<path d="M169.626 228.143C169.628 230.762 169.113 233.357 168.11 235.777C167.108 238.198 165.639 240.397 163.786 242.25C161.934 244.103 159.734 245.573 157.313 246.576C154.892 247.579 152.297 248.095 149.676 248.095C147.055 248.095 144.46 247.579 142.039 246.576C139.618 245.573 137.418 244.103 135.566 242.25C133.713 240.397 132.244 238.198 131.242 235.777C130.239 233.357 129.724 230.762 129.726 228.143C129.724 225.523 130.239 222.929 131.242 220.508C132.244 218.087 133.713 215.888 135.566 214.035C137.418 212.182 139.618 210.712 142.039 209.709C144.46 208.707 147.055 208.19 149.676 208.19C152.297 208.19 154.892 208.707 157.313 209.709C159.734 210.712 161.934 212.182 163.786 214.035C165.639 215.888 167.108 218.087 168.11 220.508C169.113 222.929 169.628 225.523 169.626 228.143V228.143Z" fill="white" stroke="black" stroke-width="0.800004" stroke-linecap="round" stroke-linejoin="round"/>
<path d="M213.81 228.143C213.811 230.762 213.296 233.357 212.294 235.777C211.292 238.198 209.823 240.397 207.97 242.25C206.117 244.103 203.918 245.573 201.497 246.576C199.075 247.579 196.48 248.095 193.86 248.095C191.239 248.095 188.644 247.579 186.223 246.576C183.802 245.573 181.602 244.103 179.749 242.25C177.897 240.397 176.427 238.198 175.425 235.777C174.423 233.357 173.908 230.762 173.909 228.143C173.908 225.523 174.423 222.929 175.425 220.508C176.427 218.087 177.897 215.888 179.749 214.035C181.602 212.182 183.802 210.712 186.223 209.709C188.644 208.707 191.239 208.19 193.86 208.19C196.48 208.19 199.075 208.707 201.497 209.709C203.918 210.712 206.117 212.182 207.97 214.035C209.823 215.888 211.292 218.087 212.294 220.508C213.296 222.929 213.811 225.523 213.81 228.143Z" fill="white" stroke="black" stroke-width="0.800004" stroke-linecap="round" stroke-linejoin="round"/>
<path d="M163.446 230.566C163.446 231.412 163.28 232.25 162.957 233.032C162.633 233.814 162.159 234.525 161.56 235.124C160.962 235.722 160.251 236.197 159.469 236.521C158.687 236.845 157.848 237.012 157.002 237.012C156.155 237.012 155.317 236.845 154.535 236.521C153.752 236.197 153.042 235.722 152.443 235.124C151.845 234.525 151.37 233.814 151.047 233.032C150.723 232.25 150.557 231.412 150.558 230.566C150.557 229.719 150.723 228.881 151.047 228.099C151.37 227.317 151.845 226.606 152.443 226.007C153.042 225.409 153.752 224.934 154.535 224.61C155.317 224.286 156.155 224.119 157.002 224.119C157.848 224.119 158.687 224.286 159.469 224.61C160.251 224.934 160.962 225.409 161.56 226.007C162.159 226.606 162.633 227.317 162.957 228.099C163.28 228.881 163.446 229.719 163.446 230.566V230.566Z" fill="black"/>
<path d="M192.921 230.566C192.921 231.412 192.755 232.25 192.432 233.032C192.108 233.814 191.634 234.525 191.035 235.124C190.437 235.722 189.726 236.197 188.944 236.521C188.162 236.845 187.323 237.012 186.477 237.012C185.63 237.012 184.792 236.845 184.01 236.521C183.227 236.197 182.517 235.722 181.918 235.124C181.32 234.525 180.845 233.814 180.522 233.032C180.198 232.25 180.032 231.412 180.033 230.566C180.032 229.719 180.198 228.881 180.522 228.099C180.845 227.317 181.32 226.606 181.918 226.007C182.517 225.409 183.227 224.934 184.01 224.61C184.792 224.286 185.63 224.119 186.477 224.119C187.323 224.119 188.162 224.286 188.944 224.61C189.726 224.934 190.437 225.409 191.035 226.007C191.634 226.606 192.108 227.317 192.432 228.099C192.755 228.881 192.921 229.719 192.921 230.566Z" fill="black"/>
<path fill-rule="evenodd" clip-rule="evenodd" d="M161.454 266.403C164.707 262.93 178.522 262.176 181.412 266.83C184.301 271.493 177.078 281.151 171.429 280.716C165.81 280.28 158.405 269.644 161.454 266.403Z" fill="black"/>
<path fill-rule="evenodd" clip-rule="evenodd" d="M125.118 195.607C122.976 164.632 91.0619 157.578 89.5228 161.254C87.9909 164.937 95.3525 206.345 125.118 195.607Z" fill="#74401B" stroke="black" stroke-width="0.8" stroke-linejoin="round"/>
<path fill-rule="evenodd" clip-rule="evenodd" d="M216.071 195.607C218.212 164.632 250.127 157.578 251.666 161.254C253.198 164.937 245.829 206.345 216.071 195.607Z" fill="url(#paint9_linear_501_2)" stroke="black" stroke-width="0.8" stroke-linejoin="round"/>
<path d="M116.673 475.512C116.673 480.035 115.158 484.372 112.461 487.57C109.765 490.769 106.107 492.565 102.293 492.565C98.4798 492.565 94.8224 490.769 92.1257 487.57C89.429 484.372 87.9141 480.035 87.9141 475.512C87.9141 470.989 89.429 466.651 92.1257 463.453C94.8224 460.255 98.4798 458.458 102.293 458.458C106.107 458.458 109.765 460.255 112.461 463.453C115.158 466.651 116.673 470.989 116.673 475.512V475.512Z" fill="url(#paint10_linear_501_2)" stroke="black" stroke-width="0.734432" stroke-linecap="round" stroke-linejoin="round"/>
<path d="M152.74 475.512C152.74 480.035 151.225 484.372 148.528 487.57C145.832 490.769 142.174 492.565 138.361 492.565C134.547 492.565 130.89 490.769 128.193 487.57C125.496 484.372 123.981 480.035 123.981 475.512C123.981 470.989 125.496 466.651 128.193 463.453C130.89 460.255 134.547 458.458 138.361 458.458C142.174 458.458 145.832 460.255 148.528 463.453C151.225 466.651 152.74 470.989 152.74 475.512V475.512Z" fill="url(#paint11_linear_501_2)" stroke="black" stroke-width="0.734432" stroke-linecap="round" stroke-linejoin="round"/>
<path d="M135.679 475.512C135.679 480.035 134.164 484.372 131.468 487.57C128.771 490.769 125.114 492.565 121.3 492.565C117.486 492.565 113.829 490.769 111.132 487.57C108.436 484.372 106.921 480.035 106.921 475.512C106.921 470.989 108.436 466.651 111.132 463.453C113.829 460.255 117.486 458.458 121.3 458.458C125.114 458.458 128.771 460.255 131.468 463.453C134.164 466.651 135.679 470.989 135.679 475.512V475.512Z" fill="url(#paint12_linear_501_2)" stroke="black" stroke-width="0.734432" stroke-linecap="round" stroke-linejoin="round"/>
<path d="M227.32 475.512C227.32 480.035 225.805 484.372 223.109 487.57C220.412 490.769 216.755 492.565 212.941 492.565C209.127 492.565 205.47 490.769 202.773 487.57C200.077 484.372 198.562 480.035 198.562 475.512C198.562 470.989 200.077 466.651 202.773 463.453C205.47 460.255 209.127 458.458 212.941 458.458C216.755 458.458 220.412 460.255 223.109 463.453C225.805 466.651 227.32 470.989 227.32 475.512V475.512Z" fill="url(#paint13_linear_501_2)" stroke="black" stroke-width="0.734432" stroke-linecap="round" stroke-linejoin="round"/>
<path d="M263.392 475.512C263.392 480.035 261.877 484.372 259.18 487.57C256.484 490.769 252.826 492.565 249.012 492.565C245.199 492.565 241.541 490.769 238.845 487.57C236.148 484.372 234.633 480.035 234.633 475.512C234.633 470.989 236.148 466.651 238.845 463.453C241.541 460.255 245.199 458.458 249.012 458.458C252.826 458.458 256.484 460.255 259.18 463.453C261.877 466.651 263.392 470.989 263.392 475.512V475.512Z" fill="url(#paint14_linear_501_2)" stroke="black" stroke-width="0.734432" stroke-linecap="round" stroke-linejoin="round"/>
<path d="M246.331 475.512C246.331 480.035 244.816 484.372 242.119 487.57C239.422 490.769 235.765 492.565 231.951 492.565C228.138 492.565 224.48 490.769 221.784 487.57C219.087 484.372 217.572 480.035 217.572 475.512C217.572 470.989 219.087 466.651 221.784 463.453C224.48 460.255 228.138 458.458 231.951 458.458C235.765 458.458 239.422 460.255 242.119 463.453C244.816 466.651 246.331 470.989 246.331 475.512V475.512Z" fill="url(#paint15_linear_501_2)" stroke="black" stroke-width="0.734432" stroke-linecap="round" stroke-linejoin="round"/>
<path d="M228.028 209.405C229.139 214.002 229.734 218.817 229.734 223.747C229.734 257.441 202.357 296.471 168.649 296.471C144.081 296.471 122.919 275.727 113.234 251.43C120.733 279.483 144.096 305.788 171.756 305.788C205.464 305.788 232.841 266.729 232.841 233.035C232.841 224.653 231.128 216.678 228.057 209.405H228.028Z" fill="black" fill-opacity="0.31373"/>
<path d="M140.058 353.998C141.056 354.574 141.945 355.317 142.674 356.185C143.402 357.052 143.957 358.027 144.305 359.054C144.653 360.081 144.788 361.139 144.703 362.169C144.617 363.199 144.313 364.18 143.807 365.056C143.301 365.932 142.603 366.686 141.754 367.275C140.904 367.864 139.919 368.276 138.856 368.488C137.792 368.7 136.67 368.708 135.554 368.511C134.438 368.314 133.35 367.916 132.352 367.34C131.354 366.764 130.465 366.021 129.736 365.153C129.007 364.286 128.453 363.311 128.105 362.284C127.757 361.257 127.622 360.198 127.707 359.168C127.793 358.139 128.097 357.158 128.603 356.282C129.109 355.406 129.807 354.652 130.656 354.063C131.506 353.474 132.49 353.062 133.554 352.85C134.618 352.638 135.74 352.63 136.856 352.827C137.971 353.024 139.06 353.422 140.058 353.998V353.998Z" fill="url(#paint16_linear_501_2)" stroke="black" stroke-width="0.734456" stroke-linecap="round" stroke-linejoin="round"/>
<path d="M149.721 337.264C151.737 338.427 153.265 340.246 153.968 342.32C154.671 344.394 154.491 346.553 153.47 348.322C152.448 350.091 150.667 351.326 148.519 351.754C146.37 352.182 144.031 351.769 142.015 350.605C139.999 349.442 138.471 347.623 137.768 345.549C137.065 343.476 137.244 341.317 138.266 339.547C139.288 337.778 141.069 336.544 143.217 336.115C145.365 335.687 147.705 336.1 149.721 337.264V337.264Z" fill="url(#paint17_linear_501_2)" stroke="black" stroke-width="0.734456" stroke-linecap="round" stroke-linejoin="round"/>
<path d="M149.038 348.002C151.055 349.165 152.582 350.984 153.285 353.058C153.988 355.132 153.809 357.291 152.787 359.06C151.765 360.829 149.984 362.064 147.836 362.492C145.688 362.92 143.349 362.507 141.332 361.344C139.316 360.18 137.789 358.361 137.086 356.288C136.383 354.214 136.562 352.055 137.584 350.286C138.605 348.516 140.386 347.282 142.535 346.854C144.683 346.425 147.022 346.838 149.038 348.002V348.002Z" fill="url(#paint18_linear_501_2)" stroke="black" stroke-width="0.734456" stroke-linecap="round" stroke-linejoin="round"/>
<path d="M209.519 352.596C208.405 352.894 207.354 353.382 206.426 354.032C205.497 354.681 204.709 355.48 204.107 356.382C203.504 357.284 203.099 358.271 202.915 359.288C202.731 360.305 202.77 361.331 203.032 362.308C203.294 363.285 203.772 364.194 204.44 364.982C205.108 365.771 205.952 366.423 206.925 366.903C207.897 367.383 208.979 367.68 210.108 367.778C211.237 367.877 212.391 367.773 213.505 367.475C214.618 367.177 215.669 366.689 216.598 366.039C217.527 365.389 218.315 364.591 218.917 363.689C219.519 362.787 219.924 361.799 220.109 360.783C220.293 359.766 220.253 358.74 219.992 357.763C219.73 356.786 219.251 355.877 218.583 355.089C217.915 354.3 217.071 353.647 216.099 353.168C215.126 352.688 214.045 352.39 212.916 352.292C211.787 352.194 210.632 352.297 209.519 352.596V352.596Z" fill="url(#paint19_linear_501_2)" stroke="black" stroke-width="0.734456" stroke-linecap="round" stroke-linejoin="round"/>
<path d="M204.524 333.933C203.41 334.231 202.359 334.719 201.43 335.369C200.502 336.018 199.714 336.817 199.111 337.719C198.509 338.621 198.104 339.608 197.92 340.625C197.735 341.642 197.775 342.668 198.037 343.645C198.299 344.622 198.777 345.531 199.445 346.319C200.113 347.108 200.957 347.76 201.93 348.24C202.902 348.72 203.984 349.017 205.113 349.115C206.242 349.214 207.396 349.11 208.51 348.812C210.759 348.209 212.705 346.847 213.922 345.026C215.138 343.204 215.525 341.073 214.996 339.1C214.468 337.126 213.068 335.474 211.104 334.505C209.14 333.536 206.773 333.33 204.524 333.933V333.933Z" fill="url(#paint20_linear_501_2)" stroke="black" stroke-width="0.734456" stroke-linecap="round" stroke-linejoin="round"/>
<path d="M202.404 344.482C200.155 345.085 198.208 346.447 196.992 348.268C195.775 350.09 195.389 352.221 195.917 354.194C196.446 356.168 197.846 357.82 199.81 358.789C201.774 359.758 204.141 359.964 206.39 359.361C208.639 358.758 210.586 357.397 211.802 355.575C213.019 353.754 213.405 351.622 212.877 349.649C212.615 348.672 212.137 347.763 211.469 346.975C210.801 346.186 209.956 345.534 208.984 345.054C207.02 344.085 204.653 343.879 202.404 344.482V344.482Z" fill="url(#paint21_linear_501_2)" stroke="black" stroke-width="0.734456" stroke-linecap="round" stroke-linejoin="round"/>
<path d="M571.378 423.299H511.244V430.132H571.378V423.299Z" fill="white"/>
<path d="M650.647 431.499C652.911 431.499 654.747 429.663 654.747 427.399C654.747 425.134 652.911 423.299 650.647 423.299C648.382 423.299 646.547 425.134 646.547 427.399C646.547 429.663 648.382 431.499 650.647 431.499Z" fill="#2FA4DA"/>
<path d="M664.313 431.499C666.578 431.499 668.414 429.663 668.414 427.399C668.414 425.134 666.578 423.299 664.313 423.299C662.049 423.299 660.213 425.134 660.213 427.399C660.213 429.663 662.049 431.499 664.313 431.499Z" fill="#2FA4DA"/>
<path d="M677.98 431.499C680.245 431.499 682.081 429.663 682.081 427.399C682.081 425.134 680.245 423.299 677.98 423.299C675.716 423.299 673.88 425.134 673.88 427.399C673.88 429.663 675.716 431.499 677.98 431.499Z" fill="#2FA4DA"/>
<path d="M437.17 327.975C432.849 327.961 428.546 327.404 424.364 326.319L423.54 326.091L422.775 325.707C395.127 311.846 371.803 293.536 353.449 271.287C338.255 252.761 326.41 231.728 318.445 209.131C308.92 182.078 304.338 153.532 304.917 124.857C304.929 124.255 304.938 123.79 304.938 123.47C304.938 109.531 312.676 97.3005 324.65 92.3111C333.815 88.4925 417.025 54.3148 423.037 51.8453C434.36 46.172 446.439 50.9073 448.372 51.7353C452.707 53.508 529.63 84.9703 546.253 92.8857C563.385 101.044 567.956 115.699 567.956 123.072C567.956 156.454 562.174 187.652 550.772 215.799C541.564 238.582 528.513 259.615 512.187 277.983C480.689 313.429 449.183 325.995 448.879 326.106C445.113 327.401 441.151 328.034 437.17 327.975ZM429.761 309.622C432.492 310.234 438.781 311.153 442.88 309.658C448.087 307.759 474.457 294.084 499.1 266.353C533.147 228.038 550.422 179.873 550.448 123.196C550.387 122.047 549.571 113.858 538.726 108.693C522.425 100.931 442.471 68.2377 441.665 67.9081L441.444 67.8145C439.768 67.1123 434.436 65.6334 430.76 67.5596L430.024 67.9027C429.133 68.2687 340.804 104.547 331.384 108.472C324.794 111.218 322.446 118.02 322.446 123.47C322.446 123.869 322.436 124.448 322.422 125.197C321.669 163.978 330.643 259.405 429.761 309.622Z" fill="#3F3D56"/>
<path d="M426.698 59.805C426.698 59.805 337.567 96.4125 328.017 100.392C318.467 104.371 313.692 113.92 313.692 123.47C313.692 133.02 306.53 257.632 426.698 317.882C426.698 317.882 437.605 320.899 445.879 317.882C454.154 314.864 559.201 263.932 559.201 123.072C559.201 123.072 559.201 108.748 542.489 100.789C525.777 92.8313 444.977 59.805 444.977 59.805C444.977 59.805 435.054 55.428 426.698 59.805Z" fill="#2FA4DA"/>
<path opacity="0.2" d="M436.248 88.4543V283.743C436.248 283.743 526.175 240.455 525.379 126.654L436.248 88.4543Z" fill="black"/>
<path d="M741.102 493H0.898305C0.66006 493 0.431572 492.895 0.263107 492.707C0.0946419 492.52 0 492.265 0 492C0 491.735 0.0946419 491.48 0.263107 491.293C0.431572 491.105 0.66006 491 0.898305 491H741.102C741.34 491 741.568 491.105 741.737 491.293C741.905 491.48 742 491.735 742 492C742 492.265 741.905 492.52 741.737 492.707C741.568 492.895 741.34 493 741.102 493Z" fill="#CBCBCB"/>
</g>
<defs>
<linearGradient id="paint0_linear_501_2" x1="96.2455" y1="266.406" x2="358.597" y2="266.406" gradientUnits="userSpaceOnUse">
<stop stop-color="#D07839"/>
</linearGradient>
<linearGradient id="paint1_linear_501_2" x1="51.5487" y1="368.901" x2="291.343" y2="368.901" gradientUnits="userSpaceOnUse">
<stop stop-color="#D07839"/>
</linearGradient>
<linearGradient id="paint2_linear_501_2" x1="66.9939" y1="228.833" x2="274.616" y2="228.833" gradientUnits="userSpaceOnUse">
<stop stop-color="#D07839"/>
</linearGradient>
<linearGradient id="paint3_linear_501_2" x1="-179.052" y1="409.865" x2="-178.299" y2="412.334" gradientUnits="userSpaceOnUse">
<stop stop-color="#74401B"/>
</linearGradient>
<linearGradient id="paint4_linear_501_2" x1="-179.837" y1="404.453" x2="-177.735" y2="411.342" gradientUnits="userSpaceOnUse">
<stop stop-color="#74401B"/>
</linearGradient>
<linearGradient id="paint5_linear_501_2" x1="119.44" y1="-337.075" x2="136.531" y2="-332.483" gradientUnits="userSpaceOnUse">
<stop stop-color="#D07839"/>
</linearGradient>
<linearGradient id="paint6_linear_501_2" x1="151.53" y1="-328.499" x2="168.625" y2="-323.905" gradientUnits="userSpaceOnUse">
<stop stop-color="#D07839"/>
</linearGradient>
<linearGradient id="paint7_linear_501_2" x1="134.458" y1="-294.745" x2="175.414" y2="-283.74" gradientUnits="userSpaceOnUse">
<stop stop-color="#D07839"/>
</linearGradient>
<linearGradient id="paint8_linear_501_2" x1="93.4863" y1="-305.693" x2="134.443" y2="-294.688" gradientUnits="userSpaceOnUse">
<stop stop-color="#D07839"/>
</linearGradient>
<linearGradient id="paint9_linear_501_2" x1="-246.62" y1="434.142" x2="-245.119" y2="439.062" gradientUnits="userSpaceOnUse">
<stop stop-color="#74401B"/>
</linearGradient>
<linearGradient id="paint10_linear_501_2" x1="-117.029" y1="375.354" x2="-115.823" y2="379.307" gradientUnits="userSpaceOnUse">
<stop stop-color="#74401B"/>
</linearGradient>
<linearGradient id="paint11_linear_501_2" x1="-115.843" y1="380.412" x2="-114.637" y2="384.366" gradientUnits="userSpaceOnUse">
<stop stop-color="#74401B"/>
</linearGradient>
<linearGradient id="paint12_linear_501_2" x1="-116.403" y1="378.019" x2="-115.197" y2="381.973" gradientUnits="userSpaceOnUse">
<stop stop-color="#74401B"/>
</linearGradient>
<linearGradient id="paint13_linear_501_2" x1="-113.393" y1="390.872" x2="-112.187" y2="394.825" gradientUnits="userSpaceOnUse">
<stop stop-color="#74401B"/>
</linearGradient>
<linearGradient id="paint14_linear_501_2" x1="-112.209" y1="395.931" x2="-111.003" y2="399.884" gradientUnits="userSpaceOnUse">
<stop stop-color="#74401B"/>
</linearGradient>
<linearGradient id="paint15_linear_501_2" x1="-112.77" y1="393.538" x2="-111.564" y2="397.492" gradientUnits="userSpaceOnUse">
<stop stop-color="#74401B"/>
</linearGradient>
<linearGradient id="paint16_linear_501_2" x1="-163.199" y1="395.413" x2="-162.484" y2="397.757" gradientUnits="userSpaceOnUse">
<stop stop-color="#74401B"/>
</linearGradient>
<linearGradient id="paint17_linear_501_2" x1="-170.394" y1="399.06" x2="-169.679" y2="401.403" gradientUnits="userSpaceOnUse">
<stop stop-color="#74401B"/>
</linearGradient>
<linearGradient id="paint18_linear_501_2" x1="-165.596" y1="397.494" x2="-164.881" y2="399.837" gradientUnits="userSpaceOnUse">
<stop stop-color="#74401B"/>
</linearGradient>
<linearGradient id="paint19_linear_501_2" x1="-160.924" y1="406.007" x2="-160.194" y2="408.402" gradientUnits="userSpaceOnUse">
<stop stop-color="#74401B"/>
</linearGradient>
<linearGradient id="paint20_linear_501_2" x1="-169.465" y1="407.862" x2="-168.735" y2="410.257" gradientUnits="userSpaceOnUse">
<stop stop-color="#74401B"/>
</linearGradient>
<linearGradient id="paint21_linear_501_2" x1="-164.8" y1="406.12" x2="-164.069" y2="408.515" gradientUnits="userSpaceOnUse">
<stop stop-color="#74401B"/>
</linearGradient>
<clipPath id="clip0_501_2">
<rect width="742" height="493" fill="white"/>
</clipPath>
</defs>
</svg>
