<svg width="856" height="582" viewBox="0 0 856 582" fill="none" xmlns="http://www.w3.org/2000/svg">
<g clip-path="url(#clip0_405_180)">
<path d="M226.147 578.694L206.315 579.242C203.302 579.397 200.322 578.561 197.829 576.863C195.675 575.261 194.688 573.095 195.121 570.92L199.023 551.308C199.759 547.608 204.293 544.81 209.803 544.658L220.756 544.356C226.266 544.204 230.948 546.746 231.886 550.4L236.865 569.768C237.418 571.915 236.551 574.132 234.489 575.851C232.093 577.684 229.164 578.683 226.147 578.694Z" fill="#3F3D56"/>
<path d="M346.777 578.134L326.945 578.681C323.933 578.836 320.952 578.001 318.46 576.302C316.306 574.7 315.318 572.535 315.751 570.36L319.654 550.747C320.389 547.047 324.923 544.25 330.434 544.098L341.386 543.795C346.896 543.643 351.578 546.186 352.517 549.84L357.496 569.207C358.048 571.355 357.181 573.572 355.119 575.29C352.724 577.123 349.794 578.122 346.777 578.134Z" fill="#3F3D56"/>
<path d="M157.282 411.629C156.376 411.239 155.63 410.551 155.168 409.679C154.707 408.807 154.556 407.804 154.742 406.835C154.928 405.866 155.439 404.989 156.191 404.351C156.943 403.712 157.891 403.349 158.877 403.322L384.345 397.096C384.913 397.08 385.479 397.176 386.01 397.379C386.541 397.582 387.027 397.888 387.44 398.278C387.854 398.669 388.186 399.138 388.418 399.657C388.65 400.176 388.778 400.735 388.793 401.304C388.824 402.452 388.398 403.565 387.608 404.399C386.819 405.233 385.732 405.72 384.584 405.753L159.116 411.978C158.486 411.997 157.86 411.878 157.282 411.629Z" fill="#3F3D56"/>
<path d="M240.491 336.989L176.042 338.768L182.051 556.366L246.5 554.586L240.491 336.989Z" fill="#E6E6E6"/>
<path d="M242.126 333.079L229.737 366.828L229.748 520.587L244.844 524.916L242.126 333.079Z" fill="#CCCCCC"/>
<path d="M207.93 280.122C195.873 280.464 186.674 301.331 186.895 309.474L187.302 324.215L230.961 323.01L230.554 308.268C230.325 300.126 219.988 279.798 207.93 280.122Z" fill="#3F3D56"/>
<path d="M176.878 428.881C174.625 428.94 172.441 428.104 170.804 426.555C169.167 425.006 168.212 422.871 168.147 420.619L167.484 396.628C167.422 394.374 168.257 392.188 169.807 390.551C171.356 388.913 173.493 387.959 175.746 387.896C178 387.834 180.186 388.67 181.823 390.219C183.461 391.769 184.416 393.905 184.478 396.158L185.14 420.149C185.2 422.402 184.363 424.586 182.815 426.223C181.266 427.86 179.131 428.816 176.878 428.881Z" fill="#3F3D56"/>
<path d="M193.233 339.284L192.928 323.429L197.086 323.326L197.391 339.13L201.16 569.476L197.001 569.591" fill="#3F3D56"/>
<path d="M247.881 376.361L173.143 378.425C166.004 369.719 165.356 332.632 180.254 325.574L186.096 315.653L231.139 313.454L236.403 323.9C243.813 330.205 247.635 367.061 247.881 376.361Z" fill="#E6E6E6"/>
<path d="M219.751 358.573L200.851 359.095C197.204 359.196 194.103 354.464 193.94 348.549C193.776 342.634 196.611 337.738 200.258 337.637L219.158 337.115C222.806 337.015 225.906 341.746 226.07 347.662C226.233 353.577 223.398 358.473 219.751 358.573Z" fill="#2FA4DA"/>
<path d="M183.151 465.568L144.192 493.088L137.386 555.138L182.834 539.953L183.151 465.568Z" fill="#E6E6E6"/>
<path d="M364.902 334.324L300.452 336.103L306.461 553.701L370.91 551.921L364.902 334.324Z" fill="#E6E6E6"/>
<path d="M301.996 333.806L315.257 367.222L319.236 520.93L304.257 525.649L301.996 333.806Z" fill="#CCCCCC"/>
<path d="M397.132 273.911C401.798 273.911 405.58 268.84 405.58 262.584C405.58 256.328 401.798 251.256 397.132 251.256C392.467 251.256 388.685 256.328 388.685 262.584C388.685 268.84 392.467 273.911 397.132 273.911Z" fill="#E6E6E6"/>
<path d="M331.083 277.492C319.026 277.834 309.826 298.701 310.047 306.844L310.454 321.585L354.114 320.38L353.707 305.638C353.478 297.495 343.141 277.168 331.083 277.492Z" fill="#3F3D56"/>
<path d="M343.567 344.247L343.262 328.392L347.42 328.288L347.725 344.093L351.494 574.439L347.335 574.554" fill="#3F3D56"/>
<path d="M371.034 373.731L296.295 375.795C294.992 367.918 296.678 331.162 303.406 322.943L309.249 313.023L354.291 310.824L359.555 321.269C372.854 322.353 377.506 358.473 371.034 373.731Z" fill="#E6E6E6"/>
<path d="M342.995 359.254L324.095 359.776C320.448 359.877 317.326 354.402 317.138 347.574C316.949 340.746 319.764 335.108 323.411 335.007L342.311 334.485C345.958 334.385 349.079 339.859 349.268 346.687C349.456 353.515 346.642 359.153 342.995 359.254Z" fill="#2FA4DA"/>
<path d="M368.086 449.662L405.749 478.93L409.715 541.227L365.009 523.983L368.086 449.662Z" fill="#E6E6E6"/>
<path d="M357.568 161.121C317.155 161.121 270.711 116.275 229.619 137.582C105.204 202.096 122.331 94.1422 86.5872 53.9933L87.7606 51.6396C114.82 154.858 139.304 319.332 230.159 134.844C252.919 88.6306 327.615 160.064 371.583 157.957L371.659 160.786C367.016 161.01 362.319 161.122 357.568 161.121Z" fill="#F2F2F2"/>
<path d="M454.565 167.467C422.35 191.867 358.249 184.158 338.357 225.954C278.129 352.499 226.603 256.102 173.869 245.677L173.384 243.093C226.174 247.471 282.798 240.677 337.135 223.445C386.239 207.874 430.049 184.71 463.827 156.483L465.596 158.692C462.03 161.675 458.353 164.599 454.565 167.467Z" fill="#F2F2F2"/>
<path d="M104.132 161.911C108.798 161.911 112.58 156.84 112.58 150.584C112.58 144.328 108.798 139.256 104.132 139.256C99.4668 139.256 95.6848 144.328 95.6848 150.584C95.6848 156.84 99.4668 161.911 104.132 161.911Z" fill="#E6E6E6"/>
<path d="M366.132 69.911C370.798 69.911 374.58 64.8396 374.58 58.5836C374.58 52.3276 370.798 47.2561 366.132 47.2561C361.467 47.2561 357.685 52.3276 357.685 58.5836C357.685 64.8396 361.467 69.911 366.132 69.911Z" fill="#E6E6E6"/>
<path d="M181.47 207.629C177.608 210.202 173.656 204.078 177.592 201.619C181.454 199.046 185.407 205.17 181.47 207.629Z" fill="#E6E6E6"/>
<path d="M324.47 6.62918C320.608 9.20237 316.656 3.07794 320.592 0.619005C324.454 -1.95405 328.407 4.17039 324.47 6.62918Z" fill="#E6E6E6"/>
<path d="M408.749 125.801L406.292 125.262L406.83 122.804L405.192 122.445L404.653 124.903L402.196 124.365L401.837 126.003L404.294 126.542L403.756 128.999L405.394 129.358L405.933 126.9L408.39 127.439L408.749 125.801Z" fill="#E6E6E6"/>
<path d="M183.535 43.4394C189.446 43.4394 194.237 38.6479 194.237 32.7371C194.237 26.8264 189.446 22.0348 183.535 22.0348C177.624 22.0348 172.833 26.8264 172.833 32.7371C172.833 38.6479 177.624 43.4394 183.535 43.4394Z" fill="#FF6584"/>
<path d="M261.816 19.1905C249.758 19.5329 240.559 40.3996 240.78 48.5423L241.187 63.284L284.846 62.0784L284.439 47.3368C284.211 39.1942 273.874 18.867 261.816 19.1905Z" fill="#3F3D56"/>
<path d="M287.813 577.409L267.981 577.957C264.968 578.112 261.988 577.276 259.495 575.578C257.341 573.976 256.353 571.81 256.786 569.635L260.689 550.023C261.424 546.323 265.958 543.525 271.469 543.373L282.421 543.071C287.932 542.919 292.613 545.461 293.552 549.115L298.531 568.483C299.083 570.63 298.216 572.847 296.154 574.566C293.759 576.399 290.829 577.398 287.813 577.409Z" fill="#3F3D56"/>
<path d="M296.656 113.036L232.207 114.816L244.353 554.664L308.802 552.884L296.656 113.036Z" fill="#E6E6E6"/>
<path d="M270.868 325.949L270.563 310.094L274.721 309.991L275.026 325.795L278.795 556.141L274.636 556.256" fill="#3F3D56"/>
<path d="M309.345 153.292L222.019 155.703C220.497 146.5 222.466 103.553 230.328 93.9508L232.482 82.4888L292.779 80.8237L295.933 91.9948C304.592 99.3628 309.057 142.426 309.345 153.292Z" fill="#E6E6E6"/>
<path d="M294.685 82.1762L232.462 83.8944C230.165 83.9577 228.269 82.7519 228.226 81.201C228.221 80.9776 228.253 80.7548 228.323 80.5425L237.988 50.7673C238.402 49.4923 240.049 48.5559 241.972 48.5028L283.236 47.3635C285.159 47.3104 286.856 48.1544 287.34 49.4046L298.633 78.601C299.21 80.0943 297.876 81.6483 295.653 82.0719C295.334 82.1325 295.01 82.1674 294.685 82.1762Z" fill="#E6E6E6"/>
<path d="M238.6 323.926C238.038 323.686 237.508 323.379 237.019 323.011C236.319 322.52 235.741 321.876 235.329 321.127C234.916 320.378 234.681 319.544 234.64 318.69L232.379 236.812C232.286 233.423 235.605 230.572 239.777 230.456L295.48 228.918C299.653 228.802 303.123 231.467 303.217 234.856L305.478 316.734C305.485 317.589 305.296 318.434 304.925 319.205C304.555 319.976 304.013 320.651 303.341 321.18C301.853 322.392 299.999 323.065 298.08 323.09L242.378 324.628C241.082 324.671 239.793 324.432 238.6 323.926Z" fill="#3F3D56"/>
<path d="M274.252 76.9068L255.352 77.4287C251.705 77.5294 248.621 73.4089 248.479 68.2445C248.336 63.0802 251.188 58.7957 254.835 58.695L273.735 58.1731C277.382 58.0724 280.466 62.193 280.609 67.3573C280.751 72.5216 277.9 76.8061 274.252 76.9068Z" fill="#2FA4DA"/>
<path d="M791.398 528.793L792.329 507.85C802.039 502.659 812.869 499.918 823.879 499.863C808.726 512.252 810.62 536.132 800.346 552.792C797.103 557.963 792.736 562.339 787.572 565.593C782.407 568.848 776.576 570.899 770.511 571.593L757.831 579.357C756.091 569.657 756.474 559.695 758.955 550.158C761.436 540.62 765.955 531.734 772.201 524.111C775.747 519.87 779.813 516.091 784.303 512.866C787.34 520.874 791.398 528.793 791.398 528.793Z" fill="#F2F2F2"/>
<path d="M855.157 580.354C855.157 580.558 855.118 580.76 855.04 580.949C854.962 581.137 854.847 581.309 854.703 581.453C854.559 581.598 854.387 581.712 854.198 581.79C854.01 581.868 853.808 581.907 853.603 581.907H1.55322C1.14128 581.907 0.746211 581.743 0.454926 581.452C0.16364 581.161 0 580.766 0 580.354C0 579.942 0.16364 579.547 0.454926 579.255C0.746211 578.964 1.14128 578.8 1.55322 578.8H853.603C853.808 578.8 854.01 578.84 854.198 578.917C854.387 578.995 854.559 579.11 854.703 579.254C854.847 579.398 854.962 579.57 855.04 579.758C855.118 579.947 855.157 580.149 855.157 580.354Z" fill="#CCCCCC"/>
<path d="M366.498 423.566C364.245 423.626 362.061 422.789 360.424 421.24C358.787 419.691 357.831 417.557 357.767 415.304L357.104 391.313C357.045 389.061 357.882 386.878 359.431 385.243C360.98 383.608 363.115 382.655 365.367 382.592C367.618 382.53 369.802 383.364 371.439 384.912C373.076 386.459 374.033 388.592 374.098 390.844L374.76 414.835C374.82 417.087 373.983 419.272 372.434 420.909C370.885 422.546 368.751 423.501 366.498 423.566Z" fill="#3F3D56"/>
<path d="M56.0585 491.595C45.8124 491.595 39.1513 489.049 36.203 483.988C30.389 474.007 40.1264 456.495 65.1439 431.937L67.2455 434.078C44.0067 456.89 33.9027 474.079 38.7948 482.478C41.8905 487.79 51.1034 489.695 65.4433 487.982C79.6786 486.283 98.5438 481.217 121.515 472.927C168.806 455.86 228.138 427.071 288.58 391.863C349.02 356.656 403.33 319.246 441.507 286.528C448.839 280.242 455.494 274.195 461.286 268.556C468.889 261.335 475.903 253.517 482.262 245.179C490.825 233.552 493.715 224.598 490.62 219.285C485.45 210.41 463.732 211.245 429.463 221.637L428.593 218.766C465.359 207.617 487.101 207.283 493.212 217.775C497.009 224.293 494.138 234.112 484.678 246.958C478.222 255.429 471.1 263.37 463.379 270.706C457.542 276.389 450.84 282.478 443.459 288.805C405.149 321.639 350.682 359.16 290.09 394.454C229.496 429.751 169.99 458.622 122.534 475.749C99.3486 484.117 80.2602 489.235 65.7988 490.96C62.5673 491.364 59.3149 491.575 56.0585 491.595Z" fill="#CCCCCC"/>
<path d="M741.355 511.248C728.443 511.248 714.29 510.76 698.898 509.784C619.284 504.729 516.16 487.151 408.522 460.292C300.884 433.433 201.592 400.498 128.937 367.558C93.544 351.511 66.3805 336.321 48.2013 322.41C28.9542 307.683 20.5353 294.846 23.1773 284.257C28.3253 263.628 73.9083 259.115 111.241 258.962L111.254 261.962C59.9859 262.172 29.7403 270.349 26.0885 284.984C21.4366 303.624 59.3751 332.725 130.175 364.825C202.671 397.693 301.781 430.564 409.249 457.382C516.716 484.198 619.65 501.745 699.089 506.79C776.667 511.718 823.832 503.853 828.483 485.212C832.345 469.735 806.885 446.937 756.794 421.014L758.172 418.35C794.569 437.186 836.818 464.201 831.394 485.938C828.752 496.527 815.289 503.903 791.379 507.861C777.75 510.117 761.009 511.248 741.355 511.248Z" fill="#CCCCCC"/>
<path d="M854.963 348.074C853.921 407.113 814.242 432.774 813.59 407.847C812.78 376.318 799.184 294.545 745.819 319.622C681.997 349.609 739.53 532.265 721.055 532.265C647.137 532.265 587.146 449.751 587.146 348.074C587.146 246.405 647.137 163.891 721.055 163.891C794.972 163.891 856.732 247.7 854.963 348.074V348.074Z" fill="url(#paint0_linear_405_180)" stroke="black" stroke-width="0.8" stroke-linecap="round" stroke-linejoin="round"/>
<path d="M818.799 221.725C835.94 252.708 844.447 291.558 845.212 332.347C845.924 370.03 835.648 405.616 816.595 415.699C825.492 418.544 853.921 407.106 854.955 348.067C855.817 299.553 841.824 254.909 818.799 221.725ZM754.265 299.201C748.786 299.306 742.738 300.773 736.067 303.902C672.246 333.889 729.786 516.545 711.31 516.545C673.243 516.545 638.87 494.657 614.48 459.535C638.952 503.715 677.59 532.265 721.054 532.265C739.53 532.265 681.989 349.609 745.811 319.622C765.598 310.332 779.921 315.722 790.152 327.788C782.522 311.35 771.054 298.886 754.265 299.201V299.201Z" fill="black" fill-opacity="0.31373"/>
<path d="M785.567 453.894C785.567 486.313 772.684 517.405 749.751 540.329C726.819 563.253 695.715 576.131 663.284 576.131C630.852 576.131 599.749 563.253 576.816 540.329C553.883 517.405 541 486.313 541 453.894C541 421.475 553.883 390.383 576.816 367.46C599.749 344.536 630.852 331.657 663.284 331.657C695.715 331.657 726.819 344.536 749.751 367.46C772.684 390.383 785.567 421.475 785.567 453.894V453.894Z" fill="url(#paint1_linear_405_180)" stroke="black" stroke-width="0.799968" stroke-linecap="round" stroke-linejoin="round"/>
<path d="M663.289 331.673C650.278 331.673 637.753 333.724 625.986 337.49C636.569 335.019 647.729 333.687 659.264 333.687C690.909 333.687 719.765 343.628 741.479 359.939C720.282 342.288 693.015 331.673 663.289 331.673ZM779.097 414.554C780.701 421.081 781.555 427.818 781.555 434.735C781.555 490.518 726.766 535.783 659.264 535.783C602.818 535.783 555.284 504.134 541.223 461.144C544.97 525.259 598.216 576.153 663.289 576.153C730.791 576.153 785.58 521.388 785.58 453.913C785.58 440.147 783.302 426.905 779.097 414.554Z" fill="black" fill-opacity="0.31373"/>
<path d="M663.289 331.673C642.438 331.673 622.793 336.891 605.607 346.106C613.746 374.528 637.529 400.81 665.62 400.81C692.963 400.81 716.265 375.913 724.997 348.366C706.881 337.759 685.79 331.673 663.289 331.673V331.673Z" fill="black" fill-opacity="0.31373"/>
<path fill-rule="evenodd" clip-rule="evenodd" d="M747.078 229.854C732.23 229.854 702.069 237.744 696.793 258.202C696.71 258.359 696.553 258.928 696.38 259.804C686.832 253.973 675.604 250.582 663.604 250.582C651.072 250.582 639.425 254.28 629.614 260.583C629.411 259.303 629.164 258.404 629.066 258.202C623.79 237.744 593.629 229.877 578.774 229.869C576.413 229.869 574.457 230.071 573.025 230.446C565.058 231.553 556.333 234.735 556.97 236.472C562.817 235.476 565.77 236.614 565.68 237.557C565.5 239.324 561.977 239.795 563.109 246.165C565.245 243.074 568.221 242.011 570.559 241.517C572.958 256.555 583.451 282.807 603.088 284.17C604.775 284.29 606.349 284.282 607.833 284.252C603.201 293.025 600.57 303.019 600.57 313.626C600.57 348.411 628.804 388.721 663.604 388.721C698.397 388.721 726.668 348.411 726.668 313.626C726.668 303.026 724.03 293.055 719.398 284.29C720.47 284.282 721.602 284.252 722.771 284.17C742.341 282.815 752.834 256.713 755.277 241.659C757.511 242.205 760.179 243.328 762.135 246.165C763.267 239.795 759.744 239.324 759.565 237.557C759.475 236.614 762.428 235.476 768.274 236.472C768.881 234.825 761.094 231.883 753.493 230.633C752.047 230.124 749.828 229.854 747.078 229.854V229.854Z" fill="url(#paint2_linear_405_180)" stroke="black" stroke-width="0.8" stroke-linejoin="round"/>
<path d="M650.543 437.67C650.543 443.802 648.106 449.682 643.769 454.018C639.432 458.353 633.549 460.789 627.416 460.789C621.282 460.789 615.399 458.353 611.062 454.018C606.725 449.682 604.288 443.802 604.288 437.67C604.288 431.539 606.725 425.659 611.062 421.323C615.399 416.987 621.282 414.552 627.416 414.552C633.549 414.552 639.432 416.987 643.769 421.323C648.106 425.659 650.543 431.539 650.543 437.67V437.67Z" fill="black" fill-opacity="0.31373"/>
<path d="M737.306 438.03C737.306 444.161 734.869 450.041 730.532 454.377C726.194 458.713 720.312 461.148 714.178 461.148C708.044 461.148 702.162 458.713 697.824 454.377C693.487 450.041 691.051 444.161 691.051 438.03C691.051 431.898 693.487 426.018 697.824 421.682C702.162 417.347 708.044 414.911 714.178 414.911C720.312 414.911 726.194 417.347 730.532 421.682C734.869 426.018 737.306 431.898 737.306 438.03V438.03Z" fill="black" fill-opacity="0.31373"/>
<path d="M722.546 506.485C691.943 506.485 667.097 531.322 667.097 561.908C667.097 568.234 668.161 574.297 670.117 579.956H774.945C776.901 574.297 777.965 568.234 777.965 561.908C777.965 531.322 753.149 506.485 722.546 506.485V506.485Z" fill="url(#paint3_linear_405_180)" stroke="black" stroke-width="0.8" stroke-linecap="round" stroke-linejoin="round"/>
<path d="M611.647 506.485C581.045 506.485 556.228 531.322 556.228 561.908C556.228 568.234 557.292 574.297 559.249 579.956H664.076C666.032 574.297 667.096 568.234 667.096 561.908C667.096 531.322 642.25 506.485 611.647 506.485Z" fill="url(#paint4_linear_405_180)" stroke="black" stroke-width="0.8" stroke-linecap="round" stroke-linejoin="round"/>
<path d="M661.405 308.575C661.407 311.279 660.875 313.958 659.84 316.457C658.806 318.956 657.289 321.227 655.376 323.139C653.463 325.052 651.192 326.57 648.693 327.605C646.193 328.64 643.514 329.173 640.809 329.173C638.103 329.173 635.424 328.64 632.924 327.605C630.425 326.57 628.154 325.052 626.241 323.139C624.328 321.227 622.811 318.956 621.777 316.457C620.742 313.958 620.21 311.279 620.212 308.575C620.21 305.87 620.742 303.192 621.777 300.693C622.811 298.193 624.328 295.923 626.241 294.01C628.154 292.097 630.425 290.579 632.924 289.544C635.424 288.509 638.103 287.976 640.809 287.976C643.514 287.976 646.193 288.509 648.693 289.544C651.192 290.579 653.463 292.097 655.376 294.01C657.289 295.923 658.806 298.193 659.84 300.693C660.875 303.192 661.407 305.87 661.405 308.575V308.575Z" fill="white" stroke="black" stroke-width="0.800004" stroke-linecap="round" stroke-linejoin="round"/>
<path d="M707.021 308.575C707.022 311.279 706.49 313.958 705.456 316.457C704.421 318.956 702.904 321.227 700.992 323.139C699.079 325.052 696.808 326.57 694.308 327.605C691.809 328.64 689.13 329.173 686.424 329.173C683.718 329.173 681.039 328.64 678.54 327.605C676.04 326.57 673.769 325.052 671.856 323.139C669.944 321.227 668.427 318.956 667.392 316.457C666.358 313.958 665.826 311.279 665.827 308.575C665.826 305.87 666.358 303.192 667.392 300.693C668.427 298.193 669.944 295.923 671.856 294.01C673.769 292.097 676.04 290.579 678.54 289.544C681.039 288.509 683.718 287.976 686.424 287.976C689.13 287.976 691.809 288.509 694.308 289.544C696.808 290.579 699.079 292.097 700.992 294.01C702.904 295.923 704.421 298.193 705.456 300.693C706.49 303.192 707.022 305.87 707.021 308.575Z" fill="white" stroke="black" stroke-width="0.800004" stroke-linecap="round" stroke-linejoin="round"/>
<path d="M655.024 311.076C655.025 311.95 654.853 312.815 654.519 313.623C654.185 314.43 653.696 315.164 653.078 315.782C652.46 316.4 651.726 316.89 650.919 317.225C650.111 317.559 649.246 317.732 648.372 317.732C647.498 317.732 646.632 317.559 645.825 317.225C645.017 316.89 644.283 316.4 643.666 315.782C643.048 315.164 642.558 314.43 642.224 313.623C641.89 312.815 641.718 311.95 641.719 311.076C641.718 310.202 641.89 309.337 642.224 308.53C642.558 307.722 643.048 306.988 643.666 306.37C644.283 305.752 645.017 305.262 645.825 304.927C646.632 304.593 647.498 304.421 648.372 304.421C649.246 304.421 650.111 304.593 650.919 304.927C651.726 305.262 652.46 305.752 653.078 306.37C653.696 306.988 654.185 307.722 654.519 308.53C654.853 309.337 655.025 310.202 655.024 311.076V311.076Z" fill="black"/>
<path d="M685.454 311.076C685.455 311.95 685.284 312.815 684.95 313.623C684.616 314.43 684.126 315.164 683.508 315.782C682.89 316.4 682.156 316.89 681.349 317.225C680.541 317.559 679.676 317.732 678.802 317.732C677.928 317.732 677.062 317.559 676.255 317.225C675.447 316.89 674.714 316.4 674.096 315.782C673.478 315.164 672.988 314.43 672.654 313.623C672.32 312.815 672.148 311.95 672.149 311.076C672.148 310.202 672.32 309.337 672.654 308.53C672.988 307.722 673.478 306.988 674.096 306.37C674.714 305.752 675.447 305.262 676.255 304.927C677.062 304.593 677.928 304.421 678.802 304.421C679.676 304.421 680.541 304.593 681.349 304.927C682.156 305.262 682.89 305.752 683.508 306.37C684.126 306.988 684.616 307.722 684.95 308.53C685.284 309.337 685.455 310.202 685.454 311.076Z" fill="black"/>
<path fill-rule="evenodd" clip-rule="evenodd" d="M652.969 348.074C656.326 344.489 670.59 343.71 673.573 348.516C676.556 353.329 669.098 363.3 663.267 362.851C657.466 362.402 649.821 351.42 652.969 348.074Z" fill="black"/>
<path fill-rule="evenodd" clip-rule="evenodd" d="M615.455 274.985C613.244 243.006 580.295 235.723 578.706 239.518C577.125 243.321 584.725 286.071 615.455 274.985Z" fill="#74401B" stroke="black" stroke-width="0.8" stroke-linejoin="round"/>
<path fill-rule="evenodd" clip-rule="evenodd" d="M709.354 274.985C711.566 243.006 744.514 235.723 746.103 239.518C747.685 243.321 740.077 286.071 709.354 274.985Z" fill="url(#paint5_linear_405_180)" stroke="black" stroke-width="0.8" stroke-linejoin="round"/>
<path d="M606.736 563.959C606.736 568.628 605.172 573.107 602.388 576.408C599.604 579.71 595.828 581.565 591.891 581.565C587.954 581.565 584.178 579.71 581.394 576.408C578.609 573.107 577.045 568.628 577.045 563.959C577.045 559.29 578.609 554.811 581.394 551.51C584.178 548.208 587.954 546.353 591.891 546.353C595.828 546.353 599.604 548.208 602.388 551.51C605.172 554.811 606.736 559.29 606.736 563.959V563.959Z" fill="url(#paint6_linear_405_180)" stroke="black" stroke-width="0.734432" stroke-linecap="round" stroke-linejoin="round"/>
<path d="M643.972 563.959C643.972 568.628 642.408 573.107 639.624 576.408C636.84 579.71 633.064 581.565 629.127 581.565C625.19 581.565 621.414 579.71 618.63 576.408C615.846 573.107 614.281 568.628 614.281 563.959C614.281 559.29 615.846 554.811 618.63 551.51C621.414 548.208 625.19 546.353 629.127 546.353C633.064 546.353 636.84 548.208 639.624 551.51C642.408 554.811 643.972 559.29 643.972 563.959V563.959Z" fill="url(#paint7_linear_405_180)" stroke="black" stroke-width="0.734432" stroke-linecap="round" stroke-linejoin="round"/>
<path d="M626.358 563.959C626.358 568.628 624.794 573.107 622.01 576.408C619.226 579.71 615.45 581.565 611.513 581.565C607.576 581.565 603.8 579.71 601.016 576.408C598.232 573.107 596.668 568.628 596.668 563.959C596.668 559.29 598.232 554.811 601.016 551.51C603.8 548.208 607.576 546.353 611.513 546.353C615.45 546.353 619.226 548.208 622.01 551.51C624.794 554.811 626.358 559.29 626.358 563.959V563.959Z" fill="url(#paint8_linear_405_180)" stroke="black" stroke-width="0.734432" stroke-linecap="round" stroke-linejoin="round"/>
<path d="M720.969 563.959C720.969 568.628 719.405 573.107 716.621 576.408C713.837 579.71 710.061 581.565 706.124 581.565C702.186 581.565 698.41 579.71 695.626 576.408C692.842 573.107 691.278 568.628 691.278 563.959C691.278 559.29 692.842 554.811 695.626 551.51C698.41 548.208 702.186 546.353 706.124 546.353C710.061 546.353 713.837 548.208 716.621 551.51C719.405 554.811 720.969 559.29 720.969 563.959V563.959Z" fill="url(#paint9_linear_405_180)" stroke="black" stroke-width="0.734432" stroke-linecap="round" stroke-linejoin="round"/>
<path d="M758.209 563.959C758.209 568.628 756.645 573.107 753.861 576.408C751.077 579.71 747.301 581.565 743.364 581.565C739.427 581.565 735.651 579.71 732.867 576.408C730.083 573.107 728.519 568.628 728.519 563.959C728.519 559.29 730.083 554.811 732.867 551.51C735.651 548.208 739.427 546.353 743.364 546.353C747.301 546.353 751.077 548.208 753.861 551.51C756.645 554.811 758.209 559.29 758.209 563.959V563.959Z" fill="url(#paint10_linear_405_180)" stroke="black" stroke-width="0.734432" stroke-linecap="round" stroke-linejoin="round"/>
<path d="M740.595 563.959C740.595 568.628 739.031 573.107 736.247 576.408C733.463 579.71 729.687 581.565 725.75 581.565C721.813 581.565 718.037 579.71 715.253 576.408C712.469 573.107 710.905 568.628 710.905 563.959C710.905 559.29 712.469 554.811 715.253 551.51C718.037 548.208 721.813 546.353 725.75 546.353C729.687 546.353 733.463 548.208 736.247 551.51C739.031 554.811 740.595 559.29 740.595 563.959V563.959Z" fill="url(#paint11_linear_405_180)" stroke="black" stroke-width="0.734432" stroke-linecap="round" stroke-linejoin="round"/>
<path d="M721.699 289.23C722.846 293.976 723.46 298.946 723.46 304.037C723.46 338.822 695.196 379.117 660.396 379.117C635.032 379.117 613.184 357.701 603.186 332.617C610.928 361.578 635.047 388.736 663.604 388.736C698.404 388.736 726.668 348.411 726.668 313.626C726.668 304.972 724.9 296.738 721.729 289.23H721.699Z" fill="black" fill-opacity="0.31373"/>
<path d="M726.794 449.301C722.453 453.637 716.567 456.074 710.43 456.076C704.294 456.079 698.41 453.647 694.072 449.315C689.735 444.984 687.3 439.107 687.303 432.978C687.305 426.85 689.746 420.971 694.087 416.636C698.428 412.3 704.314 409.863 710.45 409.86C716.587 409.858 722.471 412.29 726.808 416.621C731.145 420.953 733.581 426.83 733.578 432.958C733.575 439.087 731.135 444.966 726.794 449.301Z" fill="url(#paint12_linear_405_180)" stroke="black" stroke-width="0.799998" stroke-linecap="round" stroke-linejoin="round"/>
<path d="M702.59 437.061C701.44 437.369 700.355 437.872 699.397 438.543C698.438 439.214 697.624 440.038 697.002 440.969C696.38 441.9 695.962 442.92 695.772 443.97C695.582 445.02 695.623 446.079 695.893 447.088C696.163 448.096 696.657 449.034 697.347 449.848C698.036 450.662 698.908 451.336 699.912 451.831C700.916 452.327 702.033 452.634 703.198 452.735C704.364 452.836 705.555 452.73 706.705 452.422C707.855 452.114 708.94 451.61 709.899 450.939C710.857 450.269 711.671 449.444 712.293 448.513C712.915 447.582 713.333 446.562 713.523 445.513C713.713 444.463 713.672 443.403 713.402 442.395C713.132 441.386 712.638 440.448 711.948 439.634C711.259 438.82 710.387 438.146 709.383 437.651C708.379 437.156 707.262 436.849 706.097 436.747C704.931 436.646 703.74 436.752 702.59 437.061V437.061Z" fill="url(#paint13_linear_405_180)" stroke="black" stroke-width="0.734456" stroke-linecap="round" stroke-linejoin="round"/>
<path d="M697.434 417.793C696.284 418.101 695.199 418.605 694.24 419.275C693.281 419.946 692.468 420.77 691.846 421.702C691.224 422.633 690.806 423.652 690.616 424.702C690.425 425.752 690.466 426.811 690.737 427.82C691.007 428.828 691.501 429.767 692.19 430.58C692.88 431.394 693.752 432.068 694.756 432.564C695.76 433.059 696.876 433.366 698.042 433.467C699.207 433.569 700.399 433.462 701.549 433.154C703.87 432.532 705.88 431.126 707.136 429.245C708.392 427.365 708.791 425.164 708.246 423.127C707.7 421.09 706.254 419.383 704.227 418.383C702.199 417.383 699.755 417.17 697.434 417.793V417.793Z" fill="url(#paint14_linear_405_180)" stroke="black" stroke-width="0.734456" stroke-linecap="round" stroke-linejoin="round"/>
<path d="M695.245 428.684C692.923 429.306 690.913 430.713 689.657 432.593C688.401 434.473 688.002 436.674 688.548 438.711C689.094 440.748 690.539 442.455 692.567 443.455C694.595 444.455 697.038 444.668 699.36 444.046C701.682 443.423 703.692 442.017 704.948 440.137C706.204 438.256 706.603 436.055 706.057 434.018C705.787 433.01 705.293 432.072 704.603 431.258C703.914 430.444 703.042 429.77 702.038 429.275C700.011 428.274 697.567 428.062 695.245 428.684V428.684Z" fill="url(#paint15_linear_405_180)" stroke="black" stroke-width="0.734456" stroke-linecap="round" stroke-linejoin="round"/>
<path d="M643.626 421.42C645.146 424.049 646.133 426.951 646.531 429.961C646.929 432.97 646.729 436.028 645.944 438.96C645.159 441.891 643.804 444.639 641.955 447.046C640.107 449.454 637.802 451.473 635.172 452.99C632.541 454.507 629.637 455.491 626.626 455.886C623.614 456.281 620.554 456.079 617.619 455.292C614.684 454.506 611.933 453.149 609.522 451.301C607.112 449.452 605.088 447.147 603.569 444.518C602.049 441.889 601.062 438.987 600.664 435.977C600.266 432.968 600.466 429.91 601.251 426.978C602.036 424.047 603.391 421.299 605.24 418.892C607.088 416.484 609.393 414.465 612.023 412.948C614.654 411.431 617.557 410.447 620.569 410.052C623.581 409.657 626.641 409.859 629.576 410.646C632.511 411.432 635.262 412.789 637.673 414.637C640.083 416.486 642.106 418.791 643.626 421.42Z" fill="url(#paint16_linear_405_180)" stroke="black" stroke-width="0.800002" stroke-linecap="round" stroke-linejoin="round"/>
<path d="M630.879 438.508C631.909 439.103 632.827 439.87 633.579 440.766C634.332 441.661 634.904 442.668 635.263 443.728C635.623 444.788 635.762 445.881 635.674 446.944C635.586 448.007 635.271 449.02 634.749 449.925C634.227 450.829 633.506 451.607 632.629 452.215C631.752 452.823 630.736 453.249 629.638 453.468C628.54 453.687 627.381 453.695 626.229 453.491C625.077 453.288 623.954 452.877 622.923 452.282C621.892 451.688 620.975 450.92 620.223 450.025C619.47 449.129 618.898 448.123 618.539 447.062C618.179 446.002 618.04 444.909 618.128 443.846C618.216 442.783 618.53 441.77 619.053 440.866C619.575 439.961 620.295 439.183 621.172 438.575C622.05 437.967 623.066 437.542 624.164 437.323C625.262 437.104 626.421 437.096 627.573 437.299C628.725 437.502 629.848 437.913 630.879 438.508V438.508Z" fill="url(#paint17_linear_405_180)" stroke="black" stroke-width="0.734456" stroke-linecap="round" stroke-linejoin="round"/>
<path d="M640.855 421.231C642.936 422.433 644.513 424.31 645.239 426.451C645.965 428.592 645.78 430.821 644.725 432.648C643.67 434.475 641.832 435.749 639.614 436.191C637.396 436.633 634.981 436.207 632.899 435.006C630.818 433.804 629.241 431.927 628.515 429.786C627.789 427.645 627.974 425.416 629.029 423.589C630.084 421.763 631.923 420.488 634.14 420.046C636.358 419.604 638.773 420.03 640.855 421.231V421.231Z" fill="url(#paint18_linear_405_180)" stroke="black" stroke-width="0.734456" stroke-linecap="round" stroke-linejoin="round"/>
<path d="M640.15 432.318C642.232 433.519 643.809 435.397 644.535 437.538C645.261 439.679 645.076 441.908 644.021 443.734C642.966 445.561 641.127 446.835 638.909 447.277C636.691 447.72 634.276 447.293 632.195 446.092C630.113 444.891 628.536 443.013 627.81 440.872C627.084 438.731 627.269 436.502 628.324 434.675C629.379 432.849 631.218 431.574 633.436 431.132C635.654 430.69 638.069 431.116 640.15 432.318V432.318Z" fill="url(#paint19_linear_405_180)" stroke="black" stroke-width="0.734456" stroke-linecap="round" stroke-linejoin="round"/>
<path d="M519.741 326.238C521.2 326.238 522.599 326.817 523.63 327.848C524.662 328.88 525.241 330.279 525.241 331.737V384.944H630.741C632.2 384.944 633.599 385.523 634.63 386.555C635.662 387.586 636.241 388.985 636.241 390.444C636.241 391.902 635.662 393.301 634.63 394.333C633.599 395.364 632.2 395.944 630.741 395.944H525.241V579.944H514.241V331.737C514.241 330.279 514.821 328.88 515.852 327.848C516.884 326.817 518.283 326.238 519.741 326.238Z" fill="#E6E6E6"/>
<path d="M603.602 368.423C596.187 368.275 556.362 367.132 549.831 367.413C549.462 366.12 537.081 381.986 536.78 382.084C536.58 382.296 536.433 382.553 536.353 382.834C536.274 383.114 536.263 383.41 536.323 383.696C536.382 383.981 536.51 384.248 536.695 384.474C536.88 384.7 537.117 384.877 537.385 384.991C538.113 385.434 602.317 384.246 603.095 384.401C603.431 384.396 603.759 384.295 604.041 384.112C604.323 383.928 604.548 383.668 604.688 383.363L605.117 382.401C605.162 380.757 605.7 372.353 605.217 370.917C605.336 370.647 605.385 370.352 605.362 370.058C605.338 369.765 605.242 369.481 605.082 369.234C604.922 368.987 604.702 368.783 604.444 368.642C604.186 368.5 603.896 368.425 603.602 368.423Z" fill="#E6E6E6"/>
<path opacity="0.17" d="M605.117 382.4C604.74 383.305 604.258 384.443 603.094 384.401L538.063 385.131C537.755 385.128 537.454 385.045 537.187 384.891C536.921 384.738 536.698 384.518 536.541 384.254C536.384 383.989 536.297 383.689 536.29 383.382C536.282 383.074 536.354 382.77 536.497 382.498L605.117 382.4Z" fill="black"/>
<path d="M550.135 367.218C549.435 366.008 532.049 279.98 530.598 279.261L518.727 264.74L517.666 263.942C516.191 263.131 512.652 263.679 512.971 265.933C515.76 279.303 533.696 355.451 534.09 367.323L536.249 382.447C536.287 382.705 536.379 382.951 536.519 383.171C536.658 383.39 536.842 383.578 537.059 383.722C537.276 383.867 537.52 383.964 537.777 384.008C538.033 384.052 538.296 384.041 538.548 383.977C539.167 383.91 539.758 383.684 540.263 383.319C540.767 382.954 541.168 382.465 541.426 381.898C541.588 381.364 550.948 367.528 550.135 367.218Z" fill="#E6E6E6"/>
<path opacity="0.17" d="M518.725 264.74L541.428 381.901C540.669 383.823 537.116 385.169 536.289 382.648C536.274 382.645 512.997 266.005 512.974 265.935C512.726 263.128 517.364 263.039 518.725 264.74Z" fill="black"/>
<path d="M519.409 269.531L530.939 285.603L543.881 347.068L537.865 352.316L519.409 269.531Z" fill="#2FA4DA"/>
<path d="M596.159 376.71L599.349 376.84C599.399 375.906 599.553 374.98 599.809 374.08C600.289 371.8 600.719 369.09 598.729 369.1C597.379 368.97 596.919 370.68 596.679 372.54C596.617 373.942 596.443 375.336 596.159 376.71Z" fill="#2F2E41"/>
<path d="M577.859 372.42L580.009 372.5L581.049 372.54C581.029 371.4 581.559 369.05 580.269 368.47C580.064 368.382 579.842 368.338 579.619 368.34C578.409 368.27 578.049 369.19 577.939 370.25C577.869 370.89 577.899 371.57 577.879 372.1C577.879 372.21 577.869 372.32 577.859 372.42Z" fill="#2F2E41"/>
<path d="M571.489 372.16L573.649 372.25L574.679 372.29C574.659 370.98 575.349 368.12 573.249 368.08C571.309 367.97 571.559 370.44 571.509 371.84C571.509 371.95 571.499 372.06 571.489 372.16Z" fill="#2F2E41"/>
<path d="M565.119 371.91L567.269 371.99L568.309 372.03C568.289 370.73 568.979 367.87 566.879 367.83C564.939 367.71 565.189 370.18 565.139 371.59C565.139 371.7 565.129 371.81 565.119 371.91Z" fill="#2F2E41"/>
<path d="M558.749 371.65L560.909 371.74L561.939 371.78C561.919 370.47 562.609 367.62 560.509 367.57C558.569 367.46 558.819 369.93 558.769 371.33C558.769 371.44 558.759 371.55 558.749 371.65Z" fill="#2F2E41"/>
<path d="M552.379 371.4L554.529 371.48L555.569 371.52C555.549 370.32 556.129 367.81 554.589 367.38H554.579C554.436 367.338 554.288 367.318 554.139 367.32C553.957 367.304 553.774 367.321 553.599 367.37H553.589C552.249 367.72 552.439 369.82 552.399 371.08C552.399 371.19 552.389 371.3 552.379 371.4Z" fill="#2F2E41"/>
<path d="M589.729 370.72L592.919 370.85C592.919 370.73 592.919 370.6 592.929 370.45C593.008 369.689 593.021 368.923 592.969 368.16C592.859 367.32 592.499 366.66 591.489 366.64C590.459 366.58 590.049 367.24 589.889 368.09C589.852 368.235 589.825 368.382 589.809 368.53V368.54C589.729 369.32 589.779 370.16 589.729 370.72Z" fill="#2F2E41"/>
<path d="M583.359 370.46L586.549 370.59C586.617 369.732 586.637 368.871 586.609 368.01C586.519 367.13 586.169 366.41 585.119 366.39C584.059 366.32 583.649 367.04 583.489 367.93C583.339 368.79 583.419 369.82 583.359 370.46Z" fill="#2F2E41"/>
<path d="M576.989 370.21L577.939 370.25L580.179 370.34C580.169 369.86 580.259 369.16 580.269 368.47C580.277 368.263 580.271 368.056 580.249 367.85C580.169 366.92 579.839 366.15 578.749 366.13C577.639 366.07 577.249 366.84 577.109 367.78C576.969 368.62 577.049 369.59 576.989 370.21Z" fill="#2F2E41"/>
<path d="M589.789 376.46L592.979 376.58C592.969 375.28 593.649 372.42 591.549 372.38C589.449 372.25 589.909 375.15 589.789 376.46Z" fill="#2F2E41"/>
<path d="M583.419 376.2L586.609 376.33C586.599 375.02 587.279 372.16 585.179 372.12C583.079 372 583.539 374.9 583.419 376.2Z" fill="#2F2E41"/>
<path d="M577.049 375.95L580.239 376.07C580.229 375.14 580.579 373.42 580.009 372.5C579.884 372.297 579.707 372.13 579.496 372.019C579.285 371.908 579.047 371.857 578.809 371.87C578.481 371.836 578.152 371.917 577.879 372.1C576.859 372.77 577.149 374.89 577.049 375.95Z" fill="#2F2E41"/>
<path d="M570.679 375.69L573.869 375.82C573.859 374.89 574.199 373.18 573.649 372.25C573.524 372.043 573.346 371.874 573.133 371.762C572.92 371.649 572.68 371.597 572.439 371.61C572.111 371.574 571.782 371.656 571.509 371.84C570.489 372.53 570.779 374.64 570.679 375.69Z" fill="#2F2E41"/>
<path d="M564.309 375.44L567.499 375.56C567.489 374.63 567.839 372.91 567.269 371.99C567.144 371.787 566.967 371.62 566.756 371.51C566.545 371.399 566.307 371.347 566.069 371.36C565.741 371.326 565.412 371.407 565.139 371.59C564.119 372.26 564.409 374.38 564.309 375.44Z" fill="#2F2E41"/>
<path d="M557.939 375.18L561.129 375.31C561.119 374.38 561.459 372.67 560.909 371.74C560.785 371.533 560.607 371.363 560.394 371.25C560.18 371.137 559.94 371.085 559.699 371.1C559.371 371.064 559.042 371.146 558.769 371.33C557.749 372.02 558.039 374.13 557.939 375.18Z" fill="#2F2E41"/>
<path d="M551.569 374.93L554.759 375.05C554.749 374.12 555.089 372.41 554.529 371.48C554.405 371.276 554.228 371.109 554.017 370.998C553.805 370.887 553.567 370.836 553.329 370.85C553.001 370.816 552.672 370.897 552.399 371.08C551.379 371.76 551.669 373.87 551.569 374.93Z" fill="#2F2E41"/>
</g>
<defs>
<linearGradient id="paint0_linear_405_180" x1="585.647" y1="348.078" x2="856.499" y2="348.078" gradientUnits="userSpaceOnUse">
<stop stop-color="#D07839"/>
</linearGradient>
<linearGradient id="paint1_linear_405_180" x1="539.502" y1="453.894" x2="787.066" y2="453.894" gradientUnits="userSpaceOnUse">
<stop stop-color="#D07839"/>
</linearGradient>
<linearGradient id="paint2_linear_405_180" x1="555.447" y1="309.288" x2="769.797" y2="309.288" gradientUnits="userSpaceOnUse">
<stop stop-color="#D07839"/>
</linearGradient>
<linearGradient id="paint3_linear_405_180" x1="625.097" y1="-231.256" x2="667.381" y2="-219.895" gradientUnits="userSpaceOnUse">
<stop stop-color="#D07839"/>
</linearGradient>
<linearGradient id="paint4_linear_405_180" x1="582.798" y1="-242.558" x2="625.081" y2="-231.197" gradientUnits="userSpaceOnUse">
<stop stop-color="#D07839"/>
</linearGradient>
<linearGradient id="paint5_linear_405_180" x1="231.672" y1="521.249" x2="233.221" y2="526.328" gradientUnits="userSpaceOnUse">
<stop stop-color="#74401B"/>
</linearGradient>
<linearGradient id="paint6_linear_405_180" x1="365.462" y1="460.556" x2="366.707" y2="464.637" gradientUnits="userSpaceOnUse">
<stop stop-color="#74401B"/>
</linearGradient>
<linearGradient id="paint7_linear_405_180" x1="366.686" y1="465.778" x2="367.931" y2="469.86" gradientUnits="userSpaceOnUse">
<stop stop-color="#74401B"/>
</linearGradient>
<linearGradient id="paint8_linear_405_180" x1="366.108" y1="463.308" x2="367.353" y2="467.389" gradientUnits="userSpaceOnUse">
<stop stop-color="#74401B"/>
</linearGradient>
<linearGradient id="paint9_linear_405_180" x1="369.215" y1="476.577" x2="370.46" y2="480.658" gradientUnits="userSpaceOnUse">
<stop stop-color="#74401B"/>
</linearGradient>
<linearGradient id="paint10_linear_405_180" x1="370.438" y1="481.799" x2="371.683" y2="485.881" gradientUnits="userSpaceOnUse">
<stop stop-color="#74401B"/>
</linearGradient>
<linearGradient id="paint11_linear_405_180" x1="369.859" y1="479.329" x2="371.104" y2="483.411" gradientUnits="userSpaceOnUse">
<stop stop-color="#74401B"/>
</linearGradient>
<linearGradient id="paint12_linear_405_180" x1="642.723" y1="-266.103" x2="660.372" y2="-261.361" gradientUnits="userSpaceOnUse">
<stop stop-color="#D07839"/>
</linearGradient>
<linearGradient id="paint13_linear_405_180" x1="320.143" y1="492.203" x2="320.898" y2="494.675" gradientUnits="userSpaceOnUse">
<stop stop-color="#74401B"/>
</linearGradient>
<linearGradient id="paint14_linear_405_180" x1="311.326" y1="494.118" x2="312.081" y2="496.59" gradientUnits="userSpaceOnUse">
<stop stop-color="#74401B"/>
</linearGradient>
<linearGradient id="paint15_linear_405_180" x1="316.143" y1="492.319" x2="316.897" y2="494.792" gradientUnits="userSpaceOnUse">
<stop stop-color="#74401B"/>
</linearGradient>
<linearGradient id="paint16_linear_405_180" x1="609.593" y1="-274.958" x2="627.237" y2="-270.217" gradientUnits="userSpaceOnUse">
<stop stop-color="#D07839"/>
</linearGradient>
<linearGradient id="paint17_linear_405_180" x1="317.796" y1="481.265" x2="318.534" y2="483.685" gradientUnits="userSpaceOnUse">
<stop stop-color="#74401B"/>
</linearGradient>
<linearGradient id="paint18_linear_405_180" x1="310.368" y1="485.03" x2="311.106" y2="487.449" gradientUnits="userSpaceOnUse">
<stop stop-color="#74401B"/>
</linearGradient>
<linearGradient id="paint19_linear_405_180" x1="315.321" y1="483.413" x2="316.059" y2="485.833" gradientUnits="userSpaceOnUse">
<stop stop-color="#74401B"/>
</linearGradient>
<clipPath id="clip0_405_180">
<rect width="855.157" height="581.907" fill="white"/>
</clipPath>
</defs>
</svg>
