<svg width="1004" height="596" viewBox="0 0 1004 596" fill="none" xmlns="http://www.w3.org/2000/svg">
<g clip-path="url(#clip0_312_378)">
<path d="M231.316 556.271L247.435 551.158C249.444 542.507 249.311 533.497 247.047 524.909C240.571 539.308 221.572 542.836 210.747 554.328C207.399 557.938 204.905 562.256 203.452 566.961C201.999 571.666 201.623 576.638 202.352 581.507L198.961 593.011C206.881 592.335 214.561 589.949 221.47 586.018C228.38 582.088 234.355 576.706 238.985 570.244C241.546 566.593 243.637 562.634 245.209 558.461C238.335 557.773 231.316 556.271 231.316 556.271Z" fill="#F2F2F2"/>
<path d="M214.092 534.999L226.239 523.234C224.179 514.595 220.041 506.59 214.185 499.913C214.811 515.688 199.379 527.319 194.816 542.433C193.429 547.158 193.122 552.134 193.92 556.993C194.717 561.853 196.598 566.47 199.423 570.504L201.518 582.313C208.305 578.175 214.115 572.614 218.547 566.015C222.978 559.415 225.926 551.934 227.188 544.085C227.852 539.675 227.958 535.199 227.504 530.763C221.044 533.212 214.092 534.999 214.092 534.999Z" fill="#F2F2F2"/>
<path d="M246.566 315.95C245.239 316.128 243.89 316.013 242.612 315.613C241.334 315.212 240.16 314.537 239.172 313.634C238.184 312.731 237.405 311.622 236.892 310.385C236.379 309.149 236.143 307.815 236.201 306.477L177.654 247.073L193.998 235.695L246.408 297.665C248.649 297.911 250.721 298.971 252.232 300.643C253.744 302.315 254.589 304.484 254.609 306.737C254.628 308.991 253.82 311.174 252.338 312.872C250.856 314.57 248.802 315.665 246.566 315.95Z" fill="#FFB6B6"/>
<path d="M159.642 221.378C159.642 221.378 155.493 223.865 162.399 231.438C167.928 237.501 192.056 266.652 201.686 272.739C201.164 274.247 201.158 275.887 201.67 277.4C202.182 278.912 203.182 280.212 204.514 281.093L219.321 262.615C218.475 257.317 214.903 257.588 212.896 258.231L203.606 246.684L182.558 211.378L162.61 219.527L159.642 221.378Z" fill="#2FA4DA"/>
<path d="M113.405 575.335H124.443L129.696 532.761H113.405V575.335Z" fill="#FFB6B6"/>
<path d="M109.803 567.775L127.437 566.723V574.278L144.202 585.857C145.03 586.428 145.654 587.25 145.982 588.201C146.31 589.152 146.326 590.184 146.026 591.144C145.727 592.105 145.128 592.945 144.317 593.541C143.507 594.138 142.527 594.459 141.521 594.459H120.527L116.908 586.986L115.495 594.459H107.58L109.803 567.775Z" fill="#2F2E41"/>
<path d="M175.405 575.335H186.443L191.696 532.761H175.405V575.335Z" fill="#FFB6B6"/>
<path d="M171.803 567.775L189.437 566.723V574.278L206.202 585.857C207.03 586.428 207.654 587.25 207.982 588.201C208.31 589.152 208.326 590.184 208.026 591.144C207.727 592.105 207.128 592.945 206.317 593.541C205.507 594.138 204.527 594.459 203.521 594.459H182.527L178.908 586.986L177.495 594.459H169.58L171.803 567.775Z" fill="#2F2E41"/>
<path d="M108.643 538.622H108.763L110.886 469.398C109.512 466.749 108.815 463.8 108.856 460.816C108.898 457.832 109.676 454.904 111.123 452.293L111.427 451.743L110.639 448.09C109.627 443.397 110.091 438.506 111.969 434.088L113.949 369.515C106.874 323.664 140.591 293.762 140.591 293.762L134.43 267.842L195.43 261.842L191.099 293.762L201.943 331.017C209.111 400.858 207.81 468.915 196.435 534.852L196.745 535.008C197.862 535.394 198.341 536.941 197.815 538.464C197.29 539.986 195.958 540.908 194.842 540.523L168.167 539.595C167.051 539.21 166.572 537.663 167.097 536.14C167.623 534.617 168.954 533.695 170.071 534.081L171.885 534.998L168.017 468.2L168.446 455.999L167.562 442.157L163.473 379.897L147.997 456.46L132.189 539.392C132.625 539.787 132.931 540.305 133.066 540.877C133.202 541.449 133.161 542.049 132.949 542.598C132.736 543.146 132.362 543.618 131.877 543.949C131.391 544.281 130.816 544.458 130.228 544.456H108.643C107.869 544.456 107.127 544.148 106.58 543.601C106.033 543.054 105.726 542.312 105.726 541.539C105.726 540.765 106.033 540.023 106.58 539.476C107.127 538.929 107.869 538.622 108.643 538.622Z" fill="#2F2E41"/>
<path d="M693.585 281.713H316.316C303.632 281.699 291.47 276.654 282.501 267.684C273.532 258.714 268.486 246.553 268.472 233.869V71.7006C268.486 59.0394 273.512 46.8988 282.452 37.9332C291.392 28.9675 303.518 23.9062 316.18 23.8559C374.771 7.6381 436.983 -0.383384 501.117 0.014076C562.141 0.392496 626.935 8.41398 693.7 23.8559C706.365 23.901 718.496 28.9599 727.441 37.9261C736.385 46.8922 741.415 59.0358 741.43 71.7006V233.869C741.415 246.553 736.37 258.714 727.401 267.684C718.431 276.654 706.27 281.699 693.585 281.713ZM316.316 25.8559C304.162 25.8697 292.509 30.7042 283.915 39.2988C275.32 47.8933 270.486 59.5461 270.472 71.7006V233.869C270.486 246.023 275.32 257.676 283.914 266.271C292.509 274.865 304.162 279.7 316.316 279.713H693.585C705.74 279.7 717.393 274.865 725.987 266.271C734.582 257.676 739.416 246.023 739.43 233.869V71.7006C739.416 59.5461 734.582 47.8933 725.987 39.2988C717.393 30.7042 705.74 25.8697 693.585 25.8559L693.36 25.83C555.201 -6.13971 431.955 -6.1441 316.583 25.8198L316.316 25.8559Z" fill="#E6E6E6"/>
<path d="M309.662 239.391C309.513 239.391 309.366 239.362 309.228 239.305C309.091 239.248 308.966 239.165 308.861 239.06C308.756 238.954 308.673 238.83 308.616 238.692C308.559 238.555 308.53 238.408 308.53 238.259V67.3103C308.53 67.0101 308.649 66.7221 308.861 66.5098C309.073 66.2975 309.361 66.1782 309.662 66.1782C309.962 66.1782 310.25 66.2975 310.462 66.5098C310.674 66.7221 310.794 67.0101 310.794 67.3103V238.259C310.794 238.408 310.765 238.555 310.708 238.692C310.651 238.83 310.567 238.954 310.462 239.06C310.357 239.165 310.232 239.248 310.095 239.305C309.958 239.362 309.81 239.391 309.662 239.391Z" fill="#E6E6E6"/>
<path d="M408.662 239.391C408.513 239.391 408.366 239.362 408.228 239.305C408.091 239.248 407.966 239.165 407.861 239.06C407.756 238.954 407.673 238.83 407.616 238.692C407.559 238.555 407.53 238.408 407.53 238.259V67.3103C407.53 67.0101 407.649 66.7221 407.861 66.5098C408.073 66.2975 408.361 66.1782 408.662 66.1782C408.962 66.1782 409.25 66.2975 409.462 66.5098C409.674 66.7221 409.794 67.0101 409.794 67.3103V238.259C409.794 238.408 409.765 238.555 409.708 238.692C409.651 238.83 409.567 238.954 409.462 239.06C409.357 239.165 409.232 239.248 409.095 239.305C408.958 239.362 408.81 239.391 408.662 239.391Z" fill="#E6E6E6"/>
<path d="M507.662 239.391C507.513 239.391 507.366 239.362 507.228 239.305C507.091 239.248 506.966 239.165 506.861 239.06C506.756 238.954 506.673 238.83 506.616 238.692C506.559 238.555 506.53 238.408 506.53 238.259V67.3103C506.53 67.0101 506.649 66.7221 506.861 66.5098C507.073 66.2975 507.361 66.1782 507.662 66.1782C507.962 66.1782 508.25 66.2975 508.462 66.5098C508.675 66.7221 508.794 67.0101 508.794 67.3103V238.259C508.794 238.408 508.765 238.555 508.708 238.692C508.651 238.83 508.567 238.954 508.462 239.06C508.357 239.165 508.232 239.248 508.095 239.305C507.958 239.362 507.81 239.391 507.662 239.391Z" fill="#E6E6E6"/>
<path d="M606.662 239.391C606.513 239.391 606.366 239.362 606.228 239.305C606.091 239.248 605.966 239.165 605.861 239.06C605.756 238.954 605.673 238.83 605.616 238.692C605.559 238.555 605.53 238.408 605.53 238.259V67.3103C605.53 67.0101 605.649 66.7221 605.861 66.5098C606.073 66.2975 606.361 66.1782 606.662 66.1782C606.962 66.1782 607.25 66.2975 607.462 66.5098C607.675 66.7221 607.794 67.0101 607.794 67.3103V238.259C607.794 238.408 607.765 238.555 607.708 238.692C607.651 238.83 607.567 238.954 607.462 239.06C607.357 239.165 607.232 239.248 607.095 239.305C606.958 239.362 606.81 239.391 606.662 239.391Z" fill="#E6E6E6"/>
<path d="M300.844 92.7845C300.844 92.6358 300.873 92.4886 300.93 92.3512C300.987 92.2138 301.071 92.089 301.176 91.9839C301.281 91.8787 301.406 91.7953 301.543 91.7384C301.68 91.6816 301.828 91.6523 301.976 91.6523H707.925C708.074 91.6523 708.221 91.6816 708.358 91.7385C708.496 91.7954 708.62 91.8788 708.725 91.9839C708.831 92.0891 708.914 92.2139 708.971 92.3512C709.028 92.4886 709.057 92.6358 709.057 92.7845C709.057 92.9331 709.028 93.0803 708.971 93.2177C708.914 93.3551 708.831 93.4799 708.725 93.585C708.62 93.6901 708.496 93.7735 708.358 93.8304C708.221 93.8873 708.074 93.9166 707.925 93.9166H301.976C301.828 93.9166 301.68 93.8874 301.543 93.8305C301.406 93.7736 301.281 93.6902 301.176 93.5851C301.071 93.4799 300.987 93.3551 300.93 93.2177C300.873 93.0804 300.844 92.9331 300.844 92.7845Z" fill="#E6E6E6"/>
<path d="M300.844 218.784C300.844 218.636 300.873 218.489 300.93 218.351C300.987 218.214 301.071 218.089 301.176 217.984C301.281 217.879 301.406 217.795 301.543 217.738C301.68 217.682 301.828 217.652 301.976 217.652H707.925C708.225 217.652 708.513 217.772 708.725 217.984C708.938 218.196 709.057 218.484 709.057 218.784C709.057 219.085 708.938 219.373 708.725 219.585C708.513 219.797 708.225 219.917 707.925 219.917H301.976C301.828 219.917 301.68 219.887 301.543 219.83C301.406 219.774 301.281 219.69 301.176 219.585C301.071 219.48 300.987 219.355 300.93 219.218C300.873 219.08 300.844 218.933 300.844 218.784Z" fill="#E6E6E6"/>
<path d="M300.844 155.784C300.844 155.636 300.873 155.489 300.93 155.351C300.987 155.214 301.071 155.089 301.176 154.984C301.281 154.879 301.406 154.795 301.543 154.738C301.68 154.682 301.828 154.652 301.976 154.652H707.925C708.225 154.652 708.513 154.772 708.725 154.984C708.938 155.196 709.057 155.484 709.057 155.784C709.057 156.085 708.938 156.373 708.725 156.585C708.513 156.797 708.225 156.917 707.925 156.917H301.976C301.828 156.917 301.68 156.887 301.543 156.83C301.406 156.774 301.281 156.69 301.176 156.585C301.071 156.48 300.987 156.355 300.93 156.218C300.873 156.08 300.844 155.933 300.844 155.784Z" fill="#E6E6E6"/>
<path d="M702.504 239.391C702.653 239.391 702.8 239.362 702.937 239.305C703.075 239.248 703.199 239.165 703.304 239.06C703.41 238.954 703.493 238.83 703.55 238.692C703.607 238.555 703.636 238.408 703.636 238.259V67.3103C703.636 67.0101 703.517 66.7221 703.304 66.5098C703.092 66.2975 702.804 66.1782 702.504 66.1782C702.204 66.1782 701.916 66.2975 701.703 66.5098C701.491 66.7221 701.372 67.0101 701.372 67.3103V238.259C701.372 238.408 701.401 238.555 701.458 238.692C701.515 238.83 701.598 238.954 701.703 239.06C701.808 239.165 701.933 239.248 702.071 239.305C702.208 239.362 702.355 239.391 702.504 239.391Z" fill="#E6E6E6"/>
<path d="M371.413 148.114H342.898C341.33 148.113 339.814 147.546 338.63 146.517C337.446 145.489 336.673 144.067 336.453 142.515C334.693 129.558 334.693 116.423 336.453 103.467C336.671 101.933 337.428 100.527 338.589 99.5005C339.751 98.4744 341.239 97.8958 342.789 97.8685C351.76 93.847 361.422 93.8475 371.511 97.868C372.45 97.8805 373.376 98.0985 374.222 98.5067C375.069 98.9149 375.816 99.5033 376.41 100.231C377.03 100.988 377.474 101.873 377.709 102.823C377.944 103.773 377.965 104.763 377.77 105.722C375.479 117.12 375.479 128.861 377.77 140.26C377.965 141.219 377.944 142.209 377.709 143.159C377.474 144.109 377.03 144.994 376.41 145.751C375.805 146.491 375.043 147.087 374.178 147.496C373.314 147.905 372.369 148.116 371.413 148.114Z" fill="#2FA4DA"/>
<path d="M368.426 112.755H344.426C344.029 112.755 343.647 112.597 343.366 112.316C343.084 112.035 342.926 111.653 342.926 111.255C342.926 110.858 343.084 110.476 343.366 110.195C343.647 109.913 344.029 109.755 344.426 109.755H368.426C368.824 109.755 369.206 109.913 369.487 110.195C369.768 110.476 369.926 110.858 369.926 111.255C369.926 111.653 369.768 112.035 369.487 112.316C369.206 112.597 368.824 112.755 368.426 112.755Z" fill="white"/>
<path d="M368.426 124.755H344.426C344.029 124.755 343.647 124.597 343.366 124.316C343.084 124.035 342.926 123.653 342.926 123.255C342.926 122.858 343.084 122.476 343.366 122.195C343.647 121.913 344.029 121.755 344.426 121.755H368.426C368.824 121.755 369.206 121.913 369.487 122.195C369.768 122.476 369.926 122.858 369.926 123.255C369.926 123.653 369.768 124.035 369.487 124.316C369.206 124.597 368.824 124.755 368.426 124.755Z" fill="white"/>
<path d="M368.426 136.755H344.426C344.029 136.755 343.647 136.597 343.366 136.316C343.084 136.035 342.926 135.653 342.926 135.255C342.926 134.858 343.084 134.476 343.366 134.195C343.647 133.913 344.029 133.755 344.426 133.755H368.426C368.824 133.755 369.206 133.913 369.487 134.195C369.768 134.476 369.926 134.858 369.926 135.255C369.926 135.653 369.768 136.035 369.487 136.316C369.206 136.597 368.824 136.755 368.426 136.755Z" fill="white"/>
<path d="M576.413 214.114H547.898C546.33 214.113 544.814 213.546 543.63 212.517C542.447 211.489 541.673 210.067 541.453 208.515C539.693 195.558 539.693 182.423 541.453 169.467C541.671 167.933 542.428 166.527 543.589 165.5C544.751 164.474 546.239 163.896 547.789 163.869C556.76 159.847 566.422 159.848 576.511 163.868C577.45 163.881 578.376 164.099 579.222 164.507C580.069 164.915 580.816 165.503 581.41 166.231C582.03 166.988 582.474 167.873 582.709 168.823C582.944 169.773 582.965 170.763 582.77 171.722C580.479 183.12 580.479 194.861 582.77 206.26C582.965 207.219 582.944 208.209 582.709 209.159C582.474 210.109 582.03 210.994 581.41 211.751C580.805 212.491 580.043 213.087 579.178 213.496C578.314 213.905 577.369 214.116 576.413 214.114Z" fill="#2FA4DA"/>
<path d="M573.426 178.755H549.426C549.029 178.755 548.647 178.597 548.366 178.316C548.084 178.035 547.926 177.653 547.926 177.255C547.926 176.858 548.084 176.476 548.366 176.195C548.647 175.913 549.029 175.755 549.426 175.755H573.426C573.824 175.755 574.206 175.913 574.487 176.195C574.768 176.476 574.926 176.858 574.926 177.255C574.926 177.653 574.768 178.035 574.487 178.316C574.206 178.597 573.824 178.755 573.426 178.755Z" fill="white"/>
<path d="M573.426 190.755H549.426C549.029 190.755 548.647 190.597 548.366 190.316C548.084 190.035 547.926 189.653 547.926 189.255C547.926 188.858 548.084 188.476 548.366 188.195C548.647 187.913 549.029 187.755 549.426 187.755H573.426C573.824 187.755 574.206 187.913 574.487 188.195C574.768 188.476 574.926 188.858 574.926 189.255C574.926 189.653 574.768 190.035 574.487 190.316C574.206 190.597 573.824 190.755 573.426 190.755Z" fill="white"/>
<path d="M663.413 148.114H634.898C633.33 148.113 631.814 147.546 630.63 146.517C629.447 145.489 628.673 144.067 628.453 142.515C626.693 129.558 626.693 116.423 628.453 103.467C628.671 101.933 629.428 100.527 630.589 99.5005C631.751 98.4744 633.239 97.8958 634.789 97.8685C643.76 93.847 653.422 93.8475 663.511 97.868C664.45 97.8805 665.376 98.0985 666.222 98.5067C667.069 98.9149 667.816 99.5033 668.41 100.231C669.03 100.988 669.474 101.873 669.709 102.823C669.944 103.773 669.965 104.763 669.77 105.722C667.479 117.12 667.479 128.861 669.77 140.26C669.965 141.219 669.944 142.209 669.709 143.159C669.474 144.109 669.03 144.994 668.41 145.751C667.805 146.491 667.043 147.087 666.178 147.496C665.314 147.905 664.369 148.116 663.413 148.114Z" fill="#FD6584"/>
<path d="M660.426 124.755H636.426C636.029 124.755 635.647 124.597 635.366 124.316C635.084 124.035 634.926 123.653 634.926 123.255C634.926 122.858 635.084 122.476 635.366 122.195C635.647 121.913 636.029 121.755 636.426 121.755H660.426C660.824 121.755 661.206 121.913 661.487 122.195C661.768 122.476 661.926 122.858 661.926 123.255C661.926 123.653 661.768 124.035 661.487 124.316C661.206 124.597 660.824 124.755 660.426 124.755Z" fill="white"/>
<path d="M660.426 136.755H636.426C636.029 136.755 635.647 136.597 635.366 136.316C635.084 136.035 634.926 135.653 634.926 135.255C634.926 134.858 635.084 134.476 635.366 134.195C635.647 133.913 636.029 133.755 636.426 133.755H660.426C660.824 133.755 661.206 133.913 661.487 134.195C661.768 134.476 661.926 134.858 661.926 135.255C661.926 135.653 661.768 136.035 661.487 136.316C661.206 136.597 660.824 136.755 660.426 136.755Z" fill="white"/>
<path d="M182.096 143.701C176.423 135.007 167.16 128.175 156.844 127.597C146.527 127.02 134.129 135.805 129.038 144.845C119.724 161.38 119.602 180.342 132.43 191.842C134.172 191.251 141.418 190.404 143.189 189.834L144.312 187.806L145.697 189.039C161.55 190.62 166.43 179.842 191.795 173.046C190.312 162.767 187.77 152.394 182.096 143.701Z" fill="#2F2E41"/>
<path d="M160.32 184.649C171.898 184.649 181.283 175.263 181.283 163.686C181.283 152.108 171.898 142.722 160.32 142.722C148.742 142.722 139.356 152.108 139.356 163.686C139.356 175.263 148.742 184.649 160.32 184.649Z" fill="#FFB7B7"/>
<path d="M183.549 202.637L171.553 195.439L147.56 193.04L126.354 203.838L126.567 236.826L140.019 271.04L192.429 281.842L198.544 251.774C198.544 251.774 214.139 230.828 197.344 218.832L183.549 202.637Z" fill="#2FA4DA"/>
<path d="M168.158 131.848C163.615 130.575 158.814 130.545 154.256 131.762C149.698 132.979 145.551 135.398 142.249 138.767C138.946 142.135 136.609 146.329 135.481 150.91C134.354 155.491 134.478 160.291 135.841 164.807C148.609 165.826 161.229 164.634 171.178 155.601L172.063 147.852L175.693 154.337C179.354 153.307 183.021 152.27 186.694 151.227C185.57 146.657 183.267 142.462 180.014 139.062C176.762 135.661 172.673 133.174 168.158 131.848Z" fill="#2F2E41"/>
<path d="M132.198 345.067C131.058 344.365 130.086 343.421 129.35 342.303C128.614 341.185 128.133 339.919 127.939 338.594C127.745 337.269 127.845 335.918 128.23 334.636C128.615 333.354 129.276 332.172 130.167 331.173L122.431 248.126L142.287 249.659L143.648 330.809C145.227 332.418 146.16 334.55 146.272 336.801C146.385 339.052 145.667 341.266 144.256 343.024C142.844 344.781 140.837 345.96 138.615 346.336C136.393 346.713 134.109 346.261 132.198 345.067Z" fill="#FFB6B6"/>
<path d="M127.089 204.169C127.089 204.169 122.303 203.468 122.857 213.703C123.301 221.897 121.191 272.4 124.796 283.207C123.437 284.044 122.394 285.31 121.833 286.805C121.272 288.3 121.225 289.939 121.698 291.465L144.857 286.529C147.554 281.891 146.995 277.13 145.035 276.358L145.15 261.538L150.268 212.688L130.558 204.614L127.089 204.169Z" fill="#2FA4DA"/>
<path d="M245.449 352.751C244.829 351.994 244.385 351.109 244.15 350.159C243.915 349.209 243.894 348.219 244.089 347.26C246.38 335.861 246.38 324.12 244.089 312.722C243.894 311.763 243.915 310.773 244.15 309.823C244.385 308.873 244.829 307.988 245.449 307.231C246.044 306.503 246.79 305.915 247.637 305.507C248.483 305.099 249.409 304.881 250.348 304.868C260.437 300.848 270.099 300.847 279.07 304.869C280.62 304.896 282.109 305.474 283.27 306.5C284.431 307.527 285.188 308.933 285.406 310.467C287.167 323.423 287.167 336.558 285.406 349.515C285.186 351.067 284.413 352.489 283.229 353.517C282.045 354.546 280.529 355.113 278.961 355.114H250.446C249.49 355.116 248.545 354.905 247.681 354.496C246.816 354.087 246.054 353.491 245.449 352.751Z" fill="#2FA4DA"/>
<path d="M253.433 319.755H277.433C277.83 319.755 278.212 319.597 278.493 319.316C278.775 319.035 278.933 318.653 278.933 318.255C278.933 317.858 278.775 317.476 278.493 317.195C278.212 316.913 277.83 316.755 277.433 316.755H253.433C253.035 316.755 252.653 316.913 252.372 317.195C252.091 317.476 251.933 317.858 251.933 318.255C251.933 318.653 252.091 319.035 252.372 319.316C252.653 319.597 253.035 319.755 253.433 319.755Z" fill="white"/>
<path d="M253.433 331.755H277.433C277.83 331.755 278.212 331.597 278.493 331.316C278.775 331.035 278.933 330.653 278.933 330.255C278.933 329.858 278.775 329.476 278.493 329.195C278.212 328.913 277.83 328.755 277.433 328.755H253.433C253.035 328.755 252.653 328.913 252.372 329.195C252.091 329.476 251.933 329.858 251.933 330.255C251.933 330.653 252.091 331.035 252.372 331.316C252.653 331.597 253.035 331.755 253.433 331.755Z" fill="white"/>
<path d="M253.433 343.755H277.433C277.83 343.755 278.212 343.597 278.493 343.316C278.775 343.035 278.933 342.653 278.933 342.255C278.933 341.858 278.775 341.476 278.493 341.195C278.212 340.913 277.83 340.755 277.433 340.755H253.433C253.035 340.755 252.653 340.913 252.372 341.195C252.091 341.476 251.933 341.858 251.933 342.255C251.933 342.653 252.091 343.035 252.372 343.316C252.653 343.597 253.035 343.755 253.433 343.755Z" fill="white"/>
<path d="M650.429 72.8423C660.923 72.8423 669.429 64.3357 669.429 53.8423C669.429 43.3489 660.923 34.8423 650.429 34.8423C639.936 34.8423 631.429 43.3489 631.429 53.8423C631.429 64.3357 639.936 72.8423 650.429 72.8423Z" fill="#E6E6E6"/>
<path d="M660.183 45.9236C659.897 45.6509 659.517 45.4988 659.122 45.4988C658.727 45.4988 658.347 45.6509 658.062 45.9236C654.03 49.1389 650.409 52.8376 647.28 56.9364C646.512 55.45 645.743 53.9636 644.975 52.4772C644.089 50.7615 641.499 52.2771 642.385 53.9913C643.508 56.1654 644.632 58.3396 645.756 60.5137C645.891 60.7356 646.081 60.919 646.308 61.0463C646.535 61.1735 646.791 61.2404 647.051 61.2404C647.311 61.2404 647.567 61.1735 647.793 61.0463C648.02 60.919 648.211 60.7356 648.346 60.5137C651.681 55.8173 655.666 51.619 660.183 48.0449C660.462 47.7624 660.619 47.3813 660.619 46.9842C660.619 46.5871 660.462 46.206 660.183 45.9236Z" fill="white"/>
<path d="M557.429 72.8423C567.923 72.8423 576.429 64.3357 576.429 53.8423C576.429 43.3489 567.923 34.8423 557.429 34.8423C546.936 34.8423 538.429 43.3489 538.429 53.8423C538.429 64.3357 546.936 72.8423 557.429 72.8423Z" fill="#E6E6E6"/>
<path d="M567.183 45.9236C566.897 45.6509 566.517 45.4988 566.122 45.4988C565.727 45.4988 565.347 45.6509 565.062 45.9236C561.03 49.1389 557.409 52.8376 554.28 56.9364C553.512 55.45 552.743 53.9636 551.975 52.4772C551.089 50.7615 548.499 52.2771 549.385 53.9913C550.508 56.1654 551.632 58.3396 552.756 60.5137C552.891 60.7356 553.081 60.919 553.308 61.0463C553.535 61.1735 553.791 61.2404 554.051 61.2404C554.311 61.2404 554.567 61.1735 554.793 61.0463C555.02 60.919 555.211 60.7356 555.346 60.5137C558.681 55.8173 562.666 51.619 567.183 48.0449C567.462 47.7624 567.619 47.3813 567.619 46.9842C567.619 46.5871 567.462 46.206 567.183 45.9236Z" fill="white"/>
<path d="M361.429 70.8423C371.923 70.8423 380.429 62.3357 380.429 51.8423C380.429 41.3489 371.923 32.8423 361.429 32.8423C350.936 32.8423 342.429 41.3489 342.429 51.8423C342.429 62.3357 350.936 70.8423 361.429 70.8423Z" fill="#E6E6E6"/>
<path d="M371.183 43.9236C370.897 43.6509 370.517 43.4988 370.122 43.4988C369.727 43.4988 369.347 43.6509 369.062 43.9236C365.03 47.1389 361.409 50.8376 358.28 54.9364C357.512 53.45 356.743 51.9636 355.975 50.4772C355.089 48.7615 352.499 50.2771 353.385 51.9913C354.508 54.1654 355.632 56.3396 356.756 58.5137C356.891 58.7356 357.082 58.919 357.308 59.0463C357.535 59.1735 357.791 59.2404 358.051 59.2404C358.311 59.2404 358.567 59.1735 358.793 59.0463C359.02 58.919 359.211 58.7356 359.346 58.5137C362.681 53.8173 366.666 49.619 371.183 46.0449C371.462 45.7624 371.619 45.3813 371.619 44.9842C371.619 44.5871 371.462 44.206 371.183 43.9236Z" fill="white"/>
<path d="M134.43 148.842C141.609 148.842 147.43 143.022 147.43 135.842C147.43 128.663 141.609 122.842 134.43 122.842C127.25 122.842 121.43 128.663 121.43 135.842C121.43 143.022 127.25 148.842 134.43 148.842Z" fill="#2F2E41"/>
<path d="M282.67 594.102C282.67 594.259 282.64 594.414 282.58 594.558C282.521 594.703 282.433 594.834 282.322 594.945C282.212 595.055 282.08 595.143 281.936 595.203C281.791 595.262 281.636 595.293 281.48 595.292H1.19C0.874395 595.292 0.57171 595.167 0.348541 594.944C0.125373 594.72 0 594.418 0 594.102C0 593.787 0.125373 593.484 0.348541 593.261C0.57171 593.038 0.874395 592.912 1.19 592.912H281.48C281.636 592.912 281.791 592.942 281.936 593.002C282.081 593.061 282.212 593.149 282.322 593.26C282.433 593.37 282.521 593.502 282.58 593.646C282.64 593.791 282.67 593.946 282.67 594.102Z" fill="#CCCCCC"/>
<path d="M1003.67 594.102C1003.67 594.259 1003.64 594.414 1003.58 594.558C1003.52 594.703 1003.43 594.834 1003.32 594.945C1003.21 595.055 1003.08 595.143 1002.94 595.203C1002.79 595.262 1002.64 595.293 1002.48 595.292H722.19C721.874 595.292 721.572 595.167 721.349 594.944C721.125 594.72 721 594.418 721 594.102C721 593.787 721.125 593.484 721.349 593.261C721.572 593.038 721.874 592.912 722.19 592.912H1002.48C1002.64 592.912 1002.79 592.942 1002.94 593.002C1003.08 593.061 1003.21 593.149 1003.32 593.26C1003.43 593.37 1003.52 593.502 1003.58 593.646C1003.64 593.791 1003.67 593.946 1003.67 594.102Z" fill="#CCCCCC"/>
<path d="M130.514 122.803C128.264 122.177 125.923 123.225 123.823 124.247L116.353 127.883C121.525 128.337 126.697 128.79 131.869 129.244L132.44 128.169C134.23 126.668 132.765 123.429 130.514 122.803Z" fill="#2F2E41"/>
<path d="M1003.38 363.253C1002.34 421.994 962.862 447.525 962.213 422.724C961.408 391.354 947.88 309.994 894.784 334.944C831.285 364.78 888.528 546.514 870.145 546.514C796.601 546.514 736.913 464.417 736.913 363.253C736.913 262.097 796.601 180 870.145 180C943.689 180 1005.14 263.386 1003.38 363.253V363.253Z" fill="url(#paint0_linear_312_378)" stroke="black" stroke-width="0.8" stroke-linecap="round" stroke-linejoin="round"/>
<path d="M967.396 237.542C984.451 268.368 992.915 307.022 993.676 347.605C994.384 385.098 984.16 420.505 965.204 430.537C974.056 433.367 1002.34 421.987 1003.37 363.246C1004.23 314.977 990.305 270.558 967.396 237.542ZM903.189 314.627C897.737 314.731 891.719 316.191 885.082 319.304C821.583 349.14 878.833 530.874 860.451 530.874C822.575 530.874 788.376 509.096 764.11 474.151C788.458 518.108 826.9 546.514 870.145 546.514C888.528 546.514 831.278 364.78 894.777 334.944C914.464 325.701 928.715 331.064 938.894 343.07C931.303 326.714 919.893 314.314 903.189 314.627V314.627Z" fill="black" fill-opacity="0.31373"/>
<path d="M934.333 468.538C934.333 500.794 921.514 531.728 898.697 554.537C875.881 577.345 844.934 590.158 812.666 590.158C780.398 590.158 749.452 577.345 726.635 554.537C703.818 531.728 691 500.794 691 468.538C691 436.283 703.818 405.348 726.635 382.54C749.452 359.732 780.398 346.919 812.666 346.919C844.934 346.919 875.881 359.732 898.697 382.54C921.514 405.348 934.333 436.283 934.333 468.538V468.538Z" fill="url(#paint1_linear_312_378)" stroke="black" stroke-width="0.799968" stroke-linecap="round" stroke-linejoin="round"/>
<path d="M812.672 346.935C799.726 346.935 787.265 348.976 775.557 352.722C786.086 350.264 797.19 348.939 808.667 348.939C840.152 348.939 868.863 358.829 890.466 375.058C869.377 357.496 842.247 346.935 812.672 346.935ZM927.895 429.397C929.491 435.892 930.341 442.595 930.341 449.477C930.341 504.978 875.828 550.015 808.667 550.015C752.506 550.015 705.212 518.525 691.222 475.753C694.95 539.543 747.927 590.181 812.672 590.181C879.832 590.181 934.345 535.693 934.345 468.558C934.345 454.861 932.078 441.686 927.895 429.397Z" fill="black" fill-opacity="0.31373"/>
<path d="M812.672 346.935C791.926 346.935 772.38 352.126 755.28 361.295C763.379 389.574 787.041 415.723 814.991 415.723C842.195 415.723 865.38 390.952 874.068 363.544C856.043 352.99 835.059 346.935 812.672 346.935V346.935Z" fill="black" fill-opacity="0.31373"/>
<path fill-rule="evenodd" clip-rule="evenodd" d="M896.037 245.63C881.264 245.63 851.256 253.48 846.006 273.835C845.924 273.991 845.767 274.557 845.596 275.429C836.095 269.627 824.924 266.253 812.985 266.253C800.516 266.253 788.928 269.932 779.166 276.203C778.965 274.93 778.719 274.036 778.622 273.835C773.372 253.48 743.363 245.652 728.583 245.645C726.234 245.645 724.288 245.846 722.863 246.218C714.936 247.321 706.256 250.486 706.89 252.214C712.706 251.223 715.645 252.355 715.555 253.294C715.376 255.051 711.871 255.521 712.997 261.859C715.123 258.783 718.083 257.725 720.41 257.234C722.796 272.196 733.236 298.316 752.775 299.671C754.452 299.79 756.018 299.783 757.495 299.753C752.886 308.482 750.269 318.425 750.269 328.978C750.269 363.588 778.361 403.695 812.985 403.695C847.602 403.695 875.731 363.588 875.731 328.978C875.731 318.432 873.106 308.512 868.497 299.79C869.564 299.783 870.69 299.753 871.853 299.671C891.324 298.323 901.764 272.353 904.195 257.375C906.418 257.919 909.072 259.036 911.019 261.859C912.145 255.521 908.64 255.051 908.461 253.294C908.371 252.355 911.31 251.223 917.126 252.214C917.73 250.575 909.982 247.648 902.42 246.404C900.981 245.898 898.774 245.63 896.037 245.63V245.63Z" fill="url(#paint2_linear_312_378)" stroke="black" stroke-width="0.8" stroke-linejoin="round"/>
<path d="M836.901 431.356C826.505 420.966 808.003 420.438 796.996 430.202C789.248 436.987 786.161 447.406 785.147 457.274C784.431 464.387 784.856 472.021 788.51 478.359C792.179 483.066 798.57 484.057 804.178 484.34C815.356 484.839 827.169 482.143 836.103 475.075C846.871 465.847 849.384 448.665 841.479 436.89C840.189 434.879 838.631 433.024 836.901 431.356V431.356Z" fill="black" fill-opacity="0.31373"/>
<path d="M799.99 452.397C799.99 458.497 797.566 464.348 793.25 468.662C788.935 472.975 783.082 475.399 776.979 475.399C770.876 475.399 765.024 472.975 760.708 468.662C756.393 464.348 753.969 458.497 753.969 452.397C753.969 446.296 756.393 440.446 760.708 436.132C765.024 431.818 770.876 429.395 776.979 429.395C783.082 429.395 788.935 431.818 793.25 436.132C797.566 440.446 799.99 446.296 799.99 452.397V452.397Z" fill="black" fill-opacity="0.31373"/>
<path d="M833.172 423.908C822.776 413.519 804.275 412.99 793.268 422.754C785.52 429.539 782.432 439.958 781.418 449.827C780.702 456.939 781.127 464.573 784.781 470.911C788.45 475.618 794.841 476.609 800.449 476.892C811.628 477.391 823.44 474.695 832.374 467.627C843.142 458.399 845.655 441.217 837.751 429.442C836.461 427.431 834.902 425.577 833.172 423.908V423.908Z" fill="#DC9A6A" stroke="black" stroke-width="0.8" stroke-linecap="round" stroke-linejoin="round"/>
<path d="M809.726 415.887C811.941 416.416 814.089 417.228 816.095 418.36C818.041 419.41 819.883 420.669 821.531 422.136C831.472 430.626 833.522 446.49 826.266 457.334C820.084 465.817 810.263 471.127 800.218 473.451C796.146 474.367 791.508 475 787.541 473.496C791.21 476.013 796.064 476.676 800.442 476.892C811.62 477.391 823.433 474.695 832.374 467.627C843.142 458.399 845.656 441.217 837.751 429.442C836.461 427.424 834.902 425.577 833.172 423.901C827.094 417.824 818.235 415.127 809.726 415.887V415.887Z" fill="black" fill-opacity="0.31373"/>
<path fill-rule="evenodd" clip-rule="evenodd" d="M833.448 421.294C835.499 414.934 845.842 409.057 848.907 411.269C851.972 413.489 852.21 418.762 851.666 419.544C851.129 420.318 845.596 417.928 842.106 420.81C838.623 423.685 836.871 426.143 836.871 426.143L833.448 421.294Z" fill="url(#paint3_linear_312_378)" stroke="black" stroke-width="0.8"/>
<path fill-rule="evenodd" clip-rule="evenodd" d="M851.017 414.032C851.084 414.725 850.987 415.299 850.801 415.522C850.271 416.155 844.969 415.537 841.569 418.166C838.176 420.795 836.461 422.806 836.461 422.806L833.746 420.527C833.642 420.788 833.53 421.041 833.448 421.294L836.871 426.15C836.871 426.15 838.623 423.685 842.106 420.803C845.596 417.928 851.129 420.318 851.666 419.536C852.039 419.008 852.039 416.356 851.017 414.032V414.032Z" fill="black" fill-opacity="0.31373"/>
<path d="M835.834 421.331C825.625 411.232 808.704 408.625 796.803 416.2C794.11 417.682 794.923 421.398 794.953 421.339C799.45 417.786 804.111 421.696 810.233 426.083C817.728 431.453 825.968 439.69 832.016 447.696C836.252 453.297 839.279 458.801 836.856 462.652C836.983 462.689 840.502 463.679 842.113 460.402C850.227 445.127 845.641 430.455 835.834 421.331V421.331Z" fill="url(#paint4_linear_312_378)" stroke="black" stroke-width="0.8" stroke-linecap="round" stroke-linejoin="round"/>
<path d="M835.029 420.207C838.265 428.593 837.84 436.525 833.731 444.181C832.799 445.924 831.367 445.358 830.167 445.335C830.8 446.117 831.419 446.914 832.016 447.696C836.244 453.305 839.279 458.809 836.856 462.652C836.983 462.689 840.502 463.687 842.113 460.41C849.541 446.408 846.282 431.177 835.029 420.207V420.207Z" fill="black" fill-opacity="0.31373"/>
<path d="M793.108 436.228C794.62 438.844 795.602 441.732 795.998 444.726C796.394 447.72 796.195 450.763 795.414 453.68C794.633 456.596 793.284 459.33 791.445 461.726C789.606 464.121 787.313 466.13 784.696 467.639C782.079 469.148 779.19 470.127 776.193 470.52C773.197 470.913 770.152 470.713 767.232 469.93C764.312 469.147 761.575 467.798 759.176 465.958C756.778 464.119 754.765 461.826 753.253 459.21C751.74 456.594 750.758 453.706 750.363 450.712C749.967 447.718 750.165 444.676 750.946 441.759C751.728 438.842 753.076 436.108 754.915 433.713C756.754 431.318 759.048 429.308 761.665 427.799C764.282 426.29 767.171 425.311 770.167 424.918C773.164 424.525 776.209 424.726 779.129 425.509C782.048 426.291 784.786 427.641 787.184 429.48C789.583 431.319 791.596 433.613 793.108 436.228V436.228Z" fill="url(#paint5_linear_312_378)" stroke="black" stroke-width="0.800002" stroke-linecap="round" stroke-linejoin="round"/>
<path d="M886.314 452.755C886.314 458.855 883.89 464.706 879.575 469.019C875.259 473.333 869.407 475.756 863.304 475.756C857.201 475.756 851.348 473.333 847.033 469.019C842.717 464.706 840.293 458.855 840.293 452.755C840.293 446.654 842.717 440.803 847.033 436.49C851.348 432.176 857.201 429.753 863.304 429.753C869.407 429.753 875.259 432.176 879.575 436.49C883.89 440.803 886.314 446.654 886.314 452.755V452.755Z" fill="black" fill-opacity="0.31373"/>
<path d="M875.856 463.969C871.537 468.282 865.68 470.707 859.575 470.71C853.469 470.713 847.615 468.293 843.299 463.983C838.984 459.673 836.561 453.826 836.564 447.729C836.567 441.631 838.995 435.782 843.314 431.468C847.633 427.155 853.489 424.73 859.595 424.727C865.7 424.724 871.555 427.144 875.87 431.454C880.185 435.764 882.608 441.611 882.605 447.708C882.603 453.806 880.175 459.655 875.856 463.969Z" fill="url(#paint6_linear_312_378)" stroke="black" stroke-width="0.799998" stroke-linecap="round" stroke-linejoin="round"/>
<path d="M871.629 520.864C841.181 520.864 816.46 545.576 816.46 576.007C816.46 582.301 817.519 588.333 819.465 593.964H923.763C925.71 588.333 926.769 582.301 926.769 576.007C926.769 545.576 902.077 520.864 871.629 520.864V520.864Z" fill="url(#paint7_linear_312_378)" stroke="black" stroke-width="0.8" stroke-linecap="round" stroke-linejoin="round"/>
<path d="M761.291 520.864C730.843 520.864 706.151 545.576 706.151 576.007C706.151 582.301 707.21 588.333 709.157 593.964H813.455C815.401 588.333 816.46 582.301 816.46 576.007C816.46 545.576 791.739 520.864 761.291 520.864Z" fill="url(#paint8_linear_312_378)" stroke="black" stroke-width="0.8" stroke-linecap="round" stroke-linejoin="round"/>
<path d="M810.797 323.953C810.799 326.644 810.269 329.309 809.24 331.795C808.211 334.282 806.702 336.541 804.798 338.444C802.895 340.347 800.636 341.857 798.149 342.887C795.662 343.917 792.996 344.447 790.304 344.447C787.612 344.447 784.947 343.917 782.46 342.887C779.973 341.857 777.713 340.347 775.81 338.444C773.907 336.541 772.398 334.282 771.369 331.795C770.339 329.309 769.81 326.644 769.812 323.953C769.81 321.262 770.339 318.597 771.369 316.111C772.398 313.624 773.907 311.365 775.81 309.462C777.713 307.558 779.973 306.049 782.46 305.018C784.947 303.988 787.612 303.458 790.304 303.458C792.996 303.458 795.662 303.988 798.149 305.018C800.636 306.049 802.895 307.558 804.798 309.462C806.702 311.365 808.211 313.624 809.24 316.111C810.269 318.597 810.799 321.262 810.797 323.953V323.953Z" fill="white" stroke="black" stroke-width="0.800004" stroke-linecap="round" stroke-linejoin="round"/>
<path d="M856.183 323.953C856.184 326.644 855.655 329.309 854.625 331.795C853.596 334.282 852.087 336.541 850.184 338.444C848.281 340.347 846.021 341.857 843.534 342.887C841.047 343.917 838.382 344.447 835.69 344.447C832.998 344.447 830.332 343.917 827.845 342.887C825.358 341.857 823.099 340.347 821.196 338.444C819.293 336.541 817.783 334.282 816.754 331.795C815.725 329.309 815.196 326.644 815.197 323.953C815.196 321.262 815.725 318.597 816.754 316.111C817.783 313.624 819.293 311.365 821.196 309.462C823.099 307.558 825.358 306.049 827.845 305.018C830.332 303.988 832.998 303.458 835.69 303.458C838.382 303.458 841.047 303.988 843.534 305.018C846.021 306.049 848.281 307.558 850.184 309.462C852.087 311.365 853.596 313.624 854.625 316.111C855.655 318.597 856.184 321.262 856.183 323.953Z" fill="white" stroke="black" stroke-width="0.800004" stroke-linecap="round" stroke-linejoin="round"/>
<path d="M804.449 326.442C804.449 327.311 804.279 328.172 803.946 328.975C803.614 329.779 803.127 330.509 802.512 331.124C801.897 331.739 801.167 332.227 800.364 332.56C799.56 332.892 798.699 333.064 797.83 333.064C796.96 333.064 796.099 332.892 795.295 332.56C794.492 332.227 793.762 331.739 793.147 331.124C792.532 330.509 792.045 329.779 791.713 328.975C791.38 328.172 791.21 327.311 791.21 326.442C791.21 325.572 791.38 324.711 791.713 323.908C792.045 323.105 792.532 322.375 793.147 321.76C793.762 321.145 794.492 320.657 795.295 320.324C796.099 319.991 796.96 319.82 797.83 319.82C798.699 319.82 799.56 319.991 800.364 320.324C801.167 320.657 801.897 321.145 802.512 321.76C803.127 322.375 803.614 323.105 803.946 323.908C804.279 324.711 804.449 325.572 804.449 326.442V326.442Z" fill="black"/>
<path d="M834.725 326.442C834.726 327.311 834.555 328.172 834.223 328.975C833.891 329.779 833.403 330.509 832.788 331.124C832.174 331.739 831.444 332.227 830.64 332.56C829.837 332.892 828.976 333.064 828.106 333.064C827.236 333.064 826.375 332.892 825.572 332.56C824.768 332.227 824.039 331.739 823.424 331.124C822.809 330.509 822.322 329.779 821.989 328.975C821.657 328.172 821.486 327.311 821.487 326.442C821.486 325.572 821.657 324.711 821.989 323.908C822.322 323.105 822.809 322.375 823.424 321.76C824.039 321.145 824.768 320.657 825.572 320.324C826.375 319.991 827.236 319.82 828.106 319.82C828.976 319.82 829.837 319.991 830.64 320.324C831.444 320.657 832.174 321.145 832.788 321.76C833.403 322.375 833.891 323.105 834.223 323.908C834.555 324.711 834.726 325.572 834.725 326.442Z" fill="black"/>
<path fill-rule="evenodd" clip-rule="evenodd" d="M802.403 363.253C805.744 359.686 819.935 358.911 822.903 363.693C825.871 368.482 818.451 378.402 812.649 377.955C806.877 377.509 799.271 366.583 802.403 363.253Z" fill="black"/>
<path fill-rule="evenodd" clip-rule="evenodd" d="M765.079 290.533C762.879 258.716 730.097 251.469 728.516 255.245C726.942 259.029 734.504 301.563 765.079 290.533Z" fill="#74401B" stroke="black" stroke-width="0.8" stroke-linejoin="round"/>
<path fill-rule="evenodd" clip-rule="evenodd" d="M858.504 290.533C860.704 258.716 893.487 251.469 895.068 255.245C896.641 259.029 889.072 301.563 858.504 290.533Z" fill="url(#paint9_linear_312_378)" stroke="black" stroke-width="0.8" stroke-linejoin="round"/>
<path d="M756.404 578.048C756.404 582.694 754.848 587.149 752.078 590.435C749.308 593.72 745.551 595.565 741.634 595.565C737.717 595.565 733.96 593.72 731.19 590.435C728.42 587.149 726.864 582.694 726.864 578.048C726.864 573.402 728.42 568.947 731.19 565.661C733.96 562.376 737.717 560.531 741.634 560.531C745.551 560.531 749.308 562.376 752.078 565.661C754.848 568.947 756.404 573.402 756.404 578.048V578.048Z" fill="url(#paint10_linear_312_378)" stroke="black" stroke-width="0.734432" stroke-linecap="round" stroke-linejoin="round"/>
<path d="M793.452 578.048C793.452 582.694 791.896 587.149 789.126 590.435C786.356 593.72 782.599 595.565 778.682 595.565C774.764 595.565 771.008 593.72 768.238 590.435C765.468 587.149 763.911 582.694 763.911 578.048C763.911 573.402 765.468 568.947 768.238 565.661C771.008 562.376 774.764 560.531 778.682 560.531C782.599 560.531 786.356 562.376 789.126 565.661C791.896 568.947 793.452 573.402 793.452 578.048V578.048Z" fill="url(#paint11_linear_312_378)" stroke="black" stroke-width="0.734432" stroke-linecap="round" stroke-linejoin="round"/>
<path d="M775.927 578.048C775.927 582.694 774.371 587.149 771.601 590.435C768.831 593.72 765.074 595.565 761.157 595.565C757.24 595.565 753.483 593.72 750.713 590.435C747.943 587.149 746.387 582.694 746.387 578.048C746.387 573.402 747.943 568.947 750.713 565.661C753.483 562.376 757.24 560.531 761.157 560.531C765.074 560.531 768.831 562.376 771.601 565.661C774.371 568.947 775.927 573.402 775.927 578.048V578.048Z" fill="url(#paint12_linear_312_378)" stroke="black" stroke-width="0.734432" stroke-linecap="round" stroke-linejoin="round"/>
<path d="M870.06 578.048C870.06 582.694 868.504 587.149 865.734 590.435C862.964 593.72 859.207 595.565 855.29 595.565C851.373 595.565 847.616 593.72 844.846 590.435C842.076 587.149 840.52 582.694 840.52 578.048C840.52 573.402 842.076 568.947 844.846 565.661C847.616 562.376 851.373 560.531 855.29 560.531C859.207 560.531 862.964 562.376 865.734 565.661C868.504 568.947 870.06 573.402 870.06 578.048V578.048Z" fill="url(#paint13_linear_312_378)" stroke="black" stroke-width="0.734432" stroke-linecap="round" stroke-linejoin="round"/>
<path d="M907.112 578.048C907.112 582.694 905.556 587.149 902.786 590.435C900.016 593.72 896.259 595.565 892.342 595.565C888.425 595.565 884.668 593.72 881.898 590.435C879.128 587.149 877.572 582.694 877.572 578.048C877.572 573.402 879.128 568.947 881.898 565.661C884.668 562.376 888.425 560.531 892.342 560.531C896.259 560.531 900.016 562.376 902.786 565.661C905.556 568.947 907.112 573.402 907.112 578.048V578.048Z" fill="url(#paint14_linear_312_378)" stroke="black" stroke-width="0.734432" stroke-linecap="round" stroke-linejoin="round"/>
<path d="M889.587 578.048C889.587 582.694 888.031 587.149 885.261 590.435C882.491 593.72 878.734 595.565 874.817 595.565C870.9 595.565 867.143 593.72 864.373 590.435C861.603 587.149 860.047 582.694 860.047 578.048C860.047 573.402 861.603 568.947 864.373 565.661C867.143 562.376 870.9 560.531 874.817 560.531C878.734 560.531 882.491 562.376 885.261 565.661C888.031 568.947 889.587 573.402 889.587 578.048V578.048Z" fill="url(#paint15_linear_312_378)" stroke="black" stroke-width="0.734432" stroke-linecap="round" stroke-linejoin="round"/>
<path d="M870.787 304.706C871.928 309.428 872.539 314.373 872.539 319.438C872.539 354.048 844.418 394.139 809.793 394.139C784.558 394.139 762.82 372.831 752.872 347.874C760.575 376.689 784.573 403.71 812.985 403.71C847.609 403.71 875.731 363.588 875.731 328.978C875.731 320.369 873.971 312.176 870.817 304.706H870.787Z" fill="black" fill-opacity="0.31373"/>
<path d="M780.425 453.23C781.45 453.822 782.363 454.585 783.112 455.477C783.86 456.368 784.43 457.369 784.787 458.424C785.145 459.479 785.284 460.566 785.196 461.624C785.108 462.682 784.796 463.689 784.276 464.589C783.756 465.489 783.039 466.264 782.167 466.869C781.294 467.473 780.283 467.897 779.19 468.115C778.098 468.333 776.945 468.34 775.799 468.138C774.653 467.936 773.535 467.527 772.509 466.935C771.484 466.343 770.571 465.58 769.823 464.689C769.074 463.798 768.505 462.796 768.147 461.741C767.79 460.687 767.651 459.599 767.739 458.542C767.826 457.484 768.139 456.476 768.659 455.576C769.178 454.676 769.895 453.902 770.768 453.297C771.64 452.692 772.652 452.269 773.744 452.051C774.837 451.833 775.989 451.825 777.136 452.027C778.282 452.23 779.4 452.639 780.425 453.23V453.23Z" fill="url(#paint16_linear_312_378)" stroke="black" stroke-width="0.734456" stroke-linecap="round" stroke-linejoin="round"/>
<path d="M790.351 436.041C792.422 437.236 793.991 439.104 794.713 441.235C795.435 443.365 795.251 445.583 794.201 447.4C793.152 449.217 791.322 450.485 789.116 450.925C786.909 451.365 784.506 450.941 782.435 449.746C780.364 448.55 778.795 446.682 778.073 444.552C777.351 442.422 777.535 440.204 778.584 438.387C779.634 436.569 781.463 435.301 783.67 434.861C785.877 434.421 788.28 434.846 790.351 436.041V436.041Z" fill="url(#paint17_linear_312_378)" stroke="black" stroke-width="0.734456" stroke-linecap="round" stroke-linejoin="round"/>
<path d="M789.65 447.071C791.721 448.266 793.29 450.135 794.012 452.265C794.734 454.395 794.55 456.613 793.5 458.43C792.451 460.247 790.621 461.516 788.415 461.956C786.208 462.395 783.805 461.971 781.734 460.776C779.663 459.581 778.094 457.713 777.372 455.582C776.65 453.452 776.834 451.234 777.883 449.417C778.933 447.6 780.762 446.332 782.969 445.892C785.176 445.452 787.579 445.876 789.65 447.071V447.071Z" fill="url(#paint18_linear_312_378)" stroke="black" stroke-width="0.734456" stroke-linecap="round" stroke-linejoin="round"/>
<path d="M851.774 451.79C850.63 452.097 849.551 452.598 848.597 453.265C847.643 453.932 846.834 454.753 846.215 455.679C845.596 456.606 845.18 457.62 844.991 458.664C844.801 459.709 844.842 460.763 845.111 461.767C845.38 462.77 845.871 463.703 846.558 464.513C847.244 465.323 848.111 465.994 849.11 466.486C850.109 466.979 851.22 467.285 852.379 467.386C853.539 467.486 854.725 467.38 855.868 467.074C857.012 466.767 858.092 466.266 859.046 465.599C860 464.931 860.809 464.111 861.428 463.185C862.047 462.258 862.463 461.244 862.652 460.2C862.841 459.155 862.801 458.101 862.532 457.097C862.263 456.094 861.771 455.16 861.085 454.351C860.399 453.541 859.532 452.87 858.533 452.378C857.534 451.885 856.423 451.579 855.263 451.478C854.104 451.378 852.918 451.483 851.774 451.79V451.79Z" fill="url(#paint19_linear_312_378)" stroke="black" stroke-width="0.734456" stroke-linecap="round" stroke-linejoin="round"/>
<path d="M846.644 432.62C845.5 432.926 844.42 433.427 843.466 434.095C842.512 434.762 841.703 435.582 841.084 436.509C840.465 437.435 840.05 438.45 839.86 439.494C839.671 440.539 839.712 441.593 839.98 442.596C840.249 443.6 840.741 444.533 841.427 445.343C842.113 446.153 842.98 446.823 843.979 447.316C844.978 447.809 846.089 448.114 847.249 448.215C848.408 448.316 849.594 448.21 850.738 447.903C853.048 447.284 855.048 445.885 856.297 444.014C857.547 442.143 857.944 439.954 857.401 437.927C856.858 435.9 855.42 434.202 853.402 433.207C851.385 432.212 848.954 432 846.644 432.62V432.62Z" fill="url(#paint20_linear_312_378)" stroke="black" stroke-width="0.734456" stroke-linecap="round" stroke-linejoin="round"/>
<path d="M844.466 443.456C842.156 444.075 840.156 445.474 838.907 447.345C837.657 449.216 837.26 451.406 837.803 453.432C838.346 455.459 839.784 457.157 841.802 458.152C843.819 459.147 846.25 459.359 848.56 458.74C850.871 458.12 852.87 456.722 854.12 454.851C855.37 452.98 855.767 450.79 855.224 448.763C854.955 447.76 854.463 446.826 853.777 446.016C853.091 445.207 852.224 444.536 851.225 444.043C849.208 443.048 846.776 442.837 844.466 443.456V443.456Z" fill="url(#paint21_linear_312_378)" stroke="black" stroke-width="0.734456" stroke-linecap="round" stroke-linejoin="round"/>
</g>
<defs>
<linearGradient id="paint0_linear_312_378" x1="735.421" y1="363.257" x2="1004.91" y2="363.257" gradientUnits="userSpaceOnUse">
<stop stop-color="#D07839"/>
</linearGradient>
<linearGradient id="paint1_linear_312_378" x1="689.509" y1="468.538" x2="935.823" y2="468.538" gradientUnits="userSpaceOnUse">
<stop stop-color="#D07839"/>
</linearGradient>
<linearGradient id="paint2_linear_312_378" x1="705.374" y1="324.662" x2="918.641" y2="324.662" gradientUnits="userSpaceOnUse">
<stop stop-color="#D07839"/>
</linearGradient>
<linearGradient id="paint3_linear_312_378" x1="452.638" y1="510.617" x2="453.412" y2="513.153" gradientUnits="userSpaceOnUse">
<stop stop-color="#74401B"/>
</linearGradient>
<linearGradient id="paint4_linear_312_378" x1="451.832" y1="505.057" x2="453.991" y2="512.133" gradientUnits="userSpaceOnUse">
<stop stop-color="#74401B"/>
</linearGradient>
<linearGradient id="paint5_linear_312_378" x1="759.246" y1="-256.633" x2="776.802" y2="-251.916" gradientUnits="userSpaceOnUse">
<stop stop-color="#D07839"/>
</linearGradient>
<linearGradient id="paint6_linear_312_378" x1="792.209" y1="-247.823" x2="809.769" y2="-243.105" gradientUnits="userSpaceOnUse">
<stop stop-color="#D07839"/>
</linearGradient>
<linearGradient id="paint7_linear_312_378" x1="774.673" y1="-213.152" x2="816.743" y2="-201.848" gradientUnits="userSpaceOnUse">
<stop stop-color="#D07839"/>
</linearGradient>
<linearGradient id="paint8_linear_312_378" x1="732.587" y1="-224.397" x2="774.657" y2="-213.093" gradientUnits="userSpaceOnUse">
<stop stop-color="#D07839"/>
</linearGradient>
<linearGradient id="paint9_linear_312_378" x1="383.234" y1="535.553" x2="384.775" y2="540.607" gradientUnits="userSpaceOnUse">
<stop stop-color="#74401B"/>
</linearGradient>
<linearGradient id="paint10_linear_312_378" x1="516.349" y1="475.167" x2="517.587" y2="479.228" gradientUnits="userSpaceOnUse">
<stop stop-color="#74401B"/>
</linearGradient>
<linearGradient id="paint11_linear_312_378" x1="517.567" y1="480.363" x2="518.805" y2="484.424" gradientUnits="userSpaceOnUse">
<stop stop-color="#74401B"/>
</linearGradient>
<linearGradient id="paint12_linear_312_378" x1="516.991" y1="477.905" x2="518.23" y2="481.966" gradientUnits="userSpaceOnUse">
<stop stop-color="#74401B"/>
</linearGradient>
<linearGradient id="paint13_linear_312_378" x1="520.083" y1="491.107" x2="521.322" y2="495.168" gradientUnits="userSpaceOnUse">
<stop stop-color="#74401B"/>
</linearGradient>
<linearGradient id="paint14_linear_312_378" x1="521.299" y1="496.303" x2="522.537" y2="500.364" gradientUnits="userSpaceOnUse">
<stop stop-color="#74401B"/>
</linearGradient>
<linearGradient id="paint15_linear_312_378" x1="520.723" y1="493.845" x2="521.962" y2="497.906" gradientUnits="userSpaceOnUse">
<stop stop-color="#74401B"/>
</linearGradient>
<linearGradient id="paint16_linear_312_378" x1="468.923" y1="495.772" x2="469.657" y2="498.179" gradientUnits="userSpaceOnUse">
<stop stop-color="#74401B"/>
</linearGradient>
<linearGradient id="paint17_linear_312_378" x1="461.533" y1="499.518" x2="462.267" y2="501.925" gradientUnits="userSpaceOnUse">
<stop stop-color="#74401B"/>
</linearGradient>
<linearGradient id="paint18_linear_312_378" x1="466.461" y1="497.909" x2="467.195" y2="500.316" gradientUnits="userSpaceOnUse">
<stop stop-color="#74401B"/>
</linearGradient>
<linearGradient id="paint19_linear_312_378" x1="471.259" y1="506.654" x2="472.009" y2="509.114" gradientUnits="userSpaceOnUse">
<stop stop-color="#74401B"/>
</linearGradient>
<linearGradient id="paint20_linear_312_378" x1="462.486" y1="508.559" x2="463.236" y2="511.019" gradientUnits="userSpaceOnUse">
<stop stop-color="#74401B"/>
</linearGradient>
<linearGradient id="paint21_linear_312_378" x1="467.278" y1="506.77" x2="468.029" y2="509.23" gradientUnits="userSpaceOnUse">
<stop stop-color="#74401B"/>
</linearGradient>
<clipPath id="clip0_312_378">
<rect width="1003.67" height="595.292" fill="white"/>
</clipPath>
</defs>
</svg>
