<svg width="858" height="498" viewBox="0 0 858 498" fill="none" xmlns="http://www.w3.org/2000/svg">
<g clip-path="url(#clip0_403_104)">
<path d="M629.614 35.64H128.345C126.582 35.64 124.836 35.9872 123.207 36.6619C121.579 37.3366 120.099 38.3255 118.852 39.5722C117.605 40.8189 116.616 42.2989 115.941 43.9278C115.267 45.5567 114.919 47.3025 114.919 49.0656V409.395C114.919 411.158 115.267 412.904 115.941 414.532C116.616 416.161 117.605 417.641 118.852 418.888C120.099 420.135 121.579 421.124 123.208 421.798C124.836 422.473 126.582 422.82 128.345 422.82H629.614C631.377 422.82 633.123 422.473 634.752 421.798C636.38 421.124 637.86 420.135 639.107 418.888C640.354 417.641 641.343 416.161 642.018 414.532C642.692 412.904 643.04 411.158 643.04 409.395V49.0656C643.04 47.3025 642.692 45.5567 642.018 43.9278C641.343 42.2989 640.354 40.8189 639.107 39.5722C637.86 38.3255 636.38 37.3366 634.752 36.6619C633.123 35.9872 631.377 35.64 629.614 35.64ZM142.459 56.7C141.178 56.7 139.925 56.32 138.859 55.6079C137.794 54.8959 136.963 53.8839 136.473 52.6998C135.982 51.5157 135.854 50.2128 136.104 48.9558C136.354 47.6988 136.971 46.5442 137.877 45.638C138.784 44.7317 139.938 44.1145 141.195 43.8645C142.452 43.6145 143.755 43.7428 144.939 44.2333C146.123 44.7237 147.135 45.5543 147.847 46.6199C148.559 47.6855 148.939 48.9384 148.939 50.22C148.939 51.9386 148.257 53.5868 147.041 54.802C145.826 56.0172 144.178 56.7 142.459 56.7ZM181.339 56.7C180.058 56.7 178.805 56.32 177.739 55.6079C176.674 54.8959 175.843 53.8839 175.353 52.6998C174.862 51.5157 174.734 50.2128 174.984 48.9558C175.234 47.6988 175.851 46.5442 176.757 45.638C177.664 44.7317 178.818 44.1145 180.075 43.8645C181.332 43.6145 182.635 43.7428 183.819 44.2333C185.003 44.7237 186.015 45.5543 186.727 46.6199C187.439 47.6855 187.819 48.9384 187.819 50.22C187.819 51.9386 187.137 53.5868 185.921 54.802C184.706 56.0172 183.058 56.7 181.339 56.7ZM220.219 56.7C218.938 56.7 217.685 56.32 216.619 55.6079C215.554 54.8959 214.723 53.8839 214.233 52.6998C213.742 51.5157 213.614 50.2128 213.864 48.9558C214.114 47.6988 214.731 46.5442 215.637 45.638C216.544 44.7317 217.698 44.1145 218.955 43.8645C220.212 43.6145 221.515 43.7428 222.699 44.2333C223.883 44.7237 224.895 45.5543 225.607 46.6199C226.319 47.6855 226.699 48.9384 226.699 50.22C226.699 51.9386 226.017 53.5868 224.801 54.802C223.586 56.0172 221.938 56.7 220.219 56.7ZM259.099 56.7C257.818 56.7 256.565 56.32 255.499 55.6079C254.434 54.8959 253.603 53.8839 253.113 52.6998C252.622 51.5157 252.494 50.2128 252.744 48.9558C252.994 47.6988 253.611 46.5442 254.517 45.638C255.424 44.7317 256.578 44.1145 257.835 43.8645C259.092 43.6145 260.395 43.7428 261.579 44.2333C262.763 44.7237 263.775 45.5543 264.487 46.6199C265.199 47.6855 265.579 48.9384 265.579 50.22C265.579 51.9386 264.897 53.5868 263.681 54.802C262.466 56.0172 260.818 56.7 259.099 56.7ZM297.979 56.7C296.698 56.7 295.445 56.32 294.379 55.6079C293.314 54.8959 292.483 53.8839 291.993 52.6998C291.502 51.5157 291.374 50.2128 291.624 48.9558C291.874 47.6988 292.491 46.5442 293.397 45.638C294.304 44.7317 295.458 44.1145 296.715 43.8645C297.972 43.6145 299.275 43.7428 300.459 44.2333C301.643 44.7237 302.655 45.5543 303.367 46.6199C304.079 47.6855 304.459 48.9384 304.459 50.22C304.459 51.9386 303.777 53.5868 302.561 54.802C301.346 56.0172 299.698 56.6999 297.979 56.7ZM336.859 56.7C335.578 56.7 334.325 56.32 333.259 55.6079C332.194 54.8959 331.363 53.8839 330.873 52.6998C330.382 51.5157 330.254 50.2128 330.504 48.9558C330.754 47.6988 331.371 46.5442 332.277 45.638C333.184 44.7317 334.338 44.1145 335.595 43.8645C336.852 43.6145 338.155 43.7428 339.339 44.2333C340.523 44.7237 341.535 45.5543 342.247 46.6199C342.959 47.6855 343.339 48.9384 343.339 50.22C343.339 51.9386 342.657 53.5868 341.441 54.802C340.226 56.0172 338.578 56.6999 336.859 56.7ZM375.739 56.7C374.458 56.7 373.205 56.32 372.139 55.6079C371.074 54.8959 370.243 53.8839 369.753 52.6998C369.262 51.5157 369.134 50.2128 369.384 48.9558C369.634 47.6988 370.251 46.5442 371.157 45.638C372.064 44.7317 373.218 44.1145 374.475 43.8645C375.732 43.6145 377.035 43.7428 378.219 44.2333C379.403 44.7237 380.415 45.5543 381.127 46.6199C381.839 47.6855 382.219 48.9384 382.219 50.22C382.219 51.9386 381.537 53.5868 380.321 54.802C379.106 56.0172 377.458 56.6999 375.739 56.7ZM414.619 56.7C413.338 56.7 412.085 56.32 411.019 55.6079C409.954 54.8959 409.123 53.8839 408.633 52.6998C408.142 51.5157 408.014 50.2128 408.264 48.9558C408.514 47.6988 409.131 46.5442 410.037 45.638C410.944 44.7317 412.098 44.1145 413.355 43.8645C414.612 43.6145 415.915 43.7428 417.099 44.2333C418.283 44.7237 419.295 45.5543 420.007 46.6199C420.719 47.6855 421.099 48.9384 421.099 50.22C421.099 51.9386 420.417 53.5868 419.201 54.802C417.986 56.0172 416.338 56.6999 414.619 56.7ZM453.499 56.7C452.218 56.7 450.965 56.32 449.899 55.6079C448.834 54.8959 448.003 53.8839 447.513 52.6998C447.022 51.5157 446.894 50.2128 447.144 48.9558C447.394 47.6988 448.011 46.5442 448.917 45.638C449.824 44.7317 450.978 44.1145 452.235 43.8645C453.492 43.6145 454.795 43.7428 455.979 44.2333C457.163 44.7237 458.175 45.5543 458.887 46.6199C459.599 47.6855 459.979 48.9384 459.979 50.22C459.979 51.9386 459.297 53.5868 458.081 54.802C456.866 56.0172 455.218 56.6999 453.499 56.7ZM492.379 56.7C491.098 56.7 489.845 56.32 488.779 55.6079C487.714 54.8959 486.883 53.8839 486.393 52.6998C485.902 51.5157 485.774 50.2128 486.024 48.9558C486.274 47.6988 486.891 46.5442 487.797 45.638C488.704 44.7317 489.858 44.1145 491.115 43.8645C492.372 43.6145 493.675 43.7428 494.859 44.2333C496.043 44.7237 497.055 45.5543 497.767 46.6199C498.479 47.6855 498.859 48.9384 498.859 50.22C498.859 51.9386 498.177 53.5867 496.961 54.802C495.746 56.0172 494.098 56.6999 492.379 56.7ZM531.259 56.7C529.978 56.7 528.725 56.32 527.659 55.6079C526.594 54.8959 525.763 53.8839 525.273 52.6998C524.782 51.5157 524.654 50.2128 524.904 48.9558C525.154 47.6988 525.771 46.5442 526.677 45.638C527.584 44.7317 528.738 44.1145 529.995 43.8645C531.252 43.6145 532.555 43.7428 533.739 44.2333C534.923 44.7237 535.935 45.5543 536.647 46.6199C537.359 47.6855 537.739 48.9384 537.739 50.22C537.739 51.9386 537.057 53.5867 535.841 54.802C534.626 56.0172 532.978 56.6999 531.259 56.7ZM570.139 56.7C568.858 56.7 567.605 56.32 566.539 55.6079C565.474 54.8959 564.643 53.8839 564.153 52.6998C563.662 51.5157 563.534 50.2128 563.784 48.9558C564.034 47.6988 564.651 46.5442 565.557 45.638C566.464 44.7317 567.618 44.1145 568.875 43.8645C570.132 43.6145 571.435 43.7428 572.619 44.2333C573.803 44.7237 574.815 45.5543 575.527 46.6199C576.239 47.6855 576.619 48.9384 576.619 50.22C576.619 51.9386 575.937 53.5867 574.721 54.802C573.506 56.0172 571.858 56.6999 570.139 56.7ZM609.019 56.7C607.738 56.7 606.485 56.32 605.419 55.6079C604.354 54.8959 603.523 53.8839 603.033 52.6998C602.542 51.5157 602.414 50.2128 602.664 48.9558C602.914 47.6988 603.531 46.5442 604.437 45.638C605.344 44.7317 606.498 44.1145 607.755 43.8645C609.012 43.6145 610.315 43.7428 611.499 44.2333C612.683 44.7237 613.695 45.5543 614.407 46.6199C615.119 47.6855 615.499 48.9384 615.499 50.22C615.499 51.9386 614.817 53.5867 613.601 54.802C612.386 56.0172 610.738 56.6999 609.019 56.7Z" fill="#CACACA"/>
<path d="M603.694 1.48981e-09H102.425C100.662 -2.23234e-05 98.9165 0.347223 97.2876 1.02191C95.6587 1.6966 94.1786 2.68552 92.9319 3.93221C91.6852 5.17889 90.6963 6.65893 90.0215 8.28781C89.3468 9.91669 88.9995 11.6625 88.9995 13.4256V373.755C88.9995 375.518 89.3468 377.264 90.0215 378.892C90.6963 380.521 91.6852 382.001 92.9319 383.248C94.1786 384.495 95.6587 385.484 97.2876 386.158C98.9165 386.833 100.662 387.18 102.425 387.18H603.694C605.457 387.18 607.203 386.833 608.832 386.158C610.461 385.484 611.941 384.495 613.187 383.248C614.434 382.001 615.423 380.521 616.098 378.892C616.772 377.264 617.12 375.518 617.12 373.755V13.4256C617.12 11.6625 616.772 9.91668 616.098 8.2878C615.423 6.65891 614.434 5.17887 613.187 3.93219C611.941 2.68551 610.461 1.6966 608.832 1.02191C607.203 0.347225 605.457 -2.62631e-05 603.694 1.48981e-09ZM116.539 21.06C115.258 21.06 114.005 20.68 112.939 19.9679C111.874 19.2559 111.043 18.2438 110.553 17.0598C110.062 15.8757 109.934 14.5728 110.184 13.3158C110.434 12.0588 111.051 10.9042 111.957 9.99796C112.864 9.09171 114.018 8.47455 115.275 8.22452C116.532 7.97449 117.835 8.10281 119.019 8.59326C120.203 9.08372 121.215 9.91427 121.927 10.9799C122.639 12.0455 123.02 13.2984 123.02 14.58C123.019 16.2986 122.337 17.9468 121.122 19.162C119.906 20.3772 118.258 21.06 116.539 21.06ZM155.419 21.06C154.138 21.06 152.885 20.68 151.819 19.9679C150.754 19.2559 149.923 18.2438 149.433 17.0598C148.942 15.8757 148.814 14.5728 149.064 13.3158C149.314 12.0588 149.931 10.9042 150.837 9.99796C151.744 9.09171 152.898 8.47455 154.155 8.22452C155.412 7.97449 156.715 8.10281 157.899 8.59326C159.083 9.08372 160.095 9.91427 160.807 10.9799C161.519 12.0455 161.899 13.2984 161.899 14.58C161.899 16.2986 161.217 17.9468 160.001 19.162C158.786 20.3772 157.138 21.06 155.419 21.06ZM194.299 21.06C193.018 21.06 191.765 20.68 190.699 19.9679C189.634 19.2559 188.803 18.2438 188.313 17.0598C187.822 15.8757 187.694 14.5728 187.944 13.3158C188.194 12.0588 188.811 10.9042 189.717 9.99796C190.624 9.09171 191.778 8.47455 193.035 8.22452C194.292 7.97449 195.595 8.10281 196.779 8.59326C197.963 9.08372 198.975 9.91427 199.687 10.9799C200.399 12.0455 200.779 13.2984 200.779 14.58C200.779 16.2986 200.097 17.9468 198.882 19.162C197.666 20.3772 196.018 21.06 194.299 21.06ZM233.179 21.06C231.898 21.06 230.645 20.68 229.579 19.9679C228.514 19.2559 227.683 18.2438 227.193 17.0598C226.702 15.8757 226.574 14.5728 226.824 13.3158C227.074 12.0588 227.691 10.9042 228.597 9.99796C229.504 9.09171 230.658 8.47455 231.915 8.22452C233.172 7.97449 234.475 8.10281 235.659 8.59326C236.843 9.08372 237.855 9.91427 238.567 10.9799C239.279 12.0455 239.659 13.2984 239.659 14.58C239.659 16.2986 238.977 17.9468 237.762 19.162C236.546 20.3772 234.898 21.06 233.179 21.06ZM272.059 21.06C270.778 21.06 269.525 20.68 268.459 19.9679C267.394 19.2559 266.563 18.2438 266.073 17.0598C265.582 15.8757 265.454 14.5728 265.704 13.3158C265.954 12.0588 266.571 10.9042 267.477 9.99796C268.384 9.09171 269.538 8.47455 270.795 8.22452C272.052 7.97449 273.355 8.10281 274.539 8.59326C275.723 9.08372 276.735 9.91427 277.447 10.9799C278.159 12.0455 278.539 13.2984 278.539 14.58C278.539 16.2986 277.857 17.9468 276.642 19.162C275.426 20.3772 273.778 21.06 272.059 21.06ZM310.939 21.06C309.658 21.06 308.405 20.68 307.339 19.9679C306.274 19.2559 305.443 18.2438 304.953 17.0598C304.462 15.8757 304.334 14.5728 304.584 13.3158C304.834 12.0588 305.451 10.9042 306.357 9.99796C307.264 9.09171 308.418 8.47455 309.675 8.22452C310.932 7.97449 312.235 8.10281 313.419 8.59326C314.603 9.08372 315.615 9.91427 316.327 10.9799C317.039 12.0455 317.419 13.2984 317.419 14.58C317.419 16.2986 316.737 17.9468 315.522 19.162C314.306 20.3772 312.658 21.0599 310.939 21.06ZM349.819 21.06C348.538 21.06 347.285 20.68 346.219 19.9679C345.154 19.2559 344.323 18.2438 343.833 17.0598C343.342 15.8757 343.214 14.5728 343.464 13.3158C343.714 12.0588 344.331 10.9042 345.237 9.99796C346.144 9.09171 347.298 8.47455 348.555 8.22452C349.812 7.97449 351.115 8.10281 352.299 8.59326C353.483 9.08372 354.495 9.91427 355.207 10.9799C355.919 12.0455 356.299 13.2984 356.299 14.58C356.299 16.2986 355.617 17.9467 354.402 19.162C353.186 20.3772 351.538 21.0599 349.819 21.06ZM388.699 21.06C387.418 21.06 386.165 20.68 385.099 19.9679C384.034 19.2559 383.203 18.2438 382.713 17.0598C382.222 15.8757 382.094 14.5728 382.344 13.3158C382.594 12.0588 383.211 10.9042 384.117 9.99796C385.024 9.09171 386.178 8.47455 387.435 8.22452C388.692 7.97449 389.995 8.10281 391.179 8.59326C392.363 9.08372 393.375 9.91427 394.087 10.9799C394.799 12.0455 395.18 13.2984 395.18 14.58C395.179 16.2986 394.497 17.9467 393.282 19.162C392.066 20.3772 390.418 21.0599 388.699 21.06ZM427.579 21.06C426.298 21.06 425.045 20.68 423.979 19.9679C422.914 19.2559 422.083 18.2438 421.593 17.0598C421.102 15.8757 420.974 14.5728 421.224 13.3158C421.474 12.0588 422.091 10.9042 422.997 9.99796C423.904 9.09171 425.058 8.47455 426.315 8.22452C427.572 7.97449 428.875 8.10281 430.059 8.59326C431.243 9.08372 432.255 9.91427 432.967 10.9799C433.679 12.0455 434.06 13.2984 434.06 14.58C434.059 16.2986 433.377 17.9467 432.162 19.162C430.946 20.3772 429.298 21.0599 427.579 21.06ZM466.459 21.06C465.178 21.06 463.925 20.68 462.859 19.9679C461.794 19.2559 460.963 18.2438 460.473 17.0598C459.982 15.8757 459.854 14.5728 460.104 13.3158C460.354 12.0588 460.971 10.9042 461.877 9.99796C462.784 9.09171 463.938 8.47455 465.195 8.22452C466.452 7.97449 467.755 8.10281 468.939 8.59326C470.123 9.08372 471.135 9.91427 471.847 10.9799C472.559 12.0455 472.94 13.2984 472.94 14.58C472.939 16.2986 472.257 17.9467 471.042 19.162C469.826 20.3772 468.178 21.0599 466.459 21.06ZM505.339 21.06C504.058 21.06 502.805 20.68 501.739 19.9679C500.674 19.2559 499.843 18.2438 499.353 17.0598C498.862 15.8757 498.734 14.5728 498.984 13.3158C499.234 12.0588 499.851 10.9042 500.757 9.99796C501.664 9.09171 502.818 8.47455 504.075 8.22452C505.332 7.97449 506.635 8.10281 507.819 8.59326C509.003 9.08372 510.015 9.91427 510.727 10.9799C511.439 12.0455 511.819 13.2984 511.819 14.58C511.819 16.2986 511.137 17.9467 509.922 19.162C508.706 20.3772 507.058 21.0599 505.339 21.06ZM544.219 21.06C542.938 21.06 541.685 20.68 540.619 19.9679C539.554 19.2559 538.723 18.2438 538.233 17.0598C537.742 15.8757 537.614 14.5728 537.864 13.3158C538.114 12.0588 538.731 10.9042 539.637 9.99796C540.544 9.09171 541.698 8.47455 542.955 8.22452C544.212 7.97449 545.515 8.10281 546.699 8.59326C547.883 9.08372 548.895 9.91427 549.607 10.9799C550.319 12.0455 550.699 13.2984 550.699 14.58C550.699 16.2986 550.017 17.9467 548.802 19.162C547.586 20.3772 545.938 21.0599 544.219 21.06ZM583.099 21.06C581.818 21.06 580.565 20.68 579.499 19.9679C578.434 19.2559 577.603 18.2438 577.113 17.0598C576.622 15.8757 576.494 14.5728 576.744 13.3158C576.994 12.0588 577.611 10.9042 578.517 9.99796C579.424 9.09171 580.578 8.47455 581.835 8.22452C583.092 7.97449 584.395 8.10281 585.579 8.59326C586.763 9.08372 587.775 9.91427 588.487 10.9799C589.199 12.0455 589.579 13.2984 589.579 14.58C589.579 16.2986 588.897 17.9467 587.682 19.1619C586.466 20.3772 584.818 21.0599 583.099 21.06Z" fill="#F0F0F0"/>
<path d="M226.057 198.312C226.03 184.015 229.577 169.508 237.602 157.55C241.408 151.797 246.326 146.865 252.068 143.044C257.81 139.223 264.259 136.59 271.034 135.3C277.724 134.049 284.618 134.45 291.118 136.466C297.005 138.396 302.299 141.8 306.499 146.354C314.54 154.95 319.5 168.668 314.836 180.114C313.746 182.785 312.119 185.204 310.056 187.22C307.993 189.237 305.537 190.808 302.842 191.837C298.043 193.496 292.128 192.212 290.065 187.081C288.295 182.682 290.142 177.393 293.096 173.956C294.81 171.911 297.094 170.424 299.657 169.684C302.22 168.944 304.946 168.984 307.486 169.8C313.804 171.588 318.785 176.735 321.768 182.419C325.235 189.028 325.959 196.842 325.23 204.173C323.624 220.33 315.269 234.711 309.119 249.419C303.402 263.09 298.648 278.907 303.048 293.642C304.861 299.506 308.15 304.806 312.6 309.034C317.05 313.262 322.511 316.275 328.461 317.786C339.809 320.829 353.086 318.665 361.146 309.585C364.947 305.303 367.722 299.733 367.76 293.915C367.812 291.195 367.138 288.51 365.808 286.137C364.477 283.763 362.539 281.787 360.191 280.411C350.37 274.916 337.109 280.565 332.994 290.615C330.476 296.766 330.953 303.836 333.329 309.953C335.871 316.258 340.158 321.707 345.688 325.66C351.432 329.927 358.142 332.764 364.922 334.934C371.974 337.235 379.242 338.813 386.614 339.643C400.674 341.142 415.347 338.797 426.367 329.376C436.06 321.089 441.396 308.821 444.11 296.604C447.26 282.428 446.787 267.95 446.816 253.526C446.847 238.155 447.236 221.377 454.641 207.482C460.464 196.556 470.756 186.991 483.041 184.133C488.711 182.787 494.663 183.277 500.037 185.531C501.815 186.277 502.591 183.375 500.835 182.638C489.03 177.687 476.039 181.571 466.292 189.108C461.153 193.097 456.791 197.995 453.421 203.56C449.794 209.828 447.297 216.686 446.045 223.819C440.361 252.803 449.149 284.096 435.909 311.645C433.306 317.247 429.639 322.289 425.112 326.492C419.905 331.12 413.593 334.329 406.785 335.807C392.416 339.065 376.828 335.974 363.153 331.182C350.045 326.59 336.943 317.974 334.596 303.226C333.629 297.148 335 290.354 339.639 286.041C341.596 284.251 343.926 282.916 346.46 282.134C348.995 281.351 351.672 281.14 354.298 281.516C356.866 281.887 359.25 283.068 361.102 284.886C362.955 286.704 364.18 289.065 364.6 291.627C365.534 297.337 362.744 303.28 359.025 307.464C350.859 316.651 337.21 317.939 326.133 313.908C320.663 311.936 315.79 308.591 311.984 304.195C307.576 298.802 304.962 292.168 304.507 285.218C303.21 269.489 310.012 254.36 316.402 240.413C322.912 226.205 329.906 210.601 328.255 194.575C327.682 187.482 324.982 180.727 320.509 175.193C316.406 170.288 310.579 166.604 304.088 166.198C301.456 166.048 298.827 166.551 296.435 167.662C294.043 168.773 291.963 170.458 290.379 172.566C287.309 176.489 285.516 181.846 286.821 186.793C287.549 189.313 289.071 191.532 291.161 193.119C293.25 194.706 295.796 195.576 298.42 195.6C304.159 195.701 309.623 192.261 313.299 188.077C321.608 178.618 320.802 164.619 315.414 153.919C312.559 148.214 308.393 143.267 303.256 139.483C298.12 135.7 292.16 133.188 285.865 132.153C272.488 130.077 258.558 134.205 247.842 142.323C236.427 150.971 229.016 163.94 225.54 177.693C223.858 184.436 223.024 191.363 223.057 198.312C223.07 198.701 223.234 199.069 223.514 199.339C223.794 199.61 224.168 199.761 224.557 199.761C224.946 199.761 225.32 199.61 225.6 199.339C225.879 199.069 226.043 198.701 226.057 198.312Z" fill="#2FA4DA"/>
<path d="M163.482 271.036C162.945 271.036 162.414 271.065 161.89 271.116C162.388 268.264 162.105 265.33 161.072 262.625C160.038 259.92 158.292 257.546 156.019 255.752C153.746 253.958 151.03 252.813 148.16 252.437C145.289 252.061 142.369 252.468 139.711 253.615C137.053 254.763 134.754 256.608 133.058 258.955C131.363 261.302 130.334 264.064 130.08 266.948C129.826 269.832 130.356 272.732 131.616 275.339C132.875 277.946 134.816 280.165 137.233 281.759C136.042 282.475 135.025 283.447 134.257 284.605C133.488 285.763 132.987 287.077 132.79 288.453C132.592 289.828 132.704 291.23 133.115 292.558C133.527 293.885 134.229 295.104 135.171 296.126C136.112 297.148 137.269 297.948 138.558 298.467C139.847 298.987 141.235 299.212 142.623 299.129C144.01 299.045 145.361 298.653 146.578 297.982C147.795 297.311 148.847 296.378 149.658 295.25C151.087 297.672 153.127 299.677 155.574 301.063C158.022 302.449 160.79 303.168 163.602 303.148C166.414 303.128 169.172 302.37 171.599 300.949C174.027 299.529 176.038 297.495 177.432 295.053C178.827 292.61 179.555 289.845 179.545 287.032C179.534 284.22 178.785 281.46 177.372 279.028C175.96 276.596 173.933 274.577 171.495 273.175C169.058 271.772 166.294 271.035 163.482 271.036Z" fill="#2FA4DA"/>
<path d="M152.027 298.182L128.852 284.884L124.653 292.203L147.828 305.5L152.027 298.182Z" fill="#CACACA"/>
<path d="M122.257 248.917C120.922 247.009 118.885 245.709 116.592 245.3C114.3 244.891 111.939 245.408 110.027 246.737L88.6772 261.607C86.765 262.94 85.4605 264.978 85.0507 267.272C84.641 269.567 85.1594 271.93 86.4921 273.842C87.8248 275.755 89.8625 277.059 92.157 277.469C94.4515 277.879 96.8148 277.36 98.727 276.027L120.077 261.157C121.986 259.82 123.287 257.782 123.695 255.488C124.104 253.194 123.586 250.831 122.257 248.917Z" fill="#CACACA"/>
<path d="M150.307 303.677L149.227 303.057L126.057 289.767L125.707 289.567L115.317 290.267L78.8569 344.427L47.5068 390.997L4.92721 454.247C4.41337 455.017 4.06305 455.884 3.89796 456.794C3.73287 457.705 3.75655 458.639 3.9675 459.54C4.17844 460.441 4.57217 461.29 5.1243 462.032C5.67642 462.775 6.37515 463.396 7.17721 463.857L57.977 493.007C58.7718 493.466 59.652 493.758 60.5635 493.864C61.4751 493.971 62.3988 493.89 63.278 493.627C64.1572 493.364 64.9734 492.924 65.6766 492.334C66.3797 491.745 66.955 491.017 67.3672 490.197L101.567 422.207L126.777 372.097L156.077 313.857L156.167 313.687L150.307 303.677Z" fill="#E4E4E4"/>
<path d="M71.7838 486.114L6.84766 448.623L0.154846 460.215L65.091 497.706L71.7838 486.114Z" fill="#CACACA"/>
<path d="M126.777 372.097L101.567 422.207L47.5071 390.997L78.8571 344.427L126.777 372.097Z" fill="#2FA4DA"/>
<path d="M858.062 239.055C857.122 292.284 821.348 315.419 820.76 292.945C820.031 264.519 807.773 190.794 759.659 213.403C702.12 240.439 753.99 405.117 737.333 405.117C670.691 405.117 616.604 330.725 616.604 239.055C616.604 147.393 670.691 73 737.333 73C803.975 73 859.656 148.56 858.062 239.055V239.055Z" fill="url(#paint0_linear_403_104)" stroke="black" stroke-width="0.8" stroke-linecap="round" stroke-linejoin="round"/>
<path d="M825.457 125.142C840.911 153.075 848.581 188.102 849.27 224.876C849.912 258.85 840.648 290.934 823.47 300.024C831.491 302.589 857.122 292.277 858.055 239.049C858.832 195.309 846.216 155.059 825.457 125.142ZM767.275 194.992C762.335 195.087 756.882 196.409 750.868 199.23C693.328 226.266 745.205 390.945 728.548 390.945C694.227 390.945 663.237 371.211 641.248 339.546C663.311 379.377 698.146 405.117 737.333 405.117C753.99 405.117 702.113 240.439 759.653 213.403C777.492 205.028 790.406 209.887 799.63 220.766C792.751 205.946 782.412 194.709 767.275 194.992V194.992Z" fill="black" fill-opacity="0.31373"/>
<path d="M795.496 334.46C795.496 363.688 783.881 391.72 763.205 412.387C742.53 433.055 714.488 444.666 685.248 444.666C656.009 444.666 627.966 433.055 607.291 412.387C586.615 391.72 575 363.688 575 334.46C575 305.231 586.615 277.2 607.291 256.533C627.966 235.865 656.009 224.254 685.248 224.254C714.488 224.254 742.53 235.865 763.205 256.533C783.881 277.2 795.496 305.231 795.496 334.46V334.46Z" fill="url(#paint1_linear_403_104)" stroke="black" stroke-width="0.799968" stroke-linecap="round" stroke-linejoin="round"/>
<path d="M685.253 224.269C673.522 224.269 662.23 226.118 651.621 229.512C661.163 227.285 671.224 226.084 681.624 226.084C710.154 226.084 736.17 235.046 755.747 249.752C736.637 233.838 712.053 224.269 685.253 224.269ZM789.662 298.992C791.109 304.877 791.879 310.951 791.879 317.187C791.879 367.479 742.482 408.289 681.624 408.289C630.734 408.289 587.878 379.755 575.201 340.997C578.58 398.8 626.585 444.686 685.253 444.686C746.111 444.686 795.508 395.311 795.508 334.477C795.508 322.066 793.453 310.127 789.662 298.992Z" fill="black" fill-opacity="0.31373"/>
<path d="M685.253 224.269C666.454 224.269 648.743 228.972 633.248 237.28C640.586 262.906 662.028 286.601 687.355 286.601C712.006 286.601 733.015 264.154 740.887 239.318C724.555 229.755 705.539 224.269 685.253 224.269V224.269Z" fill="black" fill-opacity="0.31373"/>
<path fill-rule="evenodd" clip-rule="evenodd" d="M760.795 132.471C747.408 132.471 720.216 139.584 715.459 158.029C715.385 158.17 715.243 158.683 715.087 159.473C706.478 154.216 696.356 151.158 685.537 151.158C674.238 151.158 663.737 154.492 654.892 160.175C654.709 159.021 654.486 158.211 654.399 158.029C649.641 139.584 622.449 132.491 609.056 132.484C606.927 132.484 605.164 132.667 603.873 133.004C596.69 134.003 588.824 136.871 589.399 138.437C594.669 137.539 597.332 138.565 597.251 139.415C597.089 141.008 593.913 141.433 594.933 147.177C596.859 144.389 599.542 143.431 601.65 142.986C603.812 156.544 613.273 180.212 630.977 181.44C632.498 181.548 633.917 181.542 635.255 181.515C631.079 189.424 628.707 198.434 628.707 207.997C628.707 239.359 654.162 275.702 685.537 275.702C716.905 275.702 742.394 239.359 742.394 207.997C742.394 198.441 740.016 189.451 735.839 181.548C736.806 181.542 737.826 181.515 738.88 181.44C756.524 180.219 765.985 156.686 768.187 143.114C770.201 143.606 772.607 144.619 774.371 147.177C775.391 141.433 772.215 141.008 772.053 139.415C771.972 138.565 774.634 137.539 779.905 138.437C780.452 136.952 773.431 134.3 766.579 133.173C765.275 132.714 763.275 132.471 760.795 132.471V132.471Z" fill="url(#paint2_linear_403_104)" stroke="black" stroke-width="0.8" stroke-linejoin="round"/>
<path d="M673.762 319.833C673.762 325.361 671.565 330.662 667.654 334.571C663.744 338.48 658.44 340.676 652.91 340.676C647.38 340.676 642.077 338.48 638.166 334.571C634.256 330.662 632.059 325.361 632.059 319.833C632.059 314.305 634.256 309.003 638.166 305.095C642.077 301.186 647.38 298.99 652.91 298.99C658.44 298.99 663.744 301.186 667.654 305.095C671.565 309.003 673.762 314.305 673.762 319.833V319.833Z" fill="black" fill-opacity="0.31373"/>
<path d="M738.678 381.875C711.087 381.875 688.686 404.267 688.686 431.843C688.686 437.546 689.645 443.012 691.409 448.114H785.919C787.683 443.012 788.642 437.546 788.642 431.843C788.642 404.267 766.268 381.875 738.678 381.875V381.875Z" fill="url(#paint3_linear_403_104)" stroke="black" stroke-width="0.8" stroke-linecap="round" stroke-linejoin="round"/>
<path d="M638.694 381.875C611.103 381.875 588.729 404.267 588.729 431.843C588.729 437.546 589.689 443.012 591.453 448.114H685.962C687.726 443.012 688.686 437.546 688.686 431.843C688.686 404.267 666.285 381.875 638.694 381.875Z" fill="url(#paint4_linear_403_104)" stroke="black" stroke-width="0.8" stroke-linecap="round" stroke-linejoin="round"/>
<path d="M683.555 203.443C683.556 205.882 683.077 208.296 682.144 210.549C681.211 212.802 679.843 214.85 678.119 216.574C676.395 218.299 674.347 219.667 672.093 220.601C669.84 221.534 667.425 222.014 664.985 222.014C662.546 222.014 660.13 221.534 657.877 220.601C655.623 219.667 653.576 218.299 651.851 216.574C650.127 214.85 648.759 212.802 647.827 210.549C646.894 208.296 646.414 205.882 646.416 203.443C646.414 201.005 646.894 198.59 647.827 196.337C648.759 194.084 650.127 192.036 651.851 190.312C653.576 188.587 655.623 187.219 657.877 186.286C660.13 185.352 662.546 184.872 664.985 184.872C667.425 184.872 669.84 185.352 672.093 186.286C674.347 187.219 676.395 188.587 678.119 190.312C679.843 192.036 681.211 194.084 682.144 196.337C683.077 198.59 683.556 201.005 683.555 203.443V203.443Z" fill="white" stroke="black" stroke-width="0.800004" stroke-linecap="round" stroke-linejoin="round"/>
<path d="M724.68 203.443C724.682 205.882 724.202 208.296 723.269 210.549C722.337 212.802 720.969 214.85 719.245 216.574C717.52 218.299 715.473 219.667 713.219 220.601C710.965 221.534 708.55 222.014 706.111 222.014C703.671 222.014 701.256 221.534 699.002 220.601C696.749 219.667 694.701 218.299 692.977 216.574C691.252 214.85 689.885 212.802 688.952 210.549C688.019 208.296 687.54 205.882 687.541 203.443C687.54 201.005 688.019 198.59 688.952 196.337C689.885 194.084 691.252 192.036 692.977 190.312C694.701 188.587 696.749 187.219 699.002 186.286C701.256 185.352 703.671 184.872 706.111 184.872C708.55 184.872 710.965 185.352 713.219 186.286C715.473 187.219 717.52 188.587 719.245 190.312C720.969 192.036 722.337 194.084 723.269 196.337C724.202 198.59 724.682 201.005 724.68 203.443Z" fill="white" stroke="black" stroke-width="0.800004" stroke-linecap="round" stroke-linejoin="round"/>
<path d="M677.802 205.698C677.802 206.486 677.648 207.266 677.347 207.994C677.045 208.722 676.604 209.384 676.047 209.941C675.49 210.498 674.828 210.941 674.1 211.242C673.372 211.544 672.592 211.699 671.804 211.699C671.016 211.699 670.235 211.544 669.507 211.242C668.779 210.941 668.118 210.498 667.561 209.941C667.004 209.384 666.562 208.722 666.261 207.994C665.96 207.266 665.805 206.486 665.806 205.698C665.805 204.911 665.96 204.131 666.261 203.403C666.562 202.675 667.004 202.013 667.561 201.456C668.118 200.899 668.779 200.456 669.507 200.155C670.235 199.853 671.016 199.698 671.804 199.698C672.592 199.698 673.372 199.853 674.1 200.155C674.828 200.456 675.49 200.899 676.047 201.456C676.604 202.013 677.045 202.675 677.347 203.403C677.648 204.131 677.802 204.911 677.802 205.698V205.698Z" fill="black"/>
<path d="M705.237 205.698C705.238 206.486 705.083 207.266 704.782 207.994C704.481 208.722 704.039 209.384 703.482 209.941C702.925 210.498 702.264 210.941 701.536 211.242C700.808 211.544 700.027 211.699 699.239 211.699C698.451 211.699 697.671 211.544 696.943 211.242C696.215 210.941 695.553 210.498 694.996 209.941C694.439 209.384 693.997 208.722 693.696 207.994C693.395 207.266 693.241 206.486 693.241 205.698C693.241 204.911 693.395 204.131 693.696 203.403C693.997 202.675 694.439 202.013 694.996 201.456C695.553 200.899 696.215 200.456 696.943 200.155C697.671 199.853 698.451 199.698 699.239 199.698C700.027 199.698 700.808 199.853 701.536 200.155C702.264 200.456 702.925 200.899 703.482 201.456C704.039 202.013 704.481 202.675 704.782 203.403C705.083 204.131 705.238 204.911 705.237 205.698Z" fill="black"/>
<path fill-rule="evenodd" clip-rule="evenodd" d="M675.948 239.055C678.975 235.823 691.835 235.121 694.524 239.453C697.214 243.793 690.49 252.782 685.233 252.378C680.003 251.973 673.11 242.072 675.948 239.055Z" fill="black"/>
<path fill-rule="evenodd" clip-rule="evenodd" d="M642.127 173.16C640.133 144.329 610.428 137.762 608.995 141.184C607.569 144.612 614.421 183.155 642.127 173.16Z" fill="#74401B" stroke="black" stroke-width="0.8" stroke-linejoin="round"/>
<path fill-rule="evenodd" clip-rule="evenodd" d="M726.784 173.16C728.778 144.329 758.484 137.762 759.916 141.184C761.342 144.612 754.483 183.155 726.784 173.16Z" fill="url(#paint5_linear_403_104)" stroke="black" stroke-width="0.8" stroke-linejoin="round"/>
<path d="M634.266 433.692C634.266 437.902 632.856 441.939 630.346 444.916C627.836 447.893 624.432 449.565 620.882 449.565C617.332 449.565 613.928 447.893 611.418 444.916C608.908 441.939 607.498 437.902 607.498 433.692C607.498 429.482 608.908 425.445 611.418 422.468C613.928 419.491 617.332 417.819 620.882 417.819C624.432 417.819 627.836 419.491 630.346 422.468C632.856 425.445 634.266 429.482 634.266 433.692V433.692Z" fill="url(#paint6_linear_403_104)" stroke="black" stroke-width="0.734432" stroke-linecap="round" stroke-linejoin="round"/>
<path d="M667.837 433.692C667.837 437.902 666.427 441.939 663.917 444.916C661.407 447.893 658.003 449.565 654.453 449.565C650.903 449.565 647.499 447.893 644.989 444.916C642.479 441.939 641.069 437.902 641.069 433.692C641.069 429.482 642.479 425.445 644.989 422.468C647.499 419.491 650.903 417.819 654.453 417.819C658.003 417.819 661.407 419.491 663.917 422.468C666.427 425.445 667.837 429.482 667.837 433.692V433.692Z" fill="url(#paint7_linear_403_104)" stroke="black" stroke-width="0.734432" stroke-linecap="round" stroke-linejoin="round"/>
<path d="M651.957 433.692C651.957 437.902 650.547 441.939 648.037 444.916C645.527 447.893 642.123 449.565 638.573 449.565C635.023 449.565 631.619 447.893 629.109 444.916C626.599 441.939 625.189 437.902 625.189 433.692C625.189 429.482 626.599 425.445 629.109 422.468C631.619 419.491 635.023 417.819 638.573 417.819C642.123 417.819 645.527 419.491 648.037 422.468C650.547 425.445 651.957 429.482 651.957 433.692V433.692Z" fill="url(#paint8_linear_403_104)" stroke="black" stroke-width="0.734432" stroke-linecap="round" stroke-linejoin="round"/>
<path d="M737.256 433.692C737.256 437.902 735.846 441.939 733.336 444.916C730.826 447.893 727.421 449.565 723.872 449.565C720.322 449.565 716.918 447.893 714.408 444.916C711.898 441.939 710.488 437.902 710.488 433.692C710.488 429.482 711.898 425.445 714.408 422.468C716.918 419.491 720.322 417.819 723.872 417.819C727.421 417.819 730.826 419.491 733.336 422.468C735.846 425.445 737.256 429.482 737.256 433.692V433.692Z" fill="url(#paint9_linear_403_104)" stroke="black" stroke-width="0.734432" stroke-linecap="round" stroke-linejoin="round"/>
<path d="M770.831 433.692C770.831 437.902 769.42 441.939 766.91 444.916C764.4 447.893 760.996 449.565 757.446 449.565C753.897 449.565 750.492 447.893 747.982 444.916C745.472 441.939 744.062 437.902 744.062 433.692C744.062 429.482 745.472 425.445 747.982 422.468C750.492 419.491 753.897 417.819 757.446 417.819C760.996 417.819 764.4 419.491 766.91 422.468C769.42 425.445 770.831 429.482 770.831 433.692V433.692Z" fill="url(#paint10_linear_403_104)" stroke="black" stroke-width="0.734432" stroke-linecap="round" stroke-linejoin="round"/>
<path d="M754.95 433.692C754.95 437.902 753.54 441.939 751.03 444.916C748.52 447.893 745.116 449.565 741.566 449.565C738.016 449.565 734.612 447.893 732.102 444.916C729.592 441.939 728.182 437.902 728.182 433.692C728.182 429.482 729.592 425.445 732.102 422.468C734.612 419.491 738.016 417.819 741.566 417.819C745.116 417.819 748.52 419.491 751.03 422.468C753.54 425.445 754.95 429.482 754.95 433.692V433.692Z" fill="url(#paint11_linear_403_104)" stroke="black" stroke-width="0.734432" stroke-linecap="round" stroke-linejoin="round"/>
<path d="M737.914 186.003C738.948 190.281 739.502 194.763 739.502 199.352C739.502 230.714 714.02 267.043 682.645 267.043C659.777 267.043 640.079 247.734 631.065 225.119C638.045 251.23 659.791 275.715 685.537 275.715C716.912 275.715 742.394 239.359 742.394 207.997C742.394 200.196 740.799 192.772 737.941 186.003H737.914Z" fill="black" fill-opacity="0.31373"/>
<path d="M508.738 195.193L501.787 190.492C501.329 190.184 500.937 189.788 500.632 189.328C500.328 188.868 500.117 188.353 500.012 187.811C499.907 187.27 499.91 186.713 500.02 186.172C500.13 185.632 500.346 185.118 500.655 184.661C500.964 184.204 501.361 183.813 501.821 183.509C502.282 183.205 502.798 182.995 503.339 182.891C503.881 182.787 504.438 182.791 504.978 182.902C505.519 183.014 506.032 183.231 506.488 183.54L513.44 188.242C514.359 188.866 514.994 189.83 515.203 190.922C515.413 192.013 515.181 193.143 514.558 194.064C513.936 194.985 512.973 195.621 511.882 195.833C510.791 196.044 509.66 195.814 508.738 195.193Z" fill="#2FA4DA"/>
<path d="M667.144 283.752L529.774 190.846C528.9 190.256 527.896 189.884 526.848 189.763C525.799 189.642 524.737 189.775 523.751 190.15L518.254 186.432C517.626 186.007 516.921 185.711 516.178 185.559C515.436 185.407 514.671 185.402 513.927 185.546C513.182 185.69 512.474 185.978 511.841 186.396C511.209 186.813 510.665 187.351 510.24 187.979L507.303 192.322C506.879 192.949 506.582 193.655 506.43 194.397C506.278 195.14 506.274 195.905 506.417 196.649C506.561 197.393 506.85 198.101 507.267 198.734C507.685 199.366 508.223 199.91 508.851 200.335L513.423 203.427C512.747 204.847 512.602 206.462 513.014 207.98C513.426 209.498 514.368 210.818 515.67 211.701L653.04 304.607C654.489 305.587 656.269 305.951 657.987 305.62C659.704 305.288 661.22 304.288 662.201 302.838L668.913 292.913C669.894 291.463 670.258 289.684 669.926 287.966C669.594 286.248 668.594 284.732 667.144 283.752Z" fill="#3F3D56"/>
<path d="M692.736 336.52L641.092 301.592L659.898 273.786L711.542 308.714C713.821 310.259 715.394 312.645 715.916 315.349C716.438 318.052 715.866 320.853 714.326 323.135L707.158 333.735C705.612 336.014 703.226 337.587 700.523 338.109C697.819 338.631 695.019 338.06 692.736 336.52Z" fill="#2F2E41"/>
<path d="M703.184 331.766L678.023 314.75C676.752 313.888 675.874 312.556 675.583 311.048C675.292 309.54 675.611 307.978 676.471 306.705L677.815 304.718C678.676 303.446 680.007 302.568 681.515 302.277C683.024 301.986 684.586 302.304 685.859 303.164L711.02 320.18C712.291 321.042 713.169 322.373 713.46 323.882C713.751 325.39 713.432 326.952 712.572 328.225L711.229 330.212C710.367 331.484 709.036 332.361 707.528 332.653C706.02 332.944 704.458 332.625 703.184 331.766Z" fill="#2FA4DA"/>
<path d="M751.985 320.157C751.985 325.685 749.788 330.986 745.878 334.895C741.967 338.804 736.664 341 731.133 341C725.603 341 720.3 338.804 716.389 334.895C712.479 330.986 710.282 325.685 710.282 320.157C710.282 314.629 712.479 309.327 716.389 305.419C720.3 301.51 725.603 299.314 731.133 299.314C736.664 299.314 741.967 301.51 745.878 305.419C749.788 309.327 751.985 314.629 751.985 320.157V320.157Z" fill="black" fill-opacity="0.31373"/>
<path d="M742.507 330.319C738.594 334.228 733.287 336.425 727.754 336.427C722.222 336.43 716.917 334.237 713.006 330.332C709.096 326.426 706.901 321.128 706.903 315.603C706.906 310.077 709.106 304.777 713.019 300.868C716.933 296.96 722.24 294.762 727.773 294.76C733.305 294.758 738.61 296.95 742.52 300.856C746.431 304.761 748.626 310.059 748.624 315.585C748.621 321.11 746.421 326.41 742.507 330.319Z" fill="url(#paint12_linear_403_104)" stroke="black" stroke-width="0.799998" stroke-linecap="round" stroke-linejoin="round"/>
<path d="M720.686 319.283C719.65 319.561 718.671 320.015 717.807 320.62C716.942 321.224 716.209 321.968 715.648 322.807C715.088 323.647 714.711 324.566 714.539 325.512C714.367 326.459 714.405 327.414 714.648 328.323C714.892 329.233 715.337 330.078 715.959 330.812C716.581 331.546 717.366 332.153 718.272 332.6C719.177 333.047 720.183 333.324 721.234 333.415C722.285 333.506 723.359 333.41 724.396 333.132C725.432 332.855 726.411 332.4 727.275 331.796C728.14 331.191 728.873 330.448 729.434 329.608C729.994 328.769 730.371 327.85 730.543 326.903C730.715 325.957 730.677 325.002 730.434 324.092C730.19 323.183 729.745 322.337 729.123 321.603C728.501 320.869 727.716 320.262 726.81 319.815C725.905 319.369 724.899 319.092 723.848 319.001C722.797 318.909 721.723 319.005 720.686 319.283V319.283Z" fill="url(#paint13_linear_403_104)" stroke="black" stroke-width="0.734456" stroke-linecap="round" stroke-linejoin="round"/>
<path d="M716.037 301.912C715 302.189 714.022 302.644 713.158 303.248C712.293 303.853 711.56 304.596 710.999 305.436C710.438 306.275 710.062 307.194 709.89 308.141C709.718 309.087 709.755 310.042 709.999 310.952C710.243 311.861 710.688 312.707 711.31 313.441C711.931 314.175 712.717 314.782 713.622 315.229C714.528 315.675 715.534 315.952 716.585 316.044C717.636 316.135 718.71 316.039 719.747 315.761C721.84 315.2 723.652 313.932 724.785 312.237C725.917 310.542 726.277 308.557 725.785 306.721C725.293 304.884 723.989 303.346 722.161 302.444C720.333 301.542 718.13 301.351 716.037 301.912V301.912Z" fill="url(#paint14_linear_403_104)" stroke="black" stroke-width="0.734456" stroke-linecap="round" stroke-linejoin="round"/>
<path d="M714.064 311.731C711.971 312.292 710.159 313.56 709.026 315.255C707.894 316.951 707.534 318.935 708.026 320.771C708.518 322.608 709.821 324.146 711.65 325.048C713.478 325.95 715.681 326.142 717.774 325.581C719.867 325.02 721.679 323.752 722.812 322.057C723.944 320.361 724.304 318.377 723.812 316.54C723.568 315.631 723.123 314.785 722.501 314.052C721.879 313.318 721.094 312.71 720.188 312.264C718.36 311.362 716.157 311.17 714.064 311.731V311.731Z" fill="url(#paint15_linear_403_104)" stroke="black" stroke-width="0.734456" stroke-linecap="round" stroke-linejoin="round"/>
<path d="M667.525 305.182C668.896 307.552 669.786 310.169 670.144 312.882C670.503 315.595 670.323 318.352 669.615 320.995C668.907 323.638 667.685 326.116 666.019 328.286C664.352 330.457 662.274 332.277 659.903 333.645C657.531 335.012 654.913 335.899 652.198 336.255C649.483 336.612 646.724 336.43 644.078 335.721C641.432 335.011 638.952 333.788 636.778 332.122C634.605 330.455 632.781 328.377 631.41 326.007C630.04 323.636 629.15 321.02 628.792 318.306C628.433 315.593 628.613 312.836 629.321 310.193C630.028 307.55 631.25 305.073 632.917 302.902C634.583 300.732 636.662 298.911 639.033 297.544C641.404 296.176 644.022 295.289 646.738 294.933C649.453 294.577 652.212 294.759 654.858 295.468C657.504 296.177 659.984 297.4 662.158 299.067C664.331 300.734 666.155 302.812 667.525 305.182V305.182Z" fill="url(#paint16_linear_403_104)" stroke="black" stroke-width="0.800002" stroke-linecap="round" stroke-linejoin="round"/>
<path d="M656.033 320.588C656.962 321.125 657.789 321.816 658.467 322.624C659.146 323.431 659.662 324.339 659.986 325.295C660.31 326.25 660.435 327.236 660.356 328.194C660.276 329.153 659.993 330.066 659.522 330.881C659.051 331.697 658.402 332.399 657.611 332.947C656.82 333.495 655.904 333.878 654.914 334.076C653.924 334.273 652.879 334.28 651.841 334.097C650.802 333.914 649.789 333.543 648.86 333.007C647.931 332.471 647.103 331.779 646.425 330.972C645.747 330.164 645.231 329.257 644.907 328.301C644.583 327.345 644.457 326.36 644.537 325.401C644.616 324.443 644.9 323.53 645.371 322.714C645.842 321.899 646.491 321.197 647.282 320.649C648.072 320.101 648.989 319.717 649.979 319.52C650.969 319.322 652.013 319.315 653.052 319.498C654.091 319.682 655.103 320.052 656.033 320.588V320.588Z" fill="url(#paint17_linear_403_104)" stroke="black" stroke-width="0.734456" stroke-linecap="round" stroke-linejoin="round"/>
<path d="M665.027 305.012C666.903 306.095 668.325 307.788 668.98 309.718C669.634 311.649 669.467 313.658 668.516 315.305C667.565 316.952 665.907 318.101 663.908 318.499C661.908 318.898 659.731 318.514 657.854 317.431C655.978 316.348 654.556 314.655 653.901 312.724C653.247 310.794 653.414 308.784 654.365 307.138C655.316 305.491 656.974 304.342 658.973 303.943C660.973 303.545 663.15 303.929 665.027 305.012V305.012Z" fill="url(#paint18_linear_403_104)" stroke="black" stroke-width="0.734456" stroke-linecap="round" stroke-linejoin="round"/>
<path d="M664.392 315.007C666.268 316.09 667.69 317.783 668.344 319.713C668.999 321.644 668.832 323.653 667.881 325.3C666.93 326.947 665.272 328.096 663.273 328.495C661.273 328.893 659.096 328.509 657.219 327.426C655.342 326.343 653.92 324.65 653.266 322.719C652.612 320.789 652.778 318.78 653.73 317.133C654.681 315.486 656.338 314.337 658.338 313.938C660.337 313.54 662.515 313.924 664.392 315.007V315.007Z" fill="url(#paint19_linear_403_104)" stroke="black" stroke-width="0.734456" stroke-linecap="round" stroke-linejoin="round"/>
</g>
<defs>
<linearGradient id="paint0_linear_403_104" x1="615.253" y1="239.059" x2="859.447" y2="239.059" gradientUnits="userSpaceOnUse">
<stop stop-color="#D07839"/>
</linearGradient>
<linearGradient id="paint1_linear_403_104" x1="573.649" y1="334.46" x2="796.847" y2="334.46" gradientUnits="userSpaceOnUse">
<stop stop-color="#D07839"/>
</linearGradient>
<linearGradient id="paint2_linear_403_104" x1="588.025" y1="204.086" x2="781.278" y2="204.086" gradientUnits="userSpaceOnUse">
<stop stop-color="#D07839"/>
</linearGradient>
<linearGradient id="paint3_linear_403_104" x1="650.82" y1="-283.255" x2="688.942" y2="-273.012" gradientUnits="userSpaceOnUse">
<stop stop-color="#D07839"/>
</linearGradient>
<linearGradient id="paint4_linear_403_104" x1="612.684" y1="-293.445" x2="650.806" y2="-283.202" gradientUnits="userSpaceOnUse">
<stop stop-color="#D07839"/>
</linearGradient>
<linearGradient id="paint5_linear_403_104" x1="296.117" y1="395.185" x2="297.514" y2="399.764" gradientUnits="userSpaceOnUse">
<stop stop-color="#74401B"/>
</linearGradient>
<linearGradient id="paint6_linear_403_104" x1="416.739" y1="340.466" x2="417.862" y2="344.146" gradientUnits="userSpaceOnUse">
<stop stop-color="#74401B"/>
</linearGradient>
<linearGradient id="paint7_linear_403_104" x1="417.843" y1="345.174" x2="418.965" y2="348.854" gradientUnits="userSpaceOnUse">
<stop stop-color="#74401B"/>
</linearGradient>
<linearGradient id="paint8_linear_403_104" x1="417.321" y1="342.947" x2="418.444" y2="346.627" gradientUnits="userSpaceOnUse">
<stop stop-color="#74401B"/>
</linearGradient>
<linearGradient id="paint9_linear_403_104" x1="420.123" y1="354.91" x2="421.245" y2="358.59" gradientUnits="userSpaceOnUse">
<stop stop-color="#74401B"/>
</linearGradient>
<linearGradient id="paint10_linear_403_104" x1="421.225" y1="359.619" x2="422.347" y2="363.299" gradientUnits="userSpaceOnUse">
<stop stop-color="#74401B"/>
</linearGradient>
<linearGradient id="paint11_linear_403_104" x1="420.703" y1="357.391" x2="421.826" y2="361.071" gradientUnits="userSpaceOnUse">
<stop stop-color="#74401B"/>
</linearGradient>
<linearGradient id="paint12_linear_403_104" x1="666.711" y1="-314.673" x2="682.623" y2="-310.398" gradientUnits="userSpaceOnUse">
<stop stop-color="#D07839"/>
</linearGradient>
<linearGradient id="paint13_linear_403_104" x1="375.881" y1="368.998" x2="376.561" y2="371.227" gradientUnits="userSpaceOnUse">
<stop stop-color="#74401B"/>
</linearGradient>
<linearGradient id="paint14_linear_403_104" x1="367.932" y1="370.725" x2="368.612" y2="372.954" gradientUnits="userSpaceOnUse">
<stop stop-color="#74401B"/>
</linearGradient>
<linearGradient id="paint15_linear_403_104" x1="372.274" y1="369.103" x2="372.954" y2="371.333" gradientUnits="userSpaceOnUse">
<stop stop-color="#74401B"/>
</linearGradient>
<linearGradient id="paint16_linear_403_104" x1="636.841" y1="-322.656" x2="652.75" y2="-318.381" gradientUnits="userSpaceOnUse">
<stop stop-color="#D07839"/>
</linearGradient>
<linearGradient id="paint17_linear_403_104" x1="373.764" y1="359.137" x2="374.43" y2="361.318" gradientUnits="userSpaceOnUse">
<stop stop-color="#74401B"/>
</linearGradient>
<linearGradient id="paint18_linear_403_104" x1="367.068" y1="362.531" x2="367.733" y2="364.713" gradientUnits="userSpaceOnUse">
<stop stop-color="#74401B"/>
</linearGradient>
<linearGradient id="paint19_linear_403_104" x1="371.533" y1="361.074" x2="372.198" y2="363.255" gradientUnits="userSpaceOnUse">
<stop stop-color="#74401B"/>
</linearGradient>
<clipPath id="clip0_403_104">
<rect width="858" height="498" fill="white"/>
</clipPath>
</defs>
</svg>
