<svg version="1.1" viewBox="180.0 0.0 620.0 540.0" fill="none" stroke="none" stroke-linecap="square" stroke-miterlimit="10" xmlns:xlink="http://www.w3.org/1999/xlink" xmlns="http://www.w3.org/2000/svg"><clipPath id="g29ceceda0d6_0_0.0"><path d="m0 0l960.0 0l0 540.0l-960.0 0l0 -540.0z" clip-rule="nonzero"/></clipPath><g clip-path="url(#g29ceceda0d6_0_0.0)"><path fill="#000000" fill-opacity="0.0" d="m0 0l960.0 0l0 540.0l-960.0 0z" fill-rule="evenodd"/><path fill="#000000" fill-opacity="0.0" d="m197.01051 106.36538l598.1732 0l0 325.44882l-598.1732 0z" fill-rule="evenodd"/><path stroke="#2fa4da" stroke-width="2.0" stroke-linejoin="round" stroke-linecap="butt" d="m197.01051 106.36538l598.1732 0l0 325.44882l-598.1732 0z" fill-rule="evenodd"/><path fill="#2fa4da" d="m379.39694 126.63569l234.58267 0l0 67.27558l-234.58267 0z" fill-rule="evenodd"/><path fill="#ffffff" d="m414.7635 167.63785q-1.109375 1.328125 -3.140625 2.0625q-2.015625 0.734375 -4.484375 0.734375q-2.578125 0 -4.53125 -1.125q-1.9375 -1.140625 -3.0 -3.28125q-1.0625 -2.15625 -1.09375 -5.046875l0 -1.359375q0 -2.984375 1.0 -5.15625q1.015625 -2.1875 2.90625 -3.34375q1.890625 -1.15625 4.4375 -1.15625q3.546875 0 5.53125 1.703125q2.0 1.6875 2.375 4.90625l-4.0 0q-0.265625 -1.703125 -1.203125 -2.5q-0.9375 -0.796875 -2.578125 -0.796875q-2.09375 0 -3.1875 1.578125q-1.09375 1.5625 -1.109375 4.671875l0 1.265625q0 3.140625 1.1875 4.75q1.1875 1.59375 3.484375 1.59375q2.3125 0 3.296875 -0.984375l0 -3.4375l-3.734375 0l0 -3.015625l7.84375 0l0 7.9375zm11.369141 -8.578125q-0.796875 -0.109375 -1.421875 -0.109375q-2.234375 0 -2.9375 1.515625l0 9.6875l-3.953125 0l0 -14.796875l3.734375 0l0.109375 1.765625q1.1875 -2.03125 3.296875 -2.03125q0.65625 0 1.234375 0.171875l-0.0625 3.796875zm10.068359 11.09375q-0.28125 -0.53125 -0.40625 -1.328125q-1.421875 1.609375 -3.71875 1.609375q-2.1875 0 -3.609375 -1.265625q-1.421875 -1.265625 -1.421875 -3.171875q0 -2.359375 1.734375 -3.609375q1.75 -1.265625 5.046875 -1.265625l1.8125 0l0 -0.859375q0 -1.015625 -0.53125 -1.625q-0.515625 -0.625 -1.65625 -0.625q-1.0 0 -1.578125 0.484375q-0.5625 0.46875 -0.5625 1.3125l-3.9375 0q0 -1.296875 0.78125 -2.390625q0.796875 -1.09375 2.25 -1.703125q1.453125 -0.625 3.25 -0.625q2.734375 0 4.34375 1.375q1.609375 1.375 1.609375 3.859375l0 6.40625q0.015625 2.109375 0.578125 3.1875l0 0.234375l-3.984375 0zm-3.265625 -2.75q0.875 0 1.609375 -0.390625q0.734375 -0.390625 1.09375 -1.046875l0 -2.546875l-1.484375 0q-2.953125 0 -3.15625 2.0625l-0.015625 0.234375q0 0.734375 0.515625 1.21875q0.53125 0.46875 1.4375 0.46875zm23.011719 -4.515625q0 3.421875 -1.546875 5.484375q-1.546875 2.0625 -4.1875 2.0625q-2.25 0 -3.625 -1.5625l0 6.96875l-3.953125 0l0 -20.484375l3.671875 0l0.125 1.453125q1.4375 -1.71875 3.75 -1.71875q2.734375 0 4.25 2.03125q1.515625 2.015625 1.515625 5.5625l0 0.203125zm-3.9375 -0.28125q0 -2.0625 -0.734375 -3.1875q-0.734375 -1.125 -2.125 -1.125q-1.859375 0 -2.5625 1.421875l0 6.0625q0.71875 1.46875 2.578125 1.46875q2.84375 0 2.84375 -4.640625zm10.248047 -5.640625q1.578125 -1.875 3.953125 -1.875q4.8125 0 4.875 5.59375l0 9.46875l-3.953125 0l0 -9.359375q0 -1.28125 -0.546875 -1.890625q-0.546875 -0.609375 -1.8125 -0.609375q-1.734375 0 -2.515625 1.34375l0 10.515625l-3.953125 0l0 -21.0l3.953125 0l0 7.8125zm28.402344 3.6875q0 2.78125 -0.90625 4.84375q-0.90625 2.0625 -2.5 3.296875l3.296875 2.609375l-2.609375 2.3125l-4.234375 -3.40625q-0.71875 0.125 -1.5 0.125q-2.484375 0 -4.421875 -1.1875q-1.9375 -1.203125 -3.015625 -3.40625q-1.0625 -2.203125 -1.0625 -5.078125l0 -0.984375q0 -2.9375 1.046875 -5.171875q1.0625 -2.234375 3.0 -3.4375q1.9375 -1.203125 4.421875 -1.203125q2.484375 0 4.421875 1.203125q1.9375 1.203125 3.0 3.4375q1.0625 2.234375 1.0625 5.15625l0 0.890625zm-4.15625 -0.90625q0 -3.125 -1.125 -4.75q-1.125 -1.640625 -3.203125 -1.640625q-2.0625 0 -3.1875 1.609375q-1.125 1.609375 -1.125 4.71875l0 0.96875q0 3.046875 1.109375 4.734375q1.125 1.671875 3.234375 1.671875q2.0625 0 3.171875 -1.609375q1.109375 -1.625 1.125 -4.734375l0 -0.96875zm11.253906 7.109375l8.71875 0l0 3.296875l-12.8125 0l0 -19.90625l4.09375 0l0 16.609375zm28.353516 -1.921875q0 -1.171875 -0.828125 -1.78125q-0.8125 -0.625 -2.953125 -1.3125q-2.125 -0.703125 -3.359375 -1.375q-3.390625 -1.828125 -3.390625 -4.921875q0 -1.625 0.90625 -2.890625q0.90625 -1.265625 2.609375 -1.96875q1.703125 -0.71875 3.828125 -0.71875q2.125 0 3.796875 0.78125q1.671875 0.765625 2.59375 2.1875q0.921875 1.40625 0.921875 3.1875l-4.109375 0q0 -1.359375 -0.859375 -2.109375q-0.859375 -0.765625 -2.421875 -0.765625q-1.5 0 -2.34375 0.640625q-0.828125 0.625 -0.828125 1.65625q0 0.984375 0.96875 1.640625q0.984375 0.65625 2.890625 1.21875q3.5 1.0625 5.09375 2.625q1.609375 1.546875 1.609375 3.875q0 2.578125 -1.953125 4.0625q-1.953125 1.46875 -5.265625 1.46875q-2.296875 0 -4.1875 -0.84375q-1.890625 -0.84375 -2.890625 -2.296875q-0.984375 -1.46875 -0.984375 -3.40625l4.125 0q0 3.296875 3.9375 3.296875q1.453125 0 2.265625 -0.59375q0.828125 -0.59375 0.828125 -1.65625zm13.447266 5.5q-3.25 0 -5.296875 -2.0q-2.046875 -2.0 -2.046875 -5.328125l0 -0.375q0 -2.234375 0.859375 -3.984375q0.859375 -1.765625 2.4375 -2.703125q1.578125 -0.953125 3.609375 -0.953125q3.03125 0 4.765625 1.921875q1.75 1.90625 1.75 5.421875l0 1.609375l-9.421875 0q0.203125 1.453125 1.15625 2.328125q0.96875 0.875 2.453125 0.875q2.28125 0 3.5625 -1.65625l1.9375 2.171875q-0.890625 1.25 -2.40625 1.96875q-1.515625 0.703125 -3.359375 0.703125zm-0.453125 -12.15625q-1.171875 0 -1.90625 0.796875q-0.734375 0.796875 -0.9375 2.265625l5.5 0l0 -0.3125q-0.03125 -1.3125 -0.71875 -2.03125q-0.671875 -0.71875 -1.9375 -0.71875zm17.08789 0.78125q-0.796875 -0.109375 -1.421875 -0.109375q-2.234375 0 -2.9375 1.515625l0 9.6875l-3.953125 0l0 -14.796875l3.734375 0l0.109375 1.765625q1.1875 -2.03125 3.296875 -2.03125q0.65625 0 1.234375 0.171875l-0.0625 3.796875zm7.6933594 6.265625l2.734375 -9.96875l4.140625 0l-5.0 14.796875l-3.765625 0l-5.0 -14.796875l4.140625 0l2.75 9.96875zm15.238281 5.109375q-3.25 0 -5.296875 -2.0q-2.046875 -2.0 -2.046875 -5.328125l0 -0.375q0 -2.234375 0.859375 -3.984375q0.859375 -1.765625 2.4375 -2.703125q1.578125 -0.953125 3.609375 -0.953125q3.03125 0 4.765625 1.921875q1.75 1.90625 1.75 5.421875l0 1.609375l-9.421875 0q0.203125 1.453125 1.15625 2.328125q0.96875 0.875 2.453125 0.875q2.28125 0 3.5625 -1.65625l1.9375 2.171875q-0.890625 1.25 -2.40625 1.96875q-1.515625 0.703125 -3.359375 0.703125zm-0.453125 -12.15625q-1.171875 0 -1.90625 0.796875q-0.734375 0.796875 -0.9375 2.265625l5.5 0l0 -0.3125q-0.03125 -1.3125 -0.71875 -2.03125q-0.671875 -0.71875 -1.9375 -0.71875zm17.08789 0.78125q-0.796875 -0.109375 -1.421875 -0.109375q-2.234375 0 -2.9375 1.515625l0 9.6875l-3.953125 0l0 -14.796875l3.734375 0l0.109375 1.765625q1.1875 -2.03125 3.296875 -2.03125q0.65625 0 1.234375 0.171875l-0.0625 3.796875z" fill-rule="nonzero"/><path fill="#2fa4da" d="m210.82114 233.3678l190.58267 0l0 67.275604l-190.58267 0z" fill-rule="evenodd"/><path fill="#ffffff" d="m277.73358 268.9012l-2.140625 2.296875l0 5.6875l-4.09375 0l0 -19.90625l4.09375 0l0 9.015625l1.8125 -2.46875l5.0625 -6.546875l5.046875 0l-7.0625 8.84375l7.265625 11.0625l-4.875 0l-5.109375 -7.984375zm19.851562 7.984375q-0.28125 -0.53125 -0.40625 -1.328125q-1.421875 1.609375 -3.71875 1.609375q-2.1875 0 -3.609375 -1.265625q-1.421875 -1.265625 -1.421875 -3.171875q0 -2.359375 1.734375 -3.609375q1.75 -1.265625 5.046875 -1.265625l1.8125 0l0 -0.859375q0 -1.015625 -0.53125 -1.625q-0.515625 -0.625 -1.65625 -0.625q-1.0 0 -1.578125 0.484375q-0.5625 0.46875 -0.5625 1.3125l-3.9375 0q0 -1.296875 0.78125 -2.390625q0.796875 -1.09375 2.25 -1.703125q1.453125 -0.625 3.25 -0.625q2.734375 0 4.34375 1.375q1.609375 1.375 1.609375 3.859375l0 6.40625q0.015625 2.109375 0.578125 3.1875l0 0.234375l-3.984375 0zm-3.265625 -2.75q0.875 0 1.609375 -0.390625q0.734375 -0.390625 1.09375 -1.046875l0 -2.546875l-1.484375 0q-2.953125 0 -3.15625 2.0625l-0.015625 0.234375q0 0.734375 0.515625 1.21875q0.53125 0.46875 1.4375 0.46875zm10.777344 2.75l0 -11.890625l-2.203125 0l0 -2.90625l2.203125 0l0 -1.25q0 -2.5 1.421875 -3.859375q1.4375 -1.375 4.015625 -1.375q0.8125 0 2.0 0.265625l-0.03125 3.0625q-0.5 -0.125 -1.203125 -0.125q-2.234375 0 -2.234375 2.09375l0 1.1875l2.9375 0l0 2.90625l-2.9375 0l0 11.890625l-3.96875 0zm14.332031 -5.9375l-1.421875 1.421875l0 4.515625l-3.953125 0l0 -21.0l3.953125 0l0 11.640625l0.765625 -0.984375l3.78125 -4.453125l4.75 0l-5.34375 6.171875l5.8125 8.625l-4.546875 0l-3.796875 -5.9375zm18.160156 5.9375q-0.28125 -0.53125 -0.40625 -1.328125q-1.421875 1.609375 -3.71875 1.609375q-2.1875 0 -3.609375 -1.265625q-1.421875 -1.265625 -1.421875 -3.171875q0 -2.359375 1.734375 -3.609375q1.75 -1.265625 5.046875 -1.265625l1.8125 0l0 -0.859375q0 -1.015625 -0.53125 -1.625q-0.515625 -0.625 -1.65625 -0.625q-1.0 0 -1.578125 0.484375q-0.5625 0.46875 -0.5625 1.3125l-3.9375 0q0 -1.296875 0.78125 -2.390625q0.796875 -1.09375 2.25 -1.703125q1.453125 -0.625 3.25 -0.625q2.734375 0 4.34375 1.375q1.609375 1.375 1.609375 3.859375l0 6.40625q0.015625 2.109375 0.578125 3.1875l0 0.234375l-3.984375 0zm-3.265625 -2.75q0.875 0 1.609375 -0.390625q0.734375 -0.390625 1.09375 -1.046875l0 -2.546875l-1.484375 0q-2.953125 0 -3.15625 2.0625l-0.015625 0.234375q0 0.734375 0.515625 1.21875q0.53125 0.46875 1.4375 0.46875z" fill-rule="nonzero"/><path fill="#2fa4da" d="m401.3992 333.0028l190.58267 0l0 67.275604l-190.58267 0z" fill-rule="evenodd"/><path fill="#ffffff" d="m480.02744 368.37997l-7.875 0l0 8.140625l-4.09375 0l0 -19.90625l12.953125 0l0 3.328125l-8.859375 0l0 5.140625l7.875 0l0 3.296875zm7.2773438 8.140625l-3.96875 0l0 -21.0l3.96875 0l0 21.0zm7.423828 0l-3.96875 0l0 -14.796875l3.96875 0l0 14.796875zm-4.203125 -18.625q0 -0.890625 0.59375 -1.453125q0.609375 -0.578125 1.625 -0.578125q1.015625 0 1.609375 0.578125q0.609375 0.5625 0.609375 1.453125q0 0.90625 -0.609375 1.484375q-0.609375 0.5625 -1.609375 0.5625q-1.0 0 -1.609375 -0.5625q-0.609375 -0.578125 -0.609375 -1.484375zm11.095703 3.828125l0.125 1.71875q1.578125 -1.984375 4.25 -1.984375q2.34375 0 3.484375 1.375q1.15625 1.375 1.1875 4.125l0 9.5625l-3.953125 0l0 -9.46875q0 -1.25 -0.546875 -1.8125q-0.546875 -0.578125 -1.8125 -0.578125q-1.671875 0 -2.5 1.421875l0 10.4375l-3.953125 0l0 -14.796875l3.71875 0zm17.416046 8.859375l-1.421875 1.421875l0 4.515625l-3.953125 0l0 -21.0l3.953125 0l0 11.640625l0.765625 -0.984375l3.78125 -4.453125l4.75 0l-5.34375 6.171875l5.8125 8.625l-4.546875 0l-3.796875 -5.9375z" fill-rule="nonzero"/><path fill="#2fa4da" d="m591.97723 233.3678l190.5827 0l0 67.275604l-190.5827 0z" fill-rule="evenodd"/><path fill="#ffffff" d="m636.6241 269.86996l0 7.015625l-4.09375 0l0 -19.90625l7.765625 0q2.234375 0 3.9375 0.828125q1.703125 0.8125 2.609375 2.328125q0.921875 1.5 0.921875 3.4375q0 2.921875 -2.0 4.609375q-2.0 1.6875 -5.546875 1.6875l-3.59375 0zm0 -3.328125l3.671875 0q1.625 0 2.46875 -0.765625q0.859375 -0.765625 0.859375 -2.1875q0 -1.453125 -0.859375 -2.359375q-0.859375 -0.90625 -2.375 -0.921875l-3.765625 0l0 6.234375zm12.9140625 2.8125q0 -2.203125 0.84375 -3.921875q0.84375 -1.734375 2.4375 -2.671875q1.59375 -0.9375 3.703125 -0.9375q3.0 0 4.890625 1.828125q1.890625 1.828125 2.109375 4.96875l0.03125 1.015625q0 3.40625 -1.90625 5.46875q-1.90625 2.0625 -5.109375 2.0625q-3.1875 0 -5.09375 -2.046875q-1.90625 -2.0625 -1.90625 -5.59375l0 -0.171875zm3.953125 0.28125q0 2.109375 0.78125 3.234375q0.796875 1.109375 2.28125 1.109375q1.4375 0 2.234375 -1.09375q0.8125 -1.109375 0.8125 -3.53125q0 -2.0625 -0.8125 -3.203125q-0.796875 -1.140625 -2.265625 -1.140625q-1.453125 0 -2.25 1.140625q-0.78125 1.125 -0.78125 3.484375zm20.503906 3.15625q0 -0.71875 -0.71875 -1.125q-0.71875 -0.421875 -2.296875 -0.75q-5.28125 -1.109375 -5.28125 -4.484375q0 -1.96875 1.625 -3.28125q1.640625 -1.328125 4.28125 -1.328125q2.8125 0 4.5 1.328125q1.6875 1.3125 1.6875 3.4375l-3.953125 0q0 -0.84375 -0.546875 -1.390625q-0.546875 -0.5625 -1.703125 -0.5625q-1.0 0 -1.546875 0.453125q-0.546875 0.453125 -0.546875 1.140625q0 0.65625 0.625 1.0625q0.625 0.40625 2.09375 0.703125q1.484375 0.296875 2.484375 0.65625q3.140625 1.15625 3.140625 3.984375q0 2.015625 -1.734375 3.28125q-1.734375 1.25 -4.484375 1.25q-1.859375 0 -3.3125 -0.65625q-1.4375 -0.671875 -2.265625 -1.828125q-0.8125 -1.15625 -0.8125 -2.5l3.75 0q0.046875 1.046875 0.765625 1.609375q0.734375 0.5625 1.953125 0.5625q1.140625 0 1.71875 -0.421875q0.578125 -0.4375 0.578125 -1.140625zm11.115234 -14.34375l0 3.640625l2.53125 0l0 2.90625l-2.53125 0l0 7.375q0 0.828125 0.3125 1.1875q0.3125 0.34375 1.203125 0.34375q0.65625 0 1.15625 -0.09375l0 3.0q-1.15625 0.359375 -2.390625 0.359375q-4.15625 0 -4.234375 -4.203125l0 -7.96875l-2.15625 0l0 -2.90625l2.15625 0l0 -3.640625l3.953125 0zm4.1484375 10.9375q0 -3.40625 1.625 -5.484375q1.625 -2.078125 4.375 -2.078125q2.421875 0 3.78125 1.65625l0.171875 -1.390625l3.578125 0l0 14.296875q0 1.953125 -0.890625 3.390625q-0.875 1.4375 -2.484375 2.1875q-1.59375 0.75 -3.734375 0.75q-1.625 0 -3.171875 -0.65625q-1.546875 -0.640625 -2.34375 -1.671875l1.75 -2.40625q1.484375 1.65625 3.578125 1.65625q1.578125 0 2.453125 -0.84375q0.875 -0.84375 0.875 -2.390625l0 -0.78125q-1.359375 1.546875 -3.59375 1.546875q-2.671875 0 -4.328125 -2.078125q-1.640625 -2.09375 -1.640625 -5.546875l0 -0.15625zm3.953125 0.28125q0 2.015625 0.8125 3.15625q0.8125 1.140625 2.21875 1.140625q1.796875 0 2.578125 -1.359375l0 -6.21875q-0.796875 -1.359375 -2.5625 -1.359375q-1.421875 0 -2.234375 1.171875q-0.8125 1.15625 -0.8125 3.46875zm20.919922 -3.875q-0.796875 -0.109375 -1.421875 -0.109375q-2.234375 0 -2.9375 1.515625l0 9.6875l-3.953125 0l0 -14.796875l3.734375 0l0.109375 1.765625q1.1875 -2.03125 3.296875 -2.03125q0.65625 0 1.234375 0.171875l-0.0625 3.796875zm8.453125 11.375q-3.25 0 -5.296875 -2.0q-2.046875 -2.0 -2.046875 -5.328125l0 -0.375q0 -2.234375 0.859375 -3.984375q0.859375 -1.765625 2.4375 -2.703125q1.578125 -0.953125 3.609375 -0.953125q3.03125 0 4.765625 1.921875q1.75 1.90625 1.75 5.421875l0 1.609375l-9.421875 0q0.203125 1.453125 1.15625 2.328125q0.96875 0.875 2.453125 0.875q2.28125 0 3.5625 -1.65625l1.9375 2.171875q-0.890625 1.25 -2.40625 1.96875q-1.515625 0.703125 -3.359375 0.703125zm-0.453125 -12.15625q-1.171875 0 -1.90625 0.796875q-0.734375 0.796875 -0.9375 2.265625l5.5 0l0 -0.3125q-0.03125 -1.3125 -0.71875 -2.03125q-0.671875 -0.71875 -1.9375 -0.71875zm16.791016 7.78125q0 -0.71875 -0.71875 -1.125q-0.71875 -0.421875 -2.296875 -0.75q-5.28125 -1.109375 -5.28125 -4.484375q0 -1.96875 1.625 -3.28125q1.640625 -1.328125 4.28125 -1.328125q2.8125 0 4.5 1.328125q1.6875 1.3125 1.6875 3.4375l-3.953125 0q0 -0.84375 -0.546875 -1.390625q-0.546875 -0.5625 -1.703125 -0.5625q-1.0 0 -1.546875 0.453125q-0.546875 0.453125 -0.546875 1.140625q0 0.65625 0.625 1.0625q0.625 0.40625 2.09375 0.703125q1.484375 0.296875 2.484375 0.65625q3.140625 1.15625 3.140625 3.984375q0 2.015625 -1.734375 3.28125q-1.734375 1.25 -4.484375 1.25q-1.859375 0 -3.3125 -0.65625q-1.4375 -0.671875 -2.265625 -1.828125q-0.8125 -1.15625 -0.8125 -2.5l3.75 0q0.046875 1.046875 0.765625 1.609375q0.734375 0.5625 1.953125 0.5625q1.140625 0 1.71875 -0.421875q0.578125 -0.4375 0.578125 -1.140625z" fill-rule="nonzero"/><path fill="#000000" fill-opacity="0.0" d="m379.39694 160.27348c-36.64566 0 -73.29135 36.551178 -73.29135 73.102356" fill-rule="evenodd"/><path stroke="#2fa4da" stroke-width="4.0" stroke-linejoin="round" stroke-linecap="butt" d="m379.39694 160.27348c-18.322845 0 -36.64566 9.137787 -50.387787 22.844482c-6.871063 6.853348 -12.596954 14.848923 -16.605072 23.415604c-0.5010376 1.0708466 -0.9751892 2.150589 -1.4214172 3.2381592l-0.039001465 0.09681702" fill-rule="evenodd"/><path fill="#2fa4da" stroke="#2fa4da" stroke-width="4.0" stroke-linecap="butt" d="m304.47235 208.53668l2.8120422 19.111588l10.130554 -16.447876z" fill-rule="evenodd"/><path fill="#000000" fill-opacity="0.0" d="m306.1125 300.6434c0 32.992126 47.637787 65.98425 95.27557 65.98425" fill-rule="evenodd"/><path stroke="#2fa4da" stroke-width="4.0" stroke-linejoin="round" stroke-linecap="butt" d="m306.11246 300.6434c0 16.496063 11.909454 32.992126 29.773651 45.364136c8.932098 6.186035 19.352875 11.341064 30.517975 14.949554c2.7912598 0.90216064 5.629059 1.7076111 8.50177 2.4083862c0.71817017 0.1751709 1.4385071 0.34384155 2.1608582 0.50579834l0.46850586 0.102752686" fill-rule="evenodd"/><path fill="#2fa4da" stroke="#2fa4da" stroke-width="4.0" stroke-linecap="butt" d="m376.80472 370.54044l18.771606 -4.5593567l-17.310577 -8.573486z" fill-rule="evenodd"/><path fill="#000000" fill-opacity="0.0" d="m687.2686 233.3678c0 -36.551178 -36.64569 -73.102356 -73.29138 -73.102356" fill-rule="evenodd"/><path stroke="#2fa4da" stroke-width="4.0" stroke-linejoin="round" stroke-linecap="butt" d="m682.43054 209.8605l-0.039001465 -0.09680176c-0.44622803 -1.0875854 -0.92041016 -2.167328 -1.4214478 -3.2381744c-4.0081177 -8.566681 -9.734009 -16.562256 -16.605042 -23.415604c-13.742126 -13.706696 -32.065002 -22.844482 -50.387817 -22.844482" fill-rule="evenodd"/><path fill="#2fa4da" stroke="#2fa4da" stroke-width="4.0" stroke-linecap="butt" d="m675.9592 211.19235l10.130554 16.447891l2.8120728 -19.111603z" fill-rule="evenodd"/><path fill="#000000" fill-opacity="0.0" d="m591.9819 366.6406c47.637817 0 95.27557 -32.992126 95.27557 -65.98425" fill-rule="evenodd"/><path stroke="#2fa4da" stroke-width="4.0" stroke-linejoin="round" stroke-linecap="butt" d="m591.9819 366.64062c23.818909 0 47.637817 -8.248016 65.50195 -20.620087c8.932129 -6.186035 16.375488 -13.403076 21.585876 -21.13559c0.1628418 -0.24163818 0.32348633 -0.48379517 0.4819336 -0.7264099l0.40997314 -0.6380005" fill-rule="evenodd"/><path fill="#2fa4da" stroke="#2fa4da" stroke-width="4.0" stroke-linecap="butt" d="m686.25586 325.529l-0.776062 -19.301788l-11.812439 15.284851z" fill-rule="evenodd"/><path fill="#000000" fill-opacity="0.0" d="m190.52522 104.09274l150.61418 0l0 42.015747l-150.61418 0z" fill-rule="evenodd"/><path fill="#2fa4da" d="m215.17754 121.153366l0.0625 1.03125q1.03125 -1.203125 2.84375 -1.203125q1.96875 0 2.703125 1.5q1.078125 -1.5 3.015625 -1.5q1.640625 0 2.4375 0.90625q0.796875 0.890625 0.8125 2.640625l0 6.484375l-2.21875 0l0 -6.40625q0 -0.9375 -0.40625 -1.375q-0.40625 -0.4375 -1.359375 -0.4375q-0.75 0 -1.234375 0.40625q-0.46875 0.390625 -0.671875 1.046875l0.015625 6.765625l-2.21875 0l0 -6.484375q-0.046875 -1.734375 -1.765625 -1.734375q-1.328125 0 -1.890625 1.078125l0 7.140625l-2.21875 0l0 -9.859375l2.09375 0zm16.498749 9.859375l-2.203125 0l0 -9.859375l2.203125 0l0 9.859375zm-2.34375 -12.421875q0 -0.5 0.3125 -0.828125q0.328125 -0.34375 0.921875 -0.34375q0.609375 0 0.9375 0.34375q0.328125 0.328125 0.328125 0.828125q0 0.5 -0.328125 0.84375q-0.328125 0.328125 -0.9375 0.328125q-0.59375 0 -0.921875 -0.328125q-0.3125 -0.34375 -0.3125 -0.84375zm8.811142 10.84375q0.828125 0 1.375 -0.484375q0.546875 -0.484375 0.578125 -1.203125l2.09375 0q-0.046875 0.921875 -0.59375 1.71875q-0.53125 0.796875 -1.453125 1.265625q-0.90625 0.46875 -1.984375 0.46875q-2.0625 0 -3.28125 -1.34375q-1.203125 -1.34375 -1.203125 -3.703125l0 -0.21875q0 -2.25 1.203125 -3.59375q1.203125 -1.359375 3.28125 -1.359375q1.75 0 2.859375 1.03125q1.109375 1.015625 1.171875 2.671875l-2.09375 0q-0.03125 -0.84375 -0.578125 -1.390625q-0.546875 -0.546875 -1.375 -0.546875q-1.078125 0 -1.671875 0.78125q-0.578125 0.78125 -0.578125 2.359375l0 0.359375q0 1.609375 0.578125 2.40625q0.578125 0.78125 1.671875 0.78125zm10.874756 -6.25q-0.4375 -0.078125 -0.90625 -0.078125q-1.515625 0 -2.046875 1.171875l0 6.734375l-2.21875 0l0 -9.859375l2.125 0l0.046875 1.109375q0.796875 -1.28125 2.21875 -1.28125q0.484375 0 0.78125 0.125l0 2.078125zm0.6525879 2.8125q0 -1.453125 0.578125 -2.609375q0.578125 -1.171875 1.609375 -1.78125q1.03125 -0.625 2.390625 -0.625q1.984375 0 3.234375 1.28125q1.25 1.28125 1.34375 3.40625l0.015625 0.515625q0 1.453125 -0.5625 2.609375q-0.5625 1.140625 -1.609375 1.78125q-1.046875 0.625 -2.40625 0.625q-2.09375 0 -3.34375 -1.390625q-1.25 -1.390625 -1.25 -3.703125l0 -0.109375zm2.21875 0.1875q0 1.515625 0.625 2.390625q0.625 0.859375 1.75 0.859375q1.125 0 1.734375 -0.875q0.625 -0.875 0.625 -2.5625q0 -1.5 -0.640625 -2.375q-0.640625 -0.875 -1.734375 -0.875q-1.09375 0 -1.734375 0.859375q-0.625 0.859375 -0.625 2.578125zm14.340424 2.15625q0 -0.59375 -0.484375 -0.90625q-0.484375 -0.3125 -1.625 -0.546875q-1.125 -0.234375 -1.875 -0.609375q-1.65625 -0.796875 -1.65625 -2.3125q0 -1.28125 1.0625 -2.125q1.078125 -0.859375 2.734375 -0.859375q1.78125 0 2.859375 0.875q1.09375 0.859375 1.09375 2.265625l-2.21875 0q0 -0.640625 -0.46875 -1.0625q-0.46875 -0.421875 -1.265625 -0.421875q-0.71875 0 -1.1875 0.34375q-0.453125 0.328125 -0.453125 0.890625q0 0.515625 0.421875 0.796875q0.4375 0.28125 1.734375 0.5625q1.296875 0.28125 2.03125 0.6875q0.75 0.390625 1.109375 0.953125q0.375 0.546875 0.375 1.34375q0 1.328125 -1.109375 2.15625q-1.109375 0.828125 -2.890625 0.828125q-1.203125 0 -2.15625 -0.4375q-0.953125 -0.4375 -1.484375 -1.203125q-0.515625 -0.765625 -0.515625 -1.65625l2.140625 0q0.046875 0.78125 0.59375 1.21875q0.546875 0.421875 1.453125 0.421875q0.875 0 1.328125 -0.328125q0.453125 -0.34375 0.453125 -0.875zm8.441254 2.859375q-2.09375 0 -3.40625 -1.328125q-1.3125 -1.328125 -1.3125 -3.53125l0 -0.28125q0 -1.46875 0.5625 -2.625q0.578125 -1.171875 1.609375 -1.8125q1.03125 -0.640625 2.296875 -0.640625q2.015625 0 3.109375 1.28125q1.09375 1.28125 1.09375 3.625l0 0.890625l-6.4375 0q0.109375 1.234375 0.8125 1.953125q0.71875 0.703125 1.8125 0.703125q1.515625 0 2.46875 -1.234375l1.203125 1.140625q-0.59375 0.875 -1.59375 1.375q-0.984375 0.484375 -2.21875 0.484375zm-0.265625 -8.453125q-0.90625 0 -1.46875 0.640625q-0.5625 0.640625 -0.703125 1.78125l4.203125 0l0 -0.171875q-0.0625 -1.109375 -0.59375 -1.671875q-0.515625 -0.578125 -1.4375 -0.578125zm11.105072 0.4375q-0.4375 -0.078125 -0.90625 -0.078125q-1.515625 0 -2.046875 1.171875l0 6.734375l-2.21875 0l0 -9.859375l2.125 0l0.046875 1.109375q0.796875 -1.28125 2.21875 -1.28125q0.484375 0 0.78125 0.125l0 2.078125zm5.0354004 5.015625l2.09375 -7.046875l2.28125 0l-3.421875 9.859375l-1.921875 0l-3.4375 -9.859375l2.296875 0l2.109375 7.046875zm8.102936 2.8125l-2.203125 0l0 -9.859375l2.203125 0l0 9.859375zm-2.34375 -12.421875q0 -0.5 0.3125 -0.828125q0.328125 -0.34375 0.921875 -0.34375q0.609375 0 0.9375 0.34375q0.328125 0.328125 0.328125 0.828125q0 0.5 -0.328125 0.84375q-0.328125 0.328125 -0.9375 0.328125q-0.59375 0 -0.921875 -0.328125q-0.3125 -0.34375 -0.3125 -0.84375zm8.811127 10.84375q0.828125 0 1.375 -0.484375q0.546875 -0.484375 0.578125 -1.203125l2.09375 0q-0.046875 0.921875 -0.59375 1.71875q-0.53125 0.796875 -1.453125 1.265625q-0.90625 0.46875 -1.984375 0.46875q-2.0625 0 -3.28125 -1.34375q-1.203125 -1.34375 -1.203125 -3.703125l0 -0.21875q0 -2.25 1.203125 -3.59375q1.203125 -1.359375 3.28125 -1.359375q1.75 0 2.859375 1.03125q1.109375 1.015625 1.171875 2.671875l-2.09375 0q-0.03125 -0.84375 -0.578125 -1.390625q-0.546875 -0.546875 -1.375 -0.546875q-1.078125 0 -1.671875 0.78125q-0.578125 0.78125 -0.578125 2.359375l0 0.359375q0 1.609375 0.578125 2.40625q0.578125 0.78125 1.671875 0.78125zm10.046631 1.765625q-2.09375 0 -3.40625 -1.328125q-1.3125 -1.328125 -1.3125 -3.53125l0 -0.28125q0 -1.46875 0.5625 -2.625q0.578125 -1.171875 1.609375 -1.8125q1.03125 -0.640625 2.296875 -0.640625q2.015625 0 3.109375 1.28125q1.09375 1.28125 1.09375 3.625l0 0.890625l-6.4375 0q0.109375 1.234375 0.8125 1.953125q0.71875 0.703125 1.8125 0.703125q1.515625 0 2.46875 -1.234375l1.203125 1.140625q-0.59375 0.875 -1.59375 1.375q-0.984375 0.484375 -2.21875 0.484375zm-0.265625 -8.453125q-0.90625 0 -1.46875 0.640625q-0.5625 0.640625 -0.703125 1.78125l4.203125 0l0 -0.171875q-0.0625 -1.109375 -0.59375 -1.671875q-0.515625 -0.578125 -1.4375 -0.578125z" fill-rule="nonzero"/><path fill="#000000" fill-opacity="0.0" d="m500.39972 451.8196l0 -45.448822" fill-rule="evenodd"/><path stroke="#2fa4da" stroke-width="4.0" stroke-linejoin="round" stroke-linecap="butt" d="m500.39972 451.81958l0 -21.448792" fill-rule="evenodd"/><path fill="#2fa4da" stroke="#2fa4da" stroke-width="4.0" stroke-linecap="butt" d="m507.00665 430.3708l-6.6069336 -18.152405l-6.6069336 18.152405z" fill-rule="evenodd"/><path fill="#000000" fill-opacity="0.0" d="m461.21762 122.366066l0 -45.448814" fill-rule="evenodd"/><path stroke="#2fa4da" stroke-width="4.0" stroke-linejoin="round" stroke-linecap="butt" d="m461.2176 98.36607l0 -21.448822" fill-rule="evenodd"/><path fill="#2fa4da" stroke="#2fa4da" stroke-width="4.0" stroke-linecap="butt" d="m454.61066 98.36607l6.6069336 18.15239l6.6069336 -18.15239z" fill-rule="evenodd"/><path fill="#000000" fill-opacity="0.0" d="m532.1588 76.09974l0 45.448814" fill-rule="evenodd"/><path stroke="#2fa4da" stroke-width="4.0" stroke-linejoin="round" stroke-linecap="butt" d="m532.1588 100.09974l0 21.448814" fill-rule="evenodd"/><path fill="#2fa4da" stroke="#2fa4da" stroke-width="4.0" stroke-linecap="butt" d="m538.76575 100.09974l-6.6069336 -18.15239l-6.6069336 18.15239z" fill-rule="evenodd"/><path fill="#2fa4da" d="m379.3966 160.2718l0 0c0 -5.2271423 4.2374268 -9.464569 9.464569 -9.464569l0 0c2.5101624 0 4.917511 0.9971466 6.6924744 2.77211c1.7749329 1.7749481 2.7720947 4.1822968 2.7720947 6.692459l0 0c0 5.227127 -4.2374268 9.464554 -9.464569 9.464554l0 0c-5.2271423 0 -9.464569 -4.2374268 -9.464569 -9.464554z" fill-rule="evenodd"/><path fill="#2fa4da" d="m382.48587 265.90436l0 0c0 -5.2271423 4.2374268 -9.464569 9.464539 -9.464569l0 0c2.5101624 0 4.917511 0.99713135 6.6924744 2.7720947c1.7749634 1.7749634 2.7720947 4.182312 2.7720947 6.6924744l0 0c0 5.227112 -4.2374268 9.464569 -9.464569 9.464569l0 0c-5.227112 0 -9.464539 -4.2374573 -9.464539 -9.464569z" fill-rule="evenodd"/><path fill="#2fa4da" d="m296.6486 291.19043l0 0c0 -5.2271423 4.2374268 -9.464569 9.464569 -9.464569l0 0c2.5101624 0 4.917511 0.99716187 6.692444 2.7721252c1.7749634 1.7749329 2.7721252 4.1822815 2.7721252 6.692444l0 0c0 5.2271423 -4.2374268 9.464569 -9.464569 9.464569l0 0c-5.2271423 0 -9.464569 -4.2374268 -9.464569 -9.464569z" fill-rule="evenodd"/><path fill="#2fa4da" d="m573.0528 366.63925l0 0c0 -5.2271423 4.2374268 -9.464569 9.464539 -9.464569l0 0c2.5101929 0 4.9175415 0.99716187 6.692505 2.7721252c1.7749023 1.7749329 2.7720947 4.1822815 2.7720947 6.692444l0 0c0 5.2271423 -4.2374268 9.464569 -9.4646 9.464569l0 0c-5.227112 0 -9.464539 -4.2374268 -9.464539 -9.464569z" fill-rule="evenodd"/><path fill="#2fa4da" d="m677.80347 242.83086l0 0c0 -5.2271423 4.2374268 -9.464569 9.464539 -9.464569l0 0c2.5101318 0 4.9174805 0.99716187 6.692444 2.77211c1.7749634 1.7749481 2.7720947 4.1822968 2.7720947 6.692459l0 0c0 5.227127 -4.2374268 9.464569 -9.464539 9.464569l0 0c-5.227112 0 -9.464539 -4.237442 -9.464539 -9.464569z" fill-rule="evenodd"/><path fill="#2fa4da" d="m487.22076 342.46603l0 0c0 -5.2271423 4.2374268 -9.464569 9.464569 -9.464569l0 0c2.5101624 0 4.917511 0.99716187 6.692444 2.7720947c1.7749634 1.7749634 2.7721252 4.182312 2.7721252 6.6924744l0 0c0 5.227112 -4.2374268 9.464569 -9.464569 9.464569l0 0c-5.2271423 0 -9.464569 -4.2374573 -9.464569 -9.464569z" fill-rule="evenodd"/><path fill="#2fa4da" d="m521.87695 389.17993l0 0c0 -5.2271423 4.2374268 -9.464569 9.464539 -9.464569l0 0c2.5101929 0 4.9175415 0.99716187 6.692444 2.7721252c1.7749634 1.7749329 2.7721558 4.1822815 2.7721558 6.692444l0 0c0 5.2271423 -4.2374268 9.464569 -9.4646 9.464569l0 0c-5.227112 0 -9.464539 -4.2374268 -9.464539 -9.464569z" fill-rule="evenodd"/><path fill="#2fa4da" d="m522.6958 136.09857l0 0c0 -5.2271423 4.237488 -9.464569 9.4646 -9.464569l0 0c2.5101318 0 4.9174805 0.99715424 6.692444 2.77211c1.7749634 1.7749481 2.7720947 4.1822968 2.7720947 6.692459l0 0c0 5.2271423 -4.2374268 9.464569 -9.464539 9.464569l0 0c-5.227112 0 -9.4646 -4.2374268 -9.4646 -9.464569z" fill-rule="evenodd"/><path fill="#d07839" fill-opacity="0.0949" d="m402.36478 468.90814l0 0c0 -6.0737 43.99832 -10.9973755 98.27298 -10.9973755c54.27466 0 98.27295 4.9236755 98.27295 10.9973755l0 43.989502c0 6.0736694 -43.99829 10.9973755 -98.27295 10.9973755c-54.27466 0 -98.27298 -4.923706 -98.27298 -10.9973755z" fill-rule="evenodd"/><path fill="#000000" fill-opacity="0.0" d="m598.9107 468.90814l0 0c0 6.0736694 -43.99829 10.9973755 -98.27295 10.9973755c-54.27466 0 -98.27298 -4.923706 -98.27298 -10.9973755" fill-rule="evenodd"/><path fill="#000000" fill-opacity="0.0" d="m402.36478 468.90814l0 0c0 -6.0737 43.99832 -10.9973755 98.27298 -10.9973755c54.27466 0 98.27295 4.9236755 98.27295 10.9973755l0 43.989502c0 6.0736694 -43.99829 10.9973755 -98.27295 10.9973755c-54.27466 0 -98.27298 -4.923706 -98.27298 -10.9973755z" fill-rule="evenodd"/><path stroke="#d07839" stroke-width="3.0" stroke-linejoin="round" stroke-linecap="butt" d="m598.9107 468.90814l0 0c0 6.0736694 -43.99829 10.9973755 -98.27295 10.9973755c-54.27466 0 -98.27298 -4.923706 -98.27298 -10.9973755" fill-rule="evenodd"/><path stroke="#d07839" stroke-width="3.0" stroke-linejoin="round" stroke-linecap="butt" d="m402.36478 468.90814l0 0c0 -6.0737 43.99832 -10.9973755 98.27298 -10.9973755c54.27466 0 98.27295 4.9236755 98.27295 10.9973755l0 43.989502c0 6.0736694 -43.99829 10.9973755 -98.27295 10.9973755c-54.27466 0 -98.27298 -4.923706 -98.27298 -10.9973755z" fill-rule="evenodd"/><path fill="#d07839" d="m436.88382 498.3997l0 4.921875l-2.3125 0l0 -13.265625l5.078125 0q2.21875 0 3.53125 1.15625q1.3125 1.15625 1.3125 3.0625q0 1.953125 -1.28125 3.046875q-1.28125 1.078125 -3.59375 1.078125l-2.734375 0zm0 -1.859375l2.765625 0q1.234375 0 1.875 -0.578125q0.65625 -0.578125 0.65625 -1.671875q0 -1.078125 -0.65625 -1.71875q-0.65625 -0.640625 -1.8125 -0.65625l-2.828125 0l0 4.625zm14.564941 -1.046875q-0.4375 -0.078125 -0.90625 -0.078125q-1.515625 0 -2.046875 1.171875l0 6.734375l-2.21875 0l0 -9.859375l2.125 0l0.046875 1.109375q0.796875 -1.28125 2.21875 -1.28125q0.484375 0 0.78125 0.125l0 2.078125zm0.6525879 2.8125q0 -1.453125 0.578125 -2.609375q0.578125 -1.171875 1.609375 -1.78125q1.03125 -0.625 2.390625 -0.625q1.984375 0 3.234375 1.28125q1.25 1.28125 1.34375 3.40625l0.015625 0.515625q0 1.453125 -0.5625 2.609375q-0.5625 1.140625 -1.609375 1.78125q-1.046875 0.625 -2.40625 0.625q-2.09375 0 -3.34375 -1.390625q-1.25 -1.390625 -1.25 -3.703125l0 -0.109375zm2.21875 0.1875q0 1.515625 0.625 2.390625q0.625 0.859375 1.75 0.859375q1.125 0 1.734375 -0.875q0.625 -0.875 0.625 -2.5625q0 -1.5 -0.640625 -2.375q-0.640625 -0.875 -1.734375 -0.875q-1.09375 0 -1.734375 0.859375q-0.625 0.859375 -0.625 2.578125zm8.402924 -0.171875q0 -2.28125 1.046875 -3.65625q1.0625 -1.375 2.84375 -1.375q1.5625 0 2.53125 1.078125l0 -5.046875l2.21875 0l0 14.0l-2.015625 0l-0.109375 -1.015625q-0.984375 1.203125 -2.640625 1.203125q-1.734375 0 -2.8125 -1.390625q-1.0625 -1.40625 -1.0625 -3.796875zm2.21875 0.1875q0 1.5 0.578125 2.34375q0.578125 0.84375 1.640625 0.84375q1.359375 0 1.984375 -1.203125l0 -4.21875q-0.609375 -1.171875 -1.96875 -1.171875q-1.078125 0 -1.65625 0.859375q-0.578125 0.84375 -0.578125 2.546875zm14.702454 3.84375q-0.984375 1.15625 -2.765625 1.15625q-1.609375 0 -2.4375 -0.9375q-0.828125 -0.9375 -0.828125 -2.71875l0 -6.390625l2.21875 0l0 6.359375q0 1.875 1.5625 1.875q1.609375 0 2.171875 -1.15625l0 -7.078125l2.21875 0l0 9.859375l-2.09375 0l-0.046875 -0.96875zm8.444733 -0.609375q0.828125 0 1.375 -0.484375q0.546875 -0.484375 0.578125 -1.203125l2.09375 0q-0.046875 0.921875 -0.59375 1.71875q-0.53125 0.796875 -1.453125 1.265625q-0.90625 0.46875 -1.984375 0.46875q-2.0625 0 -3.28125 -1.34375q-1.203125 -1.34375 -1.203125 -3.703125l0 -0.21875q0 -2.25 1.203125 -3.59375q1.203125 -1.359375 3.28125 -1.359375q1.75 0 2.859375 1.03125q1.109375 1.015625 1.171875 2.671875l-2.09375 0q-0.03125 -0.84375 -0.578125 -1.390625q-0.546875 -0.546875 -1.375 -0.546875q-1.078125 0 -1.671875 0.78125q-0.578125 0.78125 -0.578125 2.359375l0 0.359375q0 1.609375 0.578125 2.40625q0.578125 0.78125 1.671875 0.78125zm8.484131 -10.671875l0 2.390625l1.734375 0l0 1.640625l-1.734375 0l0 5.5q0 0.5625 0.21875 0.8125q0.234375 0.25 0.796875 0.25q0.390625 0 0.78125 -0.078125l0 1.703125q-0.75 0.21875 -1.453125 0.21875q-2.5625 0 -2.5625 -2.8125l0 -5.59375l-1.609375 0l0 -1.640625l1.609375 0l0 -2.390625l2.21875 0zm18.411896 7.9375q-0.203125 2.109375 -1.578125 3.3125q-1.359375 1.1875 -3.6249695 1.1875q-1.578125 0 -2.796875 -0.75q-1.203125 -0.765625 -1.859375 -2.140625q-0.65625 -1.390625 -0.6875 -3.21875l0 -1.234375q0 -1.875 0.671875 -3.296875q0.671875 -1.4375 1.90625 -2.21875q1.25 -0.78125 2.875 -0.78125q2.2030945 0 3.5312195 1.203125q1.34375 1.1875 1.5625 3.375l-2.296875 0q-0.15625 -1.4375 -0.8280945 -2.0625q-0.671875 -0.640625 -1.96875 -0.640625q-1.5 0 -2.3125 1.109375q-0.796875 1.09375 -0.8125 3.203125l0 1.1875q0 2.140625 0.765625 3.28125q0.765625 1.125 2.25 1.125q1.359375 0 2.03125 -0.609375q0.6874695 -0.609375 0.8749695 -2.03125l2.296875 0zm7.7263184 4.3125q-0.140625 -0.28125 -0.25 -0.921875q-1.046875 1.109375 -2.578125 1.109375q-1.484375 0 -2.4375 -0.84375q-0.9375 -0.859375 -0.9375 -2.109375q0 -1.578125 1.171875 -2.40625q1.171875 -0.84375 3.359375 -0.84375l1.359375 0l0 -0.65625q0 -0.765625 -0.4375 -1.21875q-0.421875 -0.46875 -1.296875 -0.46875q-0.765625 0 -1.25 0.390625q-0.46875 0.375 -0.46875 0.953125l-2.21875 0q0 -0.8125 0.53125 -1.515625q0.546875 -0.703125 1.46875 -1.09375q0.921875 -0.40625 2.0625 -0.40625q1.734375 0 2.75 0.875q1.03125 0.859375 1.0625 2.4375l0 4.4375q0 1.328125 0.375 2.125l0 0.15625l-2.265625 0zm-2.421875 -1.59375q0.65625 0 1.234375 -0.3125q0.578125 -0.328125 0.875 -0.859375l0 -1.859375l-1.203125 0q-1.234375 0 -1.859375 0.4375q-0.609375 0.421875 -0.609375 1.203125q0 0.640625 0.421875 1.015625q0.421875 0.375 1.140625 0.375zm9.405823 -10.65625l0 2.390625l1.734375 0l0 1.640625l-1.734375 0l0 5.5q0 0.5625 0.21875 0.8125q0.234375 0.25 0.796875 0.25q0.390625 0 0.78125 -0.078125l0 1.703125q-0.75 0.21875 -1.453125 0.21875q-2.5625 0 -2.5625 -2.8125l0 -5.59375l-1.609375 0l0 -1.640625l1.609375 0l0 -2.390625l2.21875 0zm9.312927 12.25q-0.140625 -0.28125 -0.25 -0.921875q-1.046875 1.109375 -2.578125 1.109375q-1.484375 0 -2.4375 -0.84375q-0.9375 -0.859375 -0.9375 -2.109375q0 -1.578125 1.171875 -2.40625q1.171875 -0.84375 3.359375 -0.84375l1.359375 0l0 -0.65625q0 -0.765625 -0.4375 -1.21875q-0.421875 -0.46875 -1.296875 -0.46875q-0.765625 0 -1.25 0.390625q-0.46875 0.375 -0.46875 0.953125l-2.21875 0q0 -0.8125 0.53125 -1.515625q0.546875 -0.703125 1.46875 -1.09375q0.921875 -0.40625 2.0625 -0.40625q1.734375 0 2.75 0.875q1.03125 0.859375 1.0625 2.4375l0 4.4375q0 1.328125 0.375 2.125l0 0.15625l-2.265625 0zm-2.421875 -1.59375q0.65625 0 1.234375 -0.3125q0.578125 -0.328125 0.875 -0.859375l0 -1.859375l-1.203125 0q-1.234375 0 -1.859375 0.4375q-0.609375 0.421875 -0.609375 1.203125q0 0.640625 0.421875 1.015625q0.421875 0.375 1.140625 0.375zm8.983948 1.59375l-2.203125 0l0 -14.0l2.203125 0l0 14.0zm1.9986572 -5.015625q0 -1.453125 0.578125 -2.609375q0.578125 -1.171875 1.609375 -1.78125q1.03125 -0.625 2.390625 -0.625q1.984375 0 3.234375 1.28125q1.25 1.28125 1.34375 3.40625l0.015625 0.515625q0 1.453125 -0.5625 2.609375q-0.5625 1.140625 -1.609375 1.78125q-1.046875 0.625 -2.40625 0.625q-2.09375 0 -3.34375 -1.390625q-1.25 -1.390625 -1.25 -3.703125l0 -0.109375zm2.21875 0.1875q0 1.515625 0.625 2.390625q0.625 0.859375 1.75 0.859375q1.125 0 1.734375 -0.875q0.625 -0.875 0.625 -2.5625q0 -1.5 -0.640625 -2.375q-0.640625 -0.875 -1.734375 -0.875q-1.09375 0 -1.734375 0.859375q-0.625 0.859375 -0.625 2.578125zm8.434143 -0.171875q0 -2.296875 1.078125 -3.65625q1.078125 -1.375 2.859375 -1.375q1.6875 0 2.65625 1.171875l0.09375 -1.0l2.0 0l0 9.5625q0 1.9375 -1.21875 3.046875q-1.203125 1.125 -3.25 1.125q-1.078125 0 -2.109375 -0.453125q-1.03125 -0.4375 -1.578125 -1.171875l1.046875 -1.328125q1.03125 1.203125 2.515625 1.203125q1.109375 0 1.734375 -0.59375q0.640625 -0.59375 0.640625 -1.75l0 -0.671875q-0.953125 1.078125 -2.546875 1.078125q-1.734375 0 -2.828125 -1.375q-1.09375 -1.375 -1.09375 -3.8125zm2.203125 0.1875q0 1.484375 0.59375 2.34375q0.609375 0.84375 1.6875 0.84375q1.34375 0 1.984375 -1.140625l0 -4.34375q-0.625 -1.109375 -1.96875 -1.109375q-1.09375 0 -1.703125 0.859375q-0.59375 0.859375 -0.59375 2.546875z" fill-rule="nonzero"/><path fill="#000000" fill-opacity="0.0" d="m323.3937 56.839893l134.74014 0l0 42.01575l-134.74014 0z" fill-rule="evenodd"/><path fill="#d07839" d="m346.43692 78.83802l0 4.921875l-2.3125 0l0 -13.265625l5.078125 0q2.21875 0 3.53125 1.15625q1.3125 1.15625 1.3125 3.0625q0 1.953125 -1.28125 3.046875q-1.28125 1.078125 -3.59375 1.078125l-2.734375 0zm0 -1.859375l2.765625 0q1.234375 0 1.875 -0.578125q0.65625 -0.578125 0.65625 -1.671875q0 -1.078125 -0.65625 -1.71875q-0.65625 -0.640625 -1.8125 -0.65625l-2.828125 0l0 4.625zm14.564941 -1.046875q-0.4375 -0.078125 -0.90625 -0.078125q-1.515625 0 -2.046875 1.171875l0 6.734375l-2.21875 0l0 -9.859375l2.125 0l0.046875 1.109375q0.796875 -1.28125 2.21875 -1.28125q0.484375 0 0.78125 0.125l0 2.078125zm0.6525879 2.8125q0 -1.453125 0.578125 -2.609375q0.578125 -1.171875 1.609375 -1.78125q1.03125 -0.625 2.390625 -0.625q1.984375 0 3.234375 1.28125q1.25 1.28125 1.34375 3.40625l0.015625 0.515625q0 1.453125 -0.5625 2.609375q-0.5625 1.140625 -1.609375 1.78125q-1.046875 0.625 -2.40625 0.625q-2.09375 0 -3.34375 -1.390625q-1.25 -1.390625 -1.25 -3.703125l0 -0.109375zm2.21875 0.1875q0 1.515625 0.625 2.390625q0.625 0.859375 1.75 0.859375q1.125 0 1.734375 -0.875q0.625 -0.875 0.625 -2.5625q0 -1.5 -0.640625 -2.375q-0.640625 -0.875 -1.734375 -0.875q-1.09375 0 -1.734375 0.859375q-0.625 0.859375 -0.625 2.578125zm8.402924 -0.171875q0 -2.28125 1.046875 -3.65625q1.0625 -1.375 2.84375 -1.375q1.5625 0 2.53125 1.078125l0 -5.046875l2.21875 0l0 14.0l-2.015625 0l-0.109375 -1.015625q-0.984375 1.203125 -2.640625 1.203125q-1.734375 0 -2.8125 -1.390625q-1.0625 -1.40625 -1.0625 -3.796875zm2.21875 0.1875q0 1.5 0.578125 2.34375q0.578125 0.84375 1.640625 0.84375q1.359375 0 1.984375 -1.203125l0 -4.21875q-0.609375 -1.171875 -1.96875 -1.171875q-1.078125 0 -1.65625 0.859375q-0.578125 0.84375 -0.578125 2.546875zm14.702454 3.84375q-0.984375 1.15625 -2.765625 1.15625q-1.609375 0 -2.4375 -0.9375q-0.828125 -0.9375 -0.828125 -2.71875l0 -6.390625l2.21875 0l0 6.359375q0 1.875 1.5625 1.875q1.609375 0 2.171875 -1.15625l0 -7.078125l2.21875 0l0 9.859375l-2.09375 0l-0.046875 -0.96875zm8.444733 -0.609375q0.828125 0 1.375 -0.484375q0.546875 -0.484375 0.578125 -1.203125l2.09375 0q-0.046875 0.921875 -0.59375 1.71875q-0.53125 0.796875 -1.453125 1.265625q-0.90625 0.46875 -1.984375 0.46875q-2.0625 0 -3.28125 -1.34375q-1.203125 -1.34375 -1.203125 -3.703125l0 -0.21875q0 -2.25 1.203125 -3.59375q1.203125 -1.359375 3.28125 -1.359375q1.75 0 2.859375 1.03125q1.109375 1.015625 1.171875 2.671875l-2.09375 0q-0.03125 -0.84375 -0.578125 -1.390625q-0.546875 -0.546875 -1.375 -0.546875q-1.078125 0 -1.671875 0.78125q-0.578125 0.78125 -0.578125 2.359375l0 0.359375q0 1.609375 0.578125 2.40625q0.578125 0.78125 1.671875 0.78125zm8.484131 -10.671875l0 2.390625l1.734375 0l0 1.640625l-1.734375 0l0 5.5q0 0.5625 0.21875 0.8125q0.234375 0.25 0.796875 0.25q0.390625 0 0.78125 -0.078125l0 1.703125q-0.75 0.21875 -1.453125 0.21875q-2.5625 0 -2.5625 -2.8125l0 -5.59375l-1.609375 0l0 -1.640625l1.609375 0l0 -2.390625l2.21875 0zm8.312958 9.359375l3.375 -10.375l2.53125 0l-4.765625 13.265625l-2.234375 0l-4.765625 -13.265625l2.53125 0l3.328125 10.375zm9.538818 2.890625l-2.203125 0l0 -9.859375l2.203125 0l0 9.859375zm-2.34375 -12.421875q0 -0.5 0.3125 -0.828125q0.328125 -0.34375 0.921875 -0.34375q0.609375 0 0.9375 0.34375q0.328125 0.328125 0.328125 0.828125q0 0.5 -0.328125 0.84375q-0.328125 0.328125 -0.9375 0.328125q-0.59375 0 -0.921875 -0.328125q-0.3125 -0.34375 -0.3125 -0.84375zm9.092407 12.609375q-2.09375 0 -3.40625 -1.328125q-1.3125 -1.328125 -1.3125 -3.53125l0 -0.28125q0 -1.46875 0.5625 -2.625q0.578125 -1.171875 1.609375 -1.8125q1.03125 -0.640625 2.296875 -0.640625q2.015625 0 3.109375 1.28125q1.09375 1.28125 1.09375 3.625l0 0.890625l-6.4375 0q0.109375 1.234375 0.8125 1.953125q0.71875 0.703125 1.8125 0.703125q1.515625 0 2.46875 -1.234375l1.203125 1.140625q-0.59375 0.875 -1.59375 1.375q-0.984375 0.484375 -2.21875 0.484375zm-0.265625 -8.453125q-0.90625 0 -1.46875 0.640625q-0.5625 0.640625 -0.703125 1.78125l4.203125 0l0 -0.171875q-0.0625 -1.109375 -0.59375 -1.671875q-0.515625 -0.578125 -1.4375 -0.578125zm14.605072 5.21875l1.5625 -6.8125l2.15625 0l-2.6875 9.859375l-1.8125 0l-2.125 -6.765625l-2.078125 6.765625l-1.8125 0l-2.703125 -9.859375l2.15625 0l1.59375 6.734375l2.03125 -6.734375l1.671875 0l2.046875 6.8125z" fill-rule="nonzero"/><path fill="#000000" fill-opacity="0.0" d="m540.0289 56.839893l285.6693 0l0 42.01575l-285.6693 0z" fill-rule="evenodd"/><path fill="#d07839" d="m552.6851 78.83802l0 4.921875l-2.3125 0l0 -13.265625l5.078125 0q2.21875 0 3.53125 1.15625q1.3125 1.15625 1.3125 3.0625q0 1.953125 -1.28125 3.046875q-1.28125 1.078125 -3.59375 1.078125l-2.734375 0zm0 -1.859375l2.765625 0q1.234375 0 1.875 -0.578125q0.65625 -0.578125 0.65625 -1.671875q0 -1.078125 -0.65625 -1.71875q-0.65625 -0.640625 -1.8125 -0.65625l-2.828125 0l0 4.625zm14.564941 -1.046875q-0.4375 -0.078125 -0.90625 -0.078125q-1.515625 0 -2.046875 1.171875l0 6.734375l-2.21875 0l0 -9.859375l2.125 0l0.046875 1.109375q0.796875 -1.28125 2.21875 -1.28125q0.484375 0 0.78125 0.125l0 2.078125zm0.6525879 2.8125q0 -1.453125 0.578125 -2.609375q0.578125 -1.171875 1.609375 -1.78125q1.03125 -0.625 2.390625 -0.625q1.984375 0 3.234375 1.28125q1.25 1.28125 1.34375 3.40625l0.015625 0.515625q0 1.453125 -0.5625 2.609375q-0.5625 1.140625 -1.609375 1.78125q-1.046875 0.625 -2.40625 0.625q-2.09375 0 -3.34375 -1.390625q-1.25 -1.390625 -1.25 -3.703125l0 -0.109375zm2.21875 0.1875q0 1.515625 0.625 2.390625q0.625 0.859375 1.75 0.859375q1.125 0 1.734375 -0.875q0.625 -0.875 0.625 -2.5625q0 -1.5 -0.640625 -2.375q-0.640625 -0.875 -1.734375 -0.875q-1.09375 0 -1.734375 0.859375q-0.625 0.859375 -0.625 2.578125zm8.402954 -0.171875q0 -2.28125 1.046875 -3.65625q1.0625 -1.375 2.84375 -1.375q1.5625 0 2.53125 1.078125l0 -5.046875l2.21875 0l0 14.0l-2.015625 0l-0.109375 -1.015625q-0.984375 1.203125 -2.640625 1.203125q-1.734375 0 -2.8125 -1.390625q-1.0625 -1.40625 -1.0625 -3.796875zm2.21875 0.1875q0 1.5 0.578125 2.34375q0.578125 0.84375 1.640625 0.84375q1.359375 0 1.984375 -1.203125l0 -4.21875q-0.609375 -1.171875 -1.96875 -1.171875q-1.078125 0 -1.65625 0.859375q-0.578125 0.84375 -0.578125 2.546875zm14.702454 3.84375q-0.984375 1.15625 -2.765625 1.15625q-1.609375 0 -2.4375 -0.9375q-0.828125 -0.9375 -0.828125 -2.71875l0 -6.390625l2.21875 0l0 6.359375q0 1.875 1.5625 1.875q1.609375 0 2.171875 -1.15625l0 -7.078125l2.21875 0l0 9.859375l-2.09375 0l-0.046875 -0.96875zm8.444702 -0.609375q0.828125 0 1.375 -0.484375q0.546875 -0.484375 0.578125 -1.203125l2.09375 0q-0.046875 0.921875 -0.59375 1.71875q-0.53125 0.796875 -1.453125 1.265625q-0.90625 0.46875 -1.984375 0.46875q-2.0625 0 -3.28125 -1.34375q-1.203125 -1.34375 -1.203125 -3.703125l0 -0.21875q0 -2.25 1.203125 -3.59375q1.203125 -1.359375 3.28125 -1.359375q1.75 0 2.859375 1.03125q1.109375 1.015625 1.171875 2.671875l-2.09375 0q-0.03125 -0.84375 -0.578125 -1.390625q-0.546875 -0.546875 -1.375 -0.546875q-1.078125 0 -1.671875 0.78125q-0.578125 0.78125 -0.578125 2.359375l0 0.359375q0 1.609375 0.578125 2.40625q0.578125 0.78125 1.671875 0.78125zm8.484131 -10.671875l0 2.390625l1.734375 0l0 1.640625l-1.734375 0l0 5.5q0 0.5625 0.21875 0.8125q0.234375 0.25 0.796875 0.25q0.390625 0 0.78125 -0.078125l0 1.703125q-0.75 0.21875 -1.453125 0.21875q-2.5625 0 -2.5625 -2.8125l0 -5.59375l-1.609375 0l0 -1.640625l1.609375 0l0 -2.390625l2.21875 0zm10.578613 8.828125q0 -0.875 -0.625 -1.34375q-0.609375 -0.46875 -2.21875 -0.953125q-1.59375 -0.484375 -2.546875 -1.078125q-1.8125 -1.140625 -1.8125 -2.96875q0 -1.609375 1.3125 -2.640625q1.3125 -1.046875 3.390625 -1.046875q1.390625 0 2.46875 0.515625q1.09375 0.515625 1.703125 1.453125q0.625 0.9375 0.625 2.09375l-2.296875 0q0 -1.046875 -0.65625 -1.625q-0.640625 -0.59375 -1.859375 -0.59375q-1.125 0 -1.75 0.484375q-0.625 0.484375 -0.625 1.34375q0 0.734375 0.671875 1.21875q0.671875 0.484375 2.21875 0.953125q1.546875 0.453125 2.484375 1.046875q0.9375 0.59375 1.375 1.359375q0.4375 0.75 0.4375 1.765625q0 1.65625 -1.265625 2.640625q-1.265625 0.984375 -3.453125 0.984375q-1.4375 0 -2.640625 -0.53125q-1.203125 -0.546875 -1.875 -1.484375q-0.671875 -0.9375 -0.671875 -2.1875l2.3125 0q0 1.140625 0.734375 1.765625q0.75 0.609375 2.140625 0.609375q1.203125 0 1.8125 -0.484375q0.609375 -0.484375 0.609375 -1.296875zm8.446838 3.609375q-2.09375 0 -3.40625 -1.328125q-1.3125 -1.328125 -1.3125 -3.53125l0 -0.28125q0 -1.46875 0.5625 -2.625q0.578125 -1.171875 1.609375 -1.8125q1.03125 -0.640625 2.296875 -0.640625q2.015625 0 3.109375 1.28125q1.09375 1.28125 1.09375 3.625l0 0.890625l-6.4375 0q0.109375 1.234375 0.8125 1.953125q0.71875 0.703125 1.8125 0.703125q1.515625 0 2.46875 -1.234375l1.203125 1.140625q-0.59375 0.875 -1.59375 1.375q-0.984375 0.484375 -2.21875 0.484375zm-0.265625 -8.453125q-0.90625 0 -1.46875 0.640625q-0.5625 0.640625 -0.703125 1.78125l4.203125 0l0 -0.171875q-0.0625 -1.109375 -0.59375 -1.671875q-0.515625 -0.578125 -1.4375 -0.578125zm11.8237915 8.265625q-0.140625 -0.28125 -0.25 -0.921875q-1.046875 1.109375 -2.578125 1.109375q-1.484375 0 -2.4375 -0.84375q-0.9375 -0.859375 -0.9375 -2.109375q0 -1.578125 1.171875 -2.40625q1.171875 -0.84375 3.359375 -0.84375l1.359375 0l0 -0.65625q0 -0.765625 -0.4375 -1.21875q-0.421875 -0.46875 -1.296875 -0.46875q-0.765625 0 -1.25 0.390625q-0.46875 0.375 -0.46875 0.953125l-2.21875 0q0 -0.8125 0.53125 -1.515625q0.546875 -0.703125 1.46875 -1.09375q0.921875 -0.40625 2.0625 -0.40625q1.734375 0 2.75 0.875q1.03125 0.859375 1.0625 2.4375l0 4.4375q0 1.328125 0.375 2.125l0 0.15625l-2.265625 0zm-2.421875 -1.59375q0.65625 0 1.234375 -0.3125q0.578125 -0.328125 0.875 -0.859375l0 -1.859375l-1.203125 0q-1.234375 0 -1.859375 0.4375q-0.609375 0.421875 -0.609375 1.203125q0 0.640625 0.421875 1.015625q0.421875 0.375 1.140625 0.375zm11.796448 -6.234375q-0.4375 -0.078125 -0.90625 -0.078125q-1.515625 0 -2.046875 1.171875l0 6.734375l-2.21875 0l0 -9.859375l2.125 0l0.046875 1.109375q0.796875 -1.28125 2.21875 -1.28125q0.484375 0 0.78125 0.125l0 2.078125zm5.276306 6.25q0.828125 0 1.375 -0.484375q0.546875 -0.484375 0.578125 -1.203125l2.09375 0q-0.046875 0.921875 -0.59375 1.71875q-0.53125 0.796875 -1.453125 1.265625q-0.90625 0.46875 -1.984375 0.46875q-2.0625 0 -3.28125 -1.34375q-1.203125 -1.34375 -1.203125 -3.703125l0 -0.21875q0 -2.25 1.203125 -3.59375q1.203125 -1.359375 3.28125 -1.359375q1.75 0 2.859375 1.03125q1.109375 1.015625 1.171875 2.671875l-2.09375 0q-0.03125 -0.84375 -0.578125 -1.390625q-0.546875 -0.546875 -1.375 -0.546875q-1.078125 0 -1.671875 0.78125q-0.578125 0.78125 -0.578125 2.359375l0 0.359375q0 1.609375 0.578125 2.40625q0.578125 0.78125 1.671875 0.78125zm7.890381 -7.203125q1.09375 -1.25 2.75 -1.25q3.140625 0 3.1875 3.59375l0 6.4375l-2.203125 0l0 -6.359375q0 -1.015625 -0.453125 -1.4375q-0.4375 -0.421875 -1.296875 -0.421875q-1.328125 0 -1.984375 1.171875l0 7.046875l-2.203125 0l0 -14.0l2.203125 0l0 5.21875z" fill-rule="nonzero"/><path fill="#2fa4da" d="m443.21783 44.939632l0 0c0 -9.941124 8.058899 -18.0 18.0 -18.0l0 0c4.7738953 0 9.352295 1.8964233 12.727936 5.2720795c3.3756409 3.3756523 5.272064 7.9540253 5.272064 12.727921l0 0c0 9.941124 -8.058868 18.0 -18.0 18.0l0 0c-9.941101 0 -18.0 -8.058876 -18.0 -18.0z" fill-rule="evenodd"/><path fill="#ffffff" d="m463.1629 51.85963l-2.625 0l0 -10.140625l-3.15625 0.96875l0 -2.140625l5.5 -1.96875l0.28125 0l0 13.28125z" fill-rule="nonzero"/><path fill="#2fa4da" d="m296.6483 164.1076l0 0c0 -9.941116 8.058868 -18.0 18.0 -18.0l0 0c4.7738953 0 9.352264 1.8964233 12.727936 5.2720795c3.3756409 3.3756561 5.272064 7.9540253 5.272064 12.727921l0 0c0 9.941132 -8.058868 18.0 -18.0 18.0l0 0c-9.941132 0 -18.0 -8.058868 -18.0 -18.0z" fill-rule="evenodd"/><path fill="#ffffff" d="m319.29648 171.0276l-9.09375 0l0 -1.796875l4.28125 -4.578125q0.890625 -0.96875 1.3125 -1.6875q0.421875 -0.71875 0.421875 -1.359375q0 -0.890625 -0.453125 -1.390625q-0.4375 -0.515625 -1.265625 -0.515625q-0.890625 0 -1.40625 0.625q-0.515625 0.609375 -0.515625 1.609375l-2.640625 0q0 -1.203125 0.578125 -2.203125q0.578125 -1.015625 1.625 -1.578125q1.0625 -0.578125 2.40625 -0.578125q2.046875 0 3.171875 0.984375q1.140625 0.984375 1.140625 2.78125q0 0.984375 -0.515625 2.015625q-0.5 1.015625 -1.734375 2.375l-3.015625 3.171875l5.703125 0l0 2.125z" fill-rule="nonzero"/><path fill="#2fa4da" d="m306.11285 367.00787l0 0c0 -9.941132 8.058868 -18.0 18.0 -18.0l0 0c4.7738953 0 9.352264 1.8964233 12.727936 5.272064c3.3756409 3.3756714 5.272064 7.9540405 5.272064 12.727936l0 0c0 9.941132 -8.058868 18.0 -18.0 18.0l0 0c-9.941132 0 -18.0 -8.058868 -18.0 -18.0z" fill-rule="evenodd"/><path fill="#ffffff" d="m322.33914 366.131l1.40625 0q1.0 0 1.484375 -0.5q0.484375 -0.5 0.484375 -1.328125q0 -0.8125 -0.484375 -1.25q-0.46875 -0.453125 -1.3125 -0.453125q-0.75 0 -1.265625 0.421875q-0.515625 0.40625 -0.515625 1.078125l-2.625 0q0 -1.046875 0.5625 -1.859375q0.5625 -0.828125 1.5625 -1.296875q1.0 -0.46875 2.21875 -0.46875q2.109375 0 3.296875 1.015625q1.1875 1.0 1.1875 2.765625q0 0.921875 -0.5625 1.6875q-0.546875 0.765625 -1.453125 1.171875q1.125 0.40625 1.671875 1.203125q0.5625 0.796875 0.5625 1.890625q0 1.765625 -1.296875 2.84375q-1.28125 1.0625 -3.40625 1.0625q-1.984375 0 -3.25 -1.046875q-1.265625 -1.046875 -1.265625 -2.78125l2.640625 0q0 0.75 0.5625 1.234375q0.5625 0.46875 1.375 0.46875q0.9375 0 1.46875 -0.5q0.53125 -0.5 0.53125 -1.3125q0 -1.984375 -2.1875 -1.984375l-1.390625 0l0 -2.0625z" fill-rule="nonzero"/><path fill="#2fa4da" d="m664.8635 358.10498l0 0c0 -9.941132 8.058838 -18.0 18.0 -18.0l0 0c4.7738647 0 9.352234 1.8964233 12.727905 5.2720947c3.3756714 3.3756409 5.2720947 7.95401 5.2720947 12.727905l0 0c0 9.941132 -8.058899 18.0 -18.0 18.0l0 0c-9.941162 0 -18.0 -8.058868 -18.0 -18.0z" fill-rule="evenodd"/><path fill="#ffffff" d="m678.80853 358.50937l0.765625 -6.75l7.421875 0l0 2.203125l-5.265625 0l-0.328125 2.84375q0.9375 -0.5 2.0 -0.5q1.890625 0 2.953125 1.171875q1.078125 1.171875 1.078125 3.296875q0 1.28125 -0.546875 2.296875q-0.53125 1.015625 -1.546875 1.578125q-1.0 0.5625 -2.375 0.5625q-1.203125 0 -2.234375 -0.484375q-1.03125 -0.5 -1.625 -1.375q-0.59375 -0.890625 -0.640625 -2.015625l2.609375 0q0.078125 0.828125 0.578125 1.296875q0.5 0.453125 1.296875 0.453125q0.890625 0 1.375 -0.640625q0.484375 -0.640625 0.484375 -1.828125q0 -1.125 -0.5625 -1.71875q-0.546875 -0.609375 -1.5625 -0.609375q-0.9375 0 -1.53125 0.5l-0.25 0.234375l-2.09375 -0.515625z" fill-rule="nonzero"/><path fill="#2fa4da" d="m513.3412 44.939632l0 0c0 -9.941124 8.058899 -18.0 18.0 -18.0l0 0c4.773926 0 9.352295 1.8964233 12.727966 5.2720795c3.3756104 3.3756523 5.2720337 7.9540253 5.2720337 12.727921l0 0c0 9.941124 -8.058838 18.0 -18.0 18.0l0 0c-9.941101 0 -18.0 -8.058876 -18.0 -18.0z" fill-rule="evenodd"/><path fill="#ffffff" d="m534.03625 38.45338l0 2.171875l-0.265625 0q-1.78125 0.03125 -2.875 0.9375q-1.078125 0.890625 -1.296875 2.5q1.0625 -1.078125 2.671875 -1.078125q1.71875 0 2.734375 1.25q1.03125 1.234375 1.03125 3.25q0 1.296875 -0.5625 2.34375q-0.5625 1.046875 -1.59375 1.640625q-1.015625 0.578125 -2.3125 0.578125q-2.09375 0 -3.390625 -1.453125q-1.28125 -1.46875 -1.28125 -3.90625l0 -0.9375q0 -2.15625 0.8125 -3.8125q0.828125 -1.65625 2.34375 -2.5625q1.53125 -0.90625 3.546875 -0.921875l0.4375 0zm-2.578125 6.640625q-0.625 0 -1.15625 0.34375q-0.515625 0.328125 -0.765625 0.875l0 0.796875q0 1.328125 0.515625 2.078125q0.53125 0.734375 1.46875 0.734375q0.84375 0 1.359375 -0.671875q0.53125 -0.671875 0.53125 -1.734375q0 -1.078125 -0.53125 -1.75q-0.515625 -0.671875 -1.421875 -0.671875z" fill-rule="nonzero"/><path fill="#2fa4da" d="m514.1601 428.8819l0 0c0 -9.941132 8.058899 -18.0 18.0 -18.0l0 0c4.773926 0 9.352295 1.8964233 12.727905 5.272064c3.3756714 3.3756714 5.2720947 7.9540405 5.2720947 12.727936l0 0c0 9.941132 -8.058838 18.0 -18.0 18.0l0 0c-9.941101 0 -18.0 -8.058868 -18.0 -18.0z" fill-rule="evenodd"/><path fill="#ffffff" d="m535.4958 430.8175l1.5 0l0 2.109375l-1.5 0l0 2.875l-2.625 0l0 -2.875l-5.4375 0l-0.125 -1.65625l5.53125 -8.734375l2.65625 0l0 8.28125zm-5.5625 0l2.9375 0l0 -4.6875l-0.171875 0.296875l-2.765625 4.390625z" fill-rule="nonzero"/></g></svg>