<svg width="763" height="763" viewBox="0 0 763 763" fill="none" xmlns="http://www.w3.org/2000/svg">
<g clip-path="url(#clip0_626_76)">
<circle cx="378.5" cy="382.5" r="327" stroke="#2FA4DA" stroke-width="35"/>
<path fill-rule="evenodd" clip-rule="evenodd" d="M377.794 181.339C310.466 181.984 256.041 236.577 255.669 303.97C314.169 288.897 357.168 243.211 377.794 181.339ZM379 428C327.819 428 283.919 396.824 265.255 352.426C346.625 332.626 402.367 269.007 426.557 190.836C471.063 209.452 502.333 253.407 502.333 304.667C502.333 372.781 447.115 428 379 428ZM551.654 306.67C551.662 306.004 551.667 305.335 551.667 304.667C551.667 209.306 474.361 132 379 132C283.639 132 206.333 209.306 206.333 304.667C206.333 305.328 206.337 305.989 206.345 306.65C206.338 306.857 206.335 307.064 206.333 307.271C206.22 327.937 206.26 359.074 206.298 388.464C206.316 402.475 206.333 416.106 206.333 428C206.334 441.623 217.377 452.667 231 452.667H267.584C214.369 479.366 181.667 525.021 181.667 576C181.667 589.623 192.711 600.667 206.333 600.667C219.956 600.667 231 589.623 231 576C231 533.329 278.625 477.333 379 477.333C479.376 477.333 527 533.329 527 576C527 589.623 538.043 600.667 551.667 600.667C565.29 600.667 576.333 589.623 576.333 576C576.333 525.021 543.63 479.366 490.417 452.667H527C540.623 452.667 551.667 441.623 551.667 428C551.667 416.098 551.684 402.472 551.701 388.449V388.412C551.738 359.037 551.78 327.925 551.667 307.271C551.664 307.069 551.662 306.869 551.654 306.67Z" fill="#D07839"/>
<path d="M585.598 224.174L521.547 85.8262L673.385 99.5304L585.598 224.174Z" fill="#2FA4DA" stroke="white" stroke-width="10"/>
</g>
<defs>
<clipPath id="clip0_626_76">
<rect width="763" height="763" fill="white"/>
</clipPath>
</defs>
</svg>
