<svg width="947" height="583" viewBox="0 0 947 583" fill="none" xmlns="http://www.w3.org/2000/svg">
<g clip-path="url(#clip0_708_15)">
<path d="M646.663 77.1891C636.278 66.6909 623.909 58.364 610.275 52.6928C596.641 47.0218 582.014 44.1199 567.249 44.1566C552.481 44.1199 537.857 47.0218 524.223 52.6928C510.589 58.364 498.22 66.6909 487.835 77.1891L481.5 83.7503L475.165 77.4151C454.162 56.4148 425.678 44.617 395.978 44.617C366.277 44.617 337.793 56.4148 316.79 77.4151C296.062 98.5616 284.452 126.992 284.452 156.603C284.452 186.214 296.062 214.645 316.79 235.79L469.961 389.414C473.142 392.592 477.455 394.378 481.953 394.378C486.448 394.378 490.763 392.592 493.944 389.414L647.115 235.79C667.851 214.574 679.421 186.062 679.338 156.397C679.254 126.731 667.518 98.286 646.663 77.1891Z" fill="#2FA4DA"/>
<path d="M550.031 452.606L565.053 461.28L732.41 171.418L717.388 162.744L550.031 452.606Z" fill="#E535AB"/>
<path d="M881.305 429.449H546.591V446.796H881.305V429.449Z" fill="#E535AB"/>
<path d="M553.214 439.194L720.634 535.857L729.307 520.834L561.888 424.172L553.214 439.194Z" fill="#E535AB"/>
<path d="M698.651 187.267L866.071 283.929L874.744 268.907L707.325 172.244L698.651 187.267Z" fill="#E535AB"/>
<path d="M553.261 268.841L561.934 283.863L729.354 187.201L720.68 172.178L553.261 268.841Z" fill="#E535AB"/>
<path d="M695.627 171.421L862.984 461.283L878.006 452.609L710.65 162.747L695.627 171.421Z" fill="#E535AB"/>
<path d="M577.21 257.337H559.863V450.662H577.21V257.337Z" fill="#E535AB"/>
<path d="M868.138 257.337H850.791V450.662H868.138V257.337Z" fill="#E535AB"/>
<path d="M710.104 515.392L717.68 528.514L863.29 444.444L855.714 431.322L710.104 515.392Z" fill="#E535AB"/>
<path d="M891.127 456.305C881.095 473.757 858.732 479.713 841.281 469.681C823.829 459.649 817.873 437.286 827.905 419.835C837.937 402.383 860.3 396.427 877.751 406.459C895.307 416.595 901.264 438.854 891.127 456.305Z" fill="#E535AB"/>
<path d="M599.99 288.165C589.958 305.616 567.595 311.573 550.144 301.541C532.692 291.509 526.736 269.146 536.768 251.694C546.8 234.243 569.163 228.287 586.614 238.319C604.066 248.455 610.022 270.713 599.99 288.165Z" fill="#E535AB"/>
<path d="M536.872 456.305C526.84 438.854 532.797 416.595 550.248 406.459C567.7 396.427 589.958 402.383 600.095 419.835C610.127 437.286 604.17 459.545 586.719 469.681C569.163 479.713 546.904 473.757 536.872 456.305Z" fill="#E535AB"/>
<path d="M828.009 288.165C817.977 270.713 823.934 248.455 841.385 238.319C858.837 228.287 881.095 234.243 891.232 251.694C901.264 269.146 895.307 291.404 877.856 301.541C860.404 311.573 838.041 305.616 828.009 288.165Z" fill="#E535AB"/>
<path d="M714 558.611C693.832 558.611 677.53 542.309 677.53 522.14C677.53 501.972 693.832 485.67 714 485.67C734.169 485.67 750.471 501.972 750.471 522.14C750.471 542.204 734.169 558.611 714 558.611Z" fill="#E535AB"/>
<path d="M714 222.33C693.832 222.33 677.53 206.028 677.53 185.859C677.53 165.691 693.832 149.389 714 149.389C734.169 149.389 750.471 165.691 750.471 185.859C750.471 206.028 734.169 222.33 714 222.33Z" fill="#E535AB"/>
<path d="M286.298 541.778C280.989 541.712 275.688 541.696 270.382 541.696L256.692 541.708C256.692 541.708 217.53 541.692 198.812 541.692C195.873 541.692 192.926 541.704 189.983 541.712C187.036 541.72 184.093 541.731 181.146 541.731C179.302 541.731 177.466 541.727 175.625 541.716C164.489 541.649 153.843 540.321 143.986 537.756C104.738 527.557 75.0173 504.431 55.6483 469.033C46.3641 452.065 41.0863 433.082 39.9718 412.629C39.4774 403.533 39.9444 394.211 41.3649 384.928C41.5336 383.821 41.7377 382.714 41.9417 381.6L42.393 379.067L43.1582 379.815C43.5623 380.212 43.6879 380.626 43.7821 380.937C44.1627 382.177 44.5198 383.428 44.8808 384.671C45.6264 387.262 46.4033 389.944 47.3137 392.516C53.9884 411.425 64.1242 429.138 78.2977 446.695C78.8589 447.388 79.2827 448.156 79.526 448.9C84.3329 463.597 92.6871 476.29 104.349 486.664C115.694 496.75 129.294 504.303 144.83 509.155C134.866 504.918 125.645 499.505 117.35 493.009C103.82 482.412 94.0684 469.446 88.3786 454.466C87.8096 452.961 87.3308 451.145 88.1 449.134C88.355 448.448 88.5355 447.739 88.72 447.026C88.8455 446.535 88.9672 446.044 89.1202 445.557C92.1849 435.607 96.8387 427.805 103.349 421.717C109.411 416.043 117.134 411.893 126.96 409.024C136.134 406.343 145.708 405.135 154.965 403.966L158.932 403.459C164.116 402.785 169.37 401.99 174.448 401.21L177.505 400.743C178.643 400.571 179.773 400.326 180.942 400.072L183.795 399.48L183.046 400.747C182.987 400.856 182.94 400.945 182.857 401.039C178.05 406.386 174.016 412.329 170.869 418.724C170.602 419.266 170.03 419.765 169.48 419.94C168.797 420.162 168.119 420.381 167.44 420.607C165.278 421.328 163.049 422.053 160.781 422.501C158.34 422.984 155.84 423.335 153.419 423.67C151.481 423.943 149.542 424.212 147.616 424.562C141.129 425.708 136.11 427.778 132.316 430.938C133.148 430.739 134.007 430.615 134.851 430.494C136.028 430.326 137.237 430.147 138.339 429.769C144.319 427.704 150.88 426.745 158.991 426.745L160.086 426.749C161.542 426.764 162.994 426.831 164.469 426.901L167.318 427.018L167.106 427.715C161.287 446.597 161.452 465.124 167.573 482.888C165.011 470.841 164.544 459.653 166.129 448.838C168.554 432.31 175.884 418.066 187.931 406.503C196.054 398.705 206.244 392.157 219.08 386.499C230.228 381.576 241.843 378.622 252.783 376.011L254.851 375.516C262.652 373.653 270.72 371.728 278.537 369.448C290.258 366.038 300.444 360.43 308.814 352.753C310.066 351.603 311.49 350.298 312.613 348.856C320.606 338.567 329.926 331.268 341.093 326.536C341.415 326.4 341.78 326.061 342.015 325.675C345.669 319.751 350.052 315.391 355.416 312.331C356.613 311.649 357.806 311.306 358.963 311.306C360.431 311.306 361.898 311.867 363.331 312.947C363.872 313.36 364.367 313.793 364.802 314.233C366.682 316.108 368.189 318.415 369.554 321.478C369.723 321.844 369.876 321.961 370.288 322.012C371.65 322.191 373.054 322.374 374.447 322.647C397.254 327.129 413.134 344.557 415.893 368.139C415.968 368.766 416.019 369.402 416.07 370.033C416.191 371.529 416.313 373.073 416.764 374.464C417.329 376.222 418.181 377.952 419.013 379.612C419.377 380.349 419.75 381.101 420.096 381.853C420.39 382.5 420.7 383.139 421.006 383.778C421.732 385.294 422.474 386.842 423.09 388.428C424.035 390.848 424.145 393.35 423.419 395.864C423.105 396.943 422.446 397.103 422.081 397.103C421.803 397.103 421.504 397.013 421.202 396.826C420.574 396.425 419.99 395.98 419.405 395.521C419.13 395.295 418.848 395.088 418.565 394.878C418.251 394.636 417.941 394.398 417.635 394.145C416.901 393.576 416.215 393.022 415.45 392.605C415.175 392.453 414.888 392.368 414.61 392.368C414.319 392.368 414.041 392.453 413.782 392.621L414.857 393.576C416.776 395.267 418.691 396.963 420.574 398.681C420.971 399.04 421.234 399.698 421.198 400.24C420.975 403.779 419.731 406.713 417.49 408.974C414.822 411.655 412.024 412.957 408.944 412.957C408.284 412.957 407.613 412.894 406.931 412.773C406.805 413.962 406.55 414.406 405.553 414.936C399.251 418.331 393.106 419.983 386.777 419.983L385.788 419.975C381.475 419.975 377.277 421.191 372.568 423.799C370.947 424.691 369.515 425.303 368.177 425.654C364.131 426.721 360.046 427.123 356.354 427.294C357.939 427.513 359.595 427.618 361.373 427.618C362.507 427.618 363.676 427.571 364.94 427.489L365.662 427.415C366.195 427.364 366.737 427.318 367.255 427.318C367.949 427.318 368.522 427.403 369.005 427.602C372.305 428.943 375.53 430.564 378.552 432.1C379.145 432.404 379.572 432.528 379.969 432.528C380.188 432.528 380.4 432.485 380.624 432.404L381.507 432.076C383.159 431.457 384.866 430.817 386.494 430.1C390.367 428.389 393.707 427.583 397.003 427.583C397.886 427.583 398.769 427.649 399.644 427.766C401.904 428.07 404.541 428.584 406.919 430.038C408.092 430.755 409.658 431.951 409.803 434.185C409.811 434.224 409.889 434.356 410.074 434.528C410.36 434.789 410.658 435.038 410.964 435.287C411.27 435.537 411.584 435.798 411.879 436.075C413.723 437.754 414.535 439.882 414.308 442.404C414.237 443.109 414.08 444.762 412.656 444.762C412.224 444.762 411.718 444.606 411.015 444.251C410.721 444.099 410.45 443.978 410.203 443.908C410.898 444.329 411.573 444.754 412.236 445.202C413.809 446.266 414.578 447.895 414.504 450.042C414.355 454.719 409.395 459.146 404.297 459.146C403.693 459.146 403.097 459.072 402.528 458.951C401.025 458.624 399.157 458 398.031 456.059C397.996 456.005 397.866 455.919 397.839 455.911L396.975 455.95C395.951 455.989 394.899 456.032 393.922 456.254L393.636 456.321C391.976 456.702 390.265 457.081 388.515 457.081C387.817 457.081 387.161 457.018 386.526 456.897C385.745 456.753 384.972 456.562 384.179 456.367L383.606 456.231C382.7 459.15 381.236 461.89 379.254 464.392C374.816 469.996 368.899 473.948 361.176 476.461C355.577 478.293 349.557 479.209 343.275 479.209C339.975 479.209 336.51 478.963 332.982 478.464C319.068 476.489 309.356 468.975 304.105 456.137C303.223 453.986 302.63 451.702 302.049 449.489C301.771 448.421 301.484 447.33 301.17 446.266C299.522 440.697 297.446 435.786 294.817 431.227C290.046 422.953 284.144 417.056 276.771 413.202C270.877 410.119 264.426 408.557 257.606 408.557C254.749 408.557 251.763 408.826 248.722 409.367C248.106 409.476 247.494 409.609 246.87 409.741C249.016 409.839 251.057 409.956 253.117 410.154C262.656 411.113 271.344 414.024 278.937 418.802C289.269 425.315 295.61 433.405 298.31 443.53C299.82 449.189 301.979 454.824 304.722 460.284C306.307 463.449 308.324 467.112 311.228 470.206C315.332 474.567 320.622 477.549 327.869 479.571C329.851 480.128 331.821 480.733 333.779 481.356C334.862 481.703 335.615 482.447 336.082 483.644C337.216 486.567 337.499 489.548 336.918 492.49C336.067 496.812 333.999 500.815 330.589 504.724C327.897 507.806 324.554 510.047 321.32 512.218C319.696 513.297 318.169 514.447 316.78 515.628C315.591 516.641 314.975 517.966 315.042 519.361C315.144 521.661 315.316 521.747 315.748 521.747C316.109 521.747 316.678 521.61 317.596 521.314C318.048 521.166 318.495 520.987 318.938 520.792L321.63 519.638C323.168 518.98 324.703 518.317 326.253 517.678C329.612 516.287 332.935 515.573 336.122 515.573C337.825 515.573 339.528 515.776 341.187 516.17C347.152 517.588 351.068 521.107 352.826 526.637C353.297 528.134 353.23 529.412 352.61 530.453C352.202 531.143 351.268 531.719 350.491 531.743C349.769 531.743 349.094 531.108 348.576 530.542C348.286 530.227 348.215 529.814 348.16 529.455C348.137 529.338 348.117 529.214 348.09 529.104C347.56 527.136 346.826 525.85 345.72 524.989C347.697 527.659 348.584 530.511 348.423 533.68C348.259 536.825 345.888 539.015 342.651 539.015C342.518 539.015 342.388 539.011 342.247 539.003C341.019 538.929 340.238 538.271 340.108 537.187C340.022 536.439 340.022 535.667 340.018 534.927C340.018 534.619 340.018 534.307 340.01 534.003C340.002 533.598 340.006 533.204 340.01 532.799C340.01 531.934 340.014 531.119 339.904 530.316C339.661 528.586 338.625 527.417 336.824 526.844C336.698 526.797 336.573 526.766 336.439 526.754C336.985 527.062 337.456 527.487 337.789 528.103C338.456 529.33 339.025 530.449 339.335 531.653C340.136 534.853 339.347 537.347 337.055 538.875C335.867 539.658 334.344 539.95 333.002 540.137C332.457 540.215 331.923 540.239 331.385 540.239C329.38 540.239 327.418 539.771 325.527 539.327L324.565 539.097C322.772 538.688 321.183 538.481 319.656 538.477C318.354 538.477 317 538.727 315.689 538.968L315.081 539.077C305.141 540.854 296.206 541.716 287.774 541.716L286.298 541.778Z" fill="#E65270"/>
<path opacity="0.2" d="M367.2 426.574C367.2 426.574 352.543 443.94 327.653 433.99C304.855 424.867 313.166 399.757 313.166 399.757C313.166 399.757 317.208 415.33 329.003 421.231C346.081 429.777 367.2 426.574 367.2 426.574Z" fill="#430A1D"/>
<path opacity="0.2" d="M294.986 434.009C298.161 437.213 298.219 440.49 299.216 444.485C301.096 451.999 303.407 458.523 308.226 464.703C312.86 470.643 318.405 474.844 325.566 477.576C331.77 479.938 339.747 479.24 338.558 488.414L336.479 496.138C320.626 496.138 305.773 488.952 299.722 473.324C294.417 459.614 300.668 443.047 284.587 419.866C285.874 421.433 293.342 432.341 294.986 434.009Z" fill="#430A1D"/>
<g opacity="0.2">
<path d="M288.708 427.197C288.951 428.171 289.171 429.161 289.394 430.147C288.802 429.426 288.496 428.506 288.708 427.197Z" fill="#2B2B2B"/>
</g>
<path d="M95.2399 487.104C35.434 481.235 28.3943 422.111 28.3943 422.111C28.3943 422.111 25.1452 394.706 32.7264 367.823C37.5961 416.733 77.1031 450.596 77.1031 450.596C77.1031 450.596 85.7831 478.464 95.2399 487.104Z" fill="url(#paint0_linear_708_15)"/>
<path opacity="0.2" d="M80.3247 464.587C80.3247 464.587 67.7836 465.772 51.0476 445.596C67.1832 474.673 88.0943 475.265 88.0943 475.265L80.3247 464.587Z" fill="#2B2B2B"/>
<path d="M121.391 498.539C118.256 443.861 150.578 469.232 167.263 440.237C171.952 414.866 186.028 398.818 186.028 398.818C186.028 398.818 85.9417 380.181 84.3682 452.665C87.8527 468.359 103.172 483.535 112.762 491.746C110.887 487.545 86.9933 422.248 166.565 427.571C139.1 425.248 99.4443 453.745 118.346 496.434C120.242 497.806 121.391 498.539 121.391 498.539Z" fill="url(#paint1_linear_708_15)"/>
<path opacity="0.2" d="M148.447 419.688C127.76 427.412 92.6281 427.377 102.627 479.806C101.026 480.998 93.0284 468.683 95.0257 469.879C85.8278 423.004 127.14 425.713 148.447 419.688Z" fill="white"/>
<path opacity="0.6" d="M174.644 400.907C194.763 393.003 178.427 415.412 175.57 418.997C168.966 427.291 152.258 424.594 143.354 427.361C138.233 428.951 117.707 431.94 110.906 451.243C107.885 459.793 106.747 473.772 113.186 490.783C111.589 491.984 101.006 480.472 103.007 481.656C86.0242 406.324 166.129 433.362 174.644 400.907Z" fill="#8B4FBA"/>
<path d="M374.659 370.146C375.205 368.65 376.143 366.736 377.324 365.606C377.598 365.735 377.893 365.75 378.116 365.89C380.078 364.628 383.178 364.795 385.643 364.795C387.118 364.795 389.268 364.39 390.693 364.94C392.765 365.738 392.529 367.905 393.396 369.546C395.021 372.609 400.028 372.648 400.048 376.978C400.063 379.016 400.577 381.779 400.052 383.775C399.659 385.256 397.992 384.804 396.555 384.804C392.204 384.804 387.864 384.924 383.504 384.924L377.477 380.462C375.868 380.973 374.608 377.621 374.389 376.483C374.028 374.605 373.98 372.005 374.659 370.146Z" fill="#F9E0E7"/>
<path d="M394.77 376.078C395.508 375.778 396.595 374.605 397.05 373.915C397.38 373.42 397.285 373.104 397.992 373.124C399.832 373.174 399.848 375.641 399.754 376.916C399.644 378.545 398.981 380.041 398.741 381.643C398.145 381.495 397.815 380.751 397.144 380.564C396.61 380.408 395.845 380.482 395.288 380.505C394.472 380.54 393.342 381.086 392.604 380.774L394.77 376.078Z" fill="white"/>
<path d="M156.402 295.944C156.676 295.628 156.747 295.534 156.833 295.445C164.819 288.04 169.053 278.695 171.329 268.246C172.824 261.407 170.916 255.374 167.817 249.478C167.762 249.38 167.663 249.283 167.558 249.15C166.938 251.075 166.372 252.965 165.713 254.824C164.093 259.408 162.131 263.843 159.015 267.638C157.771 269.151 105.597 297.853 110.969 361.42C111.005 361.814 111.071 362.188 111.126 362.628C112.092 361.736 112.935 360.812 113.904 360.052C117.377 357.356 121.388 355.637 125.571 354.476C133.226 352.355 140.933 350.407 148.648 348.532C157.426 346.397 166.255 344.417 174.723 341.198C179.51 339.382 183.96 336.989 188.21 334.105C194.543 329.802 200.009 324.65 204.718 318.688C207.461 315.215 208.74 312.565 209.976 308.485C210.757 310.585 210.349 316.439 209.172 320.172C207.955 324.031 205.887 327.398 203.192 330.488C203.839 330.282 204.545 330.177 205.122 329.849C212.586 325.625 219.198 320.422 224.079 313.29C227.352 308.512 229.345 303.282 229.624 297.46C229.628 297.378 229.663 297.296 229.69 297.167C231.244 304.307 231.021 316.466 222.914 325.11C225.778 324.105 228.368 323.095 231.021 322.312C233.214 321.665 234.662 320.391 235.875 318.477C241.196 310.114 245.606 301.345 247.992 291.676C249.836 284.209 250.295 276.711 248.228 269.209C245.881 260.729 240.725 254.201 233.709 249.014C228.835 245.409 223.459 242.735 217.816 240.545C217.475 240.413 217.134 240.292 216.8 240.144C216.745 240.124 216.718 240.062 216.502 239.828C218.456 240.362 220.21 240.814 221.941 241.325C230.024 243.71 237.77 246.82 244.629 251.8C250.751 256.243 255.436 261.785 257.779 269.073C259.87 275.596 259.69 282.19 258.187 288.785C255.989 298.399 251.481 306.965 245.987 315.075C245.818 315.328 245.653 315.578 245.492 315.827C245.469 315.866 245.473 315.928 245.441 316.069C245.669 315.987 245.85 315.928 246.014 315.839C257.516 309.997 267.742 302.526 275.888 292.487C283.799 282.744 289.555 271.894 292.29 259.602C295.732 244.092 291.957 230.319 281.841 218.171C275.448 210.482 267.545 204.668 258.795 199.929C247.506 193.826 235.494 189.835 222.784 187.999C215.556 186.951 208.32 186.752 201.096 188.132C197.125 188.88 194.551 189.917 190.148 192.442C190.705 191.971 191.235 191.472 191.82 191.047C195.771 188.066 200.327 186.526 205.11 185.564C213.021 183.974 220.999 183.993 228.976 184.917C241.329 186.351 253.105 189.749 264.257 195.229C265.348 195.774 266.427 196.332 267.632 196.947C267.632 195.942 267.573 195.065 267.648 194.196C267.75 192.855 268.428 192.088 269.492 191.963C270.504 191.838 271.101 192.216 271.297 193.206C271.458 194.044 271.501 194.905 271.623 195.747C271.897 197.664 272.792 199.29 274.118 200.7C274.248 200.845 274.409 200.969 274.569 201.078C274.644 201.137 274.75 201.133 275.033 201.187C275.033 200.498 275.036 199.862 275.033 199.231C275.013 197.949 274.962 196.663 274.989 195.381C275.001 195.065 275.225 194.558 275.445 194.496C275.747 194.414 276.296 194.566 276.484 194.804C276.991 195.466 277.536 196.183 277.768 196.971C278.274 198.639 278.501 200.385 279.027 202.041C279.372 203.113 279.922 204.173 280.609 205.061C281.362 206.036 282.123 205.821 282.41 204.629C282.677 203.514 282.775 202.357 282.943 201.219C283.002 200.825 283.014 200.42 283.136 200.053C283.234 199.738 283.465 199.477 283.638 199.184C283.897 199.422 284.278 199.597 284.391 199.894C284.654 200.556 284.913 201.269 284.945 201.967C285.027 203.51 284.882 205.065 284.996 206.601C285.054 207.419 285.329 208.292 285.733 209.001C286.181 209.792 286.899 209.699 287.146 208.814C287.503 207.552 287.68 206.246 287.939 204.956C288.115 204.083 288.3 203.214 288.515 202.146C289.555 203.027 289.806 204.005 289.908 204.952C290.175 207.474 290.305 210.007 290.528 212.532C290.701 214.426 291.356 216.09 292.483 217.708C294.527 220.65 296.336 223.764 298.165 226.85C299.106 228.433 299.978 228.577 300.856 226.948C301.853 225.097 302.595 223.121 303.438 221.184C303.807 220.338 304.117 219.477 304.506 218.643C304.686 218.238 304.992 217.895 305.271 217.474C306.272 218.195 306.511 219.138 306.319 220.073C306.032 221.48 305.51 222.848 305.142 224.239C304.745 225.759 304.321 227.275 304.082 228.826C303.992 229.45 304.274 230.198 304.561 230.802C304.965 231.679 305.608 231.784 306.299 231.098C307.001 230.405 307.547 229.559 308.23 228.854C308.618 228.448 309.152 228.203 309.619 227.883C309.882 228.452 310.415 229.045 310.368 229.59C310.27 230.748 309.992 231.928 309.564 233.012C308.693 235.214 307.519 237.31 306.77 239.544C306.228 241.165 306.126 242.938 305.95 244.657C305.903 245.078 306.256 245.822 306.589 245.943C306.939 246.064 307.629 245.721 307.939 245.382C309.364 243.83 310.702 242.19 312.099 240.596C312.44 240.198 312.895 239.918 313.296 239.575C313.433 239.645 313.562 239.699 313.7 239.774C313.566 240.674 313.602 241.648 313.272 242.486C312.711 243.877 312.016 245.245 311.216 246.512C309.948 248.527 308.5 250.417 307.202 252.404C304.8 256.079 303.211 260.093 302.214 264.365C301.496 267.436 300.476 270.44 299.581 273.461C299.475 273.835 299.342 274.197 299.326 274.614C300.107 273.379 300.868 272.116 301.677 270.885C303.368 268.297 305.318 265.92 307.939 264.205C309.258 263.348 310.674 262.576 312.15 262.038C319.735 259.267 327.402 256.691 334.634 253.079C336.691 252.038 338.657 250.787 340.528 249.431C342.895 247.724 343.77 245.343 343.063 242.459C342.569 240.456 342.074 238.456 341.56 236.371C340.336 238.312 339.257 240.183 338.021 241.936C336.785 243.69 335.258 245.179 332.986 246.18C333.19 245.795 333.249 245.627 333.351 245.491C336.538 241.13 338.374 236.173 339.795 231.04C339.94 230.51 339.775 229.871 339.681 229.298C339.029 225.557 339.343 221.807 339.512 218.054C339.551 217.31 339.551 216.535 339.445 215.794C339.402 215.451 339.12 215.022 338.825 214.894C338.625 214.804 338.103 215.077 337.927 215.315C337.197 216.336 336.381 217.337 335.89 218.464C333.916 223.02 332.025 227.614 330.141 232.197C327.795 237.922 325.15 243.48 321.12 248.258C319.299 250.421 317.224 252.303 314.677 253.616C314.19 253.862 313.672 254.061 313.127 254.232C317.071 250.183 317.957 245.058 318.134 239.816C318.365 233.105 318.232 226.379 318.299 219.66C318.369 212.396 318.974 205.194 321.155 198.194C321.238 197.918 321.101 197.512 320.947 197.236C320.331 196.043 319.551 194.929 319.04 193.697C317.969 191.113 317.074 188.463 316.027 185.864C315.415 184.336 315.207 184.223 313.559 184.34C311.785 184.465 310.725 183.455 309.784 182.204C309.066 181.257 308.771 181.281 308.277 182.391C307.739 183.599 307.315 184.843 306.735 186.031C306.535 186.437 306.024 186.702 305.656 187.029C305.373 186.616 304.902 186.211 304.855 185.77C304.702 184.332 304.741 182.882 304.639 181.44C304.592 180.723 304.494 179.998 304.251 179.328C304.133 179.012 303.646 178.67 303.297 178.642C303.046 178.623 302.611 179.048 302.505 179.367C302.147 180.392 301.936 181.46 301.61 182.493C301.347 183.323 300.974 183.412 300.476 182.734C296.846 177.824 292.004 174.344 286.828 171.249C285.302 170.337 283.799 169.383 282.28 168.463C282.174 168.498 282.068 168.537 281.97 168.564C282.162 170.236 282.363 171.904 282.555 173.572C282.418 173.646 282.28 173.708 282.147 173.779C281.668 173.373 281.119 173.038 280.718 172.563C279.71 171.382 278.8 170.127 277.779 168.95C275.762 166.596 273.22 164.912 270.775 164.355C271.548 166.986 272.286 169.476 273.016 171.974C272.902 172.033 272.776 172.079 272.662 172.13C272.407 171.818 272.113 171.53 271.905 171.191C271.313 170.236 270.728 169.285 270.186 168.303C267.855 164.114 264.261 161.697 259.544 161.023C256.335 160.563 253.089 160.259 249.856 160.041C247.482 159.877 245.21 159.53 243.036 158.498C241.514 157.816 239.881 157.348 238.28 156.818C238.009 156.724 237.656 156.837 237.342 156.857C237.366 157.196 237.295 157.59 237.433 157.87C238.186 159.336 239.006 160.766 239.763 162.231C240.042 162.757 240.223 163.338 240.442 163.895C240.368 163.977 240.297 164.051 240.226 164.133C239.744 163.973 239.242 163.864 238.79 163.646C236.703 162.64 234.584 161.693 232.567 160.563C230.511 159.41 228.25 159.316 226.022 159.129C219.056 158.548 212.178 159.012 205.448 161.035C201.355 162.258 197.572 164.106 194.245 166.962C194.665 166.92 195.096 166.92 195.504 166.845C199.57 166.015 203.635 165.236 207.818 165.372C210.663 165.462 213.437 165.914 215.941 167.348C216.337 167.574 216.592 168.05 216.914 168.404C216.353 168.599 215.764 168.973 215.227 168.903C213.928 168.751 212.656 168.272 211.35 168.167C207.182 167.796 203.172 168.751 199.205 169.839C189.599 172.457 180.899 176.912 172.82 182.645C170.85 184.036 168.805 185.326 166.761 186.62C162.774 189.137 159.545 192.392 156.994 196.332C156.696 196.799 156.417 197.302 156.229 197.82C155.707 199.262 156.092 200.467 157.465 201.184C158.442 201.698 159.533 202.064 160.616 202.325C174.974 205.802 185.667 217.556 187.323 232.096C187.947 237.548 188.712 243.016 188.437 248.546C187.805 261.239 183.226 272.299 174.695 281.746C169.622 287.366 163.622 291.836 157.057 295.597C156.927 295.686 156.786 295.745 156.402 295.944Z" fill="url(#paint2_linear_708_15)"/>
<path opacity="0.2" d="M340.387 211.683C334.289 258.987 313.15 248.281 299.322 274.688C298.565 273.691 296.822 281.766 300.307 266.773C303.795 251.765 313.79 258.542 323.251 241.379C335.231 219.683 332.837 217.739 340.387 211.683Z" fill="#8B4FBA"/>
<path opacity="0.3" d="M277.238 212.571C274.97 226.11 255.695 225.498 239.202 219.754C221.277 213.51 184.042 211.507 181.044 218.955C179.549 220.662 176.547 213.643 176.547 213.643C176.547 213.643 204.828 182.999 252.171 215.342C250.244 212.365 269.186 203.65 269.186 203.65C269.186 203.65 274.883 201.932 277.238 212.571Z" fill="white"/>
<path opacity="0.2" d="M179.141 342.57C180.169 345.103 188.543 343.396 189.328 339.44C176.975 325.543 209.497 300.005 179.502 266.672C199.134 318.095 157.343 320.188 179.141 342.57Z" fill="#8B4FBA"/>
<path opacity="0.6" d="M179.141 342.569C180.169 345.102 179.985 344.378 180.77 340.422C168.417 326.521 201.32 306.251 179.502 266.672C199.134 318.095 157.343 320.188 179.141 342.569Z" fill="#8B4FBA"/>
<path d="M224.158 332.422C283.52 270.382 208.473 280.772 184.015 238.663C184.058 237.938 184.109 237.237 184.109 236.492C184.109 230.639 182.681 225.128 180.193 220.241C203.086 253.963 261.122 224.228 249.848 293.165C248.832 296.712 240.756 331.646 224.158 332.422Z" fill="url(#paint3_linear_708_15)"/>
<path d="M224.158 332.421C199.715 344.335 178.349 344.682 179.361 341.147C227.921 308.423 188.72 274.7 179.581 242.934C180.205 240.37 184.109 239.415 184.109 236.504C184.109 236.192 184.074 235.896 184.066 235.588C184.772 238.741 186.444 239.836 188.045 241.434C210.616 264.045 282.363 271.602 224.158 332.421Z" fill="url(#paint4_linear_708_15)"/>
<path d="M216.502 331.498C254.094 275.737 183.917 265.144 184.427 247.467C178.835 283.827 246.101 299.393 182.9 342.913C181.888 346.444 192.059 343.411 216.502 331.498Z" fill="#E65271"/>
<path d="M321.54 234.633C324.526 239.586 321.21 245.432 317.734 250.908C314.524 255.966 306.774 254.31 301.516 266.504L301.967 257.003C307.794 246.921 297.937 233.043 295.194 223.662C290.524 207.684 285.447 192.941 291.635 176.729C292.055 175.641 292.412 174.449 292.836 173.33C295.92 175.594 298.251 177.851 300.907 181.292C302.661 183.576 302.049 175.4 304.357 177.118C306.052 178.361 304.274 184.145 305.891 185.482C307.704 187.002 308.795 178.202 310.109 180.15C313.174 184.726 314.932 181.822 316.238 183.194C317.42 184.437 320.182 194.02 321.297 195.318C322.387 196.577 323.427 197.875 324.455 199.18C323.835 206.156 322.47 213.997 320.21 220.291C318.079 226.238 317.977 228.717 321.54 234.633Z" fill="url(#paint5_linear_708_15)"/>
<path d="M237.982 161.795C238.162 161.861 238.319 161.888 238.413 161.884C240.058 161.857 233.983 154.269 235.729 154.269C238.676 154.269 242.84 157.294 245.724 157.516C251.814 157.979 258.128 157.843 263.523 160.294C268.695 162.648 270.995 169.956 272.152 170.263C273.318 170.583 269.339 161.818 270.48 162.208C272.415 162.855 273.961 163.806 275.236 164.858C280.338 172.111 281.994 208.054 274.51 207.127C266.647 206.153 286.914 209.886 286.997 209.586C293.773 184.172 278.674 168.545 279.357 169.426C280.247 170.595 280.969 171.503 281.735 171.795C283.347 172.411 280.734 165.669 282.205 166.561C286.887 169.402 290.207 171.405 292.934 173.424C293.016 173.541 293.04 173.822 293.173 173.767C295.182 172.937 307.582 170.041 298.145 214.282C312.475 185.478 301.257 174.176 302.355 175.357C307.445 180.813 308.485 194.134 309.14 202.033C309.76 209.442 305.067 226.332 298.985 231.917C294.703 235.845 294.79 230.982 293.181 227.225C290.54 221.055 285.698 216.083 281.303 211.001C278.03 207.22 274.059 204.457 270.461 201.075C266.541 197.388 264.477 192.236 260.973 188.19C257.841 184.574 253.988 181.694 251.01 177.921C247.67 173.697 245.433 168.864 241.745 164.975C240.572 163.728 239.261 162.793 237.982 161.795Z" fill="#E65271"/>
<path d="M265.462 157.757C274.22 157.73 279.718 161.896 286.965 165.879C292.973 169.195 300.354 169.226 305.428 173.794C312.165 179.87 315.081 185.891 316.348 194.784C317.796 204.909 317.969 217.817 316.042 227.906C315.053 233.082 311.349 243.69 307.445 247.474L302.759 244.512C293.518 220.813 265.666 211.09 255.126 187.797C252.018 180.941 250.849 172.032 250.774 164.542C250.692 156.701 259.081 157.776 265.462 157.757Z" fill="url(#paint6_linear_708_15)"/>
<path d="M178.313 216.979C173.22 209.118 165.156 203.338 155.683 201.238C153.274 200.704 148.958 199.215 153.231 194.106C157.802 187.021 164.371 184.301 167.907 181.697C182.123 171.214 176.245 170.142 184.541 169.191C187.782 168.817 186.926 168.536 188.571 169.191C190.215 169.846 187.307 168.731 186.267 168.049C177.014 161.966 177.681 174.102 181.66 171.479C193.503 162.383 220.783 155.999 228.431 157.301C229.545 157.488 237.232 161.9 238.41 161.88C240.054 161.853 233.979 154.265 235.726 154.265C238.672 154.265 242.836 157.289 245.72 157.511C251.688 157.967 269.837 166.233 269.708 187.995C269.668 194.644 270.08 199.305 269.178 203.642C262.562 235.475 195.567 190.801 178.313 216.979Z" fill="#F6E8A0"/>
<path d="M258.505 197.356C255.401 193.506 235.223 186.565 235.223 186.565C235.223 186.565 201.712 175.096 170.811 207.758C186.605 195.307 214.359 200.529 234.431 202.828C237.083 203.136 228.698 200.478 230.895 199.671C238.351 196.932 245.253 204.609 252.685 203.128C256.15 202.438 258.234 200.572 258.505 197.356Z" fill="white"/>
<path d="M232.802 191.967C220.496 188.748 208.195 193.459 205.824 193.604C206.939 191.94 208.756 188.101 217.871 186.776C219.967 186.468 224.165 186.803 226.367 186.799C230.306 186.791 232.751 187.734 236.228 189.399C238.445 190.459 243.805 191.589 245.508 191.324C245.508 191.324 264.367 192.735 258.12 199.087C251.881 205.435 242.769 190.899 222.78 195.548C222.784 194.901 227.352 191.663 232.802 191.967Z" fill="#F6E8A0"/>
<path d="M214.147 165.626C206.37 160.513 192.773 164.897 191.007 164.874C190.968 164.695 191.074 164.496 191.392 164.297C203.239 155.201 220.791 156.012 228.439 157.313C228.497 157.321 228.58 157.348 228.666 157.38C228.702 157.391 228.756 157.411 228.804 157.43C230.459 158.062 235.871 161.09 237.841 161.756C249.369 168.245 267.585 181.947 269.19 203.655C262.64 200.763 257.932 197.945 254.314 195.202C253.097 194.278 225.543 165.677 152.615 200.042C152.615 200.042 150.586 198.935 151.744 196.348C168.213 170.065 198.283 162.516 246.167 187.407C239.379 179.371 236.087 172.088 214.147 165.626Z" fill="#F8D285"/>
<path d="M260.765 313.341C287.778 285.909 298.785 265.413 285.71 243.343C264.536 207.575 199.326 244.883 170.968 208.795C173.973 212.205 180.362 218.959 186.542 222.279C207.563 235.919 247.129 231.531 259.737 242.077C275.955 255.639 280.098 282.986 260.765 313.341Z" fill="url(#paint7_linear_708_15)"/>
<path d="M172.769 256.005C172.737 257.845 176.975 268.457 176.312 270.9C170.622 291.762 145.964 301.996 145.964 301.996C145.964 301.996 118.35 313.033 113.963 363.478C108.925 367.079 109.623 359.413 109.78 356.007C112.916 289.849 168.334 297.245 172.769 256.005Z" fill="url(#paint8_linear_708_15)"/>
<path d="M266.717 365.325C266.262 365.119 265.827 364.846 265.352 364.71C262.931 364.039 260.494 363.424 258.069 362.738C257.304 362.523 256.574 362.177 255.824 361.892C255.828 361.728 255.836 361.569 255.84 361.409C256.711 361.253 257.57 360.98 258.442 360.968C261.922 360.929 265.407 360.976 268.891 360.984C273.808 360.996 278.748 360.972 283.493 359.546C285.808 358.844 288.064 357.792 290.187 356.619C312.605 344.226 328.446 326.089 337.978 302.468C339.928 297.639 341.423 292.647 342.576 287.581C342.647 287.3 342.679 287.008 342.765 286.52C342.392 286.747 342.153 286.856 341.929 287C328.211 296.334 313.229 302.663 296.877 305.737C291.034 306.833 285.129 307.382 279.184 307.554C278.737 307.565 278.172 307.733 277.877 308.037C268.985 317.043 258.485 323.7 247.152 329.234C238.115 333.649 228.568 336.323 218.754 338.217C206.17 340.645 193.554 342.952 180.966 345.356C165.509 348.306 150.131 351.584 135.188 356.604C125.712 359.784 116.525 363.607 108.128 369.082C101.806 373.213 96.1794 378.093 92.2004 384.589C90.8035 386.881 89.8107 389.418 88.61 391.83C88.3902 392.263 88.1548 392.715 87.8173 393.046C79.4827 401.141 76.2022 410.989 77.4814 422.415C78.4311 430.868 81.4761 438.6 85.8278 445.876C86.3419 446.73 86.7774 447.618 87.1777 448.371C87.3857 446.527 87.5505 444.462 87.8409 442.416C89.6812 429.395 96.4345 419.699 107.92 413.222C114.603 409.442 121.799 406.944 129.259 405.307C137.437 403.514 145.685 402.006 153.929 400.521C163.939 398.724 174.005 397.224 183.736 394.176C185.627 393.588 187.499 392.906 189.355 392.204C191.749 391.312 193.986 390.162 196.069 388.627C202.968 383.58 210.525 379.714 218.495 376.62C218.711 376.538 218.923 376.444 219.135 376.362C219.146 376.331 219.15 376.288 219.182 376.199C219.052 376.187 218.938 376.171 218.821 376.171C209.905 376.179 200.978 376.226 192.063 376.179C184.089 376.128 176.139 376.374 168.228 377.407C157.276 378.849 146.678 381.666 136.357 385.567C124.181 390.182 112.656 396.086 101.485 402.711C101.186 402.89 100.876 403.062 100.476 403.132C100.684 402.964 100.88 402.777 101.084 402.622C113.316 393.412 126.339 385.548 140.705 380.033C150.708 376.203 161.036 373.685 171.709 372.563C181.111 371.577 190.517 371.67 199.927 372.348C208.065 372.937 216.199 373.525 224.342 374.079C225.048 374.137 225.805 374.036 226.488 373.837C234.536 371.405 242.773 369.975 251.088 368.802C255.997 368.104 260.843 366.935 265.709 365.972C266.042 365.906 266.356 365.735 266.67 365.606C266.686 365.516 266.702 365.423 266.717 365.325Z" fill="url(#paint9_linear_708_15)"/>
<path opacity="0.2" d="M116.883 392.578C148.761 354.756 231.472 374.581 266.717 365.329C244.401 378.061 226.249 375.859 226.249 375.859C226.249 375.859 150.088 367.508 116.883 392.578Z" fill="white"/>
<path d="M360.631 249.049C359.552 249.232 358.755 249.283 358.026 249.516C355.153 250.409 352.159 251.071 349.467 252.357C346.905 253.585 344.531 255.327 342.31 257.12C338.005 260.596 333.897 264.295 329.651 267.814C326.174 270.694 322.482 273.27 318.087 274.607C316.67 275.035 315.199 275.281 313.715 275.522C319.445 272.658 322.65 267.553 325.974 262.315C325.692 262.365 325.59 262.354 325.515 262.389C316.78 266.633 308.222 271.165 300.448 277.038C298.373 278.609 296.736 280.394 295.567 282.83C293.699 286.703 291.333 290.347 289.183 294.081C289.088 294.248 288.986 294.412 288.723 294.86C290.607 294.467 292.255 294.205 293.872 293.796C300.715 292.058 307.08 289.116 313.327 285.92C323.086 280.904 332.37 275.105 341.388 268.882C341.658 268.694 341.937 268.515 342.298 268.406C342.216 268.519 342.149 268.644 342.051 268.737C331.358 279.326 319.366 288.048 305.349 293.827C299.287 296.337 293.005 298.009 286.463 298.683C286.22 298.718 285.902 298.792 285.765 298.96C284.309 300.71 282.888 302.479 281.28 304.455C285.266 303.605 289.022 302.861 292.753 302C303.191 299.591 313.425 296.532 323.2 292.12C330.42 288.862 337.299 285.031 343.095 279.583C350.739 272.389 356.366 263.878 359.646 253.909C360.129 252.447 360.278 250.857 360.631 249.049Z" fill="#E65271"/>
<path opacity="0.6" d="M180.052 345.317C183.148 344.284 186.675 343.006 190.438 341.571C234.803 327.83 249.463 316.376 249.463 316.376L294.029 283.609C294.029 283.609 301.312 289.147 310.737 281.906C304.313 289.564 284.603 295.522 284.603 295.522C284.603 295.522 283.693 301.547 277.265 306.228C294.806 300.308 324.271 302.003 344.715 283.722C329.255 327.152 290.858 294.045 253.749 321.057C249.464 323.609 192.863 337.978 220.991 336.992C249.114 336.01 267.647 355.071 291.141 348.824C269.088 356.767 249.601 344.038 218.884 341.899C223.663 342.85 230.212 345.465 233.002 349.039C221.866 341.143 200.072 340.78 194.896 342.585C190.191 343.177 185.251 344.066 180.052 345.317Z" fill="#8B4FBA"/>
<path opacity="0.2" d="M286.463 358.712C254.141 371.463 139.901 334.526 88.61 391.83C88.61 391.83 84.7684 390.123 105.193 367.383C185.51 329.253 245.284 365.309 286.463 358.712Z" fill="#2B2B2B"/>
<path opacity="0.7" d="M336.439 307.916C346.002 302.573 338.233 315.632 328.674 323.345C291.027 349.456 274 319.744 236.663 334.043C293.793 302.768 299.389 341.744 336.439 307.916Z" fill="url(#paint10_radial_708_15)"/>
<path opacity="0.2" d="M333.516 315.328C343.083 309.985 338.233 315.632 328.674 323.349C291.027 349.46 274 319.748 236.663 334.047C273.42 313.734 296.469 349.152 333.516 315.328Z" fill="#8B4FBA"/>
<path opacity="0.7" d="M147.651 301.326C130.236 317.156 143.892 351.822 143.892 351.822L131.496 354.46C131.496 354.46 118.986 320.948 147.651 301.326Z" fill="url(#paint11_radial_708_15)"/>
<path opacity="0.7" d="M177.709 274.771C190.835 297.971 156.025 329.885 174.719 341.183C174.421 342.706 164.03 347.882 164.516 346.385C141.447 311.229 179.494 302.846 174.499 280.866C147.82 317.012 147.533 324.167 160.494 347.052C160.333 347.176 158.909 349.024 157.492 347.972C137.225 332.878 131.519 315.921 177.709 274.771Z" fill="url(#paint12_radial_708_15)"/>
<path opacity="0.2" d="M220.602 321.919C221.434 332.784 229.074 315.134 230.232 302.951C231.229 257.362 184.686 268.387 182.559 231.504C178.031 273.461 228.395 272.542 220.602 321.919Z" fill="#8B4FBA"/>
<path opacity="0.3" d="M265.729 303.836C266.553 314.701 288.519 286.735 289.681 274.556C282.311 196.336 201.249 243.909 180.055 215.093C197.56 246.656 310.867 202.739 265.729 303.836Z" fill="white"/>
<path d="M414.049 456.141C412.86 457.178 411.883 458.121 410.807 458.939C409.944 459.59 408.998 460.167 408.025 460.646C405.655 461.784 403.269 461.932 400.872 460.67C397.14 458.705 393.138 458.557 389.053 459.002C387.864 459.126 387.087 459.687 386.541 460.79C382.449 469.154 375.629 474.524 367.086 477.922C366.109 478.312 365.65 478.764 365.477 479.82C365.042 482.482 364.861 485.101 365.497 487.755C366.529 491.999 369.189 495.043 372.768 497.385C376.519 499.84 380.698 501.286 385.019 502.362C390.21 503.636 395.465 504.497 400.829 504.482C403.556 504.478 406.252 504.162 408.873 503.375C414.731 501.617 418.345 497.732 419.676 491.859C420.535 488.043 421.347 484.189 421.74 480.311C422.638 471.422 420.241 463.444 414.327 456.601C414.221 456.468 414.151 456.309 414.049 456.141Z" fill="url(#paint13_linear_708_15)"/>
<path opacity="0.3" d="M397.12 456.8C397.564 459.47 402.61 460.195 404.953 460.117C409.077 459.98 411.745 457.591 414.425 454.489C414.857 453.983 415.194 453.484 415.489 452.973C420.158 456.672 422.768 461.68 422.05 466.789C420.778 475.791 409.615 481.664 397.124 479.922C388.488 478.714 381.475 474.174 378.399 468.511C380.683 465.612 381.577 461.929 384.587 459.419C387.518 456.987 393.31 456.637 397.12 456.8Z" fill="#F6E8A0"/>
<path d="M93.4014 372.149C96.1051 373.474 97.9886 373.763 99.6641 373.163C97.7374 363.42 96.729 353.595 97.0704 343.708C97.4549 332.764 99.362 322.109 104.196 312.133C104.809 310.866 105.519 309.638 106.351 308.469C106.3 308.664 106.268 308.863 106.194 309.042C103.592 315.531 102.391 322.304 101.995 329.257C101.379 340.091 102.662 350.754 105.02 361.311C105.075 361.568 105.154 361.818 105.26 362.192C106.802 361.163 108.305 360.181 109.768 359.148C109.945 359.02 109.949 358.548 109.91 358.248C109.16 351.837 109.215 345.43 109.91 339.019C110.906 329.861 113.182 321.034 116.428 312.437C120.952 300.433 127.077 289.287 134.564 278.87C134.737 278.629 134.914 278.387 135.078 278.141C135.114 278.087 135.11 278.021 135.161 277.822C134.07 278.204 133.05 278.551 132.029 278.917C125.139 281.396 118.39 284.194 111.891 287.577C110.875 288.099 109.894 288.757 109.035 289.51C99.8878 297.553 94.4962 307.725 92.0594 319.522C91.6945 321.275 91.4355 323.06 90.945 324.822C91.0548 322.866 91.1059 320.901 91.2785 318.945C92.0947 309.635 93.8487 300.496 97.0076 291.676C97.812 289.435 97.2509 287.413 96.9095 285.308C96.8035 284.654 96.3366 284.053 96.0305 283.426C95.5243 283.913 94.9004 284.322 94.5354 284.899C91.9377 289.003 90.2661 293.508 88.8927 298.13C86.7934 305.2 85.5416 312.472 84.5096 319.775C83.5521 326.595 82.94 333.454 82.9714 340.348C83.0067 347.32 83.5443 354.23 85.8791 360.886C86.9896 364.051 88.4846 367.017 90.6389 369.608C91.408 370.536 92.3537 371.327 93.2131 372.184C93.2798 372.169 93.3386 372.161 93.4014 372.149Z" fill="url(#paint14_linear_708_15)"/>
<path opacity="0.2" d="M125.225 278.071C125.225 278.071 107.779 280.507 100.421 292.424C93.0599 304.334 90.9449 324.818 90.9449 324.818C90.9449 324.818 87.1778 355.368 99.664 373.158C91.7532 307.92 125.225 278.071 125.225 278.071Z" fill="#2B2B2B"/>
<path d="M84.6608 372.149C84.598 372.161 84.5392 372.169 84.4764 372.176C80.878 370.781 78.0645 368.377 75.769 365.356C72.4218 360.953 70.6599 355.859 69.5769 350.532C67.9641 342.589 67.8267 334.561 68.5135 326.529C68.9059 321.942 69.5847 317.37 70.1419 312.807C70.1615 312.643 70.1655 312.483 70.1812 312.152C69.8986 312.394 69.6985 312.53 69.5376 312.698C56.192 326.435 46.1622 342.254 39.5934 360.208C39.4208 360.676 39.4757 361.307 39.6248 361.798C43.5449 374.246 49.219 385.895 56.1685 396.924C59.1037 401.577 62.341 406.043 65.4449 410.591C65.6882 410.95 65.9707 411.273 66.418 411.85C66.5279 409.562 67.7561 407.711 66.8104 405.47C65.5979 402.614 64.817 399.609 64.9779 396.444C65.0407 395.275 65.3232 394.184 66.1394 393.1C66.9517 395.392 67.5795 397.649 69.3885 399.375C69.9182 398.436 70.0242 397.617 69.6907 396.612C68.431 392.878 67.556 389.063 67.7954 385.092C67.8699 383.876 68.1485 382.679 68.4821 381.456C69.5769 384.437 71.3858 386.877 73.4773 389.219C73.599 389.04 73.7089 388.923 73.7756 388.782C76.5655 383.054 80.1403 377.851 84.3979 373.104C84.5902 372.878 84.5784 372.469 84.6608 372.149Z" fill="url(#paint15_linear_708_15)"/>
<path opacity="0.2" d="M71.1622 387.426C71.1622 387.426 51.5421 349.292 60.7243 316.544C61.8662 315.648 58.8839 317.959 55.3327 322.016C54.7911 322.631 48.2106 365.875 61.564 384.94C43.6155 363.794 52.115 326.01 51.3576 327.113C49.7527 329.467 48.3126 332.067 47.363 334.783C38.1847 377.48 69.9065 403.178 69.9065 403.178L71.1622 387.426Z" fill="#2B2B2B"/>
<path d="M380.153 524.72C379.341 525.944 378.403 527.176 377.657 528.532C376.97 529.763 376.833 531.166 377.288 532.554C377.849 534.268 379.007 534.927 380.8 534.678C382.24 534.459 383.684 534.241 385.132 534.194C386.671 534.144 386.781 534.35 386.953 535.835C386.996 536.229 387.047 536.634 387.193 536.993C387.773 538.462 388.633 539.728 390.351 539.954C392.019 540.173 393.192 539.245 394.095 537.971C396.783 534.19 394.554 529.081 389.884 528.466C388.436 528.275 386.926 528.508 385.442 528.547C385.156 528.559 384.873 528.61 384.587 528.633C384.516 528.551 384.446 528.458 384.371 528.376C384.771 527.912 385.081 527.296 385.584 527.004C386.651 526.408 387.789 526.162 389.1 526.31C397.093 527.218 404.717 526.279 411.498 521.521C415.261 518.875 418.039 515.402 420.166 511.372C420.178 511.345 420.205 511.318 420.217 511.291C420.484 510.558 421.029 509.666 420.303 509.108C419.88 508.781 418.914 508.925 418.275 509.132C415.289 510.106 412.389 511.341 409.367 512.16C404.949 513.36 400.373 513.399 395.829 513.153C389.688 512.826 383.653 511.856 377.853 509.693C371.351 507.269 365.485 503.847 360.395 499.135C359.811 498.59 359.218 498.056 358.563 497.615C357.452 496.883 356.695 497.245 356.652 498.578C356.62 499.521 356.715 500.492 356.93 501.419C359.104 510.839 364.861 517.464 373.364 521.84C375.589 522.998 377.983 523.812 380.153 524.72Z" fill="#E65270"/>
<path d="M33.7269 349.39C33.3855 383.377 44.3924 412.871 67.3087 437.914C66.9869 435.607 66.5592 433.3 66.363 430.997C66.0373 427.065 65.8293 423.121 65.6371 419.169C65.5978 418.366 65.3938 417.731 64.9386 417.088C56.3568 404.792 48.4852 392.072 42.2068 378.435C39.0205 371.518 36.2972 364.413 34.8374 356.915C34.3626 354.491 34.1076 352.032 33.7269 349.39Z" fill="url(#paint16_linear_708_15)"/>
<path d="M322.341 237.63C326.445 230.58 330.679 223.795 332.182 215.802C332.433 214.465 332.355 213.043 332.272 211.663C331.825 203.955 332.629 196.429 335.145 189.087C335.368 188.436 335.639 187.75 335.623 187.088C335.612 186.538 335.325 185.903 334.956 185.47C334.485 184.921 333.846 185.116 333.241 185.459C331.307 186.546 329.902 188.144 328.776 190.003C326.484 193.74 325.264 197.879 324.412 202.108C322.078 213.702 321.724 225.424 322.184 237.209C322.187 237.272 322.227 237.326 322.341 237.63Z" fill="url(#paint17_linear_708_15)"/>
<path opacity="0.4" d="M324.758 192.719C325.503 191.145 328.572 187.699 329.804 186.706L332.578 184.948C329.792 192.01 328.792 199.196 328.792 206.718C328.792 213.055 330.757 218.939 331.067 225.245C331.319 230.44 329.039 233.051 326.323 237.279C325.099 239.181 323.427 243.301 320.767 243.316C319.535 240.311 319.735 236.547 319.704 233.332C319.668 229.485 319.048 225.732 319.201 221.847C319.492 214.512 323.478 195.424 324.758 192.719Z" fill="#8B4FBA"/>
<path d="M420.276 496.485C420.158 496.578 420.119 496.594 420.107 496.617C417.09 502.779 411.726 505.468 405.243 506.01C394.535 506.914 384.261 504.922 374.514 500.472C370.406 498.593 366.89 495.865 364.912 491.672C364.057 489.86 363.641 487.841 363.001 485.849C360.874 485.838 358.343 487.927 358.175 490.179C358.12 490.912 358.43 491.73 358.763 492.416C360.109 495.179 362.271 497.272 364.63 499.166C370.692 504.026 377.634 507.093 385.16 508.901C395.045 511.279 404.929 511.349 414.708 508.406C417.023 507.709 419.217 506.54 421.367 505.402C423.031 504.517 423.878 503.005 423.631 501.037C423.364 498.917 422.258 497.397 420.276 496.485Z" fill="#E65270"/>
<path opacity="0.4" d="M420.276 496.485C420.158 496.578 420.119 496.594 420.107 496.617C417.09 502.779 411.726 505.468 405.243 506.01C394.535 506.914 384.261 504.922 374.514 500.472C370.406 498.593 366.89 495.865 364.912 491.672C364.057 489.86 363.641 487.841 363.001 485.849C360.874 485.838 358.343 487.927 358.175 490.179C358.12 490.912 358.43 491.73 358.763 492.416C360.109 495.179 362.271 497.272 364.63 499.166C370.692 504.026 377.634 507.093 385.16 508.901C395.045 511.279 404.929 511.349 414.708 508.406C417.023 507.709 419.217 506.54 421.367 505.402C423.031 504.517 423.878 503.005 423.631 501.037C423.364 498.917 422.258 497.397 420.276 496.485Z" fill="#2B2B2B"/>
<path d="M312.754 398.701C312.679 402.509 313.48 406.09 315.132 409.488C318.475 416.312 323.989 420.775 330.895 423.701C336.918 426.258 343.24 427.127 349.754 426.792C349.836 426.788 349.918 426.753 350.197 426.667C345.641 425.97 341.399 424.843 337.303 423.218C330.2 420.401 323.937 416.394 319.076 410.42C316.466 407.224 314.5 403.666 313.158 399.761C313.04 399.402 312.891 399.052 312.754 398.701Z" fill="#0D0D0D"/>
<path d="M365.948 344.214C372.96 339.963 374.475 329.974 369.982 324.265C371.037 331.397 369.586 338.022 365.948 344.214Z" fill="#0D0D0D"/>
<path d="M377.512 383.412C380.942 386.203 385.066 386.974 389.371 386.9C391.089 386.857 392.8 386.577 394.519 386.495C395.449 386.452 396.422 386.511 397.336 386.709C399.071 387.103 399.844 386.838 400.436 385.186C401.778 381.417 402.41 377.512 401.959 373.533C401.739 371.623 401.339 369.667 400.578 367.917C397.584 360.968 388.519 358.112 381.805 361.908C380.942 362.395 380.126 362.964 379.353 363.595C378.536 364.254 377.799 365.018 376.951 365.805C377.328 366.237 377.642 366.654 377.995 367.017C378.807 367.843 379.113 368.821 378.866 369.92C378.097 373.373 379.6 375.824 382.5 377.395C384.572 378.517 386.84 379.324 389.096 380.072C390.257 380.466 391.454 380.747 392.671 380.988C393.043 380.977 393.2 380.914 393.491 380.684C395.3 379.523 396.595 377.999 397.395 376.004C397.827 377.181 397.741 379.137 397.36 380.591C397.124 381.487 397.277 383.685 397.737 384.324C397.701 384.363 397.666 384.406 397.642 384.441C397.427 384.34 397.215 384.231 397.011 384.11C394.688 382.695 392.09 382.247 389.441 381.92C386.165 381.507 382.978 380.762 380.188 378.888C376.829 376.631 375.028 373.494 374.836 369.46C374.828 369.336 374.809 369.219 374.765 368.887C371.728 374.784 372.658 379.457 377.512 383.412Z" fill="#0D0D0D"/>
<path d="M381.958 370.719C381.958 374.386 384.952 377.359 388.637 377.359C392.333 377.359 395.327 374.386 395.327 370.719C395.327 367.051 392.333 364.078 388.637 364.078C384.952 364.078 381.958 367.051 381.958 370.719Z" fill="url(#paint18_linear_708_15)"/>
<g clip-path="url(#clip1_708_15)">
<path d="M384.155 369.613C384.3 369.613 384.445 369.573 384.573 369.493L386.152 368.513C386.383 368.37 386.523 368.119 386.523 367.848V365.888C386.523 365.617 386.383 365.366 386.152 365.223L384.573 364.243C384.445 364.164 384.3 364.124 384.155 364.124C384.009 364.124 383.864 364.164 383.736 364.243L382.157 365.223C381.927 365.366 381.786 365.617 381.786 365.888V367.848C381.786 368.119 381.927 368.37 382.157 368.513L383.736 369.493C383.864 369.573 384.009 369.613 384.155 369.613Z" fill="white"/>
</g>
<path d="M411.847 482.611C413.032 483.344 414.881 483.032 415.567 481.738C418.416 476.352 418.157 470.078 415.367 464.723C413.766 461.652 408.971 464.131 410.568 467.19C412.471 470.85 412.86 475.347 410.964 478.936C410.286 480.222 410.529 481.805 411.847 482.611Z" fill="white"/>
<path opacity="0.2" d="M121.529 498.118C119.841 450.108 149.644 465.725 162.904 445.455C163.987 444.193 164.618 442.774 165.113 441.675C150.229 449.812 108.513 444.376 121.529 498.118Z" fill="#430A1D"/>
<path opacity="0.2" d="M98.8321 404.523C139.764 369.526 220.575 373.346 226.488 373.841C192.593 397.851 90.9055 375.279 87.1777 448.363C80.5736 427.606 89.0769 412.867 98.8321 404.523Z" fill="#2B2B2B"/>
<path opacity="0.2" d="M164.257 443.581C164.257 443.581 164.253 454.189 164.257 461.683C164.261 469.174 154.777 465.089 151.12 454.805C160.259 451.247 164.257 443.581 164.257 443.581Z" fill="#430A1D"/>
<path opacity="0.2" d="M159.187 447.139C166.043 435.124 158.999 424.73 157.904 424.286C161.801 424.083 169.284 416.827 171.065 414.41C173.851 410.626 174.02 405.131 174.256 400.638C179.785 400.392 183.673 397.029 188.704 395.836C184.427 399.815 178.623 404.523 176.025 409.886C173.714 414.648 171.76 420.131 170.206 425.198C168.939 429.348 167.757 433.472 166.973 437.755C166.392 440.942 164.497 445.233 164.842 448.339C164.842 448.339 164.136 476.286 169.778 490.086C159.097 486.473 153.49 477.814 151.543 474.462C149.342 470.67 145.194 461.243 150.331 455.237C153.651 454.033 157.284 450.471 159.187 447.139Z" fill="#430A1D"/>
<path d="M59.1053 483.441C80.6168 512.877 109.388 531.793 145.147 540.013C157.061 542.752 169.174 543.505 181.393 543.458C211.287 543.329 241.176 543.403 271.065 543.399C291.172 543.392 311.279 543.399 331.381 543.349C336.165 543.341 340.936 543.025 345.512 541.443C350.001 539.9 353.466 537.168 355.392 532.744C358.159 526.357 355.797 518.321 349.832 513.991C345.453 510.819 340.43 509.895 335.137 510.129C333.716 510.199 332.296 510.417 330.879 510.562C330.553 510.597 330.204 510.671 329.894 510.601C329.439 510.503 329.007 510.277 328.568 510.113C328.819 509.747 328.999 509.303 329.329 509.034C334.795 504.416 338.558 498.726 340.359 491.82C341.015 489.306 341.207 486.754 340.972 484.178C340.956 483.975 340.94 483.776 340.932 483.585C340.881 482.252 341.337 481.839 342.663 481.777C346.571 481.598 350.48 481.446 354.376 481.142C356.24 480.994 358.08 480.542 360.18 480.409C359.932 480.729 359.752 481.2 359.426 481.348C356.311 482.779 354.274 485.164 353.254 488.344C352.057 492.089 351.217 495.916 351.39 499.887C351.657 506.302 354.168 511.82 358.257 516.688C361.934 521.053 366.462 524.338 371.583 526.832C372.242 527.152 372.415 527.433 372.187 528.173C371.532 530.27 371.61 532.39 372.356 534.486C372.807 535.765 373.635 536.692 374.816 537.351C377.508 538.84 380.608 539.054 383.543 537.83C383.626 538.247 383.696 538.719 383.802 539.124C384.65 542.32 386.726 543.59 389.861 545.461C390.591 545.461 391.321 545.461 392.051 545.461C392.141 545.461 392.223 545.231 392.313 545.215C397.835 544.292 400.154 539.28 399.514 534.533C399.349 533.31 398.992 532.105 398.753 531.002C401.252 530.348 403.83 529.841 406.291 528.988C417.651 525.059 425.15 517.444 428.328 505.846C429.596 501.204 428.811 497.046 425.185 493.601C424.957 493.375 424.938 492.829 424.993 492.459C425.695 488.075 426.786 483.722 427.072 479.31C427.751 468.842 424.439 459.664 417.113 452.014C416.682 451.566 416.654 451.184 416.768 450.635C417.251 448.288 417.804 445.946 418.094 443.573C418.695 438.783 416.854 434.816 413.641 431.359C413.358 431.051 413.04 430.72 412.907 430.338C412.008 427.676 410.152 425.864 407.7 424.64C402.755 422.166 397.513 421.663 392.109 422.555C388.57 423.144 385.34 424.625 382.142 426.129C380.73 426.792 379.439 427.123 378.132 425.989C377.912 425.798 377.563 425.751 377.355 425.572C376.994 425.233 376.386 424.761 376.457 424.477C376.551 424.04 377.069 423.545 377.524 423.366C380.012 422.392 382.582 421.866 385.278 421.866C387.299 421.866 389.331 421.811 391.332 421.573C397.717 420.806 403.571 418.518 409.069 415.26C409.434 415.042 409.842 414.855 410.254 414.788C417.36 413.709 423.07 408.163 424.31 401.14C424.436 400.431 424.42 399.617 424.789 399.051C427.798 394.429 428.046 389.519 426.303 384.472C425.201 381.28 423.67 378.221 422.458 375.068C421.814 373.373 421.151 371.627 420.986 369.865C420.547 364.865 419.88 359.912 418.53 355.083C415.646 344.771 410.505 335.835 402.253 328.824C393.922 321.751 384.155 318.025 373.337 316.883C372.383 316.786 371.881 316.482 371.461 315.546C369.099 310.227 365.214 306.489 359.622 304.549C358.171 304.046 356.723 303.933 355.357 304.545C353.411 305.437 351.429 306.326 349.683 307.549C345.115 310.714 341.501 314.825 338.499 319.475C338.268 319.826 338.005 320.285 337.656 320.402C337.185 320.554 336.49 320.609 336.129 320.359C335.851 320.172 335.788 319.416 335.898 318.976C336.023 318.458 336.424 317.998 336.738 317.542C344.688 306.123 349.746 293.562 352.073 279.872C352.151 279.443 352.457 278.979 352.783 278.656C354.733 276.68 356.754 274.774 358.689 272.783C361.789 269.606 363.688 265.764 364.7 261.492C364.963 260.374 365.089 259.224 365.167 258.082C365.191 257.736 364.849 257.369 364.677 257.011C364.304 257.225 363.817 257.354 363.59 257.662C363.06 258.379 362.687 259.201 362.201 259.941C361.879 260.432 361.459 260.849 361.078 261.321C360.961 261.044 360.988 260.888 361.047 260.744C363.131 255.483 364.575 250.062 365.273 244.442C365.469 242.879 365.603 241.293 365.642 239.719C365.673 238.573 364.908 237.848 364.135 238.156C363.723 238.324 363.366 238.667 363.048 238.982C359.956 242.022 356.311 244.279 352.575 246.414C352.493 246.301 352.43 246.251 352.426 246.192C352.324 245.639 352.222 245.093 352.139 244.54C351.139 238.051 349.416 231.741 347.427 225.482C345.904 220.705 345.045 215.821 345.884 210.786C346.387 207.789 347.458 205.069 350.02 203.159C350.217 203.015 350.346 202.785 350.57 202.528C350.272 202.376 350.087 202.228 349.879 202.185C346.175 201.374 342.349 201.85 340.273 206.071C340.038 206.542 339.724 206.967 339.292 207.676C338.825 206.749 338.362 206.141 338.213 205.478C337.475 202.15 337.295 198.763 337.609 195.361C338.005 191.16 339.5 187.313 341.34 183.564C341.815 182.59 342.267 181.588 342.573 180.56C343.118 178.693 342.07 177.313 340.104 177.344C339.127 177.364 338.099 177.516 337.197 177.855C332.354 179.663 328.674 182.839 326.225 187.387C326.025 187.758 325.845 188.124 325.625 188.568C323.682 186.694 321.913 184.866 320.99 182.364C320.398 180.762 319.621 179.219 318.817 177.719C318.236 176.643 317.804 176.666 317.098 177.644C316.906 177.91 316.737 178.198 316.529 178.451C315.987 179.102 315.568 179.106 315.14 178.369C314.759 177.722 314.473 177.009 314.214 176.312C312.95 172.921 310.886 170.107 308.045 167.859C307.853 167.714 307.633 167.601 307.182 167.325C307.347 168.396 307.484 169.227 307.594 170.061C307.712 170.914 307.81 171.768 307.92 172.668C307.661 172.637 307.586 172.644 307.535 172.613C307.256 172.438 306.978 172.255 306.707 172.064C295.233 164.188 282.688 158.716 269.127 155.52C264.995 154.546 260.663 154.203 256.931 151.872C256.848 151.818 256.743 151.791 256.652 151.748C255.915 151.459 255.373 151.619 254.8 152.188C254.435 152.547 253.784 152.706 253.266 152.699C251.606 152.66 249.954 152.297 248.302 152.161C246.787 152.036 245.226 151.693 243.766 151.331C241.27 150.703 238.841 148.291 236.385 148.291C235.788 148.291 235.184 148.291 234.591 148.291C234.019 148.291 233.34 149.928 232.877 150.501C232.064 151.51 231.068 152.691 229.792 152.773C221.34 153.295 212.986 154.511 204.761 156.549C192.236 159.636 180.467 164.425 169.927 171.955C162.225 177.461 155.617 184.001 150.931 192.29C149.974 193.974 149.217 195.782 148.459 197.563C147.882 198.935 147.745 200.385 148.224 201.823C148.624 203.003 149.523 203.658 150.731 203.471C157.618 202.396 163.445 204.894 168.821 208.771C174.165 212.633 178.239 217.583 180.562 223.772C183.983 232.914 182.131 241.099 175.68 248.343C175.029 249.076 174.291 249.739 173.498 250.534C173.2 249.423 172.953 248.414 172.659 247.404C171.199 242.455 169.115 237.837 165.568 233.978C163.508 231.73 162.692 234.391 163.21 238.464C164.324 247.124 161.648 254.571 155.577 260.83C155.208 261.216 154.651 261.453 154.129 261.637C147.733 263.889 141.294 266.025 134.933 268.375C123.577 272.568 112.613 277.615 102.222 283.827C102.081 283.909 101.932 283.987 101.779 284.069C100.794 283.438 100.39 282.494 100.433 281.442C100.488 280.039 100.72 278.636 100.884 277.237C100.9 277.07 100.955 276.914 100.971 276.75C101.308 274.275 100.335 273.469 98.0395 274.575C96.8897 275.133 95.8342 276.056 95.0062 277.034C92.3614 280.179 90.7212 283.905 89.1476 287.639C88.3157 289.611 87.6565 291.653 86.8168 293.621C86.5107 294.342 86.028 295.067 85.4316 295.569C76.4338 303.169 68.0521 311.345 60.9457 320.761C54.8595 328.828 49.6641 337.406 45.4458 346.58C45.3399 346.821 45.2182 347.055 45.1005 347.289C45.0691 347.344 45.0063 347.371 44.8729 347.492C43.4917 339.452 43.217 331.447 44.0293 323.36C43.3818 325.761 42.6637 328.15 42.0986 330.57C39.7913 340.329 39.0732 350.208 39.7599 360.204C39.7952 360.711 39.6657 361.257 39.5088 361.748C36.5148 371.093 34.4429 380.645 33.5639 390.407C30.4914 424.516 38.8378 455.701 59.1053 483.441ZM50.9473 378.435C57.2257 392.072 65.0973 404.792 73.6791 417.088C74.1304 417.735 74.3384 418.37 74.3776 419.169C74.5699 423.12 74.7779 427.061 75.1036 430.997C75.2998 433.312 75.7275 435.619 76.0493 437.914C53.133 412.871 42.1261 383.377 42.4675 349.39C42.852 352.028 43.1032 354.491 43.578 356.907C45.0377 364.413 47.761 371.51 50.9473 378.435ZM135.161 277.814C135.11 278.013 135.114 278.079 135.078 278.133C134.913 278.375 134.737 278.617 134.564 278.862C127.077 289.279 120.952 300.429 116.427 312.429C113.182 321.026 110.906 329.861 109.91 339.011C109.215 345.422 109.16 351.829 109.91 358.24C109.949 358.54 109.945 359.012 109.768 359.14C108.305 360.181 106.798 361.163 105.26 362.184C105.158 361.814 105.075 361.568 105.02 361.303C102.658 350.746 101.375 340.091 101.995 329.249C102.395 322.304 103.592 315.527 106.194 309.034C106.268 308.847 106.3 308.648 106.351 308.461C105.519 309.642 104.808 310.858 104.196 312.125C99.3619 322.105 97.4509 332.756 97.0702 343.7C96.7288 353.583 97.7373 363.412 99.664 373.155C97.9884 373.751 96.1088 373.466 93.4013 372.141C93.3189 372.465 93.3267 372.874 93.1384 373.092C88.8808 377.847 85.306 383.05 82.516 388.771C82.4454 388.915 82.3395 389.028 82.2178 389.207C80.1263 386.853 78.3173 384.418 77.2225 381.444C76.889 382.66 76.6104 383.86 76.5358 385.08C76.2965 389.059 77.1715 392.867 78.4311 396.6C78.7647 397.606 78.6587 398.424 78.129 399.363C76.32 397.641 75.6922 395.38 74.8799 393.089C74.0637 394.172 73.7812 395.271 73.7184 396.433C73.5575 399.597 74.3384 402.602 75.5509 405.458C76.4966 407.692 75.2723 409.55 75.1585 411.838C74.7112 411.261 74.4247 410.942 74.1853 410.579C71.0814 406.031 67.8441 401.569 64.909 396.912C57.9595 385.879 52.2854 374.242 48.3653 361.787C48.2162 361.296 48.1612 360.664 48.3339 360.196C54.9027 342.25 64.9286 326.423 78.2781 312.686C78.439 312.518 78.6391 312.382 78.9216 312.14C78.9059 312.468 78.902 312.631 78.8824 312.795C78.3252 317.366 77.6463 321.938 77.2539 326.517C76.5672 334.553 76.7046 342.577 78.3173 350.52C79.4004 355.847 81.1662 360.937 84.5094 365.345C86.805 368.361 89.6185 370.77 93.2208 372.165C92.3536 371.307 91.4118 370.52 90.6427 369.589C88.4884 366.997 86.9934 364.027 85.8829 360.867C83.5441 354.214 83.0105 347.309 82.9751 340.329C82.9398 333.427 83.552 326.579 84.5134 319.755C85.5454 312.452 86.7971 305.192 88.8965 298.11C90.2699 293.488 91.9376 288.983 94.5392 284.879C94.9042 284.311 95.5281 283.893 96.0343 283.406C96.3364 284.034 96.8034 284.634 96.9133 285.289C97.2586 287.397 97.8158 289.42 97.0114 291.657C93.8525 300.48 92.0985 309.611 91.2823 318.925C91.1096 320.882 91.0586 322.846 90.9488 324.802C91.4393 323.041 91.6982 321.256 92.0632 319.502C94.5 307.705 99.8916 297.534 109.038 289.49C109.898 288.738 110.879 288.079 111.895 287.557C118.393 284.182 125.143 281.376 132.033 278.897C133.05 278.543 134.066 278.192 135.161 277.814ZM335.627 187.091C335.643 187.754 335.372 188.44 335.148 189.091C332.629 196.433 331.825 203.962 332.276 211.667C332.358 213.047 332.437 214.473 332.186 215.806C330.683 223.795 326.449 230.584 322.344 237.634C322.23 237.33 322.191 237.275 322.191 237.229C321.736 225.455 322.089 213.721 324.42 202.127C325.276 197.89 326.492 193.759 328.784 190.022C329.91 188.167 331.315 186.569 333.249 185.478C333.85 185.139 334.489 184.94 334.964 185.49C335.325 185.907 335.615 186.542 335.627 187.091ZM340.528 249.516C338.656 250.861 336.69 252.124 334.634 253.156C327.398 256.769 319.731 259.341 312.15 262.116C310.674 262.654 309.258 263.425 307.939 264.283C305.318 265.99 303.368 268.383 301.676 270.97C300.868 272.194 300.111 273.457 299.326 274.7C299.346 274.283 299.475 273.917 299.581 273.539C300.476 270.514 301.496 267.514 302.214 264.443C303.215 260.16 304.8 256.157 307.201 252.486C308.5 250.502 309.948 248.604 311.216 246.59C312.016 245.327 312.715 243.955 313.272 242.568C313.602 241.734 313.566 240.759 313.7 239.851C313.566 239.785 313.437 239.719 313.295 239.657C312.895 239.992 312.44 240.284 312.099 240.674C310.706 242.26 309.368 243.901 307.939 245.459C307.629 245.806 306.939 246.145 306.589 246.021C306.256 245.9 305.903 245.163 305.95 244.735C306.126 243.016 306.228 241.243 306.77 239.621C307.515 237.388 308.693 235.296 309.564 233.086C309.991 232.01 310.27 230.818 310.368 229.664C310.415 229.119 309.882 228.526 309.619 227.961C309.152 228.277 308.614 228.53 308.23 228.931C307.547 229.645 307.001 230.479 306.299 231.18C305.604 231.862 304.961 231.749 304.561 230.88C304.274 230.272 303.988 229.524 304.082 228.908C304.321 227.361 304.745 225.841 305.141 224.313C305.51 222.926 306.032 221.554 306.319 220.155C306.515 219.208 306.272 218.269 305.271 217.556C304.992 217.961 304.686 218.308 304.506 218.717C304.113 219.551 303.803 220.424 303.438 221.258C302.595 223.183 301.853 225.175 300.856 227.022C299.977 228.647 299.11 228.503 298.164 226.924C296.336 223.838 294.527 220.728 292.482 217.782C291.356 216.164 290.701 214.5 290.528 212.606C290.301 210.089 290.175 207.548 289.908 205.026C289.806 204.087 289.551 203.109 288.515 202.22C288.296 203.284 288.111 204.157 287.938 205.034C287.68 206.32 287.503 207.629 287.146 208.888C286.899 209.777 286.181 209.866 285.733 209.075C285.329 208.358 285.054 207.501 284.995 206.682C284.886 205.139 285.027 203.588 284.944 202.041C284.913 201.339 284.658 200.634 284.391 199.968C284.277 199.683 283.897 199.492 283.638 199.258C283.465 199.547 283.234 199.812 283.135 200.127C283.014 200.498 283.002 200.899 282.943 201.293C282.774 202.431 282.68 203.596 282.41 204.703C282.123 205.907 281.362 206.11 280.608 205.135C279.918 204.243 279.372 203.187 279.027 202.119C278.497 200.459 278.274 198.72 277.767 197.045C277.532 196.261 276.99 195.544 276.484 194.878C276.296 194.636 275.747 194.48 275.444 194.57C275.221 194.628 275.001 195.139 274.989 195.459C274.962 196.737 275.013 198.023 275.032 199.305C275.036 199.94 275.032 200.576 275.032 201.261C274.75 201.199 274.64 201.203 274.569 201.16C274.408 201.051 274.248 200.919 274.118 200.774C272.792 199.375 271.901 197.75 271.622 195.821C271.501 194.967 271.458 194.114 271.297 193.276C271.1 192.286 270.504 191.908 269.492 192.033C268.428 192.158 267.753 192.925 267.647 194.266C267.573 195.139 267.632 196.012 267.632 197.017C266.423 196.402 265.348 195.837 264.257 195.303C253.105 189.819 241.329 186.421 228.976 184.987C220.999 184.063 213.021 184.04 205.11 185.634C200.327 186.596 195.771 188.144 191.82 191.117C191.239 191.546 190.705 192.045 190.148 192.512C194.551 189.983 197.125 188.95 201.096 188.202C208.324 186.822 215.56 187.029 222.784 188.069C235.494 189.905 247.505 193.884 258.795 200.003C267.545 204.742 275.448 210.552 281.841 218.242C282.323 218.811 282.778 219.407 283.23 219.991C270.143 213.783 255.361 225.463 240.576 220.28C260.839 230.654 272.839 217.291 284.266 225.938C287.173 228.136 287.691 233.807 281.044 232.856C274.703 231.956 290.595 235.073 293.444 251.477C293.283 254.154 292.906 256.878 292.29 259.665C289.559 271.953 283.799 282.806 275.888 292.549C267.742 302.573 257.512 310.044 246.014 315.885C245.849 315.924 245.669 315.983 245.441 316.076C245.473 315.94 245.469 315.87 245.492 315.835C245.653 315.582 245.818 315.332 245.983 315.087C251.476 306.977 255.989 298.414 258.183 288.796C259.689 282.21 259.87 275.608 257.775 269.084C255.432 261.8 250.747 256.255 244.625 251.812C237.766 246.831 230.016 243.721 221.936 241.336C220.21 240.826 218.452 240.374 216.498 239.84C216.718 240.074 216.741 240.136 216.796 240.155C217.13 240.296 217.471 240.424 217.812 240.557C223.455 242.747 228.831 245.42 233.705 249.033C240.721 254.213 245.881 260.736 248.223 269.221C250.291 276.723 249.832 284.225 247.988 291.688C245.606 301.353 241.196 310.11 235.871 318.481C234.654 320.395 233.206 321.669 231.017 322.316C228.368 323.091 225.778 324.101 222.914 325.106C231.021 316.462 231.244 304.303 229.69 297.167C229.663 297.292 229.628 297.374 229.624 297.46C229.345 303.274 227.352 308.512 224.079 313.29C219.197 320.422 212.586 325.621 205.122 329.849C204.545 330.176 203.839 330.282 203.191 330.488C205.891 327.398 207.959 324.031 209.172 320.172C210.349 316.439 210.757 310.585 209.976 308.485C208.744 312.565 207.461 315.223 204.718 318.695C200.009 324.65 194.543 329.806 188.206 334.093C183.956 336.981 179.506 339.37 174.719 341.186C166.255 344.409 157.426 346.385 148.644 348.521C140.929 350.395 133.222 352.34 125.566 354.464C121.387 355.625 117.373 357.336 113.9 360.041C113.28 358.669 112.115 353.821 112.072 349.97C111.566 304.584 147.929 280.324 159.011 267.627C162.236 263.928 164.089 259.396 165.709 254.813C166.368 252.954 166.933 251.067 167.553 249.138C167.659 249.275 167.761 249.368 167.812 249.466C170.909 255.37 172.816 261.399 171.324 268.235C169.049 278.691 164.815 288.028 156.829 295.433C156.743 295.515 156.672 295.62 156.397 295.932C156.786 295.733 156.923 295.682 157.053 295.597C163.618 291.84 169.618 287.374 174.691 281.746C183.222 272.299 187.801 261.243 188.433 248.546C188.708 243.016 187.943 237.556 187.319 232.096C185.663 217.563 174.974 205.798 160.612 202.325C159.533 202.064 158.438 201.694 157.461 201.184C156.084 200.455 155.703 199.262 156.225 197.82C156.413 197.302 156.692 196.799 156.99 196.332C159.541 192.395 162.774 189.141 166.757 186.62C168.801 185.33 170.846 184.044 172.816 182.645C180.895 176.908 189.591 172.457 199.201 169.838C203.168 168.759 207.178 167.804 211.346 168.167C212.652 168.272 213.924 168.751 215.222 168.903C215.76 168.973 216.349 168.595 216.918 168.424C216.596 168.077 216.341 167.601 215.944 167.379C213.437 165.945 210.663 165.501 207.822 165.407C203.643 165.267 199.573 166.054 195.508 166.877C195.1 166.958 194.668 166.958 194.249 166.994C197.58 164.133 201.359 162.286 205.452 161.066C212.181 159.035 219.06 158.579 226.025 159.16C228.254 159.347 230.514 159.437 232.571 160.594C234.587 161.724 236.706 162.672 238.794 163.677C239.245 163.895 239.748 164.004 240.23 164.164C240.301 164.082 240.372 164.012 240.446 163.93C240.226 163.369 240.046 162.792 239.767 162.262C239.014 160.797 238.194 159.367 237.436 157.901C237.299 157.625 237.366 157.227 237.346 156.888C237.66 156.873 238.013 156.756 238.284 156.849C239.885 157.379 241.517 157.847 243.04 158.556C245.218 159.585 247.486 159.936 249.86 160.096C253.093 160.318 256.334 160.622 259.548 161.078C264.265 161.752 267.859 164.168 270.19 168.358C270.736 169.336 271.316 170.294 271.909 171.249C272.121 171.588 272.411 171.877 272.666 172.185C272.78 172.134 272.906 172.091 273.019 172.029C272.286 169.534 271.552 167.044 270.779 164.414C273.223 164.967 275.766 166.647 277.783 169.004C278.803 170.181 279.714 171.44 280.722 172.617C281.126 173.085 281.672 173.428 282.151 173.833C282.284 173.759 282.421 173.701 282.559 173.623C282.362 171.955 282.162 170.291 281.974 168.615C282.072 168.58 282.178 168.541 282.284 168.513C283.803 169.433 285.309 170.38 286.832 171.3C292.004 174.394 296.85 177.878 300.48 182.789C300.978 183.467 301.351 183.369 301.614 182.547C301.939 181.514 302.151 180.447 302.508 179.422C302.614 179.11 303.05 178.685 303.301 178.701C303.65 178.728 304.137 179.071 304.255 179.387C304.498 180.049 304.596 180.778 304.643 181.499C304.741 182.941 304.706 184.391 304.859 185.825C304.906 186.265 305.377 186.674 305.659 187.084C306.032 186.756 306.542 186.499 306.738 186.086C307.315 184.905 307.743 183.654 308.281 182.45C308.775 181.335 309.069 181.316 309.787 182.263C310.729 183.514 311.789 184.523 313.562 184.398C315.21 184.274 315.418 184.394 316.031 185.918C317.078 188.518 317.969 191.168 319.044 193.752C319.554 194.983 320.335 196.105 320.951 197.29C321.104 197.571 321.238 197.972 321.159 198.249C318.977 205.244 318.373 212.45 318.303 219.715C318.236 226.437 318.369 233.16 318.138 239.871C317.961 245.12 317.074 250.241 313.131 254.287C313.676 254.115 314.194 253.92 314.681 253.671C317.223 252.361 319.303 250.479 321.124 248.312C325.15 243.526 327.799 237.985 330.145 232.252C332.025 227.661 333.92 223.074 335.894 218.522C336.384 217.392 337.201 216.394 337.93 215.369C338.107 215.128 338.629 214.851 338.829 214.952C339.123 215.081 339.406 215.517 339.449 215.849C339.551 216.589 339.551 217.369 339.516 218.109C339.347 221.862 339.033 225.611 339.685 229.352C339.779 229.925 339.944 230.568 339.798 231.094C338.382 236.227 336.541 241.184 333.355 245.545C333.257 245.682 333.194 245.849 332.99 246.235C335.262 245.23 336.789 243.741 338.025 241.991C339.261 240.233 340.344 238.367 341.564 236.426C342.078 238.507 342.573 240.51 343.067 242.513C343.769 245.424 342.89 247.806 340.528 249.516ZM343.095 279.591C337.295 285.031 330.42 288.87 323.2 292.128C313.425 296.54 303.191 299.599 292.753 302.008C289.022 302.869 285.266 303.613 281.279 304.463C282.884 302.487 284.305 300.718 285.765 298.968C285.902 298.8 286.216 298.726 286.463 298.691C293.004 298.017 299.291 296.337 305.349 293.835C319.362 288.06 331.358 279.33 342.051 268.745C342.149 268.648 342.219 268.523 342.298 268.414C341.933 268.523 341.658 268.702 341.388 268.889C332.366 275.109 323.086 280.908 313.327 285.928C307.08 289.124 300.715 292.066 293.872 293.804C292.259 294.213 290.611 294.486 288.723 294.868C288.986 294.424 289.088 294.26 289.182 294.089C291.333 290.355 293.699 286.711 295.567 282.837C296.736 280.402 298.372 278.617 300.448 277.046C308.218 271.173 316.78 266.641 325.515 262.397C325.593 262.362 325.691 262.373 325.974 262.323C322.65 267.56 319.444 272.658 313.715 275.53C315.199 275.289 316.67 275.043 318.087 274.614C322.482 273.278 326.178 270.705 329.651 267.822C333.897 264.302 338.005 260.596 342.31 257.128C344.531 255.335 346.905 253.605 349.467 252.365C352.159 251.075 355.149 250.409 358.025 249.524C358.759 249.283 359.552 249.244 360.631 249.057C360.278 250.865 360.129 252.451 359.646 253.924C356.366 263.885 350.738 272.405 343.095 279.591ZM290.187 356.619C288.064 357.792 285.808 358.844 283.493 359.546C278.748 360.972 273.808 360.995 268.891 360.984C265.407 360.976 261.922 360.929 258.442 360.968C257.57 360.98 256.707 361.253 255.84 361.409C255.836 361.568 255.828 361.728 255.824 361.892C256.574 362.176 257.304 362.523 258.069 362.741C260.494 363.427 262.931 364.043 265.352 364.713C265.823 364.85 266.258 365.119 266.717 365.329C266.702 365.423 266.686 365.516 266.67 365.61C266.356 365.734 266.042 365.91 265.709 365.984C260.843 366.939 255.997 368.108 251.088 368.801C242.777 369.978 234.536 371.409 226.488 373.841C225.806 374.043 225.048 374.141 224.342 374.094C216.203 373.537 208.069 372.952 199.927 372.364C190.517 371.682 181.107 371.592 171.709 372.578C161.032 373.696 150.704 376.214 140.705 380.049C126.339 385.563 113.32 393.428 101.084 402.637C100.877 402.793 100.68 402.98 100.476 403.147C100.877 403.069 101.187 402.906 101.485 402.726C112.656 396.101 124.181 390.189 136.358 385.583C146.678 381.682 157.276 378.864 168.228 377.422C176.143 376.382 184.089 376.144 192.063 376.194C200.978 376.241 209.905 376.194 218.821 376.191C218.939 376.191 219.052 376.206 219.182 376.218C219.15 376.288 219.146 376.331 219.131 376.343C218.919 376.428 218.707 376.522 218.491 376.604C210.521 379.698 202.964 383.564 196.065 388.611C193.982 390.146 191.745 391.296 189.351 392.188C187.495 392.886 185.628 393.568 183.732 394.16C174.005 397.212 163.936 398.709 153.925 400.505C145.677 401.982 137.433 403.498 129.255 405.291C121.799 406.924 114.603 409.43 107.916 413.206C96.4306 419.683 89.6774 429.379 87.837 442.4C87.5466 444.446 87.3818 446.519 87.1738 448.355C86.7736 447.614 86.338 446.718 85.824 445.861C81.4722 438.592 78.4272 430.852 77.4776 422.399C76.1984 410.977 79.4788 401.125 87.8135 393.03C88.1509 392.699 88.3864 392.255 88.6061 391.814C89.8069 389.398 90.7996 386.861 92.1966 384.573C96.1755 378.085 101.799 373.198 108.124 369.066C116.526 363.591 125.708 359.768 135.184 356.588C150.127 351.568 165.505 348.291 180.962 345.34C193.55 342.936 206.166 340.629 218.75 338.201C228.568 336.315 238.115 333.641 247.152 329.218C258.489 323.676 268.985 317.02 277.873 308.021C278.168 307.717 278.733 307.553 279.18 307.538C285.125 307.37 291.031 306.817 296.873 305.722C313.225 302.643 328.207 296.318 341.925 286.984C342.149 286.84 342.388 286.731 342.761 286.505C342.679 286.992 342.643 287.284 342.573 287.565C341.419 292.643 339.924 297.623 337.974 302.452C328.446 326.088 312.601 344.226 290.187 356.619ZM421.74 480.304C421.343 484.185 420.531 488.032 419.676 491.851C418.345 497.724 414.731 501.61 408.873 503.367C406.252 504.155 403.56 504.466 400.829 504.474C395.464 504.486 390.21 503.629 385.019 502.354C380.694 501.279 376.519 499.833 372.768 497.377C369.193 495.035 366.529 491.992 365.497 487.748C364.861 485.094 365.042 482.471 365.477 479.813C365.65 478.757 366.109 478.293 367.086 477.915C375.629 474.528 382.448 469.154 386.541 460.783C387.087 459.676 387.864 459.115 389.053 458.994C393.138 458.546 397.14 458.694 400.872 460.662C403.269 461.925 405.659 461.781 408.025 460.639C408.998 460.167 409.944 459.583 410.807 458.932C411.883 458.117 412.86 457.17 414.049 456.134C414.151 456.305 414.221 456.461 414.327 456.586C420.241 463.437 422.634 471.414 421.74 480.304ZM358.563 497.639C359.218 498.063 359.807 498.613 360.395 499.151C365.485 503.862 371.351 507.284 377.853 509.708C383.657 511.871 389.688 512.841 395.829 513.169C400.373 513.41 404.949 513.372 409.367 512.175C412.389 511.357 415.289 510.121 418.275 509.147C418.91 508.94 419.876 508.796 420.304 509.124C421.029 509.681 420.484 510.566 420.217 511.306C420.205 511.337 420.178 511.364 420.166 511.388C418.039 515.414 415.261 518.894 411.498 521.536C404.717 526.295 397.093 527.234 389.1 526.326C387.789 526.178 386.655 526.415 385.584 527.019C385.082 527.304 384.772 527.92 384.371 528.391C384.446 528.473 384.516 528.567 384.587 528.648C384.874 528.617 385.156 528.567 385.443 528.563C386.926 528.516 388.437 528.29 389.885 528.481C394.554 529.097 396.783 534.214 394.095 537.986C393.192 539.261 392.019 540.176 390.351 539.97C388.633 539.744 387.777 538.477 387.193 537.008C387.051 536.649 386.996 536.244 386.953 535.85C386.781 534.366 386.671 534.159 385.133 534.21C383.685 534.253 382.241 534.475 380.8 534.693C379.011 534.942 377.85 534.288 377.288 532.569C376.833 531.182 376.971 529.779 377.657 528.547C378.399 527.199 379.341 525.971 380.153 524.736C377.979 523.835 375.589 523.021 373.368 521.875C364.865 517.499 359.104 510.873 356.934 501.454C356.715 500.534 356.625 499.56 356.656 498.613C356.699 497.264 357.452 496.902 358.563 497.639ZM362.997 485.85C363.637 487.841 364.057 489.86 364.908 491.672C366.886 495.865 370.402 498.586 374.51 500.472C384.257 504.922 394.534 506.914 405.239 506.01C411.722 505.464 417.09 502.775 420.103 496.618C420.115 496.594 420.154 496.579 420.272 496.485C422.254 497.397 423.36 498.917 423.627 501.053C423.87 503.017 423.027 504.537 421.363 505.413C419.213 506.551 417.019 507.724 414.704 508.418C404.925 511.361 395.037 511.29 385.156 508.913C377.63 507.105 370.684 504.038 364.626 499.178C362.263 497.284 360.105 495.195 358.759 492.428C358.426 491.742 358.116 490.916 358.171 490.191C358.343 487.927 360.87 485.838 362.997 485.85ZM52.4227 436.402C44.4844 422.688 40.3525 408.132 40.3485 405.899C40.325 398.919 40.8665 391.962 41.922 385.033C42.1653 383.428 42.4871 381.834 42.7657 380.232C43.0639 380.524 43.162 380.82 43.2523 381.124C44.4256 384.994 45.4458 388.919 46.7878 392.73C53.8432 412.703 64.5754 430.619 77.8661 447.076C78.3487 447.677 78.7647 448.386 79.004 449.115C81.8921 457.95 86.0359 465.966 91.349 473.23C85.3923 470.709 78.6038 469.801 70.5203 460.561C80.452 479.583 103.98 487.12 103.98 487.12C117.075 498.753 132.308 506.442 149.185 511.045C150.547 511.415 151.924 511.711 153.301 512.039C152.999 511.75 152.662 511.633 152.324 511.501C139.767 507.039 128.192 500.819 117.714 492.615C104.675 482.404 94.8178 469.824 88.924 454.314C88.2922 452.646 87.994 451.091 88.6414 449.368C89.0809 448.199 89.3085 446.956 89.6735 445.759C92.4438 436.768 96.7798 428.686 103.753 422.162C110.424 415.911 118.44 412.134 127.136 409.586C137.55 406.554 148.31 405.435 159.019 404.04C165.23 403.237 171.411 402.263 177.603 401.324C179.267 401.078 180.911 400.669 182.681 400.306C182.547 400.525 182.508 400.622 182.441 400.7C177.603 406.09 173.577 412.01 170.375 418.502C170.183 418.904 169.739 419.301 169.315 419.434C166.455 420.33 163.614 421.394 160.679 421.979C156.327 422.84 151.877 423.171 147.525 424.021C124.189 428.623 116.996 441.04 117.102 440.927C124.189 433.452 135.53 431.344 138.524 430.307C145.508 427.895 152.744 427.24 160.078 427.31C162.221 427.341 164.359 427.466 166.565 427.552C159.988 448.885 160.851 469.68 169.767 490.051C169.774 489.669 169.688 489.299 169.594 488.932C166.106 475.775 164.693 462.466 166.686 448.92C169.092 432.47 176.292 418.456 188.319 406.908C197.333 398.256 207.932 392.029 219.303 387.009C230.106 382.239 241.462 379.289 252.913 376.545C261.53 374.484 270.182 372.461 278.69 369.971C290.085 366.654 300.401 361.206 309.191 353.154C310.553 351.907 311.926 350.633 313.048 349.175C320.453 339.658 329.482 332.207 340.591 327.351C341.293 325.017 342.522 322.554 344.433 319.981C347.148 316.373 350.507 313.399 354.125 310.73C355.149 309.977 356.511 309.545 357.786 309.295C359.175 309.011 360.011 309.677 360.486 311.014C360.611 311.392 360.698 311.77 360.772 312.156C361.514 312.409 362.252 312.807 362.977 313.368C363.476 313.75 363.955 314.163 364.394 314.596C366.438 316.638 367.871 319.069 369.032 321.677C369.283 322.242 369.621 322.464 370.206 322.538C371.583 322.717 372.964 322.908 374.326 323.169C396.426 327.511 412.518 344.191 415.324 368.174C415.575 370.337 415.559 372.578 416.211 374.604C417.043 377.18 418.424 379.581 419.57 382.06C420.578 384.238 421.685 386.374 422.556 388.611C423.451 390.899 423.564 393.284 422.866 395.688C422.627 396.514 422.14 396.733 421.492 396.331C420.582 395.762 419.762 395.049 418.895 394.406C417.839 393.623 416.854 392.726 415.712 392.107C414.782 391.596 413.727 391.701 412.895 392.648C413.087 392.793 413.248 392.906 413.389 393.038C415.665 395.053 417.949 397.048 420.19 399.102C420.457 399.344 420.649 399.835 420.625 400.213C420.425 403.397 419.362 406.285 417.082 408.576C414.151 411.526 410.701 413.101 406.416 412.103C406.307 413.689 406.197 413.962 405.278 414.453C399.318 417.661 393 419.551 386.168 419.422C381.142 419.336 376.61 420.919 372.285 423.319C370.943 424.064 369.503 424.734 368.024 425.124C363.354 426.355 358.559 426.71 353.74 426.834C353.344 426.842 352.956 426.866 352.563 426.885C352.81 427.162 353.058 427.248 353.305 427.306C357.15 428.206 361.047 428.323 364.975 428.039C366.246 427.949 367.678 427.676 368.785 428.121C372.026 429.43 375.169 430.997 378.289 432.591C379.164 433.039 379.933 433.253 380.82 432.926C382.802 432.189 384.791 431.46 386.722 430.607C390.826 428.795 395.029 427.704 399.561 428.323C402.041 428.658 404.458 429.2 406.62 430.513C408.021 431.371 409.128 432.462 409.238 434.239C409.257 434.489 409.485 434.765 409.689 434.952C410.27 435.486 410.913 435.966 411.498 436.496C413.225 438.078 413.954 440.042 413.743 442.361C413.558 444.309 412.977 444.633 411.27 443.772C410.446 443.359 409.587 443.02 408.724 443.674C409.819 444.368 410.89 444.991 411.914 445.693C413.448 446.737 413.994 448.242 413.939 450.054C413.778 455.097 407.79 459.559 402.649 458.433C400.954 458.063 399.439 457.396 398.513 455.802C398.392 455.592 398.043 455.37 397.807 455.385C396.465 455.459 395.096 455.452 393.801 455.74C391.427 456.274 389.076 456.839 386.631 456.379C385.505 456.165 384.395 455.857 383.229 455.592C382.319 458.741 380.82 461.539 378.819 464.076C374.169 469.945 368.055 473.663 361.004 475.959C351.861 478.94 342.467 479.267 333.061 477.927C319.464 475.997 309.827 468.667 304.627 455.95C303.34 452.805 302.677 449.411 301.708 446.126C300.15 440.841 298.07 435.759 295.308 430.958C290.862 423.249 285.027 416.904 277.034 412.719C268.055 408.019 258.512 407.08 248.628 408.826C246.752 409.157 244.908 409.636 242.832 410.1C246.446 410.314 249.77 410.388 253.062 410.72C262.232 411.635 270.826 414.371 278.635 419.282C287.923 425.131 294.868 432.801 297.772 443.682C299.322 449.493 301.5 455.132 304.219 460.533C306.028 464.15 308.029 467.615 310.823 470.588C315.465 475.53 321.297 478.316 327.724 480.113C329.702 480.662 331.664 481.27 333.614 481.894C334.579 482.206 335.184 482.884 335.564 483.854C336.639 486.629 336.949 489.462 336.369 492.381C335.47 496.972 333.21 500.869 330.169 504.353C327.555 507.358 324.283 509.552 321.01 511.746C319.417 512.803 317.871 513.952 316.419 515.195C315.163 516.255 314.398 517.713 314.477 519.377C314.614 522.351 314.791 522.822 317.773 521.836C318.24 521.68 318.703 521.497 319.158 521.298C321.595 520.258 324.02 519.198 326.468 518.181C331.169 516.228 336.047 515.507 341.054 516.704C346.606 518.021 350.523 521.259 352.285 526.793C352.646 527.927 352.732 529.132 352.12 530.149C351.825 530.652 351.068 531.147 350.507 531.162C350.001 531.178 349.404 530.605 348.988 530.157C348.733 529.876 348.741 529.354 348.627 528.941C348.054 526.805 347.117 524.919 345.006 523.882C344.605 523.683 344.15 523.633 343.718 523.504C346.532 526.404 348.054 529.685 347.85 533.641C347.697 536.645 345.327 538.602 342.278 538.43C341.391 538.38 340.768 537.967 340.669 537.109C340.548 536.069 340.595 535.016 340.575 533.968C340.54 532.721 340.634 531.451 340.458 530.227C340.179 528.22 338.935 526.914 336.993 526.295C336.055 525.998 335.152 526.158 334.281 526.599C335.505 526.848 336.675 527.214 337.291 528.352C337.883 529.444 338.488 530.581 338.786 531.77C339.426 534.334 339.116 536.809 336.742 538.384C335.674 539.089 334.23 539.381 332.92 539.561C330.106 539.95 327.406 539.159 324.687 538.536C323.055 538.158 321.363 537.908 319.699 537.904C318.126 537.9 316.537 538.232 314.979 538.508C305.491 540.208 295.955 539.487 286.294 539.374C275.845 539.245 265.395 539.307 254.945 539.299C236.24 539.299 217.53 539.292 198.812 539.292C191.086 539.292 183.356 539.37 175.629 539.319C164.975 539.253 154.435 538.06 144.131 535.375C104.879 525.18 75.5038 504.077 56.1427 468.702C47.608 453.098 42.7343 436.406 41.0195 418.88C40.8116 416.854 52.5365 438.53 52.4227 436.402Z" fill="#0D0D0D"/>
<path d="M359.316 344.503C356.024 337.531 355.985 334.584 359.626 327.986C362.373 323.006 369.672 327.437 368.683 321.876C368.267 317.043 363.17 311.735 362.224 310.582C361.063 309.214 360.415 307.869 358.7 308.216C357.131 308.535 355.643 309.288 354.38 310.219C349.918 313.512 345.782 317.183 342.431 321.63C336.377 329.654 338.872 334.522 345.963 340.921C348.965 343.618 359.67 345.247 359.316 344.503Z" fill="#E65270"/>
<path opacity="0.2" d="M352.751 318.037C354.498 316.143 357.217 314.311 360.054 312.433C361.561 311.443 357.076 323.606 355.769 326.852C351.484 337.488 357.099 344.078 355.553 343.264C352.155 341.471 347.301 335.208 346.964 331.338C346.587 327.149 349.863 321.174 352.751 318.037Z" fill="#2B2B2B"/>
<path d="M357.959 343.852C354.663 336.884 354.627 333.937 358.273 327.339C361.016 322.363 362.287 317.347 361.298 311.778C361.188 311.158 361.067 310.527 360.863 309.927C360.278 308.255 359.246 307.436 357.531 307.787C355.961 308.107 354.274 308.633 353.018 309.56C348.557 312.853 344.421 316.525 341.07 320.971C336.424 327.125 336.934 331.326 340.454 335.991C341.462 337.324 342.082 337.285 343.381 337.527C345.061 337.842 345.402 335.519 344.868 334.58C343.64 332.421 342.832 330.25 342.679 328.544C342.306 324.35 344.668 319.798 347.556 316.661C350.232 313.754 355.644 309.241 359.336 308.146C360.227 311.54 358.328 318.313 357.123 321.603C355.655 325.621 351.213 332.951 352.328 337.729C352.328 337.729 353.894 342.149 355.553 343.271C357.213 344.386 357.959 343.852 357.959 343.852Z" fill="#0D0D0D"/>
<g opacity="0.2">
<path d="M157.904 424.282C157.453 424.305 157.037 424.258 156.696 424.075C157.124 424.052 157.528 424.13 157.904 424.282Z" fill="#8B4FBA"/>
</g>
<path opacity="0.2" d="M360.757 482.704C364.606 476.898 368.934 474.934 373.823 470.362C378.473 466.025 382.044 460.791 386.675 456.531C390.3 457.283 394.378 456.675 398.097 456.862C400.758 463.386 413.676 457.178 414.857 452.969L416.572 455.522C420.296 462.805 406.938 463.293 399.334 462.537C393.997 462.01 370.963 468.024 371.72 497.529C369.126 501.485 363.017 497.623 363.009 502.779C363.005 508.056 363.091 517.362 367.682 520.722C366.368 525.324 361.804 520.457 360.545 518.613C357.727 514.486 353.701 507.179 352.787 502.288C351.241 493.932 356.546 489.053 360.757 482.704Z" fill="#430A1D"/>
</g>
<defs>
<linearGradient id="paint0_linear_708_15" x1="139.835" y1="75.3593" x2="29.5797" y2="593.404" gradientUnits="userSpaceOnUse">
<stop offset="0.3836" stop-color="#FAA100"/>
<stop offset="0.6584" stop-color="#BF73F2"/>
<stop offset="0.6649" stop-color="#C370E6"/>
<stop offset="0.6852" stop-color="#CC68C7"/>
<stop offset="0.7081" stop-color="#D461AB"/>
<stop offset="0.7341" stop-color="#DB5B95"/>
<stop offset="0.7643" stop-color="#E05784"/>
<stop offset="0.8017" stop-color="#E35479"/>
<stop offset="0.8543" stop-color="#E55272"/>
<stop offset="1" stop-color="#E65270"/>
</linearGradient>
<linearGradient id="paint1_linear_708_15" x1="211.636" y1="68.4477" x2="94.1944" y2="620.264" gradientUnits="userSpaceOnUse">
<stop offset="0.3836" stop-color="#FAA100"/>
<stop offset="0.6584" stop-color="#BF73F2"/>
<stop offset="0.6649" stop-color="#C370E6"/>
<stop offset="0.6852" stop-color="#CC68C7"/>
<stop offset="0.7081" stop-color="#D461AB"/>
<stop offset="0.7341" stop-color="#DB5B95"/>
<stop offset="0.7643" stop-color="#E05784"/>
<stop offset="0.8017" stop-color="#E35479"/>
<stop offset="0.8543" stop-color="#E55272"/>
<stop offset="1" stop-color="#E65270"/>
</linearGradient>
<linearGradient id="paint2_linear_708_15" x1="231.149" y1="103.439" x2="224.163" y2="430.6" gradientUnits="userSpaceOnUse">
<stop stop-color="#FAA7B5"/>
<stop offset="0.3836" stop-color="#FAA100"/>
<stop offset="0.7317" stop-color="#BF73F2"/>
</linearGradient>
<linearGradient id="paint3_linear_708_15" x1="143.287" y1="137.064" x2="221.997" y2="273.59" gradientUnits="userSpaceOnUse">
<stop stop-color="#F6E8A0"/>
<stop offset="1" stop-color="#E65271"/>
</linearGradient>
<linearGradient id="paint4_linear_708_15" x1="157.267" y1="218.821" x2="225.144" y2="336.554" gradientUnits="userSpaceOnUse">
<stop stop-color="#F6E8A0"/>
<stop offset="1" stop-color="#E65271"/>
</linearGradient>
<linearGradient id="paint5_linear_708_15" x1="310.503" y1="132.112" x2="302.701" y2="269.186" gradientUnits="userSpaceOnUse">
<stop stop-color="#F6E8A0"/>
<stop offset="1" stop-color="#E65271"/>
</linearGradient>
<linearGradient id="paint6_linear_708_15" x1="303.099" y1="269.012" x2="258.105" y2="68.2884" gradientUnits="userSpaceOnUse">
<stop stop-color="#E65271"/>
<stop offset="0.3836" stop-color="#FAA100"/>
</linearGradient>
<linearGradient id="paint7_linear_708_15" x1="144.912" y1="168.622" x2="312.701" y2="312.533" gradientUnits="userSpaceOnUse">
<stop stop-color="#F6E8A0"/>
<stop offset="1" stop-color="#E65271"/>
</linearGradient>
<linearGradient id="paint8_linear_708_15" x1="297.152" y1="268.411" x2="133.296" y2="313.279" gradientUnits="userSpaceOnUse">
<stop stop-color="#FAA7B5"/>
<stop offset="0.3836" stop-color="#FAA100"/>
<stop offset="0.7317" stop-color="#BF73F2"/>
</linearGradient>
<linearGradient id="paint9_linear_708_15" x1="733.714" y1="78.0199" x2="-34.2658" y2="492.62" gradientUnits="userSpaceOnUse">
<stop stop-color="#FAA7B5"/>
<stop offset="0.3836" stop-color="#FAA100"/>
<stop offset="0.7317" stop-color="#BF73F2"/>
</linearGradient>
<radialGradient id="paint10_radial_708_15" cx="0" cy="0" r="1" gradientUnits="userSpaceOnUse" gradientTransform="translate(305.711 328.773) rotate(-163.257) scale(27.9145 53.5233)">
<stop offset="0.0091" stop-color="white"/>
<stop offset="1" stop-color="white" stop-opacity="0"/>
</radialGradient>
<radialGradient id="paint11_radial_708_15" cx="0" cy="0" r="1" gradientUnits="userSpaceOnUse" gradientTransform="translate(157.448 296.526) rotate(180) scale(43.6659 43.3673)">
<stop offset="0.0091" stop-color="white"/>
<stop offset="1" stop-color="white" stop-opacity="0"/>
</radialGradient>
<radialGradient id="paint12_radial_708_15" cx="0" cy="0" r="1" gradientUnits="userSpaceOnUse" gradientTransform="translate(157.419 296.534) rotate(180) scale(43.6477 43.3492)">
<stop offset="0.0091" stop-color="white"/>
<stop offset="1" stop-color="white" stop-opacity="0"/>
</radialGradient>
<linearGradient id="paint13_linear_708_15" x1="417.049" y1="431.396" x2="374.332" y2="528.355" gradientUnits="userSpaceOnUse">
<stop offset="0.0041" stop-color="#FAA7B5"/>
<stop offset="0.3836" stop-color="#FAA100"/>
</linearGradient>
<linearGradient id="paint14_linear_708_15" x1="129.278" y1="152.066" x2="94.3286" y2="419.493" gradientUnits="userSpaceOnUse">
<stop stop-color="#FAA7B5"/>
<stop offset="0.3836" stop-color="#FAA100"/>
<stop offset="0.7317" stop-color="#BF73F2"/>
</linearGradient>
<linearGradient id="paint15_linear_708_15" x1="90.9687" y1="148.207" x2="56.0201" y2="415.633" gradientUnits="userSpaceOnUse">
<stop stop-color="#FAA7B5"/>
<stop offset="0.3836" stop-color="#FAA100"/>
<stop offset="0.7317" stop-color="#BF73F2"/>
</linearGradient>
<linearGradient id="paint16_linear_708_15" x1="38.9447" y1="262.223" x2="54.6401" y2="448.286" gradientUnits="userSpaceOnUse">
<stop stop-color="#FAA7B5"/>
<stop offset="0.3836" stop-color="#FAA100"/>
<stop offset="0.7317" stop-color="#BF73F2"/>
</linearGradient>
<linearGradient id="paint17_linear_708_15" x1="331.012" y1="105.559" x2="324.027" y2="432.749" gradientUnits="userSpaceOnUse">
<stop stop-color="#FAA7B5"/>
<stop offset="0.3836" stop-color="#FAA100"/>
<stop offset="0.7317" stop-color="#BF73F2"/>
</linearGradient>
<linearGradient id="paint18_linear_708_15" x1="397.72" y1="355.846" x2="380.36" y2="384.688" gradientUnits="userSpaceOnUse">
<stop stop-color="#FAA7B5"/>
<stop offset="0.3836" stop-color="#FAA100"/>
<stop offset="0.7317" stop-color="#BF73F2"/>
</linearGradient>
<clipPath id="clip0_708_15">
<rect width="947" height="583" fill="white"/>
</clipPath>
<clipPath id="clip1_708_15">
<rect width="4.73708" height="5.4888" fill="white" transform="matrix(-1 0 0 -1 386.523 369.613)"/>
</clipPath>
</defs>
</svg>
