<svg width="803" height="310" viewBox="0 0 803 310" fill="none" xmlns="http://www.w3.org/2000/svg">
<path d="M781.256 283H751.744C751.078 282.998 750.42 283.142 749.816 283.422C749.211 283.701 748.675 284.109 748.245 284.617C747.157 284.417 746.036 284.478 744.976 284.795C743.915 285.112 742.945 285.676 742.145 286.441C741.345 287.205 740.737 288.149 740.372 289.194C740.007 290.239 739.896 291.355 740.046 292.452C740.196 293.548 740.604 294.593 741.237 295.501C741.87 296.41 742.709 297.155 743.685 297.676C744.661 298.197 745.747 298.479 746.854 298.499C747.961 298.519 749.056 298.276 750.051 297.79L752.499 305.745C752.789 306.687 753.373 307.512 754.166 308.098C754.96 308.684 755.92 309 756.906 309H776.094C777.08 309 778.041 308.684 778.834 308.098C779.627 307.512 780.212 306.687 780.501 305.745L785.664 288.968C785.876 288.278 785.924 287.548 785.802 286.837C785.681 286.125 785.395 285.452 784.966 284.872C784.537 284.291 783.978 283.82 783.334 283.495C782.69 283.169 781.978 283 781.256 283ZM747 296.5C745.674 296.5 744.402 295.973 743.464 295.036C742.527 294.098 742 292.826 742 291.5C742 290.174 742.527 288.902 743.464 287.964C744.402 287.027 745.674 286.5 747 286.5C747.091 286.5 747.176 286.522 747.267 286.527C747.068 287.332 747.092 288.176 747.336 288.968L749.448 295.832C748.704 296.265 747.86 296.495 747 296.5Z" fill="#F0F0F0"/>
<path d="M62.2563 262H32.7436C32.0778 261.998 31.4198 262.142 30.8155 262.422C30.2112 262.701 29.6752 263.109 29.2451 263.617C28.1565 263.417 27.0361 263.478 25.9756 263.795C24.9152 264.112 23.9451 264.676 23.1449 265.441C22.3446 266.205 21.7371 267.149 21.3723 268.194C21.0074 269.239 20.8955 270.355 21.0458 271.452C21.1961 272.548 21.6043 273.593 22.2369 274.501C22.8695 275.41 23.7085 276.155 24.6849 276.676C25.6613 277.197 26.7474 277.479 27.854 277.499C28.9606 277.519 30.0562 277.276 31.0507 276.79L34.4985 305.745C34.7884 306.687 35.373 307.512 36.1663 308.098C36.9597 308.684 37.92 309 38.9062 309H58.0942C59.0803 309 60.0405 308.684 60.8338 308.098C61.627 307.512 62.2115 306.687 62.5014 305.745L66.664 267.968C66.8762 267.278 66.9235 266.548 66.8023 265.837C66.681 265.125 66.3944 264.452 65.9657 263.872C65.537 263.291 64.978 262.82 64.3337 262.495C63.6895 262.169 62.9779 262 62.2563 262ZM27.9999 275.5C26.6739 275.5 25.4021 274.973 24.4644 274.036C23.5267 273.098 22.9999 271.826 22.9999 270.5C22.9999 269.174 23.5267 267.902 24.4644 266.964C25.4021 266.027 26.6739 265.5 27.9999 265.5C28.0913 265.5 28.1762 265.522 28.2665 265.527C28.0677 266.332 28.0918 267.176 28.3364 267.968L30.4482 274.832C29.7042 275.265 28.8603 275.495 27.9999 275.5Z" fill="#F0F0F0"/>
<path d="M410.914 238C410.914 236.418 410.445 234.871 409.566 233.555C408.687 232.24 407.437 231.214 405.975 230.609C404.514 230.003 402.905 229.845 401.353 230.154C399.801 230.462 398.376 231.224 397.257 232.343C396.138 233.462 395.376 234.887 395.068 236.439C394.759 237.991 394.917 239.6 395.523 241.061C396.128 242.523 397.154 243.773 398.469 244.652C399.785 245.531 401.332 246 402.914 246C403.013 246 403.11 245.989 403.209 245.985C405.187 252.415 406.244 259.093 406.348 265.82C406.424 269.173 406.232 272.528 405.775 275.851C405.427 278.208 404.777 280.914 402.436 282.015C400.69 282.836 402.211 285.424 403.95 284.605C406.59 283.363 407.874 280.579 408.45 277.858C409.106 274.35 409.409 270.784 409.353 267.215C409.384 259.796 408.301 252.415 406.138 245.318C407.558 244.693 408.766 243.668 409.614 242.369C410.462 241.069 410.913 239.552 410.914 238Z" fill="#E6E6E6"/>
<path d="M408.47 286.207C408.47 286.207 397.743 259.803 429.923 240L408.47 286.207Z" fill="#E6E6E6"/>
<path d="M407.895 285.727C407.895 285.727 404.623 266.907 379.296 267.069L407.895 285.727Z" fill="#E6E6E6"/>
<path d="M425.84 308.84H381.86C381.016 308.84 380.19 308.603 379.474 308.155C378.759 307.708 378.184 307.068 377.815 306.309L368.239 286.626C367.906 285.941 367.752 285.181 367.792 284.42C367.833 283.658 368.066 282.919 368.471 282.273C368.875 281.626 369.438 281.093 370.105 280.724C370.772 280.354 371.522 280.16 372.285 280.16H435.416C436.178 280.16 436.928 280.354 437.595 280.724C438.263 281.093 438.825 281.626 439.229 282.273C439.634 282.919 439.867 283.658 439.908 284.42C439.948 285.181 439.794 285.941 439.461 286.626L429.885 306.309C429.516 307.068 428.941 307.708 428.226 308.155C427.511 308.603 426.684 308.84 425.84 308.84Z" fill="#F0F0F0"/>
<path d="M327.1 133.934C326.472 169.493 302.574 184.948 302.181 169.935C301.693 150.945 293.504 101.693 261.362 116.797C222.923 134.858 257.575 244.872 246.447 244.872C201.926 244.872 165.794 195.174 165.794 133.934C165.794 72.6981 201.926 23 246.447 23C290.967 23 328.165 73.4781 327.1 133.934V133.934Z" fill="url(#paint0_linear_618_765)" stroke="black" stroke-width="0.8" stroke-linecap="round" stroke-linejoin="round"/>
<path d="M305.318 57.8333C315.643 76.4943 320.766 99.8938 321.227 124.461C321.656 147.157 315.467 168.591 303.991 174.664C309.35 176.377 326.472 169.488 327.095 133.929C327.615 104.709 319.186 77.8198 305.318 57.8333ZM266.45 104.497C263.15 104.56 259.507 105.444 255.489 107.328C217.049 125.39 251.706 235.404 240.578 235.404C217.65 235.404 196.947 222.221 182.257 201.066C196.997 227.676 220.268 244.872 246.447 244.872C257.575 244.872 222.918 134.858 261.358 116.797C273.276 111.201 281.902 114.448 288.065 121.715C283.469 111.815 276.562 104.308 266.45 104.497V104.497Z" fill="black" fill-opacity="0.31373"/>
<path d="M285.303 197.669C285.303 217.195 277.543 235.921 263.731 249.728C249.919 263.535 231.185 271.292 211.652 271.292C192.118 271.292 173.384 263.535 159.572 249.728C145.76 235.921 138 217.195 138 197.669C138 178.143 145.76 159.416 159.572 145.609C173.384 131.802 192.118 124.046 211.652 124.046C231.185 124.046 249.919 131.802 263.731 145.609C277.543 159.416 285.303 178.143 285.303 197.669V197.669Z" fill="url(#paint1_linear_618_765)" stroke="black" stroke-width="0.799968" stroke-linecap="round" stroke-linejoin="round"/>
<path d="M211.655 124.055C203.818 124.055 196.274 125.291 189.187 127.559C195.561 126.071 202.283 125.268 209.231 125.268C228.29 125.268 245.67 131.256 258.748 141.08C245.982 130.449 229.559 124.055 211.655 124.055ZM281.406 173.974C282.372 177.906 282.886 181.964 282.886 186.129C282.886 219.727 249.887 246.991 209.231 246.991C175.233 246.991 146.603 227.929 138.134 202.036C140.391 240.652 172.461 271.306 211.655 271.306C252.311 271.306 285.311 238.321 285.311 197.68C285.311 189.389 283.938 181.414 281.406 173.974Z" fill="black" fill-opacity="0.31373"/>
<path d="M211.655 124.055C199.096 124.055 187.264 127.198 176.912 132.748C181.815 149.867 196.139 165.697 213.059 165.697C229.527 165.697 243.562 150.701 248.821 134.109C237.91 127.721 225.207 124.055 211.655 124.055V124.055Z" fill="black" fill-opacity="0.31373"/>
<path fill-rule="evenodd" clip-rule="evenodd" d="M262.121 62.7296C253.178 62.7296 235.012 67.4817 231.834 79.8036C231.784 79.8983 231.689 80.2409 231.586 80.7684C225.834 77.2563 219.072 75.2139 211.844 75.2139C204.296 75.2139 197.281 77.4411 191.372 81.2373C191.25 80.4664 191.101 79.9253 191.042 79.8036C187.864 67.4817 169.699 62.7431 160.751 62.7386C159.329 62.7386 158.151 62.8604 157.289 63.0858C152.49 63.7531 147.235 65.6692 147.619 66.7152C151.14 66.1156 152.919 66.8009 152.865 67.3689C152.756 68.433 150.635 68.717 151.316 72.5538C152.603 70.6918 154.395 70.0516 155.803 69.754C157.248 78.8117 163.568 94.6233 175.396 95.4439C176.411 95.516 177.359 95.5115 178.253 95.4935C175.463 100.778 173.879 106.796 173.879 113.185C173.879 134.137 190.884 158.415 211.844 158.415C232.8 158.415 249.828 134.137 249.828 113.185C249.828 106.801 248.239 100.796 245.449 95.516C246.095 95.5115 246.776 95.4935 247.481 95.4439C259.267 94.6278 265.588 78.9064 267.059 69.8396C268.405 70.1688 270.012 70.8451 271.19 72.5538C271.872 68.717 269.75 68.433 269.641 67.3689C269.587 66.8009 271.366 66.1156 274.887 66.7152C275.253 65.7233 270.562 63.9514 265.985 63.1985C265.114 62.8919 263.777 62.7296 262.121 62.7296V62.7296Z" fill="url(#paint2_linear_618_765)" stroke="black" stroke-width="0.8" stroke-linejoin="round"/>
<path d="M203.978 187.897C203.978 191.59 202.51 195.132 199.898 197.743C197.286 200.355 193.742 201.822 190.048 201.822C186.354 201.822 182.811 200.355 180.198 197.743C177.586 195.132 176.118 191.59 176.118 187.897C176.118 184.204 177.586 180.663 180.198 178.051C182.811 175.44 186.354 173.973 190.048 173.973C193.742 173.973 197.286 175.44 199.898 178.051C202.51 180.663 203.978 184.204 203.978 187.897V187.897Z" fill="black" fill-opacity="0.31373"/>
<path d="M256.235 188.114C256.235 191.807 254.767 195.348 252.155 197.96C249.543 200.571 246 202.038 242.305 202.038C238.611 202.038 235.068 200.571 232.455 197.96C229.843 195.348 228.375 191.807 228.375 188.114C228.375 184.421 229.843 180.879 232.455 178.268C235.068 175.656 238.611 174.189 242.305 174.189C246 174.189 249.543 175.656 252.155 178.268C254.767 180.879 256.235 184.421 256.235 188.114V188.114Z" fill="black" fill-opacity="0.31373"/>
<path d="M247.345 229.344C228.913 229.344 213.948 244.304 213.948 262.726C213.948 266.536 214.589 270.187 215.767 273.596H278.905C280.083 270.187 280.724 266.536 280.724 262.726C280.724 244.304 265.777 229.344 247.345 229.344V229.344Z" fill="url(#paint3_linear_618_765)" stroke="black" stroke-width="0.8" stroke-linecap="round" stroke-linejoin="round"/>
<path d="M180.551 229.344C162.119 229.344 147.172 244.304 147.172 262.726C147.172 266.536 147.813 270.187 148.991 273.596H212.129C213.307 270.187 213.948 266.536 213.948 262.726C213.948 244.304 198.983 229.344 180.551 229.344Z" fill="url(#paint4_linear_618_765)" stroke="black" stroke-width="0.8" stroke-linecap="round" stroke-linejoin="round"/>
<path d="M210.52 110.143C210.521 111.772 210.201 113.385 209.577 114.89C208.954 116.395 208.041 117.763 206.889 118.915C205.737 120.067 204.369 120.981 202.863 121.605C201.358 122.228 199.744 122.549 198.115 122.549C196.485 122.549 194.871 122.228 193.366 121.605C191.86 120.981 190.493 120.067 189.341 118.915C188.189 117.763 187.275 116.395 186.652 114.89C186.029 113.385 185.708 111.772 185.709 110.143C185.708 108.514 186.029 106.901 186.652 105.395C187.275 103.89 188.189 102.523 189.341 101.37C190.493 100.218 191.86 99.3043 193.366 98.6808C194.871 98.0572 196.485 97.7363 198.115 97.7363C199.744 97.7363 201.358 98.0572 202.863 98.6808C204.369 99.3043 205.737 100.218 206.889 101.37C208.041 102.523 208.954 103.89 209.577 105.395C210.201 106.901 210.521 108.514 210.52 110.143V110.143Z" fill="white" stroke="black" stroke-width="0.800004" stroke-linecap="round" stroke-linejoin="round"/>
<path d="M237.994 110.143C237.995 111.772 237.675 113.385 237.052 114.89C236.429 116.395 235.515 117.763 234.363 118.915C233.211 120.067 231.843 120.981 230.338 121.605C228.832 122.228 227.218 122.549 225.589 122.549C223.959 122.549 222.346 122.228 220.84 121.605C219.335 120.981 217.967 120.067 216.815 118.915C215.663 117.763 214.749 116.395 214.126 114.89C213.503 113.385 213.183 111.772 213.183 110.143C213.183 108.514 213.503 106.901 214.126 105.395C214.749 103.89 215.663 102.523 216.815 101.37C217.967 100.218 219.335 99.3043 220.84 98.6808C222.346 98.0572 223.959 97.7363 225.589 97.7363C227.218 97.7363 228.832 98.0572 230.338 98.6808C231.843 99.3043 233.211 100.218 234.363 101.37C235.515 102.523 236.429 103.89 237.052 105.395C237.675 106.901 237.995 108.514 237.994 110.143Z" fill="white" stroke="black" stroke-width="0.800004" stroke-linecap="round" stroke-linejoin="round"/>
<path d="M206.677 111.649C206.677 112.176 206.574 112.697 206.373 113.183C206.172 113.67 205.877 114.112 205.504 114.484C205.132 114.856 204.69 115.151 204.204 115.353C203.718 115.554 203.196 115.658 202.67 115.658C202.144 115.658 201.622 115.554 201.136 115.353C200.649 115.151 200.208 114.856 199.836 114.484C199.463 114.112 199.168 113.67 198.967 113.183C198.766 112.697 198.663 112.176 198.663 111.649C198.663 111.123 198.766 110.602 198.967 110.116C199.168 109.629 199.463 109.187 199.836 108.815C200.208 108.443 200.649 108.148 201.136 107.946C201.622 107.745 202.144 107.641 202.67 107.641C203.196 107.641 203.718 107.745 204.204 107.946C204.69 108.148 205.132 108.443 205.504 108.815C205.877 109.187 206.172 109.629 206.373 110.116C206.574 110.602 206.677 111.123 206.677 111.649V111.649Z" fill="black"/>
<path d="M225.005 111.649C225.005 112.176 224.902 112.697 224.701 113.183C224.5 113.67 224.205 114.112 223.833 114.484C223.46 114.856 223.019 115.151 222.532 115.353C222.046 115.554 221.525 115.658 220.998 115.658C220.472 115.658 219.95 115.554 219.464 115.353C218.978 115.151 218.536 114.856 218.164 114.484C217.792 114.112 217.496 113.67 217.295 113.183C217.094 112.697 216.991 112.176 216.991 111.649C216.991 111.123 217.094 110.602 217.295 110.116C217.496 109.629 217.792 109.187 218.164 108.815C218.536 108.443 218.978 108.148 219.464 107.946C219.95 107.745 220.472 107.641 220.998 107.641C221.525 107.641 222.046 107.745 222.532 107.946C223.019 108.148 223.46 108.443 223.833 108.815C224.205 109.187 224.5 109.629 224.701 110.116C224.902 110.602 225.005 111.123 225.005 111.649Z" fill="black"/>
<path fill-rule="evenodd" clip-rule="evenodd" d="M205.439 133.934C207.461 131.774 216.052 131.305 217.849 134.2C219.645 137.099 215.153 143.104 211.641 142.834C208.147 142.563 203.543 135.949 205.439 133.934Z" fill="black"/>
<path fill-rule="evenodd" clip-rule="evenodd" d="M182.844 89.9118C181.513 70.6512 161.668 66.2643 160.711 68.5502C159.758 70.8405 164.336 96.5891 182.844 89.9118Z" fill="#74401B" stroke="black" stroke-width="0.8" stroke-linejoin="round"/>
<path fill-rule="evenodd" clip-rule="evenodd" d="M239.4 89.9118C240.732 70.6512 260.577 66.2643 261.534 68.5502C262.486 70.8405 257.904 96.5891 239.4 89.9118Z" fill="url(#paint5_linear_618_765)" stroke="black" stroke-width="0.8" stroke-linejoin="round"/>
<path d="M177.593 263.961C177.593 266.773 176.651 269.471 174.974 271.459C173.297 273.448 171.023 274.565 168.652 274.565C166.28 274.565 164.006 273.448 162.329 271.459C160.652 269.471 159.71 266.773 159.71 263.961C159.71 261.149 160.652 258.451 162.329 256.463C164.006 254.474 166.28 253.357 168.652 253.357C171.023 253.357 173.297 254.474 174.974 256.463C176.651 258.451 177.593 261.149 177.593 263.961V263.961Z" fill="url(#paint6_linear_618_765)" stroke="black" stroke-width="0.734432" stroke-linecap="round" stroke-linejoin="round"/>
<path d="M200.02 263.961C200.02 266.773 199.078 269.471 197.401 271.459C195.724 273.448 193.45 274.565 191.079 274.565C188.707 274.565 186.433 273.448 184.756 271.459C183.079 269.471 182.137 266.773 182.137 263.961C182.137 261.149 183.079 258.451 184.756 256.463C186.433 254.474 188.707 253.357 191.079 253.357C193.45 253.357 195.724 254.474 197.401 256.463C199.078 258.451 200.02 261.149 200.02 263.961V263.961Z" fill="url(#paint7_linear_618_765)" stroke="black" stroke-width="0.734432" stroke-linecap="round" stroke-linejoin="round"/>
<path d="M189.411 263.961C189.411 266.773 188.469 269.471 186.793 271.459C185.116 273.448 182.841 274.565 180.47 274.565C178.099 274.565 175.824 273.448 174.148 271.459C172.471 269.471 171.529 266.773 171.529 263.961C171.529 261.149 172.471 258.451 174.148 256.463C175.824 254.474 178.099 253.357 180.47 253.357C182.841 253.357 185.116 254.474 186.793 256.463C188.469 258.451 189.411 261.149 189.411 263.961V263.961Z" fill="url(#paint8_linear_618_765)" stroke="black" stroke-width="0.734432" stroke-linecap="round" stroke-linejoin="round"/>
<path d="M246.395 263.961C246.395 266.773 245.453 269.471 243.777 271.459C242.1 273.448 239.825 274.565 237.454 274.565C235.083 274.565 232.808 273.448 231.132 271.459C229.455 269.471 228.513 266.773 228.513 263.961C228.513 261.149 229.455 258.451 231.132 256.463C232.808 254.474 235.083 253.357 237.454 253.357C239.825 253.357 242.1 254.474 243.777 256.463C245.453 258.451 246.395 261.149 246.395 263.961V263.961Z" fill="url(#paint9_linear_618_765)" stroke="black" stroke-width="0.734432" stroke-linecap="round" stroke-linejoin="round"/>
<path d="M268.825 263.961C268.825 266.773 267.883 269.471 266.206 271.459C264.529 273.448 262.255 274.565 259.884 274.565C257.512 274.565 255.238 273.448 253.561 271.459C251.884 269.471 250.942 266.773 250.942 263.961C250.942 261.149 251.884 258.451 253.561 256.463C255.238 254.474 257.512 253.357 259.884 253.357C262.255 253.357 264.529 254.474 266.206 256.463C267.883 258.451 268.825 261.149 268.825 263.961V263.961Z" fill="url(#paint10_linear_618_765)" stroke="black" stroke-width="0.734432" stroke-linecap="round" stroke-linejoin="round"/>
<path d="M258.216 263.961C258.216 266.773 257.274 269.471 255.597 271.459C253.921 273.448 251.646 274.565 249.275 274.565C246.904 274.565 244.629 273.448 242.952 271.459C241.276 269.471 240.334 266.773 240.334 263.961C240.334 261.149 241.276 258.451 242.952 256.463C244.629 254.474 246.904 253.357 249.275 253.357C251.646 253.357 253.921 254.474 255.597 256.463C257.274 258.451 258.216 261.149 258.216 263.961V263.961Z" fill="url(#paint11_linear_618_765)" stroke="black" stroke-width="0.734432" stroke-linecap="round" stroke-linejoin="round"/>
<path d="M246.835 98.4917C247.526 101.35 247.896 104.344 247.896 107.41C247.896 128.361 230.872 152.631 209.912 152.631C194.636 152.631 181.476 139.732 175.454 124.623C180.118 142.067 194.645 158.424 211.844 158.424C232.805 158.424 249.828 134.137 249.828 113.185C249.828 107.973 248.763 103.014 246.853 98.4917H246.835Z" fill="black" fill-opacity="0.31373"/>
<path d="M249.904 194.902C247.289 197.514 243.744 198.982 240.048 198.983C236.352 198.985 232.808 197.52 230.196 194.911C227.583 192.302 226.117 188.763 226.118 185.071C226.12 181.38 227.59 177.839 230.204 175.228C232.819 172.617 236.364 171.149 240.06 171.147C243.756 171.146 247.3 172.61 249.912 175.219C252.525 177.828 253.991 181.368 253.99 185.059C253.988 188.75 252.518 192.291 249.904 194.902Z" fill="url(#paint12_linear_618_765)" stroke="black" stroke-width="0.799998" stroke-linecap="round" stroke-linejoin="round"/>
<path d="M235.326 187.53C234.633 187.716 233.98 188.019 233.402 188.423C232.825 188.827 232.335 189.323 231.96 189.884C231.586 190.445 231.334 191.059 231.219 191.691C231.105 192.324 231.129 192.962 231.292 193.569C231.455 194.177 231.752 194.742 232.168 195.232C232.583 195.722 233.108 196.128 233.713 196.426C234.318 196.725 234.99 196.91 235.692 196.971C236.394 197.032 237.112 196.968 237.804 196.782C238.497 196.597 239.15 196.293 239.728 195.889C240.305 195.485 240.795 194.989 241.17 194.428C241.544 193.867 241.796 193.253 241.911 192.621C242.025 191.988 242.001 191.35 241.838 190.743C241.675 190.135 241.378 189.57 240.962 189.08C240.547 188.59 240.022 188.184 239.417 187.886C238.813 187.587 238.14 187.402 237.438 187.341C236.736 187.28 236.018 187.344 235.326 187.53V187.53Z" fill="url(#paint13_linear_618_765)" stroke="black" stroke-width="0.734456" stroke-linecap="round" stroke-linejoin="round"/>
<path d="M232.22 175.925C231.528 176.11 230.874 176.414 230.297 176.818C229.719 177.222 229.229 177.718 228.855 178.279C228.48 178.84 228.228 179.454 228.114 180.086C227.999 180.719 228.024 181.357 228.186 181.964C228.349 182.572 228.647 183.137 229.062 183.627C229.477 184.117 230.002 184.523 230.607 184.821C231.212 185.12 231.884 185.305 232.586 185.366C233.288 185.427 234.006 185.363 234.698 185.177C236.097 184.802 237.307 183.955 238.064 182.823C238.82 181.69 239.061 180.365 238.732 179.138C238.403 177.911 237.533 176.883 236.311 176.28C235.09 175.678 233.618 175.55 232.22 175.925V175.925Z" fill="url(#paint14_linear_618_765)" stroke="black" stroke-width="0.734456" stroke-linecap="round" stroke-linejoin="round"/>
<path d="M230.902 182.485C229.503 182.86 228.293 183.707 227.536 184.839C226.78 185.972 226.54 187.297 226.868 188.524C227.197 189.751 228.068 190.779 229.289 191.381C230.51 191.984 231.982 192.112 233.38 191.737C234.779 191.362 235.989 190.515 236.746 189.383C237.502 188.25 237.743 186.925 237.414 185.698C237.251 185.09 236.954 184.525 236.538 184.035C236.123 183.545 235.598 183.139 234.993 182.84C233.772 182.238 232.3 182.11 230.902 182.485V182.485Z" fill="url(#paint15_linear_618_765)" stroke="black" stroke-width="0.734456" stroke-linecap="round" stroke-linejoin="round"/>
<path d="M199.812 178.11C200.727 179.693 201.322 181.441 201.561 183.254C201.801 185.066 201.681 186.908 201.208 188.674C200.735 190.439 199.919 192.095 198.805 193.544C197.692 194.994 196.304 196.211 194.72 197.124C193.135 198.038 191.386 198.63 189.572 198.868C187.758 199.106 185.915 198.985 184.148 198.511C182.38 198.037 180.723 197.22 179.271 196.107C177.819 194.993 176.6 193.605 175.685 192.022C174.77 190.438 174.175 188.69 173.936 186.877C173.696 185.065 173.816 183.223 174.289 181.457C174.762 179.692 175.578 178.037 176.692 176.587C177.805 175.137 179.193 173.92 180.777 173.007C182.362 172.093 184.111 171.501 185.924 171.263C187.738 171.025 189.582 171.146 191.349 171.62C193.117 172.094 194.774 172.911 196.226 174.024C197.678 175.138 198.896 176.526 199.812 178.11Z" fill="url(#paint16_linear_618_765)" stroke="black" stroke-width="0.800002" stroke-linecap="round" stroke-linejoin="round"/>
<path d="M192.134 188.402C192.755 188.76 193.307 189.222 193.761 189.762C194.214 190.301 194.558 190.907 194.775 191.546C194.991 192.184 195.075 192.843 195.022 193.483C194.969 194.123 194.78 194.733 194.465 195.278C194.15 195.823 193.717 196.292 193.188 196.658C192.66 197.024 192.048 197.28 191.386 197.412C190.725 197.544 190.027 197.549 189.334 197.426C188.64 197.304 187.963 197.056 187.342 196.698C186.722 196.34 186.169 195.878 185.716 195.338C185.263 194.799 184.918 194.193 184.702 193.554C184.485 192.916 184.401 192.257 184.454 191.617C184.507 190.977 184.697 190.367 185.011 189.822C185.326 189.277 185.76 188.808 186.288 188.442C186.816 188.076 187.428 187.82 188.09 187.688C188.751 187.556 189.449 187.551 190.143 187.674C190.837 187.796 191.513 188.044 192.134 188.402V188.402Z" fill="url(#paint17_linear_618_765)" stroke="black" stroke-width="0.734456" stroke-linecap="round" stroke-linejoin="round"/>
<path d="M198.143 177.996C199.396 178.72 200.346 179.851 200.783 181.14C201.22 182.43 201.109 183.772 200.474 184.872C199.838 185.972 198.731 186.74 197.395 187.006C196.059 187.273 194.605 187.016 193.351 186.292C192.097 185.569 191.147 184.438 190.71 183.148C190.273 181.859 190.384 180.516 191.02 179.416C191.655 178.316 192.763 177.548 194.098 177.282C195.434 177.016 196.889 177.273 198.143 177.996V177.996Z" fill="url(#paint18_linear_618_765)" stroke="black" stroke-width="0.734456" stroke-linecap="round" stroke-linejoin="round"/>
<path d="M197.718 184.673C198.972 185.397 199.922 186.528 200.359 187.817C200.796 189.107 200.685 190.449 200.049 191.549C199.414 192.65 198.307 193.417 196.971 193.684C195.635 193.95 194.18 193.693 192.927 192.97C191.673 192.246 190.723 191.115 190.286 189.826C189.849 188.536 189.96 187.194 190.595 186.093C191.231 184.993 192.338 184.226 193.674 183.959C195.01 183.693 196.465 183.95 197.718 184.673V184.673Z" fill="url(#paint19_linear_618_765)" stroke="black" stroke-width="0.734456" stroke-linecap="round" stroke-linejoin="round"/>
<path d="M802 310H1C0.734784 310 0.480429 309.895 0.292892 309.707C0.105356 309.52 0 309.265 0 309C0 308.735 0.105356 308.48 0.292892 308.293C0.480429 308.105 0.734784 308 1 308H802C802.265 308 802.52 308.105 802.707 308.293C802.895 308.48 803 308.735 803 309C803 309.265 802.895 309.52 802.707 309.707C802.52 309.895 802.265 310 802 310Z" fill="#3F3D56"/>
<path d="M321.5 301.738C321.5 303.786 320.686 305.75 319.238 307.198C317.79 308.646 315.826 309.46 313.778 309.46H107.222C105.174 309.46 103.21 308.646 101.762 307.198C100.314 305.75 99.5 303.786 99.5 301.738C99.5 299.69 100.314 297.726 101.762 296.278C103.21 294.83 105.174 294.016 107.222 294.016H109.514C109.383 293.556 109.315 293.081 109.312 292.602V187.149C109.312 185.37 110.018 183.664 111.276 182.407C112.533 181.149 114.239 180.442 116.018 180.442H304.982C306.761 180.442 308.467 181.149 309.724 182.407C310.982 183.664 311.688 185.37 311.688 187.148V292.602C311.689 293.081 311.621 293.557 311.486 294.016H313.778C314.792 294.016 315.796 294.216 316.733 294.604C317.67 294.992 318.521 295.561 319.238 296.278C319.955 296.995 320.524 297.846 320.912 298.783C321.3 299.72 321.5 300.724 321.5 301.738Z" fill="#3F3D56"/>
<path d="M214.5 240.671C212.14 240.671 209.832 239.971 207.869 238.659C205.906 237.348 204.376 235.484 203.473 233.303C202.569 231.121 202.333 228.721 202.794 226.406C203.254 224.091 204.391 221.964 206.06 220.295C207.729 218.625 209.856 217.488 212.172 217.028C214.487 216.567 216.887 216.803 219.068 217.707C221.249 218.61 223.113 220.14 224.425 222.103C225.737 224.066 226.437 226.374 226.437 228.734C226.433 231.899 225.175 234.933 222.937 237.171C220.699 239.409 217.665 240.667 214.5 240.671ZM214.5 218.798C212.535 218.798 210.614 219.381 208.98 220.473C207.346 221.565 206.073 223.117 205.321 224.932C204.568 226.748 204.372 228.746 204.755 230.673C205.139 232.601 206.085 234.371 207.475 235.761C208.864 237.15 210.635 238.097 212.562 238.48C214.49 238.863 216.488 238.667 218.303 237.914C220.119 237.162 221.671 235.889 222.762 234.255C223.854 232.621 224.437 230.7 224.437 228.734C224.434 226.1 223.386 223.575 221.523 221.712C219.66 219.849 217.135 218.801 214.5 218.798Z" fill="white"/>
<path d="M210.5 235.671C216.54 235.671 221.437 230.775 221.437 224.735C221.437 218.695 216.54 213.798 210.5 213.798C204.46 213.798 199.564 218.695 199.564 224.735C199.564 230.775 204.46 235.671 210.5 235.671Z" fill="white"/>
<path d="M546 132.681V111.5C546 98.7696 551.057 86.5606 560.059 77.5589C569.061 68.5571 581.27 63.5 594 63.5C606.73 63.5 618.939 68.5571 627.941 77.5589C636.943 86.5606 642 98.7696 642 111.5V132.681C641.997 135.549 640.856 138.299 638.828 140.328C636.799 142.356 634.049 143.497 631.181 143.5H566.3L561 132.237V143.5H556.819C553.951 143.497 551.201 142.356 549.172 140.328C547.144 138.299 546.003 135.549 546 132.681Z" fill="#2F2E41"/>
<path d="M629.007 200.476L631.074 222.879L632.014 233.058L633.513 249.265L633.702 251.355L634.922 264.518L634.952 264.662C635.721 267.125 637.264 269.274 639.351 270.789C641.439 272.305 643.96 273.107 646.539 273.076L702.22 272.115L717.935 271.842C718.238 272.296 718.534 272.705 718.829 273.069C720.209 274.745 721.926 276.112 723.869 277.081C725.812 278.051 727.937 278.601 730.106 278.696C732.286 278.796 734.462 278.43 736.489 277.621C738.516 276.813 740.347 275.581 741.86 274.008C742.163 273.697 742.458 273.372 742.731 273.031C744.79 270.498 745.995 267.379 746.174 264.12C746.354 260.861 745.499 257.628 743.731 254.885C742.553 253.048 740.997 251.484 739.166 250.298C737.334 249.112 735.27 248.331 733.113 248.008C730.968 247.679 728.778 247.805 726.685 248.378C724.592 248.951 722.643 249.957 720.965 251.333C720.432 251.772 719.933 252.25 719.473 252.764L702.22 250.25L658.771 243.926L656.915 218.857C656.908 218.744 656.9 218.63 656.892 218.509L655.393 198.28C655.142 194.914 653.616 191.77 651.126 189.491C648.636 187.213 645.37 185.97 641.995 186.018C640.884 186.03 639.779 186.185 638.708 186.48C637.508 186.806 636.361 187.3 635.3 187.95C633.182 189.237 631.468 191.095 630.356 193.31C629.243 195.525 628.775 198.008 629.007 200.476Z" fill="#9E616A"/>
<path d="M595.942 144.662C613.324 144.662 627.414 130.571 627.414 113.19C627.414 95.8088 613.324 81.7184 595.942 81.7184C578.561 81.7184 564.47 95.8088 564.47 113.19C564.47 130.571 578.561 144.662 595.942 144.662Z" fill="#9E616A"/>
<path d="M637.904 165.643L643.627 163.736C643.627 163.736 655.071 168.504 655.071 177.087C655.071 185.67 656.978 220.003 656.978 220.003L631.229 222.864L637.904 165.643Z" fill="#2FA4DA"/>
<path d="M516.168 308.46H538.859L546.622 243.411L549.432 219.918L549.818 216.676L551.893 199.287C552.005 197.104 551.517 194.931 550.484 193.005C549.451 191.078 547.911 189.47 546.03 188.355C544.149 187.241 542 186.661 539.814 186.679C537.627 186.697 535.488 187.312 533.625 188.457C533.157 188.746 532.709 189.067 532.285 189.419C530.983 190.49 529.922 191.824 529.173 193.335C528.423 194.845 528.002 196.497 527.938 198.182L525.893 217.305L516.168 308.46Z" fill="#9E616A"/>
<path d="M550.201 220.003L524.451 217.142C524.451 217.142 526.359 182.809 526.359 174.226C526.359 165.643 537.803 160.874 537.803 160.874L543.525 162.782L550.201 220.003Z" fill="#2FA4DA"/>
<path d="M541.85 308.46H649.493C646.082 295.424 641.429 282.746 635.596 270.6C634.649 268.669 634.089 267.639 634.089 267.639C634.089 267.639 588.314 266.737 559.701 278.181C557.876 278.969 556.24 280.136 554.9 281.604C549.946 286.724 545.615 296.335 541.85 308.46Z" fill="#2F2E41"/>
<path d="M564.471 155.152C564.471 155.152 563.562 154.665 617.874 156.643L640.606 162.904L643.627 163.736C643.627 163.736 640.766 220.957 633.136 231.447C625.507 241.938 627.414 247.66 629.321 248.614C631.229 249.568 635.997 247.66 633.136 252.429C630.275 257.197 626.46 254.336 630.275 257.197C634.09 260.058 635.997 270.549 635.997 270.549L552.073 281.993C552.073 281.993 549.212 244.799 541.582 225.725C533.953 206.652 532.045 199.022 532.045 199.022L537.767 160.875L564.471 155.152Z" fill="#2FA4DA"/>
<path d="M562 95.5C562 87.2783 565.266 79.3933 571.08 73.5797C576.893 67.7661 584.778 64.5 593 64.5C601.222 64.5 609.107 67.7661 614.92 73.5797C620.734 79.3933 624 87.2783 624 95.5V109.5H562V95.5Z" fill="#2F2E41"/>
<path d="M698.5 300.591V303.356C698.5 304.975 697.856 306.527 696.712 307.672C695.567 308.816 694.015 309.46 692.396 309.46H489.372C487.753 309.46 486.201 308.816 485.056 307.672C483.911 306.527 483.268 304.975 483.268 303.356V300.591C483.268 298.973 483.911 297.42 485.056 296.275C486.201 295.131 487.753 294.487 489.372 294.487H492.977C492.849 294.041 492.783 293.58 492.78 293.116V189.495C492.781 188.138 493.32 186.836 494.28 185.876C495.24 184.916 496.542 184.376 497.9 184.375H683.868C685.226 184.376 686.527 184.916 687.487 185.876C688.447 186.836 688.987 188.138 688.988 189.495V293.116C688.988 293.58 688.922 294.042 688.791 294.487H692.396C694.015 294.487 695.567 295.131 696.712 296.275C697.856 297.42 698.5 298.973 698.5 300.591Z" fill="#3F3D56"/>
<path d="M594.884 242.92C592.589 242.92 590.346 242.24 588.438 240.965C586.53 239.69 585.042 237.878 584.164 235.758C583.286 233.638 583.056 231.305 583.504 229.054C583.952 226.803 585.057 224.736 586.679 223.113C588.302 221.49 590.37 220.385 592.62 219.937C594.871 219.49 597.204 219.719 599.324 220.598C601.444 221.476 603.257 222.963 604.532 224.871C605.807 226.779 606.487 229.023 606.487 231.317C606.484 234.394 605.26 237.343 603.085 239.518C600.909 241.693 597.96 242.917 594.884 242.92ZM594.884 221.714C592.985 221.714 591.128 222.278 589.549 223.333C587.97 224.388 586.739 225.888 586.012 227.642C585.285 229.397 585.095 231.328 585.466 233.191C585.836 235.054 586.751 236.765 588.094 238.108C589.437 239.451 591.148 240.365 593.011 240.736C594.873 241.106 596.804 240.916 598.559 240.189C600.314 239.463 601.813 238.232 602.869 236.653C603.924 235.073 604.487 233.217 604.487 231.317C604.484 228.771 603.471 226.331 601.671 224.53C599.871 222.73 597.43 221.717 594.884 221.714Z" fill="white"/>
<path d="M590.884 237.92C596.74 237.92 601.487 233.173 601.487 227.317C601.487 221.461 596.74 216.714 590.884 216.714C585.028 216.714 580.281 221.461 580.281 227.317C580.281 233.173 585.028 237.92 590.884 237.92Z" fill="white"/>
<defs>
<linearGradient id="paint0_linear_618_765" x1="164.891" y1="133.936" x2="328.025" y2="133.936" gradientUnits="userSpaceOnUse">
<stop stop-color="#D07839"/>
</linearGradient>
<linearGradient id="paint1_linear_618_765" x1="137.098" y1="197.669" x2="286.205" y2="197.669" gradientUnits="userSpaceOnUse">
<stop stop-color="#D07839"/>
</linearGradient>
<linearGradient id="paint2_linear_618_765" x1="146.702" y1="110.572" x2="275.804" y2="110.572" gradientUnits="userSpaceOnUse">
<stop stop-color="#D07839"/>
</linearGradient>
<linearGradient id="paint3_linear_618_765" x1="188.652" y1="-214.997" x2="214.119" y2="-208.154" gradientUnits="userSpaceOnUse">
<stop stop-color="#D07839"/>
</linearGradient>
<linearGradient id="paint4_linear_618_765" x1="163.175" y1="-221.804" x2="188.642" y2="-214.962" gradientUnits="userSpaceOnUse">
<stop stop-color="#D07839"/>
</linearGradient>
<linearGradient id="paint5_linear_618_765" x1="-48.3084" y1="238.237" x2="-47.3753" y2="241.296" gradientUnits="userSpaceOnUse">
<stop stop-color="#74401B"/>
</linearGradient>
<linearGradient id="paint6_linear_618_765" x1="32.2735" y1="201.681" x2="33.0235" y2="204.14" gradientUnits="userSpaceOnUse">
<stop stop-color="#74401B"/>
</linearGradient>
<linearGradient id="paint7_linear_618_765" x1="33.0109" y1="204.827" x2="33.7608" y2="207.285" gradientUnits="userSpaceOnUse">
<stop stop-color="#74401B"/>
</linearGradient>
<linearGradient id="paint8_linear_618_765" x1="32.6625" y1="203.339" x2="33.4124" y2="205.797" gradientUnits="userSpaceOnUse">
<stop stop-color="#74401B"/>
</linearGradient>
<linearGradient id="paint9_linear_618_765" x1="34.5341" y1="211.331" x2="35.284" y2="213.789" gradientUnits="userSpaceOnUse">
<stop stop-color="#74401B"/>
</linearGradient>
<linearGradient id="paint10_linear_618_765" x1="35.2701" y1="214.476" x2="36.02" y2="216.935" gradientUnits="userSpaceOnUse">
<stop stop-color="#74401B"/>
</linearGradient>
<linearGradient id="paint11_linear_618_765" x1="34.9217" y1="212.988" x2="35.6716" y2="215.447" gradientUnits="userSpaceOnUse">
<stop stop-color="#74401B"/>
</linearGradient>
<linearGradient id="paint12_linear_618_765" x1="199.268" y1="-235.986" x2="209.898" y2="-233.13" gradientUnits="userSpaceOnUse">
<stop stop-color="#D07839"/>
</linearGradient>
<linearGradient id="paint13_linear_618_765" x1="4.97816" y1="220.742" x2="5.43244" y2="222.231" gradientUnits="userSpaceOnUse">
<stop stop-color="#74401B"/>
</linearGradient>
<linearGradient id="paint14_linear_618_765" x1="-0.332497" y1="221.895" x2="0.121788" y2="223.385" gradientUnits="userSpaceOnUse">
<stop stop-color="#74401B"/>
</linearGradient>
<linearGradient id="paint15_linear_618_765" x1="2.56841" y1="220.812" x2="3.0227" y2="222.302" gradientUnits="userSpaceOnUse">
<stop stop-color="#74401B"/>
</linearGradient>
<linearGradient id="paint16_linear_618_765" x1="179.313" y1="-241.319" x2="189.941" y2="-238.463" gradientUnits="userSpaceOnUse">
<stop stop-color="#D07839"/>
</linearGradient>
<linearGradient id="paint17_linear_618_765" x1="3.56414" y1="214.155" x2="4.0086" y2="215.612" gradientUnits="userSpaceOnUse">
<stop stop-color="#74401B"/>
</linearGradient>
<linearGradient id="paint18_linear_618_765" x1="-0.909674" y1="216.422" x2="-0.465207" y2="217.879" gradientUnits="userSpaceOnUse">
<stop stop-color="#74401B"/>
</linearGradient>
<linearGradient id="paint19_linear_618_765" x1="2.07355" y1="215.448" x2="2.51802" y2="216.905" gradientUnits="userSpaceOnUse">
<stop stop-color="#74401B"/>
</linearGradient>
</defs>
</svg>
