<svg width="470" height="386" viewBox="0 0 470 386" fill="none" xmlns="http://www.w3.org/2000/svg">
<circle cx="236" cy="88" r="85" fill="white"/>
<circle cx="236" cy="281" r="89" fill="white"/>
<path d="M188.686 355.31C201.973 363.899 217.344 368.717 233.156 369.25C232.874 369.919 232.557 370.574 232.206 371.21C230.366 374.608 227.764 377.534 224.606 379.76C220.866 382.392 216.476 383.946 211.913 384.253C207.35 384.561 202.791 383.609 198.732 381.502C194.673 379.395 191.271 376.214 188.896 372.306C186.522 368.398 185.266 363.913 185.266 359.34V355.31H188.686Z" fill="#3F3D56"/>
<path d="M281.956 356.49V359.34C281.958 364.889 280.111 370.28 276.708 374.661C273.304 379.043 268.537 382.166 263.161 383.537C257.784 384.907 252.104 384.447 247.018 382.229C241.932 380.012 237.73 376.162 235.076 371.29C234.71 370.638 234.38 369.967 234.086 369.28C234.816 369.3 235.536 369.31 236.266 369.31C252.386 369.329 268.198 364.892 281.956 356.49Z" fill="#3F3D56"/>
<path d="M315.596 55.1099C314.846 54.9999 314.086 54.9299 313.326 54.8799C321.962 74.7828 322.561 97.2556 314.996 117.59C315.756 117.5 316.506 117.38 317.256 117.24C324.58 115.821 331.162 111.849 335.831 106.032C340.501 100.214 342.954 92.9283 342.755 85.4714C342.556 78.0144 339.717 70.8701 334.743 65.3102C329.77 59.7504 322.985 56.1358 315.596 55.1099Z" fill="#3F3D56"/>
<path d="M159.206 54.8799C158.446 54.9299 157.686 54.9999 156.936 55.1099C149.547 56.1358 142.762 59.7504 137.789 65.3102C132.816 70.8701 129.977 78.0144 129.777 85.4713C129.578 92.9283 132.032 100.214 136.701 106.032C141.37 111.849 147.952 115.821 155.276 117.24C156.026 117.38 156.776 117.5 157.536 117.59C149.972 97.2556 150.57 74.7828 159.206 54.8799Z" fill="#3F3D56"/>
<path d="M315.596 55.1098C307.358 35.4297 292.098 19.5145 272.782 10.4561C253.466 1.39767 231.472 -0.157096 211.073 6.09382C190.675 12.3447 173.328 25.955 162.403 44.2805C151.478 62.6059 147.755 84.3381 151.957 105.255C156.16 126.172 167.987 144.78 185.142 157.464C202.297 170.149 223.554 176.003 244.784 173.891C266.014 171.779 285.701 161.85 300.02 146.034C314.339 130.218 322.268 109.645 322.266 88.3098C322.262 76.9107 319.995 65.626 315.596 55.1098ZM314.996 117.59C307.681 137.254 293.271 153.467 274.601 163.04C255.931 172.612 234.355 174.849 214.119 169.311C193.882 163.774 176.451 150.862 165.257 133.117C154.063 115.373 149.916 94.0809 153.632 73.4322C157.349 52.7836 168.66 34.2738 185.338 21.5461C202.017 8.81837 222.856 2.7946 243.754 4.66038C264.651 6.52615 284.093 16.1463 298.253 31.6274C312.414 47.1086 320.266 67.3293 320.266 88.3098C320.263 98.3054 318.478 108.22 314.996 117.59Z" fill="#3F3D56"/>
<path d="M280.266 68.8098H192.266C187.625 68.8098 183.174 70.6536 179.892 73.9355C176.61 77.2173 174.766 81.6685 174.766 86.3098C174.766 90.9511 176.61 95.4023 179.892 98.6842C183.174 101.966 187.625 103.81 192.266 103.81H280.266C284.907 103.81 289.359 101.966 292.64 98.6842C295.922 95.4023 297.766 90.9511 297.766 86.3098C297.766 81.6685 295.922 77.2173 292.64 73.9355C289.359 70.6536 284.907 68.8098 280.266 68.8098Z" fill="#3F3D56"/>
<path d="M236.266 191.31C212.756 191.321 190.184 200.53 173.377 216.97C156.571 233.409 146.864 255.772 146.333 279.276C145.803 302.78 154.491 325.558 170.539 342.739C186.587 359.92 208.721 370.138 232.206 371.21C233.156 371.26 234.116 371.29 235.076 371.29C235.476 371.31 235.866 371.31 236.266 371.31C260.136 371.31 283.028 361.828 299.906 344.949C316.784 328.071 326.266 305.179 326.266 281.31C326.266 257.44 316.784 234.548 299.906 217.67C283.028 200.792 260.136 191.31 236.266 191.31ZM281.956 356.49C268.199 364.892 252.387 369.329 236.266 369.31C235.536 369.31 234.816 369.3 234.086 369.28C233.776 369.28 233.466 369.27 233.156 369.25C212.025 368.515 191.863 360.201 176.356 345.827C160.849 331.452 151.033 311.977 148.701 290.962C146.369 269.946 151.678 248.793 163.656 231.369C175.635 213.945 193.484 201.413 213.941 196.065C234.397 190.716 256.096 192.907 275.07 202.237C294.045 211.568 309.028 227.415 317.281 246.882C325.535 266.349 326.507 288.136 320.021 308.261C313.535 328.387 300.024 345.506 281.956 356.49Z" fill="#3F3D56"/>
<path d="M256.433 346.143H217.1C214.359 346.143 211.731 345.055 209.793 343.117C207.855 341.179 206.766 338.55 206.766 335.81C206.766 333.069 207.855 330.441 209.793 328.503C211.731 326.565 214.359 325.476 217.1 325.476H256.433C259.174 325.476 261.802 326.565 263.74 328.503C265.678 330.441 266.767 333.069 266.767 335.81C266.767 338.55 265.678 341.179 263.74 343.117C261.802 345.055 259.174 346.143 256.433 346.143Z" fill="#3F3D56"/>
<path d="M219.722 341.054C222.618 341.054 224.966 338.706 224.966 335.81C224.966 332.913 222.618 330.565 219.722 330.565C216.826 330.565 214.478 332.913 214.478 335.81C214.478 338.706 216.826 341.054 219.722 341.054Z" fill="#F2F2F2"/>
<path d="M236.766 341.054C239.663 341.054 242.011 338.706 242.011 335.81C242.011 332.913 239.663 330.565 236.766 330.565C233.87 330.565 231.522 332.913 231.522 335.81C231.522 338.706 233.87 341.054 236.766 341.054Z" fill="#F2F2F2"/>
<path d="M253.811 341.054C256.707 341.054 259.055 338.706 259.055 335.81C259.055 332.913 256.707 330.565 253.811 330.565C250.914 330.565 248.566 332.913 248.566 335.81C248.566 338.706 250.914 341.054 253.811 341.054Z" fill="#2FA4DA"/>
<path d="M263.408 228.098C249.725 214.406 225.374 213.709 210.886 226.577C200.688 235.518 196.625 249.25 195.29 262.255C194.348 271.629 194.907 281.689 199.717 290.042C204.546 296.245 212.957 297.551 220.339 297.924C235.052 298.581 250.599 295.028 262.358 285.714C276.531 273.553 279.839 250.909 269.434 235.391C267.736 232.741 265.685 230.297 263.408 228.098V228.098Z" fill="black" fill-opacity="0.31373"/>
<path d="M258.5 218.283C244.818 204.59 220.466 203.894 205.979 216.761C195.781 225.703 191.717 239.435 190.382 252.44C189.44 261.813 190 271.874 194.809 280.227C199.638 286.43 208.05 287.735 215.431 288.108C230.144 288.766 245.691 285.213 257.45 275.898C271.623 263.737 274.931 241.093 264.527 225.575C262.829 222.925 260.777 220.481 258.5 218.283V218.283Z" fill="#DC9A6A" stroke="black" stroke-width="4" stroke-linecap="round" stroke-linejoin="round"/>
<path d="M227.641 207.712C230.556 208.409 233.383 209.479 236.023 210.97C238.585 212.354 241.01 214.013 243.179 215.947C256.262 227.136 258.962 248.043 249.411 262.334C241.275 273.513 228.348 280.511 215.127 283.574C209.768 284.781 203.663 285.615 198.441 283.633C203.27 286.95 209.66 287.824 215.421 288.108C230.134 288.766 245.682 285.213 257.45 275.898C271.623 263.737 274.931 241.093 264.527 225.576C262.829 222.916 260.778 220.481 258.5 218.273C250.501 210.264 238.84 206.711 227.641 207.712V207.712Z" fill="black" fill-opacity="0.31373"/>
<path fill-rule="evenodd" clip-rule="evenodd" d="M258.863 214.838C261.562 206.455 275.176 198.711 279.21 201.626C283.244 204.551 283.558 211.501 282.842 212.531C282.135 213.552 274.852 210.401 270.259 214.2C265.675 217.988 263.368 221.227 263.368 221.227L258.863 214.838Z" fill="url(#paint0_linear_909_392)" stroke="black" stroke-width="4"/>
<path fill-rule="evenodd" clip-rule="evenodd" d="M281.988 205.268C282.076 206.181 281.949 206.936 281.703 207.231C281.006 208.065 274.028 207.251 269.552 210.715C265.086 214.18 262.829 216.83 262.829 216.83L259.256 213.827C259.118 214.17 258.971 214.504 258.863 214.838L263.368 221.237C263.368 221.237 265.675 217.988 270.259 214.19C274.852 210.401 282.135 213.552 282.842 212.521C283.333 211.824 283.333 208.33 281.988 205.268V205.268Z" fill="black" fill-opacity="0.31373"/>
<path d="M262.004 214.887C248.567 201.577 226.296 198.142 210.631 208.124C207.088 210.077 208.157 214.975 208.197 214.897C214.115 210.215 220.25 215.368 228.308 221.149C238.172 228.226 249.018 239.081 256.978 249.633C262.554 257.014 266.538 264.267 263.349 269.342C263.515 269.391 268.148 270.696 270.268 266.377C280.947 246.246 274.911 226.91 262.004 214.887V214.887Z" fill="url(#paint1_linear_909_392)" stroke="black" stroke-width="4" stroke-linecap="round" stroke-linejoin="round"/>
<path d="M260.944 213.405C265.204 224.457 264.644 234.91 259.236 245C258.009 247.297 256.125 246.551 254.544 246.521C255.379 247.552 256.193 248.602 256.979 249.633C262.544 257.024 266.539 264.277 263.349 269.342C263.516 269.391 268.148 270.706 270.268 266.387C280.044 247.935 275.755 227.863 260.944 213.405V213.405Z" fill="black" fill-opacity="0.31373"/>
<defs>
<linearGradient id="paint0_linear_909_392" x1="-77.1206" y1="-835.079" x2="-52.8394" y2="-835.079" gradientUnits="userSpaceOnUse">
<stop stop-color="#74401B"/>
</linearGradient>
<linearGradient id="paint1_linear_909_392" x1="-127.969" y1="-833.722" x2="-60.2217" y2="-833.722" gradientUnits="userSpaceOnUse">
<stop stop-color="#74401B"/>
</linearGradient>
</defs>
</svg>
