<svg width="547" height="383" viewBox="0 0 547 383" fill="none" xmlns="http://www.w3.org/2000/svg">
<g clip-path="url(#clip0_918_674)">
<circle cx="440" cy="86" r="85" fill="white"/>
<circle cx="440" cy="279" r="89" fill="white"/>
<path d="M392.686 353.31C405.973 361.899 421.344 366.717 437.156 367.25C436.874 367.919 436.557 368.574 436.206 369.21C434.366 372.608 431.764 375.534 428.606 377.76C424.866 380.392 420.476 381.946 415.913 382.253C411.35 382.561 406.791 381.609 402.732 379.502C398.673 377.395 395.271 374.214 392.896 370.306C390.522 366.398 389.266 361.913 389.266 357.34V353.31H392.686Z" fill="#3F3D56"/>
<path d="M485.956 354.49V357.34C485.958 362.889 484.111 368.28 480.708 372.661C477.304 377.043 472.537 380.166 467.161 381.537C461.784 382.907 456.104 382.447 451.018 380.229C445.932 378.012 441.73 374.162 439.076 369.29C438.71 368.638 438.38 367.967 438.086 367.28C438.816 367.3 439.536 367.31 440.266 367.31C456.386 367.329 472.198 362.892 485.956 354.49Z" fill="#3F3D56"/>
<path d="M519.596 53.1099C518.846 52.9999 518.086 52.9299 517.326 52.8799C525.962 72.7828 526.561 95.2556 518.996 115.59C519.756 115.5 520.506 115.38 521.256 115.24C528.58 113.821 535.162 109.849 539.831 104.032C544.501 98.214 546.954 90.9283 546.755 83.4714C546.556 76.0144 543.717 68.8701 538.743 63.3102C533.77 57.7504 526.985 54.1358 519.596 53.1099Z" fill="#3F3D56"/>
<path d="M363.206 52.8799C362.446 52.9299 361.686 52.9999 360.936 53.1099C353.547 54.1358 346.762 57.7504 341.789 63.3102C336.816 68.8701 333.977 76.0144 333.777 83.4713C333.578 90.9283 336.032 98.2141 340.701 104.032C345.37 109.849 351.952 113.821 359.276 115.24C360.026 115.38 360.776 115.5 361.536 115.59C353.972 95.2556 354.57 72.7828 363.206 52.8799Z" fill="#3F3D56"/>
<path d="M519.596 53.1098C511.358 33.4297 496.098 17.5145 476.782 8.45606C457.466 -0.602329 435.472 -2.1571 415.073 4.09382C394.675 10.3447 377.328 23.955 366.403 42.2805C355.478 60.6059 351.755 82.3381 355.957 103.255C360.16 124.172 371.987 142.78 389.142 155.464C406.297 168.149 427.554 174.003 448.784 171.891C470.014 169.779 489.701 159.85 504.02 144.034C518.339 128.218 526.268 107.645 526.266 86.3098C526.262 74.9107 523.995 63.626 519.596 53.1098ZM518.996 115.59C511.681 135.254 497.271 151.467 478.601 161.04C459.931 170.612 438.355 172.849 418.119 167.311C397.882 161.774 380.451 148.862 369.257 131.117C358.063 113.373 353.916 92.0809 357.632 71.4322C361.349 50.7836 372.66 32.2738 389.338 19.5461C406.017 6.81837 426.856 0.7946 447.754 2.66038C468.651 4.52615 488.093 14.1463 502.253 29.6274C516.414 45.1086 524.266 65.3293 524.266 86.3098C524.263 96.3054 522.478 106.22 518.996 115.59Z" fill="#3F3D56"/>
<path d="M484.266 66.8098H396.266C391.625 66.8098 387.174 68.6536 383.892 71.9355C380.61 75.2173 378.766 79.6685 378.766 84.3098C378.766 88.9511 380.61 93.4023 383.892 96.6842C387.174 99.9661 391.625 101.81 396.266 101.81H484.266C488.907 101.81 493.359 99.9661 496.64 96.6842C499.922 93.4023 501.766 88.9511 501.766 84.3098C501.766 79.6685 499.922 75.2173 496.64 71.9355C493.359 68.6536 488.907 66.8098 484.266 66.8098Z" fill="#3F3D56"/>
<path d="M440.266 189.31C416.756 189.321 394.184 198.53 377.377 214.97C360.571 231.409 350.864 253.772 350.333 277.276C349.803 300.78 358.491 323.558 374.539 340.739C390.587 357.92 412.721 368.138 436.206 369.21C437.156 369.26 438.116 369.29 439.076 369.29C439.476 369.31 439.866 369.31 440.266 369.31C464.136 369.31 487.028 359.828 503.906 342.949C520.784 326.071 530.266 303.179 530.266 279.31C530.266 255.44 520.784 232.548 503.906 215.67C487.028 198.792 464.136 189.31 440.266 189.31ZM485.956 354.49C472.199 362.892 456.387 367.329 440.266 367.31C439.536 367.31 438.816 367.3 438.086 367.28C437.776 367.28 437.466 367.27 437.156 367.25C416.025 366.515 395.863 358.201 380.356 343.827C364.849 329.452 355.033 309.977 352.701 288.962C350.369 267.946 355.678 246.793 367.656 229.369C379.635 211.945 397.484 199.413 417.941 194.065C438.397 188.716 460.096 190.907 479.07 200.237C498.045 209.568 513.028 225.415 521.281 244.882C529.535 264.349 530.507 286.136 524.021 306.261C517.535 326.387 504.024 343.506 485.956 354.49Z" fill="#3F3D56"/>
<path d="M460.433 344.143H421.1C418.359 344.143 415.731 343.055 413.793 341.117C411.855 339.179 410.766 336.55 410.766 333.81C410.766 331.069 411.855 328.441 413.793 326.503C415.731 324.565 418.359 323.476 421.1 323.476H460.433C463.174 323.476 465.802 324.565 467.74 326.503C469.678 328.441 470.767 331.069 470.767 333.81C470.767 336.55 469.678 339.179 467.74 341.117C465.802 343.055 463.174 344.143 460.433 344.143Z" fill="#3F3D56"/>
<path d="M423.722 339.054C426.618 339.054 428.966 336.706 428.966 333.81C428.966 330.913 426.618 328.565 423.722 328.565C420.826 328.565 418.478 330.913 418.478 333.81C418.478 336.706 420.826 339.054 423.722 339.054Z" fill="#F2F2F2"/>
<path d="M440.766 339.054C443.663 339.054 446.011 336.706 446.011 333.81C446.011 330.913 443.663 328.565 440.766 328.565C437.87 328.565 435.522 330.913 435.522 333.81C435.522 336.706 437.87 339.054 440.766 339.054Z" fill="#F2F2F2"/>
<path d="M457.811 339.054C460.707 339.054 463.055 336.706 463.055 333.81C463.055 330.913 460.707 328.565 457.811 328.565C454.914 328.565 452.566 330.913 452.566 333.81C452.566 336.706 454.914 339.054 457.811 339.054Z" fill="#2FA4DA"/>
<path d="M458.803 235.719C448.961 225.87 431.445 225.369 421.024 234.625C413.688 241.056 410.765 250.934 409.805 260.288C409.127 267.031 409.53 274.268 412.989 280.276C416.463 284.738 422.514 285.677 427.823 285.945C438.406 286.418 449.59 283.863 458.048 277.162C468.243 268.415 470.622 252.127 463.138 240.965C461.917 239.058 460.441 237.3 458.803 235.719V235.719Z" fill="black" fill-opacity="0.31373"/>
<path d="M455.273 228.659C445.431 218.81 427.915 218.308 417.494 227.564C410.158 233.996 407.235 243.873 406.275 253.228C405.597 259.971 406 267.207 409.459 273.216C412.933 277.678 418.983 278.617 424.293 278.885C434.876 279.358 446.059 276.802 454.518 270.102C464.712 261.354 467.092 245.067 459.608 233.904C458.387 231.998 456.911 230.24 455.273 228.659V228.659Z" fill="#DC9A6A" stroke="black" stroke-width="4" stroke-linecap="round" stroke-linejoin="round"/>
<path d="M433.076 221.055C435.173 221.556 437.206 222.325 439.105 223.399C440.948 224.394 442.692 225.587 444.252 226.978C453.664 235.027 455.605 250.065 448.736 260.345C442.883 268.386 433.584 273.42 424.074 275.623C420.219 276.491 415.828 277.092 412.072 275.665C415.545 278.052 420.142 278.68 424.286 278.885C434.869 279.358 446.053 276.802 454.518 270.102C464.713 261.354 467.092 245.066 459.608 233.904C458.387 231.991 456.911 230.24 455.273 228.651C449.519 222.89 441.132 220.334 433.076 221.055V221.055Z" fill="black" fill-opacity="0.31373"/>
<path fill-rule="evenodd" clip-rule="evenodd" d="M455.534 226.18C457.476 220.151 467.268 214.58 470.17 216.677C473.072 218.781 473.298 223.78 472.782 224.521C472.274 225.256 467.035 222.989 463.731 225.722C460.434 228.447 458.775 230.777 458.775 230.777L455.534 226.18Z" fill="url(#paint0_linear_918_674)" stroke="black" stroke-width="4"/>
<path fill-rule="evenodd" clip-rule="evenodd" d="M472.168 219.297C472.232 219.953 472.14 220.497 471.963 220.709C471.462 221.309 466.442 220.723 463.223 223.215C460.01 225.707 458.387 227.614 458.387 227.614L455.817 225.453C455.718 225.7 455.612 225.94 455.534 226.18L458.775 230.784C458.775 230.784 460.434 228.447 463.731 225.714C467.035 222.989 472.274 225.255 472.782 224.514C473.135 224.013 473.135 221.499 472.168 219.297V219.297Z" fill="black" fill-opacity="0.31373"/>
<path d="M457.793 226.216C448.128 216.642 432.108 214.171 420.84 221.351C418.291 222.756 419.061 226.279 419.089 226.223C423.346 222.855 427.759 226.562 433.555 230.72C440.651 235.811 448.453 243.619 454.178 251.209C458.189 256.518 461.055 261.736 458.76 265.386C458.881 265.421 462.213 266.36 463.738 263.254C471.419 248.773 467.077 234.864 457.793 226.216V226.216Z" fill="url(#paint1_linear_918_674)" stroke="black" stroke-width="4" stroke-linecap="round" stroke-linejoin="round"/>
<path d="M457.031 225.15C460.095 233.099 459.692 240.619 455.802 247.877C454.92 249.529 453.564 248.992 452.427 248.971C453.027 249.712 453.613 250.468 454.178 251.209C458.181 256.525 461.055 261.743 458.76 265.386C458.88 265.421 462.213 266.367 463.738 263.261C470.77 249.988 467.684 235.549 457.031 225.15V225.15Z" fill="black" fill-opacity="0.31373"/>
<path d="M287.181 168.885C286.232 222.7 250.063 246.09 249.469 223.369C248.731 194.63 236.338 120.093 187.695 142.95C129.521 170.284 181.963 336.778 165.122 336.778C97.7453 336.778 43.0625 261.565 43.0625 168.885C43.0625 76.2124 97.7453 1 165.122 1C232.498 1 288.794 77.3928 287.181 168.885V168.885Z" fill="url(#paint2_linear_918_674)" stroke="black" stroke-width="0.8" stroke-linecap="round" stroke-linejoin="round"/>
<path d="M254.217 53.7161C269.842 81.9574 277.596 117.37 278.293 154.55C278.942 188.898 269.575 221.335 252.209 230.526C260.318 233.119 286.232 222.693 287.174 168.878C287.96 124.657 275.205 83.9634 254.217 53.7161ZM195.394 124.336C190.4 124.432 184.887 125.769 178.806 128.621C120.632 155.955 173.081 322.449 156.24 322.449C121.541 322.449 90.2096 302.498 67.9785 270.483C90.2848 310.754 125.503 336.778 165.122 336.778C181.963 336.778 129.514 170.284 187.688 142.95C205.724 134.483 218.78 139.395 228.105 150.394C221.151 135.411 210.698 124.05 195.394 124.336V124.336Z" fill="black" fill-opacity="0.31373"/>
<path d="M223.926 265.341C223.926 294.892 212.183 323.232 191.28 344.128C170.376 365.023 142.025 376.762 112.463 376.762C82.9013 376.762 54.5502 365.023 33.6468 344.128C12.7434 323.232 1 294.892 1 265.341C1 235.791 12.7434 207.451 33.6468 186.555C54.5502 165.66 82.9013 153.921 112.463 153.921C142.025 153.921 170.376 165.66 191.28 186.555C212.183 207.451 223.926 235.791 223.926 265.341V265.341Z" fill="url(#paint3_linear_918_674)" stroke="black" stroke-width="0.799968" stroke-linecap="round" stroke-linejoin="round"/>
<path d="M112.468 153.936C100.608 153.936 89.1916 155.806 78.4655 159.238C88.1122 156.986 98.285 155.771 108.799 155.771C137.644 155.771 163.947 164.833 183.739 179.701C164.418 163.611 139.564 153.936 112.468 153.936ZM218.028 229.483C219.49 235.433 220.269 241.574 220.269 247.878C220.269 298.725 170.328 339.985 108.799 339.985C57.348 339.985 14.0198 311.136 1.20312 271.951C4.61909 330.391 53.1532 376.783 112.468 376.783C173.996 376.783 223.938 326.864 223.938 265.359C223.938 252.811 221.861 240.741 218.028 229.483Z" fill="black" fill-opacity="0.31373"/>
<path d="M112.468 153.936C93.4618 153.936 75.5553 158.692 59.8896 167.091C67.3091 192.999 88.9868 216.955 114.593 216.955C139.516 216.955 160.756 194.261 168.716 169.152C152.203 159.483 132.978 153.936 112.468 153.936V153.936Z" fill="black" fill-opacity="0.31373"/>
<path fill-rule="evenodd" clip-rule="evenodd" d="M188.842 61.1265C175.308 61.1265 147.816 68.3181 143.007 86.966C142.931 87.1093 142.788 87.6279 142.631 88.4262C133.927 83.1109 123.693 80.02 112.755 80.02C101.332 80.02 90.715 83.3907 81.772 89.1358C81.5875 87.969 81.3621 87.1502 81.2732 86.966C76.4636 68.3181 48.9719 61.1469 35.431 61.1401C33.2789 61.1401 31.4958 61.3243 30.1909 61.6655C22.9285 62.6753 14.9762 65.5752 15.5569 67.1582C20.8858 66.2507 23.5776 67.2878 23.4956 68.1476C23.3316 69.7578 20.1206 70.1877 21.1522 75.9943C23.0993 73.1763 25.8116 72.2074 27.9432 71.7571C30.1294 85.4649 39.6941 109.394 57.5938 110.636C59.1309 110.745 60.5656 110.738 61.9184 110.711C57.6962 118.708 55.2982 127.817 55.2982 137.485C55.2982 169.193 81.0341 205.936 112.755 205.936C144.469 205.936 170.239 169.193 170.239 137.485C170.239 127.823 167.834 118.735 163.612 110.745C164.589 110.738 165.62 110.711 166.686 110.636C184.524 109.401 194.089 85.6082 196.316 71.8867C198.352 72.3848 200.784 73.4083 202.567 75.9943C203.599 70.1877 200.388 69.7578 200.224 68.1476C200.142 67.2878 202.834 66.2507 208.163 67.1582C208.716 65.6571 201.618 62.9756 194.69 61.8361C193.372 61.3721 191.349 61.1265 188.842 61.1265V61.1265Z" fill="url(#paint4_linear_918_674)" stroke="black" stroke-width="0.8" stroke-linejoin="round"/>
<path d="M134.665 231.277C125.141 221.759 108.191 221.274 98.1074 230.219C91.009 236.435 88.1806 245.981 87.2515 255.022C86.5956 261.538 86.985 268.532 90.3327 274.338C93.694 278.651 99.5489 279.558 104.687 279.817C114.928 280.275 125.749 277.805 133.934 271.329C143.799 262.875 146.102 247.134 138.86 236.347C137.678 234.504 136.25 232.805 134.665 231.277V231.277Z" fill="black" fill-opacity="0.31373"/>
<path d="M100.85 250.553C100.85 256.142 98.629 261.502 94.6755 265.454C90.7221 269.406 85.36 271.626 79.769 271.626C74.178 271.626 68.8159 269.406 64.8625 265.454C60.909 261.502 58.688 256.142 58.688 250.553C58.688 244.964 60.909 239.604 64.8625 235.652C68.8159 231.7 74.178 229.48 79.769 229.48C85.36 229.48 90.7221 231.7 94.6755 235.652C98.629 239.604 100.85 244.964 100.85 250.553V250.553Z" fill="black" fill-opacity="0.31373"/>
<path d="M131.25 224.454C121.726 214.935 104.776 214.451 94.6919 223.396C87.5935 229.612 84.7651 239.158 83.8359 248.199C83.1801 254.715 83.5695 261.709 86.9171 267.515C90.2785 271.827 96.1334 272.735 101.271 272.994C111.512 273.451 122.334 270.981 130.519 264.506C140.384 256.052 142.686 240.311 135.444 229.523C134.262 227.681 132.835 225.982 131.25 224.454V224.454Z" fill="#DC9A6A" stroke="black" stroke-width="0.8" stroke-linecap="round" stroke-linejoin="round"/>
<path d="M109.769 217.105C111.798 217.59 113.766 218.333 115.604 219.371C117.387 220.333 119.074 221.486 120.584 222.83C129.691 230.608 131.57 245.142 124.923 255.077C119.259 262.848 110.261 267.713 101.059 269.842C97.3284 270.681 93.0789 271.261 89.4443 269.883C92.8056 272.189 97.2532 272.796 101.264 272.994C111.505 273.452 122.326 270.981 130.518 264.506C140.383 256.052 142.686 240.311 135.444 229.524C134.262 227.674 132.834 225.982 131.249 224.447C125.681 218.879 117.565 216.409 109.769 217.105V217.105Z" fill="black" fill-opacity="0.31373"/>
<path fill-rule="evenodd" clip-rule="evenodd" d="M131.502 222.059C133.381 216.232 142.857 210.848 145.665 212.875C148.473 214.908 148.692 219.739 148.193 220.455C147.701 221.165 142.632 218.975 139.434 221.615C136.244 224.249 134.638 226.501 134.638 226.501L131.502 222.059Z" fill="url(#paint5_linear_918_674)" stroke="black" stroke-width="0.8"/>
<path fill-rule="evenodd" clip-rule="evenodd" d="M147.599 215.406C147.66 216.041 147.571 216.566 147.4 216.771C146.915 217.351 142.058 216.785 138.942 219.193C135.834 221.602 134.263 223.444 134.263 223.444L131.776 221.356C131.68 221.595 131.578 221.827 131.502 222.059L134.638 226.508C134.638 226.508 136.244 224.249 139.434 221.609C142.632 218.975 147.701 221.165 148.193 220.449C148.534 219.964 148.534 217.535 147.599 215.406V215.406Z" fill="black" fill-opacity="0.31373"/>
<path d="M133.688 222.093C124.335 212.841 108.833 210.452 97.9296 217.392C95.4633 218.749 96.2079 222.154 96.2353 222.1C100.355 218.845 104.625 222.427 110.234 226.446C117.1 231.366 124.649 238.912 130.19 246.247C134.071 251.378 136.844 256.42 134.624 259.948C134.74 259.982 137.965 260.89 139.44 257.887C146.874 243.893 142.672 230.451 133.688 222.093V222.093Z" fill="url(#paint6_linear_918_674)" stroke="black" stroke-width="0.8" stroke-linecap="round" stroke-linejoin="round"/>
<path d="M132.95 221.062C135.916 228.745 135.526 236.012 131.762 243.026C130.908 244.623 129.596 244.105 128.496 244.084C129.077 244.8 129.644 245.531 130.19 246.247C134.064 251.385 136.845 256.427 134.624 259.948C134.74 259.982 137.965 260.896 139.441 257.894C146.245 245.067 143.26 231.113 132.95 221.062V221.062Z" fill="black" fill-opacity="0.31373"/>
<path d="M94.5449 235.741C95.9304 238.137 96.83 240.783 97.1925 243.526C97.555 246.269 97.3732 249.056 96.6576 251.728C95.942 254.401 94.7065 256.905 93.0217 259.1C91.3369 261.294 89.2357 263.135 86.8382 264.517C84.4407 265.9 81.7938 266.797 79.0486 267.157C76.3035 267.517 73.5138 267.333 70.8388 266.616C68.1639 265.899 65.6561 264.663 63.4587 262.977C61.2612 261.292 59.4171 259.192 58.0317 256.795C56.6462 254.399 55.7466 251.753 55.3841 249.01C55.0216 246.267 55.2034 243.48 55.919 240.807C56.6346 238.135 57.8701 235.631 59.5549 233.436C61.2397 231.242 63.3409 229.401 65.7384 228.019C68.1359 226.636 70.7828 225.739 73.528 225.379C76.2731 225.019 79.0628 225.203 81.7378 225.92C84.4127 226.637 86.9205 227.873 89.1179 229.558C91.3154 231.244 93.1595 233.344 94.5449 235.741V235.741Z" fill="url(#paint7_linear_918_674)" stroke="black" stroke-width="0.800002" stroke-linecap="round" stroke-linejoin="round"/>
<path d="M179.935 250.881C179.935 256.47 177.714 261.83 173.761 265.782C169.807 269.734 164.445 271.954 158.854 271.954C153.263 271.954 147.901 269.734 143.947 265.782C139.994 261.83 137.773 256.47 137.773 250.881C137.773 245.292 139.994 239.932 143.947 235.98C147.901 232.028 153.263 229.808 158.854 229.808C164.445 229.808 169.807 232.028 173.761 235.98C177.714 239.932 179.935 245.292 179.935 250.881V250.881Z" fill="black" fill-opacity="0.31373"/>
<path d="M170.354 261.155C166.397 265.107 161.031 267.328 155.438 267.331C149.844 267.333 144.481 265.116 140.528 261.168C136.574 257.22 134.354 251.863 134.357 246.277C134.359 240.69 136.584 235.332 140.541 231.38C144.498 227.428 149.863 225.207 155.456 225.204C161.05 225.202 166.413 227.418 170.367 231.367C174.32 235.315 176.54 240.672 176.537 246.258C176.535 251.845 174.311 257.203 170.354 261.155Z" fill="url(#paint8_linear_918_674)" stroke="black" stroke-width="0.799998" stroke-linecap="round" stroke-linejoin="round"/>
<path d="M166.482 313.279C138.587 313.279 115.939 335.918 115.939 363.798C115.939 369.563 116.909 375.09 118.692 380.248H214.244C216.027 375.09 216.997 369.563 216.997 363.798C216.997 335.918 194.376 313.279 166.482 313.279V313.279Z" fill="url(#paint9_linear_918_674)" stroke="black" stroke-width="0.8" stroke-linecap="round" stroke-linejoin="round"/>
<path d="M65.3957 313.279C37.5009 313.279 14.8804 335.918 14.8804 363.798C14.8804 369.563 15.8505 375.09 17.6336 380.248H113.185C114.968 375.09 115.938 369.563 115.938 363.798C115.938 335.918 93.2905 313.279 65.3957 313.279Z" fill="url(#paint10_linear_918_674)" stroke="black" stroke-width="0.8" stroke-linecap="round" stroke-linejoin="round"/>
<path d="M110.751 132.881C110.752 135.346 110.267 137.787 109.324 140.065C108.381 142.343 106.998 144.413 105.255 146.157C103.512 147.901 101.441 149.284 99.1631 150.227C96.8847 151.171 94.4427 151.657 91.9765 151.657C89.5103 151.657 87.0682 151.171 84.7898 150.227C82.5114 149.284 80.4414 147.901 78.6979 146.157C76.9545 144.413 75.5717 142.343 74.6287 140.065C73.6858 137.787 73.201 135.346 73.2022 132.881C73.201 130.416 73.6858 127.974 74.6287 125.696C75.5717 123.418 76.9545 121.348 78.6979 119.605C80.4414 117.861 82.5114 116.478 84.7898 115.534C87.0682 114.591 89.5103 114.105 91.9765 114.105C94.4427 114.105 96.8847 114.591 99.1631 115.534C101.441 116.478 103.512 117.861 105.255 119.605C106.998 121.348 108.381 123.418 109.324 125.696C110.267 127.974 110.752 130.416 110.751 132.881V132.881Z" fill="white" stroke="black" stroke-width="0.800004" stroke-linecap="round" stroke-linejoin="round"/>
<path d="M152.329 132.881C152.331 135.346 151.846 137.787 150.903 140.065C149.96 142.343 148.577 144.413 146.834 146.157C145.09 147.901 143.02 149.284 140.742 150.227C138.463 151.171 136.021 151.657 133.555 151.657C131.089 151.657 128.647 151.171 126.368 150.227C124.09 149.284 122.02 147.901 120.277 146.157C118.533 144.413 117.15 142.343 116.207 140.065C115.264 137.787 114.78 135.346 114.781 132.881C114.78 130.416 115.264 127.974 116.207 125.696C117.15 123.418 118.533 121.348 120.277 119.605C122.02 117.861 124.09 116.478 126.368 115.534C128.647 114.591 131.089 114.105 133.555 114.105C136.021 114.105 138.463 114.591 140.742 115.534C143.02 116.478 145.09 117.861 146.834 119.605C148.577 121.348 149.96 123.418 150.903 125.696C151.846 127.974 152.331 130.416 152.329 132.881Z" fill="white" stroke="black" stroke-width="0.800004" stroke-linecap="round" stroke-linejoin="round"/>
<path d="M104.935 135.161C104.935 135.958 104.779 136.746 104.474 137.482C104.17 138.218 103.723 138.887 103.16 139.451C102.597 140.014 101.928 140.461 101.192 140.766C100.456 141.071 99.6674 141.228 98.8706 141.228C98.0739 141.228 97.2849 141.071 96.5489 140.766C95.8128 140.461 95.1441 140.014 94.581 139.451C94.0178 138.887 93.5713 138.218 93.2668 137.482C92.9624 136.746 92.806 135.958 92.8066 135.161C92.806 134.365 92.9624 133.576 93.2668 132.84C93.5713 132.104 94.0178 131.435 94.581 130.872C95.1441 130.308 95.8128 129.861 96.5489 129.556C97.2849 129.251 98.0739 129.094 98.8706 129.094C99.6674 129.094 100.456 129.251 101.192 129.556C101.928 129.861 102.597 130.308 103.16 130.872C103.723 131.435 104.17 132.104 104.474 132.84C104.779 133.576 104.935 134.365 104.935 135.161V135.161Z" fill="black"/>
<path d="M132.672 135.161C132.673 135.958 132.516 136.746 132.212 137.482C131.907 138.218 131.461 138.887 130.898 139.451C130.334 140.014 129.666 140.461 128.93 140.766C128.194 141.071 127.405 141.228 126.608 141.228C125.811 141.228 125.022 141.071 124.286 140.766C123.55 140.461 122.881 140.014 122.318 139.451C121.755 138.887 121.309 138.218 121.004 137.482C120.7 136.746 120.543 135.958 120.544 135.161C120.543 134.365 120.7 133.576 121.004 132.84C121.309 132.104 121.755 131.435 122.318 130.872C122.881 130.308 123.55 129.861 124.286 129.556C125.022 129.251 125.811 129.094 126.608 129.094C127.405 129.094 128.194 129.251 128.93 129.556C129.666 129.861 130.334 130.308 130.898 130.872C131.461 131.435 131.907 132.104 132.212 132.84C132.516 133.576 132.673 134.365 132.672 135.161Z" fill="black"/>
<path fill-rule="evenodd" clip-rule="evenodd" d="M103.061 168.885C106.121 165.617 119.122 164.908 121.842 169.288C124.561 173.675 117.763 182.764 112.448 182.355C107.16 181.945 100.191 171.935 103.061 168.885Z" fill="black"/>
<path fill-rule="evenodd" clip-rule="evenodd" d="M68.8667 102.264C66.8513 73.1148 36.8181 66.4758 35.3697 69.9352C33.9282 73.4014 40.8558 112.369 68.8667 102.264Z" fill="#74401B" stroke="black" stroke-width="0.8" stroke-linejoin="round"/>
<path fill-rule="evenodd" clip-rule="evenodd" d="M154.457 102.264C156.472 73.1148 186.506 66.4758 187.954 69.9352C189.396 73.4014 182.461 112.369 154.457 102.264Z" fill="url(#paint11_linear_918_674)" stroke="black" stroke-width="0.8" stroke-linejoin="round"/>
<path d="M60.9199 365.667C60.9199 369.924 59.4942 374.006 56.9565 377.015C54.4188 380.025 50.977 381.716 47.3882 381.716C43.7993 381.716 40.3575 380.025 37.8198 377.015C35.2821 374.006 33.8564 369.924 33.8564 365.667C33.8564 361.411 35.2821 357.329 37.8198 354.32C40.3575 351.31 43.7993 349.619 47.3882 349.619C50.977 349.619 54.4188 351.31 56.9565 354.32C59.4942 357.329 60.9199 361.411 60.9199 365.667V365.667Z" fill="url(#paint12_linear_918_674)" stroke="black" stroke-width="0.734432" stroke-linecap="round" stroke-linejoin="round"/>
<path d="M94.8606 365.667C94.8606 369.924 93.435 374.006 90.8973 377.015C88.3596 380.025 84.9178 381.716 81.329 381.716C77.7402 381.716 74.2984 380.025 71.7607 377.015C69.223 374.006 67.7974 369.924 67.7974 365.667C67.7974 361.411 69.223 357.329 71.7607 354.32C74.2984 351.31 77.7402 349.619 81.329 349.619C84.9178 349.619 88.3596 351.31 90.8973 354.32C93.435 357.329 94.8606 361.411 94.8606 365.667V365.667Z" fill="url(#paint13_linear_918_674)" stroke="black" stroke-width="0.734432" stroke-linecap="round" stroke-linejoin="round"/>
<path d="M78.8055 365.667C78.8055 369.924 77.3798 374.006 74.8421 377.015C72.3045 380.025 68.8626 381.716 65.2738 381.716C61.685 381.716 58.2432 380.025 55.7055 377.015C53.1678 374.006 51.7422 369.924 51.7422 365.667C51.7422 361.411 53.1678 357.329 55.7055 354.32C58.2432 351.31 61.685 349.619 65.2738 349.619C68.8626 349.619 72.3045 351.31 74.8421 354.32C77.3798 357.329 78.8055 361.411 78.8055 365.667V365.667Z" fill="url(#paint14_linear_918_674)" stroke="black" stroke-width="0.734432" stroke-linecap="round" stroke-linejoin="round"/>
<path d="M165.044 365.667C165.044 369.924 163.618 374.006 161.08 377.015C158.543 380.025 155.101 381.716 151.512 381.716C147.923 381.716 144.481 380.025 141.944 377.015C139.406 374.006 137.98 369.924 137.98 365.667C137.98 361.411 139.406 357.329 141.944 354.32C144.481 351.31 147.923 349.619 151.512 349.619C155.101 349.619 158.543 351.31 161.08 354.32C163.618 357.329 165.044 361.411 165.044 365.667V365.667Z" fill="url(#paint15_linear_918_674)" stroke="black" stroke-width="0.734432" stroke-linecap="round" stroke-linejoin="round"/>
<path d="M198.989 365.667C198.989 369.924 197.563 374.006 195.026 377.015C192.488 380.025 189.046 381.716 185.457 381.716C181.869 381.716 178.427 380.025 175.889 377.015C173.351 374.006 171.926 369.924 171.926 365.667C171.926 361.411 173.351 357.329 175.889 354.32C178.427 351.31 181.869 349.619 185.457 349.619C189.046 349.619 192.488 351.31 195.026 354.32C197.563 357.329 198.989 361.411 198.989 365.667V365.667Z" fill="url(#paint16_linear_918_674)" stroke="black" stroke-width="0.734432" stroke-linecap="round" stroke-linejoin="round"/>
<path d="M182.933 365.667C182.933 369.924 181.508 374.006 178.97 377.015C176.432 380.025 172.991 381.716 169.402 381.716C165.813 381.716 162.371 380.025 159.833 377.015C157.296 374.006 155.87 369.924 155.87 365.667C155.87 361.411 157.296 357.329 159.833 354.32C162.371 351.31 165.813 349.619 169.402 349.619C172.991 349.619 176.432 351.31 178.97 354.32C181.508 357.329 182.933 361.411 182.933 365.667V365.667Z" fill="url(#paint17_linear_918_674)" stroke="black" stroke-width="0.734432" stroke-linecap="round" stroke-linejoin="round"/>
<path d="M165.709 115.248C166.755 119.574 167.315 124.105 167.315 128.744C167.315 160.452 141.552 197.181 109.831 197.181C86.7115 197.181 66.7964 177.66 57.6826 154.795C64.74 181.195 86.7252 205.949 112.755 205.949C144.476 205.949 170.239 169.192 170.239 137.485C170.239 129.597 168.627 122.092 165.737 115.248H165.709Z" fill="black" fill-opacity="0.31373"/>
<path d="M82.9262 251.317C83.8657 251.859 84.7021 252.558 85.3878 253.375C86.0735 254.191 86.5951 255.109 86.9227 256.075C87.2502 257.041 87.3775 258.038 87.2971 259.007C87.2167 259.976 86.9302 260.899 86.4541 261.723C85.9779 262.548 85.3214 263.257 84.522 263.811C83.7225 264.366 82.7959 264.753 81.7949 264.953C80.7939 265.153 79.7382 265.16 78.6881 264.974C77.638 264.789 76.6139 264.415 75.6745 263.872C74.7351 263.33 73.8986 262.631 73.2129 261.815C72.5272 260.998 72.0057 260.081 71.6781 259.114C71.3505 258.148 71.2233 257.152 71.3037 256.183C71.3841 255.214 71.6705 254.29 72.1467 253.466C72.6228 252.642 73.2794 251.932 74.0788 251.378C74.8782 250.824 75.8048 250.436 76.8058 250.236C77.8068 250.037 78.8625 250.029 79.9126 250.215C80.9628 250.4 81.9868 250.775 82.9262 251.317V251.317Z" fill="url(#paint18_linear_918_674)" stroke="black" stroke-width="0.734456" stroke-linecap="round" stroke-linejoin="round"/>
<path d="M92.019 235.569C93.9163 236.664 95.3539 238.375 96.0155 240.327C96.6771 242.279 96.5085 244.31 95.5469 245.975C94.5852 247.64 92.9093 248.802 90.8877 249.205C88.8662 249.608 86.6646 249.219 84.7673 248.124C82.87 247.029 81.4325 245.318 80.7709 243.366C80.1093 241.415 80.2778 239.383 81.2395 237.718C82.2011 236.053 83.8771 234.891 85.8986 234.488C87.9202 234.085 90.1218 234.474 92.019 235.569V235.569Z" fill="url(#paint19_linear_918_674)" stroke="black" stroke-width="0.734456" stroke-linecap="round" stroke-linejoin="round"/>
<path d="M91.3769 245.674C93.2742 246.769 94.7118 248.481 95.3734 250.432C96.035 252.384 95.8664 254.416 94.9048 256.08C93.9431 257.745 92.2672 258.907 90.2456 259.31C88.2241 259.713 86.0225 259.325 84.1252 258.23C82.2279 257.135 80.7904 255.423 80.1288 253.472C79.4672 251.52 79.6357 249.488 80.5974 247.823C81.559 246.158 83.235 244.997 85.2565 244.594C87.2781 244.191 89.4797 244.579 91.3769 245.674V245.674Z" fill="url(#paint20_linear_918_674)" stroke="black" stroke-width="0.734456" stroke-linecap="round" stroke-linejoin="round"/>
<path d="M148.292 249.997C147.244 250.278 146.254 250.737 145.381 251.349C144.507 251.96 143.765 252.712 143.198 253.56C142.631 254.409 142.25 255.338 142.077 256.295C141.903 257.252 141.941 258.218 142.187 259.137C142.433 260.057 142.884 260.912 143.512 261.654C144.141 262.396 144.935 263.01 145.85 263.461C146.766 263.913 147.783 264.193 148.846 264.285C149.908 264.377 150.994 264.28 152.042 263.999C153.09 263.719 154.079 263.259 154.953 262.648C155.827 262.037 156.569 261.285 157.136 260.437C157.703 259.588 158.084 258.659 158.257 257.702C158.431 256.745 158.393 255.779 158.147 254.86C157.901 253.94 157.45 253.085 156.822 252.343C156.193 251.601 155.399 250.987 154.483 250.536C153.568 250.084 152.551 249.804 151.488 249.712C150.426 249.619 149.34 249.717 148.292 249.997V249.997Z" fill="url(#paint21_linear_918_674)" stroke="black" stroke-width="0.734456" stroke-linecap="round" stroke-linejoin="round"/>
<path d="M143.591 232.434C142.543 232.715 141.554 233.174 140.68 233.786C139.806 234.397 139.064 235.149 138.498 235.997C137.931 236.846 137.55 237.775 137.376 238.732C137.203 239.689 137.24 240.655 137.486 241.574C137.733 242.494 138.183 243.349 138.812 244.091C139.44 244.833 140.235 245.447 141.15 245.898C142.065 246.35 143.083 246.63 144.145 246.722C145.208 246.814 146.294 246.717 147.342 246.437C149.458 245.869 151.29 244.588 152.435 242.874C153.58 241.16 153.944 239.153 153.446 237.297C152.949 235.44 151.631 233.884 149.783 232.973C147.935 232.061 145.707 231.867 143.591 232.434V232.434Z" fill="url(#paint22_linear_918_674)" stroke="black" stroke-width="0.734456" stroke-linecap="round" stroke-linejoin="round"/>
<path d="M141.597 242.362C139.48 242.929 137.648 244.211 136.503 245.925C135.359 247.639 134.995 249.645 135.492 251.502C135.99 253.359 137.307 254.914 139.156 255.826C141.004 256.738 143.231 256.931 145.348 256.364C147.464 255.797 149.296 254.515 150.441 252.801C151.586 251.087 151.949 249.081 151.452 247.224C151.206 246.305 150.755 245.45 150.127 244.708C149.498 243.966 148.704 243.352 147.789 242.9C145.94 241.989 143.713 241.795 141.597 242.362V242.362Z" fill="url(#paint23_linear_918_674)" stroke="black" stroke-width="0.734456" stroke-linecap="round" stroke-linejoin="round"/>
</g>
<defs>
<linearGradient id="paint0_linear_918_674" x1="213.857" y1="-529.038" x2="231.323" y2="-529.038" gradientUnits="userSpaceOnUse">
<stop stop-color="#74401B"/>
</linearGradient>
<linearGradient id="paint1_linear_918_674" x1="177.281" y1="-528.062" x2="226.012" y2="-528.062" gradientUnits="userSpaceOnUse">
<stop stop-color="#74401B"/>
</linearGradient>
<linearGradient id="paint2_linear_918_674" x1="41.6961" y1="168.889" x2="288.581" y2="168.889" gradientUnits="userSpaceOnUse">
<stop stop-color="#D07839"/>
</linearGradient>
<linearGradient id="paint3_linear_918_674" x1="-0.36573" y1="265.341" x2="225.292" y2="265.341" gradientUnits="userSpaceOnUse">
<stop stop-color="#D07839"/>
</linearGradient>
<linearGradient id="paint4_linear_918_674" x1="14.1686" y1="133.531" x2="209.551" y2="133.531" gradientUnits="userSpaceOnUse">
<stop stop-color="#D07839"/>
</linearGradient>
<linearGradient id="paint5_linear_918_674" x1="-217.372" y1="303.891" x2="-216.663" y2="306.214" gradientUnits="userSpaceOnUse">
<stop stop-color="#74401B"/>
</linearGradient>
<linearGradient id="paint6_linear_918_674" x1="-218.111" y1="298.798" x2="-216.133" y2="305.28" gradientUnits="userSpaceOnUse">
<stop stop-color="#74401B"/>
</linearGradient>
<linearGradient id="paint7_linear_918_674" x1="63.5227" y1="-399.016" x2="79.6062" y2="-394.695" gradientUnits="userSpaceOnUse">
<stop stop-color="#D07839"/>
</linearGradient>
<linearGradient id="paint8_linear_918_674" x1="93.722" y1="-390.945" x2="109.809" y2="-386.623" gradientUnits="userSpaceOnUse">
<stop stop-color="#D07839"/>
</linearGradient>
<linearGradient id="paint9_linear_918_674" x1="77.6562" y1="-359.182" x2="116.198" y2="-348.826" gradientUnits="userSpaceOnUse">
<stop stop-color="#D07839"/>
</linearGradient>
<linearGradient id="paint10_linear_918_674" x1="39.0993" y1="-369.484" x2="77.6412" y2="-359.128" gradientUnits="userSpaceOnUse">
<stop stop-color="#D07839"/>
</linearGradient>
<linearGradient id="paint11_linear_918_674" x1="-280.957" y1="326.736" x2="-279.545" y2="331.366" gradientUnits="userSpaceOnUse">
<stop stop-color="#74401B"/>
</linearGradient>
<linearGradient id="paint12_linear_918_674" x1="-159.004" y1="271.414" x2="-157.87" y2="275.134" gradientUnits="userSpaceOnUse">
<stop stop-color="#74401B"/>
</linearGradient>
<linearGradient id="paint13_linear_918_674" x1="-157.889" y1="276.174" x2="-156.754" y2="279.894" gradientUnits="userSpaceOnUse">
<stop stop-color="#74401B"/>
</linearGradient>
<linearGradient id="paint14_linear_918_674" x1="-158.416" y1="273.922" x2="-157.281" y2="277.643" gradientUnits="userSpaceOnUse">
<stop stop-color="#74401B"/>
</linearGradient>
<linearGradient id="paint15_linear_918_674" x1="-155.584" y1="286.017" x2="-154.449" y2="289.738" gradientUnits="userSpaceOnUse">
<stop stop-color="#74401B"/>
</linearGradient>
<linearGradient id="paint16_linear_918_674" x1="-154.47" y1="290.778" x2="-153.335" y2="294.498" gradientUnits="userSpaceOnUse">
<stop stop-color="#74401B"/>
</linearGradient>
<linearGradient id="paint17_linear_918_674" x1="-154.998" y1="288.526" x2="-153.863" y2="292.247" gradientUnits="userSpaceOnUse">
<stop stop-color="#74401B"/>
</linearGradient>
<linearGradient id="paint18_linear_918_674" x1="-202.453" y1="290.291" x2="-201.78" y2="292.496" gradientUnits="userSpaceOnUse">
<stop stop-color="#74401B"/>
</linearGradient>
<linearGradient id="paint19_linear_918_674" x1="-209.224" y1="293.722" x2="-208.551" y2="295.927" gradientUnits="userSpaceOnUse">
<stop stop-color="#74401B"/>
</linearGradient>
<linearGradient id="paint20_linear_918_674" x1="-204.709" y1="292.249" x2="-204.036" y2="294.454" gradientUnits="userSpaceOnUse">
<stop stop-color="#74401B"/>
</linearGradient>
<linearGradient id="paint21_linear_918_674" x1="-200.314" y1="300.26" x2="-199.626" y2="302.514" gradientUnits="userSpaceOnUse">
<stop stop-color="#74401B"/>
</linearGradient>
<linearGradient id="paint22_linear_918_674" x1="-208.351" y1="302.006" x2="-207.663" y2="304.26" gradientUnits="userSpaceOnUse">
<stop stop-color="#74401B"/>
</linearGradient>
<linearGradient id="paint23_linear_918_674" x1="-203.96" y1="300.366" x2="-203.272" y2="302.62" gradientUnits="userSpaceOnUse">
<stop stop-color="#74401B"/>
</linearGradient>
<clipPath id="clip0_918_674">
<rect width="547" height="383" fill="white"/>
</clipPath>
</defs>
</svg>
