<svg width="637" height="365" viewBox="0 0 637 365" fill="none" xmlns="http://www.w3.org/2000/svg">
<g clip-path="url(#clip0_932_2549)">
<path d="M214.362 57.1382C172.176 72.1649 128.166 84.8524 80.3504 93.02C81.7777 96.6677 82.5707 100.633 82.5707 104.756C82.5707 108.562 81.9363 112.21 80.6676 115.54C156.951 125.77 225.622 144.087 285.095 172.555C286.364 167.876 288.663 163.594 291.677 159.947C235.217 132.748 170.828 114.589 100.175 103.884C142.361 95.4782 181.692 83.7423 219.437 70.4204C217.058 66.297 215.314 61.8643 214.362 57.1382ZM291.914 80.0153C288.505 83.4251 284.619 86.3591 280.337 88.5794C292.47 108.245 300.954 128.704 305.553 150.272C308.963 149.083 312.69 148.369 316.496 148.369C317.607 148.369 318.717 148.449 319.748 148.528C314.752 124.501 305.316 101.663 291.914 80.0153ZM50.059 86.5177C39.9011 86.5177 31.8207 94.606 31.8207 104.756C31.8207 114.906 39.9011 122.994 50.059 122.994C60.209 122.994 68.2973 114.906 68.2973 104.756C68.2973 94.606 60.209 86.5177 50.059 86.5177ZM77.575 121.884C75.0375 126.008 71.6278 129.497 67.5836 132.113C93.0379 157.964 119.999 184.37 163.216 195.868C163.216 195.154 163.136 194.361 163.136 193.648C163.136 189.445 164.167 185.48 165.912 181.912C126.66 171.207 102.474 147.18 77.575 121.884ZM32.3758 131.955C15.1208 185.718 10.8705 240.75 6.77084 295.306C8.45986 294.91 10.2123 294.751 12.0044 294.751C15.1684 294.751 18.1975 295.306 21.0046 296.417C25.1201 242.177 29.3863 188.573 45.8166 136.951C40.9161 136.316 36.3486 134.572 32.3758 131.955ZM316.496 162.643C306.346 162.643 298.258 170.731 298.258 180.881C298.258 191.031 306.346 199.119 316.496 199.119C326.646 199.119 334.735 191.031 334.735 180.881C334.735 170.731 326.646 162.643 316.496 162.643ZM283.985 180.247C261.464 184.846 239.103 188.811 215.789 188.573C216.107 190.238 216.265 191.903 216.265 193.648C216.265 196.82 215.71 199.912 214.6 202.767C239.975 203.243 263.764 199.04 286.919 194.203C285.016 190.159 283.985 185.639 283.985 180.881V180.247ZM189.701 181.357C182.802 181.357 177.41 186.749 177.41 193.648C177.41 200.547 182.802 205.939 189.701 205.939C196.6 205.939 201.992 200.547 201.992 193.648C201.992 186.749 196.6 181.357 189.701 181.357ZM287.395 195.313C243.305 231.71 202.864 270.169 173.921 314.813C178.599 316.241 182.802 318.778 186.291 322.029C213.966 279.606 253.059 242.098 296.355 206.335C292.628 203.401 289.536 199.595 287.395 195.313ZM166.863 207.208C128.88 244.001 79.9539 273.183 29.7987 301.967C33.256 305.298 35.7935 309.58 36.975 314.338C87.4078 285.474 137.523 255.737 177.172 217.04C172.89 214.741 169.321 211.331 166.863 207.208ZM309.122 212.52C310.153 235.358 313.88 257.958 320.461 280.081C324.268 277.385 328.946 275.641 333.942 275.324C327.915 254.706 324.505 233.851 323.475 212.6C321.175 213.155 318.875 213.393 316.496 213.393C313.959 213.393 311.501 213.075 309.122 212.52ZM335.528 289.518C328.867 289.518 323.633 294.751 323.633 301.412C323.633 308.073 328.867 313.307 335.528 313.307C342.189 313.307 347.422 308.073 347.422 301.412C347.422 294.751 342.189 289.518 335.528 289.518ZM12.0044 309.025C5.60517 309.025 0.569824 314.1 0.569824 320.443C0.569824 326.866 5.60517 331.941 12.0044 331.941C18.4037 331.941 23.439 326.866 23.439 320.443C23.439 314.1 18.4037 309.025 12.0044 309.025ZM310.549 309.263C275.104 328.69 236.169 335.113 195.648 337.492C196.362 340.188 196.758 342.964 196.758 345.818C196.758 347.88 196.52 349.863 196.203 351.766C238.31 349.308 280.099 342.567 318.558 321.236C314.831 318.065 312.056 313.941 310.549 309.263ZM37.538 317.509C37.649 318.461 37.7125 319.413 37.7125 320.443C37.7125 324.408 36.8006 328.135 35.1829 331.545L131.814 347.642C131.735 347.008 131.735 346.453 131.735 345.818C131.735 341.536 132.607 337.413 134.114 333.607L37.538 317.509ZM164.246 327.58C154.096 327.58 146.008 335.668 146.008 345.818C146.008 355.968 154.096 364.057 164.246 364.057C174.396 364.057 182.485 355.968 182.485 345.818C182.485 335.668 174.396 327.58 164.246 327.58Z" fill="#2FA4DA"/>
<path d="M290.84 26.3046C278.568 14.0239 256.727 13.3989 243.733 24.9401C234.587 32.96 230.942 45.2759 229.745 56.9403C228.9 65.3475 229.401 74.371 233.715 81.8626C238.046 87.4264 245.591 88.5972 252.211 88.9317C265.407 89.5216 279.352 86.3347 289.898 77.9804C302.61 67.073 305.577 46.7636 296.245 32.8455C294.722 30.4686 292.882 28.2766 290.84 26.3046V26.3046Z" fill="black" fill-opacity="0.31373"/>
<path d="M286.438 17.5009C274.166 5.22023 252.325 4.59519 239.331 16.1364C230.185 24.1563 226.54 36.4722 225.343 48.1366C224.498 56.5438 225 65.5673 229.313 73.0589C233.644 78.6226 241.189 79.7935 247.809 80.128C261.005 80.7179 274.95 77.531 285.496 69.1766C298.208 58.2693 301.175 37.9599 291.843 24.0418C290.32 21.6649 288.481 19.4729 286.438 17.5009V17.5009Z" fill="#DC9A6A" stroke="black" stroke-width="4" stroke-linecap="round" stroke-linejoin="round"/>
<path d="M258.761 8.01999C261.375 8.64503 263.911 9.60459 266.279 10.9427C268.577 12.184 270.751 13.6717 272.697 15.406C284.431 25.4418 286.852 44.193 278.287 57.0107C270.989 67.0377 259.395 73.3145 247.537 76.0612C242.73 77.144 237.254 77.8922 232.571 76.114C236.902 79.0895 242.633 79.873 247.801 80.1283C260.997 80.7181 274.941 77.5313 285.497 69.1769C298.209 58.2696 301.175 37.9602 291.844 24.0421C290.321 21.6564 288.481 19.4732 286.439 17.4924C279.264 10.3089 268.805 7.12204 258.761 8.01999V8.01999Z" fill="black" fill-opacity="0.31373"/>
<path fill-rule="evenodd" clip-rule="evenodd" d="M286.764 14.4111C289.185 6.89307 301.395 -0.0527836 305.014 2.56181C308.632 5.18522 308.913 11.418 308.271 12.3423C307.637 13.2579 301.105 10.432 296.985 13.8389C292.874 17.237 290.805 20.1421 290.805 20.1421L286.764 14.4111Z" fill="url(#paint0_linear_932_2549)" stroke="black" stroke-width="4"/>
<path fill-rule="evenodd" clip-rule="evenodd" d="M307.505 5.82788C307.584 6.64659 307.47 7.32445 307.25 7.58855C306.625 8.33684 300.365 7.60616 296.351 10.7137C292.345 13.8213 290.321 16.1982 290.321 16.1982L287.116 13.5044C286.993 13.8125 286.861 14.1118 286.764 14.4112L290.805 20.1509C290.805 20.1509 292.874 17.237 296.985 13.8301C301.105 10.432 307.637 13.2579 308.271 12.3336C308.711 11.7085 308.711 8.57453 307.505 5.82788V5.82788Z" fill="black" fill-opacity="0.31373"/>
<path d="M289.581 14.4551C277.529 2.51772 257.554 -0.56346 243.504 8.38956C240.326 10.1414 241.285 14.5343 241.321 14.4639C246.629 10.2647 252.131 14.8864 259.359 20.0716C268.206 26.4188 277.934 36.1554 285.073 45.619C290.074 52.2391 293.648 58.7448 290.787 63.2961C290.936 63.3401 295.091 64.511 296.993 60.6375C306.571 42.5818 301.157 25.2392 289.581 14.4551V14.4551Z" fill="url(#paint1_linear_932_2549)" stroke="black" stroke-width="4" stroke-linecap="round" stroke-linejoin="round"/>
<path d="M288.63 13.126C292.451 23.0386 291.949 32.4141 287.098 41.464C285.998 43.524 284.307 42.8549 282.89 42.8285C283.638 43.7529 284.369 44.6948 285.073 45.6192C290.065 52.2481 293.648 58.7538 290.787 63.2963C290.936 63.3403 295.092 64.52 296.993 60.6465C305.761 44.0962 301.914 26.0933 288.63 13.126V13.126Z" fill="black" fill-opacity="0.31373"/>
<circle cx="50" cy="104" r="19" fill="#D07839"/>
<circle cx="164" cy="345" r="19" fill="#D07839"/>
<circle cx="333.5" cy="301.5" r="13.5" fill="#D07839"/>
<path d="M636.093 160.955C635.273 207.419 604.045 227.615 603.532 207.997C602.895 183.183 592.194 118.826 550.195 138.562C499.967 162.163 545.246 305.916 530.705 305.916C472.531 305.916 425.317 240.976 425.317 160.955C425.317 80.9395 472.531 16 530.705 16C588.879 16 637.485 81.9587 636.093 160.955V160.955Z" fill="url(#paint2_linear_932_2549)" stroke="black" stroke-width="0.8" stroke-linecap="round" stroke-linejoin="round"/>
<path d="M607.631 61.5159C621.122 85.8999 627.817 116.476 628.419 148.577C628.979 178.234 620.892 206.241 605.897 214.177C612.899 216.415 635.273 207.413 636.087 160.949C636.765 122.767 625.752 87.6319 607.631 61.5159ZM556.843 122.491C552.531 122.573 547.77 123.728 542.52 126.19C492.292 149.791 537.577 293.544 523.037 293.544C493.077 293.544 466.025 276.318 446.83 248.676C466.09 283.446 496.498 305.915 530.705 305.915C545.246 305.915 499.961 162.162 550.189 138.562C565.762 131.251 577.034 135.493 585.086 144.989C579.081 132.052 570.056 122.243 556.843 122.491V122.491Z" fill="black" fill-opacity="0.31373"/>
<path d="M581.478 244.236C581.478 269.751 571.339 294.22 553.29 312.262C535.242 330.303 510.763 340.439 485.239 340.439C459.715 340.439 435.236 330.303 417.188 312.262C399.139 294.22 389 269.751 389 244.236C389 218.722 399.139 194.253 417.188 176.211C435.236 158.17 459.715 148.034 485.239 148.034C510.763 148.034 535.242 158.17 553.29 176.211C571.339 194.253 581.478 218.722 581.478 244.236V244.236Z" fill="url(#paint3_linear_932_2549)" stroke="black" stroke-width="0.799968" stroke-linecap="round" stroke-linejoin="round"/>
<path d="M485.243 148.047C475.003 148.047 465.146 149.662 455.885 152.625C464.214 150.681 472.997 149.632 482.075 149.632C506.98 149.632 529.691 157.456 546.779 170.293C530.098 156.401 508.638 148.047 485.243 148.047ZM576.385 213.276C577.648 218.413 578.32 223.715 578.32 229.158C578.32 273.06 535.2 308.685 482.075 308.685C437.652 308.685 400.241 283.776 389.175 249.943C392.125 300.402 434.03 340.456 485.243 340.456C538.368 340.456 581.488 297.356 581.488 244.252C581.488 233.418 579.695 222.996 576.385 213.276Z" fill="black" fill-opacity="0.31373"/>
<path d="M485.243 148.047C468.833 148.047 453.372 152.154 439.846 159.406C446.252 181.775 464.969 202.459 487.078 202.459C508.597 202.459 526.936 182.865 533.808 161.185C519.551 152.837 502.951 148.047 485.243 148.047V148.047Z" fill="black" fill-opacity="0.31373"/>
<path fill-rule="evenodd" clip-rule="evenodd" d="M551.185 67.9141C539.5 67.9141 515.763 74.1235 511.61 90.2243C511.546 90.348 511.422 90.7958 511.286 91.4851C503.771 86.8958 494.935 84.227 485.491 84.227C475.628 84.227 466.461 87.1373 458.74 92.0978C458.58 91.0903 458.386 90.3834 458.309 90.2243C454.156 74.1235 430.419 67.9317 418.728 67.9258C416.87 67.9258 415.33 68.0849 414.204 68.3795C407.933 69.2514 401.067 71.7552 401.568 73.122C406.169 72.3384 408.494 73.2339 408.423 73.9762C408.281 75.3665 405.509 75.7377 406.4 80.7512C408.081 78.3181 410.422 77.4815 412.263 77.0927C414.151 88.9282 422.409 109.589 437.864 110.661C439.191 110.755 440.43 110.75 441.598 110.726C437.952 117.631 435.882 125.495 435.882 133.843C435.882 161.22 458.102 192.945 485.491 192.945C512.873 192.945 535.123 161.22 535.123 133.843C535.123 125.501 533.047 117.654 529.401 110.755C530.245 110.75 531.135 110.726 532.056 110.661C547.457 109.595 555.716 89.052 557.639 77.2046C559.397 77.6347 561.497 78.5184 563.036 80.7512C563.927 75.7377 561.154 75.3665 561.013 73.9762C560.942 73.2339 563.266 72.3384 567.867 73.122C568.345 71.8259 562.216 69.5106 556.235 68.5268C555.096 68.1261 553.35 67.9141 551.185 67.9141V67.9141Z" fill="url(#paint4_linear_932_2549)" stroke="black" stroke-width="0.8" stroke-linejoin="round"/>
<path d="M504.409 214.825C496.186 206.606 481.551 206.188 472.844 213.911C466.715 219.278 464.273 227.52 463.471 235.326C462.905 240.952 463.241 246.991 466.131 252.004C469.034 255.728 474.089 256.511 478.525 256.735C487.367 257.13 496.711 254.997 503.777 249.406C512.295 242.107 514.283 228.516 508.03 219.202C507.01 217.611 505.777 216.144 504.409 214.825V214.825Z" fill="black" fill-opacity="0.31373"/>
<path d="M475.212 231.468C475.212 236.293 473.294 240.921 469.881 244.333C466.467 247.746 461.838 249.663 457.01 249.663C452.183 249.663 447.553 247.746 444.14 244.333C440.726 240.921 438.809 236.293 438.809 231.468C438.809 226.642 440.726 222.014 444.14 218.602C447.553 215.19 452.183 213.273 457.01 213.273C461.838 213.273 466.467 215.19 469.881 218.602C473.294 222.014 475.212 226.642 475.212 231.468V231.468Z" fill="black" fill-opacity="0.31373"/>
<path d="M501.459 208.933C493.237 200.715 478.602 200.297 469.895 208.02C463.766 213.387 461.324 221.629 460.522 229.435C459.955 235.061 460.292 241.1 463.182 246.113C466.084 249.837 471.14 250.62 475.575 250.844C484.418 251.239 493.761 249.106 500.828 243.515C509.346 236.216 511.334 222.625 505.081 213.311C504.061 211.72 502.828 210.253 501.459 208.933V208.933Z" fill="#DC9A6A" stroke="black" stroke-width="0.8" stroke-linecap="round" stroke-linejoin="round"/>
<path d="M482.913 202.589C484.665 203.007 486.364 203.649 487.951 204.545C489.49 205.375 490.947 206.371 492.251 207.531C500.114 214.247 501.736 226.796 495.997 235.374C491.107 242.084 483.338 246.284 475.392 248.122C472.171 248.847 468.502 249.348 465.364 248.158C468.266 250.149 472.107 250.673 475.569 250.844C484.411 251.239 493.755 249.106 500.828 243.515C509.346 236.216 511.334 222.625 505.081 213.311C504.06 211.714 502.828 210.253 501.459 208.928C496.651 204.12 489.644 201.988 482.913 202.589V202.589Z" fill="black" fill-opacity="0.31373"/>
<path fill-rule="evenodd" clip-rule="evenodd" d="M501.678 206.865C503.3 201.834 511.482 197.186 513.906 198.936C516.33 200.691 516.519 204.862 516.089 205.481C515.664 206.094 511.287 204.203 508.526 206.483C505.772 208.757 504.385 210.701 504.385 210.701L501.678 206.865Z" fill="url(#paint5_linear_932_2549)" stroke="black" stroke-width="0.8"/>
<path fill-rule="evenodd" clip-rule="evenodd" d="M515.575 201.122C515.628 201.669 515.552 202.123 515.404 202.3C514.985 202.801 510.791 202.312 508.102 204.391C505.418 206.471 504.061 208.061 504.061 208.061L501.914 206.259C501.831 206.465 501.743 206.665 501.678 206.866L504.385 210.707C504.385 210.707 505.772 208.757 508.526 206.477C511.287 204.203 515.664 206.094 516.089 205.475C516.383 205.057 516.383 202.96 515.575 201.122V201.122Z" fill="black" fill-opacity="0.31373"/>
<path d="M503.565 206.895C495.49 198.906 482.105 196.844 472.691 202.836C470.561 204.008 471.204 206.948 471.228 206.901C474.785 204.091 478.471 207.184 483.314 210.653C489.243 214.901 495.761 221.417 500.545 227.75C503.895 232.18 506.29 236.534 504.373 239.58C504.473 239.609 507.258 240.393 508.532 237.8C514.95 225.717 511.322 214.112 503.565 206.895V206.895Z" fill="url(#paint6_linear_932_2549)" stroke="black" stroke-width="0.8" stroke-linecap="round" stroke-linejoin="round"/>
<path d="M502.928 206.005C505.488 212.639 505.152 218.913 501.902 224.969C501.164 226.348 500.032 225.9 499.082 225.883C499.583 226.501 500.073 227.131 500.545 227.75C503.89 232.186 506.29 236.54 504.373 239.58C504.474 239.609 507.258 240.399 508.532 237.806C514.407 226.731 511.829 214.683 502.928 206.005V206.005Z" fill="black" fill-opacity="0.31373"/>
<path d="M469.768 218.679C470.964 220.748 471.741 223.032 472.054 225.401C472.367 227.769 472.21 230.176 471.592 232.483C470.974 234.79 469.908 236.953 468.453 238.847C466.998 240.742 465.184 242.331 463.114 243.525C461.044 244.719 458.759 245.493 456.388 245.804C454.018 246.115 451.609 245.956 449.3 245.337C446.99 244.718 444.825 243.65 442.928 242.195C441.03 240.74 439.438 238.927 438.242 236.857C437.046 234.788 436.269 232.504 435.956 230.136C435.643 227.767 435.8 225.361 436.418 223.053C437.036 220.746 438.102 218.584 439.557 216.689C441.012 214.794 442.826 213.205 444.896 212.011C446.966 210.818 449.251 210.043 451.622 209.732C453.992 209.421 456.401 209.58 458.71 210.199C461.02 210.818 463.185 211.886 465.082 213.341C466.98 214.796 468.572 216.61 469.768 218.679V218.679Z" fill="url(#paint7_linear_932_2549)" stroke="black" stroke-width="0.800002" stroke-linecap="round" stroke-linejoin="round"/>
<path d="M543.495 231.751C543.495 236.577 541.578 241.204 538.164 244.617C534.751 248.029 530.121 249.946 525.293 249.946C520.466 249.946 515.836 248.029 512.423 244.617C509.009 241.204 507.092 236.577 507.092 231.751C507.092 226.926 509.009 222.298 512.423 218.885C515.836 215.473 520.466 213.556 525.293 213.556C530.121 213.556 534.751 215.473 538.164 218.885C541.578 222.298 543.495 226.926 543.495 231.751V231.751Z" fill="black" fill-opacity="0.31373"/>
<path d="M535.223 240.622C531.806 244.034 527.174 245.952 522.344 245.954C517.515 245.956 512.884 244.042 509.47 240.633C506.057 237.224 504.14 232.599 504.143 227.776C504.145 222.952 506.065 218.326 509.482 214.914C512.898 211.502 517.531 209.583 522.36 209.581C527.19 209.579 531.82 211.493 535.234 214.902C538.647 218.311 540.564 222.936 540.562 227.76C540.56 232.583 538.639 237.21 535.223 240.622Z" fill="url(#paint8_linear_932_2549)" stroke="black" stroke-width="0.799998" stroke-linecap="round" stroke-linejoin="round"/>
<path d="M531.88 285.626C507.795 285.626 488.24 305.173 488.24 329.245C488.24 334.223 489.078 338.995 490.617 343.449H573.118C574.658 338.995 575.495 334.223 575.495 329.245C575.495 305.173 555.964 285.626 531.88 285.626V285.626Z" fill="url(#paint9_linear_932_2549)" stroke="black" stroke-width="0.8" stroke-linecap="round" stroke-linejoin="round"/>
<path d="M444.6 285.626C420.515 285.626 400.984 305.173 400.984 329.245C400.984 334.223 401.822 338.995 403.362 343.449H485.862C487.402 338.995 488.239 334.223 488.239 329.245C488.239 305.173 468.685 285.626 444.6 285.626Z" fill="url(#paint10_linear_932_2549)" stroke="black" stroke-width="0.8" stroke-linecap="round" stroke-linejoin="round"/>
<path d="M483.76 129.868C483.761 131.996 483.343 134.104 482.529 136.071C481.714 138.038 480.521 139.825 479.015 141.331C477.51 142.836 475.723 144.03 473.755 144.845C471.788 145.66 469.68 146.079 467.55 146.079C465.421 146.079 463.312 145.66 461.345 144.845C459.378 144.03 457.591 142.836 456.085 141.331C454.58 139.825 453.386 138.038 452.572 136.071C451.758 134.104 451.339 131.996 451.34 129.868C451.339 127.739 451.758 125.631 452.572 123.665C453.386 121.698 454.58 119.911 456.085 118.405C457.591 116.9 459.378 115.705 461.345 114.891C463.312 114.076 465.421 113.656 467.55 113.656C469.68 113.656 471.788 114.076 473.755 114.891C475.723 115.705 477.51 116.9 479.015 118.405C480.521 119.911 481.714 121.698 482.529 123.665C483.343 125.631 483.761 127.739 483.76 129.868V129.868Z" fill="white" stroke="black" stroke-width="0.800004" stroke-linecap="round" stroke-linejoin="round"/>
<path d="M519.66 129.868C519.661 131.996 519.243 134.104 518.429 136.071C517.614 138.038 516.421 139.825 514.915 141.331C513.41 142.836 511.623 144.03 509.655 144.845C507.688 145.66 505.58 146.079 503.45 146.079C501.321 146.079 499.212 145.66 497.245 144.845C495.278 144.03 493.491 142.836 491.985 141.331C490.48 139.825 489.286 138.038 488.472 136.071C487.658 134.104 487.239 131.996 487.24 129.868C487.239 127.739 487.658 125.631 488.472 123.665C489.286 121.698 490.48 119.911 491.985 118.405C493.491 116.9 495.278 115.705 497.245 114.891C499.212 114.076 501.321 113.656 503.45 113.656C505.58 113.656 507.688 114.076 509.655 114.891C511.623 115.705 513.41 116.9 514.915 118.405C516.421 119.911 517.614 121.698 518.429 123.665C519.243 125.631 519.661 127.739 519.66 129.868Z" fill="white" stroke="black" stroke-width="0.800004" stroke-linecap="round" stroke-linejoin="round"/>
<path d="M478.739 131.837C478.739 132.524 478.604 133.205 478.341 133.841C478.078 134.476 477.693 135.054 477.207 135.54C476.72 136.027 476.143 136.413 475.507 136.676C474.872 136.939 474.191 137.075 473.503 137.075C472.815 137.075 472.134 136.939 471.498 136.676C470.863 136.413 470.285 136.027 469.799 135.54C469.313 135.054 468.927 134.476 468.664 133.841C468.402 133.205 468.267 132.524 468.267 131.837C468.267 131.149 468.402 130.468 468.664 129.832C468.927 129.197 469.313 128.62 469.799 128.133C470.285 127.647 470.863 127.261 471.498 126.997C472.134 126.734 472.815 126.599 473.503 126.599C474.191 126.599 474.872 126.734 475.507 126.997C476.143 127.261 476.72 127.647 477.207 128.133C477.693 128.62 478.078 129.197 478.341 129.832C478.604 130.468 478.739 131.149 478.739 131.837V131.837Z" fill="black"/>
<path d="M502.687 131.837C502.688 132.524 502.553 133.205 502.29 133.841C502.027 134.476 501.642 135.054 501.155 135.54C500.669 136.027 500.092 136.413 499.456 136.676C498.821 136.939 498.139 137.075 497.452 137.075C496.764 137.075 496.082 136.939 495.447 136.676C494.811 136.413 494.234 136.027 493.748 135.54C493.262 135.054 492.876 134.476 492.613 133.841C492.35 133.205 492.215 132.524 492.216 131.837C492.215 131.149 492.35 130.468 492.613 129.832C492.876 129.197 493.262 128.62 493.748 128.133C494.234 127.647 494.811 127.261 495.447 126.997C496.082 126.734 496.764 126.599 497.452 126.599C498.139 126.599 498.821 126.734 499.456 126.997C500.092 127.261 500.669 127.647 501.155 128.133C501.642 128.62 502.027 129.197 502.29 129.832C502.553 130.468 502.688 131.149 502.687 131.837Z" fill="black"/>
<path fill-rule="evenodd" clip-rule="evenodd" d="M477.121 160.955C479.763 158.133 490.989 157.52 493.336 161.302C495.684 165.091 489.815 172.938 485.226 172.584C480.66 172.231 474.643 163.588 477.121 160.955Z" fill="black"/>
<path fill-rule="evenodd" clip-rule="evenodd" d="M447.597 103.433C445.857 78.265 419.926 72.5328 418.675 75.5197C417.431 78.5125 423.412 112.158 447.597 103.433Z" fill="#74401B" stroke="black" stroke-width="0.8" stroke-linejoin="round"/>
<path fill-rule="evenodd" clip-rule="evenodd" d="M521.497 103.433C523.237 78.265 549.168 72.5328 550.419 75.5197C551.664 78.5125 545.676 112.158 521.497 103.433Z" fill="url(#paint11_linear_932_2549)" stroke="black" stroke-width="0.8" stroke-linejoin="round"/>
<path d="M440.736 330.859C440.736 334.534 439.505 338.058 437.314 340.657C435.123 343.256 432.151 344.715 429.052 344.715C425.953 344.715 422.982 343.256 420.791 340.657C418.6 338.058 417.369 334.534 417.369 330.859C417.369 327.184 418.6 323.66 420.791 321.061C422.982 318.463 425.953 317.003 429.052 317.003C432.151 317.003 435.123 318.463 437.314 321.061C439.505 323.66 440.736 327.184 440.736 330.859V330.859Z" fill="url(#paint12_linear_932_2549)" stroke="black" stroke-width="0.734432" stroke-linecap="round" stroke-linejoin="round"/>
<path d="M470.041 330.859C470.041 334.534 468.81 338.058 466.619 340.657C464.428 343.256 461.456 344.715 458.357 344.715C455.259 344.715 452.287 343.256 450.096 340.657C447.905 338.058 446.674 334.534 446.674 330.859C446.674 327.184 447.905 323.66 450.096 321.061C452.287 318.463 455.259 317.003 458.357 317.003C461.456 317.003 464.428 318.463 466.619 321.061C468.81 323.66 470.041 327.184 470.041 330.859V330.859Z" fill="url(#paint13_linear_932_2549)" stroke="black" stroke-width="0.734432" stroke-linecap="round" stroke-linejoin="round"/>
<path d="M456.178 330.859C456.178 334.534 454.947 338.058 452.756 340.657C450.565 343.256 447.594 344.715 444.495 344.715C441.396 344.715 438.425 343.256 436.234 340.657C434.042 338.058 432.812 334.534 432.812 330.859C432.812 327.184 434.042 323.66 436.234 321.061C438.425 318.463 441.396 317.003 444.495 317.003C447.594 317.003 450.565 318.463 452.756 321.061C454.947 323.66 456.178 327.184 456.178 330.859V330.859Z" fill="url(#paint14_linear_932_2549)" stroke="black" stroke-width="0.734432" stroke-linecap="round" stroke-linejoin="round"/>
<path d="M530.638 330.859C530.638 334.534 529.407 338.058 527.216 340.657C525.025 343.256 522.053 344.715 518.954 344.715C515.856 344.715 512.884 343.256 510.693 340.657C508.502 338.058 507.271 334.534 507.271 330.859C507.271 327.184 508.502 323.66 510.693 321.061C512.884 318.463 515.856 317.003 518.954 317.003C522.053 317.003 525.025 318.463 527.216 321.061C529.407 323.66 530.638 327.184 530.638 330.859V330.859Z" fill="url(#paint15_linear_932_2549)" stroke="black" stroke-width="0.734432" stroke-linecap="round" stroke-linejoin="round"/>
<path d="M559.947 330.859C559.947 334.534 558.716 338.058 556.525 340.657C554.334 343.256 551.362 344.715 548.264 344.715C545.165 344.715 542.193 343.256 540.002 340.657C537.811 338.058 536.58 334.534 536.58 330.859C536.58 327.184 537.811 323.66 540.002 321.061C542.193 318.463 545.165 317.003 548.264 317.003C551.362 317.003 554.334 318.463 556.525 321.061C558.716 323.66 559.947 327.184 559.947 330.859V330.859Z" fill="url(#paint16_linear_932_2549)" stroke="black" stroke-width="0.734432" stroke-linecap="round" stroke-linejoin="round"/>
<path d="M546.084 330.859C546.084 334.534 544.853 338.058 542.662 340.657C540.471 343.256 537.499 344.715 534.401 344.715C531.302 344.715 528.33 343.256 526.139 340.657C523.948 338.058 522.717 334.534 522.717 330.859C522.717 327.184 523.948 323.66 526.139 321.061C528.33 318.463 531.302 317.003 534.401 317.003C537.499 317.003 540.471 318.463 542.662 321.061C544.853 323.66 546.084 327.184 546.084 330.859V330.859Z" fill="url(#paint17_linear_932_2549)" stroke="black" stroke-width="0.734432" stroke-linecap="round" stroke-linejoin="round"/>
<path d="M531.212 114.644C532.115 118.379 532.598 122.29 532.598 126.296C532.598 153.673 510.354 185.386 482.966 185.386C463.004 185.386 445.809 168.531 437.94 148.789C444.034 171.583 463.016 192.956 485.491 192.956C512.879 192.956 535.123 161.22 535.123 133.843C535.123 127.033 533.731 120.553 531.236 114.644H531.212Z" fill="black" fill-opacity="0.31373"/>
<path d="M459.736 232.127C460.548 232.596 461.27 233.199 461.862 233.904C462.454 234.609 462.904 235.401 463.187 236.236C463.47 237.07 463.58 237.93 463.51 238.767C463.441 239.604 463.194 240.401 462.782 241.112C462.371 241.824 461.804 242.437 461.114 242.915C460.424 243.394 459.624 243.729 458.76 243.901C457.895 244.073 456.984 244.08 456.077 243.92C455.17 243.759 454.286 243.436 453.475 242.968C452.664 242.5 451.942 241.896 451.35 241.191C450.758 240.486 450.307 239.694 450.025 238.86C449.742 238.025 449.632 237.165 449.701 236.329C449.771 235.492 450.018 234.695 450.429 233.983C450.84 233.271 451.407 232.659 452.097 232.18C452.788 231.702 453.588 231.367 454.452 231.194C455.316 231.022 456.228 231.016 457.134 231.176C458.041 231.336 458.925 231.659 459.736 232.127V232.127Z" fill="url(#paint18_linear_932_2549)" stroke="black" stroke-width="0.734456" stroke-linecap="round" stroke-linejoin="round"/>
<path d="M467.587 218.53C469.225 219.476 470.466 220.953 471.038 222.638C471.609 224.323 471.463 226.078 470.633 227.515C469.803 228.953 468.356 229.956 466.61 230.304C464.865 230.652 462.964 230.316 461.326 229.371C459.688 228.425 458.446 226.948 457.875 225.263C457.304 223.578 457.45 221.823 458.28 220.386C459.11 218.948 460.557 217.945 462.303 217.597C464.048 217.249 465.949 217.585 467.587 218.53V218.53Z" fill="url(#paint19_linear_932_2549)" stroke="black" stroke-width="0.734456" stroke-linecap="round" stroke-linejoin="round"/>
<path d="M467.033 227.255C468.671 228.201 469.912 229.679 470.483 231.364C471.055 233.049 470.909 234.803 470.079 236.24C469.249 237.678 467.802 238.681 466.056 239.029C464.311 239.377 462.41 239.041 460.772 238.096C459.133 237.15 457.892 235.673 457.321 233.988C456.75 232.303 456.895 230.548 457.726 229.111C458.556 227.673 460.003 226.67 461.748 226.322C463.494 225.974 465.395 226.31 467.033 227.255V227.255Z" fill="url(#paint20_linear_932_2549)" stroke="black" stroke-width="0.734456" stroke-linecap="round" stroke-linejoin="round"/>
<path d="M516.174 230.988C515.269 231.231 514.415 231.627 513.66 232.155C512.906 232.683 512.266 233.332 511.776 234.064C511.287 234.797 510.958 235.6 510.808 236.426C510.658 237.252 510.69 238.086 510.903 238.88C511.116 239.673 511.504 240.412 512.047 241.052C512.59 241.693 513.276 242.223 514.066 242.613C514.856 243.003 515.735 243.245 516.652 243.324C517.57 243.404 518.507 243.32 519.412 243.078C520.317 242.835 521.171 242.439 521.926 241.911C522.68 241.383 523.32 240.734 523.81 240.002C524.299 239.269 524.628 238.466 524.778 237.64C524.928 236.814 524.896 235.98 524.683 235.186C524.47 234.392 524.081 233.654 523.539 233.014C522.996 232.373 522.31 231.843 521.52 231.453C520.73 231.063 519.851 230.821 518.934 230.742C518.016 230.662 517.079 230.746 516.174 230.988V230.988Z" fill="url(#paint21_linear_932_2549)" stroke="black" stroke-width="0.734456" stroke-linecap="round" stroke-linejoin="round"/>
<path d="M512.115 215.824C511.21 216.066 510.356 216.463 509.602 216.991C508.847 217.519 508.207 218.167 507.717 218.9C507.228 219.633 506.899 220.435 506.749 221.262C506.599 222.088 506.632 222.922 506.844 223.715C507.057 224.509 507.446 225.247 507.989 225.888C508.531 226.529 509.217 227.059 510.007 227.449C510.798 227.839 511.676 228.08 512.594 228.16C513.511 228.24 514.449 228.156 515.354 227.914C517.181 227.424 518.763 226.317 519.751 224.837C520.74 223.357 521.054 221.625 520.624 220.022C520.195 218.419 519.057 217.076 517.461 216.289C515.866 215.501 513.942 215.334 512.115 215.824V215.824Z" fill="url(#paint22_linear_932_2549)" stroke="black" stroke-width="0.734456" stroke-linecap="round" stroke-linejoin="round"/>
<path d="M510.393 224.396C508.566 224.885 506.984 225.992 505.996 227.472C505.007 228.952 504.693 230.684 505.123 232.287C505.552 233.89 506.69 235.233 508.286 236.021C509.882 236.808 511.805 236.975 513.632 236.485C515.459 235.996 517.041 234.889 518.03 233.409C519.018 231.929 519.332 230.197 518.903 228.594C518.69 227.8 518.301 227.062 517.759 226.421C517.216 225.781 516.53 225.25 515.74 224.86C514.144 224.073 512.221 223.906 510.393 224.396V224.396Z" fill="url(#paint23_linear_932_2549)" stroke="black" stroke-width="0.734456" stroke-linecap="round" stroke-linejoin="round"/>
</g>
<defs>
<linearGradient id="paint0_linear_932_2549" x1="-14.5822" y1="-927.267" x2="7.19578" y2="-927.267" gradientUnits="userSpaceOnUse">
<stop stop-color="#74401B"/>
</linearGradient>
<linearGradient id="paint1_linear_932_2549" x1="-60.1887" y1="-926.05" x2="0.574209" y2="-926.05" gradientUnits="userSpaceOnUse">
<stop stop-color="#74401B"/>
</linearGradient>
<linearGradient id="paint2_linear_932_2549" x1="424.138" y1="160.958" x2="637.302" y2="160.958" gradientUnits="userSpaceOnUse">
<stop stop-color="#D07839"/>
</linearGradient>
<linearGradient id="paint3_linear_932_2549" x1="387.821" y1="244.236" x2="582.657" y2="244.236" gradientUnits="userSpaceOnUse">
<stop stop-color="#D07839"/>
</linearGradient>
<linearGradient id="paint4_linear_932_2549" x1="400.37" y1="130.429" x2="569.066" y2="130.429" gradientUnits="userSpaceOnUse">
<stop stop-color="#D07839"/>
</linearGradient>
<linearGradient id="paint5_linear_932_2549" x1="200.454" y1="277.52" x2="201.066" y2="279.527" gradientUnits="userSpaceOnUse">
<stop stop-color="#74401B"/>
</linearGradient>
<linearGradient id="paint6_linear_932_2549" x1="199.817" y1="273.123" x2="201.524" y2="278.72" gradientUnits="userSpaceOnUse">
<stop stop-color="#74401B"/>
</linearGradient>
<linearGradient id="paint7_linear_932_2549" x1="442.983" y1="-329.38" x2="456.87" y2="-325.649" gradientUnits="userSpaceOnUse">
<stop stop-color="#D07839"/>
</linearGradient>
<linearGradient id="paint8_linear_932_2549" x1="469.058" y1="-322.411" x2="482.947" y2="-318.679" gradientUnits="userSpaceOnUse">
<stop stop-color="#D07839"/>
</linearGradient>
<linearGradient id="paint9_linear_932_2549" x1="455.186" y1="-294.986" x2="488.464" y2="-286.045" gradientUnits="userSpaceOnUse">
<stop stop-color="#D07839"/>
</linearGradient>
<linearGradient id="paint10_linear_932_2549" x1="421.895" y1="-303.881" x2="455.173" y2="-294.94" gradientUnits="userSpaceOnUse">
<stop stop-color="#D07839"/>
</linearGradient>
<linearGradient id="paint11_linear_932_2549" x1="145.554" y1="297.246" x2="146.773" y2="301.243" gradientUnits="userSpaceOnUse">
<stop stop-color="#74401B"/>
</linearGradient>
<linearGradient id="paint12_linear_932_2549" x1="250.85" y1="249.479" x2="251.83" y2="252.692" gradientUnits="userSpaceOnUse">
<stop stop-color="#74401B"/>
</linearGradient>
<linearGradient id="paint13_linear_932_2549" x1="251.813" y1="253.589" x2="252.793" y2="256.802" gradientUnits="userSpaceOnUse">
<stop stop-color="#74401B"/>
</linearGradient>
<linearGradient id="paint14_linear_932_2549" x1="251.358" y1="251.645" x2="252.337" y2="254.857" gradientUnits="userSpaceOnUse">
<stop stop-color="#74401B"/>
</linearGradient>
<linearGradient id="paint15_linear_932_2549" x1="253.803" y1="262.088" x2="254.783" y2="265.3" gradientUnits="userSpaceOnUse">
<stop stop-color="#74401B"/>
</linearGradient>
<linearGradient id="paint16_linear_932_2549" x1="254.765" y1="266.198" x2="255.745" y2="269.411" gradientUnits="userSpaceOnUse">
<stop stop-color="#74401B"/>
</linearGradient>
<linearGradient id="paint17_linear_932_2549" x1="254.309" y1="264.254" x2="255.289" y2="267.467" gradientUnits="userSpaceOnUse">
<stop stop-color="#74401B"/>
</linearGradient>
<linearGradient id="paint18_linear_932_2549" x1="213.336" y1="265.778" x2="213.917" y2="267.682" gradientUnits="userSpaceOnUse">
<stop stop-color="#74401B"/>
</linearGradient>
<linearGradient id="paint19_linear_932_2549" x1="207.489" y1="268.741" x2="208.07" y2="270.645" gradientUnits="userSpaceOnUse">
<stop stop-color="#74401B"/>
</linearGradient>
<linearGradient id="paint20_linear_932_2549" x1="211.388" y1="267.468" x2="211.968" y2="269.372" gradientUnits="userSpaceOnUse">
<stop stop-color="#74401B"/>
</linearGradient>
<linearGradient id="paint21_linear_932_2549" x1="215.183" y1="274.386" x2="215.776" y2="276.332" gradientUnits="userSpaceOnUse">
<stop stop-color="#74401B"/>
</linearGradient>
<linearGradient id="paint22_linear_932_2549" x1="208.243" y1="275.893" x2="208.837" y2="277.839" gradientUnits="userSpaceOnUse">
<stop stop-color="#74401B"/>
</linearGradient>
<linearGradient id="paint23_linear_932_2549" x1="212.035" y1="274.477" x2="212.628" y2="276.423" gradientUnits="userSpaceOnUse">
<stop stop-color="#74401B"/>
</linearGradient>
<clipPath id="clip0_932_2549">
<rect width="637" height="365" fill="white"/>
</clipPath>
</defs>
</svg>
