<svg width="377" height="384" viewBox="0 0 377 384" fill="none" xmlns="http://www.w3.org/2000/svg">
<path d="M227.362 65.1382C185.176 80.1649 141.166 92.8524 93.3504 101.02C94.7777 104.668 95.5707 108.633 95.5707 112.756C95.5707 116.562 94.9363 120.21 93.6676 123.54C169.951 133.77 238.622 152.087 298.095 180.555C299.364 175.876 301.663 171.594 304.677 167.947C248.217 140.748 183.828 122.589 113.175 111.884C155.361 103.478 194.692 91.7423 232.437 78.4204C230.058 74.297 228.314 69.8643 227.362 65.1382ZM304.914 88.0153C301.505 91.4251 297.619 94.3591 293.337 96.5794C305.47 116.245 313.954 136.704 318.553 158.272C321.963 157.083 325.69 156.369 329.496 156.369C330.607 156.369 331.717 156.449 332.748 156.528C327.752 132.501 318.316 109.663 304.914 88.0153ZM63.059 94.5177C52.9011 94.5177 44.8207 102.606 44.8207 112.756C44.8207 122.906 52.9011 130.994 63.059 130.994C73.209 130.994 81.2973 122.906 81.2973 112.756C81.2973 102.606 73.209 94.5177 63.059 94.5177ZM90.575 129.884C88.0375 134.008 84.6278 137.497 80.5836 140.113C106.038 165.964 132.999 192.37 176.216 203.868C176.216 203.154 176.136 202.361 176.136 201.648C176.136 197.445 177.167 193.48 178.912 189.912C139.66 179.207 115.474 155.18 90.575 129.884ZM45.3758 139.955C28.1208 193.718 23.8705 248.75 19.7708 303.306C21.4599 302.91 23.2123 302.751 25.0044 302.751C28.1684 302.751 31.1975 303.306 34.0046 304.417C38.1201 250.177 42.3863 196.573 58.8166 144.951C53.9161 144.316 49.3486 142.572 45.3758 139.955ZM329.496 170.643C319.346 170.643 311.258 178.731 311.258 188.881C311.258 199.031 319.346 207.119 329.496 207.119C339.646 207.119 347.735 199.031 347.735 188.881C347.735 178.731 339.646 170.643 329.496 170.643ZM296.985 188.247C274.464 192.846 252.103 196.811 228.789 196.573C229.107 198.238 229.265 199.903 229.265 201.648C229.265 204.82 228.71 207.912 227.6 210.767C252.975 211.243 276.764 207.04 299.919 202.203C298.016 198.159 296.985 193.639 296.985 188.881V188.247ZM202.701 189.357C195.802 189.357 190.41 194.749 190.41 201.648C190.41 208.547 195.802 213.939 202.701 213.939C209.6 213.939 214.992 208.547 214.992 201.648C214.992 194.749 209.6 189.357 202.701 189.357ZM300.395 203.313C256.305 239.71 215.864 278.169 186.921 322.813C191.599 324.241 195.802 326.778 199.291 330.029C226.966 287.606 266.059 250.098 309.355 214.335C305.628 211.401 302.536 207.595 300.395 203.313ZM179.863 215.208C141.88 252.001 92.9539 281.183 42.7987 309.967C46.256 313.298 48.7935 317.58 49.975 322.338C100.408 293.474 150.523 263.737 190.172 225.04C185.89 222.741 182.321 219.331 179.863 215.208ZM322.122 220.52C323.153 243.358 326.88 265.958 333.461 288.081C337.268 285.385 341.946 283.641 346.942 283.324C340.915 262.706 337.505 241.851 336.475 220.6C334.175 221.155 331.875 221.393 329.496 221.393C326.959 221.393 324.501 221.075 322.122 220.52ZM348.528 297.518C341.867 297.518 336.633 302.751 336.633 309.412C336.633 316.073 341.867 321.307 348.528 321.307C355.189 321.307 360.422 316.073 360.422 309.412C360.422 302.751 355.189 297.518 348.528 297.518ZM25.0044 317.025C18.6052 317.025 13.5698 322.1 13.5698 328.443C13.5698 334.866 18.6052 339.941 25.0044 339.941C31.4037 339.941 36.439 334.866 36.439 328.443C36.439 322.1 31.4037 317.025 25.0044 317.025ZM323.549 317.263C288.104 336.69 249.169 343.113 208.648 345.492C209.362 348.188 209.758 350.964 209.758 353.818C209.758 355.88 209.52 357.863 209.203 359.766C251.31 357.308 293.099 350.567 331.558 329.236C327.831 326.065 325.056 321.941 323.549 317.263ZM50.538 325.509C50.649 326.461 50.7125 327.413 50.7125 328.443C50.7125 332.408 49.8006 336.135 48.1829 339.545L144.814 355.642C144.735 355.008 144.735 354.453 144.735 353.818C144.735 349.536 145.607 345.413 147.114 341.607L50.538 325.509ZM177.246 335.58C167.096 335.58 159.008 343.668 159.008 353.818C159.008 363.968 167.096 372.057 177.246 372.057C187.396 372.057 195.485 363.968 195.485 353.818C195.485 343.668 187.396 335.58 177.246 335.58Z" fill="#2FA4DA"/>
<path d="M303.84 34.3046C291.568 22.0239 269.727 21.3989 256.733 32.9401C247.587 40.96 243.942 53.2759 242.745 64.9403C241.9 73.3475 242.401 82.371 246.715 89.8626C251.046 95.4264 258.591 96.5972 265.211 96.9317C278.407 97.5216 292.352 94.3347 302.898 85.9804C315.61 75.073 318.577 54.7636 309.245 40.8455C307.722 38.4686 305.882 36.2766 303.84 34.3046V34.3046Z" fill="black" fill-opacity="0.31373"/>
<path d="M299.438 25.5009C287.166 13.2202 265.325 12.5952 252.331 24.1364C243.185 32.1563 239.54 44.4722 238.343 56.1366C237.498 64.5438 238 73.5673 242.313 81.0589C246.644 86.6226 254.189 87.7935 260.809 88.128C274.005 88.7179 287.95 85.531 298.496 77.1766C311.208 66.2693 314.175 45.9599 304.843 32.0418C303.32 29.6649 301.481 27.4729 299.438 25.5009V25.5009Z" fill="#DC9A6A" stroke="black" stroke-width="4" stroke-linecap="round" stroke-linejoin="round"/>
<path d="M271.761 16.02C274.375 16.645 276.911 17.6046 279.279 18.9427C281.577 20.184 283.751 21.6717 285.697 23.406C297.431 33.4418 299.852 52.193 291.287 65.0107C283.989 75.0377 272.395 81.3145 260.537 84.0612C255.73 85.144 250.254 85.8922 245.571 84.114C249.902 87.0895 255.633 87.873 260.801 88.1283C273.997 88.7181 287.941 85.5313 298.497 77.1769C311.209 66.2696 314.175 45.9602 304.844 32.0421C303.321 29.6564 301.481 27.4732 299.439 25.4924C292.264 18.3089 281.805 15.122 271.761 16.02V16.02Z" fill="black" fill-opacity="0.31373"/>
<path fill-rule="evenodd" clip-rule="evenodd" d="M299.764 22.4111C302.185 14.8931 314.395 7.94722 318.014 10.5618C321.632 13.1852 321.913 19.418 321.271 20.3423C320.637 21.2579 314.105 18.432 309.985 21.8389C305.874 25.237 303.805 28.1421 303.805 28.1421L299.764 22.4111Z" fill="url(#paint0_linear_909_488)" stroke="black" stroke-width="4"/>
<path fill-rule="evenodd" clip-rule="evenodd" d="M320.505 13.8279C320.584 14.6466 320.47 15.3245 320.25 15.5886C319.625 16.3368 313.365 15.6062 309.351 18.7137C305.345 21.8213 303.321 24.1982 303.321 24.1982L300.116 21.5044C299.993 21.8125 299.861 22.1118 299.764 22.4112L303.805 28.1509C303.805 28.1509 305.874 25.237 309.985 21.8301C314.105 18.432 320.637 21.2579 321.271 20.3336C321.711 19.7085 321.711 16.5745 320.505 13.8279V13.8279Z" fill="black" fill-opacity="0.31373"/>
<path d="M302.581 22.4551C290.529 10.5177 270.554 7.43654 256.504 16.3896C253.326 18.1414 254.285 22.5343 254.321 22.4639C259.629 18.2647 265.131 22.8864 272.359 28.0716C281.206 34.4188 290.934 44.1554 298.073 53.619C303.074 60.2391 306.648 66.7448 303.787 71.2961C303.936 71.3401 308.091 72.511 309.993 68.6375C319.571 50.5818 314.157 33.2392 302.581 22.4551V22.4551Z" fill="url(#paint1_linear_909_488)" stroke="black" stroke-width="4" stroke-linecap="round" stroke-linejoin="round"/>
<path d="M301.63 21.126C305.451 31.0386 304.949 40.4141 300.098 49.464C298.998 51.524 297.307 50.8549 295.89 50.8285C296.638 51.7529 297.369 52.6948 298.073 53.6192C303.065 60.2481 306.648 66.7538 303.787 71.2963C303.936 71.3403 308.092 72.52 309.993 68.6465C318.761 52.0962 314.914 34.0933 301.63 21.126V21.126Z" fill="black" fill-opacity="0.31373"/>
<circle cx="63" cy="112" r="19" fill="#D07839"/>
<circle cx="177" cy="353" r="19" fill="#D07839"/>
<circle cx="346.5" cy="309.5" r="13.5" fill="#D07839"/>
<defs>
<linearGradient id="paint0_linear_909_488" x1="-1.58224" y1="-919.267" x2="20.1958" y2="-919.267" gradientUnits="userSpaceOnUse">
<stop stop-color="#74401B"/>
</linearGradient>
<linearGradient id="paint1_linear_909_488" x1="-47.1887" y1="-918.05" x2="13.5742" y2="-918.05" gradientUnits="userSpaceOnUse">
<stop stop-color="#74401B"/>
</linearGradient>
</defs>
</svg>
