<svg width="2255" height="804" viewBox="0 0 2255 804" fill="none" xmlns="http://www.w3.org/2000/svg">
<g clip-path="url(#clip0_501_214)">
<path d="M367.576 200.374L369.048 201.416L370.237 200.059C373.244 196.623 376.95 193.87 381.108 191.983C385.265 190.095 389.778 189.118 394.343 189.115C402.867 189.133 411.036 192.526 417.063 198.553C423.09 204.58 426.483 212.75 426.501 221.273C426.483 229.797 423.09 237.967 417.063 243.994C411.035 250.021 402.866 253.414 394.342 253.432C385.819 253.414 377.649 250.021 371.622 243.994C365.595 237.967 362.202 229.798 362.184 221.275C362.189 218.215 362.632 215.172 363.502 212.238L363.909 210.865L362.74 210.037L346.586 198.599L345.063 197.521L343.882 198.966C337.548 206.715 328.519 212.154 318.245 213.873L316.575 214.152V215.845V236.502V238.11L318.145 238.455C332.57 241.632 343.396 254.485 343.398 269.838C343.381 278.363 339.987 286.534 333.959 292.562C327.932 298.589 319.763 301.983 311.24 302C302.718 301.981 294.55 298.586 288.525 292.559C282.499 286.532 279.106 278.363 279.089 269.84C279.09 254.485 289.932 241.538 304.33 238.458L305.911 238.12V236.502V215.845V214.153L304.243 213.873C284.34 210.527 269.125 193.209 269.125 172.386C269.125 151.664 284.192 134.421 303.945 131.045L305.609 130.761V129.074V109.424V107.832L304.057 107.475C289.768 104.19 279.082 91.4126 279.081 76.1606C279.098 67.6362 282.491 59.4657 288.519 53.4381C294.546 47.4109 302.716 44.0173 311.239 44C319.759 44.0152 327.926 47.4037 333.954 53.4244C339.982 59.4452 343.38 67.6081 343.406 76.1278C343.392 83.5019 340.849 90.6483 336.202 96.3741C331.554 102.101 325.081 106.06 317.866 107.59L316.281 107.926V109.547V128.869V130.572L317.961 130.844C328.441 132.54 337.641 138.08 344.037 146.009L345.212 147.465L346.743 146.39L362.766 135.14L363.937 134.318L363.537 132.945C362.668 129.956 362.193 126.969 362.192 123.805C362.209 115.28 365.602 107.109 371.63 101.081C377.657 95.054 385.827 91.6604 394.351 91.6431C402.874 91.6604 411.044 95.054 417.071 101.081C423.098 107.108 426.492 115.278 426.509 123.801C426.492 132.325 423.098 140.494 417.071 146.522C411.043 152.549 402.873 155.943 394.348 155.96C389.795 155.956 385.295 154.982 381.147 153.104C376.999 151.225 373.298 148.483 370.292 145.062L369.108 143.715L367.64 144.745L351.625 155.987L350.375 156.865L350.893 158.302C352.521 162.817 353.358 167.579 353.37 172.379C353.37 177.4 352.434 182.204 350.804 186.695L350.284 188.128L351.529 189.009L367.576 200.374ZM412.897 123.818C412.897 113.585 404.577 105.254 394.342 105.254C384.107 105.254 375.787 113.585 375.787 123.818C375.787 134.051 384.109 142.373 394.342 142.373C404.576 142.373 412.897 134.051 412.897 123.818ZM311.247 57.6031C301.006 57.6031 292.684 65.924 292.684 76.1582C292.684 86.3932 301.015 94.7134 311.247 94.7134C321.481 94.7134 329.803 86.3919 329.803 76.1582C329.803 65.9253 321.49 57.6031 311.247 57.6031ZM311.239 288.413C321.473 288.413 329.794 280.092 329.794 269.858C329.794 259.625 321.482 251.303 311.239 251.303C300.998 251.303 292.676 259.624 292.676 269.858C292.676 280.093 301.007 288.413 311.239 288.413ZM286.142 172.411C286.142 186.246 297.386 197.499 311.231 197.499C325.067 197.499 336.32 186.247 336.32 172.411C336.32 158.574 325.067 147.322 311.231 147.322C297.395 147.322 286.142 158.574 286.142 172.411ZM375.779 221.282C375.779 231.514 384.099 239.845 394.334 239.845C404.569 239.845 412.889 231.514 412.889 221.282C412.889 211.048 404.568 202.727 394.334 202.727C384.101 202.727 375.779 211.048 375.779 221.282Z" fill="black" stroke="white" stroke-width="4"/>
</g>
<g clip-path="url(#clip1_501_214)">
<g filter="url(#filter0_f_501_214)">
<path d="M432.03 567.823C432.03 583.051 394.997 595.395 349.313 595.395C303.631 595.395 266.596 583.051 266.596 567.823C266.596 552.596 303.628 540.252 349.313 540.252C394.995 540.252 432.03 552.596 432.03 567.823Z" fill="#2E3436"/>
</g>
<path d="M266.661 428.596V554.958H267.186C266.848 555.971 266.661 556.933 266.661 557.976C266.661 573.204 303.65 585.533 349.335 585.533C395.02 585.533 432.009 573.204 432.009 557.976C432.009 556.931 431.824 555.972 431.484 554.958H432.009V428.596H266.666H266.661Z" fill="url(#paint0_linear_501_214)"/>
<path d="M432.03 427.528C432.03 442.755 394.997 455.099 349.313 455.099C303.631 455.099 266.596 442.755 266.596 427.528C266.596 412.301 303.628 399.957 349.313 399.957C394.995 399.957 432.03 412.301 432.03 427.528Z" fill="url(#paint1_linear_501_214)"/>
<path d="M266.535 519.257C267.154 534.307 304.042 546.42 349.339 546.42C394.506 546.42 431.19 534.378 432.013 519.388C417.52 531.716 385.994 540.253 349.339 540.253C312.613 540.253 280.989 531.626 266.535 519.257Z" fill="#565656"/>
<path d="M266.535 427.924C267.154 442.974 304.042 455.088 349.339 455.088C394.506 455.088 431.19 443.046 432.013 428.056C431.107 428.826 430.162 429.547 429.126 430.286C429.088 430.335 429.036 430.369 428.995 430.418C419.37 442.08 387.409 450.626 349.341 450.626C311.036 450.626 278.853 441.931 269.426 430.155C269.321 430.08 269.266 429.968 269.163 429.893C268.245 429.222 267.348 428.619 266.535 427.924Z" fill="url(#paint2_linear_501_214)"/>
<path d="M266.535 475.068C267.154 490.118 304.042 502.232 349.339 502.232C394.506 502.232 431.19 490.19 432.013 475.2C417.52 487.528 385.994 496.065 349.339 496.065C312.613 496.065 280.989 487.438 266.535 475.068Z" fill="#565656"/>
<path d="M266.535 475.068C267.154 490.118 304.042 502.232 349.339 502.232C394.506 502.232 431.19 490.19 432.013 475.2C431.805 475.377 431.57 475.551 431.357 475.724C426.141 489.274 391.42 499.739 349.343 499.739C306.876 499.739 271.792 489.194 267.063 475.463C266.895 475.329 266.698 475.207 266.535 475.068Z" fill="url(#paint3_linear_501_214)"/>
<path d="M266.535 519.257C267.154 534.307 304.042 546.42 349.339 546.42C394.506 546.42 431.19 534.378 432.013 519.388C431.805 519.565 431.57 519.74 431.357 519.913C426.141 533.463 391.42 543.927 349.343 543.927C306.876 543.927 271.792 533.382 267.063 519.651C266.895 519.518 266.698 519.395 266.535 519.257Z" fill="url(#paint4_linear_501_214)"/>
<path d="M267.039 564.818C271.768 578.55 306.852 589.095 349.318 589.095C391.399 589.095 426.118 578.63 431.333 565.08C416.567 577.123 385.44 585.42 349.318 585.42C313.005 585.42 281.711 576.965 267.039 564.818Z" fill="#565656"/>
</g>
<g clip-path="url(#clip2_501_214)">
<path d="M36.4063 100.005L21.0225 107.69V242.58L36.4063 250.22L36.4988 250.109V100.111L36.4063 100.005Z" fill="#8C3123"/>
<path d="M118.738 230.642L36.4062 250.22V100.005L118.738 119.156V230.642Z" fill="#E05243"/>
<path d="M81.5747 199.991L116.497 204.432L116.716 203.927L116.913 146.721L116.497 146.273L81.5747 150.651V199.991Z" fill="#8C3123"/>
<path d="M116.497 230.862L196.587 250.262L196.713 250.062L196.711 100.139L196.584 100.005L116.497 119.376V230.862Z" fill="#8C3123"/>
<path d="M151.429 199.991L116.497 204.432V146.273L151.429 150.651V199.991Z" fill="#E05243"/>
<path d="M151.429 126.789L116.497 133.149L81.5747 126.789L116.453 117.657L151.429 126.789Z" fill="#5E1F18"/>
<path d="M151.429 223.787L116.497 217.386L81.5747 223.787L116.455 233.514L151.429 223.787Z" fill="#F2B0A9"/>
<path d="M81.5747 126.79L116.497 118.156L116.78 118.069V60.2332L116.497 60L81.5747 77.4465V126.79Z" fill="#8C3123"/>
<path d="M151.429 126.79L116.497 118.156V60L151.429 77.4465V126.79Z" fill="#E05243"/>
<path d="M116.497 290.574L81.5708 273.133V223.791L116.497 232.421L117.011 233.005L116.871 289.567L116.497 290.574Z" fill="#8C3123"/>
<path d="M116.497 290.574L151.426 273.133V223.791L116.497 232.422V290.574ZM196.587 100.005L211.978 107.69V242.58L196.587 250.262V100.005Z" fill="#E05243"/>
</g>
<path d="M60.7267 577.204L19.9316 506.543C18.3631 503.826 17.5374 500.744 17.5374 497.607C17.5374 494.47 18.3631 491.389 19.9316 488.672L60.7267 418.012C62.2954 415.295 64.5517 413.038 67.2688 411.47C69.9859 409.901 73.0681 409.075 76.2055 409.076H157.796C160.933 409.076 164.015 409.902 166.732 411.47C169.448 413.039 171.704 415.295 173.273 418.012L214.068 488.672C215.637 491.389 216.463 494.471 216.463 497.608C216.463 500.745 215.637 503.827 214.068 506.544L173.273 577.204C171.704 579.921 169.448 582.177 166.731 583.745C164.014 585.313 160.933 586.139 157.796 586.139H76.2055C73.0681 586.139 69.9858 585.314 67.2687 583.745C64.5515 582.176 62.2952 579.922 60.7267 577.204Z" fill="url(#paint5_linear_501_214)"/>
<path opacity="0.07" d="M205.668 521.821L156.192 472.348L147.088 474.234L124.393 451.542L117.131 465.123L113.193 480.833L119.858 487.5L107.056 490.114L89.5007 472.559L77.5807 484.018L99.5293 505.969L76.2644 524.463L138.728 586.925L169.159 586.63L205.668 521.821Z" fill="black"/>
<path d="M150.443 486.574C155.013 486.574 158.717 482.87 158.717 478.3C158.717 473.73 155.013 470.026 150.443 470.026C145.874 470.026 142.169 473.73 142.169 478.3C142.169 482.87 145.874 486.574 150.443 486.574Z" fill="white"/>
<path d="M83.5563 486.574C88.1259 486.574 91.8303 482.87 91.8303 478.3C91.8303 473.73 88.1259 470.026 83.5563 470.026C78.9866 470.026 75.2822 473.73 75.2822 478.3C75.2822 482.87 78.9866 486.574 83.5563 486.574Z" fill="white"/>
<path d="M117 544.501C121.571 544.501 125.276 540.796 125.276 536.226C125.276 531.655 121.571 527.95 117 527.95C112.43 527.95 108.725 531.655 108.725 536.226C108.725 540.796 112.43 544.501 117 544.501Z" fill="white"/>
<path d="M117 510.976C124.384 510.976 130.369 504.991 130.369 497.608C130.369 490.224 124.384 484.239 117 484.239C109.617 484.239 103.632 490.224 103.632 497.608C103.632 504.991 109.617 510.976 117 510.976Z" fill="white"/>
<path d="M83.5563 527.419C89.3567 527.419 94.0589 522.717 94.0589 516.916C94.0589 511.116 89.3567 506.414 83.5563 506.414C77.7559 506.414 73.0537 511.116 73.0537 516.916C73.0537 522.717 77.7559 527.419 83.5563 527.419Z" fill="white"/>
<path d="M150.443 527.419C156.244 527.419 160.946 522.717 160.946 516.916C160.946 511.116 156.244 506.414 150.443 506.414C144.643 506.414 139.941 511.116 139.941 516.916C139.941 522.717 144.643 527.419 150.443 527.419Z" fill="white"/>
<path d="M117 469.494C122.802 469.494 127.505 464.791 127.505 458.99C127.505 453.189 122.802 448.486 117 448.486C111.199 448.486 106.496 453.189 106.496 458.99C106.496 464.791 111.199 469.494 117 469.494Z" fill="white"/>
<path d="M626 333L526 275.265V390.735L626 333ZM480 343H536V323H480V343Z" fill="#888888"/>
<path d="M1858 333L1758 275.265V390.735L1858 333ZM1712 343H1768V323H1712V343Z" fill="#888888"/>
<path d="M1927.12 420.903L1938.84 427.668L2069.36 201.603L2057.64 194.839L1927.12 420.903Z" fill="#E535AB"/>
<path d="M2185.48 402.843H1924.44V416.372H2185.48V402.843Z" fill="#E535AB"/>
<path d="M1929.6 410.443L2060.17 485.831L2066.94 474.114L1936.37 398.727L1929.6 410.443Z" fill="#E535AB"/>
<path d="M2043.03 213.964L2173.6 289.351L2180.37 277.635L2049.79 202.247L2043.03 213.964Z" fill="#E535AB"/>
<path d="M1929.64 277.584L1936.4 289.3L2066.97 213.912L2060.21 202.196L1929.64 277.584Z" fill="#E535AB"/>
<path d="M2040.67 201.606L2171.19 427.67L2182.91 420.906L2052.39 194.841L2040.67 201.606Z" fill="#E535AB"/>
<path d="M1948.32 268.612H1934.79V419.387H1948.32V268.612Z" fill="#E535AB"/>
<path d="M2175.21 268.612H2161.68V419.387H2175.21V268.612Z" fill="#E535AB"/>
<path d="M2051.96 469.87L2057.87 480.104L2171.43 414.537L2165.52 404.303L2051.96 469.87Z" fill="#E535AB"/>
<path d="M2193.14 423.788C2185.32 437.399 2167.88 442.044 2154.27 434.22C2140.66 426.396 2136.01 408.955 2143.83 395.345C2151.66 381.734 2169.1 377.089 2182.71 384.913C2196.4 392.818 2201.05 410.178 2193.14 423.788Z" fill="#E535AB"/>
<path d="M1966.08 292.655C1958.26 306.265 1940.82 310.911 1927.21 303.087C1913.6 295.263 1908.95 277.822 1916.78 264.211C1924.6 250.601 1942.04 245.955 1955.65 253.779C1969.26 261.685 1973.91 279.044 1966.08 292.655Z" fill="#E535AB"/>
<path d="M1916.86 423.788C1909.03 410.178 1913.68 392.818 1927.29 384.913C1940.9 377.089 1958.26 381.734 1966.17 395.345C1973.99 408.955 1969.34 426.315 1955.73 434.22C1942.04 442.044 1924.68 437.399 1916.86 423.788Z" fill="#E535AB"/>
<path d="M2143.92 292.655C2136.09 279.044 2140.74 261.685 2154.35 253.779C2167.96 245.955 2185.32 250.601 2193.22 264.211C2201.05 277.822 2196.4 295.181 2182.79 303.087C2169.18 310.911 2151.74 306.265 2143.92 292.655Z" fill="#E535AB"/>
<path d="M2055 503.577C2039.27 503.577 2026.56 490.863 2026.56 475.133C2026.56 459.404 2039.27 446.69 2055 446.69C2070.73 446.69 2083.44 459.404 2083.44 475.133C2083.44 490.781 2070.73 503.577 2055 503.577Z" fill="#E535AB"/>
<path d="M2055 241.31C2039.27 241.31 2026.56 228.596 2026.56 212.866C2026.56 197.137 2039.27 184.423 2055 184.423C2070.73 184.423 2083.44 197.137 2083.44 212.866C2083.44 228.596 2070.73 241.31 2055 241.31Z" fill="#E535AB"/>
<path d="M19.3105 691.906L32.3965 722.766L45.5312 691.906H63.9883L41.1367 737.463V763H23.7051V737.463L0.804688 691.906H19.3105ZM63.1582 737.121V736.096C63.1582 732.222 63.7116 728.658 64.8184 725.402C65.9251 722.115 67.5527 719.266 69.7012 716.857C71.8496 714.449 74.5026 712.577 77.6602 711.242C80.8177 709.875 84.4635 709.191 88.5977 709.191C92.7643 709.191 96.4264 709.875 99.584 711.242C102.774 712.577 105.443 714.449 107.592 716.857C109.74 719.266 111.368 722.115 112.475 725.402C113.581 728.658 114.135 732.222 114.135 736.096V737.121C114.135 740.962 113.581 744.527 112.475 747.814C111.368 751.07 109.74 753.918 107.592 756.359C105.443 758.768 102.79 760.64 99.6328 761.975C96.4753 763.309 92.8294 763.977 88.6953 763.977C84.5612 763.977 80.8991 763.309 77.709 761.975C74.5189 760.64 71.8496 758.768 69.7012 756.359C67.5527 753.918 65.9251 751.07 64.8184 747.814C63.7116 744.527 63.1582 740.962 63.1582 737.121ZM79.6133 736.096V737.121C79.6133 739.107 79.7598 740.962 80.0527 742.688C80.3457 744.413 80.834 745.926 81.5176 747.229C82.2012 748.498 83.1289 749.491 84.3008 750.207C85.4727 750.923 86.9375 751.281 88.6953 751.281C90.4206 751.281 91.8529 750.923 92.9922 750.207C94.1641 749.491 95.0918 748.498 95.7754 747.229C96.459 745.926 96.9473 744.413 97.2402 742.688C97.5332 740.962 97.6797 739.107 97.6797 737.121V736.096C97.6797 734.175 97.5332 732.368 97.2402 730.676C96.9473 728.951 96.459 727.437 95.7754 726.135C95.0918 724.8 94.1641 723.758 92.9922 723.01C91.8203 722.261 90.3555 721.887 88.5977 721.887C86.8724 721.887 85.4238 722.261 84.252 723.01C83.1126 723.758 82.2012 724.8 81.5176 726.135C80.834 727.437 80.3457 728.951 80.0527 730.676C79.7598 732.368 79.6133 734.175 79.6133 736.096ZM152.318 750.158V710.168H168.822V763H153.393L152.318 750.158ZM153.881 739.416L158.178 739.318C158.178 742.867 157.755 746.154 156.908 749.182C156.062 752.176 154.809 754.781 153.148 756.994C151.521 759.208 149.503 760.933 147.094 762.17C144.717 763.374 141.967 763.977 138.842 763.977C136.238 763.977 133.845 763.618 131.664 762.902C129.516 762.154 127.66 760.998 126.098 759.436C124.535 757.84 123.314 755.806 122.436 753.332C121.589 750.826 121.166 747.831 121.166 744.348V710.168H137.621V744.445C137.621 745.617 137.768 746.626 138.061 747.473C138.354 748.319 138.777 749.035 139.33 749.621C139.883 750.174 140.567 750.598 141.381 750.891C142.227 751.151 143.188 751.281 144.262 751.281C146.736 751.281 148.673 750.76 150.072 749.719C151.472 748.677 152.449 747.261 153.002 745.471C153.588 743.68 153.881 741.662 153.881 739.416ZM194.506 723.254V763H178.051V710.168H193.432L194.506 723.254ZM210.131 709.777L209.838 725.061C209.187 724.995 208.308 724.914 207.201 724.816C206.094 724.719 205.167 724.67 204.418 724.67C202.497 724.67 200.837 724.898 199.438 725.354C198.07 725.777 196.931 726.428 196.02 727.307C195.141 728.153 194.49 729.227 194.066 730.529C193.676 731.831 193.497 733.345 193.529 735.07L190.551 733.117C190.551 729.569 190.893 726.346 191.576 723.449C192.292 720.52 193.301 717.997 194.604 715.881C195.906 713.732 197.484 712.089 199.34 710.949C201.195 709.777 203.279 709.191 205.59 709.191C206.404 709.191 207.201 709.24 207.982 709.338C208.796 709.436 209.512 709.582 210.131 709.777ZM264.574 763H248.803L248.9 749.816H264.574C267.829 749.816 270.58 749.035 272.826 747.473C275.105 745.91 276.83 743.583 278.002 740.49C279.206 737.365 279.809 733.524 279.809 728.967V725.891C279.809 722.473 279.467 719.478 278.783 716.906C278.132 714.302 277.156 712.137 275.854 710.412C274.551 708.654 272.924 707.336 270.971 706.457C269.05 705.578 266.837 705.139 264.33 705.139H248.51V691.906H264.33C269.148 691.906 273.559 692.736 277.562 694.396C281.599 696.024 285.082 698.368 288.012 701.428C290.974 704.455 293.253 708.052 294.848 712.219C296.475 716.353 297.289 720.943 297.289 725.988V728.967C297.289 733.98 296.475 738.57 294.848 742.736C293.253 746.903 290.99 750.5 288.061 753.527C285.131 756.555 281.664 758.898 277.66 760.559C273.689 762.186 269.327 763 264.574 763ZM258.617 691.906V763H241.479V691.906H258.617ZM332.885 749.719V727.941C332.885 726.444 332.673 725.158 332.25 724.084C331.827 723.01 331.16 722.18 330.248 721.594C329.337 720.975 328.116 720.666 326.586 720.666C325.349 720.666 324.291 720.878 323.412 721.301C322.533 721.724 321.866 722.359 321.41 723.205C320.954 724.051 320.727 725.126 320.727 726.428H304.271C304.271 723.986 304.809 721.724 305.883 719.641C306.99 717.525 308.552 715.686 310.57 714.123C312.621 712.561 315.062 711.356 317.895 710.51C320.759 709.631 323.949 709.191 327.465 709.191C331.664 709.191 335.408 709.891 338.695 711.291C342.016 712.691 344.636 714.79 346.557 717.59C348.477 720.357 349.438 723.84 349.438 728.039V749.67C349.438 753.12 349.633 755.741 350.023 757.531C350.414 759.289 350.967 760.835 351.684 762.17V763H335.18C334.398 761.372 333.812 759.387 333.422 757.043C333.064 754.667 332.885 752.225 332.885 749.719ZM334.887 730.725L334.984 739.514H327.709C326.179 739.514 324.877 739.725 323.803 740.148C322.761 740.572 321.915 741.158 321.264 741.906C320.645 742.622 320.189 743.436 319.896 744.348C319.636 745.259 319.506 746.219 319.506 747.229C319.506 748.205 319.734 749.084 320.189 749.865C320.678 750.614 321.329 751.2 322.143 751.623C322.956 752.046 323.868 752.258 324.877 752.258C326.7 752.258 328.246 751.916 329.516 751.232C330.818 750.516 331.811 749.654 332.494 748.645C333.178 747.635 333.52 746.691 333.52 745.812L337.133 752.551C336.482 753.853 335.733 755.171 334.887 756.506C334.073 757.84 333.048 759.077 331.811 760.217C330.606 761.324 329.125 762.235 327.367 762.951C325.609 763.635 323.477 763.977 320.971 763.977C317.715 763.977 314.721 763.309 311.986 761.975C309.285 760.64 307.12 758.785 305.492 756.408C303.865 753.999 303.051 751.232 303.051 748.107C303.051 745.373 303.539 742.932 304.516 740.783C305.525 738.635 307.038 736.812 309.057 735.314C311.075 733.817 313.646 732.678 316.771 731.896C319.896 731.115 323.575 730.725 327.807 730.725H334.887ZM386.4 710.168V721.594H354.564V710.168H386.4ZM361.254 697.033H377.709V745.764C377.709 747.163 377.872 748.254 378.197 749.035C378.523 749.784 379.076 750.321 379.857 750.646C380.671 750.939 381.745 751.086 383.08 751.086C384.024 751.086 384.805 751.07 385.424 751.037C386.042 750.972 386.628 750.891 387.182 750.793V762.561C385.782 763.016 384.317 763.358 382.787 763.586C381.257 763.846 379.63 763.977 377.904 763.977C374.389 763.977 371.378 763.423 368.871 762.316C366.397 761.21 364.509 759.468 363.207 757.092C361.905 754.715 361.254 751.623 361.254 747.814V697.033ZM420.385 749.719V727.941C420.385 726.444 420.173 725.158 419.75 724.084C419.327 723.01 418.66 722.18 417.748 721.594C416.837 720.975 415.616 720.666 414.086 720.666C412.849 720.666 411.791 720.878 410.912 721.301C410.033 721.724 409.366 722.359 408.91 723.205C408.454 724.051 408.227 725.126 408.227 726.428H391.771C391.771 723.986 392.309 721.724 393.383 719.641C394.49 717.525 396.052 715.686 398.07 714.123C400.121 712.561 402.562 711.356 405.395 710.51C408.259 709.631 411.449 709.191 414.965 709.191C419.164 709.191 422.908 709.891 426.195 711.291C429.516 712.691 432.136 714.79 434.057 717.59C435.977 720.357 436.938 723.84 436.938 728.039V749.67C436.938 753.12 437.133 755.741 437.523 757.531C437.914 759.289 438.467 760.835 439.184 762.17V763H422.68C421.898 761.372 421.312 759.387 420.922 757.043C420.564 754.667 420.385 752.225 420.385 749.719ZM422.387 730.725L422.484 739.514H415.209C413.679 739.514 412.377 739.725 411.303 740.148C410.261 740.572 409.415 741.158 408.764 741.906C408.145 742.622 407.689 743.436 407.396 744.348C407.136 745.259 407.006 746.219 407.006 747.229C407.006 748.205 407.234 749.084 407.689 749.865C408.178 750.614 408.829 751.2 409.643 751.623C410.456 752.046 411.368 752.258 412.377 752.258C414.2 752.258 415.746 751.916 417.016 751.232C418.318 750.516 419.311 749.654 419.994 748.645C420.678 747.635 421.02 746.691 421.02 745.812L424.633 752.551C423.982 753.853 423.233 755.171 422.387 756.506C421.573 757.84 420.548 759.077 419.311 760.217C418.106 761.324 416.625 762.235 414.867 762.951C413.109 763.635 410.977 763.977 408.471 763.977C405.215 763.977 402.221 763.309 399.486 761.975C396.785 760.64 394.62 758.785 392.992 756.408C391.365 753.999 390.551 751.232 390.551 748.107C390.551 745.373 391.039 742.932 392.016 740.783C393.025 738.635 394.538 736.812 396.557 735.314C398.575 733.817 401.146 732.678 404.271 731.896C407.396 731.115 411.075 730.725 415.307 730.725H422.387Z" fill="#888888"/>
<path d="M684.908 738.928H701.998C701.77 743.876 700.436 748.238 697.994 752.014C695.553 755.79 692.167 758.736 687.838 760.852C683.541 762.935 678.463 763.977 672.604 763.977C667.851 763.977 663.603 763.179 659.859 761.584C656.148 759.989 652.991 757.694 650.387 754.699C647.815 751.704 645.846 748.075 644.479 743.811C643.144 739.546 642.477 734.745 642.477 729.406V725.549C642.477 720.21 643.176 715.409 644.576 711.145C646.008 706.848 648.027 703.202 650.631 700.207C653.268 697.18 656.425 694.868 660.104 693.273C663.782 691.678 667.867 690.881 672.359 690.881C678.544 690.881 683.769 691.988 688.033 694.201C692.298 696.415 695.602 699.458 697.945 703.332C700.289 707.173 701.673 711.551 702.096 716.467H685.006C684.941 713.798 684.485 711.568 683.639 709.777C682.792 707.954 681.458 706.587 679.635 705.676C677.812 704.764 675.387 704.309 672.359 704.309C670.243 704.309 668.404 704.699 666.842 705.48C665.279 706.262 663.977 707.499 662.936 709.191C661.894 710.884 661.113 713.081 660.592 715.783C660.104 718.452 659.859 721.675 659.859 725.451V729.406C659.859 733.182 660.087 736.405 660.543 739.074C660.999 741.743 661.731 743.924 662.74 745.617C663.749 747.31 665.051 748.563 666.646 749.377C668.274 750.158 670.26 750.549 672.604 750.549C675.208 750.549 677.405 750.142 679.195 749.328C680.986 748.482 682.369 747.212 683.346 745.52C684.322 743.794 684.843 741.597 684.908 738.928ZM707.271 737.121V736.096C707.271 732.222 707.825 728.658 708.932 725.402C710.038 722.115 711.666 719.266 713.814 716.857C715.963 714.449 718.616 712.577 721.773 711.242C724.931 709.875 728.577 709.191 732.711 709.191C736.878 709.191 740.54 709.875 743.697 711.242C746.887 712.577 749.557 714.449 751.705 716.857C753.854 719.266 755.481 722.115 756.588 725.402C757.695 728.658 758.248 732.222 758.248 736.096V737.121C758.248 740.962 757.695 744.527 756.588 747.814C755.481 751.07 753.854 753.918 751.705 756.359C749.557 758.768 746.904 760.64 743.746 761.975C740.589 763.309 736.943 763.977 732.809 763.977C728.674 763.977 725.012 763.309 721.822 761.975C718.632 760.64 715.963 758.768 713.814 756.359C711.666 753.918 710.038 751.07 708.932 747.814C707.825 744.527 707.271 740.962 707.271 737.121ZM723.727 736.096V737.121C723.727 739.107 723.873 740.962 724.166 742.688C724.459 744.413 724.947 745.926 725.631 747.229C726.314 748.498 727.242 749.491 728.414 750.207C729.586 750.923 731.051 751.281 732.809 751.281C734.534 751.281 735.966 750.923 737.105 750.207C738.277 749.491 739.205 748.498 739.889 747.229C740.572 745.926 741.061 744.413 741.354 742.688C741.646 740.962 741.793 739.107 741.793 737.121V736.096C741.793 734.175 741.646 732.368 741.354 730.676C741.061 728.951 740.572 727.437 739.889 726.135C739.205 724.8 738.277 723.758 737.105 723.01C735.934 722.261 734.469 721.887 732.711 721.887C730.986 721.887 729.537 722.261 728.365 723.01C727.226 723.758 726.314 724.8 725.631 726.135C724.947 727.437 724.459 728.951 724.166 730.676C723.873 732.368 723.727 734.175 723.727 736.096ZM782.174 721.35V763H765.719V710.168H781.148L782.174 721.35ZM780.172 734.777L776.412 734.875C776.412 731.164 776.852 727.746 777.73 724.621C778.609 721.496 779.911 718.778 781.637 716.467C783.362 714.156 785.478 712.365 787.984 711.096C790.523 709.826 793.453 709.191 796.773 709.191C799.085 709.191 801.184 709.549 803.072 710.266C804.96 710.949 806.588 712.04 807.955 713.537C809.322 715.002 810.364 716.923 811.08 719.299C811.829 721.643 812.203 724.458 812.203 727.746V763H795.748V729.846C795.748 727.6 795.488 725.907 794.967 724.768C794.479 723.628 793.762 722.863 792.818 722.473C791.874 722.082 790.719 721.887 789.352 721.887C787.919 721.887 786.633 722.212 785.494 722.863C784.355 723.514 783.378 724.426 782.564 725.598C781.783 726.737 781.181 728.088 780.758 729.65C780.367 731.213 780.172 732.922 780.172 734.777ZM810.348 734.777L805.758 734.875C805.758 731.164 806.165 727.746 806.979 724.621C807.825 721.496 809.078 718.778 810.738 716.467C812.431 714.156 814.531 712.365 817.037 711.096C819.544 709.826 822.457 709.191 825.777 709.191C828.186 709.191 830.4 709.549 832.418 710.266C834.436 710.982 836.178 712.137 837.643 713.732C839.107 715.327 840.247 717.443 841.061 720.08C841.874 722.684 842.281 725.907 842.281 729.748V763H825.777V729.748C825.777 727.567 825.517 725.923 824.996 724.816C824.508 723.677 823.792 722.912 822.848 722.521C821.904 722.098 820.781 721.887 819.479 721.887C817.916 721.887 816.565 722.212 815.426 722.863C814.286 723.514 813.326 724.426 812.545 725.598C811.796 726.737 811.243 728.088 810.885 729.65C810.527 731.213 810.348 732.922 810.348 734.777ZM868.307 720.324V783.312H851.852V710.168H867.184L868.307 720.324ZM900.729 735.949V736.975C900.729 740.816 900.289 744.38 899.41 747.668C898.531 750.956 897.229 753.82 895.504 756.262C893.779 758.703 891.63 760.607 889.059 761.975C886.52 763.309 883.574 763.977 880.221 763.977C877.063 763.977 874.345 763.277 872.066 761.877C869.788 760.477 867.883 758.54 866.354 756.066C864.824 753.592 863.587 750.76 862.643 747.57C861.699 744.38 860.95 741.011 860.396 737.463V736.145C860.95 732.336 861.699 728.804 862.643 725.549C863.587 722.261 864.824 719.396 866.354 716.955C867.883 714.514 869.771 712.609 872.018 711.242C874.296 709.875 877.014 709.191 880.172 709.191C883.525 709.191 886.471 709.826 889.01 711.096C891.581 712.365 893.73 714.188 895.455 716.564C897.213 718.908 898.531 721.724 899.41 725.012C900.289 728.299 900.729 731.945 900.729 735.949ZM884.273 736.975V735.949C884.273 733.898 884.127 732.027 883.834 730.334C883.541 728.609 883.069 727.111 882.418 725.842C881.799 724.572 880.969 723.596 879.928 722.912C878.886 722.229 877.6 721.887 876.07 721.887C874.312 721.887 872.831 722.163 871.627 722.717C870.455 723.238 869.511 724.051 868.795 725.158C868.111 726.232 867.623 727.583 867.33 729.211C867.07 730.806 866.956 732.678 866.988 734.826V738.83C866.923 741.304 867.167 743.485 867.721 745.373C868.274 747.229 869.234 748.677 870.602 749.719C871.969 750.76 873.824 751.281 876.168 751.281C877.73 751.281 879.033 750.923 880.074 750.207C881.116 749.458 881.946 748.433 882.564 747.131C883.183 745.796 883.622 744.266 883.883 742.541C884.143 740.816 884.273 738.96 884.273 736.975ZM925.436 710.168V763H908.932V710.168H925.436ZM907.955 696.545C907.955 694.201 908.801 692.281 910.494 690.783C912.187 689.286 914.384 688.537 917.086 688.537C919.788 688.537 921.985 689.286 923.678 690.783C925.37 692.281 926.217 694.201 926.217 696.545C926.217 698.889 925.37 700.809 923.678 702.307C921.985 703.804 919.788 704.553 917.086 704.553C914.384 704.553 912.187 703.804 910.494 702.307C908.801 700.809 907.955 698.889 907.955 696.545ZM952.975 688V763H936.471V688H952.975ZM988.717 763.977C984.42 763.977 980.579 763.309 977.193 761.975C973.808 760.607 970.943 758.736 968.6 756.359C966.288 753.983 964.514 751.249 963.277 748.156C962.073 745.064 961.471 741.792 961.471 738.342V736.486C961.471 732.613 962.008 729.032 963.082 725.744C964.156 722.424 965.751 719.527 967.867 717.053C969.983 714.579 972.636 712.658 975.826 711.291C979.016 709.891 982.727 709.191 986.959 709.191C990.702 709.191 994.055 709.794 997.018 710.998C999.98 712.202 1002.49 713.928 1004.54 716.174C1006.62 718.42 1008.2 721.138 1009.27 724.328C1010.38 727.518 1010.93 731.099 1010.93 735.07V741.76H967.77V731.457H994.869V730.188C994.902 728.43 994.592 726.932 993.941 725.695C993.323 724.458 992.411 723.514 991.207 722.863C990.003 722.212 988.538 721.887 986.812 721.887C985.022 721.887 983.541 722.277 982.369 723.059C981.23 723.84 980.335 724.914 979.684 726.281C979.065 727.616 978.626 729.162 978.365 730.92C978.105 732.678 977.975 734.533 977.975 736.486V738.342C977.975 740.295 978.235 742.069 978.756 743.664C979.309 745.259 980.09 746.626 981.1 747.766C982.141 748.872 983.378 749.735 984.811 750.354C986.275 750.972 987.936 751.281 989.791 751.281C992.037 751.281 994.251 750.858 996.432 750.012C998.613 749.165 1000.48 747.766 1002.05 745.812L1009.52 754.699C1008.44 756.229 1006.91 757.71 1004.93 759.143C1002.97 760.575 1000.63 761.747 997.896 762.658C995.162 763.537 992.102 763.977 988.717 763.977ZM1047.99 750.891V688H1064.55V763H1049.7L1047.99 750.891ZM1015.57 737.219V736.193C1015.57 732.189 1016.01 728.544 1016.89 725.256C1017.77 721.936 1019.07 719.087 1020.8 716.711C1022.52 714.302 1024.67 712.447 1027.24 711.145C1029.81 709.842 1032.78 709.191 1036.13 709.191C1039.12 709.191 1041.74 709.891 1043.99 711.291C1046.24 712.658 1048.16 714.579 1049.75 717.053C1051.35 719.527 1052.65 722.424 1053.66 725.744C1054.67 729.032 1055.43 732.58 1055.95 736.389V737.609C1055.43 741.19 1054.67 744.576 1053.66 747.766C1052.65 750.923 1051.35 753.723 1049.75 756.164C1048.16 758.605 1046.22 760.526 1043.94 761.926C1041.7 763.293 1039.06 763.977 1036.03 763.977C1032.68 763.977 1029.72 763.309 1027.14 761.975C1024.61 760.64 1022.47 758.768 1020.75 756.359C1019.06 753.951 1017.77 751.118 1016.89 747.863C1016.01 744.608 1015.57 741.06 1015.57 737.219ZM1032.03 736.193V737.219C1032.03 739.204 1032.16 741.044 1032.42 742.736C1032.68 744.429 1033.12 745.926 1033.74 747.229C1034.39 748.498 1035.23 749.491 1036.28 750.207C1037.35 750.923 1038.67 751.281 1040.23 751.281C1042.35 751.281 1044.09 750.777 1045.46 749.768C1046.85 748.758 1047.88 747.326 1048.53 745.471C1049.21 743.615 1049.51 741.434 1049.41 738.928V735.07C1049.48 732.922 1049.33 731.034 1048.97 729.406C1048.61 727.746 1048.04 726.363 1047.26 725.256C1046.51 724.149 1045.55 723.319 1044.38 722.766C1043.24 722.18 1041.89 721.887 1040.33 721.887C1038.8 721.887 1037.5 722.245 1036.42 722.961C1035.38 723.677 1034.53 724.686 1033.88 725.988C1033.23 727.258 1032.76 728.771 1032.47 730.529C1032.17 732.255 1032.03 734.143 1032.03 736.193ZM1122.65 763H1106.88L1106.98 749.816H1122.65C1125.91 749.816 1128.66 749.035 1130.9 747.473C1133.18 745.91 1134.91 743.583 1136.08 740.49C1137.28 737.365 1137.89 733.524 1137.89 728.967V725.891C1137.89 722.473 1137.54 719.478 1136.86 716.906C1136.21 714.302 1135.23 712.137 1133.93 710.412C1132.63 708.654 1131 707.336 1129.05 706.457C1127.13 705.578 1124.91 705.139 1122.41 705.139H1106.59V691.906H1122.41C1127.23 691.906 1131.64 692.736 1135.64 694.396C1139.68 696.024 1143.16 698.368 1146.09 701.428C1149.05 704.455 1151.33 708.052 1152.93 712.219C1154.55 716.353 1155.37 720.943 1155.37 725.988V728.967C1155.37 733.98 1154.55 738.57 1152.93 742.736C1151.33 746.903 1149.07 750.5 1146.14 753.527C1143.21 756.555 1139.74 758.898 1135.74 760.559C1131.77 762.186 1127.4 763 1122.65 763ZM1116.7 691.906V763H1099.56V691.906H1116.7ZM1190.96 749.719V727.941C1190.96 726.444 1190.75 725.158 1190.33 724.084C1189.9 723.01 1189.24 722.18 1188.33 721.594C1187.41 720.975 1186.19 720.666 1184.66 720.666C1183.43 720.666 1182.37 720.878 1181.49 721.301C1180.61 721.724 1179.94 722.359 1179.49 723.205C1179.03 724.051 1178.8 725.126 1178.8 726.428H1162.35C1162.35 723.986 1162.89 721.724 1163.96 719.641C1165.07 717.525 1166.63 715.686 1168.65 714.123C1170.7 712.561 1173.14 711.356 1175.97 710.51C1178.84 709.631 1182.03 709.191 1185.54 709.191C1189.74 709.191 1193.49 709.891 1196.77 711.291C1200.09 712.691 1202.71 714.79 1204.63 717.59C1206.56 720.357 1207.52 723.84 1207.52 728.039V749.67C1207.52 753.12 1207.71 755.741 1208.1 757.531C1208.49 759.289 1209.05 760.835 1209.76 762.17V763H1193.26C1192.48 761.372 1191.89 759.387 1191.5 757.043C1191.14 754.667 1190.96 752.225 1190.96 749.719ZM1192.96 730.725L1193.06 739.514H1185.79C1184.26 739.514 1182.96 739.725 1181.88 740.148C1180.84 740.572 1179.99 741.158 1179.34 741.906C1178.72 742.622 1178.27 743.436 1177.97 744.348C1177.71 745.259 1177.58 746.219 1177.58 747.229C1177.58 748.205 1177.81 749.084 1178.27 749.865C1178.76 750.614 1179.41 751.2 1180.22 751.623C1181.03 752.046 1181.95 752.258 1182.96 752.258C1184.78 752.258 1186.32 751.916 1187.59 751.232C1188.9 750.516 1189.89 749.654 1190.57 748.645C1191.26 747.635 1191.6 746.691 1191.6 745.812L1195.21 752.551C1194.56 753.853 1193.81 755.171 1192.96 756.506C1192.15 757.84 1191.13 759.077 1189.89 760.217C1188.68 761.324 1187.2 762.235 1185.45 762.951C1183.69 763.635 1181.56 763.977 1179.05 763.977C1175.79 763.977 1172.8 763.309 1170.06 761.975C1167.36 760.64 1165.2 758.785 1163.57 756.408C1161.94 753.999 1161.13 751.232 1161.13 748.107C1161.13 745.373 1161.62 742.932 1162.59 740.783C1163.6 738.635 1165.12 736.812 1167.13 735.314C1169.15 733.817 1171.72 732.678 1174.85 731.896C1177.97 731.115 1181.65 730.725 1185.88 730.725H1192.96ZM1244.48 710.168V721.594H1212.64V710.168H1244.48ZM1219.33 697.033H1235.79V745.764C1235.79 747.163 1235.95 748.254 1236.28 749.035C1236.6 749.784 1237.15 750.321 1237.94 750.646C1238.75 750.939 1239.82 751.086 1241.16 751.086C1242.1 751.086 1242.88 751.07 1243.5 751.037C1244.12 750.972 1244.71 750.891 1245.26 750.793V762.561C1243.86 763.016 1242.4 763.358 1240.87 763.586C1239.34 763.846 1237.71 763.977 1235.98 763.977C1232.47 763.977 1229.46 763.423 1226.95 762.316C1224.48 761.21 1222.59 759.468 1221.29 757.092C1219.98 754.715 1219.33 751.623 1219.33 747.814V697.033ZM1278.46 749.719V727.941C1278.46 726.444 1278.25 725.158 1277.83 724.084C1277.4 723.01 1276.74 722.18 1275.83 721.594C1274.91 720.975 1273.69 720.666 1272.16 720.666C1270.93 720.666 1269.87 720.878 1268.99 721.301C1268.11 721.724 1267.44 722.359 1266.99 723.205C1266.53 724.051 1266.3 725.126 1266.3 726.428H1249.85C1249.85 723.986 1250.39 721.724 1251.46 719.641C1252.57 717.525 1254.13 715.686 1256.15 714.123C1258.2 712.561 1260.64 711.356 1263.47 710.51C1266.34 709.631 1269.53 709.191 1273.04 709.191C1277.24 709.191 1280.99 709.891 1284.27 711.291C1287.59 712.691 1290.21 714.79 1292.13 717.59C1294.06 720.357 1295.02 723.84 1295.02 728.039V749.67C1295.02 753.12 1295.21 755.741 1295.6 757.531C1295.99 759.289 1296.55 760.835 1297.26 762.17V763H1280.76C1279.98 761.372 1279.39 759.387 1279 757.043C1278.64 754.667 1278.46 752.225 1278.46 749.719ZM1280.46 730.725L1280.56 739.514H1273.29C1271.76 739.514 1270.46 739.725 1269.38 740.148C1268.34 740.572 1267.49 741.158 1266.84 741.906C1266.22 742.622 1265.77 743.436 1265.47 744.348C1265.21 745.259 1265.08 746.219 1265.08 747.229C1265.08 748.205 1265.31 749.084 1265.77 749.865C1266.26 750.614 1266.91 751.2 1267.72 751.623C1268.53 752.046 1269.45 752.258 1270.46 752.258C1272.28 752.258 1273.82 751.916 1275.09 751.232C1276.4 750.516 1277.39 749.654 1278.07 748.645C1278.76 747.635 1279.1 746.691 1279.1 745.812L1282.71 752.551C1282.06 753.853 1281.31 755.171 1280.46 756.506C1279.65 757.84 1278.63 759.077 1277.39 760.217C1276.18 761.324 1274.7 762.235 1272.95 762.951C1271.19 763.635 1269.06 763.977 1266.55 763.977C1263.29 763.977 1260.3 763.309 1257.56 761.975C1254.86 760.64 1252.7 758.785 1251.07 756.408C1249.44 753.999 1248.63 751.232 1248.63 748.107C1248.63 745.373 1249.12 742.932 1250.09 740.783C1251.1 738.635 1252.62 736.812 1254.63 735.314C1256.65 733.817 1259.22 732.678 1262.35 731.896C1265.47 731.115 1269.15 730.725 1273.38 730.725H1280.46ZM1358.2 738.879H1340.52V725.646H1358.2C1360.61 725.646 1362.56 725.24 1364.06 724.426C1365.56 723.612 1366.65 722.489 1367.33 721.057C1368.05 719.592 1368.4 717.948 1368.4 716.125C1368.4 714.172 1368.05 712.365 1367.33 710.705C1366.65 709.045 1365.56 707.71 1364.06 706.701C1362.56 705.66 1360.61 705.139 1358.2 705.139H1346.97V763H1329.83V691.906H1358.2C1363.9 691.906 1368.79 692.948 1372.9 695.031C1377.03 697.115 1380.2 699.979 1382.42 703.625C1384.63 707.238 1385.74 711.372 1385.74 716.027C1385.74 720.617 1384.63 724.621 1382.42 728.039C1380.2 731.457 1377.03 734.126 1372.9 736.047C1368.79 737.935 1363.9 738.879 1358.2 738.879ZM1411.57 710.168V763H1395.06V710.168H1411.57ZM1394.09 696.545C1394.09 694.201 1394.93 692.281 1396.63 690.783C1398.32 689.286 1400.52 688.537 1403.22 688.537C1405.92 688.537 1408.12 689.286 1409.81 690.783C1411.5 692.281 1412.35 694.201 1412.35 696.545C1412.35 698.889 1411.5 700.809 1409.81 702.307C1408.12 703.804 1405.92 704.553 1403.22 704.553C1400.52 704.553 1398.32 703.804 1396.63 702.307C1394.93 700.809 1394.09 698.889 1394.09 696.545ZM1438.33 720.324V783.312H1421.87V710.168H1437.2L1438.33 720.324ZM1470.75 735.949V736.975C1470.75 740.816 1470.31 744.38 1469.43 747.668C1468.55 750.956 1467.25 753.82 1465.52 756.262C1463.8 758.703 1461.65 760.607 1459.08 761.975C1456.54 763.309 1453.59 763.977 1450.24 763.977C1447.08 763.977 1444.36 763.277 1442.09 761.877C1439.81 760.477 1437.9 758.54 1436.37 756.066C1434.84 753.592 1433.61 750.76 1432.66 747.57C1431.72 744.38 1430.97 741.011 1430.42 737.463V736.145C1430.97 732.336 1431.72 728.804 1432.66 725.549C1433.61 722.261 1434.84 719.396 1436.37 716.955C1437.9 714.514 1439.79 712.609 1442.04 711.242C1444.32 709.875 1447.03 709.191 1450.19 709.191C1453.54 709.191 1456.49 709.826 1459.03 711.096C1461.6 712.365 1463.75 714.188 1465.47 716.564C1467.23 718.908 1468.55 721.724 1469.43 725.012C1470.31 728.299 1470.75 731.945 1470.75 735.949ZM1454.29 736.975V735.949C1454.29 733.898 1454.15 732.027 1453.85 730.334C1453.56 728.609 1453.09 727.111 1452.44 725.842C1451.82 724.572 1450.99 723.596 1449.95 722.912C1448.91 722.229 1447.62 721.887 1446.09 721.887C1444.33 721.887 1442.85 722.163 1441.65 722.717C1440.47 723.238 1439.53 724.051 1438.81 725.158C1438.13 726.232 1437.64 727.583 1437.35 729.211C1437.09 730.806 1436.98 732.678 1437.01 734.826V738.83C1436.94 741.304 1437.19 743.485 1437.74 745.373C1438.29 747.229 1439.25 748.677 1440.62 749.719C1441.99 750.76 1443.84 751.281 1446.19 751.281C1447.75 751.281 1449.05 750.923 1450.09 750.207C1451.14 749.458 1451.97 748.433 1452.58 747.131C1453.2 745.796 1453.64 744.266 1453.9 742.541C1454.16 740.816 1454.29 738.96 1454.29 736.975ZM1503.66 763.977C1499.36 763.977 1495.52 763.309 1492.13 761.975C1488.75 760.607 1485.88 758.736 1483.54 756.359C1481.23 753.983 1479.46 751.249 1478.22 748.156C1477.01 745.064 1476.41 741.792 1476.41 738.342V736.486C1476.41 732.613 1476.95 729.032 1478.02 725.744C1479.1 722.424 1480.69 719.527 1482.81 717.053C1484.92 714.579 1487.58 712.658 1490.77 711.291C1493.96 709.891 1497.67 709.191 1501.9 709.191C1505.64 709.191 1509 709.794 1511.96 710.998C1514.92 712.202 1517.43 713.928 1519.48 716.174C1521.56 718.42 1523.14 721.138 1524.21 724.328C1525.32 727.518 1525.88 731.099 1525.88 735.07V741.76H1482.71V731.457H1509.81V730.188C1509.84 728.43 1509.53 726.932 1508.88 725.695C1508.26 724.458 1507.35 723.514 1506.15 722.863C1504.94 722.212 1503.48 721.887 1501.75 721.887C1499.96 721.887 1498.48 722.277 1497.31 723.059C1496.17 723.84 1495.28 724.914 1494.62 726.281C1494.01 727.616 1493.57 729.162 1493.31 730.92C1493.05 732.678 1492.92 734.533 1492.92 736.486V738.342C1492.92 740.295 1493.18 742.069 1493.7 743.664C1494.25 745.259 1495.03 746.626 1496.04 747.766C1497.08 748.872 1498.32 749.735 1499.75 750.354C1501.22 750.972 1502.88 751.281 1504.73 751.281C1506.98 751.281 1509.19 750.858 1511.37 750.012C1513.55 749.165 1515.43 747.766 1516.99 745.812L1524.46 754.699C1523.38 756.229 1521.85 757.71 1519.87 759.143C1517.92 760.575 1515.57 761.747 1512.84 762.658C1510.1 763.537 1507.04 763.977 1503.66 763.977ZM1549.95 688V763H1533.44V688H1549.95ZM1577.49 710.168V763H1560.98V710.168H1577.49ZM1560.01 696.545C1560.01 694.201 1560.85 692.281 1562.54 690.783C1564.24 689.286 1566.43 688.537 1569.14 688.537C1571.84 688.537 1574.04 689.286 1575.73 690.783C1577.42 692.281 1578.27 694.201 1578.27 696.545C1578.27 698.889 1577.42 700.809 1575.73 702.307C1574.04 703.804 1571.84 704.553 1569.14 704.553C1566.43 704.553 1564.24 703.804 1562.54 702.307C1560.85 700.809 1560.01 698.889 1560.01 696.545ZM1603.8 721.447V763H1587.35V710.168H1602.78L1603.8 721.447ZM1601.85 734.777L1597.99 734.875C1597.99 730.839 1598.48 727.242 1599.46 724.084C1600.44 720.894 1601.82 718.192 1603.61 715.979C1605.4 713.765 1607.53 712.089 1610.01 710.949C1612.51 709.777 1615.3 709.191 1618.36 709.191C1620.8 709.191 1623.03 709.549 1625.04 710.266C1627.1 710.982 1628.85 712.137 1630.32 713.732C1631.82 715.327 1632.96 717.443 1633.74 720.08C1634.55 722.684 1634.96 725.907 1634.96 729.748V763H1618.4V729.699C1618.4 727.583 1618.11 725.972 1617.53 724.865C1616.94 723.726 1616.09 722.945 1614.99 722.521C1613.88 722.098 1612.53 721.887 1610.93 721.887C1609.24 721.887 1607.81 722.212 1606.64 722.863C1605.46 723.514 1604.52 724.426 1603.8 725.598C1603.12 726.737 1602.62 728.088 1602.29 729.65C1602 731.213 1601.85 732.922 1601.85 734.777ZM1669.67 763.977C1665.38 763.977 1661.54 763.309 1658.15 761.975C1654.76 760.607 1651.9 758.736 1649.56 756.359C1647.25 753.983 1645.47 751.249 1644.23 748.156C1643.03 745.064 1642.43 741.792 1642.43 738.342V736.486C1642.43 732.613 1642.96 729.032 1644.04 725.744C1645.11 722.424 1646.71 719.527 1648.82 717.053C1650.94 714.579 1653.59 712.658 1656.78 711.291C1659.97 709.891 1663.68 709.191 1667.92 709.191C1671.66 709.191 1675.01 709.794 1677.97 710.998C1680.94 712.202 1683.44 713.928 1685.49 716.174C1687.58 718.42 1689.16 721.138 1690.23 724.328C1691.34 727.518 1691.89 731.099 1691.89 735.07V741.76H1648.73V731.457H1675.83V730.188C1675.86 728.43 1675.55 726.932 1674.9 725.695C1674.28 724.458 1673.37 723.514 1672.16 722.863C1670.96 722.212 1669.49 721.887 1667.77 721.887C1665.98 721.887 1664.5 722.277 1663.33 723.059C1662.19 723.84 1661.29 724.914 1660.64 726.281C1660.02 727.616 1659.58 729.162 1659.32 730.92C1659.06 732.678 1658.93 734.533 1658.93 736.486V738.342C1658.93 740.295 1659.19 742.069 1659.71 743.664C1660.27 745.259 1661.05 746.626 1662.06 747.766C1663.1 748.872 1664.34 749.735 1665.77 750.354C1667.23 750.972 1668.89 751.281 1670.75 751.281C1672.99 751.281 1675.21 750.858 1677.39 750.012C1679.57 749.165 1681.44 747.766 1683 745.812L1690.47 754.699C1689.4 756.229 1687.87 757.71 1685.88 759.143C1683.93 760.575 1681.59 761.747 1678.85 762.658C1676.12 763.537 1673.06 763.977 1669.67 763.977Z" fill="#888888"/>
<path d="M1874.49 691.906L1887.58 722.766L1900.71 691.906H1919.17L1896.32 737.463V763H1878.89V737.463L1855.99 691.906H1874.49ZM1918.34 737.121V736.096C1918.34 732.222 1918.9 728.658 1920 725.402C1921.11 722.115 1922.74 719.266 1924.88 716.857C1927.03 714.449 1929.69 712.577 1932.84 711.242C1936 709.875 1939.65 709.191 1943.78 709.191C1947.95 709.191 1951.61 709.875 1954.77 711.242C1957.96 712.577 1960.63 714.449 1962.78 716.857C1964.92 719.266 1966.55 722.115 1967.66 725.402C1968.76 728.658 1969.32 732.222 1969.32 736.096V737.121C1969.32 740.962 1968.76 744.527 1967.66 747.814C1966.55 751.07 1964.92 753.918 1962.78 756.359C1960.63 758.768 1957.97 760.64 1954.82 761.975C1951.66 763.309 1948.01 763.977 1943.88 763.977C1939.74 763.977 1936.08 763.309 1932.89 761.975C1929.7 760.64 1927.03 758.768 1924.88 756.359C1922.74 753.918 1921.11 751.07 1920 747.814C1918.9 744.527 1918.34 740.962 1918.34 737.121ZM1934.8 736.096V737.121C1934.8 739.107 1934.94 740.962 1935.24 742.688C1935.53 744.413 1936.02 745.926 1936.7 747.229C1937.38 748.498 1938.31 749.491 1939.48 750.207C1940.66 750.923 1942.12 751.281 1943.88 751.281C1945.6 751.281 1947.04 750.923 1948.18 750.207C1949.35 749.491 1950.28 748.498 1950.96 747.229C1951.64 745.926 1952.13 744.413 1952.42 742.688C1952.72 740.962 1952.86 739.107 1952.86 737.121V736.096C1952.86 734.175 1952.72 732.368 1952.42 730.676C1952.13 728.951 1951.64 727.437 1950.96 726.135C1950.28 724.8 1949.35 723.758 1948.18 723.01C1947 722.261 1945.54 721.887 1943.78 721.887C1942.06 721.887 1940.61 722.261 1939.44 723.01C1938.3 723.758 1937.38 724.8 1936.7 726.135C1936.02 727.437 1935.53 728.951 1935.24 730.676C1934.94 732.368 1934.8 734.175 1934.8 736.096ZM2007.5 750.158V710.168H2024.01V763H2008.58L2007.5 750.158ZM2009.06 739.416L2013.36 739.318C2013.36 742.867 2012.94 746.154 2012.09 749.182C2011.25 752.176 2009.99 754.781 2008.33 756.994C2006.7 759.208 2004.69 760.933 2002.28 762.17C1999.9 763.374 1997.15 763.977 1994.03 763.977C1991.42 763.977 1989.03 763.618 1986.85 762.902C1984.7 762.154 1982.84 760.998 1981.28 759.436C1979.72 757.84 1978.5 755.806 1977.62 753.332C1976.77 750.826 1976.35 747.831 1976.35 744.348V710.168H1992.8V744.445C1992.8 745.617 1992.95 746.626 1993.24 747.473C1993.54 748.319 1993.96 749.035 1994.51 749.621C1995.07 750.174 1995.75 750.598 1996.56 750.891C1997.41 751.151 1998.37 751.281 1999.45 751.281C2001.92 751.281 2003.86 750.76 2005.26 749.719C2006.66 748.677 2007.63 747.261 2008.19 745.471C2008.77 743.68 2009.06 741.662 2009.06 739.416ZM2049.69 723.254V763H2033.23V710.168H2048.62L2049.69 723.254ZM2065.31 709.777L2065.02 725.061C2064.37 724.995 2063.49 724.914 2062.38 724.816C2061.28 724.719 2060.35 724.67 2059.6 724.67C2057.68 724.67 2056.02 724.898 2054.62 725.354C2053.25 725.777 2052.11 726.428 2051.2 727.307C2050.32 728.153 2049.67 729.227 2049.25 730.529C2048.86 731.831 2048.68 733.345 2048.71 735.07L2045.73 733.117C2045.73 729.569 2046.08 726.346 2046.76 723.449C2047.48 720.52 2048.49 717.997 2049.79 715.881C2051.09 713.732 2052.67 712.089 2054.52 710.949C2056.38 709.777 2058.46 709.191 2060.77 709.191C2061.59 709.191 2062.38 709.24 2063.17 709.338C2063.98 709.436 2064.7 709.582 2065.31 709.777ZM2126.79 706.848L2109.46 763H2091.05L2117.17 691.906H2128.84L2126.79 706.848ZM2141.14 763L2123.76 706.848L2121.52 691.906H2133.33L2159.6 763H2141.14ZM2140.46 736.486V749.719H2103.99V736.486H2140.46ZM2193.2 738.879H2175.52V725.646H2193.2C2195.6 725.646 2197.56 725.24 2199.05 724.426C2200.55 723.612 2201.64 722.489 2202.33 721.057C2203.04 719.592 2203.4 717.948 2203.4 716.125C2203.4 714.172 2203.04 712.365 2202.33 710.705C2201.64 709.045 2200.55 707.71 2199.05 706.701C2197.56 705.66 2195.6 705.139 2193.2 705.139H2181.96V763H2164.83V691.906H2193.2C2198.89 691.906 2203.79 692.948 2207.89 695.031C2212.03 697.115 2215.2 699.979 2217.41 703.625C2219.63 707.238 2220.73 711.372 2220.73 716.027C2220.73 720.617 2219.63 724.621 2217.41 728.039C2215.2 731.457 2212.03 734.126 2207.89 736.047C2203.79 737.935 2198.89 738.879 2193.2 738.879ZM2248.18 691.906V763H2231.09V691.906H2248.18Z" fill="#888888"/>
<rect x="703" y="71" width="267" height="506" fill="#2FA4DA"/>
<path d="M1030 333L990 309.906V356.094L1030 333ZM884 337H994V329H884V337Z" fill="#2FA4DA"/>
<path d="M1358 333L1318 309.906V356.094L1358 333ZM1204 337H1322V329H1204V337Z" fill="#2FA4DA"/>
<rect x="1032" y="71" width="267" height="506" fill="#2FA4DA"/>
<rect x="1361" y="71" width="267" height="506" fill="#2FA4DA"/>
<path d="M845.257 431.358C844.114 431.358 843.089 431.534 842.181 431.886C841.243 432.208 840.394 432.823 839.632 433.731C838.841 434.64 838.064 435.914 837.303 437.555C836.541 439.195 835.75 441.319 834.93 443.927C833.992 446.827 832.937 449.581 831.766 452.188C830.594 454.767 829.231 457.052 827.679 459.044C826.097 461.007 824.266 462.56 822.186 463.702C820.105 464.815 817.688 465.372 814.935 465.372C812.269 465.372 809.852 464.786 807.684 463.614C805.486 462.442 803.611 460.802 802.059 458.692C800.477 456.583 799.261 454.093 798.411 451.222C797.562 448.321 797.137 445.143 797.137 441.686C797.137 436.969 797.986 432.853 799.686 429.337C801.385 425.821 803.714 423.097 806.673 421.163C809.632 419.2 813.016 418.219 816.824 418.219L816.824 431.314C814.949 431.314 813.309 431.71 811.902 432.501C810.467 433.263 809.339 434.435 808.519 436.017C807.698 437.569 807.288 439.532 807.288 441.905C807.288 444.19 807.64 446.095 808.343 447.618C809.017 449.142 809.939 450.284 811.111 451.046C812.254 451.808 813.543 452.188 814.979 452.188C816.062 452.188 817.044 451.925 817.923 451.397C818.802 450.841 819.622 450.021 820.384 448.937C821.146 447.853 821.863 446.52 822.537 444.937C823.211 443.355 823.87 441.524 824.515 439.444C825.569 435.958 826.756 432.896 828.074 430.26C829.393 427.594 830.872 425.367 832.513 423.58C834.153 421.793 836.014 420.445 838.094 419.537C840.174 418.629 842.532 418.175 845.169 418.175C847.952 418.175 850.442 418.717 852.64 419.801C854.837 420.885 856.697 422.452 858.221 424.503C859.744 426.554 860.901 429 861.692 431.842C862.483 434.684 862.879 437.862 862.879 441.378C862.879 444.542 862.469 447.662 861.648 450.738C860.799 453.814 859.524 456.612 857.825 459.132C856.126 461.622 853.958 463.614 851.321 465.108C848.685 466.603 845.564 467.35 841.961 467.35L841.961 454.122C843.953 454.122 845.638 453.814 847.015 453.199C848.392 452.584 849.505 451.72 850.354 450.606C851.204 449.464 851.819 448.116 852.2 446.563C852.581 444.981 852.771 443.253 852.771 441.378C852.771 439.093 852.449 437.218 851.805 435.753C851.16 434.259 850.267 433.16 849.124 432.457C847.981 431.725 846.692 431.358 845.257 431.358ZM814.451 386.71L823.416 386.71L823.416 414.396L814.451 414.396L814.451 386.71ZM802.718 407.54L802.718 394.884L847.674 394.884C849.051 394.884 850.105 394.708 850.838 394.356C851.57 393.976 852.083 393.419 852.376 392.687C852.64 391.954 852.771 391.031 852.771 389.918C852.771 389.127 852.742 388.424 852.684 387.809C852.596 387.164 852.508 386.622 852.42 386.183L861.736 386.139C862.088 387.223 862.366 388.395 862.571 389.654C862.776 390.914 862.879 392.306 862.879 393.829C862.879 396.612 862.425 399.044 861.517 401.124C860.579 403.175 859.085 404.757 857.034 405.87C854.983 406.983 852.288 407.54 848.948 407.54L802.718 407.54ZM824.822 366.847L862 366.847L862 379.503L814.451 379.503L814.451 367.594L824.822 366.847ZM814.144 352.521L825.877 352.74C825.789 353.355 825.716 354.103 825.657 354.981C825.569 355.831 825.525 356.607 825.525 357.311C825.525 359.098 825.76 360.65 826.229 361.969C826.668 363.258 827.327 364.342 828.206 365.221C829.085 366.07 830.154 366.715 831.414 367.154C832.674 367.564 834.109 367.799 835.721 367.857L834.93 370.406C831.854 370.406 829.026 370.099 826.448 369.483C823.841 368.868 821.57 367.975 819.637 366.803C817.703 365.602 816.209 364.137 815.154 362.408C814.1 360.68 813.572 358.702 813.572 356.476C813.572 355.772 813.631 355.055 813.748 354.322C813.836 353.59 813.968 352.989 814.144 352.521ZM862.879 325.538C862.879 329.229 862.293 332.54 861.121 335.47C859.92 338.399 858.265 340.89 856.155 342.94C854.046 344.962 851.6 346.515 848.816 347.599C846.004 348.683 843.016 349.225 839.852 349.225L838.094 349.225C834.49 349.225 831.194 348.712 828.206 347.687C825.218 346.661 822.625 345.196 820.428 343.292C818.23 341.358 816.546 339.015 815.374 336.261C814.173 333.507 813.572 330.401 813.572 326.944C813.572 323.575 814.129 320.587 815.242 317.979C816.355 315.372 817.937 313.189 819.988 311.432C822.039 309.645 824.5 308.297 827.371 307.389C830.213 306.48 833.377 306.026 836.863 306.026L842.137 306.026L842.137 343.819L833.699 343.819L833.699 318.463L832.732 318.463C830.975 318.463 829.407 318.785 828.03 319.43C826.624 320.045 825.511 320.982 824.69 322.242C823.87 323.502 823.46 325.113 823.46 327.076C823.46 328.746 823.826 330.182 824.559 331.383C825.291 332.584 826.316 333.565 827.635 334.327C828.953 335.06 830.506 335.616 832.293 335.997C834.051 336.349 835.984 336.524 838.094 336.524L839.852 336.524C841.756 336.524 843.514 336.261 845.125 335.733C846.736 335.177 848.128 334.4 849.3 333.404C850.472 332.379 851.38 331.148 852.024 329.713C852.669 328.248 852.991 326.593 852.991 324.747C852.991 322.462 852.552 320.338 851.673 318.375C850.765 316.383 849.402 314.669 847.586 313.233L854.266 307.081C855.701 308.077 857.078 309.439 858.396 311.168C859.715 312.867 860.799 314.918 861.648 317.32C862.469 319.723 862.879 322.462 862.879 325.538ZM851.277 273.155L830.096 273.155C828.572 273.155 827.269 273.404 826.185 273.902C825.071 274.4 824.207 275.177 823.592 276.231C822.977 277.257 822.669 278.59 822.669 280.23C822.669 281.637 822.918 282.853 823.416 283.878C823.885 284.903 824.573 285.694 825.481 286.251C826.36 286.808 827.4 287.086 828.602 287.086L828.602 299.742C826.58 299.742 824.661 299.273 822.845 298.336C821.028 297.398 819.432 296.036 818.055 294.249C816.648 292.462 815.55 290.338 814.759 287.877C813.968 285.387 813.572 282.604 813.572 279.527C813.572 275.836 814.187 272.555 815.418 269.684C816.648 266.812 818.494 264.557 820.955 262.916C823.416 261.246 826.492 260.411 830.184 260.411L850.53 260.411C853.138 260.411 855.276 260.25 856.946 259.928C858.587 259.605 860.022 259.137 861.253 258.521L862 258.521L862 271.31C860.711 271.925 859.1 272.394 857.166 272.716C855.203 273.009 853.24 273.155 851.277 273.155ZM833.04 271.485L840.203 271.397L840.203 278.473C840.203 280.143 840.394 281.593 840.774 282.823C841.155 284.054 841.697 285.064 842.4 285.855C843.074 286.646 843.865 287.232 844.773 287.613C845.682 287.965 846.678 288.141 847.762 288.141C848.846 288.141 849.827 287.892 850.706 287.394C851.556 286.896 852.229 286.178 852.728 285.24C853.196 284.303 853.431 283.204 853.431 281.944C853.431 280.04 853.05 278.385 852.288 276.979C851.526 275.572 850.589 274.488 849.476 273.727C848.362 272.936 847.308 272.525 846.312 272.496L851.673 269.156C852.874 269.625 854.119 270.27 855.408 271.09C856.697 271.881 857.913 272.892 859.056 274.122C860.169 275.353 861.092 276.832 861.824 278.561C862.527 280.289 862.879 282.34 862.879 284.713C862.879 287.73 862.278 290.47 861.077 292.931C859.847 295.362 858.162 297.296 856.023 298.731C853.855 300.138 851.395 300.841 848.641 300.841C846.15 300.841 843.938 300.372 842.005 299.435C840.071 298.497 838.445 297.12 837.127 295.304C835.779 293.458 834.769 291.158 834.095 288.404C833.392 285.65 833.04 282.457 833.04 278.824L833.04 271.485ZM824.295 237.999L862 237.999L862 250.699L814.451 250.699L814.451 238.79L824.295 237.999ZM836.556 239.757L836.556 243.272C833.245 243.272 830.198 242.877 827.415 242.086C824.603 241.266 822.171 240.079 820.12 238.526C818.04 236.944 816.429 234.996 815.286 232.682C814.144 230.367 813.572 227.687 813.572 224.64C813.572 222.53 813.895 220.597 814.539 218.839C815.154 217.081 816.136 215.572 817.483 214.312C818.802 213.023 820.53 212.027 822.669 211.324C824.778 210.621 827.312 210.27 830.271 210.27L862 210.27L862 222.926L831.678 222.926C829.51 222.926 827.84 223.219 826.668 223.805C825.496 224.391 824.676 225.226 824.207 226.31C823.738 227.364 823.504 228.639 823.504 230.133C823.504 231.773 823.841 233.209 824.515 234.439C825.188 235.641 826.126 236.637 827.327 237.428C828.499 238.219 829.876 238.805 831.458 239.186C833.04 239.566 834.739 239.757 836.556 239.757ZM835.105 211.456L835.677 215.982C832.571 215.982 829.686 215.602 827.02 214.84C824.353 214.049 822.01 212.892 819.988 211.368C817.967 209.815 816.399 207.896 815.286 205.611C814.144 203.326 813.572 200.689 813.572 197.701C813.572 195.416 813.909 193.336 814.583 191.461C815.228 189.586 816.268 187.989 817.703 186.671C819.109 185.323 820.955 184.298 823.24 183.595C825.525 182.862 828.323 182.496 831.634 182.496L862 182.496L862 195.196L831.634 195.196C829.437 195.196 827.767 195.489 826.624 196.075C825.452 196.632 824.646 197.452 824.207 198.536C823.738 199.591 823.504 200.851 823.504 202.315C823.504 203.839 823.812 205.172 824.427 206.314C825.013 207.457 825.833 208.409 826.888 209.171C827.942 209.933 829.173 210.504 830.579 210.885C831.956 211.266 833.465 211.456 835.105 211.456Z" fill="white"/>
<path d="M1185 488.136L1185 502.066L1174.72 501.979L1174.72 488.136C1174.72 484.679 1173.94 481.764 1172.39 479.391C1170.81 477.018 1168.51 475.23 1165.49 474.029C1162.47 472.799 1158.82 472.184 1154.55 472.184L1151.43 472.184C1148.14 472.184 1145.26 472.535 1142.77 473.238C1140.28 473.912 1138.18 474.923 1136.48 476.271C1134.79 477.618 1133.51 479.273 1132.66 481.236C1131.78 483.199 1131.34 485.455 1131.34 488.004L1131.34 502.33L1121.02 502.33L1121.02 488.004C1121.02 483.727 1121.75 479.815 1123.21 476.271C1124.65 472.696 1126.71 469.605 1129.41 466.998C1132.1 464.391 1135.33 462.384 1139.08 460.978C1142.8 459.542 1146.94 458.824 1151.51 458.824L1154.55 458.824C1159.09 458.824 1163.23 459.542 1166.98 460.978C1170.73 462.384 1173.96 464.391 1176.65 466.998C1179.32 469.576 1181.38 472.667 1182.85 476.271C1184.28 479.845 1185 483.8 1185 488.136ZM1121.02 494.596L1185 494.596L1185 507.779L1121.02 507.779L1121.02 494.596ZM1174.28 424.371L1153.1 424.371C1151.57 424.371 1150.27 424.62 1149.18 425.118C1148.07 425.616 1147.21 426.393 1146.59 427.447C1145.98 428.473 1145.67 429.806 1145.67 431.446C1145.67 432.853 1145.92 434.068 1146.42 435.094C1146.88 436.119 1147.57 436.91 1148.48 437.467C1149.36 438.023 1150.4 438.302 1151.6 438.302L1151.6 450.958C1149.58 450.958 1147.66 450.489 1145.84 449.552C1144.03 448.614 1142.43 447.252 1141.05 445.465C1139.65 443.678 1138.55 441.554 1137.76 439.093C1136.97 436.603 1136.57 433.819 1136.57 430.743C1136.57 427.052 1137.19 423.771 1138.42 420.899C1139.65 418.028 1141.49 415.772 1143.96 414.132C1146.42 412.462 1149.49 411.627 1153.18 411.627L1173.53 411.627C1176.14 411.627 1178.28 411.466 1179.95 411.144C1181.59 410.821 1183.02 410.353 1184.25 409.737L1185 409.737L1185 422.525C1183.71 423.141 1182.1 423.609 1180.17 423.932C1178.2 424.225 1176.24 424.371 1174.28 424.371ZM1156.04 422.701L1163.2 422.613L1163.2 429.688C1163.2 431.358 1163.39 432.809 1163.77 434.039C1164.16 435.27 1164.7 436.28 1165.4 437.071C1166.07 437.862 1166.87 438.448 1167.77 438.829C1168.68 439.181 1169.68 439.356 1170.76 439.356C1171.85 439.356 1172.83 439.107 1173.71 438.609C1174.56 438.111 1175.23 437.394 1175.73 436.456C1176.2 435.519 1176.43 434.42 1176.43 433.16C1176.43 431.256 1176.05 429.601 1175.29 428.194C1174.53 426.788 1173.59 425.704 1172.48 424.942C1171.36 424.151 1170.31 423.741 1169.31 423.712L1174.67 420.372C1175.87 420.841 1177.12 421.485 1178.41 422.306C1179.7 423.097 1180.91 424.107 1182.06 425.338C1183.17 426.568 1184.09 428.048 1184.82 429.776C1185.53 431.505 1185.88 433.556 1185.88 435.929C1185.88 438.946 1185.28 441.686 1184.08 444.146C1182.85 446.578 1181.16 448.512 1179.02 449.947C1176.86 451.354 1174.39 452.057 1171.64 452.057C1169.15 452.057 1166.94 451.588 1165 450.65C1163.07 449.713 1161.45 448.336 1160.13 446.52C1158.78 444.674 1157.77 442.374 1157.09 439.62C1156.39 436.866 1156.04 433.673 1156.04 430.04L1156.04 422.701ZM1137.45 378.58L1146.42 378.58L1146.42 406.266L1137.45 406.266L1137.45 378.58ZM1125.72 399.41L1125.72 386.754L1170.67 386.754C1172.05 386.754 1173.11 386.578 1173.84 386.227C1174.57 385.846 1175.08 385.289 1175.38 384.557C1175.64 383.824 1175.77 382.901 1175.77 381.788C1175.77 380.997 1175.74 380.294 1175.68 379.679C1175.6 379.034 1175.51 378.492 1175.42 378.053L1184.74 378.009C1185.09 379.093 1185.37 380.265 1185.57 381.524C1185.78 382.784 1185.88 384.176 1185.88 385.699C1185.88 388.482 1185.42 390.914 1184.52 392.994C1183.58 395.045 1182.08 396.627 1180.03 397.74C1177.98 398.854 1175.29 399.41 1171.95 399.41L1125.72 399.41ZM1174.28 345.709L1153.1 345.709C1151.57 345.709 1150.27 345.958 1149.18 346.456C1148.07 346.954 1147.21 347.73 1146.59 348.785C1145.98 349.811 1145.67 351.144 1145.67 352.784C1145.67 354.19 1145.92 355.406 1146.42 356.432C1146.88 357.457 1147.57 358.248 1148.48 358.805C1149.36 359.361 1150.4 359.64 1151.6 359.64L1151.6 372.296C1149.58 372.296 1147.66 371.827 1145.84 370.89C1144.03 369.952 1142.43 368.59 1141.05 366.803C1139.65 365.016 1138.55 362.892 1137.76 360.431C1136.97 357.94 1136.57 355.157 1136.57 352.081C1136.57 348.39 1137.19 345.108 1138.42 342.237C1139.65 339.366 1141.49 337.11 1143.96 335.47C1146.42 333.8 1149.49 332.965 1153.18 332.965L1173.53 332.965C1176.14 332.965 1178.28 332.804 1179.95 332.481C1181.59 332.159 1183.02 331.69 1184.25 331.075L1185 331.075L1185 343.863C1183.71 344.479 1182.1 344.947 1180.17 345.27C1178.2 345.562 1176.24 345.709 1174.28 345.709ZM1156.04 344.039L1163.2 343.951L1163.2 351.026C1163.2 352.696 1163.39 354.146 1163.77 355.377C1164.16 356.607 1164.7 357.618 1165.4 358.409C1166.07 359.2 1166.87 359.786 1167.77 360.167C1168.68 360.519 1169.68 360.694 1170.76 360.694C1171.85 360.694 1172.83 360.445 1173.71 359.947C1174.56 359.449 1175.23 358.731 1175.73 357.794C1176.2 356.856 1176.43 355.758 1176.43 354.498C1176.43 352.594 1176.05 350.938 1175.29 349.532C1174.53 348.126 1173.59 347.042 1172.48 346.28C1171.36 345.489 1170.31 345.079 1169.31 345.05L1174.67 341.71C1175.87 342.179 1177.12 342.823 1178.41 343.644C1179.7 344.435 1180.91 345.445 1182.06 346.676C1183.17 347.906 1184.09 349.386 1184.82 351.114C1185.53 352.843 1185.88 354.894 1185.88 357.267C1185.88 360.284 1185.28 363.023 1184.08 365.484C1182.85 367.916 1181.16 369.85 1179.02 371.285C1176.86 372.691 1174.39 373.395 1171.64 373.395C1169.15 373.395 1166.94 372.926 1165 371.988C1163.07 371.051 1161.45 369.674 1160.13 367.857C1158.78 366.012 1157.77 363.712 1157.09 360.958C1156.39 358.204 1156.04 355.011 1156.04 351.378L1156.04 344.039ZM1117.5 323.209L1117.5 310.553L1174.1 310.553L1185 311.827L1185 323.209L1117.5 323.209ZM1160.74 280.45L1161.67 280.45C1165.21 280.45 1168.46 280.831 1171.42 281.593C1174.38 282.325 1176.94 283.468 1179.11 285.021C1181.25 286.573 1182.92 288.507 1184.12 290.821C1185.29 293.106 1185.88 295.802 1185.88 298.907C1185.88 301.808 1185.29 304.327 1184.12 306.466C1182.95 308.575 1181.29 310.348 1179.16 311.783C1177.02 313.219 1174.51 314.376 1171.64 315.255C1168.77 316.134 1165.63 316.793 1162.24 317.232L1160.21 317.232C1156.82 316.793 1153.68 316.134 1150.81 315.255C1147.94 314.376 1145.43 313.219 1143.3 311.783C1141.16 310.348 1139.5 308.575 1138.33 306.466C1137.16 304.356 1136.57 301.866 1136.57 298.995C1136.57 295.86 1137.17 293.136 1138.37 290.821C1139.55 288.478 1141.22 286.544 1143.38 285.021C1145.52 283.468 1148.07 282.325 1151.03 281.593C1153.96 280.831 1157.2 280.45 1160.74 280.45ZM1161.67 293.106L1160.74 293.106C1158.81 293.106 1156.99 293.253 1155.29 293.546C1153.56 293.81 1152.06 294.278 1150.77 294.952C1149.45 295.626 1148.41 296.549 1147.65 297.721C1146.88 298.863 1146.5 300.343 1146.5 302.159C1146.5 303.888 1146.8 305.353 1147.38 306.554C1147.97 307.755 1148.79 308.751 1149.84 309.542C1150.9 310.304 1152.16 310.875 1153.62 311.256C1155.06 311.637 1156.64 311.871 1158.37 311.959L1164.13 311.959C1166.44 311.871 1168.49 311.49 1170.28 310.816C1172.04 310.113 1173.43 309.059 1174.45 307.652C1175.45 306.217 1175.95 304.356 1175.95 302.071C1175.95 300.284 1175.6 298.805 1174.89 297.633C1174.19 296.461 1173.19 295.553 1171.9 294.908C1170.62 294.234 1169.11 293.766 1167.38 293.502C1165.62 293.238 1163.72 293.106 1161.67 293.106ZM1174.28 246.92L1153.1 246.92C1151.57 246.92 1150.27 247.169 1149.18 247.667C1148.07 248.165 1147.21 248.941 1146.59 249.996C1145.98 251.021 1145.67 252.354 1145.67 253.995C1145.67 255.401 1145.92 256.617 1146.42 257.643C1146.88 258.668 1147.57 259.459 1148.48 260.016C1149.36 260.572 1150.4 260.851 1151.6 260.851L1151.6 273.507C1149.58 273.507 1147.66 273.038 1145.84 272.101C1144.03 271.163 1142.43 269.801 1141.05 268.014C1139.65 266.227 1138.55 264.103 1137.76 261.642C1136.97 259.151 1136.57 256.368 1136.57 253.292C1136.57 249.601 1137.19 246.319 1138.42 243.448C1139.65 240.577 1141.49 238.321 1143.96 236.681C1146.42 235.011 1149.49 234.176 1153.18 234.176L1173.53 234.176C1176.14 234.176 1178.28 234.015 1179.95 233.692C1181.59 233.37 1183.02 232.901 1184.25 232.286L1185 232.286L1185 245.074C1183.71 245.689 1182.1 246.158 1180.17 246.48C1178.2 246.773 1176.24 246.92 1174.28 246.92ZM1156.04 245.25L1163.2 245.162L1163.2 252.237C1163.2 253.907 1163.39 255.357 1163.77 256.588C1164.16 257.818 1164.7 258.829 1165.4 259.62C1166.07 260.411 1166.87 260.997 1167.77 261.378C1168.68 261.729 1169.68 261.905 1170.76 261.905C1171.85 261.905 1172.83 261.656 1173.71 261.158C1174.56 260.66 1175.23 259.942 1175.73 259.005C1176.2 258.067 1176.43 256.969 1176.43 255.709C1176.43 253.805 1176.05 252.149 1175.29 250.743C1174.53 249.337 1173.59 248.253 1172.48 247.491C1171.36 246.7 1170.31 246.29 1169.31 246.261L1174.67 242.921C1175.87 243.39 1177.12 244.034 1178.41 244.854C1179.7 245.646 1180.91 246.656 1182.06 247.887C1183.17 249.117 1184.09 250.597 1184.82 252.325C1185.53 254.054 1185.88 256.104 1185.88 258.478C1185.88 261.495 1185.28 264.234 1184.08 266.695C1182.85 269.127 1181.16 271.061 1179.02 272.496C1176.86 273.902 1174.39 274.605 1171.64 274.605C1169.15 274.605 1166.94 274.137 1165 273.199C1163.07 272.262 1161.45 270.885 1160.13 269.068C1158.78 267.223 1157.77 264.923 1157.09 262.169C1156.39 259.415 1156.04 256.222 1156.04 252.589L1156.04 245.25ZM1171.86 198.712C1170.95 198.712 1170.13 198.976 1169.4 199.503C1168.67 200.03 1167.99 201.012 1167.38 202.447C1166.73 203.854 1166.15 205.89 1165.62 208.556C1165.09 210.958 1164.43 213.199 1163.64 215.279C1162.82 217.33 1161.84 219.117 1160.7 220.641C1159.56 222.135 1158.21 223.307 1156.66 224.156C1155.07 225.006 1153.27 225.431 1151.25 225.431C1149.26 225.431 1147.38 225.006 1145.62 224.156C1143.87 223.277 1142.31 222.032 1140.97 220.421C1139.59 218.78 1138.52 216.788 1137.76 214.444C1136.97 212.071 1136.57 209.405 1136.57 206.446C1136.57 202.315 1137.23 198.771 1138.55 195.812C1139.87 192.823 1141.68 190.538 1144 188.956C1146.28 187.345 1148.89 186.539 1151.82 186.539L1151.82 199.195C1150.59 199.195 1149.49 199.459 1148.53 199.986C1147.53 200.484 1146.75 201.275 1146.2 202.359C1145.61 203.414 1145.32 204.791 1145.32 206.49C1145.32 207.896 1145.57 209.112 1146.06 210.138C1146.53 211.163 1147.18 211.954 1148 212.511C1148.79 213.038 1149.67 213.302 1150.63 213.302C1151.37 213.302 1152.03 213.155 1152.61 212.862C1153.17 212.54 1153.68 212.027 1154.15 211.324C1154.62 210.621 1155.06 209.713 1155.47 208.6C1155.85 207.457 1156.2 206.051 1156.52 204.381C1157.23 200.953 1158.15 197.892 1159.29 195.196C1160.41 192.501 1161.93 190.362 1163.86 188.78C1165.77 187.198 1168.27 186.407 1171.38 186.407C1173.49 186.407 1175.42 186.876 1177.18 187.813C1178.94 188.751 1180.47 190.099 1181.79 191.856C1183.08 193.614 1184.09 195.724 1184.82 198.185C1185.53 200.616 1185.88 203.355 1185.88 206.402C1185.88 210.826 1185.09 214.576 1183.51 217.652C1181.92 220.699 1179.92 223.014 1177.49 224.596C1175.02 226.148 1172.5 226.925 1169.93 226.925L1169.93 214.928C1171.66 214.869 1173.05 214.43 1174.1 213.609C1175.16 212.76 1175.92 211.69 1176.39 210.401C1176.86 209.083 1177.09 207.662 1177.09 206.139C1177.09 204.498 1176.87 203.136 1176.43 202.052C1175.96 200.968 1175.35 200.147 1174.58 199.591C1173.79 199.005 1172.89 198.712 1171.86 198.712ZM1185.88 156.305C1185.88 159.996 1185.29 163.307 1184.12 166.236C1182.92 169.166 1181.26 171.656 1179.16 173.707C1177.05 175.729 1174.6 177.281 1171.82 178.365C1169 179.449 1166.02 179.991 1162.85 179.991L1161.09 179.991C1157.49 179.991 1154.19 179.479 1151.21 178.453C1148.22 177.428 1145.62 175.963 1143.43 174.059C1141.23 172.125 1139.55 169.781 1138.37 167.027C1137.17 164.273 1136.57 161.168 1136.57 157.711C1136.57 154.342 1137.13 151.354 1138.24 148.746C1139.36 146.139 1140.94 143.956 1142.99 142.198C1145.04 140.411 1147.5 139.063 1150.37 138.155C1153.21 137.247 1156.38 136.793 1159.86 136.793L1165.14 136.793L1165.14 174.586L1156.7 174.586L1156.7 149.229L1155.73 149.229C1153.97 149.229 1152.41 149.552 1151.03 150.196C1149.62 150.812 1148.51 151.749 1147.69 153.009C1146.87 154.269 1146.46 155.88 1146.46 157.843C1146.46 159.513 1146.83 160.948 1147.56 162.149C1148.29 163.351 1149.32 164.332 1150.63 165.094C1151.95 165.826 1153.51 166.383 1155.29 166.764C1157.05 167.115 1158.98 167.291 1161.09 167.291L1162.85 167.291C1164.76 167.291 1166.51 167.027 1168.12 166.5C1169.74 165.943 1171.13 165.167 1172.3 164.171C1173.47 163.146 1174.38 161.915 1175.02 160.479C1175.67 159.015 1175.99 157.359 1175.99 155.514C1175.99 153.229 1175.55 151.104 1174.67 149.142C1173.76 147.149 1172.4 145.436 1170.59 144L1177.27 137.848C1178.7 138.844 1180.08 140.206 1181.4 141.935C1182.71 143.634 1183.8 145.685 1184.65 148.087C1185.47 150.489 1185.88 153.229 1185.88 156.305Z" fill="white"/>
<path d="M1491.26 417.164C1490.11 417.164 1489.09 417.34 1488.18 417.691C1487.24 418.014 1486.39 418.629 1485.63 419.537C1484.84 420.445 1484.06 421.72 1483.3 423.36C1482.54 425.001 1481.75 427.125 1480.93 429.732C1479.99 432.633 1478.94 435.387 1477.77 437.994C1476.59 440.572 1475.23 442.857 1473.68 444.85C1472.1 446.812 1470.27 448.365 1468.19 449.508C1466.11 450.621 1463.69 451.178 1460.93 451.178C1458.27 451.178 1455.85 450.592 1453.68 449.42C1451.49 448.248 1449.61 446.607 1448.06 444.498C1446.48 442.389 1445.26 439.898 1444.41 437.027C1443.56 434.127 1443.14 430.948 1443.14 427.491C1443.14 422.774 1443.99 418.658 1445.69 415.143C1447.38 411.627 1449.71 408.902 1452.67 406.969C1455.63 405.006 1459.02 404.024 1462.82 404.024L1462.82 417.12C1460.95 417.12 1459.31 417.516 1457.9 418.307C1456.47 419.068 1455.34 420.24 1454.52 421.822C1453.7 423.375 1453.29 425.338 1453.29 427.711C1453.29 429.996 1453.64 431.9 1454.34 433.424C1455.02 434.947 1455.94 436.09 1457.11 436.852C1458.25 437.613 1459.54 437.994 1460.98 437.994C1462.06 437.994 1463.04 437.73 1463.92 437.203C1464.8 436.646 1465.62 435.826 1466.38 434.742C1467.15 433.658 1467.86 432.325 1468.54 430.743C1469.21 429.161 1469.87 427.33 1470.51 425.25C1471.57 421.764 1472.76 418.702 1474.07 416.065C1475.39 413.399 1476.87 411.173 1478.51 409.386C1480.15 407.599 1482.01 406.251 1484.09 405.343C1486.17 404.435 1488.53 403.98 1491.17 403.98C1493.95 403.98 1496.44 404.522 1498.64 405.606C1500.84 406.69 1502.7 408.258 1504.22 410.309C1505.74 412.359 1506.9 414.806 1507.69 417.647C1508.48 420.489 1508.88 423.668 1508.88 427.184C1508.88 430.348 1508.47 433.468 1507.65 436.544C1506.8 439.62 1505.52 442.418 1503.83 444.937C1502.13 447.428 1499.96 449.42 1497.32 450.914C1494.68 452.408 1491.56 453.155 1487.96 453.155L1487.96 439.928C1489.95 439.928 1491.64 439.62 1493.01 439.005C1494.39 438.39 1495.5 437.525 1496.35 436.412C1497.2 435.27 1497.82 433.922 1498.2 432.369C1498.58 430.787 1498.77 429.059 1498.77 427.184C1498.77 424.898 1498.45 423.023 1497.8 421.559C1497.16 420.064 1496.27 418.966 1495.12 418.263C1493.98 417.53 1492.69 417.164 1491.26 417.164ZM1508.88 373.922C1508.88 377.613 1508.29 380.924 1507.12 383.854C1505.92 386.783 1504.26 389.273 1502.16 391.324C1500.05 393.346 1497.6 394.898 1494.82 395.982C1492 397.066 1489.02 397.608 1485.85 397.608L1484.09 397.608C1480.49 397.608 1477.19 397.096 1474.21 396.07C1471.22 395.045 1468.62 393.58 1466.43 391.676C1464.23 389.742 1462.55 387.398 1461.37 384.645C1460.17 381.891 1459.57 378.785 1459.57 375.328C1459.57 371.959 1460.13 368.971 1461.24 366.363C1462.36 363.756 1463.94 361.573 1465.99 359.815C1468.04 358.028 1470.5 356.681 1473.37 355.772C1476.21 354.864 1479.38 354.41 1482.86 354.41L1488.14 354.41L1488.14 392.203L1479.7 392.203L1479.7 366.847L1478.73 366.847C1476.97 366.847 1475.41 367.169 1474.03 367.813C1472.62 368.429 1471.51 369.366 1470.69 370.626C1469.87 371.886 1469.46 373.497 1469.46 375.46C1469.46 377.13 1469.83 378.565 1470.56 379.767C1471.29 380.968 1472.32 381.949 1473.63 382.711C1474.95 383.443 1476.51 384 1478.29 384.381C1480.05 384.732 1481.98 384.908 1484.09 384.908L1485.85 384.908C1487.76 384.908 1489.51 384.645 1491.12 384.117C1492.74 383.561 1494.13 382.784 1495.3 381.788C1496.47 380.763 1497.38 379.532 1498.02 378.097C1498.67 376.632 1498.99 374.977 1498.99 373.131C1498.99 370.846 1498.55 368.722 1497.67 366.759C1496.76 364.767 1495.4 363.053 1493.59 361.617L1500.27 355.465C1501.7 356.461 1503.08 357.823 1504.4 359.552C1505.71 361.251 1506.8 363.302 1507.65 365.704C1508.47 368.106 1508.88 370.846 1508.88 373.922ZM1470.82 334.547L1508 334.547L1508 347.203L1460.45 347.203L1460.45 335.294L1470.82 334.547ZM1460.14 320.221L1471.88 320.44C1471.79 321.056 1471.72 321.803 1471.66 322.682C1471.57 323.531 1471.53 324.308 1471.53 325.011C1471.53 326.798 1471.76 328.351 1472.23 329.669C1472.67 330.958 1473.33 332.042 1474.21 332.921C1475.08 333.771 1476.15 334.415 1477.41 334.854C1478.67 335.265 1480.11 335.499 1481.72 335.558L1480.93 338.106C1477.85 338.106 1475.03 337.799 1472.45 337.184C1469.84 336.568 1467.57 335.675 1465.64 334.503C1463.7 333.302 1462.21 331.837 1461.15 330.108C1460.1 328.38 1459.57 326.402 1459.57 324.176C1459.57 323.473 1459.63 322.755 1459.75 322.022C1459.84 321.29 1459.97 320.689 1460.14 320.221ZM1498.77 297.281L1460.45 286.734L1460.45 273.507L1508 289.547L1508 297.545L1498.77 297.281ZM1460.45 304.532L1498.82 293.941L1508 293.722L1508 301.764L1460.45 317.804L1460.45 304.532ZM1508.88 246.568C1508.88 250.26 1508.29 253.57 1507.12 256.5C1505.92 259.43 1504.26 261.92 1502.16 263.971C1500.05 265.992 1497.6 267.545 1494.82 268.629C1492 269.713 1489.02 270.255 1485.85 270.255L1484.09 270.255C1480.49 270.255 1477.19 269.742 1474.21 268.717C1471.22 267.691 1468.62 266.227 1466.43 264.322C1464.23 262.389 1462.55 260.045 1461.37 257.291C1460.17 254.537 1459.57 251.432 1459.57 247.975C1459.57 244.605 1460.13 241.617 1461.24 239.01C1462.36 236.402 1463.94 234.22 1465.99 232.462C1468.04 230.675 1470.5 229.327 1473.37 228.419C1476.21 227.511 1479.38 227.057 1482.86 227.057L1488.14 227.057L1488.14 264.85L1479.7 264.85L1479.7 239.493L1478.73 239.493C1476.97 239.493 1475.41 239.815 1474.03 240.46C1472.62 241.075 1471.51 242.013 1470.69 243.272C1469.87 244.532 1469.46 246.144 1469.46 248.106C1469.46 249.776 1469.83 251.212 1470.56 252.413C1471.29 253.614 1472.32 254.596 1473.63 255.357C1474.95 256.09 1476.51 256.646 1478.29 257.027C1480.05 257.379 1481.98 257.555 1484.09 257.555L1485.85 257.555C1487.76 257.555 1489.51 257.291 1491.12 256.764C1492.74 256.207 1494.13 255.431 1495.3 254.435C1496.47 253.409 1497.38 252.179 1498.02 250.743C1498.67 249.278 1498.99 247.623 1498.99 245.777C1498.99 243.492 1498.55 241.368 1497.67 239.405C1496.76 237.413 1495.4 235.699 1493.59 234.264L1500.27 228.111C1501.7 229.107 1503.08 230.47 1504.4 232.198C1505.71 233.897 1506.8 235.948 1507.65 238.351C1508.47 240.753 1508.88 243.492 1508.88 246.568ZM1470.82 207.193L1508 207.193L1508 219.85L1460.45 219.85L1460.45 207.94L1470.82 207.193ZM1460.14 192.867L1471.88 193.087C1471.79 193.702 1471.72 194.449 1471.66 195.328C1471.57 196.178 1471.53 196.954 1471.53 197.657C1471.53 199.444 1471.76 200.997 1472.23 202.315C1472.67 203.604 1473.33 204.688 1474.21 205.567C1475.08 206.417 1476.15 207.062 1477.41 207.501C1478.67 207.911 1480.11 208.146 1481.72 208.204L1480.93 210.753C1477.85 210.753 1475.03 210.445 1472.45 209.83C1469.84 209.215 1467.57 208.321 1465.64 207.149C1463.7 205.948 1462.21 204.483 1461.15 202.755C1460.1 201.026 1459.57 199.049 1459.57 196.822C1459.57 196.119 1459.63 195.401 1459.75 194.669C1459.84 193.937 1459.97 193.336 1460.14 192.867Z" fill="white"/>
<rect x="669" y="46" width="995" height="556" stroke="#2FA4DA" stroke-width="8"/>
<defs>
<filter id="filter0_f_501_214" x="257.738" y="531.394" width="183.15" height="72.8592" filterUnits="userSpaceOnUse" color-interpolation-filters="sRGB">
<feFlood flood-opacity="0" result="BackgroundImageFix"/>
<feBlend mode="normal" in="SourceGraphic" in2="BackgroundImageFix" result="shape"/>
<feGaussianBlur stdDeviation="4.42915" result="effect1_foregroundBlur_501_214"/>
</filter>
<linearGradient id="paint0_linear_501_214" x1="266.626" y1="504.82" x2="349.303" y2="504.82" gradientUnits="userSpaceOnUse">
<stop stop-color="#C6C6C6"/>
<stop offset="0.20485" stop-color="#E3E3E3"/>
<stop offset="1" stop-color="#A5A5A8"/>
</linearGradient>
<linearGradient id="paint1_linear_501_214" x1="328.113" y1="411.548" x2="349.303" y2="455.12" gradientUnits="userSpaceOnUse">
<stop stop-color="#E3E3E3"/>
<stop offset="1" stop-color="#A5A5A8"/>
</linearGradient>
<linearGradient id="paint2_linear_501_214" x1="351.023" y1="451.104" x2="431.984" y2="441.529" gradientUnits="userSpaceOnUse">
<stop stop-color="white"/>
<stop offset="1" stop-color="white" stop-opacity="0"/>
</linearGradient>
<linearGradient id="paint3_linear_501_214" x1="351.023" y1="498.248" x2="431.984" y2="488.674" gradientUnits="userSpaceOnUse">
<stop stop-color="white"/>
<stop offset="1" stop-color="white" stop-opacity="0"/>
</linearGradient>
<linearGradient id="paint4_linear_501_214" x1="351.023" y1="542.436" x2="431.984" y2="532.862" gradientUnits="userSpaceOnUse">
<stop stop-color="white"/>
<stop offset="1" stop-color="white" stop-opacity="0"/>
</linearGradient>
<linearGradient id="paint5_linear_501_214" x1="117.001" y1="409.077" x2="117.001" y2="585.864" gradientUnits="userSpaceOnUse">
<stop stop-color="#4387FD"/>
<stop offset="1" stop-color="#4683EA"/>
</linearGradient>
<clipPath id="clip0_501_214">
<rect width="262" height="262" fill="white" transform="translate(218 42)"/>
</clipPath>
<clipPath id="clip1_501_214">
<rect width="186.69" height="206.07" fill="white" transform="translate(256 400)"/>
</clipPath>
<clipPath id="clip2_501_214">
<rect width="191" height="231" fill="white" transform="translate(21 60)"/>
</clipPath>
</defs>
</svg>
