<svg width="580" height="320" viewBox="0 0 580 320" fill="none" xmlns="http://www.w3.org/2000/svg">
<g clip-path="url(#clip0_933_2602)">
<path d="M336.479 37.094H50.5195C40.0295 37.094 31.4995 45.624 31.4995 56.114V252.074C31.4995 262.564 40.0295 271.094 50.5195 271.094H336.479C346.969 271.094 355.5 262.564 355.5 252.074V56.114C355.5 45.624 346.969 37.094 336.479 37.094Z" fill="#F2F2F2"/>
<path d="M335.455 37.188H49.4951C39.0051 37.188 30.4751 45.718 30.4751 56.2079V252.168C30.4751 262.658 39.0051 271.188 49.4951 271.188H335.455C345.945 271.188 354.475 262.658 354.475 252.168V56.2079C354.475 45.718 345.945 37.188 335.455 37.188ZM352.475 194.492C352.475 235.745 319.032 269.188 277.779 269.188H49.4951C40.0952 269.188 32.4751 261.568 32.4751 252.168V56.2079C32.4751 46.8081 40.0952 39.188 49.4951 39.188H335.455C344.855 39.188 352.475 46.8081 352.475 56.208V194.492Z" fill="#3F3D56"/>
<path d="M41.3213 243.721L39.6289 242.655C40.729 240.907 41.8643 239.212 43.002 237.618L44.6299 238.78C43.5142 240.342 42.4014 242.004 41.3213 243.721Z" fill="#CCCCCC"/>
<path d="M52.3491 229.468L50.9175 228.071C53.9692 224.944 57.1811 222.259 60.4634 220.091L61.5659 221.76C58.4023 223.849 55.3013 226.442 52.3491 229.468ZM102.245 216.844C99.8564 216.844 97.6807 216.538 96.0518 216.271L96.375 214.298C98.0254 214.568 100.013 214.844 102.245 214.844C104.215 214.844 106.152 214.627 108.166 214.182L108.598 216.135C106.44 216.612 104.362 216.844 102.245 216.844ZM72.3184 216.579L71.7168 214.672C73.8652 213.994 76.0908 213.486 78.3316 213.162C80.2559 212.883 82.0957 212.748 83.9556 212.748H84.0786V214.748H83.9556C82.1924 214.748 80.4468 214.876 78.6182 215.141C76.4839 215.45 74.3638 215.934 72.3184 216.579ZM119.99 210.799L118.711 209.261C121.471 206.969 123.449 204.197 125.544 201.262L126.379 200.094L128.002 201.263L127.172 202.423C125 205.467 122.948 208.342 119.99 210.799ZM136.029 192.461L134.798 190.884C137.494 188.781 140.54 187.076 144.109 185.673C144.717 185.434 145.298 185.221 145.856 185.031L146.501 186.923C145.971 187.104 145.419 187.307 144.841 187.535C141.453 188.866 138.571 190.478 136.029 192.461ZM160.174 185.515C159.501 185.515 158.863 185.508 158.25 185.501L158.273 183.501C158.9 183.509 159.554 183.51 160.247 183.515C162.6 183.515 165.878 183.448 170.374 182.927L170.604 184.914C165.96 185.452 162.63 185.508 160.174 185.515ZM182.771 182.895L182.374 180.936C185.966 180.209 190.146 179.344 194.282 178.277L194.782 180.213C190.598 181.293 186.388 182.164 182.771 182.895ZM206.563 176.422L205.815 174.567C209.826 172.95 213.308 171.127 216.461 168.992L217.582 170.648C214.311 172.863 210.706 174.752 206.563 176.422ZM226.771 162.131L225.148 160.962C225.706 160.187 226.188 159.432 226.655 158.702C228.032 156.545 229.456 154.315 232.847 151.578L233.084 151.388L234.324 152.958L234.104 153.134C230.966 155.667 229.691 157.664 228.34 159.778C227.859 160.532 227.361 161.311 226.771 162.131ZM244.713 147.131L243.983 145.269C247.548 143.871 251.574 142.747 255.949 141.926L256.318 143.892C252.066 144.689 248.161 145.779 244.713 147.131Z" fill="#CCCCCC"/>
<path d="M268.543 142.423L268.418 140.427C270.361 140.305 272.393 140.225 274.457 140.188L274.493 142.188C272.458 142.224 270.457 142.303 268.543 142.423Z" fill="#CCCCCC"/>
<path d="M63.6235 73.8591H35.5634C34.1534 73.8591 33.0034 75.0092 33.0034 76.4191C33.0034 77.8391 34.1534 78.9891 35.5634 78.9891H63.6235C65.0334 78.9891 66.1835 77.8391 66.1835 76.4191C66.1835 75.0092 65.0335 73.8591 63.6235 73.8591Z" fill="#E6E6E6"/>
<path d="M110.623 73.8591H82.5634C81.1534 73.8591 80.0034 75.0092 80.0034 76.4191C80.0034 77.8391 81.1534 78.9891 82.5634 78.9891H110.623C112.033 78.9891 113.183 77.8391 113.183 76.4191C113.183 75.0092 112.033 73.8591 110.623 73.8591Z" fill="#E6E6E6"/>
<path d="M157.623 73.8591H129.563C128.153 73.8591 127.003 75.0092 127.003 76.4191C127.003 77.8391 128.153 78.9891 129.563 78.9891H157.623C159.033 78.9891 160.183 77.8391 160.183 76.4191C160.183 75.0092 159.033 73.8591 157.623 73.8591Z" fill="#E6E6E6"/>
<path d="M287.975 242.188H32.9751V244.188H287.975V242.188Z" fill="#E6E6E6"/>
<path d="M274.505 96.188C256.355 96.6579 242.815 101.998 234.235 112.038C231.065 115.758 229.775 118.688 228.415 121.788C227.065 124.848 225.685 127.998 222.475 132.108V128.708C224.465 125.788 225.535 123.348 226.585 120.978C228.005 117.738 229.355 114.678 232.715 110.748C241.675 100.248 255.715 94.678 274.445 94.188L274.505 96.188Z" fill="#CCCCCC"/>
<path d="M229.789 122.391L229.788 122.394L229.755 122.466C228.404 125.529 226.961 128.801 223.659 133.029M229.789 122.391L222.475 132.108M229.789 122.391C230.18 121.499 230.398 120.651 230.403 119.908C230.407 119.286 230.242 118.167 229.201 117.658C228.104 117.122 227.112 117.767 226.644 118.2C226.093 118.709 225.614 119.459 225.212 120.374C225.212 120.375 225.212 120.375 225.211 120.376L225.175 120.458C224.139 122.796 223.118 125.101 221.236 127.863L221.23 127.871C220.503 128.952 219.626 130.119 218.557 131.393C207.706 144.302 192.992 148.637 180.777 152.208C180.423 152.309 180.083 152.406 179.743 152.502C179.519 152.566 179.296 152.629 179.07 152.694C168.137 155.712 162.272 155.607 157.902 155.528L157.901 155.528L157.826 155.527C155.536 155.488 153.394 155.451 151.089 155.868C148.732 156.295 146.266 157.182 143.231 158.916C132.505 165.042 127.98 174.234 124.156 182.001L124.109 182.096L124.109 182.096C120.086 190.273 116.869 196.709 108.601 199.793L108.6 199.793C102.986 201.891 99.0062 200.875 94.3874 199.656C94.3702 199.645 94.2877 199.596 94.1402 199.45C93.9282 199.241 93.6658 198.915 93.3567 198.452C92.739 197.525 92.044 196.215 91.2805 194.604C90.1976 192.32 89.0382 189.568 87.8172 186.669C87.3146 185.476 86.8016 184.258 86.2791 183.038C84.5091 178.903 82.6331 174.749 80.7633 171.704C79.8327 170.189 78.8478 168.855 77.8119 167.932C76.7971 167.028 75.4675 166.293 73.9568 166.61L73.9564 166.61C69.6032 167.526 65.9896 171.522 62.875 176.741C59.709 182.047 56.8183 189.034 54.0781 196.621C51.9689 202.461 49.9282 208.717 47.912 214.897C47.3064 216.754 46.703 218.604 46.1006 220.433C43.4844 228.379 40.8863 235.951 38.1791 242.191L37.5826 243.566L38.9571 244.164L40.7971 244.964L42.1743 245.562L42.7715 244.185C45.4709 237.956 48.0251 230.404 50.5471 222.585C51.227 220.477 51.9044 218.35 52.5822 216.222C54.4271 210.429 56.2745 204.629 58.181 199.182C60.7898 191.729 63.4739 185.045 66.3477 180.062C69.0729 175.336 71.7607 172.513 74.3979 171.664C74.8978 172.066 75.4606 172.664 76.0773 173.479C76.8869 174.549 77.7233 175.903 78.5776 177.466C80.2875 180.595 81.9971 184.428 83.6539 188.234C83.8919 188.781 84.1289 189.327 84.3648 189.871C85.7566 193.079 87.1058 196.189 88.3485 198.651C89.0747 200.09 89.7939 201.367 90.4952 202.34C90.8463 202.826 91.2191 203.273 91.6148 203.634C91.9996 203.985 92.4897 204.332 93.0814 204.488L93.0856 204.489L93.172 204.512C98.1476 205.813 103.232 207.143 110.35 204.483L110.351 204.483C120.539 200.668 124.557 192.51 128.509 184.488L128.601 184.301L128.601 184.3C132.498 176.376 136.35 168.6 145.718 163.261L145.72 163.26C148.28 161.796 150.204 161.115 151.986 160.791C153.798 160.462 155.529 160.487 157.819 160.528L157.822 160.528L157.864 160.529C162.45 160.6 168.659 160.696 179.868 157.656M229.789 122.391L179.868 157.656M223.659 133.029C223.659 133.03 223.658 133.031 223.657 133.031L222.475 132.108M223.659 133.029C223.66 133.029 223.66 133.028 223.66 133.027L222.475 132.108M223.659 133.029C223.268 133.533 222.848 134.055 222.399 134.596L222.393 134.604C210.529 148.712 194.698 153.344 182.308 156.969L182.179 157.007L181.755 155.568M222.475 132.108C222.095 132.598 221.685 133.108 221.245 133.638C209.673 147.399 194.215 151.922 181.779 155.561L181.755 155.568M181.755 155.568L182.176 157.008L182.177 157.007M181.755 155.568C180.975 155.798 180.215 156.008 179.475 156.208C168.47 159.193 162.415 159.099 157.912 159.029L182.177 157.007M182.177 157.007C181.383 157.242 180.612 157.455 179.868 157.656M182.177 157.007L179.868 157.656" fill="#2FA4DA" stroke="#2FA4DA" stroke-width="3"/>
<path d="M300.835 256.899C301.059 257.451 301.832 257.451 302.056 256.899C303.617 253.05 305.84 248.739 308.258 245.445C308.646 244.917 308.112 244.212 307.497 244.435L302.313 246.31V214.224H300.578V246.31L295.393 244.435C294.778 244.212 294.244 244.917 294.631 245.444C297.049 248.739 299.273 253.05 300.835 256.899Z" fill="#3F3D56"/>
<path d="M318.593 311.349H284.872C282.778 311.349 281.075 309.646 281.075 307.552C276.616 294.521 276.704 281.751 281.075 269.229C281.075 267.135 282.778 265.432 284.872 265.432H318.593C320.687 265.432 322.39 267.135 322.39 269.229V307.552C322.39 309.646 320.687 311.349 318.593 311.349Z" fill="#E6E6E6"/>
<path d="M292.097 266.563C286.634 266.563 282.206 270.992 282.206 276.454V306.739C282.206 308.66 283.764 310.218 285.685 310.218H304.333C313.681 310.218 321.259 302.64 321.259 293.292V270.042C321.259 268.121 319.701 266.563 317.78 266.563H292.097Z" fill="white"/>
<path d="M309.586 277.7H293.798C293.4 277.7 293.076 277.376 293.076 276.978C293.076 276.58 293.4 276.257 293.798 276.257H309.586C309.984 276.257 310.308 276.58 310.308 276.978C310.308 277.376 309.984 277.7 309.586 277.7Z" fill="#E6E6E6"/>
<path d="M309.586 293.093H293.798C293.4 293.093 293.076 292.769 293.076 292.371C293.076 291.973 293.4 291.649 293.798 291.649H309.586C309.984 291.649 310.308 291.973 310.308 292.371C310.308 292.769 309.984 293.093 309.586 293.093Z" fill="#E6E6E6"/>
<path d="M318.058 285.402H285.326C284.928 285.402 284.604 285.078 284.604 284.68C284.604 284.282 284.928 283.958 285.326 283.958H318.058C318.456 283.958 318.78 284.282 318.78 284.68C318.78 285.078 318.456 285.402 318.058 285.402Z" fill="#E6E6E6"/>
<path d="M318.444 299.351H304.786C304.388 299.351 304.064 299.027 304.064 298.629C304.064 298.231 304.388 297.908 304.786 297.908H318.444C318.842 297.908 319.165 298.231 319.165 298.629C319.165 299.027 318.842 299.351 318.444 299.351Z" fill="#E6E6E6"/>
<path d="M12.4633 24.7224C19.3466 24.7224 24.9266 19.26 24.9266 12.5217C24.9266 5.78348 19.3466 0.321045 12.4633 0.321045C5.58 0.321045 0 5.78348 0 12.5217C0 19.26 5.58 24.7224 12.4633 24.7224Z" fill="#2FA4DA"/>
<path d="M112.376 8.34784H45.2911C42.9897 8.34784 41.1172 6.47535 41.1172 4.17392C41.1172 1.87249 42.9897 0 45.2911 0H112.376C114.677 0 116.55 1.87249 116.55 4.17392C116.55 6.47535 114.677 8.34784 112.376 8.34784Z" fill="#F2F2F2"/>
<path d="M164.729 22.475H45.2911C42.9897 22.475 41.1172 20.6025 41.1172 18.3011C41.1172 15.9997 42.9897 14.1272 45.2911 14.1272H164.729C167.031 14.1272 168.903 15.9997 168.903 18.3011C168.903 20.6025 167.031 22.475 164.729 22.475Z" fill="#F2F2F2"/>
<path d="M561.736 171.174C561.074 208.733 535.831 225.058 535.416 209.2C534.901 189.141 526.251 137.119 492.301 153.072C451.699 172.15 488.3 288.352 476.547 288.352C429.522 288.352 391.357 235.858 391.357 171.174C391.357 106.494 429.522 54 476.547 54C523.571 54 562.862 107.317 561.736 171.174V171.174Z" fill="url(#paint0_linear_933_2602)" stroke="black" stroke-width="0.8" stroke-linecap="round" stroke-linejoin="round"/>
<path d="M538.729 90.7925C549.634 110.503 555.046 135.219 555.533 161.168C555.986 185.141 549.449 207.78 537.328 214.195C542.988 216.005 561.074 208.728 561.732 171.169C562.28 140.305 553.378 111.903 538.729 90.7925ZM497.675 140.081C494.189 140.148 490.341 141.081 486.097 143.072C445.496 162.149 482.102 278.351 470.348 278.351C446.13 278.351 424.263 264.426 408.747 242.082C424.315 270.189 448.895 288.352 476.547 288.352C488.3 288.352 451.694 172.15 492.296 153.072C504.884 147.162 513.996 150.591 520.505 158.268C515.651 147.81 508.356 139.881 497.675 140.081V140.081Z" fill="black" fill-opacity="0.31373"/>
<path d="M517.589 238.494C517.589 259.118 509.392 278.898 494.803 293.482C480.214 308.065 460.427 316.258 439.794 316.258C419.162 316.258 399.375 308.065 384.785 293.482C370.196 278.898 362 259.118 362 238.494C362 217.869 370.196 198.09 384.785 183.506C399.375 168.922 419.162 160.729 439.794 160.729C460.427 160.729 480.214 168.922 494.803 183.506C509.392 198.09 517.589 217.869 517.589 238.494V238.494Z" fill="url(#paint1_linear_933_2602)" stroke="black" stroke-width="0.799968" stroke-linecap="round" stroke-linejoin="round"/>
<path d="M439.798 160.74C431.52 160.74 423.552 162.045 416.066 164.44C422.799 162.868 429.899 162.021 437.237 162.021C457.369 162.021 475.726 168.345 489.54 178.722C476.055 167.493 458.708 160.74 439.798 160.74ZM513.472 213.467C514.492 217.619 515.036 221.905 515.036 226.305C515.036 261.793 480.18 290.59 437.237 290.59C401.327 290.59 371.087 270.456 362.142 243.106C364.526 283.895 398.399 316.273 439.798 316.273C482.74 316.273 517.596 281.432 517.596 238.506C517.596 229.749 516.147 221.324 513.472 213.467Z" fill="black" fill-opacity="0.31373"/>
<path d="M439.798 160.74C426.532 160.74 414.035 164.059 403.101 169.921C408.279 188.003 423.409 204.723 441.281 204.723C458.675 204.723 473.5 188.884 479.055 171.359C467.53 164.611 454.112 160.74 439.798 160.74V160.74Z" fill="black" fill-opacity="0.31373"/>
<path fill-rule="evenodd" clip-rule="evenodd" d="M493.102 95.9644C483.656 95.9644 464.468 100.984 461.112 113.999C461.059 114.099 460.959 114.461 460.849 115.018C454.775 111.308 447.632 109.151 439.998 109.151C432.025 109.151 424.615 111.503 418.374 115.513C418.245 114.699 418.088 114.127 418.026 113.999C414.669 100.984 395.481 95.9786 386.03 95.9739C384.528 95.9739 383.284 96.1025 382.373 96.3406C377.305 97.0454 371.754 99.0693 372.16 100.174C375.879 99.5408 377.758 100.265 377.7 100.865C377.586 101.989 375.345 102.289 376.065 106.341C377.424 104.374 379.317 103.698 380.804 103.384C382.33 112.951 389.006 129.652 401.499 130.519C402.572 130.595 403.573 130.59 404.517 130.571C401.57 136.152 399.897 142.51 399.897 149.258C399.897 171.388 417.859 197.032 439.998 197.032C462.132 197.032 480.118 171.388 480.118 149.258C480.118 142.515 478.439 136.171 475.493 130.595C476.174 130.59 476.894 130.571 477.638 130.519C490.088 129.657 496.764 113.051 498.318 103.474C499.739 103.822 501.437 104.536 502.681 106.341C503.401 102.289 501.16 101.989 501.046 100.865C500.988 100.265 502.867 99.5408 506.586 100.174C506.973 99.1264 502.018 97.2549 497.183 96.4596C496.263 96.1358 494.852 95.9644 493.102 95.9644V95.9644Z" fill="url(#paint2_linear_933_2602)" stroke="black" stroke-width="0.8" stroke-linejoin="round"/>
<path d="M455.29 214.719C448.643 208.075 436.813 207.737 429.775 213.981C424.821 218.319 422.847 224.981 422.198 231.291C421.741 235.839 422.012 240.72 424.349 244.773C426.695 247.783 430.781 248.416 434.367 248.597C441.515 248.916 449.068 247.192 454.78 242.673C461.665 236.772 463.272 225.786 458.218 218.257C457.393 216.971 456.396 215.785 455.29 214.719V214.719Z" fill="black" fill-opacity="0.31373"/>
<path d="M431.689 228.172C431.689 232.073 430.139 235.814 427.38 238.572C424.62 241.33 420.878 242.88 416.976 242.88C413.074 242.88 409.331 241.33 406.572 238.572C403.813 235.814 402.263 232.073 402.263 228.172C402.263 224.272 403.813 220.531 406.572 217.773C409.331 215.014 413.074 213.465 416.976 213.465C420.878 213.465 424.62 215.014 427.38 217.773C430.139 220.531 431.689 224.272 431.689 228.172V228.172Z" fill="black" fill-opacity="0.31373"/>
<path d="M452.906 209.957C446.259 203.314 434.429 202.975 427.391 209.219C422.437 213.557 420.463 220.219 419.814 226.529C419.356 231.077 419.628 235.958 421.965 240.011C424.311 243.021 428.397 243.654 431.983 243.835C439.13 244.154 446.683 242.43 452.396 237.911C459.281 232.01 460.888 221.024 455.834 213.495C455.009 212.209 454.012 211.023 452.906 209.957V209.957Z" fill="#DC9A6A" stroke="black" stroke-width="0.8" stroke-linecap="round" stroke-linejoin="round"/>
<path d="M437.914 204.828C439.33 205.166 440.704 205.685 441.986 206.409C443.231 207.08 444.408 207.885 445.462 208.823C451.818 214.252 453.13 224.396 448.49 231.329C444.537 236.754 438.257 240.149 431.835 241.635C429.231 242.221 426.265 242.625 423.729 241.663C426.075 243.273 429.179 243.697 431.978 243.835C439.125 244.154 446.678 242.43 452.395 237.911C459.281 232.01 460.888 221.024 455.833 213.495C455.008 212.205 454.012 211.024 452.906 209.952C449.019 206.066 443.355 204.342 437.914 204.828V204.828Z" fill="black" fill-opacity="0.31373"/>
<path fill-rule="evenodd" clip-rule="evenodd" d="M453.083 208.285C454.394 204.218 461.007 200.461 462.967 201.875C464.927 203.294 465.079 206.666 464.731 207.166C464.388 207.661 460.85 206.133 458.618 207.976C456.392 209.814 455.271 211.385 455.271 211.385L453.083 208.285Z" fill="url(#paint3_linear_933_2602)" stroke="black" stroke-width="0.8"/>
<path fill-rule="evenodd" clip-rule="evenodd" d="M464.317 203.642C464.359 204.085 464.297 204.452 464.178 204.595C463.84 204.999 460.45 204.604 458.275 206.285C456.106 207.966 455.009 209.252 455.009 209.252L453.273 207.795C453.206 207.961 453.135 208.123 453.083 208.285L455.271 211.39C455.271 211.39 456.392 209.814 458.618 207.971C460.85 206.133 464.388 207.661 464.731 207.161C464.97 206.823 464.97 205.128 464.317 203.642V203.642Z" fill="black" fill-opacity="0.31373"/>
<path d="M454.608 208.309C448.08 201.851 437.261 200.185 429.651 205.028C427.93 205.975 428.45 208.352 428.469 208.314C431.344 206.042 434.324 208.542 438.239 211.347C443.031 214.781 448.3 220.048 452.167 225.167C454.875 228.748 456.811 232.268 455.261 234.73C455.343 234.753 457.593 235.387 458.623 233.291C463.811 223.524 460.878 214.143 454.608 208.309V208.309Z" fill="url(#paint4_linear_933_2602)" stroke="black" stroke-width="0.8" stroke-linecap="round" stroke-linejoin="round"/>
<path d="M454.093 207.59C456.163 212.952 455.891 218.024 453.264 222.919C452.668 224.034 451.752 223.672 450.984 223.657C451.39 224.157 451.785 224.667 452.167 225.167C454.871 228.753 456.811 232.272 455.261 234.73C455.343 234.753 457.593 235.391 458.623 233.296C463.372 224.343 461.289 214.605 454.093 207.59V207.59Z" fill="black" fill-opacity="0.31373"/>
<path d="M427.289 217.834C428.255 219.507 428.883 221.353 429.136 223.268C429.389 225.182 429.263 227.128 428.763 228.993C428.264 230.858 427.401 232.606 426.225 234.137C425.049 235.669 423.583 236.954 421.91 237.919C420.236 238.884 418.389 239.509 416.473 239.761C414.557 240.012 412.61 239.884 410.743 239.383C408.876 238.883 407.126 238.02 405.592 236.844C404.059 235.668 402.772 234.202 401.805 232.529C400.838 230.856 400.21 229.01 399.957 227.095C399.704 225.181 399.831 223.236 400.33 221.371C400.83 219.506 401.692 217.757 402.868 216.226C404.044 214.694 405.51 213.41 407.183 212.445C408.857 211.48 410.704 210.854 412.62 210.603C414.536 210.351 416.483 210.48 418.35 210.98C420.217 211.48 421.967 212.343 423.501 213.519C425.035 214.696 426.322 216.162 427.289 217.834V217.834Z" fill="url(#paint5_linear_933_2602)" stroke="black" stroke-width="0.800002" stroke-linecap="round" stroke-linejoin="round"/>
<path d="M486.885 228.401C486.885 232.302 485.335 236.043 482.576 238.801C479.817 241.559 476.074 243.109 472.172 243.109C468.27 243.109 464.528 241.559 461.768 238.801C459.009 236.043 457.459 232.302 457.459 228.401C457.459 224.5 459.009 220.76 461.768 218.001C464.528 215.243 468.27 213.694 472.172 213.694C476.074 213.694 479.817 215.243 482.576 218.001C485.335 220.76 486.885 224.5 486.885 228.401V228.401Z" fill="black" fill-opacity="0.31373"/>
<path d="M480.198 235.572C477.436 238.33 473.692 239.881 469.788 239.882C465.884 239.884 462.141 238.337 459.381 235.581C456.622 232.825 455.073 229.087 455.075 225.188C455.076 221.289 456.629 217.549 459.391 214.791C462.152 212.033 465.897 210.482 469.801 210.48C473.705 210.479 477.448 212.026 480.207 214.782C482.967 217.537 484.516 221.276 484.514 225.175C484.512 229.074 482.96 232.814 480.198 235.572Z" fill="url(#paint6_linear_933_2602)" stroke="black" stroke-width="0.799998" stroke-linecap="round" stroke-linejoin="round"/>
<path d="M477.496 271.951C458.027 271.951 442.22 287.752 442.22 307.21C442.22 311.234 442.897 315.091 444.142 318.691H510.831C512.075 315.091 512.752 311.234 512.752 307.21C512.752 287.752 496.965 271.951 477.496 271.951V271.951Z" fill="url(#paint7_linear_933_2602)" stroke="black" stroke-width="0.8" stroke-linecap="round" stroke-linejoin="round"/>
<path d="M406.944 271.951C387.475 271.951 371.688 287.752 371.688 307.21C371.688 311.234 372.365 315.091 373.609 318.691H440.298C441.543 315.091 442.22 311.234 442.22 307.21C442.22 287.752 426.413 271.951 406.944 271.951Z" fill="url(#paint8_linear_933_2602)" stroke="black" stroke-width="0.8" stroke-linecap="round" stroke-linejoin="round"/>
<path d="M438.599 146.045C438.6 147.765 438.262 149.469 437.603 151.059C436.945 152.649 435.98 154.093 434.763 155.31C433.547 156.527 432.102 157.493 430.512 158.151C428.922 158.81 427.217 159.149 425.496 159.149C423.775 159.149 422.07 158.81 420.48 158.151C418.89 157.493 417.445 156.527 416.228 155.31C415.011 154.093 414.046 152.649 413.388 151.059C412.73 149.469 412.392 147.765 412.393 146.045C412.392 144.324 412.73 142.62 413.388 141.03C414.046 139.44 415.011 137.996 416.228 136.779C417.445 135.562 418.89 134.596 420.48 133.938C422.07 133.279 423.775 132.94 425.496 132.94C427.217 132.94 428.922 133.279 430.512 133.938C432.102 134.596 433.547 135.562 434.763 136.779C435.98 137.996 436.945 139.44 437.603 141.03C438.262 142.62 438.6 144.324 438.599 146.045V146.045Z" fill="white" stroke="black" stroke-width="0.800004" stroke-linecap="round" stroke-linejoin="round"/>
<path d="M467.619 146.045C467.62 147.765 467.281 149.469 466.623 151.059C465.965 152.649 465 154.093 463.783 155.31C462.566 156.527 461.121 157.493 459.531 158.151C457.941 158.81 456.237 159.149 454.515 159.149C452.794 159.149 451.09 158.81 449.5 158.151C447.909 157.493 446.465 156.527 445.248 155.31C444.031 154.093 443.066 152.649 442.408 151.059C441.75 149.469 441.411 147.765 441.412 146.045C441.411 144.324 441.75 142.62 442.408 141.03C443.066 139.44 444.031 137.996 445.248 136.779C446.465 135.562 447.909 134.596 449.5 133.938C451.09 133.279 452.794 132.94 454.515 132.94C456.237 132.94 457.941 133.279 459.531 133.938C461.121 134.596 462.566 135.562 463.783 136.779C465 137.996 465.965 139.44 466.623 141.03C467.281 142.62 467.62 144.324 467.619 146.045Z" fill="white" stroke="black" stroke-width="0.800004" stroke-linecap="round" stroke-linejoin="round"/>
<path d="M434.54 147.636C434.54 148.192 434.431 148.742 434.219 149.256C434.006 149.77 433.694 150.237 433.301 150.63C432.908 151.023 432.442 151.335 431.928 151.548C431.414 151.761 430.864 151.87 430.307 151.87C429.751 151.87 429.201 151.761 428.687 151.548C428.173 151.335 427.707 151.023 427.314 150.63C426.921 150.237 426.609 149.77 426.396 149.256C426.184 148.742 426.075 148.192 426.075 147.636C426.075 147.08 426.184 146.53 426.396 146.016C426.609 145.502 426.921 145.035 427.314 144.642C427.707 144.249 428.173 143.937 428.687 143.724C429.201 143.511 429.751 143.402 430.307 143.402C430.864 143.402 431.414 143.511 431.928 143.724C432.442 143.937 432.908 144.249 433.301 144.642C433.694 145.035 434.006 145.502 434.219 146.016C434.431 146.53 434.54 147.08 434.54 147.636V147.636Z" fill="black"/>
<path d="M453.899 147.636C453.899 148.192 453.79 148.742 453.577 149.256C453.365 149.77 453.053 150.237 452.66 150.63C452.267 151.023 451.801 151.335 451.287 151.548C450.773 151.761 450.222 151.87 449.666 151.87C449.11 151.87 448.56 151.761 448.046 151.548C447.532 151.335 447.066 151.023 446.672 150.63C446.279 150.237 445.968 149.77 445.755 149.256C445.543 148.742 445.434 148.192 445.434 147.636C445.434 147.08 445.543 146.53 445.755 146.016C445.968 145.502 446.279 145.035 446.672 144.642C447.066 144.249 447.532 143.937 448.046 143.724C448.56 143.511 449.11 143.402 449.666 143.402C450.222 143.402 450.773 143.511 451.287 143.724C451.801 143.937 452.267 144.249 452.66 144.642C453.053 145.035 453.365 145.502 453.577 146.016C453.79 146.53 453.899 147.08 453.899 147.636Z" fill="black"/>
<path fill-rule="evenodd" clip-rule="evenodd" d="M433.232 171.174C435.368 168.892 444.442 168.397 446.34 171.454C448.238 174.517 443.493 180.86 439.784 180.574C436.093 180.288 431.229 173.302 433.232 171.174Z" fill="black"/>
<path fill-rule="evenodd" clip-rule="evenodd" d="M409.367 124.676C407.96 104.332 386.999 99.6981 385.988 102.113C384.982 104.532 389.817 131.729 409.367 124.676Z" fill="#74401B" stroke="black" stroke-width="0.8" stroke-linejoin="round"/>
<path fill-rule="evenodd" clip-rule="evenodd" d="M469.104 124.676C470.51 104.332 491.471 99.6981 492.482 102.113C493.488 104.532 488.649 131.729 469.104 124.676Z" fill="url(#paint9_linear_933_2602)" stroke="black" stroke-width="0.8" stroke-linejoin="round"/>
<path d="M403.82 308.515C403.82 311.485 402.825 314.334 401.054 316.435C399.283 318.535 396.881 319.715 394.376 319.715C391.871 319.715 389.469 318.535 387.698 316.435C385.927 314.334 384.932 311.485 384.932 308.515C384.932 305.544 385.927 302.695 387.698 300.595C389.469 298.494 391.871 297.314 394.376 297.314C396.881 297.314 399.283 298.494 401.054 300.595C402.825 302.695 403.82 305.544 403.82 308.515V308.515Z" fill="url(#paint10_linear_933_2602)" stroke="black" stroke-width="0.734432" stroke-linecap="round" stroke-linejoin="round"/>
<path d="M427.509 308.515C427.509 311.485 426.514 314.334 424.742 316.435C422.971 318.535 420.569 319.715 418.064 319.715C415.56 319.715 413.157 318.535 411.386 316.435C409.615 314.334 408.62 311.485 408.62 308.515C408.62 305.544 409.615 302.695 411.386 300.595C413.157 298.494 415.56 297.314 418.064 297.314C420.569 297.314 422.971 298.494 424.742 300.595C426.514 302.695 427.509 305.544 427.509 308.515V308.515Z" fill="url(#paint11_linear_933_2602)" stroke="black" stroke-width="0.734432" stroke-linecap="round" stroke-linejoin="round"/>
<path d="M416.304 308.515C416.304 311.485 415.308 314.334 413.537 316.435C411.766 318.535 409.364 319.715 406.859 319.715C404.355 319.715 401.952 318.535 400.181 316.435C398.41 314.334 397.415 311.485 397.415 308.515C397.415 305.544 398.41 302.695 400.181 300.595C401.952 298.494 404.355 297.314 406.859 297.314C409.364 297.314 411.766 298.494 413.537 300.595C415.308 302.695 416.304 305.544 416.304 308.515V308.515Z" fill="url(#paint12_linear_933_2602)" stroke="black" stroke-width="0.734432" stroke-linecap="round" stroke-linejoin="round"/>
<path d="M476.492 308.515C476.492 311.485 475.497 314.334 473.726 316.435C471.955 318.535 469.553 319.715 467.048 319.715C464.543 319.715 462.141 318.535 460.37 316.435C458.599 314.334 457.604 311.485 457.604 308.515C457.604 305.544 458.599 302.695 460.37 300.595C462.141 298.494 464.543 297.314 467.048 297.314C469.553 297.314 471.955 298.494 473.726 300.595C475.497 302.695 476.492 305.544 476.492 308.515V308.515Z" fill="url(#paint13_linear_933_2602)" stroke="black" stroke-width="0.734432" stroke-linecap="round" stroke-linejoin="round"/>
<path d="M500.184 308.515C500.184 311.485 499.189 314.334 497.418 316.435C495.647 318.535 493.244 319.715 490.74 319.715C488.235 319.715 485.833 318.535 484.062 316.435C482.29 314.334 481.295 311.485 481.295 308.515C481.295 305.544 482.29 302.695 484.062 300.595C485.833 298.494 488.235 297.314 490.74 297.314C493.244 297.314 495.647 298.494 497.418 300.595C499.189 302.695 500.184 305.544 500.184 308.515V308.515Z" fill="url(#paint14_linear_933_2602)" stroke="black" stroke-width="0.734432" stroke-linecap="round" stroke-linejoin="round"/>
<path d="M488.978 308.515C488.978 311.485 487.983 314.334 486.212 316.435C484.441 318.535 482.039 319.715 479.534 319.715C477.029 319.715 474.627 318.535 472.856 316.435C471.085 314.334 470.09 311.485 470.09 308.515C470.09 305.544 471.085 302.695 472.856 300.595C474.627 298.494 477.029 297.314 479.534 297.314C482.039 297.314 484.441 298.494 486.212 300.595C487.983 302.695 488.978 305.544 488.978 308.515V308.515Z" fill="url(#paint15_linear_933_2602)" stroke="black" stroke-width="0.734432" stroke-linecap="round" stroke-linejoin="round"/>
<path d="M476.956 133.738C477.686 136.757 478.077 139.919 478.077 143.158C478.077 165.287 460.096 190.922 437.957 190.922C421.821 190.922 407.921 177.298 401.561 161.34C406.486 179.765 421.83 197.042 439.998 197.042C462.137 197.042 480.118 171.388 480.118 149.258C480.118 143.753 478.992 138.515 476.975 133.738H476.956Z" fill="black" fill-opacity="0.31373"/>
<path d="M419.179 228.706C419.835 229.084 420.419 229.572 420.897 230.142C421.376 230.712 421.74 231.352 421.969 232.026C422.197 232.701 422.286 233.396 422.23 234.073C422.174 234.749 421.974 235.393 421.642 235.969C421.309 236.544 420.851 237.039 420.293 237.426C419.735 237.813 419.088 238.083 418.39 238.223C417.691 238.362 416.954 238.367 416.221 238.238C415.489 238.108 414.774 237.847 414.118 237.468C413.463 237.09 412.879 236.602 412.4 236.032C411.922 235.462 411.558 234.822 411.329 234.148C411.1 233.473 411.011 232.778 411.068 232.102C411.124 231.425 411.324 230.781 411.656 230.206C411.988 229.63 412.447 229.135 413.004 228.748C413.562 228.361 414.209 228.091 414.908 227.951C415.606 227.812 416.343 227.807 417.076 227.936C417.809 228.066 418.524 228.327 419.179 228.706V228.706Z" fill="url(#paint16_linear_933_2602)" stroke="black" stroke-width="0.734456" stroke-linecap="round" stroke-linejoin="round"/>
<path d="M425.526 217.714C426.85 218.479 427.853 219.673 428.315 221.035C428.777 222.397 428.659 223.815 427.988 224.977C427.317 226.139 426.147 226.95 424.736 227.232C423.325 227.513 421.789 227.242 420.464 226.477C419.14 225.713 418.137 224.519 417.675 223.156C417.213 221.794 417.331 220.376 418.002 219.214C418.673 218.052 419.843 217.241 421.254 216.96C422.665 216.679 424.201 216.95 425.526 217.714V217.714Z" fill="url(#paint17_linear_933_2602)" stroke="black" stroke-width="0.734456" stroke-linecap="round" stroke-linejoin="round"/>
<path d="M425.077 224.767C426.402 225.531 427.405 226.726 427.867 228.088C428.328 229.45 428.211 230.868 427.54 232.03C426.868 233.192 425.699 234.003 424.288 234.284C422.877 234.566 421.34 234.294 420.016 233.53C418.692 232.766 417.689 231.571 417.227 230.209C416.765 228.847 416.883 227.429 417.554 226.267C418.225 225.105 419.395 224.294 420.806 224.013C422.217 223.732 423.753 224.003 425.077 224.767V224.767Z" fill="url(#paint18_linear_933_2602)" stroke="black" stroke-width="0.734456" stroke-linecap="round" stroke-linejoin="round"/>
<path d="M464.8 227.785C464.069 227.981 463.379 228.301 462.769 228.728C462.159 229.155 461.641 229.679 461.246 230.271C460.85 230.864 460.584 231.512 460.463 232.18C460.342 232.848 460.368 233.522 460.54 234.164C460.712 234.805 461.026 235.402 461.465 235.92C461.903 236.438 462.458 236.867 463.097 237.182C463.735 237.497 464.446 237.692 465.187 237.757C465.929 237.821 466.687 237.753 467.418 237.557C468.15 237.361 468.84 237.041 469.45 236.614C470.06 236.187 470.577 235.663 470.973 235.071C471.369 234.478 471.635 233.83 471.756 233.162C471.877 232.494 471.851 231.82 471.679 231.178C471.507 230.537 471.193 229.94 470.754 229.422C470.315 228.904 469.761 228.475 469.122 228.16C468.483 227.845 467.773 227.65 467.031 227.585C466.29 227.521 465.532 227.589 464.8 227.785V227.785Z" fill="url(#paint19_linear_933_2602)" stroke="black" stroke-width="0.734456" stroke-linecap="round" stroke-linejoin="round"/>
<path d="M461.52 215.527C460.788 215.723 460.098 216.043 459.488 216.47C458.878 216.897 458.36 217.421 457.965 218.013C457.569 218.606 457.303 219.254 457.182 219.922C457.061 220.59 457.087 221.264 457.259 221.906C457.431 222.547 457.745 223.144 458.184 223.662C458.623 224.18 459.177 224.608 459.816 224.924C460.455 225.239 461.165 225.434 461.907 225.499C462.648 225.563 463.406 225.495 464.138 225.299C465.615 224.903 466.893 224.009 467.692 222.813C468.491 221.616 468.745 220.216 468.398 218.92C468.051 217.624 467.131 216.539 465.841 215.902C464.551 215.266 462.997 215.131 461.52 215.527V215.527Z" fill="url(#paint20_linear_933_2602)" stroke="black" stroke-width="0.734456" stroke-linecap="round" stroke-linejoin="round"/>
<path d="M460.128 222.456C458.651 222.852 457.372 223.746 456.573 224.942C455.774 226.139 455.52 227.539 455.867 228.835C456.214 230.131 457.134 231.216 458.424 231.853C459.714 232.489 461.268 232.624 462.745 232.228C464.223 231.832 465.501 230.938 466.3 229.741C467.099 228.545 467.353 227.145 467.006 225.849C466.834 225.207 466.52 224.611 466.081 224.093C465.642 223.575 465.088 223.146 464.449 222.831C463.159 222.195 461.605 222.06 460.128 222.456V222.456Z" fill="url(#paint21_linear_933_2602)" stroke="black" stroke-width="0.734456" stroke-linecap="round" stroke-linejoin="round"/>
</g>
<defs>
<linearGradient id="paint0_linear_933_2602" x1="390.403" y1="171.176" x2="562.714" y2="171.176" gradientUnits="userSpaceOnUse">
<stop stop-color="#D07839"/>
</linearGradient>
<linearGradient id="paint1_linear_933_2602" x1="361.047" y1="238.494" x2="518.542" y2="238.494" gradientUnits="userSpaceOnUse">
<stop stop-color="#D07839"/>
</linearGradient>
<linearGradient id="paint2_linear_933_2602" x1="371.191" y1="146.498" x2="507.555" y2="146.498" gradientUnits="userSpaceOnUse">
<stop stop-color="#D07839"/>
</linearGradient>
<linearGradient id="paint3_linear_933_2602" x1="209.59" y1="265.399" x2="210.085" y2="267.02" gradientUnits="userSpaceOnUse">
<stop stop-color="#74401B"/>
</linearGradient>
<linearGradient id="paint4_linear_933_2602" x1="209.075" y1="261.844" x2="210.455" y2="266.369" gradientUnits="userSpaceOnUse">
<stop stop-color="#74401B"/>
</linearGradient>
<linearGradient id="paint5_linear_933_2602" x1="405.637" y1="-225.186" x2="416.862" y2="-222.17" gradientUnits="userSpaceOnUse">
<stop stop-color="#D07839"/>
</linearGradient>
<linearGradient id="paint6_linear_933_2602" x1="426.714" y1="-219.553" x2="437.942" y2="-216.536" gradientUnits="userSpaceOnUse">
<stop stop-color="#D07839"/>
</linearGradient>
<linearGradient id="paint7_linear_933_2602" x1="415.501" y1="-197.384" x2="442.401" y2="-190.157" gradientUnits="userSpaceOnUse">
<stop stop-color="#D07839"/>
</linearGradient>
<linearGradient id="paint8_linear_933_2602" x1="388.591" y1="-204.575" x2="415.491" y2="-197.347" gradientUnits="userSpaceOnUse">
<stop stop-color="#D07839"/>
</linearGradient>
<linearGradient id="paint9_linear_933_2602" x1="165.212" y1="281.344" x2="166.198" y2="284.575" gradientUnits="userSpaceOnUse">
<stop stop-color="#74401B"/>
</linearGradient>
<linearGradient id="paint10_linear_933_2602" x1="250.327" y1="242.732" x2="251.119" y2="245.328" gradientUnits="userSpaceOnUse">
<stop stop-color="#74401B"/>
</linearGradient>
<linearGradient id="paint11_linear_933_2602" x1="251.105" y1="246.054" x2="251.897" y2="248.651" gradientUnits="userSpaceOnUse">
<stop stop-color="#74401B"/>
</linearGradient>
<linearGradient id="paint12_linear_933_2602" x1="250.738" y1="244.483" x2="251.53" y2="247.079" gradientUnits="userSpaceOnUse">
<stop stop-color="#74401B"/>
</linearGradient>
<linearGradient id="paint13_linear_933_2602" x1="252.714" y1="252.924" x2="253.506" y2="255.521" gradientUnits="userSpaceOnUse">
<stop stop-color="#74401B"/>
</linearGradient>
<linearGradient id="paint14_linear_933_2602" x1="253.492" y1="256.247" x2="254.284" y2="258.843" gradientUnits="userSpaceOnUse">
<stop stop-color="#74401B"/>
</linearGradient>
<linearGradient id="paint15_linear_933_2602" x1="253.124" y1="254.675" x2="253.916" y2="257.272" gradientUnits="userSpaceOnUse">
<stop stop-color="#74401B"/>
</linearGradient>
<linearGradient id="paint16_linear_933_2602" x1="220.003" y1="255.907" x2="220.472" y2="257.446" gradientUnits="userSpaceOnUse">
<stop stop-color="#74401B"/>
</linearGradient>
<linearGradient id="paint17_linear_933_2602" x1="215.277" y1="258.302" x2="215.746" y2="259.841" gradientUnits="userSpaceOnUse">
<stop stop-color="#74401B"/>
</linearGradient>
<linearGradient id="paint18_linear_933_2602" x1="218.428" y1="257.273" x2="218.897" y2="258.812" gradientUnits="userSpaceOnUse">
<stop stop-color="#74401B"/>
</linearGradient>
<linearGradient id="paint19_linear_933_2602" x1="221.496" y1="262.865" x2="221.976" y2="264.438" gradientUnits="userSpaceOnUse">
<stop stop-color="#74401B"/>
</linearGradient>
<linearGradient id="paint20_linear_933_2602" x1="215.886" y1="264.083" x2="216.366" y2="265.656" gradientUnits="userSpaceOnUse">
<stop stop-color="#74401B"/>
</linearGradient>
<linearGradient id="paint21_linear_933_2602" x1="218.951" y1="262.939" x2="219.431" y2="264.512" gradientUnits="userSpaceOnUse">
<stop stop-color="#74401B"/>
</linearGradient>
<clipPath id="clip0_933_2602">
<rect width="580" height="320" fill="white"/>
</clipPath>
</defs>
</svg>
