<svg width="918" height="602" viewBox="0 0 918 602" fill="none" xmlns="http://www.w3.org/2000/svg">
<g clip-path="url(#clip0_804_191)">
<path d="M328.397 520.937C331.715 494.258 348.249 467.973 373.692 459.291C363.658 486.75 363.66 516.874 373.698 544.331C377.607 554.907 383.057 566.262 379.379 576.92C377.091 583.552 371.494 588.626 365.237 591.799C358.98 594.971 352.035 596.484 345.178 597.965L343.828 599.082C332.943 574.501 325.08 547.615 328.397 520.937Z" fill="#F0F0F0"/>
<path d="M373.944 459.795C359.127 476.397 349.918 497.245 347.625 519.379C347.046 524.135 347.221 528.952 348.143 533.654C349.189 538.205 351.435 542.393 354.647 545.782C357.578 549.003 360.949 551.958 363.047 555.835C364.091 557.835 364.7 560.034 364.835 562.286C364.97 564.539 364.627 566.795 363.829 568.905C361.977 574.216 358.327 578.545 354.611 582.655C350.485 587.217 346.127 591.891 344.373 597.94C344.161 598.673 343.036 598.3 343.248 597.569C346.3 587.045 356.516 581.067 361.388 571.588C363.661 567.165 364.615 562.03 362.484 557.361C360.62 553.278 357.147 550.228 354.15 546.993C350.969 543.732 348.634 539.742 347.35 535.371C346.191 530.732 345.831 525.929 346.284 521.169C347.133 510.435 349.664 499.902 353.785 489.955C358.426 478.577 364.978 468.076 373.16 458.907C373.666 458.339 374.447 459.232 373.944 459.795Z" fill="white"/>
<path d="M347.944 512.209C344.282 511.32 341.056 509.158 338.841 506.11C336.627 503.062 335.567 499.326 335.853 495.57C335.913 494.81 337.097 494.868 337.036 495.629C336.764 499.127 337.751 502.607 339.819 505.441C341.888 508.275 344.901 510.276 348.315 511.083C349.057 511.26 348.681 512.384 347.944 512.209Z" fill="white"/>
<path d="M352.946 544.345C359.558 540.397 364.44 534.101 366.617 526.713C366.832 525.981 367.957 526.353 367.742 527.085C365.462 534.768 360.369 541.31 353.478 545.403C352.821 545.793 352.292 544.733 352.946 544.345Z" fill="white"/>
<path d="M359.525 479.699C360.87 480.338 362.353 480.633 363.84 480.558C365.327 480.482 366.772 480.039 368.046 479.266C368.697 478.869 369.226 479.93 368.579 480.325C367.168 481.171 365.571 481.659 363.928 481.746C362.285 481.833 360.646 481.517 359.154 480.824C359.008 480.771 358.887 480.664 358.817 480.525C358.747 480.386 358.733 480.225 358.777 480.076C358.827 479.927 358.934 479.804 359.074 479.734C359.214 479.663 359.376 479.651 359.525 479.699Z" fill="white"/>
<path d="M451.245 506.941C450.845 507.201 450.445 507.461 450.044 507.731C444.686 511.255 439.623 515.208 434.905 519.551C434.535 519.881 434.165 520.221 433.805 520.561C422.549 531.147 413.357 543.73 406.695 557.671C404.049 563.221 401.829 568.965 400.055 574.851C397.605 582.981 395.595 591.991 390.745 598.641C390.246 599.341 389.705 600.009 389.125 600.641H345.294C345.195 600.591 345.095 600.551 344.995 600.501L343.245 600.581C343.315 600.271 343.395 599.951 343.465 599.641C343.505 599.461 343.555 599.281 343.595 599.101C343.625 598.981 343.655 598.861 343.675 598.751C343.685 598.711 343.695 598.671 343.705 598.641C343.725 598.531 343.755 598.431 343.775 598.331C344.215 596.541 344.668 594.751 345.135 592.961C345.135 592.951 345.135 592.951 345.145 592.941C348.735 579.311 353.495 565.861 360.145 553.561C360.345 553.191 360.544 552.811 360.765 552.441C363.793 546.914 367.268 541.643 371.155 536.681C373.292 533.971 375.565 531.371 377.965 528.891C384.178 522.495 391.359 517.116 399.245 512.951C414.965 504.651 433.165 501.471 449.965 506.541C450.395 506.671 450.815 506.801 451.245 506.941Z" fill="#F0F0F0"/>
<path d="M451.146 507.498C429.32 511.833 409.415 522.934 394.258 539.226C390.933 542.675 388.172 546.627 386.078 550.936C384.173 555.199 383.445 559.895 383.968 564.535C384.37 568.872 385.283 573.261 384.623 577.619C384.252 579.845 383.415 581.967 382.167 583.847C380.918 585.727 379.286 587.321 377.378 588.526C372.702 591.652 367.182 592.911 361.74 593.955C355.699 595.113 349.405 596.221 344.363 599.995C343.752 600.452 343.078 599.478 343.688 599.021C352.461 592.455 364.217 593.833 373.814 589.198C378.292 587.035 382.145 583.51 383.255 578.499C384.225 574.117 383.287 569.59 382.843 565.203C382.266 560.684 382.804 556.092 384.41 551.829C386.279 547.427 388.883 543.376 392.11 539.848C399.25 531.789 407.613 524.903 416.893 519.442C427.448 513.15 439.002 508.711 451.055 506.316C451.801 506.168 451.887 507.351 451.146 507.498Z" fill="white"/>
<path d="M398.83 533.693C396.442 530.779 395.168 527.111 395.234 523.343C395.301 519.576 396.705 515.956 399.194 513.128C399.7 512.558 400.61 513.317 400.104 513.888C397.781 516.517 396.474 519.89 396.419 523.398C396.364 526.906 397.565 530.318 399.804 533.018C400.291 533.605 399.314 534.277 398.83 533.693Z" fill="white"/>
<path d="M383.475 562.363C391.133 563.192 398.821 561.104 405.007 556.516C405.619 556.061 406.293 557.036 405.682 557.49C399.235 562.253 391.23 564.409 383.264 563.529C382.505 563.445 382.72 562.279 383.475 562.363Z" fill="white"/>
<path d="M427.65 514.708C428.339 516.029 429.345 517.157 430.578 517.992C431.811 518.827 433.232 519.343 434.714 519.493C435.474 519.568 435.257 520.733 434.502 520.659C432.866 520.485 431.297 519.914 429.933 518.994C428.569 518.074 427.451 516.835 426.676 515.383C426.592 515.252 426.56 515.095 426.588 514.941C426.616 514.788 426.701 514.651 426.826 514.559C426.955 514.47 427.114 514.436 427.269 514.464C427.423 514.492 427.56 514.58 427.65 514.708Z" fill="white"/>
<path d="M476.138 6.62943C474.282 6.63151 472.503 7.36967 471.19 8.68198C469.878 9.99428 469.14 11.7735 469.138 13.6294V309.629C469.14 311.485 469.878 313.264 471.19 314.577C472.503 315.889 474.282 316.627 476.138 316.629H910.138C911.993 316.627 913.773 315.889 915.085 314.577C916.397 313.264 917.135 311.485 917.138 309.629V13.6294C917.136 11.7736 916.397 9.99435 915.085 8.68207C913.773 7.36978 911.994 6.63159 910.138 6.62943H476.138Z" fill="#E6E6E6"/>
<path d="M486.138 16.6294C484.282 16.6315 482.503 17.3697 481.19 18.682C479.878 19.9943 479.14 21.7735 479.138 23.6294V299.629C479.14 301.485 479.878 303.264 481.19 304.576C482.503 305.889 484.282 306.627 486.138 306.629H900.138C901.994 306.627 903.773 305.889 905.085 304.576C906.397 303.264 907.136 301.485 907.138 299.629V23.6294C907.136 21.7736 906.397 19.9944 905.085 18.6821C903.773 17.3698 901.994 16.6316 900.138 16.6294H486.138Z" fill="white"/>
<path opacity="0.1" d="M868.124 76.9835C858.604 73.2665 848.338 82.5885 846.107 92.5624C843.877 102.536 846.731 112.851 847.36 123.052C847.988 133.253 845.315 145.098 836.213 149.749C825.748 155.096 813.472 148.144 801.768 147.085C795.925 146.621 790.06 147.647 784.721 150.065C779.382 152.484 774.744 156.217 771.239 160.915C761.586 174.158 762.077 193.388 750.654 205.138C740.729 215.348 724.556 216.677 710.672 213.52C696.788 210.362 684.025 203.504 670.373 199.46C656.721 195.417 640.918 194.572 629.219 202.688C617.005 211.16 611.57 227.767 598.162 234.184C588.682 238.721 577.459 236.99 567.314 234.243C557.169 231.496 546.939 227.789 536.465 228.671C525.992 229.552 515.073 236.779 514.243 247.257L873.705 246.253C875.337 198.807 876.97 151.361 878.604 103.915C878.958 93.6084 877.731 80.7343 868.124 76.9835Z" fill="#2FA4DA"/>
<path d="M512.524 246.089C511.994 246.089 511.485 245.878 511.11 245.503C510.735 245.128 510.524 244.62 510.524 244.089C510.524 243.559 510.735 243.05 511.11 242.675C511.485 242.3 511.994 242.089 512.524 242.089C604.939 242.089 693.074 223.585 760.694 189.986C824.102 158.479 864.508 115.754 871.551 72.7659C871.592 72.5064 871.685 72.2576 871.823 72.0338C871.961 71.81 872.142 71.6156 872.355 71.4617C872.568 71.3078 872.809 71.1975 873.065 71.137C873.321 71.0765 873.586 71.067 873.846 71.1091C874.105 71.1513 874.354 71.2442 874.578 71.3825C874.801 71.5208 874.995 71.7018 875.149 71.9152C875.302 72.1286 875.412 72.3702 875.472 72.6261C875.532 72.8821 875.541 73.1474 875.499 73.4068L875.498 73.4124C871.84 95.743 859.964 117.648 840.202 138.519C820.712 159.103 794.561 177.625 762.475 193.568C694.312 227.437 605.545 246.089 512.524 246.089Z" fill="#2FA4DA"/>
<path d="M892.138 246.493H510.138V57.765H512.138V244.493H892.138V246.493Z" fill="#E6E6E6"/>
<path d="M648.485 601.202H1.19066C0.875467 601.201 0.573504 601.075 0.350952 600.852C0.1284 600.629 0.00341797 600.327 0.00341797 600.011C0.00341797 599.696 0.1284 599.394 0.350952 599.171C0.573504 598.948 0.875467 598.822 1.19066 598.821H648.485C648.8 598.822 649.102 598.948 649.324 599.171C649.547 599.394 649.672 599.696 649.672 600.011C649.672 600.327 649.547 600.629 649.324 600.852C649.102 601.075 648.8 601.201 648.485 601.202Z" fill="#CACACA"/>
<path d="M420.251 298.323C418.903 374.717 367.56 407.92 366.716 375.666C365.669 334.869 348.076 229.059 279.024 261.507C196.442 300.309 270.887 536.657 246.981 536.657C151.335 536.657 73.71 429.888 73.71 298.323C73.71 166.769 151.335 60 246.981 60C342.626 60 422.54 168.444 420.251 298.323V298.323Z" fill="url(#paint0_linear_804_191)" stroke="black" stroke-width="0.8" stroke-linecap="round" stroke-linejoin="round"/>
<path d="M373.457 134.834C395.637 174.924 406.644 225.194 407.634 277.973C408.555 326.732 395.258 372.78 370.605 385.827C382.117 389.507 418.903 374.707 420.241 298.314C421.357 235.539 403.25 177.772 373.457 134.834ZM289.954 235.084C282.864 235.219 275.038 237.118 266.406 241.167C183.825 279.969 258.279 516.316 234.373 516.316C185.115 516.316 140.638 487.994 109.08 442.548C140.745 499.714 190.74 536.657 246.98 536.657C270.887 536.657 196.433 300.309 279.014 261.507C304.618 249.487 323.151 256.461 336.389 272.074C326.517 250.804 311.678 234.677 289.954 235.084V235.084Z" fill="black" fill-opacity="0.31373"/>
<path d="M330.457 435.249C330.457 477.197 313.787 517.428 284.113 547.09C254.44 576.753 214.194 593.417 172.229 593.417C130.264 593.417 90.0178 576.753 60.3441 547.09C30.6705 517.428 14 477.197 14 435.249C14 393.3 30.6705 353.069 60.3441 323.407C90.0178 293.744 130.264 277.08 172.229 277.08C214.194 277.08 254.44 293.744 284.113 323.407C313.787 353.069 330.457 393.3 330.457 435.249V435.249Z" fill="url(#paint1_linear_804_191)" stroke="black" stroke-width="0.799968" stroke-linecap="round" stroke-linejoin="round"/>
<path d="M172.236 277.102C155.399 277.102 139.194 279.755 123.967 284.628C137.661 281.431 152.102 279.707 167.028 279.707C207.974 279.707 245.313 292.57 273.409 313.676C245.982 290.836 210.699 277.102 172.236 277.102ZM322.085 384.345C324.16 392.791 325.266 401.508 325.266 410.458C325.266 482.638 254.371 541.209 167.028 541.209C93.9896 541.209 32.4827 500.257 14.2886 444.63C19.1377 527.591 88.0348 593.446 172.236 593.446C259.579 593.446 330.474 522.583 330.474 435.273C330.474 417.461 327.526 400.327 322.085 384.345Z" fill="black" fill-opacity="0.31373"/>
<path d="M172.236 277.102C145.255 277.102 119.835 283.853 97.5972 295.776C108.13 332.554 138.902 366.561 175.252 366.561C210.631 366.561 240.783 334.346 252.082 298.701C228.641 284.976 201.35 277.102 172.236 277.102V277.102Z" fill="black" fill-opacity="0.31373"/>
<path fill-rule="evenodd" clip-rule="evenodd" d="M280.654 145.353C261.441 145.353 222.415 155.562 215.588 182.034C215.481 182.237 215.277 182.973 215.054 184.106C202.699 176.561 188.17 172.173 172.643 172.173C156.428 172.173 141.357 176.958 128.661 185.114C128.4 183.457 128.08 182.295 127.953 182.034C121.126 155.562 82.0997 145.382 62.8776 145.372C59.8227 145.372 57.2914 145.634 55.439 146.118C45.1297 147.552 33.8408 151.668 34.6652 153.915C42.2299 152.627 46.051 154.099 45.9346 155.32C45.7019 157.606 41.1437 158.216 42.6081 166.459C45.3721 162.458 49.2224 161.083 52.2482 160.444C55.3517 179.903 68.9294 213.871 94.339 215.634C96.5212 215.789 98.5578 215.78 100.478 215.741C94.4845 227.093 91.0804 240.024 91.0804 253.749C91.0804 298.759 127.614 350.918 172.643 350.918C217.663 350.918 254.245 298.759 254.245 253.749C254.245 240.033 250.831 227.132 244.838 215.789C246.225 215.78 247.689 215.741 249.202 215.634C274.524 213.881 288.102 180.106 291.264 160.628C294.154 161.335 297.607 162.788 300.138 166.459C301.602 158.216 297.044 157.606 296.811 155.32C296.695 154.099 300.516 152.627 308.081 153.915C308.866 151.784 298.79 147.978 288.956 146.36C287.084 145.702 284.213 145.353 280.654 145.353V145.353Z" fill="url(#paint2_linear_804_191)" stroke="black" stroke-width="0.8" stroke-linejoin="round"/>
<path d="M203.746 386.892C190.226 373.38 166.165 372.692 151.85 385.391C141.773 394.215 137.758 407.765 136.439 420.599C135.508 429.849 136.061 439.777 140.813 448.02C145.585 454.142 153.896 455.43 161.189 455.798C175.727 456.447 191.089 452.941 202.708 443.749C216.712 431.748 219.981 409.402 209.701 394.089C208.023 391.473 205.996 389.062 203.746 386.892V386.892Z" fill="black" fill-opacity="0.31373"/>
<path d="M155.744 414.256C155.744 422.19 152.591 429.798 146.979 435.408C141.366 441.019 133.755 444.17 125.818 444.17C117.881 444.17 110.269 441.019 104.657 435.408C99.045 429.798 95.8921 422.19 95.8921 414.256C95.8921 406.322 99.045 398.713 104.657 393.103C110.269 387.493 117.881 384.342 125.818 384.342C133.755 384.342 141.366 387.493 146.979 393.103C152.591 398.713 155.744 406.322 155.744 414.256V414.256Z" fill="black" fill-opacity="0.31373"/>
<path d="M198.897 377.206C185.378 363.694 161.316 363.006 147.001 375.705C136.925 384.529 132.91 398.079 131.591 410.913C130.66 420.163 131.212 430.092 135.965 438.334C140.736 444.456 149.048 445.744 156.341 446.112C170.879 446.761 186.241 443.255 197.859 434.063C211.864 422.062 215.132 399.716 204.852 384.403C203.174 381.788 201.147 379.376 198.897 377.206V377.206Z" fill="#DC9A6A" stroke="black" stroke-width="0.8" stroke-linecap="round" stroke-linejoin="round"/>
<path d="M168.405 366.774C171.285 367.462 174.078 368.518 176.687 369.99C179.218 371.356 181.614 372.993 183.757 374.901C196.685 385.943 199.352 406.574 189.916 420.677C181.876 431.709 169.103 438.615 156.039 441.637C150.744 442.829 144.712 443.652 139.552 441.695C144.324 444.969 150.637 445.831 156.33 446.112C170.868 446.761 186.23 443.255 197.859 434.063C211.863 422.062 215.131 399.716 204.851 384.403C203.173 381.778 201.146 379.376 198.896 377.196C190.992 369.293 179.471 365.786 168.405 366.774V366.774Z" fill="black" fill-opacity="0.31373"/>
<path fill-rule="evenodd" clip-rule="evenodd" d="M199.256 373.806C201.923 365.534 215.375 357.892 219.361 360.769C223.347 363.655 223.657 370.513 222.949 371.53C222.251 372.537 215.055 369.428 210.516 373.177C205.987 376.916 203.707 380.112 203.707 380.112L199.256 373.806Z" fill="url(#paint3_linear_804_191)" stroke="black" stroke-width="0.8"/>
<path fill-rule="evenodd" clip-rule="evenodd" d="M222.105 364.362C222.192 365.263 222.066 366.009 221.824 366.3C221.135 367.123 214.24 366.319 209.817 369.738C205.405 373.157 203.174 375.773 203.174 375.773L199.644 372.809C199.508 373.148 199.363 373.477 199.256 373.806L203.707 380.122C203.707 380.122 205.987 376.915 210.516 373.167C215.054 369.428 222.251 372.537 222.949 371.52C223.434 370.833 223.434 367.384 222.105 364.362V364.362Z" fill="black" fill-opacity="0.31373"/>
<path d="M202.359 373.855C189.082 360.721 167.076 357.33 151.598 367.181C148.097 369.109 149.154 373.942 149.193 373.864C155.041 369.244 161.102 374.329 169.064 380.034C178.811 387.018 189.528 397.731 197.393 408.143C202.902 415.427 206.84 422.585 203.688 427.593C203.852 427.641 208.43 428.929 210.525 424.667C221.077 404.801 215.112 385.72 202.359 373.855V373.855Z" fill="url(#paint4_linear_804_191)" stroke="black" stroke-width="0.8" stroke-linecap="round" stroke-linejoin="round"/>
<path d="M201.312 372.392C205.521 383.299 204.968 393.614 199.624 403.571C198.412 405.838 196.55 405.102 194.988 405.073C195.813 406.09 196.618 407.126 197.393 408.143C202.892 415.437 206.84 422.595 203.688 427.593C203.853 427.641 208.43 428.939 210.525 424.677C220.185 406.467 215.946 386.66 201.312 372.392V372.392Z" fill="black" fill-opacity="0.31373"/>
<path d="M146.792 393.229C148.759 396.631 150.036 400.386 150.55 404.28C151.065 408.174 150.807 412.131 149.791 415.924C148.775 419.717 147.021 423.273 144.63 426.388C142.238 429.503 139.255 432.116 135.852 434.079C132.449 436.041 128.691 437.314 124.794 437.825C120.897 438.337 116.937 438.076 113.14 437.058C109.343 436.04 105.783 434.285 102.663 431.893C99.5439 429.501 96.9261 426.518 94.9594 423.116C92.9926 419.714 91.7155 415.959 91.201 412.065C90.6864 408.171 90.9444 404.214 91.9603 400.421C92.9762 396.628 94.73 393.072 97.1217 389.957C99.5134 386.842 102.496 384.229 105.899 382.266C109.303 380.304 113.06 379.031 116.957 378.52C120.854 378.008 124.814 378.269 128.612 379.287C132.409 380.305 135.969 382.06 139.088 384.452C142.208 386.844 144.825 389.827 146.792 393.229V393.229Z" fill="url(#paint5_linear_804_191)" stroke="black" stroke-width="0.800002" stroke-linecap="round" stroke-linejoin="round"/>
<path d="M268.009 414.721C268.009 422.655 264.856 430.263 259.244 435.873C253.632 441.483 246.02 444.635 238.084 444.635C230.147 444.635 222.535 441.483 216.923 435.873C211.311 430.263 208.158 422.655 208.158 414.721C208.158 406.787 211.311 399.178 216.923 393.568C222.535 387.958 230.147 384.807 238.084 384.807C246.02 384.807 253.632 387.958 259.244 393.568C264.856 399.178 268.009 406.787 268.009 414.721V414.721Z" fill="black" fill-opacity="0.31373"/>
<path d="M254.407 429.305C248.79 434.915 241.174 438.069 233.233 438.072C225.293 438.076 217.679 434.929 212.067 429.324C206.455 423.719 203.304 416.115 203.308 408.185C203.311 400.255 206.469 392.648 212.086 387.038C217.703 381.428 225.319 378.275 233.26 378.271C241.2 378.268 248.813 381.414 254.426 387.019C260.038 392.624 263.189 400.228 263.185 408.159C263.182 416.089 260.024 423.695 254.407 429.305Z" fill="url(#paint6_linear_804_191)" stroke="black" stroke-width="0.799998" stroke-linecap="round" stroke-linejoin="round"/>
<path d="M248.911 503.298C209.313 503.298 177.163 535.436 177.163 575.013C177.163 583.198 178.54 591.043 181.072 598.366H316.713C319.244 591.043 320.621 583.198 320.621 575.013C320.621 535.436 288.51 503.298 248.911 503.298V503.298Z" fill="url(#paint7_linear_804_191)" stroke="black" stroke-width="0.8" stroke-linecap="round" stroke-linejoin="round"/>
<path d="M105.414 503.298C65.8153 503.298 33.7041 535.436 33.7041 575.013C33.7041 583.198 35.0813 591.043 37.6125 598.366H173.254C175.785 591.043 177.162 583.198 177.162 575.013C177.162 535.436 145.012 503.298 105.414 503.298Z" fill="url(#paint8_linear_804_191)" stroke="black" stroke-width="0.8" stroke-linecap="round" stroke-linejoin="round"/>
<path d="M169.798 247.213C169.799 250.712 169.111 254.178 167.773 257.412C166.434 260.645 164.471 263.584 161.996 266.059C159.521 268.534 156.583 270.497 153.348 271.837C150.114 273.177 146.647 273.866 143.146 273.866C139.645 273.866 136.179 273.177 132.945 271.837C129.71 270.497 126.772 268.534 124.297 266.059C121.822 263.584 119.859 260.645 118.52 257.412C117.182 254.178 116.493 250.712 116.495 247.213C116.493 243.713 117.182 240.247 118.52 237.014C119.859 233.78 121.822 230.842 124.297 228.367C126.772 225.891 129.71 223.928 132.945 222.588C136.179 221.249 139.645 220.559 143.146 220.559C146.647 220.559 150.114 221.249 153.348 222.588C156.583 223.928 159.521 225.891 161.996 228.367C164.471 230.842 166.434 233.78 167.773 237.014C169.111 240.247 169.799 243.713 169.798 247.213V247.213Z" fill="white" stroke="black" stroke-width="0.800004" stroke-linecap="round" stroke-linejoin="round"/>
<path d="M228.823 247.213C228.824 250.712 228.136 254.178 226.798 257.412C225.459 260.645 223.496 263.584 221.021 266.059C218.546 268.534 215.608 270.497 212.373 271.837C209.139 273.177 205.672 273.866 202.171 273.866C198.67 273.866 195.204 273.177 191.969 271.837C188.735 270.497 185.797 268.534 183.322 266.059C180.847 263.584 178.884 260.645 177.545 257.412C176.207 254.178 175.518 250.712 175.52 247.213C175.518 243.713 176.207 240.247 177.545 237.014C178.884 233.78 180.847 230.842 183.322 228.367C185.797 225.891 188.735 223.928 191.969 222.588C195.204 221.249 198.67 220.559 202.171 220.559C205.672 220.559 209.139 221.249 212.373 222.588C215.608 223.928 218.546 225.891 221.021 228.367C223.496 230.842 225.459 233.78 226.798 237.014C228.136 240.247 228.824 243.713 228.823 247.213Z" fill="white" stroke="black" stroke-width="0.800004" stroke-linecap="round" stroke-linejoin="round"/>
<path d="M161.541 250.449C161.542 251.58 161.32 252.7 160.888 253.745C160.456 254.789 159.822 255.739 159.022 256.539C158.223 257.338 157.274 257.973 156.229 258.406C155.184 258.839 154.064 259.061 152.933 259.061C151.802 259.061 150.682 258.839 149.637 258.406C148.592 257.973 147.643 257.338 146.843 256.539C146.044 255.739 145.41 254.789 144.978 253.745C144.546 252.7 144.324 251.58 144.325 250.449C144.324 249.319 144.546 248.199 144.978 247.154C145.41 246.11 146.044 245.16 146.843 244.36C147.643 243.561 148.592 242.926 149.637 242.493C150.682 242.06 151.802 241.838 152.933 241.838C154.064 241.838 155.184 242.06 156.229 242.493C157.274 242.926 158.223 243.561 159.022 244.36C159.822 245.16 160.456 246.11 160.888 247.154C161.32 248.199 161.542 249.319 161.541 250.449V250.449Z" fill="black"/>
<path d="M200.917 250.449C200.917 251.58 200.696 252.7 200.263 253.745C199.831 254.789 199.197 255.739 198.398 256.539C197.598 257.338 196.649 257.973 195.604 258.406C194.559 258.839 193.439 259.061 192.308 259.061C191.177 259.061 190.057 258.839 189.013 258.406C187.968 257.973 187.018 257.338 186.219 256.539C185.42 255.739 184.786 254.789 184.353 253.745C183.921 252.7 183.699 251.58 183.7 250.449C183.699 249.319 183.921 248.199 184.353 247.154C184.786 246.11 185.42 245.16 186.219 244.36C187.018 243.561 187.968 242.926 189.013 242.493C190.057 242.06 191.177 241.838 192.308 241.838C193.439 241.838 194.559 242.06 195.604 242.493C196.649 242.926 197.598 243.561 198.398 244.36C199.197 245.16 199.831 246.11 200.263 247.154C200.696 248.199 200.917 249.319 200.917 250.449Z" fill="black"/>
<path fill-rule="evenodd" clip-rule="evenodd" d="M158.881 298.323C163.226 293.684 181.682 292.677 185.542 298.895C189.402 305.123 179.752 318.025 172.207 317.444C164.7 316.862 154.808 302.653 158.881 298.323Z" fill="black"/>
<path fill-rule="evenodd" clip-rule="evenodd" d="M110.34 203.75C107.479 162.371 64.8455 152.947 62.7895 157.857C60.7431 162.778 70.5772 218.095 110.34 203.75Z" fill="#74401B" stroke="black" stroke-width="0.8" stroke-linejoin="round"/>
<path fill-rule="evenodd" clip-rule="evenodd" d="M231.842 203.75C234.703 162.371 277.337 152.947 279.393 157.857C281.439 162.778 271.595 218.095 231.842 203.75Z" fill="url(#paint9_linear_804_191)" stroke="black" stroke-width="0.8" stroke-linejoin="round"/>
<path d="M99.0588 577.667C99.0588 583.709 97.035 589.503 93.4326 593.776C89.8302 598.048 84.9443 600.448 79.8497 600.448C74.7551 600.448 69.8692 598.048 66.2668 593.776C62.6644 589.503 60.6406 583.709 60.6406 577.667C60.6406 571.625 62.6644 565.83 66.2668 561.558C69.8692 557.286 74.7551 554.885 79.8497 554.885C84.9443 554.885 89.8302 557.286 93.4326 561.558C97.035 565.83 99.0588 571.625 99.0588 577.667V577.667Z" fill="url(#paint10_linear_804_191)" stroke="black" stroke-width="0.734432" stroke-linecap="round" stroke-linejoin="round"/>
<path d="M147.241 577.667C147.241 583.709 145.217 589.503 141.615 593.776C138.012 598.048 133.126 600.448 128.032 600.448C122.937 600.448 118.051 598.048 114.449 593.776C110.847 589.503 108.823 583.709 108.823 577.667C108.823 571.625 110.847 565.83 114.449 561.558C118.051 557.286 122.937 554.885 128.032 554.885C133.126 554.885 138.012 557.286 141.615 561.558C145.217 565.83 147.241 571.625 147.241 577.667V577.667Z" fill="url(#paint11_linear_804_191)" stroke="black" stroke-width="0.734432" stroke-linecap="round" stroke-linejoin="round"/>
<path d="M124.449 577.667C124.449 583.709 122.425 589.503 118.823 593.776C115.221 598.048 110.335 600.448 105.24 600.448C100.146 600.448 95.2598 598.048 91.6574 593.776C88.055 589.503 86.0312 583.709 86.0312 577.667C86.0312 571.625 88.055 565.83 91.6574 561.558C95.2598 557.286 100.146 554.885 105.24 554.885C110.335 554.885 115.221 557.286 118.823 561.558C122.425 565.83 124.449 571.625 124.449 577.667V577.667Z" fill="url(#paint12_linear_804_191)" stroke="black" stroke-width="0.734432" stroke-linecap="round" stroke-linejoin="round"/>
<path d="M246.871 577.667C246.871 583.709 244.847 589.503 241.244 593.776C237.642 598.048 232.756 600.448 227.662 600.448C222.567 600.448 217.681 598.048 214.079 593.776C210.476 589.503 208.453 583.709 208.453 577.667C208.453 571.625 210.476 565.83 214.079 561.558C217.681 557.286 222.567 554.885 227.662 554.885C232.756 554.885 237.642 557.286 241.244 561.558C244.847 565.83 246.871 571.625 246.871 577.667V577.667Z" fill="url(#paint13_linear_804_191)" stroke="black" stroke-width="0.734432" stroke-linecap="round" stroke-linejoin="round"/>
<path d="M295.057 577.667C295.057 583.709 293.033 589.503 289.431 593.776C285.828 598.048 280.942 600.448 275.848 600.448C270.753 600.448 265.867 598.048 262.265 593.776C258.662 589.503 256.639 583.709 256.639 577.667C256.639 571.625 258.662 565.83 262.265 561.558C265.867 557.286 270.753 554.885 275.848 554.885C280.942 554.885 285.828 557.286 289.431 561.558C293.033 565.83 295.057 571.625 295.057 577.667V577.667Z" fill="url(#paint14_linear_804_191)" stroke="black" stroke-width="0.734432" stroke-linecap="round" stroke-linejoin="round"/>
<path d="M272.266 577.667C272.266 583.709 270.242 589.503 266.64 593.776C263.037 598.048 258.151 600.448 253.057 600.448C247.962 600.448 243.076 598.048 239.474 593.776C235.871 589.503 233.848 583.709 233.848 577.667C233.848 571.625 235.871 565.83 239.474 561.558C243.076 557.286 247.962 554.885 253.057 554.885C258.151 554.885 263.037 557.286 266.64 561.558C270.242 565.83 272.266 571.625 272.266 577.667V577.667Z" fill="url(#paint15_linear_804_191)" stroke="black" stroke-width="0.734432" stroke-linecap="round" stroke-linejoin="round"/>
<path d="M247.815 222.182C249.298 228.323 250.094 234.754 250.094 241.341C250.094 286.352 213.521 338.491 168.492 338.491C135.673 338.491 107.402 310.78 94.4644 278.322C104.483 315.797 135.692 350.938 172.643 350.938C217.672 350.938 254.245 298.759 254.245 253.749C254.245 242.552 251.956 231.897 247.853 222.182H247.815Z" fill="black" fill-opacity="0.31373"/>
<path d="M130.299 415.34C131.632 416.11 132.82 417.102 133.793 418.261C134.767 419.42 135.507 420.723 135.972 422.094C136.437 423.466 136.618 424.88 136.503 426.256C136.389 427.632 135.983 428.942 135.307 430.112C134.631 431.283 133.699 432.29 132.564 433.077C131.429 433.863 130.114 434.414 128.693 434.697C127.272 434.981 125.773 434.991 124.282 434.728C122.792 434.464 121.338 433.933 120.004 433.163C118.671 432.394 117.484 431.401 116.51 430.242C115.537 429.083 114.796 427.781 114.331 426.409C113.866 425.037 113.686 423.623 113.8 422.247C113.914 420.872 114.321 419.561 114.997 418.391C115.672 417.221 116.604 416.213 117.739 415.427C118.874 414.64 120.19 414.089 121.61 413.806C123.031 413.523 124.53 413.512 126.021 413.776C127.511 414.039 128.965 414.57 130.299 415.34V415.34Z" fill="url(#paint16_linear_804_191)" stroke="black" stroke-width="0.734456" stroke-linecap="round" stroke-linejoin="round"/>
<path d="M143.207 392.985C145.9 394.539 147.941 396.969 148.88 399.739C149.819 402.509 149.58 405.394 148.215 407.757C146.85 410.121 144.471 411.77 141.601 412.342C138.731 412.914 135.606 412.362 132.913 410.808C130.219 409.253 128.179 406.824 127.24 404.054C126.3 401.283 126.54 398.399 127.905 396.036C129.27 393.672 131.649 392.023 134.519 391.451C137.388 390.879 140.514 391.43 143.207 392.985V392.985Z" fill="url(#paint17_linear_804_191)" stroke="black" stroke-width="0.734456" stroke-linecap="round" stroke-linejoin="round"/>
<path d="M142.295 407.33C144.988 408.884 147.029 411.314 147.968 414.084C148.907 416.854 148.668 419.739 147.303 422.102C145.938 424.466 143.559 426.115 140.689 426.687C137.819 427.259 134.694 426.707 132.001 425.153C129.307 423.598 127.267 421.169 126.327 418.399C125.388 415.628 125.628 412.744 126.993 410.381C128.358 408.017 130.737 406.368 133.607 405.796C136.476 405.224 139.602 405.775 142.295 407.33V407.33Z" fill="url(#paint18_linear_804_191)" stroke="black" stroke-width="0.734456" stroke-linecap="round" stroke-linejoin="round"/>
<path d="M223.089 413.467C221.602 413.865 220.198 414.517 218.957 415.385C217.717 416.253 216.664 417.32 215.859 418.524C215.055 419.729 214.514 421.049 214.267 422.407C214.021 423.765 214.074 425.136 214.424 426.441C214.773 427.746 215.413 428.96 216.305 430.013C217.197 431.067 218.325 431.939 219.624 432.579C220.923 433.22 222.368 433.618 223.876 433.749C225.385 433.88 226.926 433.742 228.414 433.343C229.902 432.945 231.306 432.293 232.546 431.425C233.787 430.557 234.84 429.491 235.644 428.286C236.449 427.081 236.99 425.762 237.236 424.403C237.482 423.045 237.429 421.674 237.08 420.369C236.73 419.064 236.091 417.85 235.199 416.797C234.306 415.744 233.178 414.872 231.879 414.231C230.58 413.59 229.135 413.192 227.627 413.061C226.119 412.93 224.577 413.068 223.089 413.467V413.467Z" fill="url(#paint19_linear_804_191)" stroke="black" stroke-width="0.734456" stroke-linecap="round" stroke-linejoin="round"/>
<path d="M216.417 388.535C214.929 388.934 213.525 389.586 212.284 390.453C211.044 391.321 209.991 392.388 209.186 393.593C208.382 394.798 207.841 396.117 207.595 397.475C207.348 398.834 207.401 400.204 207.751 401.51C208.101 402.815 208.74 404.029 209.632 405.082C210.524 406.135 211.652 407.007 212.951 407.648C214.25 408.289 215.695 408.686 217.203 408.817C218.712 408.948 220.254 408.811 221.741 408.412C224.745 407.607 227.346 405.787 228.971 403.354C230.596 400.921 231.113 398.073 230.407 395.437C229.701 392.801 227.83 390.593 225.206 389.299C222.583 388.005 219.421 387.73 216.417 388.535V388.535Z" fill="url(#paint20_linear_804_191)" stroke="black" stroke-width="0.734456" stroke-linecap="round" stroke-linejoin="round"/>
<path d="M213.585 402.628C210.581 403.433 207.98 405.253 206.355 407.686C204.73 410.119 204.213 412.967 204.92 415.603C205.626 418.239 207.496 420.447 210.12 421.741C212.744 423.035 215.905 423.31 218.91 422.505C221.914 421.7 224.515 419.88 226.14 417.447C227.765 415.014 228.281 412.166 227.575 409.53C227.226 408.225 226.586 407.011 225.694 405.958C224.802 404.905 223.674 404.033 222.375 403.392C219.751 402.098 216.589 401.823 213.585 402.628V402.628Z" fill="url(#paint21_linear_804_191)" stroke="black" stroke-width="0.734456" stroke-linecap="round" stroke-linejoin="round"/>
</g>
<defs>
<linearGradient id="paint0_linear_804_191" x1="71.7703" y1="298.328" x2="422.239" y2="298.328" gradientUnits="userSpaceOnUse">
<stop stop-color="#D07839"/>
</linearGradient>
<linearGradient id="paint1_linear_804_191" x1="12.0613" y1="435.249" x2="332.396" y2="435.249" gradientUnits="userSpaceOnUse">
<stop stop-color="#D07839"/>
</linearGradient>
<linearGradient id="paint2_linear_804_191" x1="32.6944" y1="248.136" x2="310.051" y2="248.136" gradientUnits="userSpaceOnUse">
<stop stop-color="#D07839"/>
</linearGradient>
<linearGradient id="paint3_linear_804_191" x1="-295.992" y1="489.972" x2="-294.986" y2="493.27" gradientUnits="userSpaceOnUse">
<stop stop-color="#74401B"/>
</linearGradient>
<linearGradient id="paint4_linear_804_191" x1="-297.041" y1="482.742" x2="-294.233" y2="491.944" gradientUnits="userSpaceOnUse">
<stop stop-color="#74401B"/>
</linearGradient>
<linearGradient id="paint5_linear_804_191" x1="102.754" y1="-507.847" x2="125.586" y2="-501.712" gradientUnits="userSpaceOnUse">
<stop stop-color="#D07839"/>
</linearGradient>
<linearGradient id="paint6_linear_804_191" x1="145.624" y1="-496.39" x2="168.46" y2="-490.254" gradientUnits="userSpaceOnUse">
<stop stop-color="#D07839"/>
</linearGradient>
<linearGradient id="paint7_linear_804_191" x1="122.818" y1="-451.299" x2="177.531" y2="-436.599" gradientUnits="userSpaceOnUse">
<stop stop-color="#D07839"/>
</linearGradient>
<linearGradient id="paint8_linear_804_191" x1="68.0843" y1="-465.924" x2="122.797" y2="-451.223" gradientUnits="userSpaceOnUse">
<stop stop-color="#D07839"/>
</linearGradient>
<linearGradient id="paint9_linear_804_191" x1="-386.254" y1="522.402" x2="-384.25" y2="528.974" gradientUnits="userSpaceOnUse">
<stop stop-color="#74401B"/>
</linearGradient>
<linearGradient id="paint10_linear_804_191" x1="-213.137" y1="443.868" x2="-211.526" y2="449.15" gradientUnits="userSpaceOnUse">
<stop stop-color="#74401B"/>
</linearGradient>
<linearGradient id="paint11_linear_804_191" x1="-211.552" y1="450.626" x2="-209.941" y2="455.907" gradientUnits="userSpaceOnUse">
<stop stop-color="#74401B"/>
</linearGradient>
<linearGradient id="paint12_linear_804_191" x1="-212.301" y1="447.429" x2="-210.69" y2="452.711" gradientUnits="userSpaceOnUse">
<stop stop-color="#74401B"/>
</linearGradient>
<linearGradient id="paint13_linear_804_191" x1="-208.28" y1="464.599" x2="-206.669" y2="469.88" gradientUnits="userSpaceOnUse">
<stop stop-color="#74401B"/>
</linearGradient>
<linearGradient id="paint14_linear_804_191" x1="-206.699" y1="471.357" x2="-205.088" y2="476.638" gradientUnits="userSpaceOnUse">
<stop stop-color="#74401B"/>
</linearGradient>
<linearGradient id="paint15_linear_804_191" x1="-207.448" y1="468.16" x2="-205.837" y2="473.442" gradientUnits="userSpaceOnUse">
<stop stop-color="#74401B"/>
</linearGradient>
<linearGradient id="paint16_linear_804_191" x1="-274.814" y1="470.666" x2="-273.859" y2="473.796" gradientUnits="userSpaceOnUse">
<stop stop-color="#74401B"/>
</linearGradient>
<linearGradient id="paint17_linear_804_191" x1="-284.425" y1="475.537" x2="-283.471" y2="478.667" gradientUnits="userSpaceOnUse">
<stop stop-color="#74401B"/>
</linearGradient>
<linearGradient id="paint18_linear_804_191" x1="-278.017" y1="473.445" x2="-277.062" y2="476.575" gradientUnits="userSpaceOnUse">
<stop stop-color="#74401B"/>
</linearGradient>
<linearGradient id="paint19_linear_804_191" x1="-271.776" y1="484.818" x2="-270.8" y2="488.017" gradientUnits="userSpaceOnUse">
<stop stop-color="#74401B"/>
</linearGradient>
<linearGradient id="paint20_linear_804_191" x1="-283.186" y1="487.296" x2="-282.21" y2="490.495" gradientUnits="userSpaceOnUse">
<stop stop-color="#74401B"/>
</linearGradient>
<linearGradient id="paint21_linear_804_191" x1="-276.953" y1="484.969" x2="-275.977" y2="488.168" gradientUnits="userSpaceOnUse">
<stop stop-color="#74401B"/>
</linearGradient>
<clipPath id="clip0_804_191">
<rect width="917.138" height="601.202" fill="white"/>
</clipPath>
</defs>
</svg>
