<svg width="905" height="588" viewBox="0 0 905 588" fill="none" xmlns="http://www.w3.org/2000/svg">
<g clip-path="url(#clip0_330_296)">
<path d="M246.148 355.839C339.484 355.839 415.148 280.176 415.148 186.839C415.148 93.5034 339.484 17.8395 246.148 17.8395C152.812 17.8395 77.1482 93.5034 77.1482 186.839C77.1482 280.176 152.812 355.839 246.148 355.839Z" fill="#F2F2F2"/>
<path d="M442.148 350.839C459.821 350.839 474.148 336.513 474.148 318.839C474.148 301.166 459.821 286.839 442.148 286.839C424.475 286.839 410.148 301.166 410.148 318.839C410.148 336.513 424.475 350.839 442.148 350.839Z" fill="#F2F2F2"/>
<path d="M603.148 422.839C610.328 422.839 616.148 417.019 616.148 409.839C616.148 402.66 610.328 396.839 603.148 396.839C595.968 396.839 590.148 402.66 590.148 409.839C590.148 417.019 595.968 422.839 603.148 422.839Z" fill="#F2F2F2"/>
<path d="M703.522 460.97C698.04 419.078 671.792 377.936 631.721 364.548C647.766 407.6 648.065 454.94 632.567 498.192C626.529 514.85 618.079 532.75 623.966 549.463C627.628 559.862 636.476 567.78 646.341 572.703C656.206 577.626 667.134 579.932 677.926 582.192L680.058 583.932C696.918 545.193 709.004 502.862 703.522 460.97Z" fill="#F2F2F2"/>
<path d="M631.329 365.343C654.781 391.284 669.463 423.955 673.29 458.716C674.064 466.168 674.201 473.794 672.618 481.155C671.02 488.317 667.533 494.921 662.52 500.28C657.946 505.371 652.677 510.048 649.42 516.162C645.987 522.607 645.9 529.904 648.323 536.711C651.286 545.039 657.065 551.805 662.947 558.226C669.477 565.355 676.373 572.656 679.19 582.144C679.531 583.294 681.295 582.697 680.954 581.549C676.053 565.041 659.938 555.749 652.186 540.902C648.569 533.974 647.018 525.914 650.32 518.555C653.208 512.12 658.636 507.292 663.312 502.178C668.222 496.807 671.976 490.926 673.883 483.845C675.835 476.602 675.995 468.954 675.415 461.515C673.972 444.655 669.888 428.128 663.312 412.537C655.905 394.702 645.502 378.266 632.552 363.939C631.75 363.052 630.532 364.463 631.329 365.343Z" fill="white"/>
<path d="M672.716 447.45C678.461 446.017 683.509 442.587 686.959 437.775C690.409 432.963 692.036 427.081 691.55 421.18C691.447 419.986 689.587 420.09 689.69 421.285C690.153 426.779 688.637 432.258 685.415 436.732C682.194 441.207 677.478 444.383 672.121 445.686C670.957 445.97 671.559 447.733 672.716 447.45Z" fill="white"/>
<path d="M665.179 498.004C654.747 491.866 647.013 482.021 643.517 470.433C643.172 469.284 641.408 469.881 641.752 471.028C645.413 483.08 653.483 493.309 664.352 499.673C665.389 500.278 666.21 498.607 665.179 498.004Z" fill="white"/>
<path d="M654.189 396.477C652.082 397.495 649.755 397.974 647.417 397.87C645.079 397.766 642.803 397.084 640.794 395.883C639.766 395.265 638.946 396.937 639.968 397.552C642.193 398.868 644.707 399.619 647.29 399.739C649.873 399.859 652.446 399.345 654.784 398.242C655.013 398.156 655.201 397.987 655.31 397.767C655.418 397.548 655.439 397.296 655.369 397.062C655.289 396.829 655.12 396.636 654.899 396.527C654.678 396.418 654.423 396.4 654.189 396.477Z" fill="white"/>
<path d="M510.323 440.212C510.954 440.617 511.585 441.021 512.217 441.442C520.673 446.925 528.67 453.086 536.128 459.865C536.713 460.38 537.298 460.91 537.867 461.441C555.662 477.963 570.234 497.646 580.844 519.488C585.058 528.183 588.604 537.186 591.452 546.42C595.385 559.172 598.634 573.311 606.323 583.713C607.113 584.807 607.97 585.851 608.889 586.839L677.769 586.399C677.925 586.319 678.082 586.255 678.239 586.175L680.99 586.284C680.876 585.797 680.748 585.295 680.634 584.809C680.569 584.526 680.489 584.244 680.425 583.961C680.377 583.773 680.328 583.585 680.295 583.412C680.28 583.349 680.263 583.287 680.247 583.24C680.215 583.067 680.166 582.91 680.134 582.753C679.424 579.944 678.694 577.136 677.943 574.328C677.943 574.312 677.943 574.312 677.927 574.296C672.148 552.912 664.532 531.823 653.958 512.56C653.64 511.981 653.322 511.386 652.972 510.806C648.158 502.15 642.644 493.902 636.485 486.144C633.099 481.906 629.501 477.843 625.705 473.97C615.875 463.981 604.536 455.6 592.102 449.134C567.314 436.248 538.681 431.434 512.33 439.571C511.656 439.779 510.996 439.988 510.323 440.212Z" fill="#F2F2F2"/>
<path d="M510.483 441.085C544.826 447.678 576.219 464.924 600.203 490.375C605.308 495.858 610.009 501.866 613.177 508.695C616.213 515.376 617.405 522.748 616.628 530.046C616.041 536.864 614.651 543.771 615.731 550.614C616.87 557.826 621.195 563.705 627.227 567.682C634.607 572.547 643.295 574.47 651.857 576.055C661.363 577.816 671.264 579.494 679.226 585.373C680.191 586.086 681.24 584.547 680.277 583.836C666.424 573.606 647.963 575.89 632.835 568.702C625.776 565.348 619.684 559.847 617.89 551.983C616.322 545.106 617.75 537.983 618.404 531.084C619.091 523.84 618.546 516.884 615.807 510.082C613.004 503.124 608.527 496.92 603.585 491.33C592.283 478.738 579.071 468 564.434 459.511C547.782 449.731 529.579 442.87 510.614 439.228C509.44 439.003 509.317 440.862 510.483 441.085Z" fill="white"/>
<path d="M592.963 481.725C596.686 477.122 598.652 471.344 598.51 465.425C598.367 459.506 596.125 453.83 592.184 449.411C591.383 448.52 589.96 449.722 590.762 450.614C594.44 454.722 596.528 460.01 596.649 465.522C596.771 471.034 594.918 476.409 591.425 480.675C590.667 481.603 592.209 482.648 592.963 481.725Z" fill="white"/>
<path d="M617.382 526.628C605.357 528.007 593.253 524.803 583.485 517.656C582.518 516.947 581.469 518.485 582.435 519.193C592.614 526.612 605.216 529.921 617.726 528.458C618.918 528.317 618.567 526.488 617.382 526.628Z" fill="white"/>
<path d="M547.48 452.181C546.41 454.262 544.841 456.046 542.911 457.37C540.982 458.695 538.754 459.52 536.428 459.771C535.234 459.896 535.586 461.725 536.772 461.601C539.341 461.312 541.801 460.398 543.935 458.939C546.07 457.48 547.815 455.52 549.018 453.231C549.149 453.025 549.197 452.777 549.152 452.536C549.106 452.296 548.971 452.082 548.774 451.937C548.57 451.799 548.319 451.748 548.077 451.793C547.835 451.839 547.62 451.978 547.48 452.181Z" fill="white"/>
<path d="M381.247 404.844C300.473 404.848 230.195 344.592 219.812 262.406L221.797 262.155C232.051 343.326 301.473 402.839 381.249 402.844C388.027 402.844 394.798 402.416 401.522 401.564C489.508 390.449 552.047 309.825 540.931 221.839L542.916 221.588C554.169 310.668 490.853 392.296 401.773 403.549C394.965 404.41 388.11 404.843 381.247 404.844Z" fill="#3F3D56"/>
<path d="M385.585 438.292H353.781C353.101 438.294 352.43 438.141 351.818 437.846C351.206 437.551 350.669 437.122 350.246 436.59C349.829 436.071 349.535 435.464 349.385 434.816C349.236 434.167 349.235 433.493 349.383 432.844C352.401 419.525 352.223 405.68 348.863 392.443C348.634 391.529 348.699 390.565 349.05 389.69C349.4 388.815 350.018 388.073 350.815 387.569C361.817 380.754 373.798 380.966 387.443 388.221C388.063 388.548 388.599 389.013 389.01 389.582C389.421 390.15 389.695 390.805 389.811 391.496C392.07 405.709 392.149 420.184 390.045 434.421C389.895 435.496 389.361 436.481 388.541 437.193C387.721 437.905 386.671 438.295 385.585 438.292Z" fill="#2FA4DA"/>
<path d="M240.585 268.292H208.781C208.101 268.293 207.43 268.141 206.818 267.846C206.206 267.551 205.669 267.122 205.246 266.589C204.829 266.071 204.535 265.464 204.385 264.816C204.236 264.167 204.235 263.493 204.384 262.844C207.413 249.479 207.222 235.585 203.828 222.308C203.614 221.433 203.666 220.515 203.977 219.671C204.289 218.826 204.847 218.094 205.578 217.569C221.931 205.808 234.81 206.149 243.857 218.586C244.265 219.152 244.536 219.806 244.649 220.495C247.066 235.027 247.2 249.847 245.045 264.42C244.895 265.496 244.361 266.481 243.541 267.193C242.721 267.905 241.671 268.295 240.585 268.292Z" fill="#CCCCCC"/>
<path d="M370.725 408.443H359.784C359.18 408.442 358.601 408.201 358.174 407.773C357.747 407.346 357.508 406.766 357.508 406.162C357.508 405.558 357.747 404.979 358.174 404.551C358.601 404.123 359.18 403.882 359.784 403.881H370.725C371.33 403.881 371.91 404.121 372.338 404.549C372.765 404.977 373.006 405.557 373.006 406.162C373.006 406.767 372.765 407.347 372.338 407.775C371.91 408.203 371.33 408.443 370.725 408.443Z" fill="white"/>
<path d="M384.102 417.457H359.784C359.18 417.455 358.601 417.214 358.174 416.787C357.747 416.359 357.508 415.78 357.508 415.175C357.508 414.571 357.747 413.992 358.174 413.564C358.601 413.137 359.18 412.896 359.784 412.894H384.102C384.706 412.896 385.285 413.137 385.712 413.564C386.138 413.992 386.378 414.571 386.378 415.175C386.378 415.78 386.138 416.359 385.712 416.787C385.285 417.214 384.706 417.455 384.102 417.457Z" fill="white"/>
<path d="M230.725 236.443H219.784C219.18 236.442 218.601 236.201 218.174 235.773C217.747 235.346 217.508 234.766 217.508 234.162C217.508 233.558 217.747 232.979 218.174 232.551C218.601 232.123 219.18 231.882 219.784 231.881H230.725C231.329 231.882 231.908 232.123 232.335 232.551C232.761 232.979 233.001 233.558 233.001 234.162C233.001 234.766 232.761 235.346 232.335 235.773C231.908 236.201 231.329 236.442 230.725 236.443Z" fill="white"/>
<path d="M230.725 244.443H219.784C219.18 244.442 218.601 244.201 218.174 243.773C217.747 243.346 217.508 242.766 217.508 242.162C217.508 241.558 217.747 240.979 218.174 240.551C218.601 240.123 219.18 239.882 219.784 239.881H230.725C231.329 239.882 231.908 240.123 232.335 240.551C232.761 240.979 233.001 241.558 233.001 242.162C233.001 242.766 232.761 243.346 232.335 243.773C231.908 244.201 231.329 244.442 230.725 244.443Z" fill="white"/>
<path d="M230.725 252.443H219.784C219.18 252.442 218.601 252.201 218.174 251.773C217.747 251.346 217.508 250.766 217.508 250.162C217.508 249.558 217.747 248.979 218.174 248.551C218.601 248.123 219.18 247.882 219.784 247.881H230.725C231.329 247.882 231.908 248.123 232.335 248.551C232.761 248.979 233.001 249.558 233.001 250.162C233.001 250.766 232.761 251.346 232.335 251.773C231.908 252.201 231.329 252.442 230.725 252.443Z" fill="white"/>
<path d="M668.626 305.865H566.961C564.237 305.862 561.625 304.778 559.698 302.852C557.771 300.925 556.688 298.313 556.685 295.588V232.972C556.688 230.248 557.771 227.636 559.698 225.709C561.625 223.782 564.237 222.699 566.961 222.696H668.626C671.351 222.699 673.963 223.782 675.89 225.709C677.816 227.636 678.9 230.248 678.903 232.972V295.588C678.9 298.313 677.816 300.925 675.89 302.852C673.963 304.778 671.351 305.862 668.626 305.865Z" fill="#E6E6E6"/>
<path d="M628.233 297.8H574.108C571.556 297.797 569.109 296.782 567.305 294.978C565.501 293.174 564.486 290.727 564.483 288.175V240.385C564.486 237.834 565.501 235.387 567.305 233.583C569.109 231.779 571.556 230.764 574.108 230.761H661.48C664.032 230.764 666.478 231.779 668.283 233.583C670.087 235.387 671.102 237.834 671.105 240.385V254.929C671.092 266.295 666.571 277.192 658.534 285.229C650.496 293.266 639.599 297.787 628.233 297.8Z" fill="white"/>
<path d="M652.764 256.93H582.823C582.219 256.93 581.638 256.689 581.211 256.261C580.783 255.834 580.542 255.253 580.542 254.649C580.542 254.044 580.783 253.463 581.211 253.036C581.638 252.608 582.219 252.368 582.823 252.368H652.764C653.369 252.368 653.949 252.608 654.377 253.036C654.805 253.463 655.045 254.044 655.045 254.649C655.045 255.253 654.805 255.834 654.377 256.261C653.949 256.689 653.369 256.93 652.764 256.93Z" fill="#2FA4DA"/>
<path d="M593.764 265.943H582.824C582.22 265.942 581.641 265.701 581.214 265.273C580.787 264.845 580.547 264.266 580.547 263.662C580.547 263.058 580.787 262.478 581.214 262.05C581.641 261.623 582.22 261.382 582.824 261.381H593.764C594.368 261.382 594.947 261.623 595.374 262.05C595.801 262.478 596.041 263.058 596.041 263.662C596.041 264.266 595.801 264.845 595.374 265.273C594.947 265.701 594.368 265.942 593.764 265.943Z" fill="#2FA4DA"/>
<path d="M613.141 274.956H582.824C582.219 274.956 581.638 274.716 581.211 274.288C580.783 273.86 580.542 273.28 580.542 272.675C580.542 272.07 580.783 271.49 581.211 271.062C581.638 270.634 582.219 270.394 582.824 270.394H613.141C613.746 270.394 614.326 270.634 614.754 271.062C615.182 271.49 615.422 272.07 615.422 272.675C615.422 273.28 615.182 273.86 614.754 274.288C614.326 274.716 613.746 274.956 613.141 274.956Z" fill="#2FA4DA"/>
<path d="M553.137 242.955C565.014 242.955 574.643 233.326 574.643 221.449C574.643 209.571 565.014 199.942 553.137 199.942C541.259 199.942 531.631 209.571 531.631 221.449C531.631 233.326 541.259 242.955 553.137 242.955Z" fill="#3F3D56"/>
<path d="M309.687 57.8497C311.11 50.6233 313.943 43.748 318.024 37.6165C322.105 31.485 327.353 26.2173 333.47 22.1141C345.823 13.8275 360.962 10.7874 375.556 13.6627C382.783 15.0864 389.658 17.9195 395.789 22.0002C401.921 26.081 407.188 31.3294 411.292 37.446C415.395 43.5625 418.253 50.4274 419.703 57.6485C421.153 64.8697 421.167 72.3058 419.743 79.5322L417.78 79.1457C420.553 65.0719 417.621 50.473 409.63 38.5607C401.639 26.6483 389.243 18.3983 375.17 15.6255C361.096 12.8528 346.497 15.7844 334.585 23.7754C322.672 31.7664 314.422 44.1624 311.649 58.2362L309.687 57.8497Z" fill="#3F3D56"/>
<path d="M330.984 93.2339L299.208 94.5501C298.529 94.5796 297.852 94.4551 297.229 94.1858C296.605 93.9165 296.05 93.5094 295.606 92.9952C295.167 92.4942 294.848 91.9005 294.672 91.2585C294.496 90.6165 294.467 89.943 294.589 89.2885C297.027 75.9916 296.317 62.3084 292.514 49.3357C292.22 48.3436 292.28 47.2804 292.682 46.3273C293.085 45.3742 293.806 44.5902 294.722 44.109C307.737 37.3468 319.933 37.004 330.967 43.0887C331.546 43.4029 332.049 43.8395 332.441 44.3679C332.833 44.8964 333.106 45.5041 333.239 46.1487C336.111 60.3046 336.8 74.8168 335.281 89.1811C335.176 90.2619 334.683 91.2681 333.893 92.0132C333.103 92.7584 332.07 93.192 330.984 93.2339Z" fill="#2FA4DA"/>
<path d="M329.639 72.4364L305.343 73.4427C305.043 73.4553 304.744 73.4089 304.463 73.3059C304.181 73.2029 303.923 73.0455 303.702 72.8426C303.482 72.6397 303.303 72.3954 303.177 72.1235C303.051 71.8516 302.98 71.5575 302.967 71.258C302.955 70.9585 303.002 70.6596 303.105 70.3782C303.208 70.0968 303.366 69.8385 303.569 69.618C303.772 69.3976 304.016 69.2193 304.288 69.0935C304.56 68.9676 304.855 68.8965 305.154 68.8844L329.451 67.8781C329.75 67.8657 330.049 67.9123 330.33 68.0154C330.611 68.1185 330.87 68.276 331.09 68.4789C331.31 68.6817 331.489 68.926 331.615 69.1978C331.741 69.4696 331.812 69.7635 331.824 70.0628C331.837 70.3621 331.79 70.6609 331.687 70.9422C331.584 71.2234 331.426 71.4817 331.223 71.7021C331.021 71.9225 330.776 72.1008 330.504 72.2267C330.233 72.3527 329.939 72.424 329.639 72.4364Z" fill="white"/>
<path d="M329.308 64.4432L305.012 65.4495C304.407 65.4746 303.818 65.2584 303.372 64.8487C302.927 64.439 302.663 63.8692 302.638 63.2648C302.613 62.6603 302.829 62.0706 303.239 61.6255C303.649 61.1804 304.218 60.9163 304.823 60.8912L329.12 59.8849C329.724 59.8599 330.314 60.076 330.759 60.4857C331.204 60.8954 331.468 61.4652 331.493 62.0696C331.518 62.6741 331.302 63.2638 330.892 63.7089C330.483 64.154 329.913 64.4182 329.308 64.4432Z" fill="white"/>
<path d="M538.942 83.1697H437.277C434.552 83.1666 431.94 82.0829 430.013 80.1563C428.087 78.2297 427.003 75.6175 427 72.8929V10.2768C427.003 7.55216 428.087 4.94002 430.013 3.01341C431.94 1.08681 434.552 0.00308877 437.277 0H538.942C541.666 0.00307818 544.279 1.08679 546.205 3.0134C548.132 4.94 549.215 7.55215 549.219 10.2768V72.8929C549.215 75.6175 548.132 78.2297 546.205 80.1563C544.279 82.0829 541.666 83.1666 538.942 83.1697Z" fill="#E6E6E6"/>
<path d="M498.549 75.1043H444.423C441.871 75.1014 439.425 74.0866 437.62 72.2822C435.816 70.4779 434.801 68.0315 434.798 65.4798V17.6898C434.801 15.138 435.816 12.6916 437.62 10.8873C439.425 9.08296 441.871 8.06806 444.423 8.06525H531.796C534.347 8.06808 536.794 9.083 538.598 10.8873C540.402 12.6917 541.417 15.138 541.42 17.6898V32.2332C541.407 43.5995 536.886 54.4965 528.849 62.5336C520.812 70.5707 509.915 75.0915 498.549 75.1043Z" fill="white"/>
<path d="M523.079 34.234H453.139C452.534 34.234 451.954 33.9937 451.526 33.5659C451.098 33.1381 450.858 32.558 450.858 31.953C450.858 31.348 451.098 30.7679 451.526 30.3401C451.954 29.9123 452.534 29.672 453.139 29.672H523.079C523.684 29.672 524.265 29.9123 524.692 30.3401C525.12 30.7679 525.36 31.348 525.36 31.953C525.36 32.558 525.12 33.1381 524.692 33.5659C524.265 33.9937 523.684 34.234 523.079 34.234Z" fill="#2FA4DA"/>
<path d="M464.079 43.2473H453.139C452.535 43.2461 451.956 43.0052 451.529 42.5775C451.102 42.1499 450.863 41.5704 450.863 40.9662C450.863 40.3621 451.102 39.7826 451.529 39.3549C451.956 38.9273 452.535 38.6864 453.139 38.6851H464.079C464.684 38.6864 465.263 38.9273 465.689 39.3549C466.116 39.7826 466.356 40.3621 466.356 40.9662C466.356 41.5704 466.116 42.1499 465.689 42.5775C465.263 43.0052 464.684 43.2461 464.079 43.2473Z" fill="#2FA4DA"/>
<path d="M483.457 52.2606H453.139C452.534 52.2606 451.954 52.0203 451.526 51.5925C451.098 51.1647 450.858 50.5845 450.858 49.9795C450.858 49.3746 451.098 48.7943 451.526 48.3665C451.954 47.9388 452.534 47.6984 453.139 47.6984H483.457C484.061 47.6997 484.64 47.9406 485.066 48.3682C485.493 48.7959 485.733 49.3754 485.733 49.9795C485.733 50.5837 485.493 51.1632 485.066 51.5908C484.64 52.0185 484.061 52.2594 483.457 52.2606Z" fill="#2FA4DA"/>
<path d="M439.083 94.0093C445.353 83.9218 442.259 70.6611 432.172 64.3906C422.084 58.1201 408.823 61.2143 402.553 71.3017C396.282 81.3892 399.377 94.6499 409.464 100.92C419.552 107.191 432.812 104.097 439.083 94.0093Z" fill="#3F3D56"/>
<path d="M903.593 587.861H608.121C607.877 587.861 607.644 587.764 607.471 587.592C607.299 587.419 607.202 587.186 607.202 586.942C607.202 586.698 607.299 586.464 607.471 586.292C607.644 586.119 607.877 586.022 608.121 586.022H903.593C903.836 586.022 904.07 586.119 904.243 586.292C904.415 586.464 904.512 586.698 904.512 586.942C904.512 587.186 904.415 587.419 904.243 587.592C904.07 587.764 903.836 587.861 903.593 587.861Z" fill="#CCCCCC"/>
<path d="M134.328 250.43C125.505 227.104 126.309 201.229 136.563 178.496C146.818 155.763 165.683 138.035 189.008 129.212C212.334 120.388 238.209 121.192 260.942 131.447C283.675 141.701 301.403 160.566 310.226 183.892L308.355 184.6C304.079 173.296 297.619 162.945 289.342 154.138C281.066 145.33 271.136 138.24 260.119 133.27C249.103 128.301 237.215 125.55 225.135 125.174C213.056 124.799 201.02 126.807 189.716 131.083C178.412 135.359 168.061 141.819 159.254 150.096C150.447 158.372 143.356 168.302 138.387 179.319C133.417 190.335 130.666 202.223 130.291 214.303C129.916 226.382 131.923 238.418 136.199 249.722L134.328 250.43Z" fill="#3F3D56"/>
<path d="M216.585 157.292H184.781C184.101 157.294 183.431 157.141 182.818 156.846C182.206 156.551 181.669 156.122 181.246 155.589C180.829 155.071 180.535 154.464 180.385 153.816C180.236 153.167 180.235 152.493 180.384 151.844C183.394 138.556 183.224 124.745 179.886 111.535C179.65 110.6 179.722 109.614 180.093 108.723C180.464 107.833 181.114 107.087 181.944 106.597C193.465 99.8912 205.767 100.096 218.509 107.207C219.113 107.536 219.633 107.998 220.03 108.559C220.428 109.12 220.692 109.763 220.802 110.442C223.07 124.672 223.152 139.165 221.045 153.421C220.895 154.496 220.361 155.481 219.541 156.193C218.721 156.905 217.671 157.295 216.585 157.292Z" fill="#2FA4DA"/>
<path d="M201.725 126.443H190.784C190.18 126.442 189.601 126.201 189.174 125.773C188.747 125.346 188.508 124.766 188.508 124.162C188.508 123.558 188.747 122.979 189.174 122.551C189.601 122.123 190.18 121.882 190.784 121.881H201.725C202.329 121.882 202.908 122.123 203.335 122.551C203.761 122.979 204.001 123.558 204.001 124.162C204.001 124.766 203.761 125.346 203.335 125.773C202.908 126.201 202.329 126.442 201.725 126.443Z" fill="white"/>
<path d="M215.102 135.457H190.784C190.179 135.457 189.599 135.216 189.171 134.788C188.744 134.361 188.503 133.78 188.503 133.175C188.503 132.57 188.744 131.99 189.171 131.562C189.599 131.135 190.179 130.894 190.784 130.894H215.102C215.706 130.896 216.285 131.137 216.712 131.564C217.138 131.992 217.378 132.571 217.378 133.175C217.378 133.78 217.138 134.359 216.712 134.787C216.285 135.214 215.706 135.455 215.102 135.457Z" fill="white"/>
<path d="M111.942 249.17H10.2767C7.5521 249.167 4.93996 248.083 3.01337 246.156C1.08678 244.23 0.00307286 241.618 0 238.893V176.277C0.00307286 173.552 1.08678 170.94 3.01337 169.013C4.93996 167.087 7.5521 166.003 10.2767 166H111.942C114.666 166.003 117.279 167.087 119.205 169.013C121.132 170.94 122.215 173.552 122.219 176.277V238.893C122.215 241.618 121.132 244.23 119.205 246.156C117.279 248.083 114.666 249.167 111.942 249.17Z" fill="#E6E6E6"/>
<path d="M71.5486 241.104H17.4231C14.8713 241.101 12.4249 240.087 10.6205 238.282C8.81605 236.478 7.80104 234.032 7.7981 231.48V183.69C7.80104 181.138 8.81605 178.692 10.6205 176.887C12.4249 175.083 14.8713 174.068 17.4231 174.065H104.796C107.347 174.068 109.794 175.083 111.598 176.887C113.402 178.692 114.417 181.138 114.42 183.69V198.233C114.407 209.6 109.886 220.496 101.849 228.534C93.8119 236.571 82.9148 241.092 71.5486 241.104Z" fill="white"/>
<path d="M96.0794 200.234H26.1389C25.534 200.234 24.9538 199.994 24.526 199.566C24.0982 199.138 23.8579 198.558 23.8579 197.953C23.8579 197.348 24.0982 196.768 24.526 196.34C24.9538 195.912 25.534 195.672 26.1389 195.672H96.0794C96.6844 195.672 97.2646 195.912 97.6923 196.34C98.1201 196.768 98.3604 197.348 98.3604 197.953C98.3604 198.558 98.1201 199.138 97.6923 199.566C97.2646 199.994 96.6844 200.234 96.0794 200.234Z" fill="#2FA4DA"/>
<path d="M37.0794 209.247H26.1389C25.5347 209.246 24.9557 209.005 24.529 208.577C24.1022 208.15 23.8625 207.57 23.8625 206.966C23.8625 206.362 24.1022 205.783 24.529 205.355C24.9557 204.927 25.5347 204.686 26.1389 204.685H37.0794C37.6836 204.686 38.2625 204.927 38.6893 205.355C39.1161 205.783 39.3557 206.362 39.3557 206.966C39.3557 207.57 39.1161 208.15 38.6893 208.577C38.2625 209.005 37.6836 209.246 37.0794 209.247Z" fill="#2FA4DA"/>
<path d="M56.4564 218.261H26.1389C25.5347 218.259 24.9557 218.019 24.529 217.591C24.1022 217.163 23.8625 216.584 23.8625 215.98C23.8625 215.375 24.1022 214.796 24.529 214.368C24.9557 213.941 25.5347 213.7 26.1389 213.698H56.4564C57.0614 213.698 57.6416 213.939 58.0694 214.367C58.4972 214.794 58.7375 215.375 58.7375 215.98C58.7375 216.585 58.4972 217.165 58.0694 217.593C57.6416 218.02 57.0614 218.261 56.4564 218.261Z" fill="#2FA4DA"/>
<path d="M152.083 258.009C158.353 247.922 155.259 234.661 145.172 228.391C135.084 222.12 121.823 225.214 115.553 235.302C109.282 245.389 112.377 258.65 122.464 264.92C132.552 271.191 145.812 268.097 152.083 258.009Z" fill="#3F3D56"/>
<path d="M325.585 217.292H293.781C293.102 217.294 292.431 217.141 291.818 216.846C291.206 216.551 290.669 216.122 290.246 215.589C289.829 215.071 289.535 214.464 289.385 213.816C289.236 213.167 289.235 212.493 289.384 211.844C292.389 198.579 292.225 184.793 288.904 171.604C288.668 170.656 288.748 169.657 289.132 168.759C289.515 167.86 290.181 167.111 291.028 166.626C306.478 157.782 318.711 158.026 328.428 167.372C329.109 168.039 329.557 168.907 329.707 169.848C332.068 184.268 332.182 198.966 330.045 213.421C329.895 214.496 329.361 215.481 328.541 216.193C327.721 216.905 326.671 217.295 325.585 217.292Z" fill="#FF6584"/>
<path d="M312.725 187.443H301.784C301.18 187.442 300.601 187.201 300.174 186.773C299.747 186.346 299.508 185.766 299.508 185.162C299.508 184.558 299.747 183.979 300.174 183.551C300.601 183.123 301.18 182.882 301.784 182.881H312.725C313.329 182.882 313.908 183.123 314.335 183.551C314.761 183.979 315.001 184.558 315.001 185.162C315.001 185.766 314.761 186.346 314.335 186.773C313.908 187.201 313.329 187.442 312.725 187.443Z" fill="white"/>
<path d="M326.102 196.457H301.784C301.179 196.457 300.599 196.216 300.171 195.788C299.744 195.361 299.503 194.78 299.503 194.175C299.503 193.57 299.744 192.99 300.171 192.562C300.599 192.135 301.179 191.894 301.784 191.894H326.102C326.706 191.896 327.285 192.137 327.712 192.564C328.138 192.992 328.378 193.571 328.378 194.175C328.378 194.78 328.138 195.359 327.712 195.787C327.285 196.214 326.706 196.455 326.102 196.457Z" fill="white"/>
<path d="M867.813 375.496C866.872 428.866 831.003 452.062 830.413 429.529C829.681 401.027 817.391 327.107 769.15 349.776C711.457 376.884 763.465 541.999 746.764 541.999C679.945 541.999 625.715 467.409 625.715 375.496C625.715 283.59 679.945 209 746.764 209C813.583 209 869.412 284.761 867.813 375.496V375.496Z" fill="url(#paint0_linear_330_296)" stroke="black" stroke-width="0.8" stroke-linecap="round" stroke-linejoin="round"/>
<path d="M835.122 261.28C850.617 289.288 858.307 324.407 858.999 361.279C859.642 395.343 850.353 427.513 833.13 436.627C841.172 439.199 866.872 428.859 867.807 375.49C868.586 331.634 855.936 291.277 835.122 261.28ZM776.786 331.316C771.833 331.411 766.365 332.737 760.335 335.566C702.642 362.673 754.657 527.789 737.956 527.789C703.544 527.789 672.471 508.003 650.424 476.254C672.546 516.191 707.473 541.999 746.764 541.999C763.465 541.999 711.45 376.884 769.143 349.776C787.03 341.378 799.978 346.25 809.226 357.158C802.329 342.299 791.963 331.032 776.786 331.316V331.316Z" fill="black" fill-opacity="0.31373"/>
<path d="M805.082 471.154C805.082 500.46 793.436 528.566 772.705 549.289C751.975 570.011 723.858 581.653 694.541 581.653C665.224 581.653 637.107 570.011 616.377 549.289C595.646 528.566 584 500.46 584 471.154C584 441.848 595.646 413.742 616.377 393.02C637.107 372.297 665.224 360.656 694.541 360.656C723.858 360.656 751.975 372.297 772.705 393.02C793.436 413.742 805.082 441.848 805.082 471.154V471.154Z" fill="url(#paint1_linear_330_296)" stroke="black" stroke-width="0.799968" stroke-linecap="round" stroke-linejoin="round"/>
<path d="M694.546 360.67C682.784 360.67 671.462 362.524 660.824 365.928C670.391 363.695 680.48 362.491 690.907 362.491C719.513 362.491 745.598 371.477 765.227 386.222C746.066 370.266 721.417 360.67 694.546 360.67ZM799.233 435.592C800.682 441.493 801.455 447.583 801.455 453.835C801.455 504.261 751.927 545.18 690.907 545.18C639.882 545.18 596.912 516.57 584.201 477.708C587.589 535.666 635.722 581.673 694.546 581.673C755.565 581.673 805.093 532.167 805.093 471.172C805.093 458.728 803.034 446.757 799.233 435.592Z" fill="black" fill-opacity="0.31373"/>
<path d="M694.546 360.67C675.697 360.67 657.939 365.387 642.403 373.717C649.761 399.41 671.259 423.168 696.653 423.168C721.37 423.168 742.435 400.662 750.328 375.76C733.952 366.172 714.886 360.67 694.546 360.67V360.67Z" fill="black" fill-opacity="0.31373"/>
<path fill-rule="evenodd" clip-rule="evenodd" d="M770.288 268.629C756.866 268.629 729.602 275.761 724.832 294.255C724.757 294.397 724.615 294.911 724.459 295.703C715.827 290.431 705.678 287.366 694.83 287.366C683.502 287.366 672.973 290.709 664.104 296.406C663.921 295.249 663.697 294.437 663.609 294.255C658.839 275.761 631.575 268.649 618.146 268.642C616.012 268.642 614.244 268.825 612.95 269.163C605.747 270.165 597.861 273.041 598.437 274.611C603.722 273.711 606.391 274.739 606.31 275.592C606.147 277.189 602.963 277.615 603.986 283.374C605.917 280.579 608.607 279.618 610.721 279.171C612.889 292.766 622.374 316.497 640.126 317.728C641.65 317.837 643.073 317.83 644.415 317.803C640.227 325.734 637.849 334.767 637.849 344.356C637.849 375.801 663.372 412.24 694.83 412.24C726.282 412.24 751.839 375.801 751.839 344.356C751.839 334.774 749.454 325.761 745.267 317.837C746.235 317.83 747.259 317.803 748.315 317.728C766.006 316.504 775.492 292.908 777.7 279.3C779.719 279.794 782.132 280.809 783.9 283.374C784.923 277.615 781.739 277.189 781.576 275.592C781.495 274.739 784.164 273.711 789.449 274.611C789.998 273.122 782.958 270.463 776.088 269.333C774.78 268.872 772.775 268.629 770.288 268.629V268.629Z" fill="url(#paint2_linear_330_296)" stroke="black" stroke-width="0.8" stroke-linejoin="round"/>
<path d="M683.024 456.488C683.024 462.031 680.821 467.347 676.9 471.266C672.979 475.185 667.662 477.387 662.117 477.387C656.572 477.387 651.255 475.185 647.334 471.266C643.413 467.347 641.21 462.031 641.21 456.488C641.21 450.946 643.413 445.63 647.334 441.711C651.255 437.792 656.572 435.59 662.117 435.59C667.662 435.59 672.979 437.792 676.9 441.711C680.821 445.63 683.024 450.946 683.024 456.488V456.488Z" fill="black" fill-opacity="0.31373"/>
<path d="M714.671 486H676.019C675.193 486.002 674.377 485.816 673.634 485.458C672.89 485.1 672.236 484.578 671.723 483.931C671.216 483.3 670.858 482.563 670.676 481.775C670.495 480.987 670.494 480.167 670.674 479.379C674.304 463.355 674.129 446.704 670.164 430.76C669.857 429.541 669.983 428.252 670.52 427.115C671.057 425.978 671.972 425.063 673.108 424.524C689.253 416.968 704.079 417.165 717.172 425.108C717.858 425.519 718.447 426.074 718.897 426.736C719.347 427.397 719.647 428.149 719.777 428.938C722.552 446.272 722.659 463.929 720.092 481.295C719.91 482.602 719.26 483.799 718.264 484.664C717.267 485.529 715.99 486.004 714.671 486Z" fill="#2FA4DA"/>
<path d="M714.084 460.678H684.53C683.796 460.676 683.092 460.384 682.573 459.864C682.055 459.344 681.763 458.64 681.763 457.906C681.763 457.171 682.055 456.467 682.573 455.947C683.092 455.428 683.796 455.135 684.53 455.133H714.084C714.818 455.135 715.522 455.428 716.04 455.947C716.559 456.467 716.85 457.171 716.85 457.906C716.85 458.64 716.559 459.344 716.04 459.864C715.522 460.384 714.818 460.676 714.084 460.678Z" fill="white"/>
<path d="M714.084 450.955H684.53C683.796 450.954 683.092 450.661 682.573 450.141C682.055 449.622 681.763 448.917 681.763 448.183C681.763 447.449 682.055 446.745 682.573 446.225C683.092 445.705 683.796 445.412 684.53 445.411H714.084C714.818 445.412 715.522 445.705 716.04 446.225C716.559 446.745 716.85 447.449 716.85 448.183C716.85 448.917 716.559 449.622 716.04 450.141C715.522 450.661 714.818 450.954 714.084 450.955Z" fill="white"/>
<path d="M676.771 441.799C678.145 444.175 679.037 446.799 679.397 449.519C679.756 452.24 679.576 455.004 678.866 457.654C678.157 460.304 676.931 462.788 675.261 464.964C673.59 467.14 671.506 468.966 669.128 470.337C666.751 471.708 664.126 472.597 661.403 472.955C658.681 473.312 655.914 473.129 653.261 472.418C650.608 471.707 648.121 470.481 645.942 468.81C643.763 467.139 641.934 465.055 640.56 462.679C639.186 460.302 638.294 457.678 637.934 454.958C637.575 452.237 637.755 449.473 638.465 446.823C639.175 444.173 640.4 441.689 642.071 439.513C643.742 437.337 645.825 435.511 648.203 434.14C650.581 432.769 653.206 431.88 655.928 431.523C658.651 431.165 661.417 431.348 664.07 432.059C666.723 432.77 669.21 433.996 671.389 435.667C673.568 437.338 675.397 439.422 676.771 441.799V441.799Z" fill="url(#paint3_linear_330_296)" stroke="black" stroke-width="0.800002" stroke-linecap="round" stroke-linejoin="round"/>
<path d="M761.455 456.813C761.455 462.356 759.252 467.671 755.331 471.591C751.41 475.51 746.093 477.712 740.548 477.712C735.003 477.712 729.686 475.51 725.765 471.591C721.844 467.671 719.641 462.356 719.641 456.813C719.641 451.271 721.844 445.955 725.765 442.036C729.686 438.116 735.003 435.915 740.548 435.915C746.093 435.915 751.41 438.116 755.331 442.036C759.252 445.955 761.455 451.271 761.455 456.813V456.813Z" fill="black" fill-opacity="0.31373"/>
<path d="M751.952 467.002C748.028 470.921 742.707 473.125 737.16 473.127C731.613 473.129 726.294 470.931 722.373 467.015C718.452 463.099 716.251 457.787 716.253 452.247C716.256 446.707 718.462 441.393 722.386 437.474C726.31 433.554 731.631 431.351 737.178 431.349C742.725 431.346 748.044 433.545 751.965 437.461C755.886 441.376 758.087 446.689 758.085 452.229C758.082 457.769 755.876 463.083 751.952 467.002Z" fill="url(#paint4_linear_330_296)" stroke="black" stroke-width="0.799998" stroke-linecap="round" stroke-linejoin="round"/>
<path d="M748.112 518.695C720.448 518.695 697.988 541.147 697.988 568.796C697.988 574.514 698.95 579.995 700.718 585.111H795.479C797.247 579.995 798.209 574.514 798.209 568.796C798.209 541.147 775.776 518.695 748.112 518.695V518.695Z" fill="url(#paint5_linear_330_296)" stroke="black" stroke-width="0.8" stroke-linecap="round" stroke-linejoin="round"/>
<path d="M647.863 518.695C620.199 518.695 597.766 541.147 597.766 568.796C597.766 574.514 598.728 579.995 600.496 585.111H695.257C697.025 579.995 697.987 574.514 697.987 568.796C697.987 541.147 675.527 518.695 647.863 518.695Z" fill="url(#paint6_linear_330_296)" stroke="black" stroke-width="0.8" stroke-linecap="round" stroke-linejoin="round"/>
<path d="M692.843 339.79C692.844 342.234 692.363 344.656 691.428 346.915C690.493 349.174 689.122 351.227 687.393 352.956C685.664 354.685 683.611 356.057 681.351 356.993C679.092 357.928 676.67 358.41 674.224 358.41C671.778 358.41 669.356 357.928 667.097 356.993C664.837 356.057 662.784 354.685 661.055 352.956C659.326 351.227 657.955 349.174 657.02 346.915C656.085 344.656 655.604 342.234 655.605 339.79C655.604 337.345 656.085 334.924 657.02 332.664C657.955 330.405 659.326 328.353 661.055 326.623C662.784 324.894 664.837 323.523 667.097 322.587C669.356 321.651 671.778 321.169 674.224 321.169C676.67 321.169 679.092 321.651 681.351 322.587C683.611 323.523 685.664 324.894 687.393 326.623C689.122 328.353 690.493 330.405 691.428 332.664C692.363 334.924 692.844 337.345 692.843 339.79V339.79Z" fill="white" stroke="black" stroke-width="0.800004" stroke-linecap="round" stroke-linejoin="round"/>
<path d="M734.078 339.79C734.079 342.234 733.598 344.656 732.663 346.915C731.728 349.174 730.357 351.227 728.628 352.956C726.899 354.685 724.846 356.057 722.586 356.993C720.327 357.928 717.905 358.41 715.459 358.41C713.013 358.41 710.591 357.928 708.332 356.993C706.072 356.057 704.019 354.685 702.29 352.956C700.561 351.227 699.19 349.174 698.255 346.915C697.32 344.656 696.839 342.234 696.84 339.79C696.839 337.345 697.32 334.924 698.255 332.664C699.19 330.405 700.561 328.353 702.29 326.623C704.019 324.894 706.072 323.523 708.332 322.587C710.591 321.651 713.013 321.169 715.459 321.169C717.905 321.169 720.327 321.651 722.586 322.587C724.846 323.523 726.899 324.894 728.628 326.623C730.357 328.353 731.728 330.405 732.663 332.664C733.598 334.924 734.079 337.345 734.078 339.79Z" fill="white" stroke="black" stroke-width="0.800004" stroke-linecap="round" stroke-linejoin="round"/>
<path d="M687.075 342.051C687.075 342.841 686.92 343.623 686.618 344.353C686.316 345.083 685.874 345.746 685.315 346.305C684.757 346.864 684.093 347.307 683.363 347.609C682.634 347.912 681.851 348.067 681.061 348.067C680.271 348.067 679.488 347.912 678.758 347.609C678.028 347.307 677.365 346.864 676.807 346.305C676.248 345.746 675.805 345.083 675.503 344.353C675.202 343.623 675.046 342.841 675.047 342.051C675.046 341.261 675.202 340.479 675.503 339.749C675.805 339.019 676.248 338.356 676.807 337.797C677.365 337.238 678.028 336.795 678.758 336.492C679.488 336.19 680.271 336.034 681.061 336.034C681.851 336.034 682.634 336.19 683.363 336.492C684.093 336.795 684.757 337.238 685.315 337.797C685.874 338.356 686.316 339.019 686.618 339.749C686.92 340.479 687.075 341.261 687.075 342.051V342.051Z" fill="black"/>
<path d="M714.583 342.051C714.583 342.841 714.428 343.623 714.126 344.353C713.825 345.083 713.382 345.746 712.823 346.305C712.265 346.864 711.601 347.307 710.872 347.609C710.142 347.912 709.359 348.067 708.569 348.067C707.779 348.067 706.996 347.912 706.266 347.609C705.537 347.307 704.873 346.864 704.315 346.305C703.756 345.746 703.313 345.083 703.012 344.353C702.71 343.623 702.555 342.841 702.555 342.051C702.555 341.261 702.71 340.479 703.012 339.749C703.313 339.019 703.756 338.356 704.315 337.797C704.873 337.238 705.537 336.795 706.266 336.492C706.996 336.19 707.779 336.034 708.569 336.034C709.359 336.034 710.142 336.19 710.872 336.492C711.601 336.795 712.265 337.238 712.823 337.797C713.382 338.356 713.825 339.019 714.126 339.749C714.428 340.479 714.583 341.261 714.583 342.051Z" fill="black"/>
<path fill-rule="evenodd" clip-rule="evenodd" d="M685.216 375.496C688.252 372.255 701.145 371.551 703.842 375.895C706.538 380.246 699.797 389.26 694.526 388.854C689.281 388.448 682.37 378.521 685.216 375.496Z" fill="black"/>
<path fill-rule="evenodd" clip-rule="evenodd" d="M651.305 309.426C649.306 280.518 619.522 273.934 618.085 277.365C616.656 280.802 623.526 319.447 651.305 309.426Z" fill="#74401B" stroke="black" stroke-width="0.8" stroke-linejoin="round"/>
<path fill-rule="evenodd" clip-rule="evenodd" d="M736.188 309.426C738.186 280.518 767.971 273.934 769.407 277.365C770.837 280.802 763.96 319.447 736.188 309.426Z" fill="url(#paint7_linear_330_296)" stroke="black" stroke-width="0.8" stroke-linejoin="round"/>
<path d="M643.423 570.65C643.423 574.871 642.01 578.919 639.493 581.904C636.976 584.888 633.563 586.565 630.004 586.565C626.445 586.565 623.031 584.888 620.515 581.904C617.998 578.919 616.584 574.871 616.584 570.65C616.584 566.429 617.998 562.381 620.515 559.396C623.031 556.411 626.445 554.734 630.004 554.734C633.563 554.734 636.976 556.411 639.493 559.396C642.01 562.381 643.423 566.429 643.423 570.65V570.65Z" fill="url(#paint8_linear_330_296)" stroke="black" stroke-width="0.734432" stroke-linecap="round" stroke-linejoin="round"/>
<path d="M677.084 570.65C677.084 574.871 675.67 578.919 673.153 581.904C670.637 584.888 667.223 586.565 663.664 586.565C660.105 586.565 656.692 584.888 654.175 581.904C651.658 578.919 650.244 574.871 650.244 570.65C650.244 566.429 651.658 562.381 654.175 559.396C656.692 556.411 660.105 554.734 663.664 554.734C667.223 554.734 670.637 556.411 673.153 559.396C675.67 562.381 677.084 566.429 677.084 570.65V570.65Z" fill="url(#paint9_linear_330_296)" stroke="black" stroke-width="0.734432" stroke-linecap="round" stroke-linejoin="round"/>
<path d="M661.162 570.65C661.162 574.871 659.748 578.919 657.231 581.904C654.714 584.888 651.301 586.565 647.742 586.565C644.183 586.565 640.769 584.888 638.253 581.904C635.736 578.919 634.322 574.871 634.322 570.65C634.322 566.429 635.736 562.381 638.253 559.396C640.769 556.411 644.183 554.734 647.742 554.734C651.301 554.734 654.714 556.411 657.231 559.396C659.748 562.381 661.162 566.429 661.162 570.65V570.65Z" fill="url(#paint10_linear_330_296)" stroke="black" stroke-width="0.734432" stroke-linecap="round" stroke-linejoin="round"/>
<path d="M746.687 570.65C746.687 574.871 745.273 578.919 742.756 581.904C740.239 584.888 736.826 586.565 733.267 586.565C729.708 586.565 726.294 584.888 723.778 581.904C721.261 578.919 719.847 574.871 719.847 570.65C719.847 566.429 721.261 562.381 723.778 559.396C726.294 556.411 729.708 554.734 733.267 554.734C736.826 554.734 740.239 556.411 742.756 559.396C745.273 562.381 746.687 566.429 746.687 570.65V570.65Z" fill="url(#paint11_linear_330_296)" stroke="black" stroke-width="0.734432" stroke-linecap="round" stroke-linejoin="round"/>
<path d="M780.351 570.65C780.351 574.871 778.937 578.919 776.42 581.904C773.903 584.888 770.49 586.565 766.931 586.565C763.372 586.565 759.958 584.888 757.442 581.904C754.925 578.919 753.511 574.871 753.511 570.65C753.511 566.429 754.925 562.381 757.442 559.396C759.958 556.411 763.372 554.734 766.931 554.734C770.49 554.734 773.903 556.411 776.42 559.396C778.937 562.381 780.351 566.429 780.351 570.65V570.65Z" fill="url(#paint12_linear_330_296)" stroke="black" stroke-width="0.734432" stroke-linecap="round" stroke-linejoin="round"/>
<path d="M764.428 570.65C764.428 574.871 763.014 578.919 760.498 581.904C757.981 584.888 754.567 586.565 751.008 586.565C747.449 586.565 744.036 584.888 741.519 581.904C739.002 578.919 737.589 574.871 737.589 570.65C737.589 566.429 739.002 562.381 741.519 559.396C744.036 556.411 747.449 554.734 751.008 554.734C754.567 554.734 757.981 556.411 760.498 559.396C763.014 562.381 764.428 566.429 764.428 570.65V570.65Z" fill="url(#paint13_linear_330_296)" stroke="black" stroke-width="0.734432" stroke-linecap="round" stroke-linejoin="round"/>
<path d="M747.347 322.303C748.383 326.593 748.939 331.086 748.939 335.687C748.939 367.133 723.389 403.558 691.931 403.558C669.003 403.558 649.252 384.198 640.214 361.523C647.213 387.704 669.016 412.253 694.83 412.253C726.289 412.253 751.839 375.801 751.839 344.356C751.839 336.533 750.24 329.09 747.374 322.303H747.347Z" fill="black" fill-opacity="0.31373"/>
<path d="M665.248 457.246C666.179 457.784 667.009 458.477 667.689 459.287C668.369 460.096 668.886 461.006 669.211 461.965C669.536 462.923 669.662 463.911 669.583 464.872C669.503 465.833 669.219 466.749 668.746 467.566C668.274 468.384 667.623 469.087 666.83 469.637C666.038 470.187 665.119 470.571 664.126 470.769C663.133 470.967 662.086 470.974 661.045 470.79C660.003 470.607 658.988 470.235 658.056 469.697C657.124 469.16 656.295 468.466 655.615 467.657C654.935 466.847 654.418 465.937 654.093 464.979C653.768 464.02 653.642 463.033 653.721 462.071C653.801 461.11 654.085 460.195 654.557 459.377C655.03 458.56 655.681 457.856 656.474 457.306C657.266 456.757 658.185 456.372 659.178 456.174C660.171 455.976 661.218 455.969 662.259 456.153C663.301 456.337 664.316 456.708 665.248 457.246V457.246Z" fill="url(#paint14_linear_330_296)" stroke="black" stroke-width="0.734456" stroke-linecap="round" stroke-linejoin="round"/>
<path d="M674.266 441.628C676.148 442.714 677.573 444.411 678.229 446.347C678.885 448.282 678.718 450.297 677.765 451.948C676.811 453.6 675.149 454.752 673.144 455.151C671.139 455.551 668.956 455.166 667.074 454.08C665.193 452.994 663.767 451.296 663.111 449.361C662.455 447.426 662.622 445.411 663.576 443.76C664.529 442.108 666.191 440.956 668.196 440.556C670.201 440.157 672.384 440.542 674.266 441.628V441.628Z" fill="url(#paint15_linear_330_296)" stroke="black" stroke-width="0.734456" stroke-linecap="round" stroke-linejoin="round"/>
<path d="M673.629 451.65C675.511 452.736 676.936 454.433 677.592 456.369C678.248 458.304 678.081 460.319 677.128 461.97C676.174 463.621 674.512 464.773 672.507 465.173C670.502 465.573 668.319 465.187 666.437 464.101C664.556 463.015 663.13 461.318 662.474 459.383C661.818 457.447 661.985 455.432 662.939 453.781C663.892 452.13 665.554 450.978 667.559 450.578C669.564 450.178 671.747 450.564 673.629 451.65V451.65Z" fill="url(#paint16_linear_330_296)" stroke="black" stroke-width="0.734456" stroke-linecap="round" stroke-linejoin="round"/>
<path d="M730.073 455.937C729.034 456.216 728.053 456.671 727.186 457.277C726.319 457.884 725.584 458.629 725.022 459.47C724.46 460.312 724.082 461.234 723.91 462.183C723.738 463.132 723.775 464.089 724.019 465.001C724.263 465.913 724.71 466.761 725.333 467.497C725.957 468.233 726.745 468.842 727.652 469.289C728.56 469.737 729.569 470.015 730.623 470.106C731.676 470.198 732.754 470.102 733.793 469.823C734.832 469.545 735.813 469.089 736.68 468.483C737.546 467.877 738.282 467.131 738.844 466.29C739.406 465.448 739.784 464.526 739.956 463.577C740.128 462.629 740.091 461.671 739.847 460.759C739.602 459.847 739.156 458.999 738.533 458.263C737.909 457.528 737.121 456.919 736.214 456.471C735.306 456.023 734.297 455.745 733.243 455.654C732.189 455.562 731.112 455.658 730.073 455.937V455.937Z" fill="url(#paint17_linear_330_296)" stroke="black" stroke-width="0.734456" stroke-linecap="round" stroke-linejoin="round"/>
<path d="M725.411 438.52C724.372 438.798 723.391 439.253 722.524 439.86C721.658 440.466 720.922 441.211 720.36 442.053C719.798 442.895 719.42 443.816 719.248 444.765C719.076 445.714 719.113 446.672 719.357 447.584C719.602 448.496 720.048 449.344 720.672 450.079C721.295 450.815 722.083 451.424 722.991 451.872C723.898 452.32 724.907 452.597 725.961 452.689C727.015 452.781 728.092 452.684 729.131 452.406C731.23 451.843 733.047 450.572 734.182 448.872C735.318 447.172 735.678 445.183 735.185 443.342C734.692 441.5 733.385 439.958 731.552 439.053C729.719 438.149 727.51 437.957 725.411 438.52V438.52Z" fill="url(#paint18_linear_330_296)" stroke="black" stroke-width="0.734456" stroke-linecap="round" stroke-linejoin="round"/>
<path d="M723.433 448.365C721.334 448.928 719.517 450.199 718.382 451.899C717.247 453.598 716.886 455.588 717.379 457.429C717.872 459.271 719.179 460.813 721.012 461.718C722.845 462.622 725.054 462.814 727.153 462.251C729.252 461.689 731.069 460.418 732.204 458.718C733.339 457.018 733.7 455.029 733.207 453.187C732.963 452.275 732.516 451.427 731.893 450.692C731.269 449.956 730.481 449.347 729.574 448.899C727.741 447.995 725.532 447.803 723.433 448.365V448.365Z" fill="url(#paint19_linear_330_296)" stroke="black" stroke-width="0.734456" stroke-linecap="round" stroke-linejoin="round"/>
</g>
<defs>
<linearGradient id="paint0_linear_330_296" x1="624.36" y1="375.5" x2="869.202" y2="375.5" gradientUnits="userSpaceOnUse">
<stop stop-color="#D07839"/>
</linearGradient>
<linearGradient id="paint1_linear_330_296" x1="582.646" y1="471.154" x2="806.436" y2="471.154" gradientUnits="userSpaceOnUse">
<stop stop-color="#D07839"/>
</linearGradient>
<linearGradient id="paint2_linear_330_296" x1="597.06" y1="340.434" x2="790.825" y2="340.434" gradientUnits="userSpaceOnUse">
<stop stop-color="#D07839"/>
</linearGradient>
<linearGradient id="paint3_linear_330_296" x1="646.006" y1="-187.706" x2="661.956" y2="-183.421" gradientUnits="userSpaceOnUse">
<stop stop-color="#D07839"/>
</linearGradient>
<linearGradient id="paint4_linear_330_296" x1="675.955" y1="-179.702" x2="691.909" y2="-175.416" gradientUnits="userSpaceOnUse">
<stop stop-color="#D07839"/>
</linearGradient>
<linearGradient id="paint5_linear_330_296" x1="660.021" y1="-148.201" x2="698.244" y2="-137.931" gradientUnits="userSpaceOnUse">
<stop stop-color="#D07839"/>
</linearGradient>
<linearGradient id="paint6_linear_330_296" x1="621.784" y1="-158.418" x2="660.007" y2="-148.148" gradientUnits="userSpaceOnUse">
<stop stop-color="#D07839"/>
</linearGradient>
<linearGradient id="paint7_linear_330_296" x1="304.376" y1="532.041" x2="305.777" y2="536.632" gradientUnits="userSpaceOnUse">
<stop stop-color="#74401B"/>
</linearGradient>
<linearGradient id="paint8_linear_330_296" x1="425.319" y1="477.176" x2="426.444" y2="480.866" gradientUnits="userSpaceOnUse">
<stop stop-color="#74401B"/>
</linearGradient>
<linearGradient id="paint9_linear_330_296" x1="426.426" y1="481.897" x2="427.551" y2="485.587" gradientUnits="userSpaceOnUse">
<stop stop-color="#74401B"/>
</linearGradient>
<linearGradient id="paint10_linear_330_296" x1="425.903" y1="479.664" x2="427.028" y2="483.354" gradientUnits="userSpaceOnUse">
<stop stop-color="#74401B"/>
</linearGradient>
<linearGradient id="paint11_linear_330_296" x1="428.711" y1="491.659" x2="429.837" y2="495.348" gradientUnits="userSpaceOnUse">
<stop stop-color="#74401B"/>
</linearGradient>
<linearGradient id="paint12_linear_330_296" x1="429.817" y1="496.38" x2="430.942" y2="500.07" gradientUnits="userSpaceOnUse">
<stop stop-color="#74401B"/>
</linearGradient>
<linearGradient id="paint13_linear_330_296" x1="429.293" y1="494.147" x2="430.419" y2="497.836" gradientUnits="userSpaceOnUse">
<stop stop-color="#74401B"/>
</linearGradient>
<linearGradient id="paint14_linear_330_296" x1="382.23" y1="495.897" x2="382.897" y2="498.084" gradientUnits="userSpaceOnUse">
<stop stop-color="#74401B"/>
</linearGradient>
<linearGradient id="paint15_linear_330_296" x1="375.516" y1="499.3" x2="376.183" y2="501.487" gradientUnits="userSpaceOnUse">
<stop stop-color="#74401B"/>
</linearGradient>
<linearGradient id="paint16_linear_330_296" x1="379.993" y1="497.839" x2="380.66" y2="500.026" gradientUnits="userSpaceOnUse">
<stop stop-color="#74401B"/>
</linearGradient>
<linearGradient id="paint17_linear_330_296" x1="384.352" y1="505.784" x2="385.034" y2="508.019" gradientUnits="userSpaceOnUse">
<stop stop-color="#74401B"/>
</linearGradient>
<linearGradient id="paint18_linear_330_296" x1="376.382" y1="507.515" x2="377.063" y2="509.75" gradientUnits="userSpaceOnUse">
<stop stop-color="#74401B"/>
</linearGradient>
<linearGradient id="paint19_linear_330_296" x1="380.736" y1="505.89" x2="381.418" y2="508.125" gradientUnits="userSpaceOnUse">
<stop stop-color="#74401B"/>
</linearGradient>
<clipPath id="clip0_330_296">
<rect width="904.512" height="587.861" fill="white"/>
</clipPath>
</defs>
</svg>
