<svg width="943" height="602" viewBox="0 0 943 602" fill="none" xmlns="http://www.w3.org/2000/svg">
<g clip-path="url(#clip0_312_224)">
<path d="M167.722 596.506C176.715 588.908 182.177 576.904 180.745 565.218C179.312 553.533 170.44 542.79 158.931 540.309C147.423 537.827 134.304 544.696 130.808 555.939C128.884 534.264 126.668 511.681 115.144 493.224C104.71 476.51 86.6375 464.552 67.0511 462.412C47.4648 460.273 26.8428 468.353 14.6275 483.812C2.41221 499.272 -0.578678 521.746 7.9766 539.495C14.279 552.569 25.8902 562.3 38.0558 570.216C77.3674 595.581 124.516 605.895 170.828 599.262L167.722 596.506Z" fill="#F2F2F2"/>
<path d="M33.9961 468.801C50.1573 481.964 64.9835 496.687 78.2602 512.755C91.5391 528.807 103.23 546.109 113.168 564.418C118.723 574.688 123.713 585.255 128.116 596.069C129.014 598.269 125.441 599.227 124.554 597.051C116.755 577.985 107.106 559.729 95.7458 542.546C84.4408 525.424 71.5016 509.44 57.11 494.817C48.9701 486.55 40.3817 478.737 31.3839 471.413C29.5396 469.911 32.167 467.312 33.9961 468.801Z" fill="white"/>
<path d="M704.354 0H217.354C215.498 0.00205925 213.719 0.740212 212.407 2.05252C211.094 3.36483 210.356 5.14412 210.354 7V337C210.356 338.856 211.094 340.635 212.407 341.947C213.719 343.26 215.498 343.998 217.354 344H704.354C706.21 343.998 707.989 343.26 709.302 341.947C710.614 340.635 711.352 338.856 711.354 337V7C711.352 5.14412 710.614 3.36483 709.302 2.05252C707.989 0.740212 706.21 0.00205925 704.354 0ZM709.354 337C709.354 338.326 708.827 339.597 707.889 340.535C706.952 341.473 705.68 341.999 704.354 342H217.354C216.028 341.999 214.757 341.473 213.819 340.535C212.882 339.597 212.355 338.326 212.354 337V7C212.355 5.67408 212.882 4.40262 213.819 3.46506C214.757 2.52749 216.028 2.00053 217.354 2H704.354C705.68 2.00053 706.952 2.52749 707.889 3.46506C708.827 4.40262 709.354 5.67408 709.354 7V337Z" fill="#3F3D56"/>
<path d="M710.354 28.04H211.354V30.04H710.354V28.04Z" fill="#3F3D56"/>
<path d="M228.354 21C231.668 21 234.354 18.3137 234.354 15C234.354 11.6863 231.668 9 228.354 9C225.041 9 222.354 11.6863 222.354 15C222.354 18.3137 225.041 21 228.354 21Z" fill="#3F3D56"/>
<path d="M245.604 21C248.918 21 251.604 18.3137 251.604 15C251.604 11.6863 248.918 9 245.604 9C242.291 9 239.604 11.6863 239.604 15C239.604 18.3137 242.291 21 245.604 21Z" fill="#3F3D56"/>
<path d="M262.854 21C266.168 21 268.854 18.3137 268.854 15C268.854 11.6863 266.168 9 262.854 9C259.541 9 256.854 11.6863 256.854 15C256.854 18.3137 259.541 21 262.854 21Z" fill="#3F3D56"/>
<path d="M502.854 74.5H418.854C416.998 74.5 415.217 73.7625 413.904 72.4498C412.592 71.137 411.854 69.3565 411.854 67.5C411.854 65.6435 412.592 63.863 413.904 62.5502C415.217 61.2375 416.998 60.5 418.854 60.5H502.854C504.711 60.5 506.491 61.2375 507.804 62.5502C509.117 63.863 509.854 65.6435 509.854 67.5C509.854 69.3565 509.117 71.137 507.804 72.4498C506.491 73.7625 504.711 74.5 502.854 74.5Z" fill="#CCCCCC"/>
<path d="M560.354 108.5H361.354C359.498 108.5 357.717 107.763 356.405 106.45C355.092 105.137 354.354 103.357 354.354 101.5C354.354 99.6435 355.092 97.863 356.405 96.5502C357.717 95.2375 359.498 94.5 361.354 94.5H560.354C562.211 94.5 563.991 95.2375 565.304 96.5502C566.617 97.863 567.354 99.6435 567.354 101.5C567.354 103.357 566.617 105.137 565.304 106.45C563.991 107.763 562.211 108.5 560.354 108.5Z" fill="#CCCCCC"/>
<path d="M620.035 317.451C612.492 317.451 605.119 315.214 598.847 311.024C592.575 306.833 587.687 300.877 584.801 293.908C581.914 286.939 581.159 279.271 582.63 271.873C584.102 264.475 587.734 257.679 593.068 252.345C598.401 247.012 605.197 243.379 612.595 241.908C619.993 240.436 627.661 241.192 634.63 244.078C641.599 246.965 647.555 251.853 651.746 258.125C655.937 264.396 658.173 271.77 658.173 279.313C658.162 289.424 654.14 299.118 646.99 306.268C639.841 313.418 630.147 317.44 620.035 317.451ZM620.035 243.805C613.013 243.805 606.148 245.888 600.308 249.789C594.469 253.691 589.918 259.237 587.231 265.725C584.543 272.213 583.84 279.352 585.21 286.24C586.58 293.128 589.962 299.455 594.928 304.421C599.894 309.387 606.22 312.768 613.108 314.138C619.996 315.509 627.135 314.805 633.624 312.118C640.112 309.43 645.657 304.879 649.559 299.04C653.461 293.201 655.543 286.336 655.543 279.313C655.532 269.899 651.788 260.874 645.131 254.217C638.475 247.56 629.449 243.816 620.035 243.805Z" fill="#3F3D56"/>
<path d="M300.299 215.308C292.756 215.308 285.383 213.071 279.111 208.881C272.839 204.69 267.951 198.734 265.064 191.765C262.178 184.796 261.423 177.128 262.894 169.73C264.366 162.332 267.998 155.536 273.332 150.203C278.665 144.869 285.461 141.237 292.859 139.765C300.257 138.293 307.925 139.049 314.894 141.935C321.863 144.822 327.819 149.71 332.01 155.982C336.2 162.254 338.437 169.627 338.437 177.17C338.426 187.281 334.404 196.975 327.254 204.125C320.104 211.275 310.411 215.297 300.299 215.308ZM300.299 141.662C293.276 141.662 286.411 143.745 280.572 147.647C274.733 151.548 270.182 157.094 267.494 163.582C264.807 170.07 264.104 177.21 265.474 184.097C266.844 190.985 270.226 197.312 275.191 202.278C280.157 207.244 286.484 210.626 293.372 211.996C300.26 213.366 307.399 212.663 313.887 209.975C320.376 207.288 325.921 202.736 329.823 196.897C333.724 191.058 335.807 184.193 335.807 177.17C335.796 167.756 332.052 158.731 325.395 152.074C318.738 145.418 309.713 141.673 300.299 141.662Z" fill="#3F3D56"/>
<path d="M315.113 197.387C314.115 197.388 313.157 196.991 312.45 196.286C311.744 195.58 311.346 194.623 311.344 193.625V172.226C311.345 171.229 311.742 170.272 312.447 169.567C313.153 168.862 314.109 168.465 315.107 168.464H315.113C316.111 168.465 317.067 168.862 317.773 169.567C318.478 170.272 318.875 171.229 318.876 172.226V193.625C318.875 194.622 318.478 195.579 317.773 196.284C317.067 196.989 316.111 197.386 315.113 197.387ZM305.289 197.387C304.791 197.392 304.297 197.299 303.835 197.112C303.373 196.926 302.953 196.649 302.598 196.3C302.244 195.95 301.962 195.534 301.768 195.075C301.575 194.616 301.475 194.123 301.473 193.625V182.098C301.474 181.1 301.871 180.144 302.576 179.439C303.281 178.733 304.238 178.337 305.235 178.336H305.289C306.287 178.337 307.243 178.733 307.948 179.439C308.654 180.144 309.051 181.1 309.052 182.098V193.625C309.051 194.622 308.654 195.579 307.948 196.284C307.243 196.989 306.287 197.386 305.289 197.387ZM295.37 197.387C294.372 197.388 293.414 196.991 292.707 196.286C292 195.58 291.602 194.623 291.601 193.625V160.716C291.602 159.718 291.999 158.762 292.704 158.056C293.41 157.351 294.366 156.954 295.363 156.953H295.37C296.368 156.954 297.324 157.351 298.029 158.056C298.735 158.762 299.132 159.718 299.133 160.716V193.625C299.132 194.622 298.735 195.579 298.029 196.284C297.324 196.989 296.368 197.386 295.37 197.387ZM285.489 197.387C284.994 197.388 284.504 197.291 284.047 197.102C283.59 196.913 283.175 196.635 282.825 196.286C282.475 195.936 282.197 195.521 282.008 195.064C281.819 194.607 281.722 194.117 281.722 193.622L281.727 188.679C281.727 187.681 282.124 186.725 282.83 186.019C283.536 185.314 284.493 184.918 285.491 184.918C286.488 184.919 287.445 185.316 288.15 186.022C288.856 186.727 289.252 187.685 289.251 188.682V193.625C289.25 194.622 288.853 195.579 288.148 196.284C287.443 196.989 286.486 197.386 285.489 197.387Z" fill="#2FA4DA"/>
<path d="M878.842 599.308C871.299 599.308 863.926 597.071 857.654 592.881C851.382 588.69 846.494 582.734 843.607 575.765C840.721 568.796 839.966 561.128 841.437 553.73C842.909 546.332 846.541 539.536 851.875 534.203C857.208 528.869 864.004 525.237 871.402 523.765C878.8 522.294 886.468 523.049 893.437 525.935C900.406 528.822 906.362 533.71 910.553 539.982C914.743 546.254 916.98 553.627 916.98 561.17C916.969 571.281 912.947 580.975 905.797 588.125C898.647 595.275 888.954 599.297 878.842 599.308ZM878.842 525.662C871.82 525.662 864.954 527.745 859.115 531.647C853.276 535.548 848.725 541.094 846.037 547.582C843.35 554.07 842.647 561.21 844.017 568.097C845.387 574.985 848.769 581.312 853.735 586.278C858.7 591.244 865.027 594.626 871.915 595.996C878.803 597.366 885.942 596.663 892.431 593.975C898.919 591.288 904.464 586.736 908.366 580.897C912.268 575.058 914.35 568.193 914.35 561.17C914.339 551.756 910.595 542.731 903.938 536.074C897.282 529.418 888.256 525.673 878.842 525.662Z" fill="#3F3D56"/>
<path d="M889.356 554.551L881.92 565.92C882.517 566.645 882.842 567.556 882.839 568.496C882.837 569.579 882.405 570.618 881.638 571.384C880.871 572.15 879.832 572.58 878.748 572.58C877.664 572.58 876.625 572.15 875.858 571.384C875.091 570.618 874.659 569.579 874.657 568.496C874.659 568.232 874.683 567.97 874.728 567.71L869.821 564.852C869.187 565.466 868.372 565.857 867.497 565.968C866.622 566.078 865.735 565.902 864.969 565.465L859.747 570.356V575.232C859.749 576.196 860.133 577.121 860.814 577.803C861.495 578.486 862.418 578.871 863.383 578.875H894.294C895.259 578.871 896.183 578.486 896.866 577.804C897.548 577.121 897.933 576.197 897.937 575.232V557.15L892.944 553.829C892.442 554.219 891.857 554.487 891.235 554.612C890.612 554.737 889.969 554.716 889.356 554.551Z" fill="#2FA4DA"/>
<path d="M866.986 557.849C868.071 557.849 869.112 558.28 869.879 559.047C870.646 559.814 871.077 560.855 871.077 561.94V562.466L876.196 565.331C876.927 564.732 877.843 564.405 878.787 564.405C879.086 564.407 879.383 564.439 879.675 564.499L887.126 552.965C886.754 552.442 886.51 551.839 886.415 551.204C886.321 550.569 886.377 549.921 886.58 549.312C886.783 548.704 887.127 548.151 887.584 547.701C888.041 547.25 888.598 546.913 889.21 546.719C889.821 546.524 890.47 546.476 891.103 546.58C891.737 546.683 892.337 546.935 892.855 547.314C893.372 547.693 893.793 548.19 894.083 548.762C894.373 549.335 894.523 549.968 894.522 550.61C894.522 550.935 894.485 551.259 894.412 551.576L897.937 553.931V547.108C897.933 546.143 897.548 545.219 896.866 544.536C896.183 543.854 895.259 543.469 894.294 543.465H863.383C862.418 543.469 861.495 543.854 860.814 544.537C860.133 545.219 859.749 546.144 859.747 547.108V566.651L863.155 563.384C862.927 562.767 862.852 562.104 862.936 561.451C863.02 560.799 863.26 560.176 863.636 559.636C864.012 559.096 864.514 558.656 865.097 558.351C865.68 558.047 866.328 557.888 866.986 557.888V557.849Z" fill="#2FA4DA"/>
<path d="M462.367 215.308C454.824 215.308 447.45 213.071 441.178 208.881C434.907 204.69 430.018 198.734 427.132 191.765C424.245 184.796 423.49 177.128 424.962 169.73C426.433 162.332 430.065 155.536 435.399 150.203C440.733 144.869 447.528 141.237 454.926 139.765C462.324 138.293 469.993 139.049 476.961 141.935C483.93 144.822 489.887 149.71 494.077 155.982C498.268 162.254 500.505 169.627 500.505 177.17C500.493 187.281 496.471 196.975 489.322 204.125C482.172 211.275 472.478 215.297 462.367 215.308ZM462.367 141.662C455.344 141.662 448.479 143.745 442.64 147.647C436.8 151.548 432.249 157.094 429.562 163.582C426.874 170.07 426.171 177.21 427.541 184.097C428.911 190.985 432.293 197.312 437.259 202.278C442.225 207.244 448.552 210.626 455.439 211.996C462.327 213.366 469.467 212.663 475.955 209.975C482.443 207.288 487.989 202.736 491.89 196.897C495.792 191.058 497.874 184.193 497.874 177.17C497.864 167.756 494.119 158.731 487.463 152.074C480.806 145.418 471.781 141.673 462.367 141.662Z" fill="#3F3D56"/>
<path d="M442.105 190.995C441.557 190.995 441.021 190.832 440.565 190.528C440.109 190.223 439.754 189.791 439.544 189.285C439.334 188.778 439.279 188.221 439.385 187.683C439.491 187.146 439.754 186.652 440.141 186.263L454.233 172.132C454.452 171.911 454.713 171.736 455.001 171.616C455.289 171.497 455.597 171.436 455.909 171.437H455.91C456.221 171.436 456.529 171.497 456.817 171.616C457.104 171.735 457.365 171.909 457.585 172.13L464.12 178.665C464.252 178.798 464.408 178.903 464.581 178.974C464.753 179.046 464.938 179.082 465.125 179.082C465.312 179.082 465.498 179.046 465.67 178.974C465.842 178.903 465.999 178.798 466.131 178.665L475.358 169.422C475.402 169.378 475.436 169.326 475.46 169.269C475.484 169.211 475.496 169.15 475.496 169.087C475.496 169.025 475.484 168.964 475.46 168.906C475.436 168.849 475.401 168.797 475.357 168.753L472.372 165.772C472.173 165.574 472.037 165.32 471.982 165.045C471.927 164.769 471.955 164.483 472.062 164.223C472.17 163.963 472.352 163.741 472.586 163.585C472.819 163.429 473.094 163.345 473.375 163.345H483.979C484.356 163.346 484.717 163.496 484.983 163.762C485.25 164.029 485.4 164.39 485.4 164.767V175.364C485.4 175.645 485.317 175.919 485.161 176.153C485.005 176.387 484.783 176.569 484.523 176.677C484.263 176.784 483.978 176.813 483.702 176.758C483.426 176.703 483.173 176.568 482.974 176.369L479.984 173.379C479.94 173.335 479.888 173.3 479.831 173.276C479.773 173.252 479.712 173.24 479.649 173.24C479.587 173.24 479.526 173.252 479.468 173.276C479.411 173.3 479.359 173.335 479.315 173.379L466.82 185.865C466.6 186.085 466.339 186.26 466.052 186.379C465.765 186.498 465.457 186.559 465.145 186.558C464.834 186.559 464.526 186.498 464.238 186.379C463.951 186.26 463.69 186.085 463.471 185.864L456.932 179.326C456.661 179.067 456.301 178.923 455.927 178.923C455.553 178.923 455.193 179.067 454.922 179.326L444.066 190.182C443.809 190.441 443.503 190.645 443.167 190.785C442.83 190.925 442.469 190.996 442.105 190.995Z" fill="#2FA4DA"/>
<path d="M462.367 315.308C454.824 315.308 447.45 313.071 441.178 308.881C434.907 304.69 430.018 298.734 427.132 291.765C424.245 284.796 423.49 277.128 424.962 269.73C426.433 262.332 430.065 255.536 435.399 250.203C440.733 244.869 447.528 241.237 454.926 239.765C462.324 238.293 469.993 239.049 476.961 241.935C483.93 244.822 489.887 249.71 494.077 255.982C498.268 262.254 500.505 269.627 500.505 277.17C500.493 287.281 496.471 296.975 489.322 304.125C482.172 311.275 472.478 315.297 462.367 315.308Z" fill="#E6E6E6"/>
<path d="M620.367 212.308C612.824 212.308 605.45 210.071 599.178 205.881C592.907 201.69 588.018 195.734 585.132 188.765C582.245 181.796 581.49 174.128 582.962 166.73C584.433 159.332 588.065 152.536 593.399 147.203C598.733 141.869 605.528 138.237 612.926 136.765C620.324 135.293 627.993 136.049 634.961 138.935C641.93 141.822 647.887 146.71 652.077 152.982C656.268 159.254 658.505 166.627 658.505 174.17C658.493 184.281 654.471 193.975 647.322 201.125C640.172 208.275 630.478 212.297 620.367 212.308Z" fill="#E6E6E6"/>
<path d="M300.3 239.031C293.754 239.04 287.319 240.727 281.61 243.931C289.86 244.661 297.596 248.25 303.479 254.078C309.363 259.907 313.025 267.608 313.831 275.851C314.638 284.093 312.539 292.358 307.897 299.217C303.255 306.076 296.362 311.097 288.411 313.411C289.9 313.905 291.42 314.303 292.96 314.602C295.378 315.077 297.836 315.315 300.3 315.311C310.416 315.311 320.117 311.293 327.269 304.141C334.422 296.988 338.44 287.287 338.44 277.172C338.44 267.056 334.422 257.355 327.269 250.202C320.117 243.05 310.416 239.031 300.3 239.031Z" fill="#E6E6E6"/>
<path d="M285.83 241.892C283.414 241.408 280.955 241.166 278.49 241.172C268.684 241.161 259.25 244.925 252.143 251.682C245.036 258.439 240.802 267.672 240.317 277.466C239.833 287.26 243.136 296.865 249.542 304.291C255.947 311.716 264.964 316.392 274.724 317.349C284.483 318.306 294.237 315.472 301.963 309.433C309.689 303.393 314.795 294.613 316.223 284.911C317.651 275.21 315.292 265.33 309.633 257.321C303.975 249.312 295.452 243.787 285.83 241.892ZM288.411 313.412C283.526 314.832 278.394 315.187 273.361 314.452C268.327 313.717 263.511 311.909 259.237 309.151C254.963 306.393 251.331 302.749 248.588 298.466C245.844 294.182 244.053 289.359 243.336 284.324C242.618 279.288 242.99 274.157 244.428 269.277C245.866 264.398 248.335 259.884 251.668 256.042C255.001 252.2 259.121 249.119 263.749 247.007C268.376 244.895 273.403 243.802 278.49 243.802C279.54 243.802 280.58 243.852 281.61 243.932C289.86 244.661 297.596 248.25 303.479 254.078C309.363 259.907 313.025 267.608 313.832 275.851C314.638 284.093 312.539 292.359 307.897 299.217C303.255 306.076 296.362 311.097 288.411 313.412Z" fill="#3F3D56"/>
<path d="M300.696 272.598C299.436 267.073 296.034 262.274 291.238 259.254C286.442 256.235 280.644 255.241 275.117 256.493C274.577 256.616 274.018 256.768 273.525 256.919L278.622 279.315L301.018 274.228C300.924 273.707 300.819 273.138 300.696 272.598Z" fill="#2FA4DA"/>
<path d="M298.527 278.159L276.121 283.247L271.034 260.851C267.127 262.059 263.649 264.363 261.012 267.488C258.375 270.613 256.689 274.429 256.155 278.483C255.621 282.537 256.26 286.66 257.997 290.362C259.734 294.063 262.497 297.189 265.956 299.369C269.416 301.549 273.429 302.691 277.518 302.659C281.607 302.628 285.601 301.425 289.027 299.193C292.453 296.96 295.167 293.792 296.848 290.064C298.528 286.336 299.104 282.205 298.508 278.159H298.527Z" fill="#2FA4DA"/>
<path d="M522.236 599.451C514.694 599.451 507.32 597.214 501.048 593.023C494.776 588.833 489.888 582.877 487.002 575.908C484.115 568.939 483.36 561.271 484.831 553.873C486.303 546.475 489.935 539.679 495.269 534.345C500.603 529.012 507.398 525.379 514.796 523.908C522.194 522.436 529.862 523.192 536.831 526.078C543.8 528.965 549.756 533.853 553.947 540.125C558.138 546.396 560.374 553.77 560.374 561.313C560.363 571.424 556.341 581.118 549.191 588.268C542.042 595.418 532.348 599.439 522.236 599.451ZM522.236 525.805C515.214 525.805 508.349 527.888 502.509 531.789C496.67 535.691 492.119 541.237 489.432 547.725C486.744 554.213 486.041 561.352 487.411 568.24C488.781 575.128 492.163 581.455 497.129 586.421C502.095 591.387 508.421 594.768 515.309 596.138C522.197 597.509 529.336 596.805 535.825 594.118C542.313 591.43 547.858 586.879 551.76 581.04C555.662 575.201 557.744 568.336 557.744 561.313C557.733 551.899 553.989 542.874 547.332 536.217C540.676 529.56 531.65 525.816 522.236 525.805Z" fill="#3F3D56"/>
<path d="M538.692 576.594C537.297 576.595 535.932 576.182 534.77 575.407C533.609 574.632 532.704 573.531 532.169 572.241C531.634 570.952 531.493 569.533 531.764 568.164C532.036 566.795 532.707 565.536 533.694 564.549C534.68 563.561 535.937 562.888 537.306 562.615C538.675 562.341 540.094 562.48 541.384 563.014C542.674 563.547 543.777 564.451 544.554 565.611C545.33 566.771 545.745 568.135 545.746 569.531C545.746 571.403 545.003 573.198 543.681 574.523C542.358 575.847 540.564 576.592 538.692 576.594ZM522.236 576.594C520.366 576.592 518.574 575.848 517.251 574.526C515.929 573.204 515.185 571.411 515.183 569.541V553.085C515.185 551.216 515.93 549.424 517.252 548.103C518.575 546.782 520.367 546.04 522.236 546.04C524.106 546.04 525.898 546.782 527.221 548.103C528.543 549.424 529.287 551.216 529.29 553.085V569.541C529.287 571.411 528.544 573.204 527.221 574.526C525.899 575.848 524.106 576.592 522.236 576.594ZM505.785 576.594C503.914 576.592 502.12 575.848 500.797 574.524C499.473 573.201 498.729 571.407 498.727 569.536V562.961C498.727 561.089 499.471 559.294 500.794 557.97C502.118 556.647 503.913 555.903 505.785 555.903C507.657 555.903 509.452 556.647 510.776 557.97C512.1 559.294 512.843 561.089 512.843 562.961V569.536C512.841 571.407 512.097 573.201 510.774 574.524C509.45 575.848 507.656 576.592 505.785 576.594Z" fill="#2FA4DA"/>
<path d="M208.63 590.417L220.255 589.098L220.699 543.633L203.542 545.58L208.63 590.417Z" fill="#A0616A"/>
<path d="M243.898 597.348L207.364 601.494L205.762 587.378L228.181 584.834C231.925 584.409 235.684 585.489 238.631 587.836C241.579 590.183 243.473 593.604 243.898 597.348Z" fill="#2F2E41"/>
<path d="M89.081 589.691L100.78 589.69L106.345 544.565L89.079 544.566L89.081 589.691Z" fill="#A0616A"/>
<path d="M123.343 600.553L86.5741 600.554L86.5734 586.348L109.136 586.347C112.904 586.347 116.517 587.844 119.181 590.508C121.845 593.172 123.342 596.785 123.343 600.553Z" fill="#2F2E41"/>
<path d="M173.019 387.895L179.699 409.623L215.961 488.092L225.503 562.525L203.555 563.479L190.196 494.772L144.391 445.151L104.312 574.93L86.1809 573.022C86.1809 573.022 101.449 405.072 122.443 387.895C122.443 387.895 156.796 371.672 173.019 387.895Z" fill="#2F2E41"/>
<path d="M143.388 294.142C156.332 294.142 166.825 283.649 166.825 270.705C166.825 257.76 156.332 247.267 143.388 247.267C130.443 247.267 119.95 257.76 119.95 270.705C119.95 283.649 130.443 294.142 143.388 294.142Z" fill="#A0616A"/>
<path d="M175.404 392.189C175.404 392.189 178.267 294.854 138.188 301.534C98.1091 308.214 114.809 402.209 114.809 402.209C114.809 402.209 123.397 419.386 144.391 400.3C165.385 381.215 175.404 392.189 175.404 392.189Z" fill="#2FA4DA"/>
<path d="M258.378 311.172C257.626 312.356 256.623 313.361 255.44 314.115C254.257 314.87 252.924 315.356 251.533 315.539C250.142 315.722 248.728 315.598 247.39 315.176C246.052 314.754 244.823 314.043 243.79 313.095L213.769 329.268L215.341 311.618L243.608 298.965C245.317 297.334 247.565 296.387 249.925 296.303C252.285 296.219 254.595 297.004 256.415 298.508C258.236 300.013 259.441 302.133 259.803 304.467C260.165 306.801 259.658 309.187 258.378 311.172Z" fill="#A0616A"/>
<path d="M143.164 313.418L191.895 321.655L235.565 301.04L242.195 315.217L194.389 345.667C194.389 345.667 143.777 349.104 132.075 335.756C127.687 330.751 127.186 326.196 128.273 322.456C129.225 319.392 131.264 316.782 134.007 315.118C136.75 313.453 140.006 312.848 143.164 313.418Z" fill="#2FA4DA"/>
<path d="M140.6 295.331C140.712 295.231 140.799 295.106 140.854 294.966C140.91 294.826 140.931 294.676 140.918 294.526C140.905 294.376 140.857 294.232 140.778 294.104C140.699 293.976 140.591 293.868 140.464 293.789C138.382 292.5 136.687 290.674 135.555 288.503C134.423 286.333 133.896 283.897 134.031 281.453C134.165 279.009 134.955 276.645 136.318 274.612C137.681 272.578 139.567 270.95 141.777 269.896C148.668 266.611 158.005 269.167 163.099 262.854C164.135 261.503 164.867 259.945 165.247 258.285C165.626 256.626 165.643 254.904 165.296 253.237C164.197 247.274 159.714 242.846 154.694 239.811C148.527 236.083 141.439 234.157 134.234 234.251C127.028 234.344 119.993 236.454 113.925 240.341C107.857 244.229 102.999 249.738 99.9013 256.244C96.8038 262.751 95.5906 269.995 96.3992 277.156C97.0472 282.895 98.818 289.33 95.4055 293.99C92.4021 298.09 86.733 298.859 81.7531 299.878C71.0719 302.064 60.7673 307.106 53.5188 315.25C46.2704 323.394 42.4035 334.82 44.5889 345.501C46.7744 356.183 55.542 365.57 66.3181 367.225C75.0893 368.573 84.1463 364.848 90.5874 358.743C97.0285 352.639 101.1 344.396 103.668 335.901C106.716 325.819 107.918 314.955 113.421 305.974C118.806 297.185 130.411 290.885 139.506 295.462C139.68 295.554 139.878 295.59 140.073 295.566C140.269 295.543 140.452 295.461 140.6 295.331Z" fill="#2F2E41"/>
<path d="M942 601.742H1C0.734784 601.742 0.480429 601.636 0.292892 601.449C0.105356 601.261 0 601.007 0 600.742C0 600.476 0.105356 600.222 0.292892 600.034C0.480429 599.847 0.734784 599.742 1 599.742H942C942.265 599.742 942.52 599.847 942.707 600.034C942.895 600.222 943 600.476 943 600.742C943 601.007 942.895 601.261 942.707 601.449C942.52 601.636 942.265 601.742 942 601.742Z" fill="#3F3D56"/>
<path d="M634.035 295.313H606.035C605.24 295.313 604.477 294.997 603.914 294.434C603.351 293.872 603.035 293.109 603.035 292.313C603.035 291.517 603.351 290.754 603.914 290.192C604.477 289.629 605.24 289.313 606.035 289.313H634.035C634.831 289.313 635.594 289.629 636.157 290.192C636.719 290.754 637.035 291.517 637.035 292.313C637.035 293.109 636.719 293.872 636.157 294.434C635.594 294.997 634.831 295.313 634.035 295.313Z" fill="#2FA4DA"/>
<path d="M634.035 282.313H606.035C605.24 282.313 604.477 281.997 603.914 281.434C603.351 280.872 603.035 280.109 603.035 279.313C603.035 278.517 603.351 277.754 603.914 277.192C604.477 276.629 605.24 276.313 606.035 276.313H634.035C634.831 276.313 635.594 276.629 636.157 277.192C636.719 277.754 637.035 278.517 637.035 279.313C637.035 280.109 636.719 280.872 636.157 281.434C635.594 281.997 634.831 282.313 634.035 282.313Z" fill="#2FA4DA"/>
<path d="M634.035 269.313H606.035C605.24 269.313 604.477 268.997 603.914 268.434C603.351 267.872 603.035 267.109 603.035 266.313C603.035 265.517 603.351 264.754 603.914 264.192C604.477 263.629 605.24 263.313 606.035 263.313H634.035C634.831 263.313 635.594 263.629 636.157 264.192C636.719 264.754 637.035 265.517 637.035 266.313C637.035 267.109 636.719 267.872 636.157 268.434C635.594 268.997 634.831 269.313 634.035 269.313Z" fill="#2FA4DA"/>
<path d="M897.333 396.935C896.423 448.522 861.752 470.943 861.182 449.163C860.475 421.613 848.595 350.162 801.965 372.074C746.2 398.276 796.47 557.876 780.327 557.876C715.74 557.876 663.321 485.778 663.321 396.935C663.321 308.099 715.74 236 780.327 236C844.914 236 898.878 309.23 897.333 396.935V396.935Z" fill="url(#paint0_linear_312_224)" stroke="black" stroke-width="0.8" stroke-linecap="round" stroke-linejoin="round"/>
<path d="M865.734 286.534C880.711 313.606 888.145 347.552 888.813 383.193C889.435 416.119 880.456 447.213 863.808 456.024C871.582 458.509 896.423 448.515 897.327 396.928C898.08 354.538 885.853 315.529 865.734 286.534ZM809.346 354.23C804.559 354.322 799.274 355.604 793.445 358.338C737.679 384.54 787.957 544.141 771.813 544.141C738.55 544.141 708.516 525.015 687.206 494.326C708.588 532.93 742.349 557.876 780.327 557.876C796.471 557.876 746.193 398.276 801.959 372.073C819.248 363.956 831.764 368.666 840.703 379.209C834.036 364.846 824.016 353.956 809.346 354.23V354.23Z" fill="black" fill-opacity="0.31373"/>
<path d="M836.697 489.397C836.697 517.725 825.44 544.892 805.402 564.922C785.364 584.952 758.187 596.205 729.849 596.205C701.511 596.205 674.333 584.952 654.295 564.922C634.257 544.892 623 517.725 623 489.397C623 461.07 634.257 433.903 654.295 413.873C674.333 393.843 701.511 382.59 729.849 382.59C758.187 382.59 785.364 393.843 805.402 413.873C825.44 433.903 836.697 461.07 836.697 489.397V489.397Z" fill="url(#paint1_linear_312_224)" stroke="black" stroke-width="0.799968" stroke-linecap="round" stroke-linejoin="round"/>
<path d="M729.853 382.604C718.484 382.604 707.541 384.396 697.258 387.686C706.506 385.528 716.257 384.363 726.336 384.363C753.987 384.363 779.201 393.05 798.173 407.302C779.653 391.879 755.827 382.604 729.853 382.604ZM831.043 455.023C832.445 460.727 833.191 466.613 833.191 472.657C833.191 521.398 785.317 560.95 726.336 560.95C677.015 560.95 635.481 533.296 623.195 495.733C626.469 551.754 672.994 596.224 729.853 596.224C788.834 596.224 836.708 548.372 836.708 489.414C836.708 477.386 834.717 465.815 831.043 455.023Z" fill="black" fill-opacity="0.31373"/>
<path d="M729.853 382.604C711.634 382.604 694.469 387.163 679.452 395.215C686.564 420.05 707.344 443.014 731.89 443.014C755.781 443.014 776.142 421.26 783.772 397.19C767.943 387.922 749.514 382.604 729.853 382.604V382.604Z" fill="black" fill-opacity="0.31373"/>
<path fill-rule="evenodd" clip-rule="evenodd" d="M803.066 293.637C790.092 293.637 763.738 300.531 759.128 318.407C759.056 318.544 758.918 319.041 758.768 319.806C750.424 314.711 740.613 311.748 730.128 311.748C719.178 311.748 709.001 314.979 700.428 320.487C700.251 319.368 700.035 318.583 699.95 318.407C695.34 300.531 668.986 293.657 656.006 293.65C653.943 293.65 652.234 293.827 650.983 294.154C644.021 295.122 636.398 297.902 636.955 299.419C642.063 298.549 644.643 299.543 644.565 300.367C644.407 301.911 641.329 302.323 642.318 307.889C644.185 305.188 646.785 304.259 648.828 303.827C650.924 316.968 660.092 339.906 677.251 341.097C678.725 341.201 680.1 341.195 681.397 341.168C677.349 348.834 675.051 357.566 675.051 366.834C675.051 397.229 699.721 432.451 730.128 432.451C760.529 432.451 785.232 397.229 785.232 366.834C785.232 357.573 782.927 348.86 778.88 341.201C779.816 341.195 780.805 341.168 781.827 341.097C798.927 339.913 808.095 317.105 810.23 303.952C812.182 304.429 814.513 305.41 816.223 307.889C817.212 302.323 814.133 301.911 813.976 300.367C813.898 299.543 816.478 298.549 821.586 299.419C822.117 297.98 815.312 295.41 808.672 294.317C807.408 293.872 805.469 293.637 803.066 293.637V293.637Z" fill="url(#paint2_linear_312_224)" stroke="black" stroke-width="0.8" stroke-linejoin="round"/>
<path d="M751.131 456.743C742.002 447.619 725.754 447.155 716.087 455.73C709.283 461.688 706.571 470.839 705.681 479.505C705.052 485.752 705.425 492.456 708.634 498.022C711.856 502.156 717.469 503.026 722.394 503.274C732.211 503.712 742.585 501.345 750.431 495.137C759.887 487.033 762.094 471.944 755.152 461.603C754.019 459.837 752.651 458.208 751.131 456.743V456.743Z" fill="black" fill-opacity="0.31373"/>
<path d="M718.716 475.221C718.716 480.579 716.587 485.717 712.797 489.505C709.008 493.294 703.867 495.422 698.508 495.422C693.148 495.422 688.008 493.294 684.219 489.505C680.429 485.717 678.3 480.579 678.3 475.221C678.3 469.864 680.429 464.726 684.219 460.938C688.008 457.149 693.148 455.021 698.508 455.021C703.867 455.021 709.008 457.149 712.797 460.938C716.587 464.726 718.716 469.864 718.716 475.221V475.221Z" fill="black" fill-opacity="0.31373"/>
<path d="M747.857 450.203C738.727 441.078 722.479 440.614 712.812 449.189C706.008 455.147 703.297 464.298 702.406 472.964C701.777 479.211 702.151 485.915 705.36 491.481C708.582 495.615 714.194 496.485 719.119 496.733C728.936 497.172 739.31 494.804 747.156 488.597C756.613 480.493 758.82 465.403 751.878 455.062C750.745 453.296 749.376 451.668 747.857 450.203V450.203Z" fill="#DC9A6A" stroke="black" stroke-width="0.8" stroke-linecap="round" stroke-linejoin="round"/>
<path d="M727.266 443.158C729.212 443.623 731.098 444.336 732.859 445.33C734.569 446.252 736.186 447.357 737.634 448.646C746.364 456.102 748.165 470.034 741.792 479.557C736.363 487.007 727.738 491.671 718.916 493.712C715.341 494.516 711.267 495.072 707.783 493.751C711.005 495.962 715.269 496.544 719.113 496.733C728.93 497.172 739.304 494.804 747.156 488.597C756.613 480.493 758.82 465.403 751.878 455.062C750.745 453.29 749.376 451.668 747.857 450.196C742.519 444.859 734.739 442.491 727.266 443.158V443.158Z" fill="black" fill-opacity="0.31373"/>
<path fill-rule="evenodd" clip-rule="evenodd" d="M748.099 447.907C749.9 442.321 758.984 437.16 761.675 439.103C764.367 441.052 764.577 445.683 764.098 446.37C763.627 447.05 758.767 444.95 755.703 447.482C752.644 450.006 751.105 452.165 751.105 452.165L748.099 447.907Z" fill="url(#paint3_linear_312_224)" stroke="black" stroke-width="0.8"/>
<path fill-rule="evenodd" clip-rule="evenodd" d="M763.529 441.53C763.588 442.138 763.502 442.641 763.339 442.838C762.874 443.394 758.217 442.851 755.231 445.16C752.251 447.469 750.745 449.235 750.745 449.235L748.361 447.233C748.269 447.462 748.171 447.684 748.099 447.907L751.105 452.171C751.105 452.171 752.644 450.006 755.703 447.475C758.767 444.95 763.627 447.05 764.098 446.363C764.426 445.899 764.426 443.57 763.529 441.53V441.53Z" fill="black" fill-opacity="0.31373"/>
<path d="M750.195 447.939C741.229 439.07 726.369 436.781 715.917 443.433C713.553 444.735 714.266 447.998 714.293 447.946C718.242 444.826 722.335 448.26 727.712 452.112C734.294 456.828 741.53 464.062 746.842 471.094C750.562 476.012 753.22 480.846 751.092 484.228C751.203 484.26 754.294 485.13 755.709 482.252C762.834 468.837 758.807 455.952 750.195 447.939V447.939Z" fill="url(#paint4_linear_312_224)" stroke="black" stroke-width="0.8" stroke-linecap="round" stroke-linejoin="round"/>
<path d="M749.488 446.952C752.33 454.317 751.957 461.283 748.348 468.007C747.529 469.537 746.272 469.04 745.218 469.02C745.774 469.707 746.318 470.407 746.842 471.094C750.555 476.019 753.22 480.853 751.092 484.228C751.203 484.26 754.295 485.137 755.709 482.259C762.232 469.962 759.37 456.586 749.488 446.952V446.952Z" fill="black" fill-opacity="0.31373"/>
<path d="M712.672 461.022C714 463.32 714.863 465.856 715.21 468.485C715.558 471.115 715.384 473.787 714.698 476.348C714.012 478.91 712.827 481.311 711.212 483.414C709.597 485.518 707.583 487.282 705.285 488.608C702.986 489.933 700.449 490.792 697.818 491.138C695.186 491.483 692.512 491.307 689.948 490.619C687.384 489.932 684.98 488.747 682.873 487.131C680.767 485.516 678.999 483.502 677.671 481.205C676.343 478.908 675.48 476.372 675.133 473.742C674.785 471.113 674.96 468.441 675.646 465.879C676.332 463.318 677.516 460.917 679.131 458.813C680.746 456.71 682.76 454.945 685.058 453.62C687.357 452.295 689.894 451.435 692.525 451.09C695.157 450.744 697.831 450.921 700.395 451.608C702.96 452.295 705.364 453.481 707.47 455.096C709.577 456.711 711.344 458.725 712.672 461.022V461.022Z" fill="url(#paint5_linear_312_224)" stroke="black" stroke-width="0.800002" stroke-linecap="round" stroke-linejoin="round"/>
<path d="M794.527 475.535C794.527 480.893 792.398 486.031 788.608 489.819C784.818 493.608 779.678 495.736 774.319 495.736C768.959 495.736 763.819 493.608 760.029 489.819C756.24 486.031 754.11 480.893 754.11 475.535C754.11 470.178 756.24 465.04 760.029 461.252C763.819 457.463 768.959 455.335 774.319 455.335C779.678 455.335 784.818 457.463 788.608 461.252C792.398 465.04 794.527 470.178 794.527 475.535V475.535Z" fill="black" fill-opacity="0.31373"/>
<path d="M785.342 485.384C781.549 489.172 776.406 491.302 771.044 491.304C765.682 491.307 760.541 489.182 756.751 485.397C752.961 481.612 750.833 476.477 750.836 471.122C750.838 465.767 752.97 460.63 756.763 456.842C760.556 453.054 765.7 450.924 771.062 450.922C776.423 450.919 781.565 453.044 785.355 456.829C789.144 460.614 791.272 465.749 791.27 471.104C791.267 476.459 789.135 481.596 785.342 485.384Z" fill="url(#paint6_linear_312_224)" stroke="black" stroke-width="0.799998" stroke-linecap="round" stroke-linejoin="round"/>
<path d="M781.63 535.35C754.891 535.35 733.18 557.052 733.18 583.778C733.18 589.305 734.11 594.602 735.82 599.547H827.415C829.124 594.602 830.054 589.305 830.054 583.778C830.054 557.052 808.37 535.35 781.63 535.35V535.35Z" fill="url(#paint7_linear_312_224)" stroke="black" stroke-width="0.8" stroke-linecap="round" stroke-linejoin="round"/>
<path d="M684.73 535.35C657.99 535.35 636.306 557.052 636.306 583.778C636.306 589.305 637.236 594.602 638.945 599.547H730.541C732.25 594.602 733.18 589.305 733.18 583.778C733.18 557.052 711.47 535.35 684.73 535.35Z" fill="url(#paint8_linear_312_224)" stroke="black" stroke-width="0.8" stroke-linecap="round" stroke-linejoin="round"/>
<path d="M728.207 362.421C728.208 364.784 727.744 367.124 726.84 369.308C725.936 371.492 724.61 373.476 722.939 375.147C721.268 376.819 719.283 378.145 717.099 379.049C714.915 379.954 712.574 380.419 710.21 380.419C707.846 380.419 705.505 379.954 703.321 379.049C701.137 378.145 699.153 376.819 697.481 375.147C695.81 373.476 694.485 371.492 693.581 369.308C692.677 367.124 692.212 364.784 692.213 362.421C692.212 360.058 692.677 357.717 693.581 355.534C694.485 353.35 695.81 351.366 697.481 349.694C699.153 348.023 701.137 346.697 703.321 345.792C705.505 344.888 707.846 344.422 710.21 344.422C712.574 344.422 714.915 344.888 717.099 345.792C719.283 346.697 721.268 348.023 722.939 349.694C724.61 351.366 725.936 353.35 726.84 355.534C727.744 357.717 728.208 360.058 728.207 362.421V362.421Z" fill="white" stroke="black" stroke-width="0.800004" stroke-linecap="round" stroke-linejoin="round"/>
<path d="M768.065 362.421C768.066 364.784 767.601 367.124 766.697 369.308C765.793 371.492 764.468 373.476 762.797 375.147C761.125 376.819 759.141 378.145 756.957 379.049C754.773 379.954 752.432 380.419 750.068 380.419C747.704 380.419 745.363 379.954 743.179 379.049C740.995 378.145 739.01 376.819 737.339 375.147C735.668 373.476 734.342 371.492 733.438 369.308C732.534 367.124 732.07 364.784 732.071 362.421C732.07 360.058 732.534 357.717 733.438 355.534C734.342 353.35 735.668 351.366 737.339 349.694C739.01 348.023 740.995 346.697 743.179 345.792C745.363 344.888 747.704 344.422 750.068 344.422C752.432 344.422 754.773 344.888 756.957 345.792C759.141 346.697 761.125 348.023 762.797 349.694C764.468 351.366 765.793 353.35 766.697 355.534C767.601 357.717 768.066 360.058 768.065 362.421Z" fill="white" stroke="black" stroke-width="0.800004" stroke-linecap="round" stroke-linejoin="round"/>
<path d="M722.632 364.606C722.632 365.37 722.482 366.126 722.19 366.832C721.899 367.537 721.471 368.178 720.931 368.718C720.391 369.258 719.75 369.687 719.044 369.979C718.339 370.271 717.582 370.422 716.819 370.422C716.055 370.422 715.299 370.271 714.593 369.979C713.887 369.687 713.246 369.258 712.707 368.718C712.167 368.178 711.739 367.537 711.447 366.832C711.155 366.126 711.005 365.37 711.006 364.606C711.005 363.843 711.155 363.087 711.447 362.381C711.739 361.676 712.167 361.035 712.707 360.495C713.246 359.955 713.887 359.526 714.593 359.234C715.299 358.941 716.055 358.791 716.819 358.791C717.582 358.791 718.339 358.941 719.044 359.234C719.75 359.526 720.391 359.955 720.931 360.495C721.471 361.035 721.899 361.676 722.19 362.381C722.482 363.087 722.632 363.843 722.632 364.606V364.606Z" fill="black"/>
<path d="M749.221 364.606C749.222 365.37 749.072 366.126 748.78 366.832C748.488 367.537 748.06 368.178 747.52 368.718C746.98 369.258 746.339 369.687 745.634 369.979C744.928 370.271 744.172 370.422 743.408 370.422C742.644 370.422 741.888 370.271 741.183 369.979C740.477 369.687 739.836 369.258 739.296 368.718C738.756 368.178 738.328 367.537 738.036 366.832C737.744 366.126 737.595 365.37 737.595 364.606C737.595 363.843 737.744 363.087 738.036 362.381C738.328 361.676 738.756 361.035 739.296 360.495C739.836 359.955 740.477 359.526 741.183 359.234C741.888 358.941 742.644 358.791 743.408 358.791C744.172 358.791 744.928 358.941 745.634 359.234C746.339 359.526 746.98 359.955 747.52 360.495C748.06 361.035 748.488 361.676 748.78 362.381C749.072 363.087 749.222 363.843 749.221 364.606Z" fill="black"/>
<path fill-rule="evenodd" clip-rule="evenodd" d="M720.835 396.935C723.769 393.802 736.232 393.122 738.839 397.321C741.445 401.526 734.929 410.239 729.834 409.846C724.765 409.454 718.084 399.858 720.835 396.935Z" fill="black"/>
<path fill-rule="evenodd" clip-rule="evenodd" d="M688.057 333.071C686.125 305.129 657.335 298.765 655.947 302.081C654.565 305.404 661.206 342.758 688.057 333.071Z" fill="#74401B" stroke="black" stroke-width="0.8" stroke-linejoin="round"/>
<path fill-rule="evenodd" clip-rule="evenodd" d="M770.104 333.071C772.036 305.129 800.826 298.765 802.214 302.081C803.596 305.404 796.949 342.758 770.104 333.071Z" fill="url(#paint9_linear_312_224)" stroke="black" stroke-width="0.8" stroke-linejoin="round"/>
<path d="M680.439 585.569C680.439 589.65 679.072 593.562 676.639 596.447C674.207 599.332 670.907 600.953 667.467 600.953C664.027 600.953 660.728 599.332 658.295 596.447C655.862 593.562 654.496 589.65 654.496 585.569C654.496 581.489 655.862 577.577 658.295 574.691C660.728 571.806 664.027 570.186 667.467 570.186C670.907 570.186 674.207 571.806 676.639 574.691C679.072 577.577 680.439 581.489 680.439 585.569V585.569Z" fill="url(#paint10_linear_312_224)" stroke="black" stroke-width="0.734432" stroke-linecap="round" stroke-linejoin="round"/>
<path d="M712.974 585.569C712.974 589.65 711.608 593.562 709.175 596.447C706.742 599.332 703.443 600.953 700.003 600.953C696.563 600.953 693.263 599.332 690.831 596.447C688.398 593.562 687.031 589.65 687.031 585.569C687.031 581.489 688.398 577.577 690.831 574.691C693.263 571.806 696.563 570.186 700.003 570.186C703.443 570.186 706.742 571.806 709.175 574.691C711.608 577.577 712.974 581.489 712.974 585.569V585.569Z" fill="url(#paint11_linear_312_224)" stroke="black" stroke-width="0.734432" stroke-linecap="round" stroke-linejoin="round"/>
<path d="M697.584 585.569C697.584 589.65 696.218 593.562 693.785 596.447C691.352 599.332 688.053 600.953 684.613 600.953C681.173 600.953 677.873 599.332 675.441 596.447C673.008 593.562 671.641 589.65 671.641 585.569C671.641 581.489 673.008 577.577 675.441 574.691C677.873 571.806 681.173 570.186 684.613 570.186C688.053 570.186 691.352 571.806 693.785 574.691C696.218 577.577 697.584 581.489 697.584 585.569V585.569Z" fill="url(#paint12_linear_312_224)" stroke="black" stroke-width="0.734432" stroke-linecap="round" stroke-linejoin="round"/>
<path d="M780.253 585.569C780.253 589.65 778.886 593.562 776.453 596.447C774.021 599.332 770.721 600.953 767.281 600.953C763.841 600.953 760.542 599.332 758.109 596.447C755.676 593.562 754.31 589.65 754.31 585.569C754.31 581.489 755.676 577.577 758.109 574.691C760.542 571.806 763.841 570.186 767.281 570.186C770.721 570.186 774.021 571.806 776.453 574.691C778.886 577.577 780.253 581.489 780.253 585.569V585.569Z" fill="url(#paint13_linear_312_224)" stroke="black" stroke-width="0.734432" stroke-linecap="round" stroke-linejoin="round"/>
<path d="M812.792 585.569C812.792 589.65 811.425 593.562 808.992 596.447C806.56 599.332 803.26 600.953 799.82 600.953C796.38 600.953 793.081 599.332 790.648 596.447C788.215 593.562 786.849 589.65 786.849 585.569C786.849 581.489 788.215 577.577 790.648 574.691C793.081 571.806 796.38 570.186 799.82 570.186C803.26 570.186 806.56 571.806 808.992 574.691C811.425 577.577 812.792 581.489 812.792 585.569V585.569Z" fill="url(#paint14_linear_312_224)" stroke="black" stroke-width="0.734432" stroke-linecap="round" stroke-linejoin="round"/>
<path d="M797.401 585.569C797.401 589.65 796.035 593.562 793.602 596.447C791.17 599.332 787.87 600.953 784.43 600.953C780.99 600.953 777.69 599.332 775.258 596.447C772.825 593.562 771.458 589.65 771.458 585.569C771.458 581.489 772.825 577.577 775.258 574.691C777.69 571.806 780.99 570.186 784.43 570.186C787.87 570.186 791.17 571.806 793.602 574.691C796.035 577.577 797.401 581.489 797.401 585.569V585.569Z" fill="url(#paint15_linear_312_224)" stroke="black" stroke-width="0.734432" stroke-linecap="round" stroke-linejoin="round"/>
<path d="M780.89 345.518C781.892 349.665 782.429 354.008 782.429 358.456C782.429 388.851 757.733 424.059 727.325 424.059C705.163 424.059 686.073 405.346 677.336 383.428C684.101 408.734 705.176 432.464 730.128 432.464C760.536 432.464 785.232 397.229 785.232 366.834C785.232 359.273 783.687 352.079 780.917 345.518H780.89Z" fill="black" fill-opacity="0.31373"/>
<path d="M701.534 475.954C702.434 476.473 703.236 477.144 703.894 477.926C704.551 478.709 705.051 479.588 705.365 480.515C705.679 481.441 705.801 482.396 705.724 483.325C705.647 484.254 705.372 485.139 704.916 485.929C704.459 486.719 703.83 487.4 703.064 487.931C702.297 488.462 701.409 488.834 700.449 489.025C699.49 489.216 698.478 489.223 697.471 489.046C696.465 488.868 695.483 488.509 694.582 487.989C693.682 487.47 692.88 486.799 692.223 486.017C691.565 485.234 691.065 484.354 690.751 483.428C690.437 482.502 690.315 481.547 690.393 480.618C690.47 479.689 690.744 478.804 691.201 478.014C691.657 477.224 692.286 476.543 693.053 476.012C693.819 475.481 694.707 475.109 695.667 474.918C696.626 474.726 697.638 474.719 698.645 474.897C699.652 475.075 700.633 475.434 701.534 475.954V475.954Z" fill="url(#paint16_linear_312_224)" stroke="black" stroke-width="0.734456" stroke-linecap="round" stroke-linejoin="round"/>
<path d="M710.251 460.858C712.069 461.907 713.447 463.548 714.082 465.419C714.716 467.289 714.554 469.237 713.632 470.833C712.711 472.429 711.104 473.543 709.166 473.929C707.228 474.315 705.118 473.943 703.299 472.893C701.48 471.844 700.102 470.203 699.468 468.332C698.834 466.461 698.996 464.514 699.917 462.918C700.839 461.322 702.446 460.208 704.384 459.822C706.321 459.435 708.432 459.808 710.251 460.858V460.858Z" fill="url(#paint17_linear_312_224)" stroke="black" stroke-width="0.734456" stroke-linecap="round" stroke-linejoin="round"/>
<path d="M709.635 470.544C711.454 471.594 712.832 473.235 713.466 475.105C714.1 476.976 713.939 478.924 713.017 480.52C712.095 482.116 710.489 483.23 708.551 483.616C706.613 484.002 704.502 483.63 702.684 482.58C700.865 481.53 699.487 479.89 698.853 478.019C698.218 476.148 698.38 474.201 699.302 472.605C700.224 471.009 701.83 469.895 703.768 469.508C705.706 469.122 707.816 469.495 709.635 470.544V470.544Z" fill="url(#paint18_linear_312_224)" stroke="black" stroke-width="0.734456" stroke-linecap="round" stroke-linejoin="round"/>
<path d="M764.194 474.689C763.189 474.958 762.241 475.398 761.403 475.984C760.565 476.57 759.854 477.29 759.311 478.104C758.768 478.917 758.402 479.808 758.236 480.726C758.07 481.643 758.106 482.569 758.342 483.45C758.578 484.331 759.01 485.151 759.612 485.862C760.215 486.573 760.976 487.162 761.854 487.595C762.731 488.028 763.706 488.296 764.725 488.385C765.743 488.473 766.785 488.38 767.789 488.111C768.794 487.842 769.742 487.401 770.58 486.815C771.417 486.229 772.128 485.509 772.672 484.695C773.215 483.882 773.58 482.991 773.746 482.074C773.913 481.156 773.877 480.231 773.641 479.349C773.405 478.468 772.973 477.648 772.371 476.937C771.768 476.226 771.006 475.637 770.129 475.204C769.252 474.772 768.276 474.503 767.258 474.415C766.239 474.326 765.198 474.419 764.194 474.689V474.689Z" fill="url(#paint19_linear_312_224)" stroke="black" stroke-width="0.734456" stroke-linecap="round" stroke-linejoin="round"/>
<path d="M759.688 457.853C758.683 458.122 757.735 458.562 756.897 459.148C756.06 459.734 755.349 460.455 754.805 461.268C754.262 462.082 753.897 462.973 753.73 463.89C753.564 464.807 753.6 465.733 753.836 466.614C754.072 467.496 754.504 468.315 755.106 469.026C755.709 469.738 756.471 470.327 757.348 470.759C758.225 471.192 759.201 471.46 760.219 471.549C761.238 471.637 762.279 471.544 763.283 471.275C765.312 470.731 767.068 469.503 768.166 467.86C769.263 466.217 769.612 464.294 769.135 462.514C768.658 460.734 767.395 459.243 765.623 458.369C763.852 457.495 761.717 457.309 759.688 457.853V457.853Z" fill="url(#paint20_linear_312_224)" stroke="black" stroke-width="0.734456" stroke-linecap="round" stroke-linejoin="round"/>
<path d="M757.775 467.37C755.747 467.913 753.99 469.142 752.893 470.785C751.796 472.428 751.447 474.351 751.924 476.131C752.401 477.911 753.664 479.402 755.435 480.276C757.207 481.15 759.342 481.336 761.371 480.792C763.4 480.248 765.156 479.02 766.253 477.377C767.351 475.734 767.7 473.811 767.223 472.031C766.987 471.149 766.555 470.33 765.952 469.618C765.35 468.907 764.588 468.318 763.711 467.886C761.939 467.011 759.804 466.826 757.775 467.37V467.37Z" fill="url(#paint21_linear_312_224)" stroke="black" stroke-width="0.734456" stroke-linecap="round" stroke-linejoin="round"/>
</g>
<defs>
<linearGradient id="paint0_linear_312_224" x1="662.011" y1="396.938" x2="898.675" y2="396.938" gradientUnits="userSpaceOnUse">
<stop stop-color="#D07839"/>
</linearGradient>
<linearGradient id="paint1_linear_312_224" x1="621.691" y1="489.397" x2="838.006" y2="489.397" gradientUnits="userSpaceOnUse">
<stop stop-color="#D07839"/>
</linearGradient>
<linearGradient id="paint2_linear_312_224" x1="635.624" y1="363.044" x2="822.917" y2="363.044" gradientUnits="userSpaceOnUse">
<stop stop-color="#D07839"/>
</linearGradient>
<linearGradient id="paint3_linear_312_224" x1="413.668" y1="526.351" x2="414.348" y2="528.578" gradientUnits="userSpaceOnUse">
<stop stop-color="#74401B"/>
</linearGradient>
<linearGradient id="paint4_linear_312_224" x1="412.961" y1="521.469" x2="414.856" y2="527.683" gradientUnits="userSpaceOnUse">
<stop stop-color="#74401B"/>
</linearGradient>
<linearGradient id="paint5_linear_312_224" x1="682.934" y1="-147.455" x2="698.352" y2="-143.313" gradientUnits="userSpaceOnUse">
<stop stop-color="#D07839"/>
</linearGradient>
<linearGradient id="paint6_linear_312_224" x1="711.883" y1="-139.718" x2="727.304" y2="-135.575" gradientUnits="userSpaceOnUse">
<stop stop-color="#D07839"/>
</linearGradient>
<linearGradient id="paint7_linear_312_224" x1="696.482" y1="-109.27" x2="733.429" y2="-99.3425" gradientUnits="userSpaceOnUse">
<stop stop-color="#D07839"/>
</linearGradient>
<linearGradient id="paint8_linear_312_224" x1="659.522" y1="-119.145" x2="696.468" y2="-109.218" gradientUnits="userSpaceOnUse">
<stop stop-color="#D07839"/>
</linearGradient>
<linearGradient id="paint9_linear_312_224" x1="352.717" y1="548.25" x2="354.07" y2="552.688" gradientUnits="userSpaceOnUse">
<stop stop-color="#74401B"/>
</linearGradient>
<linearGradient id="paint10_linear_312_224" x1="469.619" y1="495.218" x2="470.707" y2="498.785" gradientUnits="userSpaceOnUse">
<stop stop-color="#74401B"/>
</linearGradient>
<linearGradient id="paint11_linear_312_224" x1="470.689" y1="499.781" x2="471.777" y2="503.348" gradientUnits="userSpaceOnUse">
<stop stop-color="#74401B"/>
</linearGradient>
<linearGradient id="paint12_linear_312_224" x1="470.184" y1="497.623" x2="471.272" y2="501.189" gradientUnits="userSpaceOnUse">
<stop stop-color="#74401B"/>
</linearGradient>
<linearGradient id="paint13_linear_312_224" x1="472.899" y1="509.217" x2="473.987" y2="512.783" gradientUnits="userSpaceOnUse">
<stop stop-color="#74401B"/>
</linearGradient>
<linearGradient id="paint14_linear_312_224" x1="473.966" y1="513.78" x2="475.054" y2="517.347" gradientUnits="userSpaceOnUse">
<stop stop-color="#74401B"/>
</linearGradient>
<linearGradient id="paint15_linear_312_224" x1="473.461" y1="511.622" x2="474.549" y2="515.188" gradientUnits="userSpaceOnUse">
<stop stop-color="#74401B"/>
</linearGradient>
<linearGradient id="paint16_linear_312_224" x1="427.97" y1="513.314" x2="428.615" y2="515.428" gradientUnits="userSpaceOnUse">
<stop stop-color="#74401B"/>
</linearGradient>
<linearGradient id="paint17_linear_312_224" x1="421.479" y1="516.603" x2="422.124" y2="518.717" gradientUnits="userSpaceOnUse">
<stop stop-color="#74401B"/>
</linearGradient>
<linearGradient id="paint18_linear_312_224" x1="425.807" y1="515.191" x2="426.452" y2="517.304" gradientUnits="userSpaceOnUse">
<stop stop-color="#74401B"/>
</linearGradient>
<linearGradient id="paint19_linear_312_224" x1="430.021" y1="522.87" x2="430.68" y2="525.031" gradientUnits="userSpaceOnUse">
<stop stop-color="#74401B"/>
</linearGradient>
<linearGradient id="paint20_linear_312_224" x1="422.317" y1="524.544" x2="422.976" y2="526.704" gradientUnits="userSpaceOnUse">
<stop stop-color="#74401B"/>
</linearGradient>
<linearGradient id="paint21_linear_312_224" x1="426.525" y1="522.973" x2="427.184" y2="525.133" gradientUnits="userSpaceOnUse">
<stop stop-color="#74401B"/>
</linearGradient>
<clipPath id="clip0_312_224">
<rect width="943" height="601.742" fill="white"/>
</clipPath>
</defs>
</svg>
