<svg width="819" height="613" viewBox="0 0 819 613" fill="none" xmlns="http://www.w3.org/2000/svg">
<g clip-path="url(#clip0_401_25)">
<path d="M104.26 383H17C12.4929 382.995 8.17181 381.202 4.98479 378.015C1.79777 374.828 0.00507387 370.507 0 366V17C0.00507387 12.4929 1.79777 8.17181 4.98479 4.98479C8.17181 1.79778 12.4929 0.00507387 17 0H253.681L297 38.6782V109H295V39.5737L252.918 2H17C13.0231 2.0045 9.21043 3.5863 6.39836 6.39837C3.58629 9.21044 2.0045 13.0231 2 17V366C2.0045 369.977 3.58629 373.79 6.39836 376.602C9.21043 379.414 13.0231 380.996 17 381H104.26V383Z" fill="#CCCCCC"/>
<path d="M296 40H269C264.493 39.9949 260.172 38.2022 256.985 35.0152C253.798 31.8282 252.005 27.5071 252 23V1C252 0.734784 252.105 0.480429 252.293 0.292892C252.48 0.105356 252.735 0 253 0C253.265 0 253.52 0.105356 253.707 0.292892C253.895 0.480429 254 0.734784 254 1V23C254.004 26.9769 255.586 30.7896 258.398 33.6016C261.21 36.4137 265.023 37.9955 269 38H296C296.265 38 296.52 38.1054 296.707 38.2929C296.895 38.4804 297 38.7348 297 39C297 39.2652 296.895 39.5196 296.707 39.7071C296.52 39.8947 296.265 40 296 40Z" fill="#CCCCCC"/>
<path d="M262.54 90.5H34.54C32.4183 90.5 30.3835 91.3429 28.8832 92.8431C27.3829 94.3434 26.54 96.3783 26.54 98.5C26.54 100.622 27.3829 102.657 28.8832 104.157C30.3835 105.657 32.4183 106.5 34.54 106.5H262.54C264.662 106.5 266.697 105.657 268.197 104.157C269.697 102.657 270.54 100.622 270.54 98.5C270.54 96.3783 269.697 94.3434 268.197 92.8431C266.697 91.3429 264.662 90.5 262.54 90.5Z" fill="#E6E6E6"/>
<path d="M147.54 56.5H34.54C32.4183 56.5 30.3835 57.3429 28.8832 58.8431C27.3829 60.3434 26.54 62.3783 26.54 64.5C26.54 66.6217 27.3829 68.6566 28.8832 70.1568C30.3835 71.6571 32.4183 72.5 34.54 72.5H147.54C149.662 72.5 151.697 71.6571 153.197 70.1568C154.697 68.6566 155.54 66.6217 155.54 64.5C155.54 62.3783 154.697 60.3434 153.197 58.8431C151.697 57.3429 149.662 56.5 147.54 56.5Z" fill="#E6E6E6"/>
<path d="M34.54 157.5C32.4183 157.5 30.3835 158.343 28.8832 159.843C27.3829 161.343 26.54 163.378 26.54 165.5C26.54 167.622 27.3829 169.657 28.8832 171.157C30.3835 172.657 32.4183 173.5 34.54 173.5H106V157.5H34.54Z" fill="#E6E6E6"/>
<path d="M34.54 123.5C33.4895 123.5 32.4492 123.707 31.4786 124.109C30.508 124.511 29.626 125.1 28.8832 125.843C28.1403 126.586 27.551 127.468 27.149 128.439C26.747 129.409 26.54 130.449 26.54 131.5C26.54 132.551 26.747 133.591 27.149 134.561C27.551 135.532 28.1403 136.414 28.8832 137.157C29.626 137.9 30.508 138.489 31.4786 138.891C32.4492 139.293 33.4895 139.5 34.54 139.5H106V123.5H34.54Z" fill="#E6E6E6"/>
<path d="M106.5 327H42.46C38.0854 326.995 33.8914 325.255 30.7982 322.162C27.7049 319.069 25.9649 314.875 25.96 310.5V226.5C25.9649 222.125 27.7049 217.931 30.7982 214.838C33.8915 211.745 38.0854 210.005 42.46 210H106.5V327Z" fill="#E6E6E6"/>
<path d="M209.76 490.5H122.5C117.993 490.495 113.672 488.702 110.485 485.515C107.298 482.328 105.505 478.007 105.5 473.5V124.5C105.505 119.993 107.298 115.672 110.485 112.485C113.672 109.298 117.993 107.505 122.5 107.5H359.181L402.5 146.178V212.5H400.5V147.074L358.418 109.5H122.5C118.523 109.505 114.71 111.086 111.898 113.898C109.086 116.71 107.504 120.523 107.5 124.5V473.5C107.504 477.477 109.086 481.29 111.898 484.102C114.71 486.914 118.523 488.496 122.5 488.5H209.76V490.5Z" fill="#CCCCCC"/>
<path d="M401.5 147.5H374.5C369.993 147.495 365.672 145.702 362.485 142.515C359.298 139.328 357.505 135.007 357.5 130.5V108.5C357.5 108.235 357.605 107.98 357.793 107.793C357.98 107.605 358.235 107.5 358.5 107.5C358.765 107.5 359.02 107.605 359.207 107.793C359.395 107.98 359.5 108.235 359.5 108.5V130.5C359.504 134.477 361.086 138.29 363.898 141.102C366.71 143.914 370.523 145.495 374.5 145.5H401.5C401.765 145.5 402.02 145.605 402.207 145.793C402.395 145.98 402.5 146.235 402.5 146.5C402.5 146.765 402.395 147.02 402.207 147.207C402.02 147.395 401.765 147.5 401.5 147.5Z" fill="#CCCCCC"/>
<path d="M368.04 198H140.04C137.918 198 135.883 198.843 134.383 200.343C132.883 201.843 132.04 203.878 132.04 206C132.04 208.122 132.883 210.157 134.383 211.657C135.883 213.157 137.918 214 140.04 214H368.04C370.162 214 372.197 213.157 373.697 211.657C375.197 210.157 376.04 208.122 376.04 206C376.04 203.878 375.197 201.843 373.697 200.343C372.197 198.843 370.162 198 368.04 198Z" fill="#E6E6E6"/>
<path d="M253.04 164H140.04C137.918 164 135.883 164.843 134.383 166.343C132.883 167.843 132.04 169.878 132.04 172C132.04 174.122 132.883 176.157 134.383 177.657C135.883 179.157 137.918 180 140.04 180H253.04C255.162 180 257.197 179.157 258.697 177.657C260.197 176.157 261.04 174.122 261.04 172C261.04 169.878 260.197 167.843 258.697 166.343C257.197 164.843 255.162 164 253.04 164Z" fill="#E6E6E6"/>
<path d="M368.04 198H140.04C137.918 198 135.883 198.843 134.383 200.343C132.883 201.843 132.04 203.878 132.04 206C132.04 208.122 132.883 210.157 134.383 211.657C135.883 213.157 137.918 214 140.04 214H368.04C370.162 214 372.197 213.157 373.697 211.657C375.197 210.157 376.04 208.122 376.04 206C376.04 203.878 375.197 201.843 373.697 200.343C372.197 198.843 370.162 198 368.04 198Z" fill="#E6E6E6"/>
<path d="M253.04 164H140.04C137.918 164 135.883 164.843 134.383 166.343C132.883 167.843 132.04 169.878 132.04 172C132.04 174.122 132.883 176.157 134.383 177.657C135.883 179.157 137.918 180 140.04 180H253.04C255.162 180 257.197 179.157 258.697 177.657C260.197 176.157 261.04 174.122 261.04 172C261.04 169.878 260.197 167.843 258.697 166.343C257.197 164.843 255.162 164 253.04 164Z" fill="#E6E6E6"/>
<path d="M140.04 265C137.918 265 135.883 265.843 134.383 267.343C132.883 268.843 132.04 270.878 132.04 273C132.04 275.122 132.883 277.157 134.383 278.657C135.883 280.157 137.918 281 140.04 281H211.5V265H140.04Z" fill="#E6E6E6"/>
<path d="M140.04 231C137.918 231 135.883 231.843 134.383 233.343C132.883 234.843 132.04 236.878 132.04 239C132.04 241.122 132.883 243.157 134.383 244.657C135.883 246.157 137.918 247 140.04 247H211.5V231H140.04Z" fill="#E6E6E6"/>
<path d="M140.04 265C137.918 265 135.883 265.843 134.383 267.343C132.883 268.843 132.04 270.878 132.04 273C132.04 275.122 132.883 277.157 134.383 278.657C135.883 280.157 137.918 281 140.04 281H211.5V265H140.04Z" fill="#E6E6E6"/>
<path d="M140.04 231C137.918 231 135.883 231.843 134.383 233.343C132.883 234.843 132.04 236.878 132.04 239C132.04 241.122 132.883 243.157 134.383 244.657C135.883 246.157 137.918 247 140.04 247H211.5V231H140.04Z" fill="#E6E6E6"/>
<path d="M212 434.5H147.96C143.585 434.495 139.391 432.755 136.298 429.662C133.205 426.569 131.465 422.375 131.46 418V334C131.465 329.625 133.205 325.431 136.298 322.338C139.391 319.245 143.585 317.505 147.96 317.5H212V434.5Z" fill="#E6E6E6"/>
<path d="M217.64 216C215.155 217.517 213.101 219.647 211.675 222.186C210.25 224.725 209.501 227.588 209.5 230.5V233H211.5V230.5C211.504 227.193 212.599 223.98 214.615 221.358C216.631 218.737 219.455 216.853 222.65 216H217.64ZM463.18 213.5H226.5C221.993 213.505 217.672 215.298 214.485 218.485C211.298 221.672 209.505 225.993 209.5 230.5V579.5C209.506 584.007 211.3 588.327 214.486 591.514C217.673 594.7 221.993 596.494 226.5 596.5H489.5C494.007 596.494 498.327 594.7 501.514 591.514C504.701 588.327 506.494 584.007 506.5 579.5V252.18L463.18 213.5ZM504.5 579.5C504.495 583.477 502.913 587.289 500.101 590.101C497.289 592.913 493.477 594.495 489.5 594.5H226.5C222.523 594.495 218.711 592.913 215.899 590.101C213.087 587.289 211.505 583.477 211.5 579.5L211.5 230.5C211.504 227.193 212.599 223.98 214.615 221.358C216.631 218.737 219.455 216.853 222.65 216C223.906 215.665 225.2 215.497 226.5 215.5H462.42L504.5 253.07V579.5ZM217.64 216C215.155 217.517 213.101 219.647 211.675 222.186C210.25 224.725 209.501 227.588 209.5 230.5V233H211.5V230.5C211.504 227.193 212.599 223.98 214.615 221.358C216.631 218.737 219.455 216.853 222.65 216H217.64Z" fill="#3F3D56"/>
<path d="M505.5 253.5H478.5C473.993 253.495 469.672 251.702 466.485 248.515C463.298 245.328 461.505 241.007 461.5 236.5V214.5C461.5 214.235 461.605 213.98 461.793 213.793C461.98 213.605 462.235 213.5 462.5 213.5C462.765 213.5 463.02 213.605 463.207 213.793C463.395 213.98 463.5 214.235 463.5 214.5V236.5C463.504 240.477 465.086 244.29 467.898 247.102C470.71 249.914 474.523 251.495 478.5 251.5H505.5C505.765 251.5 506.02 251.605 506.207 251.793C506.395 251.98 506.5 252.235 506.5 252.5C506.5 252.765 506.395 253.02 506.207 253.207C506.02 253.395 505.765 253.5 505.5 253.5Z" fill="#3F3D56"/>
<path d="M472.041 320H244.042C241.92 320 239.885 319.157 238.385 317.657C236.884 316.157 236.042 314.122 236.042 312C236.042 309.878 236.884 307.843 238.385 306.343C239.885 304.843 241.92 304 244.042 304H472.041C474.163 304 476.198 304.843 477.698 306.343C479.199 307.843 480.041 309.878 480.041 312C480.041 314.122 479.199 316.157 477.698 317.657C476.198 319.157 474.163 320 472.041 320Z" fill="#CCCCCC"/>
<path d="M357.041 286H244.042C241.92 286 239.885 285.157 238.385 283.657C236.884 282.157 236.042 280.122 236.042 278C236.042 275.878 236.884 273.843 238.385 272.343C239.885 270.843 241.92 270 244.042 270H357.041C359.163 270 361.198 270.843 362.698 272.343C364.199 273.843 365.041 275.878 365.041 278C365.041 280.122 364.199 282.157 362.698 283.657C361.198 285.157 359.163 286 357.041 286Z" fill="#CCCCCC"/>
<path d="M472.041 387H244.042C241.92 387 239.885 386.157 238.385 384.657C236.884 383.157 236.042 381.122 236.042 379C236.042 376.878 236.884 374.843 238.385 373.343C239.885 371.843 241.92 371 244.042 371H472.041C474.163 371 476.198 371.843 477.698 373.343C479.199 374.843 480.041 376.878 480.041 379C480.041 381.122 479.199 383.157 477.698 384.657C476.198 386.157 474.163 387 472.041 387Z" fill="#CCCCCC"/>
<path d="M357.041 353H244.042C241.92 353 239.885 352.157 238.385 350.657C236.884 349.157 236.042 347.122 236.042 345C236.042 342.878 236.884 340.843 238.385 339.343C239.885 337.843 241.92 337 244.042 337H357.041C359.163 337 361.198 337.843 362.698 339.343C364.199 340.843 365.041 342.878 365.041 345C365.041 347.122 364.199 349.157 362.698 350.657C361.198 352.157 359.163 353 357.041 353Z" fill="#CCCCCC"/>
<path d="M463.959 540.5H251.959C247.584 540.495 243.39 538.755 240.297 535.662C237.204 532.569 235.464 528.375 235.459 524V440C235.464 435.625 237.204 431.432 240.297 428.338C243.39 425.245 247.584 423.505 251.959 423.5H463.959C468.333 423.505 472.527 425.245 475.621 428.338C478.714 431.432 480.454 435.625 480.459 440V524C480.454 528.375 478.714 532.569 475.621 535.662C472.527 538.755 468.333 540.495 463.959 540.5Z" fill="#2FA4DA"/>
<path d="M794.357 369.962C793.351 427.006 755.012 451.8 754.382 427.715C753.6 397.251 740.463 318.24 688.9 342.47C627.234 371.444 682.824 547.931 664.972 547.931C593.552 547.931 535.587 468.204 535.587 369.962C535.587 271.727 593.552 192 664.972 192C736.393 192 796.067 272.978 794.357 369.962V369.962Z" fill="url(#paint0_linear_401_25)" stroke="black" stroke-width="0.8" stroke-linecap="round" stroke-linejoin="round"/>
<path d="M759.415 247.88C775.977 277.817 784.197 315.354 784.935 354.766C785.623 391.175 775.695 425.56 757.285 435.302C765.882 438.051 793.351 426.999 794.35 369.954C795.183 323.079 781.662 279.943 759.415 247.88ZM697.061 322.739C691.767 322.84 685.923 324.258 679.478 327.281C617.812 356.256 673.409 532.742 655.557 532.742C618.775 532.742 585.564 511.593 561.998 477.657C585.643 520.345 622.976 547.931 664.972 547.931C682.823 547.931 627.227 371.444 688.892 342.47C708.011 333.494 721.85 338.702 731.736 350.361C724.363 334.478 713.283 322.435 697.061 322.739V322.739Z" fill="black" fill-opacity="0.31373"/>
<path d="M727.306 472.207C727.306 503.531 714.858 533.572 692.7 555.722C670.542 577.871 640.489 590.315 609.153 590.315C577.817 590.315 547.764 577.871 525.606 555.722C503.448 533.572 491 503.531 491 472.207C491 440.883 503.448 410.841 525.606 388.692C547.764 366.542 577.817 354.099 609.153 354.099C640.489 354.099 670.542 366.542 692.7 388.692C714.858 410.841 727.306 440.883 727.306 472.207V472.207Z" fill="url(#paint1_linear_401_25)" stroke="black" stroke-width="0.799968" stroke-linecap="round" stroke-linejoin="round"/>
<path d="M609.158 354.115C596.586 354.115 584.485 356.097 573.115 359.735C583.341 357.348 594.124 356.06 605.269 356.06C635.845 356.06 663.726 365.665 684.706 381.426C664.226 364.371 637.88 354.115 609.158 354.115ZM721.054 434.196C722.604 440.503 723.429 447.012 723.429 453.695C723.429 507.594 670.49 551.33 605.269 551.33C550.73 551.33 504.801 520.75 491.215 479.212C494.836 541.161 546.283 590.336 609.158 590.336C674.379 590.336 727.318 537.421 727.318 472.225C727.318 458.924 725.117 446.13 721.054 434.196Z" fill="black" fill-opacity="0.31373"/>
<path d="M609.159 354.115C589.011 354.115 570.03 359.156 553.424 368.059C561.289 395.522 584.268 420.916 611.411 420.916C637.83 420.916 660.345 396.86 668.782 370.244C651.278 359.995 630.899 354.115 609.159 354.115V354.115Z" fill="black" fill-opacity="0.31373"/>
<path fill-rule="evenodd" clip-rule="evenodd" d="M690.116 255.735C675.77 255.735 646.628 263.358 641.53 283.125C641.45 283.277 641.298 283.827 641.132 284.673C631.905 279.039 621.057 275.762 609.463 275.762C597.354 275.762 586.1 279.335 576.62 285.425C576.425 284.189 576.186 283.321 576.092 283.125C570.993 263.358 541.851 255.757 527.498 255.749C525.217 255.749 523.327 255.945 521.943 256.306C514.245 257.377 505.815 260.451 506.431 262.129C512.08 261.167 514.933 262.266 514.846 263.177C514.672 264.884 511.269 265.34 512.362 271.495C514.426 268.508 517.301 267.481 519.561 267.004C521.878 281.534 532.017 306.899 550.991 308.216C552.62 308.331 554.141 308.324 555.575 308.295C551.099 316.772 548.558 326.428 548.558 336.677C548.558 370.287 575.838 409.235 609.463 409.235C643.08 409.235 670.397 370.287 670.397 336.677C670.397 326.435 667.847 316.801 663.372 308.331C664.407 308.324 665.501 308.295 666.631 308.216C685.539 306.907 695.678 281.686 698.039 267.141C700.197 267.669 702.775 268.754 704.666 271.495C705.759 265.34 702.355 264.884 702.182 263.177C702.095 262.266 704.948 261.167 710.597 262.129C711.183 260.537 703.659 257.695 696.316 256.487C694.918 255.995 692.774 255.735 690.116 255.735V255.735Z" fill="url(#paint2_linear_401_25)" stroke="black" stroke-width="0.8" stroke-linejoin="round"/>
<path d="M632.687 436.098C622.592 426.008 604.624 425.495 593.935 434.977C586.411 441.566 583.413 451.684 582.428 461.268C581.733 468.175 582.145 475.589 585.694 481.744C589.257 486.315 595.463 487.277 600.909 487.552C611.765 488.036 623.236 485.418 631.912 478.554C642.37 469.593 644.81 452.907 637.134 441.472C635.881 439.519 634.367 437.718 632.687 436.098V436.098Z" fill="black" fill-opacity="0.31373"/>
<path d="M596.843 456.531C596.843 462.455 594.488 468.137 590.298 472.326C586.107 476.515 580.423 478.869 574.496 478.869C568.57 478.869 562.886 476.515 558.695 472.326C554.504 468.137 552.15 462.455 552.15 456.531C552.15 450.607 554.504 444.925 558.695 440.736C562.886 436.547 568.57 434.193 574.496 434.193C580.423 434.193 586.107 436.547 590.298 440.736C594.488 444.925 596.843 450.607 596.843 456.531V456.531Z" fill="black" fill-opacity="0.31373"/>
<path d="M629.066 428.865C618.971 418.775 601.004 418.262 590.314 427.744C582.79 434.333 579.792 444.452 578.807 454.035C578.112 460.942 578.525 468.356 582.073 474.511C585.636 479.082 591.843 480.044 597.289 480.319C608.144 480.803 619.616 478.185 628.291 471.321C638.749 462.36 641.189 445.674 633.513 434.239C632.26 432.286 630.746 430.485 629.066 428.865V428.865Z" fill="#DC9A6A" stroke="black" stroke-width="0.8" stroke-linecap="round" stroke-linejoin="round"/>
<path d="M606.298 421.075C608.448 421.589 610.534 422.377 612.482 423.477C614.372 424.497 616.161 425.719 617.762 427.144C627.415 435.389 629.407 450.795 622.36 461.326C616.357 469.564 606.819 474.721 597.064 476.977C593.11 477.867 588.605 478.482 584.753 477.021C588.316 479.465 593.03 480.109 597.281 480.319C608.137 480.803 619.608 478.185 628.291 471.321C638.749 462.36 641.189 445.674 633.513 434.239C632.26 432.279 630.746 430.485 629.066 428.858C623.164 422.956 614.561 420.338 606.298 421.075V421.075Z" fill="black" fill-opacity="0.31373"/>
<path fill-rule="evenodd" clip-rule="evenodd" d="M629.334 426.326C631.326 420.15 641.371 414.443 644.347 416.591C647.324 418.746 647.555 423.867 647.027 424.627C646.505 425.379 641.132 423.057 637.742 425.856C634.36 428.648 632.659 431.035 632.659 431.035L629.334 426.326Z" fill="url(#paint3_linear_401_25)" stroke="black" stroke-width="0.8"/>
<path fill-rule="evenodd" clip-rule="evenodd" d="M646.397 419.275C646.462 419.947 646.368 420.504 646.187 420.721C645.672 421.336 640.523 420.736 637.221 423.289C633.926 425.842 632.26 427.795 632.26 427.795L629.624 425.581C629.523 425.835 629.414 426.081 629.334 426.326L632.659 431.042C632.659 431.042 634.36 428.648 637.742 425.849C641.132 423.057 646.505 425.379 647.027 424.619C647.389 424.106 647.389 421.531 646.397 419.275V419.275Z" fill="black" fill-opacity="0.31373"/>
<path d="M631.652 426.363C621.738 416.555 605.306 414.023 593.747 421.379C591.133 422.819 591.922 426.428 591.951 426.37C596.318 422.92 600.844 426.717 606.79 430.977C614.068 436.192 622.071 444.191 627.944 451.966C632.057 457.406 634.998 462.751 632.644 466.49C632.767 466.526 636.185 467.488 637.75 464.306C645.629 449.471 641.175 435.223 631.652 426.363V426.363Z" fill="url(#paint4_linear_401_25)" stroke="black" stroke-width="0.8" stroke-linecap="round" stroke-linejoin="round"/>
<path d="M630.87 425.27C634.013 433.415 633.6 441.117 629.61 448.553C628.704 450.245 627.314 449.695 626.148 449.674C626.764 450.433 627.365 451.207 627.944 451.966C632.05 457.413 634.998 462.758 632.644 466.49C632.767 466.526 636.185 467.495 637.75 464.313C644.963 450.715 641.798 435.924 630.87 425.27V425.27Z" fill="black" fill-opacity="0.31373"/>
<path d="M590.16 440.83C591.628 443.37 592.582 446.174 592.966 449.082C593.35 451.99 593.158 454.944 592.399 457.777C591.64 460.609 590.331 463.264 588.545 465.59C586.759 467.916 584.532 469.868 581.99 471.333C579.449 472.799 576.643 473.749 573.733 474.131C570.823 474.513 567.866 474.318 565.031 473.558C562.195 472.798 559.537 471.487 557.208 469.701C554.878 467.915 552.923 465.688 551.455 463.147C549.986 460.607 549.033 457.803 548.648 454.895C548.264 451.987 548.457 449.033 549.215 446.2C549.974 443.368 551.284 440.713 553.07 438.387C554.856 436.061 557.083 434.109 559.624 432.644C562.166 431.178 564.971 430.228 567.881 429.846C570.791 429.464 573.748 429.659 576.584 430.419C579.419 431.179 582.078 432.49 584.407 434.276C586.736 436.062 588.691 438.289 590.16 440.83V440.83Z" fill="url(#paint5_linear_401_25)" stroke="black" stroke-width="0.800002" stroke-linecap="round" stroke-linejoin="round"/>
<path d="M680.675 456.878C680.675 462.803 678.32 468.484 674.129 472.673C669.939 476.862 664.255 479.216 658.328 479.216C652.402 479.216 646.718 476.862 642.527 472.673C638.336 468.484 635.982 462.803 635.982 456.878C635.982 450.954 638.336 445.272 642.527 441.083C646.718 436.894 652.402 434.541 658.328 434.541C664.255 434.541 669.939 436.894 674.129 441.083C678.32 445.272 680.675 450.954 680.675 456.878V456.878Z" fill="black" fill-opacity="0.31373"/>
<path d="M670.518 467.769C666.323 471.958 660.636 474.313 654.707 474.315C648.778 474.318 643.092 471.968 638.902 467.783C634.711 463.597 632.358 457.919 632.361 451.998C632.363 446.076 634.721 440.396 638.915 436.207C643.11 432.018 648.797 429.663 654.726 429.66C660.656 429.658 666.341 432.008 670.532 436.193C674.722 440.378 677.075 446.056 677.073 451.978C677.07 457.9 674.712 463.58 670.518 467.769Z" fill="url(#paint6_linear_401_25)" stroke="black" stroke-width="0.799998" stroke-linecap="round" stroke-linejoin="round"/>
<path d="M666.413 523.021C636.844 523.021 612.837 547.019 612.837 576.572C612.837 582.684 613.866 588.542 615.756 594.01H717.042C718.932 588.542 719.961 582.684 719.961 576.572C719.961 547.019 695.982 523.021 666.413 523.021V523.021Z" fill="url(#paint7_linear_401_25)" stroke="black" stroke-width="0.8" stroke-linecap="round" stroke-linejoin="round"/>
<path d="M559.261 523.021C529.692 523.021 505.714 547.019 505.714 576.572C505.714 582.684 506.742 588.542 508.632 594.01H609.918C611.809 588.542 612.837 582.684 612.837 576.572C612.837 547.019 588.83 523.021 559.261 523.021Z" fill="url(#paint8_linear_401_25)" stroke="black" stroke-width="0.8" stroke-linecap="round" stroke-linejoin="round"/>
<path d="M607.338 331.796C607.339 334.409 606.825 336.997 605.826 339.412C604.826 341.826 603.361 344.021 601.513 345.869C599.664 347.717 597.47 349.183 595.055 350.184C592.64 351.184 590.051 351.699 587.437 351.699C584.823 351.699 582.234 351.184 579.819 350.184C577.404 349.183 575.21 347.717 573.362 345.869C571.513 344.021 570.048 341.826 569.048 339.412C568.049 336.997 567.535 334.409 567.536 331.796C567.535 329.183 568.049 326.595 569.048 324.18C570.048 321.766 571.513 319.571 573.362 317.723C575.21 315.875 577.404 314.409 579.819 313.408C582.234 312.408 584.823 311.893 587.437 311.893C590.051 311.893 592.64 312.408 595.055 313.408C597.47 314.409 599.664 315.875 601.513 317.723C603.361 319.571 604.826 321.766 605.826 324.18C606.825 326.595 607.339 329.183 607.338 331.796V331.796Z" fill="white" stroke="black" stroke-width="0.800004" stroke-linecap="round" stroke-linejoin="round"/>
<path d="M651.413 331.796C651.414 334.409 650.9 336.997 649.9 339.412C648.901 341.826 647.435 344.021 645.587 345.869C643.739 347.717 641.545 349.183 639.129 350.184C636.714 351.184 634.126 351.699 631.511 351.699C628.897 351.699 626.309 351.184 623.894 350.184C621.478 349.183 619.284 347.717 617.436 345.869C615.588 344.021 614.122 341.826 613.123 339.412C612.123 336.997 611.609 334.409 611.61 331.796C611.609 329.183 612.123 326.595 613.123 324.18C614.122 321.766 615.588 319.571 617.436 317.723C619.284 315.875 621.478 314.409 623.894 313.408C626.309 312.408 628.897 311.893 631.511 311.893C634.126 311.893 636.714 312.408 639.129 313.408C641.545 314.409 643.739 315.875 645.587 317.723C647.435 319.571 648.901 321.766 649.9 324.18C650.9 326.595 651.414 329.183 651.413 331.796Z" fill="white" stroke="black" stroke-width="0.800004" stroke-linecap="round" stroke-linejoin="round"/>
<path d="M601.173 334.213C601.173 335.057 601.007 335.893 600.685 336.674C600.362 337.454 599.889 338.163 599.292 338.76C598.695 339.357 597.986 339.831 597.206 340.154C596.425 340.477 595.589 340.644 594.745 340.644C593.9 340.644 593.064 340.477 592.283 340.154C591.503 339.831 590.794 339.357 590.197 338.76C589.601 338.163 589.127 337.454 588.804 336.674C588.482 335.893 588.316 335.057 588.317 334.213C588.316 333.369 588.482 332.533 588.804 331.752C589.127 330.972 589.601 330.263 590.197 329.666C590.794 329.069 591.503 328.595 592.283 328.272C593.064 327.949 593.9 327.782 594.745 327.782C595.589 327.782 596.425 327.949 597.206 328.272C597.986 328.595 598.695 329.069 599.292 329.666C599.889 330.263 600.362 330.972 600.685 331.752C601.007 332.533 601.173 333.369 601.173 334.213V334.213Z" fill="black"/>
<path d="M630.575 334.213C630.576 335.057 630.41 335.893 630.087 336.674C629.764 337.454 629.291 338.163 628.694 338.76C628.097 339.357 627.388 339.831 626.608 340.154C625.828 340.477 624.992 340.644 624.147 340.644C623.302 340.644 622.466 340.477 621.686 340.154C620.906 339.831 620.197 339.357 619.6 338.76C619.003 338.163 618.53 337.454 618.207 336.674C617.884 335.893 617.718 335.057 617.719 334.213C617.718 333.369 617.884 332.533 618.207 331.752C618.53 330.972 619.003 330.263 619.6 329.666C620.197 329.069 620.906 328.595 621.686 328.272C622.466 327.949 623.302 327.782 624.147 327.782C624.992 327.782 625.828 327.949 626.608 328.272C627.388 328.595 628.097 329.069 628.694 329.666C629.291 330.263 629.764 330.972 630.087 331.752C630.41 332.533 630.576 333.369 630.575 334.213Z" fill="black"/>
<path fill-rule="evenodd" clip-rule="evenodd" d="M599.186 369.962C602.431 366.497 616.212 365.745 619.094 370.388C621.977 375.039 614.771 384.673 609.137 384.239C603.531 383.805 596.145 373.195 599.186 369.962Z" fill="black"/>
<path fill-rule="evenodd" clip-rule="evenodd" d="M562.94 299.341C560.803 268.443 528.968 261.405 527.432 265.072C525.904 268.747 533.248 310.053 562.94 299.341Z" fill="#74401B" stroke="black" stroke-width="0.8" stroke-linejoin="round"/>
<path fill-rule="evenodd" clip-rule="evenodd" d="M653.667 299.341C655.804 268.443 687.64 261.405 689.175 265.072C690.703 268.747 683.352 310.053 653.667 299.341Z" fill="url(#paint9_linear_401_25)" stroke="black" stroke-width="0.8" stroke-linejoin="round"/>
<path d="M554.516 578.554C554.516 583.066 553.004 587.392 550.314 590.583C547.624 593.773 543.976 595.565 540.172 595.565C536.368 595.565 532.719 593.773 530.029 590.583C527.339 587.392 525.828 583.066 525.828 578.554C525.828 574.042 527.339 569.715 530.029 566.525C532.719 563.335 536.368 561.542 540.172 561.542C543.976 561.542 547.624 563.335 550.314 566.525C553.004 569.715 554.516 574.042 554.516 578.554V578.554Z" fill="url(#paint10_linear_401_25)" stroke="black" stroke-width="0.734432" stroke-linecap="round" stroke-linejoin="round"/>
<path d="M590.494 578.554C590.494 583.066 588.983 587.392 586.293 590.583C583.603 593.773 579.954 595.565 576.15 595.565C572.346 595.565 568.697 593.773 566.007 590.583C563.317 587.392 561.806 583.066 561.806 578.554C561.806 574.042 563.317 569.715 566.007 566.525C568.697 563.335 572.346 561.542 576.15 561.542C579.954 561.542 583.603 563.335 586.293 566.525C588.983 569.715 590.494 574.042 590.494 578.554V578.554Z" fill="url(#paint11_linear_401_25)" stroke="black" stroke-width="0.734432" stroke-linecap="round" stroke-linejoin="round"/>
<path d="M573.475 578.554C573.475 583.066 571.964 587.392 569.274 590.583C566.584 593.773 562.936 595.565 559.131 595.565C555.327 595.565 551.679 593.773 548.989 590.583C546.299 587.392 544.788 583.066 544.788 578.554C544.788 574.042 546.299 569.715 548.989 566.525C551.679 563.335 555.327 561.542 559.131 561.542C562.936 561.542 566.584 563.335 569.274 566.525C571.964 569.715 573.475 574.042 573.475 578.554V578.554Z" fill="url(#paint12_linear_401_25)" stroke="black" stroke-width="0.734432" stroke-linecap="round" stroke-linejoin="round"/>
<path d="M664.89 578.554C664.89 583.066 663.379 587.392 660.689 590.583C657.999 593.773 654.35 595.565 650.546 595.565C646.742 595.565 643.093 593.773 640.403 590.583C637.713 587.392 636.202 583.066 636.202 578.554C636.202 574.042 637.713 569.715 640.403 566.525C643.093 563.335 646.742 561.542 650.546 561.542C654.35 561.542 657.999 563.335 660.689 566.525C663.379 569.715 664.89 574.042 664.89 578.554V578.554Z" fill="url(#paint13_linear_401_25)" stroke="black" stroke-width="0.734432" stroke-linecap="round" stroke-linejoin="round"/>
<path d="M700.872 578.554C700.872 583.066 699.361 587.392 696.671 590.583C693.981 593.773 690.332 595.565 686.528 595.565C682.724 595.565 679.075 593.773 676.385 590.583C673.695 587.392 672.184 583.066 672.184 578.554C672.184 574.042 673.695 569.715 676.385 566.525C679.075 563.335 682.724 561.542 686.528 561.542C690.332 561.542 693.981 563.335 696.671 566.525C699.361 569.715 700.872 574.042 700.872 578.554V578.554Z" fill="url(#paint14_linear_401_25)" stroke="black" stroke-width="0.734432" stroke-linecap="round" stroke-linejoin="round"/>
<path d="M683.853 578.554C683.853 583.066 682.341 587.392 679.651 590.583C676.961 593.773 673.313 595.565 669.509 595.565C665.705 595.565 662.056 593.773 659.366 590.583C656.676 587.392 655.165 583.066 655.165 578.554C655.165 574.042 656.676 569.715 659.366 566.525C662.056 563.335 665.705 561.542 669.509 561.542C673.313 561.542 676.961 563.335 679.651 566.525C682.341 569.715 683.853 574.042 683.853 578.554V578.554Z" fill="url(#paint15_linear_401_25)" stroke="black" stroke-width="0.734432" stroke-linecap="round" stroke-linejoin="round"/>
<path d="M665.595 313.105C666.703 317.691 667.297 322.493 667.297 327.411C667.297 361.022 639.988 399.956 606.363 399.956C581.856 399.956 560.746 379.263 551.085 355.026C558.566 383.01 581.871 409.25 609.463 409.25C643.087 409.25 670.397 370.287 670.397 336.677C670.397 328.316 668.688 320.36 665.624 313.105H665.595Z" fill="black" fill-opacity="0.31373"/>
<path d="M577.843 457.341C578.839 457.915 579.725 458.657 580.452 459.522C581.179 460.387 581.732 461.36 582.079 462.384C582.426 463.409 582.561 464.465 582.476 465.492C582.391 466.519 582.087 467.498 581.582 468.371C581.078 469.245 580.382 469.997 579.534 470.585C578.687 471.172 577.705 471.584 576.644 471.795C575.582 472.007 574.463 472.014 573.35 471.818C572.237 471.621 571.152 471.224 570.156 470.65C569.16 470.075 568.273 469.334 567.546 468.468C566.82 467.603 566.267 466.63 565.919 465.606C565.572 464.582 565.437 463.526 565.523 462.498C565.608 461.471 565.911 460.493 566.416 459.619C566.921 458.745 567.617 457.993 568.464 457.405C569.312 456.818 570.294 456.407 571.355 456.195C572.416 455.984 573.535 455.976 574.648 456.172C575.761 456.369 576.847 456.766 577.843 457.341V457.341Z" fill="url(#paint16_linear_401_25)" stroke="black" stroke-width="0.734456" stroke-linecap="round" stroke-linejoin="round"/>
<path d="M587.482 440.647C589.493 441.808 591.017 443.622 591.718 445.691C592.419 447.76 592.241 449.913 591.221 451.678C590.202 453.443 588.425 454.675 586.282 455.102C584.14 455.529 581.806 455.117 579.795 453.956C577.784 452.796 576.26 450.981 575.558 448.913C574.857 446.844 575.036 444.69 576.055 442.926C577.075 441.161 578.851 439.929 580.994 439.502C583.137 439.075 585.471 439.487 587.482 440.647V440.647Z" fill="url(#paint17_linear_401_25)" stroke="black" stroke-width="0.734456" stroke-linecap="round" stroke-linejoin="round"/>
<path d="M586.801 451.359C588.812 452.52 590.336 454.334 591.037 456.403C591.739 458.471 591.56 460.625 590.541 462.39C589.521 464.155 587.745 465.386 585.602 465.814C583.459 466.241 581.125 465.829 579.114 464.668C577.103 463.507 575.579 461.693 574.878 459.624C574.176 457.556 574.355 455.402 575.374 453.637C576.394 451.872 578.17 450.641 580.313 450.214C582.456 449.786 584.79 450.198 586.801 451.359V451.359Z" fill="url(#paint18_linear_401_25)" stroke="black" stroke-width="0.734456" stroke-linecap="round" stroke-linejoin="round"/>
<path d="M647.132 455.942C646.021 456.24 644.973 456.726 644.046 457.374C643.12 458.022 642.334 458.819 641.733 459.719C641.132 460.618 640.728 461.603 640.544 462.618C640.36 463.632 640.4 464.656 640.661 465.63C640.922 466.605 641.4 467.511 642.066 468.298C642.732 469.084 643.574 469.735 644.544 470.214C645.514 470.692 646.593 470.989 647.72 471.087C648.846 471.185 649.997 471.082 651.108 470.784C652.219 470.487 653.267 470 654.194 469.352C655.12 468.704 655.906 467.907 656.507 467.007C657.108 466.108 657.512 465.123 657.696 464.108C657.879 463.094 657.84 462.07 657.579 461.096C657.318 460.121 656.84 459.215 656.174 458.428C655.508 457.642 654.666 456.991 653.695 456.512C652.725 456.034 651.646 455.737 650.52 455.639C649.394 455.541 648.243 455.644 647.132 455.942V455.942Z" fill="url(#paint19_linear_401_25)" stroke="black" stroke-width="0.734456" stroke-linecap="round" stroke-linejoin="round"/>
<path d="M642.149 437.325C641.038 437.622 639.99 438.109 639.064 438.757C638.137 439.405 637.351 440.202 636.75 441.101C636.149 442.001 635.745 442.986 635.562 444.001C635.378 445.015 635.417 446.039 635.678 447.013C635.94 447.988 636.417 448.894 637.083 449.681C637.749 450.467 638.592 451.118 639.562 451.597C640.532 452.075 641.611 452.372 642.737 452.47C643.863 452.568 645.014 452.465 646.125 452.167C648.369 451.566 650.311 450.207 651.524 448.39C652.738 446.573 653.123 444.447 652.596 442.479C652.069 440.511 650.672 438.862 648.713 437.895C646.754 436.929 644.393 436.723 642.149 437.325V437.325Z" fill="url(#paint20_linear_401_25)" stroke="black" stroke-width="0.734456" stroke-linecap="round" stroke-linejoin="round"/>
<path d="M640.035 447.848C637.791 448.45 635.849 449.808 634.636 451.625C633.422 453.442 633.037 455.569 633.564 457.537C634.091 459.505 635.488 461.154 637.447 462.12C639.406 463.087 641.767 463.292 644.011 462.691C646.254 462.09 648.196 460.731 649.41 458.914C650.623 457.097 651.009 454.971 650.482 453.002C650.22 452.028 649.743 451.121 649.077 450.335C648.411 449.549 647.568 448.897 646.598 448.419C644.639 447.452 642.278 447.247 640.035 447.848V447.848Z" fill="url(#paint21_linear_401_25)" stroke="black" stroke-width="0.734456" stroke-linecap="round" stroke-linejoin="round"/>
</g>
<defs>
<linearGradient id="paint0_linear_401_25" x1="534.139" y1="369.965" x2="795.842" y2="369.965" gradientUnits="userSpaceOnUse">
<stop stop-color="#D07839"/>
</linearGradient>
<linearGradient id="paint1_linear_401_25" x1="489.552" y1="472.207" x2="728.754" y2="472.207" gradientUnits="userSpaceOnUse">
<stop stop-color="#D07839"/>
</linearGradient>
<linearGradient id="paint2_linear_401_25" x1="504.959" y1="332.485" x2="712.068" y2="332.485" gradientUnits="userSpaceOnUse">
<stop stop-color="#D07839"/>
</linearGradient>
<linearGradient id="paint3_linear_401_25" x1="259.521" y1="513.07" x2="260.273" y2="515.533" gradientUnits="userSpaceOnUse">
<stop stop-color="#74401B"/>
</linearGradient>
<linearGradient id="paint4_linear_401_25" x1="258.739" y1="507.671" x2="260.835" y2="514.543" gradientUnits="userSpaceOnUse">
<stop stop-color="#74401B"/>
</linearGradient>
<linearGradient id="paint5_linear_401_25" x1="557.276" y1="-232.025" x2="574.324" y2="-227.444" gradientUnits="userSpaceOnUse">
<stop stop-color="#D07839"/>
</linearGradient>
<linearGradient id="paint6_linear_401_25" x1="589.287" y1="-223.469" x2="606.339" y2="-218.887" gradientUnits="userSpaceOnUse">
<stop stop-color="#D07839"/>
</linearGradient>
<linearGradient id="paint7_linear_401_25" x1="572.257" y1="-189.799" x2="613.112" y2="-178.822" gradientUnits="userSpaceOnUse">
<stop stop-color="#D07839"/>
</linearGradient>
<linearGradient id="paint8_linear_401_25" x1="531.386" y1="-200.72" x2="572.241" y2="-189.742" gradientUnits="userSpaceOnUse">
<stop stop-color="#D07839"/>
</linearGradient>
<linearGradient id="paint9_linear_401_25" x1="192.121" y1="537.286" x2="193.618" y2="542.194" gradientUnits="userSpaceOnUse">
<stop stop-color="#74401B"/>
</linearGradient>
<linearGradient id="paint10_linear_401_25" x1="321.392" y1="478.643" x2="322.595" y2="482.587" gradientUnits="userSpaceOnUse">
<stop stop-color="#74401B"/>
</linearGradient>
<linearGradient id="paint11_linear_401_25" x1="322.575" y1="483.689" x2="323.778" y2="487.633" gradientUnits="userSpaceOnUse">
<stop stop-color="#74401B"/>
</linearGradient>
<linearGradient id="paint12_linear_401_25" x1="322.016" y1="481.302" x2="323.219" y2="485.246" gradientUnits="userSpaceOnUse">
<stop stop-color="#74401B"/>
</linearGradient>
<linearGradient id="paint13_linear_401_25" x1="325.018" y1="494.123" x2="326.221" y2="498.067" gradientUnits="userSpaceOnUse">
<stop stop-color="#74401B"/>
</linearGradient>
<linearGradient id="paint14_linear_401_25" x1="326.199" y1="499.169" x2="327.402" y2="503.113" gradientUnits="userSpaceOnUse">
<stop stop-color="#74401B"/>
</linearGradient>
<linearGradient id="paint15_linear_401_25" x1="325.64" y1="496.783" x2="326.843" y2="500.726" gradientUnits="userSpaceOnUse">
<stop stop-color="#74401B"/>
</linearGradient>
<linearGradient id="paint16_linear_401_25" x1="275.336" y1="498.654" x2="276.049" y2="500.991" gradientUnits="userSpaceOnUse">
<stop stop-color="#74401B"/>
</linearGradient>
<linearGradient id="paint17_linear_401_25" x1="268.159" y1="502.291" x2="268.872" y2="504.629" gradientUnits="userSpaceOnUse">
<stop stop-color="#74401B"/>
</linearGradient>
<linearGradient id="paint18_linear_401_25" x1="272.944" y1="500.729" x2="273.657" y2="503.066" gradientUnits="userSpaceOnUse">
<stop stop-color="#74401B"/>
</linearGradient>
<linearGradient id="paint19_linear_401_25" x1="277.604" y1="509.221" x2="278.333" y2="511.61" gradientUnits="userSpaceOnUse">
<stop stop-color="#74401B"/>
</linearGradient>
<linearGradient id="paint20_linear_401_25" x1="269.085" y1="511.072" x2="269.813" y2="513.461" gradientUnits="userSpaceOnUse">
<stop stop-color="#74401B"/>
</linearGradient>
<linearGradient id="paint21_linear_401_25" x1="273.738" y1="509.334" x2="274.467" y2="511.723" gradientUnits="userSpaceOnUse">
<stop stop-color="#74401B"/>
</linearGradient>
<clipPath id="clip0_401_25">
<rect width="819" height="613" fill="white"/>
</clipPath>
</defs>
</svg>
