<svg width="795" height="500" viewBox="0 0 795 500" fill="none" xmlns="http://www.w3.org/2000/svg">
<g clip-path="url(#clip0_312_316)">
<path d="M313.553 399.052H3.19589C2.34858 399.051 1.53623 398.714 0.937088 398.114C0.337946 397.515 0.000939629 396.703 0 395.856V93.3109C0.000939629 92.4636 0.337946 91.6512 0.937088 91.0521C1.53623 90.4529 2.34858 90.1159 3.19589 90.115H313.553C314.4 90.1159 315.213 90.4529 315.812 91.0521C316.411 91.6512 316.748 92.4636 316.749 93.3109V395.856C316.748 396.703 316.411 397.515 315.812 398.114C315.213 398.714 314.4 399.051 313.553 399.052Z" fill="#F0F0F0"/>
<path d="M279.818 117.813H36.9303C36.0831 117.814 35.2709 118.151 34.6718 118.75C34.0728 119.349 33.7356 120.161 33.7344 121.009V309.211C33.7357 310.059 34.0728 310.871 34.6719 311.47C35.2709 312.069 36.0831 312.406 36.9303 312.407H279.818C280.666 312.406 281.478 312.069 282.077 311.47C282.676 310.871 283.013 310.059 283.014 309.211V121.009C283.013 120.161 282.676 119.349 282.077 118.75C281.478 118.151 280.666 117.814 279.818 117.813Z" fill="white"/>
<path d="M265.97 349.338H50.7793C50.3086 349.337 49.8573 349.15 49.5244 348.817C49.1916 348.484 49.0043 348.033 49.0038 347.562V337.619C49.0043 337.149 49.1916 336.697 49.5244 336.365C49.8573 336.032 50.3086 335.845 50.7793 335.844H265.97C266.44 335.845 266.892 336.032 267.224 336.365C267.557 336.697 267.745 337.149 267.745 337.619V347.562C267.745 348.033 267.557 348.484 267.224 348.817C266.892 349.15 266.44 349.337 265.97 349.338Z" fill="white"/>
<path d="M191.399 373.484H50.7793C50.3086 373.484 49.8573 373.297 49.5244 372.964C49.1916 372.631 49.0043 372.18 49.0038 371.709V361.766C49.0043 361.296 49.1916 360.844 49.5244 360.511C49.8573 360.179 50.3086 359.991 50.7793 359.991H191.399C191.869 359.991 192.321 360.179 192.654 360.511C192.986 360.844 193.174 361.296 193.174 361.766V371.709C193.174 372.18 192.986 372.631 192.654 372.964C192.321 373.297 191.869 373.484 191.399 373.484Z" fill="white"/>
<path d="M791.393 308.937H481.036C480.188 308.936 479.376 308.599 478.777 307.999C478.178 307.4 477.841 306.588 477.84 305.741V3.19589C477.841 2.34858 478.178 1.53625 478.777 0.937103C479.376 0.33796 480.188 0.00094228 481.036 0H791.393C792.24 0.00092643 793.052 0.337926 793.652 0.937073C794.251 1.53622 794.588 2.34857 794.589 3.19589V305.741C794.588 306.588 794.251 307.4 793.652 307.999C793.052 308.599 792.24 308.936 791.393 308.937Z" fill="#F0F0F0"/>
<path d="M757.658 27.6985H514.77C513.923 27.6998 513.111 28.0369 512.512 28.636C511.913 29.235 511.576 30.0472 511.574 30.8944V219.097C511.576 219.944 511.913 220.756 512.512 221.356C513.111 221.955 513.923 222.292 514.77 222.293H757.658C758.506 222.292 759.318 221.955 759.917 221.356C760.516 220.756 760.853 219.944 760.854 219.097V30.8944C760.853 30.0472 760.516 29.235 759.917 28.636C759.318 28.0369 758.506 27.6998 757.658 27.6985Z" fill="white"/>
<path d="M743.809 259.223H528.619C528.148 259.222 527.697 259.035 527.364 258.702C527.031 258.369 526.844 257.918 526.844 257.447V247.504C526.844 247.034 527.031 246.582 527.364 246.25C527.697 245.917 528.148 245.73 528.619 245.729H743.809C744.28 245.73 744.731 245.917 745.064 246.25C745.397 246.582 745.584 247.034 745.585 247.504V257.447C745.584 257.918 745.397 258.369 745.064 258.702C744.731 259.035 744.28 259.222 743.809 259.223Z" fill="white"/>
<path d="M669.238 283.37H528.619C528.148 283.369 527.697 283.182 527.364 282.849C527.031 282.516 526.844 282.065 526.844 281.594V271.651C526.844 271.181 527.031 270.729 527.364 270.396C527.697 270.064 528.148 269.876 528.619 269.876H669.238C669.709 269.876 670.16 270.064 670.493 270.396C670.826 270.729 671.013 271.181 671.014 271.651V281.594C671.013 282.065 670.826 282.516 670.493 282.849C670.16 283.182 669.709 283.369 669.238 283.37Z" fill="white"/>
<path d="M695.999 222.293C697.37 217.357 698.435 213.103 698.982 210.092C699.151 209.163 699.168 208.213 699.032 207.279C696.986 192.727 660.042 180.427 655.305 178.907L654.161 166.237L607.657 161.23L601.77 177.437L585.08 183.694C584.476 183.917 583.901 184.212 583.369 184.574C581.969 185.519 580.892 186.871 580.284 188.447C579.675 190.023 579.565 191.747 579.967 193.388L587.076 222.293L695.999 222.293Z" fill="#2FA4DA"/>
<path d="M599.596 222.293H563.511C564.804 214.239 565.962 207.116 566.714 202.585C569.47 186.094 581.486 184.688 583.368 184.574C583.518 184.56 583.61 184.56 583.617 184.56H591.209L599.596 222.293Z" fill="#2FA4DA"/>
<path d="M695.999 222.293H704.749C703.975 215.184 701.517 210.397 699.032 207.279C697.372 205.088 695.232 203.306 692.775 202.074L692.114 201.79L684.423 222.293H695.999Z" fill="#2FA4DA"/>
<path d="M629.092 153.211C647.585 153.211 662.576 138.22 662.576 119.727C662.576 101.235 647.585 86.2437 629.092 86.2437C610.6 86.2437 595.609 101.235 595.609 119.727C595.609 138.22 610.6 153.211 629.092 153.211Z" fill="#A0616A"/>
<path d="M606.618 103.414C610.084 107.516 615.949 108.673 621.36 109.144C632.35 110.108 648.329 108.544 659.068 106.065C659.84 113.494 657.746 121.504 662.12 127.616C664.172 120.217 665.364 112.607 665.675 104.936C665.807 101.646 665.755 98.2421 664.419 95.2219C663.082 92.2018 660.166 89.6379 656.809 89.6114C659.303 87.7195 662.225 86.4707 665.317 85.9754L654.685 80.6327L657.416 77.8296L638.168 76.6517L643.743 73.1105C635.349 71.9578 626.857 71.6908 618.408 72.3139C614.485 72.6025 610.384 73.1546 607.206 75.4276C604.029 77.7007 602.192 82.2171 604.165 85.5535C601.695 85.9591 599.37 86.9886 597.409 88.5445C595.448 90.1003 593.917 92.131 592.961 94.4441C591.544 98.0361 591.674 102.026 592.11 105.854C592.835 111.975 594.258 117.994 596.35 123.792" fill="#2F2E41"/>
<path d="M558.378 499.429H248.021C247.174 499.428 246.361 499.091 245.762 498.492C245.163 497.893 244.826 497.081 244.825 496.233V193.689C244.826 192.841 245.163 192.029 245.762 191.43C246.361 190.831 247.174 190.494 248.021 190.493H558.378C559.225 190.494 560.038 190.831 560.637 191.43C561.236 192.029 561.573 192.841 561.574 193.689V496.233C561.573 497.081 561.236 497.893 560.637 498.492C560.038 499.091 559.225 499.428 558.378 499.429Z" fill="#E4E4E4"/>
<path d="M524.644 218.191H281.755C280.908 218.192 280.096 218.529 279.497 219.128C278.898 219.727 278.561 220.54 278.56 221.387V409.59C278.561 410.437 278.898 411.249 279.497 411.848C280.096 412.447 280.908 412.784 281.755 412.785H524.644C525.491 412.784 526.303 412.447 526.902 411.848C527.501 411.249 527.838 410.437 527.839 409.59V221.387C527.838 220.54 527.501 219.727 526.902 219.128C526.303 218.529 525.491 218.192 524.644 218.191Z" fill="white"/>
<path d="M510.794 449.715H295.604C295.133 449.715 294.682 449.527 294.349 449.195C294.016 448.862 293.829 448.41 293.829 447.94V437.997C293.829 437.526 294.016 437.075 294.349 436.742C294.682 436.409 295.133 436.222 295.604 436.221H510.794C511.265 436.222 511.716 436.409 512.049 436.742C512.382 437.075 512.569 437.526 512.57 437.997V447.94C512.569 448.41 512.382 448.862 512.049 449.195C511.716 449.527 511.265 449.715 510.794 449.715Z" fill="white"/>
<path d="M436.224 473.862H295.604C295.133 473.861 294.682 473.674 294.349 473.341C294.016 473.008 293.829 472.557 293.829 472.086V462.144C293.829 461.673 294.016 461.222 294.349 460.889C294.682 460.556 295.133 460.369 295.604 460.368H436.224C436.694 460.369 437.146 460.556 437.478 460.889C437.811 461.222 437.998 461.673 437.999 462.144V472.086C437.998 472.557 437.811 473.008 437.478 473.341C437.146 473.674 436.694 473.861 436.224 473.862Z" fill="white"/>
<path d="M427.098 412.785H378.215L381.261 367.063L398.896 371.132L416.047 364.535L416.502 364.364L416.53 364.35C416.536 364.364 416.541 364.378 416.544 364.393C416.814 365.479 422.197 387.034 427.098 412.785Z" fill="#2FA4DA"/>
<path d="M456.557 374.527L451.99 412.785H410.792L416.047 364.535L416.097 364.066L416.502 364.364L416.544 364.392L426.707 371.807L456.557 374.527Z" fill="#2F2E41"/>
<path d="M385.445 412.785H348.55L348.017 382.666L375.168 373.66L381.261 367.063C381.261 367.063 383.186 386.913 385.445 412.785Z" fill="#2F2E41"/>
<path d="M474.319 412.785H443.745L445.705 385.379L456.557 374.527C456.557 374.527 465.143 392.538 474.319 412.785Z" fill="#2F2E41"/>
<path d="M357.25 412.786H341.121C341.192 404.007 341.235 397.942 341.235 396.231C341.154 393.585 341.731 390.961 342.915 388.593C344.099 386.225 345.852 384.189 348.017 382.666L356.163 385.379L357.25 412.786Z" fill="#2F2E41"/>
<path d="M354.734 319.998C354.758 312.561 356.713 305.257 360.407 298.802C364.101 292.347 369.407 286.961 375.807 283.172C389.403 275.146 405.806 275.291 420.81 283.569C431.5 289.468 440.197 304.31 440.197 316.654V352.675H354.734V319.998Z" fill="#2F2E41"/>
<path d="M410.58 348.004C425.539 339.827 431.037 321.071 422.859 306.112C414.682 291.153 395.926 285.655 380.967 293.832C366.007 302.01 360.51 320.766 368.687 335.725C376.865 350.684 395.62 356.182 410.58 348.004Z" fill="#FFB8B8"/>
<path d="M363.582 321.21C363.348 320.94 362.801 320.308 366.608 291.009L366.729 290.53H367.073C386.374 281.036 405.955 280.797 425.278 289.817C425.873 290.1 426.384 290.532 426.762 291.071C427.14 291.61 427.371 292.238 427.433 292.894C429.688 320.421 429.143 321.021 428.911 321.277C428.557 321.666 428.126 321.976 427.645 322.188C427.165 322.401 426.645 322.511 426.12 322.511H417.559L417.379 322.188C415.909 319.456 414.297 316.804 412.548 314.242C411.743 316.792 411.085 319.386 410.575 322.011L410.471 322.511H366.432C365.891 322.511 365.357 322.395 364.866 322.171C364.374 321.946 363.936 321.619 363.582 321.21Z" fill="#2F2E41"/>
<path fill-rule="evenodd" clip-rule="evenodd" d="M227.187 150C214.757 150 189.506 156.614 185.088 173.764C185.019 173.895 184.887 174.372 184.743 175.106C176.749 170.218 167.349 167.376 157.302 167.376C146.811 167.376 137.059 170.475 128.845 175.759C128.676 174.686 128.469 173.933 128.387 173.764C123.969 156.614 98.7187 150.019 86.2816 150.013C84.305 150.013 82.6672 150.182 81.4687 150.496C74.7983 151.424 67.4942 154.091 68.0276 155.547C72.9221 154.713 75.3944 155.666 75.3191 156.457C75.1685 157.938 72.2193 158.333 73.1668 163.673C74.9552 161.082 77.4464 160.191 79.4042 159.776C81.4122 172.383 90.1972 194.39 106.638 195.532C108.05 195.632 109.367 195.626 110.61 195.601C106.732 202.955 104.529 211.332 104.529 220.224C104.529 249.384 128.167 283.175 157.302 283.175C186.431 283.175 210.101 249.384 210.101 220.224C210.101 211.338 207.892 202.98 204.014 195.632C204.911 195.626 205.859 195.601 206.837 195.532C223.222 194.396 232.007 172.515 234.052 159.896C235.922 160.354 238.156 161.295 239.794 163.673C240.741 158.333 237.792 157.938 237.642 156.457C237.566 155.666 240.039 154.713 244.933 155.547C245.441 154.167 238.922 151.701 232.559 150.653C231.348 150.226 229.49 150 227.187 150V150Z" fill="url(#paint0_linear_312_316)" stroke="black" stroke-width="3" stroke-linejoin="round"/>
<path d="M155.462 215.99C155.462 220.567 153.645 224.957 150.411 228.194C147.177 231.431 142.791 233.249 138.218 233.249C133.644 233.249 129.258 231.431 126.024 228.194C122.791 224.957 120.974 220.567 120.974 215.99C120.974 211.412 122.791 207.022 126.024 203.785C129.258 200.549 133.644 198.73 138.218 198.73C142.791 198.73 147.177 200.549 150.411 203.785C153.645 207.022 155.462 211.412 155.462 215.99V215.99Z" fill="white" stroke="black" stroke-width="3.00002" stroke-linecap="round" stroke-linejoin="round"/>
<path d="M193.651 215.99C193.651 220.567 191.835 224.957 188.601 228.194C185.367 231.431 180.981 233.249 176.407 233.249C171.834 233.249 167.448 231.431 164.214 228.194C160.98 224.957 159.164 220.567 159.164 215.99C159.164 211.412 160.98 207.022 164.214 203.785C167.448 200.549 171.834 198.73 176.407 198.73C180.981 198.73 185.367 200.549 188.601 203.785C191.835 207.022 193.651 211.412 193.651 215.99V215.99Z" fill="white" stroke="black" stroke-width="3.00002" stroke-linecap="round" stroke-linejoin="round"/>
<path d="M150.119 218.087C150.12 218.819 149.976 219.544 149.697 220.221C149.417 220.898 149.007 221.513 148.49 222.032C147.973 222.55 147.358 222.961 146.682 223.241C146.006 223.522 145.282 223.666 144.55 223.666C143.818 223.666 143.093 223.522 142.417 223.241C141.741 222.961 141.127 222.55 140.61 222.032C140.092 221.513 139.682 220.898 139.403 220.221C139.123 219.544 138.979 218.819 138.98 218.087C138.979 217.354 139.123 216.629 139.403 215.952C139.682 215.275 140.092 214.66 140.61 214.142C141.127 213.623 141.741 213.212 142.417 212.932C143.093 212.651 143.818 212.507 144.55 212.507C145.282 212.507 146.006 212.651 146.682 212.932C147.358 213.212 147.973 213.623 148.49 214.142C149.007 214.66 149.417 215.275 149.697 215.952C149.976 216.629 150.12 217.354 150.119 218.087V218.087Z" fill="black"/>
<path d="M175.596 218.087C175.597 218.819 175.453 219.544 175.173 220.221C174.894 220.898 174.484 221.513 173.966 222.032C173.449 222.55 172.835 222.961 172.159 223.241C171.483 223.522 170.758 223.666 170.026 223.666C169.295 223.666 168.57 223.522 167.894 223.241C167.218 222.961 166.604 222.55 166.086 222.032C165.569 221.513 165.159 220.898 164.879 220.221C164.6 219.544 164.456 218.819 164.457 218.087C164.456 217.354 164.6 216.629 164.879 215.952C165.159 215.275 165.569 214.66 166.086 214.142C166.604 213.623 167.218 213.212 167.894 212.932C168.57 212.651 169.295 212.507 170.026 212.507C170.758 212.507 171.483 212.651 172.159 212.932C172.835 213.212 173.449 213.623 173.966 214.142C174.484 214.66 174.894 215.275 175.173 215.952C175.453 216.629 175.597 217.354 175.596 218.087Z" fill="black"/>
<path fill-rule="evenodd" clip-rule="evenodd" d="M148.398 249.102C151.209 246.096 163.151 245.443 165.648 249.472C168.146 253.507 161.902 261.865 157.02 261.488C152.163 261.112 145.763 251.906 148.398 249.102Z" fill="black"/>
<path fill-rule="evenodd" clip-rule="evenodd" d="M116.992 187.832C115.14 161.025 87.5555 154.92 86.2251 158.101C84.9011 161.289 91.264 197.125 116.992 187.832Z" fill="#74401B" stroke="black" stroke-width="3" stroke-linejoin="round"/>
<path fill-rule="evenodd" clip-rule="evenodd" d="M195.605 187.832C197.456 161.025 225.041 154.92 226.372 158.101C227.696 161.289 221.326 197.125 195.605 187.832Z" fill="url(#paint1_linear_312_316)" stroke="black" stroke-width="3" stroke-linejoin="round"/>
<path d="M205.94 199.773C206.9 203.752 207.415 207.918 207.415 212.185C207.415 241.346 183.752 275.124 154.617 275.124C133.382 275.124 115.09 257.171 106.719 236.144C113.201 260.422 133.395 283.187 157.302 283.187C186.437 283.187 210.1 249.384 210.1 220.224C210.1 212.97 208.62 206.067 205.965 199.773H205.94Z" fill="black" fill-opacity="0.31373"/>
</g>
<defs>
<linearGradient id="paint0_linear_312_316" x1="66.7525" y1="216.587" x2="246.208" y2="216.587" gradientUnits="userSpaceOnUse">
<stop stop-color="#D07839"/>
</linearGradient>
<linearGradient id="paint1_linear_312_316" x1="235.18" y1="175.259" x2="258.378" y2="175.259" gradientUnits="userSpaceOnUse">
<stop stop-color="#74401B"/>
</linearGradient>
<clipPath id="clip0_312_316">
<rect width="794.589" height="499.429" fill="white"/>
</clipPath>
</defs>
</svg>
