<svg width="690" height="449" viewBox="0 0 690 449" fill="none" xmlns="http://www.w3.org/2000/svg">
<g clip-path="url(#clip0_408_391)">
<path d="M211.813 420.111C216.481 410.027 221.146 399.794 223.172 388.869C225.199 377.943 224.348 366.086 218.545 356.609C212.743 347.133 201.317 340.707 190.414 342.849C181.459 344.609 174.268 351.662 170.057 359.759C165.847 367.856 164.158 376.989 162.52 385.968C161.991 375.767 161.43 365.403 158.042 355.768C154.654 346.132 147.982 337.153 138.473 333.425C128.964 329.696 116.594 332.628 111.582 341.528C104.521 354.066 113.884 371.653 105.765 383.534C104.372 371.617 91.91 362.201 80.0659 364.118C68.2218 366.034 59.3648 378.899 61.8013 390.647C63.2511 397.638 68.0206 403.584 73.7229 407.879C79.4251 412.175 86.0571 417.154 92.6177 419.969L211.813 420.111Z" fill="#F2F2F2"/>
<path d="M68.0199 372.538C77.4282 375.826 86.9229 379.152 95.5122 384.293C103.21 388.901 110.065 395.105 114.395 403.05C116.767 407.312 118.175 412.043 118.52 416.909C118.583 417.926 120.175 417.933 120.112 416.909C119.555 407.848 115.14 399.556 109.025 392.998C102.321 385.808 93.6334 380.897 84.6639 377.087C79.3457 374.828 73.8953 372.908 68.4431 371.003C67.4742 370.664 67.0577 372.201 68.0199 372.538Z" fill="white"/>
<path d="M122.287 335.004C128.068 344.634 132.696 354.91 136.078 365.62C139.467 376.326 141.602 387.39 142.439 398.588C142.903 404.857 142.954 411.15 142.591 417.425C142.532 418.448 144.124 418.445 144.183 417.425C144.825 406.111 144.14 394.76 142.142 383.605C140.148 372.451 136.87 361.565 132.373 351.165C129.849 345.323 126.939 339.656 123.662 334.201C123.551 334.026 123.378 333.901 123.177 333.853C122.976 333.804 122.765 333.834 122.586 333.939C122.408 334.043 122.277 334.212 122.222 334.411C122.166 334.61 122.189 334.823 122.287 335.004Z" fill="white"/>
<path d="M200.188 344.147C192.012 362.517 186.258 381.872 183.071 401.725C182.177 407.302 181.484 412.906 180.994 418.537C180.905 419.557 182.497 419.551 182.585 418.537C184.318 398.728 188.6 379.226 195.323 360.512C197.212 355.251 199.292 350.063 201.562 344.95C201.974 344.022 200.603 343.212 200.188 344.147Z" fill="white"/>
<path d="M482.474 441.791L482.346 431.91L435.761 432.512L435.889 442.394L482.474 441.791Z" fill="#E6E6E6"/>
<path d="M499.026 443.996L492.374 443.976L488.261 436.639L492.706 429.327L498.888 429.345C497.34 427.376 495.214 425.94 492.809 425.24C490.404 424.54 487.841 424.61 485.477 425.44C483.114 426.27 481.07 427.819 479.632 429.87C478.193 431.92 477.432 434.369 477.456 436.874C477.48 439.379 478.287 441.813 479.764 443.836C481.241 445.859 483.314 447.369 485.693 448.154C488.071 448.94 490.636 448.961 493.027 448.215C495.418 447.469 497.516 445.994 499.026 443.996Z" fill="#E6E6E6"/>
<path d="M419.208 443.996L425.861 443.976L429.973 436.639L425.528 429.327L419.347 429.345C420.895 427.376 423.021 425.94 425.426 425.24C427.83 424.54 430.394 424.61 432.757 425.44C435.121 426.27 437.165 427.819 438.603 429.87C440.042 431.92 440.802 434.37 440.779 436.874C440.755 439.379 439.948 441.813 438.471 443.836C436.994 445.859 434.921 447.369 432.542 448.154C430.164 448.94 427.599 448.961 425.208 448.215C422.817 447.469 420.719 445.994 419.208 443.996Z" fill="#E6E6E6"/>
<path d="M689 420.969H1C0.734784 420.969 0.480429 420.864 0.292892 420.676C0.105356 420.489 0 420.234 0 419.969C0 419.704 0.105356 419.45 0.292892 419.262C0.480429 419.075 0.734784 418.969 1 418.969H689C689.265 418.969 689.52 419.075 689.707 419.262C689.895 419.45 690 419.704 690 419.969C690 420.234 689.895 420.489 689.707 420.676C689.52 420.864 689.265 420.969 689 420.969Z" fill="#3F3D56"/>
<path d="M448.486 243.707V25.2623C448.477 18.5652 445.812 12.1452 441.077 7.40962C436.341 2.67407 429.921 0.00947579 423.224 0H79.9539C73.2569 0.00947843 66.8368 2.67408 62.1013 7.40962C57.3657 12.1452 54.7011 18.5652 54.6917 25.2623V243.707C54.7011 250.404 57.3657 256.824 62.1013 261.56C66.8368 266.295 73.2569 268.96 79.9539 268.969H423.224C429.921 268.96 436.341 266.295 441.077 261.56C445.812 256.824 448.477 250.404 448.486 243.707ZM79.9539 265.997C74.0444 265.99 68.379 263.639 64.2003 259.461C60.0216 255.282 57.6709 249.616 57.6637 243.707V25.2623C57.6709 19.3528 60.0216 13.6873 64.2003 9.50864C68.379 5.32996 74.0444 2.97921 79.9539 2.97202H423.224C429.134 2.97921 434.799 5.32996 438.978 9.50864C443.156 13.6873 445.507 19.3528 445.514 25.2623V243.707C445.507 249.616 443.156 255.282 438.978 259.461C434.799 263.639 429.134 265.99 423.224 265.997H79.9539Z" fill="#3F3D56"/>
<path d="M445.514 39.3033H57.6637C57.2696 39.3033 56.8917 39.1467 56.613 38.868C56.3343 38.5894 56.1777 38.2114 56.1777 37.8173C56.1777 37.4232 56.3343 37.0452 56.613 36.7665C56.8917 36.4879 57.2696 36.3313 57.6637 36.3313H445.514C445.908 36.3313 446.286 36.4879 446.565 36.7665C446.844 37.0452 447 37.4232 447 37.8173C447 38.2114 446.844 38.5894 446.565 38.868C446.286 39.1467 445.908 39.3033 445.514 39.3033Z" fill="#3F3D56"/>
<path d="M82.9259 28.2344C87.0295 28.2344 90.356 24.9079 90.356 20.8044C90.356 16.7008 87.0295 13.3743 82.9259 13.3743C78.8224 13.3743 75.4958 16.7008 75.4958 20.8044C75.4958 24.9079 78.8224 28.2344 82.9259 28.2344Z" fill="#2FA4DA"/>
<path d="M108.188 28.2344C112.292 28.2344 115.618 24.9079 115.618 20.8044C115.618 16.7008 112.292 13.3743 108.188 13.3743C104.085 13.3743 100.758 16.7008 100.758 20.8044C100.758 24.9079 104.085 28.2344 108.188 28.2344Z" fill="#2FA4DA"/>
<path d="M133.451 28.2344C137.554 28.2344 140.881 24.9079 140.881 20.8044C140.881 16.7008 137.554 13.3743 133.451 13.3743C129.347 13.3743 126.021 16.7008 126.021 20.8044C126.021 24.9079 129.347 28.2344 133.451 28.2344Z" fill="#2FA4DA"/>
<path d="M188.979 199.232C188.847 199.232 188.717 199.206 188.596 199.156C188.475 199.105 188.364 199.032 188.271 198.939C188.179 198.846 188.105 198.736 188.055 198.614C188.004 198.493 187.979 198.363 187.979 198.232C187.979 187.805 183.408 181.989 176.033 175.985C175.931 175.902 175.846 175.8 175.783 175.684C175.721 175.568 175.682 175.442 175.668 175.311C175.654 175.18 175.667 175.048 175.704 174.922C175.742 174.795 175.804 174.678 175.887 174.576C175.97 174.474 176.073 174.389 176.188 174.327C176.304 174.265 176.431 174.226 176.562 174.213C176.693 174.199 176.825 174.212 176.951 174.25C177.077 174.288 177.194 174.35 177.296 174.434C185.126 180.809 189.979 187.014 189.979 198.232C189.979 198.363 189.953 198.493 189.903 198.614C189.852 198.736 189.779 198.846 189.686 198.939C189.593 199.032 189.483 199.105 189.361 199.156C189.24 199.206 189.11 199.232 188.979 199.232Z" fill="black"/>
<path d="M103.317 199.232C103.185 199.232 103.055 199.206 102.934 199.156C102.813 199.105 102.702 199.032 102.609 198.939C102.517 198.846 102.443 198.736 102.393 198.614C102.342 198.493 102.317 198.363 102.317 198.232C102.317 187.014 107.169 180.809 114.999 174.434C115.101 174.35 115.218 174.288 115.344 174.25C115.47 174.212 115.602 174.199 115.733 174.213C115.864 174.226 115.991 174.265 116.107 174.327C116.223 174.389 116.325 174.474 116.408 174.576C116.491 174.678 116.553 174.795 116.591 174.922C116.629 175.048 116.641 175.18 116.627 175.311C116.614 175.442 116.574 175.568 116.512 175.684C116.449 175.8 116.364 175.902 116.262 175.985C108.887 181.989 104.317 187.806 104.317 198.232C104.317 198.363 104.291 198.493 104.241 198.614C104.19 198.736 104.117 198.846 104.024 198.939C103.931 199.032 103.821 199.105 103.699 199.156C103.578 199.206 103.448 199.232 103.317 199.232Z" fill="black"/>
<path d="M180.413 130.701C180.207 130.701 180.005 130.638 179.836 130.519C179.668 130.4 179.54 130.231 179.471 130.037C179.401 129.842 179.394 129.631 179.45 129.432C179.505 129.233 179.621 129.056 179.781 128.926C187.362 122.755 187.979 113.988 187.979 104.003C187.979 103.737 188.084 103.483 188.272 103.296C188.459 103.108 188.713 103.003 188.979 103.003C189.244 103.003 189.498 103.108 189.686 103.296C189.873 103.483 189.979 103.737 189.979 104.003C189.979 114.508 189.306 123.75 181.044 130.477C180.866 130.622 180.643 130.702 180.413 130.701Z" fill="black"/>
<path d="M111.883 130.166C111.653 130.167 111.43 130.087 111.252 129.942C102.989 123.215 102.317 114.215 102.317 104.003C102.317 103.737 102.422 103.483 102.61 103.296C102.797 103.108 103.051 103.003 103.317 103.003C103.582 103.003 103.836 103.108 104.024 103.296C104.211 103.483 104.317 103.737 104.317 104.003C104.317 114.039 104.92 122.208 112.514 128.391C112.675 128.521 112.79 128.698 112.846 128.897C112.902 129.096 112.894 129.307 112.825 129.502C112.756 129.696 112.628 129.864 112.459 129.983C112.291 130.102 112.089 130.166 111.883 130.166Z" fill="black"/>
<path d="M201.828 152.152H180.413C180.148 152.152 179.893 152.047 179.706 151.859C179.518 151.672 179.413 151.417 179.413 151.152C179.413 150.887 179.518 150.633 179.706 150.445C179.893 150.257 180.148 150.152 180.413 150.152H201.828C202.094 150.152 202.348 150.257 202.535 150.445C202.723 150.633 202.828 150.887 202.828 151.152C202.828 151.417 202.723 151.672 202.535 151.859C202.348 152.047 202.094 152.152 201.828 152.152Z" fill="black"/>
<path d="M111.883 152.152H90.4675C90.2023 152.152 89.948 152.047 89.7604 151.859C89.5729 151.672 89.4675 151.417 89.4675 151.152C89.4675 150.887 89.5729 150.633 89.7604 150.445C89.948 150.257 90.2023 150.152 90.4675 150.152H111.883C112.148 150.152 112.403 150.257 112.59 150.445C112.778 150.633 112.883 150.887 112.883 151.152C112.883 151.417 112.778 151.672 112.59 151.859C112.403 152.047 112.148 152.152 111.883 152.152Z" fill="black"/>
<path d="M146.148 194.948C146.016 194.948 145.886 194.923 145.765 194.872C145.644 194.822 145.533 194.749 145.441 194.656C145.348 194.563 145.274 194.453 145.224 194.331C145.174 194.21 145.148 194.08 145.148 193.948V125.419C145.148 125.153 145.253 124.899 145.441 124.712C145.628 124.524 145.882 124.419 146.148 124.419C146.413 124.419 146.667 124.524 146.855 124.712C147.042 124.899 147.148 125.153 147.148 125.419V193.948C147.148 194.08 147.122 194.21 147.072 194.331C147.021 194.453 146.948 194.563 146.855 194.656C146.762 194.749 146.652 194.822 146.53 194.872C146.409 194.923 146.279 194.948 146.148 194.948Z" fill="black"/>
<path d="M146.148 194.948C136.798 194.938 127.835 191.219 121.224 184.608C114.612 177.996 110.894 169.033 110.883 159.683V133.966C110.883 117.498 124.396 107.267 146.148 107.267C168.889 107.267 181.413 116.749 181.413 133.966V159.683C181.402 169.033 177.683 177.997 171.072 184.608C164.461 191.219 155.497 194.938 146.148 194.948ZM146.148 109.267C130.067 109.267 112.883 115.756 112.883 133.966V159.683C112.881 164.053 113.739 168.381 115.41 172.419C117.081 176.457 119.53 180.126 122.62 183.217C125.709 186.308 129.377 188.76 133.414 190.433C137.451 192.105 141.778 192.966 146.148 192.966C150.518 192.966 154.845 192.105 158.882 190.433C162.919 188.76 166.587 186.308 169.676 183.217C172.765 180.126 175.215 176.457 176.886 172.419C178.557 168.381 179.415 164.053 179.413 159.683V133.966C179.413 112.476 158.571 109.267 146.148 109.267Z" fill="black"/>
<path d="M125.651 113.441C125.451 113.441 125.255 113.381 125.09 113.269C124.924 113.157 124.796 112.997 124.722 112.811C124.144 111.366 123.81 109.834 123.733 108.28C123.751 102.351 126.11 96.6693 130.297 92.4721C134.484 88.2749 140.16 85.902 146.089 85.8704H146.204C152.125 85.8986 157.795 88.263 161.982 92.4496C166.169 96.6361 168.534 102.306 168.563 108.227C168.511 109.674 168.203 111.1 167.653 112.438C167.551 112.682 167.356 112.875 167.112 112.976C166.868 113.076 166.595 113.077 166.35 112.976C166.106 112.876 165.912 112.683 165.809 112.44C165.707 112.196 165.705 111.922 165.803 111.677C166.26 110.569 166.517 109.388 166.564 108.19C166.529 102.804 164.371 97.65 160.558 93.8457C156.746 90.0414 151.587 87.8943 146.201 87.8704H146.091C140.7 87.8972 135.536 90.0511 131.724 93.864C127.911 97.6768 125.758 102.84 125.732 108.232C125.803 109.549 126.089 110.846 126.579 112.07C126.639 112.222 126.662 112.386 126.644 112.548C126.626 112.711 126.569 112.866 126.478 113.001C126.386 113.136 126.263 113.247 126.119 113.324C125.975 113.401 125.814 113.441 125.651 113.441Z" fill="black"/>
<path d="M247.71 108.003H235.71C233.854 108.003 232.073 107.265 230.761 105.952C229.448 104.64 228.71 102.859 228.71 101.003C228.71 99.1462 229.448 97.3657 230.761 96.0529C232.073 94.7402 233.854 94.0027 235.71 94.0027H247.71C249.567 94.0027 251.347 94.7402 252.66 96.0529C253.973 97.3657 254.71 99.1462 254.71 101.003C254.71 102.859 253.973 104.64 252.66 105.952C251.347 107.265 249.567 108.003 247.71 108.003Z" fill="#CCCCCC"/>
<path d="M329.71 137.503H317.71C315.854 137.503 314.073 136.765 312.761 135.452C311.448 134.14 310.71 132.359 310.71 130.503C310.71 128.646 311.448 126.866 312.761 125.553C314.073 124.24 315.854 123.503 317.71 123.503H329.71C331.567 123.503 333.347 124.24 334.66 125.553C335.973 126.866 336.71 128.646 336.71 130.503C336.71 132.359 335.973 134.14 334.66 135.452C333.347 136.765 331.567 137.503 329.71 137.503Z" fill="#CCCCCC"/>
<path d="M367.71 137.503H355.71C353.854 137.503 352.073 136.765 350.761 135.452C349.448 134.14 348.71 132.359 348.71 130.503C348.71 128.646 349.448 126.866 350.761 125.553C352.073 124.24 353.854 123.503 355.71 123.503H367.71C369.567 123.503 371.347 124.24 372.66 125.553C373.973 126.866 374.71 128.646 374.71 130.503C374.71 132.359 373.973 134.14 372.66 135.452C371.347 136.765 369.567 137.503 367.71 137.503Z" fill="#CCCCCC"/>
<path d="M405.71 137.503H393.71C391.854 137.503 390.073 136.765 388.761 135.452C387.448 134.14 386.71 132.359 386.71 130.503C386.71 128.646 387.448 126.866 388.761 125.553C390.073 124.24 391.854 123.503 393.71 123.503H405.71C407.567 123.503 409.347 124.24 410.66 125.553C411.973 126.866 412.71 128.646 412.71 130.503C412.71 132.359 411.973 134.14 410.66 135.452C409.347 136.765 407.567 137.503 405.71 137.503Z" fill="#CCCCCC"/>
<path d="M330.71 108.503H274.71C272.854 108.503 271.073 107.765 269.761 106.452C268.448 105.14 267.71 103.359 267.71 101.503C267.71 99.6462 268.448 97.8657 269.761 96.5529C271.073 95.2402 272.854 94.5027 274.71 94.5027H330.71C332.567 94.5027 334.347 95.2402 335.66 96.5529C336.973 97.8657 337.71 99.6462 337.71 101.503C337.71 103.359 336.973 105.14 335.66 106.452C334.347 107.765 332.567 108.503 330.71 108.503Z" fill="#CCCCCC"/>
<path d="M291.71 136.503H235.71C233.854 136.503 232.073 135.765 230.761 134.452C229.448 133.14 228.71 131.359 228.71 129.503C228.71 127.646 229.448 125.866 230.761 124.553C232.073 123.24 233.854 122.503 235.71 122.503H291.71C293.567 122.503 295.347 123.24 296.66 124.553C297.973 125.866 298.71 127.646 298.71 129.503C298.71 131.359 297.973 133.14 296.66 134.452C295.347 135.765 293.567 136.503 291.71 136.503Z" fill="#CCCCCC"/>
<path d="M401.71 108.503H358.71C356.854 108.503 355.073 107.765 353.761 106.452C352.448 105.14 351.71 103.359 351.71 101.503C351.71 99.6462 352.448 97.8657 353.761 96.5529C355.073 95.2402 356.854 94.5027 358.71 94.5027H401.71C403.567 94.5027 405.347 95.2402 406.66 96.5529C407.973 97.8657 408.71 99.6462 408.71 101.503C408.71 103.359 407.973 105.14 406.66 106.452C405.347 107.765 403.567 108.503 401.71 108.503Z" fill="#CCCCCC"/>
<path d="M247.71 167.003H235.71C233.854 167.003 232.073 166.265 230.761 164.952C229.448 163.64 228.71 161.859 228.71 160.003C228.71 158.146 229.448 156.366 230.761 155.053C232.073 153.74 233.854 153.003 235.71 153.003H247.71C249.567 153.003 251.347 153.74 252.66 155.053C253.973 156.366 254.71 158.146 254.71 160.003C254.71 161.859 253.973 163.64 252.66 164.952C251.347 166.265 249.567 167.003 247.71 167.003Z" fill="#CCCCCC"/>
<path d="M330.71 167.503H274.71C272.854 167.503 271.073 166.765 269.761 165.452C268.448 164.14 267.71 162.359 267.71 160.503C267.71 158.646 268.448 156.866 269.761 155.553C271.073 154.24 272.854 153.503 274.71 153.503H330.71C332.567 153.503 334.347 154.24 335.66 155.553C336.973 156.866 337.71 158.646 337.71 160.503C337.71 162.359 336.973 164.14 335.66 165.452C334.347 166.765 332.567 167.503 330.71 167.503Z" fill="#CCCCCC"/>
<path d="M401.71 167.503H358.71C356.854 167.503 355.073 166.765 353.761 165.452C352.448 164.14 351.71 162.359 351.71 160.503C351.71 158.646 352.448 156.866 353.761 155.553C355.073 154.24 356.854 153.503 358.71 153.503H401.71C403.567 153.503 405.347 154.24 406.66 155.553C407.973 156.866 408.71 158.646 408.71 160.503C408.71 162.359 407.973 164.14 406.66 165.452C405.347 166.765 403.567 167.503 401.71 167.503Z" fill="#CCCCCC"/>
<path d="M382.71 191.003C382.713 189.147 383.451 187.368 384.763 186.055C386.075 184.743 387.855 184.005 389.71 184.003H401.71C403.567 184.003 405.347 184.74 406.66 186.053C407.973 187.366 408.71 189.146 408.71 191.003C408.71 192.859 407.973 194.64 406.66 195.952C405.347 197.265 403.567 198.003 401.71 198.003H389.71C387.855 198.001 386.075 197.262 384.763 195.95C383.451 194.638 382.713 192.859 382.71 191.003Z" fill="#CCCCCC"/>
<path d="M299.71 191.503C299.713 189.647 300.451 187.868 301.763 186.555C303.075 185.243 304.855 184.505 306.71 184.503H362.71C364.567 184.503 366.347 185.24 367.66 186.553C368.973 187.866 369.71 189.646 369.71 191.503C369.71 193.359 368.973 195.14 367.66 196.452C366.347 197.765 364.567 198.503 362.71 198.503H306.71C304.855 198.501 303.075 197.762 301.763 196.45C300.451 195.138 299.713 193.359 299.71 191.503Z" fill="#CCCCCC"/>
<path d="M228.71 191.503C228.713 189.647 229.451 187.868 230.763 186.555C232.075 185.243 233.855 184.505 235.71 184.503H278.71C280.567 184.503 282.347 185.24 283.66 186.553C284.973 187.866 285.71 189.646 285.71 191.503C285.71 193.359 284.973 195.14 283.66 196.452C282.347 197.765 280.567 198.503 278.71 198.503H235.71C233.855 198.501 232.075 197.762 230.763 196.45C229.451 195.138 228.713 193.359 228.71 191.503Z" fill="#CCCCCC"/>
<path d="M683.007 227.944C682.148 276.649 649.414 297.818 648.876 277.254C648.208 251.244 636.992 183.784 592.967 204.472C540.317 229.21 587.78 379.895 572.538 379.895C511.559 379.895 462.069 311.824 462.069 227.944C462.069 144.071 511.559 76 572.538 76C633.517 76 684.467 145.139 683.007 227.944V227.944Z" fill="url(#paint0_linear_408_391)" stroke="black" stroke-width="0.8" stroke-linecap="round" stroke-linejoin="round"/>
<path d="M653.173 123.711C667.314 149.27 674.332 181.32 674.963 214.97C675.55 246.056 667.073 275.414 651.355 283.732C658.695 286.079 682.148 276.643 683.001 227.938C683.712 187.916 672.168 151.086 653.173 123.711ZM599.936 187.625C595.416 187.712 590.426 188.922 584.923 191.504C532.273 216.242 579.741 366.926 564.5 366.926C533.095 366.926 504.739 348.87 484.619 319.895C504.807 356.342 536.681 379.895 572.538 379.895C587.78 379.895 540.311 229.21 592.961 204.472C609.285 196.808 621.101 201.254 629.541 211.209C623.247 197.648 613.786 187.366 599.936 187.625V187.625Z" fill="black" fill-opacity="0.31373"/>
<path d="M625.759 315.241C625.759 341.986 615.13 367.635 596.212 386.546C577.293 405.458 551.634 416.082 524.879 416.082C498.125 416.082 472.465 405.458 453.547 386.546C434.628 367.635 424 341.986 424 315.241C424 288.497 434.628 262.847 453.547 243.936C472.465 225.025 498.125 214.4 524.879 214.4C551.634 214.4 577.293 225.025 596.212 243.936C615.13 262.847 625.759 288.497 625.759 315.241V315.241Z" fill="url(#paint1_linear_408_391)" stroke="black" stroke-width="0.799968" stroke-linecap="round" stroke-linejoin="round"/>
<path d="M524.884 214.414C514.15 214.414 503.818 216.106 494.11 219.212C502.841 217.174 512.047 216.075 521.563 216.075C547.669 216.075 571.474 224.276 589.387 237.732C571.901 223.171 549.406 214.414 524.884 214.414ZM620.421 282.787C621.744 288.172 622.449 293.73 622.449 299.436C622.449 345.455 577.25 382.797 521.563 382.797C474.998 382.797 435.784 356.688 424.184 321.223C427.275 374.114 471.201 416.101 524.884 416.101C580.57 416.101 625.769 370.922 625.769 315.257C625.769 303.901 623.89 292.977 620.421 282.787Z" fill="black" fill-opacity="0.31373"/>
<path d="M524.884 214.414C507.682 214.414 491.476 218.718 477.298 226.32C484.013 249.768 503.632 271.449 526.807 271.449C549.364 271.449 568.587 250.91 575.791 228.185C560.846 219.435 543.446 214.414 524.884 214.414V214.414Z" fill="black" fill-opacity="0.31373"/>
<path fill-rule="evenodd" clip-rule="evenodd" d="M594.006 130.417C581.757 130.417 556.876 136.926 552.523 153.803C552.455 153.933 552.325 154.402 552.183 155.125C544.305 150.314 535.043 147.517 525.144 147.517C514.805 147.517 505.196 150.567 497.103 155.767C496.936 154.711 496.732 153.97 496.651 153.803C492.298 136.926 467.417 130.436 455.162 130.429C453.214 130.429 451.6 130.596 450.419 130.905C443.847 131.819 436.649 134.443 437.175 135.876C441.998 135.055 444.434 135.993 444.36 136.771C444.211 138.229 441.305 138.618 442.239 143.873C444.001 141.323 446.456 140.446 448.385 140.038C450.364 152.444 459.02 174.101 475.22 175.225C476.611 175.324 477.91 175.318 479.134 175.293C475.313 182.531 473.143 190.775 473.143 199.525C473.143 228.222 496.435 261.476 525.144 261.476C553.846 261.476 577.169 228.222 577.169 199.525C577.169 190.781 574.993 182.555 571.171 175.324C572.056 175.318 572.989 175.293 573.954 175.225C590.098 174.108 598.755 152.574 600.77 140.156C602.613 140.606 604.814 141.533 606.428 143.873C607.362 138.618 604.456 138.229 604.307 136.771C604.233 135.993 606.669 135.055 611.492 135.876C611.993 134.517 605.569 132.091 599.299 131.059C598.106 130.639 596.275 130.417 594.006 130.417V130.417Z" fill="url(#paint2_linear_408_391)" stroke="black" stroke-width="0.8" stroke-linejoin="round"/>
<path d="M514.369 301.857C514.369 306.916 512.359 311.767 508.781 315.343C505.203 318.92 500.35 320.929 495.29 320.929C490.229 320.929 485.376 318.92 481.798 315.343C478.22 311.767 476.21 306.916 476.21 301.857C476.21 296.799 478.22 291.948 481.798 288.371C485.376 284.795 490.229 282.785 495.29 282.785C500.35 282.785 505.203 284.795 508.781 288.371C512.359 291.948 514.369 296.799 514.369 301.857V301.857Z" fill="black" fill-opacity="0.31373"/>
<path d="M585.945 302.154C585.945 307.212 583.934 312.063 580.356 315.64C576.778 319.217 571.925 321.226 566.865 321.226C561.805 321.226 556.952 319.217 553.374 315.64C549.796 312.063 547.786 307.212 547.786 302.154C547.786 297.096 549.796 292.245 553.374 288.668C556.952 285.091 561.805 283.082 566.865 283.082C571.925 283.082 576.778 285.091 580.356 288.668C583.934 292.245 585.945 297.096 585.945 302.154V302.154Z" fill="black" fill-opacity="0.31373"/>
<path d="M573.768 358.627C548.522 358.627 528.025 379.116 528.025 404.349C528.025 409.567 528.903 414.569 530.517 419.238H616.995C618.609 414.569 619.487 409.567 619.487 404.349C619.487 379.116 599.015 358.627 573.768 358.627V358.627Z" fill="url(#paint3_linear_408_391)" stroke="black" stroke-width="0.8" stroke-linecap="round" stroke-linejoin="round"/>
<path d="M482.281 358.627C457.035 358.627 436.562 379.116 436.562 404.349C436.562 409.567 437.441 414.569 439.054 419.238H525.533C527.147 414.569 528.025 409.567 528.025 404.349C528.025 379.116 507.527 358.627 482.281 358.627Z" fill="url(#paint4_linear_408_391)" stroke="black" stroke-width="0.8" stroke-linecap="round" stroke-linejoin="round"/>
<path d="M523.33 195.358C523.331 197.589 522.892 199.799 522.039 201.861C521.185 203.922 519.934 205.796 518.356 207.374C516.778 208.952 514.905 210.204 512.843 211.058C510.781 211.912 508.57 212.351 506.338 212.351C504.106 212.351 501.896 211.912 499.834 211.058C497.772 210.204 495.899 208.952 494.321 207.374C492.743 205.796 491.491 203.922 490.638 201.861C489.784 199.799 489.346 197.589 489.347 195.358C489.346 193.127 489.784 190.918 490.638 188.856C491.491 186.794 492.743 184.921 494.321 183.343C495.899 181.765 497.772 180.513 499.834 179.659C501.896 178.805 504.106 178.365 506.338 178.365C508.57 178.365 510.781 178.805 512.843 179.659C514.905 180.513 516.778 181.765 518.356 183.343C519.934 184.921 521.185 186.794 522.039 188.856C522.892 190.918 523.331 193.127 523.33 195.358V195.358Z" fill="white" stroke="black" stroke-width="0.800004" stroke-linecap="round" stroke-linejoin="round"/>
<path d="M560.961 195.358C560.962 197.589 560.523 199.799 559.67 201.861C558.816 203.922 557.565 205.796 555.987 207.374C554.409 208.952 552.535 210.204 550.473 211.058C548.411 211.912 546.201 212.351 543.969 212.351C541.737 212.351 539.527 211.912 537.465 211.058C535.403 210.204 533.529 208.952 531.951 207.374C530.374 205.796 529.122 203.922 528.269 201.861C527.415 199.799 526.976 197.589 526.978 195.358C526.976 193.127 527.415 190.918 528.269 188.856C529.122 186.794 530.374 184.921 531.951 183.343C533.529 181.765 535.403 180.513 537.465 179.659C539.527 178.805 541.737 178.365 543.969 178.365C546.201 178.365 548.411 178.805 550.473 179.659C552.535 180.513 554.409 181.765 555.987 183.343C557.565 184.921 558.816 186.794 559.67 188.856C560.523 190.918 560.962 193.127 560.961 195.358Z" fill="white" stroke="black" stroke-width="0.800004" stroke-linecap="round" stroke-linejoin="round"/>
<path d="M518.066 197.422C518.066 198.143 517.925 198.857 517.649 199.523C517.374 200.189 516.97 200.794 516.46 201.304C515.95 201.814 515.345 202.219 514.679 202.495C514.013 202.771 513.299 202.913 512.578 202.913C511.856 202.913 511.142 202.771 510.476 202.495C509.81 202.219 509.205 201.814 508.695 201.304C508.186 200.794 507.781 200.189 507.506 199.523C507.23 198.857 507.089 198.143 507.089 197.422C507.089 196.701 507.23 195.987 507.506 195.321C507.781 194.655 508.186 194.05 508.695 193.54C509.205 193.03 509.81 192.625 510.476 192.349C511.142 192.073 511.856 191.931 512.578 191.931C513.299 191.931 514.013 192.073 514.679 192.349C515.345 192.625 515.95 193.03 516.46 193.54C516.97 194.05 517.374 194.655 517.649 195.321C517.925 195.987 518.066 196.701 518.066 197.422V197.422Z" fill="black"/>
<path d="M543.169 197.422C543.17 198.143 543.029 198.857 542.753 199.523C542.477 200.189 542.073 200.794 541.564 201.304C541.054 201.814 540.449 202.219 539.783 202.495C539.116 202.771 538.402 202.913 537.681 202.913C536.96 202.913 536.246 202.771 535.58 202.495C534.914 202.219 534.309 201.814 533.799 201.304C533.289 200.794 532.885 200.189 532.61 199.523C532.334 198.857 532.193 198.143 532.193 197.422C532.193 196.701 532.334 195.987 532.61 195.321C532.885 194.655 533.289 194.05 533.799 193.54C534.309 193.03 534.914 192.625 535.58 192.349C536.246 192.073 536.96 191.931 537.681 191.931C538.402 191.931 539.116 192.073 539.783 192.349C540.449 192.625 541.054 193.03 541.564 193.54C542.073 194.05 542.477 194.655 542.753 195.321C543.029 195.987 543.17 196.701 543.169 197.422Z" fill="black"/>
<path fill-rule="evenodd" clip-rule="evenodd" d="M516.37 227.944C519.14 224.986 530.906 224.344 533.367 228.309C535.828 232.279 529.676 240.505 524.865 240.134C520.08 239.764 513.773 230.705 516.37 227.944Z" fill="black"/>
<path fill-rule="evenodd" clip-rule="evenodd" d="M485.422 167.648C483.598 141.267 456.417 135.259 455.106 138.39C453.802 141.527 460.071 176.794 485.422 167.648Z" fill="#74401B" stroke="black" stroke-width="0.8" stroke-linejoin="round"/>
<path fill-rule="evenodd" clip-rule="evenodd" d="M562.886 167.648C564.71 141.267 591.891 135.259 593.202 138.39C594.507 141.527 588.231 176.794 562.886 167.648Z" fill="url(#paint5_linear_408_391)" stroke="black" stroke-width="0.8" stroke-linejoin="round"/>
<path d="M478.23 406.041C478.23 409.893 476.939 413.587 474.643 416.311C472.346 419.035 469.231 420.565 465.983 420.565C462.735 420.565 459.62 419.035 457.323 416.311C455.026 413.587 453.736 409.893 453.736 406.041C453.736 402.189 455.026 398.495 457.323 395.771C459.62 393.047 462.735 391.517 465.983 391.517C469.231 391.517 472.346 393.047 474.643 395.771C476.939 398.495 478.23 402.189 478.23 406.041V406.041Z" fill="url(#paint6_linear_408_391)" stroke="black" stroke-width="0.734432" stroke-linecap="round" stroke-linejoin="round"/>
<path d="M508.948 406.041C508.948 409.893 507.658 413.587 505.361 416.311C503.064 419.035 499.949 420.565 496.701 420.565C493.453 420.565 490.338 419.035 488.041 416.311C485.745 413.587 484.454 409.893 484.454 406.041C484.454 402.189 485.745 398.495 488.041 395.771C490.338 393.047 493.453 391.517 496.701 391.517C499.949 391.517 503.064 393.047 505.361 395.771C507.658 398.495 508.948 402.189 508.948 406.041V406.041Z" fill="url(#paint7_linear_408_391)" stroke="black" stroke-width="0.734432" stroke-linecap="round" stroke-linejoin="round"/>
<path d="M494.417 406.041C494.417 409.893 493.127 413.587 490.83 416.311C488.534 419.035 485.419 420.565 482.171 420.565C478.923 420.565 475.808 419.035 473.511 416.311C471.214 413.587 469.924 409.893 469.924 406.041C469.924 402.189 471.214 398.495 473.511 395.771C475.808 393.047 478.923 391.517 482.171 391.517C485.419 391.517 488.534 393.047 490.83 395.771C493.127 398.495 494.417 402.189 494.417 406.041V406.041Z" fill="url(#paint8_linear_408_391)" stroke="black" stroke-width="0.734432" stroke-linecap="round" stroke-linejoin="round"/>
<path d="M572.467 406.041C572.467 409.893 571.177 413.587 568.88 416.311C566.584 419.035 563.469 420.565 560.221 420.565C556.973 420.565 553.858 419.035 551.561 416.311C549.264 413.587 547.974 409.893 547.974 406.041C547.974 402.189 549.264 398.495 551.561 395.771C553.858 393.047 556.973 391.517 560.221 391.517C563.469 391.517 566.584 393.047 568.88 395.771C571.177 398.495 572.467 402.189 572.467 406.041V406.041Z" fill="url(#paint9_linear_408_391)" stroke="black" stroke-width="0.734432" stroke-linecap="round" stroke-linejoin="round"/>
<path d="M603.189 406.041C603.189 409.893 601.899 413.587 599.602 416.311C597.305 419.035 594.19 420.565 590.942 420.565C587.694 420.565 584.579 419.035 582.283 416.311C579.986 413.587 578.696 409.893 578.696 406.041C578.696 402.189 579.986 398.495 582.283 395.771C584.579 393.047 587.694 391.517 590.942 391.517C594.19 391.517 597.305 393.047 599.602 395.771C601.899 398.495 603.189 402.189 603.189 406.041V406.041Z" fill="url(#paint10_linear_408_391)" stroke="black" stroke-width="0.734432" stroke-linecap="round" stroke-linejoin="round"/>
<path d="M588.658 406.041C588.658 409.893 587.368 413.587 585.071 416.311C582.775 419.035 579.66 420.565 576.412 420.565C573.164 420.565 570.049 419.035 567.752 416.311C565.455 413.587 564.165 409.893 564.165 406.041C564.165 402.189 565.455 398.495 567.752 395.771C570.049 393.047 573.164 391.517 576.412 391.517C579.66 391.517 582.775 393.047 585.071 395.771C587.368 398.495 588.658 402.189 588.658 406.041V406.041Z" fill="url(#paint11_linear_408_391)" stroke="black" stroke-width="0.734432" stroke-linecap="round" stroke-linejoin="round"/>
<path d="M573.07 179.4C574.016 183.315 574.523 187.415 574.523 191.615C574.523 220.312 551.206 253.553 522.497 253.553C501.573 253.553 483.549 235.886 475.301 215.192C481.688 239.085 501.586 261.489 525.144 261.489C553.852 261.489 577.169 228.222 577.169 199.525C577.169 192.387 575.71 185.594 573.095 179.4H573.07Z" fill="black" fill-opacity="0.31373"/>
<path d="M492.734 266.527L483.571 279.828L546.276 323.025L555.439 309.724L492.734 266.527Z" fill="#E6E6E6"/>
<path d="M544.021 312.641C542.208 315.272 541.217 318.381 541.172 321.575C541.126 324.769 542.029 327.905 543.766 330.586C545.503 333.267 547.996 335.373 550.93 336.637C553.863 337.902 557.106 338.267 560.248 337.689C563.389 337.11 566.289 335.613 568.58 333.386C570.87 331.159 572.449 328.304 573.117 325.18C573.784 322.056 573.511 318.804 572.33 315.835C571.15 312.867 569.115 310.315 566.485 308.503C562.957 306.073 558.608 305.144 554.396 305.92C550.183 306.696 546.451 309.114 544.021 312.641ZM563.022 325.731C562.245 326.859 561.152 327.73 559.88 328.236C558.608 328.742 557.214 328.86 555.875 328.574C554.536 328.287 553.312 327.611 552.358 326.629C551.404 325.647 550.762 324.405 550.514 323.058C550.266 321.712 550.423 320.322 550.965 319.065C551.506 317.807 552.409 316.739 553.558 315.995C554.707 315.25 556.051 314.863 557.42 314.883C558.789 314.902 560.121 315.327 561.249 316.104C562.761 317.145 563.797 318.745 564.129 320.55C564.462 322.356 564.064 324.219 563.022 325.731Z" fill="#E6E6E6"/>
<path d="M472.737 247.951L481.592 254.261L480.147 267.932L467.312 273.487L459.084 267.624C459.289 271.713 460.768 275.635 463.315 278.841C465.861 282.046 469.346 284.375 473.283 285.5C477.219 286.624 481.409 286.489 485.264 285.113C489.12 283.736 492.448 281.188 494.782 277.824C497.116 274.461 498.339 270.452 498.28 266.358C498.22 262.265 496.881 258.293 494.45 254.999C492.02 251.705 488.619 249.254 484.725 247.99C480.831 246.726 476.639 246.713 472.737 247.951Z" fill="#E6E6E6"/>
<path d="M577.273 311.452C573.692 315.029 568.836 317.039 563.773 317.042C558.711 317.044 553.857 315.038 550.279 311.464C546.701 307.891 544.692 303.043 544.694 297.987C544.696 292.931 546.709 288.081 550.291 284.504C553.872 280.928 558.728 278.917 563.79 278.915C568.852 278.913 573.707 280.919 577.285 284.493C580.863 288.066 582.872 292.914 582.869 297.97C582.867 303.026 580.854 307.876 577.273 311.452Z" fill="url(#paint12_linear_408_391)" stroke="black" stroke-width="0.799998" stroke-linecap="round" stroke-linejoin="round"/>
<path d="M557.306 301.354C556.357 301.608 555.462 302.024 554.671 302.577C553.88 303.131 553.209 303.811 552.696 304.579C552.183 305.347 551.838 306.188 551.681 307.054C551.524 307.92 551.558 308.794 551.781 309.626C552.004 310.458 552.411 311.232 552.98 311.904C553.549 312.575 554.268 313.131 555.096 313.54C555.925 313.948 556.846 314.202 557.807 314.285C558.769 314.369 559.752 314.281 560.7 314.027C561.649 313.773 562.544 313.357 563.335 312.804C564.126 312.25 564.797 311.57 565.31 310.802C565.823 310.034 566.168 309.193 566.325 308.327C566.482 307.461 566.448 306.587 566.225 305.755C566.002 304.923 565.595 304.149 565.026 303.477C564.457 302.806 563.738 302.25 562.91 301.841C562.081 301.433 561.16 301.179 560.199 301.096C559.237 301.012 558.254 301.1 557.306 301.354V301.354Z" fill="url(#paint13_linear_408_391)" stroke="black" stroke-width="0.734456" stroke-linecap="round" stroke-linejoin="round"/>
<path d="M553.052 285.459C552.103 285.713 551.208 286.129 550.417 286.682C549.626 287.235 548.955 287.916 548.442 288.684C547.929 289.452 547.584 290.293 547.427 291.159C547.27 292.025 547.304 292.899 547.527 293.731C547.75 294.563 548.158 295.337 548.726 296.008C549.295 296.68 550.014 297.236 550.843 297.644C551.671 298.053 552.592 298.306 553.554 298.39C554.515 298.474 555.498 298.386 556.447 298.132C558.362 297.618 560.02 296.458 561.056 294.907C562.092 293.356 562.421 291.54 561.971 289.86C561.521 288.179 560.329 286.771 558.656 285.946C556.983 285.121 554.967 284.946 553.052 285.459V285.459Z" fill="url(#paint14_linear_408_391)" stroke="black" stroke-width="0.734456" stroke-linecap="round" stroke-linejoin="round"/>
<path d="M551.247 294.444C549.331 294.958 547.673 296.118 546.637 297.669C545.601 299.22 545.272 301.036 545.722 302.716C546.172 304.397 547.364 305.805 549.037 306.63C550.71 307.455 552.726 307.63 554.641 307.117C556.557 306.604 558.215 305.444 559.251 303.892C560.287 302.341 560.616 300.525 560.166 298.845C559.943 298.013 559.536 297.239 558.967 296.567C558.398 295.896 557.679 295.34 556.85 294.931C555.178 294.106 553.162 293.931 551.247 294.444V294.444Z" fill="url(#paint15_linear_408_391)" stroke="black" stroke-width="0.734456" stroke-linecap="round" stroke-linejoin="round"/>
<path d="M508.663 288.451C509.917 290.62 510.731 293.015 511.059 295.497C511.387 297.98 511.223 300.503 510.575 302.921C509.927 305.339 508.809 307.606 507.284 309.592C505.759 311.578 503.858 313.244 501.688 314.496C499.518 315.747 497.122 316.558 494.638 316.884C492.153 317.21 489.629 317.044 487.208 316.395C484.787 315.746 482.517 314.627 480.528 313.102C478.539 311.577 476.87 309.675 475.617 307.506C474.363 305.337 473.548 302.943 473.22 300.461C472.892 297.978 473.057 295.455 473.704 293.037C474.352 290.618 475.47 288.352 476.995 286.366C478.52 284.38 480.422 282.714 482.591 281.462C484.761 280.211 487.157 279.399 489.641 279.074C492.126 278.748 494.651 278.914 497.072 279.563C499.493 280.212 501.762 281.331 503.751 282.856C505.74 284.381 507.409 286.282 508.663 288.451Z" fill="url(#paint16_linear_408_391)" stroke="black" stroke-width="0.800002" stroke-linecap="round" stroke-linejoin="round"/>
<path d="M498.147 302.549C498.997 303.039 499.754 303.672 500.374 304.411C500.995 305.15 501.467 305.98 501.764 306.855C502.06 307.729 502.175 308.631 502.102 309.508C502.03 310.385 501.77 311.221 501.339 311.967C500.908 312.713 500.314 313.355 499.591 313.857C498.867 314.358 498.029 314.709 497.123 314.89C496.217 315.07 495.261 315.077 494.311 314.909C493.36 314.741 492.434 314.402 491.583 313.912C490.733 313.421 489.976 312.788 489.356 312.049C488.735 311.31 488.263 310.48 487.966 309.605C487.67 308.731 487.555 307.829 487.628 306.952C487.7 306.075 487.96 305.24 488.391 304.494C488.822 303.747 489.416 303.105 490.139 302.604C490.863 302.102 491.701 301.751 492.607 301.57C493.513 301.39 494.469 301.383 495.419 301.551C496.37 301.719 497.296 302.058 498.147 302.549V302.549Z" fill="url(#paint17_linear_408_391)" stroke="black" stroke-width="0.734456" stroke-linecap="round" stroke-linejoin="round"/>
<path d="M506.376 288.296C508.093 289.287 509.395 290.836 509.993 292.602C510.592 294.368 510.44 296.207 509.569 297.714C508.699 299.221 507.182 300.272 505.352 300.637C503.523 301.002 501.53 300.65 499.813 299.659C498.096 298.668 496.795 297.119 496.196 295.353C495.597 293.587 495.75 291.748 496.62 290.241C497.491 288.734 499.007 287.683 500.837 287.318C502.667 286.953 504.659 287.305 506.376 288.296V288.296Z" fill="url(#paint18_linear_408_391)" stroke="black" stroke-width="0.734456" stroke-linecap="round" stroke-linejoin="round"/>
<path d="M505.795 297.442C507.512 298.433 508.813 299.982 509.412 301.748C510.011 303.514 509.858 305.353 508.988 306.86C508.118 308.367 506.601 309.418 504.771 309.783C502.942 310.148 500.949 309.796 499.232 308.805C497.515 307.814 496.214 306.265 495.615 304.499C495.016 302.732 495.169 300.893 496.039 299.387C496.91 297.88 498.426 296.828 500.256 296.464C502.086 296.099 504.078 296.451 505.795 297.442V297.442Z" fill="url(#paint19_linear_408_391)" stroke="black" stroke-width="0.734456" stroke-linecap="round" stroke-linejoin="round"/>
</g>
<defs>
<linearGradient id="paint0_linear_408_391" x1="460.832" y1="227.947" x2="684.275" y2="227.947" gradientUnits="userSpaceOnUse">
<stop stop-color="#D07839"/>
</linearGradient>
<linearGradient id="paint1_linear_408_391" x1="422.764" y1="315.241" x2="626.995" y2="315.241" gradientUnits="userSpaceOnUse">
<stop stop-color="#D07839"/>
</linearGradient>
<linearGradient id="paint2_linear_408_391" x1="435.918" y1="195.947" x2="612.748" y2="195.947" gradientUnits="userSpaceOnUse">
<stop stop-color="#D07839"/>
</linearGradient>
<linearGradient id="paint3_linear_408_391" x1="493.377" y1="-249.981" x2="528.259" y2="-240.609" gradientUnits="userSpaceOnUse">
<stop stop-color="#D07839"/>
</linearGradient>
<linearGradient id="paint4_linear_408_391" x1="458.482" y1="-259.305" x2="493.364" y2="-249.933" gradientUnits="userSpaceOnUse">
<stop stop-color="#D07839"/>
</linearGradient>
<linearGradient id="paint5_linear_408_391" x1="168.816" y1="370.807" x2="170.094" y2="374.997" gradientUnits="userSpaceOnUse">
<stop stop-color="#74401B"/>
</linearGradient>
<linearGradient id="paint6_linear_408_391" x1="279.188" y1="320.737" x2="280.215" y2="324.104" gradientUnits="userSpaceOnUse">
<stop stop-color="#74401B"/>
</linearGradient>
<linearGradient id="paint7_linear_408_391" x1="280.198" y1="325.045" x2="281.225" y2="328.413" gradientUnits="userSpaceOnUse">
<stop stop-color="#74401B"/>
</linearGradient>
<linearGradient id="paint8_linear_408_391" x1="279.721" y1="323.007" x2="280.748" y2="326.375" gradientUnits="userSpaceOnUse">
<stop stop-color="#74401B"/>
</linearGradient>
<linearGradient id="paint9_linear_408_391" x1="282.284" y1="333.954" x2="283.311" y2="337.321" gradientUnits="userSpaceOnUse">
<stop stop-color="#74401B"/>
</linearGradient>
<linearGradient id="paint10_linear_408_391" x1="283.292" y1="338.262" x2="284.32" y2="341.63" gradientUnits="userSpaceOnUse">
<stop stop-color="#74401B"/>
</linearGradient>
<linearGradient id="paint11_linear_408_391" x1="282.815" y1="336.224" x2="283.842" y2="339.592" gradientUnits="userSpaceOnUse">
<stop stop-color="#74401B"/>
</linearGradient>
<linearGradient id="paint12_linear_408_391" x1="507.918" y1="-278.729" x2="522.477" y2="-274.817" gradientUnits="userSpaceOnUse">
<stop stop-color="#D07839"/>
</linearGradient>
<linearGradient id="paint13_linear_408_391" x1="241.802" y1="346.844" x2="242.424" y2="348.884" gradientUnits="userSpaceOnUse">
<stop stop-color="#74401B"/>
</linearGradient>
<linearGradient id="paint14_linear_408_391" x1="234.528" y1="348.424" x2="235.15" y2="350.464" gradientUnits="userSpaceOnUse">
<stop stop-color="#74401B"/>
</linearGradient>
<linearGradient id="paint15_linear_408_391" x1="238.502" y1="346.941" x2="239.124" y2="348.981" gradientUnits="userSpaceOnUse">
<stop stop-color="#74401B"/>
</linearGradient>
<linearGradient id="paint16_linear_408_391" x1="480.586" y1="-286.033" x2="495.143" y2="-282.122" gradientUnits="userSpaceOnUse">
<stop stop-color="#D07839"/>
</linearGradient>
<linearGradient id="paint17_linear_408_391" x1="239.865" y1="337.822" x2="240.474" y2="339.817" gradientUnits="userSpaceOnUse">
<stop stop-color="#74401B"/>
</linearGradient>
<linearGradient id="paint18_linear_408_391" x1="233.737" y1="340.927" x2="234.346" y2="342.923" gradientUnits="userSpaceOnUse">
<stop stop-color="#74401B"/>
</linearGradient>
<linearGradient id="paint19_linear_408_391" x1="237.824" y1="339.594" x2="238.432" y2="341.589" gradientUnits="userSpaceOnUse">
<stop stop-color="#74401B"/>
</linearGradient>
<clipPath id="clip0_408_391">
<rect width="690" height="448.759" fill="white"/>
</clipPath>
</defs>
</svg>
