<svg width="813" height="458" viewBox="0 0 813 458" fill="none" xmlns="http://www.w3.org/2000/svg">
<g clip-path="url(#clip0_503_416)">
<path d="M735.679 67.9512C735.555 82.0911 734.519 96.2082 732.578 110.215C732.511 110.707 732.437 111.199 732.368 111.69L599.949 110.951C599.56 110.462 599.177 109.968 598.806 109.467C597.57 107.812 596.412 106.109 595.348 104.348C590.235 95.8615 587.895 85.9262 590.24 79.0714L590.282 78.9649C590.789 77.4638 591.586 76.0776 592.63 74.8857C597.977 68.8661 608.79 69.8696 618.602 74.7283C609.801 65.0949 602.794 52.9391 602.261 42.0886C601.739 31.5051 607.273 23.9445 613.275 17.5193C613.472 17.3069 613.669 17.1005 613.866 16.894C613.962 16.7878 614.063 16.6875 614.158 16.5813C618.842 11.6848 624.301 6.85797 632.204 7.44186C640.871 8.08337 650.48 15.343 657.218 23.8025C663.955 32.256 668.433 41.8593 672.971 51.2316C677.515 60.5981 682.431 70.2039 689.723 78.2098C679.847 65.7176 671.884 51.5043 668.942 37.6809C666.001 23.8574 668.59 10.5809 677.392 4.07057C680.064 2.15504 683.156 0.907374 686.409 0.431993C686.789 0.368882 687.175 0.317646 687.567 0.272386C695.715 -0.654724 705.444 2.16338 713.721 8.89961C722.837 16.3167 729.157 27.3122 732.301 37.7503C735.446 48.1883 735.781 58.237 735.679 67.9512Z" fill="#F2F2F2"/>
<path d="M649.043 111.225L646.511 111.211C645.707 110.708 644.899 110.212 644.087 109.721C643.585 109.404 643.077 109.098 642.568 108.787C634.169 103.657 625.717 98.737 617.213 94.0258C608.717 89.3108 600.178 84.813 591.596 80.5324C591.369 80.4333 591.183 80.2577 591.072 80.0361C590.96 79.8144 590.93 79.5607 590.986 79.3191C590.995 79.2874 591.01 79.2574 591.028 79.2303C591.148 79.0056 591.415 78.9122 591.806 79.1042C592.859 79.632 593.917 80.1598 594.97 80.6995C603.575 85.0533 612.143 89.6245 620.675 94.4129C629.2 99.1993 637.677 104.197 646.105 109.406C646.283 109.514 646.46 109.627 646.637 109.735C647.441 110.232 648.239 110.728 649.043 111.225Z" fill="white"/>
<path d="M681.691 111.407L680.125 111.399C679.772 110.904 679.425 110.41 679.072 109.916C670.775 98.2808 662.479 86.6456 654.185 75.0104C640.603 55.9617 627.025 36.9131 613.452 17.8645C613.371 17.762 613.311 17.6448 613.275 17.5195C613.159 17.0978 613.469 16.8504 613.866 16.8941C614.034 16.9181 614.194 16.9774 614.337 17.0682C614.479 17.159 614.601 17.2792 614.693 17.4207C622.308 28.1032 629.921 38.7817 637.532 49.4562C651.043 68.4096 664.553 87.361 678.06 106.31C678.919 107.513 679.779 108.722 680.638 109.925C680.991 110.419 681.344 110.913 681.691 111.407Z" fill="white"/>
<path d="M716.574 102.315C716.494 104.953 716.319 107.55 716.091 110.123C716.047 110.615 716.003 111.107 715.958 111.599L714.315 111.59C714.366 111.098 714.416 110.606 714.46 110.114C714.807 106.397 715.054 102.638 715.087 98.7774C715.131 88.0734 714.087 77.3927 711.974 66.8995C709.727 55.6011 706.5 44.5199 702.331 33.7812C697.955 22.4552 692.68 11.4979 686.554 1.01414C686.439 0.843273 686.388 0.63716 686.409 0.432136C686.477 -0.0360438 687.101 -0.174876 687.567 0.272514C687.659 0.360293 687.738 0.460555 687.802 0.570366C688.56 1.87345 689.304 3.18043 690.034 4.49129C695.933 15.0332 700.983 26.0287 705.134 37.3732C709.089 48.1471 712.096 59.2451 714.124 70.5413C716.023 81.021 716.844 91.6676 716.574 102.315Z" fill="white"/>
<path d="M218.679 201.951C218.555 216.091 217.519 230.208 215.578 244.215C215.51 244.707 215.436 245.199 215.368 245.69L82.9488 244.951C82.56 244.462 82.1773 243.968 81.8065 243.467C80.5702 241.812 79.4115 240.109 78.3478 238.348C73.2353 229.862 70.8947 219.926 73.2402 213.071L73.2822 212.965C73.7885 211.464 74.5863 210.078 75.6298 208.886C80.9775 202.866 91.7898 203.87 101.602 208.728C92.8011 199.095 85.7934 186.939 85.261 176.089C84.7389 165.505 90.273 157.944 96.2753 151.519C96.4723 151.307 96.6692 151.1 96.8661 150.894C96.9617 150.788 97.063 150.687 97.1583 150.581C101.841 145.685 107.301 140.858 115.204 141.442C123.871 142.083 133.48 149.343 140.218 157.802C146.955 166.256 151.433 175.859 155.971 185.232C160.515 194.598 165.431 204.204 172.723 212.21C162.847 199.718 154.884 185.504 151.942 171.681C149.001 157.857 151.59 144.581 160.392 138.071C163.064 136.155 166.156 134.907 169.409 134.432C169.789 134.369 170.175 134.318 170.567 134.272C178.715 133.345 188.444 136.163 196.721 142.9C205.837 150.317 212.157 161.312 215.301 171.75C218.446 182.188 218.781 192.237 218.679 201.951Z" fill="#F2F2F2"/>
<path d="M132.043 245.225L129.511 245.211C128.707 244.708 127.899 244.212 127.087 243.721C126.585 243.404 126.077 243.098 125.568 242.787C117.169 237.657 108.717 232.737 100.213 228.026C91.717 223.311 83.1779 218.813 74.5961 214.532C74.3686 214.433 74.1831 214.258 74.0716 214.036C73.9602 213.814 73.9299 213.561 73.9861 213.319C73.9953 213.287 74.0095 213.257 74.0283 213.23C74.148 213.006 74.4155 212.912 74.8059 213.104C75.8586 213.632 76.9172 214.16 77.9698 214.699C86.575 219.053 95.1433 223.624 103.675 228.413C112.2 233.199 120.677 238.197 129.105 243.406C129.283 243.514 129.46 243.627 129.637 243.735C130.441 244.232 131.239 244.728 132.043 245.225Z" fill="white"/>
<path d="M164.691 245.407L163.125 245.399C162.772 244.904 162.425 244.41 162.072 243.916C153.775 232.281 145.479 220.646 137.185 209.01C123.603 189.962 110.025 170.913 96.4516 151.865C96.3711 151.762 96.3113 151.645 96.2754 151.52C96.1593 151.098 96.4691 150.85 96.8662 150.894C97.0336 150.918 97.194 150.977 97.3366 151.068C97.4793 151.159 97.6009 151.279 97.6935 151.421C105.308 162.103 112.921 172.782 120.532 183.456C134.043 202.41 147.553 221.361 161.06 240.31C161.919 241.513 162.779 242.722 163.638 243.925C163.991 244.419 164.344 244.913 164.691 245.407Z" fill="white"/>
<path d="M199.574 236.315C199.494 238.953 199.319 241.55 199.091 244.123C199.047 244.615 199.003 245.107 198.958 245.599L197.315 245.59C197.366 245.098 197.416 244.606 197.46 244.114C197.807 240.397 198.054 236.638 198.087 232.777C198.131 222.073 197.087 211.393 194.974 200.899C192.727 189.601 189.5 178.52 185.331 167.781C180.955 156.455 175.68 145.498 169.554 135.014C169.439 134.843 169.388 134.637 169.409 134.432C169.477 133.964 170.101 133.825 170.567 134.273C170.659 134.36 170.738 134.461 170.802 134.57C171.56 135.873 172.304 137.18 173.034 138.491C178.933 149.033 183.983 160.029 188.134 171.373C192.089 182.147 195.096 193.245 197.124 204.541C199.023 215.021 199.844 225.668 199.574 236.315Z" fill="white"/>
<path d="M600.492 457.966H219.492C219.226 457.966 218.972 457.861 218.785 457.673C218.597 457.486 218.492 457.232 218.492 456.966C218.492 456.701 218.597 456.447 218.785 456.259C218.972 456.072 219.226 455.966 219.492 455.966H600.492C600.757 455.966 601.011 456.072 601.199 456.259C601.386 456.447 601.492 456.701 601.492 456.966C601.492 457.232 601.386 457.486 601.199 457.673C601.011 457.861 600.757 457.966 600.492 457.966Z" fill="#3F3D56"/>
<path d="M782.606 250.966H547.606C543.099 250.961 538.778 249.169 535.591 245.982C532.404 242.795 530.611 238.473 530.606 233.966V127.966C530.611 123.459 532.404 119.138 535.591 115.951C538.778 112.764 543.099 110.971 547.606 110.966H782.606C787.113 110.971 791.434 112.764 794.621 115.951C797.808 119.138 799.601 123.459 799.606 127.966V233.966C799.601 238.473 797.808 242.795 794.621 245.982C791.434 249.169 787.113 250.961 782.606 250.966ZM547.606 112.966C543.629 112.971 539.816 114.553 537.004 117.365C534.192 120.177 532.61 123.989 532.606 127.966V233.966C532.61 237.943 534.192 241.756 537.004 244.568C539.816 247.38 543.629 248.962 547.606 248.966H782.606C786.583 248.962 790.396 247.38 793.208 244.568C796.02 241.756 797.601 237.943 797.606 233.966V127.966C797.601 123.989 796.02 120.177 793.208 117.365C790.396 114.553 786.583 112.971 782.606 112.966H547.606Z" fill="#3F3D56"/>
<path d="M594.987 182.839C606.998 182.839 616.735 173.102 616.735 161.091C616.735 149.08 606.998 139.343 594.987 139.343C582.976 139.343 573.239 149.08 573.239 161.091C573.239 173.102 582.976 182.839 594.987 182.839Z" fill="#CCCCCC"/>
<path d="M642.215 146.592C641.264 146.608 640.358 146.997 639.691 147.675C639.024 148.353 638.65 149.266 638.65 150.217C638.65 151.168 639.024 152.081 639.691 152.759C640.358 153.437 641.264 153.825 642.215 153.841H753.093C754.053 153.855 754.979 153.487 755.668 152.818C756.357 152.15 756.752 151.236 756.768 150.276C756.784 149.316 756.418 148.39 755.752 147.699C755.085 147.009 754.172 146.61 753.212 146.592C753.173 146.592 753.133 146.592 753.093 146.592H642.215Z" fill="#CCCCCC"/>
<path d="M642.215 168.34C641.264 168.356 640.358 168.745 639.691 169.423C639.024 170.101 638.65 171.014 638.65 171.965C638.65 172.916 639.024 173.829 639.691 174.507C640.358 175.185 641.264 175.574 642.215 175.589H753.093C754.053 175.603 754.979 175.235 755.668 174.566C756.357 173.898 756.752 172.984 756.768 172.024C756.784 171.064 756.418 170.138 755.752 169.447C755.085 168.757 754.172 168.358 753.212 168.34C753.173 168.34 753.133 168.34 753.093 168.34H642.215Z" fill="#CCCCCC"/>
<path d="M576.607 193.592C575.656 193.608 574.75 193.997 574.083 194.675C573.416 195.353 573.042 196.266 573.042 197.217C573.042 198.168 573.416 199.081 574.083 199.759C574.75 200.437 575.656 200.825 576.607 200.841H753.485C753.962 200.85 754.436 200.765 754.88 200.591C755.323 200.416 755.728 200.156 756.071 199.825C756.415 199.494 756.689 199.098 756.879 198.661C757.069 198.224 757.171 197.753 757.178 197.276C757.186 196.8 757.1 196.326 756.924 195.883C756.749 195.439 756.488 195.035 756.156 194.693C755.824 194.351 755.427 194.077 754.99 193.888C754.552 193.7 754.081 193.599 753.604 193.592C753.565 193.592 753.525 193.592 753.485 193.592H576.607Z" fill="#CCCCCC"/>
<path d="M576.607 215.34C575.656 215.356 574.75 215.745 574.083 216.423C573.416 217.101 573.042 218.014 573.042 218.965C573.042 219.916 573.416 220.829 574.083 221.507C574.75 222.185 575.656 222.574 576.607 222.589H753.485C753.962 222.598 754.436 222.513 754.88 222.339C755.323 222.164 755.728 221.904 756.071 221.573C756.415 221.242 756.689 220.846 756.879 220.409C757.069 219.972 757.171 219.501 757.178 219.024C757.186 218.548 757.1 218.074 756.924 217.631C756.749 217.187 756.488 216.783 756.156 216.441C755.824 216.099 755.427 215.825 754.99 215.636C754.552 215.448 754.081 215.347 753.604 215.34C753.565 215.34 753.525 215.34 753.485 215.34H576.607Z" fill="#CCCCCC"/>
<path d="M792.716 224.588C819.006 225.037 819.002 264.143 792.715 264.588C766.426 264.139 766.43 225.034 792.716 224.588Z" fill="#2FA4DA"/>
<path d="M792.716 255.479C792.344 255.478 791.986 255.33 791.723 255.066C791.459 254.803 791.311 254.446 791.311 254.073V246.621C791.31 246.455 791.244 246.295 791.127 246.178C791.01 246.06 790.85 245.994 790.684 245.994H783.232C782.859 245.994 782.502 245.846 782.238 245.582C781.974 245.319 781.826 244.961 781.826 244.588C781.826 244.216 781.974 243.858 782.238 243.594C782.502 243.331 782.859 243.183 783.232 243.183H790.684C790.85 243.182 791.01 243.116 791.127 242.999C791.244 242.882 791.31 242.723 791.311 242.556V235.104C791.311 234.731 791.459 234.373 791.722 234.11C791.986 233.846 792.343 233.698 792.716 233.698C793.089 233.698 793.446 233.846 793.71 234.11C793.974 234.373 794.122 234.731 794.122 235.104V242.556C794.122 242.723 794.188 242.882 794.305 242.999C794.423 243.117 794.582 243.182 794.748 243.183H802.2C802.573 243.183 802.931 243.331 803.194 243.594C803.458 243.858 803.606 244.216 803.606 244.588C803.606 244.961 803.458 245.319 803.194 245.582C802.931 245.846 802.573 245.994 802.2 245.994H794.748C794.582 245.994 794.423 246.06 794.305 246.178C794.188 246.295 794.122 246.455 794.122 246.621V254.073C794.121 254.446 793.973 254.803 793.71 255.066C793.446 255.33 793.089 255.478 792.716 255.479Z" fill="white"/>
<path d="M265.606 384.966H30.6057C26.0986 384.961 21.7775 383.169 18.5905 379.982C15.4035 376.794 13.6108 372.473 13.6057 367.966V261.966C13.6108 257.459 15.4035 253.138 18.5905 249.951C21.7775 246.764 26.0986 244.971 30.6057 244.966H265.606C270.113 244.971 274.434 246.764 277.621 249.951C280.808 253.138 282.601 257.459 282.606 261.966V367.966C282.601 372.473 280.808 376.794 277.621 379.982C274.434 383.169 270.113 384.961 265.606 384.966ZM30.6057 246.966C26.6288 246.971 22.8161 248.553 20.0041 251.365C17.192 254.177 15.6102 257.989 15.6057 261.966V367.966C15.6102 371.943 17.192 375.756 20.0041 378.568C22.8161 381.38 26.6288 382.962 30.6057 382.966H265.606C269.583 382.962 273.395 381.38 276.207 378.568C279.019 375.756 280.601 371.943 280.606 367.966V261.966C280.601 257.989 279.019 254.177 276.207 251.365C273.395 248.553 269.583 246.971 265.606 246.966H30.6057Z" fill="#3F3D56"/>
<path d="M59.6073 289.468C58.6564 289.484 57.7499 289.872 57.083 290.55C56.4162 291.228 56.0425 292.141 56.0425 293.092C56.0425 294.043 56.4162 294.956 57.083 295.634C57.7499 296.312 58.6564 296.701 59.6073 296.717H236.485C236.962 296.726 237.436 296.641 237.88 296.466C238.323 296.292 238.728 296.032 239.072 295.701C239.415 295.369 239.689 294.974 239.879 294.537C240.069 294.099 240.171 293.629 240.178 293.152C240.186 292.675 240.1 292.202 239.924 291.758C239.749 291.315 239.488 290.911 239.156 290.568C238.824 290.226 238.427 289.953 237.99 289.764C237.552 289.575 237.081 289.474 236.604 289.468C236.565 289.467 236.525 289.467 236.485 289.468H59.6073Z" fill="#CCCCCC"/>
<path d="M59.6073 311.216C58.6564 311.232 57.7499 311.62 57.083 312.298C56.4162 312.976 56.0425 313.889 56.0425 314.84C56.0425 315.791 56.4162 316.704 57.083 317.382C57.7499 318.06 58.6564 318.449 59.6073 318.465H236.485C236.962 318.474 237.436 318.389 237.88 318.214C238.323 318.04 238.728 317.78 239.072 317.449C239.415 317.117 239.689 316.722 239.879 316.285C240.069 315.847 240.171 315.377 240.178 314.9C240.186 314.423 240.1 313.95 239.924 313.506C239.749 313.063 239.488 312.658 239.156 312.316C238.824 311.974 238.427 311.701 237.99 311.512C237.552 311.323 237.081 311.222 236.604 311.216C236.565 311.215 236.525 311.215 236.485 311.216H59.6073Z" fill="#CCCCCC"/>
<path d="M59.6073 333.216C58.6564 333.232 57.7499 333.62 57.083 334.298C56.4162 334.976 56.0425 335.889 56.0425 336.84C56.0425 337.791 56.4162 338.704 57.083 339.382C57.7499 340.06 58.6564 340.449 59.6073 340.465H236.485C236.962 340.474 237.436 340.389 237.88 340.214C238.323 340.04 238.728 339.78 239.072 339.449C239.415 339.117 239.689 338.722 239.879 338.285C240.069 337.847 240.171 337.377 240.178 336.9C240.186 336.423 240.1 335.95 239.924 335.506C239.749 335.063 239.488 334.658 239.156 334.316C238.824 333.974 238.427 333.701 237.99 333.512C237.552 333.323 237.081 333.222 236.604 333.216C236.565 333.215 236.525 333.215 236.485 333.216H59.6073Z" fill="#CCCCCC"/>
<path d="M19.716 358.588C46.0061 359.037 46.0019 398.143 19.7152 398.588C-6.57393 398.139 -6.56982 359.034 19.716 358.588Z" fill="#2FA4DA"/>
<path d="M19.7161 389.478C19.3435 389.478 18.9862 389.33 18.7227 389.066C18.4592 388.803 18.311 388.445 18.3106 388.073V380.62C18.3104 380.454 18.2444 380.295 18.127 380.178C18.0096 380.06 17.8503 379.994 17.6842 379.994H10.2319C9.8591 379.994 9.50153 379.846 9.2379 379.582C8.97427 379.318 8.82617 378.961 8.82617 378.588C8.82617 378.215 8.97427 377.858 9.2379 377.594C9.50153 377.33 9.8591 377.182 10.2319 377.182H17.6843C17.8503 377.182 18.0095 377.116 18.127 376.999C18.2444 376.881 18.3104 376.722 18.3106 376.556V369.103C18.3116 368.731 18.4601 368.375 18.7236 368.112C18.9871 367.849 19.344 367.702 19.7161 367.702C20.0882 367.702 20.4451 367.849 20.7086 368.112C20.9721 368.375 21.1206 368.731 21.1216 369.103V376.556C21.1218 376.722 21.1878 376.881 21.3052 376.999C21.4227 377.116 21.5819 377.182 21.7479 377.182H29.2003C29.5731 377.182 29.9307 377.33 30.1943 377.594C30.4579 377.858 30.606 378.215 30.606 378.588C30.606 378.961 30.4579 379.318 30.1943 379.582C29.9307 379.846 29.5731 379.994 29.2003 379.994H21.7479C21.5818 379.994 21.4226 380.06 21.3052 380.178C21.1878 380.295 21.1217 380.454 21.1216 380.62V388.073C21.1211 388.445 20.9729 388.803 20.7095 389.066C20.446 389.33 20.0888 389.478 19.7161 389.478Z" fill="white"/>
<path d="M563.793 253.205C562.881 304.878 528.152 327.337 527.581 305.52C526.873 277.924 514.973 206.353 468.265 228.302C412.406 254.548 462.761 414.416 446.591 414.416C381.895 414.416 329.389 342.196 329.389 253.205C329.389 164.219 381.895 92 446.591 92C511.286 92 565.341 165.353 563.793 253.205V253.205Z" fill="url(#paint0_linear_503_416)" stroke="black" stroke-width="0.8" stroke-linecap="round" stroke-linejoin="round"/>
<path d="M532.14 142.619C547.143 169.736 554.589 203.739 555.258 239.44C555.881 272.421 546.888 303.568 530.212 312.393C537.999 314.883 562.881 304.872 563.786 253.198C564.541 210.737 552.293 171.662 532.14 142.619ZM475.658 210.429C470.863 210.52 465.569 211.805 459.73 214.543C403.871 240.789 454.233 400.657 438.063 400.657C404.744 400.657 374.659 381.5 353.313 350.76C374.732 389.428 408.549 414.416 446.591 414.416C462.761 414.416 412.4 254.548 468.259 228.302C485.577 220.171 498.113 224.888 507.068 235.45C500.39 221.062 490.353 210.154 475.658 210.429V210.429Z" fill="black" fill-opacity="0.31373"/>
<path d="M503.055 345.822C503.055 374.197 491.779 401.409 471.708 421.473C451.636 441.537 424.413 452.809 396.028 452.809C367.642 452.809 340.419 441.537 320.348 421.473C300.276 401.409 289 374.197 289 345.822C289 317.447 300.276 290.235 320.348 270.171C340.419 250.107 367.642 238.835 396.028 238.835C424.413 238.835 451.636 250.107 471.708 270.171C491.779 290.235 503.055 317.447 503.055 345.822V345.822Z" fill="url(#paint1_linear_503_416)" stroke="black" stroke-width="0.799968" stroke-linecap="round" stroke-linejoin="round"/>
<path d="M396.032 238.85C384.644 238.85 373.682 240.645 363.383 243.94C372.646 241.778 382.414 240.612 392.51 240.612C420.206 240.612 445.462 249.313 464.467 263.589C445.915 248.14 422.05 238.85 396.032 238.85ZM497.392 311.39C498.796 317.103 499.544 323 499.544 329.053C499.544 377.877 451.59 417.495 392.51 417.495C343.106 417.495 301.502 389.794 289.195 352.168C292.475 408.283 339.078 452.828 396.032 452.828C455.112 452.828 503.066 404.896 503.066 345.839C503.066 333.79 501.072 322.2 497.392 311.39Z" fill="black" fill-opacity="0.31373"/>
<path d="M396.033 238.85C377.783 238.85 360.589 243.416 345.546 251.481C352.671 276.358 373.486 299.361 398.073 299.361C422.004 299.361 442.399 277.57 450.042 253.46C434.186 244.176 415.726 238.85 396.033 238.85V238.85Z" fill="black" fill-opacity="0.31373"/>
<path fill-rule="evenodd" clip-rule="evenodd" d="M469.367 149.733C456.372 149.733 429.974 156.639 425.356 174.545C425.284 174.682 425.146 175.18 424.995 175.947C416.637 170.843 406.81 167.875 396.308 167.875C385.339 167.875 375.145 171.112 366.558 176.628C366.381 175.508 366.164 174.722 366.079 174.545C361.461 156.639 335.063 149.753 322.061 149.747C319.995 149.747 318.282 149.923 317.029 150.251C310.056 151.221 302.42 154.005 302.978 155.525C308.095 154.654 310.679 155.65 310.601 156.475C310.443 158.021 307.36 158.434 308.35 164.01C310.22 161.304 312.824 160.373 314.871 159.941C316.97 173.103 326.154 196.08 343.342 197.273C344.818 197.377 346.195 197.371 347.494 197.345C343.44 205.023 341.138 213.77 341.138 223.054C341.138 253.499 365.849 288.78 396.308 288.78C426.76 288.78 451.504 253.499 451.504 223.054C451.504 213.776 449.195 205.049 445.141 197.377C446.079 197.371 447.07 197.345 448.093 197.273C465.221 196.087 474.405 173.241 476.544 160.065C478.499 160.544 480.834 161.526 482.546 164.01C483.537 158.434 480.454 158.021 480.296 156.475C480.218 155.65 482.802 154.654 487.919 155.525C488.45 154.084 481.635 151.509 474.983 150.415C473.717 149.969 471.775 149.733 469.367 149.733V149.733Z" fill="url(#paint2_linear_503_416)" stroke="black" stroke-width="0.8" stroke-linejoin="round"/>
<path d="M417.346 313.113C408.201 303.974 391.926 303.509 382.243 312.098C375.427 318.067 372.711 327.232 371.819 335.913C371.189 342.17 371.563 348.886 374.778 354.461C378.005 358.602 383.627 359.473 388.56 359.722C398.394 360.161 408.785 357.79 416.644 351.572C426.117 343.454 428.327 328.34 421.374 317.981C420.239 316.212 418.868 314.581 417.346 313.113V313.113Z" fill="black" fill-opacity="0.31373"/>
<path d="M384.877 331.623C384.877 336.989 382.744 342.136 378.948 345.931C375.152 349.726 370.003 351.857 364.634 351.857C359.266 351.857 354.117 349.726 350.321 345.931C346.525 342.136 344.392 336.989 344.392 331.623C344.392 326.257 346.525 321.11 350.321 317.315C354.117 313.521 359.266 311.389 364.634 311.389C370.003 311.389 375.152 313.521 378.948 317.315C382.744 321.11 384.877 326.257 384.877 331.623V331.623Z" fill="black" fill-opacity="0.31373"/>
<path d="M414.066 306.562C404.921 297.423 388.646 296.957 378.963 305.547C372.147 311.515 369.431 320.681 368.539 329.362C367.909 335.619 368.283 342.335 371.498 347.91C374.725 352.051 380.347 352.922 385.281 353.171C395.114 353.61 405.505 351.238 413.364 345.021C422.837 336.903 425.048 321.788 418.094 311.43C416.959 309.661 415.588 308.03 414.066 306.562V306.562Z" fill="#DC9A6A" stroke="black" stroke-width="0.8" stroke-linecap="round" stroke-linejoin="round"/>
<path d="M393.441 299.505C395.389 299.97 397.279 300.685 399.043 301.68C400.755 302.604 402.376 303.711 403.826 305.002C412.57 312.471 414.374 326.426 407.991 335.966C402.553 343.428 393.913 348.099 385.077 350.143C381.495 350.949 377.415 351.506 373.925 350.183C377.152 352.397 381.423 352.98 385.274 353.17C395.107 353.609 405.498 351.238 413.364 345.02C422.837 336.902 425.047 321.788 418.094 311.429C416.959 309.654 415.588 308.029 414.066 306.555C408.719 301.209 400.926 298.837 393.441 299.505V299.505Z" fill="black" fill-opacity="0.31373"/>
<path fill-rule="evenodd" clip-rule="evenodd" d="M414.309 304.262C416.113 298.667 425.211 293.498 427.908 295.444C430.604 297.396 430.814 302.035 430.335 302.722C429.863 303.404 424.995 301.301 421.925 303.836C418.861 306.365 417.32 308.527 417.32 308.527L414.309 304.262Z" fill="url(#paint3_linear_503_416)" stroke="black" stroke-width="0.8"/>
<path fill-rule="evenodd" clip-rule="evenodd" d="M429.764 297.875C429.823 298.484 429.738 298.988 429.574 299.185C429.108 299.742 424.444 299.198 421.453 301.511C418.468 303.823 416.959 305.592 416.959 305.592L414.571 303.588C414.479 303.817 414.381 304.04 414.309 304.262L417.32 308.534C417.32 308.534 418.861 306.365 421.925 303.83C424.995 301.301 429.863 303.404 430.335 302.716C430.663 302.251 430.663 299.919 429.764 297.875V297.875Z" fill="black" fill-opacity="0.31373"/>
<path d="M416.408 304.295C407.427 295.411 392.542 293.118 382.072 299.781C379.704 301.084 380.419 304.354 380.446 304.301C384.401 301.176 388.501 304.616 393.887 308.475C400.48 313.199 407.729 320.445 413.049 327.488C416.775 332.415 419.439 337.256 417.307 340.644C417.418 340.676 420.514 341.548 421.931 338.665C429.069 325.228 425.034 312.321 416.408 304.295V304.295Z" fill="url(#paint4_linear_503_416)" stroke="black" stroke-width="0.8" stroke-linecap="round" stroke-linejoin="round"/>
<path d="M415.699 303.305C418.546 310.682 418.172 317.66 414.558 324.395C413.738 325.928 412.478 325.43 411.422 325.411C411.98 326.099 412.524 326.8 413.049 327.488C416.769 332.421 419.439 337.263 417.306 340.643C417.418 340.676 420.514 341.554 421.931 338.671C428.465 326.354 425.598 312.956 415.699 303.305V303.305Z" fill="black" fill-opacity="0.31373"/>
<path d="M378.823 317.4C380.153 319.701 381.017 322.241 381.365 324.875C381.713 327.509 381.538 330.185 380.851 332.751C380.164 335.317 378.978 337.722 377.36 339.829C375.742 341.936 373.725 343.704 371.423 345.031C369.12 346.359 366.579 347.22 363.943 347.566C361.307 347.911 358.628 347.735 356.06 347.046C353.491 346.358 351.083 345.171 348.973 343.553C346.863 341.935 345.093 339.917 343.762 337.616C342.432 335.315 341.568 332.775 341.22 330.141C340.872 327.507 341.047 324.831 341.734 322.265C342.421 319.699 343.607 317.294 345.225 315.187C346.843 313.08 348.86 311.312 351.162 309.985C353.464 308.657 356.006 307.796 358.642 307.45C361.278 307.105 363.957 307.281 366.525 307.97C369.094 308.658 371.502 309.845 373.612 311.463C375.722 313.081 377.492 315.099 378.823 317.4V317.4Z" fill="url(#paint5_linear_503_416)" stroke="black" stroke-width="0.800002" stroke-linecap="round" stroke-linejoin="round"/>
<path d="M460.815 331.937C460.815 337.304 458.682 342.451 454.886 346.245C451.09 350.04 445.941 352.172 440.572 352.172C435.204 352.172 430.055 350.04 426.259 346.245C422.463 342.451 420.33 337.304 420.33 331.937C420.33 326.571 422.463 321.424 426.259 317.63C430.055 313.835 435.204 311.703 440.572 311.703C445.941 311.703 451.09 313.835 454.886 317.63C458.682 321.424 460.815 326.571 460.815 331.937V331.937Z" fill="black" fill-opacity="0.31373"/>
<path d="M451.614 341.802C447.815 345.597 442.663 347.73 437.292 347.733C431.921 347.735 426.771 345.606 422.975 341.815C419.179 338.024 417.048 332.88 417.05 327.516C417.052 322.152 419.188 317.007 422.988 313.212C426.787 309.418 431.939 307.285 437.31 307.282C442.681 307.28 447.831 309.408 451.627 313.2C455.423 316.991 457.554 322.134 457.552 327.499C457.55 332.863 455.414 338.008 451.614 341.802Z" fill="url(#paint6_linear_503_416)" stroke="black" stroke-width="0.799998" stroke-linecap="round" stroke-linejoin="round"/>
<path d="M447.896 391.852C421.111 391.852 399.365 413.59 399.365 440.36C399.365 445.897 400.296 451.203 402.008 456.157H493.758C495.47 451.203 496.401 445.897 496.401 440.36C496.401 413.59 474.681 391.852 447.896 391.852V391.852Z" fill="url(#paint7_linear_503_416)" stroke="black" stroke-width="0.8" stroke-linecap="round" stroke-linejoin="round"/>
<path d="M350.833 391.852C324.049 391.852 302.328 413.59 302.328 440.36C302.328 445.897 303.26 451.203 304.972 456.157H396.721C398.433 451.203 399.365 445.897 399.365 440.36C399.365 413.59 377.618 391.852 350.833 391.852Z" fill="url(#paint8_linear_503_416)" stroke="black" stroke-width="0.8" stroke-linecap="round" stroke-linejoin="round"/>
<path d="M394.384 218.633C394.385 221 393.919 223.344 393.014 225.531C392.108 227.719 390.781 229.706 389.107 231.38C387.433 233.055 385.445 234.383 383.257 235.289C381.07 236.195 378.725 236.661 376.357 236.661C373.988 236.661 371.644 236.195 369.456 235.289C367.268 234.383 365.281 233.055 363.606 231.38C361.932 229.706 360.605 227.719 359.699 225.531C358.794 223.344 358.328 221 358.329 218.633C358.328 216.266 358.794 213.921 359.699 211.734C360.605 209.547 361.932 207.559 363.606 205.885C365.281 204.211 367.268 202.883 369.456 201.977C371.644 201.07 373.988 200.604 376.357 200.604C378.725 200.604 381.07 201.07 383.257 201.977C385.445 202.883 387.433 204.211 389.107 205.885C390.781 207.559 392.108 209.547 393.014 211.734C393.919 213.921 394.385 216.266 394.384 218.633V218.633Z" fill="white" stroke="black" stroke-width="0.800004" stroke-linecap="round" stroke-linejoin="round"/>
<path d="M434.308 218.633C434.309 221 433.844 223.344 432.938 225.531C432.033 227.719 430.705 229.706 429.031 231.38C427.357 233.055 425.369 234.383 423.182 235.289C420.994 236.195 418.649 236.661 416.281 236.661C413.913 236.661 411.568 236.195 409.38 235.289C407.193 234.383 405.205 233.055 403.531 231.38C401.857 229.706 400.529 227.719 399.623 225.531C398.718 223.344 398.253 221 398.254 218.633C398.253 216.266 398.718 213.921 399.623 211.734C400.529 209.547 401.857 207.559 403.531 205.885C405.205 204.211 407.193 202.883 409.38 201.977C411.568 201.07 413.913 200.604 416.281 200.604C418.649 200.604 420.994 201.07 423.182 201.977C425.369 202.883 427.357 204.211 429.031 205.885C430.705 207.559 432.033 209.547 432.938 211.734C433.844 213.921 434.309 216.266 434.308 218.633Z" fill="white" stroke="black" stroke-width="0.800004" stroke-linecap="round" stroke-linejoin="round"/>
<path d="M388.799 220.822C388.799 221.587 388.649 222.344 388.357 223.051C388.064 223.757 387.636 224.4 387.095 224.941C386.554 225.482 385.912 225.911 385.205 226.203C384.499 226.496 383.741 226.647 382.976 226.647C382.211 226.647 381.453 226.496 380.747 226.203C380.04 225.911 379.398 225.482 378.857 224.941C378.316 224.4 377.888 223.757 377.595 223.051C377.303 222.344 377.153 221.587 377.153 220.822C377.153 220.057 377.303 219.3 377.595 218.593C377.888 217.886 378.316 217.244 378.857 216.703C379.398 216.162 380.04 215.733 380.747 215.44C381.453 215.147 382.211 214.997 382.976 214.997C383.741 214.997 384.499 215.147 385.205 215.44C385.912 215.733 386.554 216.162 387.095 216.703C387.636 217.244 388.064 217.886 388.357 218.593C388.649 219.3 388.799 220.057 388.799 220.822V220.822Z" fill="black"/>
<path d="M415.432 220.822C415.433 221.587 415.283 222.344 414.991 223.051C414.698 223.757 414.269 224.4 413.729 224.941C413.188 225.482 412.546 225.911 411.839 226.203C411.132 226.496 410.375 226.647 409.61 226.647C408.845 226.647 408.087 226.496 407.38 226.203C406.674 225.911 406.032 225.482 405.491 224.941C404.95 224.4 404.521 223.757 404.229 223.051C403.937 222.344 403.786 221.587 403.787 220.822C403.786 220.057 403.937 219.3 404.229 218.593C404.521 217.886 404.95 217.244 405.491 216.703C406.032 216.162 406.674 215.733 407.38 215.44C408.087 215.147 408.845 214.997 409.61 214.997C410.375 214.997 411.132 215.147 411.839 215.44C412.546 215.733 413.188 216.162 413.729 216.703C414.269 217.244 414.698 217.886 414.991 218.593C415.283 219.3 415.433 220.057 415.432 220.822Z" fill="black"/>
<path fill-rule="evenodd" clip-rule="evenodd" d="M386.999 253.205C389.938 250.066 402.422 249.385 405.033 253.591C407.644 257.804 401.117 266.531 396.013 266.138C390.935 265.745 384.244 256.133 386.999 253.205Z" fill="black"/>
<path fill-rule="evenodd" clip-rule="evenodd" d="M354.166 189.234C352.231 161.245 323.393 154.87 322.002 158.192C320.618 161.52 327.27 198.937 354.166 189.234Z" fill="#74401B" stroke="black" stroke-width="0.8" stroke-linejoin="round"/>
<path fill-rule="evenodd" clip-rule="evenodd" d="M436.351 189.234C438.286 161.245 467.124 154.87 468.515 158.192C469.899 161.52 463.24 198.937 436.351 189.234Z" fill="url(#paint9_linear_503_416)" stroke="black" stroke-width="0.8" stroke-linejoin="round"/>
<path d="M346.535 442.156C346.535 446.243 345.166 450.162 342.729 453.052C340.293 455.942 336.988 457.565 333.542 457.565C330.096 457.565 326.791 455.942 324.354 453.052C321.918 450.162 320.549 446.243 320.549 442.156C320.549 438.069 321.918 434.149 324.354 431.259C326.791 428.37 330.096 426.746 333.542 426.746C336.988 426.746 340.293 428.37 342.729 431.259C345.166 434.149 346.535 438.069 346.535 442.156V442.156Z" fill="url(#paint10_linear_503_416)" stroke="black" stroke-width="0.734432" stroke-linecap="round" stroke-linejoin="round"/>
<path d="M379.125 442.156C379.125 446.243 377.756 450.162 375.32 453.052C372.883 455.942 369.578 457.565 366.132 457.565C362.686 457.565 359.381 455.942 356.945 453.052C354.508 450.162 353.139 446.243 353.139 442.156C353.139 438.069 354.508 434.149 356.945 431.259C359.381 428.37 362.686 426.746 366.132 426.746C369.578 426.746 372.883 428.37 375.32 431.259C377.756 434.149 379.125 438.069 379.125 442.156V442.156Z" fill="url(#paint11_linear_503_416)" stroke="black" stroke-width="0.734432" stroke-linecap="round" stroke-linejoin="round"/>
<path d="M363.709 442.156C363.709 446.243 362.34 450.162 359.904 453.052C357.467 455.942 354.162 457.565 350.716 457.565C347.27 457.565 343.965 455.942 341.529 453.052C339.092 450.162 337.723 446.243 337.723 442.156C337.723 438.069 339.092 434.149 341.529 431.259C343.965 428.37 347.27 426.746 350.716 426.746C354.162 426.746 357.467 428.37 359.904 431.259C362.34 434.149 363.709 438.069 363.709 442.156V442.156Z" fill="url(#paint12_linear_503_416)" stroke="black" stroke-width="0.734432" stroke-linecap="round" stroke-linejoin="round"/>
<path d="M446.516 442.156C446.516 446.243 445.147 450.162 442.711 453.052C440.274 455.942 436.969 457.565 433.523 457.565C430.077 457.565 426.772 455.942 424.335 453.052C421.899 450.162 420.53 446.243 420.53 442.156C420.53 438.069 421.899 434.149 424.335 431.259C426.772 428.37 430.077 426.746 433.523 426.746C436.969 426.746 440.274 428.37 442.711 431.259C445.147 434.149 446.516 438.069 446.516 442.156V442.156Z" fill="url(#paint13_linear_503_416)" stroke="black" stroke-width="0.734432" stroke-linecap="round" stroke-linejoin="round"/>
<path d="M479.11 442.156C479.11 446.243 477.741 450.162 475.305 453.052C472.868 455.942 469.563 457.565 466.117 457.565C462.671 457.565 459.366 455.942 456.929 453.052C454.493 450.162 453.124 446.243 453.124 442.156C453.124 438.069 454.493 434.149 456.929 431.259C459.366 428.37 462.671 426.746 466.117 426.746C469.563 426.746 472.868 428.37 475.305 431.259C477.741 434.149 479.11 438.069 479.11 442.156V442.156Z" fill="url(#paint14_linear_503_416)" stroke="black" stroke-width="0.734432" stroke-linecap="round" stroke-linejoin="round"/>
<path d="M463.694 442.156C463.694 446.243 462.325 450.162 459.888 453.052C457.451 455.942 454.146 457.565 450.7 457.565C447.254 457.565 443.95 455.942 441.513 453.052C439.076 450.162 437.707 446.243 437.707 442.156C437.707 438.069 439.076 434.149 441.513 431.259C443.95 428.37 447.254 426.746 450.7 426.746C454.146 426.746 457.451 428.37 459.888 431.259C462.325 434.149 463.694 438.069 463.694 442.156V442.156Z" fill="url(#paint15_linear_503_416)" stroke="black" stroke-width="0.734432" stroke-linecap="round" stroke-linejoin="round"/>
<path d="M447.155 201.702C448.159 205.855 448.697 210.206 448.697 214.661C448.697 245.107 423.959 280.374 393.5 280.374C371.301 280.374 352.178 261.63 343.427 239.675C350.204 265.024 371.314 288.793 396.308 288.793C426.766 288.793 451.504 253.499 451.504 223.054C451.504 215.48 449.956 208.273 447.181 201.702H447.155Z" fill="black" fill-opacity="0.31373"/>
<path d="M367.665 332.356C368.567 332.877 369.371 333.548 370.029 334.332C370.687 335.116 371.188 335.997 371.503 336.925C371.817 337.853 371.94 338.809 371.862 339.74C371.785 340.67 371.51 341.557 371.053 342.348C370.596 343.14 369.965 343.821 369.198 344.353C368.43 344.885 367.54 345.258 366.579 345.45C365.618 345.641 364.604 345.648 363.596 345.47C362.588 345.292 361.604 344.933 360.702 344.412C359.8 343.891 358.997 343.22 358.339 342.436C357.68 341.652 357.179 340.771 356.865 339.843C356.55 338.915 356.428 337.959 356.505 337.028C356.583 336.098 356.858 335.211 357.315 334.42C357.772 333.628 358.402 332.947 359.17 332.415C359.938 331.883 360.827 331.51 361.789 331.319C362.75 331.127 363.763 331.12 364.772 331.298C365.78 331.476 366.763 331.836 367.665 332.356V332.356Z" fill="url(#paint16_linear_503_416)" stroke="black" stroke-width="0.734456" stroke-linecap="round" stroke-linejoin="round"/>
<path d="M376.397 317.234C378.219 318.286 379.599 319.929 380.234 321.803C380.87 323.677 380.708 325.628 379.784 327.226C378.861 328.825 377.252 329.941 375.311 330.328C373.369 330.715 371.256 330.341 369.434 329.29C367.612 328.238 366.232 326.595 365.596 324.721C364.961 322.847 365.123 320.896 366.046 319.298C366.97 317.699 368.579 316.583 370.52 316.196C372.461 315.809 374.575 316.183 376.397 317.234V317.234Z" fill="url(#paint17_linear_503_416)" stroke="black" stroke-width="0.734456" stroke-linecap="round" stroke-linejoin="round"/>
<path d="M375.78 326.937C377.602 327.989 378.983 329.632 379.618 331.506C380.253 333.38 380.091 335.331 379.168 336.929C378.245 338.528 376.635 339.644 374.694 340.031C372.753 340.418 370.639 340.044 368.817 338.993C366.996 337.942 365.615 336.298 364.98 334.424C364.345 332.55 364.506 330.6 365.43 329.001C366.353 327.402 367.962 326.287 369.904 325.9C371.845 325.513 373.959 325.886 375.78 326.937V326.937Z" fill="url(#paint18_linear_503_416)" stroke="black" stroke-width="0.734456" stroke-linecap="round" stroke-linejoin="round"/>
<path d="M430.43 331.089C429.424 331.359 428.474 331.8 427.635 332.387C426.796 332.974 426.084 333.695 425.54 334.51C424.995 335.325 424.63 336.217 424.463 337.136C424.296 338.055 424.332 338.982 424.569 339.865C424.805 340.748 425.238 341.569 425.841 342.281C426.445 342.994 427.208 343.583 428.086 344.017C428.965 344.451 429.943 344.719 430.963 344.808C431.983 344.897 433.026 344.803 434.032 344.534C435.038 344.264 435.988 343.823 436.827 343.236C437.666 342.649 438.378 341.928 438.923 341.113C439.467 340.298 439.833 339.405 439.999 338.487C440.166 337.568 440.13 336.64 439.893 335.758C439.657 334.875 439.225 334.054 438.621 333.341C438.018 332.629 437.255 332.039 436.376 331.606C435.497 331.172 434.52 330.903 433.5 330.815C432.48 330.726 431.437 330.819 430.43 331.089V331.089Z" fill="url(#paint19_linear_503_416)" stroke="black" stroke-width="0.734456" stroke-linecap="round" stroke-linejoin="round"/>
<path d="M425.917 314.225C424.911 314.494 423.961 314.935 423.122 315.522C422.283 316.109 421.571 316.831 421.026 317.646C420.482 318.461 420.116 319.353 419.95 320.272C419.783 321.191 419.819 322.118 420.055 323.001C420.292 323.884 420.724 324.705 421.328 325.417C421.931 326.129 422.694 326.719 423.573 327.153C424.452 327.586 425.429 327.855 426.449 327.944C427.469 328.032 428.512 327.939 429.519 327.67C431.551 327.125 433.31 325.894 434.409 324.248C435.508 322.603 435.858 320.676 435.38 318.893C434.902 317.111 433.637 315.617 431.862 314.741C430.088 313.866 427.949 313.68 425.917 314.225V314.225Z" fill="url(#paint20_linear_503_416)" stroke="black" stroke-width="0.734456" stroke-linecap="round" stroke-linejoin="round"/>
<path d="M424.002 323.758C421.97 324.303 420.21 325.533 419.111 327.179C418.012 328.825 417.663 330.751 418.14 332.534C418.618 334.317 419.883 335.81 421.658 336.686C423.432 337.562 425.571 337.747 427.603 337.203C429.635 336.658 431.395 335.427 432.494 333.782C433.593 332.136 433.942 330.21 433.465 328.427C433.228 327.544 432.796 326.723 432.192 326.01C431.589 325.298 430.826 324.708 429.947 324.275C428.173 323.399 426.034 323.213 424.002 323.758V323.758Z" fill="url(#paint21_linear_503_416)" stroke="black" stroke-width="0.734456" stroke-linecap="round" stroke-linejoin="round"/>
</g>
<defs>
<linearGradient id="paint0_linear_503_416" x1="328.077" y1="253.208" x2="565.137" y2="253.208" gradientUnits="userSpaceOnUse">
<stop stop-color="#D07839"/>
</linearGradient>
<linearGradient id="paint1_linear_503_416" x1="287.689" y1="345.822" x2="504.367" y2="345.822" gradientUnits="userSpaceOnUse">
<stop stop-color="#D07839"/>
</linearGradient>
<linearGradient id="paint2_linear_503_416" x1="301.645" y1="219.257" x2="489.252" y2="219.257" gradientUnits="userSpaceOnUse">
<stop stop-color="#D07839"/>
</linearGradient>
<linearGradient id="paint3_linear_503_416" x1="79.3173" y1="382.838" x2="79.9979" y2="385.069" gradientUnits="userSpaceOnUse">
<stop stop-color="#74401B"/>
</linearGradient>
<linearGradient id="paint4_linear_503_416" x1="78.6085" y1="377.947" x2="80.5073" y2="384.172" gradientUnits="userSpaceOnUse">
<stop stop-color="#74401B"/>
</linearGradient>
<linearGradient id="paint5_linear_503_416" x1="349.035" y1="-292.098" x2="364.478" y2="-287.948" gradientUnits="userSpaceOnUse">
<stop stop-color="#D07839"/>
</linearGradient>
<linearGradient id="paint6_linear_503_416" x1="378.032" y1="-284.348" x2="393.479" y2="-280.198" gradientUnits="userSpaceOnUse">
<stop stop-color="#D07839"/>
</linearGradient>
<linearGradient id="paint7_linear_503_416" x1="362.605" y1="-253.849" x2="399.614" y2="-243.905" gradientUnits="userSpaceOnUse">
<stop stop-color="#D07839"/>
</linearGradient>
<linearGradient id="paint8_linear_503_416" x1="325.583" y1="-263.741" x2="362.591" y2="-253.797" gradientUnits="userSpaceOnUse">
<stop stop-color="#D07839"/>
</linearGradient>
<linearGradient id="paint9_linear_503_416" x1="18.2635" y1="404.774" x2="19.6195" y2="409.219" gradientUnits="userSpaceOnUse">
<stop stop-color="#74401B"/>
</linearGradient>
<linearGradient id="paint10_linear_503_416" x1="135.362" y1="351.653" x2="136.452" y2="355.225" gradientUnits="userSpaceOnUse">
<stop stop-color="#74401B"/>
</linearGradient>
<linearGradient id="paint11_linear_503_416" x1="136.434" y1="356.224" x2="137.523" y2="359.796" gradientUnits="userSpaceOnUse">
<stop stop-color="#74401B"/>
</linearGradient>
<linearGradient id="paint12_linear_503_416" x1="135.927" y1="354.061" x2="137.017" y2="357.634" gradientUnits="userSpaceOnUse">
<stop stop-color="#74401B"/>
</linearGradient>
<linearGradient id="paint13_linear_503_416" x1="138.647" y1="365.675" x2="139.737" y2="369.247" gradientUnits="userSpaceOnUse">
<stop stop-color="#74401B"/>
</linearGradient>
<linearGradient id="paint14_linear_503_416" x1="139.717" y1="370.246" x2="140.807" y2="373.819" gradientUnits="userSpaceOnUse">
<stop stop-color="#74401B"/>
</linearGradient>
<linearGradient id="paint15_linear_503_416" x1="139.21" y1="368.084" x2="140.3" y2="371.657" gradientUnits="userSpaceOnUse">
<stop stop-color="#74401B"/>
</linearGradient>
<linearGradient id="paint16_linear_503_416" x1="93.6427" y1="369.779" x2="94.2886" y2="371.896" gradientUnits="userSpaceOnUse">
<stop stop-color="#74401B"/>
</linearGradient>
<linearGradient id="paint17_linear_503_416" x1="87.1415" y1="373.073" x2="87.7874" y2="375.191" gradientUnits="userSpaceOnUse">
<stop stop-color="#74401B"/>
</linearGradient>
<linearGradient id="paint18_linear_503_416" x1="91.4768" y1="371.658" x2="92.1227" y2="373.776" gradientUnits="userSpaceOnUse">
<stop stop-color="#74401B"/>
</linearGradient>
<linearGradient id="paint19_linear_503_416" x1="95.6977" y1="379.351" x2="96.3578" y2="381.516" gradientUnits="userSpaceOnUse">
<stop stop-color="#74401B"/>
</linearGradient>
<linearGradient id="paint20_linear_503_416" x1="87.9803" y1="381.027" x2="88.6404" y2="383.192" gradientUnits="userSpaceOnUse">
<stop stop-color="#74401B"/>
</linearGradient>
<linearGradient id="paint21_linear_503_416" x1="92.1961" y1="379.454" x2="92.8563" y2="381.618" gradientUnits="userSpaceOnUse">
<stop stop-color="#74401B"/>
</linearGradient>
<clipPath id="clip0_503_416">
<rect width="812.432" height="457.966" fill="white"/>
</clipPath>
</defs>
</svg>
