<svg width="927" height="601" viewBox="0 0 927 601" fill="none" xmlns="http://www.w3.org/2000/svg">
<g clip-path="url(#clip0_501_48)">
<path d="M259 600.085H1C0.734784 600.085 0.480429 599.98 0.292892 599.792C0.105356 599.605 0 599.35 0 599.085C0 598.82 0.105356 598.565 0.292892 598.378C0.480429 598.19 0.734784 598.085 1 598.085H259C259.265 598.085 259.52 598.19 259.707 598.378C259.895 598.565 260 598.82 260 599.085C260 599.35 259.895 599.605 259.707 599.792C259.52 599.98 259.265 600.085 259 600.085Z" fill="#CCCCCC"/>
<path d="M910.122 434.548H269.283C264.909 434.543 260.715 432.803 257.621 429.71C254.528 426.616 252.788 422.422 252.783 418.048V22.894C252.787 19.6892 254.061 16.6166 256.328 14.3504C258.594 12.0842 261.666 10.8094 264.871 10.8057H914.325C917.585 10.8094 920.711 12.1062 923.016 14.4116C925.321 16.717 926.618 19.8427 926.622 23.103V418.048C926.617 422.422 924.877 426.616 921.784 429.71C918.69 432.803 914.496 434.543 910.122 434.548Z" fill="#F2F2F2"/>
<path d="M889.402 413.716H292.157C283.402 413.716 276.28 407.046 276.28 398.847V54.7424C276.28 48.6624 281.558 43.7156 288.045 43.7156H893.319C899.914 43.7156 905.28 48.7439 905.28 54.9241V398.847C905.28 407.046 898.157 413.716 889.402 413.716Z" fill="white"/>
<path d="M926.392 24.9502H252.552V16.5498C252.558 12.1607 254.305 7.95333 257.409 4.85072C260.514 1.74811 264.722 0.00363937 269.112 0H909.832C914.221 0.00360236 918.429 1.74806 921.534 4.85068C924.638 7.95329 926.386 12.1607 926.392 16.5498V24.9502Z" fill="#3F3D56"/>
<path d="M282.647 16.7834C285.013 16.7834 286.93 14.8656 286.93 12.5C286.93 10.1343 285.013 8.21655 282.647 8.21655C280.281 8.21655 278.364 10.1343 278.364 12.5C278.364 14.8656 280.281 16.7834 282.647 16.7834Z" fill="white"/>
<path d="M298.906 16.7834C301.271 16.7834 303.189 14.8656 303.189 12.5C303.189 10.1343 301.271 8.21655 298.906 8.21655C296.54 8.21655 294.622 10.1343 294.622 12.5C294.622 14.8656 296.54 16.7834 298.906 16.7834Z" fill="white"/>
<path d="M315.165 16.7834C317.53 16.7834 319.448 14.8656 319.448 12.5C319.448 10.1343 317.53 8.21655 315.165 8.21655C312.799 8.21655 310.881 10.1343 310.881 12.5C310.881 14.8656 312.799 16.7834 315.165 16.7834Z" fill="white"/>
<path d="M576.611 118.955H459.802C458.061 118.955 456.391 118.263 455.159 117.031C453.928 115.8 453.236 114.13 453.236 112.388C453.236 110.647 453.928 108.977 455.159 107.745C456.391 106.514 458.061 105.822 459.802 105.822H576.611C578.352 105.822 580.022 106.514 581.254 107.745C582.485 108.977 583.177 110.647 583.177 112.388C583.177 114.13 582.485 115.8 581.254 117.031C580.022 118.263 578.352 118.955 576.611 118.955Z" fill="#CCCCCC"/>
<path d="M721.757 118.955H604.948C603.207 118.955 601.537 118.263 600.305 117.031C599.074 115.8 598.382 114.13 598.382 112.388C598.382 110.647 599.074 108.977 600.305 107.745C601.537 106.514 603.207 105.822 604.948 105.822H721.757C723.498 105.822 725.168 106.514 726.4 107.745C727.631 108.977 728.323 110.647 728.323 112.388C728.323 114.13 727.631 115.8 726.4 117.031C725.168 118.263 723.498 118.955 721.757 118.955Z" fill="#CCCCCC"/>
<path d="M721.757 143.837H518.552C516.811 143.837 515.14 143.145 513.909 141.913C512.678 140.682 511.986 139.012 511.986 137.27C511.986 135.529 512.678 133.859 513.909 132.628C515.14 131.396 516.811 130.704 518.552 130.704H721.757C723.498 130.704 725.168 131.396 726.4 132.628C727.631 133.859 728.323 135.529 728.323 137.27C728.323 139.012 727.631 140.682 726.4 141.913C725.168 143.145 723.498 143.837 721.757 143.837Z" fill="#CCCCCC"/>
<path d="M576.611 93.7268H459.802C458.062 93.7246 456.394 93.0319 455.165 91.8007C453.935 90.5696 453.244 88.9007 453.244 87.1606C453.244 85.4206 453.935 83.7517 455.165 82.5205C456.394 81.2894 458.062 80.5966 459.802 80.5945H576.611C577.474 80.5934 578.328 80.7625 579.126 81.092C579.923 81.4215 580.648 81.905 581.259 82.5148C581.869 83.1246 582.354 83.8488 582.684 84.646C583.015 85.4432 583.185 86.2977 583.185 87.1606C583.185 88.0236 583.015 88.8781 582.684 89.6752C582.354 90.4724 581.869 91.1966 581.259 91.8064C580.648 92.4163 579.923 92.8998 579.126 93.2293C578.328 93.5588 577.474 93.7278 576.611 93.7268Z" fill="#CCCCCC"/>
<path d="M640.889 94.0722H607.713C605.972 94.0722 604.302 93.3804 603.07 92.149C601.839 90.9176 601.147 89.2475 601.147 87.5061C601.147 85.7646 601.839 84.0945 603.07 82.8631C604.302 81.6317 605.972 80.9399 607.713 80.9399H640.889C642.631 80.9399 644.301 81.6317 645.532 82.8631C646.764 84.0945 647.456 85.7646 647.456 87.5061C647.456 89.2475 646.764 90.9176 645.532 92.149C644.301 93.3804 642.631 94.0722 640.889 94.0722Z" fill="#CCCCCC"/>
<path d="M492.979 143.837H459.802C458.062 143.834 456.394 143.142 455.165 141.911C453.935 140.679 453.244 139.011 453.244 137.27C453.244 135.53 453.935 133.862 455.165 132.63C456.394 131.399 458.062 130.706 459.802 130.704H492.979C493.842 130.703 494.696 130.872 495.494 131.202C496.292 131.531 497.016 132.015 497.627 132.625C498.237 133.234 498.722 133.959 499.052 134.756C499.383 135.553 499.553 136.408 499.553 137.27C499.553 138.133 499.383 138.988 499.052 139.785C498.722 140.582 498.237 141.306 497.627 141.916C497.016 142.526 496.292 143.01 495.494 143.339C494.696 143.669 493.842 143.838 492.979 143.837Z" fill="#CCCCCC"/>
<path d="M576.611 351.955H459.802C458.061 351.955 456.391 351.263 455.159 350.031C453.928 348.8 453.236 347.13 453.236 345.388C453.236 343.647 453.928 341.977 455.159 340.745C456.391 339.514 458.061 338.822 459.802 338.822H576.611C577.473 338.822 578.327 338.992 579.123 339.322C579.92 339.652 580.644 340.136 581.254 340.745C581.863 341.355 582.347 342.079 582.677 342.876C583.007 343.672 583.177 344.526 583.177 345.388C583.177 346.251 583.007 347.105 582.677 347.901C582.347 348.698 581.863 349.422 581.254 350.031C580.644 350.641 579.92 351.125 579.123 351.455C578.327 351.785 577.473 351.955 576.611 351.955Z" fill="#CCCCCC"/>
<path d="M721.757 351.955H604.948C603.207 351.955 601.537 351.263 600.305 350.031C599.074 348.8 598.382 347.13 598.382 345.388C598.382 343.647 599.074 341.977 600.305 340.745C601.537 339.514 603.207 338.822 604.948 338.822H721.757C722.619 338.822 723.473 338.992 724.269 339.322C725.066 339.652 725.79 340.136 726.4 340.745C727.009 341.355 727.493 342.079 727.823 342.876C728.153 343.672 728.323 344.526 728.323 345.388C728.323 346.251 728.153 347.105 727.823 347.901C727.493 348.698 727.009 349.422 726.4 350.031C725.79 350.641 725.066 351.125 724.269 351.455C723.473 351.785 722.619 351.955 721.757 351.955Z" fill="#CCCCCC"/>
<path d="M721.757 376.837H518.552C516.811 376.837 515.14 376.145 513.909 374.913C512.678 373.682 511.986 372.012 511.986 370.27C511.986 368.529 512.678 366.859 513.909 365.628C515.14 364.396 516.811 363.704 518.552 363.704H721.757C722.62 363.703 723.474 363.872 724.272 364.202C725.069 364.531 725.794 365.015 726.405 365.625C727.015 366.234 727.5 366.959 727.83 367.756C728.161 368.553 728.331 369.407 728.331 370.27C728.331 371.133 728.161 371.988 727.83 372.785C727.5 373.582 727.015 374.306 726.405 374.916C725.794 375.526 725.069 376.01 724.272 376.339C723.474 376.669 722.62 376.838 721.757 376.837Z" fill="#CCCCCC"/>
<path d="M576.611 326.727H459.802C458.061 326.727 456.391 326.035 455.159 324.804C453.928 323.572 453.236 321.902 453.236 320.161C453.236 318.419 453.928 316.749 455.159 315.518C456.391 314.286 458.061 313.594 459.802 313.594H576.611C578.352 313.594 580.022 314.286 581.254 315.518C582.485 316.749 583.177 318.419 583.177 320.161C583.177 321.902 582.485 323.572 581.254 324.804C580.022 326.035 578.352 326.727 576.611 326.727Z" fill="#CCCCCC"/>
<path d="M640.889 327.072H607.713C605.972 327.072 604.302 326.38 603.07 325.149C601.839 323.918 601.147 322.248 601.147 320.506C601.147 318.765 601.839 317.095 603.07 315.863C604.302 314.632 605.972 313.94 607.713 313.94H640.889C642.631 313.94 644.301 314.632 645.532 315.863C646.764 317.095 647.456 318.765 647.456 320.506C647.456 322.248 646.764 323.918 645.532 325.149C644.301 326.38 642.631 327.072 640.889 327.072Z" fill="#CCCCCC"/>
<path d="M492.979 376.837H459.802C458.061 376.837 456.391 376.145 455.159 374.913C453.928 373.682 453.236 372.012 453.236 370.27C453.236 368.529 453.928 366.859 455.159 365.628C456.391 364.396 458.061 363.704 459.802 363.704H492.979C493.842 363.703 494.696 363.872 495.494 364.202C496.292 364.531 497.016 365.015 497.627 365.625C498.237 366.234 498.722 366.959 499.052 367.756C499.383 368.553 499.553 369.407 499.553 370.27C499.553 371.133 499.383 371.988 499.052 372.785C498.722 373.582 498.237 374.306 497.627 374.916C497.016 375.526 496.292 376.01 495.494 376.339C494.696 376.669 493.842 376.838 492.979 376.837Z" fill="#CCCCCC"/>
<path d="M546.104 281.462C543.625 281.467 541.244 280.493 539.48 278.752L495.572 235.392C494.71 234.541 494.025 233.527 493.558 232.409C493.091 231.291 492.85 230.092 492.85 228.881C492.85 227.669 493.091 226.47 493.558 225.352C494.025 224.234 494.71 223.22 495.572 222.369L539.303 179.185C541.125 177.394 543.579 176.395 546.133 176.403C548.688 176.411 551.136 177.426 552.946 179.228C554.759 181.044 555.776 183.505 555.776 186.071C555.776 188.637 554.759 191.098 552.946 192.914L520.45 225.411C519.438 226.426 518.869 227.801 518.869 229.234C518.869 230.668 519.438 232.043 520.45 233.057L552.77 265.378C554.09 266.695 554.989 268.374 555.354 270.203C555.718 272.031 555.532 273.927 554.818 275.65C554.104 277.372 552.894 278.844 551.343 279.879C549.792 280.913 547.968 281.464 546.104 281.462Z" fill="#2FA4DA"/>
<path d="M616.069 281.462C614.205 281.464 612.381 280.913 610.83 279.879C609.279 278.844 608.07 277.372 607.356 275.65C606.642 273.927 606.455 272.031 606.82 270.203C607.184 268.374 608.083 266.695 609.403 265.378L641.723 233.057C642.735 232.043 643.304 230.668 643.304 229.234C643.304 227.801 642.735 226.426 641.723 225.411L609.227 192.914C608.328 192.016 607.615 190.949 607.129 189.774C606.642 188.6 606.392 187.342 606.392 186.071C606.392 184.8 606.642 183.541 607.129 182.367C607.615 181.193 608.328 180.126 609.227 179.228C611.037 177.426 613.485 176.411 616.04 176.403C618.594 176.395 621.049 177.394 622.87 179.185L666.602 222.369C667.464 223.22 668.148 224.234 668.615 225.352C669.082 226.47 669.323 227.669 669.323 228.881C669.323 230.092 669.082 231.292 668.615 232.409C668.148 233.527 667.464 234.541 666.602 235.392L622.693 278.752C620.929 280.493 618.548 281.467 616.069 281.462Z" fill="#2FA4DA"/>
<path d="M344.959 345.51C343.821 410.002 300.477 438.032 299.765 410.803C298.881 376.362 284.029 287.037 225.735 314.429C156.019 347.186 218.866 546.712 198.684 546.712C117.94 546.712 52.4077 456.578 52.4077 345.51C52.4077 234.451 117.94 144.316 198.684 144.316C279.428 144.316 346.892 235.865 344.959 345.51V345.51Z" fill="url(#paint0_linear_501_48)" stroke="black" stroke-width="0.8" stroke-linecap="round" stroke-linejoin="round"/>
<path d="M305.455 207.491C324.18 241.336 333.472 283.774 334.308 328.33C335.085 369.493 323.86 408.366 303.048 419.381C312.766 422.488 343.821 409.993 344.951 345.502C345.893 292.507 330.607 243.74 305.455 207.491ZM234.962 292.123C228.977 292.237 222.37 293.84 215.083 297.258C145.367 330.015 208.222 529.54 188.04 529.54C146.456 529.54 108.909 505.631 82.2668 467.265C108.999 515.525 151.205 546.712 198.683 546.712C218.865 546.712 156.011 347.186 225.726 314.429C247.341 304.282 262.987 310.169 274.163 323.35C265.828 305.394 253.301 291.779 234.962 292.123V292.123Z" fill="black" fill-opacity="0.31373"/>
<path d="M269.155 461.103C269.155 496.516 255.082 530.479 230.031 555.52C204.98 580.561 171.004 594.629 135.577 594.629C100.151 594.629 66.1746 580.561 41.1239 555.52C16.0733 530.479 2 496.516 2 461.103C2 425.689 16.0733 391.726 41.1239 366.685C66.1746 341.644 100.151 327.576 135.577 327.576C171.004 327.576 204.98 341.644 230.031 366.685C255.082 391.726 269.155 425.689 269.155 461.103V461.103Z" fill="url(#paint1_linear_501_48)" stroke="black" stroke-width="0.799968" stroke-linecap="round" stroke-linejoin="round"/>
<path d="M135.583 327.594C121.37 327.594 107.689 329.835 94.8348 333.948C106.395 331.25 118.586 329.794 131.187 329.794C165.754 329.794 197.275 340.653 220.994 358.471C197.84 339.189 168.055 327.594 135.583 327.594ZM262.087 418.13C263.839 425.26 264.772 432.619 264.772 440.175C264.772 501.109 204.922 550.555 131.187 550.555C69.5276 550.555 17.6032 515.983 2.24365 469.023C6.33735 539.059 64.5006 594.654 135.583 594.654C209.319 594.654 269.169 534.831 269.169 461.124C269.169 446.087 266.68 431.622 262.087 418.13Z" fill="black" fill-opacity="0.31373"/>
<path d="M135.584 327.594C112.806 327.594 91.3472 333.294 72.5735 343.36C81.465 374.408 107.444 403.117 138.13 403.117C167.997 403.117 193.452 375.92 202.99 345.829C183.201 334.242 160.162 327.594 135.584 327.594V327.594Z" fill="black" fill-opacity="0.31373"/>
<path fill-rule="evenodd" clip-rule="evenodd" d="M227.11 216.371C210.891 216.371 177.945 224.99 172.181 247.337C172.091 247.509 171.919 248.131 171.731 249.087C161.3 242.717 149.035 239.013 135.927 239.013C122.238 239.013 109.515 243.053 98.7975 249.938C98.5765 248.539 98.3063 247.558 98.1999 247.337C92.4359 224.99 59.4899 216.396 43.2625 216.388C40.6835 216.388 38.5466 216.608 36.9828 217.017C28.2796 218.228 18.7495 221.703 19.4454 223.6C25.8316 222.512 29.0574 223.755 28.9591 224.785C28.7626 226.715 24.9146 227.23 26.1509 234.189C28.4843 230.812 31.7347 229.651 34.2891 229.111C36.9091 245.539 48.3714 274.215 69.8224 275.703C71.6645 275.834 73.3839 275.826 75.005 275.793C69.9452 285.377 67.0714 296.293 67.0714 307.88C67.0714 345.878 97.9133 389.911 135.927 389.911C173.933 389.911 204.816 345.878 204.816 307.88C204.816 296.301 201.934 285.409 196.874 275.834C198.045 275.826 199.281 275.793 200.559 275.703C221.936 274.223 233.398 245.71 236.067 229.266C238.507 229.863 241.422 231.09 243.559 234.189C244.795 227.23 240.947 226.715 240.75 224.785C240.652 223.755 243.878 222.512 250.264 223.6C250.927 221.801 242.421 218.587 234.119 217.222C232.538 216.666 230.115 216.371 227.11 216.371V216.371Z" fill="url(#paint2_linear_501_48)" stroke="black" stroke-width="0.8" stroke-linejoin="round"/>
<path d="M162.184 420.28C150.771 408.873 130.458 408.293 118.373 419.013C109.867 426.462 106.477 437.901 105.364 448.736C104.578 456.545 105.044 464.926 109.056 471.885C113.084 477.053 120.101 478.14 126.258 478.451C138.531 478.999 151.5 476.039 161.308 468.279C173.131 458.147 175.89 439.283 167.211 426.355C165.795 424.148 164.084 422.112 162.184 420.28V420.28Z" fill="black" fill-opacity="0.31373"/>
<path d="M121.66 443.381C121.66 450.078 118.998 456.502 114.261 461.238C109.523 465.974 103.097 468.635 96.3965 468.635C89.6963 468.635 83.2704 465.974 78.5325 461.238C73.7947 456.502 71.1331 450.078 71.1331 443.381C71.1331 436.683 73.7947 430.26 78.5325 425.524C83.2704 420.788 89.6963 418.127 96.3965 418.127C103.097 418.127 109.523 420.788 114.261 425.524C118.998 430.26 121.66 436.683 121.66 443.381V443.381Z" fill="black" fill-opacity="0.31373"/>
<path d="M158.091 412.103C146.677 400.696 126.364 400.116 114.28 410.836C105.773 418.285 102.384 429.724 101.27 440.559C100.484 448.368 100.951 456.749 104.963 463.708C108.991 468.876 116.007 469.963 122.164 470.274C134.437 470.822 147.406 467.862 157.215 460.102C169.037 449.97 171.796 431.106 163.118 418.178C161.701 415.971 159.99 413.935 158.091 412.103V412.103Z" fill="#DC9A6A" stroke="black" stroke-width="0.8" stroke-linecap="round" stroke-linejoin="round"/>
<path d="M132.349 403.297C134.781 403.877 137.139 404.768 139.341 406.011C141.478 407.164 143.5 408.546 145.31 410.157C156.224 419.479 158.475 436.896 150.509 448.801C143.721 458.115 132.939 463.945 121.91 466.496C117.44 467.502 112.347 468.197 107.992 466.545C112.02 469.309 117.35 470.037 122.156 470.274C134.429 470.822 147.398 467.862 157.214 460.102C169.037 449.971 171.796 431.106 163.117 418.179C161.701 415.963 159.99 413.935 158.09 412.095C151.418 405.423 141.691 402.463 132.349 403.297V403.297Z" fill="black" fill-opacity="0.31373"/>
<path fill-rule="evenodd" clip-rule="evenodd" d="M158.393 409.233C160.645 402.25 172.001 395.798 175.366 398.227C178.731 400.663 178.993 406.453 178.395 407.311C177.806 408.162 171.731 405.537 167.899 408.701C164.075 411.858 162.151 414.556 162.151 414.556L158.393 409.233Z" fill="url(#paint3_linear_501_48)" stroke="black" stroke-width="0.8"/>
<path fill-rule="evenodd" clip-rule="evenodd" d="M177.683 401.26C177.757 402.021 177.65 402.65 177.445 402.896C176.864 403.591 171.043 402.912 167.309 405.798C163.584 408.685 161.701 410.893 161.701 410.893L158.721 408.391C158.606 408.677 158.483 408.955 158.393 409.233L162.151 414.564C162.151 414.564 164.075 411.858 167.899 408.693C171.731 405.537 177.806 408.162 178.395 407.303C178.804 406.722 178.804 403.811 177.683 401.26V401.26Z" fill="black" fill-opacity="0.31373"/>
<path d="M161.013 409.274C149.805 398.186 131.228 395.324 118.161 403.64C115.205 405.267 116.097 409.347 116.13 409.282C121.067 405.381 126.184 409.674 132.906 414.49C141.134 420.386 150.182 429.43 156.822 438.22C161.472 444.369 164.796 450.412 162.135 454.639C162.274 454.68 166.139 455.768 167.907 452.17C176.815 435.399 171.78 419.29 161.013 409.274V409.274Z" fill="url(#paint4_linear_501_48)" stroke="black" stroke-width="0.8" stroke-linecap="round" stroke-linejoin="round"/>
<path d="M160.129 408.039C163.682 417.246 163.216 425.955 158.705 434.361C157.681 436.274 156.109 435.653 154.791 435.628C155.487 436.487 156.167 437.362 156.821 438.22C161.464 444.377 164.796 450.42 162.135 454.639C162.274 454.68 166.139 455.776 167.907 452.178C176.062 436.806 172.484 420.084 160.129 408.039V408.039Z" fill="black" fill-opacity="0.31373"/>
<path d="M114.105 425.63C115.765 428.502 116.843 431.672 117.277 434.959C117.712 438.247 117.494 441.587 116.636 444.789C115.779 447.991 114.298 450.993 112.279 453.623C110.26 456.252 107.742 458.459 104.869 460.115C101.996 461.772 98.8237 462.847 95.5338 463.278C92.244 463.71 88.9008 463.49 85.6952 462.63C82.4896 461.771 79.4842 460.289 76.8508 458.27C74.2174 456.25 72.0074 453.733 70.3471 450.861C68.6868 447.989 67.6087 444.819 67.1743 441.531C66.7398 438.244 66.9577 434.904 67.8153 431.701C68.6729 428.499 70.1535 425.497 72.1726 422.868C74.1917 420.238 76.7097 418.032 79.5828 416.375C82.456 414.718 85.628 413.644 88.9178 413.212C92.2077 412.781 95.5508 413.001 98.7565 413.86C101.962 414.719 104.967 416.201 107.601 418.221C110.234 420.24 112.444 422.758 114.105 425.63V425.63Z" fill="url(#paint5_linear_501_48)" stroke="black" stroke-width="0.800002" stroke-linecap="round" stroke-linejoin="round"/>
<path d="M216.436 443.773C216.436 450.471 213.774 456.894 209.036 461.63C204.298 466.366 197.873 469.027 191.172 469.027C184.472 469.027 178.046 466.366 173.308 461.63C168.57 456.894 165.909 450.471 165.909 443.773C165.909 437.076 168.57 430.652 173.308 425.916C178.046 421.18 184.472 418.52 191.172 418.52C197.873 418.52 204.298 421.18 209.036 425.916C213.774 430.652 216.436 437.076 216.436 443.773V443.773Z" fill="black" fill-opacity="0.31373"/>
<path d="M204.953 456.086C200.211 460.822 193.781 463.484 187.078 463.487C180.375 463.49 173.947 460.833 169.21 456.101C164.472 451.37 161.812 444.95 161.815 438.256C161.818 431.561 164.483 425.139 169.225 420.403C173.967 415.667 180.397 413.005 187.1 413.002C193.803 412.999 200.231 415.656 204.969 420.388C209.707 425.119 212.367 431.539 212.364 438.233C212.361 444.928 209.695 451.35 204.953 456.086Z" fill="url(#paint6_linear_501_48)" stroke="black" stroke-width="0.799998" stroke-linecap="round" stroke-linejoin="round"/>
<path d="M200.313 518.551C166.884 518.551 139.742 545.682 139.742 579.093C139.742 586.002 140.905 592.626 143.042 598.808H257.551C259.688 592.626 260.85 586.002 260.85 579.093C260.85 545.682 233.742 518.551 200.313 518.551V518.551Z" fill="url(#paint7_linear_501_48)" stroke="black" stroke-width="0.8" stroke-linecap="round" stroke-linejoin="round"/>
<path d="M79.1721 518.551C45.743 518.551 18.6345 545.682 18.6345 579.093C18.6345 586.002 19.7971 592.626 21.934 598.808H136.443C138.58 592.626 139.742 586.002 139.742 579.093C139.742 545.682 112.601 518.551 79.1721 518.551Z" fill="url(#paint8_linear_501_48)" stroke="black" stroke-width="0.8" stroke-linecap="round" stroke-linejoin="round"/>
<path d="M133.526 302.362C133.527 305.316 132.946 308.242 131.816 310.972C130.686 313.702 129.029 316.183 126.939 318.272C124.85 320.362 122.369 322.019 119.639 323.15C116.909 324.281 113.982 324.863 111.026 324.863C108.071 324.863 105.144 324.281 102.414 323.15C99.6836 322.019 97.2029 320.362 95.1135 318.272C93.0241 316.183 91.367 313.702 90.237 310.972C89.1069 308.242 88.526 305.316 88.5273 302.362C88.526 299.408 89.1069 296.482 90.237 293.752C91.367 291.022 93.0241 288.542 95.1135 286.452C97.2029 284.363 99.6836 282.705 102.414 281.574C105.144 280.443 108.071 279.861 111.026 279.861C113.982 279.861 116.909 280.443 119.639 281.574C122.369 282.705 124.85 284.363 126.939 286.452C129.029 288.542 130.686 291.022 131.816 293.752C132.946 296.482 133.527 299.408 133.526 302.362V302.362Z" fill="white" stroke="black" stroke-width="0.800004" stroke-linecap="round" stroke-linejoin="round"/>
<path d="M183.354 302.362C183.355 305.316 182.774 308.242 181.644 310.972C180.514 313.702 178.857 316.183 176.768 318.272C174.679 320.362 172.198 322.019 169.467 323.15C166.737 324.281 163.81 324.863 160.855 324.863C157.899 324.863 154.973 324.281 152.242 323.15C149.512 322.019 147.031 320.362 144.942 318.272C142.852 316.183 141.195 313.702 140.065 310.972C138.935 308.242 138.354 305.316 138.356 302.362C138.354 299.408 138.935 296.482 140.065 293.752C141.195 291.022 142.852 288.542 144.942 286.452C147.031 284.363 149.512 282.705 152.242 281.574C154.973 280.443 157.899 279.861 160.855 279.861C163.81 279.861 166.737 280.443 169.467 281.574C172.198 282.705 174.679 284.363 176.768 286.452C178.857 288.542 180.514 291.022 181.644 293.752C182.774 296.482 183.355 299.408 183.354 302.362Z" fill="white" stroke="black" stroke-width="0.800004" stroke-linecap="round" stroke-linejoin="round"/>
<path d="M126.555 305.095C126.556 306.049 126.369 306.994 126.004 307.876C125.639 308.758 125.104 309.56 124.429 310.235C123.754 310.91 122.953 311.446 122.07 311.811C121.188 312.177 120.243 312.365 119.288 312.365C118.333 312.365 117.388 312.177 116.506 311.811C115.624 311.446 114.822 310.91 114.147 310.235C113.472 309.56 112.937 308.758 112.572 307.876C112.208 306.994 112.02 306.049 112.021 305.095C112.02 304.14 112.208 303.195 112.572 302.313C112.937 301.431 113.472 300.629 114.147 299.954C114.822 299.279 115.624 298.743 116.506 298.378C117.388 298.013 118.333 297.824 119.288 297.824C120.243 297.824 121.188 298.013 122.07 298.378C122.953 298.743 123.754 299.279 124.429 299.954C125.104 300.629 125.639 301.431 126.004 302.313C126.369 303.195 126.556 304.14 126.555 305.095V305.095Z" fill="black"/>
<path d="M159.796 305.095C159.797 306.049 159.609 306.994 159.244 307.876C158.88 308.758 158.344 309.56 157.67 310.235C156.995 310.91 156.193 311.446 155.311 311.811C154.429 312.177 153.484 312.365 152.529 312.365C151.574 312.365 150.629 312.177 149.746 311.811C148.864 311.446 148.063 310.91 147.388 310.235C146.713 309.56 146.178 308.758 145.813 307.876C145.448 306.994 145.261 306.049 145.262 305.095C145.261 304.14 145.448 303.195 145.813 302.313C146.178 301.431 146.713 300.629 147.388 299.954C148.063 299.279 148.864 298.743 149.746 298.378C150.629 298.013 151.574 297.824 152.529 297.824C153.484 297.824 154.429 298.013 155.311 298.378C156.193 298.743 156.995 299.279 157.67 299.954C158.344 300.629 158.88 301.431 159.244 302.313C159.609 303.195 159.797 304.14 159.796 305.095Z" fill="black"/>
<path fill-rule="evenodd" clip-rule="evenodd" d="M124.31 345.51C127.977 341.593 143.558 340.743 146.817 345.992C150.075 351.25 141.929 362.142 135.559 361.651C129.222 361.161 120.871 349.165 124.31 345.51Z" fill="black"/>
<path fill-rule="evenodd" clip-rule="evenodd" d="M83.3314 265.67C80.9161 230.738 44.9244 222.782 43.1886 226.928C41.4611 231.082 49.7631 277.78 83.3314 265.67Z" fill="#74401B" stroke="black" stroke-width="0.8" stroke-linejoin="round"/>
<path fill-rule="evenodd" clip-rule="evenodd" d="M185.903 265.67C188.318 230.738 224.31 222.782 226.046 226.928C227.773 231.082 219.463 277.78 185.903 265.67Z" fill="url(#paint9_linear_501_48)" stroke="black" stroke-width="0.8" stroke-linejoin="round"/>
<path d="M73.8073 581.333C73.8073 586.434 72.0988 591.326 69.0576 594.932C66.0165 598.539 61.8918 600.565 57.5909 600.565C53.2901 600.565 49.1654 598.539 46.1242 594.932C43.083 591.326 41.3745 586.434 41.3745 581.333C41.3745 576.233 43.083 571.341 46.1242 567.734C49.1654 564.127 53.2901 562.101 57.5909 562.101C61.8918 562.101 66.0165 564.127 69.0576 567.734C72.0988 571.341 73.8073 576.233 73.8073 581.333V581.333Z" fill="url(#paint10_linear_501_48)" stroke="black" stroke-width="0.734432" stroke-linecap="round" stroke-linejoin="round"/>
<path d="M114.482 581.333C114.482 586.434 112.774 591.326 109.733 594.932C106.691 598.539 102.567 600.565 98.2659 600.565C93.965 600.565 89.8403 598.539 86.7992 594.932C83.7581 591.326 82.0496 586.434 82.0496 581.333C82.0496 576.233 83.7581 571.341 86.7992 567.734C89.8403 564.127 93.965 562.101 98.2659 562.101C102.567 562.101 106.691 564.127 109.733 567.734C112.774 571.341 114.482 576.233 114.482 581.333V581.333Z" fill="url(#paint11_linear_501_48)" stroke="black" stroke-width="0.734432" stroke-linecap="round" stroke-linejoin="round"/>
<path d="M95.242 581.333C95.242 586.434 93.5334 591.326 90.4923 594.932C87.4512 598.539 83.3265 600.565 79.0256 600.565C74.7248 600.565 70.6001 598.539 67.559 594.932C64.5178 591.326 62.8093 586.434 62.8093 581.333C62.8093 576.233 64.5178 571.341 67.559 567.734C70.6001 564.127 74.7248 562.101 79.0256 562.101C83.3265 562.101 87.4512 564.127 90.4923 567.734C93.5334 571.341 95.242 576.233 95.242 581.333V581.333Z" fill="url(#paint12_linear_501_48)" stroke="black" stroke-width="0.734432" stroke-linecap="round" stroke-linejoin="round"/>
<path d="M198.59 581.333C198.59 586.434 196.882 591.326 193.841 594.932C190.8 598.539 186.675 600.565 182.374 600.565C178.073 600.565 173.949 598.539 170.907 594.932C167.866 591.326 166.158 586.434 166.158 581.333C166.158 576.233 167.866 571.341 170.907 567.734C173.949 564.127 178.073 562.101 182.374 562.101C186.675 562.101 190.8 564.127 193.841 567.734C196.882 571.341 198.59 576.233 198.59 581.333V581.333Z" fill="url(#paint13_linear_501_48)" stroke="black" stroke-width="0.734432" stroke-linecap="round" stroke-linejoin="round"/>
<path d="M239.27 581.333C239.27 586.434 237.561 591.326 234.52 594.932C231.479 598.539 227.354 600.565 223.053 600.565C218.752 600.565 214.628 598.539 211.587 594.932C208.545 591.326 206.837 586.434 206.837 581.333C206.837 576.233 208.545 571.341 211.587 567.734C214.628 564.127 218.752 562.101 223.053 562.101C227.354 562.101 231.479 564.127 234.52 567.734C237.561 571.341 239.27 576.233 239.27 581.333V581.333Z" fill="url(#paint14_linear_501_48)" stroke="black" stroke-width="0.734432" stroke-linecap="round" stroke-linejoin="round"/>
<path d="M220.029 581.333C220.029 586.434 218.32 591.326 215.279 594.932C212.238 598.539 208.113 600.565 203.813 600.565C199.512 600.565 195.387 598.539 192.346 594.932C189.305 591.326 187.596 586.434 187.596 581.333C187.596 576.233 189.305 571.341 192.346 567.734C195.387 564.127 199.512 562.101 203.813 562.101C208.113 562.101 212.238 564.127 215.279 567.734C218.32 571.341 220.029 576.233 220.029 581.333V581.333Z" fill="url(#paint15_linear_501_48)" stroke="black" stroke-width="0.734432" stroke-linecap="round" stroke-linejoin="round"/>
<path d="M199.388 281.231C200.64 286.415 201.312 291.845 201.312 297.405C201.312 335.403 170.437 379.42 132.423 379.42C104.717 379.42 80.8507 356.026 69.9287 328.625C78.3863 360.261 104.733 389.927 135.927 389.927C173.941 389.927 204.816 345.878 204.816 307.88C204.816 298.427 202.884 289.432 199.421 281.231H199.388Z" fill="black" fill-opacity="0.31373"/>
<path d="M100.18 444.296C101.305 444.946 102.308 445.784 103.13 446.762C103.951 447.74 104.576 448.84 104.969 449.998C105.362 451.156 105.514 452.35 105.418 453.511C105.321 454.673 104.978 455.779 104.407 456.767C103.837 457.755 103.05 458.605 102.092 459.269C101.134 459.933 100.023 460.398 98.8239 460.637C97.6243 460.876 96.3592 460.885 95.1007 460.663C93.8422 460.441 92.615 459.992 91.4892 459.342C90.3634 458.692 89.361 457.854 88.5392 456.876C87.7175 455.898 87.0925 454.798 86.6999 453.64C86.3073 452.482 86.1548 451.288 86.2512 450.127C86.3475 448.966 86.6908 447.859 87.2615 446.871C87.8321 445.883 88.6189 445.033 89.5769 444.369C90.5349 443.705 91.6454 443.24 92.845 443.001C94.0445 442.762 95.3097 442.753 96.5682 442.975C97.8266 443.197 99.0538 443.646 100.18 444.296V444.296Z" fill="url(#paint16_linear_501_48)" stroke="black" stroke-width="0.734456" stroke-linecap="round" stroke-linejoin="round"/>
<path d="M111.077 425.424C113.351 426.736 115.074 428.787 115.866 431.126C116.659 433.464 116.457 435.899 115.305 437.894C114.152 439.89 112.144 441.282 109.721 441.765C107.299 442.248 104.66 441.782 102.387 440.47C100.113 439.158 98.3902 437.107 97.5974 434.768C96.8045 432.429 97.0065 429.994 98.1589 427.999C99.3114 426.004 101.32 424.611 103.742 424.129C106.165 423.646 108.803 424.111 111.077 425.424V425.424Z" fill="url(#paint17_linear_501_48)" stroke="black" stroke-width="0.734456" stroke-linecap="round" stroke-linejoin="round"/>
<path d="M110.308 437.534C112.581 438.846 114.304 440.897 115.097 443.236C115.89 445.574 115.688 448.009 114.535 450.005C113.383 452 111.374 453.392 108.952 453.875C106.529 454.358 103.891 453.892 101.617 452.58C99.3435 451.268 97.6207 449.217 96.8278 446.878C96.035 444.539 96.237 442.104 97.3894 440.109C98.5418 438.114 100.55 436.722 102.973 436.239C105.396 435.756 108.034 436.221 110.308 437.534V437.534Z" fill="url(#paint18_linear_501_48)" stroke="black" stroke-width="0.734456" stroke-linecap="round" stroke-linejoin="round"/>
<path d="M178.514 442.714C177.259 443.051 176.073 443.601 175.026 444.334C173.979 445.066 173.09 445.967 172.411 446.984C171.731 448.001 171.275 449.115 171.067 450.262C170.859 451.408 170.904 452.566 171.199 453.668C171.494 454.769 172.034 455.794 172.787 456.683C173.54 457.572 174.492 458.308 175.589 458.849C176.686 459.391 177.905 459.726 179.179 459.837C180.452 459.947 181.753 459.831 183.009 459.494C184.265 459.158 185.451 458.607 186.498 457.875C187.545 457.142 188.434 456.242 189.113 455.225C189.792 454.208 190.249 453.094 190.457 451.947C190.665 450.8 190.62 449.643 190.325 448.541C190.03 447.439 189.49 446.415 188.737 445.526C187.984 444.636 187.031 443.9 185.935 443.359C184.838 442.818 183.618 442.483 182.345 442.372C181.072 442.261 179.77 442.378 178.514 442.714V442.714Z" fill="url(#paint19_linear_501_48)" stroke="black" stroke-width="0.734456" stroke-linecap="round" stroke-linejoin="round"/>
<path d="M172.881 421.667C171.625 422.004 170.44 422.554 169.393 423.287C168.345 424.019 167.457 424.92 166.777 425.937C166.098 426.954 165.642 428.068 165.434 429.215C165.226 430.361 165.271 431.519 165.566 432.62C165.861 433.722 166.4 434.747 167.154 435.636C167.907 436.525 168.859 437.261 169.956 437.802C171.053 438.343 172.272 438.679 173.546 438.79C174.819 438.9 176.12 438.784 177.376 438.447C179.913 437.768 182.108 436.232 183.48 434.178C184.852 432.123 185.288 429.719 184.692 427.494C184.096 425.269 182.517 423.405 180.302 422.312C178.087 421.219 175.418 420.987 172.881 421.667V421.667Z" fill="url(#paint20_linear_501_48)" stroke="black" stroke-width="0.734456" stroke-linecap="round" stroke-linejoin="round"/>
<path d="M170.491 433.564C167.954 434.244 165.759 435.78 164.387 437.834C163.015 439.888 162.579 442.292 163.175 444.518C163.771 446.743 165.35 448.607 167.565 449.7C169.78 450.792 172.449 451.024 174.986 450.345C177.522 449.665 179.718 448.129 181.089 446.075C182.461 444.021 182.897 441.617 182.301 439.391C182.006 438.29 181.466 437.265 180.713 436.376C179.96 435.487 179.008 434.75 177.911 434.209C175.696 433.117 173.027 432.885 170.491 433.564V433.564Z" fill="url(#paint21_linear_501_48)" stroke="black" stroke-width="0.734456" stroke-linecap="round" stroke-linejoin="round"/>
</g>
<defs>
<linearGradient id="paint0_linear_501_48" x1="50.7702" y1="345.514" x2="346.637" y2="345.514" gradientUnits="userSpaceOnUse">
<stop stop-color="#D07839"/>
</linearGradient>
<linearGradient id="paint1_linear_501_48" x1="0.363309" y1="461.103" x2="270.792" y2="461.103" gradientUnits="userSpaceOnUse">
<stop stop-color="#D07839"/>
</linearGradient>
<linearGradient id="paint2_linear_501_48" x1="17.7817" y1="303.141" x2="251.927" y2="303.141" gradientUnits="userSpaceOnUse">
<stop stop-color="#D07839"/>
</linearGradient>
<linearGradient id="paint3_linear_501_48" x1="-259.698" y1="507.3" x2="-258.848" y2="510.085" gradientUnits="userSpaceOnUse">
<stop stop-color="#74401B"/>
</linearGradient>
<linearGradient id="paint4_linear_501_48" x1="-260.582" y1="501.197" x2="-258.212" y2="508.966" gradientUnits="userSpaceOnUse">
<stop stop-color="#74401B"/>
</linearGradient>
<linearGradient id="paint5_linear_501_48" x1="76.9276" y1="-335.063" x2="96.202" y2="-329.884" gradientUnits="userSpaceOnUse">
<stop stop-color="#D07839"/>
</linearGradient>
<linearGradient id="paint6_linear_501_48" x1="113.118" y1="-325.391" x2="132.396" y2="-320.211" gradientUnits="userSpaceOnUse">
<stop stop-color="#D07839"/>
</linearGradient>
<linearGradient id="paint7_linear_501_48" x1="93.8643" y1="-287.325" x2="140.053" y2="-274.915" gradientUnits="userSpaceOnUse">
<stop stop-color="#D07839"/>
</linearGradient>
<linearGradient id="paint8_linear_501_48" x1="47.6585" y1="-299.671" x2="93.847" y2="-287.261" gradientUnits="userSpaceOnUse">
<stop stop-color="#D07839"/>
</linearGradient>
<linearGradient id="paint9_linear_501_48" x1="-335.897" y1="534.678" x2="-334.204" y2="540.226" gradientUnits="userSpaceOnUse">
<stop stop-color="#74401B"/>
</linearGradient>
<linearGradient id="paint10_linear_501_48" x1="-189.75" y1="468.38" x2="-188.39" y2="472.839" gradientUnits="userSpaceOnUse">
<stop stop-color="#74401B"/>
</linearGradient>
<linearGradient id="paint11_linear_501_48" x1="-188.413" y1="474.084" x2="-187.053" y2="478.543" gradientUnits="userSpaceOnUse">
<stop stop-color="#74401B"/>
</linearGradient>
<linearGradient id="paint12_linear_501_48" x1="-189.044" y1="471.386" x2="-187.684" y2="475.845" gradientUnits="userSpaceOnUse">
<stop stop-color="#74401B"/>
</linearGradient>
<linearGradient id="paint13_linear_501_48" x1="-185.65" y1="485.88" x2="-184.29" y2="490.339" gradientUnits="userSpaceOnUse">
<stop stop-color="#74401B"/>
</linearGradient>
<linearGradient id="paint14_linear_501_48" x1="-184.315" y1="491.586" x2="-182.955" y2="496.044" gradientUnits="userSpaceOnUse">
<stop stop-color="#74401B"/>
</linearGradient>
<linearGradient id="paint15_linear_501_48" x1="-184.947" y1="488.887" x2="-183.587" y2="493.346" gradientUnits="userSpaceOnUse">
<stop stop-color="#74401B"/>
</linearGradient>
<linearGradient id="paint16_linear_501_48" x1="-241.819" y1="491.002" x2="-241.012" y2="493.645" gradientUnits="userSpaceOnUse">
<stop stop-color="#74401B"/>
</linearGradient>
<linearGradient id="paint17_linear_501_48" x1="-249.932" y1="495.115" x2="-249.126" y2="497.757" gradientUnits="userSpaceOnUse">
<stop stop-color="#74401B"/>
</linearGradient>
<linearGradient id="paint18_linear_501_48" x1="-244.522" y1="493.348" x2="-243.716" y2="495.991" gradientUnits="userSpaceOnUse">
<stop stop-color="#74401B"/>
</linearGradient>
<linearGradient id="paint19_linear_501_48" x1="-239.254" y1="502.949" x2="-238.43" y2="505.65" gradientUnits="userSpaceOnUse">
<stop stop-color="#74401B"/>
</linearGradient>
<linearGradient id="paint20_linear_501_48" x1="-248.886" y1="505.041" x2="-248.062" y2="507.742" gradientUnits="userSpaceOnUse">
<stop stop-color="#74401B"/>
</linearGradient>
<linearGradient id="paint21_linear_501_48" x1="-243.624" y1="503.077" x2="-242.8" y2="505.778" gradientUnits="userSpaceOnUse">
<stop stop-color="#74401B"/>
</linearGradient>
<clipPath id="clip0_501_48">
<rect width="926.622" height="600.085" fill="white"/>
</clipPath>
</defs>
</svg>
