<svg width="808" height="500" viewBox="0 0 808 500" fill="none" xmlns="http://www.w3.org/2000/svg">
<g clip-path="url(#clip0_907_257)">
<path d="M56.0348 463.158C59.7171 464.452 63.6707 464.776 67.5146 464.099C71.3586 463.422 74.9634 461.766 77.9818 459.292C85.6688 452.84 88.0818 442.211 90.0398 432.368L95.8398 403.256L83.6968 411.618C74.9638 417.631 66.0348 423.837 59.9878 432.547C53.9408 441.257 51.3018 453.147 56.1598 462.571" fill="#E6E6E6"/>
<path d="M57.0729 498.404C55.8439 489.451 54.5799 480.384 55.4419 471.335C56.2079 463.299 58.6589 455.45 63.6509 449.014C66.3004 445.604 69.5244 442.682 73.1779 440.381C74.1309 439.781 75.0069 441.29 74.0589 441.888C67.7376 445.883 62.8483 451.782 60.0959 458.735C57.0559 466.467 56.5679 474.896 57.0959 483.109C57.4129 488.076 58.0839 493.009 58.7609 497.939C58.8154 498.162 58.7826 498.397 58.6692 498.597C58.5558 498.796 58.3704 498.945 58.1509 499.013C57.9276 499.073 57.6896 499.043 57.4885 498.928C57.2874 498.814 57.1395 498.625 57.0769 498.403L57.0729 498.404Z" fill="#F2F2F2"/>
<path d="M708.054 11.8362L275.351 74.3435L305.012 279.669L737.715 217.161L708.054 11.8362Z" fill="#F1F1F1"/>
<path d="M698.225 31.2305L290.268 90.1631L315.015 261.472L722.972 202.54L698.225 31.2305Z" fill="white"/>
<path d="M706.156 2.94113e-05L273.453 62.5073L276.108 80.8899L708.811 18.3826L706.156 2.94113e-05Z" fill="#E5E5E5"/>
<path d="M288.675 74.7856C290.576 74.7856 292.117 73.2444 292.117 71.3431C292.117 69.4419 290.576 67.9006 288.675 67.9006C286.774 67.9006 285.232 69.4419 285.232 71.3431C285.232 73.2444 286.774 74.7856 288.675 74.7856Z" fill="white"/>
<path d="M301.607 72.9175C303.508 72.9175 305.05 71.3762 305.05 69.475C305.05 67.5737 303.508 66.0325 301.607 66.0325C299.706 66.0325 298.165 67.5737 298.165 69.475C298.165 71.3762 299.706 72.9175 301.607 72.9175Z" fill="white"/>
<path d="M314.54 71.0493C316.441 71.0493 317.983 69.508 317.983 67.6068C317.983 65.7056 316.441 64.1643 314.54 64.1643C312.639 64.1643 311.098 65.7056 311.098 67.6068C311.098 69.508 312.639 71.0493 314.54 71.0493Z" fill="white"/>
<path d="M807.453 100.183H370.258V307.64H807.453V100.183Z" fill="#E6E6E6"/>
<path d="M794.952 117.973H382.76V291.06H794.952V117.973Z" fill="white"/>
<path d="M807.266 88.197H370.071V106.77H807.266V88.197Z" fill="#CBCBCB"/>
<path d="M383.874 102.561C385.775 102.561 387.316 101.02 387.316 99.1185C387.316 97.2173 385.775 95.676 383.874 95.676C381.972 95.676 380.431 97.2173 380.431 99.1185C380.431 101.02 381.972 102.561 383.874 102.561Z" fill="white"/>
<path d="M396.941 102.561C398.842 102.561 400.383 101.02 400.383 99.1185C400.383 97.2173 398.842 95.676 396.941 95.676C395.039 95.676 393.498 97.2173 393.498 99.1185C393.498 101.02 395.039 102.561 396.941 102.561Z" fill="white"/>
<path d="M410.007 102.561C411.909 102.561 413.45 101.02 413.45 99.1185C413.45 97.2173 411.909 95.676 410.007 95.676C408.106 95.676 406.565 97.2173 406.565 99.1185C406.565 101.02 408.106 102.561 410.007 102.561Z" fill="white"/>
<path d="M678.329 144.289H620.277V148.652H678.329V144.289Z" fill="#E6E6E6"/>
<path d="M709.922 157.098H620.277V161.461H709.922V157.098Z" fill="#E6E6E6"/>
<path d="M694.268 169.297H621.209V173.66H694.268V169.297Z" fill="#E6E6E6"/>
<path d="M662.927 182.682H620.277V187.045H662.927V182.682Z" fill="#E6E6E6"/>
<path d="M684.648 195.757H620.277V200.12H684.648V195.757Z" fill="#E6E6E6"/>
<path d="M600.926 142.916H593.818V150.024H600.926V142.916Z" fill="#E6E6E6"/>
<path d="M600.926 155.725H593.818V162.834H600.926V155.725Z" fill="#E6E6E6"/>
<path d="M600.926 167.924H593.818V175.033H600.926V167.924Z" fill="#E6E6E6"/>
<path d="M600.926 181.31H593.818V188.418H600.926V181.31Z" fill="#E6E6E6"/>
<path d="M600.926 194.384H593.818V201.493H600.926V194.384Z" fill="#E6E6E6"/>
<path d="M678.329 208.913H620.277V213.276H678.329V208.913Z" fill="#E6E6E6"/>
<path d="M709.922 221.722H620.277V226.086H709.922V221.722Z" fill="#E6E6E6"/>
<path d="M694.268 233.921H621.209V238.285H694.268V233.921Z" fill="#E6E6E6"/>
<path d="M662.927 247.307H620.277V251.67H662.927V247.307Z" fill="#E6E6E6"/>
<path d="M684.648 260.381H620.277V264.745H684.648V260.381Z" fill="#E6E6E6"/>
<path d="M600.926 207.541H593.818V214.649H600.926V207.541Z" fill="#E6E6E6"/>
<path d="M600.926 220.35H593.818V227.458H600.926V220.35Z" fill="#E6E6E6"/>
<path d="M600.926 232.549H593.818V239.657H600.926V232.549Z" fill="#E6E6E6"/>
<path d="M600.926 245.934H593.818V253.043H600.926V245.934Z" fill="#E6E6E6"/>
<path d="M600.926 259.009H593.818V266.117H600.926V259.009Z" fill="#E6E6E6"/>
<path d="M494.682 243.139H436.63V247.502H494.682V243.139Z" fill="#E6E6E6"/>
<path d="M501.922 254.477H428.863V258.84H501.922V254.477Z" fill="#E6E6E6"/>
<path d="M503.387 188.098C503.385 194.656 501.682 201.101 498.444 206.804C495.207 212.507 490.545 217.273 484.915 220.636C479.286 223.999 472.88 225.845 466.324 225.993C459.767 226.141 453.285 224.586 447.509 221.48L447.502 221.472C441.602 218.294 436.65 213.609 433.151 207.894C429.652 202.178 427.731 195.638 427.583 188.938C427.434 182.238 429.065 175.619 432.308 169.755C435.551 163.891 440.291 158.991 446.044 155.555C451.798 152.119 458.359 150.27 465.06 150.195C471.761 150.121 478.362 151.825 484.19 155.132C490.018 158.44 494.865 163.233 498.238 169.024C501.61 174.815 503.387 181.397 503.387 188.098Z" fill="#E6E6E6"/>
<path d="M465.675 186.258C471.366 186.258 475.979 181.644 475.979 175.953C475.979 170.263 471.366 165.649 465.675 165.649C459.984 165.649 455.371 170.263 455.371 175.953C455.371 181.644 459.984 186.258 465.675 186.258Z" fill="white"/>
<path d="M483.27 207.549C471.751 211.592 459.19 211.543 447.702 207.411L447.695 207.406L455.371 192.252H475.98L483.27 207.549Z" fill="white"/>
<path fill-rule="evenodd" clip-rule="evenodd" d="M488.947 257.234L504.061 244.552C484.074 219.964 485.943 184.966 508.421 166.105C530.898 147.244 565.689 151.481 586.433 175.434L601.547 162.752C573.808 130.481 526.558 125.158 495.752 151.007C464.947 176.856 461.984 224.313 488.947 257.234Z" fill="#2FA4DA"/>
<path d="M614.66 434H475.34C463.054 433.986 451.275 429.116 442.588 420.458C433.9 411.8 429.014 400.061 429 387.817V251.619C429.009 243.236 432.355 235.199 438.303 229.272C444.25 223.344 452.314 220.01 460.725 220H629.275C637.686 220.01 645.75 223.344 651.697 229.272C657.645 235.199 660.991 243.236 661 251.619V387.817C660.986 400.061 656.1 411.8 647.412 420.458C638.725 429.116 626.946 433.986 614.66 434Z" fill="#3F3D56"/>
<path d="M572 297.225C572.004 292.389 570.728 287.64 568.304 283.466C565.88 279.292 562.396 275.844 558.21 273.478C554.024 271.112 549.288 269.913 544.489 270.005C539.69 270.096 535.003 271.475 530.908 273.999C526.814 276.523 523.462 280.101 521.197 284.364C518.931 288.628 517.835 293.422 518.02 298.255C518.205 303.087 519.666 307.782 522.251 311.857C524.836 315.931 528.452 319.238 532.727 321.436V364H557.273V321.436C561.704 319.161 565.425 315.695 568.024 311.423C570.623 307.15 571.999 302.237 572 297.225Z" fill="white"/>
<path d="M382 499.984H1C0.734784 499.984 0.480429 499.879 0.292892 499.691C0.105356 499.504 0 499.25 0 498.984C0 498.719 0.105356 498.465 0.292892 498.277C0.480429 498.09 0.734784 497.984 1 497.984H382C382.265 497.984 382.52 498.09 382.707 498.277C382.895 498.465 383 498.719 383 498.984C383 499.25 382.895 499.504 382.707 499.691C382.52 499.879 382.265 499.984 382 499.984Z" fill="#3F3D56"/>
<path d="M359.184 288.563C358.242 341.953 322.358 365.159 321.769 342.617C321.037 314.104 308.741 240.154 260.481 262.832C202.766 289.95 254.794 455.132 238.086 455.132C171.241 455.132 116.989 380.512 116.989 288.563C116.989 196.62 171.241 122 238.086 122C304.932 122 360.784 197.791 359.184 288.563V288.563Z" fill="url(#paint0_linear_907_257)" stroke="black" stroke-width="0.8" stroke-linecap="round" stroke-linejoin="round"/>
<path d="M326.48 174.301C341.981 202.32 349.674 237.453 350.366 274.34C351.01 308.417 341.717 340.599 324.487 349.718C332.532 352.29 358.242 341.946 359.177 288.556C359.957 244.683 347.302 204.31 326.48 174.301ZM268.12 244.365C263.165 244.459 257.695 245.786 251.663 248.616C193.947 275.734 245.983 440.916 229.275 440.916C194.849 440.916 163.764 421.122 141.708 389.36C163.839 429.313 198.78 455.132 238.086 455.132C254.794 455.132 202.759 289.95 260.474 262.832C278.369 254.431 291.322 259.305 300.574 270.217C293.674 255.352 283.303 244.08 268.12 244.365V244.365Z" fill="black" fill-opacity="0.31373"/>
<path d="M296.428 384.258C296.428 413.576 284.777 441.693 264.038 462.424C243.299 483.155 215.172 494.801 185.843 494.801C156.514 494.801 128.386 483.155 107.647 462.424C86.9087 441.693 75.2578 413.576 75.2578 384.258C75.2578 354.941 86.9087 326.824 107.647 306.093C128.386 285.362 156.514 273.716 185.843 273.716C215.172 273.716 243.299 285.362 264.038 306.093C284.777 326.824 296.428 354.941 296.428 384.258V384.258Z" fill="url(#paint1_linear_907_257)" stroke="black" stroke-width="0.799968" stroke-linecap="round" stroke-linejoin="round"/>
<path d="M185.848 273.731C174.081 273.731 162.755 275.586 152.113 278.991C161.684 276.757 171.776 275.552 182.208 275.552C210.825 275.552 236.921 284.542 256.557 299.292C237.388 283.33 212.73 273.731 185.848 273.731ZM290.576 348.682C292.027 354.585 292.799 360.678 292.799 366.933C292.799 417.379 243.251 458.314 182.208 458.314C131.162 458.314 88.1752 429.692 75.4595 390.815C78.8485 448.796 127 494.821 185.848 494.821C246.891 494.821 296.439 445.296 296.439 384.276C296.439 371.827 294.379 359.852 290.576 348.682Z" fill="black" fill-opacity="0.31373"/>
<path d="M185.848 273.731C166.991 273.731 149.226 278.449 133.684 286.782C141.045 312.486 162.552 336.253 187.956 336.253C212.682 336.253 233.755 313.738 241.652 288.827C225.269 279.234 206.196 273.731 185.848 273.731V273.731Z" fill="black" fill-opacity="0.31373"/>
<path fill-rule="evenodd" clip-rule="evenodd" d="M261.62 181.653C248.192 181.653 220.917 188.788 216.146 207.289C216.071 207.431 215.929 207.945 215.773 208.737C207.138 203.464 196.984 200.397 186.132 200.397C174.799 200.397 164.266 203.741 155.394 209.441C155.211 208.284 154.987 207.471 154.899 207.289C150.127 188.788 122.852 181.673 109.418 181.666C107.283 181.666 105.513 181.849 104.219 182.187C97.0138 183.189 89.124 186.066 89.7002 187.637C94.9871 186.736 97.6577 187.765 97.5763 188.618C97.4137 190.216 94.228 190.642 95.2515 196.403C97.1832 193.607 99.8741 192.646 101.989 192.199C104.158 205.799 113.647 229.54 131.406 230.772C132.931 230.88 134.354 230.873 135.696 230.846C131.508 238.78 129.128 247.817 129.128 257.41C129.128 288.867 154.661 325.321 186.132 325.321C217.596 325.321 243.163 288.867 243.163 257.41C243.163 247.824 240.777 238.807 236.588 230.88C237.558 230.873 238.581 230.846 239.639 230.772C257.336 229.547 266.825 205.941 269.035 192.328C271.055 192.822 273.468 193.838 275.237 196.403C276.261 190.642 273.075 190.216 272.912 188.618C272.831 187.765 275.501 186.736 280.788 187.637C281.337 186.148 274.295 183.487 267.422 182.357C266.114 181.896 264.107 181.653 261.62 181.653V181.653Z" fill="url(#paint2_linear_907_257)" stroke="black" stroke-width="0.8" stroke-linejoin="round"/>
<path d="M174.322 369.587C174.322 375.132 172.118 380.449 168.196 384.37C164.273 388.291 158.954 390.494 153.407 390.494C147.86 390.494 142.54 388.291 138.618 384.37C134.695 380.449 132.492 375.132 132.492 369.587C132.492 364.042 134.695 358.724 138.618 354.803C142.54 350.883 147.86 348.68 153.407 348.68C158.954 348.68 164.273 350.883 168.196 354.803C172.118 358.724 174.322 364.042 174.322 369.587V369.587Z" fill="black" fill-opacity="0.31373"/>
<path d="M252.783 369.912C252.783 375.457 250.579 380.775 246.657 384.695C242.735 388.616 237.415 390.819 231.868 390.819C226.321 390.819 221.001 388.616 217.079 384.695C213.157 380.775 210.953 375.457 210.953 369.912C210.953 364.367 213.157 359.049 217.079 355.129C221.001 351.208 226.321 349.005 231.868 349.005C237.415 349.005 242.735 351.208 246.657 355.129C250.579 359.049 252.783 364.367 252.783 369.912V369.912Z" fill="black" fill-opacity="0.31373"/>
<path d="M239.435 431.818C211.76 431.818 189.291 454.279 189.291 481.939C189.291 487.659 190.254 493.142 192.023 498.26H286.821C288.59 493.142 289.553 487.659 289.553 481.939C289.553 454.279 267.11 431.818 239.435 431.818V431.818Z" fill="url(#paint3_linear_907_257)" stroke="black" stroke-width="0.8" stroke-linecap="round" stroke-linejoin="round"/>
<path d="M139.146 431.818C111.471 431.818 89.0288 454.279 89.0288 481.939C89.0288 487.659 89.9913 493.142 91.7604 498.26H186.559C188.328 493.142 189.29 487.659 189.29 481.939C189.29 454.279 166.821 431.818 139.146 431.818Z" fill="url(#paint4_linear_907_257)" stroke="black" stroke-width="0.8" stroke-linecap="round" stroke-linejoin="round"/>
<path d="M184.144 252.842C184.145 255.287 183.664 257.71 182.729 259.97C181.793 262.23 180.421 264.283 178.691 266.013C176.962 267.743 174.908 269.115 172.648 270.051C170.387 270.988 167.964 271.47 165.517 271.47C163.071 271.47 160.648 270.988 158.387 270.051C156.127 269.115 154.073 267.743 152.344 266.013C150.614 264.283 149.242 262.23 148.306 259.97C147.371 257.71 146.89 255.287 146.891 252.842C146.89 250.396 147.371 247.974 148.306 245.714C149.242 243.454 150.614 241.4 152.344 239.67C154.073 237.94 156.127 236.568 158.387 235.632C160.648 234.696 163.071 234.214 165.517 234.214C167.964 234.214 170.387 234.696 172.648 235.632C174.908 236.568 176.962 237.94 178.691 239.67C180.421 241.4 181.793 243.454 182.729 245.714C183.664 247.974 184.145 250.396 184.144 252.842V252.842Z" fill="white" stroke="black" stroke-width="0.800004" stroke-linecap="round" stroke-linejoin="round"/>
<path d="M225.395 252.842C225.396 255.287 224.915 257.71 223.98 259.97C223.044 262.23 221.672 264.283 219.942 266.013C218.213 267.743 216.159 269.115 213.899 270.051C211.638 270.988 209.215 271.47 206.768 271.47C204.322 271.47 201.899 270.988 199.638 270.051C197.378 269.115 195.324 267.743 193.595 266.013C191.865 264.283 190.493 262.23 189.557 259.97C188.622 257.71 188.141 255.287 188.142 252.842C188.141 250.396 188.622 247.974 189.557 245.714C190.493 243.454 191.865 241.4 193.595 239.67C195.324 237.94 197.378 236.568 199.638 235.632C201.899 234.696 204.322 234.214 206.768 234.214C209.215 234.214 211.638 234.696 213.899 235.632C216.159 236.568 218.213 237.94 219.942 239.67C221.672 241.4 223.044 243.454 223.98 245.714C224.915 247.974 225.396 250.396 225.395 252.842Z" fill="white" stroke="black" stroke-width="0.800004" stroke-linecap="round" stroke-linejoin="round"/>
<path d="M178.374 255.104C178.374 255.894 178.219 256.677 177.917 257.407C177.615 258.137 177.172 258.8 176.613 259.359C176.055 259.918 175.391 260.362 174.661 260.664C173.931 260.967 173.148 261.123 172.358 261.123C171.567 261.123 170.784 260.967 170.054 260.664C169.324 260.362 168.66 259.918 168.102 259.359C167.543 258.8 167.1 258.137 166.798 257.407C166.496 256.677 166.341 255.894 166.341 255.104C166.341 254.314 166.496 253.531 166.798 252.801C167.1 252.071 167.543 251.407 168.102 250.848C168.66 250.289 169.324 249.846 170.054 249.543C170.784 249.241 171.567 249.085 172.358 249.085C173.148 249.085 173.931 249.241 174.661 249.543C175.391 249.846 176.055 250.289 176.613 250.848C177.172 251.407 177.615 252.071 177.917 252.801C178.219 253.531 178.374 254.314 178.374 255.104V255.104Z" fill="black"/>
<path d="M205.892 255.104C205.893 255.894 205.738 256.677 205.436 257.407C205.134 258.137 204.691 258.8 204.132 259.359C203.573 259.918 202.91 260.362 202.18 260.664C201.449 260.967 200.667 261.123 199.876 261.123C199.086 261.123 198.303 260.967 197.573 260.664C196.842 260.362 196.179 259.918 195.62 259.359C195.061 258.8 194.618 258.137 194.316 257.407C194.014 256.677 193.859 255.894 193.86 255.104C193.859 254.314 194.014 253.531 194.316 252.801C194.618 252.071 195.061 251.407 195.62 250.848C196.179 250.289 196.842 249.846 197.573 249.543C198.303 249.241 199.086 249.085 199.876 249.085C200.667 249.085 201.449 249.241 202.18 249.543C202.91 249.846 203.573 250.289 204.132 250.848C204.691 251.407 205.134 252.071 205.436 252.801C205.738 253.531 205.893 254.314 205.892 255.104Z" fill="black"/>
<path fill-rule="evenodd" clip-rule="evenodd" d="M176.514 288.563C179.551 285.32 192.45 284.616 195.147 288.962C197.845 293.315 191.101 302.332 185.827 301.926C180.581 301.519 173.667 291.589 176.514 288.563Z" fill="black"/>
<path fill-rule="evenodd" clip-rule="evenodd" d="M142.59 222.466C140.59 193.547 110.794 186.96 109.357 190.392C107.926 193.831 114.799 232.491 142.59 222.466Z" fill="#74401B" stroke="black" stroke-width="0.8" stroke-linejoin="round"/>
<path fill-rule="evenodd" clip-rule="evenodd" d="M227.506 222.466C229.505 193.547 259.302 186.96 260.739 190.392C262.169 193.831 255.289 232.491 227.506 222.466Z" fill="url(#paint5_linear_907_257)" stroke="black" stroke-width="0.8" stroke-linejoin="round"/>
<path d="M134.705 483.794C134.705 488.017 133.291 492.066 130.773 495.052C128.255 498.038 124.841 499.716 121.28 499.716C117.72 499.716 114.305 498.038 111.787 495.052C109.269 492.066 107.855 488.017 107.855 483.794C107.855 479.571 109.269 475.521 111.787 472.535C114.305 469.55 117.72 467.872 121.28 467.872C124.841 467.872 128.255 469.55 130.773 472.535C133.291 475.521 134.705 479.571 134.705 483.794V483.794Z" fill="url(#paint6_linear_907_257)" stroke="black" stroke-width="0.734432" stroke-linecap="round" stroke-linejoin="round"/>
<path d="M168.379 483.794C168.379 488.017 166.964 492.066 164.447 495.052C161.929 498.038 158.514 499.716 154.954 499.716C151.393 499.716 147.979 498.038 145.461 495.052C142.943 492.066 141.529 488.017 141.529 483.794C141.529 479.571 142.943 475.521 145.461 472.535C147.979 469.55 151.393 467.872 154.954 467.872C158.514 467.872 161.929 469.55 164.447 472.535C166.964 475.521 168.379 479.571 168.379 483.794V483.794Z" fill="url(#paint7_linear_907_257)" stroke="black" stroke-width="0.734432" stroke-linecap="round" stroke-linejoin="round"/>
<path d="M152.45 483.794C152.45 488.017 151.036 492.066 148.518 495.052C146 498.038 142.586 499.716 139.025 499.716C135.465 499.716 132.05 498.038 129.532 495.052C127.015 492.066 125.6 488.017 125.6 483.794C125.6 479.571 127.015 475.521 129.532 472.535C132.05 469.55 135.465 467.872 139.025 467.872C142.586 467.872 146 469.55 148.518 472.535C151.036 475.521 152.45 479.571 152.45 483.794V483.794Z" fill="url(#paint8_linear_907_257)" stroke="black" stroke-width="0.734432" stroke-linecap="round" stroke-linejoin="round"/>
<path d="M238.009 483.794C238.009 488.017 236.595 492.066 234.077 495.052C231.559 498.038 228.145 499.716 224.584 499.716C221.024 499.716 217.609 498.038 215.091 495.052C212.574 492.066 211.159 488.017 211.159 483.794C211.159 479.571 212.574 475.521 215.091 472.535C217.609 469.55 221.024 467.872 224.584 467.872C228.145 467.872 231.559 469.55 234.077 472.535C236.595 475.521 238.009 479.571 238.009 483.794V483.794Z" fill="url(#paint9_linear_907_257)" stroke="black" stroke-width="0.734432" stroke-linecap="round" stroke-linejoin="round"/>
<path d="M271.687 483.794C271.687 488.017 270.272 492.066 267.754 495.052C265.237 498.038 261.822 499.716 258.261 499.716C254.701 499.716 251.286 498.038 248.769 495.052C246.251 492.066 244.836 488.017 244.836 483.794C244.836 479.571 246.251 475.521 248.769 472.535C251.286 469.55 254.701 467.872 258.261 467.872C261.822 467.872 265.237 469.55 267.754 472.535C270.272 475.521 271.687 479.571 271.687 483.794V483.794Z" fill="url(#paint10_linear_907_257)" stroke="black" stroke-width="0.734432" stroke-linecap="round" stroke-linejoin="round"/>
<path d="M255.758 483.794C255.758 488.017 254.343 492.066 251.826 495.052C249.308 498.038 245.893 499.716 242.333 499.716C238.772 499.716 235.358 498.038 232.84 495.052C230.322 492.066 228.908 488.017 228.908 483.794C228.908 479.571 230.322 475.521 232.84 472.535C235.358 469.55 238.772 467.872 242.333 467.872C245.893 467.872 249.308 469.55 251.826 472.535C254.343 475.521 255.758 479.571 255.758 483.794V483.794Z" fill="url(#paint11_linear_907_257)" stroke="black" stroke-width="0.734432" stroke-linecap="round" stroke-linejoin="round"/>
<path d="M238.669 235.348C239.706 239.64 240.262 244.135 240.262 248.738C240.262 280.196 214.702 316.636 183.231 316.636C160.294 316.636 140.536 297.268 131.494 274.584C138.495 300.775 160.307 325.334 186.132 325.334C217.603 325.334 243.163 288.867 243.163 257.41C243.163 249.584 241.563 242.138 238.696 235.348H238.669Z" fill="black" fill-opacity="0.31373"/>
<path fill-rule="evenodd" clip-rule="evenodd" d="M188.821 316.344C161.627 316.344 139.583 338.298 139.583 365.38C139.583 392.462 161.627 414.417 188.821 414.417C216.014 414.417 238.058 392.462 238.058 365.38C238.058 352.836 232.333 343.713 232.333 343.713L291.876 284.414C294.548 281.753 298.288 274.835 291.876 268.448L285.006 261.606C282.334 259.325 275.616 256.132 270.12 261.606L262.105 269.588C254.089 261.606 244.929 266.167 241.494 270.729C235.768 278.712 242.639 286.694 242.639 286.694L240.349 288.975C229.356 278.028 219.738 284.414 216.302 288.975C210.577 296.957 216.302 304.94 216.302 304.94C216.975 306.28 217.846 307.227 218.594 308.04L218.599 308.045L218.599 308.045C220.396 309.996 221.487 311.18 217.448 315.203L210.577 322.046C205.081 317.485 193.783 316.344 188.821 316.344ZM188.819 348.274C179.333 348.274 171.644 355.932 171.644 365.38C171.644 374.827 179.333 382.485 188.819 382.485C198.305 382.485 205.995 374.827 205.995 365.38C205.995 355.932 198.305 348.274 188.819 348.274Z" fill="#3F3D56"/>
<path d="M243.277 380.105C239.351 384.026 234.028 386.23 228.479 386.232C222.929 386.234 217.608 384.035 213.686 380.118C209.764 376.2 207.562 370.886 207.564 365.344C207.566 359.801 209.773 354.485 213.699 350.564C217.625 346.644 222.948 344.44 228.497 344.437C234.047 344.435 239.368 346.634 243.29 350.551C247.212 354.469 249.414 359.783 249.412 365.325C249.41 370.868 247.203 376.184 243.277 380.105Z" fill="url(#paint12_linear_907_257)" stroke="black" stroke-width="0.799998" stroke-linecap="round" stroke-linejoin="round"/>
<path d="M221.389 369.035C220.349 369.314 219.368 369.769 218.501 370.376C217.634 370.982 216.898 371.728 216.336 372.57C215.773 373.412 215.395 374.334 215.223 375.283C215.051 376.233 215.088 377.191 215.332 378.103C215.577 379.015 216.023 379.863 216.647 380.6C217.271 381.336 218.059 381.945 218.967 382.393C219.875 382.841 220.885 383.119 221.939 383.21C222.993 383.302 224.07 383.206 225.11 382.927C226.15 382.648 227.131 382.193 227.998 381.586C228.865 380.98 229.601 380.234 230.163 379.392C230.726 378.55 231.104 377.628 231.276 376.679C231.448 375.729 231.411 374.771 231.166 373.859C230.922 372.947 230.475 372.099 229.852 371.363C229.228 370.626 228.44 370.017 227.532 369.569C226.624 369.121 225.614 368.843 224.56 368.752C223.506 368.66 222.428 368.757 221.389 369.035V369.035Z" fill="url(#paint13_linear_907_257)" stroke="black" stroke-width="0.734456" stroke-linecap="round" stroke-linejoin="round"/>
<path d="M216.725 351.611C215.685 351.89 214.704 352.345 213.837 352.952C212.97 353.558 212.234 354.304 211.672 355.146C211.11 355.988 210.732 356.91 210.559 357.859C210.387 358.808 210.424 359.767 210.669 360.679C210.913 361.591 211.36 362.439 211.984 363.175C212.607 363.911 213.395 364.521 214.303 364.969C215.211 365.417 216.221 365.694 217.275 365.786C218.329 365.878 219.407 365.781 220.446 365.503C222.546 364.94 224.364 363.668 225.5 361.968C226.635 360.267 226.996 358.277 226.503 356.435C226.009 354.593 224.702 353.049 222.868 352.145C221.035 351.24 218.825 351.048 216.725 351.611V351.611Z" fill="url(#paint14_linear_907_257)" stroke="black" stroke-width="0.734456" stroke-linecap="round" stroke-linejoin="round"/>
<path d="M214.746 361.46C212.646 362.023 210.829 363.295 209.693 364.995C208.557 366.696 208.196 368.686 208.69 370.528C209.183 372.37 210.491 373.913 212.324 374.818C214.158 375.723 216.368 375.915 218.467 375.352C220.567 374.789 222.385 373.518 223.521 371.817C224.656 370.117 225.017 368.126 224.524 366.284C224.279 365.372 223.833 364.524 223.209 363.788C222.586 363.052 221.797 362.442 220.889 361.994C219.056 361.09 216.846 360.897 214.746 361.46V361.46Z" fill="url(#paint15_linear_907_257)" stroke="black" stroke-width="0.734456" stroke-linecap="round" stroke-linejoin="round"/>
<path d="M168.066 354.891C169.441 357.269 170.334 359.893 170.693 362.615C171.053 365.336 170.872 368.102 170.162 370.753C169.452 373.404 168.227 375.889 166.555 378.066C164.884 380.243 162.799 382.069 160.42 383.441C158.042 384.813 155.416 385.702 152.692 386.06C149.969 386.417 147.201 386.235 144.547 385.523C141.893 384.812 139.405 383.585 137.225 381.913C135.045 380.241 133.215 378.157 131.841 375.779C130.466 373.402 129.574 370.777 129.214 368.056C128.855 365.334 129.035 362.569 129.745 359.918C130.455 357.267 131.681 354.782 133.352 352.605C135.024 350.428 137.108 348.601 139.487 347.23C141.866 345.858 144.492 344.968 147.215 344.611C149.939 344.254 152.706 344.436 155.36 345.148C158.014 345.859 160.502 347.086 162.682 348.758C164.862 350.429 166.692 352.514 168.066 354.891Z" fill="url(#paint16_linear_907_257)" stroke="black" stroke-width="0.800002" stroke-linecap="round" stroke-linejoin="round"/>
<path d="M156.539 370.344C157.471 370.882 158.3 371.576 158.981 372.386C159.661 373.196 160.178 374.106 160.503 375.065C160.828 376.024 160.955 377.012 160.875 377.973C160.795 378.935 160.511 379.851 160.039 380.669C159.566 381.487 158.915 382.191 158.122 382.74C157.329 383.29 156.409 383.675 155.416 383.873C154.423 384.071 153.376 384.078 152.334 383.894C151.292 383.71 150.276 383.339 149.344 382.801C148.412 382.263 147.582 381.569 146.902 380.759C146.221 379.949 145.704 379.039 145.379 378.08C145.054 377.122 144.928 376.133 145.008 375.172C145.087 374.21 145.372 373.294 145.844 372.477C146.316 371.659 146.968 370.955 147.761 370.405C148.554 369.855 149.473 369.47 150.466 369.272C151.459 369.074 152.507 369.067 153.549 369.251C154.591 369.435 155.607 369.806 156.539 370.344V370.344Z" fill="url(#paint17_linear_907_257)" stroke="black" stroke-width="0.734456" stroke-linecap="round" stroke-linejoin="round"/>
<path d="M165.561 354.721C167.443 355.807 168.869 357.505 169.526 359.441C170.182 361.377 170.015 363.393 169.061 365.045C168.107 366.697 166.444 367.849 164.438 368.249C162.433 368.649 160.248 368.263 158.366 367.177C156.484 366.091 155.057 364.393 154.401 362.456C153.745 360.52 153.912 358.505 154.866 356.853C155.82 355.201 157.483 354.048 159.488 353.648C161.494 353.249 163.678 353.634 165.561 354.721V354.721Z" fill="url(#paint18_linear_907_257)" stroke="black" stroke-width="0.734456" stroke-linecap="round" stroke-linejoin="round"/>
<path d="M164.923 364.746C166.805 365.833 168.231 367.531 168.888 369.467C169.544 371.403 169.377 373.419 168.423 375.071C167.469 376.722 165.806 377.875 163.8 378.275C161.795 378.675 159.611 378.289 157.728 377.203C155.846 376.116 154.42 374.418 153.763 372.482C153.107 370.546 153.274 368.53 154.228 366.878C155.182 365.227 156.845 364.074 158.851 363.674C160.856 363.274 163.041 363.66 164.923 364.746V364.746Z" fill="url(#paint19_linear_907_257)" stroke="black" stroke-width="0.734456" stroke-linecap="round" stroke-linejoin="round"/>
</g>
<defs>
<linearGradient id="paint0_linear_907_257" x1="115.633" y1="288.566" x2="360.573" y2="288.566" gradientUnits="userSpaceOnUse">
<stop stop-color="#D07839"/>
</linearGradient>
<linearGradient id="paint1_linear_907_257" x1="73.9028" y1="384.258" x2="297.783" y2="384.258" gradientUnits="userSpaceOnUse">
<stop stop-color="#D07839"/>
</linearGradient>
<linearGradient id="paint2_linear_907_257" x1="88.3229" y1="253.487" x2="282.165" y2="253.487" gradientUnits="userSpaceOnUse">
<stop stop-color="#D07839"/>
</linearGradient>
<linearGradient id="paint3_linear_907_257" x1="151.31" y1="-235.343" x2="189.548" y2="-225.069" gradientUnits="userSpaceOnUse">
<stop stop-color="#D07839"/>
</linearGradient>
<linearGradient id="paint4_linear_907_257" x1="113.057" y1="-245.564" x2="151.295" y2="-235.29" gradientUnits="userSpaceOnUse">
<stop stop-color="#D07839"/>
</linearGradient>
<linearGradient id="paint5_linear_907_257" x1="-204.477" y1="445.17" x2="-203.076" y2="449.763" gradientUnits="userSpaceOnUse">
<stop stop-color="#74401B"/>
</linearGradient>
<linearGradient id="paint6_linear_907_257" x1="-83.4862" y1="390.283" x2="-82.3602" y2="393.974" gradientUnits="userSpaceOnUse">
<stop stop-color="#74401B"/>
</linearGradient>
<linearGradient id="paint7_linear_907_257" x1="-82.379" y1="395.006" x2="-81.253" y2="398.697" gradientUnits="userSpaceOnUse">
<stop stop-color="#74401B"/>
</linearGradient>
<linearGradient id="paint8_linear_907_257" x1="-82.9023" y1="392.772" x2="-81.7764" y2="396.463" gradientUnits="userSpaceOnUse">
<stop stop-color="#74401B"/>
</linearGradient>
<linearGradient id="paint9_linear_907_257" x1="-80.0923" y1="404.771" x2="-78.9663" y2="408.462" gradientUnits="userSpaceOnUse">
<stop stop-color="#74401B"/>
</linearGradient>
<linearGradient id="paint10_linear_907_257" x1="-78.987" y1="409.494" x2="-77.8611" y2="413.186" gradientUnits="userSpaceOnUse">
<stop stop-color="#74401B"/>
</linearGradient>
<linearGradient id="paint11_linear_907_257" x1="-79.5103" y1="407.26" x2="-78.3843" y2="410.952" gradientUnits="userSpaceOnUse">
<stop stop-color="#74401B"/>
</linearGradient>
<linearGradient id="paint12_linear_907_257" x1="167.249" y1="-266.857" x2="183.209" y2="-262.569" gradientUnits="userSpaceOnUse">
<stop stop-color="#D07839"/>
</linearGradient>
<linearGradient id="paint13_linear_907_257" x1="-124.469" y1="418.902" x2="-123.787" y2="421.138" gradientUnits="userSpaceOnUse">
<stop stop-color="#74401B"/>
</linearGradient>
<linearGradient id="paint14_linear_907_257" x1="-132.443" y1="420.634" x2="-131.761" y2="422.87" gradientUnits="userSpaceOnUse">
<stop stop-color="#74401B"/>
</linearGradient>
<linearGradient id="paint15_linear_907_257" x1="-128.087" y1="419.007" x2="-127.405" y2="421.244" gradientUnits="userSpaceOnUse">
<stop stop-color="#74401B"/>
</linearGradient>
<linearGradient id="paint16_linear_907_257" x1="137.289" y1="-274.864" x2="153.245" y2="-270.577" gradientUnits="userSpaceOnUse">
<stop stop-color="#D07839"/>
</linearGradient>
<linearGradient id="paint17_linear_907_257" x1="-126.592" y1="409.011" x2="-125.924" y2="411.199" gradientUnits="userSpaceOnUse">
<stop stop-color="#74401B"/>
</linearGradient>
<linearGradient id="paint18_linear_907_257" x1="-133.309" y1="412.416" x2="-132.641" y2="414.603" gradientUnits="userSpaceOnUse">
<stop stop-color="#74401B"/>
</linearGradient>
<linearGradient id="paint19_linear_907_257" x1="-128.83" y1="410.954" x2="-128.163" y2="413.141" gradientUnits="userSpaceOnUse">
<stop stop-color="#74401B"/>
</linearGradient>
<clipPath id="clip0_907_257">
<rect width="807.453" height="499.984" fill="white"/>
</clipPath>
</defs>
</svg>
