<svg width="386" height="204" viewBox="0 0 386 204" fill="none" xmlns="http://www.w3.org/2000/svg">
<path d="M221.95 51.2902C222.1 53.4602 222.1 55.6302 222.1 57.8202C222.1 124.55 171.3 201.51 78.41 201.51V201.47C50.97 201.51 24.1 193.65 1 178.83C4.99 179.31 9 179.55 13.02 179.56C35.76 179.58 57.85 171.95 75.74 157.9C54.13 157.49 35.18 143.4 28.56 122.83C36.13 124.29 43.93 123.99 51.36 121.96C27.8 117.2 10.85 96.5002 10.85 72.4602V71.8202C17.87 75.7302 25.73 77.9002 33.77 78.1402C11.58 63.3102 4.74 33.7902 18.14 10.7102C43.78 42.2602 81.61 61.4402 122.22 63.4702C118.15 45.9302 123.71 27.5502 136.83 15.2202C157.17 -3.89982 189.16 -2.91982 208.28 17.4102C219.59 15.1802 230.43 11.0302 240.35 5.15018C236.58 16.8402 228.69 26.7702 218.15 33.0802C228.16 31.9002 237.94 29.2202 247.15 25.1302C240.37 35.2902 231.83 44.1402 221.95 51.2902Z" fill="#1D9BF0"/>
<path d="M377.757 91.6801C377.266 119.465 358.593 131.541 358.286 119.81C357.905 104.972 351.506 66.4881 326.391 78.2897C296.356 92.4023 323.432 178.364 314.737 178.364C279.95 178.364 251.717 139.531 251.717 91.6801C251.717 43.8325 279.95 5 314.737 5C349.524 5 378.589 44.442 377.757 91.6801V91.6801Z" fill="url(#paint0_linear_315_656)" stroke="black" stroke-width="0.8" stroke-linecap="round" stroke-linejoin="round"/>
<path d="M360.737 32.2178C368.804 46.7989 372.808 65.0826 373.168 84.2787C373.503 102.013 368.667 118.76 359.7 123.506C363.887 124.844 377.266 119.462 377.753 91.6767C378.159 68.845 371.573 47.8346 360.737 32.2178ZM330.367 68.6794C327.788 68.7287 324.942 69.4192 321.802 70.8918C291.767 85.0044 318.846 170.966 310.151 170.966C292.236 170.966 276.059 160.665 264.581 144.136C276.098 164.928 294.282 178.364 314.737 178.364C323.432 178.364 296.352 92.4024 326.388 78.2898C335.7 73.9179 342.441 76.4544 347.256 82.1332C343.665 74.397 338.268 68.5315 330.367 68.6794V68.6794Z" fill="black" fill-opacity="0.31373"/>
<path d="M345.098 141.481C345.098 156.738 339.035 171.37 328.242 182.158C317.45 192.947 302.812 199.008 287.549 199.008C272.286 199.008 257.648 192.947 246.856 182.158C236.063 171.37 230 156.738 230 141.481C230 126.223 236.063 111.591 246.856 100.803C257.648 90.0145 272.286 83.9536 287.549 83.9536C302.812 83.9536 317.45 90.0145 328.242 100.803C339.035 111.591 345.098 126.223 345.098 141.481V141.481Z" fill="url(#paint1_linear_315_656)" stroke="black" stroke-width="0.799968" stroke-linecap="round" stroke-linejoin="round"/>
<path d="M287.551 83.9614C281.428 83.9614 275.534 84.9267 269.996 86.6987C274.976 85.5361 280.229 84.9091 285.657 84.9091C300.55 84.9091 314.13 89.5874 324.349 97.2638C314.373 88.9568 301.541 83.9614 287.551 83.9614ZM342.053 122.967C342.807 126.039 343.21 129.209 343.21 132.464C343.21 158.717 317.425 180.019 285.657 180.019C259.093 180.019 236.722 165.125 230.105 144.893C231.868 175.066 256.927 199.018 287.551 199.018C319.319 199.018 345.104 173.245 345.104 141.49C345.104 135.011 344.031 128.779 342.053 122.967Z" fill="black" fill-opacity="0.31373"/>
<path d="M287.552 83.9614C277.738 83.9614 268.493 86.4169 260.405 90.7535C264.236 104.13 275.428 116.499 288.649 116.499C301.516 116.499 312.483 104.782 316.592 91.8174C308.067 86.8255 298.141 83.9614 287.552 83.9614V83.9614Z" fill="black" fill-opacity="0.31373"/>
<path fill-rule="evenodd" clip-rule="evenodd" d="M326.984 36.0435C319.996 36.0435 305.802 39.7566 303.319 49.3845C303.28 49.4585 303.206 49.7263 303.125 50.1384C298.631 47.3941 293.347 45.7983 287.7 45.7983C281.802 45.7983 276.32 47.5386 271.703 50.5048C271.608 49.9024 271.492 49.4797 271.446 49.3845C268.962 39.7566 254.768 36.054 247.777 36.0505C246.666 36.0505 245.745 36.1456 245.072 36.3218C241.322 36.8431 237.216 38.3404 237.516 39.1577C240.267 38.6891 241.657 39.2246 241.615 39.6685C241.53 40.4999 239.872 40.7218 240.405 43.7198C241.41 42.2648 242.811 41.7646 243.911 41.5321C245.04 48.6095 249.978 60.9642 259.22 61.6054C260.013 61.6617 260.754 61.6582 261.453 61.6441C259.273 65.7729 258.035 70.4759 258.035 75.4678C258.035 91.8386 271.322 110.809 287.7 110.809C304.074 110.809 317.379 91.8386 317.379 75.4678C317.379 70.4795 316.137 65.787 313.957 61.6617C314.462 61.6582 314.994 61.6441 315.545 61.6054C324.755 60.9677 329.693 48.6835 330.843 41.599C331.894 41.8562 333.15 42.3846 334.07 43.7198C334.603 40.7218 332.945 40.4999 332.861 39.6685C332.818 39.2246 334.208 38.6891 336.959 39.1577C337.245 38.3826 333.58 36.9982 330.003 36.4098C329.323 36.1703 328.279 36.0435 326.984 36.0435V36.0435Z" fill="url(#paint2_linear_315_656)" stroke="black" stroke-width="0.8" stroke-linejoin="round"/>
<path d="M299.012 123.893C294.095 118.979 285.343 118.729 280.137 123.347C276.472 126.556 275.012 131.485 274.532 136.153C274.193 139.517 274.394 143.128 276.123 146.126C277.858 148.352 280.881 148.821 283.534 148.955C288.821 149.191 294.409 147.916 298.634 144.572C303.728 140.208 304.917 132.08 301.178 126.511C300.567 125.559 299.83 124.682 299.012 123.893V123.893Z" fill="black" fill-opacity="0.31373"/>
<path d="M281.553 133.846C281.553 136.731 280.406 139.499 278.365 141.539C276.324 143.58 273.555 144.726 270.669 144.726C267.782 144.726 265.014 143.58 262.972 141.539C260.931 139.499 259.784 136.731 259.784 133.846C259.784 130.96 260.931 128.193 262.972 126.153C265.014 124.112 267.782 122.966 270.669 122.966C273.555 122.966 276.324 124.112 278.365 126.153C280.406 128.193 281.553 130.96 281.553 133.846V133.846Z" fill="black" fill-opacity="0.31373"/>
<path d="M297.248 120.371C292.331 115.456 283.58 115.206 278.373 119.825C274.708 123.034 273.248 127.962 272.768 132.63C272.43 135.995 272.631 139.606 274.359 142.603C276.095 144.83 279.118 145.298 281.77 145.432C287.058 145.668 292.645 144.393 296.871 141.05C301.964 136.685 303.153 128.558 299.414 122.988C298.804 122.037 298.067 121.16 297.248 120.371V120.371Z" fill="#DC9A6A" stroke="black" stroke-width="0.8" stroke-linecap="round" stroke-linejoin="round"/>
<path d="M286.158 116.576C287.206 116.827 288.222 117.21 289.171 117.746C290.091 118.243 290.962 118.838 291.742 119.532C296.444 123.548 297.414 131.052 293.982 136.181C291.058 140.194 286.412 142.705 281.661 143.805C279.735 144.238 277.541 144.537 275.664 143.826C277.4 145.016 279.696 145.33 281.767 145.432C287.054 145.668 292.641 144.393 296.871 141.05C301.964 136.685 303.153 128.558 299.414 122.988C298.804 122.033 298.067 121.16 297.248 120.367C294.373 117.492 290.183 116.217 286.158 116.576V116.576Z" fill="black" fill-opacity="0.31373"/>
<path fill-rule="evenodd" clip-rule="evenodd" d="M297.379 119.134C298.349 116.125 303.241 113.346 304.691 114.392C306.141 115.442 306.254 117.936 305.996 118.306C305.742 118.672 303.125 117.541 301.474 118.905C299.827 120.264 298.998 121.427 298.998 121.427L297.379 119.134Z" fill="url(#paint3_linear_315_656)" stroke="black" stroke-width="0.8"/>
<path fill-rule="evenodd" clip-rule="evenodd" d="M305.689 115.699C305.721 116.027 305.675 116.298 305.587 116.404C305.337 116.703 302.829 116.411 301.22 117.654C299.615 118.898 298.804 119.849 298.804 119.849L297.52 118.771C297.471 118.894 297.418 119.014 297.379 119.134L298.998 121.431C298.998 121.431 299.827 120.265 301.474 118.901C303.125 117.542 305.742 118.673 305.996 118.303C306.173 118.052 306.173 116.798 305.689 115.699V115.699Z" fill="black" fill-opacity="0.31373"/>
<path d="M298.508 119.151C293.679 114.374 285.675 113.141 280.046 116.724C278.772 117.425 279.157 119.183 279.171 119.154C281.298 117.474 283.502 119.324 286.398 121.399C289.943 123.939 293.841 127.835 296.702 131.622C298.705 134.271 300.137 136.874 298.991 138.696C299.051 138.713 300.716 139.182 301.478 137.632C305.316 130.407 303.146 123.466 298.508 119.151V119.151Z" fill="url(#paint4_linear_315_656)" stroke="black" stroke-width="0.8" stroke-linecap="round" stroke-linejoin="round"/>
<path d="M298.126 118.62C299.657 122.586 299.456 126.338 297.513 129.96C297.072 130.784 296.395 130.516 295.827 130.506C296.126 130.876 296.419 131.253 296.701 131.623C298.701 134.275 300.137 136.879 298.991 138.696C299.051 138.714 300.716 139.186 301.477 137.636C304.991 131.013 303.449 123.809 298.126 118.62V118.62Z" fill="black" fill-opacity="0.31373"/>
<path d="M278.298 126.198C279.013 127.435 279.478 128.801 279.665 130.217C279.852 131.633 279.758 133.073 279.389 134.452C279.019 135.832 278.381 137.125 277.512 138.258C276.642 139.391 275.557 140.341 274.319 141.055C273.081 141.769 271.715 142.232 270.297 142.418C268.88 142.604 267.439 142.509 266.058 142.139C264.677 141.768 263.383 141.13 262.248 140.26C261.113 139.39 260.161 138.305 259.446 137.068C258.731 135.831 258.266 134.465 258.079 133.049C257.892 131.632 257.986 130.193 258.355 128.814C258.725 127.434 259.363 126.141 260.232 125.008C261.102 123.875 262.187 122.924 263.425 122.211C264.663 121.497 266.029 121.034 267.447 120.848C268.864 120.662 270.304 120.757 271.686 121.127C273.067 121.497 274.361 122.136 275.496 123.006C276.631 123.876 277.583 124.96 278.298 126.198V126.198Z" fill="url(#paint5_linear_315_656)" stroke="black" stroke-width="0.800002" stroke-linecap="round" stroke-linejoin="round"/>
<path d="M322.385 134.015C322.385 136.9 321.238 139.668 319.197 141.708C317.156 143.749 314.388 144.895 311.501 144.895C308.614 144.895 305.846 143.749 303.805 141.708C301.763 139.668 300.617 136.9 300.617 134.015C300.617 131.129 301.763 128.362 303.805 126.321C305.846 124.281 308.614 123.135 311.501 123.135C314.388 123.135 317.156 124.281 319.197 126.321C321.238 128.362 322.385 131.129 322.385 134.015V134.015Z" fill="black" fill-opacity="0.31373"/>
<path d="M317.438 139.319C315.395 141.36 312.625 142.507 309.737 142.508C306.849 142.509 304.08 141.365 302.039 139.326C299.998 137.288 298.852 134.522 298.853 131.638C298.854 128.753 300.002 125.987 302.045 123.946C304.088 121.906 306.859 120.759 309.747 120.758C312.634 120.757 315.404 121.901 317.445 123.94C319.486 125.978 320.632 128.744 320.631 131.628C320.629 134.512 319.481 137.279 317.438 139.319Z" fill="url(#paint6_linear_315_656)" stroke="black" stroke-width="0.799998" stroke-linecap="round" stroke-linejoin="round"/>
<path d="M315.439 166.231C301.037 166.231 289.344 177.92 289.344 192.314C289.344 195.291 289.844 198.145 290.765 200.808H340.099C341.019 198.145 341.52 195.291 341.52 192.314C341.52 177.92 329.841 166.231 315.439 166.231V166.231Z" fill="url(#paint7_linear_315_656)" stroke="black" stroke-width="0.8" stroke-linecap="round" stroke-linejoin="round"/>
<path d="M263.248 166.231C248.846 166.231 237.167 177.92 237.167 192.314C237.167 195.291 237.667 198.145 238.588 200.808H287.922C288.842 198.145 289.343 195.291 289.343 192.314C289.343 177.92 277.65 166.231 263.248 166.231Z" fill="url(#paint8_linear_315_656)" stroke="black" stroke-width="0.8" stroke-linecap="round" stroke-linejoin="round"/>
<path d="M286.665 73.0906C286.666 74.3634 286.415 75.6239 285.929 76.8C285.442 77.9761 284.728 79.0448 283.828 79.9451C282.927 80.8453 281.859 81.5594 280.682 82.0467C279.506 82.5339 278.245 82.7847 276.972 82.7847C275.699 82.7847 274.438 82.5339 273.261 82.0467C272.085 81.5594 271.016 80.8453 270.116 79.9451C269.216 79.0448 268.502 77.9761 268.015 76.8C267.528 75.6239 267.278 74.3634 267.279 73.0906C267.278 71.8177 267.528 70.5573 268.015 69.3811C268.502 68.205 269.216 67.1363 270.116 66.2361C271.016 65.3359 272.085 64.6217 273.261 64.1345C274.438 63.6473 275.699 63.3965 276.972 63.3965C278.245 63.3965 279.506 63.6473 280.682 64.1345C281.859 64.6217 282.927 65.3359 283.828 66.2361C284.728 67.1363 285.442 68.205 285.929 69.3811C286.415 70.5573 286.666 71.8177 286.665 73.0906V73.0906Z" fill="white" stroke="black" stroke-width="0.800004" stroke-linecap="round" stroke-linejoin="round"/>
<path d="M308.132 73.0906C308.133 74.3634 307.883 75.6239 307.396 76.8C306.909 77.9761 306.195 79.0448 305.295 79.9451C304.395 80.8453 303.326 81.5594 302.15 82.0467C300.973 82.5339 299.712 82.7847 298.439 82.7847C297.166 82.7847 295.905 82.5339 294.729 82.0467C293.552 81.5594 292.484 80.8453 291.583 79.9451C290.683 79.0448 289.969 77.9761 289.482 76.8C288.996 75.6239 288.745 74.3634 288.746 73.0906C288.745 71.8177 288.996 70.5573 289.482 69.3811C289.969 68.205 290.683 67.1363 291.583 66.2361C292.484 65.3359 293.552 64.6217 294.729 64.1345C295.905 63.6473 297.166 63.3965 298.439 63.3965C299.712 63.3965 300.973 63.6473 302.15 64.1345C303.326 64.6217 304.395 65.3359 305.295 66.2361C306.195 67.1363 306.909 68.205 307.396 69.3811C307.883 70.5573 308.133 71.8177 308.132 73.0906Z" fill="white" stroke="black" stroke-width="0.800004" stroke-linecap="round" stroke-linejoin="round"/>
<path d="M283.662 74.2675C283.662 74.6787 283.581 75.0859 283.424 75.4659C283.267 75.8459 283.037 76.1913 282.746 76.4821C282.455 76.773 282.11 77.0038 281.73 77.1612C281.35 77.3187 280.942 77.3997 280.531 77.3997C280.12 77.3997 279.712 77.3187 279.332 77.1612C278.952 77.0038 278.607 76.773 278.316 76.4821C278.025 76.1913 277.795 75.8459 277.638 75.4659C277.481 75.0859 277.4 74.6787 277.4 74.2675C277.4 73.8563 277.481 73.449 277.638 73.069C277.795 72.689 278.025 72.3437 278.316 72.0528C278.607 71.7619 278.952 71.5312 279.332 71.3737C279.712 71.2163 280.12 71.1353 280.531 71.1353C280.942 71.1353 281.35 71.2163 281.73 71.3737C282.11 71.5312 282.455 71.7619 282.746 72.0528C283.037 72.3437 283.267 72.689 283.424 73.069C283.581 73.449 283.662 73.8563 283.662 74.2675V74.2675Z" fill="black"/>
<path d="M297.983 74.2675C297.983 74.6787 297.903 75.0859 297.745 75.4659C297.588 75.8459 297.358 76.1913 297.067 76.4821C296.776 76.773 296.431 77.0038 296.051 77.1612C295.671 77.3187 295.263 77.3997 294.852 77.3997C294.441 77.3997 294.033 77.3187 293.653 77.1612C293.273 77.0038 292.928 76.773 292.637 76.4821C292.347 76.1913 292.116 75.8459 291.959 75.4659C291.802 75.0859 291.721 74.6787 291.721 74.2675C291.721 73.8563 291.802 73.449 291.959 73.069C292.116 72.689 292.347 72.3437 292.637 72.0528C292.928 71.7619 293.273 71.5312 293.653 71.3737C294.033 71.2163 294.441 71.1353 294.852 71.1353C295.263 71.1353 295.671 71.2163 296.051 71.3737C296.431 71.5312 296.776 71.7619 297.067 72.0528C297.358 72.3437 297.588 72.689 297.745 73.069C297.903 73.449 297.983 73.8563 297.983 74.2675Z" fill="black"/>
<path fill-rule="evenodd" clip-rule="evenodd" d="M282.694 91.6798C284.275 89.9924 290.987 89.626 292.391 91.8877C293.795 94.1529 290.285 98.8453 287.541 98.634C284.811 98.4226 281.213 93.2546 282.694 91.6798Z" fill="black"/>
<path fill-rule="evenodd" clip-rule="evenodd" d="M265.04 57.2824C263.999 42.2327 248.493 38.805 247.745 40.5911C247.001 42.3807 250.578 62.4998 265.04 57.2824Z" fill="#74401B" stroke="black" stroke-width="0.8" stroke-linejoin="round"/>
<path fill-rule="evenodd" clip-rule="evenodd" d="M309.231 57.2824C310.271 42.2327 325.778 38.805 326.525 40.5911C327.27 42.3807 323.689 62.4998 309.231 57.2824Z" fill="url(#paint9_linear_315_656)" stroke="black" stroke-width="0.8" stroke-linejoin="round"/>
<path d="M260.937 193.279C260.937 195.477 260.201 197.584 258.89 199.138C257.58 200.692 255.803 201.565 253.95 201.565C252.097 201.565 250.32 200.692 249.01 199.138C247.7 197.584 246.964 195.477 246.964 193.279C246.964 191.082 247.7 188.974 249.01 187.42C250.32 185.867 252.097 184.994 253.95 184.994C255.803 184.994 257.58 185.867 258.89 187.42C260.201 188.974 260.937 191.082 260.937 193.279V193.279Z" fill="url(#paint10_linear_315_656)" stroke="black" stroke-width="0.734432" stroke-linecap="round" stroke-linejoin="round"/>
<path d="M278.46 193.279C278.46 195.477 277.724 197.584 276.414 199.138C275.104 200.692 273.327 201.565 271.474 201.565C269.621 201.565 267.844 200.692 266.534 199.138C265.224 197.584 264.488 195.477 264.488 193.279C264.488 191.082 265.224 188.974 266.534 187.42C267.844 185.867 269.621 184.994 271.474 184.994C273.327 184.994 275.104 185.867 276.414 187.42C277.724 188.974 278.46 191.082 278.46 193.279V193.279Z" fill="url(#paint11_linear_315_656)" stroke="black" stroke-width="0.734432" stroke-linecap="round" stroke-linejoin="round"/>
<path d="M270.171 193.279C270.171 195.477 269.435 197.584 268.125 199.138C266.815 200.692 265.038 201.565 263.185 201.565C261.332 201.565 259.555 200.692 258.245 199.138C256.934 197.584 256.198 195.477 256.198 193.279C256.198 191.082 256.934 188.974 258.245 187.42C259.555 185.867 261.332 184.994 263.185 184.994C265.038 184.994 266.815 185.867 268.125 187.42C269.435 188.974 270.171 191.082 270.171 193.279V193.279Z" fill="url(#paint12_linear_315_656)" stroke="black" stroke-width="0.734432" stroke-linecap="round" stroke-linejoin="round"/>
<path d="M314.697 193.279C314.697 195.477 313.961 197.584 312.651 199.138C311.34 200.692 309.563 201.565 307.71 201.565C305.857 201.565 304.08 200.692 302.77 199.138C301.46 197.584 300.724 195.477 300.724 193.279C300.724 191.082 301.46 188.974 302.77 187.42C304.08 185.867 305.857 184.994 307.71 184.994C309.563 184.994 311.34 185.867 312.651 187.42C313.961 188.974 314.697 191.082 314.697 193.279V193.279Z" fill="url(#paint13_linear_315_656)" stroke="black" stroke-width="0.734432" stroke-linecap="round" stroke-linejoin="round"/>
<path d="M332.223 193.279C332.223 195.477 331.487 197.584 330.176 199.138C328.866 200.692 327.089 201.565 325.236 201.565C323.383 201.565 321.606 200.692 320.296 199.138C318.986 197.584 318.25 195.477 318.25 193.279C318.25 191.082 318.986 188.974 320.296 187.42C321.606 185.867 323.383 184.994 325.236 184.994C327.089 184.994 328.866 185.867 330.176 187.42C331.487 188.974 332.223 191.082 332.223 193.279V193.279Z" fill="url(#paint14_linear_315_656)" stroke="black" stroke-width="0.734432" stroke-linecap="round" stroke-linejoin="round"/>
<path d="M323.933 193.279C323.933 195.477 323.197 197.584 321.887 199.138C320.577 200.692 318.8 201.565 316.947 201.565C315.094 201.565 313.317 200.692 312.006 199.138C310.696 197.584 309.96 195.477 309.96 193.279C309.96 191.082 310.696 188.974 312.006 187.42C313.317 185.867 315.094 184.994 316.947 184.994C318.8 184.994 320.577 185.867 321.887 187.42C323.197 188.974 323.933 191.082 323.933 193.279V193.279Z" fill="url(#paint15_linear_315_656)" stroke="black" stroke-width="0.734432" stroke-linecap="round" stroke-linejoin="round"/>
<path d="M315.04 63.9868C315.58 66.2203 315.869 68.5595 315.869 70.955C315.869 87.3258 302.568 106.289 286.19 106.289C274.253 106.289 263.971 96.2105 259.266 84.4053C262.909 98.0353 274.26 110.816 287.7 110.816C304.077 110.816 317.379 91.8386 317.379 75.4678C317.379 71.3954 316.546 67.5202 315.054 63.9868H315.04Z" fill="black" fill-opacity="0.31373"/>
<path d="M272.299 134.24C272.784 134.52 273.215 134.881 273.569 135.302C273.923 135.724 274.193 136.197 274.362 136.696C274.531 137.195 274.597 137.71 274.555 138.21C274.514 138.71 274.366 139.187 274.12 139.613C273.874 140.038 273.535 140.404 273.122 140.691C272.71 140.977 272.231 141.177 271.714 141.28C271.198 141.383 270.653 141.387 270.11 141.291C269.568 141.195 269.039 141.002 268.554 140.722C268.069 140.442 267.638 140.081 267.283 139.66C266.929 139.238 266.66 138.764 266.491 138.265C266.322 137.767 266.256 137.252 266.298 136.752C266.339 136.252 266.487 135.775 266.733 135.349C266.979 134.924 267.318 134.557 267.731 134.271C268.143 133.985 268.622 133.785 269.139 133.682C269.655 133.579 270.2 133.575 270.743 133.671C271.285 133.766 271.813 133.96 272.299 134.24V134.24Z" fill="url(#paint16_linear_315_656)" stroke="black" stroke-width="0.734456" stroke-linecap="round" stroke-linejoin="round"/>
<path d="M276.994 126.109C277.973 126.674 278.715 127.558 279.057 128.565C279.399 129.573 279.312 130.622 278.815 131.482C278.319 132.341 277.453 132.941 276.409 133.149C275.366 133.357 274.229 133.157 273.249 132.591C272.27 132.026 271.528 131.142 271.186 130.135C270.845 129.127 270.932 128.078 271.428 127.218C271.925 126.359 272.79 125.759 273.834 125.551C274.877 125.343 276.014 125.544 276.994 126.109V126.109Z" fill="url(#paint17_linear_315_656)" stroke="black" stroke-width="0.734456" stroke-linecap="round" stroke-linejoin="round"/>
<path d="M276.662 131.326C277.641 131.891 278.384 132.775 278.725 133.783C279.067 134.79 278.98 135.839 278.483 136.699C277.987 137.559 277.121 138.158 276.078 138.366C275.034 138.575 273.897 138.374 272.918 137.809C271.938 137.243 271.196 136.36 270.854 135.352C270.513 134.344 270.6 133.295 271.096 132.436C271.593 131.576 272.458 130.976 273.502 130.768C274.546 130.56 275.682 130.761 276.662 131.326V131.326Z" fill="url(#paint18_linear_315_656)" stroke="black" stroke-width="0.734456" stroke-linecap="round" stroke-linejoin="round"/>
<path d="M306.047 133.558C305.506 133.703 304.996 133.941 304.544 134.256C304.093 134.572 303.71 134.96 303.418 135.398C303.125 135.836 302.928 136.316 302.839 136.81C302.749 137.304 302.769 137.803 302.896 138.277C303.023 138.752 303.255 139.194 303.58 139.577C303.904 139.96 304.315 140.277 304.787 140.51C305.26 140.743 305.785 140.888 306.334 140.935C306.882 140.983 307.443 140.933 307.984 140.788C308.525 140.643 309.036 140.406 309.487 140.09C309.938 139.774 310.321 139.386 310.614 138.948C310.906 138.51 311.103 138.03 311.193 137.536C311.282 137.042 311.263 136.544 311.136 136.069C311.009 135.594 310.776 135.153 310.452 134.77C310.127 134.387 309.717 134.069 309.244 133.836C308.772 133.603 308.246 133.459 307.698 133.411C307.149 133.363 306.589 133.413 306.047 133.558V133.558Z" fill="url(#paint19_linear_315_656)" stroke="black" stroke-width="0.734456" stroke-linecap="round" stroke-linejoin="round"/>
<path d="M303.621 124.491C303.08 124.636 302.569 124.873 302.118 125.189C301.667 125.504 301.284 125.892 300.991 126.331C300.698 126.769 300.502 127.249 300.412 127.743C300.322 128.237 300.342 128.735 300.469 129.21C300.596 129.685 300.829 130.126 301.153 130.509C301.478 130.892 301.888 131.209 302.36 131.443C302.833 131.676 303.358 131.82 303.907 131.868C304.455 131.916 305.016 131.865 305.557 131.72C306.65 131.428 307.596 130.766 308.187 129.881C308.778 128.996 308.966 127.96 308.709 127.001C308.452 126.043 307.772 125.24 306.818 124.769C305.863 124.298 304.713 124.198 303.621 124.491V124.491Z" fill="url(#paint20_linear_315_656)" stroke="black" stroke-width="0.734456" stroke-linecap="round" stroke-linejoin="round"/>
<path d="M302.591 129.617C301.498 129.909 300.552 130.571 299.961 131.456C299.37 132.341 299.182 133.377 299.439 134.336C299.696 135.294 300.376 136.097 301.33 136.568C302.285 137.039 303.435 137.139 304.527 136.846C305.62 136.553 306.566 135.891 307.157 135.006C307.748 134.121 307.936 133.086 307.679 132.127C307.552 131.652 307.319 131.211 306.995 130.828C306.67 130.445 306.26 130.128 305.788 129.894C304.833 129.424 303.683 129.324 302.591 129.617V129.617Z" fill="url(#paint21_linear_315_656)" stroke="black" stroke-width="0.734456" stroke-linecap="round" stroke-linejoin="round"/>
<defs>
<linearGradient id="paint0_linear_315_656" x1="251.012" y1="91.6819" x2="378.48" y2="91.6819" gradientUnits="userSpaceOnUse">
<stop stop-color="#D07839"/>
</linearGradient>
<linearGradient id="paint1_linear_315_656" x1="229.295" y1="141.481" x2="345.803" y2="141.481" gradientUnits="userSpaceOnUse">
<stop stop-color="#D07839"/>
</linearGradient>
<linearGradient id="paint2_linear_315_656" x1="236.799" y1="73.4263" x2="337.676" y2="73.4263" gradientUnits="userSpaceOnUse">
<stop stop-color="#D07839"/>
</linearGradient>
<linearGradient id="paint3_linear_315_656" x1="117.253" y1="161.384" x2="117.619" y2="162.584" gradientUnits="userSpaceOnUse">
<stop stop-color="#74401B"/>
</linearGradient>
<linearGradient id="paint4_linear_315_656" x1="116.872" y1="158.754" x2="117.893" y2="162.101" gradientUnits="userSpaceOnUse">
<stop stop-color="#74401B"/>
</linearGradient>
<linearGradient id="paint5_linear_315_656" x1="262.281" y1="-201.53" x2="270.585" y2="-199.299" gradientUnits="userSpaceOnUse">
<stop stop-color="#D07839"/>
</linearGradient>
<linearGradient id="paint6_linear_315_656" x1="277.873" y1="-197.363" x2="286.179" y2="-195.131" gradientUnits="userSpaceOnUse">
<stop stop-color="#D07839"/>
</linearGradient>
<linearGradient id="paint7_linear_315_656" x1="269.578" y1="-180.964" x2="289.477" y2="-175.617" gradientUnits="userSpaceOnUse">
<stop stop-color="#D07839"/>
</linearGradient>
<linearGradient id="paint8_linear_315_656" x1="249.671" y1="-186.283" x2="269.57" y2="-180.936" gradientUnits="userSpaceOnUse">
<stop stop-color="#D07839"/>
</linearGradient>
<linearGradient id="paint9_linear_315_656" x1="84.4244" y1="173.179" x2="85.1535" y2="175.569" gradientUnits="userSpaceOnUse">
<stop stop-color="#74401B"/>
</linearGradient>
<linearGradient id="paint10_linear_315_656" x1="147.389" y1="144.616" x2="147.975" y2="146.537" gradientUnits="userSpaceOnUse">
<stop stop-color="#74401B"/>
</linearGradient>
<linearGradient id="paint11_linear_315_656" x1="147.965" y1="147.074" x2="148.551" y2="148.994" gradientUnits="userSpaceOnUse">
<stop stop-color="#74401B"/>
</linearGradient>
<linearGradient id="paint12_linear_315_656" x1="147.692" y1="145.911" x2="148.278" y2="147.832" gradientUnits="userSpaceOnUse">
<stop stop-color="#74401B"/>
</linearGradient>
<linearGradient id="paint13_linear_315_656" x1="149.155" y1="152.156" x2="149.741" y2="154.077" gradientUnits="userSpaceOnUse">
<stop stop-color="#74401B"/>
</linearGradient>
<linearGradient id="paint14_linear_315_656" x1="149.73" y1="154.614" x2="150.316" y2="156.534" gradientUnits="userSpaceOnUse">
<stop stop-color="#74401B"/>
</linearGradient>
<linearGradient id="paint15_linear_315_656" x1="149.458" y1="153.451" x2="150.044" y2="155.372" gradientUnits="userSpaceOnUse">
<stop stop-color="#74401B"/>
</linearGradient>
<linearGradient id="paint16_linear_315_656" x1="124.956" y1="154.362" x2="125.303" y2="155.501" gradientUnits="userSpaceOnUse">
<stop stop-color="#74401B"/>
</linearGradient>
<linearGradient id="paint17_linear_315_656" x1="121.46" y1="156.134" x2="121.808" y2="157.272" gradientUnits="userSpaceOnUse">
<stop stop-color="#74401B"/>
</linearGradient>
<linearGradient id="paint18_linear_315_656" x1="123.791" y1="155.373" x2="124.138" y2="156.511" gradientUnits="userSpaceOnUse">
<stop stop-color="#74401B"/>
</linearGradient>
<linearGradient id="paint19_linear_315_656" x1="126.061" y1="159.509" x2="126.416" y2="160.673" gradientUnits="userSpaceOnUse">
<stop stop-color="#74401B"/>
</linearGradient>
<linearGradient id="paint20_linear_315_656" x1="121.911" y1="160.411" x2="122.266" y2="161.575" gradientUnits="userSpaceOnUse">
<stop stop-color="#74401B"/>
</linearGradient>
<linearGradient id="paint21_linear_315_656" x1="124.178" y1="159.565" x2="124.533" y2="160.728" gradientUnits="userSpaceOnUse">
<stop stop-color="#74401B"/>
</linearGradient>
</defs>
</svg>
